<?xml version="1.0" encoding="utf-8" standalone="no"?>
<!DOCTYPE svg PUBLIC "-//W3C//DTD SVG 1.1//EN"
  "http://www.w3.org/Graphics/SVG/1.1/DTD/svg11.dtd">
<svg height="248.518125pt" version="1.1" viewBox="0 0 370.942187 248.518125" width="370.942187pt" xmlns="http://www.w3.org/2000/svg" xmlns:xlink="http://www.w3.org/1999/xlink">
 <metadata>
  <rdf:RDF xmlns:cc="http://creativecommons.org/ns#" xmlns:dc="http://purl.org/dc/elements/1.1/" xmlns:rdf="http://www.w3.org/1999/02/22-rdf-syntax-ns#">
   <cc:Work>
    <dc:type rdf:resource="http://purl.org/dc/dcmitype/StillImage"/>
    <dc:date>2021-10-14T14:02:36.155800</dc:date>
    <dc:format>image/svg+xml</dc:format>
    <dc:creator>
     <cc:Agent>
      <dc:title>Matplotlib v3.4.3, https://matplotlib.org/</dc:title>
     </cc:Agent>
    </dc:creator>
   </cc:Work>
  </rdf:RDF>
 </metadata>
 <defs>
  <style type="text/css">*{stroke-linecap:butt;stroke-linejoin:round;}</style>
 </defs>
 <g id="figure_1">
  <g id="patch_1">
   <path d="M 0 248.518125 
L 370.942187 248.518125 
L 370.942187 0 
L 0 0 
z
" style="fill:none;"/>
  </g>
  <g id="axes_1">
   <g id="patch_2">
    <path d="M 28.942188 224.64 
L 363.742188 224.64 
L 363.742188 7.2 
L 28.942188 7.2 
z
" style="fill:#ffffff;"/>
   </g>
   <g id="matplotlib.axis_1">
    <g id="xtick_1">
     <g id="line2d_1">
      <defs>
       <path d="M 0 0 
L 0 3.5 
" id="ma987812af3" style="stroke:#000000;stroke-width:0.8;"/>
      </defs>
      <g>
       <use style="stroke:#000000;stroke-width:0.8;" x="44.160369" xlink:href="#ma987812af3" y="224.64"/>
      </g>
     </g>
     <g id="text_1">
      <!-- −1.00 -->
      <g transform="translate(28.837713 239.238437)scale(0.1 -0.1)">
       <defs>
        <path d="M 678 2272 
L 4684 2272 
L 4684 1741 
L 678 1741 
L 678 2272 
z
" id="DejaVuSans-2212" transform="scale(0.015625)"/>
        <path d="M 794 531 
L 1825 531 
L 1825 4091 
L 703 3866 
L 703 4441 
L 1819 4666 
L 2450 4666 
L 2450 531 
L 3481 531 
L 3481 0 
L 794 0 
L 794 531 
z
" id="DejaVuSans-31" transform="scale(0.015625)"/>
        <path d="M 684 794 
L 1344 794 
L 1344 0 
L 684 0 
L 684 794 
z
" id="DejaVuSans-2e" transform="scale(0.015625)"/>
        <path d="M 2034 4250 
Q 1547 4250 1301 3770 
Q 1056 3291 1056 2328 
Q 1056 1369 1301 889 
Q 1547 409 2034 409 
Q 2525 409 2770 889 
Q 3016 1369 3016 2328 
Q 3016 3291 2770 3770 
Q 2525 4250 2034 4250 
z
M 2034 4750 
Q 2819 4750 3233 4129 
Q 3647 3509 3647 2328 
Q 3647 1150 3233 529 
Q 2819 -91 2034 -91 
Q 1250 -91 836 529 
Q 422 1150 422 2328 
Q 422 3509 836 4129 
Q 1250 4750 2034 4750 
z
" id="DejaVuSans-30" transform="scale(0.015625)"/>
       </defs>
       <use xlink:href="#DejaVuSans-2212"/>
       <use x="83.789062" xlink:href="#DejaVuSans-31"/>
       <use x="147.412109" xlink:href="#DejaVuSans-2e"/>
       <use x="179.199219" xlink:href="#DejaVuSans-30"/>
       <use x="242.822266" xlink:href="#DejaVuSans-30"/>
      </g>
     </g>
    </g>
    <g id="xtick_2">
     <g id="line2d_2">
      <g>
       <use style="stroke:#000000;stroke-width:0.8;" x="82.205824" xlink:href="#ma987812af3" y="224.64"/>
      </g>
     </g>
     <g id="text_2">
      <!-- −0.75 -->
      <g transform="translate(66.883168 239.238437)scale(0.1 -0.1)">
       <defs>
        <path d="M 525 4666 
L 3525 4666 
L 3525 4397 
L 1831 0 
L 1172 0 
L 2766 4134 
L 525 4134 
L 525 4666 
z
" id="DejaVuSans-37" transform="scale(0.015625)"/>
        <path d="M 691 4666 
L 3169 4666 
L 3169 4134 
L 1269 4134 
L 1269 2991 
Q 1406 3038 1543 3061 
Q 1681 3084 1819 3084 
Q 2600 3084 3056 2656 
Q 3513 2228 3513 1497 
Q 3513 744 3044 326 
Q 2575 -91 1722 -91 
Q 1428 -91 1123 -41 
Q 819 9 494 109 
L 494 744 
Q 775 591 1075 516 
Q 1375 441 1709 441 
Q 2250 441 2565 725 
Q 2881 1009 2881 1497 
Q 2881 1984 2565 2268 
Q 2250 2553 1709 2553 
Q 1456 2553 1204 2497 
Q 953 2441 691 2322 
L 691 4666 
z
" id="DejaVuSans-35" transform="scale(0.015625)"/>
       </defs>
       <use xlink:href="#DejaVuSans-2212"/>
       <use x="83.789062" xlink:href="#DejaVuSans-30"/>
       <use x="147.412109" xlink:href="#DejaVuSans-2e"/>
       <use x="179.199219" xlink:href="#DejaVuSans-37"/>
       <use x="242.822266" xlink:href="#DejaVuSans-35"/>
      </g>
     </g>
    </g>
    <g id="xtick_3">
     <g id="line2d_3">
      <g>
       <use style="stroke:#000000;stroke-width:0.8;" x="120.251278" xlink:href="#ma987812af3" y="224.64"/>
      </g>
     </g>
     <g id="text_3">
      <!-- −0.50 -->
      <g transform="translate(104.928622 239.238437)scale(0.1 -0.1)">
       <use xlink:href="#DejaVuSans-2212"/>
       <use x="83.789062" xlink:href="#DejaVuSans-30"/>
       <use x="147.412109" xlink:href="#DejaVuSans-2e"/>
       <use x="179.199219" xlink:href="#DejaVuSans-35"/>
       <use x="242.822266" xlink:href="#DejaVuSans-30"/>
      </g>
     </g>
    </g>
    <g id="xtick_4">
     <g id="line2d_4">
      <g>
       <use style="stroke:#000000;stroke-width:0.8;" x="158.296733" xlink:href="#ma987812af3" y="224.64"/>
      </g>
     </g>
     <g id="text_4">
      <!-- −0.25 -->
      <g transform="translate(142.974077 239.238437)scale(0.1 -0.1)">
       <defs>
        <path d="M 1228 531 
L 3431 531 
L 3431 0 
L 469 0 
L 469 531 
Q 828 903 1448 1529 
Q 2069 2156 2228 2338 
Q 2531 2678 2651 2914 
Q 2772 3150 2772 3378 
Q 2772 3750 2511 3984 
Q 2250 4219 1831 4219 
Q 1534 4219 1204 4116 
Q 875 4013 500 3803 
L 500 4441 
Q 881 4594 1212 4672 
Q 1544 4750 1819 4750 
Q 2544 4750 2975 4387 
Q 3406 4025 3406 3419 
Q 3406 3131 3298 2873 
Q 3191 2616 2906 2266 
Q 2828 2175 2409 1742 
Q 1991 1309 1228 531 
z
" id="DejaVuSans-32" transform="scale(0.015625)"/>
       </defs>
       <use xlink:href="#DejaVuSans-2212"/>
       <use x="83.789062" xlink:href="#DejaVuSans-30"/>
       <use x="147.412109" xlink:href="#DejaVuSans-2e"/>
       <use x="179.199219" xlink:href="#DejaVuSans-32"/>
       <use x="242.822266" xlink:href="#DejaVuSans-35"/>
      </g>
     </g>
    </g>
    <g id="xtick_5">
     <g id="line2d_5">
      <g>
       <use style="stroke:#000000;stroke-width:0.8;" x="196.342188" xlink:href="#ma987812af3" y="224.64"/>
      </g>
     </g>
     <g id="text_5">
      <!-- 0.00 -->
      <g transform="translate(185.209375 239.238437)scale(0.1 -0.1)">
       <use xlink:href="#DejaVuSans-30"/>
       <use x="63.623047" xlink:href="#DejaVuSans-2e"/>
       <use x="95.410156" xlink:href="#DejaVuSans-30"/>
       <use x="159.033203" xlink:href="#DejaVuSans-30"/>
      </g>
     </g>
    </g>
    <g id="xtick_6">
     <g id="line2d_6">
      <g>
       <use style="stroke:#000000;stroke-width:0.8;" x="234.387642" xlink:href="#ma987812af3" y="224.64"/>
      </g>
     </g>
     <g id="text_6">
      <!-- 0.25 -->
      <g transform="translate(223.25483 239.238437)scale(0.1 -0.1)">
       <use xlink:href="#DejaVuSans-30"/>
       <use x="63.623047" xlink:href="#DejaVuSans-2e"/>
       <use x="95.410156" xlink:href="#DejaVuSans-32"/>
       <use x="159.033203" xlink:href="#DejaVuSans-35"/>
      </g>
     </g>
    </g>
    <g id="xtick_7">
     <g id="line2d_7">
      <g>
       <use style="stroke:#000000;stroke-width:0.8;" x="272.433097" xlink:href="#ma987812af3" y="224.64"/>
      </g>
     </g>
     <g id="text_7">
      <!-- 0.50 -->
      <g transform="translate(261.300284 239.238437)scale(0.1 -0.1)">
       <use xlink:href="#DejaVuSans-30"/>
       <use x="63.623047" xlink:href="#DejaVuSans-2e"/>
       <use x="95.410156" xlink:href="#DejaVuSans-35"/>
       <use x="159.033203" xlink:href="#DejaVuSans-30"/>
      </g>
     </g>
    </g>
    <g id="xtick_8">
     <g id="line2d_8">
      <g>
       <use style="stroke:#000000;stroke-width:0.8;" x="310.478551" xlink:href="#ma987812af3" y="224.64"/>
      </g>
     </g>
     <g id="text_8">
      <!-- 0.75 -->
      <g transform="translate(299.345739 239.238437)scale(0.1 -0.1)">
       <use xlink:href="#DejaVuSans-30"/>
       <use x="63.623047" xlink:href="#DejaVuSans-2e"/>
       <use x="95.410156" xlink:href="#DejaVuSans-37"/>
       <use x="159.033203" xlink:href="#DejaVuSans-35"/>
      </g>
     </g>
    </g>
    <g id="xtick_9">
     <g id="line2d_9">
      <g>
       <use style="stroke:#000000;stroke-width:0.8;" x="348.524006" xlink:href="#ma987812af3" y="224.64"/>
      </g>
     </g>
     <g id="text_9">
      <!-- 1.00 -->
      <g transform="translate(337.391193 239.238437)scale(0.1 -0.1)">
       <use xlink:href="#DejaVuSans-31"/>
       <use x="63.623047" xlink:href="#DejaVuSans-2e"/>
       <use x="95.410156" xlink:href="#DejaVuSans-30"/>
       <use x="159.033203" xlink:href="#DejaVuSans-30"/>
      </g>
     </g>
    </g>
   </g>
   <g id="matplotlib.axis_2">
    <g id="ytick_1">
     <g id="line2d_10">
      <defs>
       <path d="M 0 0 
L -3.5 0 
" id="m87518d7d74" style="stroke:#000000;stroke-width:0.8;"/>
      </defs>
      <g>
       <use style="stroke:#000000;stroke-width:0.8;" x="28.942188" xlink:href="#m87518d7d74" y="204.836248"/>
      </g>
     </g>
     <g id="text_10">
      <!-- −8 -->
      <g transform="translate(7.2 208.635466)scale(0.1 -0.1)">
       <defs>
        <path d="M 2034 2216 
Q 1584 2216 1326 1975 
Q 1069 1734 1069 1313 
Q 1069 891 1326 650 
Q 1584 409 2034 409 
Q 2484 409 2743 651 
Q 3003 894 3003 1313 
Q 3003 1734 2745 1975 
Q 2488 2216 2034 2216 
z
M 1403 2484 
Q 997 2584 770 2862 
Q 544 3141 544 3541 
Q 544 4100 942 4425 
Q 1341 4750 2034 4750 
Q 2731 4750 3128 4425 
Q 3525 4100 3525 3541 
Q 3525 3141 3298 2862 
Q 3072 2584 2669 2484 
Q 3125 2378 3379 2068 
Q 3634 1759 3634 1313 
Q 3634 634 3220 271 
Q 2806 -91 2034 -91 
Q 1263 -91 848 271 
Q 434 634 434 1313 
Q 434 1759 690 2068 
Q 947 2378 1403 2484 
z
M 1172 3481 
Q 1172 3119 1398 2916 
Q 1625 2713 2034 2713 
Q 2441 2713 2670 2916 
Q 2900 3119 2900 3481 
Q 2900 3844 2670 4047 
Q 2441 4250 2034 4250 
Q 1625 4250 1398 4047 
Q 1172 3844 1172 3481 
z
" id="DejaVuSans-38" transform="scale(0.015625)"/>
       </defs>
       <use xlink:href="#DejaVuSans-2212"/>
       <use x="83.789062" xlink:href="#DejaVuSans-38"/>
      </g>
     </g>
    </g>
    <g id="ytick_2">
     <g id="line2d_11">
      <g>
       <use style="stroke:#000000;stroke-width:0.8;" x="28.942188" xlink:href="#m87518d7d74" y="176.421358"/>
      </g>
     </g>
     <g id="text_11">
      <!-- −6 -->
      <g transform="translate(7.2 180.220577)scale(0.1 -0.1)">
       <defs>
        <path d="M 2113 2584 
Q 1688 2584 1439 2293 
Q 1191 2003 1191 1497 
Q 1191 994 1439 701 
Q 1688 409 2113 409 
Q 2538 409 2786 701 
Q 3034 994 3034 1497 
Q 3034 2003 2786 2293 
Q 2538 2584 2113 2584 
z
M 3366 4563 
L 3366 3988 
Q 3128 4100 2886 4159 
Q 2644 4219 2406 4219 
Q 1781 4219 1451 3797 
Q 1122 3375 1075 2522 
Q 1259 2794 1537 2939 
Q 1816 3084 2150 3084 
Q 2853 3084 3261 2657 
Q 3669 2231 3669 1497 
Q 3669 778 3244 343 
Q 2819 -91 2113 -91 
Q 1303 -91 875 529 
Q 447 1150 447 2328 
Q 447 3434 972 4092 
Q 1497 4750 2381 4750 
Q 2619 4750 2861 4703 
Q 3103 4656 3366 4563 
z
" id="DejaVuSans-36" transform="scale(0.015625)"/>
       </defs>
       <use xlink:href="#DejaVuSans-2212"/>
       <use x="83.789062" xlink:href="#DejaVuSans-36"/>
      </g>
     </g>
    </g>
    <g id="ytick_3">
     <g id="line2d_12">
      <g>
       <use style="stroke:#000000;stroke-width:0.8;" x="28.942188" xlink:href="#m87518d7d74" y="148.006468"/>
      </g>
     </g>
     <g id="text_12">
      <!-- −4 -->
      <g transform="translate(7.2 151.805687)scale(0.1 -0.1)">
       <defs>
        <path d="M 2419 4116 
L 825 1625 
L 2419 1625 
L 2419 4116 
z
M 2253 4666 
L 3047 4666 
L 3047 1625 
L 3713 1625 
L 3713 1100 
L 3047 1100 
L 3047 0 
L 2419 0 
L 2419 1100 
L 313 1100 
L 313 1709 
L 2253 4666 
z
" id="DejaVuSans-34" transform="scale(0.015625)"/>
       </defs>
       <use xlink:href="#DejaVuSans-2212"/>
       <use x="83.789062" xlink:href="#DejaVuSans-34"/>
      </g>
     </g>
    </g>
    <g id="ytick_4">
     <g id="line2d_13">
      <g>
       <use style="stroke:#000000;stroke-width:0.8;" x="28.942188" xlink:href="#m87518d7d74" y="119.591579"/>
      </g>
     </g>
     <g id="text_13">
      <!-- −2 -->
      <g transform="translate(7.2 123.390797)scale(0.1 -0.1)">
       <use xlink:href="#DejaVuSans-2212"/>
       <use x="83.789062" xlink:href="#DejaVuSans-32"/>
      </g>
     </g>
    </g>
    <g id="ytick_5">
     <g id="line2d_14">
      <g>
       <use style="stroke:#000000;stroke-width:0.8;" x="28.942188" xlink:href="#m87518d7d74" y="91.176689"/>
      </g>
     </g>
     <g id="text_14">
      <!-- 0 -->
      <g transform="translate(15.579688 94.975908)scale(0.1 -0.1)">
       <use xlink:href="#DejaVuSans-30"/>
      </g>
     </g>
    </g>
    <g id="ytick_6">
     <g id="line2d_15">
      <g>
       <use style="stroke:#000000;stroke-width:0.8;" x="28.942188" xlink:href="#m87518d7d74" y="62.761799"/>
      </g>
     </g>
     <g id="text_15">
      <!-- 2 -->
      <g transform="translate(15.579688 66.561018)scale(0.1 -0.1)">
       <use xlink:href="#DejaVuSans-32"/>
      </g>
     </g>
    </g>
    <g id="ytick_7">
     <g id="line2d_16">
      <g>
       <use style="stroke:#000000;stroke-width:0.8;" x="28.942188" xlink:href="#m87518d7d74" y="34.34691"/>
      </g>
     </g>
     <g id="text_16">
      <!-- 4 -->
      <g transform="translate(15.579688 38.146128)scale(0.1 -0.1)">
       <use xlink:href="#DejaVuSans-34"/>
      </g>
     </g>
    </g>
   </g>
   <g id="line2d_17">
    <path clip-path="url(#pc6628ffe4c)" d="M 44.160369 122.864686 
L 48.953497 133.900384 
L 63.332882 167.706269 
L 68.12601 178.075841 
L 70.522574 182.915465 
L 72.919138 187.481077 
L 75.315702 191.744287 
L 77.712266 195.680708 
L 80.10883 199.270237 
L 82.505394 202.497172 
L 84.901958 205.350229 
L 87.298523 207.822496 
L 89.695087 209.91122 
L 92.091651 211.617537 
L 94.488215 212.946141 
L 96.884779 213.904818 
L 99.281343 214.504025 
L 101.677907 214.756364 
L 104.074471 214.676095 
L 106.471035 214.278654 
L 108.867599 213.580199 
L 111.264163 212.597219 
L 113.660727 211.346159 
L 116.057291 209.843218 
L 118.453855 208.104125 
L 120.850419 206.144029 
L 123.246983 203.977525 
L 125.643548 201.618676 
L 128.040112 199.081161 
L 132.83324 193.524008 
L 137.626368 187.415644 
L 142.419496 180.874405 
L 149.609188 170.552708 
L 159.195444 156.734792 
L 163.988573 150.259502 
L 168.781701 144.374331 
L 171.178265 141.724745 
L 173.574829 139.307288 
L 175.971393 137.147736 
L 178.367957 135.269753 
L 180.764521 133.694347 
L 183.161085 132.439299 
L 185.557649 131.518756 
L 187.954213 130.942716 
L 190.350777 130.716677 
L 192.747341 130.841322 
L 195.143905 131.312304 
L 197.54047 132.12013 
L 199.937034 133.250145 
L 202.333598 134.682599 
L 204.730162 136.392886 
L 207.126726 138.351841 
L 209.52329 140.526156 
L 214.316418 145.370172 
L 228.695802 160.798334 
L 231.092366 163.046783 
L 233.488931 165.0981 
L 235.885495 166.920243 
L 238.282059 168.4857 
L 240.678623 169.772019 
L 243.075187 170.762134 
L 245.471751 171.444693 
L 247.868315 171.814167 
L 250.264879 171.870886 
L 252.661443 171.620947 
L 255.058007 171.075991 
L 257.454571 170.252896 
L 259.851135 169.173384 
L 262.247699 167.863457 
L 264.644263 166.352848 
L 269.437392 162.863394 
L 276.627084 157.008085 
L 281.420212 153.129563 
L 286.21334 149.602424 
L 288.609904 148.047867 
L 291.006468 146.667107 
L 293.403032 145.480888 
L 295.799596 144.505382 
L 298.19616 143.751912 
L 300.592724 143.226697 
L 302.989288 142.930728 
L 305.385852 142.859748 
L 307.782417 143.004269 
L 310.178981 143.349783 
L 312.575545 143.876994 
L 314.972109 144.562183 
L 319.765237 146.292427 
L 331.748057 151.115561 
L 334.144621 151.87186 
L 336.541185 152.476353 
L 338.937749 152.89846 
L 341.334313 153.11144 
L 343.730878 153.093114 
L 346.127442 152.82654 
L 348.524006 152.300476 
L 348.524006 152.300476 
" style="fill:none;stroke:#1f77b4;stroke-linecap:square;stroke-width:1.5;"/>
   </g>
   <g id="line2d_18">
    <path clip-path="url(#pc6628ffe4c)" d="M 44.160369 85.124825 
L 46.556933 85.906018 
L 48.953497 86.539602 
L 51.350062 87.024955 
L 53.746626 87.365711 
L 56.14319 87.569544 
L 58.539754 87.647711 
L 63.332882 87.487264 
L 68.12601 87.02627 
L 80.10883 85.591516 
L 84.901958 85.249957 
L 89.695087 85.147728 
L 94.488215 85.274206 
L 108.867599 86.054074 
L 113.660727 85.929304 
L 116.057291 85.698179 
L 118.453855 85.329549 
L 120.850419 84.808088 
L 123.246983 84.122023 
L 125.643548 83.26369 
L 128.040112 82.230012 
L 130.436676 81.022805 
L 132.83324 79.649041 
L 135.229804 78.120872 
L 140.022932 74.675595 
L 147.212624 68.936298 
L 152.005752 65.129873 
L 154.402316 63.351521 
L 156.79888 61.712203 
L 159.195444 60.25365 
L 161.592009 59.016451 
L 163.988573 58.039206 
L 166.385137 57.357679 
L 168.781701 57.004045 
L 171.178265 57.006186 
L 173.574829 57.387045 
L 175.971393 58.164109 
L 178.367957 59.348987 
L 180.764521 60.947069 
L 183.161085 62.957345 
L 185.557649 65.372341 
L 187.954213 68.17813 
L 190.350777 71.35453 
L 192.747341 74.875369 
L 195.143905 78.708886 
L 197.54047 82.818272 
L 202.333598 91.695605 
L 209.52329 105.941206 
L 216.712982 120.074181 
L 221.50611 128.76544 
L 223.902674 132.757118 
L 226.299238 136.461938 
L 228.695802 139.847852 
L 231.092366 142.888275 
L 233.488931 145.562469 
L 235.885495 147.855793 
L 238.282059 149.759803 
L 240.678623 151.272254 
L 243.075187 152.396977 
L 245.471751 153.143596 
L 247.868315 153.527199 
L 250.264879 153.567848 
L 252.661443 153.290021 
L 255.058007 152.721987 
L 257.454571 151.895129 
L 259.851135 150.843201 
L 262.247699 149.601573 
L 267.040827 146.694388 
L 274.23052 141.807505 
L 279.023648 138.57801 
L 283.816776 135.6212 
L 288.609904 133.09239 
L 291.006468 132.021377 
L 293.403032 131.089742 
L 295.799596 130.301115 
L 298.19616 129.656062 
L 300.592724 129.152381 
L 302.989288 128.78544 
L 305.385852 128.548591 
L 307.782417 128.433544 
L 312.575545 128.530226 
L 317.368673 128.992911 
L 322.161801 129.739204 
L 326.954929 130.697414 
L 334.144621 132.419925 
L 341.334313 134.407296 
L 348.524006 136.644147 
L 348.524006 136.644147 
" style="fill:none;stroke:#ff7f0e;stroke-linecap:square;stroke-width:1.5;"/>
   </g>
   <g id="line2d_19">
    <path clip-path="url(#pc6628ffe4c)" d="M 44.160369 69.656355 
L 46.556933 68.347415 
L 48.953497 67.240852 
L 51.350062 66.316808 
L 53.746626 65.554608 
L 56.14319 64.93325 
L 60.936318 64.030173 
L 65.729446 63.450241 
L 72.919138 62.901196 
L 87.298523 62.140627 
L 92.091651 62.032043 
L 96.884779 62.145413 
L 101.677907 62.625298 
L 104.074471 63.052966 
L 106.471035 63.633125 
L 108.867599 64.385543 
L 111.264163 65.328658 
L 113.660727 66.478958 
L 116.057291 67.850438 
L 118.453855 69.454105 
L 120.850419 71.297537 
L 123.246983 73.384533 
L 125.643548 75.714878 
L 128.040112 78.284198 
L 130.436676 81.083932 
L 132.83324 84.101377 
L 137.626368 90.719322 
L 142.419496 97.963151 
L 149.609188 109.510606 
L 156.79888 121.105647 
L 161.592009 128.421232 
L 166.385137 135.112812 
L 168.781701 138.153654 
L 171.178265 140.957272 
L 173.574829 143.500953 
L 175.971393 145.764449 
L 178.367957 147.729965 
L 180.764521 149.382359 
L 183.161085 150.709207 
L 185.557649 151.700918 
L 187.954213 152.350809 
L 190.350777 152.655219 
L 192.747341 152.613647 
L 195.143905 152.228782 
L 197.54047 151.506639 
L 199.937034 150.456607 
L 202.333598 149.091511 
L 204.730162 147.427581 
L 207.126726 145.484437 
L 209.52329 143.284978 
L 211.919854 140.855229 
L 214.316418 138.22411 
L 219.109546 132.485989 
L 226.299238 123.219346 
L 231.092366 117.036924 
L 235.885495 111.195111 
L 238.282059 108.487263 
L 240.678623 105.962076 
L 243.075187 103.646044 
L 245.471751 101.561874 
L 247.868315 99.728145 
L 250.264879 98.158946 
L 252.661443 96.863661 
L 255.058007 95.846807 
L 257.454571 95.107902 
L 259.851135 94.641567 
L 262.247699 94.43754 
L 264.644263 94.480875 
L 267.040827 94.752204 
L 269.437392 95.228023 
L 271.833956 95.881128 
L 276.627084 97.5946 
L 288.609904 102.588823 
L 291.006468 103.411094 
L 293.403032 104.091041 
L 295.799596 104.597069 
L 298.19616 104.900939 
L 300.592724 104.978387 
L 302.989288 104.809653 
L 305.385852 104.38003 
L 307.782417 103.680193 
L 310.178981 102.706552 
L 312.575545 101.461423 
L 314.972109 99.953098 
L 317.368673 98.195756 
L 319.765237 96.209355 
L 322.161801 94.019237 
L 326.954929 89.15384 
L 334.144621 81.218912 
L 338.937749 76.014312 
L 341.334313 73.575919 
L 343.730878 71.307497 
L 346.127442 69.252537 
L 348.524006 67.451926 
L 348.524006 67.451926 
" style="fill:none;stroke:#2ca02c;stroke-linecap:square;stroke-width:1.5;"/>
   </g>
   <g id="line2d_20">
    <path clip-path="url(#pc6628ffe4c)" d="M 44.160369 109.91415 
L 48.953497 115.3106 
L 53.746626 121.20277 
L 65.729446 136.463088 
L 70.522574 142.046265 
L 72.919138 144.585989 
L 75.315702 146.914248 
L 77.712266 149.000806 
L 80.10883 150.817757 
L 82.505394 152.339858 
L 84.901958 153.544685 
L 87.298523 154.412808 
L 89.695087 154.927894 
L 92.091651 155.076744 
L 94.488215 154.849304 
L 96.884779 154.238654 
L 99.281343 153.240933 
L 101.677907 151.855302 
L 104.074471 150.083893 
L 106.471035 147.93173 
L 108.867599 145.406663 
L 111.264163 142.519383 
L 113.660727 139.283349 
L 116.057291 135.714791 
L 118.453855 131.832721 
L 120.850419 127.658924 
L 123.246983 123.217945 
L 128.040112 113.646431 
L 132.83324 103.368836 
L 149.609188 66.312206 
L 154.402316 56.838169 
L 156.79888 52.502271 
L 159.195444 48.485189 
L 161.592009 44.821289 
L 163.988573 41.540734 
L 166.385137 38.668779 
L 168.781701 36.225227 
L 171.178265 34.22385 
L 173.574829 32.671992 
L 175.971393 31.570257 
L 178.367957 30.912336 
L 180.764521 30.684968 
L 183.161085 30.868074 
L 185.557649 31.435002 
L 187.954213 32.352993 
L 190.350777 33.583686 
L 192.747341 35.083887 
L 195.143905 36.806348 
L 199.937034 40.714496 
L 209.52329 48.900999 
L 211.919854 50.726403 
L 214.316418 52.372137 
L 216.712982 53.800425 
L 219.109546 54.979184 
L 221.50611 55.882581 
L 223.902674 56.491488 
L 226.299238 56.793702 
L 228.695802 56.784074 
L 231.092366 56.464441 
L 233.488931 55.84341 
L 235.885495 54.936039 
L 238.282059 53.763285 
L 240.678623 52.351441 
L 243.075187 50.731449 
L 247.868315 47.009173 
L 255.058007 40.814937 
L 259.851135 36.759873 
L 262.247699 34.874678 
L 264.644263 33.133181 
L 267.040827 31.568411 
L 269.437392 30.209941 
L 271.833956 29.083615 
L 274.23052 28.211289 
L 276.627084 27.610706 
L 279.023648 27.295482 
L 281.420212 27.275162 
L 283.816776 27.55536 
L 286.21334 28.137987 
L 288.609904 29.021495 
L 291.006468 30.201216 
L 293.403032 31.669695 
L 295.799596 33.417021 
L 298.19616 35.431217 
L 300.592724 37.698508 
L 302.989288 40.203739 
L 305.385852 42.9305 
L 307.782417 45.861509 
L 312.575545 52.263267 
L 317.368673 59.257275 
L 322.161801 66.68343 
L 331.748057 82.147308 
L 338.937749 93.548738 
L 343.730878 100.679975 
L 348.524006 107.19004 
L 348.524006 107.19004 
" style="fill:none;stroke:#d62728;stroke-linecap:square;stroke-width:1.5;"/>
   </g>
   <g id="line2d_21">
    <path clip-path="url(#pc6628ffe4c)" d="M 44.160369 165.888531 
L 46.556933 166.979093 
L 48.953497 167.687129 
L 51.350062 168.011291 
L 53.746626 167.957778 
L 56.14319 167.540218 
L 58.539754 166.779241 
L 60.936318 165.702004 
L 63.332882 164.341386 
L 65.729446 162.735159 
L 68.12601 160.92498 
L 72.919138 156.872204 
L 82.505394 148.32056 
L 87.298523 144.492884 
L 89.695087 142.808948 
L 92.091651 141.309325 
L 94.488215 140.009706 
L 96.884779 138.91942 
L 99.281343 138.041414 
L 101.677907 137.372412 
L 104.074471 136.90313 
L 106.471035 136.618743 
L 108.867599 136.499345 
L 111.264163 136.520646 
L 116.057291 136.870327 
L 125.643548 137.873633 
L 128.040112 137.987649 
L 130.436676 137.981508 
L 132.83324 137.826263 
L 135.229804 137.496096 
L 137.626368 136.968928 
L 140.022932 136.226793 
L 142.419496 135.256243 
L 144.81606 134.048516 
L 147.212624 132.599754 
L 149.609188 130.910953 
L 152.005752 128.987939 
L 154.402316 126.841154 
L 156.79888 124.485417 
L 159.195444 121.93951 
L 163.988573 116.369635 
L 168.781701 110.343387 
L 180.764521 94.889547 
L 185.557649 89.193998 
L 187.954213 86.559433 
L 190.350777 84.096737 
L 192.747341 81.824756 
L 195.143905 79.759431 
L 197.54047 77.913753 
L 199.937034 76.297789 
L 202.333598 74.918759 
L 204.730162 73.781189 
L 207.126726 72.887081 
L 209.52329 72.236121 
L 211.919854 71.825927 
L 214.316418 71.652267 
L 216.712982 71.709359 
L 219.109546 71.99007 
L 221.50611 72.48619 
L 223.902674 73.188615 
L 226.299238 74.087592 
L 228.695802 75.172899 
L 231.092366 76.433977 
L 233.488931 77.860097 
L 235.885495 79.440487 
L 240.678623 83.021158 
L 245.471751 87.091616 
L 250.264879 91.5705 
L 255.058007 96.379726 
L 262.247699 104.047907 
L 274.23052 117.410142 
L 281.420212 125.334616 
L 286.21334 130.396013 
L 291.006468 135.171952 
L 295.799596 139.571651 
L 300.592724 143.512687 
L 305.385852 146.92846 
L 307.782417 148.424788 
L 310.178981 149.775837 
L 312.575545 150.980964 
L 314.972109 152.041667 
L 317.368673 152.961706 
L 319.765237 153.747045 
L 322.161801 154.405833 
L 326.954929 155.386378 
L 331.748057 156.005745 
L 336.541185 156.387209 
L 348.524006 157.164058 
L 348.524006 157.164058 
" style="fill:none;stroke:#9467bd;stroke-linecap:square;stroke-width:1.5;"/>
   </g>
   <g id="line2d_22">
    <path clip-path="url(#pc6628ffe4c)" d="M 44.160369 130.647206 
L 51.350062 120.269212 
L 56.14319 113.627465 
L 60.936318 107.386973 
L 65.729446 101.666399 
L 68.12601 99.03229 
L 70.522574 96.563972 
L 72.919138 94.272095 
L 75.315702 92.167108 
L 77.712266 90.259268 
L 80.10883 88.558656 
L 82.505394 87.075057 
L 84.901958 85.817737 
L 87.298523 84.795169 
L 89.695087 84.014661 
L 92.091651 83.481898 
L 94.488215 83.200553 
L 96.884779 83.17176 
L 99.281343 83.393711 
L 101.677907 83.861237 
L 104.074471 84.565482 
L 106.471035 85.493643 
L 108.867599 86.628864 
L 111.264163 87.950229 
L 113.660727 89.432861 
L 118.453855 92.764618 
L 130.436676 101.599483 
L 132.83324 103.154651 
L 135.229804 104.555837 
L 137.626368 105.772323 
L 140.022932 106.77748 
L 142.419496 107.549496 
L 144.81606 108.07202 
L 147.212624 108.334636 
L 149.609188 108.333193 
L 152.005752 108.070046 
L 154.402316 107.55402 
L 156.79888 106.800259 
L 159.195444 105.829966 
L 161.592009 104.669893 
L 166.385137 101.911667 
L 178.367957 94.332942 
L 180.764521 93.047116 
L 183.161085 91.936911 
L 185.557649 91.040302 
L 187.954213 90.39161 
L 190.350777 90.020803 
L 192.747341 89.95295 
L 195.143905 90.207777 
L 197.54047 90.799293 
L 199.937034 91.735581 
L 202.333598 93.018673 
L 204.730162 94.644524 
L 207.126726 96.60318 
L 209.52329 98.878941 
L 211.919854 101.450674 
L 214.316418 104.292257 
L 216.712982 107.373023 
L 221.50611 114.110214 
L 226.299238 121.349075 
L 233.488931 132.391353 
L 238.282059 139.365492 
L 240.678623 142.61248 
L 243.075187 145.649942 
L 245.471751 148.44489 
L 247.868315 150.96818 
L 250.264879 153.194891 
L 252.661443 155.104603 
L 255.058007 156.681572 
L 257.454571 157.914831 
L 259.851135 158.798222 
L 262.247699 159.330274 
L 264.644263 159.514094 
L 267.040827 159.357084 
L 269.437392 158.870674 
L 271.833956 158.069956 
L 274.23052 156.973269 
L 276.627084 155.60176 
L 279.023648 153.978929 
L 281.420212 152.130129 
L 283.816776 150.082061 
L 288.609904 145.498908 
L 293.403032 140.452293 
L 310.178981 122.053546 
L 314.972109 117.240213 
L 319.765237 112.814752 
L 324.558365 108.827689 
L 329.351493 105.303474 
L 334.144621 102.247893 
L 338.937749 99.655821 
L 343.730878 97.518315 
L 348.524006 95.827552 
L 348.524006 95.827552 
" style="fill:none;stroke:#8c564b;stroke-linecap:square;stroke-width:1.5;"/>
   </g>
   <g id="line2d_23">
    <path clip-path="url(#pc6628ffe4c)" d="M 44.160369 146.37887 
L 46.556933 146.390674 
L 48.953497 146.259807 
L 51.350062 146.000236 
L 56.14319 145.161933 
L 60.936318 144.028721 
L 70.522574 141.596684 
L 75.315702 140.672042 
L 77.712266 140.358824 
L 80.10883 140.169374 
L 82.505394 140.118628 
L 84.901958 140.218319 
L 87.298523 140.476578 
L 89.695087 140.89761 
L 92.091651 141.481459 
L 94.488215 142.223853 
L 96.884779 143.11617 
L 101.677907 145.294625 
L 106.471035 147.864953 
L 116.057291 153.30792 
L 120.850419 155.660765 
L 123.246983 156.625997 
L 125.643548 157.406954 
L 128.040112 157.973397 
L 130.436676 158.297719 
L 132.83324 158.355498 
L 135.229804 158.12595 
L 137.626368 157.592314 
L 140.022932 156.742166 
L 142.419496 155.567555 
L 144.81606 154.065196 
L 147.212624 152.2364 
L 149.609188 150.087024 
L 152.005752 147.627279 
L 154.402316 144.871494 
L 156.79888 141.837786 
L 159.195444 138.547692 
L 161.592009 135.025704 
L 166.385137 127.396125 
L 171.178265 119.186304 
L 187.954213 89.498838 
L 192.747341 81.685624 
L 197.54047 74.494935 
L 199.937034 71.168536 
L 202.333598 68.034332 
L 204.730162 65.098222 
L 207.126726 62.363117 
L 209.52329 59.829061 
L 211.919854 57.493392 
L 214.316418 55.350932 
L 216.712982 53.394253 
L 219.109546 51.61394 
L 221.50611 49.998946 
L 223.902674 48.536944 
L 228.695802 46.018447 
L 233.488931 43.94901 
L 238.282059 42.224106 
L 243.075187 40.756208 
L 247.868315 39.484777 
L 252.661443 38.38297 
L 257.454571 37.460259 
L 262.247699 36.760633 
L 267.040827 36.356701 
L 271.833956 36.340472 
L 274.23052 36.509048 
L 276.627084 36.812092 
L 279.023648 37.261441 
L 281.420212 37.868009 
L 283.816776 38.641445 
L 286.21334 39.589895 
L 288.609904 40.719755 
L 291.006468 42.03549 
L 293.403032 43.539514 
L 295.799596 45.232051 
L 298.19616 47.111152 
L 300.592724 49.172626 
L 302.989288 51.410103 
L 307.782417 56.37702 
L 312.575545 61.920059 
L 317.368673 67.91894 
L 324.558365 77.453353 
L 334.144621 90.302801 
L 338.937749 96.405433 
L 343.730878 102.082317 
L 348.524006 107.199626 
L 348.524006 107.199626 
" style="fill:none;stroke:#e377c2;stroke-linecap:square;stroke-width:1.5;"/>
   </g>
   <g id="line2d_24">
    <path clip-path="url(#pc6628ffe4c)" d="M 44.160369 191.818505 
L 46.556933 191.630193 
L 48.953497 191.040162 
L 51.350062 190.065907 
L 53.746626 188.726606 
L 56.14319 187.043072 
L 58.539754 185.037489 
L 60.936318 182.733311 
L 63.332882 180.155064 
L 65.729446 177.328238 
L 68.12601 174.279097 
L 72.919138 167.621876 
L 77.712266 160.402887 
L 84.901958 149.001671 
L 94.488215 133.810447 
L 99.281343 126.611929 
L 104.074471 119.845344 
L 108.867599 113.577221 
L 113.660727 107.820811 
L 118.453855 102.536551 
L 123.246983 97.638366 
L 130.436676 90.746843 
L 142.419496 79.37869 
L 149.609188 72.12904 
L 166.385137 54.683339 
L 171.178265 50.281925 
L 173.574829 48.317997 
L 175.971393 46.551297 
L 178.367957 45.009774 
L 180.764521 43.719261 
L 183.161085 42.702784 
L 185.557649 41.980042 
L 187.954213 41.566904 
L 190.350777 41.475093 
L 192.747341 41.711956 
L 195.143905 42.280347 
L 197.54047 43.178699 
L 199.937034 44.401129 
L 202.333598 45.937709 
L 204.730162 47.774789 
L 207.126726 49.895425 
L 209.52329 52.279846 
L 211.919854 54.905939 
L 214.316418 57.749786 
L 219.109546 63.988969 
L 223.902674 70.788275 
L 231.092366 81.581756 
L 240.678623 96.069042 
L 245.471751 102.964752 
L 250.264879 109.421999 
L 255.058007 115.297365 
L 257.454571 117.973748 
L 259.851135 120.453708 
L 262.247699 122.721127 
L 264.644263 124.760476 
L 267.040827 126.557026 
L 269.437392 128.097064 
L 271.833956 129.368144 
L 274.23052 130.359447 
L 276.627084 131.062059 
L 279.023648 131.469316 
L 281.420212 131.57716 
L 283.816776 131.384392 
L 286.21334 130.892979 
L 288.609904 130.108242 
L 291.006468 129.039026 
L 293.403032 127.697757 
L 295.799596 126.100469 
L 298.19616 124.266652 
L 300.592724 122.219127 
L 302.989288 119.983746 
L 307.782417 115.065617 
L 314.972109 107.05298 
L 322.161801 99.084527 
L 326.954929 94.219804 
L 329.351493 92.002767 
L 331.748057 89.957941 
L 334.144621 88.10211 
L 336.541185 86.447931 
L 338.937749 85.00383 
L 341.334313 83.773934 
L 343.730878 82.758161 
L 346.127442 81.952372 
L 348.524006 81.348668 
L 348.524006 81.348668 
" style="fill:none;stroke:#7f7f7f;stroke-linecap:square;stroke-width:1.5;"/>
   </g>
   <g id="line2d_25">
    <path clip-path="url(#pc6628ffe4c)" d="M 44.160369 78.46082 
L 46.556933 78.232502 
L 48.953497 78.154913 
L 51.350062 78.241603 
L 53.746626 78.505202 
L 56.14319 78.957163 
L 58.539754 79.607531 
L 60.936318 80.464663 
L 63.332882 81.534946 
L 65.729446 82.822537 
L 68.12601 84.329117 
L 70.522574 86.053599 
L 72.919138 87.991981 
L 75.315702 90.137129 
L 77.712266 92.478722 
L 80.10883 95.003149 
L 84.901958 100.529955 
L 89.695087 106.545967 
L 104.074471 125.231333 
L 108.867599 130.80342 
L 111.264163 133.319985 
L 113.660727 135.617736 
L 116.057291 137.670238 
L 118.453855 139.453853 
L 120.850419 140.94809 
L 123.246983 142.135879 
L 125.643548 143.003728 
L 128.040112 143.541937 
L 130.436676 143.744549 
L 132.83324 143.609422 
L 135.229804 143.138076 
L 137.626368 142.335601 
L 140.022932 141.210449 
L 142.419496 139.774136 
L 144.81606 138.040973 
L 147.212624 136.027719 
L 149.609188 133.753202 
L 152.005752 131.237945 
L 154.402316 128.503725 
L 159.195444 122.469379 
L 163.988573 115.834241 
L 168.781701 108.777397 
L 175.971393 97.753628 
L 187.954213 79.248495 
L 195.143905 68.522217 
L 202.333598 58.2847 
L 207.126726 51.795674 
L 211.919854 45.627806 
L 216.712982 39.839432 
L 221.50611 34.503506 
L 226.299238 29.706532 
L 228.695802 27.539898 
L 231.092366 25.544305 
L 233.488931 23.732098 
L 235.885495 22.115297 
L 238.282059 20.705299 
L 240.678623 19.512676 
L 243.075187 18.546867 
L 245.471751 17.816004 
L 247.868315 17.326648 
L 250.264879 17.083636 
L 252.661443 17.089953 
L 255.058007 17.346558 
L 257.454571 17.852346 
L 259.851135 18.604051 
L 262.247699 19.596239 
L 264.644263 20.821302 
L 267.040827 22.269455 
L 269.437392 23.928799 
L 271.833956 25.785355 
L 274.23052 27.823179 
L 279.023648 32.369268 
L 283.816776 37.403168 
L 291.006468 45.450492 
L 298.19616 53.453726 
L 302.989288 58.389973 
L 305.385852 60.654136 
L 307.782417 62.746434 
L 310.178981 64.641463 
L 312.575545 66.315481 
L 314.972109 67.746768 
L 317.368673 68.915981 
L 319.765237 69.806523 
L 322.161801 70.404803 
L 324.558365 70.700572 
L 326.954929 70.687123 
L 329.351493 70.361464 
L 331.748057 69.724441 
L 334.144621 68.780782 
L 336.541185 67.539066 
L 338.937749 66.011584 
L 341.334313 64.214229 
L 343.730878 62.166161 
L 346.127442 59.889533 
L 348.524006 57.409104 
L 348.524006 57.409104 
" style="fill:none;stroke:#bcbd22;stroke-linecap:square;stroke-width:1.5;"/>
   </g>
   <g id="line2d_26">
    <path clip-path="url(#pc6628ffe4c)" d="M 44.160369 126.276488 
L 48.953497 128.311519 
L 51.350062 129.206596 
L 53.746626 129.980534 
L 56.14319 130.606054 
L 58.539754 131.058773 
L 60.936318 131.317937 
L 63.332882 131.367014 
L 65.729446 131.194259 
L 68.12601 130.793128 
L 70.522574 130.16254 
L 72.919138 129.306917 
L 75.315702 128.23626 
L 77.712266 126.965858 
L 80.10883 125.51599 
L 84.901958 122.181029 
L 89.695087 118.472929 
L 96.884779 112.830773 
L 101.677907 109.443011 
L 104.074471 107.964467 
L 106.471035 106.669695 
L 108.867599 105.584565 
L 111.264163 104.730933 
L 113.660727 104.12625 
L 116.057291 103.7833 
L 118.453855 103.710049 
L 120.850419 103.909571 
L 123.246983 104.380092 
L 125.643548 105.115146 
L 128.040112 106.103809 
L 130.436676 107.330944 
L 132.83324 108.777675 
L 135.229804 110.421758 
L 137.626368 112.238081 
L 142.419496 116.275922 
L 149.609188 122.892961 
L 156.79888 129.449738 
L 161.592009 133.416215 
L 163.988573 135.209211 
L 166.385137 136.851776 
L 168.781701 138.330585 
L 171.178265 139.636047 
L 173.574829 140.762396 
L 175.971393 141.707752 
L 178.367957 142.474012 
L 180.764521 143.066767 
L 183.161085 143.495008 
L 185.557649 143.770865 
L 187.954213 143.909165 
L 192.747341 143.843276 
L 197.54047 143.451614 
L 211.919854 141.881674 
L 216.712982 141.62159 
L 221.50611 141.576356 
L 228.695802 141.821443 
L 235.885495 142.1323 
L 240.678623 142.137125 
L 245.471751 141.802452 
L 247.868315 141.466167 
L 250.264879 141.000042 
L 252.661443 140.39541 
L 255.058007 139.647613 
L 257.454571 138.756429 
L 259.851135 137.726276 
L 264.644263 135.290569 
L 269.437392 132.469355 
L 279.023648 126.496313 
L 283.816776 123.852369 
L 286.21334 122.731425 
L 288.609904 121.784974 
L 291.006468 121.03967 
L 293.403032 120.518229 
L 295.799596 120.238725 
L 298.19616 120.213939 
L 300.592724 120.450985 
L 302.989288 120.950931 
L 305.385852 121.708712 
L 307.782417 122.713123 
L 310.178981 123.947024 
L 312.575545 125.387668 
L 314.972109 127.007203 
L 319.765237 130.649872 
L 331.748057 140.273939 
L 334.144621 141.956619 
L 336.541185 143.467198 
L 338.937749 144.771919 
L 341.334313 145.841035 
L 343.730878 146.64939 
L 346.127442 147.176816 
L 348.524006 147.408476 
L 348.524006 147.408476 
" style="fill:none;stroke:#17becf;stroke-linecap:square;stroke-width:1.5;"/>
   </g>
   <g id="patch_3">
    <path d="M 28.942188 224.64 
L 28.942188 7.2 
" style="fill:none;stroke:#000000;stroke-linecap:square;stroke-linejoin:miter;stroke-width:0.8;"/>
   </g>
   <g id="patch_4">
    <path d="M 363.742188 224.64 
L 363.742188 7.2 
" style="fill:none;stroke:#000000;stroke-linecap:square;stroke-linejoin:miter;stroke-width:0.8;"/>
   </g>
   <g id="patch_5">
    <path d="M 28.942188 224.64 
L 363.742188 224.64 
" style="fill:none;stroke:#000000;stroke-linecap:square;stroke-linejoin:miter;stroke-width:0.8;"/>
   </g>
   <g id="patch_6">
    <path d="M 28.942188 7.2 
L 363.742188 7.2 
" style="fill:none;stroke:#000000;stroke-linecap:square;stroke-linejoin:miter;stroke-width:0.8;"/>
   </g>
  </g>
 </g>
 <defs>
  <clipPath id="pc6628ffe4c">
   <rect height="217.44" width="334.8" x="28.942188" y="7.2"/>
  </clipPath>
 </defs>
</svg>
