<?xml version="1.0" encoding="utf-8" standalone="no"?>
<!DOCTYPE svg PUBLIC "-//W3C//DTD SVG 1.1//EN"
  "http://www.w3.org/Graphics/SVG/1.1/DTD/svg11.dtd">
<svg height="266.799844pt" version="1.1" viewBox="0 0 386.216094 266.799844" width="386.216094pt" xmlns="http://www.w3.org/2000/svg" xmlns:xlink="http://www.w3.org/1999/xlink">
 <metadata>
  <rdf:RDF xmlns:cc="http://creativecommons.org/ns#" xmlns:dc="http://purl.org/dc/elements/1.1/" xmlns:rdf="http://www.w3.org/1999/02/22-rdf-syntax-ns#">
   <cc:Work>
    <dc:type rdf:resource="http://purl.org/dc/dcmitype/StillImage"/>
    <dc:date>2021-10-21T12:02:30.626563</dc:date>
    <dc:format>image/svg+xml</dc:format>
    <dc:creator>
     <cc:Agent>
      <dc:title>Matplotlib v3.4.3, https://matplotlib.org/</dc:title>
     </cc:Agent>
    </dc:creator>
   </cc:Work>
  </rdf:RDF>
 </metadata>
 <defs>
  <style type="text/css">*{stroke-linecap:butt;stroke-linejoin:round;}</style>
 </defs>
 <g id="figure_1">
  <g id="patch_1">
   <path d="M 0 266.799844 
L 386.216094 266.799844 
L 386.216094 0 
L 0 0 
z
" style="fill:#ffffff;"/>
  </g>
  <g id="axes_1">
   <g id="patch_2">
    <path d="M 44.216094 224.64 
L 379.016094 224.64 
L 379.016094 7.2 
L 44.216094 7.2 
z
" style="fill:#ffffff;"/>
   </g>
   <g id="matplotlib.axis_1">
    <g id="xtick_1">
     <g id="line2d_1">
      <defs>
       <path d="M 0 0 
L 0 6 
" id="ma50056522e" style="stroke:#262626;stroke-width:1.25;"/>
      </defs>
      <g>
       <use style="fill:#262626;stroke:#262626;stroke-width:1.25;" x="59.825687" xlink:href="#ma50056522e" y="224.64"/>
      </g>
     </g>
     <g id="text_1">
      <!-- −0.20 -->
      <g style="fill:#262626;" transform="translate(45.909827 242.013594)scale(0.11 -0.11)">
       <defs>
        <path d="M 3381 1997 
L 356 1997 
L 356 2522 
L 3381 2522 
L 3381 1997 
z
" id="ArialMT-2212" transform="scale(0.015625)"/>
        <path d="M 266 2259 
Q 266 3072 433 3567 
Q 600 4063 929 4331 
Q 1259 4600 1759 4600 
Q 2128 4600 2406 4451 
Q 2684 4303 2865 4023 
Q 3047 3744 3150 3342 
Q 3253 2941 3253 2259 
Q 3253 1453 3087 958 
Q 2922 463 2592 192 
Q 2263 -78 1759 -78 
Q 1097 -78 719 397 
Q 266 969 266 2259 
z
M 844 2259 
Q 844 1131 1108 757 
Q 1372 384 1759 384 
Q 2147 384 2411 759 
Q 2675 1134 2675 2259 
Q 2675 3391 2411 3762 
Q 2147 4134 1753 4134 
Q 1366 4134 1134 3806 
Q 844 3388 844 2259 
z
" id="ArialMT-30" transform="scale(0.015625)"/>
        <path d="M 581 0 
L 581 641 
L 1222 641 
L 1222 0 
L 581 0 
z
" id="ArialMT-2e" transform="scale(0.015625)"/>
        <path d="M 3222 541 
L 3222 0 
L 194 0 
Q 188 203 259 391 
Q 375 700 629 1000 
Q 884 1300 1366 1694 
Q 2113 2306 2375 2664 
Q 2638 3022 2638 3341 
Q 2638 3675 2398 3904 
Q 2159 4134 1775 4134 
Q 1369 4134 1125 3890 
Q 881 3647 878 3216 
L 300 3275 
Q 359 3922 746 4261 
Q 1134 4600 1788 4600 
Q 2447 4600 2831 4234 
Q 3216 3869 3216 3328 
Q 3216 3053 3103 2787 
Q 2991 2522 2730 2228 
Q 2469 1934 1863 1422 
Q 1356 997 1212 845 
Q 1069 694 975 541 
L 3222 541 
z
" id="ArialMT-32" transform="scale(0.015625)"/>
       </defs>
       <use xlink:href="#ArialMT-2212"/>
       <use x="58.398438" xlink:href="#ArialMT-30"/>
       <use x="114.013672" xlink:href="#ArialMT-2e"/>
       <use x="141.796875" xlink:href="#ArialMT-32"/>
       <use x="197.412109" xlink:href="#ArialMT-30"/>
      </g>
     </g>
    </g>
    <g id="xtick_2">
     <g id="line2d_2">
      <g>
       <use style="fill:#262626;stroke:#262626;stroke-width:1.25;" x="120.937131" xlink:href="#ma50056522e" y="224.64"/>
      </g>
     </g>
     <g id="text_2">
      <!-- −0.15 -->
      <g style="fill:#262626;" transform="translate(107.021271 242.013594)scale(0.11 -0.11)">
       <defs>
        <path d="M 2384 0 
L 1822 0 
L 1822 3584 
Q 1619 3391 1289 3197 
Q 959 3003 697 2906 
L 697 3450 
Q 1169 3672 1522 3987 
Q 1875 4303 2022 4600 
L 2384 4600 
L 2384 0 
z
" id="ArialMT-31" transform="scale(0.015625)"/>
        <path d="M 266 1200 
L 856 1250 
Q 922 819 1161 601 
Q 1400 384 1738 384 
Q 2144 384 2425 690 
Q 2706 997 2706 1503 
Q 2706 1984 2436 2262 
Q 2166 2541 1728 2541 
Q 1456 2541 1237 2417 
Q 1019 2294 894 2097 
L 366 2166 
L 809 4519 
L 3088 4519 
L 3088 3981 
L 1259 3981 
L 1013 2750 
Q 1425 3038 1878 3038 
Q 2478 3038 2890 2622 
Q 3303 2206 3303 1553 
Q 3303 931 2941 478 
Q 2500 -78 1738 -78 
Q 1113 -78 717 272 
Q 322 622 266 1200 
z
" id="ArialMT-35" transform="scale(0.015625)"/>
       </defs>
       <use xlink:href="#ArialMT-2212"/>
       <use x="58.398438" xlink:href="#ArialMT-30"/>
       <use x="114.013672" xlink:href="#ArialMT-2e"/>
       <use x="141.796875" xlink:href="#ArialMT-31"/>
       <use x="197.412109" xlink:href="#ArialMT-35"/>
      </g>
     </g>
    </g>
    <g id="xtick_3">
     <g id="line2d_3">
      <g>
       <use style="fill:#262626;stroke:#262626;stroke-width:1.25;" x="182.048575" xlink:href="#ma50056522e" y="224.64"/>
      </g>
     </g>
     <g id="text_3">
      <!-- −0.10 -->
      <g style="fill:#262626;" transform="translate(168.132715 242.013594)scale(0.11 -0.11)">
       <use xlink:href="#ArialMT-2212"/>
       <use x="58.398438" xlink:href="#ArialMT-30"/>
       <use x="114.013672" xlink:href="#ArialMT-2e"/>
       <use x="141.796875" xlink:href="#ArialMT-31"/>
       <use x="197.412109" xlink:href="#ArialMT-30"/>
      </g>
     </g>
    </g>
    <g id="xtick_4">
     <g id="line2d_4">
      <g>
       <use style="fill:#262626;stroke:#262626;stroke-width:1.25;" x="243.160018" xlink:href="#ma50056522e" y="224.64"/>
      </g>
     </g>
     <g id="text_4">
      <!-- −0.05 -->
      <g style="fill:#262626;" transform="translate(229.244159 242.013594)scale(0.11 -0.11)">
       <use xlink:href="#ArialMT-2212"/>
       <use x="58.398438" xlink:href="#ArialMT-30"/>
       <use x="114.013672" xlink:href="#ArialMT-2e"/>
       <use x="141.796875" xlink:href="#ArialMT-30"/>
       <use x="197.412109" xlink:href="#ArialMT-35"/>
      </g>
     </g>
    </g>
    <g id="xtick_5">
     <g id="line2d_5">
      <g>
       <use style="fill:#262626;stroke:#262626;stroke-width:1.25;" x="304.271462" xlink:href="#ma50056522e" y="224.64"/>
      </g>
     </g>
     <g id="text_5">
      <!-- 0.00 -->
      <g style="fill:#262626;" transform="translate(293.567947 242.013594)scale(0.11 -0.11)">
       <use xlink:href="#ArialMT-30"/>
       <use x="55.615234" xlink:href="#ArialMT-2e"/>
       <use x="83.398438" xlink:href="#ArialMT-30"/>
       <use x="139.013672" xlink:href="#ArialMT-30"/>
      </g>
     </g>
    </g>
    <g id="xtick_6">
     <g id="line2d_6">
      <g>
       <use style="fill:#262626;stroke:#262626;stroke-width:1.25;" x="365.382906" xlink:href="#ma50056522e" y="224.64"/>
      </g>
     </g>
     <g id="text_6">
      <!-- 0.05 -->
      <g style="fill:#262626;" transform="translate(354.67939 242.013594)scale(0.11 -0.11)">
       <use xlink:href="#ArialMT-30"/>
       <use x="55.615234" xlink:href="#ArialMT-2e"/>
       <use x="83.398438" xlink:href="#ArialMT-30"/>
       <use x="139.013672" xlink:href="#ArialMT-35"/>
      </g>
     </g>
    </g>
    <g id="text_7">
     <!-- $t-t_\mathrm{GW150914}$ ($\mathrm{s}$) -->
     <g style="fill:#262626;" transform="translate(167.096094 256.959844)scale(0.12 -0.12)">
      <defs>
       <path d="M 2706 3500 
L 2619 3053 
L 1472 3053 
L 1100 1153 
Q 1081 1047 1072 975 
Q 1063 903 1063 863 
Q 1063 663 1183 572 
Q 1303 481 1569 481 
L 2150 481 
L 2053 0 
L 1503 0 
Q 991 0 739 200 
Q 488 400 488 806 
Q 488 878 497 964 
Q 506 1050 525 1153 
L 897 3053 
L 409 3053 
L 500 3500 
L 978 3500 
L 1172 4494 
L 1747 4494 
L 1556 3500 
L 2706 3500 
z
" id="DejaVuSans-Oblique-74" transform="scale(0.015625)"/>
       <path d="M 678 2272 
L 4684 2272 
L 4684 1741 
L 678 1741 
L 678 2272 
z
" id="DejaVuSans-2212" transform="scale(0.015625)"/>
       <path d="M 3809 666 
L 3809 1919 
L 2778 1919 
L 2778 2438 
L 4434 2438 
L 4434 434 
Q 4069 175 3628 42 
Q 3188 -91 2688 -91 
Q 1594 -91 976 548 
Q 359 1188 359 2328 
Q 359 3472 976 4111 
Q 1594 4750 2688 4750 
Q 3144 4750 3555 4637 
Q 3966 4525 4313 4306 
L 4313 3634 
Q 3963 3931 3569 4081 
Q 3175 4231 2741 4231 
Q 1884 4231 1454 3753 
Q 1025 3275 1025 2328 
Q 1025 1384 1454 906 
Q 1884 428 2741 428 
Q 3075 428 3337 486 
Q 3600 544 3809 666 
z
" id="DejaVuSans-47" transform="scale(0.015625)"/>
       <path d="M 213 4666 
L 850 4666 
L 1831 722 
L 2809 4666 
L 3519 4666 
L 4500 722 
L 5478 4666 
L 6119 4666 
L 4947 0 
L 4153 0 
L 3169 4050 
L 2175 0 
L 1381 0 
L 213 4666 
z
" id="DejaVuSans-57" transform="scale(0.015625)"/>
       <path d="M 794 531 
L 1825 531 
L 1825 4091 
L 703 3866 
L 703 4441 
L 1819 4666 
L 2450 4666 
L 2450 531 
L 3481 531 
L 3481 0 
L 794 0 
L 794 531 
z
" id="DejaVuSans-31" transform="scale(0.015625)"/>
       <path d="M 691 4666 
L 3169 4666 
L 3169 4134 
L 1269 4134 
L 1269 2991 
Q 1406 3038 1543 3061 
Q 1681 3084 1819 3084 
Q 2600 3084 3056 2656 
Q 3513 2228 3513 1497 
Q 3513 744 3044 326 
Q 2575 -91 1722 -91 
Q 1428 -91 1123 -41 
Q 819 9 494 109 
L 494 744 
Q 775 591 1075 516 
Q 1375 441 1709 441 
Q 2250 441 2565 725 
Q 2881 1009 2881 1497 
Q 2881 1984 2565 2268 
Q 2250 2553 1709 2553 
Q 1456 2553 1204 2497 
Q 953 2441 691 2322 
L 691 4666 
z
" id="DejaVuSans-35" transform="scale(0.015625)"/>
       <path d="M 2034 4250 
Q 1547 4250 1301 3770 
Q 1056 3291 1056 2328 
Q 1056 1369 1301 889 
Q 1547 409 2034 409 
Q 2525 409 2770 889 
Q 3016 1369 3016 2328 
Q 3016 3291 2770 3770 
Q 2525 4250 2034 4250 
z
M 2034 4750 
Q 2819 4750 3233 4129 
Q 3647 3509 3647 2328 
Q 3647 1150 3233 529 
Q 2819 -91 2034 -91 
Q 1250 -91 836 529 
Q 422 1150 422 2328 
Q 422 3509 836 4129 
Q 1250 4750 2034 4750 
z
" id="DejaVuSans-30" transform="scale(0.015625)"/>
       <path d="M 703 97 
L 703 672 
Q 941 559 1184 500 
Q 1428 441 1663 441 
Q 2288 441 2617 861 
Q 2947 1281 2994 2138 
Q 2813 1869 2534 1725 
Q 2256 1581 1919 1581 
Q 1219 1581 811 2004 
Q 403 2428 403 3163 
Q 403 3881 828 4315 
Q 1253 4750 1959 4750 
Q 2769 4750 3195 4129 
Q 3622 3509 3622 2328 
Q 3622 1225 3098 567 
Q 2575 -91 1691 -91 
Q 1453 -91 1209 -44 
Q 966 3 703 97 
z
M 1959 2075 
Q 2384 2075 2632 2365 
Q 2881 2656 2881 3163 
Q 2881 3666 2632 3958 
Q 2384 4250 1959 4250 
Q 1534 4250 1286 3958 
Q 1038 3666 1038 3163 
Q 1038 2656 1286 2365 
Q 1534 2075 1959 2075 
z
" id="DejaVuSans-39" transform="scale(0.015625)"/>
       <path d="M 2419 4116 
L 825 1625 
L 2419 1625 
L 2419 4116 
z
M 2253 4666 
L 3047 4666 
L 3047 1625 
L 3713 1625 
L 3713 1100 
L 3047 1100 
L 3047 0 
L 2419 0 
L 2419 1100 
L 313 1100 
L 313 1709 
L 2253 4666 
z
" id="DejaVuSans-34" transform="scale(0.015625)"/>
       <path id="ArialMT-20" transform="scale(0.015625)"/>
       <path d="M 1497 -1347 
Q 1031 -759 709 28 
Q 388 816 388 1659 
Q 388 2403 628 3084 
Q 909 3875 1497 4659 
L 1900 4659 
Q 1522 4009 1400 3731 
Q 1209 3300 1100 2831 
Q 966 2247 966 1656 
Q 966 153 1900 -1347 
L 1497 -1347 
z
" id="ArialMT-28" transform="scale(0.015625)"/>
       <path d="M 2834 3397 
L 2834 2853 
Q 2591 2978 2328 3040 
Q 2066 3103 1784 3103 
Q 1356 3103 1142 2972 
Q 928 2841 928 2578 
Q 928 2378 1081 2264 
Q 1234 2150 1697 2047 
L 1894 2003 
Q 2506 1872 2764 1633 
Q 3022 1394 3022 966 
Q 3022 478 2636 193 
Q 2250 -91 1575 -91 
Q 1294 -91 989 -36 
Q 684 19 347 128 
L 347 722 
Q 666 556 975 473 
Q 1284 391 1588 391 
Q 1994 391 2212 530 
Q 2431 669 2431 922 
Q 2431 1156 2273 1281 
Q 2116 1406 1581 1522 
L 1381 1569 
Q 847 1681 609 1914 
Q 372 2147 372 2553 
Q 372 3047 722 3315 
Q 1072 3584 1716 3584 
Q 2034 3584 2315 3537 
Q 2597 3491 2834 3397 
z
" id="DejaVuSans-73" transform="scale(0.015625)"/>
       <path d="M 791 -1347 
L 388 -1347 
Q 1322 153 1322 1656 
Q 1322 2244 1188 2822 
Q 1081 3291 891 3722 
Q 769 4003 388 4659 
L 791 4659 
Q 1378 3875 1659 3084 
Q 1900 2403 1900 1659 
Q 1900 816 1576 28 
Q 1253 -759 791 -1347 
z
" id="ArialMT-29" transform="scale(0.015625)"/>
      </defs>
      <use transform="translate(0 0.203125)" xlink:href="#DejaVuSans-Oblique-74"/>
      <use transform="translate(58.691406 0.203125)" xlink:href="#DejaVuSans-2212"/>
      <use transform="translate(161.962891 0.203125)" xlink:href="#DejaVuSans-Oblique-74"/>
      <use transform="translate(201.171875 -16.203125)scale(0.7)" xlink:href="#DejaVuSans-47"/>
      <use transform="translate(255.415039 -16.203125)scale(0.7)" xlink:href="#DejaVuSans-57"/>
      <use transform="translate(324.628906 -16.203125)scale(0.7)" xlink:href="#DejaVuSans-31"/>
      <use transform="translate(369.165039 -16.203125)scale(0.7)" xlink:href="#DejaVuSans-35"/>
      <use transform="translate(413.701172 -16.203125)scale(0.7)" xlink:href="#DejaVuSans-30"/>
      <use transform="translate(458.237305 -16.203125)scale(0.7)" xlink:href="#DejaVuSans-39"/>
      <use transform="translate(502.773438 -16.203125)scale(0.7)" xlink:href="#DejaVuSans-31"/>
      <use transform="translate(547.30957 -16.203125)scale(0.7)" xlink:href="#DejaVuSans-34"/>
      <use transform="translate(594.580078 0.203125)" xlink:href="#ArialMT-20"/>
      <use transform="translate(622.363281 0.203125)" xlink:href="#ArialMT-28"/>
      <use transform="translate(655.664062 0.203125)" xlink:href="#DejaVuSans-73"/>
      <use transform="translate(707.763672 0.203125)" xlink:href="#ArialMT-29"/>
     </g>
    </g>
   </g>
   <g id="matplotlib.axis_2">
    <g id="ytick_1">
     <g id="line2d_7">
      <defs>
       <path d="M 0 0 
L -6 0 
" id="m298b35fd26" style="stroke:#262626;stroke-width:1.25;"/>
      </defs>
      <g>
       <use style="fill:#262626;stroke:#262626;stroke-width:1.25;" x="44.216094" xlink:href="#m298b35fd26" y="198.423206"/>
      </g>
     </g>
     <g id="text_8">
      <!-- −4 -->
      <g style="fill:#262626;" transform="translate(22.174375 202.360003)scale(0.11 -0.11)">
       <defs>
        <path d="M 2069 0 
L 2069 1097 
L 81 1097 
L 81 1613 
L 2172 4581 
L 2631 4581 
L 2631 1613 
L 3250 1613 
L 3250 1097 
L 2631 1097 
L 2631 0 
L 2069 0 
z
M 2069 1613 
L 2069 3678 
L 634 1613 
L 2069 1613 
z
" id="ArialMT-34" transform="scale(0.015625)"/>
       </defs>
       <use xlink:href="#ArialMT-2212"/>
       <use x="58.398438" xlink:href="#ArialMT-34"/>
      </g>
     </g>
    </g>
    <g id="ytick_2">
     <g id="line2d_8">
      <g>
       <use style="fill:#262626;stroke:#262626;stroke-width:1.25;" x="44.216094" xlink:href="#m298b35fd26" y="163.138465"/>
      </g>
     </g>
     <g id="text_9">
      <!-- −2 -->
      <g style="fill:#262626;" transform="translate(22.174375 167.075262)scale(0.11 -0.11)">
       <use xlink:href="#ArialMT-2212"/>
       <use x="58.398438" xlink:href="#ArialMT-32"/>
      </g>
     </g>
    </g>
    <g id="ytick_3">
     <g id="line2d_9">
      <g>
       <use style="fill:#262626;stroke:#262626;stroke-width:1.25;" x="44.216094" xlink:href="#m298b35fd26" y="127.853723"/>
      </g>
     </g>
     <g id="text_10">
      <!-- 0 -->
      <g style="fill:#262626;" transform="translate(28.599063 131.79052)scale(0.11 -0.11)">
       <use xlink:href="#ArialMT-30"/>
      </g>
     </g>
    </g>
    <g id="ytick_4">
     <g id="line2d_10">
      <g>
       <use style="fill:#262626;stroke:#262626;stroke-width:1.25;" x="44.216094" xlink:href="#m298b35fd26" y="92.568981"/>
      </g>
     </g>
     <g id="text_11">
      <!-- 2 -->
      <g style="fill:#262626;" transform="translate(28.599063 96.505778)scale(0.11 -0.11)">
       <use xlink:href="#ArialMT-32"/>
      </g>
     </g>
    </g>
    <g id="ytick_5">
     <g id="line2d_11">
      <g>
       <use style="fill:#262626;stroke:#262626;stroke-width:1.25;" x="44.216094" xlink:href="#m298b35fd26" y="57.28424"/>
      </g>
     </g>
     <g id="text_12">
      <!-- 4 -->
      <g style="fill:#262626;" transform="translate(28.599063 61.221037)scale(0.11 -0.11)">
       <use xlink:href="#ArialMT-34"/>
      </g>
     </g>
    </g>
    <g id="ytick_6">
     <g id="line2d_12">
      <g>
       <use style="fill:#262626;stroke:#262626;stroke-width:1.25;" x="44.216094" xlink:href="#m298b35fd26" y="21.999498"/>
      </g>
     </g>
     <g id="text_13">
      <!-- 6 -->
      <g style="fill:#262626;" transform="translate(28.599063 25.936295)scale(0.11 -0.11)">
       <defs>
        <path d="M 3184 3459 
L 2625 3416 
Q 2550 3747 2413 3897 
Q 2184 4138 1850 4138 
Q 1581 4138 1378 3988 
Q 1113 3794 959 3422 
Q 806 3050 800 2363 
Q 1003 2672 1297 2822 
Q 1591 2972 1913 2972 
Q 2475 2972 2870 2558 
Q 3266 2144 3266 1488 
Q 3266 1056 3080 686 
Q 2894 316 2569 119 
Q 2244 -78 1831 -78 
Q 1128 -78 684 439 
Q 241 956 241 2144 
Q 241 3472 731 4075 
Q 1159 4600 1884 4600 
Q 2425 4600 2770 4297 
Q 3116 3994 3184 3459 
z
M 888 1484 
Q 888 1194 1011 928 
Q 1134 663 1356 523 
Q 1578 384 1822 384 
Q 2178 384 2434 671 
Q 2691 959 2691 1453 
Q 2691 1928 2437 2201 
Q 2184 2475 1800 2475 
Q 1419 2475 1153 2201 
Q 888 1928 888 1484 
z
" id="ArialMT-36" transform="scale(0.015625)"/>
       </defs>
       <use xlink:href="#ArialMT-36"/>
      </g>
     </g>
    </g>
    <g id="text_14">
     <!-- Whitened Strain -->
     <g style="fill:#262626;" transform="translate(15.789375 158.60625)rotate(-90)scale(0.12 -0.12)">
      <defs>
       <path d="M 1294 0 
L 78 4581 
L 700 4581 
L 1397 1578 
Q 1509 1106 1591 641 
Q 1766 1375 1797 1488 
L 2669 4581 
L 3400 4581 
L 4056 2263 
Q 4303 1400 4413 641 
Q 4500 1075 4641 1638 
L 5359 4581 
L 5969 4581 
L 4713 0 
L 4128 0 
L 3163 3491 
Q 3041 3928 3019 4028 
Q 2947 3713 2884 3491 
L 1913 0 
L 1294 0 
z
" id="ArialMT-57" transform="scale(0.015625)"/>
       <path d="M 422 0 
L 422 4581 
L 984 4581 
L 984 2938 
Q 1378 3394 1978 3394 
Q 2347 3394 2619 3248 
Q 2891 3103 3008 2847 
Q 3125 2591 3125 2103 
L 3125 0 
L 2563 0 
L 2563 2103 
Q 2563 2525 2380 2717 
Q 2197 2909 1863 2909 
Q 1613 2909 1392 2779 
Q 1172 2650 1078 2428 
Q 984 2206 984 1816 
L 984 0 
L 422 0 
z
" id="ArialMT-68" transform="scale(0.015625)"/>
       <path d="M 425 3934 
L 425 4581 
L 988 4581 
L 988 3934 
L 425 3934 
z
M 425 0 
L 425 3319 
L 988 3319 
L 988 0 
L 425 0 
z
" id="ArialMT-69" transform="scale(0.015625)"/>
       <path d="M 1650 503 
L 1731 6 
Q 1494 -44 1306 -44 
Q 1000 -44 831 53 
Q 663 150 594 308 
Q 525 466 525 972 
L 525 2881 
L 113 2881 
L 113 3319 
L 525 3319 
L 525 4141 
L 1084 4478 
L 1084 3319 
L 1650 3319 
L 1650 2881 
L 1084 2881 
L 1084 941 
Q 1084 700 1114 631 
Q 1144 563 1211 522 
Q 1278 481 1403 481 
Q 1497 481 1650 503 
z
" id="ArialMT-74" transform="scale(0.015625)"/>
       <path d="M 2694 1069 
L 3275 997 
Q 3138 488 2766 206 
Q 2394 -75 1816 -75 
Q 1088 -75 661 373 
Q 234 822 234 1631 
Q 234 2469 665 2931 
Q 1097 3394 1784 3394 
Q 2450 3394 2872 2941 
Q 3294 2488 3294 1666 
Q 3294 1616 3291 1516 
L 816 1516 
Q 847 969 1125 678 
Q 1403 388 1819 388 
Q 2128 388 2347 550 
Q 2566 713 2694 1069 
z
M 847 1978 
L 2700 1978 
Q 2663 2397 2488 2606 
Q 2219 2931 1791 2931 
Q 1403 2931 1139 2672 
Q 875 2413 847 1978 
z
" id="ArialMT-65" transform="scale(0.015625)"/>
       <path d="M 422 0 
L 422 3319 
L 928 3319 
L 928 2847 
Q 1294 3394 1984 3394 
Q 2284 3394 2536 3286 
Q 2788 3178 2913 3003 
Q 3038 2828 3088 2588 
Q 3119 2431 3119 2041 
L 3119 0 
L 2556 0 
L 2556 2019 
Q 2556 2363 2490 2533 
Q 2425 2703 2258 2804 
Q 2091 2906 1866 2906 
Q 1506 2906 1245 2678 
Q 984 2450 984 1813 
L 984 0 
L 422 0 
z
" id="ArialMT-6e" transform="scale(0.015625)"/>
       <path d="M 2575 0 
L 2575 419 
Q 2259 -75 1647 -75 
Q 1250 -75 917 144 
Q 584 363 401 755 
Q 219 1147 219 1656 
Q 219 2153 384 2558 
Q 550 2963 881 3178 
Q 1213 3394 1622 3394 
Q 1922 3394 2156 3267 
Q 2391 3141 2538 2938 
L 2538 4581 
L 3097 4581 
L 3097 0 
L 2575 0 
z
M 797 1656 
Q 797 1019 1065 703 
Q 1334 388 1700 388 
Q 2069 388 2326 689 
Q 2584 991 2584 1609 
Q 2584 2291 2321 2609 
Q 2059 2928 1675 2928 
Q 1300 2928 1048 2622 
Q 797 2316 797 1656 
z
" id="ArialMT-64" transform="scale(0.015625)"/>
       <path d="M 288 1472 
L 859 1522 
Q 900 1178 1048 958 
Q 1197 738 1509 602 
Q 1822 466 2213 466 
Q 2559 466 2825 569 
Q 3091 672 3220 851 
Q 3350 1031 3350 1244 
Q 3350 1459 3225 1620 
Q 3100 1781 2813 1891 
Q 2628 1963 1997 2114 
Q 1366 2266 1113 2400 
Q 784 2572 623 2826 
Q 463 3081 463 3397 
Q 463 3744 659 4045 
Q 856 4347 1234 4503 
Q 1613 4659 2075 4659 
Q 2584 4659 2973 4495 
Q 3363 4331 3572 4012 
Q 3781 3694 3797 3291 
L 3216 3247 
Q 3169 3681 2898 3903 
Q 2628 4125 2100 4125 
Q 1550 4125 1298 3923 
Q 1047 3722 1047 3438 
Q 1047 3191 1225 3031 
Q 1400 2872 2139 2705 
Q 2878 2538 3153 2413 
Q 3553 2228 3743 1945 
Q 3934 1663 3934 1294 
Q 3934 928 3725 604 
Q 3516 281 3123 101 
Q 2731 -78 2241 -78 
Q 1619 -78 1198 103 
Q 778 284 539 648 
Q 300 1013 288 1472 
z
" id="ArialMT-53" transform="scale(0.015625)"/>
       <path d="M 416 0 
L 416 3319 
L 922 3319 
L 922 2816 
Q 1116 3169 1280 3281 
Q 1444 3394 1641 3394 
Q 1925 3394 2219 3213 
L 2025 2691 
Q 1819 2813 1613 2813 
Q 1428 2813 1281 2702 
Q 1134 2591 1072 2394 
Q 978 2094 978 1738 
L 978 0 
L 416 0 
z
" id="ArialMT-72" transform="scale(0.015625)"/>
       <path d="M 2588 409 
Q 2275 144 1986 34 
Q 1697 -75 1366 -75 
Q 819 -75 525 192 
Q 231 459 231 875 
Q 231 1119 342 1320 
Q 453 1522 633 1644 
Q 813 1766 1038 1828 
Q 1203 1872 1538 1913 
Q 2219 1994 2541 2106 
Q 2544 2222 2544 2253 
Q 2544 2597 2384 2738 
Q 2169 2928 1744 2928 
Q 1347 2928 1158 2789 
Q 969 2650 878 2297 
L 328 2372 
Q 403 2725 575 2942 
Q 747 3159 1072 3276 
Q 1397 3394 1825 3394 
Q 2250 3394 2515 3294 
Q 2781 3194 2906 3042 
Q 3031 2891 3081 2659 
Q 3109 2516 3109 2141 
L 3109 1391 
Q 3109 606 3145 398 
Q 3181 191 3288 0 
L 2700 0 
Q 2613 175 2588 409 
z
M 2541 1666 
Q 2234 1541 1622 1453 
Q 1275 1403 1131 1340 
Q 988 1278 909 1158 
Q 831 1038 831 891 
Q 831 666 1001 516 
Q 1172 366 1500 366 
Q 1825 366 2078 508 
Q 2331 650 2450 897 
Q 2541 1088 2541 1459 
L 2541 1666 
z
" id="ArialMT-61" transform="scale(0.015625)"/>
      </defs>
      <use xlink:href="#ArialMT-57"/>
      <use x="94.384766" xlink:href="#ArialMT-68"/>
      <use x="150" xlink:href="#ArialMT-69"/>
      <use x="172.216797" xlink:href="#ArialMT-74"/>
      <use x="200" xlink:href="#ArialMT-65"/>
      <use x="255.615234" xlink:href="#ArialMT-6e"/>
      <use x="311.230469" xlink:href="#ArialMT-65"/>
      <use x="366.845703" xlink:href="#ArialMT-64"/>
      <use x="422.460938" xlink:href="#ArialMT-20"/>
      <use x="450.244141" xlink:href="#ArialMT-53"/>
      <use x="516.943359" xlink:href="#ArialMT-74"/>
      <use x="544.726562" xlink:href="#ArialMT-72"/>
      <use x="578.027344" xlink:href="#ArialMT-61"/>
      <use x="633.642578" xlink:href="#ArialMT-69"/>
      <use x="655.859375" xlink:href="#ArialMT-6e"/>
     </g>
    </g>
   </g>
   <g id="line2d_13">
    <path clip-path="url(#pef579201be)" d="M 59.434276 133.098314 
L 60.627858 133.267193 
L 61.821441 133.216022 
L 63.015024 132.941988 
L 64.208607 132.451564 
L 65.40219 131.760509 
L 66.595773 130.89347 
L 68.982939 128.76937 
L 73.75727 124.223386 
L 74.950853 123.310661 
L 76.144436 122.578179 
L 77.338019 122.061507 
L 78.531602 121.787628 
L 79.725185 121.773508 
L 80.918768 122.025055 
L 82.11235 122.536554 
L 83.305933 123.290586 
L 84.499516 124.258491 
L 86.886682 126.671396 
L 91.661014 131.878553 
L 92.854596 132.913518 
L 94.048179 133.732728 
L 95.241762 134.294348 
L 96.435345 134.567527 
L 97.628928 134.534137 
L 98.822511 134.189972 
L 100.016094 133.545327 
L 101.209677 132.624905 
L 102.40326 131.467033 
L 104.790425 128.651008 
L 108.371174 124.177728 
L 109.564757 122.907672 
L 110.75834 121.860399 
L 111.951923 121.091113 
L 113.145506 120.642593 
L 114.339088 120.542729 
L 115.532671 120.802735 
L 116.726254 121.416129 
L 117.919837 122.358581 
L 119.11342 123.58865 
L 121.500586 126.670958 
L 125.081334 131.677496 
L 126.274917 133.10684 
L 127.4685 134.282204 
L 128.662083 135.137739 
L 129.855666 135.622886 
L 131.049249 135.70547 
L 132.242832 135.373931 
L 133.436415 134.63851 
L 134.629997 133.531322 
L 135.82358 132.105242 
L 138.210746 128.596963 
L 140.597912 124.839519 
L 141.791495 123.123183 
L 142.985078 121.647416 
L 144.178661 120.498964 
L 145.372243 119.748259 
L 146.565826 119.444958 
L 147.759409 119.61451 
L 148.952992 120.255983 
L 150.146575 121.341326 
L 151.340158 122.816175 
L 152.533741 124.602215 
L 157.308072 132.703981 
L 158.501655 134.36858 
L 159.695238 135.663398 
L 160.888821 136.502907 
L 162.082404 136.827103 
L 163.275987 136.606004 
L 164.46957 135.84247 
L 165.663153 134.573085 
L 166.856735 132.866988 
L 169.243901 128.562373 
L 171.631067 123.961104 
L 172.82465 121.915872 
L 174.018233 120.22756 
L 175.211816 119.014107 
L 176.405399 118.365502 
L 177.598981 118.336837 
L 178.792564 118.943395 
L 179.986147 120.158189 
L 181.17973 121.912266 
L 182.373313 124.09787 
L 187.147645 134.043629 
L 188.341227 135.957855 
L 189.53481 137.323507 
L 190.728393 138.029425 
L 191.921976 138.008724 
L 193.115559 137.245436 
L 194.309142 135.777735 
L 195.502725 133.697308 
L 196.696308 131.144705 
L 200.277056 122.588813 
L 201.470639 120.162659 
L 202.664222 118.295091 
L 203.857805 117.148059 
L 205.051388 116.832052 
L 206.244971 117.394936 
L 207.438554 118.815237 
L 208.632137 121.000698 
L 209.825719 123.792567 
L 214.600051 136.224961 
L 215.793634 138.310797 
L 216.987217 139.523682 
L 218.1808 139.729686 
L 219.374383 138.879129 
L 220.567965 137.015469 
L 221.761548 134.276299 
L 222.955131 130.885777 
L 226.53588 119.955797 
L 227.729463 117.219979 
L 228.923046 115.459038 
L 230.116629 114.88121 
L 231.310211 115.586595 
L 232.503794 117.55049 
L 233.697377 120.618202 
L 234.89096 124.512895 
L 237.278126 133.204855 
L 238.471709 137.088029 
L 239.665292 140.063027 
L 240.858874 141.76302 
L 242.052457 141.944138 
L 243.24604 140.521926 
L 244.439623 137.592593 
L 245.633206 133.434981 
L 249.213955 118.562139 
L 250.407538 114.81848 
L 251.60112 112.618617 
L 252.794703 112.322037 
L 253.988286 114.06158 
L 255.181869 117.706172 
L 256.375452 122.855519 
L 258.762618 134.947177 
L 259.956201 140.206717 
L 261.149784 143.828811 
L 262.343366 145.175255 
L 263.536949 143.907647 
L 264.730532 140.071519 
L 265.924115 134.129582 
L 268.311281 119.610003 
L 269.504864 113.424693 
L 270.698447 109.546075 
L 271.89203 108.835549 
L 273.085612 111.644956 
L 274.279195 117.683558 
L 277.859944 142.983055 
L 279.053527 148.000831 
L 280.24711 148.721497 
L 281.440693 144.609126 
L 282.634276 136.231585 
L 285.021441 114.466486 
L 286.215024 106.699503 
L 287.408607 104.581376 
L 288.60219 109.407284 
L 289.795773 120.491893 
L 290.989356 134.90963 
L 292.182939 147.929107 
L 293.376522 154.266096 
L 294.570104 150.040171 
L 295.763687 134.986162 
L 296.95727 114.099177 
L 298.150853 97.583376 
L 299.344436 97.871822 
L 300.538019 122.72972 
L 301.731602 163.992864 
L 302.925185 180.284931 
L 304.118768 93.905334 
L 305.31235 71.804683 
L 306.505933 154.474839 
L 307.699516 179.87296 
L 308.893099 107.746864 
L 310.086682 80.32753 
L 311.280265 142.322557 
L 312.473848 170.631047 
L 313.667431 118.131027 
L 314.861014 89.890823 
L 316.054596 133.695547 
L 317.248179 161.099076 
L 318.441762 125.087741 
L 319.635345 99.100613 
L 320.828928 128.265332 
L 322.022511 152.432566 
L 324.409677 107.072368 
L 326.796842 145.243663 
L 327.990425 131.156217 
L 329.184008 113.443692 
L 330.377591 124.108331 
L 331.571174 139.682861 
L 332.764757 131.785213 
L 333.95834 118.231318 
L 335.151923 123.925326 
L 336.345506 135.611078 
L 337.539088 131.645597 
L 338.732671 121.656039 
L 339.926254 124.287118 
L 341.119837 132.759828 
L 342.31342 131.141139 
L 343.507003 124.007385 
L 344.700586 124.873027 
L 345.894169 130.838126 
L 347.087752 130.519545 
L 348.281334 125.564353 
L 349.474917 125.497208 
L 350.6685 129.587422 
L 351.862083 129.915753 
L 353.055666 126.560418 
L 354.249249 126.065542 
L 355.442832 128.801155 
L 356.636415 129.391926 
L 357.829997 127.175305 
L 359.02358 126.54029 
L 360.217163 128.32512 
L 361.410746 128.967594 
L 362.604329 127.539747 
L 363.797912 126.915123 
L 363.797912 126.915123 
" style="fill:none;stroke:#0173b2;stroke-linecap:round;stroke-width:1.5;"/>
   </g>
   <g id="line2d_14">
    <path clip-path="url(#pef579201be)" d="M 59.434276 114.434674 
L 60.627858 171.770369 
L 61.821441 101.160684 
L 63.015024 141.898256 
L 64.208607 143.145817 
L 65.40219 97.369985 
L 66.595773 107.645258 
L 67.789356 136.989324 
L 68.982939 140.589228 
L 70.176522 121.101503 
L 71.370104 141.023919 
L 72.563687 134.337994 
L 73.75727 88.001845 
L 74.950853 134.859741 
L 76.144436 130.917018 
L 77.338019 122.8306 
L 78.531602 133.835746 
L 79.725185 103.584385 
L 80.918768 125.915469 
L 82.11235 126.293522 
L 83.305933 183.6153 
L 84.499516 90.453376 
L 85.693099 114.404597 
L 86.886682 131.369943 
L 88.080265 88.629289 
L 89.273848 142.116059 
L 90.467431 126.485341 
L 91.661014 98.414713 
L 92.854596 119.77254 
L 94.048179 98.451243 
L 95.241762 143.885113 
L 96.435345 114.449275 
L 97.628928 136.219931 
L 98.822511 123.044848 
L 100.016094 119.7807 
L 101.209677 144.363028 
L 102.40326 119.53804 
L 103.596842 112.302204 
L 104.790425 128.160416 
L 105.984008 151.336925 
L 107.177591 125.159427 
L 108.371174 148.263537 
L 109.564757 119.831368 
L 110.75834 123.932123 
L 111.951923 144.007111 
L 113.145506 142.751833 
L 114.339088 120.927978 
L 115.532671 93.149228 
L 116.726254 107.508395 
L 117.919837 163.928352 
L 120.307003 102.615202 
L 121.500586 146.343282 
L 122.694169 149.641437 
L 123.887752 122.928318 
L 125.081334 129.898493 
L 126.274917 121.64402 
L 127.4685 80.641093 
L 128.662083 119.353418 
L 129.855666 135.212044 
L 131.049249 113.007195 
L 132.242832 130.923126 
L 133.436415 134.067627 
L 134.629997 101.505967 
L 137.017163 176.639808 
L 138.210746 120.734977 
L 139.404329 144.678541 
L 140.597912 102.363763 
L 141.791495 82.818138 
L 142.985078 140.719376 
L 144.178661 97.411871 
L 145.372243 104.923818 
L 146.565826 124.492504 
L 147.759409 146.860877 
L 148.952992 164.325746 
L 150.146575 125.890589 
L 151.340158 136.229467 
L 152.533741 139.518961 
L 153.727324 129.230404 
L 154.920907 121.393212 
L 156.114489 116.122782 
L 157.308072 101.060759 
L 158.501655 140.551109 
L 159.695238 125.638402 
L 160.888821 126.332627 
L 162.082404 128.455165 
L 163.275987 119.732248 
L 164.46957 120.26889 
L 165.663153 108.821013 
L 166.856735 125.655482 
L 168.050318 115.005757 
L 169.243901 122.098343 
L 170.437484 124.938443 
L 171.631067 80.011532 
L 172.82465 130.873451 
L 174.018233 119.868458 
L 175.211816 135.191692 
L 176.405399 136.816703 
L 177.598981 96.022641 
L 178.792564 142.36715 
L 179.986147 95.909536 
L 181.17973 118.666435 
L 182.373313 133.796282 
L 184.760479 112.190355 
L 185.954062 146.396099 
L 187.147645 129.543361 
L 189.53481 132.549001 
L 190.728393 139.008075 
L 193.115559 130.15334 
L 194.309142 113.174456 
L 195.502725 148.294276 
L 196.696308 129.977759 
L 197.889891 135.755486 
L 200.277056 101.411409 
L 201.470639 104.697227 
L 202.664222 115.145775 
L 203.857805 85.832123 
L 205.051388 110.874879 
L 206.244971 99.37881 
L 207.438554 101.556928 
L 208.632137 115.360875 
L 209.825719 104.0207 
L 211.019302 120.541022 
L 212.212885 134.662203 
L 213.406468 114.783682 
L 214.600051 159.177728 
L 215.793634 167.447846 
L 216.987217 137.482131 
L 218.1808 156.396569 
L 219.374383 106.17607 
L 220.567965 127.223276 
L 221.761548 100.173373 
L 222.955131 134.438885 
L 224.148714 122.813322 
L 225.342297 126.646883 
L 226.53588 145.917195 
L 227.729463 122.096687 
L 228.923046 128.87395 
L 230.116629 123.917239 
L 231.310211 63.701096 
L 232.503794 132.349664 
L 233.697377 98.119021 
L 234.89096 121.357515 
L 236.084543 104.792386 
L 237.278126 136.241232 
L 238.471709 110.868745 
L 239.665292 145.034762 
L 240.858874 152.148345 
L 242.052457 146.551684 
L 243.24604 150.428875 
L 244.439623 132.078383 
L 245.633206 158.568753 
L 246.826789 143.439693 
L 248.020372 136.681271 
L 249.213955 123.582894 
L 250.407538 125.59056 
L 251.60112 107.491477 
L 252.794703 104.04714 
L 253.988286 94.912897 
L 255.181869 105.570432 
L 256.375452 103.733862 
L 257.569035 95.66979 
L 258.762618 93.500596 
L 259.956201 127.157791 
L 261.149784 109.590348 
L 262.343366 118.258662 
L 263.536949 121.724315 
L 264.730532 171.731562 
L 265.924115 175.641014 
L 267.117698 122.218532 
L 268.311281 134.301382 
L 269.504864 159.245573 
L 270.698447 120.696043 
L 271.89203 139.867746 
L 273.085612 148.567141 
L 274.279195 150.207638 
L 275.472778 123.842492 
L 276.666361 88.614854 
L 277.859944 133.998746 
L 279.053527 73.541384 
L 280.24711 36.291126 
L 281.440693 111.469648 
L 282.634276 125.354966 
L 283.827858 137.498138 
L 286.215024 176.963091 
L 287.408607 191.506921 
L 288.60219 151.010385 
L 289.795773 163.605558 
L 290.989356 125.547141 
L 292.182939 136.518839 
L 293.376522 107.361008 
L 294.570104 53.985911 
L 295.763687 66.556792 
L 296.95727 82.557226 
L 298.150853 118.17053 
L 299.344436 175.881134 
L 300.538019 202.41739 
L 301.731602 194.712264 
L 302.925185 143.839817 
L 305.31235 17.083636 
L 306.505933 38.906058 
L 307.699516 151.196407 
L 308.893099 214.756364 
L 310.086682 184.17572 
L 311.280265 71.999103 
L 312.473848 73.992996 
L 313.667431 178.142965 
L 314.861014 173.770527 
L 316.054596 110.137013 
L 317.248179 119.14089 
L 318.441762 157.196615 
L 319.635345 127.849132 
L 320.828928 129.895167 
L 322.022511 100.086941 
L 323.216094 118.189347 
L 324.409677 147.212499 
L 325.60326 118.188943 
L 326.796842 118.650013 
L 327.990425 126.351629 
L 329.184008 137.741049 
L 331.571174 107.864281 
L 332.764757 144.964301 
L 333.95834 137.129139 
L 335.151923 145.650142 
L 336.345506 114.568793 
L 337.539088 104.72293 
L 338.732671 132.040956 
L 339.926254 122.562953 
L 341.119837 133.906738 
L 342.31342 161.166115 
L 343.507003 111.701674 
L 344.700586 119.477286 
L 345.894169 105.869379 
L 348.281334 131.585319 
L 349.474917 100.999136 
L 350.6685 113.220728 
L 351.862083 107.650923 
L 353.055666 119.142943 
L 354.249249 127.830069 
L 355.442832 114.100119 
L 356.636415 163.459292 
L 357.829997 138.46278 
L 359.02358 125.39007 
L 360.217163 123.355162 
L 361.410746 115.473946 
L 362.604329 113.924148 
L 363.797912 104.068805 
L 363.797912 104.068805 
" style="fill:none;stroke:#de8f05;stroke-linecap:round;stroke-width:1.5;"/>
   </g>
   <g id="patch_3">
    <path d="M 44.216094 224.64 
L 44.216094 7.2 
" style="fill:none;stroke:#262626;stroke-linecap:square;stroke-linejoin:miter;stroke-width:1.25;"/>
   </g>
   <g id="patch_4">
    <path d="M 379.016094 224.64 
L 379.016094 7.2 
" style="fill:none;stroke:#262626;stroke-linecap:square;stroke-linejoin:miter;stroke-width:1.25;"/>
   </g>
   <g id="patch_5">
    <path d="M 44.216094 224.64 
L 379.016094 224.64 
" style="fill:none;stroke:#262626;stroke-linecap:square;stroke-linejoin:miter;stroke-width:1.25;"/>
   </g>
   <g id="patch_6">
    <path d="M 44.216094 7.2 
L 379.016094 7.2 
" style="fill:none;stroke:#262626;stroke-linecap:square;stroke-linejoin:miter;stroke-width:1.25;"/>
   </g>
  </g>
 </g>
 <defs>
  <clipPath id="pef579201be">
   <rect height="217.44" width="334.8" x="44.216094" y="7.2"/>
  </clipPath>
 </defs>
</svg>
