<?xml version="1.0" encoding="utf-8" standalone="no"?>
<!DOCTYPE svg PUBLIC "-//W3C//DTD SVG 1.1//EN"
  "http://www.w3.org/Graphics/SVG/1.1/DTD/svg11.dtd">
<svg height="251.399844pt" version="1.1" viewBox="0 0 373.99 251.399844" width="373.99pt" xmlns="http://www.w3.org/2000/svg" xmlns:xlink="http://www.w3.org/1999/xlink">
 <metadata>
  <rdf:RDF xmlns:cc="http://creativecommons.org/ns#" xmlns:dc="http://purl.org/dc/elements/1.1/" xmlns:rdf="http://www.w3.org/1999/02/22-rdf-syntax-ns#">
   <cc:Work>
    <dc:type rdf:resource="http://purl.org/dc/dcmitype/StillImage"/>
    <dc:date>2021-11-02T13:36:24.412664</dc:date>
    <dc:format>image/svg+xml</dc:format>
    <dc:creator>
     <cc:Agent>
      <dc:title>Matplotlib v3.4.3, https://matplotlib.org/</dc:title>
     </cc:Agent>
    </dc:creator>
   </cc:Work>
  </rdf:RDF>
 </metadata>
 <defs>
  <style type="text/css">*{stroke-linecap:butt;stroke-linejoin:round;}</style>
 </defs>
 <g id="figure_1">
  <g id="patch_1">
   <path d="M 0 251.399844 
L 373.99 251.399844 
L 373.99 0 
L 0 0 
z
" style="fill:#ffffff;"/>
  </g>
  <g id="axes_1">
   <g id="patch_2">
    <path d="M 31.99 224.64 
L 366.79 224.64 
L 366.79 7.2 
L 31.99 7.2 
z
" style="fill:#ffffff;"/>
   </g>
   <g id="matplotlib.axis_1">
    <g id="xtick_1">
     <g id="line2d_1">
      <defs>
       <path d="M 0 0 
L 0 6 
" id="m41914cd221" style="stroke:#262626;stroke-width:1.25;"/>
      </defs>
      <g>
       <use style="fill:#262626;stroke:#262626;stroke-width:1.25;" x="47.208182" xlink:href="#m41914cd221" y="224.64"/>
      </g>
     </g>
     <g id="text_1">
      <!-- 0 -->
      <g style="fill:#262626;" transform="translate(44.149666 242.013594)scale(0.11 -0.11)">
       <defs>
        <path d="M 266 2259 
Q 266 3072 433 3567 
Q 600 4063 929 4331 
Q 1259 4600 1759 4600 
Q 2128 4600 2406 4451 
Q 2684 4303 2865 4023 
Q 3047 3744 3150 3342 
Q 3253 2941 3253 2259 
Q 3253 1453 3087 958 
Q 2922 463 2592 192 
Q 2263 -78 1759 -78 
Q 1097 -78 719 397 
Q 266 969 266 2259 
z
M 844 2259 
Q 844 1131 1108 757 
Q 1372 384 1759 384 
Q 2147 384 2411 759 
Q 2675 1134 2675 2259 
Q 2675 3391 2411 3762 
Q 2147 4134 1753 4134 
Q 1366 4134 1134 3806 
Q 844 3388 844 2259 
z
" id="ArialMT-30" transform="scale(0.015625)"/>
       </defs>
       <use xlink:href="#ArialMT-30"/>
      </g>
     </g>
    </g>
    <g id="xtick_2">
     <g id="line2d_2">
      <g>
       <use style="fill:#262626;stroke:#262626;stroke-width:1.25;" x="106.712314" xlink:href="#m41914cd221" y="224.64"/>
      </g>
     </g>
     <g id="text_2">
      <!-- 200 -->
      <g style="fill:#262626;" transform="translate(97.536767 242.013594)scale(0.11 -0.11)">
       <defs>
        <path d="M 3222 541 
L 3222 0 
L 194 0 
Q 188 203 259 391 
Q 375 700 629 1000 
Q 884 1300 1366 1694 
Q 2113 2306 2375 2664 
Q 2638 3022 2638 3341 
Q 2638 3675 2398 3904 
Q 2159 4134 1775 4134 
Q 1369 4134 1125 3890 
Q 881 3647 878 3216 
L 300 3275 
Q 359 3922 746 4261 
Q 1134 4600 1788 4600 
Q 2447 4600 2831 4234 
Q 3216 3869 3216 3328 
Q 3216 3053 3103 2787 
Q 2991 2522 2730 2228 
Q 2469 1934 1863 1422 
Q 1356 997 1212 845 
Q 1069 694 975 541 
L 3222 541 
z
" id="ArialMT-32" transform="scale(0.015625)"/>
       </defs>
       <use xlink:href="#ArialMT-32"/>
       <use x="55.615234" xlink:href="#ArialMT-30"/>
       <use x="111.230469" xlink:href="#ArialMT-30"/>
      </g>
     </g>
    </g>
    <g id="xtick_3">
     <g id="line2d_3">
      <g>
       <use style="fill:#262626;stroke:#262626;stroke-width:1.25;" x="166.216446" xlink:href="#m41914cd221" y="224.64"/>
      </g>
     </g>
     <g id="text_3">
      <!-- 400 -->
      <g style="fill:#262626;" transform="translate(157.040899 242.013594)scale(0.11 -0.11)">
       <defs>
        <path d="M 2069 0 
L 2069 1097 
L 81 1097 
L 81 1613 
L 2172 4581 
L 2631 4581 
L 2631 1613 
L 3250 1613 
L 3250 1097 
L 2631 1097 
L 2631 0 
L 2069 0 
z
M 2069 1613 
L 2069 3678 
L 634 1613 
L 2069 1613 
z
" id="ArialMT-34" transform="scale(0.015625)"/>
       </defs>
       <use xlink:href="#ArialMT-34"/>
       <use x="55.615234" xlink:href="#ArialMT-30"/>
       <use x="111.230469" xlink:href="#ArialMT-30"/>
      </g>
     </g>
    </g>
    <g id="xtick_4">
     <g id="line2d_4">
      <g>
       <use style="fill:#262626;stroke:#262626;stroke-width:1.25;" x="225.720579" xlink:href="#m41914cd221" y="224.64"/>
      </g>
     </g>
     <g id="text_4">
      <!-- 600 -->
      <g style="fill:#262626;" transform="translate(216.545032 242.013594)scale(0.11 -0.11)">
       <defs>
        <path d="M 3184 3459 
L 2625 3416 
Q 2550 3747 2413 3897 
Q 2184 4138 1850 4138 
Q 1581 4138 1378 3988 
Q 1113 3794 959 3422 
Q 806 3050 800 2363 
Q 1003 2672 1297 2822 
Q 1591 2972 1913 2972 
Q 2475 2972 2870 2558 
Q 3266 2144 3266 1488 
Q 3266 1056 3080 686 
Q 2894 316 2569 119 
Q 2244 -78 1831 -78 
Q 1128 -78 684 439 
Q 241 956 241 2144 
Q 241 3472 731 4075 
Q 1159 4600 1884 4600 
Q 2425 4600 2770 4297 
Q 3116 3994 3184 3459 
z
M 888 1484 
Q 888 1194 1011 928 
Q 1134 663 1356 523 
Q 1578 384 1822 384 
Q 2178 384 2434 671 
Q 2691 959 2691 1453 
Q 2691 1928 2437 2201 
Q 2184 2475 1800 2475 
Q 1419 2475 1153 2201 
Q 888 1928 888 1484 
z
" id="ArialMT-36" transform="scale(0.015625)"/>
       </defs>
       <use xlink:href="#ArialMT-36"/>
       <use x="55.615234" xlink:href="#ArialMT-30"/>
       <use x="111.230469" xlink:href="#ArialMT-30"/>
      </g>
     </g>
    </g>
    <g id="xtick_5">
     <g id="line2d_5">
      <g>
       <use style="fill:#262626;stroke:#262626;stroke-width:1.25;" x="285.224711" xlink:href="#m41914cd221" y="224.64"/>
      </g>
     </g>
     <g id="text_5">
      <!-- 800 -->
      <g style="fill:#262626;" transform="translate(276.049164 242.013594)scale(0.11 -0.11)">
       <defs>
        <path d="M 1131 2484 
Q 781 2613 612 2850 
Q 444 3088 444 3419 
Q 444 3919 803 4259 
Q 1163 4600 1759 4600 
Q 2359 4600 2725 4251 
Q 3091 3903 3091 3403 
Q 3091 3084 2923 2848 
Q 2756 2613 2416 2484 
Q 2838 2347 3058 2040 
Q 3278 1734 3278 1309 
Q 3278 722 2862 322 
Q 2447 -78 1769 -78 
Q 1091 -78 675 323 
Q 259 725 259 1325 
Q 259 1772 486 2073 
Q 713 2375 1131 2484 
z
M 1019 3438 
Q 1019 3113 1228 2906 
Q 1438 2700 1772 2700 
Q 2097 2700 2305 2904 
Q 2513 3109 2513 3406 
Q 2513 3716 2298 3927 
Q 2084 4138 1766 4138 
Q 1444 4138 1231 3931 
Q 1019 3725 1019 3438 
z
M 838 1322 
Q 838 1081 952 856 
Q 1066 631 1291 507 
Q 1516 384 1775 384 
Q 2178 384 2440 643 
Q 2703 903 2703 1303 
Q 2703 1709 2433 1975 
Q 2163 2241 1756 2241 
Q 1359 2241 1098 1978 
Q 838 1716 838 1322 
z
" id="ArialMT-38" transform="scale(0.015625)"/>
       </defs>
       <use xlink:href="#ArialMT-38"/>
       <use x="55.615234" xlink:href="#ArialMT-30"/>
       <use x="111.230469" xlink:href="#ArialMT-30"/>
      </g>
     </g>
    </g>
    <g id="xtick_6">
     <g id="line2d_6">
      <g>
       <use style="fill:#262626;stroke:#262626;stroke-width:1.25;" x="344.728843" xlink:href="#m41914cd221" y="224.64"/>
      </g>
     </g>
     <g id="text_6">
      <!-- 1000 -->
      <g style="fill:#262626;" transform="translate(332.49478 242.013594)scale(0.11 -0.11)">
       <defs>
        <path d="M 2384 0 
L 1822 0 
L 1822 3584 
Q 1619 3391 1289 3197 
Q 959 3003 697 2906 
L 697 3450 
Q 1169 3672 1522 3987 
Q 1875 4303 2022 4600 
L 2384 4600 
L 2384 0 
z
" id="ArialMT-31" transform="scale(0.015625)"/>
       </defs>
       <use xlink:href="#ArialMT-31"/>
       <use x="55.615234" xlink:href="#ArialMT-30"/>
       <use x="111.230469" xlink:href="#ArialMT-30"/>
       <use x="166.845703" xlink:href="#ArialMT-30"/>
      </g>
     </g>
    </g>
   </g>
   <g id="matplotlib.axis_2">
    <g id="ytick_1">
     <g id="line2d_7">
      <defs>
       <path d="M 0 0 
L -6 0 
" id="ma125dbc9fb" style="stroke:#262626;stroke-width:1.25;"/>
      </defs>
      <g>
       <use style="fill:#262626;stroke:#262626;stroke-width:1.25;" x="31.99" xlink:href="#ma125dbc9fb" y="214.974634"/>
      </g>
     </g>
     <g id="text_7">
      <!-- 0.0 -->
      <g style="fill:#262626;" transform="translate(7.2 218.911431)scale(0.11 -0.11)">
       <defs>
        <path d="M 581 0 
L 581 641 
L 1222 641 
L 1222 0 
L 581 0 
z
" id="ArialMT-2e" transform="scale(0.015625)"/>
       </defs>
       <use xlink:href="#ArialMT-30"/>
       <use x="55.615234" xlink:href="#ArialMT-2e"/>
       <use x="83.398438" xlink:href="#ArialMT-30"/>
      </g>
     </g>
    </g>
    <g id="ytick_2">
     <g id="line2d_8">
      <g>
       <use style="fill:#262626;stroke:#262626;stroke-width:1.25;" x="31.99" xlink:href="#ma125dbc9fb" y="175.331226"/>
      </g>
     </g>
     <g id="text_8">
      <!-- 0.2 -->
      <g style="fill:#262626;" transform="translate(7.2 179.268023)scale(0.11 -0.11)">
       <use xlink:href="#ArialMT-30"/>
       <use x="55.615234" xlink:href="#ArialMT-2e"/>
       <use x="83.398438" xlink:href="#ArialMT-32"/>
      </g>
     </g>
    </g>
    <g id="ytick_3">
     <g id="line2d_9">
      <g>
       <use style="fill:#262626;stroke:#262626;stroke-width:1.25;" x="31.99" xlink:href="#ma125dbc9fb" y="135.687818"/>
      </g>
     </g>
     <g id="text_9">
      <!-- 0.4 -->
      <g style="fill:#262626;" transform="translate(7.2 139.624615)scale(0.11 -0.11)">
       <use xlink:href="#ArialMT-30"/>
       <use x="55.615234" xlink:href="#ArialMT-2e"/>
       <use x="83.398438" xlink:href="#ArialMT-34"/>
      </g>
     </g>
    </g>
    <g id="ytick_4">
     <g id="line2d_10">
      <g>
       <use style="fill:#262626;stroke:#262626;stroke-width:1.25;" x="31.99" xlink:href="#ma125dbc9fb" y="96.04441"/>
      </g>
     </g>
     <g id="text_10">
      <!-- 0.6 -->
      <g style="fill:#262626;" transform="translate(7.2 99.981207)scale(0.11 -0.11)">
       <use xlink:href="#ArialMT-30"/>
       <use x="55.615234" xlink:href="#ArialMT-2e"/>
       <use x="83.398438" xlink:href="#ArialMT-36"/>
      </g>
     </g>
    </g>
    <g id="ytick_5">
     <g id="line2d_11">
      <g>
       <use style="fill:#262626;stroke:#262626;stroke-width:1.25;" x="31.99" xlink:href="#ma125dbc9fb" y="56.401002"/>
      </g>
     </g>
     <g id="text_11">
      <!-- 0.8 -->
      <g style="fill:#262626;" transform="translate(7.2 60.337799)scale(0.11 -0.11)">
       <use xlink:href="#ArialMT-30"/>
       <use x="55.615234" xlink:href="#ArialMT-2e"/>
       <use x="83.398438" xlink:href="#ArialMT-38"/>
      </g>
     </g>
    </g>
    <g id="ytick_6">
     <g id="line2d_12">
      <g>
       <use style="fill:#262626;stroke:#262626;stroke-width:1.25;" x="31.99" xlink:href="#ma125dbc9fb" y="16.757594"/>
      </g>
     </g>
     <g id="text_12">
      <!-- 1.0 -->
      <g style="fill:#262626;" transform="translate(7.2 20.694391)scale(0.11 -0.11)">
       <use xlink:href="#ArialMT-31"/>
       <use x="55.615234" xlink:href="#ArialMT-2e"/>
       <use x="83.398438" xlink:href="#ArialMT-30"/>
      </g>
     </g>
    </g>
   </g>
   <g id="line2d_13">
    <path clip-path="url(#p84ff7a7054)" d="M 47.208182 214.756364 
L 47.505702 214.665582 
L 48.398264 213.925735 
L 49.290826 213.567964 
L 49.588347 213.45114 
L 50.480909 212.623767 
L 50.77843 212.482875 
L 51.373471 211.974168 
L 51.968512 211.595411 
L 53.158595 211.065596 
L 54.348678 210.213307 
L 54.646198 210.026254 
L 55.836281 208.80609 
L 56.133802 208.585996 
L 56.431322 208.544578 
L 56.728843 208.235661 
L 57.026364 208.224313 
L 57.621405 207.816397 
L 58.216446 207.2559 
L 58.513967 207.160263 
L 59.109008 206.605575 
L 59.406529 206.41827 
L 60.596612 205.13366 
L 62.084215 204.254096 
L 62.679256 203.594362 
L 63.274298 203.012681 
L 64.761901 202.406166 
L 65.356942 202.060477 
L 65.654463 202.053981 
L 66.547025 201.487438 
L 67.142066 200.9228 
L 67.737107 200.763346 
L 70.414793 198.698307 
L 70.712314 198.685956 
L 71.307355 198.087438 
L 71.902397 197.790141 
L 72.497438 197.194472 
L 73.092479 197.10872 
L 73.985041 196.485734 
L 74.282562 196.141101 
L 74.877603 195.885951 
L 75.175124 195.524465 
L 75.472645 195.496606 
L 75.770165 195.34126 
L 76.365207 195.237833 
L 76.960248 194.79833 
L 77.257769 194.505586 
L 78.150331 194.288111 
L 78.745372 193.682359 
L 79.637934 193.124134 
L 80.232975 192.615936 
L 80.828017 191.947406 
L 81.423058 191.519246 
L 82.018099 191.119819 
L 82.910661 190.695399 
L 83.208182 190.638038 
L 84.398264 189.648234 
L 85.290826 188.85348 
L 85.885868 188.436857 
L 86.183388 188.18758 
L 86.77843 188.004248 
L 87.670992 187.279509 
L 87.968512 187.159112 
L 88.563554 186.808712 
L 89.456116 186.519977 
L 90.051157 186.393003 
L 90.348678 186.374039 
L 90.646198 185.996779 
L 90.943719 185.967424 
L 92.133802 184.925457 
L 92.728843 184.694599 
L 93.918926 184.380644 
L 94.513967 183.85182 
L 95.109008 183.184189 
L 96.00157 182.994792 
L 96.596612 182.286437 
L 97.191653 181.91936 
L 97.489174 181.606765 
L 97.786694 181.523704 
L 98.381736 180.763481 
L 99.274298 180.321636 
L 99.571818 180.294843 
L 100.16686 179.820261 
L 101.059421 178.948012 
L 101.951983 178.394193 
L 102.547025 177.810449 
L 103.439587 176.974848 
L 104.034628 176.346666 
L 104.629669 176.28818 
L 105.224711 175.959577 
L 105.819752 175.658313 
L 106.414793 175.503833 
L 108.199917 174.617448 
L 108.794959 174.027259 
L 110.580083 173.081337 
L 110.877603 172.707534 
L 111.175124 172.682823 
L 111.472645 172.296198 
L 111.770165 172.271694 
L 112.960248 171.533577 
L 113.85281 170.536115 
L 114.447851 170.178148 
L 115.340413 169.242518 
L 115.637934 169.194637 
L 115.935455 169.005578 
L 116.232975 168.966369 
L 116.828017 168.588517 
L 117.125537 168.58411 
L 117.720579 168.173501 
L 119.505702 166.815173 
L 119.803223 166.555941 
L 120.398264 166.486992 
L 121.290826 165.8457 
L 121.885868 165.367951 
L 122.480909 165.296528 
L 123.07595 164.836118 
L 123.373471 164.759526 
L 123.670992 164.408482 
L 123.968512 164.361158 
L 125.158595 163.47655 
L 125.753636 163.165986 
L 126.051157 163.081482 
L 126.943719 162.167792 
L 127.53876 161.881774 
L 127.836281 161.641832 
L 128.133802 161.625328 
L 128.431322 161.357148 
L 128.728843 161.285743 
L 129.026364 161.075624 
L 130.216446 160.924877 
L 130.513967 160.922383 
L 131.109008 160.530761 
L 134.084215 158.218102 
L 134.679256 157.702023 
L 135.571818 156.95486 
L 135.869339 156.623075 
L 136.16686 156.609983 
L 136.46438 156.254615 
L 136.761901 156.135353 
L 137.059421 155.848031 
L 138.249504 155.473989 
L 138.844545 154.978806 
L 139.439587 154.500188 
L 139.737107 154.477339 
L 140.034628 154.114987 
L 140.629669 153.884908 
L 141.224711 153.440359 
L 141.819752 153.356881 
L 142.414793 152.972419 
L 142.712314 152.740787 
L 143.009835 152.699279 
L 143.307355 152.334192 
L 144.497438 151.731903 
L 144.794959 151.452534 
L 145.092479 151.393053 
L 145.39 151.027147 
L 146.282562 150.599312 
L 146.580083 150.536766 
L 146.877603 150.203817 
L 148.067686 150.032796 
L 148.365207 149.651132 
L 150.447851 149.092056 
L 151.042893 148.516113 
L 151.340413 148.512655 
L 152.232975 147.762303 
L 152.530496 147.688432 
L 152.828017 147.46954 
L 153.720579 146.491213 
L 154.018099 146.485738 
L 154.31562 146.293124 
L 155.208182 146.147684 
L 156.695785 144.932038 
L 156.993306 144.573722 
L 157.290826 144.395139 
L 157.588347 144.389728 
L 157.885868 144.242308 
L 158.183388 143.924467 
L 158.480909 143.868693 
L 159.07595 143.234963 
L 159.968512 142.49935 
L 160.266033 142.438682 
L 161.158595 141.473188 
L 161.753636 141.393068 
L 162.646198 140.528556 
L 162.943719 140.424367 
L 163.24124 140.097375 
L 163.53876 139.980194 
L 163.836281 139.731407 
L 164.431322 139.649504 
L 165.026364 139.057579 
L 165.323884 138.741213 
L 165.621405 138.693297 
L 167.109008 137.230489 
L 168.00157 136.913454 
L 168.299091 136.543287 
L 168.894132 136.176859 
L 169.191653 136.145694 
L 169.786694 135.578631 
L 170.084215 135.249898 
L 170.381736 135.225645 
L 171.571818 134.438984 
L 171.869339 134.110171 
L 172.46438 133.716147 
L 173.654463 132.719597 
L 175.439587 132.12605 
L 176.034628 131.553206 
L 176.92719 130.567531 
L 177.224711 130.517259 
L 179.009835 129.24792 
L 179.307355 128.909248 
L 179.902397 128.854449 
L 180.497438 128.457556 
L 180.794959 128.397276 
L 181.092479 128.06649 
L 181.39 128.023697 
L 181.985041 127.442995 
L 182.282562 127.235309 
L 183.472645 126.993207 
L 184.067686 126.42833 
L 185.257769 125.362967 
L 186.150331 125.145327 
L 187.042893 124.598082 
L 187.340413 124.338666 
L 187.637934 124.3317 
L 187.935455 123.952262 
L 188.530496 123.708742 
L 190.018099 122.33187 
L 190.31562 122.211384 
L 190.61314 121.837694 
L 191.505702 121.537851 
L 192.398264 120.694689 
L 192.695785 120.576516 
L 193.588347 119.898201 
L 194.183388 119.80188 
L 194.77843 119.28665 
L 195.373471 119.240174 
L 195.968512 118.519065 
L 196.266033 118.431414 
L 196.861074 117.741452 
L 197.456116 117.63678 
L 198.051157 117.055307 
L 198.943719 116.687889 
L 199.24124 116.633562 
L 200.133802 116.058827 
L 200.728843 115.942902 
L 201.026364 115.656898 
L 202.811488 114.928185 
L 204.00157 113.801851 
L 205.489174 113.271792 
L 205.786694 113.018993 
L 206.084215 113.000247 
L 207.274298 111.761853 
L 208.46438 111.468348 
L 209.059421 110.991524 
L 209.654463 110.384448 
L 209.951983 110.372213 
L 210.547025 109.71001 
L 212.034628 109.077722 
L 212.332149 109.069332 
L 212.629669 108.943314 
L 213.224711 108.560854 
L 214.117273 108.066215 
L 214.712314 107.92879 
L 215.009835 107.630271 
L 215.604876 107.298204 
L 216.497438 106.683953 
L 216.794959 106.33971 
L 217.092479 106.317718 
L 217.985041 105.605646 
L 218.877603 104.747122 
L 219.175124 104.496369 
L 219.472645 104.472661 
L 220.067686 103.900025 
L 220.365207 103.812936 
L 220.960248 103.288635 
L 221.257769 103.130482 
L 222.150331 102.308611 
L 224.530496 100.414987 
L 224.828017 100.054471 
L 225.423058 99.886099 
L 225.720579 99.741272 
L 226.018099 99.443514 
L 226.61314 99.203067 
L 227.208182 98.569714 
L 228.695785 97.850483 
L 229.290826 97.352791 
L 230.183388 96.864667 
L 230.480909 96.810976 
L 231.07595 96.245497 
L 231.373471 95.923977 
L 231.968512 95.808971 
L 232.563554 95.439981 
L 232.861074 95.434637 
L 233.753636 95.019091 
L 234.943719 93.619649 
L 235.836281 92.983004 
L 237.621405 92.618423 
L 239.109008 91.835265 
L 239.406529 91.792813 
L 240.00157 91.247836 
L 240.299091 91.238714 
L 240.596612 91.035842 
L 240.894132 90.66797 
L 241.489174 90.188883 
L 244.16686 87.932049 
L 244.761901 87.655502 
L 245.356942 87.112978 
L 245.951983 86.701548 
L 246.249504 86.577056 
L 247.439587 85.585388 
L 248.034628 85.501693 
L 248.629669 85.23038 
L 249.224711 85.106598 
L 249.522231 84.834057 
L 250.414793 84.437047 
L 251.009835 83.932419 
L 251.902397 83.335944 
L 252.199917 82.982262 
L 252.794959 82.663623 
L 253.39 81.916392 
L 254.282562 81.388178 
L 254.580083 81.08707 
L 254.877603 81.00918 
L 255.175124 80.68179 
L 255.770165 80.311038 
L 256.365207 79.66098 
L 256.662727 79.631504 
L 256.960248 79.462508 
L 258.745372 77.792845 
L 259.340413 77.705949 
L 260.828017 76.691449 
L 261.423058 76.392681 
L 262.61314 75.556333 
L 262.910661 75.517635 
L 263.208182 75.199903 
L 263.505702 75.149006 
L 263.803223 74.801127 
L 265.290826 74.083429 
L 265.588347 74.055487 
L 266.183388 73.506318 
L 266.480909 73.444842 
L 267.07595 72.894315 
L 267.670992 72.44817 
L 268.266033 72.017297 
L 269.456116 71.670365 
L 269.753636 71.355956 
L 270.051157 71.287506 
L 270.348678 70.948765 
L 271.24124 70.5238 
L 271.53876 70.270962 
L 272.431322 70.027499 
L 272.728843 69.674726 
L 273.323884 69.584153 
L 274.216446 69.091957 
L 274.811488 68.389792 
L 275.109008 68.375241 
L 276.00157 67.59433 
L 276.299091 67.525118 
L 278.976777 65.926281 
L 279.571818 65.670892 
L 280.46438 64.73257 
L 280.761901 64.658716 
L 281.059421 64.328124 
L 281.356942 64.291273 
L 282.844545 63.057619 
L 284.034628 62.654864 
L 285.522231 61.551186 
L 287.009835 60.506579 
L 288.199917 59.309094 
L 288.794959 59.150583 
L 289.092479 58.772134 
L 289.39 58.654794 
L 289.985041 58.017133 
L 291.175124 57.355759 
L 291.472645 57.095982 
L 291.770165 57.052418 
L 292.365207 56.555529 
L 292.662727 56.404037 
L 293.257769 55.95334 
L 293.555289 55.930871 
L 294.150331 55.494481 
L 294.447851 55.462663 
L 294.745372 55.313779 
L 295.340413 54.773027 
L 296.232975 54.62333 
L 298.018099 52.616148 
L 298.31562 52.583969 
L 299.208182 51.744544 
L 299.803223 51.232556 
L 300.398264 51.086959 
L 301.588347 49.947067 
L 302.480909 49.426974 
L 302.77843 49.131521 
L 303.07595 49.114973 
L 303.373471 48.962464 
L 303.968512 48.83306 
L 304.861074 48.359384 
L 305.753636 48.039257 
L 306.348678 47.454138 
L 306.943719 47.408827 
L 307.53876 46.820708 
L 308.133802 46.288298 
L 309.621405 45.167793 
L 310.216446 45.016066 
L 310.513967 44.786412 
L 310.811488 44.405865 
L 311.406529 44.255408 
L 311.70405 43.940127 
L 312.299091 43.773345 
L 312.894132 43.244869 
L 313.191653 43.178603 
L 313.489174 42.931735 
L 314.381736 42.80206 
L 315.571818 41.618985 
L 316.16686 41.511004 
L 316.46438 41.212206 
L 316.761901 41.174805 
L 317.654463 40.566401 
L 320.332149 38.755658 
L 320.629669 38.716651 
L 320.92719 38.344933 
L 321.522231 38.104449 
L 322.117273 37.622171 
L 323.009835 37.157971 
L 323.604876 36.575804 
L 324.497438 35.554908 
L 324.794959 35.543838 
L 325.39 35.268491 
L 325.687521 35.252704 
L 326.282562 34.724226 
L 326.877603 34.630978 
L 328.365207 33.521348 
L 328.662727 33.513459 
L 328.960248 33.341158 
L 329.257769 32.958876 
L 330.150331 32.595054 
L 331.935455 30.703728 
L 332.828017 30.258887 
L 333.125537 30.244614 
L 333.423058 29.937485 
L 334.018099 29.806786 
L 334.61314 29.185135 
L 335.505702 28.250198 
L 335.803223 28.241319 
L 336.100744 27.942453 
L 336.695785 27.706457 
L 337.290826 27.005754 
L 337.885868 26.732345 
L 338.480909 26.107361 
L 338.77843 26.069295 
L 339.373471 25.486101 
L 339.670992 25.47672 
L 341.753636 23.86008 
L 342.348678 23.740705 
L 342.943719 23.368184 
L 343.24124 23.22525 
L 344.431322 21.939988 
L 345.026364 21.899568 
L 345.918926 21.086132 
L 346.216446 20.994702 
L 346.513967 20.638324 
L 346.811488 20.568395 
L 347.406529 20.101697 
L 348.299091 19.22962 
L 348.596612 19.213789 
L 349.489174 18.926494 
L 350.084215 18.244412 
L 350.381736 18.032551 
L 350.679256 17.65788 
L 350.976777 17.570635 
L 351.571818 17.083636 
L 351.571818 17.083636 
" style="fill:none;stroke:#0173b2;stroke-linecap:round;stroke-width:1.5;"/>
   </g>
   <g id="patch_3">
    <path d="M 31.99 224.64 
L 31.99 7.2 
" style="fill:none;stroke:#262626;stroke-linecap:square;stroke-linejoin:miter;stroke-width:1.25;"/>
   </g>
   <g id="patch_4">
    <path d="M 366.79 224.64 
L 366.79 7.2 
" style="fill:none;stroke:#262626;stroke-linecap:square;stroke-linejoin:miter;stroke-width:1.25;"/>
   </g>
   <g id="patch_5">
    <path d="M 31.99 224.64 
L 366.79 224.64 
" style="fill:none;stroke:#262626;stroke-linecap:square;stroke-linejoin:miter;stroke-width:1.25;"/>
   </g>
   <g id="patch_6">
    <path d="M 31.99 7.2 
L 366.79 7.2 
" style="fill:none;stroke:#262626;stroke-linecap:square;stroke-linejoin:miter;stroke-width:1.25;"/>
   </g>
  </g>
 </g>
 <defs>
  <clipPath id="p84ff7a7054">
   <rect height="217.44" width="334.8" x="31.99" y="7.2"/>
  </clipPath>
 </defs>
</svg>
