<?xml version="1.0" encoding="utf-8" standalone="no"?>
<!DOCTYPE svg PUBLIC "-//W3C//DTD SVG 1.1//EN"
  "http://www.w3.org/Graphics/SVG/1.1/DTD/svg11.dtd">
<svg height="266.799844pt" version="1.1" viewBox="0 0 400.915781 266.799844" width="400.915781pt" xmlns="http://www.w3.org/2000/svg" xmlns:xlink="http://www.w3.org/1999/xlink">
 <metadata>
  <rdf:RDF xmlns:cc="http://creativecommons.org/ns#" xmlns:dc="http://purl.org/dc/elements/1.1/" xmlns:rdf="http://www.w3.org/1999/02/22-rdf-syntax-ns#">
   <cc:Work>
    <dc:type rdf:resource="http://purl.org/dc/dcmitype/StillImage"/>
    <dc:date>2021-11-05T21:39:30.785328</dc:date>
    <dc:format>image/svg+xml</dc:format>
    <dc:creator>
     <cc:Agent>
      <dc:title>Matplotlib v3.4.3, https://matplotlib.org/</dc:title>
     </cc:Agent>
    </dc:creator>
   </cc:Work>
  </rdf:RDF>
 </metadata>
 <defs>
  <style type="text/css">*{stroke-linecap:butt;stroke-linejoin:round;}</style>
 </defs>
 <g id="figure_1">
  <g id="patch_1">
   <path d="M 0 266.799844 
L 400.915781 266.799844 
L 400.915781 0 
L 0 0 
z
" style="fill:#ffffff;"/>
  </g>
  <g id="axes_1">
   <g id="patch_2">
    <path d="M 58.915781 224.64 
L 393.715781 224.64 
L 393.715781 7.2 
L 58.915781 7.2 
z
" style="fill:#ffffff;"/>
   </g>
   <g id="matplotlib.axis_1">
    <g id="xtick_1">
     <g id="line2d_1">
      <defs>
       <path d="M 0 0 
L 0 6 
" id="mfe5948638c" style="stroke:#262626;stroke-width:1.25;"/>
      </defs>
      <g>
       <use style="fill:#262626;stroke:#262626;stroke-width:1.25;" x="104.189512" xlink:href="#mfe5948638c" y="224.64"/>
      </g>
     </g>
     <g id="text_1">
      <!-- −10000 -->
      <g style="fill:#262626;" transform="translate(85.68459 242.013594)scale(0.11 -0.11)">
       <defs>
        <path d="M 3381 1997 
L 356 1997 
L 356 2522 
L 3381 2522 
L 3381 1997 
z
" id="ArialMT-2212" transform="scale(0.015625)"/>
        <path d="M 2384 0 
L 1822 0 
L 1822 3584 
Q 1619 3391 1289 3197 
Q 959 3003 697 2906 
L 697 3450 
Q 1169 3672 1522 3987 
Q 1875 4303 2022 4600 
L 2384 4600 
L 2384 0 
z
" id="ArialMT-31" transform="scale(0.015625)"/>
        <path d="M 266 2259 
Q 266 3072 433 3567 
Q 600 4063 929 4331 
Q 1259 4600 1759 4600 
Q 2128 4600 2406 4451 
Q 2684 4303 2865 4023 
Q 3047 3744 3150 3342 
Q 3253 2941 3253 2259 
Q 3253 1453 3087 958 
Q 2922 463 2592 192 
Q 2263 -78 1759 -78 
Q 1097 -78 719 397 
Q 266 969 266 2259 
z
M 844 2259 
Q 844 1131 1108 757 
Q 1372 384 1759 384 
Q 2147 384 2411 759 
Q 2675 1134 2675 2259 
Q 2675 3391 2411 3762 
Q 2147 4134 1753 4134 
Q 1366 4134 1134 3806 
Q 844 3388 844 2259 
z
" id="ArialMT-30" transform="scale(0.015625)"/>
       </defs>
       <use xlink:href="#ArialMT-2212"/>
       <use x="58.398438" xlink:href="#ArialMT-31"/>
       <use x="114.013672" xlink:href="#ArialMT-30"/>
       <use x="169.628906" xlink:href="#ArialMT-30"/>
       <use x="225.244141" xlink:href="#ArialMT-30"/>
       <use x="280.859375" xlink:href="#ArialMT-30"/>
      </g>
     </g>
    </g>
    <g id="xtick_2">
     <g id="line2d_2">
      <g>
       <use style="fill:#262626;stroke:#262626;stroke-width:1.25;" x="150.115146" xlink:href="#mfe5948638c" y="224.64"/>
      </g>
     </g>
     <g id="text_2">
      <!-- −8000 -->
      <g style="fill:#262626;" transform="translate(134.66874 242.013594)scale(0.11 -0.11)">
       <defs>
        <path d="M 1131 2484 
Q 781 2613 612 2850 
Q 444 3088 444 3419 
Q 444 3919 803 4259 
Q 1163 4600 1759 4600 
Q 2359 4600 2725 4251 
Q 3091 3903 3091 3403 
Q 3091 3084 2923 2848 
Q 2756 2613 2416 2484 
Q 2838 2347 3058 2040 
Q 3278 1734 3278 1309 
Q 3278 722 2862 322 
Q 2447 -78 1769 -78 
Q 1091 -78 675 323 
Q 259 725 259 1325 
Q 259 1772 486 2073 
Q 713 2375 1131 2484 
z
M 1019 3438 
Q 1019 3113 1228 2906 
Q 1438 2700 1772 2700 
Q 2097 2700 2305 2904 
Q 2513 3109 2513 3406 
Q 2513 3716 2298 3927 
Q 2084 4138 1766 4138 
Q 1444 4138 1231 3931 
Q 1019 3725 1019 3438 
z
M 838 1322 
Q 838 1081 952 856 
Q 1066 631 1291 507 
Q 1516 384 1775 384 
Q 2178 384 2440 643 
Q 2703 903 2703 1303 
Q 2703 1709 2433 1975 
Q 2163 2241 1756 2241 
Q 1359 2241 1098 1978 
Q 838 1716 838 1322 
z
" id="ArialMT-38" transform="scale(0.015625)"/>
       </defs>
       <use xlink:href="#ArialMT-2212"/>
       <use x="58.398438" xlink:href="#ArialMT-38"/>
       <use x="114.013672" xlink:href="#ArialMT-30"/>
       <use x="169.628906" xlink:href="#ArialMT-30"/>
       <use x="225.244141" xlink:href="#ArialMT-30"/>
      </g>
     </g>
    </g>
    <g id="xtick_3">
     <g id="line2d_3">
      <g>
       <use style="fill:#262626;stroke:#262626;stroke-width:1.25;" x="196.040781" xlink:href="#mfe5948638c" y="224.64"/>
      </g>
     </g>
     <g id="text_3">
      <!-- −6000 -->
      <g style="fill:#262626;" transform="translate(180.594374 242.013594)scale(0.11 -0.11)">
       <defs>
        <path d="M 3184 3459 
L 2625 3416 
Q 2550 3747 2413 3897 
Q 2184 4138 1850 4138 
Q 1581 4138 1378 3988 
Q 1113 3794 959 3422 
Q 806 3050 800 2363 
Q 1003 2672 1297 2822 
Q 1591 2972 1913 2972 
Q 2475 2972 2870 2558 
Q 3266 2144 3266 1488 
Q 3266 1056 3080 686 
Q 2894 316 2569 119 
Q 2244 -78 1831 -78 
Q 1128 -78 684 439 
Q 241 956 241 2144 
Q 241 3472 731 4075 
Q 1159 4600 1884 4600 
Q 2425 4600 2770 4297 
Q 3116 3994 3184 3459 
z
M 888 1484 
Q 888 1194 1011 928 
Q 1134 663 1356 523 
Q 1578 384 1822 384 
Q 2178 384 2434 671 
Q 2691 959 2691 1453 
Q 2691 1928 2437 2201 
Q 2184 2475 1800 2475 
Q 1419 2475 1153 2201 
Q 888 1928 888 1484 
z
" id="ArialMT-36" transform="scale(0.015625)"/>
       </defs>
       <use xlink:href="#ArialMT-2212"/>
       <use x="58.398438" xlink:href="#ArialMT-36"/>
       <use x="114.013672" xlink:href="#ArialMT-30"/>
       <use x="169.628906" xlink:href="#ArialMT-30"/>
       <use x="225.244141" xlink:href="#ArialMT-30"/>
      </g>
     </g>
    </g>
    <g id="xtick_4">
     <g id="line2d_4">
      <g>
       <use style="fill:#262626;stroke:#262626;stroke-width:1.25;" x="241.966415" xlink:href="#mfe5948638c" y="224.64"/>
      </g>
     </g>
     <g id="text_4">
      <!-- −4000 -->
      <g style="fill:#262626;" transform="translate(226.520009 242.013594)scale(0.11 -0.11)">
       <defs>
        <path d="M 2069 0 
L 2069 1097 
L 81 1097 
L 81 1613 
L 2172 4581 
L 2631 4581 
L 2631 1613 
L 3250 1613 
L 3250 1097 
L 2631 1097 
L 2631 0 
L 2069 0 
z
M 2069 1613 
L 2069 3678 
L 634 1613 
L 2069 1613 
z
" id="ArialMT-34" transform="scale(0.015625)"/>
       </defs>
       <use xlink:href="#ArialMT-2212"/>
       <use x="58.398438" xlink:href="#ArialMT-34"/>
       <use x="114.013672" xlink:href="#ArialMT-30"/>
       <use x="169.628906" xlink:href="#ArialMT-30"/>
       <use x="225.244141" xlink:href="#ArialMT-30"/>
      </g>
     </g>
    </g>
    <g id="xtick_5">
     <g id="line2d_5">
      <g>
       <use style="fill:#262626;stroke:#262626;stroke-width:1.25;" x="287.892049" xlink:href="#mfe5948638c" y="224.64"/>
      </g>
     </g>
     <g id="text_5">
      <!-- −2000 -->
      <g style="fill:#262626;" transform="translate(272.445643 242.013594)scale(0.11 -0.11)">
       <defs>
        <path d="M 3222 541 
L 3222 0 
L 194 0 
Q 188 203 259 391 
Q 375 700 629 1000 
Q 884 1300 1366 1694 
Q 2113 2306 2375 2664 
Q 2638 3022 2638 3341 
Q 2638 3675 2398 3904 
Q 2159 4134 1775 4134 
Q 1369 4134 1125 3890 
Q 881 3647 878 3216 
L 300 3275 
Q 359 3922 746 4261 
Q 1134 4600 1788 4600 
Q 2447 4600 2831 4234 
Q 3216 3869 3216 3328 
Q 3216 3053 3103 2787 
Q 2991 2522 2730 2228 
Q 2469 1934 1863 1422 
Q 1356 997 1212 845 
Q 1069 694 975 541 
L 3222 541 
z
" id="ArialMT-32" transform="scale(0.015625)"/>
       </defs>
       <use xlink:href="#ArialMT-2212"/>
       <use x="58.398438" xlink:href="#ArialMT-32"/>
       <use x="114.013672" xlink:href="#ArialMT-30"/>
       <use x="169.628906" xlink:href="#ArialMT-30"/>
       <use x="225.244141" xlink:href="#ArialMT-30"/>
      </g>
     </g>
    </g>
    <g id="xtick_6">
     <g id="line2d_6">
      <g>
       <use style="fill:#262626;stroke:#262626;stroke-width:1.25;" x="333.817684" xlink:href="#mfe5948638c" y="224.64"/>
      </g>
     </g>
     <g id="text_6">
      <!-- 0 -->
      <g style="fill:#262626;" transform="translate(330.759168 242.013594)scale(0.11 -0.11)">
       <use xlink:href="#ArialMT-30"/>
      </g>
     </g>
    </g>
    <g id="xtick_7">
     <g id="line2d_7">
      <g>
       <use style="fill:#262626;stroke:#262626;stroke-width:1.25;" x="379.743318" xlink:href="#mfe5948638c" y="224.64"/>
      </g>
     </g>
     <g id="text_7">
      <!-- 2000 -->
      <g style="fill:#262626;" transform="translate(367.509255 242.013594)scale(0.11 -0.11)">
       <use xlink:href="#ArialMT-32"/>
       <use x="55.615234" xlink:href="#ArialMT-30"/>
       <use x="111.230469" xlink:href="#ArialMT-30"/>
       <use x="166.845703" xlink:href="#ArialMT-30"/>
      </g>
     </g>
    </g>
    <g id="text_8">
     <!-- $t - t_\mathrm{ref}$ ($\mathrm{BJD}$) -->
     <g style="fill:#262626;" transform="translate(192.115781 256.959844)scale(0.12 -0.12)">
      <defs>
       <path d="M 2706 3500 
L 2619 3053 
L 1472 3053 
L 1100 1153 
Q 1081 1047 1072 975 
Q 1063 903 1063 863 
Q 1063 663 1183 572 
Q 1303 481 1569 481 
L 2150 481 
L 2053 0 
L 1503 0 
Q 991 0 739 200 
Q 488 400 488 806 
Q 488 878 497 964 
Q 506 1050 525 1153 
L 897 3053 
L 409 3053 
L 500 3500 
L 978 3500 
L 1172 4494 
L 1747 4494 
L 1556 3500 
L 2706 3500 
z
" id="DejaVuSans-Oblique-74" transform="scale(0.015625)"/>
       <path d="M 678 2272 
L 4684 2272 
L 4684 1741 
L 678 1741 
L 678 2272 
z
" id="DejaVuSans-2212" transform="scale(0.015625)"/>
       <path d="M 2631 2963 
Q 2534 3019 2420 3045 
Q 2306 3072 2169 3072 
Q 1681 3072 1420 2755 
Q 1159 2438 1159 1844 
L 1159 0 
L 581 0 
L 581 3500 
L 1159 3500 
L 1159 2956 
Q 1341 3275 1631 3429 
Q 1922 3584 2338 3584 
Q 2397 3584 2469 3576 
Q 2541 3569 2628 3553 
L 2631 2963 
z
" id="DejaVuSans-72" transform="scale(0.015625)"/>
       <path d="M 3597 1894 
L 3597 1613 
L 953 1613 
Q 991 1019 1311 708 
Q 1631 397 2203 397 
Q 2534 397 2845 478 
Q 3156 559 3463 722 
L 3463 178 
Q 3153 47 2828 -22 
Q 2503 -91 2169 -91 
Q 1331 -91 842 396 
Q 353 884 353 1716 
Q 353 2575 817 3079 
Q 1281 3584 2069 3584 
Q 2775 3584 3186 3129 
Q 3597 2675 3597 1894 
z
M 3022 2063 
Q 3016 2534 2758 2815 
Q 2500 3097 2075 3097 
Q 1594 3097 1305 2825 
Q 1016 2553 972 2059 
L 3022 2063 
z
" id="DejaVuSans-65" transform="scale(0.015625)"/>
       <path d="M 2375 4863 
L 2375 4384 
L 1825 4384 
Q 1516 4384 1395 4259 
Q 1275 4134 1275 3809 
L 1275 3500 
L 2222 3500 
L 2222 3053 
L 1275 3053 
L 1275 0 
L 697 0 
L 697 3053 
L 147 3053 
L 147 3500 
L 697 3500 
L 697 3744 
Q 697 4328 969 4595 
Q 1241 4863 1831 4863 
L 2375 4863 
z
" id="DejaVuSans-66" transform="scale(0.015625)"/>
       <path id="ArialMT-20" transform="scale(0.015625)"/>
       <path d="M 1497 -1347 
Q 1031 -759 709 28 
Q 388 816 388 1659 
Q 388 2403 628 3084 
Q 909 3875 1497 4659 
L 1900 4659 
Q 1522 4009 1400 3731 
Q 1209 3300 1100 2831 
Q 966 2247 966 1656 
Q 966 153 1900 -1347 
L 1497 -1347 
z
" id="ArialMT-28" transform="scale(0.015625)"/>
       <path d="M 1259 2228 
L 1259 519 
L 2272 519 
Q 2781 519 3026 730 
Q 3272 941 3272 1375 
Q 3272 1813 3026 2020 
Q 2781 2228 2272 2228 
L 1259 2228 
z
M 1259 4147 
L 1259 2741 
L 2194 2741 
Q 2656 2741 2882 2914 
Q 3109 3088 3109 3444 
Q 3109 3797 2882 3972 
Q 2656 4147 2194 4147 
L 1259 4147 
z
M 628 4666 
L 2241 4666 
Q 2963 4666 3353 4366 
Q 3744 4066 3744 3513 
Q 3744 3084 3544 2831 
Q 3344 2578 2956 2516 
Q 3422 2416 3680 2098 
Q 3938 1781 3938 1306 
Q 3938 681 3513 340 
Q 3088 0 2303 0 
L 628 0 
L 628 4666 
z
" id="DejaVuSans-42" transform="scale(0.015625)"/>
       <path d="M 628 4666 
L 1259 4666 
L 1259 325 
Q 1259 -519 939 -900 
Q 619 -1281 -91 -1281 
L -331 -1281 
L -331 -750 
L -134 -750 
Q 284 -750 456 -515 
Q 628 -281 628 325 
L 628 4666 
z
" id="DejaVuSans-4a" transform="scale(0.015625)"/>
       <path d="M 1259 4147 
L 1259 519 
L 2022 519 
Q 2988 519 3436 956 
Q 3884 1394 3884 2338 
Q 3884 3275 3436 3711 
Q 2988 4147 2022 4147 
L 1259 4147 
z
M 628 4666 
L 1925 4666 
Q 3281 4666 3915 4102 
Q 4550 3538 4550 2338 
Q 4550 1131 3912 565 
Q 3275 0 1925 0 
L 628 0 
L 628 4666 
z
" id="DejaVuSans-44" transform="scale(0.015625)"/>
       <path d="M 791 -1347 
L 388 -1347 
Q 1322 153 1322 1656 
Q 1322 2244 1188 2822 
Q 1081 3291 891 3722 
Q 769 4003 388 4659 
L 791 4659 
Q 1378 3875 1659 3084 
Q 1900 2403 1900 1659 
Q 1900 816 1576 28 
Q 1253 -759 791 -1347 
z
" id="ArialMT-29" transform="scale(0.015625)"/>
      </defs>
      <use transform="translate(0 0.09375)" xlink:href="#DejaVuSans-Oblique-74"/>
      <use transform="translate(58.691406 0.09375)" xlink:href="#DejaVuSans-2212"/>
      <use transform="translate(161.962891 0.09375)" xlink:href="#DejaVuSans-Oblique-74"/>
      <use transform="translate(201.171875 -16.3125)scale(0.7)" xlink:href="#DejaVuSans-72"/>
      <use transform="translate(229.951172 -16.3125)scale(0.7)" xlink:href="#DejaVuSans-65"/>
      <use transform="translate(273.017578 -16.3125)scale(0.7)" xlink:href="#DejaVuSans-66"/>
      <use transform="translate(300.395508 0.09375)" xlink:href="#ArialMT-20"/>
      <use transform="translate(328.178711 0.09375)" xlink:href="#ArialMT-28"/>
      <use transform="translate(361.479492 0.09375)" xlink:href="#DejaVuSans-42"/>
      <use transform="translate(430.083008 0.09375)" xlink:href="#DejaVuSans-4a"/>
      <use transform="translate(459.575195 0.09375)" xlink:href="#DejaVuSans-44"/>
      <use transform="translate(536.577148 0.09375)" xlink:href="#ArialMT-29"/>
     </g>
    </g>
   </g>
   <g id="matplotlib.axis_2">
    <g id="ytick_1">
     <g id="line2d_8">
      <defs>
       <path d="M 0 0 
L -6 0 
" id="m3fbf8f7fe8" style="stroke:#262626;stroke-width:1.25;"/>
      </defs>
      <g>
       <use style="fill:#262626;stroke:#262626;stroke-width:1.25;" x="58.915781" xlink:href="#m3fbf8f7fe8" y="203.924557"/>
      </g>
     </g>
     <g id="text_9">
      <!-- −200 -->
      <g style="fill:#262626;" transform="translate(24.64 207.861354)scale(0.11 -0.11)">
       <use xlink:href="#ArialMT-2212"/>
       <use x="58.398438" xlink:href="#ArialMT-32"/>
       <use x="114.013672" xlink:href="#ArialMT-30"/>
       <use x="169.628906" xlink:href="#ArialMT-30"/>
      </g>
     </g>
    </g>
    <g id="ytick_2">
     <g id="line2d_9">
      <g>
       <use style="fill:#262626;stroke:#262626;stroke-width:1.25;" x="58.915781" xlink:href="#m3fbf8f7fe8" y="159.252478"/>
      </g>
     </g>
     <g id="text_10">
      <!-- −100 -->
      <g style="fill:#262626;" transform="translate(24.64 163.189275)scale(0.11 -0.11)">
       <use xlink:href="#ArialMT-2212"/>
       <use x="58.398438" xlink:href="#ArialMT-31"/>
       <use x="114.013672" xlink:href="#ArialMT-30"/>
       <use x="169.628906" xlink:href="#ArialMT-30"/>
      </g>
     </g>
    </g>
    <g id="ytick_3">
     <g id="line2d_10">
      <g>
       <use style="fill:#262626;stroke:#262626;stroke-width:1.25;" x="58.915781" xlink:href="#m3fbf8f7fe8" y="114.580398"/>
      </g>
     </g>
     <g id="text_11">
      <!-- 0 -->
      <g style="fill:#262626;" transform="translate(43.29875 118.517195)scale(0.11 -0.11)">
       <use xlink:href="#ArialMT-30"/>
      </g>
     </g>
    </g>
    <g id="ytick_4">
     <g id="line2d_11">
      <g>
       <use style="fill:#262626;stroke:#262626;stroke-width:1.25;" x="58.915781" xlink:href="#m3fbf8f7fe8" y="69.908319"/>
      </g>
     </g>
     <g id="text_12">
      <!-- 100 -->
      <g style="fill:#262626;" transform="translate(31.064688 73.845116)scale(0.11 -0.11)">
       <use xlink:href="#ArialMT-31"/>
       <use x="55.615234" xlink:href="#ArialMT-30"/>
       <use x="111.230469" xlink:href="#ArialMT-30"/>
      </g>
     </g>
    </g>
    <g id="ytick_5">
     <g id="line2d_12">
      <g>
       <use style="fill:#262626;stroke:#262626;stroke-width:1.25;" x="58.915781" xlink:href="#m3fbf8f7fe8" y="25.23624"/>
      </g>
     </g>
     <g id="text_13">
      <!-- 200 -->
      <g style="fill:#262626;" transform="translate(31.064688 29.173036)scale(0.11 -0.11)">
       <use xlink:href="#ArialMT-32"/>
       <use x="55.615234" xlink:href="#ArialMT-30"/>
       <use x="111.230469" xlink:href="#ArialMT-30"/>
      </g>
     </g>
    </g>
    <g id="text_14">
     <!-- $v_r$ ($\mathrm{m} \, \mathrm{s}^{-1}$) -->
     <g style="fill:#262626;" transform="translate(18 143.4)rotate(-90)scale(0.12 -0.12)">
      <defs>
       <path d="M 459 3500 
L 1069 3500 
L 1581 525 
L 3256 3500 
L 3866 3500 
L 1875 0 
L 1100 0 
L 459 3500 
z
" id="DejaVuSans-Oblique-76" transform="scale(0.015625)"/>
       <path d="M 2853 2969 
Q 2766 3016 2653 3041 
Q 2541 3066 2413 3066 
Q 1953 3066 1609 2717 
Q 1266 2369 1153 1784 
L 800 0 
L 225 0 
L 909 3500 
L 1484 3500 
L 1375 2956 
Q 1603 3259 1920 3421 
Q 2238 3584 2597 3584 
Q 2691 3584 2781 3573 
Q 2872 3563 2963 3538 
L 2853 2969 
z
" id="DejaVuSans-Oblique-72" transform="scale(0.015625)"/>
       <path d="M 3328 2828 
Q 3544 3216 3844 3400 
Q 4144 3584 4550 3584 
Q 5097 3584 5394 3201 
Q 5691 2819 5691 2113 
L 5691 0 
L 5113 0 
L 5113 2094 
Q 5113 2597 4934 2840 
Q 4756 3084 4391 3084 
Q 3944 3084 3684 2787 
Q 3425 2491 3425 1978 
L 3425 0 
L 2847 0 
L 2847 2094 
Q 2847 2600 2669 2842 
Q 2491 3084 2119 3084 
Q 1678 3084 1418 2786 
Q 1159 2488 1159 1978 
L 1159 0 
L 581 0 
L 581 3500 
L 1159 3500 
L 1159 2956 
Q 1356 3278 1631 3431 
Q 1906 3584 2284 3584 
Q 2666 3584 2933 3390 
Q 3200 3197 3328 2828 
z
" id="DejaVuSans-6d" transform="scale(0.015625)"/>
       <path d="M 2834 3397 
L 2834 2853 
Q 2591 2978 2328 3040 
Q 2066 3103 1784 3103 
Q 1356 3103 1142 2972 
Q 928 2841 928 2578 
Q 928 2378 1081 2264 
Q 1234 2150 1697 2047 
L 1894 2003 
Q 2506 1872 2764 1633 
Q 3022 1394 3022 966 
Q 3022 478 2636 193 
Q 2250 -91 1575 -91 
Q 1294 -91 989 -36 
Q 684 19 347 128 
L 347 722 
Q 666 556 975 473 
Q 1284 391 1588 391 
Q 1994 391 2212 530 
Q 2431 669 2431 922 
Q 2431 1156 2273 1281 
Q 2116 1406 1581 1522 
L 1381 1569 
Q 847 1681 609 1914 
Q 372 2147 372 2553 
Q 372 3047 722 3315 
Q 1072 3584 1716 3584 
Q 2034 3584 2315 3537 
Q 2597 3491 2834 3397 
z
" id="DejaVuSans-73" transform="scale(0.015625)"/>
       <path d="M 794 531 
L 1825 531 
L 1825 4091 
L 703 3866 
L 703 4441 
L 1819 4666 
L 2450 4666 
L 2450 531 
L 3481 531 
L 3481 0 
L 794 0 
L 794 531 
z
" id="DejaVuSans-31" transform="scale(0.015625)"/>
      </defs>
      <use transform="translate(0 0.684375)" xlink:href="#DejaVuSans-Oblique-76"/>
      <use transform="translate(59.179688 -15.721875)scale(0.7)" xlink:href="#DejaVuSans-Oblique-72"/>
      <use transform="translate(90.693359 0.684375)" xlink:href="#ArialMT-20"/>
      <use transform="translate(118.476562 0.684375)" xlink:href="#ArialMT-28"/>
      <use transform="translate(151.777344 0.684375)" xlink:href="#DejaVuSans-6d"/>
      <use transform="translate(265.425129 0.684375)" xlink:href="#DejaVuSans-73"/>
      <use transform="translate(318.48177 38.965625)scale(0.7)" xlink:href="#DejaVuSans-2212"/>
      <use transform="translate(377.134114 38.965625)scale(0.7)" xlink:href="#DejaVuSans-31"/>
      <use transform="translate(424.404622 0.684375)" xlink:href="#ArialMT-29"/>
     </g>
    </g>
   </g>
   <g id="line2d_13">
    <path clip-path="url(#p1db68dc1df)" d="M 74.133963 65.467327 
L 74.66551 70.822824 
L 75.409675 80.870922 
L 76.525923 99.33494 
L 79.662049 152.820491 
L 80.459369 162.208744 
L 80.990915 166.236345 
L 81.362998 167.664996 
L 81.575617 167.881564 
L 81.735081 167.730647 
L 81.947699 167.084685 
L 82.266627 165.101469 
L 82.63871 161.155012 
L 83.117102 153.418922 
L 83.754958 138.781111 
L 84.871206 106.326673 
L 85.881145 79.767268 
L 86.519001 68.485777 
L 86.997393 63.442615 
L 87.369476 61.503009 
L 87.635249 61.105858 
L 87.794713 61.234606 
L 88.007332 61.805109 
L 88.32626 63.444282 
L 88.751497 66.907062 
L 89.336198 73.592685 
L 90.186673 86.12984 
L 91.621849 111.161013 
L 93.748036 147.803028 
L 94.651665 159.774125 
L 95.289521 165.505425 
L 95.714759 167.592332 
L 95.980532 168.04341 
L 96.139996 167.963249 
L 96.352615 167.416965 
L 96.618388 165.983474 
L 96.990471 162.484099 
L 97.468863 155.314119 
L 98.053564 142.61945 
L 98.957194 116.976489 
L 100.232906 81.437367 
L 100.870762 69.390169 
L 101.349154 63.805436 
L 101.721236 61.492488 
L 101.98701 60.859086 
L 102.146474 60.858569 
L 102.305938 61.125316 
L 102.571711 62.123091 
L 102.943794 64.562872 
L 103.475341 69.813567 
L 104.219506 79.778158 
L 105.335754 98.19754 
L 108.578189 153.505227 
L 109.375509 162.768121 
L 109.907056 166.688489 
L 110.279138 168.029928 
L 110.491757 168.19174 
L 110.651221 167.9972 
L 110.86384 167.289385 
L 111.182768 165.204576 
L 111.55485 161.123925 
L 112.033242 153.184343 
L 112.671098 138.210753 
L 113.787346 105.138586 
L 114.74413 79.568853 
L 115.381986 68.034449 
L 115.860378 62.903857 
L 116.232461 60.948048 
L 116.44508 60.574146 
L 116.604544 60.624176 
L 116.817163 61.10313 
L 117.136091 62.630202 
L 117.561328 65.981833 
L 118.146029 72.566682 
L 118.996504 85.025441 
L 120.43168 110.03146 
L 122.611021 147.716364 
L 123.514651 159.770068 
L 124.152507 165.604185 
L 124.577744 167.786143 
L 124.843518 168.307856 
L 125.002982 168.273952 
L 125.162446 167.961693 
L 125.428219 166.784754 
L 125.747147 164.219195 
L 126.172384 158.727324 
L 126.703931 148.503986 
L 127.394942 130.408109 
L 129.361664 75.551655 
L 129.946366 66.092131 
L 130.371603 62.09511 
L 130.690531 60.622661 
L 130.90315 60.315967 
L 131.062614 60.416247 
L 131.275233 60.96096 
L 131.594161 62.581913 
L 132.019398 66.046033 
L 132.604099 72.757019 
L 133.454574 85.340396 
L 134.88975 110.433285 
L 137.069092 148.065373 
L 137.972721 160.047292 
L 138.610577 165.813238 
L 139.035814 167.941414 
L 139.301588 168.425978 
L 139.461052 168.368429 
L 139.67367 167.854599 
L 139.939444 166.463734 
L 140.311526 163.021643 
L 140.736764 156.842053 
L 141.26831 145.781372 
L 142.012476 125.243505 
L 143.660271 78.262307 
L 144.244972 67.662699 
L 144.723364 62.44253 
L 145.095447 60.466796 
L 145.308065 60.096465 
L 145.467529 60.154638 
L 145.680148 60.650058 
L 145.999076 62.210011 
L 146.424313 65.612565 
L 147.009015 72.26598 
L 147.859489 84.801576 
L 149.294665 109.870258 
L 151.474007 147.603286 
L 152.377636 159.720878 
L 153.015492 165.641247 
L 153.44073 167.90616 
L 153.706503 168.490936 
L 153.865967 168.498911 
L 154.025431 168.231353 
L 154.291204 167.134341 
L 154.610132 164.670816 
L 155.03537 159.314986 
L 155.566916 149.227764 
L 156.257927 131.151297 
L 158.330959 73.280621 
L 158.862506 65.086521 
L 159.287743 61.329058 
L 159.606671 60.054057 
L 159.81929 59.880901 
L 159.978754 60.080254 
L 160.244527 60.990707 
L 160.61661 63.349468 
L 161.148157 68.539777 
L 161.892322 78.475771 
L 163.00857 96.895345 
L 166.30416 153.322646 
L 167.10148 162.738836 
L 167.633026 166.830337 
L 168.005109 168.331406 
L 168.217728 168.599553 
L 168.377192 168.491616 
L 168.58981 167.907496 
L 168.855584 166.423799 
L 169.227666 162.842652 
L 169.706058 155.526685 
L 170.29076 142.528835 
L 171.141235 117.702741 
L 172.470101 79.405858 
L 173.107957 67.377477 
L 173.586349 62.064404 
L 173.958432 60.063676 
L 174.171051 59.69334 
L 174.330515 59.75673 
L 174.543133 60.264461 
L 174.862061 61.85069 
L 175.287299 65.29506 
L 175.872 72.00485 
L 176.722475 84.601792 
L 178.157651 109.71312 
L 180.336992 147.464521 
L 181.240622 159.628084 
L 181.878478 165.618616 
L 182.303715 167.954519 
L 182.569488 168.594726 
L 182.728952 168.640091 
L 182.888416 168.412918 
L 183.101035 167.660931 
L 183.419963 165.50641 
L 183.792046 161.332921 
L 184.270438 153.235257 
L 184.908294 137.913748 
L 185.971387 105.443732 
L 186.928171 78.803038 
L 187.512873 67.66229 
L 187.991265 62.122435 
L 188.363347 59.977765 
L 188.629121 59.511724 
L 188.788585 59.623584 
L 189.001203 60.19404 
L 189.320131 61.868467 
L 189.745369 65.416394 
L 190.383225 72.950033 
L 191.286854 86.692723 
L 192.934649 115.924803 
L 194.795062 147.78949 
L 195.698692 159.866416 
L 196.336548 165.776112 
L 196.761785 168.048971 
L 197.027558 168.646129 
L 197.187022 168.664362 
L 197.346486 168.409119 
L 197.559105 167.618327 
L 197.878033 165.402956 
L 198.250116 161.155312 
L 198.728508 152.959607 
L 199.366364 137.508669 
L 200.482612 103.20147 
L 201.386241 78.21991 
L 201.970943 67.185584 
L 202.449335 61.77508 
L 202.821417 59.74292 
L 203.034036 59.368192 
L 203.1935 59.433282 
L 203.406119 59.948426 
L 203.725047 61.55334 
L 204.150284 65.0294 
L 204.734986 71.78252 
L 205.58546 84.424925 
L 207.073791 110.526381 
L 209.199978 147.30074 
L 210.103607 159.493103 
L 210.741463 165.538228 
L 211.166701 167.933346 
L 211.485629 168.676445 
L 211.645093 168.666513 
L 211.804557 168.382197 
L 212.07033 167.259576 
L 212.389258 164.768034 
L 212.814495 159.374363 
L 213.346042 149.219346 
L 214.037053 130.94771 
L 216.110085 72.094099 
L 216.641631 63.985253 
L 217.066869 60.410592 
L 217.385797 59.313876 
L 217.545261 59.232088 
L 217.704725 59.438282 
L 217.970498 60.372833 
L 218.342581 62.781625 
L 218.874128 68.053138 
L 219.618293 78.085509 
L 220.734541 96.578926 
L 224.03013 153.010279 
L 224.827451 162.510306 
L 225.358997 166.716853 
L 225.73108 168.335254 
L 225.996853 168.702067 
L 226.156317 168.572833 
L 226.368936 167.962281 
L 226.634709 166.448573 
L 227.006792 162.8298 
L 227.485184 155.466088 
L 228.069885 142.382513 
L 228.92036 117.259123 
L 230.249227 78.337712 
L 230.833928 67.093521 
L 231.31232 61.57994 
L 231.684403 59.50855 
L 231.897022 59.124233 
L 232.056486 59.186915 
L 232.269104 59.703836 
L 232.588032 61.31888 
L 233.01327 64.815537 
L 233.597971 71.598177 
L 234.448446 84.269856 
L 235.936776 110.374593 
L 238.062963 147.112555 
L 238.966593 159.317234 
L 239.604449 165.401924 
L 240.029686 167.844742 
L 240.348614 168.637181 
L 240.508078 168.656612 
L 240.667542 168.404848 
L 240.880161 167.622308 
L 241.199089 165.426859 
L 241.571171 161.212246 
L 242.049563 153.066324 
L 242.687419 137.6567 
L 243.750513 104.809672 
L 244.707297 77.814001 
L 245.291998 66.68922 
L 245.77039 61.306945 
L 246.142473 59.345343 
L 246.355092 59.023211 
L 246.514556 59.131308 
L 246.727174 59.706364 
L 247.046102 61.401971 
L 247.47134 64.991409 
L 248.109196 72.58832 
L 249.012825 86.387616 
L 250.713774 116.576351 
L 252.521033 147.413031 
L 253.424663 159.517021 
L 254.062519 165.508793 
L 254.487756 167.879571 
L 254.806684 168.61304 
L 254.966148 168.601561 
L 255.125612 168.318055 
L 255.391385 167.202258 
L 255.710313 164.728016 
L 256.135551 159.371292 
L 256.667097 149.27433 
L 257.358108 131.04654 
L 259.484295 70.697515 
L 260.015842 62.984756 
L 260.441079 59.779492 
L 260.706852 59.01228 
L 260.866316 58.969044 
L 261.02578 59.215979 
L 261.291554 60.22054 
L 261.663636 62.725357 
L 262.195183 68.117235 
L 262.939348 78.269792 
L 264.108751 97.781301 
L 267.244877 151.582428 
L 268.095351 161.953198 
L 268.680053 166.632164 
L 269.052135 168.226226 
L 269.317909 168.582181 
L 269.477373 168.449482 
L 269.689991 167.838215 
L 269.955765 166.330298 
L 270.327847 162.732481 
L 270.806239 155.415577 
L 271.390941 142.40305 
L 272.188261 119.002373 
L 273.570282 78.071944 
L 274.154984 66.750418 
L 274.633376 61.257749 
L 275.005458 59.244807 
L 275.218077 58.904739 
L 275.377541 59.003768 
L 275.59016 59.571419 
L 275.909088 61.263228 
L 276.334325 64.855337 
L 276.972181 72.460424 
L 277.87581 86.262803 
L 279.57676 116.415553 
L 281.384019 147.188555 
L 282.287648 159.282212 
L 282.925504 165.293258 
L 283.350741 167.696187 
L 283.669669 168.466687 
L 283.829133 168.478388 
L 283.988597 168.221359 
L 284.254371 167.157242 
L 284.573299 164.757497 
L 284.998536 159.519448 
L 285.530083 149.590887 
L 286.221094 131.562998 
L 288.400435 69.911087 
L 288.931982 62.4737 
L 289.304064 59.743058 
L 289.569838 58.944399 
L 289.729302 58.887662 
L 289.888766 59.124446 
L 290.154539 60.118022 
L 290.526622 62.616011 
L 291.058168 68.006402 
L 291.802334 78.15823 
L 292.971737 97.652639 
L 296.107862 151.337278 
L 296.958337 161.700328 
L 297.543038 166.399767 
L 297.915121 168.023213 
L 298.180894 168.409765 
L 298.340358 168.299692 
L 298.552977 167.723884 
L 298.81875 166.269108 
L 299.190833 162.762158 
L 299.669225 155.587034 
L 300.253926 142.766924 
L 301.051246 119.566699 
L 302.486422 77.186101 
L 303.071124 66.131371 
L 303.549516 60.899528 
L 303.868444 59.23881 
L 304.081062 58.873675 
L 304.240526 58.958138 
L 304.453145 59.511046 
L 304.772073 61.188366 
L 305.19731 64.770055 
L 305.835167 72.366886 
L 306.738796 86.155312 
L 308.4929 117.211281 
L 310.247004 146.940572 
L 311.150633 159.008749 
L 311.788489 165.025279 
L 312.266881 167.647501 
L 312.532655 168.248583 
L 312.692119 168.279104 
L 312.851583 168.044232 
L 313.064202 167.29388 
L 313.38313 165.168769 
L 313.755212 161.070658 
L 314.233604 153.124003 
L 314.818306 139.45702 
L 315.721935 112.207435 
L 316.891338 78.022228 
L 317.476039 66.650345 
L 317.954431 61.167866 
L 318.326514 59.193281 
L 318.539132 58.883428 
L 318.698596 59.007594 
L 318.911215 59.610568 
L 319.230143 61.355926 
L 319.708535 65.563243 
L 320.346391 73.428895 
L 321.303175 88.330134 
L 323.482517 127.074031 
L 324.917693 150.312863 
L 325.768167 160.866592 
L 326.352869 165.783842 
L 326.778106 167.754512 
L 327.04388 168.16455 
L 327.203344 168.072818 
L 327.415962 167.526874 
L 327.681736 166.118719 
L 328.053818 162.695274 
L 328.479056 156.588966 
L 329.010602 145.645666 
L 329.754768 125.05487 
L 331.508872 74.079634 
L 332.040418 64.919467 
L 332.465656 60.667691 
L 332.784584 59.177022 
L 332.997203 58.920527 
L 333.156667 59.082829 
L 333.369285 59.733689 
L 333.688213 61.543763 
L 334.166605 65.831096 
L 334.804461 73.772625 
L 335.761245 88.732354 
L 339.960464 158.090334 
L 340.59832 164.305573 
L 341.076712 167.141826 
L 341.39564 167.960921 
L 341.555104 168.006051 
L 341.714568 167.789149 
L 341.927187 167.068397 
L 342.246115 165.000742 
L 342.618198 160.990638 
L 343.09659 153.18958 
L 343.681291 139.736074 
L 344.58492 112.774541 
L 345.807478 77.283203 
L 346.392179 66.199507 
L 346.870571 60.970931 
L 347.189499 59.329892 
L 347.402118 58.983935 
L 347.561582 59.08498 
L 347.774201 59.661764 
L 348.093129 61.375985 
L 348.518366 65.003351 
L 349.156222 72.650903 
L 350.059851 86.465284 
L 351.86711 118.385137 
L 353.56806 146.922574 
L 354.471689 158.825638 
L 355.109545 164.72086 
L 355.534782 167.069181 
L 355.85371 167.817656 
L 356.013174 167.826153 
L 356.172638 167.57198 
L 356.438412 166.527827 
L 356.75734 164.180535 
L 357.182577 159.067 
L 357.714124 149.385523 
L 358.35198 133.310006 
L 360.74394 67.630326 
L 361.222332 61.759078 
L 361.594415 59.522665 
L 361.807033 59.08363 
L 361.966497 59.120687 
L 362.179116 59.619852 
L 362.498044 61.233285 
L 362.923281 64.752144 
L 363.561137 72.281005 
L 364.464767 85.989642 
L 366.218871 116.867774 
L 367.972975 146.37561 
L 368.876604 158.349531 
L 369.51446 164.337721 
L 369.992852 166.976263 
L 370.258626 167.605883 
L 370.41809 167.661601 
L 370.577554 167.458671 
L 370.790172 166.762341 
L 371.1091 164.745091 
L 371.481183 160.816844 
L 371.959575 153.159271 
L 372.544276 139.931163 
L 373.394751 114.997979 
L 374.670463 77.885692 
L 375.255165 66.649562 
L 375.733557 61.286257 
L 376.052485 59.567416 
L 376.265103 59.176855 
L 376.424567 59.248255 
L 376.637186 59.790233 
L 376.956114 61.461019 
L 377.381351 65.043082 
L 378.019207 72.639567 
L 378.497599 79.593767 
L 378.497599 79.593767 
" style="fill:none;stroke:#0173b2;stroke-linecap:round;stroke-width:1.5;"/>
   </g>
   <g id="line2d_14">
    <path clip-path="url(#p1db68dc1df)" d="M 74.133963 106.718829 
L 74.187118 145.215551 
L 74.240272 116.638413 
L 74.293427 128.677093 
L 74.346582 125.212051 
L 74.399736 124.966332 
L 74.452891 126.145005 
L 74.506046 125.480424 
L 74.5592 124.826173 
L 74.612355 127.297158 
L 74.66551 122.755297 
L 74.718664 129.165302 
L 74.771819 122.328839 
L 74.824974 122.551223 
L 74.878128 130.193342 
L 74.984438 129.778781 
L 75.037592 126.980787 
L 75.090747 129.621681 
L 75.143902 129.130658 
L 75.409675 132.583368 
L 76.153841 142.308913 
L 76.206995 138.010665 
L 76.26015 157.675614 
L 76.313305 128.951305 
L 76.366459 153.849012 
L 76.472769 137.957479 
L 76.525923 145.602769 
L 76.579078 136.892335 
L 76.632233 142.1465 
L 76.738542 138.209757 
L 76.791697 139.912763 
L 76.844851 134.473733 
L 76.898006 140.841749 
L 77.004315 132.487064 
L 77.05747 140.214688 
L 77.110625 132.995872 
L 77.163779 138.661859 
L 77.216934 134.969899 
L 77.270089 137.493971 
L 77.376398 137.469814 
L 77.429553 135.912106 
L 77.482707 138.314417 
L 77.535862 135.387034 
L 77.589017 138.946662 
L 77.642171 136.672781 
L 77.695326 134.812399 
L 77.748481 148.792477 
L 77.801635 128.53402 
L 77.85479 141.427453 
L 77.907945 132.551754 
L 77.961099 136.490965 
L 78.120563 133.161357 
L 79.024193 123.641066 
L 82.479246 87.733147 
L 82.798174 83.225262 
L 82.851329 85.211296 
L 82.904484 75.780406 
L 82.957638 95.244897 
L 83.117102 69.373046 
L 83.170257 84.585338 
L 83.223412 66.467608 
L 83.276566 69.296202 
L 83.329721 79.608113 
L 83.382876 67.809442 
L 83.43603 76.800568 
L 83.489185 69.791855 
L 83.595494 70.310258 
L 83.648649 72.837786 
L 83.701804 69.672999 
L 83.754958 71.690201 
L 83.808113 70.71132 
L 83.861268 65.741218 
L 83.914422 81.330469 
L 83.967577 43.12574 
L 84.020732 85.964246 
L 84.073886 62.21818 
L 84.127041 75.867376 
L 84.180196 70.944395 
L 84.33966 74.648935 
L 84.605433 78.846879 
L 86.572156 102.554483 
L 90.611911 146.677014 
L 90.930839 152.161186 
L 90.983993 150.020749 
L 91.090303 149.882854 
L 91.143457 157.659828 
L 91.249767 150.381053 
L 91.302921 179.01253 
L 91.356076 138.741438 
L 91.409231 165.292526 
L 91.462385 147.862635 
L 91.51554 156.399789 
L 91.568695 151.218889 
L 91.675004 151.220127 
L 92.31286 143.833414 
L 92.897561 136.946657 
L 92.950716 138.60075 
L 93.11018 134.748873 
L 93.163335 131.844762 
L 93.216489 138.612302 
L 93.269644 132.866784 
L 93.322799 136.757588 
L 93.375953 134.18643 
L 93.429108 135.558853 
L 93.482263 134.687893 
L 93.535417 135.102579 
L 93.588572 134.679312 
L 93.641727 134.978699 
L 93.694881 134.594637 
L 93.748036 134.674345 
L 93.801191 135.161865 
L 93.854345 133.066174 
L 93.9075 138.071398 
L 93.960655 132.155589 
L 94.013809 135.341737 
L 94.066964 133.327534 
L 94.173273 133.458352 
L 95.980532 128.739551 
L 96.671543 127.777445 
L 97.309399 127.254515 
L 97.840946 127.074475 
L 98.372492 127.123834 
L 98.904039 127.405687 
L 99.48874 127.995118 
L 100.126596 128.99619 
L 100.658143 130.098068 
L 100.817607 130.795029 
L 100.870762 130.330766 
L 100.923916 131.27662 
L 100.977071 130.588053 
L 101.08338 132.433595 
L 101.136535 127.814468 
L 101.18969 139.91267 
L 101.242844 115.685088 
L 101.295999 158.349875 
L 101.349154 117.822807 
L 101.402308 136.094004 
L 101.455463 127.825562 
L 101.561772 128.56927 
L 101.721236 124.934154 
L 101.774391 124.778759 
L 102.093319 119.599373 
L 103.315877 100.655713 
L 103.369031 100.962227 
L 103.422186 95.901807 
L 103.475341 105.207635 
L 103.528495 83.968224 
L 103.58165 104.12826 
L 103.634805 94.081411 
L 103.687959 98.00265 
L 103.794269 96.459035 
L 103.847423 97.002547 
L 104.006887 96.107827 
L 104.060042 96.166449 
L 104.37897 95.153974 
L 105.069981 92.621422 
L 105.814146 89.062552 
L 106.611466 84.146806 
L 107.461941 77.394191 
L 108.312415 68.711509 
L 108.525034 65.870684 
L 108.578189 66.11774 
L 108.737653 61.242546 
L 108.790807 65.422449 
L 108.843962 60.043697 
L 108.897117 60.46417 
L 108.950271 69.134146 
L 109.003426 34.843149 
L 109.056581 78.227981 
L 109.109735 51.235729 
L 109.16289 68.064595 
L 109.216045 60.389672 
L 109.375509 65.012034 
L 109.694437 68.850857 
L 110.385448 75.926052 
L 111.289077 83.200145 
L 112.192706 88.716648 
L 113.043181 92.621078 
L 113.840501 95.340678 
L 114.584666 97.167743 
L 115.275677 98.307481 
L 115.860378 98.875228 
L 116.391925 99.096693 
L 116.604544 99.063876 
L 116.657699 99.176822 
L 116.710853 98.765131 
L 116.764008 99.694516 
L 116.817163 97.798348 
L 116.870317 101.100319 
L 116.923472 95.806628 
L 116.976627 100.33656 
L 117.029781 98.99521 
L 117.082936 99.291613 
L 117.2424 100.04816 
L 117.295555 99.900317 
L 117.508173 100.554447 
L 118.146029 101.948857 
L 118.890195 103.131247 
L 119.581205 103.855753 
L 120.219061 104.230695 
L 120.803763 104.33708 
L 121.388464 104.218496 
L 121.973165 103.870046 
L 122.611021 103.21366 
L 123.302032 102.147952 
L 124.046198 100.57929 
L 124.365126 99.342506 
L 124.41828 100.57006 
L 124.471435 96.951839 
L 124.52459 103.902566 
L 124.577744 90.911701 
L 124.630899 103.278608 
L 124.684054 97.78048 
L 124.737208 100.103061 
L 124.843518 99.816085 
L 125.002982 100.823608 
L 125.056136 100.794779 
L 125.32191 101.818375 
L 126.331848 104.820244 
L 127.341787 107.12609 
L 128.40488 109.002622 
L 129.521128 110.535246 
L 130.796841 111.907483 
L 132.338326 113.22794 
L 137.813257 117.604085 
L 138.98266 118.964637 
L 139.142124 119.410835 
L 139.195278 119.092328 
L 139.248433 119.55113 
L 139.301588 119.521089 
L 139.354742 118.868626 
L 139.407897 121.630064 
L 139.461052 118.155408 
L 139.514206 120.34515 
L 139.567361 119.002248 
L 139.620516 119.641618 
L 139.67367 119.297458 
L 139.77998 119.316259 
L 140.045753 119.123643 
L 140.205217 119.114864 
L 140.311526 119.145886 
L 140.364681 118.769084 
L 140.417836 119.099036 
L 140.47099 118.929048 
L 140.524145 118.347817 
L 140.5773 120.513487 
L 140.630454 115.082684 
L 140.683609 126.07898 
L 140.736764 106.240256 
L 140.789918 125.285999 
L 140.843073 117.877661 
L 140.896228 120.716533 
L 140.949382 122.316393 
L 141.002537 120.070352 
L 141.108846 119.775989 
L 141.162001 127.747945 
L 141.215156 121.168403 
L 141.26831 124.862116 
L 141.321465 139.344797 
L 141.37462 113.771248 
L 141.427774 126.694106 
L 141.534084 123.203231 
L 141.587238 124.697672 
L 141.640393 123.003589 
L 141.693548 123.958378 
L 141.799857 123.208154 
L 141.853012 123.370391 
L 141.959321 122.514294 
L 142.012476 124.508595 
L 142.06563 118.291821 
L 142.118785 131.747667 
L 142.17194 105.550546 
L 142.225094 150.099157 
L 142.278249 105.392318 
L 142.331404 126.84089 
L 142.384558 115.837292 
L 142.437713 119.312147 
L 142.650332 108.384856 
L 142.703486 129.106455 
L 142.756641 70.738818 
L 142.809796 138.025595 
L 142.86295 96.064575 
L 142.916105 121.222873 
L 142.96926 109.741292 
L 143.128724 115.955939 
L 143.288188 118.660966 
L 143.341342 117.192503 
L 143.447652 120.551026 
L 143.500806 115.285306 
L 143.553961 132.166234 
L 143.607116 113.60525 
L 143.660271 125.352055 
L 143.713425 118.918195 
L 143.76658 122.20576 
L 143.819735 121.040061 
L 143.872889 121.335338 
L 143.926044 121.769924 
L 143.979199 121.223988 
L 144.032353 122.123206 
L 144.085508 121.401607 
L 144.191817 122.670291 
L 144.244972 119.511218 
L 144.298127 124.27472 
L 144.351281 121.511292 
L 144.510745 123.681301 
L 144.5639 123.761291 
L 145.254911 128.096495 
L 145.308065 127.384454 
L 145.36122 130.454097 
L 145.414375 125.117284 
L 145.467529 135.812804 
L 145.520684 126.004932 
L 145.573839 130.705873 
L 145.626993 129.005404 
L 145.839612 129.753761 
L 145.892767 129.542337 
L 145.945921 129.781984 
L 145.999076 129.74434 
L 146.318004 130.243638 
L 146.902705 131.384518 
L 147.593716 133.260496 
L 148.337881 135.959576 
L 148.5505 137.644631 
L 148.603655 135.67085 
L 148.656809 140.243062 
L 148.709964 132.920611 
L 148.763119 145.177102 
L 148.816273 128.57102 
L 148.869428 148.738678 
L 148.922583 138.172426 
L 148.975737 118.840516 
L 149.028892 153.298411 
L 149.082047 131.679226 
L 149.135201 146.133611 
L 149.188356 140.463733 
L 149.34782 146.741081 
L 149.400975 143.005046 
L 149.454129 157.154012 
L 149.507284 130.143789 
L 149.560439 183.431118 
L 149.613593 132.577462 
L 149.666748 156.6373 
L 149.719903 146.460014 
L 149.826212 148.722143 
L 149.985676 146.132349 
L 150.038831 146.559238 
L 150.251449 144.707836 
L 150.836151 140.740126 
L 150.889306 141.18055 
L 150.94246 139.017195 
L 150.995615 142.525092 
L 151.04877 135.404174 
L 151.101924 142.275306 
L 151.155079 137.480317 
L 151.261388 137.823518 
L 151.367698 142.785059 
L 151.420852 124.964729 
L 151.474007 149.694087 
L 151.527162 135.242595 
L 151.580316 144.988477 
L 151.686626 144.246942 
L 151.73978 144.500864 
L 152.218172 154.325613 
L 152.271327 152.04311 
L 152.324482 158.163131 
L 152.377636 154.899415 
L 152.590255 161.204372 
L 152.64341 157.092101 
L 152.696564 165.972753 
L 152.749719 155.058953 
L 152.909183 172.612588 
L 152.962338 157.911463 
L 153.015492 164.070325 
L 153.174956 160.671624 
L 153.387575 158.331516 
L 153.653348 154.644213 
L 153.706503 157.466548 
L 153.759658 151.520189 
L 153.812812 159.274284 
L 153.865967 152.508285 
L 153.972276 152.944947 
L 154.13174 149.87055 
L 154.184895 149.717912 
L 154.503823 145.483966 
L 155.72638 131.937692 
L 156.257927 125.472307 
L 156.311082 130.085339 
L 156.364236 116.72257 
L 156.417391 142.606132 
L 156.470546 114.394362 
L 156.5237 126.704992 
L 156.576855 119.10395 
L 156.63001 119.793816 
L 156.948938 106.723644 
L 157.002092 116.650325 
L 157.055247 95.541742 
L 157.108402 124.905944 
L 157.161557 80.616812 
L 157.214711 104.669132 
L 157.267866 111.517315 
L 157.321021 99.967101 
L 157.374175 112.427839 
L 157.42733 104.452995 
L 157.480485 110.742849 
L 157.533639 108.558263 
L 157.586794 110.484239 
L 157.639949 110.912968 
L 157.693103 112.25797 
L 157.746258 110.496368 
L 157.799413 118.235321 
L 157.852567 103.662072 
L 157.905722 137.307128 
L 157.958877 104.733368 
L 158.012031 115.184823 
L 158.065186 110.586046 
L 158.118341 110.292875 
L 158.330959 97.473502 
L 158.384114 124.869146 
L 158.437269 62.369883 
L 158.490423 127.994933 
L 158.543578 90.189498 
L 158.596733 110.823966 
L 158.649887 102.180106 
L 158.703042 105.916203 
L 158.756197 105.974065 
L 158.809351 105.856833 
L 158.968815 107.976869 
L 159.02197 108.135615 
L 159.340898 111.264632 
L 159.394053 111.50516 
L 159.553517 113.779332 
L 159.606671 112.776679 
L 159.659826 114.79305 
L 159.712981 114.553584 
L 159.766135 113.038853 
L 159.81929 121.94087 
L 159.872445 110.913492 
L 159.925599 118.467539 
L 159.978754 113.950037 
L 160.031909 116.839257 
L 160.138218 117.006337 
L 160.191373 114.524847 
L 160.244527 118.062075 
L 160.297682 114.102526 
L 160.350837 117.417642 
L 160.403991 122.132955 
L 160.457146 111.267729 
L 160.510301 117.454736 
L 160.669765 112.547755 
L 160.776074 111.532066 
L 161.41393 103.048006 
L 161.467085 103.885502 
L 161.520239 99.748842 
L 161.573394 105.792948 
L 161.626549 93.367525 
L 161.679703 111.03658 
L 161.732858 84.981273 
L 161.786013 101.141936 
L 161.839167 101.991092 
L 161.892322 96.829954 
L 161.945477 103.293089 
L 161.998631 98.730958 
L 162.051786 102.495051 
L 162.158095 102.281972 
L 162.21125 102.036197 
L 162.477023 103.933007 
L 163.593271 110.576502 
L 164.496901 116.246143 
L 164.550056 113.854325 
L 164.60321 120.690079 
L 164.656365 107.829407 
L 164.70952 121.950703 
L 164.762674 115.496889 
L 164.922138 119.794138 
L 165.347376 125.372403 
L 165.666304 130.529386 
L 165.719458 128.794104 
L 165.772613 133.371157 
L 165.825768 128.699303 
L 165.878922 133.137651 
L 166.251005 140.170925 
L 166.30416 138.739639 
L 166.357314 144.595278 
L 166.410469 136.647841 
L 166.463624 152.565669 
L 166.516778 131.197334 
L 166.569933 161.485267 
L 166.623088 159.555789 
L 166.676242 110.012323 
L 166.729397 165.019376 
L 166.782552 153.849651 
L 166.835706 131.537762 
L 166.942016 132.58497 
L 166.99517 143.278924 
L 167.154634 119.702353 
L 167.207789 144.694937 
L 167.260944 117.53157 
L 167.314098 140.741723 
L 167.367253 125.217101 
L 167.420408 97.78105 
L 167.473562 152.78365 
L 167.526717 119.440663 
L 167.633026 142.972637 
L 167.686181 124.01172 
L 167.79249 164.41048 
L 167.845645 117.517397 
L 167.8988 145.305503 
L 167.951954 124.011912 
L 168.005109 142.241128 
L 168.111418 115.416564 
L 168.164573 148.172792 
L 168.217728 127.047541 
L 168.270882 130.111642 
L 168.324037 161.703779 
L 168.377192 131.746984 
L 168.430346 132.57894 
L 168.483501 124.619047 
L 168.536656 127.438818 
L 168.58981 143.437 
L 168.642965 85.483799 
L 168.69612 107.04732 
L 168.749274 126.611849 
L 168.802429 116.735721 
L 168.961893 125.079449 
L 169.280821 135.498332 
L 169.333976 133.050907 
L 169.49344 139.215469 
L 169.546594 139.189491 
L 169.759213 146.407377 
L 169.812368 141.831993 
L 169.865522 157.141783 
L 169.918677 130.415576 
L 169.971832 181.321285 
L 170.024986 136.522547 
L 170.078141 154.076518 
L 170.131296 148.6696 
L 170.18445 147.47714 
L 170.237605 149.766117 
L 170.397069 146.55753 
L 170.450224 147.098764 
L 170.662843 145.378372 
L 171.407008 141.261006 
L 172.151173 138.239902 
L 172.416947 137.166223 
L 172.470101 137.741304 
L 172.523256 136.247912 
L 172.576411 138.351236 
L 172.629565 134.835573 
L 172.68272 139.121976 
L 172.735875 134.430544 
L 172.789029 136.40116 
L 172.842184 142.309955 
L 173.001648 129.608593 
L 173.054803 137.974052 
L 173.107957 129.293466 
L 173.161112 134.276554 
L 173.214267 129.890652 
L 173.267421 131.232809 
L 173.48004 127.286729 
L 173.533195 127.396087 
L 173.745813 123.488916 
L 173.798968 126.613197 
L 173.852123 113.600913 
L 173.905277 141.2712 
L 173.958432 85.144456 
L 174.011587 158.759991 
L 174.064741 100.937905 
L 174.117896 128.217903 
L 174.171051 115.85146 
L 174.224205 117.908159 
L 174.27736 117.836812 
L 174.436824 113.717571 
L 174.489979 113.909593 
L 174.702597 110.00671 
L 174.755752 109.480052 
L 174.808907 107.245953 
L 174.862061 109.700511 
L 175.021525 101.901334 
L 175.07468 106.897028 
L 175.127835 102.835709 
L 175.180989 104.392101 
L 175.234144 102.707123 
L 175.287299 102.911952 
L 175.446763 100.270626 
L 175.499917 101.396536 
L 175.553072 99.160034 
L 175.606227 99.279405 
L 175.659381 101.494914 
L 175.712536 90.269214 
L 175.765691 115.796301 
L 175.818845 79.070277 
L 175.872 105.905555 
L 175.925155 89.926063 
L 175.978309 96.553729 
L 176.137773 92.260106 
L 176.403547 87.979643 
L 176.456701 87.60326 
L 176.616165 83.223165 
L 176.66932 86.644157 
L 176.828784 79.497916 
L 176.881939 74.574614 
L 176.935093 89.548891 
L 176.988248 74.740096 
L 177.041403 83.948556 
L 177.094557 78.056771 
L 177.147712 80.688535 
L 177.200867 79.025486 
L 177.254021 79.165031 
L 177.679259 76.077923 
L 177.732414 74.872617 
L 177.785568 78.687096 
L 177.838723 67.047267 
L 177.891878 90.525512 
L 177.945032 45.692024 
L 177.998187 119.024685 
L 178.051342 51.874684 
L 178.104496 74.275861 
L 178.157651 66.344665 
L 178.317115 52.815458 
L 178.37027 59.326356 
L 178.582888 25.07087 
L 178.742352 47.740012 
L 178.795507 46.969368 
L 178.954971 54.690103 
L 179.008126 54.187107 
L 179.273899 62.349752 
L 180.602766 96.334026 
L 180.65592 96.871432 
L 180.815384 102.762691 
L 180.868539 100.656525 
L 180.974848 106.786655 
L 181.028003 97.559383 
L 181.081158 129.55536 
L 181.134312 92.598402 
L 181.187467 115.795558 
L 181.240622 102.816878 
L 181.293776 109.43501 
L 181.346931 106.511189 
L 181.400086 107.800745 
L 181.45324 107.194373 
L 181.506395 107.774662 
L 181.612704 107.083868 
L 181.665859 109.703846 
L 181.719014 102.19425 
L 181.772168 119.084042 
L 181.825323 86.756094 
L 181.878478 115.440312 
L 181.931632 110.494479 
L 181.984787 120.965542 
L 182.037942 103.183477 
L 182.091096 116.216994 
L 182.144251 107.947106 
L 182.197406 112.770993 
L 182.25056 110.368243 
L 182.303715 111.492768 
L 182.35687 111.176461 
L 182.410024 111.253158 
L 182.569488 111.447745 
L 182.675798 111.507498 
L 182.994726 111.726536 
L 184.323593 112.511303 
L 185.811923 113.122333 
L 187.619182 113.612785 
L 189.904833 113.98959 
L 193.040958 114.263189 
L 197.771724 114.430269 
L 205.479151 114.460152 
L 212.655031 114.290408 
L 216.907405 113.983238 
L 219.777757 113.564302 
L 221.957098 113.027307 
L 223.711202 112.366637 
L 225.146379 111.595552 
L 226.422091 110.660182 
L 227.591493 109.517156 
L 228.654587 108.158135 
L 229.664525 106.492381 
L 230.621309 104.472826 
L 231.524939 102.053102 
L 232.428568 98.98964 
L 233.332198 95.09335 
L 234.182672 90.442535 
L 235.033147 84.510633 
L 235.192611 82.833189 
L 235.245766 83.935463 
L 235.29892 80.243168 
L 235.352075 85.838272 
L 235.40523 75.283408 
L 235.458384 89.934225 
L 235.511539 69.82447 
L 235.564694 80.288803 
L 235.617848 84.471832 
L 235.671003 78.071368 
L 235.724158 85.032911 
L 235.777312 80.607767 
L 235.830467 84.298803 
L 235.883622 82.832878 
L 235.936776 84.31314 
L 235.989931 84.260623 
L 236.308859 86.939217 
L 237.425107 94.277553 
L 238.435046 99.382132 
L 239.498139 103.632021 
L 240.667542 107.384959 
L 242.049563 111.041027 
L 244.97307 117.957924 
L 245.026225 117.927556 
L 245.07938 118.451465 
L 245.132534 117.792274 
L 245.185689 119.33788 
L 245.238844 117.229778 
L 245.291998 120.484457 
L 245.345153 118.564699 
L 245.398308 118.473757 
L 245.451462 119.199093 
L 245.504617 118.439463 
L 245.557772 119.061046 
L 245.610926 118.658965 
L 245.664081 118.921021 
L 245.717236 118.798917 
L 245.8767 118.889699 
L 246.833484 119.302633 
L 247.790268 119.972962 
L 248.747052 120.920785 
L 249.703836 122.18678 
L 250.66062 123.833348 
L 251.617404 125.948654 
L 252.521033 128.484736 
L 253.424663 131.680718 
L 254.328292 135.713901 
L 255.231921 140.817242 
L 256.135551 147.297404 
L 256.986025 155.01524 
L 257.8365 164.754075 
L 258.63382 175.773063 
L 258.74013 175.657642 
L 258.793284 183.022155 
L 258.846439 173.036134 
L 258.899594 190.282176 
L 258.952748 178.541293 
L 259.059058 183.594728 
L 259.112212 180.249104 
L 259.165367 184.158816 
L 259.218522 182.772041 
L 259.271676 180.847992 
L 259.324831 191.953011 
L 259.377986 166.48386 
L 259.43114 208.67499 
L 259.484295 171.189256 
L 259.53745 191.881952 
L 259.590604 182.456562 
L 259.696914 186.981981 
L 259.750068 182.035972 
L 259.803223 188.758294 
L 259.856378 182.617404 
L 259.909532 184.103479 
L 259.962687 198.586745 
L 260.015842 173.812819 
L 260.068996 190.2905 
L 260.122151 178.32531 
L 260.175306 183.697935 
L 260.33477 179.545894 
L 260.547388 174.170142 
L 260.600543 180.816897 
L 260.653698 161.300518 
L 260.706852 199.168194 
L 260.760007 154.984211 
L 260.813162 181.405575 
L 260.866316 160.968163 
L 260.919471 170.213092 
L 261.078935 163.023569 
L 261.13209 162.142035 
L 261.185244 156.308281 
L 261.238399 166.894908 
L 261.291554 140.450076 
L 261.344708 184.028801 
L 261.397863 133.809065 
L 261.451018 141.318483 
L 261.504172 170.83767 
L 261.557327 141.517283 
L 261.610482 151.21657 
L 261.663636 147.665114 
L 261.8231 142.838494 
L 261.876255 143.231334 
L 262.142028 136.568591 
L 265.278154 66.591669 
L 265.597082 56.251021 
L 265.650237 61.976241 
L 265.703391 44.018325 
L 265.756546 75.002003 
L 265.809701 17.174363 
L 265.862855 68.706794 
L 265.91601 47.281356 
L 265.969165 52.749141 
L 266.022319 55.83172 
L 266.075474 49.793617 
L 266.128629 56.426497 
L 266.181783 53.116756 
L 266.234938 47.290433 
L 266.288093 60.159138 
L 266.341247 51.662243 
L 266.394402 58.424866 
L 266.500711 58.140801 
L 266.553866 57.673946 
L 266.71333 62.036465 
L 266.766485 57.057286 
L 266.819639 66.851738 
L 266.872794 53.900443 
L 266.925949 71.563538 
L 266.979103 55.955746 
L 267.032258 57.488241 
L 267.085413 87.848749 
L 267.138567 45.578636 
L 267.191722 75.936543 
L 267.244877 57.137132 
L 267.298031 64.443821 
L 267.351186 65.374105 
L 267.404341 56.2084 
L 267.457495 70.134436 
L 267.563805 53.652827 
L 267.616959 71.794516 
L 267.670114 55.869783 
L 267.723269 69.7718 
L 267.776423 62.29111 
L 267.935887 68.597266 
L 268.042197 70.016683 
L 268.786362 81.987236 
L 268.839517 81.991547 
L 268.945826 84.942937 
L 268.998981 81.207214 
L 269.052135 93.122003 
L 269.10529 70.967954 
L 269.158445 112.891279 
L 269.211599 73.933205 
L 269.264754 90.632168 
L 269.317909 83.580136 
L 269.371063 86.808092 
L 269.424218 78.198869 
L 269.477373 97.19651 
L 269.530527 66.970386 
L 269.583682 91.472465 
L 269.636837 77.17735 
L 269.689991 83.515975 
L 269.796301 80.412482 
L 269.849455 80.795227 
L 270.008919 77.771433 
L 270.115229 78.965122 
L 270.168383 72.44805 
L 270.221538 82.120956 
L 270.274693 69.702984 
L 270.327847 90.241706 
L 270.381002 51.494218 
L 270.434157 91.561096 
L 270.487311 71.32918 
L 270.540466 82.111724 
L 270.593621 79.307826 
L 270.646775 80.82209 
L 270.912549 85.322481 
L 271.284631 90.844468 
L 273.038736 115.176479 
L 274.101829 130.779224 
L 274.154984 128.227032 
L 274.208138 135.460972 
L 274.261293 124.847322 
L 274.314448 143.613633 
L 274.367602 119.115726 
L 274.420757 149.603139 
L 274.473912 140.19435 
L 274.527066 123.535224 
L 274.580221 140.430408 
L 274.633376 124.578317 
L 274.68653 133.85625 
L 274.739685 126.351238 
L 274.79284 128.934743 
L 274.952304 124.465194 
L 275.324386 116.353154 
L 275.377541 117.630037 
L 275.59016 102.64387 
L 275.643314 119.747592 
L 275.749624 118.221016 
L 275.802778 107.184891 
L 275.855933 117.974597 
L 275.962242 103.149029 
L 276.015397 134.877343 
L 276.068552 97.896985 
L 276.121706 120.658647 
L 276.28117 105.78735 
L 276.334325 114.793976 
L 276.38748 107.722917 
L 276.440634 112.296782 
L 276.493789 109.395212 
L 276.546944 111.220919 
L 276.600098 109.039237 
L 276.653253 112.734451 
L 276.706408 105.303325 
L 276.759562 118.550914 
L 276.812717 107.841797 
L 276.865872 108.976927 
L 276.919026 108.322269 
L 277.131645 105.161724 
L 277.610037 97.041832 
L 277.663192 99.621724 
L 277.822656 94.439812 
L 278.088429 90.584335 
L 278.141584 86.547295 
L 278.194738 94.671183 
L 278.247893 73.455547 
L 278.301048 111.61111 
L 278.354202 56.251208 
L 278.407357 99.024571 
L 278.513666 60.664491 
L 278.566821 105.094176 
L 278.619976 72.510589 
L 278.673131 92.130708 
L 278.726285 82.743038 
L 278.77944 87.718556 
L 278.885749 87.39209 
L 279.151523 90.190875 
L 279.57676 93.943143 
L 280.799317 103.573943 
L 282.659731 116.377661 
L 282.712885 116.435897 
L 282.925504 118.266625 
L 282.978659 117.184898 
L 283.031813 122.012342 
L 283.084968 112.229451 
L 283.138123 132.194063 
L 283.191277 112.493304 
L 283.244432 122.158561 
L 283.297587 117.718369 
L 283.350741 118.749196 
L 283.403896 118.611136 
L 283.56336 117.545425 
L 283.616515 117.641171 
L 283.882288 116.414613 
L 284.041752 115.725169 
L 284.094907 115.885807 
L 284.148061 114.707723 
L 284.201216 116.562663 
L 284.254371 112.447362 
L 284.307525 118.896005 
L 284.36068 108.429773 
L 284.413835 122.148519 
L 284.466989 106.416321 
L 284.520144 109.534802 
L 284.573299 121.718307 
L 284.679608 121.072295 
L 284.732763 115.613538 
L 284.785917 120.453638 
L 284.839072 119.087412 
L 284.998536 122.961603 
L 285.051691 123.135082 
L 285.264309 130.417244 
L 285.317464 120.654381 
L 285.370619 143.46945 
L 285.423774 121.002753 
L 285.476928 133.900857 
L 285.530083 127.39713 
L 285.583238 131.508108 
L 285.636392 129.217194 
L 285.795856 136.503033 
L 285.849011 111.343773 
L 285.902166 134.816787 
L 285.95532 145.031889 
L 286.008475 112.511854 
L 286.06163 179.380548 
L 286.114784 128.05144 
L 286.167939 138.944684 
L 286.221094 136.478264 
L 286.433712 127.007444 
L 286.486867 138.119361 
L 286.540022 113.713866 
L 286.593176 150.058253 
L 286.646331 99.015229 
L 286.699486 134.38465 
L 286.805795 119.188548 
L 286.85895 131.674434 
L 286.912104 121.098652 
L 286.965259 127.781087 
L 287.018414 124.160685 
L 287.177878 125.501381 
L 287.284187 116.555255 
L 287.337342 151.238649 
L 287.390496 115.59245 
L 287.443651 130.531349 
L 287.496806 103.425356 
L 287.54996 136.357102 
L 287.603115 115.406634 
L 287.65627 127.846744 
L 287.709424 121.74186 
L 287.762579 124.719516 
L 287.815734 124.023759 
L 289.835611 133.794518 
L 290.420312 137.727618 
L 290.473467 137.391107 
L 290.526622 139.252682 
L 290.579776 136.823304 
L 290.632931 141.984136 
L 290.686086 135.024913 
L 290.73924 145.361778 
L 290.792395 134.785745 
L 290.898704 155.310353 
L 290.951859 126.798837 
L 291.005014 147.346222 
L 291.058168 131.736949 
L 291.111323 139.57819 
L 291.270787 133.139196 
L 291.589715 127.92292 
L 291.749179 121.984158 
L 291.802334 127.720948 
L 291.908643 127.94065 
L 291.961798 116.639356 
L 292.014952 114.698514 
L 292.068107 127.639111 
L 292.121262 111.408191 
L 292.174417 131.051596 
L 292.227571 98.936421 
L 292.280726 133.782392 
L 292.333881 112.835898 
L 292.387035 125.321744 
L 292.493345 117.545394 
L 292.546499 136.940615 
L 292.599654 118.507568 
L 292.652809 125.82775 
L 292.705963 110.843789 
L 292.759118 134.284851 
L 292.812273 120.863184 
L 292.865427 128.747459 
L 292.918582 127.559057 
L 292.971737 127.920238 
L 293.024891 129.330307 
L 293.078046 134.293746 
L 293.131201 119.678221 
L 293.184355 157.180054 
L 293.23751 87.711114 
L 293.290665 184.853345 
L 293.343819 98.328722 
L 293.396974 175.398986 
L 293.450129 120.019735 
L 293.503283 143.884719 
L 293.556438 140.509259 
L 293.609593 139.766498 
L 293.662747 136.778717 
L 293.715902 152.100638 
L 293.769057 120.285711 
L 293.822211 172.901094 
L 293.875366 127.962832 
L 293.928521 145.632707 
L 293.981675 139.298808 
L 294.03483 138.58964 
L 294.087985 141.786203 
L 294.141139 117.490503 
L 294.194294 148.449892 
L 294.247449 141.219376 
L 294.300603 140.077636 
L 294.353758 152.466162 
L 294.406913 139.196415 
L 294.513222 162.409974 
L 294.566377 142.539828 
L 294.619531 160.734301 
L 294.672686 148.307903 
L 294.725841 161.657471 
L 294.778995 152.648897 
L 294.83215 160.082829 
L 294.885305 154.676121 
L 294.938459 165.358613 
L 294.991614 149.272794 
L 295.044769 178.764822 
L 295.097923 136.596998 
L 295.151078 194.334518 
L 295.204233 152.196635 
L 295.310542 172.458441 
L 295.363697 155.218562 
L 295.470006 155.678138 
L 295.523161 156.871662 
L 295.735779 149.544588 
L 295.788934 149.274931 
L 296.054707 132.874757 
L 296.107862 185.153027 
L 296.161017 112.851288 
L 296.214171 167.954156 
L 296.267326 142.779224 
L 296.373635 143.913838 
L 296.42679 183.883305 
L 296.479945 132.025204 
L 296.533099 165.539133 
L 296.586254 144.446746 
L 296.639409 154.675163 
L 296.692563 148.948856 
L 296.798873 149.187535 
L 297.117801 145.431807 
L 297.861966 137.563654 
L 299.137678 126.171437 
L 300.147617 117.455127 
L 300.200772 120.055747 
L 300.253926 113.377717 
L 300.307081 124.428745 
L 300.360236 105.580259 
L 300.41339 121.549704 
L 300.466545 115.908692 
L 300.5197 117.191042 
L 300.626009 117.155198 
L 300.679164 118.699911 
L 300.732318 117.906293 
L 300.891782 119.699123 
L 300.944937 118.282427 
L 300.998092 121.162389 
L 301.051246 117.468449 
L 301.104401 122.916488 
L 301.157556 117.665535 
L 301.263865 127.638427 
L 301.31702 98.731513 
L 301.370174 173.271058 
L 301.423329 80.832054 
L 301.476484 140.364208 
L 301.529638 105.110566 
L 301.582793 106.632119 
L 301.635948 117.01973 
L 301.795412 99.733211 
L 301.848566 103.14172 
L 302.061185 92.813972 
L 302.326958 82.135708 
L 302.380113 82.791376 
L 302.433268 70.943445 
L 302.486422 81.571282 
L 302.539577 73.48151 
L 302.645886 74.039073 
L 302.699041 67.214736 
L 302.752196 74.863466 
L 302.91166 59.677662 
L 302.964814 54.668692 
L 303.017969 69.612542 
L 303.071124 46.008338 
L 303.124278 70.869399 
L 303.177433 48.942627 
L 303.230588 58.478302 
L 303.336897 50.098873 
L 303.390052 61.077449 
L 303.443206 23.247366 
L 303.496361 52.668745 
L 303.549516 82.361402 
L 303.60267 23.994572 
L 303.655825 65.152832 
L 303.762134 37.249842 
L 303.921598 88.638359 
L 304.027908 55.696178 
L 304.081062 70.976157 
L 304.187372 58.11269 
L 304.240526 86.260355 
L 304.293681 17.083636 
L 304.346836 89.788101 
L 304.39999 60.492317 
L 304.453145 71.124181 
L 304.5063 71.391912 
L 304.559454 65.727374 
L 304.612609 81.676353 
L 304.665764 56.236694 
L 304.718918 82.688531 
L 304.772073 72.590314 
L 304.825228 78.772145 
L 304.931537 80.645628 
L 305.250465 90.945576 
L 307.110879 147.8715 
L 307.164033 148.363492 
L 307.376652 159.58309 
L 307.429807 147.787622 
L 307.482961 179.305671 
L 307.536116 124.522637 
L 307.589271 214.756364 
L 307.642425 137.812853 
L 307.69558 174.073717 
L 307.748735 161.191814 
L 307.855044 166.157144 
L 307.908199 162.992331 
L 308.067663 167.386883 
L 308.120817 163.71615 
L 308.173972 169.770845 
L 308.227127 162.152047 
L 308.280281 172.510943 
L 308.333436 163.256732 
L 308.386591 166.433318 
L 308.439745 188.220227 
L 308.4929 150.390948 
L 308.546055 176.307287 
L 308.599209 157.061471 
L 308.705519 157.885613 
L 308.758673 164.991504 
L 308.811828 152.930008 
L 308.864983 167.334425 
L 308.918137 145.46668 
L 308.971292 160.153584 
L 309.077601 149.943327 
L 309.130756 158.393905 
L 309.183911 148.495929 
L 309.237065 153.897672 
L 309.343375 147.487997 
L 309.396529 154.556731 
L 309.449684 136.429037 
L 309.502839 165.542691 
L 309.555993 119.945262 
L 309.609148 156.248603 
L 309.662303 143.068906 
L 309.715457 145.02001 
L 309.768612 147.640802 
L 309.821767 144.297176 
L 309.874921 147.264185 
L 310.034385 144.69775 
L 310.08754 150.079006 
L 310.140695 139.378796 
L 310.193849 159.960428 
L 310.247004 125.107125 
L 310.300159 179.096354 
L 310.353313 130.785182 
L 310.406468 149.156148 
L 310.459623 140.248773 
L 310.512777 142.562385 
L 310.565932 141.281386 
L 310.831705 134.638343 
L 310.88486 141.639308 
L 310.991169 125.101046 
L 311.097479 144.778296 
L 311.150633 115.430565 
L 311.203788 139.223056 
L 311.256943 120.500822 
L 311.363252 120.96416 
L 311.416407 131.832205 
L 311.469561 107.81466 
L 311.522716 151.753487 
L 311.629025 153.091672 
L 311.68218 76.458994 
L 311.735335 148.19848 
L 311.788489 89.164986 
L 311.841644 128.357963 
L 311.894799 120.539545 
L 311.947953 119.398095 
L 312.107417 129.392025 
L 312.160572 124.232536 
L 312.213727 136.305684 
L 312.266881 118.697308 
L 312.320036 153.609461 
L 312.373191 100.920579 
L 312.426346 183.685229 
L 312.4795 114.808691 
L 312.532655 137.273335 
L 312.58581 136.176936 
L 312.745274 125.848731 
L 312.798428 132.066218 
L 312.957892 118.728193 
L 313.011047 127.638849 
L 313.064202 123.524862 
L 313.170511 123.384063 
L 313.329975 120.741112 
L 313.38313 120.468183 
L 313.808367 115.199328 
L 315.881399 89.087666 
L 316.200327 83.59507 
L 316.253482 85.333978 
L 316.306636 80.62309 
L 316.359791 83.169177 
L 316.519255 79.804289 
L 316.57241 80.546729 
L 316.731874 75.613061 
L 316.838183 80.516775 
L 316.891338 58.0134 
L 316.944492 93.880842 
L 316.997647 67.635808 
L 317.050802 78.502544 
L 317.103956 74.243937 
L 317.157111 74.100766 
L 317.210266 74.780203 
L 317.36973 71.846702 
L 317.422884 73.144078 
L 317.635503 67.696575 
L 317.688658 77.600068 
L 317.741812 63.008987 
L 317.794967 70.761878 
L 317.901276 65.081902 
L 317.954431 66.461153 
L 318.007586 59.078127 
L 318.06074 63.981971 
L 318.113895 70.01974 
L 318.16705 52.470846 
L 318.220204 59.746467 
L 318.273359 74.469964 
L 318.326514 68.534555 
L 318.379668 65.407427 
L 318.432823 68.509021 
L 318.485978 86.869361 
L 318.539132 71.605034 
L 318.592287 63.415504 
L 318.645442 78.52682 
L 318.751751 77.662959 
L 318.911215 86.745774 
L 318.96437 84.149286 
L 319.070679 90.182755 
L 319.123834 86.997089 
L 319.176989 109.361868 
L 319.230143 83.411592 
L 319.283298 101.95427 
L 319.336453 92.369093 
L 319.389607 98.749135 
L 319.442762 97.048491 
L 319.495917 98.834649 
L 319.921154 105.354948 
L 320.080618 109.446495 
L 320.133773 105.068982 
L 320.186927 115.850979 
L 320.240082 99.686945 
L 320.399546 132.799311 
L 320.452701 100.252253 
L 320.505855 111.366169 
L 320.718474 99.173997 
L 320.771629 104.776806 
L 320.877938 95.641972 
L 320.931093 110.727682 
L 320.984247 59.798796 
L 321.037402 120.126103 
L 321.090557 83.144495 
L 321.143711 104.751536 
L 321.196866 94.771569 
L 321.250021 99.677899 
L 321.35633 99.323658 
L 321.568949 101.437653 
L 321.941031 104.939874 
L 324.226682 125.216681 
L 324.279837 124.282121 
L 324.439301 127.396449 
L 324.492455 128.04302 
L 324.54561 122.106821 
L 324.598765 142.673083 
L 324.651919 117.451899 
L 324.705074 133.940681 
L 324.864538 117.234237 
L 324.917693 139.391706 
L 324.970847 106.657899 
L 325.024002 130.986062 
L 325.130311 124.651472 
L 325.289775 136.372025 
L 325.34293 128.648512 
L 325.396085 133.123804 
L 325.449239 132.503703 
L 326.299714 146.069244 
L 326.352869 142.820375 
L 326.406024 152.56995 
L 326.459178 136.392785 
L 326.512333 166.509696 
L 326.565488 122.052744 
L 326.618642 184.902512 
L 326.671797 155.126253 
L 326.724952 108.980311 
L 326.778106 174.933903 
L 326.831261 130.383739 
L 326.884416 157.727215 
L 326.93757 143.61399 
L 327.04388 150.379388 
L 327.097034 144.556889 
L 327.150189 156.261724 
L 327.203344 138.878404 
L 327.256498 163.038831 
L 327.309653 148.548103 
L 327.362808 145.555057 
L 327.415962 151.380597 
L 327.469117 143.787829 
L 327.575426 143.867062 
L 327.628581 145.4278 
L 327.681736 143.83535 
L 327.73489 141.983475 
L 327.788045 145.427 
L 327.8412 135.375362 
L 327.894354 151.972941 
L 327.947509 134.005317 
L 328.000664 140.67803 
L 328.053818 136.682314 
L 328.266437 133.024596 
L 328.425901 128.083043 
L 328.479056 129.110005 
L 328.691674 114.613737 
L 328.744829 128.240575 
L 328.797984 120.224744 
L 328.851138 124.118055 
L 328.904293 122.056197 
L 328.957448 122.030254 
L 329.010602 123.476961 
L 329.063757 118.623387 
L 329.116912 131.644607 
L 329.170066 110.120512 
L 329.223221 132.512585 
L 329.32953 115.836812 
L 329.382685 117.510224 
L 329.595304 106.075511 
L 329.648458 112.396132 
L 329.807922 96.74367 
L 329.861077 88.962635 
L 329.914232 113.556856 
L 329.967386 92.334704 
L 330.020541 107.5134 
L 330.073696 97.796295 
L 330.12685 103.308634 
L 330.180005 100.402679 
L 330.23316 101.64058 
L 330.286314 101.13613 
L 330.392624 101.171441 
L 330.552088 100.908505 
L 330.711552 100.728215 
L 331.508872 99.256674 
L 332.199882 97.395672 
L 332.944048 94.771382 
L 332.997203 94.16446 
L 333.050357 95.039051 
L 333.103512 92.352805 
L 333.156667 96.853393 
L 333.209821 88.426862 
L 333.262976 100.898692 
L 333.316131 83.238173 
L 333.369285 94.208477 
L 333.42244 95.571789 
L 333.475595 92.395058 
L 333.528749 95.619291 
L 333.581904 96.837739 
L 333.635059 91.122163 
L 333.688213 105.686338 
L 333.741368 81.983198 
L 333.794523 117.753222 
L 333.847677 85.381295 
L 333.900832 113.244716 
L 333.953987 79.972193 
L 334.007141 86.099593 
L 334.060296 107.862406 
L 334.113451 86.326951 
L 334.166605 104.827835 
L 334.21976 93.955159 
L 334.272915 101.290225 
L 334.326069 99.552339 
L 334.379224 100.220087 
L 334.432379 102.735314 
L 334.485533 101.881118 
L 334.538688 101.690556 
L 334.591843 111.669677 
L 334.644997 98.53204 
L 334.698152 108.137637 
L 334.751307 102.620509 
L 334.804461 106.083104 
L 334.857616 104.815612 
L 334.910771 105.599701 
L 335.070235 106.656248 
L 335.123389 106.155053 
L 335.229699 107.447335 
L 335.282853 105.420848 
L 335.336008 112.283656 
L 335.389163 97.905673 
L 335.442317 125.934067 
L 335.495472 97.857055 
L 335.548627 111.409095 
L 335.601781 104.383686 
L 335.654936 106.187513 
L 335.708091 105.360451 
L 335.761245 103.05219 
L 335.8144 107.453271 
L 335.867555 95.433951 
L 335.920709 117.725101 
L 335.973864 75.867786 
L 336.027019 115.770091 
L 336.080173 97.655603 
L 336.133328 105.34594 
L 336.239637 104.172179 
L 336.399101 106.908242 
L 336.452256 108.211834 
L 336.505411 105.972155 
L 336.558565 112.78777 
L 336.61172 102.129019 
L 336.664875 118.949328 
L 336.718029 115.101303 
L 336.771184 89.083037 
L 336.824339 122.399272 
L 336.877493 106.629199 
L 337.036957 116.855361 
L 337.090112 112.94178 
L 337.143267 126.17939 
L 337.196421 102.795177 
L 337.249576 147.276907 
L 337.302731 107.231184 
L 337.355885 124.578072 
L 337.40904 118.762183 
L 337.462195 118.726263 
L 337.515349 120.318154 
L 337.674813 117.201751 
L 337.727968 121.029857 
L 337.781123 113.562148 
L 337.834277 126.368653 
L 337.887432 104.590501 
L 337.940587 136.946251 
L 337.993741 93.811261 
L 338.046896 112.709557 
L 338.100051 140.982259 
L 338.153205 121.245817 
L 338.20636 118.485454 
L 338.259515 124.062281 
L 338.312669 117.787253 
L 338.365824 122.003214 
L 338.418979 118.548056 
L 338.525288 118.665388 
L 338.578443 118.813611 
L 338.897371 116.493882 
L 340.757784 103.697228 
L 341.236176 100.052556 
L 341.289331 100.15255 
L 341.342486 97.787493 
L 341.39564 102.14766 
L 341.448795 91.948656 
L 341.50195 109.131725 
L 341.555104 82.009071 
L 341.608259 103.710664 
L 341.661414 96.244697 
L 341.714568 97.477237 
L 341.767723 99.426749 
L 341.820878 97.110941 
L 341.980342 100.474502 
L 342.033496 97.857676 
L 342.086651 100.452961 
L 342.139806 100.285009 
L 342.19296 94.596352 
L 342.246115 104.775263 
L 342.29927 98.427889 
L 342.352424 103.471325 
L 342.458734 103.371767 
L 342.565043 103.892907 
L 342.724507 107.88755 
L 342.777662 103.563017 
L 342.830816 110.828068 
L 342.883971 103.881679 
L 343.09659 114.38064 
L 343.149744 110.051793 
L 343.256054 109.658316 
L 343.309208 123.78524 
L 343.362363 107.552407 
L 343.415518 127.926953 
L 343.468672 125.160045 
L 343.521827 109.6385 
L 343.574982 125.534193 
L 343.628136 113.463503 
L 343.681291 115.502497 
L 343.734446 120.01594 
L 343.7876 115.903308 
L 343.840755 119.441811 
L 343.947064 119.239149 
L 344.000219 117.294387 
L 344.053374 119.680849 
L 344.106528 117.455757 
L 344.319147 120.198374 
L 344.372302 119.563806 
L 344.531766 122.269846 
L 344.58492 118.691955 
L 344.638075 125.34191 
L 344.69123 116.182304 
L 344.744384 128.735783 
L 344.797539 122.257031 
L 344.850694 119.560147 
L 344.903848 123.582166 
L 344.957003 119.212822 
L 345.010158 121.932166 
L 345.063312 119.678785 
L 345.116467 120.420314 
L 345.169622 119.737938 
L 345.329086 118.508552 
L 345.38224 118.74683 
L 345.435395 118.739825 
L 345.48855 115.94099 
L 345.541704 122.741997 
L 345.594859 106.992184 
L 345.648014 123.69389 
L 345.701168 114.657095 
L 345.754323 119.405964 
L 345.807478 117.814915 
L 345.860632 118.337295 
L 345.966942 118.296228 
L 346.020096 119.773085 
L 346.126406 117.420768 
L 346.179561 125.556979 
L 346.232715 117.591554 
L 346.28587 120.722528 
L 346.339025 119.858274 
L 346.392179 119.641235 
L 346.445334 120.115817 
L 346.498489 119.587076 
L 346.551643 119.943795 
L 346.604798 119.661742 
L 346.711107 119.682135 
L 346.870571 119.644357 
L 347.667891 119.442807 
L 348.465211 119.457025 
L 349.262531 119.649446 
L 349.315686 119.889468 
L 349.368841 119.252988 
L 349.421995 120.780176 
L 349.47515 117.881498 
L 349.528305 122.976792 
L 349.581459 115.145323 
L 349.634614 121.68237 
L 349.687769 120.17699 
L 349.740923 120.293683 
L 349.900387 122.129845 
L 349.953542 121.245476 
L 350.113006 123.77584 
L 350.219315 121.645345 
L 350.378779 125.818323 
L 350.431934 125.304258 
L 350.697707 128.296075 
L 350.750862 128.521272 
L 350.804017 130.406582 
L 350.857171 127.613692 
L 350.910326 134.991398 
L 350.963481 123.304295 
L 351.016635 143.472784 
L 351.06979 120.36456 
L 351.122945 149.018645 
L 351.176099 125.900626 
L 351.282409 131.912374 
L 351.441873 122.673678 
L 351.495027 130.170875 
L 351.548182 121.888658 
L 351.601337 123.462508 
L 351.654491 137.366911 
L 351.707646 110.8775 
L 351.760801 117.663411 
L 351.813955 134.545457 
L 351.86711 67.285503 
L 351.920265 143.281068 
L 351.973419 99.063243 
L 352.026574 122.1212 
L 352.079729 112.260176 
L 352.239193 118.194926 
L 352.292347 113.889121 
L 352.345502 116.404068 
L 352.398657 115.070188 
L 352.451811 115.658075 
L 352.558121 115.449349 
L 352.717585 115.485161 
L 352.877049 115.422403 
L 353.355441 115.36562 
L 356.65103 115.059722 
L 360.478167 114.939179 
L 364.783695 115.026135 
L 368.451367 115.313409 
L 371.268564 115.749309 
L 373.501061 116.311857 
L 375.042546 116.834901 
L 375.095701 116.950878 
L 375.148855 116.780471 
L 375.20201 117.159557 
L 375.255165 116.579794 
L 375.308319 117.524836 
L 375.361474 116.302026 
L 375.414629 117.697688 
L 375.467783 116.857874 
L 375.520938 115.781723 
L 375.574093 121.674664 
L 375.627247 104.079844 
L 375.680402 141.639447 
L 375.733557 98.255194 
L 375.786711 124.787997 
L 375.839866 149.347794 
L 375.893021 75.782497 
L 375.946175 163.23699 
L 375.99933 89.42999 
L 376.105639 129.372319 
L 376.158794 102.34334 
L 376.211949 136.326937 
L 376.265103 112.79532 
L 376.371413 121.696336 
L 376.424567 112.982369 
L 376.477722 121.123838 
L 376.530877 118.626073 
L 376.584031 100.632432 
L 376.637186 115.854698 
L 376.690341 103.794114 
L 376.743495 165.064848 
L 376.79665 97.844175 
L 376.849805 129.033167 
L 376.902959 105.686035 
L 376.956114 162.448305 
L 377.009269 116.360349 
L 377.062423 137.801947 
L 377.168733 137.013904 
L 377.221887 108.938693 
L 377.275042 116.424713 
L 377.381351 136.769497 
L 377.434506 132.060852 
L 377.487661 139.552069 
L 377.540815 138.95457 
L 377.59397 120.662692 
L 377.753434 155.901761 
L 377.806589 126.081161 
L 377.859743 171.094371 
L 377.912898 144.564605 
L 377.966053 136.469718 
L 378.125517 193.674552 
L 378.178671 129.19545 
L 378.231826 167.540544 
L 378.284981 172.515825 
L 378.338135 124.824752 
L 378.39129 203.677971 
L 378.444445 124.207411 
L 378.497599 172.490552 
L 378.497599 172.490552 
" style="fill:none;stroke:#de8f05;stroke-linecap:round;stroke-width:1.5;"/>
   </g>
   <g id="patch_3">
    <path d="M 58.915781 224.64 
L 58.915781 7.2 
" style="fill:none;stroke:#262626;stroke-linecap:square;stroke-linejoin:miter;stroke-width:1.25;"/>
   </g>
   <g id="patch_4">
    <path d="M 393.715781 224.64 
L 393.715781 7.2 
" style="fill:none;stroke:#262626;stroke-linecap:square;stroke-linejoin:miter;stroke-width:1.25;"/>
   </g>
   <g id="patch_5">
    <path d="M 58.915781 224.64 
L 393.715781 224.64 
" style="fill:none;stroke:#262626;stroke-linecap:square;stroke-linejoin:miter;stroke-width:1.25;"/>
   </g>
   <g id="patch_6">
    <path d="M 58.915781 7.2 
L 393.715781 7.2 
" style="fill:none;stroke:#262626;stroke-linecap:square;stroke-linejoin:miter;stroke-width:1.25;"/>
   </g>
   <g id="legend_1">
    <g id="patch_7">
     <path d="M 66.615781 219.14 
L 182.320312 219.14 
Q 184.520312 219.14 184.520312 216.94 
L 184.520312 186.920312 
Q 184.520312 184.720312 182.320312 184.720312 
L 66.615781 184.720312 
Q 64.415781 184.720312 64.415781 186.920312 
L 64.415781 216.94 
Q 64.415781 219.14 66.615781 219.14 
z
" style="fill:#ffffff;opacity:0.8;stroke:#cccccc;stroke-linejoin:miter;"/>
    </g>
    <g id="line2d_15">
     <path d="M 68.815781 193.143906 
L 90.815781 193.143906 
" style="fill:none;stroke:#0173b2;stroke-linecap:round;stroke-width:1.5;"/>
    </g>
    <g id="line2d_16"/>
    <g id="text_15">
     <!-- Keplerian -->
     <g style="fill:#262626;" transform="translate(99.615781 196.993906)scale(0.11 -0.11)">
      <defs>
       <path d="M 469 0 
L 469 4581 
L 1075 4581 
L 1075 2309 
L 3350 4581 
L 4172 4581 
L 2250 2725 
L 4256 0 
L 3456 0 
L 1825 2319 
L 1075 1588 
L 1075 0 
L 469 0 
z
" id="ArialMT-4b" transform="scale(0.015625)"/>
       <path d="M 2694 1069 
L 3275 997 
Q 3138 488 2766 206 
Q 2394 -75 1816 -75 
Q 1088 -75 661 373 
Q 234 822 234 1631 
Q 234 2469 665 2931 
Q 1097 3394 1784 3394 
Q 2450 3394 2872 2941 
Q 3294 2488 3294 1666 
Q 3294 1616 3291 1516 
L 816 1516 
Q 847 969 1125 678 
Q 1403 388 1819 388 
Q 2128 388 2347 550 
Q 2566 713 2694 1069 
z
M 847 1978 
L 2700 1978 
Q 2663 2397 2488 2606 
Q 2219 2931 1791 2931 
Q 1403 2931 1139 2672 
Q 875 2413 847 1978 
z
" id="ArialMT-65" transform="scale(0.015625)"/>
       <path d="M 422 -1272 
L 422 3319 
L 934 3319 
L 934 2888 
Q 1116 3141 1344 3267 
Q 1572 3394 1897 3394 
Q 2322 3394 2647 3175 
Q 2972 2956 3137 2557 
Q 3303 2159 3303 1684 
Q 3303 1175 3120 767 
Q 2938 359 2589 142 
Q 2241 -75 1856 -75 
Q 1575 -75 1351 44 
Q 1128 163 984 344 
L 984 -1272 
L 422 -1272 
z
M 931 1641 
Q 931 1000 1190 694 
Q 1450 388 1819 388 
Q 2194 388 2461 705 
Q 2728 1022 2728 1688 
Q 2728 2322 2467 2637 
Q 2206 2953 1844 2953 
Q 1484 2953 1207 2617 
Q 931 2281 931 1641 
z
" id="ArialMT-70" transform="scale(0.015625)"/>
       <path d="M 409 0 
L 409 4581 
L 972 4581 
L 972 0 
L 409 0 
z
" id="ArialMT-6c" transform="scale(0.015625)"/>
       <path d="M 416 0 
L 416 3319 
L 922 3319 
L 922 2816 
Q 1116 3169 1280 3281 
Q 1444 3394 1641 3394 
Q 1925 3394 2219 3213 
L 2025 2691 
Q 1819 2813 1613 2813 
Q 1428 2813 1281 2702 
Q 1134 2591 1072 2394 
Q 978 2094 978 1738 
L 978 0 
L 416 0 
z
" id="ArialMT-72" transform="scale(0.015625)"/>
       <path d="M 425 3934 
L 425 4581 
L 988 4581 
L 988 3934 
L 425 3934 
z
M 425 0 
L 425 3319 
L 988 3319 
L 988 0 
L 425 0 
z
" id="ArialMT-69" transform="scale(0.015625)"/>
       <path d="M 2588 409 
Q 2275 144 1986 34 
Q 1697 -75 1366 -75 
Q 819 -75 525 192 
Q 231 459 231 875 
Q 231 1119 342 1320 
Q 453 1522 633 1644 
Q 813 1766 1038 1828 
Q 1203 1872 1538 1913 
Q 2219 1994 2541 2106 
Q 2544 2222 2544 2253 
Q 2544 2597 2384 2738 
Q 2169 2928 1744 2928 
Q 1347 2928 1158 2789 
Q 969 2650 878 2297 
L 328 2372 
Q 403 2725 575 2942 
Q 747 3159 1072 3276 
Q 1397 3394 1825 3394 
Q 2250 3394 2515 3294 
Q 2781 3194 2906 3042 
Q 3031 2891 3081 2659 
Q 3109 2516 3109 2141 
L 3109 1391 
Q 3109 606 3145 398 
Q 3181 191 3288 0 
L 2700 0 
Q 2613 175 2588 409 
z
M 2541 1666 
Q 2234 1541 1622 1453 
Q 1275 1403 1131 1340 
Q 988 1278 909 1158 
Q 831 1038 831 891 
Q 831 666 1001 516 
Q 1172 366 1500 366 
Q 1825 366 2078 508 
Q 2331 650 2450 897 
Q 2541 1088 2541 1459 
L 2541 1666 
z
" id="ArialMT-61" transform="scale(0.015625)"/>
       <path d="M 422 0 
L 422 3319 
L 928 3319 
L 928 2847 
Q 1294 3394 1984 3394 
Q 2284 3394 2536 3286 
Q 2788 3178 2913 3003 
Q 3038 2828 3088 2588 
Q 3119 2431 3119 2041 
L 3119 0 
L 2556 0 
L 2556 2019 
Q 2556 2363 2490 2533 
Q 2425 2703 2258 2804 
Q 2091 2906 1866 2906 
Q 1506 2906 1245 2678 
Q 984 2450 984 1813 
L 984 0 
L 422 0 
z
" id="ArialMT-6e" transform="scale(0.015625)"/>
      </defs>
      <use xlink:href="#ArialMT-4b"/>
      <use x="66.699219" xlink:href="#ArialMT-65"/>
      <use x="122.314453" xlink:href="#ArialMT-70"/>
      <use x="177.929688" xlink:href="#ArialMT-6c"/>
      <use x="200.146484" xlink:href="#ArialMT-65"/>
      <use x="255.761719" xlink:href="#ArialMT-72"/>
      <use x="289.0625" xlink:href="#ArialMT-69"/>
      <use x="311.279297" xlink:href="#ArialMT-61"/>
      <use x="366.894531" xlink:href="#ArialMT-6e"/>
     </g>
    </g>
    <g id="line2d_17">
     <path d="M 68.815781 208.70375 
L 90.815781 208.70375 
" style="fill:none;stroke:#de8f05;stroke-linecap:round;stroke-width:1.5;"/>
    </g>
    <g id="line2d_18"/>
    <g id="text_16">
     <!-- Stellar GP Mean -->
     <g style="fill:#262626;" transform="translate(99.615781 212.55375)scale(0.11 -0.11)">
      <defs>
       <path d="M 288 1472 
L 859 1522 
Q 900 1178 1048 958 
Q 1197 738 1509 602 
Q 1822 466 2213 466 
Q 2559 466 2825 569 
Q 3091 672 3220 851 
Q 3350 1031 3350 1244 
Q 3350 1459 3225 1620 
Q 3100 1781 2813 1891 
Q 2628 1963 1997 2114 
Q 1366 2266 1113 2400 
Q 784 2572 623 2826 
Q 463 3081 463 3397 
Q 463 3744 659 4045 
Q 856 4347 1234 4503 
Q 1613 4659 2075 4659 
Q 2584 4659 2973 4495 
Q 3363 4331 3572 4012 
Q 3781 3694 3797 3291 
L 3216 3247 
Q 3169 3681 2898 3903 
Q 2628 4125 2100 4125 
Q 1550 4125 1298 3923 
Q 1047 3722 1047 3438 
Q 1047 3191 1225 3031 
Q 1400 2872 2139 2705 
Q 2878 2538 3153 2413 
Q 3553 2228 3743 1945 
Q 3934 1663 3934 1294 
Q 3934 928 3725 604 
Q 3516 281 3123 101 
Q 2731 -78 2241 -78 
Q 1619 -78 1198 103 
Q 778 284 539 648 
Q 300 1013 288 1472 
z
" id="ArialMT-53" transform="scale(0.015625)"/>
       <path d="M 1650 503 
L 1731 6 
Q 1494 -44 1306 -44 
Q 1000 -44 831 53 
Q 663 150 594 308 
Q 525 466 525 972 
L 525 2881 
L 113 2881 
L 113 3319 
L 525 3319 
L 525 4141 
L 1084 4478 
L 1084 3319 
L 1650 3319 
L 1650 2881 
L 1084 2881 
L 1084 941 
Q 1084 700 1114 631 
Q 1144 563 1211 522 
Q 1278 481 1403 481 
Q 1497 481 1650 503 
z
" id="ArialMT-74" transform="scale(0.015625)"/>
       <path d="M 2638 1797 
L 2638 2334 
L 4578 2338 
L 4578 638 
Q 4131 281 3656 101 
Q 3181 -78 2681 -78 
Q 2006 -78 1454 211 
Q 903 500 622 1047 
Q 341 1594 341 2269 
Q 341 2938 620 3517 
Q 900 4097 1425 4378 
Q 1950 4659 2634 4659 
Q 3131 4659 3532 4498 
Q 3934 4338 4162 4050 
Q 4391 3763 4509 3300 
L 3963 3150 
Q 3859 3500 3706 3700 
Q 3553 3900 3268 4020 
Q 2984 4141 2638 4141 
Q 2222 4141 1919 4014 
Q 1616 3888 1430 3681 
Q 1244 3475 1141 3228 
Q 966 2803 966 2306 
Q 966 1694 1177 1281 
Q 1388 869 1791 669 
Q 2194 469 2647 469 
Q 3041 469 3416 620 
Q 3791 772 3984 944 
L 3984 1797 
L 2638 1797 
z
" id="ArialMT-47" transform="scale(0.015625)"/>
       <path d="M 494 0 
L 494 4581 
L 2222 4581 
Q 2678 4581 2919 4538 
Q 3256 4481 3484 4323 
Q 3713 4166 3852 3881 
Q 3991 3597 3991 3256 
Q 3991 2672 3619 2267 
Q 3247 1863 2275 1863 
L 1100 1863 
L 1100 0 
L 494 0 
z
M 1100 2403 
L 2284 2403 
Q 2872 2403 3119 2622 
Q 3366 2841 3366 3238 
Q 3366 3525 3220 3729 
Q 3075 3934 2838 4000 
Q 2684 4041 2272 4041 
L 1100 4041 
L 1100 2403 
z
" id="ArialMT-50" transform="scale(0.015625)"/>
       <path d="M 475 0 
L 475 4581 
L 1388 4581 
L 2472 1338 
Q 2622 884 2691 659 
Q 2769 909 2934 1394 
L 4031 4581 
L 4847 4581 
L 4847 0 
L 4263 0 
L 4263 3834 
L 2931 0 
L 2384 0 
L 1059 3900 
L 1059 0 
L 475 0 
z
" id="ArialMT-4d" transform="scale(0.015625)"/>
      </defs>
      <use xlink:href="#ArialMT-53"/>
      <use x="66.699219" xlink:href="#ArialMT-74"/>
      <use x="94.482422" xlink:href="#ArialMT-65"/>
      <use x="150.097656" xlink:href="#ArialMT-6c"/>
      <use x="172.314453" xlink:href="#ArialMT-6c"/>
      <use x="194.53125" xlink:href="#ArialMT-61"/>
      <use x="250.146484" xlink:href="#ArialMT-72"/>
      <use x="283.447266" xlink:href="#ArialMT-20"/>
      <use x="311.230469" xlink:href="#ArialMT-47"/>
      <use x="389.013672" xlink:href="#ArialMT-50"/>
      <use x="453.962891" xlink:href="#ArialMT-20"/>
      <use x="481.746094" xlink:href="#ArialMT-4d"/>
      <use x="565.046875" xlink:href="#ArialMT-65"/>
      <use x="620.662109" xlink:href="#ArialMT-61"/>
      <use x="676.277344" xlink:href="#ArialMT-6e"/>
     </g>
    </g>
   </g>
  </g>
 </g>
 <defs>
  <clipPath id="p1db68dc1df">
   <rect height="217.44" width="334.8" x="58.915781" y="7.2"/>
  </clipPath>
 </defs>
</svg>
