<?xml version="1.0" encoding="utf-8" standalone="no"?>
<!DOCTYPE svg PUBLIC "-//W3C//DTD SVG 1.1//EN"
  "http://www.w3.org/Graphics/SVG/1.1/DTD/svg11.dtd">
<svg height="262.989219pt" version="1.1" viewBox="0 0 349.2 262.989219" width="349.2pt" xmlns="http://www.w3.org/2000/svg" xmlns:xlink="http://www.w3.org/1999/xlink">
 <metadata>
  <rdf:RDF xmlns:cc="http://creativecommons.org/ns#" xmlns:dc="http://purl.org/dc/elements/1.1/" xmlns:rdf="http://www.w3.org/1999/02/22-rdf-syntax-ns#">
   <cc:Work>
    <dc:type rdf:resource="http://purl.org/dc/dcmitype/StillImage"/>
    <dc:date>2021-10-21T13:07:51.930603</dc:date>
    <dc:format>image/svg+xml</dc:format>
    <dc:creator>
     <cc:Agent>
      <dc:title>Matplotlib v3.4.3, https://matplotlib.org/</dc:title>
     </cc:Agent>
    </dc:creator>
   </cc:Work>
  </rdf:RDF>
 </metadata>
 <defs>
  <style type="text/css">*{stroke-linecap:butt;stroke-linejoin:round;}</style>
 </defs>
 <g id="figure_1">
  <g id="patch_1">
   <path d="M 0 262.989219 
L 349.2 262.989219 
L 349.2 0 
L 0 0 
z
" style="fill:#ffffff;"/>
  </g>
  <g id="axes_1">
   <g id="patch_2">
    <path d="M 7.2 239.229375 
L 342 239.229375 
L 342 21.789375 
L 7.2 21.789375 
z
" style="fill:#ffffff;"/>
   </g>
   <g id="matplotlib.axis_1">
    <g id="xtick_1">
     <g id="line2d_1">
      <defs>
       <path d="M 0 0 
L 0 3 
" id="mf989acbf97" style="stroke:#808080;"/>
      </defs>
      <g>
       <use style="fill:#808080;stroke:#808080;" x="57.183903" xlink:href="#mf989acbf97" y="239.229375"/>
      </g>
     </g>
     <g id="text_1">
      <!-- 35 -->
      <g style="fill:#262626;" transform="translate(51.066872 253.602969)scale(0.11 -0.11)">
       <defs>
        <path d="M 269 1209 
L 831 1284 
Q 928 806 1161 595 
Q 1394 384 1728 384 
Q 2125 384 2398 659 
Q 2672 934 2672 1341 
Q 2672 1728 2419 1979 
Q 2166 2231 1775 2231 
Q 1616 2231 1378 2169 
L 1441 2663 
Q 1497 2656 1531 2656 
Q 1891 2656 2178 2843 
Q 2466 3031 2466 3422 
Q 2466 3731 2256 3934 
Q 2047 4138 1716 4138 
Q 1388 4138 1169 3931 
Q 950 3725 888 3313 
L 325 3413 
Q 428 3978 793 4289 
Q 1159 4600 1703 4600 
Q 2078 4600 2393 4439 
Q 2709 4278 2876 4000 
Q 3044 3722 3044 3409 
Q 3044 3113 2884 2869 
Q 2725 2625 2413 2481 
Q 2819 2388 3044 2092 
Q 3269 1797 3269 1353 
Q 3269 753 2831 336 
Q 2394 -81 1725 -81 
Q 1122 -81 723 278 
Q 325 638 269 1209 
z
" id="ArialMT-33" transform="scale(0.015625)"/>
        <path d="M 266 1200 
L 856 1250 
Q 922 819 1161 601 
Q 1400 384 1738 384 
Q 2144 384 2425 690 
Q 2706 997 2706 1503 
Q 2706 1984 2436 2262 
Q 2166 2541 1728 2541 
Q 1456 2541 1237 2417 
Q 1019 2294 894 2097 
L 366 2166 
L 809 4519 
L 3088 4519 
L 3088 3981 
L 1259 3981 
L 1013 2750 
Q 1425 3038 1878 3038 
Q 2478 3038 2890 2622 
Q 3303 2206 3303 1553 
Q 3303 931 2941 478 
Q 2500 -78 1738 -78 
Q 1113 -78 717 272 
Q 322 622 266 1200 
z
" id="ArialMT-35" transform="scale(0.015625)"/>
       </defs>
       <use xlink:href="#ArialMT-33"/>
       <use x="55.615234" xlink:href="#ArialMT-35"/>
      </g>
     </g>
    </g>
    <g id="xtick_2">
     <g id="line2d_2">
      <g>
       <use style="fill:#808080;stroke:#808080;" x="108.649781" xlink:href="#mf989acbf97" y="239.229375"/>
      </g>
     </g>
     <g id="text_2">
      <!-- 36 -->
      <g style="fill:#262626;" transform="translate(102.532749 253.602969)scale(0.11 -0.11)">
       <defs>
        <path d="M 3184 3459 
L 2625 3416 
Q 2550 3747 2413 3897 
Q 2184 4138 1850 4138 
Q 1581 4138 1378 3988 
Q 1113 3794 959 3422 
Q 806 3050 800 2363 
Q 1003 2672 1297 2822 
Q 1591 2972 1913 2972 
Q 2475 2972 2870 2558 
Q 3266 2144 3266 1488 
Q 3266 1056 3080 686 
Q 2894 316 2569 119 
Q 2244 -78 1831 -78 
Q 1128 -78 684 439 
Q 241 956 241 2144 
Q 241 3472 731 4075 
Q 1159 4600 1884 4600 
Q 2425 4600 2770 4297 
Q 3116 3994 3184 3459 
z
M 888 1484 
Q 888 1194 1011 928 
Q 1134 663 1356 523 
Q 1578 384 1822 384 
Q 2178 384 2434 671 
Q 2691 959 2691 1453 
Q 2691 1928 2437 2201 
Q 2184 2475 1800 2475 
Q 1419 2475 1153 2201 
Q 888 1928 888 1484 
z
" id="ArialMT-36" transform="scale(0.015625)"/>
       </defs>
       <use xlink:href="#ArialMT-33"/>
       <use x="55.615234" xlink:href="#ArialMT-36"/>
      </g>
     </g>
    </g>
    <g id="xtick_3">
     <g id="line2d_3">
      <g>
       <use style="fill:#808080;stroke:#808080;" x="160.115658" xlink:href="#mf989acbf97" y="239.229375"/>
      </g>
     </g>
     <g id="text_3">
      <!-- 37 -->
      <g style="fill:#262626;" transform="translate(153.998627 253.602969)scale(0.11 -0.11)">
       <defs>
        <path d="M 303 3981 
L 303 4522 
L 3269 4522 
L 3269 4084 
Q 2831 3619 2401 2847 
Q 1972 2075 1738 1259 
Q 1569 684 1522 0 
L 944 0 
Q 953 541 1156 1306 
Q 1359 2072 1739 2783 
Q 2119 3494 2547 3981 
L 303 3981 
z
" id="ArialMT-37" transform="scale(0.015625)"/>
       </defs>
       <use xlink:href="#ArialMT-33"/>
       <use x="55.615234" xlink:href="#ArialMT-37"/>
      </g>
     </g>
    </g>
    <g id="xtick_4">
     <g id="line2d_4">
      <g>
       <use style="fill:#808080;stroke:#808080;" x="211.581535" xlink:href="#mf989acbf97" y="239.229375"/>
      </g>
     </g>
     <g id="text_4">
      <!-- 38 -->
      <g style="fill:#262626;" transform="translate(205.464504 253.602969)scale(0.11 -0.11)">
       <defs>
        <path d="M 1131 2484 
Q 781 2613 612 2850 
Q 444 3088 444 3419 
Q 444 3919 803 4259 
Q 1163 4600 1759 4600 
Q 2359 4600 2725 4251 
Q 3091 3903 3091 3403 
Q 3091 3084 2923 2848 
Q 2756 2613 2416 2484 
Q 2838 2347 3058 2040 
Q 3278 1734 3278 1309 
Q 3278 722 2862 322 
Q 2447 -78 1769 -78 
Q 1091 -78 675 323 
Q 259 725 259 1325 
Q 259 1772 486 2073 
Q 713 2375 1131 2484 
z
M 1019 3438 
Q 1019 3113 1228 2906 
Q 1438 2700 1772 2700 
Q 2097 2700 2305 2904 
Q 2513 3109 2513 3406 
Q 2513 3716 2298 3927 
Q 2084 4138 1766 4138 
Q 1444 4138 1231 3931 
Q 1019 3725 1019 3438 
z
M 838 1322 
Q 838 1081 952 856 
Q 1066 631 1291 507 
Q 1516 384 1775 384 
Q 2178 384 2440 643 
Q 2703 903 2703 1303 
Q 2703 1709 2433 1975 
Q 2163 2241 1756 2241 
Q 1359 2241 1098 1978 
Q 838 1716 838 1322 
z
" id="ArialMT-38" transform="scale(0.015625)"/>
       </defs>
       <use xlink:href="#ArialMT-33"/>
       <use x="55.615234" xlink:href="#ArialMT-38"/>
      </g>
     </g>
    </g>
    <g id="xtick_5">
     <g id="line2d_5">
      <g>
       <use style="fill:#808080;stroke:#808080;" x="263.047413" xlink:href="#mf989acbf97" y="239.229375"/>
      </g>
     </g>
     <g id="text_5">
      <!-- 39 -->
      <g style="fill:#262626;" transform="translate(256.930381 253.602969)scale(0.11 -0.11)">
       <defs>
        <path d="M 350 1059 
L 891 1109 
Q 959 728 1153 556 
Q 1347 384 1650 384 
Q 1909 384 2104 503 
Q 2300 622 2425 820 
Q 2550 1019 2634 1356 
Q 2719 1694 2719 2044 
Q 2719 2081 2716 2156 
Q 2547 1888 2255 1720 
Q 1963 1553 1622 1553 
Q 1053 1553 659 1965 
Q 266 2378 266 3053 
Q 266 3750 677 4175 
Q 1088 4600 1706 4600 
Q 2153 4600 2523 4359 
Q 2894 4119 3086 3673 
Q 3278 3228 3278 2384 
Q 3278 1506 3087 986 
Q 2897 466 2520 194 
Q 2144 -78 1638 -78 
Q 1100 -78 759 220 
Q 419 519 350 1059 
z
M 2653 3081 
Q 2653 3566 2395 3850 
Q 2138 4134 1775 4134 
Q 1400 4134 1122 3828 
Q 844 3522 844 3034 
Q 844 2597 1108 2323 
Q 1372 2050 1759 2050 
Q 2150 2050 2401 2323 
Q 2653 2597 2653 3081 
z
" id="ArialMT-39" transform="scale(0.015625)"/>
       </defs>
       <use xlink:href="#ArialMT-33"/>
       <use x="55.615234" xlink:href="#ArialMT-39"/>
      </g>
     </g>
    </g>
    <g id="xtick_6">
     <g id="line2d_6">
      <g>
       <use style="fill:#808080;stroke:#808080;" x="314.51329" xlink:href="#mf989acbf97" y="239.229375"/>
      </g>
     </g>
     <g id="text_6">
      <!-- 40 -->
      <g style="fill:#262626;" transform="translate(308.396259 253.602969)scale(0.11 -0.11)">
       <defs>
        <path d="M 2069 0 
L 2069 1097 
L 81 1097 
L 81 1613 
L 2172 4581 
L 2631 4581 
L 2631 1613 
L 3250 1613 
L 3250 1097 
L 2631 1097 
L 2631 0 
L 2069 0 
z
M 2069 1613 
L 2069 3678 
L 634 1613 
L 2069 1613 
z
" id="ArialMT-34" transform="scale(0.015625)"/>
        <path d="M 266 2259 
Q 266 3072 433 3567 
Q 600 4063 929 4331 
Q 1259 4600 1759 4600 
Q 2128 4600 2406 4451 
Q 2684 4303 2865 4023 
Q 3047 3744 3150 3342 
Q 3253 2941 3253 2259 
Q 3253 1453 3087 958 
Q 2922 463 2592 192 
Q 2263 -78 1759 -78 
Q 1097 -78 719 397 
Q 266 969 266 2259 
z
M 844 2259 
Q 844 1131 1108 757 
Q 1372 384 1759 384 
Q 2147 384 2411 759 
Q 2675 1134 2675 2259 
Q 2675 3391 2411 3762 
Q 2147 4134 1753 4134 
Q 1366 4134 1134 3806 
Q 844 3388 844 2259 
z
" id="ArialMT-30" transform="scale(0.015625)"/>
       </defs>
       <use xlink:href="#ArialMT-34"/>
       <use x="55.615234" xlink:href="#ArialMT-30"/>
      </g>
     </g>
    </g>
   </g>
   <g id="matplotlib.axis_2"/>
   <g id="PolyCollection_1">
    <defs>
     <path d="M 22.418182 -33.64348 
L 22.418182 -35.354114 
L 23.013805 -35.356285 
L 23.609429 -35.354359 
L 24.205052 -35.357195 
L 24.800676 -35.356895 
L 25.3963 -35.359112 
L 25.991923 -35.364258 
L 26.587547 -35.375778 
L 27.18317 -35.382144 
L 27.778794 -35.395735 
L 28.374417 -35.411367 
L 28.970041 -35.429715 
L 29.565664 -35.461971 
L 30.161288 -35.494443 
L 30.756912 -35.535577 
L 31.352535 -35.581987 
L 31.948159 -35.640713 
L 32.543782 -35.711204 
L 33.139406 -35.785434 
L 33.735029 -35.871488 
L 34.330653 -35.970217 
L 34.926276 -36.077811 
L 35.5219 -36.196161 
L 36.117524 -36.325218 
L 36.713147 -36.467131 
L 37.308771 -36.619909 
L 37.904394 -36.77965 
L 38.500018 -36.949364 
L 39.095641 -37.131976 
L 39.691265 -37.319191 
L 40.286888 -37.516112 
L 40.882512 -37.71962 
L 41.478136 -37.931209 
L 42.073759 -38.143648 
L 42.669383 -38.368868 
L 43.265006 -38.594439 
L 43.86063 -38.82558 
L 44.456253 -39.058117 
L 45.051877 -39.289114 
L 45.6475 -39.530237 
L 46.243124 -39.766535 
L 46.838748 -40.012297 
L 47.434371 -40.258079 
L 48.029995 -40.510496 
L 48.625618 -40.768824 
L 49.221242 -41.027474 
L 49.816865 -41.279773 
L 50.412489 -41.546849 
L 51.008112 -41.813322 
L 51.603736 -42.086641 
L 52.19936 -42.370263 
L 52.794983 -42.658031 
L 53.390607 -42.964096 
L 53.98623 -43.273621 
L 54.581854 -43.611438 
L 55.177477 -43.957684 
L 55.773101 -44.314217 
L 56.368724 -44.696956 
L 56.964348 -45.100162 
L 57.559972 -45.525155 
L 58.155595 -45.975374 
L 58.751219 -46.452331 
L 59.346842 -46.950386 
L 59.942466 -47.473445 
L 60.538089 -48.019637 
L 61.133713 -48.593093 
L 61.729336 -49.190708 
L 62.32496 -49.81136 
L 62.920584 -50.460606 
L 63.516207 -51.12647 
L 64.111831 -51.815411 
L 64.707454 -52.520259 
L 65.303078 -53.239076 
L 65.898701 -53.983293 
L 66.494325 -54.732691 
L 67.089948 -55.485876 
L 67.685572 -56.251677 
L 68.281196 -57.029317 
L 68.876819 -57.803279 
L 69.472443 -58.611922 
L 70.068066 -59.41767 
L 70.66369 -60.216255 
L 71.259313 -61.02445 
L 71.854937 -61.859216 
L 72.45056 -62.711612 
L 73.046184 -63.56933 
L 73.641808 -64.449963 
L 74.237431 -65.361075 
L 74.833055 -66.294012 
L 75.428678 -67.238099 
L 76.024302 -68.231528 
L 76.619925 -69.253045 
L 77.215549 -70.331199 
L 77.811172 -71.423964 
L 78.406796 -72.562931 
L 79.002419 -73.736635 
L 79.598043 -74.970117 
L 80.193667 -76.238231 
L 80.78929 -77.562166 
L 81.384914 -78.936389 
L 81.980537 -80.350627 
L 82.576161 -81.809167 
L 83.171784 -83.348842 
L 83.767408 -84.915214 
L 84.363031 -86.538677 
L 84.958655 -88.207997 
L 85.554279 -89.923196 
L 86.149902 -91.701134 
L 86.745526 -93.513272 
L 87.341149 -95.366696 
L 87.936773 -97.244902 
L 88.532396 -99.155665 
L 89.12802 -101.099298 
L 89.723643 -103.070677 
L 90.319267 -105.059087 
L 90.914891 -107.062966 
L 91.510514 -109.051931 
L 92.106138 -111.057249 
L 92.701761 -113.054334 
L 93.297385 -115.033173 
L 93.893008 -116.992326 
L 94.488632 -118.955545 
L 95.084255 -120.85919 
L 95.679879 -122.738327 
L 96.275503 -124.562046 
L 96.871126 -126.349706 
L 97.46675 -128.114095 
L 98.062373 -129.843363 
L 98.657997 -131.540471 
L 99.25362 -133.188027 
L 99.849244 -134.807822 
L 100.444867 -136.405782 
L 101.040491 -137.975385 
L 101.636115 -139.562252 
L 102.231738 -141.122809 
L 102.827362 -142.685956 
L 103.422985 -144.252293 
L 104.018609 -145.839497 
L 104.614232 -147.453558 
L 105.209856 -149.089327 
L 105.805479 -150.761578 
L 106.401103 -152.48405 
L 106.996727 -154.216211 
L 107.59235 -155.996741 
L 108.187974 -157.797443 
L 108.783597 -159.639449 
L 109.379221 -161.517926 
L 109.974844 -163.420039 
L 110.570468 -165.33246 
L 111.166091 -167.292386 
L 111.761715 -169.228547 
L 112.357339 -171.174476 
L 112.952962 -173.123241 
L 113.548586 -175.057889 
L 114.144209 -176.950414 
L 114.739833 -178.837012 
L 115.335456 -180.69894 
L 115.93108 -182.518492 
L 116.526703 -184.295193 
L 117.122327 -186.036327 
L 117.717951 -187.75143 
L 118.313574 -189.393312 
L 118.909198 -190.995523 
L 119.504821 -192.580952 
L 120.100445 -194.158359 
L 120.696068 -195.677632 
L 121.291692 -197.162196 
L 121.887315 -198.621821 
L 122.482939 -200.08958 
L 123.078563 -201.549141 
L 123.674186 -202.997918 
L 124.26981 -204.424578 
L 124.865433 -205.855145 
L 125.461057 -207.28544 
L 126.05668 -208.703136 
L 126.652304 -210.141692 
L 127.247927 -211.57445 
L 127.843551 -212.967307 
L 128.439175 -214.366076 
L 129.034798 -215.752055 
L 129.630422 -217.121418 
L 130.226045 -218.484621 
L 130.821669 -219.773018 
L 131.417292 -221.049141 
L 132.012916 -222.278511 
L 132.608539 -223.465534 
L 133.204163 -224.575703 
L 133.799787 -225.622637 
L 134.39541 -226.583079 
L 134.991034 -227.459394 
L 135.586657 -228.246256 
L 136.182281 -228.939406 
L 136.777904 -229.52944 
L 137.373528 -230.062617 
L 137.969151 -230.476763 
L 138.564775 -230.82005 
L 139.160399 -231.040977 
L 139.756022 -231.219715 
L 140.351646 -231.303955 
L 140.947269 -231.316207 
L 141.542893 -231.240967 
L 142.138516 -231.064644 
L 142.73414 -230.804107 
L 143.329763 -230.482703 
L 143.925387 -230.10001 
L 144.52101 -229.691967 
L 145.116634 -229.211443 
L 145.712258 -228.671389 
L 146.307881 -228.048032 
L 146.903505 -227.402041 
L 147.499128 -226.685244 
L 148.094752 -225.953653 
L 148.690375 -225.168956 
L 149.285999 -224.31871 
L 149.881622 -223.433344 
L 150.477246 -222.5008 
L 151.07287 -221.527948 
L 151.668493 -220.53246 
L 152.264117 -219.471242 
L 152.85974 -218.391251 
L 153.455364 -217.263735 
L 154.050987 -216.079005 
L 154.646611 -214.860444 
L 155.242234 -213.615537 
L 155.837858 -212.3114 
L 156.433482 -210.988694 
L 157.029105 -209.636715 
L 157.624729 -208.237849 
L 158.220352 -206.817038 
L 158.815976 -205.365695 
L 159.411599 -203.867067 
L 160.007223 -202.365938 
L 160.602846 -200.823091 
L 161.19847 -199.263078 
L 161.794094 -197.660165 
L 162.389717 -196.032923 
L 162.985341 -194.407465 
L 163.580964 -192.750241 
L 164.176588 -191.074446 
L 164.772211 -189.382715 
L 165.367835 -187.682977 
L 165.963458 -185.992677 
L 166.559082 -184.271464 
L 167.154706 -182.565541 
L 167.750329 -180.852047 
L 168.345953 -179.163169 
L 168.941576 -177.47353 
L 169.5372 -175.800314 
L 170.132823 -174.124454 
L 170.728447 -172.462686 
L 171.32407 -170.817544 
L 171.919694 -169.197025 
L 172.515318 -167.595608 
L 173.110941 -166.01395 
L 173.706565 -164.455387 
L 174.302188 -162.910658 
L 174.897812 -161.366315 
L 175.493435 -159.889613 
L 176.089059 -158.409606 
L 176.684682 -156.970147 
L 177.280306 -155.551605 
L 177.87593 -154.16643 
L 178.471553 -152.803229 
L 179.067177 -151.472285 
L 179.6628 -150.165505 
L 180.258424 -148.876477 
L 180.854047 -147.610465 
L 181.449671 -146.349266 
L 182.045294 -145.081668 
L 182.640918 -143.852436 
L 183.236542 -142.617443 
L 183.832165 -141.415438 
L 184.427789 -140.192549 
L 185.023412 -138.972167 
L 185.619036 -137.761845 
L 186.214659 -136.5572 
L 186.810283 -135.362995 
L 187.405906 -134.156879 
L 188.00153 -132.945248 
L 188.597154 -131.726468 
L 189.192777 -130.468304 
L 189.788401 -129.230674 
L 190.384024 -127.991847 
L 190.979648 -126.733355 
L 191.575271 -125.468663 
L 192.170895 -124.210213 
L 192.766518 -122.918846 
L 193.362142 -121.624701 
L 193.957766 -120.339114 
L 194.553389 -119.036541 
L 195.149013 -117.733261 
L 195.744636 -116.41521 
L 196.34026 -115.097325 
L 196.935883 -113.782332 
L 197.531507 -112.456981 
L 198.12713 -111.119839 
L 198.722754 -109.780161 
L 199.318378 -108.444513 
L 199.914001 -107.075184 
L 200.509625 -105.703424 
L 201.105248 -104.320928 
L 201.700872 -102.898862 
L 202.296495 -101.472705 
L 202.892119 -100.032163 
L 203.487742 -98.577623 
L 204.083366 -97.120906 
L 204.67899 -95.632706 
L 205.274613 -94.153467 
L 205.870237 -92.660188 
L 206.46586 -91.178959 
L 207.061484 -89.694792 
L 207.657107 -88.217322 
L 208.252731 -86.750766 
L 208.848354 -85.289307 
L 209.443978 -83.841929 
L 210.039601 -82.43437 
L 210.635225 -81.054448 
L 211.230849 -79.717991 
L 211.826472 -78.412531 
L 212.422096 -77.141077 
L 213.017719 -75.916277 
L 213.613343 -74.745339 
L 214.208966 -73.616622 
L 214.80459 -72.545071 
L 215.400213 -71.529732 
L 215.995837 -70.541609 
L 216.591461 -69.605357 
L 217.187084 -68.723109 
L 217.782708 -67.877111 
L 218.378331 -67.059784 
L 218.973955 -66.29207 
L 219.569578 -65.556762 
L 220.165202 -64.844284 
L 220.760825 -64.165982 
L 221.356449 -63.496351 
L 221.952073 -62.857497 
L 222.547696 -62.238295 
L 223.14332 -61.629358 
L 223.738943 -61.036786 
L 224.334567 -60.456049 
L 224.93019 -59.890228 
L 225.525814 -59.336093 
L 226.121437 -58.791321 
L 226.717061 -58.236217 
L 227.312685 -57.696138 
L 227.908308 -57.157619 
L 228.503932 -56.616294 
L 229.099555 -56.086556 
L 229.695179 -55.572323 
L 230.290802 -55.055464 
L 230.886426 -54.539168 
L 231.482049 -54.030455 
L 232.077673 -53.537698 
L 232.673297 -53.039781 
L 233.26892 -52.544949 
L 233.864544 -52.060729 
L 234.460167 -51.572949 
L 235.055791 -51.095688 
L 235.651414 -50.633145 
L 236.247038 -50.167099 
L 236.842661 -49.704611 
L 237.438285 -49.242137 
L 238.033909 -48.791986 
L 238.629532 -48.345787 
L 239.225156 -47.905319 
L 239.820779 -47.463495 
L 240.416403 -47.027687 
L 241.012026 -46.601436 
L 241.60765 -46.181338 
L 242.203273 -45.76454 
L 242.798897 -45.353924 
L 243.394521 -44.960018 
L 243.990144 -44.560476 
L 244.585768 -44.182452 
L 245.181391 -43.810717 
L 245.777015 -43.459255 
L 246.372638 -43.115351 
L 246.968262 -42.77821 
L 247.563885 -42.452603 
L 248.159509 -42.140317 
L 248.755133 -41.843668 
L 249.350756 -41.55449 
L 249.94638 -41.27437 
L 250.542003 -41.00341 
L 251.137627 -40.745145 
L 251.73325 -40.50213 
L 252.328874 -40.267122 
L 252.924497 -40.034382 
L 253.520121 -39.815617 
L 254.115745 -39.605258 
L 254.711368 -39.398878 
L 255.306992 -39.194771 
L 255.902615 -38.998773 
L 256.498239 -38.804459 
L 257.093862 -38.619462 
L 257.689486 -38.431538 
L 258.285109 -38.256507 
L 258.880733 -38.086647 
L 259.476357 -37.915964 
L 260.07198 -37.748866 
L 260.667604 -37.590551 
L 261.263227 -37.430554 
L 261.858851 -37.271644 
L 262.454474 -37.121386 
L 263.050098 -36.971143 
L 263.645721 -36.819675 
L 264.241345 -36.676882 
L 264.836969 -36.528711 
L 265.432592 -36.393778 
L 266.028216 -36.255335 
L 266.623839 -36.123468 
L 267.219463 -35.991945 
L 267.815086 -35.861417 
L 268.41071 -35.736052 
L 269.006333 -35.611879 
L 269.601957 -35.494923 
L 270.197581 -35.379037 
L 270.793204 -35.263161 
L 271.388828 -35.157385 
L 271.984451 -35.055087 
L 272.580075 -34.956626 
L 273.175698 -34.860533 
L 273.771322 -34.771143 
L 274.366945 -34.684607 
L 274.962569 -34.6034 
L 275.558192 -34.529442 
L 276.153816 -34.456973 
L 276.74944 -34.388766 
L 277.345063 -34.332345 
L 277.940687 -34.280795 
L 278.53631 -34.234123 
L 279.131934 -34.192261 
L 279.727557 -34.149645 
L 280.323181 -34.118152 
L 280.918804 -34.090559 
L 281.514428 -34.066586 
L 282.110052 -34.045905 
L 282.705675 -34.026339 
L 283.301299 -34.009715 
L 283.896922 -33.997339 
L 284.492546 -33.984689 
L 285.088169 -33.975425 
L 285.683793 -33.966871 
L 286.279416 -33.956905 
L 286.87504 -33.949272 
L 287.470664 -33.941409 
L 288.066287 -33.931321 
L 288.661911 -33.921092 
L 289.257534 -33.912337 
L 289.853158 -33.902705 
L 290.448781 -33.892218 
L 291.044405 -33.880933 
L 291.640028 -33.868935 
L 292.235652 -33.856337 
L 292.831276 -33.84327 
L 293.426899 -33.826268 
L 294.022523 -33.813545 
L 294.618146 -33.800624 
L 295.21377 -33.787691 
L 295.809393 -33.774915 
L 296.405017 -33.762452 
L 297.00064 -33.750432 
L 297.596264 -33.738969 
L 298.191888 -33.72815 
L 298.787511 -33.718044 
L 299.383135 -33.708693 
L 299.978758 -33.700125 
L 300.574382 -33.692346 
L 301.170005 -33.685346 
L 301.765629 -33.679104 
L 302.361252 -33.673584 
L 302.956876 -33.668746 
L 303.5525 -33.66454 
L 304.148123 -33.660914 
L 304.743747 -33.66015 
L 305.33937 -33.660523 
L 305.934994 -33.659805 
L 306.530617 -33.659813 
L 307.126241 -33.660565 
L 307.721864 -33.662095 
L 308.317488 -33.664447 
L 308.913112 -33.667677 
L 309.508735 -33.671853 
L 310.104359 -33.675247 
L 310.699982 -33.681974 
L 311.295606 -33.689806 
L 311.891229 -33.69885 
L 312.486853 -33.709208 
L 313.082476 -33.72097 
L 313.6781 -33.734212 
L 314.273724 -33.748991 
L 314.869347 -33.765339 
L 315.464971 -33.783257 
L 316.060594 -33.802714 
L 316.656218 -33.823639 
L 317.251841 -33.845921 
L 317.847465 -33.869404 
L 318.443088 -33.893887 
L 319.038712 -33.919126 
L 319.634336 -33.944835 
L 320.229959 -33.970689 
L 320.825583 -33.996333 
L 321.421206 -34.021385 
L 322.01683 -34.04545 
L 322.612453 -34.068124 
L 323.208077 -34.089011 
L 323.8037 -34.10773 
L 324.399324 -34.123928 
L 324.994948 -34.137293 
L 325.590571 -34.147559 
L 326.186195 -34.154522 
L 326.781818 -34.15804 
L 326.781818 -33.64348 
L 326.781818 -33.64348 
L 326.186195 -33.64348 
L 325.590571 -33.64348 
L 324.994948 -33.64348 
L 324.399324 -33.64348 
L 323.8037 -33.64348 
L 323.208077 -33.64348 
L 322.612453 -33.64348 
L 322.01683 -33.64348 
L 321.421206 -33.64348 
L 320.825583 -33.64348 
L 320.229959 -33.64348 
L 319.634336 -33.64348 
L 319.038712 -33.64348 
L 318.443088 -33.64348 
L 317.847465 -33.64348 
L 317.251841 -33.64348 
L 316.656218 -33.64348 
L 316.060594 -33.64348 
L 315.464971 -33.64348 
L 314.869347 -33.64348 
L 314.273724 -33.64348 
L 313.6781 -33.64348 
L 313.082476 -33.64348 
L 312.486853 -33.64348 
L 311.891229 -33.64348 
L 311.295606 -33.64348 
L 310.699982 -33.64348 
L 310.104359 -33.64348 
L 309.508735 -33.64348 
L 308.913112 -33.64348 
L 308.317488 -33.64348 
L 307.721864 -33.64348 
L 307.126241 -33.64348 
L 306.530617 -33.64348 
L 305.934994 -33.64348 
L 305.33937 -33.64348 
L 304.743747 -33.64348 
L 304.148123 -33.64348 
L 303.5525 -33.64348 
L 302.956876 -33.64348 
L 302.361252 -33.64348 
L 301.765629 -33.64348 
L 301.170005 -33.64348 
L 300.574382 -33.64348 
L 299.978758 -33.64348 
L 299.383135 -33.64348 
L 298.787511 -33.64348 
L 298.191888 -33.64348 
L 297.596264 -33.64348 
L 297.00064 -33.64348 
L 296.405017 -33.64348 
L 295.809393 -33.64348 
L 295.21377 -33.64348 
L 294.618146 -33.64348 
L 294.022523 -33.64348 
L 293.426899 -33.64348 
L 292.831276 -33.64348 
L 292.235652 -33.64348 
L 291.640028 -33.64348 
L 291.044405 -33.64348 
L 290.448781 -33.64348 
L 289.853158 -33.64348 
L 289.257534 -33.64348 
L 288.661911 -33.64348 
L 288.066287 -33.64348 
L 287.470664 -33.64348 
L 286.87504 -33.64348 
L 286.279416 -33.64348 
L 285.683793 -33.64348 
L 285.088169 -33.64348 
L 284.492546 -33.64348 
L 283.896922 -33.64348 
L 283.301299 -33.64348 
L 282.705675 -33.64348 
L 282.110052 -33.64348 
L 281.514428 -33.64348 
L 280.918804 -33.64348 
L 280.323181 -33.64348 
L 279.727557 -33.64348 
L 279.131934 -33.64348 
L 278.53631 -33.64348 
L 277.940687 -33.64348 
L 277.345063 -33.64348 
L 276.74944 -33.64348 
L 276.153816 -33.64348 
L 275.558192 -33.64348 
L 274.962569 -33.64348 
L 274.366945 -33.64348 
L 273.771322 -33.64348 
L 273.175698 -33.64348 
L 272.580075 -33.64348 
L 271.984451 -33.64348 
L 271.388828 -33.64348 
L 270.793204 -33.64348 
L 270.197581 -33.64348 
L 269.601957 -33.64348 
L 269.006333 -33.64348 
L 268.41071 -33.64348 
L 267.815086 -33.64348 
L 267.219463 -33.64348 
L 266.623839 -33.64348 
L 266.028216 -33.64348 
L 265.432592 -33.64348 
L 264.836969 -33.64348 
L 264.241345 -33.64348 
L 263.645721 -33.64348 
L 263.050098 -33.64348 
L 262.454474 -33.64348 
L 261.858851 -33.64348 
L 261.263227 -33.64348 
L 260.667604 -33.64348 
L 260.07198 -33.64348 
L 259.476357 -33.64348 
L 258.880733 -33.64348 
L 258.285109 -33.64348 
L 257.689486 -33.64348 
L 257.093862 -33.64348 
L 256.498239 -33.64348 
L 255.902615 -33.64348 
L 255.306992 -33.64348 
L 254.711368 -33.64348 
L 254.115745 -33.64348 
L 253.520121 -33.64348 
L 252.924497 -33.64348 
L 252.328874 -33.64348 
L 251.73325 -33.64348 
L 251.137627 -33.64348 
L 250.542003 -33.64348 
L 249.94638 -33.64348 
L 249.350756 -33.64348 
L 248.755133 -33.64348 
L 248.159509 -33.64348 
L 247.563885 -33.64348 
L 246.968262 -33.64348 
L 246.372638 -33.64348 
L 245.777015 -33.64348 
L 245.181391 -33.64348 
L 244.585768 -33.64348 
L 243.990144 -33.64348 
L 243.394521 -33.64348 
L 242.798897 -33.64348 
L 242.203273 -33.64348 
L 241.60765 -33.64348 
L 241.012026 -33.64348 
L 240.416403 -33.64348 
L 239.820779 -33.64348 
L 239.225156 -33.64348 
L 238.629532 -33.64348 
L 238.033909 -33.64348 
L 237.438285 -33.64348 
L 236.842661 -33.64348 
L 236.247038 -33.64348 
L 235.651414 -33.64348 
L 235.055791 -33.64348 
L 234.460167 -33.64348 
L 233.864544 -33.64348 
L 233.26892 -33.64348 
L 232.673297 -33.64348 
L 232.077673 -33.64348 
L 231.482049 -33.64348 
L 230.886426 -33.64348 
L 230.290802 -33.64348 
L 229.695179 -33.64348 
L 229.099555 -33.64348 
L 228.503932 -33.64348 
L 227.908308 -33.64348 
L 227.312685 -33.64348 
L 226.717061 -33.64348 
L 226.121437 -33.64348 
L 225.525814 -33.64348 
L 224.93019 -33.64348 
L 224.334567 -33.64348 
L 223.738943 -33.64348 
L 223.14332 -33.64348 
L 222.547696 -33.64348 
L 221.952073 -33.64348 
L 221.356449 -33.64348 
L 220.760825 -33.64348 
L 220.165202 -33.64348 
L 219.569578 -33.64348 
L 218.973955 -33.64348 
L 218.378331 -33.64348 
L 217.782708 -33.64348 
L 217.187084 -33.64348 
L 216.591461 -33.64348 
L 215.995837 -33.64348 
L 215.400213 -33.64348 
L 214.80459 -33.64348 
L 214.208966 -33.64348 
L 213.613343 -33.64348 
L 213.017719 -33.64348 
L 212.422096 -33.64348 
L 211.826472 -33.64348 
L 211.230849 -33.64348 
L 210.635225 -33.64348 
L 210.039601 -33.64348 
L 209.443978 -33.64348 
L 208.848354 -33.64348 
L 208.252731 -33.64348 
L 207.657107 -33.64348 
L 207.061484 -33.64348 
L 206.46586 -33.64348 
L 205.870237 -33.64348 
L 205.274613 -33.64348 
L 204.67899 -33.64348 
L 204.083366 -33.64348 
L 203.487742 -33.64348 
L 202.892119 -33.64348 
L 202.296495 -33.64348 
L 201.700872 -33.64348 
L 201.105248 -33.64348 
L 200.509625 -33.64348 
L 199.914001 -33.64348 
L 199.318378 -33.64348 
L 198.722754 -33.64348 
L 198.12713 -33.64348 
L 197.531507 -33.64348 
L 196.935883 -33.64348 
L 196.34026 -33.64348 
L 195.744636 -33.64348 
L 195.149013 -33.64348 
L 194.553389 -33.64348 
L 193.957766 -33.64348 
L 193.362142 -33.64348 
L 192.766518 -33.64348 
L 192.170895 -33.64348 
L 191.575271 -33.64348 
L 190.979648 -33.64348 
L 190.384024 -33.64348 
L 189.788401 -33.64348 
L 189.192777 -33.64348 
L 188.597154 -33.64348 
L 188.00153 -33.64348 
L 187.405906 -33.64348 
L 186.810283 -33.64348 
L 186.214659 -33.64348 
L 185.619036 -33.64348 
L 185.023412 -33.64348 
L 184.427789 -33.64348 
L 183.832165 -33.64348 
L 183.236542 -33.64348 
L 182.640918 -33.64348 
L 182.045294 -33.64348 
L 181.449671 -33.64348 
L 180.854047 -33.64348 
L 180.258424 -33.64348 
L 179.6628 -33.64348 
L 179.067177 -33.64348 
L 178.471553 -33.64348 
L 177.87593 -33.64348 
L 177.280306 -33.64348 
L 176.684682 -33.64348 
L 176.089059 -33.64348 
L 175.493435 -33.64348 
L 174.897812 -33.64348 
L 174.302188 -33.64348 
L 173.706565 -33.64348 
L 173.110941 -33.64348 
L 172.515318 -33.64348 
L 171.919694 -33.64348 
L 171.32407 -33.64348 
L 170.728447 -33.64348 
L 170.132823 -33.64348 
L 169.5372 -33.64348 
L 168.941576 -33.64348 
L 168.345953 -33.64348 
L 167.750329 -33.64348 
L 167.154706 -33.64348 
L 166.559082 -33.64348 
L 165.963458 -33.64348 
L 165.367835 -33.64348 
L 164.772211 -33.64348 
L 164.176588 -33.64348 
L 163.580964 -33.64348 
L 162.985341 -33.64348 
L 162.389717 -33.64348 
L 161.794094 -33.64348 
L 161.19847 -33.64348 
L 160.602846 -33.64348 
L 160.007223 -33.64348 
L 159.411599 -33.64348 
L 158.815976 -33.64348 
L 158.220352 -33.64348 
L 157.624729 -33.64348 
L 157.029105 -33.64348 
L 156.433482 -33.64348 
L 155.837858 -33.64348 
L 155.242234 -33.64348 
L 154.646611 -33.64348 
L 154.050987 -33.64348 
L 153.455364 -33.64348 
L 152.85974 -33.64348 
L 152.264117 -33.64348 
L 151.668493 -33.64348 
L 151.07287 -33.64348 
L 150.477246 -33.64348 
L 149.881622 -33.64348 
L 149.285999 -33.64348 
L 148.690375 -33.64348 
L 148.094752 -33.64348 
L 147.499128 -33.64348 
L 146.903505 -33.64348 
L 146.307881 -33.64348 
L 145.712258 -33.64348 
L 145.116634 -33.64348 
L 144.52101 -33.64348 
L 143.925387 -33.64348 
L 143.329763 -33.64348 
L 142.73414 -33.64348 
L 142.138516 -33.64348 
L 141.542893 -33.64348 
L 140.947269 -33.64348 
L 140.351646 -33.64348 
L 139.756022 -33.64348 
L 139.160399 -33.64348 
L 138.564775 -33.64348 
L 137.969151 -33.64348 
L 137.373528 -33.64348 
L 136.777904 -33.64348 
L 136.182281 -33.64348 
L 135.586657 -33.64348 
L 134.991034 -33.64348 
L 134.39541 -33.64348 
L 133.799787 -33.64348 
L 133.204163 -33.64348 
L 132.608539 -33.64348 
L 132.012916 -33.64348 
L 131.417292 -33.64348 
L 130.821669 -33.64348 
L 130.226045 -33.64348 
L 129.630422 -33.64348 
L 129.034798 -33.64348 
L 128.439175 -33.64348 
L 127.843551 -33.64348 
L 127.247927 -33.64348 
L 126.652304 -33.64348 
L 126.05668 -33.64348 
L 125.461057 -33.64348 
L 124.865433 -33.64348 
L 124.26981 -33.64348 
L 123.674186 -33.64348 
L 123.078563 -33.64348 
L 122.482939 -33.64348 
L 121.887315 -33.64348 
L 121.291692 -33.64348 
L 120.696068 -33.64348 
L 120.100445 -33.64348 
L 119.504821 -33.64348 
L 118.909198 -33.64348 
L 118.313574 -33.64348 
L 117.717951 -33.64348 
L 117.122327 -33.64348 
L 116.526703 -33.64348 
L 115.93108 -33.64348 
L 115.335456 -33.64348 
L 114.739833 -33.64348 
L 114.144209 -33.64348 
L 113.548586 -33.64348 
L 112.952962 -33.64348 
L 112.357339 -33.64348 
L 111.761715 -33.64348 
L 111.166091 -33.64348 
L 110.570468 -33.64348 
L 109.974844 -33.64348 
L 109.379221 -33.64348 
L 108.783597 -33.64348 
L 108.187974 -33.64348 
L 107.59235 -33.64348 
L 106.996727 -33.64348 
L 106.401103 -33.64348 
L 105.805479 -33.64348 
L 105.209856 -33.64348 
L 104.614232 -33.64348 
L 104.018609 -33.64348 
L 103.422985 -33.64348 
L 102.827362 -33.64348 
L 102.231738 -33.64348 
L 101.636115 -33.64348 
L 101.040491 -33.64348 
L 100.444867 -33.64348 
L 99.849244 -33.64348 
L 99.25362 -33.64348 
L 98.657997 -33.64348 
L 98.062373 -33.64348 
L 97.46675 -33.64348 
L 96.871126 -33.64348 
L 96.275503 -33.64348 
L 95.679879 -33.64348 
L 95.084255 -33.64348 
L 94.488632 -33.64348 
L 93.893008 -33.64348 
L 93.297385 -33.64348 
L 92.701761 -33.64348 
L 92.106138 -33.64348 
L 91.510514 -33.64348 
L 90.914891 -33.64348 
L 90.319267 -33.64348 
L 89.723643 -33.64348 
L 89.12802 -33.64348 
L 88.532396 -33.64348 
L 87.936773 -33.64348 
L 87.341149 -33.64348 
L 86.745526 -33.64348 
L 86.149902 -33.64348 
L 85.554279 -33.64348 
L 84.958655 -33.64348 
L 84.363031 -33.64348 
L 83.767408 -33.64348 
L 83.171784 -33.64348 
L 82.576161 -33.64348 
L 81.980537 -33.64348 
L 81.384914 -33.64348 
L 80.78929 -33.64348 
L 80.193667 -33.64348 
L 79.598043 -33.64348 
L 79.002419 -33.64348 
L 78.406796 -33.64348 
L 77.811172 -33.64348 
L 77.215549 -33.64348 
L 76.619925 -33.64348 
L 76.024302 -33.64348 
L 75.428678 -33.64348 
L 74.833055 -33.64348 
L 74.237431 -33.64348 
L 73.641808 -33.64348 
L 73.046184 -33.64348 
L 72.45056 -33.64348 
L 71.854937 -33.64348 
L 71.259313 -33.64348 
L 70.66369 -33.64348 
L 70.068066 -33.64348 
L 69.472443 -33.64348 
L 68.876819 -33.64348 
L 68.281196 -33.64348 
L 67.685572 -33.64348 
L 67.089948 -33.64348 
L 66.494325 -33.64348 
L 65.898701 -33.64348 
L 65.303078 -33.64348 
L 64.707454 -33.64348 
L 64.111831 -33.64348 
L 63.516207 -33.64348 
L 62.920584 -33.64348 
L 62.32496 -33.64348 
L 61.729336 -33.64348 
L 61.133713 -33.64348 
L 60.538089 -33.64348 
L 59.942466 -33.64348 
L 59.346842 -33.64348 
L 58.751219 -33.64348 
L 58.155595 -33.64348 
L 57.559972 -33.64348 
L 56.964348 -33.64348 
L 56.368724 -33.64348 
L 55.773101 -33.64348 
L 55.177477 -33.64348 
L 54.581854 -33.64348 
L 53.98623 -33.64348 
L 53.390607 -33.64348 
L 52.794983 -33.64348 
L 52.19936 -33.64348 
L 51.603736 -33.64348 
L 51.008112 -33.64348 
L 50.412489 -33.64348 
L 49.816865 -33.64348 
L 49.221242 -33.64348 
L 48.625618 -33.64348 
L 48.029995 -33.64348 
L 47.434371 -33.64348 
L 46.838748 -33.64348 
L 46.243124 -33.64348 
L 45.6475 -33.64348 
L 45.051877 -33.64348 
L 44.456253 -33.64348 
L 43.86063 -33.64348 
L 43.265006 -33.64348 
L 42.669383 -33.64348 
L 42.073759 -33.64348 
L 41.478136 -33.64348 
L 40.882512 -33.64348 
L 40.286888 -33.64348 
L 39.691265 -33.64348 
L 39.095641 -33.64348 
L 38.500018 -33.64348 
L 37.904394 -33.64348 
L 37.308771 -33.64348 
L 36.713147 -33.64348 
L 36.117524 -33.64348 
L 35.5219 -33.64348 
L 34.926276 -33.64348 
L 34.330653 -33.64348 
L 33.735029 -33.64348 
L 33.139406 -33.64348 
L 32.543782 -33.64348 
L 31.948159 -33.64348 
L 31.352535 -33.64348 
L 30.756912 -33.64348 
L 30.161288 -33.64348 
L 29.565664 -33.64348 
L 28.970041 -33.64348 
L 28.374417 -33.64348 
L 27.778794 -33.64348 
L 27.18317 -33.64348 
L 26.587547 -33.64348 
L 25.991923 -33.64348 
L 25.3963 -33.64348 
L 24.800676 -33.64348 
L 24.205052 -33.64348 
L 23.609429 -33.64348 
L 23.013805 -33.64348 
L 22.418182 -33.64348 
z
" id="m92d96afc5f" style="stroke:#0173b2;stroke-opacity:0;"/>
    </defs>
    <g clip-path="url(#pc21c866277)">
     <use style="fill:#0173b2;fill-opacity:0;stroke:#0173b2;stroke-opacity:0;" x="0" xlink:href="#m92d96afc5f" y="262.989219"/>
    </g>
   </g>
   <g id="line2d_7">
    <path clip-path="url(#pc21c866277)" d="M 22.418182 227.635105 
L 29.565664 227.527248 
L 32.543782 227.278015 
L 34.926276 226.911408 
L 37.904394 226.209568 
L 40.882512 225.269599 
L 45.6475 223.458981 
L 49.816865 221.709446 
L 53.390607 220.025122 
L 55.773101 218.675002 
L 58.155595 217.013845 
L 60.538089 214.969581 
L 62.920584 212.528613 
L 65.303078 209.750143 
L 69.472443 204.377296 
L 73.046184 199.419889 
L 75.428678 195.75112 
L 77.811172 191.565254 
L 79.598043 188.019102 
L 81.384914 184.05283 
L 83.171784 179.640377 
L 85.554279 173.066023 
L 88.532396 163.833554 
L 97.46675 134.875124 
L 99.849244 128.181396 
L 106.996727 108.773008 
L 109.974844 99.56918 
L 117.122327 76.952892 
L 119.504821 70.408267 
L 121.887315 64.367398 
L 127.247927 51.414768 
L 131.417292 41.940078 
L 133.204163 38.413515 
L 134.39541 36.40614 
L 135.586657 34.742962 
L 136.777904 33.459778 
L 137.969151 32.512455 
L 139.160399 31.948241 
L 140.351646 31.685263 
L 141.542893 31.748252 
L 142.73414 32.185112 
L 143.925387 32.889209 
L 145.116634 33.777776 
L 146.307881 34.941186 
L 148.094752 37.035565 
L 149.881622 39.555875 
L 151.668493 42.456759 
L 154.050987 46.910214 
L 156.433482 52.000525 
L 158.815976 57.623524 
L 161.794094 65.329054 
L 165.963458 76.996542 
L 171.32407 92.171675 
L 174.897812 101.622904 
L 177.87593 108.822789 
L 180.854047 115.378754 
L 185.619036 125.227373 
L 191.575271 137.520555 
L 195.744636 146.574009 
L 201.105248 158.668291 
L 205.870237 170.329031 
L 210.635225 181.934771 
L 213.017719 187.072942 
L 214.80459 190.444148 
L 216.591461 193.383862 
L 218.378331 195.929435 
L 220.760825 198.823237 
L 223.14332 201.359861 
L 226.121437 204.197898 
L 230.290802 207.933754 
L 234.460167 211.416269 
L 238.629532 214.643432 
L 243.394521 218.0292 
L 245.777015 219.529964 
L 248.755133 221.145551 
L 251.73325 222.487089 
L 255.306992 223.794447 
L 259.476357 225.073255 
L 264.241345 226.312337 
L 268.41071 227.253167 
L 272.580075 228.032593 
L 276.74944 228.600453 
L 280.918804 228.89866 
L 286.87504 229.039947 
L 312.486853 229.280011 
L 320.229959 229.01853 
L 326.781818 228.831179 
L 326.781818 228.831179 
" style="fill:none;stroke:#0173b2;stroke-linecap:round;stroke-width:1.5;"/>
   </g>
   <g id="line2d_8">
    <path clip-path="url(#pc21c866277)" d="M 76.645963 225.194611 
L 221.69087 225.194611 
" style="fill:none;stroke:#000000;stroke-width:3;"/>
   </g>
   <g id="patch_3">
    <path d="M 7.2 239.229375 
L 342 239.229375 
" style="fill:none;stroke:#808080;stroke-linecap:square;stroke-linejoin:miter;stroke-width:1.25;"/>
   </g>
   <g id="text_7">
    <!-- 35  -->
    <g style="fill:#262626;" transform="translate(59.965963 214.816793)scale(0.12 -0.12)">
     <defs>
      <path id="ArialMT-20" transform="scale(0.015625)"/>
     </defs>
     <use xlink:href="#ArialMT-33"/>
     <use x="55.615234" xlink:href="#ArialMT-35"/>
     <use x="111.230469" xlink:href="#ArialMT-20"/>
    </g>
   </g>
   <g id="text_8">
    <!--  38 -->
    <g style="fill:#262626;" transform="translate(221.69087 214.816793)scale(0.12 -0.12)">
     <use xlink:href="#ArialMT-20"/>
     <use x="27.783203" xlink:href="#ArialMT-33"/>
     <use x="83.398438" xlink:href="#ArialMT-38"/>
    </g>
   </g>
   <g id="text_9">
    <!-- 94% HDI -->
    <g style="fill:#262626;" transform="translate(125.159979 167.07883)scale(0.12 -0.12)">
     <defs>
      <path d="M 372 3481 
Q 372 3972 619 4315 
Q 866 4659 1334 4659 
Q 1766 4659 2048 4351 
Q 2331 4044 2331 3447 
Q 2331 2866 2045 2552 
Q 1759 2238 1341 2238 
Q 925 2238 648 2547 
Q 372 2856 372 3481 
z
M 1350 4272 
Q 1141 4272 1002 4090 
Q 863 3909 863 3425 
Q 863 2984 1003 2804 
Q 1144 2625 1350 2625 
Q 1563 2625 1702 2806 
Q 1841 2988 1841 3469 
Q 1841 3913 1700 4092 
Q 1559 4272 1350 4272 
z
M 1353 -169 
L 3859 4659 
L 4316 4659 
L 1819 -169 
L 1353 -169 
z
M 3334 1075 
Q 3334 1569 3581 1911 
Q 3828 2253 4300 2253 
Q 4731 2253 5014 1945 
Q 5297 1638 5297 1041 
Q 5297 459 5011 145 
Q 4725 -169 4303 -169 
Q 3888 -169 3611 142 
Q 3334 453 3334 1075 
z
M 4316 1866 
Q 4103 1866 3964 1684 
Q 3825 1503 3825 1019 
Q 3825 581 3965 400 
Q 4106 219 4313 219 
Q 4528 219 4667 400 
Q 4806 581 4806 1063 
Q 4806 1506 4665 1686 
Q 4525 1866 4316 1866 
z
" id="ArialMT-25" transform="scale(0.015625)"/>
      <path d="M 513 0 
L 513 4581 
L 1119 4581 
L 1119 2700 
L 3500 2700 
L 3500 4581 
L 4106 4581 
L 4106 0 
L 3500 0 
L 3500 2159 
L 1119 2159 
L 1119 0 
L 513 0 
z
" id="ArialMT-48" transform="scale(0.015625)"/>
      <path d="M 494 0 
L 494 4581 
L 2072 4581 
Q 2606 4581 2888 4516 
Q 3281 4425 3559 4188 
Q 3922 3881 4101 3404 
Q 4281 2928 4281 2316 
Q 4281 1794 4159 1391 
Q 4038 988 3847 723 
Q 3656 459 3429 307 
Q 3203 156 2883 78 
Q 2563 0 2147 0 
L 494 0 
z
M 1100 541 
L 2078 541 
Q 2531 541 2789 625 
Q 3047 709 3200 863 
Q 3416 1078 3536 1442 
Q 3656 1806 3656 2325 
Q 3656 3044 3420 3430 
Q 3184 3816 2847 3947 
Q 2603 4041 2063 4041 
L 1100 4041 
L 1100 541 
z
" id="ArialMT-44" transform="scale(0.015625)"/>
      <path d="M 597 0 
L 597 4581 
L 1203 4581 
L 1203 0 
L 597 0 
z
" id="ArialMT-49" transform="scale(0.015625)"/>
     </defs>
     <use xlink:href="#ArialMT-39"/>
     <use x="55.615234" xlink:href="#ArialMT-34"/>
     <use x="111.230469" xlink:href="#ArialMT-25"/>
     <use x="200.146484" xlink:href="#ArialMT-20"/>
     <use x="227.929688" xlink:href="#ArialMT-48"/>
     <use x="300.146484" xlink:href="#ArialMT-44"/>
     <use x="372.363281" xlink:href="#ArialMT-49"/>
    </g>
   </g>
   <g id="text_10">
    <!-- mean=37 -->
    <g style="fill:#262626;" transform="translate(120.749667 63.300648)scale(0.12 -0.12)">
     <defs>
      <path d="M 422 0 
L 422 3319 
L 925 3319 
L 925 2853 
Q 1081 3097 1340 3245 
Q 1600 3394 1931 3394 
Q 2300 3394 2536 3241 
Q 2772 3088 2869 2813 
Q 3263 3394 3894 3394 
Q 4388 3394 4653 3120 
Q 4919 2847 4919 2278 
L 4919 0 
L 4359 0 
L 4359 2091 
Q 4359 2428 4304 2576 
Q 4250 2725 4106 2815 
Q 3963 2906 3769 2906 
Q 3419 2906 3187 2673 
Q 2956 2441 2956 1928 
L 2956 0 
L 2394 0 
L 2394 2156 
Q 2394 2531 2256 2718 
Q 2119 2906 1806 2906 
Q 1569 2906 1367 2781 
Q 1166 2656 1075 2415 
Q 984 2175 984 1722 
L 984 0 
L 422 0 
z
" id="ArialMT-6d" transform="scale(0.015625)"/>
      <path d="M 2694 1069 
L 3275 997 
Q 3138 488 2766 206 
Q 2394 -75 1816 -75 
Q 1088 -75 661 373 
Q 234 822 234 1631 
Q 234 2469 665 2931 
Q 1097 3394 1784 3394 
Q 2450 3394 2872 2941 
Q 3294 2488 3294 1666 
Q 3294 1616 3291 1516 
L 816 1516 
Q 847 969 1125 678 
Q 1403 388 1819 388 
Q 2128 388 2347 550 
Q 2566 713 2694 1069 
z
M 847 1978 
L 2700 1978 
Q 2663 2397 2488 2606 
Q 2219 2931 1791 2931 
Q 1403 2931 1139 2672 
Q 875 2413 847 1978 
z
" id="ArialMT-65" transform="scale(0.015625)"/>
      <path d="M 2588 409 
Q 2275 144 1986 34 
Q 1697 -75 1366 -75 
Q 819 -75 525 192 
Q 231 459 231 875 
Q 231 1119 342 1320 
Q 453 1522 633 1644 
Q 813 1766 1038 1828 
Q 1203 1872 1538 1913 
Q 2219 1994 2541 2106 
Q 2544 2222 2544 2253 
Q 2544 2597 2384 2738 
Q 2169 2928 1744 2928 
Q 1347 2928 1158 2789 
Q 969 2650 878 2297 
L 328 2372 
Q 403 2725 575 2942 
Q 747 3159 1072 3276 
Q 1397 3394 1825 3394 
Q 2250 3394 2515 3294 
Q 2781 3194 2906 3042 
Q 3031 2891 3081 2659 
Q 3109 2516 3109 2141 
L 3109 1391 
Q 3109 606 3145 398 
Q 3181 191 3288 0 
L 2700 0 
Q 2613 175 2588 409 
z
M 2541 1666 
Q 2234 1541 1622 1453 
Q 1275 1403 1131 1340 
Q 988 1278 909 1158 
Q 831 1038 831 891 
Q 831 666 1001 516 
Q 1172 366 1500 366 
Q 1825 366 2078 508 
Q 2331 650 2450 897 
Q 2541 1088 2541 1459 
L 2541 1666 
z
" id="ArialMT-61" transform="scale(0.015625)"/>
      <path d="M 422 0 
L 422 3319 
L 928 3319 
L 928 2847 
Q 1294 3394 1984 3394 
Q 2284 3394 2536 3286 
Q 2788 3178 2913 3003 
Q 3038 2828 3088 2588 
Q 3119 2431 3119 2041 
L 3119 0 
L 2556 0 
L 2556 2019 
Q 2556 2363 2490 2533 
Q 2425 2703 2258 2804 
Q 2091 2906 1866 2906 
Q 1506 2906 1245 2678 
Q 984 2450 984 1813 
L 984 0 
L 422 0 
z
" id="ArialMT-6e" transform="scale(0.015625)"/>
      <path d="M 3381 2694 
L 356 2694 
L 356 3219 
L 3381 3219 
L 3381 2694 
z
M 3381 1303 
L 356 1303 
L 356 1828 
L 3381 1828 
L 3381 1303 
z
" id="ArialMT-3d" transform="scale(0.015625)"/>
     </defs>
     <use xlink:href="#ArialMT-6d"/>
     <use x="83.300781" xlink:href="#ArialMT-65"/>
     <use x="138.916016" xlink:href="#ArialMT-61"/>
     <use x="194.53125" xlink:href="#ArialMT-6e"/>
     <use x="250.146484" xlink:href="#ArialMT-3d"/>
     <use x="308.544922" xlink:href="#ArialMT-33"/>
     <use x="364.160156" xlink:href="#ArialMT-37"/>
    </g>
   </g>
   <g id="text_11">
    <!-- Mc -->
    <g style="fill:#262626;" transform="translate(166.602187 15.789375)scale(0.12 -0.12)">
     <defs>
      <path d="M 475 0 
L 475 4581 
L 1388 4581 
L 2472 1338 
Q 2622 884 2691 659 
Q 2769 909 2934 1394 
L 4031 4581 
L 4847 4581 
L 4847 0 
L 4263 0 
L 4263 3834 
L 2931 0 
L 2384 0 
L 1059 3900 
L 1059 0 
L 475 0 
z
" id="ArialMT-4d" transform="scale(0.015625)"/>
      <path d="M 2588 1216 
L 3141 1144 
Q 3050 572 2676 248 
Q 2303 -75 1759 -75 
Q 1078 -75 664 370 
Q 250 816 250 1647 
Q 250 2184 428 2587 
Q 606 2991 970 3192 
Q 1334 3394 1763 3394 
Q 2303 3394 2647 3120 
Q 2991 2847 3088 2344 
L 2541 2259 
Q 2463 2594 2264 2762 
Q 2066 2931 1784 2931 
Q 1359 2931 1093 2626 
Q 828 2322 828 1663 
Q 828 994 1084 691 
Q 1341 388 1753 388 
Q 2084 388 2306 591 
Q 2528 794 2588 1216 
z
" id="ArialMT-63" transform="scale(0.015625)"/>
     </defs>
     <use xlink:href="#ArialMT-4d"/>
     <use x="83.300781" xlink:href="#ArialMT-63"/>
    </g>
   </g>
  </g>
 </g>
 <defs>
  <clipPath id="pc21c866277">
   <rect height="217.44" width="334.8" x="7.2" y="21.789375"/>
  </clipPath>
 </defs>
</svg>
