<?xml version="1.0" encoding="utf-8" standalone="no"?>
<!DOCTYPE svg PUBLIC "-//W3C//DTD SVG 1.1//EN"
  "http://www.w3.org/Graphics/SVG/1.1/DTD/svg11.dtd">
<svg height="253.21138pt" version="1.1" viewBox="0 0 371.241719 253.21138" width="371.241719pt" xmlns="http://www.w3.org/2000/svg" xmlns:xlink="http://www.w3.org/1999/xlink">
 <metadata>
  <rdf:RDF xmlns:cc="http://creativecommons.org/ns#" xmlns:dc="http://purl.org/dc/elements/1.1/" xmlns:rdf="http://www.w3.org/1999/02/22-rdf-syntax-ns#">
   <cc:Work>
    <dc:type rdf:resource="http://purl.org/dc/dcmitype/StillImage"/>
    <dc:date>2021-10-28T15:40:47.888871</dc:date>
    <dc:format>image/svg+xml</dc:format>
    <dc:creator>
     <cc:Agent>
      <dc:title>Matplotlib v3.4.3, https://matplotlib.org/</dc:title>
     </cc:Agent>
    </dc:creator>
   </cc:Work>
  </rdf:RDF>
 </metadata>
 <defs>
  <style type="text/css">*{stroke-linecap:butt;stroke-linejoin:round;}</style>
 </defs>
 <g id="figure_1">
  <g id="patch_1">
   <path d="M 0 253.21138 
L 371.241719 253.21138 
L 371.241719 0 
L 0 0 
z
" style="fill:#ffffff;"/>
  </g>
  <g id="axes_1">
   <g id="patch_2">
    <path d="M 29.241719 226.451536 
L 364.041719 226.451536 
L 364.041719 9.011536 
L 29.241719 9.011536 
z
" style="fill:#ffffff;"/>
   </g>
   <g id="matplotlib.axis_1">
    <g id="xtick_1">
     <g id="line2d_1">
      <defs>
       <path d="M 0 0 
L 0 6 
" id="ma15c180b5f" style="stroke:#262626;stroke-width:1.25;"/>
      </defs>
      <g>
       <use style="fill:#262626;stroke:#262626;stroke-width:1.25;" x="44.459901" xlink:href="#ma15c180b5f" y="226.451536"/>
      </g>
     </g>
     <g id="text_1">
      <!-- −1.00 -->
      <g style="fill:#262626;" transform="translate(30.544041 243.82513)scale(0.11 -0.11)">
       <defs>
        <path d="M 3381 1997 
L 356 1997 
L 356 2522 
L 3381 2522 
L 3381 1997 
z
" id="ArialMT-2212" transform="scale(0.015625)"/>
        <path d="M 2384 0 
L 1822 0 
L 1822 3584 
Q 1619 3391 1289 3197 
Q 959 3003 697 2906 
L 697 3450 
Q 1169 3672 1522 3987 
Q 1875 4303 2022 4600 
L 2384 4600 
L 2384 0 
z
" id="ArialMT-31" transform="scale(0.015625)"/>
        <path d="M 581 0 
L 581 641 
L 1222 641 
L 1222 0 
L 581 0 
z
" id="ArialMT-2e" transform="scale(0.015625)"/>
        <path d="M 266 2259 
Q 266 3072 433 3567 
Q 600 4063 929 4331 
Q 1259 4600 1759 4600 
Q 2128 4600 2406 4451 
Q 2684 4303 2865 4023 
Q 3047 3744 3150 3342 
Q 3253 2941 3253 2259 
Q 3253 1453 3087 958 
Q 2922 463 2592 192 
Q 2263 -78 1759 -78 
Q 1097 -78 719 397 
Q 266 969 266 2259 
z
M 844 2259 
Q 844 1131 1108 757 
Q 1372 384 1759 384 
Q 2147 384 2411 759 
Q 2675 1134 2675 2259 
Q 2675 3391 2411 3762 
Q 2147 4134 1753 4134 
Q 1366 4134 1134 3806 
Q 844 3388 844 2259 
z
" id="ArialMT-30" transform="scale(0.015625)"/>
       </defs>
       <use xlink:href="#ArialMT-2212"/>
       <use x="58.398438" xlink:href="#ArialMT-31"/>
       <use x="114.013672" xlink:href="#ArialMT-2e"/>
       <use x="141.796875" xlink:href="#ArialMT-30"/>
       <use x="197.412109" xlink:href="#ArialMT-30"/>
      </g>
     </g>
    </g>
    <g id="xtick_2">
     <g id="line2d_2">
      <g>
       <use style="fill:#262626;stroke:#262626;stroke-width:1.25;" x="82.505355" xlink:href="#ma15c180b5f" y="226.451536"/>
      </g>
     </g>
     <g id="text_2">
      <!-- −0.75 -->
      <g style="fill:#262626;" transform="translate(68.589496 243.82513)scale(0.11 -0.11)">
       <defs>
        <path d="M 303 3981 
L 303 4522 
L 3269 4522 
L 3269 4084 
Q 2831 3619 2401 2847 
Q 1972 2075 1738 1259 
Q 1569 684 1522 0 
L 944 0 
Q 953 541 1156 1306 
Q 1359 2072 1739 2783 
Q 2119 3494 2547 3981 
L 303 3981 
z
" id="ArialMT-37" transform="scale(0.015625)"/>
        <path d="M 266 1200 
L 856 1250 
Q 922 819 1161 601 
Q 1400 384 1738 384 
Q 2144 384 2425 690 
Q 2706 997 2706 1503 
Q 2706 1984 2436 2262 
Q 2166 2541 1728 2541 
Q 1456 2541 1237 2417 
Q 1019 2294 894 2097 
L 366 2166 
L 809 4519 
L 3088 4519 
L 3088 3981 
L 1259 3981 
L 1013 2750 
Q 1425 3038 1878 3038 
Q 2478 3038 2890 2622 
Q 3303 2206 3303 1553 
Q 3303 931 2941 478 
Q 2500 -78 1738 -78 
Q 1113 -78 717 272 
Q 322 622 266 1200 
z
" id="ArialMT-35" transform="scale(0.015625)"/>
       </defs>
       <use xlink:href="#ArialMT-2212"/>
       <use x="58.398438" xlink:href="#ArialMT-30"/>
       <use x="114.013672" xlink:href="#ArialMT-2e"/>
       <use x="141.796875" xlink:href="#ArialMT-37"/>
       <use x="197.412109" xlink:href="#ArialMT-35"/>
      </g>
     </g>
    </g>
    <g id="xtick_3">
     <g id="line2d_3">
      <g>
       <use style="fill:#262626;stroke:#262626;stroke-width:1.25;" x="120.55081" xlink:href="#ma15c180b5f" y="226.451536"/>
      </g>
     </g>
     <g id="text_3">
      <!-- −0.50 -->
      <g style="fill:#262626;" transform="translate(106.63495 243.82513)scale(0.11 -0.11)">
       <use xlink:href="#ArialMT-2212"/>
       <use x="58.398438" xlink:href="#ArialMT-30"/>
       <use x="114.013672" xlink:href="#ArialMT-2e"/>
       <use x="141.796875" xlink:href="#ArialMT-35"/>
       <use x="197.412109" xlink:href="#ArialMT-30"/>
      </g>
     </g>
    </g>
    <g id="xtick_4">
     <g id="line2d_4">
      <g>
       <use style="fill:#262626;stroke:#262626;stroke-width:1.25;" x="158.596264" xlink:href="#ma15c180b5f" y="226.451536"/>
      </g>
     </g>
     <g id="text_4">
      <!-- −0.25 -->
      <g style="fill:#262626;" transform="translate(144.680405 243.82513)scale(0.11 -0.11)">
       <defs>
        <path d="M 3222 541 
L 3222 0 
L 194 0 
Q 188 203 259 391 
Q 375 700 629 1000 
Q 884 1300 1366 1694 
Q 2113 2306 2375 2664 
Q 2638 3022 2638 3341 
Q 2638 3675 2398 3904 
Q 2159 4134 1775 4134 
Q 1369 4134 1125 3890 
Q 881 3647 878 3216 
L 300 3275 
Q 359 3922 746 4261 
Q 1134 4600 1788 4600 
Q 2447 4600 2831 4234 
Q 3216 3869 3216 3328 
Q 3216 3053 3103 2787 
Q 2991 2522 2730 2228 
Q 2469 1934 1863 1422 
Q 1356 997 1212 845 
Q 1069 694 975 541 
L 3222 541 
z
" id="ArialMT-32" transform="scale(0.015625)"/>
       </defs>
       <use xlink:href="#ArialMT-2212"/>
       <use x="58.398438" xlink:href="#ArialMT-30"/>
       <use x="114.013672" xlink:href="#ArialMT-2e"/>
       <use x="141.796875" xlink:href="#ArialMT-32"/>
       <use x="197.412109" xlink:href="#ArialMT-35"/>
      </g>
     </g>
    </g>
    <g id="xtick_5">
     <g id="line2d_5">
      <g>
       <use style="fill:#262626;stroke:#262626;stroke-width:1.25;" x="196.641719" xlink:href="#ma15c180b5f" y="226.451536"/>
      </g>
     </g>
     <g id="text_5">
      <!-- 0.00 -->
      <g style="fill:#262626;" transform="translate(185.938203 243.82513)scale(0.11 -0.11)">
       <use xlink:href="#ArialMT-30"/>
       <use x="55.615234" xlink:href="#ArialMT-2e"/>
       <use x="83.398438" xlink:href="#ArialMT-30"/>
       <use x="139.013672" xlink:href="#ArialMT-30"/>
      </g>
     </g>
    </g>
    <g id="xtick_6">
     <g id="line2d_6">
      <g>
       <use style="fill:#262626;stroke:#262626;stroke-width:1.25;" x="234.687173" xlink:href="#ma15c180b5f" y="226.451536"/>
      </g>
     </g>
     <g id="text_6">
      <!-- 0.25 -->
      <g style="fill:#262626;" transform="translate(223.983658 243.82513)scale(0.11 -0.11)">
       <use xlink:href="#ArialMT-30"/>
       <use x="55.615234" xlink:href="#ArialMT-2e"/>
       <use x="83.398438" xlink:href="#ArialMT-32"/>
       <use x="139.013672" xlink:href="#ArialMT-35"/>
      </g>
     </g>
    </g>
    <g id="xtick_7">
     <g id="line2d_7">
      <g>
       <use style="fill:#262626;stroke:#262626;stroke-width:1.25;" x="272.732628" xlink:href="#ma15c180b5f" y="226.451536"/>
      </g>
     </g>
     <g id="text_7">
      <!-- 0.50 -->
      <g style="fill:#262626;" transform="translate(262.029112 243.82513)scale(0.11 -0.11)">
       <use xlink:href="#ArialMT-30"/>
       <use x="55.615234" xlink:href="#ArialMT-2e"/>
       <use x="83.398438" xlink:href="#ArialMT-35"/>
       <use x="139.013672" xlink:href="#ArialMT-30"/>
      </g>
     </g>
    </g>
    <g id="xtick_8">
     <g id="line2d_8">
      <g>
       <use style="fill:#262626;stroke:#262626;stroke-width:1.25;" x="310.778082" xlink:href="#ma15c180b5f" y="226.451536"/>
      </g>
     </g>
     <g id="text_8">
      <!-- 0.75 -->
      <g style="fill:#262626;" transform="translate(300.074567 243.82513)scale(0.11 -0.11)">
       <use xlink:href="#ArialMT-30"/>
       <use x="55.615234" xlink:href="#ArialMT-2e"/>
       <use x="83.398438" xlink:href="#ArialMT-37"/>
       <use x="139.013672" xlink:href="#ArialMT-35"/>
      </g>
     </g>
    </g>
    <g id="xtick_9">
     <g id="line2d_9">
      <g>
       <use style="fill:#262626;stroke:#262626;stroke-width:1.25;" x="348.823537" xlink:href="#ma15c180b5f" y="226.451536"/>
      </g>
     </g>
     <g id="text_9">
      <!-- 1.00 -->
      <g style="fill:#262626;" transform="translate(338.120021 243.82513)scale(0.11 -0.11)">
       <use xlink:href="#ArialMT-31"/>
       <use x="55.615234" xlink:href="#ArialMT-2e"/>
       <use x="83.398438" xlink:href="#ArialMT-30"/>
       <use x="139.013672" xlink:href="#ArialMT-30"/>
      </g>
     </g>
    </g>
   </g>
   <g id="matplotlib.axis_2">
    <g id="ytick_1">
     <g id="line2d_10">
      <defs>
       <path d="M 0 0 
L -6 0 
" id="m8036e844fe" style="stroke:#262626;stroke-width:1.25;"/>
      </defs>
      <g>
       <use style="fill:#262626;stroke:#262626;stroke-width:1.25;" x="29.241719" xlink:href="#m8036e844fe" y="212.260783"/>
      </g>
     </g>
     <g id="text_10">
      <!-- −8 -->
      <g style="fill:#262626;" transform="translate(7.2 216.19758)scale(0.11 -0.11)">
       <defs>
        <path d="M 1131 2484 
Q 781 2613 612 2850 
Q 444 3088 444 3419 
Q 444 3919 803 4259 
Q 1163 4600 1759 4600 
Q 2359 4600 2725 4251 
Q 3091 3903 3091 3403 
Q 3091 3084 2923 2848 
Q 2756 2613 2416 2484 
Q 2838 2347 3058 2040 
Q 3278 1734 3278 1309 
Q 3278 722 2862 322 
Q 2447 -78 1769 -78 
Q 1091 -78 675 323 
Q 259 725 259 1325 
Q 259 1772 486 2073 
Q 713 2375 1131 2484 
z
M 1019 3438 
Q 1019 3113 1228 2906 
Q 1438 2700 1772 2700 
Q 2097 2700 2305 2904 
Q 2513 3109 2513 3406 
Q 2513 3716 2298 3927 
Q 2084 4138 1766 4138 
Q 1444 4138 1231 3931 
Q 1019 3725 1019 3438 
z
M 838 1322 
Q 838 1081 952 856 
Q 1066 631 1291 507 
Q 1516 384 1775 384 
Q 2178 384 2440 643 
Q 2703 903 2703 1303 
Q 2703 1709 2433 1975 
Q 2163 2241 1756 2241 
Q 1359 2241 1098 1978 
Q 838 1716 838 1322 
z
" id="ArialMT-38" transform="scale(0.015625)"/>
       </defs>
       <use xlink:href="#ArialMT-2212"/>
       <use x="58.398438" xlink:href="#ArialMT-38"/>
      </g>
     </g>
    </g>
    <g id="ytick_2">
     <g id="line2d_11">
      <g>
       <use style="fill:#262626;stroke:#262626;stroke-width:1.25;" x="29.241719" xlink:href="#m8036e844fe" y="187.120285"/>
      </g>
     </g>
     <g id="text_11">
      <!-- −6 -->
      <g style="fill:#262626;" transform="translate(7.2 191.057082)scale(0.11 -0.11)">
       <defs>
        <path d="M 3184 3459 
L 2625 3416 
Q 2550 3747 2413 3897 
Q 2184 4138 1850 4138 
Q 1581 4138 1378 3988 
Q 1113 3794 959 3422 
Q 806 3050 800 2363 
Q 1003 2672 1297 2822 
Q 1591 2972 1913 2972 
Q 2475 2972 2870 2558 
Q 3266 2144 3266 1488 
Q 3266 1056 3080 686 
Q 2894 316 2569 119 
Q 2244 -78 1831 -78 
Q 1128 -78 684 439 
Q 241 956 241 2144 
Q 241 3472 731 4075 
Q 1159 4600 1884 4600 
Q 2425 4600 2770 4297 
Q 3116 3994 3184 3459 
z
M 888 1484 
Q 888 1194 1011 928 
Q 1134 663 1356 523 
Q 1578 384 1822 384 
Q 2178 384 2434 671 
Q 2691 959 2691 1453 
Q 2691 1928 2437 2201 
Q 2184 2475 1800 2475 
Q 1419 2475 1153 2201 
Q 888 1928 888 1484 
z
" id="ArialMT-36" transform="scale(0.015625)"/>
       </defs>
       <use xlink:href="#ArialMT-2212"/>
       <use x="58.398438" xlink:href="#ArialMT-36"/>
      </g>
     </g>
    </g>
    <g id="ytick_3">
     <g id="line2d_12">
      <g>
       <use style="fill:#262626;stroke:#262626;stroke-width:1.25;" x="29.241719" xlink:href="#m8036e844fe" y="161.979787"/>
      </g>
     </g>
     <g id="text_12">
      <!-- −4 -->
      <g style="fill:#262626;" transform="translate(7.2 165.916584)scale(0.11 -0.11)">
       <defs>
        <path d="M 2069 0 
L 2069 1097 
L 81 1097 
L 81 1613 
L 2172 4581 
L 2631 4581 
L 2631 1613 
L 3250 1613 
L 3250 1097 
L 2631 1097 
L 2631 0 
L 2069 0 
z
M 2069 1613 
L 2069 3678 
L 634 1613 
L 2069 1613 
z
" id="ArialMT-34" transform="scale(0.015625)"/>
       </defs>
       <use xlink:href="#ArialMT-2212"/>
       <use x="58.398438" xlink:href="#ArialMT-34"/>
      </g>
     </g>
    </g>
    <g id="ytick_4">
     <g id="line2d_13">
      <g>
       <use style="fill:#262626;stroke:#262626;stroke-width:1.25;" x="29.241719" xlink:href="#m8036e844fe" y="136.839288"/>
      </g>
     </g>
     <g id="text_13">
      <!-- −2 -->
      <g style="fill:#262626;" transform="translate(7.2 140.776085)scale(0.11 -0.11)">
       <use xlink:href="#ArialMT-2212"/>
       <use x="58.398438" xlink:href="#ArialMT-32"/>
      </g>
     </g>
    </g>
    <g id="ytick_5">
     <g id="line2d_14">
      <g>
       <use style="fill:#262626;stroke:#262626;stroke-width:1.25;" x="29.241719" xlink:href="#m8036e844fe" y="111.69879"/>
      </g>
     </g>
     <g id="text_14">
      <!-- 0 -->
      <g style="fill:#262626;" transform="translate(13.624688 115.635587)scale(0.11 -0.11)">
       <use xlink:href="#ArialMT-30"/>
      </g>
     </g>
    </g>
    <g id="ytick_6">
     <g id="line2d_15">
      <g>
       <use style="fill:#262626;stroke:#262626;stroke-width:1.25;" x="29.241719" xlink:href="#m8036e844fe" y="86.558292"/>
      </g>
     </g>
     <g id="text_15">
      <!-- 2 -->
      <g style="fill:#262626;" transform="translate(13.624688 90.495089)scale(0.11 -0.11)">
       <use xlink:href="#ArialMT-32"/>
      </g>
     </g>
    </g>
    <g id="ytick_7">
     <g id="line2d_16">
      <g>
       <use style="fill:#262626;stroke:#262626;stroke-width:1.25;" x="29.241719" xlink:href="#m8036e844fe" y="61.417794"/>
      </g>
     </g>
     <g id="text_16">
      <!-- 4 -->
      <g style="fill:#262626;" transform="translate(13.624688 65.35459)scale(0.11 -0.11)">
       <use xlink:href="#ArialMT-34"/>
      </g>
     </g>
    </g>
    <g id="ytick_8">
     <g id="line2d_17">
      <g>
       <use style="fill:#262626;stroke:#262626;stroke-width:1.25;" x="29.241719" xlink:href="#m8036e844fe" y="36.277295"/>
      </g>
     </g>
     <g id="text_17">
      <!-- 6 -->
      <g style="fill:#262626;" transform="translate(13.624688 40.214092)scale(0.11 -0.11)">
       <use xlink:href="#ArialMT-36"/>
      </g>
     </g>
    </g>
    <g id="ytick_9">
     <g id="line2d_18">
      <g>
       <use style="fill:#262626;stroke:#262626;stroke-width:1.25;" x="29.241719" xlink:href="#m8036e844fe" y="11.136797"/>
      </g>
     </g>
     <g id="text_18">
      <!-- 8 -->
      <g style="fill:#262626;" transform="translate(13.624688 15.073594)scale(0.11 -0.11)">
       <use xlink:href="#ArialMT-38"/>
      </g>
     </g>
    </g>
   </g>
   <g id="line2d_19">
    <path clip-path="url(#pd846f2ff46)" d="M 44.459901 128.71365 
L 46.856465 127.150611 
L 49.253029 134.477355 
L 51.649593 139.898936 
L 54.046157 142.641852 
L 56.442721 140.040864 
L 58.839285 143.855576 
L 61.235849 147.403931 
L 63.632413 144.774608 
L 66.028977 162.712159 
L 68.425541 151.561225 
L 70.822105 152.752377 
L 73.218669 158.31793 
L 75.615233 169.070603 
L 78.011797 168.310557 
L 80.408362 180.034923 
L 82.804926 176.739564 
L 85.20149 174.529476 
L 87.598054 169.247245 
L 89.994618 166.651145 
L 92.391182 165.012812 
L 94.787746 153.246705 
L 99.580874 134.538937 
L 101.977438 124.054554 
L 104.374002 121.740512 
L 106.770566 119.883535 
L 109.16713 114.153561 
L 111.563694 113.928972 
L 113.960258 127.415735 
L 116.356823 122.907439 
L 118.753387 124.327247 
L 121.149951 120.782702 
L 123.546515 116.138398 
L 125.943079 110.804207 
L 128.339643 115.417284 
L 130.736207 109.666521 
L 133.132771 94.944897 
L 135.529335 99.857266 
L 137.925899 109.430122 
L 140.322463 115.781227 
L 142.719027 118.35372 
L 145.115591 112.227248 
L 147.512155 101.666483 
L 149.908719 99.739522 
L 152.305284 101.222079 
L 154.701848 113.317647 
L 157.098412 111.71928 
L 159.494976 111.192864 
L 161.89154 113.943155 
L 164.288104 112.845053 
L 166.684668 109.560954 
L 169.081232 108.587072 
L 171.477796 115.188126 
L 173.87436 121.175261 
L 176.270924 118.282647 
L 178.667488 114.548158 
L 181.064052 119.361596 
L 183.460616 106.602554 
L 185.85718 108.822941 
L 188.253745 104.546926 
L 190.650309 103.347705 
L 193.046873 108.726887 
L 195.443437 110.53486 
L 197.840001 121.81648 
L 200.236565 125.903935 
L 202.633129 128.305632 
L 205.029693 135.562568 
L 207.426257 138.272243 
L 209.822821 123.388928 
L 212.219385 125.369996 
L 214.615949 126.256625 
L 217.012513 124.239735 
L 219.409077 124.716034 
L 221.805641 120.869366 
L 224.202206 127.984429 
L 226.59877 139.342738 
L 228.995334 143.745831 
L 231.391898 133.582931 
L 233.788462 141.555892 
L 236.185026 143.69582 
L 238.58159 142.565866 
L 240.978154 139.965363 
L 243.374718 131.591471 
L 245.771282 122.093843 
L 248.167846 115.268344 
L 250.56441 113.212437 
L 252.960974 110.002225 
L 255.357538 120.069486 
L 257.754102 115.950831 
L 260.150666 113.977857 
L 262.547231 115.870194 
L 264.943795 113.526996 
L 267.340359 106.944344 
L 269.736923 112.941299 
L 272.133487 112.18974 
L 274.530051 101.906808 
L 276.926615 113.873645 
L 279.323179 118.440973 
L 281.719743 124.213722 
L 284.116307 135.562976 
L 286.512871 120.974226 
L 288.909435 119.039943 
L 291.305999 126.655351 
L 293.702563 132.561012 
L 296.099127 129.937329 
L 298.495692 130.42955 
L 300.892256 136.33013 
L 303.28882 144.294944 
L 305.685384 152.68404 
L 308.081948 148.420614 
L 310.478512 153.301722 
L 312.875076 160.644802 
L 315.27164 157.469529 
L 317.668204 147.775422 
L 320.064768 140.608378 
L 322.461332 138.248685 
L 324.857896 147.926592 
L 327.25446 152.349548 
L 329.651024 151.469871 
L 332.047588 144.715836 
L 334.444153 131.117776 
L 336.840717 139.235404 
L 339.237281 132.787087 
L 341.633845 131.324026 
L 344.030409 115.764369 
L 346.426973 115.465463 
L 348.823537 117.819737 
L 348.823537 117.819737 
" style="fill:none;stroke:#0173b2;stroke-linecap:round;stroke-width:1.5;"/>
   </g>
   <g id="line2d_20">
    <path clip-path="url(#pd846f2ff46)" d="M 44.459901 142.975043 
L 46.856465 125.680405 
L 49.253029 119.20979 
L 51.649593 114.636084 
L 54.046157 125.671311 
L 56.442721 117.478084 
L 58.839285 121.775953 
L 61.235849 120.482949 
L 63.632413 121.488011 
L 66.028977 119.45621 
L 68.425541 123.409597 
L 70.822105 132.102682 
L 73.218669 142.095179 
L 75.615233 136.328202 
L 78.011797 130.195178 
L 80.408362 134.13723 
L 82.804926 133.244817 
L 85.20149 123.884759 
L 87.598054 123.639994 
L 89.994618 132.929619 
L 92.391182 136.818827 
L 94.787746 134.73094 
L 97.18431 136.339098 
L 99.580874 126.205105 
L 101.977438 122.538225 
L 104.374002 121.578683 
L 106.770566 128.95396 
L 109.16713 115.739476 
L 111.563694 122.169416 
L 113.960258 117.30302 
L 116.356823 117.646729 
L 118.753387 106.727054 
L 121.149951 100.712681 
L 123.546515 109.678328 
L 125.943079 103.523234 
L 128.339643 96.526632 
L 130.736207 102.93229 
L 133.132771 101.063738 
L 135.529335 88.285397 
L 137.925899 93.264747 
L 140.322463 91.676881 
L 142.719027 93.756514 
L 145.115591 90.926919 
L 147.512155 98.189326 
L 149.908719 100.893941 
L 152.305284 100.754218 
L 154.701848 101.942299 
L 157.098412 113.863842 
L 159.494976 107.256251 
L 161.89154 113.764861 
L 166.684668 110.185386 
L 169.081232 113.915887 
L 171.477796 120.676156 
L 173.87436 125.609382 
L 176.270924 123.342567 
L 178.667488 122.616314 
L 181.064052 119.773642 
L 183.460616 126.300246 
L 185.85718 127.759263 
L 188.253745 132.261514 
L 190.650309 132.94401 
L 193.046873 134.729892 
L 195.443437 128.505393 
L 197.840001 130.161221 
L 200.236565 125.489543 
L 202.633129 123.926904 
L 205.029693 120.108106 
L 207.426257 123.965607 
L 209.822821 122.486747 
L 212.219385 126.371693 
L 214.615949 127.277391 
L 217.012513 126.809393 
L 219.409077 112.230722 
L 221.805641 105.022728 
L 224.202206 95.55278 
L 226.59877 115.319754 
L 228.995334 120.164796 
L 231.391898 126.111542 
L 233.788462 113.852532 
L 236.185026 114.48017 
L 238.58159 117.679405 
L 240.978154 111.282449 
L 243.374718 113.353445 
L 245.771282 118.629564 
L 248.167846 113.422245 
L 250.56441 120.083857 
L 252.960974 128.740461 
L 255.357538 123.863012 
L 257.754102 116.937473 
L 260.150666 118.436523 
L 262.547231 116.533461 
L 264.943795 123.86739 
L 267.340359 114.569532 
L 269.736923 106.702034 
L 272.133487 101.938316 
L 274.530051 107.391467 
L 276.926615 100.212024 
L 279.323179 94.91066 
L 281.719743 97.508817 
L 284.116307 101.17907 
L 286.512871 83.696239 
L 288.909435 101.470647 
L 291.305999 104.869112 
L 293.702563 101.268403 
L 296.099127 112.836289 
L 298.495692 115.646679 
L 300.892256 117.163805 
L 303.28882 123.376081 
L 305.685384 125.256622 
L 308.081948 113.52199 
L 310.478512 113.55897 
L 312.875076 110.282253 
L 315.27164 115.161278 
L 317.668204 117.177599 
L 320.064768 108.147881 
L 322.461332 104.701565 
L 324.857896 105.382603 
L 327.25446 104.054448 
L 329.651024 102.429113 
L 332.047588 88.995056 
L 334.444153 90.788756 
L 336.840717 79.829267 
L 339.237281 93.028108 
L 341.633845 86.425303 
L 344.030409 81.794928 
L 346.426973 79.741735 
L 348.823537 77.272122 
L 348.823537 77.272122 
" style="fill:none;stroke:#de8f05;stroke-linecap:round;stroke-width:1.5;"/>
   </g>
   <g id="line2d_21">
    <path clip-path="url(#pd846f2ff46)" d="M 44.459901 102.728302 
L 46.856465 99.885439 
L 49.253029 100.327833 
L 51.649593 97.084971 
L 54.046157 95.911755 
L 56.442721 95.655013 
L 58.839285 87.82573 
L 61.235849 82.229959 
L 63.632413 94.815337 
L 66.028977 101.757433 
L 68.425541 101.054559 
L 70.822105 105.565712 
L 73.218669 114.356281 
L 75.615233 104.326164 
L 78.011797 103.853956 
L 80.408362 101.003301 
L 82.804926 97.765985 
L 85.20149 104.670201 
L 87.598054 110.222039 
L 89.994618 118.347805 
L 92.391182 109.072036 
L 94.787746 101.160751 
L 97.18431 100.622583 
L 99.580874 89.30439 
L 101.977438 82.762563 
L 104.374002 82.321377 
L 106.770566 86.344091 
L 109.16713 80.61268 
L 111.563694 69.918448 
L 113.960258 68.799677 
L 116.356823 77.087563 
L 118.753387 77.822912 
L 121.149951 68.195084 
L 123.546515 66.580105 
L 125.943079 63.062868 
L 128.339643 79.641673 
L 130.736207 75.053114 
L 133.132771 81.781057 
L 135.529335 72.432053 
L 137.925899 81.20576 
L 140.322463 77.080599 
L 142.719027 76.745155 
L 145.115591 76.173116 
L 147.512155 75.99938 
L 149.908719 72.663976 
L 152.305284 70.693021 
L 154.701848 59.50983 
L 157.098412 66.698564 
L 159.494976 62.74023 
L 161.89154 77.505807 
L 166.684668 66.908423 
L 169.081232 62.855336 
L 171.477796 65.592442 
L 173.87436 58.741515 
L 176.270924 55.425331 
L 178.667488 58.311027 
L 181.064052 60.642459 
L 183.460616 71.59496 
L 185.85718 76.296317 
L 188.253745 80.25169 
L 190.650309 76.3887 
L 193.046873 73.754971 
L 195.443437 75.660249 
L 197.840001 72.462963 
L 200.236565 82.866165 
L 202.633129 71.361387 
L 205.029693 72.273537 
L 207.426257 79.562135 
L 209.822821 78.656716 
L 212.219385 66.679111 
L 214.615949 69.092797 
L 217.012513 72.896858 
L 219.409077 65.860249 
L 221.805641 58.21662 
L 224.202206 51.070309 
L 226.59877 44.873484 
L 228.995334 40.664002 
L 231.391898 34.938901 
L 233.788462 35.745865 
L 238.58159 51.081882 
L 240.978154 54.906908 
L 243.374718 68.69092 
L 245.771282 80.891861 
L 248.167846 82.316752 
L 250.56441 69.203244 
L 252.960974 76.86932 
L 255.357538 64.03924 
L 257.754102 63.376842 
L 260.150666 78.804309 
L 262.547231 83.419736 
L 264.943795 83.075555 
L 267.340359 73.301207 
L 269.736923 68.373075 
L 272.133487 66.129829 
L 274.530051 69.942819 
L 276.926615 77.808427 
L 279.323179 78.041844 
L 281.719743 71.641774 
L 284.116307 78.825421 
L 286.512871 88.299027 
L 291.305999 98.165667 
L 293.702563 91.61835 
L 296.099127 90.524009 
L 298.495692 97.416939 
L 300.892256 98.649868 
L 303.28882 88.252626 
L 305.685384 93.964932 
L 308.081948 83.650712 
L 310.478512 92.907063 
L 312.875076 92.383975 
L 315.27164 102.412532 
L 317.668204 109.646683 
L 320.064768 99.583231 
L 322.461332 95.155193 
L 324.857896 87.711693 
L 327.25446 84.828591 
L 329.651024 82.209952 
L 332.047588 100.70299 
L 334.444153 103.984142 
L 336.840717 100.947262 
L 339.237281 111.68618 
L 341.633845 104.371922 
L 344.030409 103.319472 
L 346.426973 101.279663 
L 348.823537 99.641858 
L 348.823537 99.641858 
" style="fill:none;stroke:#029e73;stroke-linecap:round;stroke-width:1.5;"/>
   </g>
   <g id="line2d_22">
    <path clip-path="url(#pd846f2ff46)" d="M 44.459901 137.874542 
L 46.856465 128.323202 
L 49.253029 122.98827 
L 51.649593 127.168083 
L 54.046157 134.93541 
L 56.442721 145.664066 
L 58.839285 143.889265 
L 61.235849 148.857658 
L 63.632413 153.069066 
L 66.028977 162.120087 
L 68.425541 165.721461 
L 70.822105 167.528587 
L 73.218669 174.989072 
L 75.615233 177.943018 
L 78.011797 164.913624 
L 82.804926 163.750797 
L 85.20149 149.862772 
L 87.598054 139.819713 
L 89.994618 135.724231 
L 92.391182 130.367476 
L 94.787746 136.415525 
L 97.18431 130.263743 
L 99.580874 131.353058 
L 101.977438 125.440322 
L 104.374002 118.016861 
L 106.770566 118.165362 
L 109.16713 118.521277 
L 111.563694 117.938287 
L 113.960258 113.783667 
L 116.356823 119.290612 
L 118.753387 116.263981 
L 121.149951 110.59355 
L 123.546515 109.215129 
L 125.943079 94.986718 
L 128.339643 104.694588 
L 130.736207 111.988916 
L 133.132771 113.128942 
L 135.529335 100.500183 
L 137.925899 105.234927 
L 140.322463 102.833672 
L 142.719027 96.177286 
L 145.115591 97.862285 
L 147.512155 95.897169 
L 149.908719 99.133658 
L 152.305284 97.089204 
L 154.701848 89.820467 
L 157.098412 90.644787 
L 159.494976 83.166021 
L 161.89154 78.334338 
L 164.288104 75.698934 
L 166.684668 77.928199 
L 169.081232 74.378824 
L 171.477796 77.755936 
L 173.87436 87.782562 
L 176.270924 90.957291 
L 178.667488 96.712979 
L 181.064052 88.041421 
L 183.460616 84.347851 
L 185.85718 82.9455 
L 188.253745 65.994699 
L 190.650309 79.077206 
L 193.046873 78.516674 
L 195.443437 83.224559 
L 197.840001 96.246326 
L 200.236565 86.820175 
L 202.633129 89.750449 
L 205.029693 94.470059 
L 207.426257 103.695548 
L 209.822821 106.37496 
L 212.219385 119.15004 
L 214.615949 127.791278 
L 217.012513 131.750069 
L 219.409077 139.720955 
L 221.805641 148.520072 
L 224.202206 147.311454 
L 226.59877 149.071814 
L 228.995334 164.195783 
L 231.391898 161.985823 
L 233.788462 167.681817 
L 236.185026 165.718335 
L 238.58159 158.263947 
L 240.978154 158.791701 
L 243.374718 144.513885 
L 245.771282 146.355761 
L 248.167846 139.362378 
L 250.56441 134.454096 
L 252.960974 138.000921 
L 255.357538 141.332034 
L 257.754102 135.595785 
L 260.150666 141.229039 
L 262.547231 127.950238 
L 264.943795 117.526287 
L 267.340359 111.655778 
L 269.736923 108.349631 
L 272.133487 112.122109 
L 274.530051 117.135859 
L 276.926615 104.475603 
L 279.323179 110.566125 
L 281.719743 109.556438 
L 284.116307 110.830803 
L 286.512871 108.795505 
L 288.909435 114.513073 
L 291.305999 111.671644 
L 293.702563 111.418217 
L 296.099127 112.194929 
L 298.495692 113.549191 
L 300.892256 120.712138 
L 303.28882 128.955076 
L 305.685384 129.786409 
L 308.081948 121.670995 
L 310.478512 130.362423 
L 312.875076 133.804403 
L 315.27164 138.036979 
L 317.668204 135.758723 
L 320.064768 131.646991 
L 322.461332 131.870208 
L 324.857896 128.607061 
L 327.25446 121.357886 
L 329.651024 108.738298 
L 332.047588 93.135783 
L 334.444153 91.456788 
L 339.237281 100.356742 
L 341.633845 99.126748 
L 344.030409 102.3663 
L 346.426973 89.058053 
L 348.823537 95.441806 
L 348.823537 95.441806 
" style="fill:none;stroke:#d55e00;stroke-linecap:round;stroke-width:1.5;"/>
   </g>
   <g id="line2d_23">
    <path clip-path="url(#pd846f2ff46)" d="M 44.459901 79.789223 
L 46.856465 80.127747 
L 49.253029 82.459888 
L 51.649593 75.544525 
L 54.046157 67.497962 
L 56.442721 65.615102 
L 58.839285 67.394716 
L 61.235849 78.4664 
L 63.632413 83.655086 
L 66.028977 72.283535 
L 68.425541 81.137251 
L 70.822105 73.19162 
L 73.218669 68.618964 
L 75.615233 68.255536 
L 78.011797 65.93865 
L 80.408362 69.698448 
L 82.804926 70.775719 
L 85.20149 71.275578 
L 87.598054 78.293494 
L 89.994618 87.787383 
L 92.391182 91.643579 
L 94.787746 89.794583 
L 97.18431 85.676567 
L 99.580874 86.04847 
L 101.977438 74.733217 
L 104.374002 80.098803 
L 106.770566 73.766264 
L 109.16713 81.360736 
L 111.563694 80.922898 
L 113.960258 77.616434 
L 116.356823 79.303724 
L 118.753387 71.920791 
L 121.149951 75.466317 
L 123.546515 80.027577 
L 125.943079 59.577427 
L 128.339643 54.881782 
L 130.736207 63.68227 
L 133.132771 62.535123 
L 135.529335 68.366567 
L 137.925899 52.300002 
L 140.322463 44.728835 
L 142.719027 34.620474 
L 145.115591 55.649045 
L 147.512155 69.719893 
L 149.908719 76.816737 
L 152.305284 89.382818 
L 154.701848 87.970794 
L 157.098412 82.5798 
L 159.494976 87.660924 
L 161.89154 79.281022 
L 164.288104 85.65232 
L 166.684668 79.883508 
L 169.081232 91.298224 
L 171.477796 101.294445 
L 173.87436 99.986573 
L 176.270924 103.723786 
L 178.667488 103.823191 
L 181.064052 108.359343 
L 183.460616 107.752232 
L 185.85718 110.854618 
L 188.253745 108.847462 
L 193.046873 97.200541 
L 195.443437 94.85086 
L 197.840001 92.906255 
L 200.236565 99.712308 
L 202.633129 94.629505 
L 205.029693 95.22563 
L 207.426257 87.211794 
L 209.822821 83.451144 
L 212.219385 93.719499 
L 214.615949 95.187821 
L 217.012513 103.511141 
L 219.409077 94.606447 
L 221.805641 89.887935 
L 224.202206 93.041548 
L 226.59877 87.419198 
L 228.995334 92.334951 
L 231.391898 98.698387 
L 233.788462 111.809166 
L 236.185026 118.009896 
L 238.58159 118.927692 
L 240.978154 121.301616 
L 245.771282 112.222066 
L 248.167846 106.128554 
L 250.56441 109.743379 
L 252.960974 113.93268 
L 255.357538 118.951432 
L 257.754102 123.35902 
L 260.150666 115.158394 
L 262.547231 122.453916 
L 264.943795 121.857089 
L 267.340359 123.970377 
L 269.736923 124.024296 
L 272.133487 126.154604 
L 274.530051 127.368651 
L 276.926615 128.850197 
L 279.323179 134.018318 
L 281.719743 125.270502 
L 284.116307 134.425882 
L 286.512871 132.909499 
L 288.909435 151.839736 
L 291.305999 150.926263 
L 293.702563 147.071107 
L 296.099127 142.842939 
L 298.495692 147.471618 
L 300.892256 152.942897 
L 303.28882 149.443991 
L 305.685384 152.266978 
L 308.081948 147.645335 
L 310.478512 143.831739 
L 312.875076 135.794822 
L 315.27164 133.480475 
L 317.668204 124.665607 
L 320.064768 127.193046 
L 322.461332 141.436011 
L 324.857896 142.93126 
L 327.25446 149.546213 
L 329.651024 169.69315 
L 332.047588 169.852478 
L 334.444153 158.351478 
L 336.840717 155.282307 
L 339.237281 139.901921 
L 341.633845 151.632677 
L 344.030409 151.914289 
L 346.426973 156.427854 
L 348.823537 147.844671 
L 348.823537 147.844671 
" style="fill:none;stroke:#cc78bc;stroke-linecap:round;stroke-width:1.5;"/>
   </g>
   <g id="line2d_24">
    <path clip-path="url(#pd846f2ff46)" d="M 44.459901 64.684115 
L 46.856465 51.41982 
L 49.253029 45.467837 
L 51.649593 44.217016 
L 54.046157 48.276885 
L 56.442721 59.143949 
L 58.839285 62.257774 
L 61.235849 47.759496 
L 63.632413 49.987889 
L 66.028977 42.364846 
L 68.425541 37.183796 
L 70.822105 43.200498 
L 73.218669 47.427022 
L 75.615233 42.594635 
L 78.011797 44.790191 
L 80.408362 37.208452 
L 82.804926 43.34176 
L 85.20149 36.580406 
L 87.598054 39.635702 
L 89.994618 32.947525 
L 92.391182 37.747139 
L 94.787746 36.889521 
L 97.18431 40.562511 
L 99.580874 48.945714 
L 101.977438 62.617621 
L 104.374002 49.138051 
L 106.770566 41.84068 
L 109.16713 41.089512 
L 111.563694 38.967346 
L 113.960258 49.554816 
L 116.356823 50.483693 
L 118.753387 52.013887 
L 121.149951 55.185113 
L 123.546515 51.175143 
L 125.943079 53.185117 
L 128.339643 50.723566 
L 130.736207 67.104262 
L 133.132771 69.831968 
L 135.529335 71.018384 
L 137.925899 63.954147 
L 140.322463 54.343542 
L 142.719027 49.000037 
L 145.115591 51.110381 
L 147.512155 55.397511 
L 149.908719 66.101883 
L 152.305284 67.043485 
L 154.701848 67.534537 
L 157.098412 79.563074 
L 159.494976 78.574816 
L 161.89154 93.156925 
L 164.288104 93.69098 
L 166.684668 95.581851 
L 169.081232 91.451038 
L 171.477796 77.776249 
L 173.87436 79.951897 
L 176.270924 81.946317 
L 178.667488 67.764972 
L 181.064052 63.087974 
L 183.460616 68.172889 
L 185.85718 67.031153 
L 188.253745 64.968689 
L 190.650309 63.6053 
L 193.046873 60.25636 
L 195.443437 69.997784 
L 197.840001 68.709141 
L 200.236565 69.621653 
L 202.633129 79.299254 
L 205.029693 71.248012 
L 209.822821 70.285576 
L 212.219385 77.8383 
L 214.615949 77.008444 
L 217.012513 78.826255 
L 219.409077 91.603488 
L 221.805641 88.17936 
L 224.202206 79.396681 
L 226.59877 84.63948 
L 228.995334 86.17718 
L 231.391898 80.515306 
L 233.788462 82.016704 
L 236.185026 87.440193 
L 238.58159 84.407445 
L 240.978154 84.105973 
L 243.374718 70.919545 
L 245.771282 74.637811 
L 248.167846 59.512553 
L 250.56441 59.262606 
L 252.960974 64.08855 
L 255.357538 78.163497 
L 257.754102 78.901845 
L 260.150666 85.566355 
L 262.547231 81.257394 
L 264.943795 88.685684 
L 267.340359 86.245172 
L 269.736923 85.025859 
L 272.133487 82.82315 
L 274.530051 87.316486 
L 276.926615 86.364513 
L 279.323179 97.774449 
L 281.719743 90.880899 
L 284.116307 101.50269 
L 286.512871 103.353156 
L 288.909435 105.553005 
L 291.305999 112.91063 
L 293.702563 112.55478 
L 296.099127 121.188989 
L 298.495692 108.497962 
L 300.892256 113.663716 
L 303.28882 112.939071 
L 305.685384 115.466721 
L 308.081948 125.952786 
L 310.478512 129.967556 
L 312.875076 127.283356 
L 315.27164 117.290449 
L 320.064768 129.937923 
L 322.461332 126.861658 
L 324.857896 125.058099 
L 327.25446 119.440612 
L 329.651024 129.174233 
L 332.047588 126.344875 
L 334.444153 119.038438 
L 336.840717 124.502222 
L 339.237281 134.288489 
L 341.633845 138.952663 
L 344.030409 137.263754 
L 346.426973 137.63619 
L 348.823537 142.703226 
L 348.823537 142.703226 
" style="fill:none;stroke:#ca9161;stroke-linecap:round;stroke-width:1.5;"/>
   </g>
   <g id="line2d_25">
    <path clip-path="url(#pd846f2ff46)" d="M 44.459901 92.966974 
L 46.856465 90.854921 
L 49.253029 106.100007 
L 51.649593 101.647996 
L 54.046157 94.100658 
L 56.442721 95.440224 
L 58.839285 95.23152 
L 61.235849 88.947046 
L 63.632413 90.400167 
L 66.028977 79.517178 
L 68.425541 73.86634 
L 70.822105 64.289384 
L 73.218669 61.764607 
L 75.615233 55.301709 
L 78.011797 79.794872 
L 80.408362 88.281036 
L 82.804926 94.214213 
L 85.20149 102.435407 
L 87.598054 96.076672 
L 89.994618 91.122002 
L 92.391182 98.085033 
L 94.787746 110.845594 
L 97.18431 110.311899 
L 99.580874 122.349396 
L 101.977438 124.962283 
L 104.374002 105.469223 
L 106.770566 96.572545 
L 109.16713 98.853701 
L 111.563694 96.784956 
L 113.960258 90.933123 
L 116.356823 80.23865 
L 118.753387 73.396459 
L 121.149951 67.265578 
L 123.546515 69.256684 
L 125.943079 58.257615 
L 128.339643 70.918434 
L 130.736207 66.978359 
L 133.132771 60.584818 
L 135.529335 59.12859 
L 137.925899 63.211457 
L 140.322463 55.25439 
L 142.719027 65.760982 
L 145.115591 57.237798 
L 147.512155 64.095269 
L 149.908719 64.995705 
L 152.305284 59.583411 
L 154.701848 58.439356 
L 157.098412 54.54402 
L 159.494976 56.252181 
L 161.89154 53.698478 
L 164.288104 54.115618 
L 166.684668 48.567834 
L 169.081232 36.907096 
L 171.477796 37.085213 
L 173.87436 31.862996 
L 176.270924 35.48657 
L 178.667488 29.800874 
L 181.064052 38.544895 
L 183.460616 39.060646 
L 185.85718 42.252239 
L 188.253745 43.971432 
L 190.650309 49.254505 
L 193.046873 52.402557 
L 195.443437 51.33179 
L 197.840001 67.324188 
L 200.236565 73.514276 
L 202.633129 54.122039 
L 205.029693 61.87847 
L 207.426257 54.795315 
L 209.822821 61.789867 
L 212.219385 59.648912 
L 214.615949 65.835216 
L 217.012513 62.334569 
L 219.409077 73.634209 
L 221.805641 66.33616 
L 224.202206 67.28184 
L 226.59877 62.107682 
L 228.995334 51.174598 
L 231.391898 47.700418 
L 233.788462 46.393973 
L 236.185026 51.894002 
L 238.58159 52.186854 
L 240.978154 63.891396 
L 243.374718 71.988466 
L 245.771282 70.600781 
L 250.56441 90.518452 
L 252.960974 76.645932 
L 255.357538 67.055935 
L 257.754102 67.473804 
L 260.150666 71.168239 
L 262.547231 56.39618 
L 264.943795 63.461738 
L 267.340359 60.962952 
L 269.736923 61.130617 
L 272.133487 60.898897 
L 274.530051 65.017436 
L 276.926615 63.423922 
L 279.323179 64.641722 
L 281.719743 51.476843 
L 284.116307 50.824893 
L 286.512871 60.967312 
L 288.909435 64.154916 
L 291.305999 60.246037 
L 293.702563 59.03786 
L 296.099127 59.497903 
L 298.495692 69.808949 
L 300.892256 63.100648 
L 303.28882 67.234476 
L 305.685384 64.259979 
L 308.081948 71.333647 
L 310.478512 72.203738 
L 312.875076 87.29805 
L 317.668204 70.984511 
L 320.064768 69.000658 
L 322.461332 74.527095 
L 324.857896 73.926742 
L 327.25446 79.17366 
L 329.651024 75.201326 
L 332.047588 81.47367 
L 334.444153 85.615941 
L 336.840717 81.3397 
L 339.237281 62.925974 
L 341.633845 67.421638 
L 344.030409 54.346486 
L 346.426973 57.154493 
L 348.823537 57.742901 
L 348.823537 57.742901 
" style="fill:none;stroke:#fbafe4;stroke-linecap:round;stroke-width:1.5;"/>
   </g>
   <g id="line2d_26">
    <path clip-path="url(#pd846f2ff46)" d="M 44.459901 70.581362 
L 46.856465 76.866678 
L 49.253029 73.341346 
L 51.649593 83.493572 
L 54.046157 86.413096 
L 56.442721 82.725447 
L 58.839285 82.626276 
L 61.235849 81.346587 
L 63.632413 96.599593 
L 66.028977 99.701309 
L 68.425541 94.702038 
L 70.822105 98.931217 
L 73.218669 104.144442 
L 75.615233 98.599988 
L 78.011797 101.972 
L 80.408362 103.18228 
L 82.804926 93.589402 
L 85.20149 95.244247 
L 87.598054 110.891679 
L 89.994618 115.620117 
L 92.391182 111.473027 
L 94.787746 118.014402 
L 97.18431 118.8622 
L 99.580874 113.644365 
L 101.977438 122.113029 
L 104.374002 128.0756 
L 106.770566 126.361004 
L 109.16713 140.745432 
L 111.563694 144.092574 
L 113.960258 145.125866 
L 116.356823 143.874649 
L 118.753387 138.676658 
L 121.149951 130.734369 
L 123.546515 121.142537 
L 125.943079 131.029231 
L 128.339643 130.371537 
L 130.736207 143.217521 
L 133.132771 131.848265 
L 135.529335 141.282803 
L 137.925899 133.034053 
L 140.322463 128.843188 
L 142.719027 142.728757 
L 145.115591 140.28643 
L 147.512155 145.497385 
L 149.908719 150.107915 
L 154.701848 145.045929 
L 157.098412 147.189356 
L 159.494976 154.668974 
L 161.89154 154.065778 
L 164.288104 150.441906 
L 166.684668 153.520671 
L 169.081232 158.393417 
L 171.477796 156.990001 
L 173.87436 154.32837 
L 176.270924 154.99371 
L 178.667488 142.421408 
L 181.064052 141.043222 
L 183.460616 135.957461 
L 185.85718 154.658661 
L 188.253745 158.650088 
L 190.650309 160.915547 
L 193.046873 152.369536 
L 195.443437 148.597157 
L 197.840001 142.57725 
L 200.236565 148.505376 
L 202.633129 145.010633 
L 205.029693 149.400281 
L 207.426257 157.17335 
L 209.822821 164.107233 
L 212.219385 169.570663 
L 214.615949 180.861498 
L 217.012513 185.790742 
L 219.409077 182.33372 
L 221.805641 191.497363 
L 224.202206 201.956088 
L 226.59877 203.858874 
L 228.995334 216.5679 
L 231.391898 212.261709 
L 233.788462 207.469219 
L 236.185026 200.201302 
L 238.58159 202.231923 
L 240.978154 199.352703 
L 243.374718 199.301755 
L 245.771282 193.896902 
L 248.167846 198.600644 
L 250.56441 200.705616 
L 252.960974 187.868859 
L 255.357538 185.668981 
L 257.754102 197.751592 
L 260.150666 193.022861 
L 262.547231 201.346437 
L 264.943795 196.868094 
L 267.340359 183.055942 
L 269.736923 186.201371 
L 272.133487 180.82309 
L 274.530051 175.929605 
L 276.926615 184.306817 
L 279.323179 180.719388 
L 281.719743 183.579107 
L 284.116307 186.996844 
L 286.512871 184.872163 
L 288.909435 171.974263 
L 293.702563 177.424918 
L 296.099127 176.216214 
L 298.495692 168.02567 
L 300.892256 178.493496 
L 303.28882 185.646958 
L 305.685384 176.123708 
L 308.081948 181.335555 
L 310.478512 183.904859 
L 312.875076 178.513024 
L 315.27164 166.31924 
L 317.668204 166.26744 
L 320.064768 163.181027 
L 322.461332 137.539955 
L 324.857896 139.616317 
L 327.25446 145.41223 
L 329.651024 144.118107 
L 332.047588 145.264917 
L 334.444153 143.126108 
L 336.840717 151.4678 
L 339.237281 147.344836 
L 341.633845 140.364762 
L 344.030409 130.038031 
L 346.426973 139.891907 
L 348.823537 130.873686 
L 348.823537 130.873686 
" style="fill:none;stroke:#949494;stroke-linecap:round;stroke-width:1.5;"/>
   </g>
   <g id="line2d_27">
    <path clip-path="url(#pd846f2ff46)" d="M 44.459901 107.880789 
L 46.856465 98.370146 
L 49.253029 105.67067 
L 51.649593 110.529635 
L 54.046157 114.434822 
L 56.442721 115.117808 
L 58.839285 116.508195 
L 61.235849 103.674245 
L 63.632413 103.104612 
L 66.028977 101.909496 
L 68.425541 91.408096 
L 70.822105 93.177122 
L 73.218669 104.431005 
L 75.615233 96.751901 
L 78.011797 88.655095 
L 80.408362 93.647179 
L 82.804926 82.52479 
L 85.20149 81.479934 
L 87.598054 88.208719 
L 89.994618 89.871688 
L 92.391182 97.356242 
L 94.787746 100.659383 
L 97.18431 105.867899 
L 99.580874 96.325665 
L 101.977438 89.889717 
L 104.374002 87.835157 
L 106.770566 92.471476 
L 109.16713 83.006845 
L 111.563694 87.601346 
L 113.960258 83.267536 
L 116.356823 95.407144 
L 118.753387 99.911508 
L 121.149951 106.28156 
L 123.546515 96.083409 
L 125.943079 116.44861 
L 128.339643 113.866845 
L 130.736207 113.033016 
L 133.132771 121.810049 
L 135.529335 119.000532 
L 137.925899 116.929582 
L 140.322463 116.496208 
L 142.719027 127.226558 
L 145.115591 124.413903 
L 147.512155 137.722476 
L 149.908719 143.537825 
L 152.305284 146.831968 
L 154.701848 146.07663 
L 157.098412 135.640023 
L 159.494976 131.925508 
L 161.89154 125.094438 
L 164.288104 113.387357 
L 166.684668 114.886134 
L 169.081232 106.700935 
L 171.477796 110.420475 
L 173.87436 93.173424 
L 176.270924 90.444452 
L 178.667488 86.518043 
L 181.064052 92.836671 
L 183.460616 95.78674 
L 185.85718 100.436615 
L 188.253745 86.675165 
L 190.650309 87.053768 
L 193.046873 86.517446 
L 195.443437 95.972388 
L 197.840001 88.85134 
L 200.236565 100.922201 
L 202.633129 98.260809 
L 205.029693 100.695899 
L 207.426257 85.994443 
L 209.822821 86.304409 
L 212.219385 92.966074 
L 214.615949 82.981313 
L 217.012513 82.993277 
L 219.409077 82.598709 
L 221.805641 98.01156 
L 224.202206 103.19337 
L 226.59877 89.304667 
L 228.995334 83.848042 
L 231.391898 73.21848 
L 233.788462 79.378285 
L 236.185026 78.166417 
L 238.58159 82.008384 
L 240.978154 70.636416 
L 243.374718 77.238799 
L 245.771282 68.522424 
L 248.167846 76.454255 
L 250.56441 72.491467 
L 252.960974 65.1151 
L 255.357538 72.813832 
L 257.754102 77.999639 
L 260.150666 81.515864 
L 262.547231 86.071788 
L 264.943795 81.096993 
L 267.340359 89.570363 
L 269.736923 93.396965 
L 272.133487 93.829751 
L 274.530051 99.940234 
L 276.926615 93.070659 
L 279.323179 80.18692 
L 281.719743 85.990903 
L 284.116307 90.800807 
L 286.512871 95.252773 
L 288.909435 98.607089 
L 291.305999 95.130365 
L 293.702563 92.143189 
L 296.099127 90.18606 
L 298.495692 90.729162 
L 300.892256 88.282169 
L 303.28882 84.095524 
L 305.685384 102.307722 
L 308.081948 100.001982 
L 310.478512 113.610838 
L 312.875076 107.213094 
L 315.27164 102.937995 
L 317.668204 97.430314 
L 320.064768 111.5421 
L 322.461332 106.459443 
L 324.857896 109.788498 
L 327.25446 107.479695 
L 329.651024 102.964771 
L 332.047588 101.031104 
L 334.444153 105.811707 
L 336.840717 111.629385 
L 339.237281 107.156597 
L 341.633845 97.664109 
L 344.030409 91.339369 
L 346.426973 98.658064 
L 348.823537 90.916499 
L 348.823537 90.916499 
" style="fill:none;stroke:#ece133;stroke-linecap:round;stroke-width:1.5;"/>
   </g>
   <g id="line2d_28">
    <path clip-path="url(#pd846f2ff46)" d="M 44.459901 153.134161 
L 46.856465 153.783169 
L 49.253029 153.072461 
L 51.649593 145.779346 
L 54.046157 141.496021 
L 56.442721 143.794289 
L 58.839285 157.530412 
L 63.632413 129.469069 
L 66.028977 134.567351 
L 68.425541 129.345118 
L 70.822105 126.223081 
L 73.218669 123.312509 
L 75.615233 133.406736 
L 78.011797 128.483581 
L 80.408362 126.625383 
L 82.804926 128.203354 
L 85.20149 130.840219 
L 87.598054 130.228424 
L 89.994618 129.838694 
L 92.391182 125.296889 
L 94.787746 127.551093 
L 97.18431 129.068271 
L 99.580874 135.84651 
L 101.977438 126.123981 
L 106.770566 139.302108 
L 109.16713 144.265035 
L 111.563694 147.073943 
L 113.960258 146.651114 
L 118.753387 164.83311 
L 121.149951 164.11194 
L 123.546515 153.136528 
L 125.943079 155.700244 
L 128.339643 157.665458 
L 130.736207 151.840208 
L 133.132771 148.243934 
L 135.529335 133.274628 
L 140.322463 125.039232 
L 142.719027 128.610717 
L 145.115591 117.333994 
L 147.512155 113.258583 
L 149.908719 118.592446 
L 152.305284 119.322345 
L 154.701848 106.360137 
L 157.098412 108.279249 
L 159.494976 107.981764 
L 161.89154 105.473608 
L 164.288104 114.128893 
L 166.684668 121.919027 
L 169.081232 117.942529 
L 171.477796 114.550169 
L 173.87436 119.126078 
L 176.270924 119.478182 
L 178.667488 120.662803 
L 181.064052 122.456754 
L 183.460616 119.6065 
L 185.85718 125.716017 
L 188.253745 127.591847 
L 190.650309 112.654255 
L 193.046873 111.015064 
L 195.443437 104.599152 
L 197.840001 114.782977 
L 200.236565 119.9652 
L 202.633129 119.819883 
L 205.029693 125.169827 
L 207.426257 118.265477 
L 209.822821 112.06649 
L 212.219385 105.109482 
L 214.615949 100.551569 
L 217.012513 82.795962 
L 219.409077 83.068078 
L 221.805641 74.011878 
L 224.202206 65.698922 
L 226.59877 58.935395 
L 228.995334 72.3583 
L 231.391898 70.597838 
L 233.788462 79.730048 
L 236.185026 82.841345 
L 238.58159 82.834336 
L 240.978154 89.109092 
L 243.374718 85.508032 
L 245.771282 86.481939 
L 248.167846 79.003971 
L 250.56441 83.749238 
L 252.960974 80.196599 
L 255.357538 79.256914 
L 257.754102 79.196067 
L 260.150666 64.505686 
L 262.547231 59.919727 
L 264.943795 57.270356 
L 267.340359 51.407115 
L 272.133487 64.005997 
L 274.530051 61.959017 
L 276.926615 72.032851 
L 279.323179 69.852807 
L 281.719743 71.737037 
L 284.116307 59.583722 
L 286.512871 42.625285 
L 288.909435 52.561215 
L 291.305999 42.777479 
L 293.702563 50.520505 
L 296.099127 61.782401 
L 298.495692 60.658791 
L 300.892256 56.67224 
L 303.28882 53.983312 
L 305.685384 50.820834 
L 308.081948 56.972987 
L 310.478512 48.149706 
L 312.875076 49.914716 
L 315.27164 47.297375 
L 317.668204 48.90627 
L 320.064768 49.269912 
L 322.461332 51.902169 
L 324.857896 55.996167 
L 327.25446 45.509341 
L 329.651024 42.721307 
L 332.047588 36.330533 
L 334.444153 35.755397 
L 336.840717 25.754531 
L 339.237281 34.549029 
L 341.633845 29.753838 
L 344.030409 18.895173 
L 346.426973 31.852869 
L 348.823537 38.498426 
L 348.823537 38.498426 
" style="fill:none;stroke:#56b4e9;stroke-linecap:round;stroke-width:1.5;"/>
   </g>
   <g id="patch_3">
    <path d="M 29.241719 226.451536 
L 29.241719 9.011536 
" style="fill:none;stroke:#262626;stroke-linecap:square;stroke-linejoin:miter;stroke-width:1.25;"/>
   </g>
   <g id="patch_4">
    <path d="M 364.041719 226.451536 
L 364.041719 9.011536 
" style="fill:none;stroke:#262626;stroke-linecap:square;stroke-linejoin:miter;stroke-width:1.25;"/>
   </g>
   <g id="patch_5">
    <path d="M 29.241719 226.451536 
L 364.041719 226.451536 
" style="fill:none;stroke:#262626;stroke-linecap:square;stroke-linejoin:miter;stroke-width:1.25;"/>
   </g>
   <g id="patch_6">
    <path d="M 29.241719 9.011536 
L 364.041719 9.011536 
" style="fill:none;stroke:#262626;stroke-linecap:square;stroke-linejoin:miter;stroke-width:1.25;"/>
   </g>
  </g>
 </g>
 <defs>
  <clipPath id="pd846f2ff46">
   <rect height="217.44" width="334.8" x="29.241719" y="9.011536"/>
  </clipPath>
 </defs>
</svg>
