<?xml version="1.0" encoding="utf-8" standalone="no"?>
<!DOCTYPE svg PUBLIC "-//W3C//DTD SVG 1.1//EN"
  "http://www.w3.org/Graphics/SVG/1.1/DTD/svg11.dtd">
<svg height="266.799844pt" version="1.1" viewBox="0 0 400.915781 266.799844" width="400.915781pt" xmlns="http://www.w3.org/2000/svg" xmlns:xlink="http://www.w3.org/1999/xlink">
 <metadata>
  <rdf:RDF xmlns:cc="http://creativecommons.org/ns#" xmlns:dc="http://purl.org/dc/elements/1.1/" xmlns:rdf="http://www.w3.org/1999/02/22-rdf-syntax-ns#">
   <cc:Work>
    <dc:type rdf:resource="http://purl.org/dc/dcmitype/StillImage"/>
    <dc:date>2021-11-04T22:43:34.393210</dc:date>
    <dc:format>image/svg+xml</dc:format>
    <dc:creator>
     <cc:Agent>
      <dc:title>Matplotlib v3.4.3, https://matplotlib.org/</dc:title>
     </cc:Agent>
    </dc:creator>
   </cc:Work>
  </rdf:RDF>
 </metadata>
 <defs>
  <style type="text/css">*{stroke-linecap:butt;stroke-linejoin:round;}</style>
 </defs>
 <g id="figure_1">
  <g id="patch_1">
   <path d="M 0 266.799844 
L 400.915781 266.799844 
L 400.915781 0 
L 0 0 
z
" style="fill:#ffffff;"/>
  </g>
  <g id="axes_1">
   <g id="patch_2">
    <path d="M 58.915781 224.64 
L 393.715781 224.64 
L 393.715781 7.2 
L 58.915781 7.2 
z
" style="fill:#ffffff;"/>
   </g>
   <g id="matplotlib.axis_1">
    <g id="xtick_1">
     <g id="line2d_1">
      <defs>
       <path d="M 0 0 
L 0 6 
" id="m8d560f8ca8" style="stroke:#262626;stroke-width:1.25;"/>
      </defs>
      <g>
       <use style="fill:#262626;stroke:#262626;stroke-width:1.25;" x="104.171795" xlink:href="#m8d560f8ca8" y="224.64"/>
      </g>
     </g>
     <g id="text_1">
      <!-- −10000 -->
      <g style="fill:#262626;" transform="translate(85.666873 242.013594)scale(0.11 -0.11)">
       <defs>
        <path d="M 3381 1997 
L 356 1997 
L 356 2522 
L 3381 2522 
L 3381 1997 
z
" id="ArialMT-2212" transform="scale(0.015625)"/>
        <path d="M 2384 0 
L 1822 0 
L 1822 3584 
Q 1619 3391 1289 3197 
Q 959 3003 697 2906 
L 697 3450 
Q 1169 3672 1522 3987 
Q 1875 4303 2022 4600 
L 2384 4600 
L 2384 0 
z
" id="ArialMT-31" transform="scale(0.015625)"/>
        <path d="M 266 2259 
Q 266 3072 433 3567 
Q 600 4063 929 4331 
Q 1259 4600 1759 4600 
Q 2128 4600 2406 4451 
Q 2684 4303 2865 4023 
Q 3047 3744 3150 3342 
Q 3253 2941 3253 2259 
Q 3253 1453 3087 958 
Q 2922 463 2592 192 
Q 2263 -78 1759 -78 
Q 1097 -78 719 397 
Q 266 969 266 2259 
z
M 844 2259 
Q 844 1131 1108 757 
Q 1372 384 1759 384 
Q 2147 384 2411 759 
Q 2675 1134 2675 2259 
Q 2675 3391 2411 3762 
Q 2147 4134 1753 4134 
Q 1366 4134 1134 3806 
Q 844 3388 844 2259 
z
" id="ArialMT-30" transform="scale(0.015625)"/>
       </defs>
       <use xlink:href="#ArialMT-2212"/>
       <use x="58.398438" xlink:href="#ArialMT-31"/>
       <use x="114.013672" xlink:href="#ArialMT-30"/>
       <use x="169.628906" xlink:href="#ArialMT-30"/>
       <use x="225.244141" xlink:href="#ArialMT-30"/>
       <use x="280.859375" xlink:href="#ArialMT-30"/>
      </g>
     </g>
    </g>
    <g id="xtick_2">
     <g id="line2d_2">
      <g>
       <use style="fill:#262626;stroke:#262626;stroke-width:1.25;" x="150.105451" xlink:href="#m8d560f8ca8" y="224.64"/>
      </g>
     </g>
     <g id="text_2">
      <!-- −8000 -->
      <g style="fill:#262626;" transform="translate(134.659045 242.013594)scale(0.11 -0.11)">
       <defs>
        <path d="M 1131 2484 
Q 781 2613 612 2850 
Q 444 3088 444 3419 
Q 444 3919 803 4259 
Q 1163 4600 1759 4600 
Q 2359 4600 2725 4251 
Q 3091 3903 3091 3403 
Q 3091 3084 2923 2848 
Q 2756 2613 2416 2484 
Q 2838 2347 3058 2040 
Q 3278 1734 3278 1309 
Q 3278 722 2862 322 
Q 2447 -78 1769 -78 
Q 1091 -78 675 323 
Q 259 725 259 1325 
Q 259 1772 486 2073 
Q 713 2375 1131 2484 
z
M 1019 3438 
Q 1019 3113 1228 2906 
Q 1438 2700 1772 2700 
Q 2097 2700 2305 2904 
Q 2513 3109 2513 3406 
Q 2513 3716 2298 3927 
Q 2084 4138 1766 4138 
Q 1444 4138 1231 3931 
Q 1019 3725 1019 3438 
z
M 838 1322 
Q 838 1081 952 856 
Q 1066 631 1291 507 
Q 1516 384 1775 384 
Q 2178 384 2440 643 
Q 2703 903 2703 1303 
Q 2703 1709 2433 1975 
Q 2163 2241 1756 2241 
Q 1359 2241 1098 1978 
Q 838 1716 838 1322 
z
" id="ArialMT-38" transform="scale(0.015625)"/>
       </defs>
       <use xlink:href="#ArialMT-2212"/>
       <use x="58.398438" xlink:href="#ArialMT-38"/>
       <use x="114.013672" xlink:href="#ArialMT-30"/>
       <use x="169.628906" xlink:href="#ArialMT-30"/>
       <use x="225.244141" xlink:href="#ArialMT-30"/>
      </g>
     </g>
    </g>
    <g id="xtick_3">
     <g id="line2d_3">
      <g>
       <use style="fill:#262626;stroke:#262626;stroke-width:1.25;" x="196.039108" xlink:href="#m8d560f8ca8" y="224.64"/>
      </g>
     </g>
     <g id="text_3">
      <!-- −6000 -->
      <g style="fill:#262626;" transform="translate(180.592701 242.013594)scale(0.11 -0.11)">
       <defs>
        <path d="M 3184 3459 
L 2625 3416 
Q 2550 3747 2413 3897 
Q 2184 4138 1850 4138 
Q 1581 4138 1378 3988 
Q 1113 3794 959 3422 
Q 806 3050 800 2363 
Q 1003 2672 1297 2822 
Q 1591 2972 1913 2972 
Q 2475 2972 2870 2558 
Q 3266 2144 3266 1488 
Q 3266 1056 3080 686 
Q 2894 316 2569 119 
Q 2244 -78 1831 -78 
Q 1128 -78 684 439 
Q 241 956 241 2144 
Q 241 3472 731 4075 
Q 1159 4600 1884 4600 
Q 2425 4600 2770 4297 
Q 3116 3994 3184 3459 
z
M 888 1484 
Q 888 1194 1011 928 
Q 1134 663 1356 523 
Q 1578 384 1822 384 
Q 2178 384 2434 671 
Q 2691 959 2691 1453 
Q 2691 1928 2437 2201 
Q 2184 2475 1800 2475 
Q 1419 2475 1153 2201 
Q 888 1928 888 1484 
z
" id="ArialMT-36" transform="scale(0.015625)"/>
       </defs>
       <use xlink:href="#ArialMT-2212"/>
       <use x="58.398438" xlink:href="#ArialMT-36"/>
       <use x="114.013672" xlink:href="#ArialMT-30"/>
       <use x="169.628906" xlink:href="#ArialMT-30"/>
       <use x="225.244141" xlink:href="#ArialMT-30"/>
      </g>
     </g>
    </g>
    <g id="xtick_4">
     <g id="line2d_4">
      <g>
       <use style="fill:#262626;stroke:#262626;stroke-width:1.25;" x="241.972764" xlink:href="#m8d560f8ca8" y="224.64"/>
      </g>
     </g>
     <g id="text_4">
      <!-- −4000 -->
      <g style="fill:#262626;" transform="translate(226.526358 242.013594)scale(0.11 -0.11)">
       <defs>
        <path d="M 2069 0 
L 2069 1097 
L 81 1097 
L 81 1613 
L 2172 4581 
L 2631 4581 
L 2631 1613 
L 3250 1613 
L 3250 1097 
L 2631 1097 
L 2631 0 
L 2069 0 
z
M 2069 1613 
L 2069 3678 
L 634 1613 
L 2069 1613 
z
" id="ArialMT-34" transform="scale(0.015625)"/>
       </defs>
       <use xlink:href="#ArialMT-2212"/>
       <use x="58.398438" xlink:href="#ArialMT-34"/>
       <use x="114.013672" xlink:href="#ArialMT-30"/>
       <use x="169.628906" xlink:href="#ArialMT-30"/>
       <use x="225.244141" xlink:href="#ArialMT-30"/>
      </g>
     </g>
    </g>
    <g id="xtick_5">
     <g id="line2d_5">
      <g>
       <use style="fill:#262626;stroke:#262626;stroke-width:1.25;" x="287.90642" xlink:href="#m8d560f8ca8" y="224.64"/>
      </g>
     </g>
     <g id="text_5">
      <!-- −2000 -->
      <g style="fill:#262626;" transform="translate(272.460014 242.013594)scale(0.11 -0.11)">
       <defs>
        <path d="M 3222 541 
L 3222 0 
L 194 0 
Q 188 203 259 391 
Q 375 700 629 1000 
Q 884 1300 1366 1694 
Q 2113 2306 2375 2664 
Q 2638 3022 2638 3341 
Q 2638 3675 2398 3904 
Q 2159 4134 1775 4134 
Q 1369 4134 1125 3890 
Q 881 3647 878 3216 
L 300 3275 
Q 359 3922 746 4261 
Q 1134 4600 1788 4600 
Q 2447 4600 2831 4234 
Q 3216 3869 3216 3328 
Q 3216 3053 3103 2787 
Q 2991 2522 2730 2228 
Q 2469 1934 1863 1422 
Q 1356 997 1212 845 
Q 1069 694 975 541 
L 3222 541 
z
" id="ArialMT-32" transform="scale(0.015625)"/>
       </defs>
       <use xlink:href="#ArialMT-2212"/>
       <use x="58.398438" xlink:href="#ArialMT-32"/>
       <use x="114.013672" xlink:href="#ArialMT-30"/>
       <use x="169.628906" xlink:href="#ArialMT-30"/>
       <use x="225.244141" xlink:href="#ArialMT-30"/>
      </g>
     </g>
    </g>
    <g id="xtick_6">
     <g id="line2d_6">
      <g>
       <use style="fill:#262626;stroke:#262626;stroke-width:1.25;" x="333.840076" xlink:href="#m8d560f8ca8" y="224.64"/>
      </g>
     </g>
     <g id="text_6">
      <!-- 0 -->
      <g style="fill:#262626;" transform="translate(330.781561 242.013594)scale(0.11 -0.11)">
       <use xlink:href="#ArialMT-30"/>
      </g>
     </g>
    </g>
    <g id="xtick_7">
     <g id="line2d_7">
      <g>
       <use style="fill:#262626;stroke:#262626;stroke-width:1.25;" x="379.773733" xlink:href="#m8d560f8ca8" y="224.64"/>
      </g>
     </g>
     <g id="text_7">
      <!-- 2000 -->
      <g style="fill:#262626;" transform="translate(367.53967 242.013594)scale(0.11 -0.11)">
       <use xlink:href="#ArialMT-32"/>
       <use x="55.615234" xlink:href="#ArialMT-30"/>
       <use x="111.230469" xlink:href="#ArialMT-30"/>
       <use x="166.845703" xlink:href="#ArialMT-30"/>
      </g>
     </g>
    </g>
    <g id="text_8">
     <!-- $t - t_\mathrm{ref}$ ($\mathrm{BJD}$) -->
     <g style="fill:#262626;" transform="translate(192.115781 256.959844)scale(0.12 -0.12)">
      <defs>
       <path d="M 2706 3500 
L 2619 3053 
L 1472 3053 
L 1100 1153 
Q 1081 1047 1072 975 
Q 1063 903 1063 863 
Q 1063 663 1183 572 
Q 1303 481 1569 481 
L 2150 481 
L 2053 0 
L 1503 0 
Q 991 0 739 200 
Q 488 400 488 806 
Q 488 878 497 964 
Q 506 1050 525 1153 
L 897 3053 
L 409 3053 
L 500 3500 
L 978 3500 
L 1172 4494 
L 1747 4494 
L 1556 3500 
L 2706 3500 
z
" id="DejaVuSans-Oblique-74" transform="scale(0.015625)"/>
       <path d="M 678 2272 
L 4684 2272 
L 4684 1741 
L 678 1741 
L 678 2272 
z
" id="DejaVuSans-2212" transform="scale(0.015625)"/>
       <path d="M 2631 2963 
Q 2534 3019 2420 3045 
Q 2306 3072 2169 3072 
Q 1681 3072 1420 2755 
Q 1159 2438 1159 1844 
L 1159 0 
L 581 0 
L 581 3500 
L 1159 3500 
L 1159 2956 
Q 1341 3275 1631 3429 
Q 1922 3584 2338 3584 
Q 2397 3584 2469 3576 
Q 2541 3569 2628 3553 
L 2631 2963 
z
" id="DejaVuSans-72" transform="scale(0.015625)"/>
       <path d="M 3597 1894 
L 3597 1613 
L 953 1613 
Q 991 1019 1311 708 
Q 1631 397 2203 397 
Q 2534 397 2845 478 
Q 3156 559 3463 722 
L 3463 178 
Q 3153 47 2828 -22 
Q 2503 -91 2169 -91 
Q 1331 -91 842 396 
Q 353 884 353 1716 
Q 353 2575 817 3079 
Q 1281 3584 2069 3584 
Q 2775 3584 3186 3129 
Q 3597 2675 3597 1894 
z
M 3022 2063 
Q 3016 2534 2758 2815 
Q 2500 3097 2075 3097 
Q 1594 3097 1305 2825 
Q 1016 2553 972 2059 
L 3022 2063 
z
" id="DejaVuSans-65" transform="scale(0.015625)"/>
       <path d="M 2375 4863 
L 2375 4384 
L 1825 4384 
Q 1516 4384 1395 4259 
Q 1275 4134 1275 3809 
L 1275 3500 
L 2222 3500 
L 2222 3053 
L 1275 3053 
L 1275 0 
L 697 0 
L 697 3053 
L 147 3053 
L 147 3500 
L 697 3500 
L 697 3744 
Q 697 4328 969 4595 
Q 1241 4863 1831 4863 
L 2375 4863 
z
" id="DejaVuSans-66" transform="scale(0.015625)"/>
       <path id="ArialMT-20" transform="scale(0.015625)"/>
       <path d="M 1497 -1347 
Q 1031 -759 709 28 
Q 388 816 388 1659 
Q 388 2403 628 3084 
Q 909 3875 1497 4659 
L 1900 4659 
Q 1522 4009 1400 3731 
Q 1209 3300 1100 2831 
Q 966 2247 966 1656 
Q 966 153 1900 -1347 
L 1497 -1347 
z
" id="ArialMT-28" transform="scale(0.015625)"/>
       <path d="M 1259 2228 
L 1259 519 
L 2272 519 
Q 2781 519 3026 730 
Q 3272 941 3272 1375 
Q 3272 1813 3026 2020 
Q 2781 2228 2272 2228 
L 1259 2228 
z
M 1259 4147 
L 1259 2741 
L 2194 2741 
Q 2656 2741 2882 2914 
Q 3109 3088 3109 3444 
Q 3109 3797 2882 3972 
Q 2656 4147 2194 4147 
L 1259 4147 
z
M 628 4666 
L 2241 4666 
Q 2963 4666 3353 4366 
Q 3744 4066 3744 3513 
Q 3744 3084 3544 2831 
Q 3344 2578 2956 2516 
Q 3422 2416 3680 2098 
Q 3938 1781 3938 1306 
Q 3938 681 3513 340 
Q 3088 0 2303 0 
L 628 0 
L 628 4666 
z
" id="DejaVuSans-42" transform="scale(0.015625)"/>
       <path d="M 628 4666 
L 1259 4666 
L 1259 325 
Q 1259 -519 939 -900 
Q 619 -1281 -91 -1281 
L -331 -1281 
L -331 -750 
L -134 -750 
Q 284 -750 456 -515 
Q 628 -281 628 325 
L 628 4666 
z
" id="DejaVuSans-4a" transform="scale(0.015625)"/>
       <path d="M 1259 4147 
L 1259 519 
L 2022 519 
Q 2988 519 3436 956 
Q 3884 1394 3884 2338 
Q 3884 3275 3436 3711 
Q 2988 4147 2022 4147 
L 1259 4147 
z
M 628 4666 
L 1925 4666 
Q 3281 4666 3915 4102 
Q 4550 3538 4550 2338 
Q 4550 1131 3912 565 
Q 3275 0 1925 0 
L 628 0 
L 628 4666 
z
" id="DejaVuSans-44" transform="scale(0.015625)"/>
       <path d="M 791 -1347 
L 388 -1347 
Q 1322 153 1322 1656 
Q 1322 2244 1188 2822 
Q 1081 3291 891 3722 
Q 769 4003 388 4659 
L 791 4659 
Q 1378 3875 1659 3084 
Q 1900 2403 1900 1659 
Q 1900 816 1576 28 
Q 1253 -759 791 -1347 
z
" id="ArialMT-29" transform="scale(0.015625)"/>
      </defs>
      <use transform="translate(0 0.09375)" xlink:href="#DejaVuSans-Oblique-74"/>
      <use transform="translate(58.691406 0.09375)" xlink:href="#DejaVuSans-2212"/>
      <use transform="translate(161.962891 0.09375)" xlink:href="#DejaVuSans-Oblique-74"/>
      <use transform="translate(201.171875 -16.3125)scale(0.7)" xlink:href="#DejaVuSans-72"/>
      <use transform="translate(229.951172 -16.3125)scale(0.7)" xlink:href="#DejaVuSans-65"/>
      <use transform="translate(273.017578 -16.3125)scale(0.7)" xlink:href="#DejaVuSans-66"/>
      <use transform="translate(300.395508 0.09375)" xlink:href="#ArialMT-20"/>
      <use transform="translate(328.178711 0.09375)" xlink:href="#ArialMT-28"/>
      <use transform="translate(361.479492 0.09375)" xlink:href="#DejaVuSans-42"/>
      <use transform="translate(430.083008 0.09375)" xlink:href="#DejaVuSans-4a"/>
      <use transform="translate(459.575195 0.09375)" xlink:href="#DejaVuSans-44"/>
      <use transform="translate(536.577148 0.09375)" xlink:href="#ArialMT-29"/>
     </g>
    </g>
   </g>
   <g id="matplotlib.axis_2">
    <g id="ytick_1">
     <g id="line2d_8">
      <defs>
       <path d="M 0 0 
L -6 0 
" id="ma662330b37" style="stroke:#262626;stroke-width:1.25;"/>
      </defs>
      <g>
       <use style="fill:#262626;stroke:#262626;stroke-width:1.25;" x="58.915781" xlink:href="#ma662330b37" y="195.312432"/>
      </g>
     </g>
     <g id="text_9">
      <!-- −200 -->
      <g style="fill:#262626;" transform="translate(24.64 199.249229)scale(0.11 -0.11)">
       <use xlink:href="#ArialMT-2212"/>
       <use x="58.398438" xlink:href="#ArialMT-32"/>
       <use x="114.013672" xlink:href="#ArialMT-30"/>
       <use x="169.628906" xlink:href="#ArialMT-30"/>
      </g>
     </g>
    </g>
    <g id="ytick_2">
     <g id="line2d_9">
      <g>
       <use style="fill:#262626;stroke:#262626;stroke-width:1.25;" x="58.915781" xlink:href="#ma662330b37" y="151.548531"/>
      </g>
     </g>
     <g id="text_10">
      <!-- −100 -->
      <g style="fill:#262626;" transform="translate(24.64 155.485327)scale(0.11 -0.11)">
       <use xlink:href="#ArialMT-2212"/>
       <use x="58.398438" xlink:href="#ArialMT-31"/>
       <use x="114.013672" xlink:href="#ArialMT-30"/>
       <use x="169.628906" xlink:href="#ArialMT-30"/>
      </g>
     </g>
    </g>
    <g id="ytick_3">
     <g id="line2d_10">
      <g>
       <use style="fill:#262626;stroke:#262626;stroke-width:1.25;" x="58.915781" xlink:href="#ma662330b37" y="107.78463"/>
      </g>
     </g>
     <g id="text_11">
      <!-- 0 -->
      <g style="fill:#262626;" transform="translate(43.29875 111.721426)scale(0.11 -0.11)">
       <use xlink:href="#ArialMT-30"/>
      </g>
     </g>
    </g>
    <g id="ytick_4">
     <g id="line2d_11">
      <g>
       <use style="fill:#262626;stroke:#262626;stroke-width:1.25;" x="58.915781" xlink:href="#ma662330b37" y="64.020728"/>
      </g>
     </g>
     <g id="text_12">
      <!-- 100 -->
      <g style="fill:#262626;" transform="translate(31.064688 67.957525)scale(0.11 -0.11)">
       <use xlink:href="#ArialMT-31"/>
       <use x="55.615234" xlink:href="#ArialMT-30"/>
       <use x="111.230469" xlink:href="#ArialMT-30"/>
      </g>
     </g>
    </g>
    <g id="ytick_5">
     <g id="line2d_12">
      <g>
       <use style="fill:#262626;stroke:#262626;stroke-width:1.25;" x="58.915781" xlink:href="#ma662330b37" y="20.256827"/>
      </g>
     </g>
     <g id="text_13">
      <!-- 200 -->
      <g style="fill:#262626;" transform="translate(31.064688 24.193624)scale(0.11 -0.11)">
       <use xlink:href="#ArialMT-32"/>
       <use x="55.615234" xlink:href="#ArialMT-30"/>
       <use x="111.230469" xlink:href="#ArialMT-30"/>
      </g>
     </g>
    </g>
    <g id="text_14">
     <!-- $v_r$ ($\mathrm{m} \, \mathrm{s}^{-1}$) -->
     <g style="fill:#262626;" transform="translate(18 143.4)rotate(-90)scale(0.12 -0.12)">
      <defs>
       <path d="M 459 3500 
L 1069 3500 
L 1581 525 
L 3256 3500 
L 3866 3500 
L 1875 0 
L 1100 0 
L 459 3500 
z
" id="DejaVuSans-Oblique-76" transform="scale(0.015625)"/>
       <path d="M 2853 2969 
Q 2766 3016 2653 3041 
Q 2541 3066 2413 3066 
Q 1953 3066 1609 2717 
Q 1266 2369 1153 1784 
L 800 0 
L 225 0 
L 909 3500 
L 1484 3500 
L 1375 2956 
Q 1603 3259 1920 3421 
Q 2238 3584 2597 3584 
Q 2691 3584 2781 3573 
Q 2872 3563 2963 3538 
L 2853 2969 
z
" id="DejaVuSans-Oblique-72" transform="scale(0.015625)"/>
       <path d="M 3328 2828 
Q 3544 3216 3844 3400 
Q 4144 3584 4550 3584 
Q 5097 3584 5394 3201 
Q 5691 2819 5691 2113 
L 5691 0 
L 5113 0 
L 5113 2094 
Q 5113 2597 4934 2840 
Q 4756 3084 4391 3084 
Q 3944 3084 3684 2787 
Q 3425 2491 3425 1978 
L 3425 0 
L 2847 0 
L 2847 2094 
Q 2847 2600 2669 2842 
Q 2491 3084 2119 3084 
Q 1678 3084 1418 2786 
Q 1159 2488 1159 1978 
L 1159 0 
L 581 0 
L 581 3500 
L 1159 3500 
L 1159 2956 
Q 1356 3278 1631 3431 
Q 1906 3584 2284 3584 
Q 2666 3584 2933 3390 
Q 3200 3197 3328 2828 
z
" id="DejaVuSans-6d" transform="scale(0.015625)"/>
       <path d="M 2834 3397 
L 2834 2853 
Q 2591 2978 2328 3040 
Q 2066 3103 1784 3103 
Q 1356 3103 1142 2972 
Q 928 2841 928 2578 
Q 928 2378 1081 2264 
Q 1234 2150 1697 2047 
L 1894 2003 
Q 2506 1872 2764 1633 
Q 3022 1394 3022 966 
Q 3022 478 2636 193 
Q 2250 -91 1575 -91 
Q 1294 -91 989 -36 
Q 684 19 347 128 
L 347 722 
Q 666 556 975 473 
Q 1284 391 1588 391 
Q 1994 391 2212 530 
Q 2431 669 2431 922 
Q 2431 1156 2273 1281 
Q 2116 1406 1581 1522 
L 1381 1569 
Q 847 1681 609 1914 
Q 372 2147 372 2553 
Q 372 3047 722 3315 
Q 1072 3584 1716 3584 
Q 2034 3584 2315 3537 
Q 2597 3491 2834 3397 
z
" id="DejaVuSans-73" transform="scale(0.015625)"/>
       <path d="M 794 531 
L 1825 531 
L 1825 4091 
L 703 3866 
L 703 4441 
L 1819 4666 
L 2450 4666 
L 2450 531 
L 3481 531 
L 3481 0 
L 794 0 
L 794 531 
z
" id="DejaVuSans-31" transform="scale(0.015625)"/>
      </defs>
      <use transform="translate(0 0.684375)" xlink:href="#DejaVuSans-Oblique-76"/>
      <use transform="translate(59.179688 -15.721875)scale(0.7)" xlink:href="#DejaVuSans-Oblique-72"/>
      <use transform="translate(90.693359 0.684375)" xlink:href="#ArialMT-20"/>
      <use transform="translate(118.476562 0.684375)" xlink:href="#ArialMT-28"/>
      <use transform="translate(151.777344 0.684375)" xlink:href="#DejaVuSans-6d"/>
      <use transform="translate(265.425129 0.684375)" xlink:href="#DejaVuSans-73"/>
      <use transform="translate(318.48177 38.965625)scale(0.7)" xlink:href="#DejaVuSans-2212"/>
      <use transform="translate(377.134114 38.965625)scale(0.7)" xlink:href="#DejaVuSans-31"/>
      <use transform="translate(424.404622 0.684375)" xlink:href="#ArialMT-29"/>
     </g>
    </g>
   </g>
   <g id="line2d_13">
    <path clip-path="url(#pd5ccb05815)" d="M 74.133963 59.307005 
L 74.665603 64.600435 
L 75.409898 74.573917 
L 76.579505 93.805046 
L 79.450358 142.30322 
L 80.300982 152.710183 
L 80.885785 157.476987 
L 81.311097 159.311242 
L 81.523753 159.619402 
L 81.683245 159.557096 
L 81.8959 159.057271 
L 82.16172 157.721226 
L 82.533868 154.436623 
L 82.959179 148.569801 
L 83.543983 136.898606 
L 84.341442 115.750664 
L 85.883197 74.101902 
L 86.521164 62.793157 
L 86.99964 57.646352 
L 87.371788 55.612242 
L 87.637607 55.151069 
L 87.797099 55.244634 
L 88.009755 55.772753 
L 88.328739 57.358131 
L 88.75405 60.764397 
L 89.338854 67.387874 
L 90.189477 79.829836 
L 91.678068 105.529089 
L 93.645134 138.819328 
L 94.548921 150.772912 
L 95.186889 156.683335 
L 95.6122 159.025632 
L 95.931184 159.761241 
L 96.090676 159.761213 
L 96.250168 159.497637 
L 96.515988 158.437457 
L 96.834971 156.075268 
L 97.260283 150.96706 
L 97.791923 141.394165 
L 98.483054 124.324278 
L 100.609612 68.104422 
L 101.194416 59.591222 
L 101.619727 56.147897 
L 101.938711 55.020532 
L 102.151367 54.914231 
L 102.310859 55.150676 
L 102.576678 56.103253 
L 102.948826 58.490197 
L 103.480466 63.679825 
L 104.224761 73.564229 
L 105.341204 91.813843 
L 108.424713 143.781943 
L 109.222173 153.322461 
L 109.806976 157.967774 
L 110.179124 159.564866 
L 110.444944 159.940874 
L 110.604435 159.829404 
L 110.817091 159.259325 
L 111.082911 157.827407 
L 111.455059 154.39236 
L 111.933534 147.409616 
L 112.518338 135.064491 
L 113.368961 111.584503 
L 114.751224 73.821258 
L 115.389191 62.314611 
L 115.867667 57.11998 
L 116.239815 55.095662 
L 116.505634 54.65883 
L 116.665126 54.77168 
L 116.877782 55.329077 
L 117.196766 56.962329 
L 117.622077 60.432611 
L 118.260045 67.832773 
L 119.163832 81.381081 
L 120.865079 111.123189 
L 122.566325 139.577196 
L 123.470112 151.401272 
L 124.10808 157.181931 
L 124.533391 159.417275 
L 124.799211 160.020592 
L 124.958703 160.056088 
L 125.118195 159.829674 
L 125.330851 159.097251 
L 125.649834 157.017288 
L 126.021982 153.009468 
L 126.500458 145.266864 
L 127.138425 130.686724 
L 128.254868 98.310184 
L 129.211819 73.12307 
L 129.849787 61.734935 
L 130.328262 56.683866 
L 130.70041 54.785988 
L 130.913066 54.445934 
L 131.072558 54.521834 
L 131.285214 55.035606 
L 131.604197 56.614036 
L 132.029509 60.02753 
L 132.614312 66.673052 
L 133.464936 79.146984 
L 134.953526 104.894421 
L 136.973757 139.155555 
L 137.877544 151.112524 
L 138.515511 157.037626 
L 138.940823 159.397484 
L 139.259807 160.150023 
L 139.419299 160.159296 
L 139.57879 159.905253 
L 139.84461 158.860469 
L 140.163594 156.512947 
L 140.588906 151.408045 
L 141.120545 141.785427 
L 141.811676 124.49167 
L 143.938235 67.108574 
L 144.469874 59.207051 
L 144.895186 55.59422 
L 145.214169 54.389858 
L 145.426825 54.250757 
L 145.586317 54.470277 
L 145.852137 55.405981 
L 146.224285 57.785803 
L 146.755924 62.982561 
L 147.50022 72.885721 
L 148.616663 91.159371 
L 151.753336 144.09785 
L 152.550795 153.635273 
L 153.135599 158.288643 
L 153.507746 159.896554 
L 153.773566 160.282707 
L 153.933058 160.177998 
L 154.145714 159.617227 
L 154.411534 158.196209 
L 154.783681 154.770678 
L 155.262157 147.775949 
L 155.84696 135.340014 
L 156.697584 111.485031 
L 158.079846 72.939497 
L 158.717814 61.371618 
L 159.196289 56.276456 
L 159.568437 54.385115 
L 159.781093 54.059606 
L 159.940585 54.149895 
L 160.153241 54.685947 
L 160.472224 56.301199 
L 160.897536 59.763909 
L 161.482339 66.467822 
L 162.332963 78.999106 
L 163.874717 105.740571 
L 165.841784 139.087186 
L 166.745571 151.094923 
L 167.383538 157.083811 
L 167.862014 159.701222 
L 168.127834 160.309405 
L 168.287326 160.348658 
L 168.446817 160.126458 
L 168.659473 159.39997 
L 168.978457 157.327971 
L 169.350605 153.32322 
L 169.82908 145.560152 
L 170.467048 130.86483 
L 171.530327 99.542349 
L 172.540442 72.286415 
L 173.125245 61.598761 
L 173.603721 56.307775 
L 173.975869 54.291981 
L 174.188524 53.905919 
L 174.348016 53.955452 
L 174.560672 54.442884 
L 174.879656 55.996157 
L 175.304967 59.393396 
L 175.889771 66.031999 
L 176.740394 78.504205 
L 178.228985 104.258569 
L 180.302379 139.442621 
L 181.206166 151.370606 
L 181.844134 157.281238 
L 182.269445 159.636874 
L 182.588429 160.389522 
L 182.747921 160.399818 
L 182.907413 160.147314 
L 183.173233 159.105751 
L 183.492216 156.761554 
L 183.917528 151.654219 
L 184.449168 141.998538 
L 185.140299 124.555199 
L 187.320021 65.321641 
L 187.851661 57.851611 
L 188.276972 54.658272 
L 188.542792 53.839935 
L 188.702284 53.751039 
L 188.861776 53.944197 
L 189.127595 54.84707 
L 189.499743 57.197839 
L 190.031383 62.372942 
L 190.775678 72.261531 
L 191.892121 90.523075 
L 195.081958 144.353737 
L 195.879418 153.856859 
L 196.464221 158.490225 
L 196.836369 160.08949 
L 197.102189 160.471694 
L 197.26168 160.365462 
L 197.474336 159.803483 
L 197.740156 158.381755 
L 198.112304 154.954508 
L 198.590779 147.947864 
L 199.175583 135.455577 
L 199.973042 112.978885 
L 201.408469 72.215235 
L 201.993272 61.374094 
L 202.471748 56.031386 
L 202.843896 54.011057 
L 203.056551 53.631915 
L 203.216043 53.689737 
L 203.428699 54.191038 
L 203.747683 55.768396 
L 204.172994 59.19854 
L 204.757798 65.875683 
L 205.608421 78.382706 
L 207.097012 104.152152 
L 209.170406 139.342241 
L 210.074193 151.299885 
L 210.712161 157.254939 
L 211.190636 159.851368 
L 211.456456 160.450249 
L 211.615948 160.484806 
L 211.77544 160.258559 
L 211.988096 159.527593 
L 212.307079 157.450262 
L 212.679227 153.43922 
L 213.157703 145.659879 
L 213.742506 132.298593 
L 214.699457 104.162038 
L 215.8159 72.816973 
L 216.453868 60.91462 
L 216.932343 55.722253 
L 217.304491 53.824984 
L 217.517147 53.514464 
L 217.676639 53.621925 
L 217.889295 54.186205 
L 218.208278 55.849845 
L 218.63359 59.378008 
L 219.271557 66.863749 
L 220.175345 80.489656 
L 221.929755 111.231976 
L 223.631002 139.680176 
L 224.534789 151.54753 
L 225.172756 157.414913 
L 225.598068 159.744569 
L 225.917052 160.48031 
L 226.076543 160.483146 
L 226.236035 160.223884 
L 226.501855 159.172594 
L 226.820839 156.818891 
L 227.24615 151.70033 
L 227.77779 142.023147 
L 228.468921 124.500241 
L 230.648643 64.691364 
L 231.180283 57.288112 
L 231.605595 54.211338 
L 231.871414 53.480386 
L 232.030906 53.44603 
L 232.190398 53.693931 
L 232.456218 54.686025 
L 232.828366 57.15228 
L 233.360005 62.464444 
L 234.104301 72.484108 
L 235.273907 91.762214 
L 238.304253 143.077018 
L 239.154876 153.460673 
L 239.73968 158.256595 
L 240.164991 160.144352 
L 240.430811 160.508382 
L 240.590303 160.392182 
L 240.802959 159.818127 
L 241.068778 158.38336 
L 241.440926 154.941475 
L 241.919402 147.919537 
L 242.504205 135.400061 
L 243.301665 112.811226 
L 244.737091 71.671827 
L 245.321895 60.832028 
L 245.80037 55.583325 
L 246.172518 53.670624 
L 246.385174 53.359042 
L 246.544666 53.468299 
L 246.757322 54.037413 
L 247.076305 55.711359 
L 247.501617 59.254742 
L 248.139584 66.758832 
L 249.043372 80.39481 
L 250.797782 111.119405 
L 252.499029 139.547839 
L 253.402816 151.424326 
L 254.040783 157.317224 
L 254.466095 159.676965 
L 254.785079 160.44374 
L 254.94457 160.46509 
L 255.104062 160.226426 
L 255.316718 159.480303 
L 255.635702 157.383619 
L 256.00785 153.355399 
L 256.486325 145.560785 
L 257.071129 132.178731 
L 257.974916 105.580958 
L 259.144523 72.34175 
L 259.729326 61.2192 
L 260.207802 55.758224 
L 260.57995 53.703813 
L 260.792605 53.32124 
L 260.952097 53.381914 
L 261.164753 53.892174 
L 261.483737 55.489584 
L 261.909048 58.950089 
L 262.493852 65.662095 
L 263.344475 78.192221 
L 264.88623 104.890426 
L 266.90646 139.077753 
L 267.863411 151.643083 
L 268.501379 157.438917 
L 268.92669 159.721085 
L 269.245674 160.422998 
L 269.405166 160.409896 
L 269.564658 160.135544 
L 269.830478 159.061395 
L 270.149461 156.68483 
L 270.574773 151.5448 
L 271.106412 141.854377 
L 271.797544 124.317159 
L 273.977266 64.279183 
L 274.508906 56.947407 
L 274.881053 54.21023 
L 275.146873 53.375307 
L 275.306365 53.28725 
L 275.465857 53.487215 
L 275.731676 54.41056 
L 276.103824 56.799509 
L 276.635464 62.028616 
L 277.379759 71.965577 
L 278.549366 91.158626 
L 281.632875 143.223204 
L 282.483499 153.506951 
L 283.068302 158.228004 
L 283.493614 160.061639 
L 283.759433 160.393414 
L 283.918925 160.258858 
L 284.131581 159.661893 
L 284.397401 158.201684 
L 284.769549 154.73179 
L 285.248024 147.689628 
L 285.832828 135.168462 
L 286.630287 112.580579 
L 288.065714 71.328275 
L 288.650517 60.518921 
L 289.128993 55.355486 
L 289.447977 53.681761 
L 289.660632 53.287634 
L 289.820124 53.342071 
L 290.03278 53.846506 
L 290.351764 55.43883 
L 290.777075 58.895921 
L 291.361879 65.603807 
L 292.212502 78.122376 
L 293.754257 104.782396 
L 295.774487 138.914337 
L 296.731438 151.467628 
L 297.369406 157.270575 
L 297.794717 159.568714 
L 298.113701 160.290463 
L 298.273193 160.290228 
L 298.432685 160.030899 
L 298.698505 158.986908 
L 299.017488 156.655479 
L 299.4428 151.590901 
L 299.974439 142.014665 
L 300.612407 126.13036 
L 302.951621 62.630999 
L 303.430096 56.508999 
L 303.802244 54.001073 
L 304.068064 53.322258 
L 304.227556 53.322957 
L 304.387048 53.60728 
L 304.652867 54.660398 
L 305.025015 57.206774 
L 305.556655 62.611795 
L 306.30095 72.709292 
L 307.470557 92.003685 
L 310.447738 142.297144 
L 311.298362 152.776497 
L 311.883165 157.706175 
L 312.308477 159.739068 
L 312.574297 160.218182 
L 312.733788 160.180858 
L 312.946444 159.723963 
L 313.212264 158.455316 
L 313.584412 155.281831 
L 314.009723 149.536582 
L 314.541363 139.13497 
L 315.232494 120.924708 
L 317.199561 66.048625 
L 317.7312 57.958804 
L 318.156512 54.434833 
L 318.475495 53.388607 
L 318.634987 53.333343 
L 318.794479 53.56567 
L 319.060299 54.540656 
L 319.432447 56.994259 
L 319.964086 62.295678 
L 320.708381 72.292486 
L 321.877988 91.499433 
L 324.908334 142.571669 
L 325.758957 152.935742 
L 326.343761 157.761573 
L 326.769072 159.705888 
L 327.034892 160.124409 
L 327.194384 160.049018 
L 327.40704 159.539682 
L 327.672859 158.203482 
L 328.045007 154.934085 
L 328.470319 149.083143 
L 329.001958 138.569431 
L 329.746254 118.709119 
L 331.553828 67.782293 
L 332.085468 59.025448 
L 332.510779 54.987978 
L 332.829763 53.593553 
L 333.042419 53.374253 
L 333.201911 53.552355 
L 333.414566 54.210623 
L 333.73355 56.008454 
L 334.212026 60.24115 
L 334.849993 68.072184 
L 335.806944 82.832784 
L 339.900569 149.640908 
L 340.5917 156.348168 
L 341.070176 159.132759 
L 341.38916 159.945905 
L 341.548651 159.999078 
L 341.708143 159.798661 
L 341.920799 159.114344 
L 342.239783 157.135498 
L 342.611931 153.285252 
L 343.090406 145.780941 
L 343.67521 132.812394 
L 344.525833 108.35861 
L 345.801768 72.003477 
L 346.386571 60.983081 
L 346.865047 55.665117 
L 347.237195 53.747511 
L 347.44985 53.446724 
L 347.609342 53.568345 
L 347.821998 54.157456 
L 348.140982 55.864206 
L 348.619457 59.985977 
L 349.257425 67.708517 
L 350.214376 82.367178 
L 352.500426 122.275191 
L 353.829525 143.091997 
L 354.680148 153.212331 
L 355.264952 157.819858 
L 355.637099 159.442459 
L 355.902919 159.866472 
L 356.062411 159.797039 
L 356.275067 159.29926 
L 356.540886 157.984156 
L 356.913034 154.758717 
L 357.338346 148.981392 
L 357.869985 138.595297 
L 358.614281 118.954559 
L 360.475019 67.122833 
L 361.006659 58.686311 
L 361.43197 54.897277 
L 361.750954 53.675136 
L 361.910446 53.540404 
L 362.069938 53.698925 
L 362.282593 54.333487 
L 362.601577 56.100201 
L 363.080053 60.293874 
L 363.71802 68.082109 
L 364.674971 82.788343 
L 368.768596 149.385744 
L 369.459727 156.06616 
L 369.938203 158.841373 
L 370.257187 159.655195 
L 370.416678 159.711464 
L 370.57617 159.516324 
L 370.788826 158.842921 
L 371.10781 156.890136 
L 371.479958 153.08763 
L 371.958433 145.676046 
L 372.543237 132.867788 
L 373.39386 108.686475 
L 374.722959 71.278979 
L 375.307762 60.613801 
L 375.786238 55.575829 
L 376.105222 53.992078 
L 376.317877 53.658353 
L 376.477369 53.757175 
L 376.690025 54.318343 
L 377.009009 55.987958 
L 377.43432 59.529077 
L 378.072288 67.017183 
L 378.497599 73.070693 
L 378.497599 73.070693 
" style="fill:none;stroke:#0173b2;stroke-linecap:round;stroke-width:1.5;"/>
   </g>
   <g id="line2d_14">
    <path clip-path="url(#pd5ccb05815)" d="M 74.133963 108.160182 
L 74.187127 132.32636 
L 74.240291 108.954963 
L 74.293455 125.202778 
L 74.346619 115.246422 
L 74.399783 120.546821 
L 74.452947 118.143885 
L 74.612439 120.266187 
L 74.665603 115.343562 
L 74.718767 125.582222 
L 74.771931 107.084932 
L 74.825094 125.251202 
L 74.878258 117.453606 
L 74.931422 121.182883 
L 75.03775 121.301203 
L 75.250406 123.960627 
L 75.728882 129.777615 
L 75.888374 131.935664 
L 75.941538 131.571847 
L 75.994701 134.654474 
L 76.047865 130.546165 
L 76.101029 139.627415 
L 76.154193 127.095652 
L 76.207357 146.168345 
L 76.260521 137.217721 
L 76.313685 124.349386 
L 76.366849 157.919457 
L 76.420013 118.905762 
L 76.473177 142.424469 
L 76.526341 130.416248 
L 76.579505 133.879912 
L 76.738997 131.219116 
L 76.792161 132.041949 
L 76.845325 126.428938 
L 76.898489 136.923576 
L 76.951653 116.081062 
L 77.004817 135.454719 
L 77.057981 126.281318 
L 77.111144 129.900936 
L 77.217472 128.945191 
L 77.376964 129.94464 
L 77.430128 128.947392 
L 77.483292 131.296293 
L 77.536456 126.947824 
L 77.58962 135.235363 
L 77.642784 121.85401 
L 77.695948 141.972014 
L 77.749112 126.480174 
L 77.85544 130.052792 
L 78.014932 125.992376 
L 78.068096 126.802073 
L 78.280751 123.976222 
L 79.60985 110.546049 
L 82.002228 86.317106 
L 82.640196 77.986895 
L 82.69336 79.422041 
L 82.746524 75.045917 
L 82.799688 80.195003 
L 82.852852 71.35526 
L 82.906015 80.174542 
L 83.012343 69.645179 
L 83.065507 76.555732 
L 83.118671 62.509176 
L 83.171835 82.39868 
L 83.224999 45.334942 
L 83.278163 79.083013 
L 83.331327 61.780862 
L 83.384491 68.431193 
L 83.490819 65.413368 
L 83.543983 66.55885 
L 83.597147 64.064912 
L 83.650311 66.832272 
L 83.703475 61.367032 
L 83.756639 69.268763 
L 83.809803 56.064833 
L 83.862967 73.464869 
L 83.916131 52.037417 
L 83.969295 59.686783 
L 84.022459 70.130068 
L 84.075622 59.142972 
L 84.128786 69.982386 
L 84.18195 63.662674 
L 84.235114 68.964225 
L 84.288278 67.213739 
L 84.500934 71.205529 
L 86.202181 92.025486 
L 88.062919 110.847726 
L 89.817329 129.301067 
L 90.880609 142.81832 
L 90.933773 143.787227 
L 90.986936 143.059928 
L 91.0401 147.902329 
L 91.093264 139.876312 
L 91.146428 157.061335 
L 91.199592 130.563609 
L 91.252756 171.79414 
L 91.30592 140.930828 
L 91.412248 149.252708 
L 91.465412 142.62821 
L 91.57174 142.658517 
L 91.624904 144.833947 
L 91.678068 142.507082 
L 91.731232 142.757142 
L 91.997052 139.38461 
L 92.900839 129.582111 
L 92.954003 130.851213 
L 93.007167 126.480435 
L 93.060331 133.329821 
L 93.113495 120.485957 
L 93.166659 131.460028 
L 93.219823 126.704937 
L 93.272986 127.93535 
L 93.32615 128.065302 
L 93.485642 127.293391 
L 93.538806 127.761021 
L 93.59197 127.152664 
L 93.645134 127.889565 
L 93.698298 126.610019 
L 93.751462 128.493612 
L 93.804626 125.733514 
L 93.85779 129.034596 
L 93.910954 127.475743 
L 94.070446 125.878061 
L 94.12361 126.679871 
L 94.176774 125.826881 
L 94.229938 126.000198 
L 94.442593 125.104451 
L 95.346381 122.491037 
L 96.090676 121.007934 
L 96.781807 120.102875 
L 97.366611 119.663471 
L 97.89825 119.512683 
L 98.42989 119.596318 
L 98.96153 119.918422 
L 99.546333 120.560831 
L 100.184301 121.633021 
L 100.769104 122.925479 
L 100.822268 123.34418 
L 100.875432 122.81454 
L 100.928596 124.35371 
L 100.98176 121.982415 
L 101.034924 126.267499 
L 101.088088 120.403446 
L 101.141252 128.129894 
L 101.194416 121.118568 
L 101.24758 123.124768 
L 101.300744 136.933993 
L 101.353907 112.908641 
L 101.407071 130.014805 
L 101.460235 117.187022 
L 101.513399 123.5593 
L 101.672891 118.411419 
L 102.364023 108.238018 
L 103.26781 93.408465 
L 103.320974 95.917561 
L 103.53363 84.941333 
L 103.586794 95.969619 
L 103.639958 87.040039 
L 103.693121 92.973586 
L 103.746285 89.165638 
L 103.799449 91.084217 
L 103.852613 89.976959 
L 103.905777 90.252448 
L 103.958941 90.022919 
L 105.02222 86.657928 
L 105.766516 83.265822 
L 106.563975 78.524778 
L 107.361434 72.413516 
L 108.212058 64.040393 
L 108.637369 58.462585 
L 108.690533 59.693966 
L 108.743697 54.469985 
L 108.796861 62.785874 
L 108.850025 46.205023 
L 108.903189 70.47034 
L 108.956353 34.97146 
L 109.009517 58.241409 
L 109.062681 58.213072 
L 109.115845 52.298586 
L 109.169009 60.863018 
L 109.275337 60.299977 
L 109.328501 58.080699 
L 109.381665 60.365259 
L 109.434828 60.202169 
L 109.753812 64.152374 
L 110.763927 73.717137 
L 111.667715 80.100028 
L 112.518338 84.638357 
L 113.368961 88.023889 
L 114.16642 90.318249 
L 114.857552 91.70157 
L 115.495519 92.518262 
L 116.027159 92.873735 
L 116.505634 93.012909 
L 116.558798 92.809287 
L 116.611962 93.113326 
L 116.665126 92.649358 
L 116.71829 93.18363 
L 116.771454 92.671898 
L 116.824618 92.682038 
L 116.877782 93.896352 
L 116.930946 89.843471 
L 116.98411 95.02946 
L 117.037274 91.919323 
L 117.090438 93.973102 
L 117.143602 93.135535 
L 117.303094 93.866101 
L 117.675241 94.787825 
L 118.525865 96.386402 
L 119.27016 97.316997 
L 119.961291 97.830715 
L 120.599259 98.023988 
L 121.184062 97.969587 
L 121.768866 97.691009 
L 122.406833 97.119832 
L 123.044801 96.247521 
L 123.735932 94.920719 
L 124.10808 93.966532 
L 124.161244 94.023648 
L 124.214408 93.470026 
L 124.267572 94.079807 
L 124.320736 92.685637 
L 124.3739 94.368611 
L 124.427064 91.881767 
L 124.480227 93.996056 
L 124.533391 93.103714 
L 124.586555 88.275017 
L 124.639719 96.63172 
L 124.692883 90.739437 
L 124.746047 94.948415 
L 124.799211 92.808718 
L 124.958703 94.265089 
L 126.181474 98.029683 
L 127.191589 100.346839 
L 128.254868 102.217655 
L 129.371311 103.731455 
L 130.594082 105.021758 
L 132.082673 106.26198 
L 134.528215 107.957061 
L 136.654773 109.535859 
L 137.983872 110.801906 
L 138.993987 112.0236 
L 139.153479 112.541008 
L 139.206643 111.778646 
L 139.259807 113.329881 
L 139.312971 111.084808 
L 139.366135 114.406762 
L 139.419299 112.192179 
L 139.472462 112.291896 
L 139.525626 112.782756 
L 139.57879 112.035491 
L 139.685118 112.091842 
L 139.738282 112.303047 
L 139.791446 112.09801 
L 139.897774 112.034702 
L 140.216758 111.789384 
L 140.269922 111.612409 
L 140.323086 111.882215 
L 140.37625 111.199583 
L 140.429414 112.308912 
L 140.482578 110.392233 
L 140.535742 113.072353 
L 140.588906 109.638523 
L 140.642069 112.764767 
L 140.695233 112.09305 
L 140.748397 103.707993 
L 140.801561 118.233945 
L 140.854725 108.672583 
L 140.907889 115.886743 
L 140.961053 112.811381 
L 141.067381 116.771843 
L 141.120545 112.00885 
L 141.173709 123.980973 
L 141.226873 104.329411 
L 141.280037 137.197327 
L 141.333201 113.913035 
L 141.386365 109.281547 
L 141.439529 122.194985 
L 141.492693 113.033554 
L 141.545857 117.832643 
L 141.599021 115.316516 
L 141.652185 116.111524 
L 141.705349 115.666348 
L 141.758512 115.738839 
L 141.811676 115.059155 
L 141.86484 116.180326 
L 141.918004 113.664682 
L 141.971168 117.393211 
L 142.024332 111.836398 
L 142.077496 117.957789 
L 142.13066 113.274368 
L 142.183824 110.116732 
L 142.236988 132.531113 
L 142.290152 98.080723 
L 142.343316 121.717458 
L 142.502808 100.912309 
L 142.555972 117.089667 
L 142.609136 89.058768 
L 142.6623 127.596389 
L 142.715464 73.932021 
L 142.768628 107.73129 
L 142.821792 107.72823 
L 142.874956 98.032814 
L 142.928119 110.832073 
L 142.981283 101.928494 
L 143.034447 108.84913 
L 143.140775 108.520575 
L 143.193939 108.654254 
L 143.300267 111.027674 
L 143.353431 109.068245 
L 143.406595 115.545655 
L 143.459759 106.407882 
L 143.512923 119.41482 
L 143.566087 112.756971 
L 143.619251 111.560161 
L 143.672415 115.327333 
L 143.725579 111.711739 
L 143.778743 114.716721 
L 143.831907 112.867439 
L 143.885071 114.095513 
L 143.938235 113.751477 
L 143.991399 113.685152 
L 144.044563 114.667729 
L 144.097726 112.975202 
L 144.15089 116.103038 
L 144.204054 111.778367 
L 144.257218 115.285148 
L 144.363546 114.837219 
L 144.523038 116.261897 
L 144.576202 116.257341 
L 144.842022 118.000327 
L 144.895186 117.916821 
L 145.107842 119.758891 
L 145.161006 119.500323 
L 145.320497 122.035096 
L 145.373661 120.393589 
L 145.426825 121.488175 
L 145.479989 125.653396 
L 145.533153 118.896518 
L 145.586317 124.06047 
L 145.639481 120.731473 
L 145.692645 122.758108 
L 145.745809 121.773094 
L 145.798973 122.287439 
L 145.852137 122.187775 
L 145.905301 122.258005 
L 146.383776 122.939475 
L 146.96858 124.112436 
L 147.659711 126.047221 
L 148.350843 128.502686 
L 148.510335 129.885441 
L 148.563499 129.02345 
L 148.669827 130.677077 
L 148.72299 127.601918 
L 148.776154 137.771919 
L 148.829318 116.055542 
L 148.882482 158.069284 
L 148.935646 106.845007 
L 148.98881 137.241049 
L 149.095138 131.230841 
L 149.148302 136.564696 
L 149.201466 134.460148 
L 149.307794 139.976356 
L 149.360958 134.506781 
L 149.414122 145.302962 
L 149.467286 135.770535 
L 149.573614 159.106579 
L 149.626778 128.17456 
L 149.679942 151.253204 
L 149.733106 135.02275 
L 149.78627 144.043643 
L 149.839433 138.52699 
L 149.892597 140.486985 
L 150.052089 138.634664 
L 150.371073 136.263958 
L 150.796385 133.166209 
L 150.849549 133.764915 
L 150.902713 132.316455 
L 150.955877 133.069713 
L 151.00904 132.627796 
L 151.062204 129.598496 
L 151.115368 134.429006 
L 151.168532 129.074831 
L 151.221696 135.622854 
L 151.27486 125.740579 
L 151.328024 140.366922 
L 151.381188 119.485464 
L 151.434352 133.482674 
L 151.487516 134.494083 
L 151.54068 131.437652 
L 151.700172 137.498037 
L 151.753336 136.818773 
L 151.965992 141.210826 
L 152.178647 145.056697 
L 152.231811 146.215186 
L 152.284975 145.635174 
L 152.338139 151.103212 
L 152.444467 151.091984 
L 152.497631 149.262137 
L 152.710287 157.321978 
L 152.763451 146.661641 
L 152.816615 171.426556 
L 152.869779 151.53104 
L 152.922943 160.387661 
L 152.976107 150.687366 
L 153.029271 157.048245 
L 153.082435 151.876931 
L 153.188763 152.048485 
L 153.241927 152.16185 
L 153.507746 149.140165 
L 153.56091 149.261586 
L 153.667238 148.00031 
L 153.720402 148.331671 
L 153.773566 144.465844 
L 153.82673 152.563413 
L 153.879894 142.078325 
L 153.933058 147.21308 
L 154.09255 142.837581 
L 156.006452 121.125022 
L 156.059616 121.326344 
L 156.11278 119.319091 
L 156.165944 121.529755 
L 156.219108 116.543556 
L 156.272272 122.593984 
L 156.325436 113.821887 
L 156.3786 121.193802 
L 156.431764 123.4928 
L 156.484928 109.259392 
L 156.591256 109.40363 
L 156.64442 113.04569 
L 156.803911 105.508013 
L 156.857075 106.769495 
L 157.069731 92.485084 
L 157.122895 116.114433 
L 157.176059 57.924733 
L 157.229223 119.838132 
L 157.282387 87.159492 
L 157.335551 103.858101 
L 157.388715 98.600438 
L 157.441879 100.629893 
L 157.654535 105.207616 
L 157.707699 102.283978 
L 157.760863 108.3934 
L 157.814027 103.284354 
L 157.867191 107.480885 
L 157.920354 126.379808 
L 157.973518 92.661979 
L 158.026682 112.656483 
L 158.186174 95.268419 
L 158.239338 108.388939 
L 158.292502 85.507507 
L 158.345666 114.698045 
L 158.39883 78.307286 
L 158.451994 91.998214 
L 158.505158 104.694668 
L 158.558322 88.526854 
L 158.611486 103.667885 
L 158.66465 93.59534 
L 158.717814 100.892462 
L 158.770978 97.513773 
L 158.824142 100.030982 
L 158.877306 99.655271 
L 159.196289 102.981635 
L 159.515273 105.668081 
L 159.568437 107.134293 
L 159.621601 105.433541 
L 159.674765 110.166349 
L 159.727929 103.402035 
L 159.781093 115.009802 
L 159.834257 106.310136 
L 159.940585 109.24063 
L 159.993749 108.343926 
L 160.153241 110.014955 
L 160.206405 107.793635 
L 160.259568 112.489438 
L 160.312732 104.022277 
L 160.365896 118.717386 
L 160.41906 107.969975 
L 160.525388 108.590217 
L 160.68488 105.521008 
L 160.738044 105.464505 
L 161.057028 101.22972 
L 161.482339 94.805914 
L 161.588667 95.031167 
L 161.641831 89.917787 
L 161.694995 103.308966 
L 161.748159 70.697782 
L 161.801323 106.021995 
L 161.854487 86.04609 
L 161.907651 96.899593 
L 161.960815 92.682476 
L 162.013979 94.467062 
L 162.811438 99.286074 
L 164.246865 107.410675 
L 164.300029 107.300805 
L 164.406357 107.250108 
L 164.459521 109.798696 
L 164.512685 106.848655 
L 164.565849 111.075391 
L 164.619013 107.840206 
L 164.672177 106.810988 
L 164.725341 113.31006 
L 164.831669 113.27216 
L 164.884832 111.505391 
L 165.044324 114.53561 
L 165.575964 121.091772 
L 165.78862 126.353546 
L 165.841784 120.172618 
L 165.894948 128.592256 
L 166.001275 128.459113 
L 166.054439 128.22366 
L 166.320259 134.383537 
L 166.373423 134.271818 
L 166.426587 133.677168 
L 166.479751 142.811512 
L 166.532915 122.62207 
L 166.586079 168.52248 
L 166.639243 125.495746 
L 166.692407 118.223549 
L 166.745571 176.06687 
L 166.798735 116.477581 
L 166.851899 143.558567 
L 166.905063 129.564465 
L 166.958227 132.80458 
L 167.170882 118.865522 
L 167.224046 136.393812 
L 167.27721 101.27475 
L 167.330374 157.534195 
L 167.383538 65.404593 
L 167.436702 144.022821 
L 167.489866 116.686292 
L 167.54303 127.307993 
L 167.596194 121.136209 
L 167.649358 145.77969 
L 167.702522 94.801812 
L 167.755686 194.659736 
L 167.80885 102.674907 
L 167.862014 141.358338 
L 167.915178 120.721667 
L 167.968342 123.650732 
L 168.021506 140.279151 
L 168.07467 103.680521 
L 168.127834 130.032705 
L 168.180998 135.691459 
L 168.234162 109.139861 
L 168.393653 165.01705 
L 168.446817 89.660052 
L 168.499981 130.443383 
L 168.553145 138.932601 
L 168.606309 80.232272 
L 168.659473 101.446768 
L 168.765801 115.252359 
L 168.818965 111.794126 
L 168.978457 119.052571 
L 169.084785 120.691442 
L 169.244277 128.682129 
L 169.297441 125.244429 
L 169.350605 128.231627 
L 169.56326 132.087423 
L 169.722752 139.465844 
L 169.775916 133.984885 
L 169.82908 143.527131 
L 169.882244 137.3827 
L 169.935408 139.355008 
L 169.988572 163.440379 
L 170.041736 126.635659 
L 170.0949 151.604657 
L 170.148064 135.43506 
L 170.201228 143.774395 
L 170.254392 139.102069 
L 170.307556 140.421907 
L 170.520212 138.382404 
L 170.626539 137.743328 
L 172.274622 129.806203 
L 172.327786 129.796041 
L 172.540442 128.798915 
L 172.593606 129.844852 
L 172.64677 126.604196 
L 172.699934 132.946993 
L 172.753098 120.99763 
L 172.806262 140.092315 
L 172.859426 113.299885 
L 172.91259 147.225858 
L 172.965753 114.915258 
L 173.018917 131.678305 
L 173.072081 123.322335 
L 173.125245 124.982672 
L 173.178409 124.36758 
L 173.337901 121.528117 
L 173.391065 121.454458 
L 173.603721 117.559254 
L 173.656885 119.653378 
L 173.710049 114.057189 
L 173.763213 121.234654 
L 173.816377 109.54364 
L 173.869541 121.793164 
L 173.975869 106.247353 
L 174.029033 129.2111 
L 174.082196 99.580594 
L 174.13536 121.797862 
L 174.188524 105.137343 
L 174.241688 113.936832 
L 174.40118 107.706488 
L 174.667 103.274079 
L 174.720164 103.500708 
L 174.93282 98.775003 
L 174.985984 96.878382 
L 175.039148 98.676338 
L 175.464459 93.186423 
L 175.517623 95.646312 
L 175.570787 89.782811 
L 175.623951 97.852936 
L 175.677115 84.969617 
L 175.730279 99.479314 
L 175.783443 89.121565 
L 175.836607 85.527554 
L 175.889771 93.917907 
L 175.942935 84.24906 
L 176.049263 85.054642 
L 176.102427 87.021383 
L 176.261919 83.664327 
L 176.580902 79.293489 
L 176.634066 77.247461 
L 176.68723 79.981288 
L 176.740394 71.357658 
L 176.793558 85.316198 
L 176.846722 59.552447 
L 176.899886 82.06146 
L 176.95305 73.014207 
L 177.006214 73.663334 
L 177.059378 75.220923 
L 177.21887 72.42279 
L 177.272034 73.112465 
L 177.48469 71.183782 
L 177.537854 71.434564 
L 177.591017 69.737269 
L 177.644181 71.843426 
L 177.697345 67.270647 
L 177.750509 73.212282 
L 177.803673 64.421372 
L 177.856837 72.878102 
L 177.963165 57.789548 
L 178.016329 101.713228 
L 178.069493 39.056365 
L 178.122657 77.071252 
L 178.175821 49.522411 
L 178.282149 51.672345 
L 178.335313 48.984603 
L 178.388477 51.485511 
L 178.441641 36.390028 
L 178.494805 55.88454 
L 178.547969 17.083636 
L 178.601133 29.865266 
L 178.654297 30.324087 
L 178.813788 46.156061 
L 178.866952 44.488318 
L 179.2391 55.534823 
L 180.142887 78.667973 
L 180.834019 97.554675 
L 180.887183 91.521176 
L 180.940347 105.074322 
L 180.993511 87.577003 
L 181.046674 113.646259 
L 181.099838 99.69511 
L 181.153002 97.179165 
L 181.206166 104.365648 
L 181.25933 97.172958 
L 181.312494 102.898218 
L 181.365658 98.962376 
L 181.52515 102.064269 
L 181.578314 98.588755 
L 181.631478 103.792286 
L 181.684642 96.764166 
L 181.737806 104.895555 
L 181.79097 98.806631 
L 181.844134 93.371361 
L 181.950462 117.084545 
L 182.003626 99.197194 
L 182.05679 104.88769 
L 182.109954 104.926723 
L 182.163117 102.932999 
L 182.216281 105.301725 
L 182.269445 103.447328 
L 182.322609 104.813458 
L 182.375773 104.040388 
L 182.428937 104.540391 
L 182.535265 104.4964 
L 182.747921 104.631376 
L 183.492216 105.146511 
L 184.874479 105.872866 
L 186.469398 106.451692 
L 188.436464 106.916322 
L 190.93517 107.266977 
L 194.443991 107.51814 
L 199.866714 107.661541 
L 208.213455 107.649532 
L 214.486801 107.44589 
L 218.208278 107.120281 
L 220.813312 106.682112 
L 222.833542 106.121237 
L 224.428461 105.45648 
L 225.810724 104.64227 
L 227.033495 103.659442 
L 228.149938 102.464975 
L 229.160053 101.055447 
L 230.117004 99.339099 
L 231.073955 97.136715 
L 231.977742 94.474349 
L 232.88153 91.073788 
L 233.732153 86.997971 
L 234.582776 81.820014 
L 235.061252 78.092254 
L 235.114416 78.232072 
L 235.273907 76.006291 
L 235.327071 76.187338 
L 235.380235 77.100818 
L 235.433399 70.583921 
L 235.486563 85.337742 
L 235.539727 53.890309 
L 235.592891 86.429313 
L 235.646055 69.478041 
L 235.699219 78.175617 
L 235.752383 75.612573 
L 235.805547 76.567339 
L 235.965039 78.363926 
L 236.018203 78.309765 
L 236.284023 80.612392 
L 237.294138 87.351012 
L 238.304253 92.545276 
L 239.314368 96.625678 
L 240.430811 100.227694 
L 241.706746 103.584648 
L 243.567484 107.775873 
L 245.162403 111.278468 
L 245.215567 111.996797 
L 245.268731 110.327451 
L 245.321895 114.427678 
L 245.375059 110.153734 
L 245.428223 112.58969 
L 245.481387 111.388861 
L 245.534551 111.882706 
L 245.587715 111.77438 
L 245.640879 111.737761 
L 245.80037 111.837402 
L 245.959862 111.842389 
L 247.395289 112.48508 
L 248.35224 113.23372 
L 249.309191 114.273067 
L 250.266143 115.654381 
L 251.223094 117.453289 
L 252.126881 119.630324 
L 253.030668 122.393499 
L 253.934455 125.901756 
L 254.838243 130.365297 
L 255.688866 135.686953 
L 256.539489 142.405377 
L 257.390112 150.919964 
L 258.240736 161.755536 
L 258.772375 170.173213 
L 258.825539 172.284378 
L 258.878703 167.06059 
L 258.931867 183.845334 
L 258.985031 165.965256 
L 259.038195 176.953595 
L 259.091359 172.681791 
L 259.144523 172.964247 
L 259.197687 177.582538 
L 259.250851 169.80885 
L 259.304015 182.049235 
L 259.357179 168.804336 
L 259.463507 182.168763 
L 259.51667 169.92709 
L 259.569834 182.509148 
L 259.622998 172.847194 
L 259.676162 178.715548 
L 259.78249 173.742286 
L 259.835654 184.174835 
L 259.888818 164.929606 
L 259.941982 195.672398 
L 259.995146 169.915479 
L 260.04831 176.889357 
L 260.101474 176.013434 
L 260.260966 171.270415 
L 260.31413 171.88117 
L 260.420458 168.607475 
L 260.473622 171.601143 
L 260.526786 164.259191 
L 260.57995 173.276494 
L 260.633114 160.215951 
L 260.686277 171.191806 
L 260.739441 170.532811 
L 260.898933 154.404935 
L 260.952097 162.298766 
L 261.005261 155.48461 
L 261.058425 155.435414 
L 261.111589 156.270987 
L 261.271081 146.943715 
L 261.324245 146.895336 
L 261.377409 162.288908 
L 261.430573 129.489996 
L 261.483737 134.300104 
L 261.536901 159.495937 
L 261.590065 130.124681 
L 261.643229 147.936345 
L 261.696393 135.234653 
L 261.802721 136.117127 
L 261.855884 135.990485 
L 262.60018 119.577704 
L 265.311541 59.936324 
L 265.577361 49.870547 
L 265.630525 55.869098 
L 265.683689 45.723567 
L 265.736853 51.402918 
L 265.790017 51.652483 
L 265.843181 23.296538 
L 265.896345 64.199396 
L 265.949509 35.779716 
L 266.002673 53.000289 
L 266.055837 46.054565 
L 266.109001 44.991376 
L 266.162165 54.328906 
L 266.215329 37.296125 
L 266.268493 52.827249 
L 266.321657 48.192281 
L 266.374821 49.678683 
L 266.534312 52.338295 
L 266.693804 54.232594 
L 266.746968 54.826333 
L 266.800132 53.468164 
L 266.853296 60.707883 
L 266.90646 45.580748 
L 266.959624 77.320262 
L 267.012788 23.312507 
L 267.065952 95.446043 
L 267.119116 44.1499 
L 267.17228 61.488272 
L 267.225444 59.622177 
L 267.278608 54.838852 
L 267.331772 58.679475 
L 267.384936 58.511485 
L 267.4381 49.210112 
L 267.491264 71.683103 
L 267.544428 27.714719 
L 267.597591 70.270515 
L 267.650755 51.846113 
L 267.703919 59.152147 
L 267.757083 60.029398 
L 267.810247 58.886047 
L 267.969739 63.479295 
L 268.022903 63.446904 
L 268.288723 68.113538 
L 268.820362 77.010657 
L 268.873526 75.340148 
L 268.979854 74.996832 
L 269.033018 83.070421 
L 269.086182 76.76636 
L 269.139346 79.481623 
L 269.19251 95.426427 
L 269.245674 69.771467 
L 269.298838 85.266104 
L 269.405166 76.049092 
L 269.45833 82.0323 
L 269.511494 75.851933 
L 269.564658 72.965557 
L 269.617822 80.737531 
L 269.670986 72.028387 
L 269.72415 78.106799 
L 269.777314 73.280895 
L 269.830478 75.419616 
L 269.936805 73.17916 
L 269.989969 74.496274 
L 270.043133 70.183441 
L 270.096297 76.363101 
L 270.149461 65.807273 
L 270.255789 66.218071 
L 270.308953 76.77169 
L 270.362117 65.970035 
L 270.415281 63.219335 
L 270.468445 79.912083 
L 270.521609 66.41628 
L 270.574773 77.961927 
L 270.627937 71.868182 
L 270.787429 77.326923 
L 271.000085 80.316713 
L 271.903872 93.448626 
L 274.083594 123.688564 
L 274.136758 122.728198 
L 274.243086 125.930725 
L 274.29625 121.84699 
L 274.349414 137.148186 
L 274.402578 105.627157 
L 274.455742 167.566197 
L 274.508906 106.11937 
L 274.562069 135.68323 
L 274.615233 121.685099 
L 274.668397 124.221032 
L 274.721561 123.723541 
L 274.881053 119.050445 
L 274.934217 119.060926 
L 275.200037 113.281603 
L 275.359529 109.931329 
L 275.412693 110.410964 
L 275.465857 105.737646 
L 275.519021 111.904707 
L 275.572185 97.921133 
L 275.625349 105.395883 
L 275.678512 108.421432 
L 275.731676 102.547194 
L 275.78484 112.193667 
L 275.838004 96.396565 
L 275.891168 123.015282 
L 275.944332 81.102219 
L 275.997496 133.952902 
L 276.05066 97.025057 
L 276.103824 108.60264 
L 276.210152 108.493126 
L 276.263316 96.020429 
L 276.31648 107.917816 
L 276.369644 103.147467 
L 276.422808 104.284225 
L 276.475972 104.238336 
L 276.529136 104.303303 
L 276.5823 103.360903 
L 276.635464 105.047841 
L 276.688628 102.956961 
L 276.741792 103.620124 
L 276.794956 109.278723 
L 276.848119 99.77301 
L 276.954447 100.497173 
L 277.007611 101.104226 
L 277.273431 96.947935 
L 277.964563 86.81252 
L 278.124054 79.926512 
L 278.177218 87.06512 
L 278.230382 76.878959 
L 278.283546 82.612663 
L 278.33671 88.148307 
L 278.389874 55.942795 
L 278.443038 105.12579 
L 278.496202 43.599271 
L 278.549366 88.004686 
L 278.655694 73.783512 
L 278.708858 84.242733 
L 278.762022 76.578674 
L 278.815186 82.922831 
L 278.921514 82.397068 
L 278.974678 81.849196 
L 279.187333 84.226893 
L 281.260728 100.419361 
L 282.802482 111.062656 
L 282.855646 110.252679 
L 282.90881 112.620835 
L 282.961974 109.83883 
L 283.015138 114.512687 
L 283.068302 109.936124 
L 283.17463 118.263977 
L 283.227794 107.861116 
L 283.280958 115.966798 
L 283.334122 109.907084 
L 283.387286 113.303374 
L 283.44045 111.046606 
L 283.546778 111.17689 
L 283.653106 110.854181 
L 284.025253 109.043468 
L 284.078417 109.384108 
L 284.291073 107.443174 
L 284.344237 110.675227 
L 284.397401 101.099769 
L 284.450565 120.761177 
L 284.503729 83.921528 
L 284.556893 120.265565 
L 284.610057 103.703472 
L 284.663221 111.605382 
L 284.716385 110.854401 
L 284.769549 111.124847 
L 284.92904 114.899515 
L 284.982204 114.935237 
L 285.141696 119.613157 
L 285.19486 116.639849 
L 285.354352 124.543395 
L 285.407516 127.246422 
L 285.46068 117.630323 
L 285.513844 126.973926 
L 285.673336 119.514655 
L 285.7265 129.39406 
L 285.779664 117.152698 
L 285.832828 135.440744 
L 285.885992 95.101612 
L 285.939156 148.305314 
L 285.99232 114.263588 
L 286.098647 155.851173 
L 286.151811 115.298618 
L 286.204975 138.206234 
L 286.258139 123.785358 
L 286.311303 127.966114 
L 286.417631 122.69669 
L 286.523959 123.640415 
L 286.577123 112.40735 
L 286.630287 142.148389 
L 286.683451 77.323843 
L 286.736615 151.190127 
L 286.789779 101.14659 
L 286.842943 126.70745 
L 286.896107 115.269384 
L 286.949271 118.886488 
L 287.002435 117.935885 
L 287.055599 118.377001 
L 287.108763 116.058862 
L 287.161927 120.814288 
L 287.21509 112.340734 
L 287.268254 115.438001 
L 287.321418 118.731678 
L 287.374582 133.873963 
L 287.48091 102.875249 
L 287.534074 117.5818 
L 287.587238 118.321257 
L 287.640402 112.799621 
L 287.693566 119.388438 
L 287.74673 114.372059 
L 287.799894 118.221528 
L 287.853058 116.167367 
L 288.01255 117.706161 
L 288.225206 118.505236 
L 289.76696 126.225964 
L 290.404928 130.569202 
L 290.458092 130.397839 
L 290.511256 131.388145 
L 290.56442 131.375175 
L 290.617584 131.286768 
L 290.670748 134.329611 
L 290.723911 127.670458 
L 290.777075 142.997262 
L 290.830239 116.002638 
L 290.883403 161.31241 
L 290.936567 121.407008 
L 290.989731 135.500817 
L 291.042895 131.398057 
L 291.202387 126.625006 
L 291.255551 127.960427 
L 291.415043 123.797291 
L 291.574535 121.37277 
L 291.787191 115.765758 
L 291.840354 120.052004 
L 291.893518 107.107795 
L 291.946682 129.382944 
L 291.999846 88.406775 
L 292.05301 131.736621 
L 292.106174 100.565963 
L 292.212502 101.697933 
L 292.31883 118.144045 
L 292.371994 107.867502 
L 292.531486 123.678835 
L 292.637814 124.050725 
L 292.690978 98.678288 
L 292.744142 122.889869 
L 292.797306 118.246431 
L 292.85047 117.952403 
L 292.956798 122.466716 
L 293.009961 117.469097 
L 293.063125 130.371845 
L 293.116289 112.883504 
L 293.169453 136.666241 
L 293.222617 114.681377 
L 293.275781 119.653858 
L 293.328945 154.523322 
L 293.382109 99.091405 
L 293.435273 172.658179 
L 293.488437 102.953277 
L 293.541601 148.495905 
L 293.594765 125.418401 
L 293.754257 136.902991 
L 293.807421 121.063379 
L 293.860585 160.028247 
L 293.913749 115.47076 
L 293.966913 145.750254 
L 294.126405 121.62574 
L 294.179568 118.94469 
L 294.232732 143.267002 
L 294.285896 130.212678 
L 294.392224 145.273057 
L 294.445388 125.897846 
L 294.498552 164.088653 
L 294.551716 134.48275 
L 294.60488 148.991612 
L 294.658044 144.970653 
L 294.764372 149.619043 
L 294.817536 148.42229 
L 294.977028 152.22558 
L 295.030192 148.745642 
L 295.083356 166.972098 
L 295.13652 124.541611 
L 295.189684 214.756364 
L 295.242848 111.425022 
L 295.296012 179.445647 
L 295.349175 142.972578 
L 295.402339 157.07027 
L 295.561831 147.683366 
L 295.880815 136.476858 
L 295.933979 141.249514 
L 296.040307 115.349398 
L 296.093471 163.909255 
L 296.146635 132.133293 
L 296.306127 148.632324 
L 296.359291 129.429369 
L 296.412455 173.071729 
L 296.465618 139.888099 
L 296.571946 149.269172 
L 296.62511 139.697844 
L 296.731438 140.509818 
L 296.784602 143.525702 
L 296.837766 140.773076 
L 296.89093 141.22707 
L 297.15675 137.841719 
L 298.007373 129.09437 
L 299.283308 118.138745 
L 300.027603 111.842565 
L 300.080767 112.940145 
L 300.240259 110.108296 
L 300.293423 110.37453 
L 300.346587 113.423981 
L 300.399751 100.544038 
L 300.452915 116.890389 
L 300.506079 106.44591 
L 300.559243 113.048916 
L 300.612407 109.860613 
L 300.771899 111.803088 
L 300.825063 111.888243 
L 300.931391 112.510761 
L 300.984555 112.233368 
L 301.037719 114.235349 
L 301.090882 110.20136 
L 301.144046 119.234227 
L 301.19721 103.513476 
L 301.250374 129.834916 
L 301.303538 92.139588 
L 301.356702 139.770224 
L 301.409866 119.614473 
L 301.46303 88.977754 
L 301.516194 142.606511 
L 301.569358 70.84519 
L 301.622522 122.518548 
L 301.675686 93.096214 
L 301.72885 102.894965 
L 301.941506 91.030867 
L 301.99467 90.276221 
L 302.313653 75.644958 
L 302.366817 78.257281 
L 302.419981 70.095275 
L 302.473145 70.443187 
L 302.526309 72.36472 
L 302.685801 65.138606 
L 302.738965 62.27668 
L 302.792129 67.688256 
L 302.845293 49.082766 
L 302.898457 80.530319 
L 302.951621 22.621912 
L 303.004785 102.134435 
L 303.057949 22.843933 
L 303.111113 66.975077 
L 303.164277 48.430108 
L 303.217441 48.651989 
L 303.270605 52.264037 
L 303.376933 53.109753 
L 303.48326 24.502616 
L 303.536424 67.546461 
L 303.589588 42.741822 
L 303.642752 39.236108 
L 303.695916 53.876026 
L 303.74908 48.457788 
L 303.802244 28.057959 
L 303.961736 85.986866 
L 304.0149 51.250561 
L 304.068064 57.44277 
L 304.121228 66.275316 
L 304.174392 45.296082 
L 304.227556 76.077989 
L 304.28072 41.284199 
L 304.333884 62.947041 
L 304.387048 71.554695 
L 304.440212 53.597559 
L 304.493376 70.203701 
L 304.546539 59.107207 
L 304.599703 68.479408 
L 304.652867 66.332838 
L 304.706031 58.422297 
L 304.759195 76.188896 
L 304.865523 75.39621 
L 304.918687 72.287829 
L 305.131343 80.522178 
L 307.151573 141.3499 
L 307.204737 141.317787 
L 307.364229 152.62486 
L 307.417393 142.522269 
L 307.470557 157.264128 
L 307.523721 150.465304 
L 307.576885 143.096372 
L 307.630049 184.607391 
L 307.683213 133.071123 
L 307.736377 171.94052 
L 307.789541 146.95136 
L 307.842705 162.06534 
L 307.895869 154.452515 
L 307.949033 158.555946 
L 308.002196 157.188142 
L 308.05536 158.128021 
L 308.108524 158.590785 
L 308.161688 157.56332 
L 308.214852 161.891604 
L 308.268016 153.216579 
L 308.32118 171.3726 
L 308.374344 140.593866 
L 308.427508 189.987143 
L 308.480672 148.367049 
L 308.533836 160.953462 
L 308.587 158.192956 
L 308.746492 152.138572 
L 308.799656 154.471179 
L 308.85282 146.610978 
L 308.905984 160.072113 
L 308.959148 129.156451 
L 309.012312 173.626705 
L 309.065476 131.682473 
L 309.11864 153.798816 
L 309.171803 142.724665 
L 309.278131 145.247066 
L 309.437623 139.401244 
L 309.490787 136.612188 
L 309.543951 151.084641 
L 309.597115 114.699317 
L 309.650279 154.067446 
L 309.703443 128.205674 
L 309.756607 143.625894 
L 309.809771 135.514712 
L 309.862935 139.709897 
L 310.022427 137.093951 
L 310.075591 141.001481 
L 310.128755 136.676365 
L 310.181919 140.008466 
L 310.235083 142.882098 
L 310.288247 125.300519 
L 310.34141 173.701295 
L 310.394574 116.414637 
L 310.447738 144.845519 
L 310.500902 129.448837 
L 310.554066 137.49094 
L 310.713558 129.62112 
L 310.766722 131.962863 
L 310.819886 125.977607 
L 310.87305 143.236225 
L 311.032542 88.57317 
L 311.085706 167.914576 
L 311.13887 101.314342 
L 311.192034 131.020837 
L 311.245198 117.435865 
L 311.298362 121.826805 
L 311.351526 115.710434 
L 311.40469 122.947995 
L 311.457854 109.880734 
L 311.511017 121.319747 
L 311.617345 105.807641 
L 311.670509 123.364503 
L 311.723673 84.945004 
L 311.776837 137.128467 
L 311.830001 76.90517 
L 311.883165 134.950456 
L 311.936329 101.759744 
L 311.989493 122.70613 
L 312.042657 113.60817 
L 312.095821 121.532876 
L 312.148985 117.567123 
L 312.361641 134.045249 
L 312.414805 104.042859 
L 312.467969 184.359108 
L 312.521133 90.545617 
L 312.574297 148.810416 
L 312.62746 113.610716 
L 312.680624 130.286197 
L 312.733788 121.104959 
L 312.840116 121.37806 
L 312.89328 119.816658 
L 312.946444 121.714805 
L 312.999608 112.68562 
L 313.052772 121.909872 
L 313.105936 114.800116 
L 313.212264 115.32788 
L 313.265428 115.548273 
L 313.637576 110.869252 
L 316.242609 77.768824 
L 316.295773 78.118743 
L 316.348937 74.098799 
L 316.455265 74.278321 
L 316.508429 74.983472 
L 316.667921 70.315218 
L 316.721085 75.826958 
L 316.774249 63.881153 
L 316.827413 81.521782 
L 316.880577 54.018037 
L 316.933741 70.916379 
L 316.986905 80.65343 
L 317.040069 61.224927 
L 317.093233 74.601731 
L 317.146397 65.316158 
L 317.199561 70.066849 
L 317.252724 66.926998 
L 317.359052 67.010116 
L 317.46538 67.080807 
L 317.518544 63.508278 
L 317.571708 68.39561 
L 317.624872 59.445233 
L 317.678036 70.812335 
L 317.7312 61.910504 
L 317.784364 61.204717 
L 317.837528 62.845687 
L 317.99702 57.606078 
L 318.050184 55.776012 
L 318.103348 31.750434 
L 318.156512 71.32901 
L 318.209676 42.208442 
L 318.316004 68.663437 
L 318.369168 63.615132 
L 318.422331 51.307557 
L 318.475495 87.471599 
L 318.528659 37.02834 
L 318.581823 79.387594 
L 318.634987 56.321024 
L 318.688151 77.532326 
L 318.741315 67.30522 
L 318.794479 75.895582 
L 318.847643 74.820623 
L 318.953971 81.211149 
L 319.007135 77.166284 
L 319.060299 89.540178 
L 319.113463 74.715319 
L 319.166627 99.981087 
L 319.219791 84.96958 
L 319.432447 92.902227 
L 319.485611 90.855237 
L 319.645102 94.690079 
L 319.910922 98.305561 
L 320.070414 102.269083 
L 320.123578 100.750045 
L 320.229906 105.492443 
L 320.28307 97.074972 
L 320.336234 121.454473 
L 320.389398 97.028337 
L 320.442562 120.228197 
L 320.495726 91.378665 
L 320.54889 108.929646 
L 320.602054 96.043325 
L 320.655218 99.946831 
L 320.708381 98.330952 
L 320.761545 91.670988 
L 320.814709 102.150689 
L 320.867873 79.838802 
L 320.921037 110.121745 
L 320.974201 66.538927 
L 321.027365 91.009127 
L 321.080529 95.470405 
L 321.133693 84.166435 
L 321.186857 96.764259 
L 321.240021 87.782376 
L 321.293185 94.725985 
L 321.346349 91.323024 
L 321.505841 94.323094 
L 321.984316 98.516241 
L 324.270366 118.204652 
L 324.32353 117.507709 
L 324.376694 120.606867 
L 324.429858 115.991192 
L 324.483022 125.2406 
L 324.536186 112.15565 
L 324.58935 131.082899 
L 324.642514 119.121483 
L 324.695678 119.390315 
L 324.748842 121.223508 
L 324.908334 114.604801 
L 324.961498 129.533661 
L 325.014662 94.584148 
L 325.067826 134.456858 
L 325.12099 111.553068 
L 325.174154 125.549381 
L 325.227318 120.418195 
L 325.333645 127.343366 
L 325.386809 121.792544 
L 325.439973 126.930372 
L 325.493137 124.801625 
L 325.546301 127.085089 
L 325.599465 126.998427 
L 325.865285 131.329361 
L 325.918449 130.390522 
L 326.077941 134.173337 
L 326.131105 134.344974 
L 326.290597 138.688887 
L 326.343761 135.972915 
L 326.396925 140.917599 
L 326.450089 138.70687 
L 326.503252 137.765291 
L 326.556416 152.740067 
L 326.60958 114.262147 
L 326.662744 201.085102 
L 326.715908 96.706431 
L 326.769072 151.203413 
L 326.8754 135.596959 
L 326.928564 146.490615 
L 326.981728 136.250468 
L 327.034892 144.792947 
L 327.088056 139.882385 
L 327.14122 141.071609 
L 327.194384 146.61319 
L 327.247548 131.170213 
L 327.300712 165.631435 
L 327.353876 128.671835 
L 327.40704 147.990642 
L 327.460204 137.534455 
L 327.513368 140.363679 
L 327.566532 139.2993 
L 327.726023 134.822675 
L 327.779187 138.007638 
L 327.832351 133.451737 
L 327.885515 134.56428 
L 327.938679 139.518391 
L 327.991843 127.108418 
L 328.098171 127.743299 
L 328.151335 130.061246 
L 328.363991 124.04041 
L 328.417155 123.383342 
L 328.576647 116.074241 
L 328.629811 124.028268 
L 328.682975 109.113997 
L 328.736139 115.007576 
L 328.789302 118.84699 
L 328.948794 113.941853 
L 329.001958 117.660555 
L 329.055122 113.368033 
L 329.108286 116.951709 
L 329.16145 120.497424 
L 329.214614 104.034459 
L 329.267778 131.079222 
L 329.320942 100.69482 
L 329.374106 115.42626 
L 329.533598 105.114076 
L 329.639926 100.142619 
L 329.69309 104.792543 
L 329.746254 88.064952 
L 329.799418 116.209755 
L 329.852582 63.102023 
L 329.905746 110.125186 
L 329.958909 89.344656 
L 330.012073 95.805586 
L 330.065237 95.926039 
L 330.118401 93.376718 
L 330.171565 96.139143 
L 330.224729 93.831042 
L 330.277893 95.356504 
L 330.331057 94.344298 
L 330.384221 94.833555 
L 330.543713 94.479003 
L 331.022189 93.82761 
L 331.660156 92.549187 
L 332.351287 90.605343 
L 332.882927 88.494639 
L 332.936091 88.742749 
L 333.095583 87.159006 
L 333.201911 88.027157 
L 333.255075 83.913869 
L 333.308239 94.642434 
L 333.361403 70.727074 
L 333.414566 96.151097 
L 333.46773 83.595869 
L 333.520894 89.211339 
L 333.574058 89.479874 
L 333.627222 88.218548 
L 333.680386 89.460255 
L 333.73355 94.878753 
L 333.786714 77.530606 
L 333.839878 120.172018 
L 333.946206 121.408521 
L 333.99937 40.949948 
L 334.052534 113.707381 
L 334.105698 79.003094 
L 334.158862 94.17911 
L 334.212026 91.524777 
L 334.26519 91.323314 
L 334.318354 94.153551 
L 334.371518 93.973921 
L 334.424682 93.543496 
L 334.477846 98.964038 
L 334.53101 90.742355 
L 334.584173 105.804364 
L 334.637337 95.091739 
L 334.743665 99.145048 
L 334.796829 97.468735 
L 334.849993 99.648643 
L 334.956321 99.637171 
L 335.009485 99.436491 
L 335.062649 99.62465 
L 335.115813 100.56647 
L 335.168977 99.254096 
L 335.222141 102.27042 
L 335.275305 98.212071 
L 335.328469 104.303373 
L 335.381633 98.04114 
L 335.487961 109.504045 
L 335.541125 93.625245 
L 335.594289 105.670114 
L 335.75378 94.95528 
L 335.806944 101.63566 
L 335.860108 92.823507 
L 335.913272 100.022724 
L 335.966436 96.325254 
L 336.0196 81.726857 
L 336.072764 107.700559 
L 336.125928 89.074771 
L 336.179092 102.368003 
L 336.232256 95.593679 
L 336.28542 99.822898 
L 336.338584 99.269856 
L 336.391748 99.426173 
L 336.55124 102.548585 
L 336.604404 102.803084 
L 336.657568 99.199361 
L 336.710732 114.586803 
L 336.763896 95.587465 
L 336.81706 96.928317 
L 336.870223 111.282906 
L 336.923387 101.338247 
L 336.976551 109.165721 
L 337.029715 108.328217 
L 337.082879 107.262958 
L 337.136043 113.32498 
L 337.189207 109.763974 
L 337.242371 109.338178 
L 337.295535 131.357331 
L 337.348699 99.603927 
L 337.401863 121.907123 
L 337.455027 107.355637 
L 337.508191 115.523968 
L 337.561355 110.609566 
L 337.667683 110.767828 
L 337.720847 112.928597 
L 337.774011 110.343118 
L 337.827175 111.351936 
L 337.880339 114.049946 
L 337.933503 101.066568 
L 337.986667 133.271213 
L 338.03983 66.518114 
L 338.092994 131.580916 
L 338.146158 134.284128 
L 338.199322 103.19559 
L 338.252486 119.934078 
L 338.30565 111.303349 
L 338.358814 114.161656 
L 338.57147 111.732826 
L 338.624634 111.857912 
L 338.890454 109.916807 
L 341.070176 95.295579 
L 341.229668 93.399718 
L 341.282832 94.604905 
L 341.442324 91.185332 
L 341.495487 91.330391 
L 341.548651 96.970149 
L 341.601815 77.619751 
L 341.654979 100.744842 
L 341.708143 85.891268 
L 341.761307 95.026909 
L 341.814471 90.540022 
L 341.867635 92.824093 
L 341.920799 92.630976 
L 341.973963 91.934299 
L 342.027127 94.559612 
L 342.080291 90.130012 
L 342.133455 98.187508 
L 342.186619 86.320945 
L 342.239783 96.587765 
L 342.292947 94.222116 
L 342.346111 94.707316 
L 342.505603 97.586452 
L 342.558767 97.086787 
L 342.771422 101.142245 
L 342.824586 97.391098 
L 342.87775 107.311332 
L 342.930914 90.524133 
L 342.984078 108.673209 
L 343.037242 100.894957 
L 343.090406 106.237887 
L 343.14357 105.465041 
L 343.249898 109.38822 
L 343.303062 105.707972 
L 343.356226 118.726854 
L 343.40939 95.026221 
L 343.462554 141.584536 
L 343.515718 98.290683 
L 343.568882 115.95609 
L 343.622046 114.3948 
L 343.67521 103.788675 
L 343.728374 115.084509 
L 343.781538 109.809624 
L 343.834701 112.055636 
L 343.941029 111.462315 
L 343.994193 112.50899 
L 344.047357 111.032253 
L 344.100521 113.931849 
L 344.153685 109.298538 
L 344.206849 114.169112 
L 344.260013 112.02729 
L 344.313177 113.481921 
L 344.366341 113.120631 
L 344.525833 114.489289 
L 344.578997 114.48752 
L 344.632161 113.821589 
L 344.685325 117.97074 
L 344.738489 108.640711 
L 344.791653 128.421608 
L 344.844817 107.961327 
L 344.897981 118.539165 
L 344.951144 113.11189 
L 345.004308 114.628351 
L 345.057472 114.055968 
L 345.270128 112.478536 
L 345.323292 112.876961 
L 345.376456 110.939011 
L 345.42962 113.507567 
L 345.482784 108.737518 
L 345.535948 114.38698 
L 345.589112 107.638736 
L 345.642276 108.287268 
L 345.69544 113.864674 
L 345.748604 108.598253 
L 345.801768 113.126148 
L 345.854932 110.34421 
L 345.908096 112.397569 
L 345.96126 111.628328 
L 346.067588 112.841204 
L 346.120751 110.862756 
L 346.227079 117.184906 
L 346.280243 110.249401 
L 346.333407 114.999089 
L 346.386571 112.015889 
L 346.439735 113.606479 
L 346.492899 112.79132 
L 346.546063 113.06651 
L 346.758719 112.858344 
L 346.918211 112.81342 
L 347.44985 112.630579 
L 348.24731 112.552986 
L 349.044769 112.688086 
L 349.204261 112.863321 
L 349.257425 112.595326 
L 349.310589 113.073141 
L 349.363753 112.458675 
L 349.416917 113.228124 
L 349.470081 112.673868 
L 349.523245 112.461675 
L 349.576408 114.827734 
L 349.629572 108.150851 
L 349.682736 116.510849 
L 349.7359 111.697298 
L 349.789064 114.921662 
L 349.895392 114.671071 
L 349.948556 114.860653 
L 350.00172 114.810255 
L 350.054884 116.12599 
L 350.108048 114.338637 
L 350.161212 118.494307 
L 350.214376 112.427299 
L 350.26754 118.61168 
L 350.320704 116.76616 
L 350.373868 117.900744 
L 350.692852 121.44908 
L 350.746015 120.893221 
L 350.905507 124.087983 
L 350.958671 124.189686 
L 351.011835 120.595543 
L 351.064999 135.278782 
L 351.118163 113.808454 
L 351.171327 144.423462 
L 351.224491 111.24219 
L 351.277655 130.349905 
L 351.330819 118.572637 
L 351.383983 122.093723 
L 351.437147 121.801149 
L 351.490311 115.273508 
L 351.543475 126.456842 
L 351.596639 104.654708 
L 351.649803 136.029618 
L 351.702967 113.243848 
L 351.756131 102.138289 
L 351.809295 128.396903 
L 351.862459 88.288797 
L 351.915622 101.113338 
L 351.968786 118.337487 
L 352.02195 97.625883 
L 352.075114 114.967062 
L 352.128278 104.063062 
L 352.181442 109.531376 
L 352.340934 107.746203 
L 352.394098 109.137665 
L 352.447262 107.981524 
L 352.500426 108.79801 
L 352.55359 108.261008 
L 352.606754 108.5664 
L 352.659918 108.395573 
L 352.81941 108.429458 
L 353.776361 108.33417 
L 357.444674 108.105144 
L 362.069938 108.050219 
L 366.695202 108.206837 
L 370.150859 108.529535 
L 372.755892 108.986932 
L 374.829287 109.573652 
L 375.254598 109.812951 
L 375.307762 109.479048 
L 375.360926 110.421914 
L 375.41409 108.50382 
L 375.467254 112.09331 
L 375.520418 106.236454 
L 375.573582 114.898958 
L 375.626746 103.954231 
L 375.67991 105.58384 
L 375.733074 124.339316 
L 375.786238 82.074944 
L 375.839402 130.627152 
L 375.892566 105.425204 
L 375.998894 121.803832 
L 376.052058 96.465862 
L 376.105222 120.0844 
L 376.158385 119.671608 
L 376.211549 98.160541 
L 376.264713 125.702284 
L 376.317877 102.608047 
L 376.371041 115.103048 
L 376.424205 112.370557 
L 376.477369 102.629818 
L 376.530533 125.054614 
L 376.583697 86.349422 
L 376.636861 124.216825 
L 376.690025 92.826109 
L 376.743189 113.610292 
L 376.796353 155.091368 
L 376.849517 92.963989 
L 376.902681 107.710679 
L 377.009009 131.970073 
L 377.062173 129.304094 
L 377.115337 107.097576 
L 377.168501 139.76793 
L 377.274828 91.073993 
L 377.327992 135.778223 
L 377.381156 119.63113 
L 377.43432 114.964752 
L 377.487484 148.345097 
L 377.540648 122.347053 
L 377.70014 148.212553 
L 377.753304 109.358686 
L 377.806468 167.416146 
L 377.912796 166.978971 
L 377.96596 123.388595 
L 378.019124 147.788495 
L 378.072288 167.284063 
L 378.125452 150.441308 
L 378.178616 162.365827 
L 378.23178 130.492689 
L 378.284944 167.780059 
L 378.338108 148.874506 
L 378.391272 145.380108 
L 378.444435 154.429636 
L 378.497599 136.362013 
L 378.497599 136.362013 
" style="fill:none;stroke:#de8f05;stroke-linecap:round;stroke-width:1.5;"/>
   </g>
   <g id="patch_3">
    <path d="M 58.915781 224.64 
L 58.915781 7.2 
" style="fill:none;stroke:#262626;stroke-linecap:square;stroke-linejoin:miter;stroke-width:1.25;"/>
   </g>
   <g id="patch_4">
    <path d="M 393.715781 224.64 
L 393.715781 7.2 
" style="fill:none;stroke:#262626;stroke-linecap:square;stroke-linejoin:miter;stroke-width:1.25;"/>
   </g>
   <g id="patch_5">
    <path d="M 58.915781 224.64 
L 393.715781 224.64 
" style="fill:none;stroke:#262626;stroke-linecap:square;stroke-linejoin:miter;stroke-width:1.25;"/>
   </g>
   <g id="patch_6">
    <path d="M 58.915781 7.2 
L 393.715781 7.2 
" style="fill:none;stroke:#262626;stroke-linecap:square;stroke-linejoin:miter;stroke-width:1.25;"/>
   </g>
   <g id="legend_1">
    <g id="patch_7">
     <path d="M 66.615781 219.14 
L 182.320312 219.14 
Q 184.520312 219.14 184.520312 216.94 
L 184.520312 186.920312 
Q 184.520312 184.720312 182.320312 184.720312 
L 66.615781 184.720312 
Q 64.415781 184.720312 64.415781 186.920312 
L 64.415781 216.94 
Q 64.415781 219.14 66.615781 219.14 
z
" style="fill:#ffffff;opacity:0.8;stroke:#cccccc;stroke-linejoin:miter;"/>
    </g>
    <g id="line2d_15">
     <path d="M 68.815781 193.143906 
L 90.815781 193.143906 
" style="fill:none;stroke:#0173b2;stroke-linecap:round;stroke-width:1.5;"/>
    </g>
    <g id="line2d_16"/>
    <g id="text_15">
     <!-- Keplerian -->
     <g style="fill:#262626;" transform="translate(99.615781 196.993906)scale(0.11 -0.11)">
      <defs>
       <path d="M 469 0 
L 469 4581 
L 1075 4581 
L 1075 2309 
L 3350 4581 
L 4172 4581 
L 2250 2725 
L 4256 0 
L 3456 0 
L 1825 2319 
L 1075 1588 
L 1075 0 
L 469 0 
z
" id="ArialMT-4b" transform="scale(0.015625)"/>
       <path d="M 2694 1069 
L 3275 997 
Q 3138 488 2766 206 
Q 2394 -75 1816 -75 
Q 1088 -75 661 373 
Q 234 822 234 1631 
Q 234 2469 665 2931 
Q 1097 3394 1784 3394 
Q 2450 3394 2872 2941 
Q 3294 2488 3294 1666 
Q 3294 1616 3291 1516 
L 816 1516 
Q 847 969 1125 678 
Q 1403 388 1819 388 
Q 2128 388 2347 550 
Q 2566 713 2694 1069 
z
M 847 1978 
L 2700 1978 
Q 2663 2397 2488 2606 
Q 2219 2931 1791 2931 
Q 1403 2931 1139 2672 
Q 875 2413 847 1978 
z
" id="ArialMT-65" transform="scale(0.015625)"/>
       <path d="M 422 -1272 
L 422 3319 
L 934 3319 
L 934 2888 
Q 1116 3141 1344 3267 
Q 1572 3394 1897 3394 
Q 2322 3394 2647 3175 
Q 2972 2956 3137 2557 
Q 3303 2159 3303 1684 
Q 3303 1175 3120 767 
Q 2938 359 2589 142 
Q 2241 -75 1856 -75 
Q 1575 -75 1351 44 
Q 1128 163 984 344 
L 984 -1272 
L 422 -1272 
z
M 931 1641 
Q 931 1000 1190 694 
Q 1450 388 1819 388 
Q 2194 388 2461 705 
Q 2728 1022 2728 1688 
Q 2728 2322 2467 2637 
Q 2206 2953 1844 2953 
Q 1484 2953 1207 2617 
Q 931 2281 931 1641 
z
" id="ArialMT-70" transform="scale(0.015625)"/>
       <path d="M 409 0 
L 409 4581 
L 972 4581 
L 972 0 
L 409 0 
z
" id="ArialMT-6c" transform="scale(0.015625)"/>
       <path d="M 416 0 
L 416 3319 
L 922 3319 
L 922 2816 
Q 1116 3169 1280 3281 
Q 1444 3394 1641 3394 
Q 1925 3394 2219 3213 
L 2025 2691 
Q 1819 2813 1613 2813 
Q 1428 2813 1281 2702 
Q 1134 2591 1072 2394 
Q 978 2094 978 1738 
L 978 0 
L 416 0 
z
" id="ArialMT-72" transform="scale(0.015625)"/>
       <path d="M 425 3934 
L 425 4581 
L 988 4581 
L 988 3934 
L 425 3934 
z
M 425 0 
L 425 3319 
L 988 3319 
L 988 0 
L 425 0 
z
" id="ArialMT-69" transform="scale(0.015625)"/>
       <path d="M 2588 409 
Q 2275 144 1986 34 
Q 1697 -75 1366 -75 
Q 819 -75 525 192 
Q 231 459 231 875 
Q 231 1119 342 1320 
Q 453 1522 633 1644 
Q 813 1766 1038 1828 
Q 1203 1872 1538 1913 
Q 2219 1994 2541 2106 
Q 2544 2222 2544 2253 
Q 2544 2597 2384 2738 
Q 2169 2928 1744 2928 
Q 1347 2928 1158 2789 
Q 969 2650 878 2297 
L 328 2372 
Q 403 2725 575 2942 
Q 747 3159 1072 3276 
Q 1397 3394 1825 3394 
Q 2250 3394 2515 3294 
Q 2781 3194 2906 3042 
Q 3031 2891 3081 2659 
Q 3109 2516 3109 2141 
L 3109 1391 
Q 3109 606 3145 398 
Q 3181 191 3288 0 
L 2700 0 
Q 2613 175 2588 409 
z
M 2541 1666 
Q 2234 1541 1622 1453 
Q 1275 1403 1131 1340 
Q 988 1278 909 1158 
Q 831 1038 831 891 
Q 831 666 1001 516 
Q 1172 366 1500 366 
Q 1825 366 2078 508 
Q 2331 650 2450 897 
Q 2541 1088 2541 1459 
L 2541 1666 
z
" id="ArialMT-61" transform="scale(0.015625)"/>
       <path d="M 422 0 
L 422 3319 
L 928 3319 
L 928 2847 
Q 1294 3394 1984 3394 
Q 2284 3394 2536 3286 
Q 2788 3178 2913 3003 
Q 3038 2828 3088 2588 
Q 3119 2431 3119 2041 
L 3119 0 
L 2556 0 
L 2556 2019 
Q 2556 2363 2490 2533 
Q 2425 2703 2258 2804 
Q 2091 2906 1866 2906 
Q 1506 2906 1245 2678 
Q 984 2450 984 1813 
L 984 0 
L 422 0 
z
" id="ArialMT-6e" transform="scale(0.015625)"/>
      </defs>
      <use xlink:href="#ArialMT-4b"/>
      <use x="66.699219" xlink:href="#ArialMT-65"/>
      <use x="122.314453" xlink:href="#ArialMT-70"/>
      <use x="177.929688" xlink:href="#ArialMT-6c"/>
      <use x="200.146484" xlink:href="#ArialMT-65"/>
      <use x="255.761719" xlink:href="#ArialMT-72"/>
      <use x="289.0625" xlink:href="#ArialMT-69"/>
      <use x="311.279297" xlink:href="#ArialMT-61"/>
      <use x="366.894531" xlink:href="#ArialMT-6e"/>
     </g>
    </g>
    <g id="line2d_17">
     <path d="M 68.815781 208.70375 
L 90.815781 208.70375 
" style="fill:none;stroke:#de8f05;stroke-linecap:round;stroke-width:1.5;"/>
    </g>
    <g id="line2d_18"/>
    <g id="text_16">
     <!-- Stellar GP Mean -->
     <g style="fill:#262626;" transform="translate(99.615781 212.55375)scale(0.11 -0.11)">
      <defs>
       <path d="M 288 1472 
L 859 1522 
Q 900 1178 1048 958 
Q 1197 738 1509 602 
Q 1822 466 2213 466 
Q 2559 466 2825 569 
Q 3091 672 3220 851 
Q 3350 1031 3350 1244 
Q 3350 1459 3225 1620 
Q 3100 1781 2813 1891 
Q 2628 1963 1997 2114 
Q 1366 2266 1113 2400 
Q 784 2572 623 2826 
Q 463 3081 463 3397 
Q 463 3744 659 4045 
Q 856 4347 1234 4503 
Q 1613 4659 2075 4659 
Q 2584 4659 2973 4495 
Q 3363 4331 3572 4012 
Q 3781 3694 3797 3291 
L 3216 3247 
Q 3169 3681 2898 3903 
Q 2628 4125 2100 4125 
Q 1550 4125 1298 3923 
Q 1047 3722 1047 3438 
Q 1047 3191 1225 3031 
Q 1400 2872 2139 2705 
Q 2878 2538 3153 2413 
Q 3553 2228 3743 1945 
Q 3934 1663 3934 1294 
Q 3934 928 3725 604 
Q 3516 281 3123 101 
Q 2731 -78 2241 -78 
Q 1619 -78 1198 103 
Q 778 284 539 648 
Q 300 1013 288 1472 
z
" id="ArialMT-53" transform="scale(0.015625)"/>
       <path d="M 1650 503 
L 1731 6 
Q 1494 -44 1306 -44 
Q 1000 -44 831 53 
Q 663 150 594 308 
Q 525 466 525 972 
L 525 2881 
L 113 2881 
L 113 3319 
L 525 3319 
L 525 4141 
L 1084 4478 
L 1084 3319 
L 1650 3319 
L 1650 2881 
L 1084 2881 
L 1084 941 
Q 1084 700 1114 631 
Q 1144 563 1211 522 
Q 1278 481 1403 481 
Q 1497 481 1650 503 
z
" id="ArialMT-74" transform="scale(0.015625)"/>
       <path d="M 2638 1797 
L 2638 2334 
L 4578 2338 
L 4578 638 
Q 4131 281 3656 101 
Q 3181 -78 2681 -78 
Q 2006 -78 1454 211 
Q 903 500 622 1047 
Q 341 1594 341 2269 
Q 341 2938 620 3517 
Q 900 4097 1425 4378 
Q 1950 4659 2634 4659 
Q 3131 4659 3532 4498 
Q 3934 4338 4162 4050 
Q 4391 3763 4509 3300 
L 3963 3150 
Q 3859 3500 3706 3700 
Q 3553 3900 3268 4020 
Q 2984 4141 2638 4141 
Q 2222 4141 1919 4014 
Q 1616 3888 1430 3681 
Q 1244 3475 1141 3228 
Q 966 2803 966 2306 
Q 966 1694 1177 1281 
Q 1388 869 1791 669 
Q 2194 469 2647 469 
Q 3041 469 3416 620 
Q 3791 772 3984 944 
L 3984 1797 
L 2638 1797 
z
" id="ArialMT-47" transform="scale(0.015625)"/>
       <path d="M 494 0 
L 494 4581 
L 2222 4581 
Q 2678 4581 2919 4538 
Q 3256 4481 3484 4323 
Q 3713 4166 3852 3881 
Q 3991 3597 3991 3256 
Q 3991 2672 3619 2267 
Q 3247 1863 2275 1863 
L 1100 1863 
L 1100 0 
L 494 0 
z
M 1100 2403 
L 2284 2403 
Q 2872 2403 3119 2622 
Q 3366 2841 3366 3238 
Q 3366 3525 3220 3729 
Q 3075 3934 2838 4000 
Q 2684 4041 2272 4041 
L 1100 4041 
L 1100 2403 
z
" id="ArialMT-50" transform="scale(0.015625)"/>
       <path d="M 475 0 
L 475 4581 
L 1388 4581 
L 2472 1338 
Q 2622 884 2691 659 
Q 2769 909 2934 1394 
L 4031 4581 
L 4847 4581 
L 4847 0 
L 4263 0 
L 4263 3834 
L 2931 0 
L 2384 0 
L 1059 3900 
L 1059 0 
L 475 0 
z
" id="ArialMT-4d" transform="scale(0.015625)"/>
      </defs>
      <use xlink:href="#ArialMT-53"/>
      <use x="66.699219" xlink:href="#ArialMT-74"/>
      <use x="94.482422" xlink:href="#ArialMT-65"/>
      <use x="150.097656" xlink:href="#ArialMT-6c"/>
      <use x="172.314453" xlink:href="#ArialMT-6c"/>
      <use x="194.53125" xlink:href="#ArialMT-61"/>
      <use x="250.146484" xlink:href="#ArialMT-72"/>
      <use x="283.447266" xlink:href="#ArialMT-20"/>
      <use x="311.230469" xlink:href="#ArialMT-47"/>
      <use x="389.013672" xlink:href="#ArialMT-50"/>
      <use x="453.962891" xlink:href="#ArialMT-20"/>
      <use x="481.746094" xlink:href="#ArialMT-4d"/>
      <use x="565.046875" xlink:href="#ArialMT-65"/>
      <use x="620.662109" xlink:href="#ArialMT-61"/>
      <use x="676.277344" xlink:href="#ArialMT-6e"/>
     </g>
    </g>
   </g>
  </g>
 </g>
 <defs>
  <clipPath id="pd5ccb05815">
   <rect height="217.44" width="334.8" x="58.915781" y="7.2"/>
  </clipPath>
 </defs>
</svg>
