<?xml version="1.0" encoding="utf-8" standalone="no"?>
<!DOCTYPE svg PUBLIC "-//W3C//DTD SVG 1.1//EN"
  "http://www.w3.org/Graphics/SVG/1.1/DTD/svg11.dtd">
<svg height="262.989219pt" version="1.1" viewBox="0 0 349.2 262.989219" width="349.2pt" xmlns="http://www.w3.org/2000/svg" xmlns:xlink="http://www.w3.org/1999/xlink">
 <metadata>
  <rdf:RDF xmlns:cc="http://creativecommons.org/ns#" xmlns:dc="http://purl.org/dc/elements/1.1/" xmlns:rdf="http://www.w3.org/1999/02/22-rdf-syntax-ns#">
   <cc:Work>
    <dc:type rdf:resource="http://purl.org/dc/dcmitype/StillImage"/>
    <dc:date>2021-10-26T12:48:27.212159</dc:date>
    <dc:format>image/svg+xml</dc:format>
    <dc:creator>
     <cc:Agent>
      <dc:title>Matplotlib v3.4.3, https://matplotlib.org/</dc:title>
     </cc:Agent>
    </dc:creator>
   </cc:Work>
  </rdf:RDF>
 </metadata>
 <defs>
  <style type="text/css">*{stroke-linecap:butt;stroke-linejoin:round;}</style>
 </defs>
 <g id="figure_1">
  <g id="patch_1">
   <path d="M 0 262.989219 
L 349.2 262.989219 
L 349.2 0 
L 0 0 
z
" style="fill:#ffffff;"/>
  </g>
  <g id="axes_1">
   <g id="patch_2">
    <path d="M 7.2 239.229375 
L 342 239.229375 
L 342 21.789375 
L 7.2 21.789375 
z
" style="fill:#ffffff;"/>
   </g>
   <g id="matplotlib.axis_1">
    <g id="xtick_1">
     <g id="line2d_1">
      <defs>
       <path d="M 0 0 
L 0 3 
" id="m06748f7267" style="stroke:#808080;"/>
      </defs>
      <g>
       <use style="fill:#808080;stroke:#808080;" x="14.162877" xlink:href="#m06748f7267" y="239.229375"/>
      </g>
     </g>
     <g id="text_1">
      <!-- 34 -->
      <g style="fill:#262626;" transform="translate(8.045845 253.602969)scale(0.11 -0.11)">
       <defs>
        <path d="M 269 1209 
L 831 1284 
Q 928 806 1161 595 
Q 1394 384 1728 384 
Q 2125 384 2398 659 
Q 2672 934 2672 1341 
Q 2672 1728 2419 1979 
Q 2166 2231 1775 2231 
Q 1616 2231 1378 2169 
L 1441 2663 
Q 1497 2656 1531 2656 
Q 1891 2656 2178 2843 
Q 2466 3031 2466 3422 
Q 2466 3731 2256 3934 
Q 2047 4138 1716 4138 
Q 1388 4138 1169 3931 
Q 950 3725 888 3313 
L 325 3413 
Q 428 3978 793 4289 
Q 1159 4600 1703 4600 
Q 2078 4600 2393 4439 
Q 2709 4278 2876 4000 
Q 3044 3722 3044 3409 
Q 3044 3113 2884 2869 
Q 2725 2625 2413 2481 
Q 2819 2388 3044 2092 
Q 3269 1797 3269 1353 
Q 3269 753 2831 336 
Q 2394 -81 1725 -81 
Q 1122 -81 723 278 
Q 325 638 269 1209 
z
" id="ArialMT-33" transform="scale(0.015625)"/>
        <path d="M 2069 0 
L 2069 1097 
L 81 1097 
L 81 1613 
L 2172 4581 
L 2631 4581 
L 2631 1613 
L 3250 1613 
L 3250 1097 
L 2631 1097 
L 2631 0 
L 2069 0 
z
M 2069 1613 
L 2069 3678 
L 634 1613 
L 2069 1613 
z
" id="ArialMT-34" transform="scale(0.015625)"/>
       </defs>
       <use xlink:href="#ArialMT-33"/>
       <use x="55.615234" xlink:href="#ArialMT-34"/>
      </g>
     </g>
    </g>
    <g id="xtick_2">
     <g id="line2d_2">
      <g>
       <use style="fill:#808080;stroke:#808080;" x="66.356688" xlink:href="#m06748f7267" y="239.229375"/>
      </g>
     </g>
     <g id="text_2">
      <!-- 35 -->
      <g style="fill:#262626;" transform="translate(60.239657 253.602969)scale(0.11 -0.11)">
       <defs>
        <path d="M 266 1200 
L 856 1250 
Q 922 819 1161 601 
Q 1400 384 1738 384 
Q 2144 384 2425 690 
Q 2706 997 2706 1503 
Q 2706 1984 2436 2262 
Q 2166 2541 1728 2541 
Q 1456 2541 1237 2417 
Q 1019 2294 894 2097 
L 366 2166 
L 809 4519 
L 3088 4519 
L 3088 3981 
L 1259 3981 
L 1013 2750 
Q 1425 3038 1878 3038 
Q 2478 3038 2890 2622 
Q 3303 2206 3303 1553 
Q 3303 931 2941 478 
Q 2500 -78 1738 -78 
Q 1113 -78 717 272 
Q 322 622 266 1200 
z
" id="ArialMT-35" transform="scale(0.015625)"/>
       </defs>
       <use xlink:href="#ArialMT-33"/>
       <use x="55.615234" xlink:href="#ArialMT-35"/>
      </g>
     </g>
    </g>
    <g id="xtick_3">
     <g id="line2d_3">
      <g>
       <use style="fill:#808080;stroke:#808080;" x="118.5505" xlink:href="#m06748f7267" y="239.229375"/>
      </g>
     </g>
     <g id="text_3">
      <!-- 36 -->
      <g style="fill:#262626;" transform="translate(112.433469 253.602969)scale(0.11 -0.11)">
       <defs>
        <path d="M 3184 3459 
L 2625 3416 
Q 2550 3747 2413 3897 
Q 2184 4138 1850 4138 
Q 1581 4138 1378 3988 
Q 1113 3794 959 3422 
Q 806 3050 800 2363 
Q 1003 2672 1297 2822 
Q 1591 2972 1913 2972 
Q 2475 2972 2870 2558 
Q 3266 2144 3266 1488 
Q 3266 1056 3080 686 
Q 2894 316 2569 119 
Q 2244 -78 1831 -78 
Q 1128 -78 684 439 
Q 241 956 241 2144 
Q 241 3472 731 4075 
Q 1159 4600 1884 4600 
Q 2425 4600 2770 4297 
Q 3116 3994 3184 3459 
z
M 888 1484 
Q 888 1194 1011 928 
Q 1134 663 1356 523 
Q 1578 384 1822 384 
Q 2178 384 2434 671 
Q 2691 959 2691 1453 
Q 2691 1928 2437 2201 
Q 2184 2475 1800 2475 
Q 1419 2475 1153 2201 
Q 888 1928 888 1484 
z
" id="ArialMT-36" transform="scale(0.015625)"/>
       </defs>
       <use xlink:href="#ArialMT-33"/>
       <use x="55.615234" xlink:href="#ArialMT-36"/>
      </g>
     </g>
    </g>
    <g id="xtick_4">
     <g id="line2d_4">
      <g>
       <use style="fill:#808080;stroke:#808080;" x="170.744312" xlink:href="#m06748f7267" y="239.229375"/>
      </g>
     </g>
     <g id="text_4">
      <!-- 37 -->
      <g style="fill:#262626;" transform="translate(164.62728 253.602969)scale(0.11 -0.11)">
       <defs>
        <path d="M 303 3981 
L 303 4522 
L 3269 4522 
L 3269 4084 
Q 2831 3619 2401 2847 
Q 1972 2075 1738 1259 
Q 1569 684 1522 0 
L 944 0 
Q 953 541 1156 1306 
Q 1359 2072 1739 2783 
Q 2119 3494 2547 3981 
L 303 3981 
z
" id="ArialMT-37" transform="scale(0.015625)"/>
       </defs>
       <use xlink:href="#ArialMT-33"/>
       <use x="55.615234" xlink:href="#ArialMT-37"/>
      </g>
     </g>
    </g>
    <g id="xtick_5">
     <g id="line2d_5">
      <g>
       <use style="fill:#808080;stroke:#808080;" x="222.938123" xlink:href="#m06748f7267" y="239.229375"/>
      </g>
     </g>
     <g id="text_5">
      <!-- 38 -->
      <g style="fill:#262626;" transform="translate(216.821092 253.602969)scale(0.11 -0.11)">
       <defs>
        <path d="M 1131 2484 
Q 781 2613 612 2850 
Q 444 3088 444 3419 
Q 444 3919 803 4259 
Q 1163 4600 1759 4600 
Q 2359 4600 2725 4251 
Q 3091 3903 3091 3403 
Q 3091 3084 2923 2848 
Q 2756 2613 2416 2484 
Q 2838 2347 3058 2040 
Q 3278 1734 3278 1309 
Q 3278 722 2862 322 
Q 2447 -78 1769 -78 
Q 1091 -78 675 323 
Q 259 725 259 1325 
Q 259 1772 486 2073 
Q 713 2375 1131 2484 
z
M 1019 3438 
Q 1019 3113 1228 2906 
Q 1438 2700 1772 2700 
Q 2097 2700 2305 2904 
Q 2513 3109 2513 3406 
Q 2513 3716 2298 3927 
Q 2084 4138 1766 4138 
Q 1444 4138 1231 3931 
Q 1019 3725 1019 3438 
z
M 838 1322 
Q 838 1081 952 856 
Q 1066 631 1291 507 
Q 1516 384 1775 384 
Q 2178 384 2440 643 
Q 2703 903 2703 1303 
Q 2703 1709 2433 1975 
Q 2163 2241 1756 2241 
Q 1359 2241 1098 1978 
Q 838 1716 838 1322 
z
" id="ArialMT-38" transform="scale(0.015625)"/>
       </defs>
       <use xlink:href="#ArialMT-33"/>
       <use x="55.615234" xlink:href="#ArialMT-38"/>
      </g>
     </g>
    </g>
    <g id="xtick_6">
     <g id="line2d_6">
      <g>
       <use style="fill:#808080;stroke:#808080;" x="275.131935" xlink:href="#m06748f7267" y="239.229375"/>
      </g>
     </g>
     <g id="text_6">
      <!-- 39 -->
      <g style="fill:#262626;" transform="translate(269.014903 253.602969)scale(0.11 -0.11)">
       <defs>
        <path d="M 350 1059 
L 891 1109 
Q 959 728 1153 556 
Q 1347 384 1650 384 
Q 1909 384 2104 503 
Q 2300 622 2425 820 
Q 2550 1019 2634 1356 
Q 2719 1694 2719 2044 
Q 2719 2081 2716 2156 
Q 2547 1888 2255 1720 
Q 1963 1553 1622 1553 
Q 1053 1553 659 1965 
Q 266 2378 266 3053 
Q 266 3750 677 4175 
Q 1088 4600 1706 4600 
Q 2153 4600 2523 4359 
Q 2894 4119 3086 3673 
Q 3278 3228 3278 2384 
Q 3278 1506 3087 986 
Q 2897 466 2520 194 
Q 2144 -78 1638 -78 
Q 1100 -78 759 220 
Q 419 519 350 1059 
z
M 2653 3081 
Q 2653 3566 2395 3850 
Q 2138 4134 1775 4134 
Q 1400 4134 1122 3828 
Q 844 3522 844 3034 
Q 844 2597 1108 2323 
Q 1372 2050 1759 2050 
Q 2150 2050 2401 2323 
Q 2653 2597 2653 3081 
z
" id="ArialMT-39" transform="scale(0.015625)"/>
       </defs>
       <use xlink:href="#ArialMT-33"/>
       <use x="55.615234" xlink:href="#ArialMT-39"/>
      </g>
     </g>
    </g>
    <g id="xtick_7">
     <g id="line2d_7">
      <g>
       <use style="fill:#808080;stroke:#808080;" x="327.325746" xlink:href="#m06748f7267" y="239.229375"/>
      </g>
     </g>
     <g id="text_7">
      <!-- 40 -->
      <g style="fill:#262626;" transform="translate(321.208715 253.602969)scale(0.11 -0.11)">
       <defs>
        <path d="M 266 2259 
Q 266 3072 433 3567 
Q 600 4063 929 4331 
Q 1259 4600 1759 4600 
Q 2128 4600 2406 4451 
Q 2684 4303 2865 4023 
Q 3047 3744 3150 3342 
Q 3253 2941 3253 2259 
Q 3253 1453 3087 958 
Q 2922 463 2592 192 
Q 2263 -78 1759 -78 
Q 1097 -78 719 397 
Q 266 969 266 2259 
z
M 844 2259 
Q 844 1131 1108 757 
Q 1372 384 1759 384 
Q 2147 384 2411 759 
Q 2675 1134 2675 2259 
Q 2675 3391 2411 3762 
Q 2147 4134 1753 4134 
Q 1366 4134 1134 3806 
Q 844 3388 844 2259 
z
" id="ArialMT-30" transform="scale(0.015625)"/>
       </defs>
       <use xlink:href="#ArialMT-34"/>
       <use x="55.615234" xlink:href="#ArialMT-30"/>
      </g>
     </g>
    </g>
   </g>
   <g id="matplotlib.axis_2"/>
   <g id="PolyCollection_1">
    <defs>
     <path d="M 22.418182 -33.64348 
L 22.418182 -35.338924 
L 23.013805 -35.346022 
L 23.609429 -35.35298 
L 24.205052 -35.362766 
L 24.800676 -35.37709 
L 25.3963 -35.392021 
L 25.991923 -35.409208 
L 26.587547 -35.430764 
L 27.18317 -35.452689 
L 27.778794 -35.476575 
L 28.374417 -35.504507 
L 28.970041 -35.534714 
L 29.565664 -35.56495 
L 30.161288 -35.596853 
L 30.756912 -35.630341 
L 31.352535 -35.663612 
L 31.948159 -35.700991 
L 32.543782 -35.744727 
L 33.139406 -35.787152 
L 33.735029 -35.832355 
L 34.330653 -35.884465 
L 34.926276 -35.942161 
L 35.5219 -35.99756 
L 36.117524 -36.058359 
L 36.713147 -36.12092 
L 37.308771 -36.187683 
L 37.904394 -36.258817 
L 38.500018 -36.333948 
L 39.095641 -36.417611 
L 39.691265 -36.506557 
L 40.286888 -36.596997 
L 40.882512 -36.69457 
L 41.478136 -36.799272 
L 42.073759 -36.909429 
L 42.669383 -37.027328 
L 43.265006 -37.149149 
L 43.86063 -37.274451 
L 44.456253 -37.409398 
L 45.051877 -37.544497 
L 45.6475 -37.687602 
L 46.243124 -37.836532 
L 46.838748 -37.988635 
L 47.434371 -38.150103 
L 48.029995 -38.324383 
L 48.625618 -38.4979 
L 49.221242 -38.682263 
L 49.816865 -38.876653 
L 50.412489 -39.071434 
L 51.008112 -39.278156 
L 51.603736 -39.499879 
L 52.19936 -39.72085 
L 52.794983 -39.954292 
L 53.390607 -40.204152 
L 53.98623 -40.459032 
L 54.581854 -40.728297 
L 55.177477 -41.006584 
L 55.773101 -41.293586 
L 56.368724 -41.595535 
L 56.964348 -41.911882 
L 57.559972 -42.237214 
L 58.155595 -42.57907 
L 58.751219 -42.927572 
L 59.346842 -43.290637 
L 59.942466 -43.661613 
L 60.538089 -44.047746 
L 61.133713 -44.443268 
L 61.729336 -44.856396 
L 62.32496 -45.288687 
L 62.920584 -45.737572 
L 63.516207 -46.190699 
L 64.111831 -46.659036 
L 64.707454 -47.129783 
L 65.303078 -47.620083 
L 65.898701 -48.122836 
L 66.494325 -48.646787 
L 67.089948 -49.178978 
L 67.685572 -49.724993 
L 68.281196 -50.277463 
L 68.876819 -50.844272 
L 69.472443 -51.432613 
L 70.068066 -52.04515 
L 70.66369 -52.655802 
L 71.259313 -53.278097 
L 71.854937 -53.917806 
L 72.45056 -54.561092 
L 73.046184 -55.216479 
L 73.641808 -55.88781 
L 74.237431 -56.570024 
L 74.833055 -57.256554 
L 75.428678 -57.971575 
L 76.024302 -58.688127 
L 76.619925 -59.408072 
L 77.215549 -60.14514 
L 77.811172 -60.897389 
L 78.406796 -61.660472 
L 79.002419 -62.43879 
L 79.598043 -63.228581 
L 80.193667 -64.041808 
L 80.78929 -64.871727 
L 81.384914 -65.705033 
L 81.980537 -66.560619 
L 82.576161 -67.432464 
L 83.171784 -68.323703 
L 83.767408 -69.240251 
L 84.363031 -70.18879 
L 84.958655 -71.161104 
L 85.554279 -72.165983 
L 86.149902 -73.194511 
L 86.745526 -74.27288 
L 87.341149 -75.370244 
L 87.936773 -76.520056 
L 88.532396 -77.690575 
L 89.12802 -78.913611 
L 89.723643 -80.192559 
L 90.319267 -81.499132 
L 90.914891 -82.860607 
L 91.510514 -84.259397 
L 92.106138 -85.706538 
L 92.701761 -87.203519 
L 93.297385 -88.728936 
L 93.893008 -90.29947 
L 94.488632 -91.941867 
L 95.084255 -93.620718 
L 95.679879 -95.329252 
L 96.275503 -97.07425 
L 96.871126 -98.842914 
L 97.46675 -100.62506 
L 98.062373 -102.456592 
L 98.657997 -104.294873 
L 99.25362 -106.142612 
L 99.849244 -107.989656 
L 100.444867 -109.854809 
L 101.040491 -111.720641 
L 101.636115 -113.591358 
L 102.231738 -115.432899 
L 102.827362 -117.289308 
L 103.422985 -119.148705 
L 104.018609 -120.99405 
L 104.614232 -122.824592 
L 105.209856 -124.651403 
L 105.805479 -126.484312 
L 106.401103 -128.294275 
L 106.996727 -130.089867 
L 107.59235 -131.904797 
L 108.187974 -133.687471 
L 108.783597 -135.461331 
L 109.379221 -137.251833 
L 109.974844 -139.029102 
L 110.570468 -140.848814 
L 111.166091 -142.647216 
L 111.761715 -144.460783 
L 112.357339 -146.254799 
L 112.952962 -148.036652 
L 113.548586 -149.833826 
L 114.144209 -151.627235 
L 114.739833 -153.410653 
L 115.335456 -155.18833 
L 115.93108 -156.969916 
L 116.526703 -158.738547 
L 117.122327 -160.50031 
L 117.717951 -162.245132 
L 118.313574 -164.006461 
L 118.909198 -165.741188 
L 119.504821 -167.438073 
L 120.100445 -169.139376 
L 120.696068 -170.817955 
L 121.291692 -172.472112 
L 121.887315 -174.118464 
L 122.482939 -175.770405 
L 123.078563 -177.3923 
L 123.674186 -179.005863 
L 124.26981 -180.624621 
L 124.865433 -182.241276 
L 125.461057 -183.847704 
L 126.05668 -185.437843 
L 126.652304 -187.041544 
L 127.247927 -188.695322 
L 127.843551 -190.316539 
L 128.439175 -191.926264 
L 129.034798 -193.531531 
L 129.630422 -195.147215 
L 130.226045 -196.759905 
L 130.821669 -198.362464 
L 131.417292 -199.9441 
L 132.012916 -201.509143 
L 132.608539 -203.043358 
L 133.204163 -204.585757 
L 133.799787 -206.095148 
L 134.39541 -207.586469 
L 134.991034 -209.050218 
L 135.586657 -210.458182 
L 136.182281 -211.841998 
L 136.777904 -213.182482 
L 137.373528 -214.4945 
L 137.969151 -215.761329 
L 138.564775 -216.96512 
L 139.160399 -218.161055 
L 139.756022 -219.267998 
L 140.351646 -220.317869 
L 140.947269 -221.309283 
L 141.542893 -222.279487 
L 142.138516 -223.185184 
L 142.73414 -224.062316 
L 143.329763 -224.88987 
L 143.925387 -225.660167 
L 144.52101 -226.377538 
L 145.116634 -227.045084 
L 145.712258 -227.698228 
L 146.307881 -228.25733 
L 146.903505 -228.800305 
L 147.499128 -229.277302 
L 148.094752 -229.743487 
L 148.690375 -230.121779 
L 149.285999 -230.457705 
L 149.881622 -230.742094 
L 150.477246 -230.969317 
L 151.07287 -231.128251 
L 151.668493 -231.24332 
L 152.264117 -231.297798 
L 152.85974 -231.316207 
L 153.455364 -231.248076 
L 154.050987 -231.143827 
L 154.646611 -230.976974 
L 155.242234 -230.751353 
L 155.837858 -230.483792 
L 156.433482 -230.136611 
L 157.029105 -229.758394 
L 157.624729 -229.339976 
L 158.220352 -228.896517 
L 158.815976 -228.399966 
L 159.411599 -227.857733 
L 160.007223 -227.291511 
L 160.602846 -226.685987 
L 161.19847 -226.041726 
L 161.794094 -225.34991 
L 162.389717 -224.636106 
L 162.985341 -223.891856 
L 163.580964 -223.112247 
L 164.176588 -222.290106 
L 164.772211 -221.457058 
L 165.367835 -220.607596 
L 165.963458 -219.689832 
L 166.559082 -218.767492 
L 167.154706 -217.788609 
L 167.750329 -216.772954 
L 168.345953 -215.699399 
L 168.941576 -214.57999 
L 169.5372 -213.411755 
L 170.132823 -212.168626 
L 170.728447 -210.876179 
L 171.32407 -209.540514 
L 171.919694 -208.15673 
L 172.515318 -206.694843 
L 173.110941 -205.149028 
L 173.706565 -203.571199 
L 174.302188 -201.953421 
L 174.897812 -200.286897 
L 175.493435 -198.550268 
L 176.089059 -196.76473 
L 176.684682 -194.949696 
L 177.280306 -193.104959 
L 177.87593 -191.229526 
L 178.471553 -189.32626 
L 179.067177 -187.399706 
L 179.6628 -185.443906 
L 180.258424 -183.467708 
L 180.854047 -181.479433 
L 181.449671 -179.488723 
L 182.045294 -177.498588 
L 182.640918 -175.51684 
L 183.236542 -173.531356 
L 183.832165 -171.566027 
L 184.427789 -169.617522 
L 185.023412 -167.650267 
L 185.619036 -165.73268 
L 186.214659 -163.833519 
L 186.810283 -161.964697 
L 187.405906 -160.089168 
L 188.00153 -158.244814 
L 188.597154 -156.408268 
L 189.192777 -154.593067 
L 189.788401 -152.777382 
L 190.384024 -150.991692 
L 190.979648 -149.202659 
L 191.575271 -147.41464 
L 192.170895 -145.647912 
L 192.766518 -143.867803 
L 193.362142 -142.104945 
L 193.957766 -140.324416 
L 194.553389 -138.578312 
L 195.149013 -136.805732 
L 195.744636 -135.058339 
L 196.34026 -133.323939 
L 196.935883 -131.587891 
L 197.531507 -129.831514 
L 198.12713 -128.095676 
L 198.722754 -126.357732 
L 199.318378 -124.632145 
L 199.914001 -122.935201 
L 200.509625 -121.253096 
L 201.105248 -119.585338 
L 201.700872 -117.950844 
L 202.296495 -116.341108 
L 202.892119 -114.782229 
L 203.487742 -113.239892 
L 204.083366 -111.746291 
L 204.67899 -110.319682 
L 205.274613 -108.927546 
L 205.870237 -107.584261 
L 206.46586 -106.288575 
L 207.061484 -105.049376 
L 207.657107 -103.850458 
L 208.252731 -102.709364 
L 208.848354 -101.600324 
L 209.443978 -100.526539 
L 210.039601 -99.474646 
L 210.635225 -98.462259 
L 211.230849 -97.472169 
L 211.826472 -96.517811 
L 212.422096 -95.566942 
L 213.017719 -94.639503 
L 213.613343 -93.724586 
L 214.208966 -92.810979 
L 214.80459 -91.916603 
L 215.400213 -91.010509 
L 215.995837 -90.115623 
L 216.591461 -89.216761 
L 217.187084 -88.308563 
L 217.782708 -87.39317 
L 218.378331 -86.483813 
L 218.973955 -85.568729 
L 219.569578 -84.665645 
L 220.165202 -83.74837 
L 220.760825 -82.835885 
L 221.356449 -81.919915 
L 221.952073 -81.007562 
L 222.547696 -80.10328 
L 223.14332 -79.202244 
L 223.738943 -78.311606 
L 224.334567 -77.421307 
L 224.93019 -76.522314 
L 225.525814 -75.648003 
L 226.121437 -74.798282 
L 226.717061 -73.946368 
L 227.312685 -73.114756 
L 227.908308 -72.285764 
L 228.503932 -71.453484 
L 229.099555 -70.640779 
L 229.695179 -69.833478 
L 230.290802 -69.045113 
L 230.886426 -68.273927 
L 231.482049 -67.512481 
L 232.077673 -66.756115 
L 232.673297 -66.01447 
L 233.26892 -65.298531 
L 233.864544 -64.597624 
L 234.460167 -63.906866 
L 235.055791 -63.233275 
L 235.651414 -62.582935 
L 236.247038 -61.943249 
L 236.842661 -61.324483 
L 237.438285 -60.710211 
L 238.033909 -60.119566 
L 238.629532 -59.526153 
L 239.225156 -58.945127 
L 239.820779 -58.372034 
L 240.416403 -57.790705 
L 241.012026 -57.237803 
L 241.60765 -56.67588 
L 242.203273 -56.118911 
L 242.798897 -55.566303 
L 243.394521 -55.015206 
L 243.990144 -54.461975 
L 244.585768 -53.900807 
L 245.181391 -53.339587 
L 245.777015 -52.771283 
L 246.372638 -52.20781 
L 246.968262 -51.639169 
L 247.563885 -51.062432 
L 248.159509 -50.491104 
L 248.755133 -49.913537 
L 249.350756 -49.353018 
L 249.94638 -48.794132 
L 250.542003 -48.2444 
L 251.137627 -47.700002 
L 251.73325 -47.16353 
L 252.328874 -46.646462 
L 252.924497 -46.138365 
L 253.520121 -45.655137 
L 254.115745 -45.185667 
L 254.711368 -44.73312 
L 255.306992 -44.303358 
L 255.902615 -43.892086 
L 256.498239 -43.488344 
L 257.093862 -43.110403 
L 257.689486 -42.745683 
L 258.285109 -42.395844 
L 258.880733 -42.065751 
L 259.476357 -41.746692 
L 260.07198 -41.449527 
L 260.667604 -41.158178 
L 261.263227 -40.881725 
L 261.858851 -40.616483 
L 262.454474 -40.358084 
L 263.050098 -40.113456 
L 263.645721 -39.877429 
L 264.241345 -39.649411 
L 264.836969 -39.434122 
L 265.432592 -39.216074 
L 266.028216 -39.012857 
L 266.623839 -38.805071 
L 267.219463 -38.615979 
L 267.815086 -38.432805 
L 268.41071 -38.248771 
L 269.006333 -38.07955 
L 269.601957 -37.91469 
L 270.197581 -37.754303 
L 270.793204 -37.605805 
L 271.388828 -37.461488 
L 271.984451 -37.322421 
L 272.580075 -37.188539 
L 273.175698 -37.061379 
L 273.771322 -36.942449 
L 274.366945 -36.832834 
L 274.962569 -36.724592 
L 275.558192 -36.621938 
L 276.153816 -36.528068 
L 276.74944 -36.438422 
L 277.345063 -36.352883 
L 277.940687 -36.270076 
L 278.53631 -36.193746 
L 279.131934 -36.117584 
L 279.727557 -36.04925 
L 280.323181 -35.982981 
L 280.918804 -35.920891 
L 281.514428 -35.862392 
L 282.110052 -35.807412 
L 282.705675 -35.757625 
L 283.301299 -35.709093 
L 283.896922 -35.662226 
L 284.492546 -35.620792 
L 285.088169 -35.582443 
L 285.683793 -35.548777 
L 286.279416 -35.517483 
L 286.87504 -35.486694 
L 287.470664 -35.458861 
L 288.066287 -35.431946 
L 288.661911 -35.409013 
L 289.257534 -35.389245 
L 289.853158 -35.37017 
L 290.448781 -35.351524 
L 291.044405 -35.333023 
L 291.640028 -35.312637 
L 292.235652 -35.293954 
L 292.831276 -35.274478 
L 293.426899 -35.252239 
L 294.022523 -35.230908 
L 294.618146 -35.206358 
L 295.21377 -35.180613 
L 295.809393 -35.155252 
L 296.405017 -35.128038 
L 297.00064 -35.099005 
L 297.596264 -35.06822 
L 298.191888 -35.034039 
L 298.787511 -35.000451 
L 299.383135 -34.965374 
L 299.978758 -34.927234 
L 300.574382 -34.890076 
L 301.170005 -34.850115 
L 301.765629 -34.81141 
L 302.361252 -34.771918 
L 302.956876 -34.730082 
L 303.5525 -34.689943 
L 304.148123 -34.651672 
L 304.743747 -34.613807 
L 305.33937 -34.574395 
L 305.934994 -34.53361 
L 306.530617 -34.493758 
L 307.126241 -34.456657 
L 307.721864 -34.420268 
L 308.317488 -34.384785 
L 308.913112 -34.350404 
L 309.508735 -34.317316 
L 310.104359 -34.285715 
L 310.699982 -34.255792 
L 311.295606 -34.227738 
L 311.891229 -34.201739 
L 312.486853 -34.177972 
L 313.082476 -34.156603 
L 313.6781 -34.136043 
L 314.273724 -34.120289 
L 314.869347 -34.105479 
L 315.464971 -34.095564 
L 316.060594 -34.088356 
L 316.656218 -34.083856 
L 317.251841 -34.080273 
L 317.847465 -34.079632 
L 318.443088 -34.083417 
L 319.038712 -34.089199 
L 319.634336 -34.096729 
L 320.229959 -34.105703 
L 320.825583 -34.11577 
L 321.421206 -34.12878 
L 322.01683 -34.140466 
L 322.612453 -34.152156 
L 323.208077 -34.163444 
L 323.8037 -34.172196 
L 324.399324 -34.181917 
L 324.994948 -34.190052 
L 325.590571 -34.196333 
L 326.186195 -34.198808 
L 326.781818 -34.201198 
L 326.781818 -33.64348 
L 326.781818 -33.64348 
L 326.186195 -33.64348 
L 325.590571 -33.64348 
L 324.994948 -33.64348 
L 324.399324 -33.64348 
L 323.8037 -33.64348 
L 323.208077 -33.64348 
L 322.612453 -33.64348 
L 322.01683 -33.64348 
L 321.421206 -33.64348 
L 320.825583 -33.64348 
L 320.229959 -33.64348 
L 319.634336 -33.64348 
L 319.038712 -33.64348 
L 318.443088 -33.64348 
L 317.847465 -33.64348 
L 317.251841 -33.64348 
L 316.656218 -33.64348 
L 316.060594 -33.64348 
L 315.464971 -33.64348 
L 314.869347 -33.64348 
L 314.273724 -33.64348 
L 313.6781 -33.64348 
L 313.082476 -33.64348 
L 312.486853 -33.64348 
L 311.891229 -33.64348 
L 311.295606 -33.64348 
L 310.699982 -33.64348 
L 310.104359 -33.64348 
L 309.508735 -33.64348 
L 308.913112 -33.64348 
L 308.317488 -33.64348 
L 307.721864 -33.64348 
L 307.126241 -33.64348 
L 306.530617 -33.64348 
L 305.934994 -33.64348 
L 305.33937 -33.64348 
L 304.743747 -33.64348 
L 304.148123 -33.64348 
L 303.5525 -33.64348 
L 302.956876 -33.64348 
L 302.361252 -33.64348 
L 301.765629 -33.64348 
L 301.170005 -33.64348 
L 300.574382 -33.64348 
L 299.978758 -33.64348 
L 299.383135 -33.64348 
L 298.787511 -33.64348 
L 298.191888 -33.64348 
L 297.596264 -33.64348 
L 297.00064 -33.64348 
L 296.405017 -33.64348 
L 295.809393 -33.64348 
L 295.21377 -33.64348 
L 294.618146 -33.64348 
L 294.022523 -33.64348 
L 293.426899 -33.64348 
L 292.831276 -33.64348 
L 292.235652 -33.64348 
L 291.640028 -33.64348 
L 291.044405 -33.64348 
L 290.448781 -33.64348 
L 289.853158 -33.64348 
L 289.257534 -33.64348 
L 288.661911 -33.64348 
L 288.066287 -33.64348 
L 287.470664 -33.64348 
L 286.87504 -33.64348 
L 286.279416 -33.64348 
L 285.683793 -33.64348 
L 285.088169 -33.64348 
L 284.492546 -33.64348 
L 283.896922 -33.64348 
L 283.301299 -33.64348 
L 282.705675 -33.64348 
L 282.110052 -33.64348 
L 281.514428 -33.64348 
L 280.918804 -33.64348 
L 280.323181 -33.64348 
L 279.727557 -33.64348 
L 279.131934 -33.64348 
L 278.53631 -33.64348 
L 277.940687 -33.64348 
L 277.345063 -33.64348 
L 276.74944 -33.64348 
L 276.153816 -33.64348 
L 275.558192 -33.64348 
L 274.962569 -33.64348 
L 274.366945 -33.64348 
L 273.771322 -33.64348 
L 273.175698 -33.64348 
L 272.580075 -33.64348 
L 271.984451 -33.64348 
L 271.388828 -33.64348 
L 270.793204 -33.64348 
L 270.197581 -33.64348 
L 269.601957 -33.64348 
L 269.006333 -33.64348 
L 268.41071 -33.64348 
L 267.815086 -33.64348 
L 267.219463 -33.64348 
L 266.623839 -33.64348 
L 266.028216 -33.64348 
L 265.432592 -33.64348 
L 264.836969 -33.64348 
L 264.241345 -33.64348 
L 263.645721 -33.64348 
L 263.050098 -33.64348 
L 262.454474 -33.64348 
L 261.858851 -33.64348 
L 261.263227 -33.64348 
L 260.667604 -33.64348 
L 260.07198 -33.64348 
L 259.476357 -33.64348 
L 258.880733 -33.64348 
L 258.285109 -33.64348 
L 257.689486 -33.64348 
L 257.093862 -33.64348 
L 256.498239 -33.64348 
L 255.902615 -33.64348 
L 255.306992 -33.64348 
L 254.711368 -33.64348 
L 254.115745 -33.64348 
L 253.520121 -33.64348 
L 252.924497 -33.64348 
L 252.328874 -33.64348 
L 251.73325 -33.64348 
L 251.137627 -33.64348 
L 250.542003 -33.64348 
L 249.94638 -33.64348 
L 249.350756 -33.64348 
L 248.755133 -33.64348 
L 248.159509 -33.64348 
L 247.563885 -33.64348 
L 246.968262 -33.64348 
L 246.372638 -33.64348 
L 245.777015 -33.64348 
L 245.181391 -33.64348 
L 244.585768 -33.64348 
L 243.990144 -33.64348 
L 243.394521 -33.64348 
L 242.798897 -33.64348 
L 242.203273 -33.64348 
L 241.60765 -33.64348 
L 241.012026 -33.64348 
L 240.416403 -33.64348 
L 239.820779 -33.64348 
L 239.225156 -33.64348 
L 238.629532 -33.64348 
L 238.033909 -33.64348 
L 237.438285 -33.64348 
L 236.842661 -33.64348 
L 236.247038 -33.64348 
L 235.651414 -33.64348 
L 235.055791 -33.64348 
L 234.460167 -33.64348 
L 233.864544 -33.64348 
L 233.26892 -33.64348 
L 232.673297 -33.64348 
L 232.077673 -33.64348 
L 231.482049 -33.64348 
L 230.886426 -33.64348 
L 230.290802 -33.64348 
L 229.695179 -33.64348 
L 229.099555 -33.64348 
L 228.503932 -33.64348 
L 227.908308 -33.64348 
L 227.312685 -33.64348 
L 226.717061 -33.64348 
L 226.121437 -33.64348 
L 225.525814 -33.64348 
L 224.93019 -33.64348 
L 224.334567 -33.64348 
L 223.738943 -33.64348 
L 223.14332 -33.64348 
L 222.547696 -33.64348 
L 221.952073 -33.64348 
L 221.356449 -33.64348 
L 220.760825 -33.64348 
L 220.165202 -33.64348 
L 219.569578 -33.64348 
L 218.973955 -33.64348 
L 218.378331 -33.64348 
L 217.782708 -33.64348 
L 217.187084 -33.64348 
L 216.591461 -33.64348 
L 215.995837 -33.64348 
L 215.400213 -33.64348 
L 214.80459 -33.64348 
L 214.208966 -33.64348 
L 213.613343 -33.64348 
L 213.017719 -33.64348 
L 212.422096 -33.64348 
L 211.826472 -33.64348 
L 211.230849 -33.64348 
L 210.635225 -33.64348 
L 210.039601 -33.64348 
L 209.443978 -33.64348 
L 208.848354 -33.64348 
L 208.252731 -33.64348 
L 207.657107 -33.64348 
L 207.061484 -33.64348 
L 206.46586 -33.64348 
L 205.870237 -33.64348 
L 205.274613 -33.64348 
L 204.67899 -33.64348 
L 204.083366 -33.64348 
L 203.487742 -33.64348 
L 202.892119 -33.64348 
L 202.296495 -33.64348 
L 201.700872 -33.64348 
L 201.105248 -33.64348 
L 200.509625 -33.64348 
L 199.914001 -33.64348 
L 199.318378 -33.64348 
L 198.722754 -33.64348 
L 198.12713 -33.64348 
L 197.531507 -33.64348 
L 196.935883 -33.64348 
L 196.34026 -33.64348 
L 195.744636 -33.64348 
L 195.149013 -33.64348 
L 194.553389 -33.64348 
L 193.957766 -33.64348 
L 193.362142 -33.64348 
L 192.766518 -33.64348 
L 192.170895 -33.64348 
L 191.575271 -33.64348 
L 190.979648 -33.64348 
L 190.384024 -33.64348 
L 189.788401 -33.64348 
L 189.192777 -33.64348 
L 188.597154 -33.64348 
L 188.00153 -33.64348 
L 187.405906 -33.64348 
L 186.810283 -33.64348 
L 186.214659 -33.64348 
L 185.619036 -33.64348 
L 185.023412 -33.64348 
L 184.427789 -33.64348 
L 183.832165 -33.64348 
L 183.236542 -33.64348 
L 182.640918 -33.64348 
L 182.045294 -33.64348 
L 181.449671 -33.64348 
L 180.854047 -33.64348 
L 180.258424 -33.64348 
L 179.6628 -33.64348 
L 179.067177 -33.64348 
L 178.471553 -33.64348 
L 177.87593 -33.64348 
L 177.280306 -33.64348 
L 176.684682 -33.64348 
L 176.089059 -33.64348 
L 175.493435 -33.64348 
L 174.897812 -33.64348 
L 174.302188 -33.64348 
L 173.706565 -33.64348 
L 173.110941 -33.64348 
L 172.515318 -33.64348 
L 171.919694 -33.64348 
L 171.32407 -33.64348 
L 170.728447 -33.64348 
L 170.132823 -33.64348 
L 169.5372 -33.64348 
L 168.941576 -33.64348 
L 168.345953 -33.64348 
L 167.750329 -33.64348 
L 167.154706 -33.64348 
L 166.559082 -33.64348 
L 165.963458 -33.64348 
L 165.367835 -33.64348 
L 164.772211 -33.64348 
L 164.176588 -33.64348 
L 163.580964 -33.64348 
L 162.985341 -33.64348 
L 162.389717 -33.64348 
L 161.794094 -33.64348 
L 161.19847 -33.64348 
L 160.602846 -33.64348 
L 160.007223 -33.64348 
L 159.411599 -33.64348 
L 158.815976 -33.64348 
L 158.220352 -33.64348 
L 157.624729 -33.64348 
L 157.029105 -33.64348 
L 156.433482 -33.64348 
L 155.837858 -33.64348 
L 155.242234 -33.64348 
L 154.646611 -33.64348 
L 154.050987 -33.64348 
L 153.455364 -33.64348 
L 152.85974 -33.64348 
L 152.264117 -33.64348 
L 151.668493 -33.64348 
L 151.07287 -33.64348 
L 150.477246 -33.64348 
L 149.881622 -33.64348 
L 149.285999 -33.64348 
L 148.690375 -33.64348 
L 148.094752 -33.64348 
L 147.499128 -33.64348 
L 146.903505 -33.64348 
L 146.307881 -33.64348 
L 145.712258 -33.64348 
L 145.116634 -33.64348 
L 144.52101 -33.64348 
L 143.925387 -33.64348 
L 143.329763 -33.64348 
L 142.73414 -33.64348 
L 142.138516 -33.64348 
L 141.542893 -33.64348 
L 140.947269 -33.64348 
L 140.351646 -33.64348 
L 139.756022 -33.64348 
L 139.160399 -33.64348 
L 138.564775 -33.64348 
L 137.969151 -33.64348 
L 137.373528 -33.64348 
L 136.777904 -33.64348 
L 136.182281 -33.64348 
L 135.586657 -33.64348 
L 134.991034 -33.64348 
L 134.39541 -33.64348 
L 133.799787 -33.64348 
L 133.204163 -33.64348 
L 132.608539 -33.64348 
L 132.012916 -33.64348 
L 131.417292 -33.64348 
L 130.821669 -33.64348 
L 130.226045 -33.64348 
L 129.630422 -33.64348 
L 129.034798 -33.64348 
L 128.439175 -33.64348 
L 127.843551 -33.64348 
L 127.247927 -33.64348 
L 126.652304 -33.64348 
L 126.05668 -33.64348 
L 125.461057 -33.64348 
L 124.865433 -33.64348 
L 124.26981 -33.64348 
L 123.674186 -33.64348 
L 123.078563 -33.64348 
L 122.482939 -33.64348 
L 121.887315 -33.64348 
L 121.291692 -33.64348 
L 120.696068 -33.64348 
L 120.100445 -33.64348 
L 119.504821 -33.64348 
L 118.909198 -33.64348 
L 118.313574 -33.64348 
L 117.717951 -33.64348 
L 117.122327 -33.64348 
L 116.526703 -33.64348 
L 115.93108 -33.64348 
L 115.335456 -33.64348 
L 114.739833 -33.64348 
L 114.144209 -33.64348 
L 113.548586 -33.64348 
L 112.952962 -33.64348 
L 112.357339 -33.64348 
L 111.761715 -33.64348 
L 111.166091 -33.64348 
L 110.570468 -33.64348 
L 109.974844 -33.64348 
L 109.379221 -33.64348 
L 108.783597 -33.64348 
L 108.187974 -33.64348 
L 107.59235 -33.64348 
L 106.996727 -33.64348 
L 106.401103 -33.64348 
L 105.805479 -33.64348 
L 105.209856 -33.64348 
L 104.614232 -33.64348 
L 104.018609 -33.64348 
L 103.422985 -33.64348 
L 102.827362 -33.64348 
L 102.231738 -33.64348 
L 101.636115 -33.64348 
L 101.040491 -33.64348 
L 100.444867 -33.64348 
L 99.849244 -33.64348 
L 99.25362 -33.64348 
L 98.657997 -33.64348 
L 98.062373 -33.64348 
L 97.46675 -33.64348 
L 96.871126 -33.64348 
L 96.275503 -33.64348 
L 95.679879 -33.64348 
L 95.084255 -33.64348 
L 94.488632 -33.64348 
L 93.893008 -33.64348 
L 93.297385 -33.64348 
L 92.701761 -33.64348 
L 92.106138 -33.64348 
L 91.510514 -33.64348 
L 90.914891 -33.64348 
L 90.319267 -33.64348 
L 89.723643 -33.64348 
L 89.12802 -33.64348 
L 88.532396 -33.64348 
L 87.936773 -33.64348 
L 87.341149 -33.64348 
L 86.745526 -33.64348 
L 86.149902 -33.64348 
L 85.554279 -33.64348 
L 84.958655 -33.64348 
L 84.363031 -33.64348 
L 83.767408 -33.64348 
L 83.171784 -33.64348 
L 82.576161 -33.64348 
L 81.980537 -33.64348 
L 81.384914 -33.64348 
L 80.78929 -33.64348 
L 80.193667 -33.64348 
L 79.598043 -33.64348 
L 79.002419 -33.64348 
L 78.406796 -33.64348 
L 77.811172 -33.64348 
L 77.215549 -33.64348 
L 76.619925 -33.64348 
L 76.024302 -33.64348 
L 75.428678 -33.64348 
L 74.833055 -33.64348 
L 74.237431 -33.64348 
L 73.641808 -33.64348 
L 73.046184 -33.64348 
L 72.45056 -33.64348 
L 71.854937 -33.64348 
L 71.259313 -33.64348 
L 70.66369 -33.64348 
L 70.068066 -33.64348 
L 69.472443 -33.64348 
L 68.876819 -33.64348 
L 68.281196 -33.64348 
L 67.685572 -33.64348 
L 67.089948 -33.64348 
L 66.494325 -33.64348 
L 65.898701 -33.64348 
L 65.303078 -33.64348 
L 64.707454 -33.64348 
L 64.111831 -33.64348 
L 63.516207 -33.64348 
L 62.920584 -33.64348 
L 62.32496 -33.64348 
L 61.729336 -33.64348 
L 61.133713 -33.64348 
L 60.538089 -33.64348 
L 59.942466 -33.64348 
L 59.346842 -33.64348 
L 58.751219 -33.64348 
L 58.155595 -33.64348 
L 57.559972 -33.64348 
L 56.964348 -33.64348 
L 56.368724 -33.64348 
L 55.773101 -33.64348 
L 55.177477 -33.64348 
L 54.581854 -33.64348 
L 53.98623 -33.64348 
L 53.390607 -33.64348 
L 52.794983 -33.64348 
L 52.19936 -33.64348 
L 51.603736 -33.64348 
L 51.008112 -33.64348 
L 50.412489 -33.64348 
L 49.816865 -33.64348 
L 49.221242 -33.64348 
L 48.625618 -33.64348 
L 48.029995 -33.64348 
L 47.434371 -33.64348 
L 46.838748 -33.64348 
L 46.243124 -33.64348 
L 45.6475 -33.64348 
L 45.051877 -33.64348 
L 44.456253 -33.64348 
L 43.86063 -33.64348 
L 43.265006 -33.64348 
L 42.669383 -33.64348 
L 42.073759 -33.64348 
L 41.478136 -33.64348 
L 40.882512 -33.64348 
L 40.286888 -33.64348 
L 39.691265 -33.64348 
L 39.095641 -33.64348 
L 38.500018 -33.64348 
L 37.904394 -33.64348 
L 37.308771 -33.64348 
L 36.713147 -33.64348 
L 36.117524 -33.64348 
L 35.5219 -33.64348 
L 34.926276 -33.64348 
L 34.330653 -33.64348 
L 33.735029 -33.64348 
L 33.139406 -33.64348 
L 32.543782 -33.64348 
L 31.948159 -33.64348 
L 31.352535 -33.64348 
L 30.756912 -33.64348 
L 30.161288 -33.64348 
L 29.565664 -33.64348 
L 28.970041 -33.64348 
L 28.374417 -33.64348 
L 27.778794 -33.64348 
L 27.18317 -33.64348 
L 26.587547 -33.64348 
L 25.991923 -33.64348 
L 25.3963 -33.64348 
L 24.800676 -33.64348 
L 24.205052 -33.64348 
L 23.609429 -33.64348 
L 23.013805 -33.64348 
L 22.418182 -33.64348 
z
" id="m7c9d6afc7b" style="stroke:#0173b2;stroke-opacity:0;"/>
    </defs>
    <g clip-path="url(#pd725609392)">
     <use style="fill:#0173b2;fill-opacity:0;stroke:#0173b2;stroke-opacity:0;" x="0" xlink:href="#m7c9d6afc7b" y="262.989219"/>
    </g>
   </g>
   <g id="line2d_8">
    <path clip-path="url(#pd725609392)" d="M 22.418182 227.650295 
L 28.374417 227.484712 
L 34.926276 227.047057 
L 39.095641 226.571607 
L 43.265006 225.84007 
L 46.838748 225.000584 
L 50.412489 223.917784 
L 53.390607 222.785066 
L 56.368724 221.393684 
L 59.346842 219.698582 
L 61.729336 218.132823 
L 64.707454 215.859435 
L 67.685572 213.264226 
L 70.068066 210.944068 
L 73.046184 207.77274 
L 76.619925 203.581146 
L 79.598043 199.760638 
L 82.576161 195.556754 
L 84.958655 191.828115 
L 87.341149 187.618974 
L 89.723643 182.79666 
L 91.510514 178.729822 
L 93.893008 172.689749 
L 96.275503 165.914969 
L 99.849244 154.999563 
L 107.59235 131.084422 
L 120.696068 92.171263 
L 127.247927 74.293897 
L 133.204163 58.403462 
L 136.182281 51.147221 
L 138.564775 46.024099 
L 140.351646 42.67135 
L 142.138516 39.804034 
L 143.925387 37.329052 
L 145.712258 35.29099 
L 147.499128 33.711916 
L 148.690375 32.86744 
L 149.881622 32.247125 
L 151.07287 31.860968 
L 152.264117 31.691421 
L 153.455364 31.741142 
L 154.646611 32.012244 
L 155.837858 32.505427 
L 157.624729 33.649243 
L 158.815976 34.589253 
L 160.602846 36.303232 
L 162.389717 38.353113 
L 164.176588 40.699113 
L 166.559082 44.221727 
L 168.345953 47.28982 
L 170.132823 50.820593 
L 171.919694 54.832488 
L 173.706565 59.41802 
L 175.493435 64.438951 
L 178.471553 73.662959 
L 182.640918 87.472378 
L 186.810283 101.024522 
L 190.979648 113.78656 
L 198.12713 134.893542 
L 201.700872 145.038374 
L 204.083366 151.242928 
L 206.46586 156.700644 
L 208.252731 160.279855 
L 210.635225 164.52696 
L 213.613343 169.264633 
L 225.525814 187.341216 
L 229.695179 193.155741 
L 232.673297 196.974748 
L 235.651414 200.406284 
L 238.629532 203.463066 
L 243.394521 207.974012 
L 254.115745 217.803551 
L 256.498239 219.500875 
L 258.880733 220.923468 
L 261.263227 222.107494 
L 264.241345 223.339808 
L 268.41071 224.740448 
L 271.984451 225.666797 
L 275.558192 226.36728 
L 280.323181 227.006238 
L 285.088169 227.406776 
L 291.640028 227.676581 
L 299.383135 228.023845 
L 314.273724 228.86893 
L 319.634336 228.892489 
L 326.781818 228.788021 
L 326.781818 228.788021 
" style="fill:none;stroke:#0173b2;stroke-linecap:round;stroke-width:1.5;"/>
   </g>
   <g id="line2d_9">
    <path clip-path="url(#pd725609392)" d="M 79.100322 225.194611 
L 229.842274 225.194611 
" style="fill:none;stroke:#000000;stroke-width:3;"/>
   </g>
   <g id="patch_3">
    <path d="M 7.2 239.229375 
L 342 239.229375 
" style="fill:none;stroke:#808080;stroke-linecap:square;stroke-linejoin:miter;stroke-width:1.25;"/>
   </g>
   <g id="text_8">
    <!-- 35  -->
    <g style="fill:#262626;" transform="translate(62.420322 214.816793)scale(0.12 -0.12)">
     <defs>
      <path id="ArialMT-20" transform="scale(0.015625)"/>
     </defs>
     <use xlink:href="#ArialMT-33"/>
     <use x="55.615234" xlink:href="#ArialMT-35"/>
     <use x="111.230469" xlink:href="#ArialMT-20"/>
    </g>
   </g>
   <g id="text_9">
    <!--  38 -->
    <g style="fill:#262626;" transform="translate(229.842274 214.816793)scale(0.12 -0.12)">
     <use xlink:href="#ArialMT-20"/>
     <use x="27.783203" xlink:href="#ArialMT-33"/>
     <use x="83.398438" xlink:href="#ArialMT-38"/>
    </g>
   </g>
   <g id="text_10">
    <!-- 94% HDI -->
    <g style="fill:#262626;" transform="translate(130.46286 167.07883)scale(0.12 -0.12)">
     <defs>
      <path d="M 372 3481 
Q 372 3972 619 4315 
Q 866 4659 1334 4659 
Q 1766 4659 2048 4351 
Q 2331 4044 2331 3447 
Q 2331 2866 2045 2552 
Q 1759 2238 1341 2238 
Q 925 2238 648 2547 
Q 372 2856 372 3481 
z
M 1350 4272 
Q 1141 4272 1002 4090 
Q 863 3909 863 3425 
Q 863 2984 1003 2804 
Q 1144 2625 1350 2625 
Q 1563 2625 1702 2806 
Q 1841 2988 1841 3469 
Q 1841 3913 1700 4092 
Q 1559 4272 1350 4272 
z
M 1353 -169 
L 3859 4659 
L 4316 4659 
L 1819 -169 
L 1353 -169 
z
M 3334 1075 
Q 3334 1569 3581 1911 
Q 3828 2253 4300 2253 
Q 4731 2253 5014 1945 
Q 5297 1638 5297 1041 
Q 5297 459 5011 145 
Q 4725 -169 4303 -169 
Q 3888 -169 3611 142 
Q 3334 453 3334 1075 
z
M 4316 1866 
Q 4103 1866 3964 1684 
Q 3825 1503 3825 1019 
Q 3825 581 3965 400 
Q 4106 219 4313 219 
Q 4528 219 4667 400 
Q 4806 581 4806 1063 
Q 4806 1506 4665 1686 
Q 4525 1866 4316 1866 
z
" id="ArialMT-25" transform="scale(0.015625)"/>
      <path d="M 513 0 
L 513 4581 
L 1119 4581 
L 1119 2700 
L 3500 2700 
L 3500 4581 
L 4106 4581 
L 4106 0 
L 3500 0 
L 3500 2159 
L 1119 2159 
L 1119 0 
L 513 0 
z
" id="ArialMT-48" transform="scale(0.015625)"/>
      <path d="M 494 0 
L 494 4581 
L 2072 4581 
Q 2606 4581 2888 4516 
Q 3281 4425 3559 4188 
Q 3922 3881 4101 3404 
Q 4281 2928 4281 2316 
Q 4281 1794 4159 1391 
Q 4038 988 3847 723 
Q 3656 459 3429 307 
Q 3203 156 2883 78 
Q 2563 0 2147 0 
L 494 0 
z
M 1100 541 
L 2078 541 
Q 2531 541 2789 625 
Q 3047 709 3200 863 
Q 3416 1078 3536 1442 
Q 3656 1806 3656 2325 
Q 3656 3044 3420 3430 
Q 3184 3816 2847 3947 
Q 2603 4041 2063 4041 
L 1100 4041 
L 1100 541 
z
" id="ArialMT-44" transform="scale(0.015625)"/>
      <path d="M 597 0 
L 597 4581 
L 1203 4581 
L 1203 0 
L 597 0 
z
" id="ArialMT-49" transform="scale(0.015625)"/>
     </defs>
     <use xlink:href="#ArialMT-39"/>
     <use x="55.615234" xlink:href="#ArialMT-34"/>
     <use x="111.230469" xlink:href="#ArialMT-25"/>
     <use x="200.146484" xlink:href="#ArialMT-20"/>
     <use x="227.929688" xlink:href="#ArialMT-48"/>
     <use x="300.146484" xlink:href="#ArialMT-44"/>
     <use x="372.363281" xlink:href="#ArialMT-49"/>
    </g>
   </g>
   <g id="text_11">
    <!-- mean=37 -->
    <g style="fill:#262626;" transform="translate(130.033235 63.300648)scale(0.12 -0.12)">
     <defs>
      <path d="M 422 0 
L 422 3319 
L 925 3319 
L 925 2853 
Q 1081 3097 1340 3245 
Q 1600 3394 1931 3394 
Q 2300 3394 2536 3241 
Q 2772 3088 2869 2813 
Q 3263 3394 3894 3394 
Q 4388 3394 4653 3120 
Q 4919 2847 4919 2278 
L 4919 0 
L 4359 0 
L 4359 2091 
Q 4359 2428 4304 2576 
Q 4250 2725 4106 2815 
Q 3963 2906 3769 2906 
Q 3419 2906 3187 2673 
Q 2956 2441 2956 1928 
L 2956 0 
L 2394 0 
L 2394 2156 
Q 2394 2531 2256 2718 
Q 2119 2906 1806 2906 
Q 1569 2906 1367 2781 
Q 1166 2656 1075 2415 
Q 984 2175 984 1722 
L 984 0 
L 422 0 
z
" id="ArialMT-6d" transform="scale(0.015625)"/>
      <path d="M 2694 1069 
L 3275 997 
Q 3138 488 2766 206 
Q 2394 -75 1816 -75 
Q 1088 -75 661 373 
Q 234 822 234 1631 
Q 234 2469 665 2931 
Q 1097 3394 1784 3394 
Q 2450 3394 2872 2941 
Q 3294 2488 3294 1666 
Q 3294 1616 3291 1516 
L 816 1516 
Q 847 969 1125 678 
Q 1403 388 1819 388 
Q 2128 388 2347 550 
Q 2566 713 2694 1069 
z
M 847 1978 
L 2700 1978 
Q 2663 2397 2488 2606 
Q 2219 2931 1791 2931 
Q 1403 2931 1139 2672 
Q 875 2413 847 1978 
z
" id="ArialMT-65" transform="scale(0.015625)"/>
      <path d="M 2588 409 
Q 2275 144 1986 34 
Q 1697 -75 1366 -75 
Q 819 -75 525 192 
Q 231 459 231 875 
Q 231 1119 342 1320 
Q 453 1522 633 1644 
Q 813 1766 1038 1828 
Q 1203 1872 1538 1913 
Q 2219 1994 2541 2106 
Q 2544 2222 2544 2253 
Q 2544 2597 2384 2738 
Q 2169 2928 1744 2928 
Q 1347 2928 1158 2789 
Q 969 2650 878 2297 
L 328 2372 
Q 403 2725 575 2942 
Q 747 3159 1072 3276 
Q 1397 3394 1825 3394 
Q 2250 3394 2515 3294 
Q 2781 3194 2906 3042 
Q 3031 2891 3081 2659 
Q 3109 2516 3109 2141 
L 3109 1391 
Q 3109 606 3145 398 
Q 3181 191 3288 0 
L 2700 0 
Q 2613 175 2588 409 
z
M 2541 1666 
Q 2234 1541 1622 1453 
Q 1275 1403 1131 1340 
Q 988 1278 909 1158 
Q 831 1038 831 891 
Q 831 666 1001 516 
Q 1172 366 1500 366 
Q 1825 366 2078 508 
Q 2331 650 2450 897 
Q 2541 1088 2541 1459 
L 2541 1666 
z
" id="ArialMT-61" transform="scale(0.015625)"/>
      <path d="M 422 0 
L 422 3319 
L 928 3319 
L 928 2847 
Q 1294 3394 1984 3394 
Q 2284 3394 2536 3286 
Q 2788 3178 2913 3003 
Q 3038 2828 3088 2588 
Q 3119 2431 3119 2041 
L 3119 0 
L 2556 0 
L 2556 2019 
Q 2556 2363 2490 2533 
Q 2425 2703 2258 2804 
Q 2091 2906 1866 2906 
Q 1506 2906 1245 2678 
Q 984 2450 984 1813 
L 984 0 
L 422 0 
z
" id="ArialMT-6e" transform="scale(0.015625)"/>
      <path d="M 3381 2694 
L 356 2694 
L 356 3219 
L 3381 3219 
L 3381 2694 
z
M 3381 1303 
L 356 1303 
L 356 1828 
L 3381 1828 
L 3381 1303 
z
" id="ArialMT-3d" transform="scale(0.015625)"/>
     </defs>
     <use xlink:href="#ArialMT-6d"/>
     <use x="83.300781" xlink:href="#ArialMT-65"/>
     <use x="138.916016" xlink:href="#ArialMT-61"/>
     <use x="194.53125" xlink:href="#ArialMT-6e"/>
     <use x="250.146484" xlink:href="#ArialMT-3d"/>
     <use x="308.544922" xlink:href="#ArialMT-33"/>
     <use x="364.160156" xlink:href="#ArialMT-37"/>
    </g>
   </g>
   <g id="text_12">
    <!-- Mc -->
    <g style="fill:#262626;" transform="translate(166.602187 15.789375)scale(0.12 -0.12)">
     <defs>
      <path d="M 475 0 
L 475 4581 
L 1388 4581 
L 2472 1338 
Q 2622 884 2691 659 
Q 2769 909 2934 1394 
L 4031 4581 
L 4847 4581 
L 4847 0 
L 4263 0 
L 4263 3834 
L 2931 0 
L 2384 0 
L 1059 3900 
L 1059 0 
L 475 0 
z
" id="ArialMT-4d" transform="scale(0.015625)"/>
      <path d="M 2588 1216 
L 3141 1144 
Q 3050 572 2676 248 
Q 2303 -75 1759 -75 
Q 1078 -75 664 370 
Q 250 816 250 1647 
Q 250 2184 428 2587 
Q 606 2991 970 3192 
Q 1334 3394 1763 3394 
Q 2303 3394 2647 3120 
Q 2991 2847 3088 2344 
L 2541 2259 
Q 2463 2594 2264 2762 
Q 2066 2931 1784 2931 
Q 1359 2931 1093 2626 
Q 828 2322 828 1663 
Q 828 994 1084 691 
Q 1341 388 1753 388 
Q 2084 388 2306 591 
Q 2528 794 2588 1216 
z
" id="ArialMT-63" transform="scale(0.015625)"/>
     </defs>
     <use xlink:href="#ArialMT-4d"/>
     <use x="83.300781" xlink:href="#ArialMT-63"/>
    </g>
   </g>
  </g>
 </g>
 <defs>
  <clipPath id="pd725609392">
   <rect height="217.44" width="334.8" x="7.2" y="21.789375"/>
  </clipPath>
 </defs>
</svg>
