<?xml version="1.0" encoding="utf-8" standalone="no"?>
<!DOCTYPE svg PUBLIC "-//W3C//DTD SVG 1.1//EN"
  "http://www.w3.org/Graphics/SVG/1.1/DTD/svg11.dtd">
<svg height="269.844375pt" version="1.1" viewBox="0 0 401.37 269.844375" width="401.37pt" xmlns="http://www.w3.org/2000/svg" xmlns:xlink="http://www.w3.org/1999/xlink">
 <metadata>
  <rdf:RDF xmlns:cc="http://creativecommons.org/ns#" xmlns:dc="http://purl.org/dc/elements/1.1/" xmlns:rdf="http://www.w3.org/1999/02/22-rdf-syntax-ns#">
   <cc:Work>
    <dc:type rdf:resource="http://purl.org/dc/dcmitype/StillImage"/>
    <dc:date>2021-10-26T12:44:53.888331</dc:date>
    <dc:format>image/svg+xml</dc:format>
    <dc:creator>
     <cc:Agent>
      <dc:title>Matplotlib v3.4.3, https://matplotlib.org/</dc:title>
     </cc:Agent>
    </dc:creator>
   </cc:Work>
  </rdf:RDF>
 </metadata>
 <defs>
  <style type="text/css">*{stroke-linecap:butt;stroke-linejoin:round;}</style>
 </defs>
 <g id="figure_1">
  <g id="patch_1">
   <path d="M 0 269.844375 
L 401.37 269.844375 
L 401.37 0 
L 0 0 
z
" style="fill:#ffffff;"/>
  </g>
  <g id="axes_1">
   <g id="patch_2">
    <path d="M 59.37 224.64 
L 394.17 224.64 
L 394.17 7.2 
L 59.37 7.2 
z
" style="fill:#ffffff;"/>
   </g>
   <g id="matplotlib.axis_1">
    <g id="xtick_1">
     <g id="line2d_1">
      <defs>
       <path d="M 0 0 
L 0 6 
" id="m547150c1a6" style="stroke:#262626;stroke-width:1.25;"/>
      </defs>
      <g>
       <use style="fill:#262626;stroke:#262626;stroke-width:1.25;" x="162.926992" xlink:href="#m547150c1a6" y="224.64"/>
      </g>
     </g>
     <g id="text_1">
      <!-- $\mathdefault{10^{1}}$ -->
      <g style="fill:#262626;" transform="translate(154.291992 245.48375)scale(0.11 -0.11)">
       <defs>
        <path d="M 2384 0 
L 1822 0 
L 1822 3584 
Q 1619 3391 1289 3197 
Q 959 3003 697 2906 
L 697 3450 
Q 1169 3672 1522 3987 
Q 1875 4303 2022 4600 
L 2384 4600 
L 2384 0 
z
" id="ArialMT-31" transform="scale(0.015625)"/>
        <path d="M 266 2259 
Q 266 3072 433 3567 
Q 600 4063 929 4331 
Q 1259 4600 1759 4600 
Q 2128 4600 2406 4451 
Q 2684 4303 2865 4023 
Q 3047 3744 3150 3342 
Q 3253 2941 3253 2259 
Q 3253 1453 3087 958 
Q 2922 463 2592 192 
Q 2263 -78 1759 -78 
Q 1097 -78 719 397 
Q 266 969 266 2259 
z
M 844 2259 
Q 844 1131 1108 757 
Q 1372 384 1759 384 
Q 2147 384 2411 759 
Q 2675 1134 2675 2259 
Q 2675 3391 2411 3762 
Q 2147 4134 1753 4134 
Q 1366 4134 1134 3806 
Q 844 3388 844 2259 
z
" id="ArialMT-30" transform="scale(0.015625)"/>
       </defs>
       <use transform="translate(0 0.99375)" xlink:href="#ArialMT-31"/>
       <use transform="translate(55.615234 0.99375)" xlink:href="#ArialMT-30"/>
       <use transform="translate(112.972813 70.6875)scale(0.7)" xlink:href="#ArialMT-31"/>
      </g>
     </g>
    </g>
    <g id="xtick_2">
     <g id="line2d_2">
      <g>
       <use style="fill:#262626;stroke:#262626;stroke-width:1.25;" x="289.311256" xlink:href="#m547150c1a6" y="224.64"/>
      </g>
     </g>
     <g id="text_2">
      <!-- $\mathdefault{10^{2}}$ -->
      <g style="fill:#262626;" transform="translate(280.676256 245.48375)scale(0.11 -0.11)">
       <defs>
        <path d="M 3222 541 
L 3222 0 
L 194 0 
Q 188 203 259 391 
Q 375 700 629 1000 
Q 884 1300 1366 1694 
Q 2113 2306 2375 2664 
Q 2638 3022 2638 3341 
Q 2638 3675 2398 3904 
Q 2159 4134 1775 4134 
Q 1369 4134 1125 3890 
Q 881 3647 878 3216 
L 300 3275 
Q 359 3922 746 4261 
Q 1134 4600 1788 4600 
Q 2447 4600 2831 4234 
Q 3216 3869 3216 3328 
Q 3216 3053 3103 2787 
Q 2991 2522 2730 2228 
Q 2469 1934 1863 1422 
Q 1356 997 1212 845 
Q 1069 694 975 541 
L 3222 541 
z
" id="ArialMT-32" transform="scale(0.015625)"/>
       </defs>
       <use transform="translate(0 0.99375)" xlink:href="#ArialMT-31"/>
       <use transform="translate(55.615234 0.99375)" xlink:href="#ArialMT-30"/>
       <use transform="translate(112.972813 70.6875)scale(0.7)" xlink:href="#ArialMT-32"/>
      </g>
     </g>
    </g>
    <g id="xtick_3">
     <g id="line2d_3">
      <defs>
       <path d="M 0 0 
L 0 4 
" id="mb38f82c1f3" style="stroke:#262626;"/>
      </defs>
      <g>
       <use style="fill:#262626;stroke:#262626;" x="74.588182" xlink:href="#mb38f82c1f3" y="224.64"/>
      </g>
     </g>
    </g>
    <g id="xtick_4">
     <g id="line2d_4">
      <g>
       <use style="fill:#262626;stroke:#262626;" x="96.843346" xlink:href="#mb38f82c1f3" y="224.64"/>
      </g>
     </g>
    </g>
    <g id="xtick_5">
     <g id="line2d_5">
      <g>
       <use style="fill:#262626;stroke:#262626;" x="112.633636" xlink:href="#mb38f82c1f3" y="224.64"/>
      </g>
     </g>
    </g>
    <g id="xtick_6">
     <g id="line2d_6">
      <g>
       <use style="fill:#262626;stroke:#262626;" x="124.881537" xlink:href="#mb38f82c1f3" y="224.64"/>
      </g>
     </g>
    </g>
    <g id="xtick_7">
     <g id="line2d_7">
      <g>
       <use style="fill:#262626;stroke:#262626;" x="134.888801" xlink:href="#mb38f82c1f3" y="224.64"/>
      </g>
     </g>
    </g>
    <g id="xtick_8">
     <g id="line2d_8">
      <g>
       <use style="fill:#262626;stroke:#262626;" x="143.349821" xlink:href="#mb38f82c1f3" y="224.64"/>
      </g>
     </g>
    </g>
    <g id="xtick_9">
     <g id="line2d_9">
      <g>
       <use style="fill:#262626;stroke:#262626;" x="150.679091" xlink:href="#mb38f82c1f3" y="224.64"/>
      </g>
     </g>
    </g>
    <g id="xtick_10">
     <g id="line2d_10">
      <g>
       <use style="fill:#262626;stroke:#262626;" x="157.143965" xlink:href="#mb38f82c1f3" y="224.64"/>
      </g>
     </g>
    </g>
    <g id="xtick_11">
     <g id="line2d_11">
      <g>
       <use style="fill:#262626;stroke:#262626;" x="200.972446" xlink:href="#mb38f82c1f3" y="224.64"/>
      </g>
     </g>
    </g>
    <g id="xtick_12">
     <g id="line2d_12">
      <g>
       <use style="fill:#262626;stroke:#262626;" x="223.22761" xlink:href="#mb38f82c1f3" y="224.64"/>
      </g>
     </g>
    </g>
    <g id="xtick_13">
     <g id="line2d_13">
      <g>
       <use style="fill:#262626;stroke:#262626;" x="239.017901" xlink:href="#mb38f82c1f3" y="224.64"/>
      </g>
     </g>
    </g>
    <g id="xtick_14">
     <g id="line2d_14">
      <g>
       <use style="fill:#262626;stroke:#262626;" x="251.265801" xlink:href="#mb38f82c1f3" y="224.64"/>
      </g>
     </g>
    </g>
    <g id="xtick_15">
     <g id="line2d_15">
      <g>
       <use style="fill:#262626;stroke:#262626;" x="261.273065" xlink:href="#mb38f82c1f3" y="224.64"/>
      </g>
     </g>
    </g>
    <g id="xtick_16">
     <g id="line2d_16">
      <g>
       <use style="fill:#262626;stroke:#262626;" x="269.734086" xlink:href="#mb38f82c1f3" y="224.64"/>
      </g>
     </g>
    </g>
    <g id="xtick_17">
     <g id="line2d_17">
      <g>
       <use style="fill:#262626;stroke:#262626;" x="277.063355" xlink:href="#mb38f82c1f3" y="224.64"/>
      </g>
     </g>
    </g>
    <g id="xtick_18">
     <g id="line2d_18">
      <g>
       <use style="fill:#262626;stroke:#262626;" x="283.528229" xlink:href="#mb38f82c1f3" y="224.64"/>
      </g>
     </g>
    </g>
    <g id="xtick_19">
     <g id="line2d_19">
      <g>
       <use style="fill:#262626;stroke:#262626;" x="327.35671" xlink:href="#mb38f82c1f3" y="224.64"/>
      </g>
     </g>
    </g>
    <g id="xtick_20">
     <g id="line2d_20">
      <g>
       <use style="fill:#262626;stroke:#262626;" x="349.611875" xlink:href="#mb38f82c1f3" y="224.64"/>
      </g>
     </g>
    </g>
    <g id="xtick_21">
     <g id="line2d_21">
      <g>
       <use style="fill:#262626;stroke:#262626;" x="365.402165" xlink:href="#mb38f82c1f3" y="224.64"/>
      </g>
     </g>
    </g>
    <g id="xtick_22">
     <g id="line2d_22">
      <g>
       <use style="fill:#262626;stroke:#262626;" x="377.650066" xlink:href="#mb38f82c1f3" y="224.64"/>
      </g>
     </g>
    </g>
    <g id="xtick_23">
     <g id="line2d_23">
      <g>
       <use style="fill:#262626;stroke:#262626;" x="387.657329" xlink:href="#mb38f82c1f3" y="224.64"/>
      </g>
     </g>
    </g>
    <g id="text_3">
     <!-- $f / \mathrm{Hz}$ -->
     <g style="fill:#262626;" transform="translate(214.95 260.259375)scale(0.12 -0.12)">
      <defs>
       <path d="M 3059 4863 
L 2969 4384 
L 2419 4384 
Q 2106 4384 1964 4261 
Q 1822 4138 1753 3809 
L 1691 3500 
L 2638 3500 
L 2553 3053 
L 1606 3053 
L 1013 0 
L 434 0 
L 1031 3053 
L 481 3053 
L 563 3500 
L 1113 3500 
L 1159 3744 
Q 1278 4363 1576 4613 
Q 1875 4863 2516 4863 
L 3059 4863 
z
" id="DejaVuSans-Oblique-66" transform="scale(0.015625)"/>
       <path d="M 1625 4666 
L 2156 4666 
L 531 -594 
L 0 -594 
L 1625 4666 
z
" id="DejaVuSans-2f" transform="scale(0.015625)"/>
       <path d="M 628 4666 
L 1259 4666 
L 1259 2753 
L 3553 2753 
L 3553 4666 
L 4184 4666 
L 4184 0 
L 3553 0 
L 3553 2222 
L 1259 2222 
L 1259 0 
L 628 0 
L 628 4666 
z
" id="DejaVuSans-48" transform="scale(0.015625)"/>
       <path d="M 353 3500 
L 3084 3500 
L 3084 2975 
L 922 459 
L 3084 459 
L 3084 0 
L 275 0 
L 275 525 
L 2438 3041 
L 353 3041 
L 353 3500 
z
" id="DejaVuSans-7a" transform="scale(0.015625)"/>
      </defs>
      <use transform="translate(0 0.015625)" xlink:href="#DejaVuSans-Oblique-66"/>
      <use transform="translate(35.205078 0.015625)" xlink:href="#DejaVuSans-2f"/>
      <use transform="translate(68.896484 0.015625)" xlink:href="#DejaVuSans-48"/>
      <use transform="translate(144.091797 0.015625)" xlink:href="#DejaVuSans-7a"/>
     </g>
    </g>
   </g>
   <g id="matplotlib.axis_2">
    <g id="ytick_1">
     <g id="line2d_24">
      <defs>
       <path d="M 0 0 
L -6 0 
" id="m0fdaa58e9e" style="stroke:#262626;stroke-width:1.25;"/>
      </defs>
      <g>
       <use style="fill:#262626;stroke:#262626;stroke-width:1.25;" x="59.37" xlink:href="#m0fdaa58e9e" y="200.928084"/>
      </g>
     </g>
     <g id="text_4">
      <!-- $\mathdefault{10^{-50}}$ -->
      <g style="fill:#262626;" transform="translate(23.8 206.599959)scale(0.11 -0.11)">
       <defs>
        <path d="M 3381 1997 
L 356 1997 
L 356 2522 
L 3381 2522 
L 3381 1997 
z
" id="ArialMT-2212" transform="scale(0.015625)"/>
        <path d="M 266 1200 
L 856 1250 
Q 922 819 1161 601 
Q 1400 384 1738 384 
Q 2144 384 2425 690 
Q 2706 997 2706 1503 
Q 2706 1984 2436 2262 
Q 2166 2541 1728 2541 
Q 1456 2541 1237 2417 
Q 1019 2294 894 2097 
L 366 2166 
L 809 4519 
L 3088 4519 
L 3088 3981 
L 1259 3981 
L 1013 2750 
Q 1425 3038 1878 3038 
Q 2478 3038 2890 2622 
Q 3303 2206 3303 1553 
Q 3303 931 2941 478 
Q 2500 -78 1738 -78 
Q 1113 -78 717 272 
Q 322 622 266 1200 
z
" id="ArialMT-35" transform="scale(0.015625)"/>
       </defs>
       <use transform="translate(0 0.99375)" xlink:href="#ArialMT-31"/>
       <use transform="translate(55.615234 0.99375)" xlink:href="#ArialMT-30"/>
       <use transform="translate(112.972813 70.6875)scale(0.7)" xlink:href="#ArialMT-2212"/>
       <use transform="translate(153.851719 70.6875)scale(0.7)" xlink:href="#ArialMT-35"/>
       <use transform="translate(192.782383 70.6875)scale(0.7)" xlink:href="#ArialMT-30"/>
      </g>
     </g>
    </g>
    <g id="ytick_2">
     <g id="line2d_25">
      <g>
       <use style="fill:#262626;stroke:#262626;stroke-width:1.25;" x="59.37" xlink:href="#m0fdaa58e9e" y="170.499067"/>
      </g>
     </g>
     <g id="text_5">
      <!-- $\mathdefault{10^{-48}}$ -->
      <g style="fill:#262626;" transform="translate(23.8 176.170942)scale(0.11 -0.11)">
       <defs>
        <path d="M 2069 0 
L 2069 1097 
L 81 1097 
L 81 1613 
L 2172 4581 
L 2631 4581 
L 2631 1613 
L 3250 1613 
L 3250 1097 
L 2631 1097 
L 2631 0 
L 2069 0 
z
M 2069 1613 
L 2069 3678 
L 634 1613 
L 2069 1613 
z
" id="ArialMT-34" transform="scale(0.015625)"/>
        <path d="M 1131 2484 
Q 781 2613 612 2850 
Q 444 3088 444 3419 
Q 444 3919 803 4259 
Q 1163 4600 1759 4600 
Q 2359 4600 2725 4251 
Q 3091 3903 3091 3403 
Q 3091 3084 2923 2848 
Q 2756 2613 2416 2484 
Q 2838 2347 3058 2040 
Q 3278 1734 3278 1309 
Q 3278 722 2862 322 
Q 2447 -78 1769 -78 
Q 1091 -78 675 323 
Q 259 725 259 1325 
Q 259 1772 486 2073 
Q 713 2375 1131 2484 
z
M 1019 3438 
Q 1019 3113 1228 2906 
Q 1438 2700 1772 2700 
Q 2097 2700 2305 2904 
Q 2513 3109 2513 3406 
Q 2513 3716 2298 3927 
Q 2084 4138 1766 4138 
Q 1444 4138 1231 3931 
Q 1019 3725 1019 3438 
z
M 838 1322 
Q 838 1081 952 856 
Q 1066 631 1291 507 
Q 1516 384 1775 384 
Q 2178 384 2440 643 
Q 2703 903 2703 1303 
Q 2703 1709 2433 1975 
Q 2163 2241 1756 2241 
Q 1359 2241 1098 1978 
Q 838 1716 838 1322 
z
" id="ArialMT-38" transform="scale(0.015625)"/>
       </defs>
       <use transform="translate(0 0.99375)" xlink:href="#ArialMT-31"/>
       <use transform="translate(55.615234 0.99375)" xlink:href="#ArialMT-30"/>
       <use transform="translate(112.972813 70.6875)scale(0.7)" xlink:href="#ArialMT-2212"/>
       <use transform="translate(153.851719 70.6875)scale(0.7)" xlink:href="#ArialMT-34"/>
       <use transform="translate(192.782383 70.6875)scale(0.7)" xlink:href="#ArialMT-38"/>
      </g>
     </g>
    </g>
    <g id="ytick_3">
     <g id="line2d_26">
      <g>
       <use style="fill:#262626;stroke:#262626;stroke-width:1.25;" x="59.37" xlink:href="#m0fdaa58e9e" y="140.07005"/>
      </g>
     </g>
     <g id="text_6">
      <!-- $\mathdefault{10^{-46}}$ -->
      <g style="fill:#262626;" transform="translate(23.8 145.741925)scale(0.11 -0.11)">
       <defs>
        <path d="M 3184 3459 
L 2625 3416 
Q 2550 3747 2413 3897 
Q 2184 4138 1850 4138 
Q 1581 4138 1378 3988 
Q 1113 3794 959 3422 
Q 806 3050 800 2363 
Q 1003 2672 1297 2822 
Q 1591 2972 1913 2972 
Q 2475 2972 2870 2558 
Q 3266 2144 3266 1488 
Q 3266 1056 3080 686 
Q 2894 316 2569 119 
Q 2244 -78 1831 -78 
Q 1128 -78 684 439 
Q 241 956 241 2144 
Q 241 3472 731 4075 
Q 1159 4600 1884 4600 
Q 2425 4600 2770 4297 
Q 3116 3994 3184 3459 
z
M 888 1484 
Q 888 1194 1011 928 
Q 1134 663 1356 523 
Q 1578 384 1822 384 
Q 2178 384 2434 671 
Q 2691 959 2691 1453 
Q 2691 1928 2437 2201 
Q 2184 2475 1800 2475 
Q 1419 2475 1153 2201 
Q 888 1928 888 1484 
z
" id="ArialMT-36" transform="scale(0.015625)"/>
       </defs>
       <use transform="translate(0 0.99375)" xlink:href="#ArialMT-31"/>
       <use transform="translate(55.615234 0.99375)" xlink:href="#ArialMT-30"/>
       <use transform="translate(112.972813 70.6875)scale(0.7)" xlink:href="#ArialMT-2212"/>
       <use transform="translate(153.851719 70.6875)scale(0.7)" xlink:href="#ArialMT-34"/>
       <use transform="translate(192.782383 70.6875)scale(0.7)" xlink:href="#ArialMT-36"/>
      </g>
     </g>
    </g>
    <g id="ytick_4">
     <g id="line2d_27">
      <g>
       <use style="fill:#262626;stroke:#262626;stroke-width:1.25;" x="59.37" xlink:href="#m0fdaa58e9e" y="109.641033"/>
      </g>
     </g>
     <g id="text_7">
      <!-- $\mathdefault{10^{-44}}$ -->
      <g style="fill:#262626;" transform="translate(23.8 115.257908)scale(0.11 -0.11)">
       <use transform="translate(0 0.201563)" xlink:href="#ArialMT-31"/>
       <use transform="translate(55.615234 0.201563)" xlink:href="#ArialMT-30"/>
       <use transform="translate(112.972813 69.895313)scale(0.7)" xlink:href="#ArialMT-2212"/>
       <use transform="translate(153.851719 69.895313)scale(0.7)" xlink:href="#ArialMT-34"/>
       <use transform="translate(192.782383 69.895313)scale(0.7)" xlink:href="#ArialMT-34"/>
      </g>
     </g>
    </g>
    <g id="ytick_5">
     <g id="line2d_28">
      <g>
       <use style="fill:#262626;stroke:#262626;stroke-width:1.25;" x="59.37" xlink:href="#m0fdaa58e9e" y="79.212016"/>
      </g>
     </g>
     <g id="text_8">
      <!-- $\mathdefault{10^{-42}}$ -->
      <g style="fill:#262626;" transform="translate(23.8 84.883891)scale(0.11 -0.11)">
       <use transform="translate(0 0.99375)" xlink:href="#ArialMT-31"/>
       <use transform="translate(55.615234 0.99375)" xlink:href="#ArialMT-30"/>
       <use transform="translate(112.972813 70.6875)scale(0.7)" xlink:href="#ArialMT-2212"/>
       <use transform="translate(153.851719 70.6875)scale(0.7)" xlink:href="#ArialMT-34"/>
       <use transform="translate(192.782383 70.6875)scale(0.7)" xlink:href="#ArialMT-32"/>
      </g>
     </g>
    </g>
    <g id="ytick_6">
     <g id="line2d_29">
      <g>
       <use style="fill:#262626;stroke:#262626;stroke-width:1.25;" x="59.37" xlink:href="#m0fdaa58e9e" y="48.782999"/>
      </g>
     </g>
     <g id="text_9">
      <!-- $\mathdefault{10^{-40}}$ -->
      <g style="fill:#262626;" transform="translate(23.8 54.454874)scale(0.11 -0.11)">
       <use transform="translate(0 0.99375)" xlink:href="#ArialMT-31"/>
       <use transform="translate(55.615234 0.99375)" xlink:href="#ArialMT-30"/>
       <use transform="translate(112.972813 70.6875)scale(0.7)" xlink:href="#ArialMT-2212"/>
       <use transform="translate(153.851719 70.6875)scale(0.7)" xlink:href="#ArialMT-34"/>
       <use transform="translate(192.782383 70.6875)scale(0.7)" xlink:href="#ArialMT-30"/>
      </g>
     </g>
    </g>
    <g id="ytick_7">
     <g id="line2d_30">
      <g>
       <use style="fill:#262626;stroke:#262626;stroke-width:1.25;" x="59.37" xlink:href="#m0fdaa58e9e" y="18.353982"/>
      </g>
     </g>
     <g id="text_10">
      <!-- $\mathdefault{10^{-38}}$ -->
      <g style="fill:#262626;" transform="translate(23.8 24.025857)scale(0.11 -0.11)">
       <defs>
        <path d="M 269 1209 
L 831 1284 
Q 928 806 1161 595 
Q 1394 384 1728 384 
Q 2125 384 2398 659 
Q 2672 934 2672 1341 
Q 2672 1728 2419 1979 
Q 2166 2231 1775 2231 
Q 1616 2231 1378 2169 
L 1441 2663 
Q 1497 2656 1531 2656 
Q 1891 2656 2178 2843 
Q 2466 3031 2466 3422 
Q 2466 3731 2256 3934 
Q 2047 4138 1716 4138 
Q 1388 4138 1169 3931 
Q 950 3725 888 3313 
L 325 3413 
Q 428 3978 793 4289 
Q 1159 4600 1703 4600 
Q 2078 4600 2393 4439 
Q 2709 4278 2876 4000 
Q 3044 3722 3044 3409 
Q 3044 3113 2884 2869 
Q 2725 2625 2413 2481 
Q 2819 2388 3044 2092 
Q 3269 1797 3269 1353 
Q 3269 753 2831 336 
Q 2394 -81 1725 -81 
Q 1122 -81 723 278 
Q 325 638 269 1209 
z
" id="ArialMT-33" transform="scale(0.015625)"/>
       </defs>
       <use transform="translate(0 0.99375)" xlink:href="#ArialMT-31"/>
       <use transform="translate(55.615234 0.99375)" xlink:href="#ArialMT-30"/>
       <use transform="translate(112.972813 70.6875)scale(0.7)" xlink:href="#ArialMT-2212"/>
       <use transform="translate(153.851719 70.6875)scale(0.7)" xlink:href="#ArialMT-33"/>
       <use transform="translate(192.782383 70.6875)scale(0.7)" xlink:href="#ArialMT-38"/>
      </g>
     </g>
    </g>
    <g id="text_11">
     <!-- $P(f) / \mathrm{strain}^2 \, \mathrm{Hz}^{-1}$ -->
     <g style="fill:#262626;" transform="translate(17.415 163.44)rotate(-90)scale(0.12 -0.12)">
      <defs>
       <path d="M 1081 4666 
L 2541 4666 
Q 3178 4666 3512 4369 
Q 3847 4072 3847 3500 
Q 3847 2731 3353 2303 
Q 2859 1875 1966 1875 
L 1172 1875 
L 806 0 
L 172 0 
L 1081 4666 
z
M 1613 4147 
L 1275 2394 
L 2069 2394 
Q 2606 2394 2893 2669 
Q 3181 2944 3181 3456 
Q 3181 3784 2986 3965 
Q 2791 4147 2438 4147 
L 1613 4147 
z
" id="DejaVuSans-Oblique-50" transform="scale(0.015625)"/>
       <path d="M 1984 4856 
Q 1566 4138 1362 3434 
Q 1159 2731 1159 2009 
Q 1159 1288 1364 580 
Q 1569 -128 1984 -844 
L 1484 -844 
Q 1016 -109 783 600 
Q 550 1309 550 2009 
Q 550 2706 781 3412 
Q 1013 4119 1484 4856 
L 1984 4856 
z
" id="DejaVuSans-28" transform="scale(0.015625)"/>
       <path d="M 513 4856 
L 1013 4856 
Q 1481 4119 1714 3412 
Q 1947 2706 1947 2009 
Q 1947 1309 1714 600 
Q 1481 -109 1013 -844 
L 513 -844 
Q 928 -128 1133 580 
Q 1338 1288 1338 2009 
Q 1338 2731 1133 3434 
Q 928 4138 513 4856 
z
" id="DejaVuSans-29" transform="scale(0.015625)"/>
       <path d="M 2834 3397 
L 2834 2853 
Q 2591 2978 2328 3040 
Q 2066 3103 1784 3103 
Q 1356 3103 1142 2972 
Q 928 2841 928 2578 
Q 928 2378 1081 2264 
Q 1234 2150 1697 2047 
L 1894 2003 
Q 2506 1872 2764 1633 
Q 3022 1394 3022 966 
Q 3022 478 2636 193 
Q 2250 -91 1575 -91 
Q 1294 -91 989 -36 
Q 684 19 347 128 
L 347 722 
Q 666 556 975 473 
Q 1284 391 1588 391 
Q 1994 391 2212 530 
Q 2431 669 2431 922 
Q 2431 1156 2273 1281 
Q 2116 1406 1581 1522 
L 1381 1569 
Q 847 1681 609 1914 
Q 372 2147 372 2553 
Q 372 3047 722 3315 
Q 1072 3584 1716 3584 
Q 2034 3584 2315 3537 
Q 2597 3491 2834 3397 
z
" id="DejaVuSans-73" transform="scale(0.015625)"/>
       <path d="M 1172 4494 
L 1172 3500 
L 2356 3500 
L 2356 3053 
L 1172 3053 
L 1172 1153 
Q 1172 725 1289 603 
Q 1406 481 1766 481 
L 2356 481 
L 2356 0 
L 1766 0 
Q 1100 0 847 248 
Q 594 497 594 1153 
L 594 3053 
L 172 3053 
L 172 3500 
L 594 3500 
L 594 4494 
L 1172 4494 
z
" id="DejaVuSans-74" transform="scale(0.015625)"/>
       <path d="M 2631 2963 
Q 2534 3019 2420 3045 
Q 2306 3072 2169 3072 
Q 1681 3072 1420 2755 
Q 1159 2438 1159 1844 
L 1159 0 
L 581 0 
L 581 3500 
L 1159 3500 
L 1159 2956 
Q 1341 3275 1631 3429 
Q 1922 3584 2338 3584 
Q 2397 3584 2469 3576 
Q 2541 3569 2628 3553 
L 2631 2963 
z
" id="DejaVuSans-72" transform="scale(0.015625)"/>
       <path d="M 2194 1759 
Q 1497 1759 1228 1600 
Q 959 1441 959 1056 
Q 959 750 1161 570 
Q 1363 391 1709 391 
Q 2188 391 2477 730 
Q 2766 1069 2766 1631 
L 2766 1759 
L 2194 1759 
z
M 3341 1997 
L 3341 0 
L 2766 0 
L 2766 531 
Q 2569 213 2275 61 
Q 1981 -91 1556 -91 
Q 1019 -91 701 211 
Q 384 513 384 1019 
Q 384 1609 779 1909 
Q 1175 2209 1959 2209 
L 2766 2209 
L 2766 2266 
Q 2766 2663 2505 2880 
Q 2244 3097 1772 3097 
Q 1472 3097 1187 3025 
Q 903 2953 641 2809 
L 641 3341 
Q 956 3463 1253 3523 
Q 1550 3584 1831 3584 
Q 2591 3584 2966 3190 
Q 3341 2797 3341 1997 
z
" id="DejaVuSans-61" transform="scale(0.015625)"/>
       <path d="M 603 3500 
L 1178 3500 
L 1178 0 
L 603 0 
L 603 3500 
z
M 603 4863 
L 1178 4863 
L 1178 4134 
L 603 4134 
L 603 4863 
z
" id="DejaVuSans-69" transform="scale(0.015625)"/>
       <path d="M 3513 2113 
L 3513 0 
L 2938 0 
L 2938 2094 
Q 2938 2591 2744 2837 
Q 2550 3084 2163 3084 
Q 1697 3084 1428 2787 
Q 1159 2491 1159 1978 
L 1159 0 
L 581 0 
L 581 3500 
L 1159 3500 
L 1159 2956 
Q 1366 3272 1645 3428 
Q 1925 3584 2291 3584 
Q 2894 3584 3203 3211 
Q 3513 2838 3513 2113 
z
" id="DejaVuSans-6e" transform="scale(0.015625)"/>
       <path d="M 1228 531 
L 3431 531 
L 3431 0 
L 469 0 
L 469 531 
Q 828 903 1448 1529 
Q 2069 2156 2228 2338 
Q 2531 2678 2651 2914 
Q 2772 3150 2772 3378 
Q 2772 3750 2511 3984 
Q 2250 4219 1831 4219 
Q 1534 4219 1204 4116 
Q 875 4013 500 3803 
L 500 4441 
Q 881 4594 1212 4672 
Q 1544 4750 1819 4750 
Q 2544 4750 2975 4387 
Q 3406 4025 3406 3419 
Q 3406 3131 3298 2873 
Q 3191 2616 2906 2266 
Q 2828 2175 2409 1742 
Q 1991 1309 1228 531 
z
" id="DejaVuSans-32" transform="scale(0.015625)"/>
       <path d="M 678 2272 
L 4684 2272 
L 4684 1741 
L 678 1741 
L 678 2272 
z
" id="DejaVuSans-2212" transform="scale(0.015625)"/>
       <path d="M 794 531 
L 1825 531 
L 1825 4091 
L 703 3866 
L 703 4441 
L 1819 4666 
L 2450 4666 
L 2450 531 
L 3481 531 
L 3481 0 
L 794 0 
L 794 531 
z
" id="DejaVuSans-31" transform="scale(0.015625)"/>
      </defs>
      <use transform="translate(0 0.765625)" xlink:href="#DejaVuSans-Oblique-50"/>
      <use transform="translate(60.302734 0.765625)" xlink:href="#DejaVuSans-28"/>
      <use transform="translate(99.316406 0.765625)" xlink:href="#DejaVuSans-Oblique-66"/>
      <use transform="translate(134.521484 0.765625)" xlink:href="#DejaVuSans-29"/>
      <use transform="translate(173.535156 0.765625)" xlink:href="#DejaVuSans-2f"/>
      <use transform="translate(207.226562 0.765625)" xlink:href="#DejaVuSans-73"/>
      <use transform="translate(259.326172 0.765625)" xlink:href="#DejaVuSans-74"/>
      <use transform="translate(298.535156 0.765625)" xlink:href="#DejaVuSans-72"/>
      <use transform="translate(339.648438 0.765625)" xlink:href="#DejaVuSans-61"/>
      <use transform="translate(400.927734 0.765625)" xlink:href="#DejaVuSans-69"/>
      <use transform="translate(428.710938 0.765625)" xlink:href="#DejaVuSans-6e"/>
      <use transform="translate(493.046875 39.046875)scale(0.7)" xlink:href="#DejaVuSans-32"/>
      <use transform="translate(556.553059 0.765625)" xlink:href="#DejaVuSans-48"/>
      <use transform="translate(631.748372 0.765625)" xlink:href="#DejaVuSans-7a"/>
      <use transform="translate(685.195637 39.046875)scale(0.7)" xlink:href="#DejaVuSans-2212"/>
      <use transform="translate(743.847981 39.046875)scale(0.7)" xlink:href="#DejaVuSans-31"/>
     </g>
    </g>
   </g>
   <g id="line2d_31">
    <path clip-path="url(#p9a20f6ec50)" d="M -1 57.181776 
L 74.588182 57.186008 
L 112.633636 27.365327 
L 134.888801 17.083636 
L 150.679091 20.412075 
L 162.926992 33.846056 
L 172.934255 47.796958 
L 181.395276 56.863136 
L 188.724545 66.219146 
L 195.189419 86.420681 
L 200.972446 97.481828 
L 206.20383 105.6589 
L 210.97971 107.131937 
L 215.373093 108.756462 
L 219.44073 112.751047 
L 223.22761 119.278884 
L 226.77 123.798084 
L 230.097564 94.091882 
L 233.234874 82.986769 
L 236.202515 88.441579 
L 239.017901 113.142486 
L 241.695895 119.164455 
L 244.249285 130.30459 
L 246.689153 132.645557 
L 249.025164 134.185493 
L 251.265801 134.277533 
L 255.490038 135.744653 
L 257.486185 134.957577 
L 259.412277 106.875348 
L 261.273065 97.805919 
L 263.072832 107.05805 
L 264.815455 137.279368 
L 266.504449 138.400727 
L 268.143018 138.042597 
L 269.734086 135.824108 
L 271.280328 135.623967 
L 272.784203 135.748518 
L 274.247969 134.675061 
L 275.673712 131.589736 
L 277.063355 133.607657 
L 278.418683 139.014951 
L 279.741349 140.695688 
L 281.032891 141.266919 
L 282.294739 141.320405 
L 283.528229 140.988918 
L 285.915039 141.26441 
L 287.070619 143.450659 
L 288.20237 143.481398 
L 289.311256 142.011537 
L 290.398182 142.139058 
L 291.464002 142.462103 
L 292.509519 142.105041 
L 293.535493 141.560148 
L 294.54264 142.06931 
L 295.53164 143.391162 
L 296.503134 143.589433 
L 297.457731 141.892453 
L 298.396011 136.202245 
L 299.318519 129.077017 
L 301.118287 143.44568 
L 301.996513 142.696103 
L 302.860909 142.224466 
L 303.711903 143.63662 
L 304.549904 143.905725 
L 305.375302 143.500896 
L 306.188473 142.825523 
L 306.989771 143.352484 
L 307.77954 143.107681 
L 308.558106 142.455458 
L 309.325783 142.911591 
L 310.082871 142.960009 
L 310.829658 142.778188 
L 311.56642 143.327156 
L 312.293424 143.051007 
L 313.010924 144.417053 
L 314.418386 144.016266 
L 315.10881 143.65001 
L 315.790657 143.959912 
L 316.464138 144.463025 
L 317.129455 144.68273 
L 318.436373 144.089599 
L 319.078345 143.034108 
L 319.712896 143.542954 
L 320.340194 142.766475 
L 321.573684 129.50557 
L 322.780062 143.570224 
L 323.373451 143.091177 
L 323.960494 143.260252 
L 324.541325 142.709342 
L 325.116073 142.947587 
L 326.247825 144.668002 
L 326.805068 143.202647 
L 327.902864 142.90633 
L 328.443637 143.783998 
L 328.979134 143.971246 
L 329.509457 143.647578 
L 330.034704 142.900394 
L 330.554974 143.10795 
L 332.086831 144.288949 
L 332.588095 144.071281 
L 333.084822 143.364067 
L 333.577094 143.095276 
L 334.064991 143.450684 
L 335.027962 143.237802 
L 335.503186 143.808616 
L 335.97433 143.284596 
L 336.904658 142.472773 
L 337.363974 143.514809 
L 337.819479 142.954363 
L 338.271234 141.892802 
L 338.719302 142.999439 
L 339.163741 143.172453 
L 339.604611 142.683163 
L 340.041968 143.585986 
L 340.475867 143.27176 
L 340.906364 141.695126 
L 341.757357 142.235332 
L 342.177957 142.164969 
L 343.009609 143.4927 
L 343.828848 143.457398 
L 344.233927 142.463674 
L 345.035226 143.54056 
L 345.431531 143.666039 
L 345.824995 141.796843 
L 346.215658 140.529028 
L 346.603561 141.60172 
L 346.988741 142.328954 
L 347.371238 141.73808 
L 347.751087 141.686302 
L 348.128325 141.875808 
L 348.502989 142.230073 
L 348.875112 142.072013 
L 349.611875 132.729923 
L 349.97658 134.467744 
L 350.338879 133.702672 
L 350.698801 138.607725 
L 351.056379 138.778445 
L 352.115344 129.016478 
L 352.46384 130.000112 
L 352.810138 133.457331 
L 353.154264 134.545265 
L 353.496247 134.095522 
L 353.836111 134.759672 
L 354.509592 139.013087 
L 354.843259 111.436357 
L 355.174909 103.246747 
L 355.504568 113.368339 
L 355.832258 138.890019 
L 356.158004 138.337842 
L 356.481828 136.219643 
L 356.803752 135.503681 
L 357.1238 135.537492 
L 357.441992 134.862141 
L 357.75835 134.921711 
L 358.072895 133.912503 
L 358.696629 135.467018 
L 359.005858 136.81499 
L 359.313355 137.582454 
L 359.619138 139.861925 
L 360.225642 139.310653 
L 360.526398 139.960637 
L 360.825516 140.915306 
L 361.123013 141.221932 
L 361.418906 141.827758 
L 361.713212 141.146289 
L 362.005949 141.782686 
L 362.586779 140.40106 
L 362.874906 140.68891 
L 363.161528 140.492887 
L 363.446661 140.56189 
L 364.012521 141.646458 
L 364.293279 141.60268 
L 365.127037 140.582696 
L 365.675921 141.879449 
L 365.948319 141.953402 
L 366.219371 140.903416 
L 366.489091 141.129474 
L 366.757493 140.054499 
L 367.024588 139.641874 
L 367.29039 140.268569 
L 367.554911 141.672196 
L 367.818163 142.018025 
L 368.080159 142.13761 
L 368.34091 142.729129 
L 368.600428 144.028676 
L 369.626402 146.421399 
L 371.376964 157.415953 
L 372.110445 163.309408 
L 372.594043 165.971813 
L 373.073417 171.438322 
L 374.253849 180.56303 
L 374.48692 183.07121 
L 374.719005 184.29599 
L 375.637653 191.848653 
L 375.864933 192.148882 
L 376.091276 193.992329 
L 376.54118 198.86811 
L 377.209196 203.04651 
L 377.430074 201.073039 
L 377.650066 169.046411 
L 377.86918 162.052479 
L 378.087423 172.875497 
L 378.304801 190.428655 
L 378.521322 193.132319 
L 378.736992 198.469444 
L 378.951818 214.756364 
L 378.951818 214.756364 
" style="fill:none;stroke:#0173b2;stroke-linecap:round;stroke-width:1.5;"/>
   </g>
   <g id="patch_3">
    <path d="M 59.37 224.64 
L 59.37 7.2 
" style="fill:none;stroke:#262626;stroke-linecap:square;stroke-linejoin:miter;stroke-width:1.25;"/>
   </g>
   <g id="patch_4">
    <path d="M 394.17 224.64 
L 394.17 7.2 
" style="fill:none;stroke:#262626;stroke-linecap:square;stroke-linejoin:miter;stroke-width:1.25;"/>
   </g>
   <g id="patch_5">
    <path d="M 59.37 224.64 
L 394.17 224.64 
" style="fill:none;stroke:#262626;stroke-linecap:square;stroke-linejoin:miter;stroke-width:1.25;"/>
   </g>
   <g id="patch_6">
    <path d="M 59.37 7.2 
L 394.17 7.2 
" style="fill:none;stroke:#262626;stroke-linecap:square;stroke-linejoin:miter;stroke-width:1.25;"/>
   </g>
  </g>
 </g>
 <defs>
  <clipPath id="p9a20f6ec50">
   <rect height="217.44" width="334.8" x="59.37" y="7.2"/>
  </clipPath>
 </defs>
</svg>
