<?xml version="1.0" encoding="utf-8" standalone="no"?>
<!DOCTYPE svg PUBLIC "-//W3C//DTD SVG 1.1//EN"
  "http://www.w3.org/Graphics/SVG/1.1/DTD/svg11.dtd">
<svg height="251.399844pt" version="1.1" viewBox="0 0 386.531719 251.399844" width="386.531719pt" xmlns="http://www.w3.org/2000/svg" xmlns:xlink="http://www.w3.org/1999/xlink">
 <metadata>
  <rdf:RDF xmlns:cc="http://creativecommons.org/ns#" xmlns:dc="http://purl.org/dc/elements/1.1/" xmlns:rdf="http://www.w3.org/1999/02/22-rdf-syntax-ns#">
   <cc:Work>
    <dc:type rdf:resource="http://purl.org/dc/dcmitype/StillImage"/>
    <dc:date>2021-11-02T13:13:40.370373</dc:date>
    <dc:format>image/svg+xml</dc:format>
    <dc:creator>
     <cc:Agent>
      <dc:title>Matplotlib v3.4.3, https://matplotlib.org/</dc:title>
     </cc:Agent>
    </dc:creator>
   </cc:Work>
  </rdf:RDF>
 </metadata>
 <defs>
  <style type="text/css">*{stroke-linecap:butt;stroke-linejoin:round;}</style>
 </defs>
 <g id="figure_1">
  <g id="patch_1">
   <path d="M 0 251.399844 
L 386.531719 251.399844 
L 386.531719 0 
L 0 0 
z
" style="fill:#ffffff;"/>
  </g>
  <g id="axes_1">
   <g id="patch_2">
    <path d="M 44.531719 224.64 
L 379.331719 224.64 
L 379.331719 7.2 
L 44.531719 7.2 
z
" style="fill:#ffffff;"/>
   </g>
   <g id="matplotlib.axis_1">
    <g id="xtick_1">
     <g id="line2d_1">
      <defs>
       <path d="M 0 0 
L 0 6 
" id="m824f36121f" style="stroke:#262626;stroke-width:1.25;"/>
      </defs>
      <g>
       <use style="fill:#262626;stroke:#262626;stroke-width:1.25;" x="59.749901" xlink:href="#m824f36121f" y="224.64"/>
      </g>
     </g>
     <g id="text_1">
      <!-- −1.00 -->
      <g style="fill:#262626;" transform="translate(45.834041 242.013594)scale(0.11 -0.11)">
       <defs>
        <path d="M 3381 1997 
L 356 1997 
L 356 2522 
L 3381 2522 
L 3381 1997 
z
" id="ArialMT-2212" transform="scale(0.015625)"/>
        <path d="M 2384 0 
L 1822 0 
L 1822 3584 
Q 1619 3391 1289 3197 
Q 959 3003 697 2906 
L 697 3450 
Q 1169 3672 1522 3987 
Q 1875 4303 2022 4600 
L 2384 4600 
L 2384 0 
z
" id="ArialMT-31" transform="scale(0.015625)"/>
        <path d="M 581 0 
L 581 641 
L 1222 641 
L 1222 0 
L 581 0 
z
" id="ArialMT-2e" transform="scale(0.015625)"/>
        <path d="M 266 2259 
Q 266 3072 433 3567 
Q 600 4063 929 4331 
Q 1259 4600 1759 4600 
Q 2128 4600 2406 4451 
Q 2684 4303 2865 4023 
Q 3047 3744 3150 3342 
Q 3253 2941 3253 2259 
Q 3253 1453 3087 958 
Q 2922 463 2592 192 
Q 2263 -78 1759 -78 
Q 1097 -78 719 397 
Q 266 969 266 2259 
z
M 844 2259 
Q 844 1131 1108 757 
Q 1372 384 1759 384 
Q 2147 384 2411 759 
Q 2675 1134 2675 2259 
Q 2675 3391 2411 3762 
Q 2147 4134 1753 4134 
Q 1366 4134 1134 3806 
Q 844 3388 844 2259 
z
" id="ArialMT-30" transform="scale(0.015625)"/>
       </defs>
       <use xlink:href="#ArialMT-2212"/>
       <use x="58.398438" xlink:href="#ArialMT-31"/>
       <use x="114.013672" xlink:href="#ArialMT-2e"/>
       <use x="141.796875" xlink:href="#ArialMT-30"/>
       <use x="197.412109" xlink:href="#ArialMT-30"/>
      </g>
     </g>
    </g>
    <g id="xtick_2">
     <g id="line2d_2">
      <g>
       <use style="fill:#262626;stroke:#262626;stroke-width:1.25;" x="97.795355" xlink:href="#m824f36121f" y="224.64"/>
      </g>
     </g>
     <g id="text_2">
      <!-- −0.75 -->
      <g style="fill:#262626;" transform="translate(83.879496 242.013594)scale(0.11 -0.11)">
       <defs>
        <path d="M 303 3981 
L 303 4522 
L 3269 4522 
L 3269 4084 
Q 2831 3619 2401 2847 
Q 1972 2075 1738 1259 
Q 1569 684 1522 0 
L 944 0 
Q 953 541 1156 1306 
Q 1359 2072 1739 2783 
Q 2119 3494 2547 3981 
L 303 3981 
z
" id="ArialMT-37" transform="scale(0.015625)"/>
        <path d="M 266 1200 
L 856 1250 
Q 922 819 1161 601 
Q 1400 384 1738 384 
Q 2144 384 2425 690 
Q 2706 997 2706 1503 
Q 2706 1984 2436 2262 
Q 2166 2541 1728 2541 
Q 1456 2541 1237 2417 
Q 1019 2294 894 2097 
L 366 2166 
L 809 4519 
L 3088 4519 
L 3088 3981 
L 1259 3981 
L 1013 2750 
Q 1425 3038 1878 3038 
Q 2478 3038 2890 2622 
Q 3303 2206 3303 1553 
Q 3303 931 2941 478 
Q 2500 -78 1738 -78 
Q 1113 -78 717 272 
Q 322 622 266 1200 
z
" id="ArialMT-35" transform="scale(0.015625)"/>
       </defs>
       <use xlink:href="#ArialMT-2212"/>
       <use x="58.398438" xlink:href="#ArialMT-30"/>
       <use x="114.013672" xlink:href="#ArialMT-2e"/>
       <use x="141.796875" xlink:href="#ArialMT-37"/>
       <use x="197.412109" xlink:href="#ArialMT-35"/>
      </g>
     </g>
    </g>
    <g id="xtick_3">
     <g id="line2d_3">
      <g>
       <use style="fill:#262626;stroke:#262626;stroke-width:1.25;" x="135.84081" xlink:href="#m824f36121f" y="224.64"/>
      </g>
     </g>
     <g id="text_3">
      <!-- −0.50 -->
      <g style="fill:#262626;" transform="translate(121.92495 242.013594)scale(0.11 -0.11)">
       <use xlink:href="#ArialMT-2212"/>
       <use x="58.398438" xlink:href="#ArialMT-30"/>
       <use x="114.013672" xlink:href="#ArialMT-2e"/>
       <use x="141.796875" xlink:href="#ArialMT-35"/>
       <use x="197.412109" xlink:href="#ArialMT-30"/>
      </g>
     </g>
    </g>
    <g id="xtick_4">
     <g id="line2d_4">
      <g>
       <use style="fill:#262626;stroke:#262626;stroke-width:1.25;" x="173.886264" xlink:href="#m824f36121f" y="224.64"/>
      </g>
     </g>
     <g id="text_4">
      <!-- −0.25 -->
      <g style="fill:#262626;" transform="translate(159.970405 242.013594)scale(0.11 -0.11)">
       <defs>
        <path d="M 3222 541 
L 3222 0 
L 194 0 
Q 188 203 259 391 
Q 375 700 629 1000 
Q 884 1300 1366 1694 
Q 2113 2306 2375 2664 
Q 2638 3022 2638 3341 
Q 2638 3675 2398 3904 
Q 2159 4134 1775 4134 
Q 1369 4134 1125 3890 
Q 881 3647 878 3216 
L 300 3275 
Q 359 3922 746 4261 
Q 1134 4600 1788 4600 
Q 2447 4600 2831 4234 
Q 3216 3869 3216 3328 
Q 3216 3053 3103 2787 
Q 2991 2522 2730 2228 
Q 2469 1934 1863 1422 
Q 1356 997 1212 845 
Q 1069 694 975 541 
L 3222 541 
z
" id="ArialMT-32" transform="scale(0.015625)"/>
       </defs>
       <use xlink:href="#ArialMT-2212"/>
       <use x="58.398438" xlink:href="#ArialMT-30"/>
       <use x="114.013672" xlink:href="#ArialMT-2e"/>
       <use x="141.796875" xlink:href="#ArialMT-32"/>
       <use x="197.412109" xlink:href="#ArialMT-35"/>
      </g>
     </g>
    </g>
    <g id="xtick_5">
     <g id="line2d_5">
      <g>
       <use style="fill:#262626;stroke:#262626;stroke-width:1.25;" x="211.931719" xlink:href="#m824f36121f" y="224.64"/>
      </g>
     </g>
     <g id="text_5">
      <!-- 0.00 -->
      <g style="fill:#262626;" transform="translate(201.228203 242.013594)scale(0.11 -0.11)">
       <use xlink:href="#ArialMT-30"/>
       <use x="55.615234" xlink:href="#ArialMT-2e"/>
       <use x="83.398438" xlink:href="#ArialMT-30"/>
       <use x="139.013672" xlink:href="#ArialMT-30"/>
      </g>
     </g>
    </g>
    <g id="xtick_6">
     <g id="line2d_6">
      <g>
       <use style="fill:#262626;stroke:#262626;stroke-width:1.25;" x="249.977173" xlink:href="#m824f36121f" y="224.64"/>
      </g>
     </g>
     <g id="text_6">
      <!-- 0.25 -->
      <g style="fill:#262626;" transform="translate(239.273658 242.013594)scale(0.11 -0.11)">
       <use xlink:href="#ArialMT-30"/>
       <use x="55.615234" xlink:href="#ArialMT-2e"/>
       <use x="83.398438" xlink:href="#ArialMT-32"/>
       <use x="139.013672" xlink:href="#ArialMT-35"/>
      </g>
     </g>
    </g>
    <g id="xtick_7">
     <g id="line2d_7">
      <g>
       <use style="fill:#262626;stroke:#262626;stroke-width:1.25;" x="288.022628" xlink:href="#m824f36121f" y="224.64"/>
      </g>
     </g>
     <g id="text_7">
      <!-- 0.50 -->
      <g style="fill:#262626;" transform="translate(277.319112 242.013594)scale(0.11 -0.11)">
       <use xlink:href="#ArialMT-30"/>
       <use x="55.615234" xlink:href="#ArialMT-2e"/>
       <use x="83.398438" xlink:href="#ArialMT-35"/>
       <use x="139.013672" xlink:href="#ArialMT-30"/>
      </g>
     </g>
    </g>
    <g id="xtick_8">
     <g id="line2d_8">
      <g>
       <use style="fill:#262626;stroke:#262626;stroke-width:1.25;" x="326.068082" xlink:href="#m824f36121f" y="224.64"/>
      </g>
     </g>
     <g id="text_8">
      <!-- 0.75 -->
      <g style="fill:#262626;" transform="translate(315.364567 242.013594)scale(0.11 -0.11)">
       <use xlink:href="#ArialMT-30"/>
       <use x="55.615234" xlink:href="#ArialMT-2e"/>
       <use x="83.398438" xlink:href="#ArialMT-37"/>
       <use x="139.013672" xlink:href="#ArialMT-35"/>
      </g>
     </g>
    </g>
    <g id="xtick_9">
     <g id="line2d_9">
      <g>
       <use style="fill:#262626;stroke:#262626;stroke-width:1.25;" x="364.113537" xlink:href="#m824f36121f" y="224.64"/>
      </g>
     </g>
     <g id="text_9">
      <!-- 1.00 -->
      <g style="fill:#262626;" transform="translate(353.410021 242.013594)scale(0.11 -0.11)">
       <use xlink:href="#ArialMT-31"/>
       <use x="55.615234" xlink:href="#ArialMT-2e"/>
       <use x="83.398438" xlink:href="#ArialMT-30"/>
       <use x="139.013672" xlink:href="#ArialMT-30"/>
      </g>
     </g>
    </g>
   </g>
   <g id="matplotlib.axis_2">
    <g id="ytick_1">
     <g id="line2d_10">
      <defs>
       <path d="M 0 0 
L -6 0 
" id="m4040b57463" style="stroke:#262626;stroke-width:1.25;"/>
      </defs>
      <g>
       <use style="fill:#262626;stroke:#262626;stroke-width:1.25;" x="44.531719" xlink:href="#m4040b57463" y="214.90475"/>
      </g>
     </g>
     <g id="text_10">
      <!-- −10.0 -->
      <g style="fill:#262626;" transform="translate(7.2 218.841546)scale(0.11 -0.11)">
       <use xlink:href="#ArialMT-2212"/>
       <use x="58.398438" xlink:href="#ArialMT-31"/>
       <use x="114.013672" xlink:href="#ArialMT-30"/>
       <use x="169.628906" xlink:href="#ArialMT-2e"/>
       <use x="197.412109" xlink:href="#ArialMT-30"/>
      </g>
     </g>
    </g>
    <g id="ytick_2">
     <g id="line2d_11">
      <g>
       <use style="fill:#262626;stroke:#262626;stroke-width:1.25;" x="44.531719" xlink:href="#m4040b57463" y="186.903049"/>
      </g>
     </g>
     <g id="text_11">
      <!-- −7.5 -->
      <g style="fill:#262626;" transform="translate(13.317031 190.839846)scale(0.11 -0.11)">
       <use xlink:href="#ArialMT-2212"/>
       <use x="58.398438" xlink:href="#ArialMT-37"/>
       <use x="114.013672" xlink:href="#ArialMT-2e"/>
       <use x="141.796875" xlink:href="#ArialMT-35"/>
      </g>
     </g>
    </g>
    <g id="ytick_3">
     <g id="line2d_12">
      <g>
       <use style="fill:#262626;stroke:#262626;stroke-width:1.25;" x="44.531719" xlink:href="#m4040b57463" y="158.901348"/>
      </g>
     </g>
     <g id="text_12">
      <!-- −5.0 -->
      <g style="fill:#262626;" transform="translate(13.317031 162.838145)scale(0.11 -0.11)">
       <use xlink:href="#ArialMT-2212"/>
       <use x="58.398438" xlink:href="#ArialMT-35"/>
       <use x="114.013672" xlink:href="#ArialMT-2e"/>
       <use x="141.796875" xlink:href="#ArialMT-30"/>
      </g>
     </g>
    </g>
    <g id="ytick_4">
     <g id="line2d_13">
      <g>
       <use style="fill:#262626;stroke:#262626;stroke-width:1.25;" x="44.531719" xlink:href="#m4040b57463" y="130.899647"/>
      </g>
     </g>
     <g id="text_13">
      <!-- −2.5 -->
      <g style="fill:#262626;" transform="translate(13.317031 134.836444)scale(0.11 -0.11)">
       <use xlink:href="#ArialMT-2212"/>
       <use x="58.398438" xlink:href="#ArialMT-32"/>
       <use x="114.013672" xlink:href="#ArialMT-2e"/>
       <use x="141.796875" xlink:href="#ArialMT-35"/>
      </g>
     </g>
    </g>
    <g id="ytick_5">
     <g id="line2d_14">
      <g>
       <use style="fill:#262626;stroke:#262626;stroke-width:1.25;" x="44.531719" xlink:href="#m4040b57463" y="102.897946"/>
      </g>
     </g>
     <g id="text_14">
      <!-- 0.0 -->
      <g style="fill:#262626;" transform="translate(19.741719 106.834743)scale(0.11 -0.11)">
       <use xlink:href="#ArialMT-30"/>
       <use x="55.615234" xlink:href="#ArialMT-2e"/>
       <use x="83.398438" xlink:href="#ArialMT-30"/>
      </g>
     </g>
    </g>
    <g id="ytick_6">
     <g id="line2d_15">
      <g>
       <use style="fill:#262626;stroke:#262626;stroke-width:1.25;" x="44.531719" xlink:href="#m4040b57463" y="74.896245"/>
      </g>
     </g>
     <g id="text_15">
      <!-- 2.5 -->
      <g style="fill:#262626;" transform="translate(19.741719 78.833042)scale(0.11 -0.11)">
       <use xlink:href="#ArialMT-32"/>
       <use x="55.615234" xlink:href="#ArialMT-2e"/>
       <use x="83.398438" xlink:href="#ArialMT-35"/>
      </g>
     </g>
    </g>
    <g id="ytick_7">
     <g id="line2d_16">
      <g>
       <use style="fill:#262626;stroke:#262626;stroke-width:1.25;" x="44.531719" xlink:href="#m4040b57463" y="46.894544"/>
      </g>
     </g>
     <g id="text_16">
      <!-- 5.0 -->
      <g style="fill:#262626;" transform="translate(19.741719 50.831341)scale(0.11 -0.11)">
       <use xlink:href="#ArialMT-35"/>
       <use x="55.615234" xlink:href="#ArialMT-2e"/>
       <use x="83.398438" xlink:href="#ArialMT-30"/>
      </g>
     </g>
    </g>
    <g id="ytick_8">
     <g id="line2d_17">
      <g>
       <use style="fill:#262626;stroke:#262626;stroke-width:1.25;" x="44.531719" xlink:href="#m4040b57463" y="18.892844"/>
      </g>
     </g>
     <g id="text_17">
      <!-- 7.5 -->
      <g style="fill:#262626;" transform="translate(19.741719 22.829641)scale(0.11 -0.11)">
       <use xlink:href="#ArialMT-37"/>
       <use x="55.615234" xlink:href="#ArialMT-2e"/>
       <use x="83.398438" xlink:href="#ArialMT-35"/>
      </g>
     </g>
    </g>
   </g>
   <g id="line2d_18">
    <path clip-path="url(#pb08a86f944)" d="M 59.749901 163.196889 
L 64.543029 167.005468 
L 66.939593 168.793586 
L 69.336157 170.424664 
L 71.732721 171.610309 
L 74.129285 171.960375 
L 76.525849 171.08962 
L 78.922413 168.721975 
L 81.318977 164.764073 
L 83.715541 159.332072 
L 86.112105 152.732409 
L 93.301797 130.711997 
L 95.698362 124.393315 
L 98.094926 119.385731 
L 100.49149 116.038823 
L 102.888054 114.559417 
L 105.284618 114.975515 
L 107.681182 117.118454 
L 110.077746 120.635325 
L 112.47431 125.033318 
L 114.870874 129.744072 
L 117.267438 134.188597 
L 119.664002 137.827432 
L 122.060566 140.194063 
L 124.45713 140.923757 
L 126.853694 139.793729 
L 129.250258 136.77971 
L 131.646823 132.113149 
L 134.043387 126.305336 
L 136.439951 120.103083 
L 138.836515 114.360155 
L 141.233079 109.843588 
L 143.629643 107.028239 
L 146.026207 105.94942 
L 148.422771 106.172307 
L 150.819335 106.900835 
L 153.215899 107.201217 
L 155.612463 106.275206 
L 158.009027 103.700089 
L 160.405591 99.562798 
L 165.198719 89.29494 
L 167.595284 85.145343 
L 169.991848 82.896262 
L 172.388412 83.088908 
L 174.784976 85.80966 
L 177.18154 90.71023 
L 179.578104 97.126502 
L 184.371232 111.290538 
L 186.767796 117.611127 
L 189.16436 122.776789 
L 191.560924 126.559269 
L 193.957488 128.893672 
L 196.354052 129.819601 
L 198.750616 129.427479 
L 201.14718 127.824067 
L 203.543745 125.122378 
L 205.940309 121.453597 
L 208.336873 116.993235 
L 215.526565 101.836606 
L 217.923129 97.638053 
L 220.319693 94.714592 
L 222.716257 93.499105 
L 225.112821 94.226817 
L 227.509385 96.831795 
L 229.905949 100.886177 
L 232.302513 105.615343 
L 234.699077 110.007907 
L 237.095641 113.01285 
L 239.492206 113.786024 
L 241.88877 111.92483 
L 244.285334 107.623462 
L 246.681898 101.696535 
L 249.078462 95.451879 
L 251.475026 90.434471 
L 253.87159 88.099212 
L 256.268154 89.490224 
L 258.664718 95.003209 
L 261.061282 104.286654 
L 263.457846 116.303865 
L 268.250974 142.302274 
L 270.647538 153.048502 
L 273.044102 160.657703 
L 275.440666 164.592512 
L 277.837231 164.91708 
L 280.233795 162.18162 
L 282.630359 157.2181 
L 285.026923 150.912069 
L 292.216615 130.236462 
L 297.009743 117.361069 
L 301.802871 105.412003 
L 304.199435 99.977635 
L 306.595999 95.135202 
L 308.992563 91.061742 
L 311.389127 87.863993 
L 313.785692 85.542685 
L 316.182256 84.001162 
L 318.57882 83.101162 
L 320.975384 82.748439 
L 323.371948 82.9737 
L 325.768512 83.969254 
L 328.165076 86.053165 
L 330.56164 89.559518 
L 332.958204 94.68505 
L 335.354768 101.345909 
L 342.54446 124.618162 
L 344.941024 130.445467 
L 347.337588 133.90632 
L 349.734153 134.608529 
L 352.130717 132.589649 
L 354.527281 128.283557 
L 356.923845 122.409701 
L 361.716973 109.362409 
L 364.113537 103.730992 
L 364.113537 103.730992 
" style="fill:none;stroke:#0173b2;stroke-linecap:round;stroke-width:1.5;"/>
   </g>
   <g id="line2d_19">
    <path clip-path="url(#pb08a86f944)" d="M 59.749901 156.889023 
L 64.543029 144.400232 
L 69.336157 131.21642 
L 71.732721 125.024891 
L 74.129285 119.735534 
L 76.525849 115.935416 
L 78.922413 114.196275 
L 81.318977 114.957057 
L 83.715541 118.406425 
L 86.112105 124.395871 
L 88.508669 132.410092 
L 93.301797 150.920864 
L 95.698362 159.206231 
L 98.094926 165.390957 
L 100.49149 168.611667 
L 102.888054 168.313504 
L 105.284618 164.308152 
L 107.681182 156.791063 
L 110.077746 146.32045 
L 112.47431 133.758936 
L 117.267438 106.739167 
L 119.664002 94.541672 
L 122.060566 84.498693 
L 124.45713 77.225468 
L 126.853694 72.982383 
L 129.250258 71.673303 
L 131.646823 72.896817 
L 134.043387 76.037524 
L 136.439951 80.378994 
L 141.233079 89.963456 
L 143.629643 94.197413 
L 146.026207 97.702107 
L 148.422771 100.441463 
L 150.819335 102.51393 
L 153.215899 104.088943 
L 155.612463 105.342276 
L 158.009027 106.401459 
L 160.405591 107.308464 
L 162.802155 108.004615 
L 165.198719 108.341683 
L 167.595284 108.120605 
L 169.991848 107.15289 
L 172.388412 105.330487 
L 174.784976 102.683439 
L 177.18154 99.40529 
L 181.974668 92.412365 
L 184.371232 89.592335 
L 186.767796 87.797646 
L 189.16436 87.369847 
L 191.560924 88.554514 
L 193.957488 91.497958 
L 196.354052 96.239834 
L 198.750616 102.690029 
L 201.14718 110.592042 
L 208.336873 137.507617 
L 210.733437 144.979444 
L 213.130001 150.417092 
L 215.526565 153.358454 
L 217.923129 153.716068 
L 220.319693 151.79992 
L 222.716257 148.240617 
L 227.509385 139.326478 
L 229.905949 135.275472 
L 232.302513 131.905306 
L 234.699077 129.111744 
L 237.095641 126.531288 
L 239.492206 123.669432 
L 241.88877 120.042323 
L 244.285334 115.29568 
L 246.681898 109.280617 
L 249.078462 102.083364 
L 253.87159 85.593416 
L 256.268154 77.468579 
L 258.664718 70.394204 
L 261.061282 65.147335 
L 263.457846 62.452936 
L 265.85441 62.893114 
L 268.250974 66.808891 
L 270.647538 74.207519 
L 273.044102 84.696786 
L 275.440666 97.471421 
L 280.233795 125.024738 
L 282.630359 137.040832 
L 285.026923 146.249331 
L 287.423487 151.902829 
L 289.820051 153.812804 
L 292.216615 152.378629 
L 294.613179 148.502801 
L 299.406307 138.428704 
L 301.802871 134.730823 
L 304.199435 133.162961 
L 306.595999 134.110813 
L 308.992563 137.464559 
L 311.389127 142.666304 
L 316.182256 154.899449 
L 318.57882 159.84621 
L 320.975384 162.820793 
L 323.371948 163.283184 
L 325.768512 161.064043 
L 328.165076 156.365972 
L 330.56164 149.713708 
L 337.751332 126.14966 
L 340.147896 119.920123 
L 342.54446 115.524718 
L 344.941024 113.108638 
L 347.337588 112.441637 
L 349.734153 112.98132 
L 352.130717 114.020597 
L 354.527281 114.883895 
L 356.923845 115.113821 
L 359.320409 114.588057 
L 364.113537 112.397292 
L 364.113537 112.397292 
" style="fill:none;stroke:#de8f05;stroke-linecap:round;stroke-width:1.5;"/>
   </g>
   <g id="line2d_20">
    <path clip-path="url(#pb08a86f944)" d="M 59.749901 130.1381 
L 62.146465 122.745974 
L 64.543029 114.992749 
L 66.939593 107.64232 
L 69.336157 101.317135 
L 71.732721 96.433109 
L 74.129285 93.184289 
L 76.525849 91.572962 
L 78.922413 91.465501 
L 81.318977 92.650372 
L 83.715541 94.882432 
L 86.112105 97.910702 
L 88.508669 101.495807 
L 93.301797 109.521296 
L 98.094926 117.727079 
L 100.49149 121.647662 
L 102.888054 125.299803 
L 105.284618 128.510462 
L 107.681182 131.040113 
L 110.077746 132.599859 
L 112.47431 132.895232 
L 114.870874 131.688445 
L 117.267438 128.86647 
L 119.664002 124.500602 
L 122.060566 118.882731 
L 126.853694 106.103872 
L 129.250258 100.372953 
L 131.646823 96.0159 
L 134.043387 93.512068 
L 136.439951 93.028846 
L 138.836515 94.384826 
L 141.233079 97.099506 
L 146.026207 103.97841 
L 148.422771 106.957271 
L 150.819335 109.171423 
L 153.215899 110.589237 
L 155.612463 111.371561 
L 158.009027 111.769299 
L 162.802155 112.292964 
L 165.198719 112.664983 
L 167.595284 113.178908 
L 169.991848 113.897892 
L 172.388412 114.955758 
L 174.784976 116.563313 
L 177.18154 118.962079 
L 179.578104 122.33656 
L 181.974668 126.71287 
L 184.371232 131.87754 
L 186.767796 137.344983 
L 189.16436 142.387841 
L 191.560924 146.127704 
L 193.957488 147.669413 
L 196.354052 146.25406 
L 198.750616 141.403943 
L 201.14718 133.03521 
L 203.543745 121.518091 
L 205.940309 107.670053 
L 210.733437 77.927563 
L 213.130001 64.83466 
L 215.526565 54.586934 
L 217.923129 47.969461 
L 220.319693 45.245615 
L 222.716257 46.15129 
L 225.112821 50.003591 
L 227.509385 55.895255 
L 229.905949 62.919598 
L 237.095641 85.087755 
L 244.285334 106.485139 
L 246.681898 113.160811 
L 249.078462 118.961547 
L 251.475026 123.259373 
L 253.87159 125.439345 
L 256.268154 125.058114 
L 258.664718 121.972926 
L 261.061282 116.410561 
L 263.457846 108.964781 
L 268.250974 92.180845 
L 270.647538 85.041238 
L 273.044102 80.122913 
L 275.440666 78.188371 
L 277.837231 79.632178 
L 280.233795 84.407844 
L 282.630359 92.01881 
L 285.026923 101.585976 
L 289.820051 122.055893 
L 292.216615 130.768698 
L 294.613179 137.427308 
L 297.009743 141.747587 
L 299.406307 143.869712 
L 301.802871 144.286059 
L 304.199435 143.712653 
L 306.595999 142.935633 
L 308.992563 142.661708 
L 311.389127 143.394531 
L 313.785692 145.352493 
L 316.182256 148.438949 
L 323.371948 159.776366 
L 325.768512 162.219771 
L 328.165076 163.220969 
L 330.56164 162.67525 
L 332.958204 160.751329 
L 335.354768 157.823304 
L 342.54446 147.394237 
L 344.941024 144.309569 
L 352.130717 135.831755 
L 354.527281 132.719157 
L 359.320409 125.846134 
L 364.113537 119.047754 
L 364.113537 119.047754 
" style="fill:none;stroke:#029e73;stroke-linecap:round;stroke-width:1.5;"/>
   </g>
   <g id="line2d_21">
    <path clip-path="url(#pb08a86f944)" d="M 59.749901 98.70926 
L 62.146465 95.552646 
L 64.543029 96.909196 
L 66.939593 102.542704 
L 69.336157 111.641452 
L 71.732721 122.975411 
L 74.129285 135.100309 
L 76.525849 146.557485 
L 78.922413 156.032636 
L 81.318977 162.46065 
L 83.715541 165.086315 
L 86.112105 163.500941 
L 88.508669 157.669858 
L 90.905233 147.949897 
L 93.301797 135.079854 
L 95.698362 120.121262 
L 100.49149 89.010992 
L 102.888054 75.258882 
L 105.284618 63.851088 
L 107.681182 55.123894 
L 110.077746 48.990761 
L 112.47431 45.057776 
L 114.870874 42.809197 
L 117.267438 41.807804 
L 119.664002 41.849322 
L 122.060566 43.023062 
L 124.45713 45.65898 
L 126.853694 50.176505 
L 129.250258 56.882422 
L 131.646823 65.783676 
L 134.043387 76.47825 
L 138.836515 99.76863 
L 141.233079 110.163023 
L 143.629643 118.399271 
L 146.026207 123.902753 
L 148.422771 126.568773 
L 150.819335 126.742153 
L 153.215899 125.092842 
L 155.612463 122.427716 
L 158.009027 119.492283 
L 160.405591 116.813927 
L 162.802155 114.623233 
L 165.198719 112.866977 
L 169.991848 109.630616 
L 172.388412 107.652964 
L 179.578104 100.764096 
L 181.974668 99.190893 
L 184.371232 98.456346 
L 186.767796 98.532051 
L 191.560924 99.523759 
L 193.957488 99.16288 
L 196.354052 97.387007 
L 198.750616 93.825016 
L 201.14718 88.438405 
L 203.543745 81.515139 
L 208.336873 65.268773 
L 210.733437 57.199983 
L 213.130001 49.906125 
L 215.526565 43.805308 
L 217.923129 39.210886 
L 220.319693 36.342638 
L 222.716257 35.31501 
L 225.112821 36.095987 
L 227.509385 38.452053 
L 229.905949 41.909113 
L 232.302513 45.760644 
L 234.699077 49.142516 
L 237.095641 51.1733 
L 239.492206 51.136025 
L 241.88877 48.659029 
L 244.285334 43.846017 
L 246.681898 37.312297 
L 249.078462 30.105349 
L 251.475026 23.518597 
L 253.87159 18.838181 
L 256.268154 17.083636 
L 258.664718 18.806988 
L 261.061282 23.998884 
L 263.457846 32.120454 
L 265.85441 42.245453 
L 270.647538 64.134823 
L 273.044102 74.009174 
L 275.440666 82.402468 
L 277.837231 89.192185 
L 280.233795 94.577086 
L 282.630359 98.97885 
L 287.423487 106.917959 
L 289.820051 111.383502 
L 292.216615 116.590502 
L 294.613179 122.659182 
L 297.009743 129.573661 
L 299.406307 137.204877 
L 306.595999 161.681551 
L 308.992563 169.038245 
L 311.389127 175.20109 
L 313.785692 179.74005 
L 316.182256 182.370909 
L 318.57882 183.020662 
L 320.975384 181.842591 
L 323.371948 179.168285 
L 325.768512 175.409597 
L 328.165076 170.946443 
L 330.56164 166.045228 
L 335.354768 155.389746 
L 340.147896 144.142092 
L 342.54446 138.861287 
L 344.941024 134.379309 
L 347.337588 131.182151 
L 349.734153 129.652024 
L 352.130717 129.946334 
L 354.527281 131.924312 
L 356.923845 135.139666 
L 359.320409 138.896604 
L 361.716973 142.351563 
L 364.113537 144.637435 
L 364.113537 144.637435 
" style="fill:none;stroke:#d55e00;stroke-linecap:round;stroke-width:1.5;"/>
   </g>
   <g id="line2d_22">
    <path clip-path="url(#pb08a86f944)" d="M 59.749901 79.844132 
L 64.543029 83.478871 
L 66.939593 85.104152 
L 69.336157 86.477973 
L 74.129285 88.680531 
L 83.715541 92.72061 
L 86.112105 93.422353 
L 88.508669 93.794351 
L 90.905233 93.784443 
L 93.301797 93.405637 
L 95.698362 92.743797 
L 98.094926 91.965205 
L 100.49149 91.323322 
L 102.888054 91.153586 
L 105.284618 91.841328 
L 107.681182 93.756059 
L 110.077746 97.161534 
L 112.47431 102.126987 
L 114.870874 108.471071 
L 122.060566 130.642437 
L 124.45713 136.893839 
L 126.853694 141.650794 
L 129.250258 144.639682 
L 131.646823 145.802718 
L 134.043387 145.254295 
L 136.439951 143.217432 
L 138.836515 139.968658 
L 141.233079 135.810065 
L 146.026207 126.11149 
L 148.422771 121.339907 
L 150.819335 117.167654 
L 153.215899 113.960011 
L 155.612463 111.964829 
L 158.009027 111.258602 
L 160.405591 111.732047 
L 162.802155 113.12291 
L 165.198719 115.083677 
L 169.991848 119.338378 
L 172.388412 121.091296 
L 174.784976 122.35196 
L 177.18154 123.009528 
L 179.578104 123.003944 
L 181.974668 122.345933 
L 184.371232 121.151542 
L 189.16436 118.244499 
L 191.560924 117.285418 
L 193.957488 117.112563 
L 196.354052 117.862622 
L 198.750616 119.418004 
L 203.543745 123.407263 
L 205.940309 124.924103 
L 208.336873 125.742542 
L 210.733437 125.931076 
L 213.130001 125.850955 
L 215.526565 126.035712 
L 217.923129 126.995821 
L 220.319693 129.011506 
L 222.716257 131.981845 
L 225.112821 135.380873 
L 227.509385 138.33813 
L 229.905949 139.823963 
L 232.302513 138.890575 
L 234.699077 134.906575 
L 237.095641 127.72749 
L 239.492206 117.763481 
L 241.88877 105.931138 
L 244.285334 93.502168 
L 246.681898 81.882637 
L 249.078462 72.369646 
L 251.475026 65.936157 
L 253.87159 63.088388 
L 256.268154 63.823404 
L 258.664718 67.690725 
L 261.061282 73.935704 
L 263.457846 81.682743 
L 270.647538 106.640758 
L 273.044102 114.116451 
L 275.440666 120.928591 
L 277.837231 127.072119 
L 280.233795 132.533917 
L 282.630359 137.253284 
L 285.026923 141.117739 
L 287.423487 143.98822 
L 289.820051 145.740877 
L 292.216615 146.309751 
L 294.613179 145.715116 
L 297.009743 144.066435 
L 299.406307 141.536355 
L 301.802871 138.312171 
L 304.199435 134.540311 
L 306.595999 130.283955 
L 308.992563 125.510303 
L 311.389127 120.113513 
L 313.785692 113.965734 
L 316.182256 106.978256 
L 318.57882 99.152536 
L 320.975384 90.607027 
L 328.165076 63.449367 
L 330.56164 55.187872 
L 332.958204 48.06619 
L 335.354768 42.548231 
L 337.751332 39.079853 
L 340.147896 38.04869 
L 342.54446 39.720721 
L 344.941024 44.15827 
L 347.337588 51.1381 
L 349.734153 60.100209 
L 354.527281 80.212621 
L 356.923845 89.105748 
L 359.320409 95.87834 
L 361.716973 99.969757 
L 364.113537 101.351139 
L 364.113537 101.351139 
" style="fill:none;stroke:#cc78bc;stroke-linecap:round;stroke-width:1.5;"/>
   </g>
   <g id="line2d_23">
    <path clip-path="url(#pb08a86f944)" d="M 59.749901 116.835115 
L 62.146465 110.197621 
L 64.543029 101.04581 
L 66.939593 90.02102 
L 74.129285 53.295005 
L 76.525849 42.321435 
L 78.922413 33.02784 
L 81.318977 25.819982 
L 83.715541 20.881967 
L 86.112105 18.138958 
L 88.508669 17.262525 
L 90.905233 17.739163 
L 93.301797 18.999984 
L 98.094926 22.248586 
L 100.49149 24.069553 
L 102.888054 26.342653 
L 105.284618 29.461402 
L 107.681182 33.728449 
L 110.077746 39.203478 
L 112.47431 45.641887 
L 117.267438 59.310963 
L 119.664002 65.396408 
L 122.060566 70.479339 
L 124.45713 74.516608 
L 126.853694 77.713611 
L 131.646823 82.966483 
L 136.439951 88.347307 
L 138.836515 91.117784 
L 141.233079 93.706041 
L 143.629643 95.914618 
L 146.026207 97.615878 
L 148.422771 98.769103 
L 150.819335 99.38233 
L 153.215899 99.442099 
L 155.612463 98.852101 
L 158.009027 97.421596 
L 160.405591 94.924327 
L 162.802155 91.215912 
L 165.198719 86.365928 
L 169.991848 75.02095 
L 172.388412 70.039676 
L 174.784976 66.635653 
L 177.18154 65.42171 
L 179.578104 66.641958 
L 181.974668 70.137536 
L 184.371232 75.433255 
L 186.767796 81.904753 
L 196.354052 109.792212 
L 198.750616 115.842427 
L 201.14718 120.941616 
L 203.543745 124.595306 
L 205.940309 126.251557 
L 208.336873 125.463267 
L 210.733437 122.075942 
L 213.130001 116.372108 
L 215.526565 109.1123 
L 217.923129 101.441556 
L 220.319693 94.671015 
L 222.716257 89.984474 
L 225.112821 88.147485 
L 227.509385 89.302271 
L 229.905949 92.911594 
L 234.699077 102.779309 
L 237.095641 106.244386 
L 239.492206 107.222684 
L 241.88877 105.222927 
L 244.285334 100.378853 
L 246.681898 93.369773 
L 251.475026 77.098019 
L 253.87159 70.000035 
L 256.268154 64.667064 
L 258.664718 61.462754 
L 261.061282 60.393794 
L 263.457846 61.195954 
L 265.85441 63.464537 
L 268.250974 66.793581 
L 270.647538 70.888895 
L 273.044102 75.627174 
L 275.440666 81.04739 
L 277.837231 87.279159 
L 280.233795 94.431758 
L 282.630359 102.480865 
L 289.820051 128.621116 
L 292.216615 136.053911 
L 294.613179 141.814528 
L 297.009743 145.477636 
L 299.406307 146.832923 
L 301.802871 145.875989 
L 304.199435 142.764472 
L 306.595999 137.767582 
L 308.992563 131.230427 
L 311.389127 123.55815 
L 318.57882 98.497962 
L 320.975384 91.139516 
L 323.371948 85.039015 
L 325.768512 80.542852 
L 328.165076 77.907522 
L 330.56164 77.298413 
L 332.958204 78.777586 
L 335.354768 82.270585 
L 337.751332 87.518943 
L 340.147896 94.043247 
L 344.941024 108.003557 
L 347.337588 113.769339 
L 349.734153 117.785978 
L 352.130717 119.72721 
L 354.527281 119.694033 
L 356.923845 118.206241 
L 359.320409 116.090987 
L 361.716973 114.297872 
L 364.113537 113.690067 
L 364.113537 113.690067 
" style="fill:none;stroke:#ca9161;stroke-linecap:round;stroke-width:1.5;"/>
   </g>
   <g id="line2d_24">
    <path clip-path="url(#pb08a86f944)" d="M 59.749901 136.047913 
L 62.146465 133.697438 
L 64.543029 129.774615 
L 66.939593 124.376059 
L 69.336157 117.672949 
L 71.732721 109.917415 
L 78.922413 84.233962 
L 81.318977 76.537586 
L 83.715541 70.139446 
L 86.112105 65.438553 
L 88.508669 62.665676 
L 90.905233 61.847701 
L 93.301797 62.798965 
L 95.698362 65.136557 
L 98.094926 68.315928 
L 100.49149 71.686637 
L 102.888054 74.571356 
L 105.284618 76.368733 
L 107.681182 76.671445 
L 110.077746 75.377743 
L 112.47431 72.764526 
L 114.870874 69.489815 
L 117.267438 66.505245 
L 119.664002 64.882938 
L 122.060566 65.588292 
L 124.45713 69.251305 
L 126.853694 75.995448 
L 129.250258 85.371669 
L 136.439951 118.246803 
L 138.836515 126.444504 
L 141.233079 131.651546 
L 143.629643 133.658664 
L 146.026207 132.867039 
L 148.422771 130.206421 
L 150.819335 126.942528 
L 153.215899 124.406011 
L 155.612463 123.695735 
L 158.009027 125.422693 
L 160.405591 129.560374 
L 162.802155 135.447447 
L 165.198719 141.951334 
L 167.595284 147.756254 
L 169.991848 151.701662 
L 172.388412 153.080234 
L 174.784976 151.815656 
L 177.18154 148.475646 
L 179.578104 144.123358 
L 181.974668 140.054426 
L 184.371232 137.493648 
L 186.767796 137.328159 
L 189.16436 139.934544 
L 191.560924 145.124964 
L 193.957488 152.204378 
L 196.354052 160.107761 
L 198.750616 167.57827 
L 201.14718 173.352573 
L 203.543745 176.331137 
L 205.940309 175.721068 
L 208.336873 171.142464 
L 210.733437 162.687294 
L 213.130001 150.917912 
L 215.526565 136.796935 
L 220.319693 106.504548 
L 222.716257 92.876558 
L 225.112821 81.650383 
L 227.509385 73.474123 
L 229.905949 68.64414 
L 232.302513 67.147062 
L 234.699077 68.738313 
L 237.095641 73.029422 
L 239.492206 79.56114 
L 241.88877 87.848711 
L 244.285334 97.395675 
L 251.475026 128.115202 
L 253.87159 136.912685 
L 256.268154 143.799221 
L 258.664718 148.120724 
L 261.061282 149.42642 
L 263.457846 147.601443 
L 265.85441 142.96065 
L 268.250974 136.263445 
L 273.044102 121.341953 
L 275.440666 115.63124 
L 277.837231 112.401693 
L 280.233795 112.058195 
L 282.630359 114.423117 
L 285.026923 118.781226 
L 287.423487 124.03522 
L 289.820051 128.930654 
L 292.216615 132.296947 
L 294.613179 133.254909 
L 297.009743 131.356744 
L 299.406307 126.643629 
L 301.802871 119.622286 
L 308.992563 94.453406 
L 311.389127 88.343835 
L 313.785692 84.754908 
L 316.182256 83.918046 
L 318.57882 85.549947 
L 320.975384 88.882188 
L 323.371948 92.785527 
L 325.768512 95.973399 
L 328.165076 97.248956 
L 330.56164 95.745485 
L 332.958204 91.106814 
L 335.354768 83.565502 
L 337.751332 73.900601 
L 342.54446 53.073067 
L 344.941024 44.542968 
L 347.337588 38.707089 
L 349.734153 36.162817 
L 352.130717 37.036375 
L 354.527281 41.003848 
L 356.923845 47.377354 
L 359.320409 55.238299 
L 364.113537 71.566491 
L 364.113537 71.566491 
" style="fill:none;stroke:#fbafe4;stroke-linecap:round;stroke-width:1.5;"/>
   </g>
   <g id="line2d_25">
    <path clip-path="url(#pb08a86f944)" d="M 59.749901 101.981012 
L 64.543029 102.385712 
L 66.939593 102.14412 
L 69.336157 101.208439 
L 71.732721 99.334803 
L 74.129285 96.374209 
L 76.525849 92.250203 
L 78.922413 86.915486 
L 81.318977 80.334707 
L 83.715541 72.52389 
L 86.112105 63.639183 
L 90.905233 44.480488 
L 93.301797 35.74403 
L 95.698362 28.78753 
L 98.094926 24.370682 
L 100.49149 22.886125 
L 102.888054 24.250407 
L 105.284618 27.928498 
L 107.681182 33.085535 
L 112.47431 44.358844 
L 114.870874 49.27459 
L 117.267438 53.468218 
L 124.45713 64.389092 
L 126.853694 68.665202 
L 129.250258 73.661031 
L 131.646823 79.438028 
L 134.043387 85.967469 
L 136.439951 93.161052 
L 141.233079 108.955061 
L 146.026207 125.106045 
L 148.422771 132.535536 
L 150.819335 139.056262 
L 153.215899 144.3357 
L 155.612463 148.118527 
L 158.009027 150.273994 
L 160.405591 150.838186 
L 162.802155 150.043141 
L 165.198719 148.320162 
L 167.595284 146.263568 
L 169.991848 144.548839 
L 172.388412 143.814878 
L 174.784976 144.537796 
L 177.18154 146.933675 
L 179.578104 150.922646 
L 181.974668 156.166877 
L 189.16436 174.366129 
L 191.560924 179.750219 
L 193.957488 184.330073 
L 196.354052 187.989642 
L 198.750616 190.667919 
L 201.14718 192.332712 
L 203.543745 192.980129 
L 205.940309 192.651477 
L 208.336873 191.448066 
L 210.733437 189.526174 
L 213.130001 187.067205 
L 215.526565 184.234074 
L 217.923129 181.134568 
L 220.319693 177.809893 
L 222.716257 174.253288 
L 225.112821 170.447518 
L 229.905949 162.162595 
L 237.095641 149.227214 
L 239.492206 145.20955 
L 241.88877 141.579508 
L 244.285334 138.561629 
L 246.681898 136.438342 
L 249.078462 135.499716 
L 251.475026 135.951973 
L 253.87159 137.811837 
L 256.268154 140.826737 
L 261.061282 147.930078 
L 263.457846 150.369678 
L 265.85441 150.941224 
L 268.250974 148.999245 
L 270.647538 144.191331 
L 273.044102 136.511861 
L 275.440666 126.309053 
L 277.837231 114.255802 
L 282.630359 88.526427 
L 285.026923 77.123003 
L 287.423487 68.125814 
L 289.820051 62.293679 
L 292.216615 59.953474 
L 294.613179 60.926881 
L 297.009743 64.560918 
L 299.406307 69.865198 
L 301.802871 75.724341 
L 304.199435 81.128828 
L 306.595999 85.361515 
L 308.992563 88.092853 
L 311.389127 89.36812 
L 313.785692 89.50315 
L 316.182256 88.929661 
L 320.975384 87.079036 
L 323.371948 86.095381 
L 325.768512 84.975143 
L 328.165076 83.517395 
L 330.56164 81.531971 
L 332.958204 78.921028 
L 335.354768 75.7199 
L 340.147896 68.266922 
L 342.54446 64.508985 
L 344.941024 61.037357 
L 347.337588 58.022932 
L 349.734153 55.602489 
L 352.130717 53.91937 
L 354.527281 53.165229 
L 356.923845 53.598937 
L 359.320409 55.526007 
L 361.716973 59.234714 
L 364.113537 64.899717 
L 364.113537 64.899717 
" style="fill:none;stroke:#949494;stroke-linecap:round;stroke-width:1.5;"/>
   </g>
   <g id="line2d_26">
    <path clip-path="url(#pb08a86f944)" d="M 59.749901 109.367053 
L 62.146465 114.171246 
L 64.543029 117.418894 
L 66.939593 118.676897 
L 69.336157 117.689009 
L 71.732721 114.391269 
L 74.129285 108.908012 
L 76.525849 101.53644 
L 78.922413 92.729091 
L 86.112105 64.220693 
L 88.508669 56.679777 
L 90.905233 51.481956 
L 93.301797 49.254229 
L 95.698362 50.329123 
L 98.094926 54.654166 
L 100.49149 61.762172 
L 102.888054 70.816712 
L 107.681182 90.310361 
L 110.077746 98.469504 
L 112.47431 104.358406 
L 114.870874 107.509688 
L 117.267438 107.909465 
L 119.664002 106.009114 
L 122.060566 102.670277 
L 124.45713 99.046595 
L 126.853694 96.41526 
L 129.250258 95.981515 
L 131.646823 98.687086 
L 134.043387 105.055966 
L 136.439951 115.106023 
L 138.836515 128.342869 
L 141.233079 143.835375 
L 146.026207 176.543139 
L 148.422771 191.083958 
L 150.819335 202.833253 
L 153.215899 210.912075 
L 155.612463 214.756364 
L 158.009027 214.140817 
L 160.405591 209.189421 
L 162.802155 200.37494 
L 165.198719 188.496969 
L 167.595284 174.62215 
L 172.388412 145.797906 
L 174.784976 133.173787 
L 177.18154 122.907256 
L 179.578104 115.444045 
L 181.974668 110.87964 
L 184.371232 109.035574 
L 186.767796 109.57078 
L 189.16436 112.083865 
L 191.560924 116.170447 
L 193.957488 121.422911 
L 201.14718 139.151695 
L 203.543745 143.570624 
L 205.940309 146.097426 
L 208.336873 146.245888 
L 210.733437 143.852259 
L 213.130001 139.145471 
L 215.526565 132.720582 
L 220.319693 118.093697 
L 222.716257 111.474453 
L 225.112821 105.936195 
L 227.509385 101.483695 
L 229.905949 97.811391 
L 234.699077 91.04526 
L 241.88877 79.860226 
L 244.285334 76.840728 
L 246.681898 74.847695 
L 249.078462 74.052803 
L 251.475026 74.345108 
L 253.87159 75.365222 
L 256.268154 76.622486 
L 258.664718 77.648208 
L 261.061282 78.130048 
L 263.457846 77.986443 
L 265.85441 77.367387 
L 268.250974 76.596224 
L 270.647538 76.084178 
L 273.044102 76.250576 
L 275.440666 77.469049 
L 277.837231 80.042006 
L 280.233795 84.191025 
L 282.630359 90.045578 
L 285.026923 97.617249 
L 287.423487 106.758413 
L 289.820051 117.117342 
L 294.613179 138.940033 
L 297.009743 148.658219 
L 299.406307 156.303816 
L 301.802871 161.067741 
L 304.199435 162.465729 
L 306.595999 160.466588 
L 308.992563 155.533754 
L 311.389127 148.555871 
L 316.182256 133.031837 
L 318.57882 126.547975 
L 320.975384 121.71881 
L 323.371948 118.565517 
L 325.768512 116.707344 
L 328.165076 115.548769 
L 330.56164 114.517806 
L 332.958204 113.276955 
L 335.354768 111.837188 
L 337.751332 110.538138 
L 340.147896 109.903456 
L 342.54446 110.422915 
L 344.941024 112.337439 
L 347.337588 115.500747 
L 352.130717 123.086257 
L 354.527281 125.737667 
L 356.923845 126.526842 
L 359.320409 124.993273 
L 361.716973 121.113275 
L 364.113537 115.301957 
L 364.113537 115.301957 
" style="fill:none;stroke:#ece133;stroke-linecap:round;stroke-width:1.5;"/>
   </g>
   <g id="line2d_27">
    <path clip-path="url(#pb08a86f944)" d="M 59.749901 124.402116 
L 62.146465 122.76822 
L 64.543029 120.012427 
L 66.939593 116.156097 
L 69.336157 111.234931 
L 71.732721 105.29962 
L 74.129285 98.431929 
L 76.525849 90.76759 
L 81.318977 73.961788 
L 83.715541 65.464868 
L 86.112105 57.424448 
L 88.508669 50.242206 
L 90.905233 44.267546 
L 93.301797 39.738483 
L 95.698362 36.729469 
L 98.094926 35.122483 
L 100.49149 34.617165 
L 102.888054 34.786844 
L 105.284618 35.172777 
L 107.681182 35.393253 
L 110.077746 35.235802 
L 112.47431 34.704135 
L 114.870874 34.006582 
L 117.267438 33.492955 
L 119.664002 33.562951 
L 122.060566 34.574293 
L 124.45713 36.771967 
L 126.853694 40.246555 
L 129.250258 44.918322 
L 131.646823 50.540578 
L 136.439951 62.962434 
L 138.836515 68.739097 
L 141.233079 73.587506 
L 143.629643 77.210288 
L 146.026207 79.550752 
L 148.422771 80.809915 
L 150.819335 81.390333 
L 153.215899 81.779143 
L 155.612463 82.408658 
L 158.009027 83.543998 
L 160.405591 85.236904 
L 162.802155 87.357582 
L 169.991848 94.213816 
L 177.18154 100.298717 
L 179.578104 102.270812 
L 181.974668 104.078115 
L 184.371232 105.476677 
L 186.767796 106.173491 
L 189.16436 105.911588 
L 191.560924 104.55234 
L 193.957488 102.126459 
L 196.354052 98.836269 
L 205.940309 83.67559 
L 208.336873 80.605331 
L 210.733437 77.898305 
L 213.130001 75.447126 
L 215.526565 73.181081 
L 217.923129 71.148081 
L 220.319693 69.562424 
L 222.716257 68.798037 
L 225.112821 69.320575 
L 227.509385 71.569565 
L 229.905949 75.818898 
L 232.302513 82.05511 
L 234.699077 89.912977 
L 239.492206 107.479287 
L 241.88877 115.291383 
L 244.285334 121.300857 
L 246.681898 124.987976 
L 249.078462 126.238621 
L 251.475026 125.343058 
L 253.87159 122.902493 
L 258.664718 116.40001 
L 261.061282 113.673639 
L 263.457846 111.867645 
L 265.85441 111.138318 
L 268.250974 111.480954 
L 270.647538 112.802018 
L 273.044102 114.974146 
L 275.440666 117.857161 
L 277.837231 121.290251 
L 285.026923 132.72778 
L 287.423487 136.088803 
L 289.820051 138.86696 
L 292.216615 140.954168 
L 294.613179 142.336204 
L 297.009743 143.087761 
L 299.406307 143.357108 
L 306.595999 143.320374 
L 308.992563 143.630239 
L 316.182256 145.336445 
L 318.57882 145.219385 
L 320.975384 144.106457 
L 323.371948 141.67517 
L 325.768512 137.762592 
L 328.165076 132.39806 
L 330.56164 125.784005 
L 332.958204 118.234811 
L 337.751332 101.682079 
L 342.54446 84.885504 
L 347.337588 69.090323 
L 349.734153 61.977888 
L 352.130717 55.734562 
L 354.527281 50.692404 
L 356.923845 47.179634 
L 359.320409 45.443794 
L 361.716973 45.579488 
L 364.113537 47.484507 
L 364.113537 47.484507 
" style="fill:none;stroke:#56b4e9;stroke-linecap:round;stroke-width:1.5;"/>
   </g>
   <g id="patch_3">
    <path d="M 44.531719 224.64 
L 44.531719 7.2 
" style="fill:none;stroke:#262626;stroke-linecap:square;stroke-linejoin:miter;stroke-width:1.25;"/>
   </g>
   <g id="patch_4">
    <path d="M 379.331719 224.64 
L 379.331719 7.2 
" style="fill:none;stroke:#262626;stroke-linecap:square;stroke-linejoin:miter;stroke-width:1.25;"/>
   </g>
   <g id="patch_5">
    <path d="M 44.531719 224.64 
L 379.331719 224.64 
" style="fill:none;stroke:#262626;stroke-linecap:square;stroke-linejoin:miter;stroke-width:1.25;"/>
   </g>
   <g id="patch_6">
    <path d="M 44.531719 7.2 
L 379.331719 7.2 
" style="fill:none;stroke:#262626;stroke-linecap:square;stroke-linejoin:miter;stroke-width:1.25;"/>
   </g>
  </g>
 </g>
 <defs>
  <clipPath id="pb08a86f944">
   <rect height="217.44" width="334.8" x="44.531719" y="7.2"/>
  </clipPath>
 </defs>
</svg>
