<?xml version="1.0" encoding="utf-8" standalone="no"?>
<!DOCTYPE svg PUBLIC "-//W3C//DTD SVG 1.1//EN"
  "http://www.w3.org/Graphics/SVG/1.1/DTD/svg11.dtd">
<svg height="266.799844pt" version="1.1" viewBox="0 0 400.915781 266.799844" width="400.915781pt" xmlns="http://www.w3.org/2000/svg" xmlns:xlink="http://www.w3.org/1999/xlink">
 <metadata>
  <rdf:RDF xmlns:cc="http://creativecommons.org/ns#" xmlns:dc="http://purl.org/dc/elements/1.1/" xmlns:rdf="http://www.w3.org/1999/02/22-rdf-syntax-ns#">
   <cc:Work>
    <dc:type rdf:resource="http://purl.org/dc/dcmitype/StillImage"/>
    <dc:date>2021-11-05T08:30:58.660961</dc:date>
    <dc:format>image/svg+xml</dc:format>
    <dc:creator>
     <cc:Agent>
      <dc:title>Matplotlib v3.4.3, https://matplotlib.org/</dc:title>
     </cc:Agent>
    </dc:creator>
   </cc:Work>
  </rdf:RDF>
 </metadata>
 <defs>
  <style type="text/css">*{stroke-linecap:butt;stroke-linejoin:round;}</style>
 </defs>
 <g id="figure_1">
  <g id="patch_1">
   <path d="M 0 266.799844 
L 400.915781 266.799844 
L 400.915781 0 
L 0 0 
z
" style="fill:#ffffff;"/>
  </g>
  <g id="axes_1">
   <g id="patch_2">
    <path d="M 58.915781 224.64 
L 393.715781 224.64 
L 393.715781 7.2 
L 58.915781 7.2 
z
" style="fill:#ffffff;"/>
   </g>
   <g id="matplotlib.axis_1">
    <g id="xtick_1">
     <g id="line2d_1">
      <defs>
       <path d="M 0 0 
L 0 6 
" id="mcdcc0c421e" style="stroke:#262626;stroke-width:1.25;"/>
      </defs>
      <g>
       <use style="fill:#262626;stroke:#262626;stroke-width:1.25;" x="104.171795" xlink:href="#mcdcc0c421e" y="224.64"/>
      </g>
     </g>
     <g id="text_1">
      <!-- −10000 -->
      <g style="fill:#262626;" transform="translate(85.666873 242.013594)scale(0.11 -0.11)">
       <defs>
        <path d="M 3381 1997 
L 356 1997 
L 356 2522 
L 3381 2522 
L 3381 1997 
z
" id="ArialMT-2212" transform="scale(0.015625)"/>
        <path d="M 2384 0 
L 1822 0 
L 1822 3584 
Q 1619 3391 1289 3197 
Q 959 3003 697 2906 
L 697 3450 
Q 1169 3672 1522 3987 
Q 1875 4303 2022 4600 
L 2384 4600 
L 2384 0 
z
" id="ArialMT-31" transform="scale(0.015625)"/>
        <path d="M 266 2259 
Q 266 3072 433 3567 
Q 600 4063 929 4331 
Q 1259 4600 1759 4600 
Q 2128 4600 2406 4451 
Q 2684 4303 2865 4023 
Q 3047 3744 3150 3342 
Q 3253 2941 3253 2259 
Q 3253 1453 3087 958 
Q 2922 463 2592 192 
Q 2263 -78 1759 -78 
Q 1097 -78 719 397 
Q 266 969 266 2259 
z
M 844 2259 
Q 844 1131 1108 757 
Q 1372 384 1759 384 
Q 2147 384 2411 759 
Q 2675 1134 2675 2259 
Q 2675 3391 2411 3762 
Q 2147 4134 1753 4134 
Q 1366 4134 1134 3806 
Q 844 3388 844 2259 
z
" id="ArialMT-30" transform="scale(0.015625)"/>
       </defs>
       <use xlink:href="#ArialMT-2212"/>
       <use x="58.398438" xlink:href="#ArialMT-31"/>
       <use x="114.013672" xlink:href="#ArialMT-30"/>
       <use x="169.628906" xlink:href="#ArialMT-30"/>
       <use x="225.244141" xlink:href="#ArialMT-30"/>
       <use x="280.859375" xlink:href="#ArialMT-30"/>
      </g>
     </g>
    </g>
    <g id="xtick_2">
     <g id="line2d_2">
      <g>
       <use style="fill:#262626;stroke:#262626;stroke-width:1.25;" x="150.105451" xlink:href="#mcdcc0c421e" y="224.64"/>
      </g>
     </g>
     <g id="text_2">
      <!-- −8000 -->
      <g style="fill:#262626;" transform="translate(134.659045 242.013594)scale(0.11 -0.11)">
       <defs>
        <path d="M 1131 2484 
Q 781 2613 612 2850 
Q 444 3088 444 3419 
Q 444 3919 803 4259 
Q 1163 4600 1759 4600 
Q 2359 4600 2725 4251 
Q 3091 3903 3091 3403 
Q 3091 3084 2923 2848 
Q 2756 2613 2416 2484 
Q 2838 2347 3058 2040 
Q 3278 1734 3278 1309 
Q 3278 722 2862 322 
Q 2447 -78 1769 -78 
Q 1091 -78 675 323 
Q 259 725 259 1325 
Q 259 1772 486 2073 
Q 713 2375 1131 2484 
z
M 1019 3438 
Q 1019 3113 1228 2906 
Q 1438 2700 1772 2700 
Q 2097 2700 2305 2904 
Q 2513 3109 2513 3406 
Q 2513 3716 2298 3927 
Q 2084 4138 1766 4138 
Q 1444 4138 1231 3931 
Q 1019 3725 1019 3438 
z
M 838 1322 
Q 838 1081 952 856 
Q 1066 631 1291 507 
Q 1516 384 1775 384 
Q 2178 384 2440 643 
Q 2703 903 2703 1303 
Q 2703 1709 2433 1975 
Q 2163 2241 1756 2241 
Q 1359 2241 1098 1978 
Q 838 1716 838 1322 
z
" id="ArialMT-38" transform="scale(0.015625)"/>
       </defs>
       <use xlink:href="#ArialMT-2212"/>
       <use x="58.398438" xlink:href="#ArialMT-38"/>
       <use x="114.013672" xlink:href="#ArialMT-30"/>
       <use x="169.628906" xlink:href="#ArialMT-30"/>
       <use x="225.244141" xlink:href="#ArialMT-30"/>
      </g>
     </g>
    </g>
    <g id="xtick_3">
     <g id="line2d_3">
      <g>
       <use style="fill:#262626;stroke:#262626;stroke-width:1.25;" x="196.039108" xlink:href="#mcdcc0c421e" y="224.64"/>
      </g>
     </g>
     <g id="text_3">
      <!-- −6000 -->
      <g style="fill:#262626;" transform="translate(180.592701 242.013594)scale(0.11 -0.11)">
       <defs>
        <path d="M 3184 3459 
L 2625 3416 
Q 2550 3747 2413 3897 
Q 2184 4138 1850 4138 
Q 1581 4138 1378 3988 
Q 1113 3794 959 3422 
Q 806 3050 800 2363 
Q 1003 2672 1297 2822 
Q 1591 2972 1913 2972 
Q 2475 2972 2870 2558 
Q 3266 2144 3266 1488 
Q 3266 1056 3080 686 
Q 2894 316 2569 119 
Q 2244 -78 1831 -78 
Q 1128 -78 684 439 
Q 241 956 241 2144 
Q 241 3472 731 4075 
Q 1159 4600 1884 4600 
Q 2425 4600 2770 4297 
Q 3116 3994 3184 3459 
z
M 888 1484 
Q 888 1194 1011 928 
Q 1134 663 1356 523 
Q 1578 384 1822 384 
Q 2178 384 2434 671 
Q 2691 959 2691 1453 
Q 2691 1928 2437 2201 
Q 2184 2475 1800 2475 
Q 1419 2475 1153 2201 
Q 888 1928 888 1484 
z
" id="ArialMT-36" transform="scale(0.015625)"/>
       </defs>
       <use xlink:href="#ArialMT-2212"/>
       <use x="58.398438" xlink:href="#ArialMT-36"/>
       <use x="114.013672" xlink:href="#ArialMT-30"/>
       <use x="169.628906" xlink:href="#ArialMT-30"/>
       <use x="225.244141" xlink:href="#ArialMT-30"/>
      </g>
     </g>
    </g>
    <g id="xtick_4">
     <g id="line2d_4">
      <g>
       <use style="fill:#262626;stroke:#262626;stroke-width:1.25;" x="241.972764" xlink:href="#mcdcc0c421e" y="224.64"/>
      </g>
     </g>
     <g id="text_4">
      <!-- −4000 -->
      <g style="fill:#262626;" transform="translate(226.526358 242.013594)scale(0.11 -0.11)">
       <defs>
        <path d="M 2069 0 
L 2069 1097 
L 81 1097 
L 81 1613 
L 2172 4581 
L 2631 4581 
L 2631 1613 
L 3250 1613 
L 3250 1097 
L 2631 1097 
L 2631 0 
L 2069 0 
z
M 2069 1613 
L 2069 3678 
L 634 1613 
L 2069 1613 
z
" id="ArialMT-34" transform="scale(0.015625)"/>
       </defs>
       <use xlink:href="#ArialMT-2212"/>
       <use x="58.398438" xlink:href="#ArialMT-34"/>
       <use x="114.013672" xlink:href="#ArialMT-30"/>
       <use x="169.628906" xlink:href="#ArialMT-30"/>
       <use x="225.244141" xlink:href="#ArialMT-30"/>
      </g>
     </g>
    </g>
    <g id="xtick_5">
     <g id="line2d_5">
      <g>
       <use style="fill:#262626;stroke:#262626;stroke-width:1.25;" x="287.90642" xlink:href="#mcdcc0c421e" y="224.64"/>
      </g>
     </g>
     <g id="text_5">
      <!-- −2000 -->
      <g style="fill:#262626;" transform="translate(272.460014 242.013594)scale(0.11 -0.11)">
       <defs>
        <path d="M 3222 541 
L 3222 0 
L 194 0 
Q 188 203 259 391 
Q 375 700 629 1000 
Q 884 1300 1366 1694 
Q 2113 2306 2375 2664 
Q 2638 3022 2638 3341 
Q 2638 3675 2398 3904 
Q 2159 4134 1775 4134 
Q 1369 4134 1125 3890 
Q 881 3647 878 3216 
L 300 3275 
Q 359 3922 746 4261 
Q 1134 4600 1788 4600 
Q 2447 4600 2831 4234 
Q 3216 3869 3216 3328 
Q 3216 3053 3103 2787 
Q 2991 2522 2730 2228 
Q 2469 1934 1863 1422 
Q 1356 997 1212 845 
Q 1069 694 975 541 
L 3222 541 
z
" id="ArialMT-32" transform="scale(0.015625)"/>
       </defs>
       <use xlink:href="#ArialMT-2212"/>
       <use x="58.398438" xlink:href="#ArialMT-32"/>
       <use x="114.013672" xlink:href="#ArialMT-30"/>
       <use x="169.628906" xlink:href="#ArialMT-30"/>
       <use x="225.244141" xlink:href="#ArialMT-30"/>
      </g>
     </g>
    </g>
    <g id="xtick_6">
     <g id="line2d_6">
      <g>
       <use style="fill:#262626;stroke:#262626;stroke-width:1.25;" x="333.840076" xlink:href="#mcdcc0c421e" y="224.64"/>
      </g>
     </g>
     <g id="text_6">
      <!-- 0 -->
      <g style="fill:#262626;" transform="translate(330.781561 242.013594)scale(0.11 -0.11)">
       <use xlink:href="#ArialMT-30"/>
      </g>
     </g>
    </g>
    <g id="xtick_7">
     <g id="line2d_7">
      <g>
       <use style="fill:#262626;stroke:#262626;stroke-width:1.25;" x="379.773733" xlink:href="#mcdcc0c421e" y="224.64"/>
      </g>
     </g>
     <g id="text_7">
      <!-- 2000 -->
      <g style="fill:#262626;" transform="translate(367.53967 242.013594)scale(0.11 -0.11)">
       <use xlink:href="#ArialMT-32"/>
       <use x="55.615234" xlink:href="#ArialMT-30"/>
       <use x="111.230469" xlink:href="#ArialMT-30"/>
       <use x="166.845703" xlink:href="#ArialMT-30"/>
      </g>
     </g>
    </g>
    <g id="text_8">
     <!-- $t - t_\mathrm{ref}$ ($\mathrm{BJD}$) -->
     <g style="fill:#262626;" transform="translate(192.115781 256.959844)scale(0.12 -0.12)">
      <defs>
       <path d="M 2706 3500 
L 2619 3053 
L 1472 3053 
L 1100 1153 
Q 1081 1047 1072 975 
Q 1063 903 1063 863 
Q 1063 663 1183 572 
Q 1303 481 1569 481 
L 2150 481 
L 2053 0 
L 1503 0 
Q 991 0 739 200 
Q 488 400 488 806 
Q 488 878 497 964 
Q 506 1050 525 1153 
L 897 3053 
L 409 3053 
L 500 3500 
L 978 3500 
L 1172 4494 
L 1747 4494 
L 1556 3500 
L 2706 3500 
z
" id="DejaVuSans-Oblique-74" transform="scale(0.015625)"/>
       <path d="M 678 2272 
L 4684 2272 
L 4684 1741 
L 678 1741 
L 678 2272 
z
" id="DejaVuSans-2212" transform="scale(0.015625)"/>
       <path d="M 2631 2963 
Q 2534 3019 2420 3045 
Q 2306 3072 2169 3072 
Q 1681 3072 1420 2755 
Q 1159 2438 1159 1844 
L 1159 0 
L 581 0 
L 581 3500 
L 1159 3500 
L 1159 2956 
Q 1341 3275 1631 3429 
Q 1922 3584 2338 3584 
Q 2397 3584 2469 3576 
Q 2541 3569 2628 3553 
L 2631 2963 
z
" id="DejaVuSans-72" transform="scale(0.015625)"/>
       <path d="M 3597 1894 
L 3597 1613 
L 953 1613 
Q 991 1019 1311 708 
Q 1631 397 2203 397 
Q 2534 397 2845 478 
Q 3156 559 3463 722 
L 3463 178 
Q 3153 47 2828 -22 
Q 2503 -91 2169 -91 
Q 1331 -91 842 396 
Q 353 884 353 1716 
Q 353 2575 817 3079 
Q 1281 3584 2069 3584 
Q 2775 3584 3186 3129 
Q 3597 2675 3597 1894 
z
M 3022 2063 
Q 3016 2534 2758 2815 
Q 2500 3097 2075 3097 
Q 1594 3097 1305 2825 
Q 1016 2553 972 2059 
L 3022 2063 
z
" id="DejaVuSans-65" transform="scale(0.015625)"/>
       <path d="M 2375 4863 
L 2375 4384 
L 1825 4384 
Q 1516 4384 1395 4259 
Q 1275 4134 1275 3809 
L 1275 3500 
L 2222 3500 
L 2222 3053 
L 1275 3053 
L 1275 0 
L 697 0 
L 697 3053 
L 147 3053 
L 147 3500 
L 697 3500 
L 697 3744 
Q 697 4328 969 4595 
Q 1241 4863 1831 4863 
L 2375 4863 
z
" id="DejaVuSans-66" transform="scale(0.015625)"/>
       <path id="ArialMT-20" transform="scale(0.015625)"/>
       <path d="M 1497 -1347 
Q 1031 -759 709 28 
Q 388 816 388 1659 
Q 388 2403 628 3084 
Q 909 3875 1497 4659 
L 1900 4659 
Q 1522 4009 1400 3731 
Q 1209 3300 1100 2831 
Q 966 2247 966 1656 
Q 966 153 1900 -1347 
L 1497 -1347 
z
" id="ArialMT-28" transform="scale(0.015625)"/>
       <path d="M 1259 2228 
L 1259 519 
L 2272 519 
Q 2781 519 3026 730 
Q 3272 941 3272 1375 
Q 3272 1813 3026 2020 
Q 2781 2228 2272 2228 
L 1259 2228 
z
M 1259 4147 
L 1259 2741 
L 2194 2741 
Q 2656 2741 2882 2914 
Q 3109 3088 3109 3444 
Q 3109 3797 2882 3972 
Q 2656 4147 2194 4147 
L 1259 4147 
z
M 628 4666 
L 2241 4666 
Q 2963 4666 3353 4366 
Q 3744 4066 3744 3513 
Q 3744 3084 3544 2831 
Q 3344 2578 2956 2516 
Q 3422 2416 3680 2098 
Q 3938 1781 3938 1306 
Q 3938 681 3513 340 
Q 3088 0 2303 0 
L 628 0 
L 628 4666 
z
" id="DejaVuSans-42" transform="scale(0.015625)"/>
       <path d="M 628 4666 
L 1259 4666 
L 1259 325 
Q 1259 -519 939 -900 
Q 619 -1281 -91 -1281 
L -331 -1281 
L -331 -750 
L -134 -750 
Q 284 -750 456 -515 
Q 628 -281 628 325 
L 628 4666 
z
" id="DejaVuSans-4a" transform="scale(0.015625)"/>
       <path d="M 1259 4147 
L 1259 519 
L 2022 519 
Q 2988 519 3436 956 
Q 3884 1394 3884 2338 
Q 3884 3275 3436 3711 
Q 2988 4147 2022 4147 
L 1259 4147 
z
M 628 4666 
L 1925 4666 
Q 3281 4666 3915 4102 
Q 4550 3538 4550 2338 
Q 4550 1131 3912 565 
Q 3275 0 1925 0 
L 628 0 
L 628 4666 
z
" id="DejaVuSans-44" transform="scale(0.015625)"/>
       <path d="M 791 -1347 
L 388 -1347 
Q 1322 153 1322 1656 
Q 1322 2244 1188 2822 
Q 1081 3291 891 3722 
Q 769 4003 388 4659 
L 791 4659 
Q 1378 3875 1659 3084 
Q 1900 2403 1900 1659 
Q 1900 816 1576 28 
Q 1253 -759 791 -1347 
z
" id="ArialMT-29" transform="scale(0.015625)"/>
      </defs>
      <use transform="translate(0 0.09375)" xlink:href="#DejaVuSans-Oblique-74"/>
      <use transform="translate(58.691406 0.09375)" xlink:href="#DejaVuSans-2212"/>
      <use transform="translate(161.962891 0.09375)" xlink:href="#DejaVuSans-Oblique-74"/>
      <use transform="translate(201.171875 -16.3125)scale(0.7)" xlink:href="#DejaVuSans-72"/>
      <use transform="translate(229.951172 -16.3125)scale(0.7)" xlink:href="#DejaVuSans-65"/>
      <use transform="translate(273.017578 -16.3125)scale(0.7)" xlink:href="#DejaVuSans-66"/>
      <use transform="translate(300.395508 0.09375)" xlink:href="#ArialMT-20"/>
      <use transform="translate(328.178711 0.09375)" xlink:href="#ArialMT-28"/>
      <use transform="translate(361.479492 0.09375)" xlink:href="#DejaVuSans-42"/>
      <use transform="translate(430.083008 0.09375)" xlink:href="#DejaVuSans-4a"/>
      <use transform="translate(459.575195 0.09375)" xlink:href="#DejaVuSans-44"/>
      <use transform="translate(536.577148 0.09375)" xlink:href="#ArialMT-29"/>
     </g>
    </g>
   </g>
   <g id="matplotlib.axis_2">
    <g id="ytick_1">
     <g id="line2d_8">
      <defs>
       <path d="M 0 0 
L -6 0 
" id="m3ba885cfcf" style="stroke:#262626;stroke-width:1.25;"/>
      </defs>
      <g>
       <use style="fill:#262626;stroke:#262626;stroke-width:1.25;" x="58.915781" xlink:href="#m3ba885cfcf" y="195.2224"/>
      </g>
     </g>
     <g id="text_9">
      <!-- −200 -->
      <g style="fill:#262626;" transform="translate(24.64 199.159197)scale(0.11 -0.11)">
       <use xlink:href="#ArialMT-2212"/>
       <use x="58.398438" xlink:href="#ArialMT-32"/>
       <use x="114.013672" xlink:href="#ArialMT-30"/>
       <use x="169.628906" xlink:href="#ArialMT-30"/>
      </g>
     </g>
    </g>
    <g id="ytick_2">
     <g id="line2d_9">
      <g>
       <use style="fill:#262626;stroke:#262626;stroke-width:1.25;" x="58.915781" xlink:href="#m3ba885cfcf" y="151.582271"/>
      </g>
     </g>
     <g id="text_10">
      <!-- −100 -->
      <g style="fill:#262626;" transform="translate(24.64 155.519068)scale(0.11 -0.11)">
       <use xlink:href="#ArialMT-2212"/>
       <use x="58.398438" xlink:href="#ArialMT-31"/>
       <use x="114.013672" xlink:href="#ArialMT-30"/>
       <use x="169.628906" xlink:href="#ArialMT-30"/>
      </g>
     </g>
    </g>
    <g id="ytick_3">
     <g id="line2d_10">
      <g>
       <use style="fill:#262626;stroke:#262626;stroke-width:1.25;" x="58.915781" xlink:href="#m3ba885cfcf" y="107.942143"/>
      </g>
     </g>
     <g id="text_11">
      <!-- 0 -->
      <g style="fill:#262626;" transform="translate(43.29875 111.87894)scale(0.11 -0.11)">
       <use xlink:href="#ArialMT-30"/>
      </g>
     </g>
    </g>
    <g id="ytick_4">
     <g id="line2d_11">
      <g>
       <use style="fill:#262626;stroke:#262626;stroke-width:1.25;" x="58.915781" xlink:href="#m3ba885cfcf" y="64.302014"/>
      </g>
     </g>
     <g id="text_12">
      <!-- 100 -->
      <g style="fill:#262626;" transform="translate(31.064688 68.238811)scale(0.11 -0.11)">
       <use xlink:href="#ArialMT-31"/>
       <use x="55.615234" xlink:href="#ArialMT-30"/>
       <use x="111.230469" xlink:href="#ArialMT-30"/>
      </g>
     </g>
    </g>
    <g id="ytick_5">
     <g id="line2d_12">
      <g>
       <use style="fill:#262626;stroke:#262626;stroke-width:1.25;" x="58.915781" xlink:href="#m3ba885cfcf" y="20.661885"/>
      </g>
     </g>
     <g id="text_13">
      <!-- 200 -->
      <g style="fill:#262626;" transform="translate(31.064688 24.598682)scale(0.11 -0.11)">
       <use xlink:href="#ArialMT-32"/>
       <use x="55.615234" xlink:href="#ArialMT-30"/>
       <use x="111.230469" xlink:href="#ArialMT-30"/>
      </g>
     </g>
    </g>
    <g id="text_14">
     <!-- $v_r$ ($\mathrm{m} \, \mathrm{s}^{-1}$) -->
     <g style="fill:#262626;" transform="translate(18 143.4)rotate(-90)scale(0.12 -0.12)">
      <defs>
       <path d="M 459 3500 
L 1069 3500 
L 1581 525 
L 3256 3500 
L 3866 3500 
L 1875 0 
L 1100 0 
L 459 3500 
z
" id="DejaVuSans-Oblique-76" transform="scale(0.015625)"/>
       <path d="M 2853 2969 
Q 2766 3016 2653 3041 
Q 2541 3066 2413 3066 
Q 1953 3066 1609 2717 
Q 1266 2369 1153 1784 
L 800 0 
L 225 0 
L 909 3500 
L 1484 3500 
L 1375 2956 
Q 1603 3259 1920 3421 
Q 2238 3584 2597 3584 
Q 2691 3584 2781 3573 
Q 2872 3563 2963 3538 
L 2853 2969 
z
" id="DejaVuSans-Oblique-72" transform="scale(0.015625)"/>
       <path d="M 3328 2828 
Q 3544 3216 3844 3400 
Q 4144 3584 4550 3584 
Q 5097 3584 5394 3201 
Q 5691 2819 5691 2113 
L 5691 0 
L 5113 0 
L 5113 2094 
Q 5113 2597 4934 2840 
Q 4756 3084 4391 3084 
Q 3944 3084 3684 2787 
Q 3425 2491 3425 1978 
L 3425 0 
L 2847 0 
L 2847 2094 
Q 2847 2600 2669 2842 
Q 2491 3084 2119 3084 
Q 1678 3084 1418 2786 
Q 1159 2488 1159 1978 
L 1159 0 
L 581 0 
L 581 3500 
L 1159 3500 
L 1159 2956 
Q 1356 3278 1631 3431 
Q 1906 3584 2284 3584 
Q 2666 3584 2933 3390 
Q 3200 3197 3328 2828 
z
" id="DejaVuSans-6d" transform="scale(0.015625)"/>
       <path d="M 2834 3397 
L 2834 2853 
Q 2591 2978 2328 3040 
Q 2066 3103 1784 3103 
Q 1356 3103 1142 2972 
Q 928 2841 928 2578 
Q 928 2378 1081 2264 
Q 1234 2150 1697 2047 
L 1894 2003 
Q 2506 1872 2764 1633 
Q 3022 1394 3022 966 
Q 3022 478 2636 193 
Q 2250 -91 1575 -91 
Q 1294 -91 989 -36 
Q 684 19 347 128 
L 347 722 
Q 666 556 975 473 
Q 1284 391 1588 391 
Q 1994 391 2212 530 
Q 2431 669 2431 922 
Q 2431 1156 2273 1281 
Q 2116 1406 1581 1522 
L 1381 1569 
Q 847 1681 609 1914 
Q 372 2147 372 2553 
Q 372 3047 722 3315 
Q 1072 3584 1716 3584 
Q 2034 3584 2315 3537 
Q 2597 3491 2834 3397 
z
" id="DejaVuSans-73" transform="scale(0.015625)"/>
       <path d="M 794 531 
L 1825 531 
L 1825 4091 
L 703 3866 
L 703 4441 
L 1819 4666 
L 2450 4666 
L 2450 531 
L 3481 531 
L 3481 0 
L 794 0 
L 794 531 
z
" id="DejaVuSans-31" transform="scale(0.015625)"/>
      </defs>
      <use transform="translate(0 0.684375)" xlink:href="#DejaVuSans-Oblique-76"/>
      <use transform="translate(59.179688 -15.721875)scale(0.7)" xlink:href="#DejaVuSans-Oblique-72"/>
      <use transform="translate(90.693359 0.684375)" xlink:href="#ArialMT-20"/>
      <use transform="translate(118.476562 0.684375)" xlink:href="#ArialMT-28"/>
      <use transform="translate(151.777344 0.684375)" xlink:href="#DejaVuSans-6d"/>
      <use transform="translate(265.425129 0.684375)" xlink:href="#DejaVuSans-73"/>
      <use transform="translate(318.48177 38.965625)scale(0.7)" xlink:href="#DejaVuSans-2212"/>
      <use transform="translate(377.134114 38.965625)scale(0.7)" xlink:href="#DejaVuSans-31"/>
      <use transform="translate(424.404622 0.684375)" xlink:href="#ArialMT-29"/>
     </g>
    </g>
   </g>
   <g id="line2d_13">
    <path clip-path="url(#p07aedb4398)" d="M 74.133963 60.08643 
L 74.665603 65.410036 
L 75.409898 75.376284 
L 76.579505 94.533925 
L 79.450358 142.699862 
L 80.300982 152.91341 
L 80.885785 157.503499 
L 81.257933 159.063885 
L 81.523753 159.415601 
L 81.683245 159.291397 
L 81.8959 158.707752 
L 82.16172 157.266783 
L 82.533868 153.840972 
L 83.012343 146.927102 
L 83.597147 134.793811 
L 84.500934 110.361086 
L 85.830033 75.087613 
L 86.468 63.694724 
L 86.946476 58.438509 
L 87.318624 56.300965 
L 87.584443 55.759073 
L 87.743935 55.802416 
L 87.956591 56.262443 
L 88.275575 57.745479 
L 88.700886 61.019857 
L 89.28569 67.479014 
L 90.136313 79.726751 
L 91.57174 104.270052 
L 93.645134 139.237001 
L 94.548921 151.021832 
L 95.186889 156.766547 
L 95.6122 158.9753 
L 95.87802 159.562878 
L 96.037512 159.590102 
L 96.197004 159.356884 
L 96.40966 158.618682 
L 96.728643 156.540466 
L 97.100791 152.558535 
L 97.579267 144.907039 
L 98.217234 130.594118 
L 99.333677 99.037629 
L 100.343792 73.281524 
L 100.98176 62.382533 
L 101.460235 57.567283 
L 101.832383 55.778238 
L 102.045039 55.475184 
L 102.204531 55.568673 
L 102.417187 56.094444 
L 102.73617 57.671479 
L 103.161482 61.058471 
L 103.746285 67.64348 
L 104.596909 80.014854 
L 106.085499 105.592908 
L 108.10573 139.592923 
L 109.009517 151.330526 
L 109.647484 157.026062 
L 110.072796 159.192622 
L 110.338616 159.749123 
L 110.498108 159.755727 
L 110.657599 159.500287 
L 110.923419 158.457421 
L 111.242403 156.122869 
L 111.667715 151.063912 
L 112.199354 141.571369 
L 112.890485 124.617474 
L 115.017044 68.457682 
L 115.601847 59.931006 
L 116.027159 56.482532 
L 116.346143 55.349756 
L 116.558798 55.237909 
L 116.71829 55.46895 
L 116.98411 56.410074 
L 117.356258 58.776136 
L 117.887897 63.927757 
L 118.632193 73.748065 
L 119.748636 91.896137 
L 122.885309 144.459745 
L 123.682768 153.794995 
L 124.214408 157.936572 
L 124.586555 159.548079 
L 124.852375 159.938 
L 125.011867 159.836611 
L 125.224523 159.282292 
L 125.490343 157.874232 
L 125.86249 154.48114 
L 126.340966 147.567667 
L 126.925769 135.327058 
L 127.776393 111.987659 
L 129.158655 74.245083 
L 129.796623 62.70148 
L 130.275098 57.483021 
L 130.647246 55.440406 
L 130.913066 54.988882 
L 131.072558 55.091987 
L 131.285214 55.63524 
L 131.604197 57.244915 
L 132.029509 60.679942 
L 132.614312 67.326808 
L 133.464936 79.765125 
L 134.953526 105.405578 
L 136.973757 139.498646 
L 137.877544 151.333913 
L 138.515511 157.136205 
L 138.940823 159.393765 
L 139.206643 160.014728 
L 139.366135 160.062417 
L 139.525626 159.849541 
L 139.738282 159.137472 
L 140.057266 157.093513 
L 140.429414 153.136751 
L 140.907889 145.474564 
L 141.545857 131.021674 
L 142.609136 100.382058 
L 143.619251 73.607925 
L 144.257218 62.165725 
L 144.735694 57.073691 
L 145.107842 55.143815 
L 145.320497 54.784782 
L 145.479989 54.846014 
L 145.692645 55.339645 
L 146.011629 56.886738 
L 146.43694 60.256748 
L 147.021744 66.840338 
L 147.872367 79.223781 
L 149.360958 104.838405 
L 151.434352 139.835693 
L 152.338139 151.610352 
L 152.976107 157.352085 
L 153.401418 159.559617 
L 153.667238 160.144855 
L 153.82673 160.169329 
L 153.986222 159.931838 
L 154.198878 159.184692 
L 154.517861 157.083128 
L 154.890009 153.051513 
L 155.368485 145.281751 
L 156.006452 130.671761 
L 157.069731 99.79874 
L 158.079846 72.988611 
L 158.717814 61.656653 
L 159.196289 56.69399 
L 159.568437 54.877028 
L 159.781093 54.583312 
L 159.940585 54.692783 
L 160.153241 55.248779 
L 160.472224 56.883373 
L 160.897536 60.355675 
L 161.535503 67.748395 
L 162.439291 81.258439 
L 164.140537 110.906426 
L 165.894948 140.165318 
L 166.798735 151.874376 
L 167.436702 157.551239 
L 167.862014 159.705677 
L 168.127834 160.253319 
L 168.287326 160.253507 
L 168.446817 159.990392 
L 168.712637 158.930726 
L 169.031621 156.566239 
L 169.456933 151.441355 
L 169.988572 141.800362 
L 170.679703 124.494312 
L 172.806262 67.067781 
L 173.337901 59.223611 
L 173.763213 55.680939 
L 174.082196 54.53425 
L 174.241688 54.411017 
L 174.40118 54.567844 
L 174.613836 55.184735 
L 174.93282 56.904173 
L 175.411295 61.010637 
L 176.049263 68.699786 
L 177.006214 83.343636 
L 179.079608 119.720585 
L 180.515035 142.78471 
L 181.365658 153.236662 
L 181.950462 158.074878 
L 182.375773 159.985805 
L 182.641593 160.359913 
L 182.801085 160.248066 
L 183.013741 159.678022 
L 183.279561 158.246099 
L 183.651708 154.807376 
L 184.130184 147.801135 
L 184.714987 135.363572 
L 185.565611 111.524017 
L 186.947873 72.972302 
L 187.585841 61.437074 
L 188.064316 56.396571 
L 188.436464 54.55686 
L 188.64912 54.261256 
L 188.808612 54.373255 
L 189.021268 54.93653 
L 189.340251 56.58742 
L 189.765563 60.085433 
L 190.40353 67.513791 
L 191.307318 81.056467 
L 193.008564 110.724257 
L 194.762975 140.019947 
L 195.666762 151.790374 
L 196.304729 157.542301 
L 196.730041 159.765512 
L 196.995861 160.364366 
L 197.155353 160.398264 
L 197.314844 160.170963 
L 197.5275 159.43821 
L 197.846484 157.358431 
L 198.218632 153.348053 
L 198.697107 145.585492 
L 199.335075 130.910095 
L 200.398354 99.647143 
L 201.408469 72.408323 
L 201.993272 61.740344 
L 202.471748 56.485547 
L 202.843896 54.505787 
L 203.056551 54.141073 
L 203.216043 54.206223 
L 203.428699 54.713266 
L 203.747683 56.29193 
L 204.172994 59.712969 
L 204.757798 66.363058 
L 205.608421 78.812833 
L 207.097012 104.469397 
L 209.170406 139.542764 
L 210.074193 151.437746 
L 210.712161 157.327115 
L 211.137472 159.670186 
L 211.456456 160.414669 
L 211.615948 160.42142 
L 211.77544 160.165823 
L 212.04126 159.12036 
L 212.360243 156.774152 
L 212.785555 151.670115 
L 213.317195 142.031663 
L 214.008326 124.640084 
L 216.188048 65.540216 
L 216.719688 58.085482 
L 217.144999 54.913286 
L 217.410819 54.110368 
L 217.570311 54.03081 
L 217.729803 54.232983 
L 217.995622 55.149363 
L 218.36777 57.51399 
L 218.89941 62.695392 
L 219.643705 72.565243 
L 220.760148 90.755545 
L 223.949985 144.399387 
L 224.747445 153.876416 
L 225.332248 158.493824 
L 225.704396 160.085326 
L 225.970216 160.463607 
L 226.129707 160.355838 
L 226.342363 159.792957 
L 226.608183 158.372312 
L 226.980331 154.951644 
L 227.458806 147.964317 
L 228.04361 135.517785 
L 228.894233 111.527705 
L 230.276496 72.523852 
L 230.861299 61.683737 
L 231.339775 56.341645 
L 231.711923 54.32555 
L 231.924578 53.949828 
L 232.08407 54.010299 
L 232.296726 54.514765 
L 232.61571 56.094921 
L 233.041021 59.522883 
L 233.625825 66.183386 
L 234.476448 78.640318 
L 235.965039 104.287364 
L 238.038433 139.357582 
L 238.94222 151.284889 
L 239.580188 157.22306 
L 240.058663 159.811068 
L 240.324483 160.407693 
L 240.483975 160.441967 
L 240.643467 160.216377 
L 240.856123 159.487951 
L 241.175106 157.418591 
L 241.547254 153.424278 
L 242.02573 145.680518 
L 242.610533 132.390089 
L 243.567484 104.432856 
L 244.683927 73.222452 
L 245.321895 61.312614 
L 245.80037 56.102833 
L 246.172518 54.193633 
L 246.385174 53.877344 
L 246.544666 53.980756 
L 246.757322 54.539633 
L 247.076305 56.194158 
L 247.501617 59.706249 
L 248.139584 67.15666 
L 249.043372 80.711512 
L 250.744618 110.35298 
L 252.499029 139.650722 
L 253.402816 151.487996 
L 254.040783 157.339911 
L 254.466095 159.663887 
L 254.785079 160.399212 
L 254.94457 160.403442 
L 255.104062 160.146829 
L 255.369882 159.103127 
L 255.688866 156.764531 
L 256.114177 151.677858 
L 256.645817 142.062561 
L 257.336948 124.665531 
L 259.51667 65.19369 
L 260.04831 57.756691 
L 260.473622 54.646743 
L 260.739441 53.896269 
L 260.898933 53.850836 
L 261.058425 54.088019 
L 261.324245 55.062609 
L 261.696393 57.503806 
L 262.228032 62.77635 
L 262.972327 72.730758 
L 264.141934 91.891001 
L 267.17228 142.993666 
L 268.022903 153.350494 
L 268.607707 158.134628 
L 269.033018 160.020172 
L 269.298838 160.386969 
L 269.45833 160.274367 
L 269.670986 159.707727 
L 269.936805 158.286977 
L 270.308953 154.874731 
L 270.787429 147.910133 
L 271.372232 135.494567 
L 272.169692 113.11515 
L 273.605118 72.280127 
L 274.189922 61.416361 
L 274.668397 56.113951 
L 275.040545 54.156006 
L 275.253201 53.819675 
L 275.412693 53.91108 
L 275.625349 54.457206 
L 275.944332 56.09779 
L 276.369644 59.597169 
L 277.007611 67.033351 
L 277.911399 80.567797 
L 279.612645 110.163852 
L 281.367056 139.427982 
L 282.270843 151.271896 
L 282.90881 157.14982 
L 283.334122 159.506348 
L 283.653106 160.276547 
L 283.812597 160.302075 
L 283.972089 160.069516 
L 284.184745 159.334881 
L 284.503729 157.263451 
L 284.875877 153.278184 
L 285.354352 145.562102 
L 285.939156 132.315658 
L 286.842943 106.013073 
L 288.01255 73.052449 
L 288.650517 61.128132 
L 289.128993 55.957295 
L 289.501141 54.100601 
L 289.713796 53.819177 
L 289.873288 53.949729 
L 290.085944 54.544883 
L 290.404928 56.251498 
L 290.883403 60.360963 
L 291.521371 68.059403 
L 292.478322 82.686917 
L 294.60488 119.866467 
L 296.040307 142.755664 
L 296.89093 153.116428 
L 297.475734 157.922646 
L 297.901045 159.839644 
L 298.166865 160.234621 
L 298.326357 160.142529 
L 298.539013 159.607756 
L 298.804832 158.234416 
L 299.17698 154.902664 
L 299.602292 148.966897 
L 300.133931 138.339736 
L 300.878227 118.392882 
L 302.632637 69.174298 
L 303.217441 59.471504 
L 303.642752 55.470319 
L 303.961736 54.075092 
L 304.174392 53.846656 
L 304.333884 54.014773 
L 304.546539 54.656739 
L 304.865523 56.426008 
L 305.343999 60.611997 
L 305.981966 68.382069 
L 306.938917 83.064527 
L 309.278131 123.858365 
L 310.554066 143.72977 
L 311.351526 153.247656 
L 311.936329 157.95683 
L 312.361641 159.792508 
L 312.62746 160.132707 
L 312.786952 160.006561 
L 312.999608 159.425322 
L 313.265428 157.992852 
L 313.637576 154.578461 
L 314.116051 147.63835 
L 314.700855 135.290902 
L 315.498314 113.026701 
L 316.986905 71.073533 
L 317.571708 60.650977 
L 318.050184 55.740965 
L 318.369168 54.208102 
L 318.581823 53.896441 
L 318.741315 54.006865 
L 318.953971 54.578193 
L 319.272955 56.254452 
L 319.698266 59.794143 
L 320.336234 67.270444 
L 321.240021 80.820102 
L 322.994432 111.28485 
L 324.695678 139.438898 
L 325.599465 151.161543 
L 326.237433 156.94657 
L 326.662744 159.243519 
L 326.981728 159.973837 
L 327.14122 159.981902 
L 327.300712 159.734008 
L 327.566532 158.716889 
L 327.885515 156.432054 
L 328.310827 151.456176 
L 328.842466 142.035443 
L 329.480434 126.403536 
L 331.872812 62.783054 
L 332.351287 56.916664 
L 332.723435 54.566355 
L 332.989255 53.981678 
L 333.148747 54.032098 
L 333.361403 54.529708 
L 333.680386 56.10853 
L 334.105698 59.54088 
L 334.690501 66.201576 
L 335.541125 78.627083 
L 337.082879 105.074478 
L 339.10311 138.90788 
L 340.006897 150.714172 
L 340.644864 156.599351 
L 341.12334 159.185339 
L 341.442324 159.847683 
L 341.601815 159.82041 
L 341.814471 159.382599 
L 342.080291 158.148082 
L 342.452439 155.043744 
L 342.87775 149.410365 
L 343.40939 139.198911 
L 344.100521 121.315657 
L 346.067588 67.186063 
L 346.599227 58.99244 
L 347.024539 55.33087 
L 347.343522 54.173364 
L 347.503014 54.063157 
L 347.662506 54.241845 
L 347.875162 54.897402 
L 348.194146 56.685005 
L 348.672621 60.891476 
L 349.310589 68.672715 
L 350.26754 83.338078 
L 354.361164 149.652289 
L 355.052296 156.233595 
L 355.530771 158.91928 
L 355.849755 159.664324 
L 356.009247 159.683728 
L 356.168739 159.4502 
L 356.434559 158.464496 
L 356.753542 156.231074 
L 357.178854 151.349195 
L 357.710493 142.085951 
L 358.348461 126.679456 
L 360.794003 62.418582 
L 361.272478 56.809298 
L 361.644626 54.643764 
L 361.910446 54.178914 
L 362.069938 54.295671 
L 362.282593 54.874897 
L 362.601577 56.561235 
L 363.080053 60.643423 
L 363.71802 68.302173 
L 364.674971 82.851353 
L 366.907857 121.582285 
L 368.236956 142.403264 
L 369.08758 152.59702 
L 369.672383 157.297251 
L 370.097695 159.154472 
L 370.363514 159.524961 
L 370.523006 159.424514 
L 370.735662 158.887475 
L 371.001482 157.527966 
L 371.37363 154.252328 
L 371.852105 147.556723 
L 372.436909 135.594422 
L 373.234368 113.879781 
L 374.776123 71.002491 
L 375.360926 60.785534 
L 375.839402 56.021472 
L 376.158385 54.575708 
L 376.371041 54.317131 
L 376.530533 54.464526 
L 376.743189 55.081114 
L 377.062173 56.816113 
L 377.540648 60.955547 
L 378.178616 68.664732 
L 378.497599 73.21063 
L 378.497599 73.21063 
" style="fill:none;stroke:#0173b2;stroke-linecap:round;stroke-width:1.5;"/>
   </g>
   <g id="line2d_14">
    <path clip-path="url(#p07aedb4398)" d="M 74.133963 107.424762 
L 74.187127 131.322577 
L 74.240291 108.302569 
L 74.293455 124.263247 
L 74.346619 114.437638 
L 74.399783 119.680172 
L 74.452947 117.235856 
L 74.612439 119.346889 
L 74.665603 114.419065 
L 74.718767 124.541227 
L 74.771931 106.235557 
L 74.825094 124.218611 
L 74.878258 116.513367 
L 74.931422 120.255599 
L 75.03775 120.408217 
L 75.250406 123.104979 
L 75.728882 129.030369 
L 75.888374 131.254465 
L 75.941538 130.887894 
L 75.994701 133.948145 
L 76.047865 129.986434 
L 76.101029 138.788915 
L 76.154193 126.769079 
L 76.207357 145.150415 
L 76.260521 136.619441 
L 76.313685 123.935613 
L 76.366849 156.931077 
L 76.420013 118.249098 
L 76.473177 141.795958 
L 76.526341 129.592246 
L 76.579505 133.25596 
L 76.738997 130.388056 
L 76.792161 131.276743 
L 76.845325 125.588418 
L 76.898489 136.115139 
L 76.951653 115.182067 
L 77.004817 134.65217 
L 77.057981 125.464847 
L 77.111144 129.143966 
L 77.217472 128.227523 
L 77.376964 129.3241 
L 77.430128 128.334688 
L 77.483292 130.68038 
L 77.536456 126.492959 
L 77.58962 134.498508 
L 77.642784 121.693068 
L 77.695948 141.037382 
L 77.749112 126.121919 
L 77.85544 129.501439 
L 78.014932 125.612195 
L 78.068096 126.364859 
L 78.280751 123.596623 
L 79.450358 111.88402 
L 82.002228 86.404179 
L 82.640196 78.114856 
L 82.69336 79.537069 
L 82.746524 75.207858 
L 82.799688 80.279874 
L 82.852852 71.547157 
L 82.906015 80.265101 
L 83.012343 69.715697 
L 83.065507 76.513508 
L 83.118671 62.728087 
L 83.171835 81.879368 
L 83.224999 46.063244 
L 83.278163 78.558821 
L 83.331327 61.833002 
L 83.384491 68.283539 
L 83.490819 65.309875 
L 83.543983 66.359162 
L 83.650311 66.577578 
L 83.703475 61.299292 
L 83.756639 68.817987 
L 83.809803 56.207685 
L 83.862967 72.73728 
L 83.916131 52.254946 
L 83.969295 59.618688 
L 84.022459 69.544934 
L 84.075622 59.221575 
L 84.128786 69.526441 
L 84.18195 63.584914 
L 84.235114 68.688482 
L 84.288278 67.037749 
L 84.500934 71.027208 
L 85.936361 89.071252 
L 87.478116 105.042416 
L 89.764166 128.640132 
L 90.880609 142.785819 
L 91.0401 147.827428 
L 91.093264 140.136767 
L 91.146428 156.626637 
L 91.199592 131.339359 
L 91.252756 170.836164 
L 91.30592 141.207062 
L 91.412248 149.025007 
L 91.57174 142.656696 
L 91.624904 144.663413 
L 91.784396 141.512375 
L 92.156543 137.254019 
L 92.900839 128.942541 
L 92.954003 130.190894 
L 93.007167 125.789457 
L 93.060331 132.654045 
L 93.113495 119.694841 
L 93.166659 130.757438 
L 93.219823 125.993095 
L 93.272986 127.228049 
L 93.32615 127.375028 
L 93.379314 126.606914 
L 93.485642 126.615693 
L 93.538806 127.107513 
L 93.59197 126.494339 
L 93.645134 127.238324 
L 93.698298 125.998729 
L 93.751462 127.808468 
L 93.804626 125.198449 
L 93.85779 128.326644 
L 93.910954 126.831166 
L 94.070446 125.321946 
L 94.12361 126.080353 
L 94.176774 125.251431 
L 94.229938 125.430357 
L 94.442593 124.555787 
L 95.240053 122.274702 
L 95.984348 120.775053 
L 96.67548 119.856576 
L 97.260283 119.405618 
L 97.791923 119.243279 
L 98.323562 119.313792 
L 98.855202 119.620821 
L 99.440005 120.244143 
L 100.077973 121.292612 
L 100.769104 122.845906 
L 100.822268 123.264414 
L 100.875432 122.760508 
L 100.928596 124.254475 
L 100.98176 121.984709 
L 101.034924 126.108469 
L 101.088088 120.510142 
L 101.141252 127.868432 
L 101.194416 121.342007 
L 101.24758 122.824627 
L 101.300744 136.710947 
L 101.353907 113.090051 
L 101.407071 129.775874 
L 101.460235 117.19867 
L 101.513399 123.413892 
L 101.672891 118.234276 
L 102.204531 110.250773 
L 103.26781 92.646157 
L 103.320974 95.094916 
L 103.53363 84.173289 
L 103.586794 95.015688 
L 103.639958 86.251301 
L 103.693121 92.112995 
L 103.746285 88.352247 
L 103.799449 90.280989 
L 103.852613 89.175736 
L 103.905777 89.476997 
L 103.958941 89.248546 
L 104.809564 86.84218 
L 105.500696 84.024343 
L 106.244991 80.023043 
L 107.042451 74.435171 
L 107.83991 67.216049 
L 108.584205 58.74032 
L 108.743697 53.487354 
L 108.796861 61.590587 
L 108.850025 45.403559 
L 108.903189 68.939386 
L 108.956353 34.384116 
L 109.009517 57.086781 
L 109.062681 56.987661 
L 109.115845 51.419195 
L 109.169009 59.689019 
L 109.275337 59.274323 
L 109.328501 57.146115 
L 109.381665 59.439473 
L 109.434828 59.289812 
L 109.753812 63.382332 
L 110.763927 73.261138 
L 111.667715 79.818532 
L 112.518338 84.454547 
L 113.368961 87.887487 
L 114.113256 90.059538 
L 114.804388 91.463175 
L 115.442355 92.273259 
L 115.973995 92.603582 
L 116.399306 92.665766 
L 116.558798 92.478047 
L 116.611962 92.77764 
L 116.665126 92.310771 
L 116.71829 92.815432 
L 116.771454 92.33463 
L 116.824618 92.271222 
L 116.877782 93.57274 
L 116.930946 89.35479 
L 116.98411 94.715738 
L 117.037274 91.507367 
L 117.090438 93.650792 
L 117.143602 92.759536 
L 117.303094 93.55468 
L 117.781569 94.770136 
L 118.579029 96.301782 
L 119.323324 97.255227 
L 119.961291 97.744035 
L 120.546095 97.941998 
L 121.130898 97.906366 
L 121.715702 97.635015 
L 122.300505 97.11828 
L 122.938473 96.253754 
L 123.629604 94.922272 
L 124.10808 93.667244 
L 124.161244 93.722634 
L 124.267572 93.75245 
L 124.320736 92.373635 
L 124.3739 94.002246 
L 124.427064 91.574014 
L 124.480227 93.601558 
L 124.533391 92.751263 
L 124.586555 87.971863 
L 124.639719 96.214242 
L 124.692883 90.431427 
L 124.746047 94.592303 
L 124.799211 92.484696 
L 124.958703 93.972718 
L 126.553622 98.854653 
L 127.563737 101.030981 
L 128.627016 102.788151 
L 129.743459 104.212317 
L 131.019394 105.478854 
L 132.614312 106.731762 
L 137.399068 110.272703 
L 138.568675 111.550844 
L 139.047151 112.231574 
L 139.100315 112.128147 
L 139.153479 112.597141 
L 139.206643 111.919165 
L 139.259807 113.299005 
L 139.312971 111.348373 
L 139.366135 114.251124 
L 139.419299 112.312993 
L 139.525626 112.83734 
L 139.57879 112.217887 
L 139.685118 112.266348 
L 139.738282 112.460775 
L 139.791446 112.279482 
L 139.84461 112.317071 
L 139.897774 112.237142 
L 140.216758 112.077031 
L 140.269922 111.905156 
L 140.323086 112.19368 
L 140.37625 111.529853 
L 140.429414 112.626743 
L 140.482578 110.787639 
L 140.535742 113.362719 
L 140.588906 110.131392 
L 140.642069 113.024776 
L 140.695233 112.610854 
L 140.748397 104.319621 
L 140.801561 118.522797 
L 140.854725 109.29511 
L 140.907889 116.332121 
L 140.961053 113.42657 
L 141.067381 117.389093 
L 141.120545 112.760877 
L 141.173709 124.475687 
L 141.226873 105.44635 
L 141.280037 137.391796 
L 141.333201 114.756784 
L 141.386365 110.263516 
L 141.439529 122.934457 
L 141.492693 113.797935 
L 141.545857 118.642074 
L 141.599021 116.060553 
L 141.652185 116.931897 
L 141.705349 116.42215 
L 141.758512 116.558417 
L 141.811676 115.834019 
L 141.86484 116.991939 
L 141.918004 114.477882 
L 141.971168 118.167414 
L 142.024332 112.728539 
L 142.077496 118.664169 
L 142.13066 114.239167 
L 142.183824 110.845158 
L 142.236988 133.354688 
L 142.290152 98.903539 
L 142.343316 122.37407 
L 142.502808 101.437584 
L 142.555972 117.423751 
L 142.609136 89.74288 
L 142.6623 127.411946 
L 142.715464 74.903762 
L 142.768628 107.810462 
L 142.821792 107.907631 
L 142.874956 98.490889 
L 142.928119 110.958467 
L 142.981283 102.440655 
L 143.034447 108.949043 
L 143.140775 108.733782 
L 143.247103 109.572175 
L 143.300267 111.522034 
L 143.353431 109.229389 
L 143.406595 115.881831 
L 143.459759 106.854273 
L 143.512923 119.874861 
L 143.566087 113.079604 
L 143.619251 112.010881 
L 143.672415 115.637614 
L 143.725579 112.074184 
L 143.778743 115.025104 
L 143.831907 113.162913 
L 143.885071 114.375198 
L 143.938235 113.999811 
L 143.991399 113.932205 
L 144.044563 114.859759 
L 144.097726 113.208942 
L 144.15089 116.222391 
L 144.204054 111.997558 
L 144.257218 115.415945 
L 144.363546 114.978987 
L 144.523038 116.323588 
L 144.576202 116.318947 
L 144.842022 117.982767 
L 144.895186 117.93587 
L 145.107842 119.672062 
L 145.161006 119.446876 
L 145.320497 121.810306 
L 145.373661 120.344645 
L 145.426825 121.33375 
L 145.479989 125.200486 
L 145.533153 118.965048 
L 145.586317 123.734581 
L 145.639481 120.645082 
L 145.692645 122.537295 
L 145.745809 121.602394 
L 145.798973 122.100253 
L 145.852137 121.988119 
L 145.905301 122.068639 
L 147.074908 124.088453 
L 147.766039 126.079747 
L 148.350843 128.150699 
L 148.510335 129.507062 
L 148.563499 128.706398 
L 148.669827 130.392337 
L 148.72299 127.15769 
L 148.776154 137.474925 
L 148.829318 115.655496 
L 148.882482 157.71131 
L 148.935646 106.669442 
L 148.98881 136.595056 
L 149.095138 130.916185 
L 149.148302 136.283336 
L 149.25463 135.901025 
L 149.307794 139.803527 
L 149.360958 134.592547 
L 149.414122 145.098954 
L 149.467286 136.062375 
L 149.573614 159.052051 
L 149.626778 128.51061 
L 149.679942 151.181416 
L 149.733106 135.187455 
L 149.78627 144.06814 
L 149.839433 138.559602 
L 149.892597 140.525246 
L 150.052089 138.586167 
L 150.424237 135.735556 
L 150.902713 132.052625 
L 151.00904 132.294308 
L 151.062204 129.371685 
L 151.115368 133.988075 
L 151.168532 128.798362 
L 151.221696 135.137614 
L 151.27486 125.505842 
L 151.328024 139.734701 
L 151.381188 119.351366 
L 151.434352 133.048835 
L 151.487516 134.04874 
L 151.54068 131.156537 
L 151.700172 137.18306 
L 151.753336 136.563622 
L 151.965992 141.034669 
L 152.178647 144.967031 
L 152.338139 151.014342 
L 152.391303 146.517833 
L 152.444467 151.099732 
L 152.497631 149.363689 
L 152.710287 157.394311 
L 152.763451 147.042084 
L 152.816615 171.307992 
L 152.869779 151.497301 
L 152.922943 160.681085 
L 152.976107 150.906118 
L 153.029271 157.254181 
L 153.082435 152.117484 
L 153.135599 154.249222 
L 153.188763 152.279461 
L 153.241927 152.402139 
L 153.507746 149.412752 
L 153.56091 149.505983 
L 153.667238 148.259823 
L 153.720402 148.612786 
L 153.773566 144.808594 
L 153.82673 152.744811 
L 153.879894 142.458132 
L 153.933058 147.456308 
L 154.09255 143.109572 
L 156.006452 121.485088 
L 156.059616 121.716725 
L 156.11278 119.706305 
L 156.165944 121.906445 
L 156.219108 116.993908 
L 156.272272 122.92707 
L 156.325436 114.335077 
L 156.3786 121.562909 
L 156.431764 123.776481 
L 156.591256 109.758546 
L 156.64442 113.32507 
L 156.803911 105.733519 
L 156.857075 106.860874 
L 157.069731 92.571697 
L 157.122895 115.738705 
L 157.176059 58.900856 
L 157.229223 119.283621 
L 157.282387 87.484275 
L 157.335551 103.921001 
L 157.388715 98.728963 
L 157.441879 100.912001 
L 157.654535 105.57285 
L 157.707699 102.833854 
L 157.760863 108.755832 
L 157.814027 104.017529 
L 157.867191 107.922108 
L 157.920354 126.898442 
L 157.973518 93.338044 
L 158.026682 113.097216 
L 158.186174 95.580823 
L 158.239338 108.637262 
L 158.292502 85.834901 
L 158.345666 114.674329 
L 158.39883 78.711223 
L 158.451994 92.152474 
L 158.505158 104.559418 
L 158.558322 88.783602 
L 158.611486 103.611959 
L 158.66465 93.739599 
L 158.717814 100.953471 
L 158.770978 97.592437 
L 158.824142 100.140408 
L 158.877306 99.72751 
L 159.196289 103.101581 
L 159.515273 105.846285 
L 159.568437 107.23384 
L 159.621601 105.659955 
L 159.674765 110.245771 
L 159.727929 103.617712 
L 159.781093 115.246581 
L 159.834257 106.248853 
L 159.887421 109.398242 
L 159.940585 109.221911 
L 159.993749 108.580258 
L 160.153241 110.09087 
L 160.206405 107.949616 
L 160.259568 112.487091 
L 160.312732 104.260477 
L 160.365896 118.605652 
L 160.41906 107.95094 
L 160.525388 108.48666 
L 160.68488 105.46543 
L 160.738044 105.337535 
L 161.110192 100.284307 
L 161.482339 94.315912 
L 161.588667 94.429913 
L 161.641831 89.448223 
L 161.694995 102.319778 
L 161.748159 70.731537 
L 161.801323 104.999645 
L 161.854487 85.548285 
L 161.907651 96.230977 
L 161.960815 92.020478 
L 162.013979 93.875561 
L 164.353193 107.772619 
L 164.406357 106.65391 
L 164.459521 109.182503 
L 164.512685 106.248641 
L 164.565849 110.455259 
L 164.619013 107.221267 
L 164.672177 106.202548 
L 164.831669 112.713714 
L 164.884832 110.986652 
L 165.044324 114.06886 
L 165.575964 120.832844 
L 165.78862 126.123435 
L 165.841784 120.108145 
L 165.894948 128.402833 
L 166.001275 128.375474 
L 166.054439 128.174487 
L 166.320259 134.430531 
L 166.373423 134.453112 
L 166.426587 133.819743 
L 166.479751 142.915618 
L 166.532915 123.119292 
L 166.586079 168.235628 
L 166.639243 125.45401 
L 166.692407 118.508485 
L 166.745571 176.343381 
L 166.798735 116.697496 
L 166.851899 143.827009 
L 166.905063 129.628942 
L 166.958227 132.936138 
L 167.170882 118.74019 
L 167.224046 136.202274 
L 167.27721 101.2427 
L 167.330374 156.915367 
L 167.383538 65.771607 
L 167.436702 143.537132 
L 167.489866 116.612395 
L 167.54303 127.462588 
L 167.596194 121.220285 
L 167.649358 145.967251 
L 167.702522 95.508865 
L 167.755686 194.747966 
L 167.80885 103.10769 
L 167.862014 141.957047 
L 167.915178 120.985804 
L 167.968342 124.076362 
L 168.021506 140.508064 
L 168.07467 103.974848 
L 168.127834 130.455072 
L 168.180998 135.894831 
L 168.234162 109.915815 
L 168.393653 165.268542 
L 168.446817 90.195882 
L 168.499981 130.878029 
L 168.553145 139.270812 
L 168.606309 80.855134 
L 168.659473 101.456447 
L 168.765801 115.174803 
L 168.818965 111.946251 
L 168.978457 119.308385 
L 169.084785 121.041157 
L 169.244277 129.182524 
L 169.297441 125.7942 
L 169.350605 128.841432 
L 169.56326 132.847218 
L 169.722752 140.337961 
L 169.775916 135.03023 
L 169.82908 144.429239 
L 169.882244 138.515433 
L 169.935408 140.541442 
L 169.988572 164.056587 
L 170.041736 128.103435 
L 170.0949 152.48011 
L 170.148064 136.584416 
L 170.201228 144.792037 
L 170.254392 140.104705 
L 170.307556 141.439602 
L 170.520212 139.300828 
L 170.626539 138.6195 
L 172.274622 130.292561 
L 172.327786 130.278758 
L 172.540442 129.218502 
L 172.593606 130.334047 
L 172.64677 126.995518 
L 172.699934 133.423317 
L 172.753098 121.39202 
L 172.806262 140.548689 
L 172.859426 113.590871 
L 172.91259 147.528019 
L 172.965753 115.287599 
L 173.018917 132.107256 
L 173.072081 123.617481 
L 173.125245 125.403679 
L 173.178409 124.673402 
L 173.337901 121.862793 
L 173.391065 121.772345 
L 173.603721 117.813586 
L 173.656885 119.988024 
L 173.710049 114.308494 
L 173.763213 121.511267 
L 173.816377 109.868659 
L 173.869541 121.94891 
L 173.975869 106.430694 
L 174.029033 129.453292 
L 174.082196 99.884292 
L 174.13536 122.077275 
L 174.188524 105.333865 
L 174.241688 114.24343 
L 174.40118 107.872632 
L 174.613836 105.003254 
L 174.773328 101.296152 
L 174.826492 102.181427 
L 174.985984 96.950015 
L 175.039148 98.764725 
L 175.092312 98.197953 
L 175.251803 96.112321 
L 175.304967 96.114654 
L 175.464459 93.290576 
L 175.517623 95.800318 
L 175.570787 89.918041 
L 175.623951 97.982907 
L 175.677115 85.156346 
L 175.730279 99.605319 
L 175.783443 89.241253 
L 175.836607 85.716626 
L 175.889771 93.989563 
L 175.942935 84.404602 
L 176.049263 85.161513 
L 176.102427 87.163241 
L 176.261919 83.760299 
L 176.580902 79.40784 
L 176.634066 77.294254 
L 176.68723 80.086056 
L 176.740394 71.415298 
L 176.793558 85.360733 
L 176.846722 59.649779 
L 176.899886 82.14776 
L 176.95305 73.120022 
L 177.006214 73.852321 
L 177.059378 75.376437 
L 177.21887 72.700723 
L 177.272034 73.415913 
L 177.48469 71.585142 
L 177.537854 71.897722 
L 177.591017 70.188457 
L 177.644181 72.35281 
L 177.697345 67.805424 
L 177.750509 73.715806 
L 177.803673 65.094733 
L 177.856837 73.345557 
L 177.963165 58.428988 
L 178.016329 102.107058 
L 178.069493 39.795426 
L 178.122657 77.427557 
L 178.175821 49.886976 
L 178.282149 51.795048 
L 178.335313 49.060912 
L 178.388477 51.375416 
L 178.441641 36.358213 
L 178.494805 55.388721 
L 178.547969 17.083636 
L 178.601133 29.748595 
L 178.654297 30.333974 
L 178.813788 46.051338 
L 178.866952 44.312803 
L 179.2391 55.587757 
L 180.142887 79.16761 
L 180.834019 98.330582 
L 180.887183 92.407016 
L 180.940347 105.769029 
L 180.993511 88.666122 
L 181.046674 114.262413 
L 181.099838 100.549156 
L 181.153002 98.135749 
L 181.206166 105.074878 
L 181.25933 98.038684 
L 181.312494 103.629419 
L 181.365658 99.697541 
L 181.52515 102.76271 
L 181.578314 99.17365 
L 181.631478 104.41741 
L 181.684642 97.333934 
L 181.737806 105.407606 
L 181.79097 99.386249 
L 181.844134 93.765206 
L 181.950462 117.457412 
L 182.003626 99.949885 
L 182.05679 105.490243 
L 182.109954 105.545857 
L 182.163117 103.575221 
L 182.216281 105.906214 
L 182.269445 104.069797 
L 182.322609 105.42253 
L 182.375773 104.644562 
L 182.428937 105.145902 
L 182.482101 104.950566 
L 182.641593 105.137509 
L 183.439052 105.638766 
L 184.821315 106.287248 
L 186.469398 106.809229 
L 188.542792 107.222894 
L 191.307318 107.534344 
L 195.347778 107.746928 
L 201.993272 107.849161 
L 210.765325 107.769254 
L 215.975392 107.525803 
L 219.271557 107.16152 
L 221.610771 106.690624 
L 223.47151 106.092723 
L 224.9601 105.389361 
L 226.236035 104.552402 
L 227.405642 103.518895 
L 228.468921 102.278009 
L 229.479037 100.742794 
L 230.435988 98.864546 
L 231.339775 96.594273 
L 232.243562 93.694725 
L 233.094185 90.219497 
L 233.944809 85.805119 
L 234.795432 80.174535 
L 235.273907 75.79289 
L 235.327071 75.89699 
L 235.380235 76.821962 
L 235.433399 70.402589 
L 235.486563 84.732367 
L 235.539727 54.213129 
L 235.592891 85.786968 
L 235.646055 69.337251 
L 235.699219 77.864512 
L 235.752383 75.339191 
L 235.805547 76.341804 
L 235.965039 78.140072 
L 236.018203 78.106253 
L 236.284023 80.458059 
L 237.294138 87.33278 
L 238.251089 92.361873 
L 239.261204 96.537355 
L 240.377647 100.200679 
L 241.653582 103.592433 
L 243.461156 107.683953 
L 245.162403 111.425615 
L 245.215567 112.157451 
L 245.268731 110.524348 
L 245.321895 114.491042 
L 245.375059 110.362527 
L 245.428223 112.729043 
L 245.481387 111.538604 
L 245.534551 112.039513 
L 245.587715 111.908453 
L 245.747206 111.896241 
L 245.906698 111.965482 
L 246.278846 112.038954 
L 247.182633 112.403206 
L 248.08642 113.00299 
L 249.043372 113.915804 
L 250.000323 115.157279 
L 250.90411 116.692276 
L 251.807897 118.661441 
L 252.711684 121.174429 
L 253.615472 124.377905 
L 254.519259 128.466969 
L 255.369882 133.355705 
L 256.220505 139.543216 
L 257.071129 147.404387 
L 257.921752 157.433286 
L 258.559719 167.145793 
L 258.612883 167.075194 
L 258.825539 172.583102 
L 258.878703 167.491672 
L 258.931867 183.841702 
L 258.985031 166.512371 
L 259.038195 177.169843 
L 259.091359 173.053668 
L 259.144523 173.305836 
L 259.197687 177.850972 
L 259.250851 170.275729 
L 259.304015 182.148151 
L 259.357179 169.515605 
L 259.463507 182.671691 
L 259.51667 170.352472 
L 259.569834 182.797692 
L 259.622998 173.330034 
L 259.676162 179.066685 
L 259.78249 174.256843 
L 259.835654 184.382473 
L 259.888818 165.767183 
L 259.941982 195.547438 
L 259.995146 170.534086 
L 260.04831 177.322912 
L 260.101474 176.324497 
L 260.260966 171.664643 
L 260.31413 172.176428 
L 260.420458 168.914805 
L 260.473622 171.828839 
L 260.526786 164.597974 
L 260.57995 173.420045 
L 260.633114 160.514326 
L 260.686277 171.482961 
L 260.739441 170.267744 
L 260.898933 154.701252 
L 260.952097 162.247626 
L 261.005261 155.576312 
L 261.058425 155.493586 
L 261.111589 156.243756 
L 261.271081 147.047797 
L 261.324245 146.868352 
L 261.377409 162.100473 
L 261.430573 129.534259 
L 261.483737 134.372988 
L 261.536901 159.289214 
L 261.590065 130.215193 
L 261.643229 147.821771 
L 261.696393 135.208783 
L 261.802721 136.039597 
L 261.855884 135.947594 
L 262.493852 121.731919 
L 265.311541 59.517748 
L 265.577361 49.468118 
L 265.630525 55.198343 
L 265.683689 45.372783 
L 265.736853 50.712163 
L 265.790017 51.008316 
L 265.843181 23.368522 
L 265.896345 63.170608 
L 265.949509 35.603357 
L 266.002673 52.440391 
L 266.055837 45.600259 
L 266.109001 44.858601 
L 266.162165 53.586426 
L 266.215329 37.647522 
L 266.268493 52.344274 
L 266.321657 48.028267 
L 266.374821 49.554954 
L 266.587476 52.693666 
L 266.693804 54.235322 
L 266.746968 54.966585 
L 266.800132 53.515454 
L 266.853296 60.900637 
L 266.90646 45.767272 
L 266.959624 77.439496 
L 267.012788 23.722673 
L 267.065952 95.705409 
L 267.119116 44.377781 
L 267.17228 61.897765 
L 267.225444 59.683761 
L 267.278608 55.182326 
L 267.331772 58.739899 
L 267.384936 58.669703 
L 267.4381 49.374906 
L 267.491264 71.530837 
L 267.544428 28.091792 
L 267.597591 70.180307 
L 267.650755 51.887871 
L 267.703919 59.474758 
L 267.757083 59.997358 
L 267.810247 59.169039 
L 267.969739 63.700136 
L 268.022903 63.705267 
L 268.341887 69.355597 
L 268.820362 77.576033 
L 268.873526 75.957467 
L 268.979854 75.721253 
L 269.033018 83.595598 
L 269.086182 77.540539 
L 269.139346 80.171148 
L 269.19251 95.808185 
L 269.245674 70.674262 
L 269.298838 85.727755 
L 269.405166 76.621576 
L 269.45833 82.46775 
L 269.511494 76.294914 
L 269.564658 73.450724 
L 269.617822 81.0416 
L 269.670986 72.458371 
L 269.72415 78.403727 
L 269.777314 73.61259 
L 269.830478 75.704768 
L 269.936805 73.449737 
L 269.989969 74.633081 
L 270.043133 70.498544 
L 270.096297 76.305828 
L 270.149461 66.229347 
L 270.255789 66.378121 
L 270.308953 76.686108 
L 270.362117 66.066936 
L 270.415281 63.438535 
L 270.468445 79.689457 
L 270.521609 66.611773 
L 270.574773 77.903178 
L 270.627937 71.966834 
L 270.787429 77.437296 
L 270.946921 79.714672 
L 274.243086 126.870528 
L 274.29625 122.78625 
L 274.349414 137.848895 
L 274.402578 107.140174 
L 274.455742 167.439024 
L 274.508906 107.575112 
L 274.562069 136.351312 
L 274.615233 122.507554 
L 274.668397 125.048689 
L 274.721561 124.369145 
L 274.881053 119.641998 
L 274.934217 119.585637 
L 275.200037 113.578734 
L 275.359529 110.082734 
L 275.412693 110.517424 
L 275.465857 105.820394 
L 275.519021 111.88312 
L 275.572185 97.944712 
L 275.625349 105.359722 
L 275.678512 108.43064 
L 275.731676 102.556655 
L 275.78484 112.236495 
L 275.838004 96.496182 
L 275.891168 123.002007 
L 275.944332 81.35219 
L 275.997496 133.966104 
L 276.05066 97.153027 
L 276.103824 108.846284 
L 276.210152 108.672 
L 276.263316 96.09096 
L 276.31648 108.049348 
L 276.369644 103.247346 
L 276.422808 104.441341 
L 276.475972 104.391687 
L 276.529136 104.463206 
L 276.5823 103.577001 
L 276.635464 105.220636 
L 276.688628 103.194218 
L 276.741792 103.896487 
L 276.794956 109.330441 
L 276.848119 100.088376 
L 276.954447 100.73336 
L 277.007611 101.3624 
L 277.273431 97.178105 
L 277.964563 87.012012 
L 278.124054 80.131974 
L 278.177218 87.116749 
L 278.230382 77.146582 
L 278.283546 82.601599 
L 278.33671 88.437433 
L 278.389874 56.179806 
L 278.443038 104.803443 
L 278.496202 43.949719 
L 278.549366 87.817213 
L 278.655694 73.781099 
L 278.708858 84.343604 
L 278.762022 76.690523 
L 278.815186 83.022419 
L 278.921514 82.526739 
L 278.974678 81.972726 
L 279.187333 84.383841 
L 281.101236 99.652931 
L 282.802482 111.526397 
L 282.855646 110.730689 
L 282.90881 113.066348 
L 282.961974 110.369481 
L 283.015138 114.920256 
L 283.068302 110.508855 
L 283.17463 118.632938 
L 283.227794 108.450719 
L 283.280958 116.329204 
L 283.334122 110.382857 
L 283.387286 113.693176 
L 283.44045 111.435099 
L 283.546778 111.515542 
L 283.653106 111.157437 
L 284.025253 109.216894 
L 284.078417 109.526922 
L 284.291073 107.49547 
L 284.344237 110.710491 
L 284.397401 101.244852 
L 284.450565 120.507603 
L 284.503729 84.403285 
L 284.556893 120.04816 
L 284.610057 103.827607 
L 284.663221 111.68741 
L 284.716385 110.920825 
L 284.769549 111.289711 
L 284.92904 115.113206 
L 284.982204 115.164764 
L 285.141696 119.921671 
L 285.19486 117.025125 
L 285.354352 124.934228 
L 285.407516 127.644575 
L 285.46068 118.132691 
L 285.513844 127.353088 
L 285.673336 119.941161 
L 285.7265 129.736976 
L 285.779664 117.629091 
L 285.832828 135.747921 
L 285.885992 95.601449 
L 285.939156 148.531944 
L 285.99232 115.048602 
L 286.098647 156.203435 
L 286.151811 116.080557 
L 286.204975 138.753338 
L 286.258139 124.302998 
L 286.311303 128.541553 
L 286.417631 123.24197 
L 286.523959 124.115867 
L 286.577123 112.576156 
L 286.630287 142.410377 
L 286.683451 77.722389 
L 286.736615 151.370955 
L 286.789779 101.31128 
L 286.842943 126.974749 
L 286.896107 115.349893 
L 286.949271 119.134778 
L 287.002435 118.042236 
L 287.055599 118.532365 
L 287.108763 116.226918 
L 287.161927 120.881811 
L 287.21509 112.512768 
L 287.268254 115.664211 
L 287.321418 118.814065 
L 287.374582 133.890529 
L 287.48091 102.903947 
L 287.534074 117.581894 
L 287.587238 118.273111 
L 287.640402 112.839638 
L 287.693566 119.367239 
L 287.74673 114.397338 
L 287.799894 118.243118 
L 287.853058 116.187472 
L 288.01255 117.765697 
L 288.225206 118.587621 
L 289.713796 126.261216 
L 290.404928 131.073837 
L 290.458092 130.947129 
L 290.670748 134.915469 
L 290.723911 128.353144 
L 290.777075 143.411012 
L 290.830239 117.037271 
L 290.883403 161.358076 
L 290.936567 122.260868 
L 290.989731 136.067416 
L 291.042895 131.8736 
L 291.202387 127.104175 
L 291.255551 128.331141 
L 291.415043 124.071281 
L 291.574535 121.538699 
L 291.787191 115.78425 
L 291.840354 119.998071 
L 291.893518 107.186241 
L 291.946682 129.052474 
L 291.999846 88.631973 
L 292.05301 131.467703 
L 292.106174 100.52065 
L 292.212502 101.667229 
L 292.31883 117.907721 
L 292.371994 107.867672 
L 292.531486 123.611687 
L 292.637814 123.851532 
L 292.690978 98.904951 
L 292.744142 122.704937 
L 292.797306 118.342127 
L 292.85047 117.987308 
L 292.956798 122.551656 
L 293.009961 117.553393 
L 293.063125 130.429752 
L 293.116289 113.031225 
L 293.169453 136.854509 
L 293.222617 114.899104 
L 293.275781 119.80121 
L 293.328945 154.709482 
L 293.382109 99.363776 
L 293.435273 172.696898 
L 293.488437 103.462918 
L 293.541601 148.720867 
L 293.594765 125.656979 
L 293.754257 137.353522 
L 293.807421 121.33342 
L 293.860585 160.16565 
L 293.913749 115.845325 
L 293.966913 145.820638 
L 294.126405 121.850856 
L 294.179568 119.142074 
L 294.232732 143.090403 
L 294.285896 130.40375 
L 294.392224 145.40627 
L 294.445388 126.128307 
L 294.498552 164.146587 
L 294.551716 134.885936 
L 294.60488 149.276219 
L 294.658044 145.324126 
L 294.8707 150.264571 
L 294.977028 152.775756 
L 295.030192 149.184502 
L 295.083356 167.432386 
L 295.13652 125.375791 
L 295.189684 214.756364 
L 295.242848 112.217617 
L 295.296012 179.725496 
L 295.349175 143.197075 
L 295.402339 157.367612 
L 295.561831 147.953632 
L 295.880815 136.473848 
L 295.933979 141.375396 
L 296.040307 115.556999 
L 296.093471 163.981983 
L 296.146635 132.283264 
L 296.306127 149.074659 
L 296.359291 130.230678 
L 296.412455 173.320821 
L 296.465618 140.594868 
L 296.571946 149.768862 
L 296.62511 140.409621 
L 296.731438 141.118588 
L 296.784602 144.099669 
L 296.837766 141.322692 
L 296.89093 141.792153 
L 297.15675 138.335763 
L 298.007373 129.465556 
L 299.230144 118.84494 
L 300.027603 112.142356 
L 300.080767 113.17005 
L 300.240259 110.402746 
L 300.293423 110.602827 
L 300.346587 113.671807 
L 300.399751 100.892505 
L 300.452915 117.123504 
L 300.506079 106.804877 
L 300.559243 113.407475 
L 300.612407 110.249396 
L 300.771899 112.301158 
L 300.878227 112.791281 
L 300.931391 113.149288 
L 300.984555 112.827618 
L 301.037719 114.946483 
L 301.090882 110.897918 
L 301.144046 119.925123 
L 301.19721 104.453273 
L 301.250374 130.343924 
L 301.303538 93.430018 
L 301.356702 140.204717 
L 301.409866 120.374552 
L 301.46303 90.021922 
L 301.516194 143.006518 
L 301.569358 71.225148 
L 301.622522 123.21845 
L 301.675686 93.383995 
L 301.72885 103.51616 
L 301.941506 91.369558 
L 301.99467 90.533961 
L 302.313653 75.727617 
L 302.366817 78.265411 
L 302.419981 70.064511 
L 302.473145 70.440108 
L 302.526309 72.313749 
L 302.685801 65.173077 
L 302.738965 62.211373 
L 302.792129 67.683743 
L 302.845293 49.110708 
L 302.898457 80.368368 
L 302.951621 22.815599 
L 303.004785 102.012891 
L 303.057949 22.978574 
L 303.111113 66.881789 
L 303.164277 48.243768 
L 303.217441 48.637823 
L 303.270605 52.069517 
L 303.376933 52.592241 
L 303.48326 24.245523 
L 303.536424 67.30148 
L 303.589588 42.739659 
L 303.642752 39.289716 
L 303.695916 53.515916 
L 303.74908 48.501528 
L 303.802244 28.12066 
L 303.961736 85.930456 
L 304.0149 51.529987 
L 304.068064 57.700052 
L 304.121228 66.265862 
L 304.174392 45.678401 
L 304.227556 75.884264 
L 304.28072 41.582976 
L 304.333884 63.094135 
L 304.387048 71.693587 
L 304.440212 53.804854 
L 304.493376 70.19881 
L 304.546539 59.282311 
L 304.599703 68.458923 
L 304.652867 66.377958 
L 304.706031 58.601594 
L 304.759195 76.099614 
L 304.865523 75.439312 
L 304.918687 72.39591 
L 305.131343 80.680353 
L 307.257901 147.039404 
L 307.311065 143.198148 
L 307.470557 157.711567 
L 307.576885 143.359264 
L 307.630049 185.585489 
L 307.683213 134.300433 
L 307.736377 172.736683 
L 307.789541 148.060179 
L 307.842705 163.000212 
L 307.895869 155.427301 
L 307.949033 159.535455 
L 308.002196 158.138747 
L 308.05536 159.076527 
L 308.108524 159.555757 
L 308.161688 158.493264 
L 308.214852 162.808772 
L 308.268016 154.26056 
L 308.32118 172.044042 
L 308.374344 141.997488 
L 308.427508 190.222606 
L 308.480672 149.468121 
L 308.533836 161.779598 
L 308.587 158.841751 
L 308.746492 152.720487 
L 308.799656 154.978783 
L 308.85282 147.024753 
L 308.905984 160.478681 
L 308.959148 129.416645 
L 309.012312 173.759365 
L 309.065476 131.951361 
L 309.11864 154.108803 
L 309.171803 142.90237 
L 309.278131 145.371896 
L 309.437623 139.668001 
L 309.490787 136.669777 
L 309.543951 151.237344 
L 309.597115 115.006031 
L 309.650279 154.076016 
L 309.703443 128.399251 
L 309.756607 143.824933 
L 309.809771 135.661012 
L 309.862935 139.990162 
L 310.022427 137.408971 
L 310.075591 141.252148 
L 310.128755 137.124478 
L 310.235083 143.343988 
L 310.288247 125.797632 
L 310.34141 173.791053 
L 310.394574 116.881792 
L 310.447738 145.058833 
L 310.500902 129.863717 
L 310.554066 137.755091 
L 310.713558 129.881831 
L 310.766722 132.314978 
L 310.819886 126.169101 
L 310.87305 143.494453 
L 311.032542 88.785958 
L 311.085706 168.022912 
L 311.13887 101.478836 
L 311.192034 131.363893 
L 311.245198 117.464572 
L 311.298362 122.128114 
L 311.351526 115.857592 
L 311.40469 123.036993 
L 311.457854 110.225715 
L 311.511017 121.22752 
L 311.617345 106.011049 
L 311.670509 123.390211 
L 311.723673 85.224369 
L 311.776837 136.788495 
L 311.830001 77.250855 
L 311.883165 134.749389 
L 311.936329 101.920579 
L 311.989493 122.851975 
L 312.042657 113.753655 
L 312.095821 121.827678 
L 312.148985 117.844292 
L 312.361641 134.1587 
L 312.414805 104.99622 
L 312.467969 184.429862 
L 312.521133 91.674761 
L 312.574297 149.202716 
L 312.62746 114.272771 
L 312.680624 130.883169 
L 312.733788 121.560082 
L 312.840116 121.792028 
L 312.89328 120.258056 
L 312.946444 122.122015 
L 312.999608 113.004331 
L 313.052772 122.307699 
L 313.105936 115.120562 
L 313.212264 115.64874 
L 313.265428 115.900719 
L 313.637576 111.170943 
L 316.242609 77.799922 
L 316.295773 78.092682 
L 316.348937 74.22684 
L 316.455265 74.308046 
L 316.508429 74.967995 
L 316.667921 70.265321 
L 316.721085 75.76312 
L 316.774249 63.893468 
L 316.827413 81.335506 
L 316.880577 54.087353 
L 316.933741 70.846311 
L 316.986905 80.608539 
L 317.040069 61.298421 
L 317.093233 74.57549 
L 317.146397 65.349032 
L 317.199561 70.09076 
L 317.252724 66.941837 
L 317.359052 67.033663 
L 317.46538 67.108483 
L 317.518544 63.559332 
L 317.571708 68.396734 
L 317.624872 59.540278 
L 317.678036 70.780921 
L 317.7312 61.923517 
L 317.784364 61.232373 
L 317.837528 62.768871 
L 317.99702 57.459031 
L 318.050184 55.714417 
L 318.103348 31.804863 
L 318.156512 71.262508 
L 318.209676 42.226325 
L 318.316004 68.625305 
L 318.369168 63.595067 
L 318.422331 51.38571 
L 318.475495 87.350417 
L 318.528659 37.128261 
L 318.581823 79.382106 
L 318.634987 56.377511 
L 318.688151 77.54793 
L 318.741315 67.413552 
L 318.794479 76.034914 
L 318.847643 74.990316 
L 318.953971 81.439779 
L 319.007135 77.543219 
L 319.060299 89.760743 
L 319.113463 75.298773 
L 319.166627 100.172815 
L 319.219791 85.437186 
L 319.432447 93.293378 
L 319.485611 91.31091 
L 319.645102 95.12505 
L 319.910922 98.709961 
L 320.070414 102.671896 
L 320.123578 101.167987 
L 320.229906 105.936843 
L 320.28307 97.364574 
L 320.336234 121.64117 
L 320.442562 120.385309 
L 320.495726 91.872079 
L 320.54889 109.059846 
L 320.602054 96.285472 
L 320.655218 100.030541 
L 320.708381 98.35813 
L 320.761545 91.712383 
L 320.814709 101.890948 
L 320.867873 79.964553 
L 320.921037 109.454629 
L 320.974201 66.72013 
L 321.027365 90.7178 
L 321.080529 94.959621 
L 321.133693 84.087062 
L 321.186857 96.322265 
L 321.240021 87.61012 
L 321.293185 94.428916 
L 321.346349 91.090244 
L 321.505841 94.133844 
L 321.824825 96.96312 
L 323.260251 109.430901 
L 324.270366 118.539603 
L 324.32353 117.814316 
L 324.376694 120.953559 
L 324.429858 116.34945 
L 324.483022 125.555969 
L 324.536186 112.600264 
L 324.58935 131.386565 
L 324.642514 119.472538 
L 324.695678 119.745547 
L 324.748842 121.492033 
L 324.908334 114.758121 
L 324.961498 129.607563 
L 325.014662 94.877935 
L 325.067826 134.461857 
L 325.12099 111.775843 
L 325.174154 125.724761 
L 325.227318 120.635935 
L 325.333645 127.645039 
L 325.386809 122.056632 
L 325.439973 127.236373 
L 325.493137 125.083477 
L 325.546301 127.408854 
L 325.599465 127.301339 
L 325.865285 131.715862 
L 325.918449 130.717633 
L 326.077941 134.61193 
L 326.131105 134.774504 
L 326.290597 139.142819 
L 326.343761 136.557489 
L 326.396925 141.329486 
L 326.450089 139.397305 
L 326.503252 138.200868 
L 326.556416 153.351126 
L 326.60958 115.060311 
L 326.662744 201.153346 
L 326.715908 97.400887 
L 326.769072 151.550922 
L 326.8754 136.197898 
L 326.928564 146.829815 
L 326.981728 136.888586 
L 327.034892 145.184054 
L 327.088056 140.579915 
L 327.14122 141.483734 
L 327.194384 147.21311 
L 327.247548 131.996901 
L 327.300712 165.852691 
L 327.353876 129.581641 
L 327.40704 148.506977 
L 327.460204 138.173992 
L 327.513368 140.985607 
L 327.566532 139.848204 
L 327.726023 135.442061 
L 327.779187 138.439024 
L 327.832351 134.083523 
L 327.885515 134.978172 
L 327.938679 139.96992 
L 327.991843 127.521614 
L 328.098171 128.187958 
L 328.151335 130.436358 
L 328.363991 124.363274 
L 328.417155 123.707579 
L 328.576647 116.393797 
L 328.629811 124.18879 
L 328.682975 109.480713 
L 328.736139 115.36795 
L 328.789302 119.059625 
L 328.948794 114.280698 
L 329.001958 117.974741 
L 329.055122 113.762367 
L 329.108286 117.280861 
L 329.16145 120.836543 
L 329.214614 104.468056 
L 329.267778 131.334733 
L 329.320942 101.047941 
L 329.374106 115.663312 
L 329.533598 105.103415 
L 329.639926 100.058587 
L 329.69309 104.631659 
L 329.746254 88.091721 
L 329.799418 115.566999 
L 329.852582 63.481149 
L 329.905746 109.543732 
L 329.958909 89.128322 
L 330.012073 95.583073 
L 330.065237 95.580924 
L 330.118401 93.192721 
L 330.171565 95.838787 
L 330.224729 93.616163 
L 330.277893 95.109163 
L 330.331057 94.11513 
L 330.384221 94.615137 
L 330.437385 94.290577 
L 330.490549 94.36974 
L 330.543713 94.269335 
L 330.915861 93.827555 
L 331.4475 92.902155 
L 332.085468 91.329584 
L 332.723435 89.222644 
L 332.989255 87.703673 
L 333.042419 88.471045 
L 333.095583 87.090071 
L 333.148747 87.717117 
L 333.201911 87.938859 
L 333.255075 83.842905 
L 333.308239 94.402547 
L 333.361403 70.887975 
L 333.414566 95.915434 
L 333.46773 83.608304 
L 333.520894 89.217487 
L 333.574058 89.429388 
L 333.627222 88.367893 
L 333.680386 89.43592 
L 333.73355 95.071718 
L 333.786714 77.662858 
L 333.839878 120.254281 
L 333.946206 121.268072 
L 333.99937 41.30531 
L 334.052534 113.59182 
L 334.105698 79.031648 
L 334.158862 94.381172 
L 334.212026 91.521969 
L 334.26519 91.588772 
L 334.318354 94.272523 
L 334.371518 94.232099 
L 334.424682 93.807736 
L 334.477846 99.206766 
L 334.53101 91.15259 
L 334.584173 106.052085 
L 334.637337 95.491186 
L 334.743665 99.496467 
L 334.796829 97.881841 
L 334.956321 100.025621 
L 335.009485 99.849871 
L 335.062649 100.03028 
L 335.115813 100.980832 
L 335.168977 99.685894 
L 335.222141 102.668352 
L 335.275305 98.691441 
L 335.328469 104.671142 
L 335.381633 98.552327 
L 335.487961 109.856463 
L 335.541125 94.105917 
L 335.594289 105.961991 
L 335.75378 95.228564 
L 335.806944 101.774552 
L 335.860108 93.06968 
L 335.913272 100.054014 
L 335.966436 96.430003 
L 336.0196 81.972394 
L 336.072764 107.624839 
L 336.125928 89.299416 
L 336.179092 102.456521 
L 336.232256 95.77093 
L 336.28542 100.024371 
L 336.391748 99.695899 
L 336.55124 102.8325 
L 336.604404 103.134242 
L 336.657568 99.669267 
L 336.710732 114.822541 
L 336.763896 96.01165 
L 336.81706 97.352926 
L 336.870223 111.551424 
L 336.923387 101.845341 
L 336.976551 109.607883 
L 337.029715 108.802472 
L 337.082879 107.907156 
L 337.136043 113.79579 
L 337.189207 110.513866 
L 337.242371 110.013432 
L 337.295535 131.816184 
L 337.348699 100.494101 
L 337.401863 122.436065 
L 337.455027 108.041745 
L 337.508191 116.131218 
L 337.561355 111.17987 
L 337.667683 111.314381 
L 337.720847 113.414295 
L 337.774011 110.908643 
L 337.827175 111.735332 
L 337.880339 114.591395 
L 337.933503 101.466313 
L 337.986667 133.596413 
L 338.03983 67.139261 
L 338.092994 131.947677 
L 338.146158 134.635812 
L 338.199322 104.000899 
L 338.252486 120.495963 
L 338.30565 111.926939 
L 338.358814 114.797496 
L 338.57147 112.321268 
L 338.624634 112.424315 
L 338.890454 110.449177 
L 341.070176 95.603785 
L 341.229668 93.677918 
L 341.282832 94.878138 
L 341.442324 91.512792 
L 341.495487 91.470702 
L 341.548651 97.404935 
L 341.601815 77.954986 
L 341.654979 100.844924 
L 341.708143 86.158075 
L 341.761307 95.195629 
L 341.814471 90.737922 
L 341.867635 93.016319 
L 341.920799 92.800886 
L 341.973963 92.134142 
L 342.027127 94.681329 
L 342.080291 90.393028 
L 342.133455 98.177524 
L 342.186619 86.725901 
L 342.239783 96.667196 
L 342.292947 94.381218 
L 342.346111 94.907311 
L 342.505603 97.753532 
L 342.558767 97.290549 
L 342.771422 101.358784 
L 342.824586 97.633575 
L 342.87775 107.438546 
L 342.930914 90.934956 
L 342.984078 108.840088 
L 343.037242 101.209494 
L 343.090406 106.540697 
L 343.14357 105.82994 
L 343.249898 109.83914 
L 343.303062 106.118032 
L 343.356226 119.158752 
L 343.40939 95.668096 
L 343.462554 141.847402 
L 343.515718 98.907599 
L 343.568882 116.36708 
L 343.622046 114.755663 
L 343.67521 104.159361 
L 343.728374 115.386334 
L 343.781538 110.121065 
L 343.834701 112.356786 
L 343.941029 111.73414 
L 343.994193 112.766265 
L 344.047357 111.255114 
L 344.100521 114.19704 
L 344.153685 109.439756 
L 344.206849 114.421155 
L 344.260013 112.222697 
L 344.313177 113.702064 
L 344.366341 113.339211 
L 344.525833 114.679634 
L 344.578997 114.734308 
L 344.632161 114.02557 
L 344.685325 118.167728 
L 344.738489 108.963854 
L 344.791653 128.423821 
L 344.844817 108.273733 
L 344.897981 118.667132 
L 344.951144 113.252228 
L 345.004308 114.766011 
L 345.057472 114.120931 
L 345.270128 112.45554 
L 345.323292 112.840406 
L 345.376456 110.877291 
L 345.42962 113.401031 
L 345.482784 108.644636 
L 345.535948 114.214969 
L 345.589112 107.482726 
L 345.642276 108.116811 
L 345.69544 113.664517 
L 345.748604 108.446685 
L 345.801768 112.950438 
L 345.854932 110.173142 
L 345.908096 112.261395 
L 345.96126 111.430502 
L 346.067588 112.615296 
L 346.120751 110.769042 
L 346.227079 116.886962 
L 346.280243 110.284952 
L 346.333407 114.806288 
L 346.386571 111.958742 
L 346.439735 113.494024 
L 346.492899 112.698731 
L 346.546063 112.981675 
L 346.758719 112.785298 
L 346.918211 112.749931 
L 347.44985 112.604841 
L 348.24731 112.585891 
L 349.044769 112.781865 
L 349.204261 112.970605 
L 349.257425 112.711623 
L 349.310589 113.180519 
L 349.363753 112.596659 
L 349.416917 113.330336 
L 349.470081 112.827058 
L 349.523245 112.593211 
L 349.576408 114.91382 
L 349.629572 108.462291 
L 349.682736 116.559849 
L 349.7359 111.925593 
L 349.789064 115.082953 
L 349.895392 114.88318 
L 349.948556 115.080177 
L 350.00172 115.046586 
L 350.054884 116.375765 
L 350.108048 114.599095 
L 350.161212 118.768726 
L 350.214376 112.718195 
L 350.26754 118.932644 
L 350.320704 117.093575 
L 350.373868 118.281164 
L 350.692852 121.970408 
L 350.746015 121.474207 
L 350.905507 124.696685 
L 350.958671 124.856647 
L 351.011835 121.419909 
L 351.064999 135.674797 
L 351.118163 114.858926 
L 351.171327 144.75765 
L 351.224491 112.262369 
L 351.277655 130.919488 
L 351.330819 119.330919 
L 351.383983 122.753377 
L 351.437147 122.436488 
L 351.490311 115.948162 
L 351.543475 126.979179 
L 351.596639 105.368059 
L 351.649803 136.464583 
L 351.702967 113.6465 
L 351.756131 102.753814 
L 351.809295 128.383445 
L 351.862459 88.658208 
L 351.915622 101.554273 
L 351.968786 118.193537 
L 352.02195 98.085651 
L 352.075114 114.998516 
L 352.128278 104.415035 
L 352.181442 109.706817 
L 352.340934 108.004715 
L 352.394098 109.436064 
L 352.447262 108.231734 
L 352.500426 109.08654 
L 352.55359 108.513855 
L 352.606754 108.841697 
L 352.659918 108.651366 
L 352.713082 108.72935 
L 352.766246 108.688511 
L 354.148509 108.514564 
L 357.338346 108.274297 
L 361.644626 108.183061 
L 366.216726 108.301303 
L 369.672383 108.599121 
L 372.277417 109.037208 
L 374.403975 109.612383 
L 375.254598 110.003258 
L 375.307762 109.650148 
L 375.360926 110.610176 
L 375.41409 108.684608 
L 375.467254 112.258184 
L 375.520418 106.451804 
L 375.573582 115.025006 
L 375.626746 104.181377 
L 375.67991 105.82159 
L 375.733074 124.557159 
L 375.786238 82.440153 
L 375.839402 130.838415 
L 375.892566 105.718543 
L 375.998894 121.907897 
L 376.052058 97.03715 
L 376.105222 120.213013 
L 376.158385 119.972869 
L 376.211549 98.56612 
L 376.264713 125.897177 
L 376.317877 103.039015 
L 376.371041 115.366414 
L 376.424205 112.651283 
L 376.477369 103.034105 
L 376.530533 125.151469 
L 376.583697 86.847686 
L 376.636861 124.663595 
L 376.690025 93.382569 
L 376.743189 114.038983 
L 376.796353 155.497854 
L 376.849517 93.601616 
L 376.902681 108.296953 
L 377.009009 132.515195 
L 377.062173 129.851784 
L 377.115337 107.71443 
L 377.168501 140.197038 
L 377.274828 91.788071 
L 377.327992 136.36839 
L 377.381156 120.172103 
L 377.43432 115.65528 
L 377.487484 148.816784 
L 377.540648 122.884402 
L 377.70014 148.727746 
L 377.753304 110.097235 
L 377.806468 168.020422 
L 377.912796 167.602899 
L 377.96596 124.171332 
L 378.019124 148.508203 
L 378.072288 167.934655 
L 378.125452 151.146852 
L 378.178616 163.049516 
L 378.23178 131.497413 
L 378.284944 168.385374 
L 378.338108 149.661426 
L 378.391272 146.144959 
L 378.444435 155.168681 
L 378.497599 137.168356 
L 378.497599 137.168356 
" style="fill:none;stroke:#de8f05;stroke-linecap:round;stroke-width:1.5;"/>
   </g>
   <g id="patch_3">
    <path d="M 58.915781 224.64 
L 58.915781 7.2 
" style="fill:none;stroke:#262626;stroke-linecap:square;stroke-linejoin:miter;stroke-width:1.25;"/>
   </g>
   <g id="patch_4">
    <path d="M 393.715781 224.64 
L 393.715781 7.2 
" style="fill:none;stroke:#262626;stroke-linecap:square;stroke-linejoin:miter;stroke-width:1.25;"/>
   </g>
   <g id="patch_5">
    <path d="M 58.915781 224.64 
L 393.715781 224.64 
" style="fill:none;stroke:#262626;stroke-linecap:square;stroke-linejoin:miter;stroke-width:1.25;"/>
   </g>
   <g id="patch_6">
    <path d="M 58.915781 7.2 
L 393.715781 7.2 
" style="fill:none;stroke:#262626;stroke-linecap:square;stroke-linejoin:miter;stroke-width:1.25;"/>
   </g>
   <g id="legend_1">
    <g id="patch_7">
     <path d="M 66.615781 219.14 
L 182.320312 219.14 
Q 184.520312 219.14 184.520312 216.94 
L 184.520312 186.920312 
Q 184.520312 184.720312 182.320312 184.720312 
L 66.615781 184.720312 
Q 64.415781 184.720312 64.415781 186.920312 
L 64.415781 216.94 
Q 64.415781 219.14 66.615781 219.14 
z
" style="fill:#ffffff;opacity:0.8;stroke:#cccccc;stroke-linejoin:miter;"/>
    </g>
    <g id="line2d_15">
     <path d="M 68.815781 193.143906 
L 90.815781 193.143906 
" style="fill:none;stroke:#0173b2;stroke-linecap:round;stroke-width:1.5;"/>
    </g>
    <g id="line2d_16"/>
    <g id="text_15">
     <!-- Keplerian -->
     <g style="fill:#262626;" transform="translate(99.615781 196.993906)scale(0.11 -0.11)">
      <defs>
       <path d="M 469 0 
L 469 4581 
L 1075 4581 
L 1075 2309 
L 3350 4581 
L 4172 4581 
L 2250 2725 
L 4256 0 
L 3456 0 
L 1825 2319 
L 1075 1588 
L 1075 0 
L 469 0 
z
" id="ArialMT-4b" transform="scale(0.015625)"/>
       <path d="M 2694 1069 
L 3275 997 
Q 3138 488 2766 206 
Q 2394 -75 1816 -75 
Q 1088 -75 661 373 
Q 234 822 234 1631 
Q 234 2469 665 2931 
Q 1097 3394 1784 3394 
Q 2450 3394 2872 2941 
Q 3294 2488 3294 1666 
Q 3294 1616 3291 1516 
L 816 1516 
Q 847 969 1125 678 
Q 1403 388 1819 388 
Q 2128 388 2347 550 
Q 2566 713 2694 1069 
z
M 847 1978 
L 2700 1978 
Q 2663 2397 2488 2606 
Q 2219 2931 1791 2931 
Q 1403 2931 1139 2672 
Q 875 2413 847 1978 
z
" id="ArialMT-65" transform="scale(0.015625)"/>
       <path d="M 422 -1272 
L 422 3319 
L 934 3319 
L 934 2888 
Q 1116 3141 1344 3267 
Q 1572 3394 1897 3394 
Q 2322 3394 2647 3175 
Q 2972 2956 3137 2557 
Q 3303 2159 3303 1684 
Q 3303 1175 3120 767 
Q 2938 359 2589 142 
Q 2241 -75 1856 -75 
Q 1575 -75 1351 44 
Q 1128 163 984 344 
L 984 -1272 
L 422 -1272 
z
M 931 1641 
Q 931 1000 1190 694 
Q 1450 388 1819 388 
Q 2194 388 2461 705 
Q 2728 1022 2728 1688 
Q 2728 2322 2467 2637 
Q 2206 2953 1844 2953 
Q 1484 2953 1207 2617 
Q 931 2281 931 1641 
z
" id="ArialMT-70" transform="scale(0.015625)"/>
       <path d="M 409 0 
L 409 4581 
L 972 4581 
L 972 0 
L 409 0 
z
" id="ArialMT-6c" transform="scale(0.015625)"/>
       <path d="M 416 0 
L 416 3319 
L 922 3319 
L 922 2816 
Q 1116 3169 1280 3281 
Q 1444 3394 1641 3394 
Q 1925 3394 2219 3213 
L 2025 2691 
Q 1819 2813 1613 2813 
Q 1428 2813 1281 2702 
Q 1134 2591 1072 2394 
Q 978 2094 978 1738 
L 978 0 
L 416 0 
z
" id="ArialMT-72" transform="scale(0.015625)"/>
       <path d="M 425 3934 
L 425 4581 
L 988 4581 
L 988 3934 
L 425 3934 
z
M 425 0 
L 425 3319 
L 988 3319 
L 988 0 
L 425 0 
z
" id="ArialMT-69" transform="scale(0.015625)"/>
       <path d="M 2588 409 
Q 2275 144 1986 34 
Q 1697 -75 1366 -75 
Q 819 -75 525 192 
Q 231 459 231 875 
Q 231 1119 342 1320 
Q 453 1522 633 1644 
Q 813 1766 1038 1828 
Q 1203 1872 1538 1913 
Q 2219 1994 2541 2106 
Q 2544 2222 2544 2253 
Q 2544 2597 2384 2738 
Q 2169 2928 1744 2928 
Q 1347 2928 1158 2789 
Q 969 2650 878 2297 
L 328 2372 
Q 403 2725 575 2942 
Q 747 3159 1072 3276 
Q 1397 3394 1825 3394 
Q 2250 3394 2515 3294 
Q 2781 3194 2906 3042 
Q 3031 2891 3081 2659 
Q 3109 2516 3109 2141 
L 3109 1391 
Q 3109 606 3145 398 
Q 3181 191 3288 0 
L 2700 0 
Q 2613 175 2588 409 
z
M 2541 1666 
Q 2234 1541 1622 1453 
Q 1275 1403 1131 1340 
Q 988 1278 909 1158 
Q 831 1038 831 891 
Q 831 666 1001 516 
Q 1172 366 1500 366 
Q 1825 366 2078 508 
Q 2331 650 2450 897 
Q 2541 1088 2541 1459 
L 2541 1666 
z
" id="ArialMT-61" transform="scale(0.015625)"/>
       <path d="M 422 0 
L 422 3319 
L 928 3319 
L 928 2847 
Q 1294 3394 1984 3394 
Q 2284 3394 2536 3286 
Q 2788 3178 2913 3003 
Q 3038 2828 3088 2588 
Q 3119 2431 3119 2041 
L 3119 0 
L 2556 0 
L 2556 2019 
Q 2556 2363 2490 2533 
Q 2425 2703 2258 2804 
Q 2091 2906 1866 2906 
Q 1506 2906 1245 2678 
Q 984 2450 984 1813 
L 984 0 
L 422 0 
z
" id="ArialMT-6e" transform="scale(0.015625)"/>
      </defs>
      <use xlink:href="#ArialMT-4b"/>
      <use x="66.699219" xlink:href="#ArialMT-65"/>
      <use x="122.314453" xlink:href="#ArialMT-70"/>
      <use x="177.929688" xlink:href="#ArialMT-6c"/>
      <use x="200.146484" xlink:href="#ArialMT-65"/>
      <use x="255.761719" xlink:href="#ArialMT-72"/>
      <use x="289.0625" xlink:href="#ArialMT-69"/>
      <use x="311.279297" xlink:href="#ArialMT-61"/>
      <use x="366.894531" xlink:href="#ArialMT-6e"/>
     </g>
    </g>
    <g id="line2d_17">
     <path d="M 68.815781 208.70375 
L 90.815781 208.70375 
" style="fill:none;stroke:#de8f05;stroke-linecap:round;stroke-width:1.5;"/>
    </g>
    <g id="line2d_18"/>
    <g id="text_16">
     <!-- Stellar GP Mean -->
     <g style="fill:#262626;" transform="translate(99.615781 212.55375)scale(0.11 -0.11)">
      <defs>
       <path d="M 288 1472 
L 859 1522 
Q 900 1178 1048 958 
Q 1197 738 1509 602 
Q 1822 466 2213 466 
Q 2559 466 2825 569 
Q 3091 672 3220 851 
Q 3350 1031 3350 1244 
Q 3350 1459 3225 1620 
Q 3100 1781 2813 1891 
Q 2628 1963 1997 2114 
Q 1366 2266 1113 2400 
Q 784 2572 623 2826 
Q 463 3081 463 3397 
Q 463 3744 659 4045 
Q 856 4347 1234 4503 
Q 1613 4659 2075 4659 
Q 2584 4659 2973 4495 
Q 3363 4331 3572 4012 
Q 3781 3694 3797 3291 
L 3216 3247 
Q 3169 3681 2898 3903 
Q 2628 4125 2100 4125 
Q 1550 4125 1298 3923 
Q 1047 3722 1047 3438 
Q 1047 3191 1225 3031 
Q 1400 2872 2139 2705 
Q 2878 2538 3153 2413 
Q 3553 2228 3743 1945 
Q 3934 1663 3934 1294 
Q 3934 928 3725 604 
Q 3516 281 3123 101 
Q 2731 -78 2241 -78 
Q 1619 -78 1198 103 
Q 778 284 539 648 
Q 300 1013 288 1472 
z
" id="ArialMT-53" transform="scale(0.015625)"/>
       <path d="M 1650 503 
L 1731 6 
Q 1494 -44 1306 -44 
Q 1000 -44 831 53 
Q 663 150 594 308 
Q 525 466 525 972 
L 525 2881 
L 113 2881 
L 113 3319 
L 525 3319 
L 525 4141 
L 1084 4478 
L 1084 3319 
L 1650 3319 
L 1650 2881 
L 1084 2881 
L 1084 941 
Q 1084 700 1114 631 
Q 1144 563 1211 522 
Q 1278 481 1403 481 
Q 1497 481 1650 503 
z
" id="ArialMT-74" transform="scale(0.015625)"/>
       <path d="M 2638 1797 
L 2638 2334 
L 4578 2338 
L 4578 638 
Q 4131 281 3656 101 
Q 3181 -78 2681 -78 
Q 2006 -78 1454 211 
Q 903 500 622 1047 
Q 341 1594 341 2269 
Q 341 2938 620 3517 
Q 900 4097 1425 4378 
Q 1950 4659 2634 4659 
Q 3131 4659 3532 4498 
Q 3934 4338 4162 4050 
Q 4391 3763 4509 3300 
L 3963 3150 
Q 3859 3500 3706 3700 
Q 3553 3900 3268 4020 
Q 2984 4141 2638 4141 
Q 2222 4141 1919 4014 
Q 1616 3888 1430 3681 
Q 1244 3475 1141 3228 
Q 966 2803 966 2306 
Q 966 1694 1177 1281 
Q 1388 869 1791 669 
Q 2194 469 2647 469 
Q 3041 469 3416 620 
Q 3791 772 3984 944 
L 3984 1797 
L 2638 1797 
z
" id="ArialMT-47" transform="scale(0.015625)"/>
       <path d="M 494 0 
L 494 4581 
L 2222 4581 
Q 2678 4581 2919 4538 
Q 3256 4481 3484 4323 
Q 3713 4166 3852 3881 
Q 3991 3597 3991 3256 
Q 3991 2672 3619 2267 
Q 3247 1863 2275 1863 
L 1100 1863 
L 1100 0 
L 494 0 
z
M 1100 2403 
L 2284 2403 
Q 2872 2403 3119 2622 
Q 3366 2841 3366 3238 
Q 3366 3525 3220 3729 
Q 3075 3934 2838 4000 
Q 2684 4041 2272 4041 
L 1100 4041 
L 1100 2403 
z
" id="ArialMT-50" transform="scale(0.015625)"/>
       <path d="M 475 0 
L 475 4581 
L 1388 4581 
L 2472 1338 
Q 2622 884 2691 659 
Q 2769 909 2934 1394 
L 4031 4581 
L 4847 4581 
L 4847 0 
L 4263 0 
L 4263 3834 
L 2931 0 
L 2384 0 
L 1059 3900 
L 1059 0 
L 475 0 
z
" id="ArialMT-4d" transform="scale(0.015625)"/>
      </defs>
      <use xlink:href="#ArialMT-53"/>
      <use x="66.699219" xlink:href="#ArialMT-74"/>
      <use x="94.482422" xlink:href="#ArialMT-65"/>
      <use x="150.097656" xlink:href="#ArialMT-6c"/>
      <use x="172.314453" xlink:href="#ArialMT-6c"/>
      <use x="194.53125" xlink:href="#ArialMT-61"/>
      <use x="250.146484" xlink:href="#ArialMT-72"/>
      <use x="283.447266" xlink:href="#ArialMT-20"/>
      <use x="311.230469" xlink:href="#ArialMT-47"/>
      <use x="389.013672" xlink:href="#ArialMT-50"/>
      <use x="453.962891" xlink:href="#ArialMT-20"/>
      <use x="481.746094" xlink:href="#ArialMT-4d"/>
      <use x="565.046875" xlink:href="#ArialMT-65"/>
      <use x="620.662109" xlink:href="#ArialMT-61"/>
      <use x="676.277344" xlink:href="#ArialMT-6e"/>
     </g>
    </g>
   </g>
  </g>
 </g>
 <defs>
  <clipPath id="p07aedb4398">
   <rect height="217.44" width="334.8" x="58.915781" y="7.2"/>
  </clipPath>
 </defs>
</svg>
