<?xml version="1.0" encoding="utf-8" standalone="no"?>
<!DOCTYPE svg PUBLIC "-//W3C//DTD SVG 1.1//EN"
  "http://www.w3.org/Graphics/SVG/1.1/DTD/svg11.dtd">
<svg height="266.799844pt" version="1.1" viewBox="0 0 386.216094 266.799844" width="386.216094pt" xmlns="http://www.w3.org/2000/svg" xmlns:xlink="http://www.w3.org/1999/xlink">
 <metadata>
  <rdf:RDF xmlns:cc="http://creativecommons.org/ns#" xmlns:dc="http://purl.org/dc/elements/1.1/" xmlns:rdf="http://www.w3.org/1999/02/22-rdf-syntax-ns#">
   <cc:Work>
    <dc:type rdf:resource="http://purl.org/dc/dcmitype/StillImage"/>
    <dc:date>2021-10-21T13:07:47.457162</dc:date>
    <dc:format>image/svg+xml</dc:format>
    <dc:creator>
     <cc:Agent>
      <dc:title>Matplotlib v3.4.3, https://matplotlib.org/</dc:title>
     </cc:Agent>
    </dc:creator>
   </cc:Work>
  </rdf:RDF>
 </metadata>
 <defs>
  <style type="text/css">*{stroke-linecap:butt;stroke-linejoin:round;}</style>
 </defs>
 <g id="figure_1">
  <g id="patch_1">
   <path d="M 0 266.799844 
L 386.216094 266.799844 
L 386.216094 0 
L 0 0 
z
" style="fill:#ffffff;"/>
  </g>
  <g id="axes_1">
   <g id="patch_2">
    <path d="M 44.216094 224.64 
L 379.016094 224.64 
L 379.016094 7.2 
L 44.216094 7.2 
z
" style="fill:#ffffff;"/>
   </g>
   <g id="matplotlib.axis_1">
    <g id="xtick_1">
     <g id="line2d_1">
      <defs>
       <path d="M 0 0 
L 0 6 
" id="m557f44df51" style="stroke:#262626;stroke-width:1.25;"/>
      </defs>
      <g>
       <use style="fill:#262626;stroke:#262626;stroke-width:1.25;" x="59.825687" xlink:href="#m557f44df51" y="224.64"/>
      </g>
     </g>
     <g id="text_1">
      <!-- −0.20 -->
      <g style="fill:#262626;" transform="translate(45.909827 242.013594)scale(0.11 -0.11)">
       <defs>
        <path d="M 3381 1997 
L 356 1997 
L 356 2522 
L 3381 2522 
L 3381 1997 
z
" id="ArialMT-2212" transform="scale(0.015625)"/>
        <path d="M 266 2259 
Q 266 3072 433 3567 
Q 600 4063 929 4331 
Q 1259 4600 1759 4600 
Q 2128 4600 2406 4451 
Q 2684 4303 2865 4023 
Q 3047 3744 3150 3342 
Q 3253 2941 3253 2259 
Q 3253 1453 3087 958 
Q 2922 463 2592 192 
Q 2263 -78 1759 -78 
Q 1097 -78 719 397 
Q 266 969 266 2259 
z
M 844 2259 
Q 844 1131 1108 757 
Q 1372 384 1759 384 
Q 2147 384 2411 759 
Q 2675 1134 2675 2259 
Q 2675 3391 2411 3762 
Q 2147 4134 1753 4134 
Q 1366 4134 1134 3806 
Q 844 3388 844 2259 
z
" id="ArialMT-30" transform="scale(0.015625)"/>
        <path d="M 581 0 
L 581 641 
L 1222 641 
L 1222 0 
L 581 0 
z
" id="ArialMT-2e" transform="scale(0.015625)"/>
        <path d="M 3222 541 
L 3222 0 
L 194 0 
Q 188 203 259 391 
Q 375 700 629 1000 
Q 884 1300 1366 1694 
Q 2113 2306 2375 2664 
Q 2638 3022 2638 3341 
Q 2638 3675 2398 3904 
Q 2159 4134 1775 4134 
Q 1369 4134 1125 3890 
Q 881 3647 878 3216 
L 300 3275 
Q 359 3922 746 4261 
Q 1134 4600 1788 4600 
Q 2447 4600 2831 4234 
Q 3216 3869 3216 3328 
Q 3216 3053 3103 2787 
Q 2991 2522 2730 2228 
Q 2469 1934 1863 1422 
Q 1356 997 1212 845 
Q 1069 694 975 541 
L 3222 541 
z
" id="ArialMT-32" transform="scale(0.015625)"/>
       </defs>
       <use xlink:href="#ArialMT-2212"/>
       <use x="58.398438" xlink:href="#ArialMT-30"/>
       <use x="114.013672" xlink:href="#ArialMT-2e"/>
       <use x="141.796875" xlink:href="#ArialMT-32"/>
       <use x="197.412109" xlink:href="#ArialMT-30"/>
      </g>
     </g>
    </g>
    <g id="xtick_2">
     <g id="line2d_2">
      <g>
       <use style="fill:#262626;stroke:#262626;stroke-width:1.25;" x="120.937131" xlink:href="#m557f44df51" y="224.64"/>
      </g>
     </g>
     <g id="text_2">
      <!-- −0.15 -->
      <g style="fill:#262626;" transform="translate(107.021271 242.013594)scale(0.11 -0.11)">
       <defs>
        <path d="M 2384 0 
L 1822 0 
L 1822 3584 
Q 1619 3391 1289 3197 
Q 959 3003 697 2906 
L 697 3450 
Q 1169 3672 1522 3987 
Q 1875 4303 2022 4600 
L 2384 4600 
L 2384 0 
z
" id="ArialMT-31" transform="scale(0.015625)"/>
        <path d="M 266 1200 
L 856 1250 
Q 922 819 1161 601 
Q 1400 384 1738 384 
Q 2144 384 2425 690 
Q 2706 997 2706 1503 
Q 2706 1984 2436 2262 
Q 2166 2541 1728 2541 
Q 1456 2541 1237 2417 
Q 1019 2294 894 2097 
L 366 2166 
L 809 4519 
L 3088 4519 
L 3088 3981 
L 1259 3981 
L 1013 2750 
Q 1425 3038 1878 3038 
Q 2478 3038 2890 2622 
Q 3303 2206 3303 1553 
Q 3303 931 2941 478 
Q 2500 -78 1738 -78 
Q 1113 -78 717 272 
Q 322 622 266 1200 
z
" id="ArialMT-35" transform="scale(0.015625)"/>
       </defs>
       <use xlink:href="#ArialMT-2212"/>
       <use x="58.398438" xlink:href="#ArialMT-30"/>
       <use x="114.013672" xlink:href="#ArialMT-2e"/>
       <use x="141.796875" xlink:href="#ArialMT-31"/>
       <use x="197.412109" xlink:href="#ArialMT-35"/>
      </g>
     </g>
    </g>
    <g id="xtick_3">
     <g id="line2d_3">
      <g>
       <use style="fill:#262626;stroke:#262626;stroke-width:1.25;" x="182.048575" xlink:href="#m557f44df51" y="224.64"/>
      </g>
     </g>
     <g id="text_3">
      <!-- −0.10 -->
      <g style="fill:#262626;" transform="translate(168.132715 242.013594)scale(0.11 -0.11)">
       <use xlink:href="#ArialMT-2212"/>
       <use x="58.398438" xlink:href="#ArialMT-30"/>
       <use x="114.013672" xlink:href="#ArialMT-2e"/>
       <use x="141.796875" xlink:href="#ArialMT-31"/>
       <use x="197.412109" xlink:href="#ArialMT-30"/>
      </g>
     </g>
    </g>
    <g id="xtick_4">
     <g id="line2d_4">
      <g>
       <use style="fill:#262626;stroke:#262626;stroke-width:1.25;" x="243.160018" xlink:href="#m557f44df51" y="224.64"/>
      </g>
     </g>
     <g id="text_4">
      <!-- −0.05 -->
      <g style="fill:#262626;" transform="translate(229.244159 242.013594)scale(0.11 -0.11)">
       <use xlink:href="#ArialMT-2212"/>
       <use x="58.398438" xlink:href="#ArialMT-30"/>
       <use x="114.013672" xlink:href="#ArialMT-2e"/>
       <use x="141.796875" xlink:href="#ArialMT-30"/>
       <use x="197.412109" xlink:href="#ArialMT-35"/>
      </g>
     </g>
    </g>
    <g id="xtick_5">
     <g id="line2d_5">
      <g>
       <use style="fill:#262626;stroke:#262626;stroke-width:1.25;" x="304.271462" xlink:href="#m557f44df51" y="224.64"/>
      </g>
     </g>
     <g id="text_5">
      <!-- 0.00 -->
      <g style="fill:#262626;" transform="translate(293.567947 242.013594)scale(0.11 -0.11)">
       <use xlink:href="#ArialMT-30"/>
       <use x="55.615234" xlink:href="#ArialMT-2e"/>
       <use x="83.398438" xlink:href="#ArialMT-30"/>
       <use x="139.013672" xlink:href="#ArialMT-30"/>
      </g>
     </g>
    </g>
    <g id="xtick_6">
     <g id="line2d_6">
      <g>
       <use style="fill:#262626;stroke:#262626;stroke-width:1.25;" x="365.382906" xlink:href="#m557f44df51" y="224.64"/>
      </g>
     </g>
     <g id="text_6">
      <!-- 0.05 -->
      <g style="fill:#262626;" transform="translate(354.67939 242.013594)scale(0.11 -0.11)">
       <use xlink:href="#ArialMT-30"/>
       <use x="55.615234" xlink:href="#ArialMT-2e"/>
       <use x="83.398438" xlink:href="#ArialMT-30"/>
       <use x="139.013672" xlink:href="#ArialMT-35"/>
      </g>
     </g>
    </g>
    <g id="text_7">
     <!-- $t-t_\mathrm{GW150914}$ ($\mathrm{s}$) -->
     <g style="fill:#262626;" transform="translate(167.096094 256.959844)scale(0.12 -0.12)">
      <defs>
       <path d="M 2706 3500 
L 2619 3053 
L 1472 3053 
L 1100 1153 
Q 1081 1047 1072 975 
Q 1063 903 1063 863 
Q 1063 663 1183 572 
Q 1303 481 1569 481 
L 2150 481 
L 2053 0 
L 1503 0 
Q 991 0 739 200 
Q 488 400 488 806 
Q 488 878 497 964 
Q 506 1050 525 1153 
L 897 3053 
L 409 3053 
L 500 3500 
L 978 3500 
L 1172 4494 
L 1747 4494 
L 1556 3500 
L 2706 3500 
z
" id="DejaVuSans-Oblique-74" transform="scale(0.015625)"/>
       <path d="M 678 2272 
L 4684 2272 
L 4684 1741 
L 678 1741 
L 678 2272 
z
" id="DejaVuSans-2212" transform="scale(0.015625)"/>
       <path d="M 3809 666 
L 3809 1919 
L 2778 1919 
L 2778 2438 
L 4434 2438 
L 4434 434 
Q 4069 175 3628 42 
Q 3188 -91 2688 -91 
Q 1594 -91 976 548 
Q 359 1188 359 2328 
Q 359 3472 976 4111 
Q 1594 4750 2688 4750 
Q 3144 4750 3555 4637 
Q 3966 4525 4313 4306 
L 4313 3634 
Q 3963 3931 3569 4081 
Q 3175 4231 2741 4231 
Q 1884 4231 1454 3753 
Q 1025 3275 1025 2328 
Q 1025 1384 1454 906 
Q 1884 428 2741 428 
Q 3075 428 3337 486 
Q 3600 544 3809 666 
z
" id="DejaVuSans-47" transform="scale(0.015625)"/>
       <path d="M 213 4666 
L 850 4666 
L 1831 722 
L 2809 4666 
L 3519 4666 
L 4500 722 
L 5478 4666 
L 6119 4666 
L 4947 0 
L 4153 0 
L 3169 4050 
L 2175 0 
L 1381 0 
L 213 4666 
z
" id="DejaVuSans-57" transform="scale(0.015625)"/>
       <path d="M 794 531 
L 1825 531 
L 1825 4091 
L 703 3866 
L 703 4441 
L 1819 4666 
L 2450 4666 
L 2450 531 
L 3481 531 
L 3481 0 
L 794 0 
L 794 531 
z
" id="DejaVuSans-31" transform="scale(0.015625)"/>
       <path d="M 691 4666 
L 3169 4666 
L 3169 4134 
L 1269 4134 
L 1269 2991 
Q 1406 3038 1543 3061 
Q 1681 3084 1819 3084 
Q 2600 3084 3056 2656 
Q 3513 2228 3513 1497 
Q 3513 744 3044 326 
Q 2575 -91 1722 -91 
Q 1428 -91 1123 -41 
Q 819 9 494 109 
L 494 744 
Q 775 591 1075 516 
Q 1375 441 1709 441 
Q 2250 441 2565 725 
Q 2881 1009 2881 1497 
Q 2881 1984 2565 2268 
Q 2250 2553 1709 2553 
Q 1456 2553 1204 2497 
Q 953 2441 691 2322 
L 691 4666 
z
" id="DejaVuSans-35" transform="scale(0.015625)"/>
       <path d="M 2034 4250 
Q 1547 4250 1301 3770 
Q 1056 3291 1056 2328 
Q 1056 1369 1301 889 
Q 1547 409 2034 409 
Q 2525 409 2770 889 
Q 3016 1369 3016 2328 
Q 3016 3291 2770 3770 
Q 2525 4250 2034 4250 
z
M 2034 4750 
Q 2819 4750 3233 4129 
Q 3647 3509 3647 2328 
Q 3647 1150 3233 529 
Q 2819 -91 2034 -91 
Q 1250 -91 836 529 
Q 422 1150 422 2328 
Q 422 3509 836 4129 
Q 1250 4750 2034 4750 
z
" id="DejaVuSans-30" transform="scale(0.015625)"/>
       <path d="M 703 97 
L 703 672 
Q 941 559 1184 500 
Q 1428 441 1663 441 
Q 2288 441 2617 861 
Q 2947 1281 2994 2138 
Q 2813 1869 2534 1725 
Q 2256 1581 1919 1581 
Q 1219 1581 811 2004 
Q 403 2428 403 3163 
Q 403 3881 828 4315 
Q 1253 4750 1959 4750 
Q 2769 4750 3195 4129 
Q 3622 3509 3622 2328 
Q 3622 1225 3098 567 
Q 2575 -91 1691 -91 
Q 1453 -91 1209 -44 
Q 966 3 703 97 
z
M 1959 2075 
Q 2384 2075 2632 2365 
Q 2881 2656 2881 3163 
Q 2881 3666 2632 3958 
Q 2384 4250 1959 4250 
Q 1534 4250 1286 3958 
Q 1038 3666 1038 3163 
Q 1038 2656 1286 2365 
Q 1534 2075 1959 2075 
z
" id="DejaVuSans-39" transform="scale(0.015625)"/>
       <path d="M 2419 4116 
L 825 1625 
L 2419 1625 
L 2419 4116 
z
M 2253 4666 
L 3047 4666 
L 3047 1625 
L 3713 1625 
L 3713 1100 
L 3047 1100 
L 3047 0 
L 2419 0 
L 2419 1100 
L 313 1100 
L 313 1709 
L 2253 4666 
z
" id="DejaVuSans-34" transform="scale(0.015625)"/>
       <path id="ArialMT-20" transform="scale(0.015625)"/>
       <path d="M 1497 -1347 
Q 1031 -759 709 28 
Q 388 816 388 1659 
Q 388 2403 628 3084 
Q 909 3875 1497 4659 
L 1900 4659 
Q 1522 4009 1400 3731 
Q 1209 3300 1100 2831 
Q 966 2247 966 1656 
Q 966 153 1900 -1347 
L 1497 -1347 
z
" id="ArialMT-28" transform="scale(0.015625)"/>
       <path d="M 2834 3397 
L 2834 2853 
Q 2591 2978 2328 3040 
Q 2066 3103 1784 3103 
Q 1356 3103 1142 2972 
Q 928 2841 928 2578 
Q 928 2378 1081 2264 
Q 1234 2150 1697 2047 
L 1894 2003 
Q 2506 1872 2764 1633 
Q 3022 1394 3022 966 
Q 3022 478 2636 193 
Q 2250 -91 1575 -91 
Q 1294 -91 989 -36 
Q 684 19 347 128 
L 347 722 
Q 666 556 975 473 
Q 1284 391 1588 391 
Q 1994 391 2212 530 
Q 2431 669 2431 922 
Q 2431 1156 2273 1281 
Q 2116 1406 1581 1522 
L 1381 1569 
Q 847 1681 609 1914 
Q 372 2147 372 2553 
Q 372 3047 722 3315 
Q 1072 3584 1716 3584 
Q 2034 3584 2315 3537 
Q 2597 3491 2834 3397 
z
" id="DejaVuSans-73" transform="scale(0.015625)"/>
       <path d="M 791 -1347 
L 388 -1347 
Q 1322 153 1322 1656 
Q 1322 2244 1188 2822 
Q 1081 3291 891 3722 
Q 769 4003 388 4659 
L 791 4659 
Q 1378 3875 1659 3084 
Q 1900 2403 1900 1659 
Q 1900 816 1576 28 
Q 1253 -759 791 -1347 
z
" id="ArialMT-29" transform="scale(0.015625)"/>
      </defs>
      <use transform="translate(0 0.203125)" xlink:href="#DejaVuSans-Oblique-74"/>
      <use transform="translate(58.691406 0.203125)" xlink:href="#DejaVuSans-2212"/>
      <use transform="translate(161.962891 0.203125)" xlink:href="#DejaVuSans-Oblique-74"/>
      <use transform="translate(201.171875 -16.203125)scale(0.7)" xlink:href="#DejaVuSans-47"/>
      <use transform="translate(255.415039 -16.203125)scale(0.7)" xlink:href="#DejaVuSans-57"/>
      <use transform="translate(324.628906 -16.203125)scale(0.7)" xlink:href="#DejaVuSans-31"/>
      <use transform="translate(369.165039 -16.203125)scale(0.7)" xlink:href="#DejaVuSans-35"/>
      <use transform="translate(413.701172 -16.203125)scale(0.7)" xlink:href="#DejaVuSans-30"/>
      <use transform="translate(458.237305 -16.203125)scale(0.7)" xlink:href="#DejaVuSans-39"/>
      <use transform="translate(502.773438 -16.203125)scale(0.7)" xlink:href="#DejaVuSans-31"/>
      <use transform="translate(547.30957 -16.203125)scale(0.7)" xlink:href="#DejaVuSans-34"/>
      <use transform="translate(594.580078 0.203125)" xlink:href="#ArialMT-20"/>
      <use transform="translate(622.363281 0.203125)" xlink:href="#ArialMT-28"/>
      <use transform="translate(655.664062 0.203125)" xlink:href="#DejaVuSans-73"/>
      <use transform="translate(707.763672 0.203125)" xlink:href="#ArialMT-29"/>
     </g>
    </g>
   </g>
   <g id="matplotlib.axis_2">
    <g id="ytick_1">
     <g id="line2d_7">
      <defs>
       <path d="M 0 0 
L -6 0 
" id="mb357899180" style="stroke:#262626;stroke-width:1.25;"/>
      </defs>
      <g>
       <use style="fill:#262626;stroke:#262626;stroke-width:1.25;" x="44.216094" xlink:href="#mb357899180" y="217.700252"/>
      </g>
     </g>
     <g id="text_8">
      <!-- −6 -->
      <g style="fill:#262626;" transform="translate(22.174375 221.637049)scale(0.11 -0.11)">
       <defs>
        <path d="M 3184 3459 
L 2625 3416 
Q 2550 3747 2413 3897 
Q 2184 4138 1850 4138 
Q 1581 4138 1378 3988 
Q 1113 3794 959 3422 
Q 806 3050 800 2363 
Q 1003 2672 1297 2822 
Q 1591 2972 1913 2972 
Q 2475 2972 2870 2558 
Q 3266 2144 3266 1488 
Q 3266 1056 3080 686 
Q 2894 316 2569 119 
Q 2244 -78 1831 -78 
Q 1128 -78 684 439 
Q 241 956 241 2144 
Q 241 3472 731 4075 
Q 1159 4600 1884 4600 
Q 2425 4600 2770 4297 
Q 3116 3994 3184 3459 
z
M 888 1484 
Q 888 1194 1011 928 
Q 1134 663 1356 523 
Q 1578 384 1822 384 
Q 2178 384 2434 671 
Q 2691 959 2691 1453 
Q 2691 1928 2437 2201 
Q 2184 2475 1800 2475 
Q 1419 2475 1153 2201 
Q 888 1928 888 1484 
z
" id="ArialMT-36" transform="scale(0.015625)"/>
       </defs>
       <use xlink:href="#ArialMT-2212"/>
       <use x="58.398438" xlink:href="#ArialMT-36"/>
      </g>
     </g>
    </g>
    <g id="ytick_2">
     <g id="line2d_8">
      <g>
       <use style="fill:#262626;stroke:#262626;stroke-width:1.25;" x="44.216094" xlink:href="#mb357899180" y="185.022916"/>
      </g>
     </g>
     <g id="text_9">
      <!-- −4 -->
      <g style="fill:#262626;" transform="translate(22.174375 188.959713)scale(0.11 -0.11)">
       <defs>
        <path d="M 2069 0 
L 2069 1097 
L 81 1097 
L 81 1613 
L 2172 4581 
L 2631 4581 
L 2631 1613 
L 3250 1613 
L 3250 1097 
L 2631 1097 
L 2631 0 
L 2069 0 
z
M 2069 1613 
L 2069 3678 
L 634 1613 
L 2069 1613 
z
" id="ArialMT-34" transform="scale(0.015625)"/>
       </defs>
       <use xlink:href="#ArialMT-2212"/>
       <use x="58.398438" xlink:href="#ArialMT-34"/>
      </g>
     </g>
    </g>
    <g id="ytick_3">
     <g id="line2d_9">
      <g>
       <use style="fill:#262626;stroke:#262626;stroke-width:1.25;" x="44.216094" xlink:href="#mb357899180" y="152.34558"/>
      </g>
     </g>
     <g id="text_10">
      <!-- −2 -->
      <g style="fill:#262626;" transform="translate(22.174375 156.282377)scale(0.11 -0.11)">
       <use xlink:href="#ArialMT-2212"/>
       <use x="58.398438" xlink:href="#ArialMT-32"/>
      </g>
     </g>
    </g>
    <g id="ytick_4">
     <g id="line2d_10">
      <g>
       <use style="fill:#262626;stroke:#262626;stroke-width:1.25;" x="44.216094" xlink:href="#mb357899180" y="119.668244"/>
      </g>
     </g>
     <g id="text_11">
      <!-- 0 -->
      <g style="fill:#262626;" transform="translate(28.599063 123.60504)scale(0.11 -0.11)">
       <use xlink:href="#ArialMT-30"/>
      </g>
     </g>
    </g>
    <g id="ytick_5">
     <g id="line2d_11">
      <g>
       <use style="fill:#262626;stroke:#262626;stroke-width:1.25;" x="44.216094" xlink:href="#mb357899180" y="86.990907"/>
      </g>
     </g>
     <g id="text_12">
      <!-- 2 -->
      <g style="fill:#262626;" transform="translate(28.599063 90.927704)scale(0.11 -0.11)">
       <use xlink:href="#ArialMT-32"/>
      </g>
     </g>
    </g>
    <g id="ytick_6">
     <g id="line2d_12">
      <g>
       <use style="fill:#262626;stroke:#262626;stroke-width:1.25;" x="44.216094" xlink:href="#mb357899180" y="54.313571"/>
      </g>
     </g>
     <g id="text_13">
      <!-- 4 -->
      <g style="fill:#262626;" transform="translate(28.599063 58.250368)scale(0.11 -0.11)">
       <use xlink:href="#ArialMT-34"/>
      </g>
     </g>
    </g>
    <g id="ytick_7">
     <g id="line2d_13">
      <g>
       <use style="fill:#262626;stroke:#262626;stroke-width:1.25;" x="44.216094" xlink:href="#mb357899180" y="21.636235"/>
      </g>
     </g>
     <g id="text_14">
      <!-- 6 -->
      <g style="fill:#262626;" transform="translate(28.599063 25.573032)scale(0.11 -0.11)">
       <use xlink:href="#ArialMT-36"/>
      </g>
     </g>
    </g>
    <g id="text_15">
     <!-- Whitened Strain -->
     <g style="fill:#262626;" transform="translate(15.789375 158.60625)rotate(-90)scale(0.12 -0.12)">
      <defs>
       <path d="M 1294 0 
L 78 4581 
L 700 4581 
L 1397 1578 
Q 1509 1106 1591 641 
Q 1766 1375 1797 1488 
L 2669 4581 
L 3400 4581 
L 4056 2263 
Q 4303 1400 4413 641 
Q 4500 1075 4641 1638 
L 5359 4581 
L 5969 4581 
L 4713 0 
L 4128 0 
L 3163 3491 
Q 3041 3928 3019 4028 
Q 2947 3713 2884 3491 
L 1913 0 
L 1294 0 
z
" id="ArialMT-57" transform="scale(0.015625)"/>
       <path d="M 422 0 
L 422 4581 
L 984 4581 
L 984 2938 
Q 1378 3394 1978 3394 
Q 2347 3394 2619 3248 
Q 2891 3103 3008 2847 
Q 3125 2591 3125 2103 
L 3125 0 
L 2563 0 
L 2563 2103 
Q 2563 2525 2380 2717 
Q 2197 2909 1863 2909 
Q 1613 2909 1392 2779 
Q 1172 2650 1078 2428 
Q 984 2206 984 1816 
L 984 0 
L 422 0 
z
" id="ArialMT-68" transform="scale(0.015625)"/>
       <path d="M 425 3934 
L 425 4581 
L 988 4581 
L 988 3934 
L 425 3934 
z
M 425 0 
L 425 3319 
L 988 3319 
L 988 0 
L 425 0 
z
" id="ArialMT-69" transform="scale(0.015625)"/>
       <path d="M 1650 503 
L 1731 6 
Q 1494 -44 1306 -44 
Q 1000 -44 831 53 
Q 663 150 594 308 
Q 525 466 525 972 
L 525 2881 
L 113 2881 
L 113 3319 
L 525 3319 
L 525 4141 
L 1084 4478 
L 1084 3319 
L 1650 3319 
L 1650 2881 
L 1084 2881 
L 1084 941 
Q 1084 700 1114 631 
Q 1144 563 1211 522 
Q 1278 481 1403 481 
Q 1497 481 1650 503 
z
" id="ArialMT-74" transform="scale(0.015625)"/>
       <path d="M 2694 1069 
L 3275 997 
Q 3138 488 2766 206 
Q 2394 -75 1816 -75 
Q 1088 -75 661 373 
Q 234 822 234 1631 
Q 234 2469 665 2931 
Q 1097 3394 1784 3394 
Q 2450 3394 2872 2941 
Q 3294 2488 3294 1666 
Q 3294 1616 3291 1516 
L 816 1516 
Q 847 969 1125 678 
Q 1403 388 1819 388 
Q 2128 388 2347 550 
Q 2566 713 2694 1069 
z
M 847 1978 
L 2700 1978 
Q 2663 2397 2488 2606 
Q 2219 2931 1791 2931 
Q 1403 2931 1139 2672 
Q 875 2413 847 1978 
z
" id="ArialMT-65" transform="scale(0.015625)"/>
       <path d="M 422 0 
L 422 3319 
L 928 3319 
L 928 2847 
Q 1294 3394 1984 3394 
Q 2284 3394 2536 3286 
Q 2788 3178 2913 3003 
Q 3038 2828 3088 2588 
Q 3119 2431 3119 2041 
L 3119 0 
L 2556 0 
L 2556 2019 
Q 2556 2363 2490 2533 
Q 2425 2703 2258 2804 
Q 2091 2906 1866 2906 
Q 1506 2906 1245 2678 
Q 984 2450 984 1813 
L 984 0 
L 422 0 
z
" id="ArialMT-6e" transform="scale(0.015625)"/>
       <path d="M 2575 0 
L 2575 419 
Q 2259 -75 1647 -75 
Q 1250 -75 917 144 
Q 584 363 401 755 
Q 219 1147 219 1656 
Q 219 2153 384 2558 
Q 550 2963 881 3178 
Q 1213 3394 1622 3394 
Q 1922 3394 2156 3267 
Q 2391 3141 2538 2938 
L 2538 4581 
L 3097 4581 
L 3097 0 
L 2575 0 
z
M 797 1656 
Q 797 1019 1065 703 
Q 1334 388 1700 388 
Q 2069 388 2326 689 
Q 2584 991 2584 1609 
Q 2584 2291 2321 2609 
Q 2059 2928 1675 2928 
Q 1300 2928 1048 2622 
Q 797 2316 797 1656 
z
" id="ArialMT-64" transform="scale(0.015625)"/>
       <path d="M 288 1472 
L 859 1522 
Q 900 1178 1048 958 
Q 1197 738 1509 602 
Q 1822 466 2213 466 
Q 2559 466 2825 569 
Q 3091 672 3220 851 
Q 3350 1031 3350 1244 
Q 3350 1459 3225 1620 
Q 3100 1781 2813 1891 
Q 2628 1963 1997 2114 
Q 1366 2266 1113 2400 
Q 784 2572 623 2826 
Q 463 3081 463 3397 
Q 463 3744 659 4045 
Q 856 4347 1234 4503 
Q 1613 4659 2075 4659 
Q 2584 4659 2973 4495 
Q 3363 4331 3572 4012 
Q 3781 3694 3797 3291 
L 3216 3247 
Q 3169 3681 2898 3903 
Q 2628 4125 2100 4125 
Q 1550 4125 1298 3923 
Q 1047 3722 1047 3438 
Q 1047 3191 1225 3031 
Q 1400 2872 2139 2705 
Q 2878 2538 3153 2413 
Q 3553 2228 3743 1945 
Q 3934 1663 3934 1294 
Q 3934 928 3725 604 
Q 3516 281 3123 101 
Q 2731 -78 2241 -78 
Q 1619 -78 1198 103 
Q 778 284 539 648 
Q 300 1013 288 1472 
z
" id="ArialMT-53" transform="scale(0.015625)"/>
       <path d="M 416 0 
L 416 3319 
L 922 3319 
L 922 2816 
Q 1116 3169 1280 3281 
Q 1444 3394 1641 3394 
Q 1925 3394 2219 3213 
L 2025 2691 
Q 1819 2813 1613 2813 
Q 1428 2813 1281 2702 
Q 1134 2591 1072 2394 
Q 978 2094 978 1738 
L 978 0 
L 416 0 
z
" id="ArialMT-72" transform="scale(0.015625)"/>
       <path d="M 2588 409 
Q 2275 144 1986 34 
Q 1697 -75 1366 -75 
Q 819 -75 525 192 
Q 231 459 231 875 
Q 231 1119 342 1320 
Q 453 1522 633 1644 
Q 813 1766 1038 1828 
Q 1203 1872 1538 1913 
Q 2219 1994 2541 2106 
Q 2544 2222 2544 2253 
Q 2544 2597 2384 2738 
Q 2169 2928 1744 2928 
Q 1347 2928 1158 2789 
Q 969 2650 878 2297 
L 328 2372 
Q 403 2725 575 2942 
Q 747 3159 1072 3276 
Q 1397 3394 1825 3394 
Q 2250 3394 2515 3294 
Q 2781 3194 2906 3042 
Q 3031 2891 3081 2659 
Q 3109 2516 3109 2141 
L 3109 1391 
Q 3109 606 3145 398 
Q 3181 191 3288 0 
L 2700 0 
Q 2613 175 2588 409 
z
M 2541 1666 
Q 2234 1541 1622 1453 
Q 1275 1403 1131 1340 
Q 988 1278 909 1158 
Q 831 1038 831 891 
Q 831 666 1001 516 
Q 1172 366 1500 366 
Q 1825 366 2078 508 
Q 2331 650 2450 897 
Q 2541 1088 2541 1459 
L 2541 1666 
z
" id="ArialMT-61" transform="scale(0.015625)"/>
      </defs>
      <use xlink:href="#ArialMT-57"/>
      <use x="94.384766" xlink:href="#ArialMT-68"/>
      <use x="150" xlink:href="#ArialMT-69"/>
      <use x="172.216797" xlink:href="#ArialMT-74"/>
      <use x="200" xlink:href="#ArialMT-65"/>
      <use x="255.615234" xlink:href="#ArialMT-6e"/>
      <use x="311.230469" xlink:href="#ArialMT-65"/>
      <use x="366.845703" xlink:href="#ArialMT-64"/>
      <use x="422.460938" xlink:href="#ArialMT-20"/>
      <use x="450.244141" xlink:href="#ArialMT-53"/>
      <use x="516.943359" xlink:href="#ArialMT-74"/>
      <use x="544.726562" xlink:href="#ArialMT-72"/>
      <use x="578.027344" xlink:href="#ArialMT-61"/>
      <use x="633.642578" xlink:href="#ArialMT-69"/>
      <use x="655.859375" xlink:href="#ArialMT-6e"/>
     </g>
    </g>
   </g>
   <g id="line2d_14">
    <path clip-path="url(#pa211114156)" d="M 59.434276 117.529785 
L 61.821441 117.952476 
L 64.208607 118.642949 
L 67.789356 120.021652 
L 72.563687 121.899073 
L 74.950853 122.556136 
L 77.338019 122.866431 
L 78.531602 122.86569 
L 79.725185 122.753434 
L 82.11235 122.193906 
L 84.499516 121.2272 
L 86.886682 119.956319 
L 92.854596 116.572742 
L 95.241762 115.664674 
L 96.435345 115.398681 
L 97.628928 115.280154 
L 98.822511 115.319796 
L 100.016094 115.522791 
L 101.209677 115.888321 
L 102.40326 116.409291 
L 104.790425 117.857799 
L 107.177591 119.690751 
L 110.75834 122.590851 
L 113.145506 124.18691 
L 114.339088 124.774925 
L 115.532671 125.182474 
L 116.726254 125.386392 
L 117.919837 125.370776 
L 119.11342 125.127975 
L 120.307003 124.659298 
L 121.500586 123.975373 
L 122.694169 123.096138 
L 125.081334 120.875196 
L 129.855666 115.824999 
L 131.049249 114.737945 
L 132.242832 113.824703 
L 133.436415 113.129914 
L 134.629997 112.690555 
L 135.82358 112.533994 
L 137.017163 112.676378 
L 138.210746 113.121436 
L 139.404329 113.859788 
L 140.597912 114.868798 
L 141.791495 116.113027 
L 144.178661 119.108213 
L 147.759409 123.90462 
L 148.952992 125.299361 
L 150.146575 126.476124 
L 151.340158 127.374712 
L 152.533741 127.945612 
L 153.727324 128.152734 
L 154.920907 127.975657 
L 156.114489 127.411222 
L 157.308072 126.474384 
L 158.501655 125.19823 
L 159.695238 123.633131 
L 162.082404 119.912821 
L 165.663153 114.162322 
L 166.856735 112.575293 
L 168.050318 111.29972 
L 169.243901 110.407428 
L 170.437484 109.953571 
L 171.631067 109.973177 
L 172.82465 110.478553 
L 174.018233 111.457741 
L 175.211816 112.874142 
L 176.405399 114.667402 
L 178.792564 119.038517 
L 181.17973 123.725182 
L 182.373313 125.882729 
L 183.566896 127.75541 
L 184.760479 129.234718 
L 185.954062 130.229632 
L 187.147645 130.67233 
L 188.341227 130.5229 
L 189.53481 129.772752 
L 190.728393 128.446444 
L 191.921976 126.601734 
L 193.115559 124.327771 
L 195.502725 118.981632 
L 197.889891 113.565661 
L 199.083473 111.22929 
L 200.277056 109.34059 
L 201.470639 108.025474 
L 202.664222 107.380226 
L 203.857805 107.464273 
L 205.051388 108.294812 
L 206.244971 109.843732 
L 207.438554 112.03717 
L 208.632137 114.757909 
L 211.019302 121.129992 
L 213.406468 127.420865 
L 214.600051 130.013665 
L 215.793634 131.983107 
L 216.987217 133.17661 
L 218.1808 133.487251 
L 219.374383 132.863507 
L 220.567965 131.315815 
L 221.761548 128.919278 
L 222.955131 125.812026 
L 225.342297 118.291348 
L 227.729463 110.77542 
L 228.923046 107.721877 
L 230.116629 105.481527 
L 231.310211 104.256061 
L 232.503794 104.179756 
L 233.697377 105.304792 
L 234.89096 107.591868 
L 236.084543 110.907307 
L 237.278126 115.027477 
L 240.858874 128.934704 
L 242.052457 132.808282 
L 243.24604 135.675703 
L 244.439623 137.240123 
L 245.633206 137.301376 
L 246.826789 135.781248 
L 248.020372 132.740088 
L 249.213955 128.382306 
L 250.407538 123.049033 
L 252.794703 111.365216 
L 253.988286 106.127793 
L 255.181869 102.041671 
L 256.375452 99.587961 
L 257.569035 99.115684 
L 258.762618 100.792774 
L 259.956201 104.570661 
L 261.149784 110.168043 
L 263.536949 124.602944 
L 264.730532 131.911507 
L 265.924115 138.124198 
L 267.117698 142.411789 
L 268.311281 144.10297 
L 269.504864 142.787313 
L 270.698447 138.400114 
L 271.89203 131.275048 
L 273.085612 122.151924 
L 275.472778 102.56427 
L 276.666361 94.904038 
L 277.859944 90.492584 
L 279.053527 90.342445 
L 280.24711 94.920296 
L 281.440693 103.976476 
L 282.634276 116.458463 
L 285.021441 143.824174 
L 286.215024 153.632867 
L 287.408607 157.524506 
L 288.60219 153.829053 
L 289.795773 142.207618 
L 290.989356 124.080277 
L 293.376522 83.248977 
L 294.570104 71.240314 
L 295.763687 71.850983 
L 296.95727 87.663886 
L 298.150853 116.806297 
L 299.344436 151.671878 
L 300.538019 179.324671 
L 301.731602 184.672179 
L 302.925185 156.972773 
L 305.31235 35.566605 
L 306.505933 31.503947 
L 307.699516 151.474122 
L 308.893099 214.756364 
L 311.280265 67.927071 
L 312.473848 85.268164 
L 313.667431 135.914155 
L 314.861014 145.798965 
L 316.054596 121.08531 
L 317.248179 106.060195 
L 318.441762 113.598786 
L 319.635345 124.447722 
L 320.828928 124.641629 
L 322.022511 119.127041 
L 323.216094 116.95545 
L 325.60326 120.725559 
L 326.796842 120.424733 
L 327.990425 119.436553 
L 329.184008 119.224784 
L 330.377591 119.617818 
L 331.571174 119.854905 
L 335.151923 119.612627 
L 337.539088 119.692111 
L 345.894169 119.668313 
L 363.797912 119.6683 
L 363.797912 119.6683 
" style="fill:none;stroke:#0173b2;stroke-linecap:round;stroke-width:1.5;"/>
   </g>
   <g id="line2d_15">
    <path clip-path="url(#pa211114156)" d="M 59.434276 107.240811 
L 60.627858 160.33962 
L 61.821441 94.947716 
L 63.015024 132.67494 
L 64.208607 133.830312 
L 65.40219 91.437136 
L 66.595773 100.953106 
L 67.789356 128.128759 
L 68.982939 131.462644 
L 70.176522 113.414986 
L 71.370104 131.865214 
L 72.563687 125.673352 
L 73.75727 82.761264 
L 74.950853 126.156544 
L 76.144436 122.505173 
L 77.338019 115.01631 
L 78.531602 125.208219 
L 79.725185 97.192315 
L 80.918768 117.873219 
L 82.11235 118.223335 
L 83.305933 171.309256 
L 84.499516 85.031637 
L 85.693099 107.212956 
L 86.886682 122.924629 
L 88.080265 83.342343 
L 89.273848 132.876648 
L 90.467431 118.40098 
L 91.661014 92.404663 
L 92.854596 112.184229 
L 94.048179 92.438492 
L 95.241762 134.514976 
L 96.435345 107.254333 
L 97.628928 127.416221 
L 98.822511 115.214726 
L 100.016094 112.191786 
L 101.209677 134.957575 
L 102.40326 111.967058 
L 103.596842 105.265921 
L 104.790425 119.952274 
L 105.984008 141.416128 
L 107.177591 117.173046 
L 108.371174 138.569852 
L 109.564757 112.238709 
L 110.75834 116.036435 
L 111.951923 134.627959 
L 113.145506 133.465441 
L 114.339088 113.254285 
L 115.532671 87.528276 
L 116.726254 100.826357 
L 117.919837 153.077098 
L 120.307003 96.294751 
L 121.500586 136.791496 
L 122.694169 139.84593 
L 123.887752 115.106807 
L 125.081334 121.561913 
L 126.274917 113.917414 
L 127.4685 75.944444 
L 128.662083 111.796078 
L 129.855666 126.482813 
L 131.049249 105.918816 
L 132.242832 122.51083 
L 133.436415 125.422964 
L 134.629997 95.267485 
L 137.017163 164.849227 
L 138.210746 113.075545 
L 139.404329 135.249773 
L 140.597912 96.061893 
L 141.791495 77.960613 
L 142.985078 131.583175 
L 144.178661 91.475926 
L 145.372243 98.43277 
L 146.565826 116.555405 
L 147.759409 137.270843 
L 148.952992 153.445125 
L 150.146575 117.850177 
L 151.340158 127.425053 
L 152.533741 130.471465 
L 153.727324 120.943194 
L 154.920907 113.685139 
L 156.114489 108.804174 
L 157.308072 94.855176 
L 158.501655 131.427342 
L 159.695238 117.616626 
L 160.888821 118.259551 
L 162.082404 120.225241 
L 163.275987 112.146914 
L 164.46957 112.643901 
L 165.663153 102.041977 
L 166.856735 117.632445 
L 168.050318 107.769692 
L 169.243901 114.338164 
L 170.437484 116.968391 
L 171.631067 75.361405 
L 172.82465 122.464826 
L 174.018233 112.273059 
L 175.211816 126.463965 
L 176.405399 127.968894 
L 177.598981 90.189355 
L 178.792564 133.109184 
L 179.986147 90.084608 
L 181.17973 111.15986 
L 182.373313 125.171671 
L 184.760479 105.162338 
L 185.954062 136.84041 
L 187.147645 121.233024 
L 189.53481 124.016559 
L 190.728393 129.998332 
L 193.115559 121.797928 
L 194.309142 106.073717 
L 195.502725 138.598319 
L 196.696308 121.635322 
L 197.889891 126.986097 
L 200.277056 95.179914 
L 201.470639 98.222923 
L 202.664222 107.899363 
L 203.857805 80.751877 
L 205.051388 103.94407 
L 206.244971 93.297517 
L 207.438554 95.31468 
L 208.632137 108.098569 
L 209.825719 97.596389 
L 211.019302 112.895923 
L 212.212885 125.973603 
L 213.406468 107.564028 
L 214.600051 148.677526 
L 215.793634 156.336514 
L 216.987217 128.58515 
L 218.1808 146.101884 
L 219.374383 99.592485 
L 220.567965 119.084384 
L 221.761548 94.033364 
L 222.955131 125.766788 
L 224.148714 115.000309 
L 225.342297 118.550584 
L 226.53588 136.396895 
L 227.729463 114.336631 
L 228.923046 120.61308 
L 230.116629 116.022651 
L 231.310211 60.256247 
L 232.503794 123.831952 
L 233.697377 92.130821 
L 234.89096 113.652081 
L 236.084543 98.31105 
L 237.278126 127.435948 
L 238.471709 103.93839 
L 239.665292 135.579671 
L 240.858874 142.167587 
L 242.052457 136.984497 
L 243.24604 140.57518 
L 244.439623 123.580718 
L 245.633206 148.113552 
L 246.826789 134.102471 
L 248.020372 127.843471 
L 249.213955 115.713012 
L 250.407538 117.57232 
L 251.60112 100.810689 
L 252.794703 97.620875 
L 253.988286 89.161617 
L 255.181869 99.031601 
L 256.375452 97.330746 
L 257.569035 89.862578 
L 258.762618 87.853679 
L 259.956201 119.023738 
L 261.149784 102.754461 
L 262.343366 110.78222 
L 263.536949 113.991775 
L 264.730532 160.303681 
L 265.924115 163.92424 
L 267.117698 114.449471 
L 268.311281 125.639445 
L 269.504864 148.740358 
L 270.698447 113.039488 
L 271.89203 130.794477 
L 273.085612 138.851021 
L 274.279195 140.370291 
L 275.472778 115.953427 
L 276.666361 83.328975 
L 277.859944 125.359173 
L 279.053527 69.369375 
L 280.24711 34.871767 
L 281.440693 104.494888 
L 282.634276 117.354135 
L 283.827858 128.599973 
L 286.215024 165.14862 
L 287.408607 178.617718 
L 288.60219 141.113719 
L 289.795773 152.778157 
L 290.989356 117.532109 
L 292.182939 127.693041 
L 293.376522 100.689861 
L 294.570104 51.258976 
L 295.763687 62.900918 
L 296.95727 77.718982 
L 298.150853 110.700601 
L 299.344436 164.146615 
L 300.538019 188.721945 
L 301.731602 181.586198 
L 302.925185 134.473027 
L 305.31235 17.083636 
L 306.505933 37.293466 
L 307.699516 141.285994 
L 308.893099 200.149116 
L 310.086682 171.828264 
L 311.280265 67.941063 
L 312.473848 69.787615 
L 313.667431 166.241306 
L 314.861014 162.191974 
L 316.054596 103.26073 
L 317.248179 111.599255 
L 318.441762 146.84281 
L 319.635345 119.663992 
L 320.828928 121.558833 
L 322.022511 93.953319 
L 323.216094 110.718027 
L 324.409677 137.596481 
L 325.60326 110.717653 
L 326.796842 111.144652 
L 327.990425 118.277149 
L 329.184008 128.824935 
L 331.571174 101.155944 
L 332.764757 135.514417 
L 333.95834 128.258242 
L 335.151923 136.149576 
L 336.345506 107.365018 
L 337.539088 98.246727 
L 338.732671 123.546056 
L 339.926254 114.768441 
L 341.119837 125.273965 
L 342.31342 150.518979 
L 343.507003 104.709768 
L 344.700586 111.910793 
L 345.894169 99.308457 
L 348.281334 123.124089 
L 349.474917 94.798106 
L 350.6685 106.11657 
L 351.862083 100.958352 
L 353.055666 111.601157 
L 354.249249 119.646337 
L 355.442832 106.930977 
L 356.636415 152.642699 
L 357.829997 129.493332 
L 359.02358 117.386645 
L 360.217163 115.502109 
L 361.410746 108.203284 
L 362.604329 106.76801 
L 363.797912 97.640939 
L 363.797912 97.640939 
" style="fill:none;stroke:#de8f05;stroke-linecap:round;stroke-width:1.5;"/>
   </g>
   <g id="patch_3">
    <path d="M 44.216094 224.64 
L 44.216094 7.2 
" style="fill:none;stroke:#262626;stroke-linecap:square;stroke-linejoin:miter;stroke-width:1.25;"/>
   </g>
   <g id="patch_4">
    <path d="M 379.016094 224.64 
L 379.016094 7.2 
" style="fill:none;stroke:#262626;stroke-linecap:square;stroke-linejoin:miter;stroke-width:1.25;"/>
   </g>
   <g id="patch_5">
    <path d="M 44.216094 224.64 
L 379.016094 224.64 
" style="fill:none;stroke:#262626;stroke-linecap:square;stroke-linejoin:miter;stroke-width:1.25;"/>
   </g>
   <g id="patch_6">
    <path d="M 44.216094 7.2 
L 379.016094 7.2 
" style="fill:none;stroke:#262626;stroke-linecap:square;stroke-linejoin:miter;stroke-width:1.25;"/>
   </g>
  </g>
 </g>
 <defs>
  <clipPath id="pa211114156">
   <rect height="217.44" width="334.8" x="44.216094" y="7.2"/>
  </clipPath>
 </defs>
</svg>
