<?xml version="1.0" encoding="utf-8" standalone="no"?>
<!DOCTYPE svg PUBLIC "-//W3C//DTD SVG 1.1//EN"
  "http://www.w3.org/Graphics/SVG/1.1/DTD/svg11.dtd">
<svg height="266.679844pt" version="1.1" viewBox="0 0 387.001719 266.679844" width="387.001719pt" xmlns="http://www.w3.org/2000/svg" xmlns:xlink="http://www.w3.org/1999/xlink">
 <metadata>
  <rdf:RDF xmlns:cc="http://creativecommons.org/ns#" xmlns:dc="http://purl.org/dc/elements/1.1/" xmlns:rdf="http://www.w3.org/1999/02/22-rdf-syntax-ns#">
   <cc:Work>
    <dc:type rdf:resource="http://purl.org/dc/dcmitype/StillImage"/>
    <dc:date>2021-10-21T12:02:25.869023</dc:date>
    <dc:format>image/svg+xml</dc:format>
    <dc:creator>
     <cc:Agent>
      <dc:title>Matplotlib v3.4.3, https://matplotlib.org/</dc:title>
     </cc:Agent>
    </dc:creator>
   </cc:Work>
  </rdf:RDF>
 </metadata>
 <defs>
  <style type="text/css">*{stroke-linecap:butt;stroke-linejoin:round;}</style>
 </defs>
 <g id="figure_1">
  <g id="patch_1">
   <path d="M 0 266.679844 
L 387.001719 266.679844 
L 387.001719 0 
L 0 0 
z
" style="fill:#ffffff;"/>
  </g>
  <g id="axes_1">
   <g id="patch_2">
    <path d="M 45.001719 224.64 
L 379.801719 224.64 
L 379.801719 7.2 
L 45.001719 7.2 
z
" style="fill:#ffffff;"/>
   </g>
   <g id="matplotlib.axis_1">
    <g id="xtick_1">
     <g id="line2d_1">
      <defs>
       <path d="M 0 0 
L 0 6 
" id="m530a55461f" style="stroke:#262626;stroke-width:1.25;"/>
      </defs>
      <g>
       <use style="fill:#262626;stroke:#262626;stroke-width:1.25;" x="60.611312" xlink:href="#m530a55461f" y="224.64"/>
      </g>
     </g>
     <g id="text_1">
      <!-- −0.20 -->
      <g style="fill:#262626;" transform="translate(46.695452 242.013594)scale(0.11 -0.11)">
       <defs>
        <path d="M 3381 1997 
L 356 1997 
L 356 2522 
L 3381 2522 
L 3381 1997 
z
" id="ArialMT-2212" transform="scale(0.015625)"/>
        <path d="M 266 2259 
Q 266 3072 433 3567 
Q 600 4063 929 4331 
Q 1259 4600 1759 4600 
Q 2128 4600 2406 4451 
Q 2684 4303 2865 4023 
Q 3047 3744 3150 3342 
Q 3253 2941 3253 2259 
Q 3253 1453 3087 958 
Q 2922 463 2592 192 
Q 2263 -78 1759 -78 
Q 1097 -78 719 397 
Q 266 969 266 2259 
z
M 844 2259 
Q 844 1131 1108 757 
Q 1372 384 1759 384 
Q 2147 384 2411 759 
Q 2675 1134 2675 2259 
Q 2675 3391 2411 3762 
Q 2147 4134 1753 4134 
Q 1366 4134 1134 3806 
Q 844 3388 844 2259 
z
" id="ArialMT-30" transform="scale(0.015625)"/>
        <path d="M 581 0 
L 581 641 
L 1222 641 
L 1222 0 
L 581 0 
z
" id="ArialMT-2e" transform="scale(0.015625)"/>
        <path d="M 3222 541 
L 3222 0 
L 194 0 
Q 188 203 259 391 
Q 375 700 629 1000 
Q 884 1300 1366 1694 
Q 2113 2306 2375 2664 
Q 2638 3022 2638 3341 
Q 2638 3675 2398 3904 
Q 2159 4134 1775 4134 
Q 1369 4134 1125 3890 
Q 881 3647 878 3216 
L 300 3275 
Q 359 3922 746 4261 
Q 1134 4600 1788 4600 
Q 2447 4600 2831 4234 
Q 3216 3869 3216 3328 
Q 3216 3053 3103 2787 
Q 2991 2522 2730 2228 
Q 2469 1934 1863 1422 
Q 1356 997 1212 845 
Q 1069 694 975 541 
L 3222 541 
z
" id="ArialMT-32" transform="scale(0.015625)"/>
       </defs>
       <use xlink:href="#ArialMT-2212"/>
       <use x="58.398438" xlink:href="#ArialMT-30"/>
       <use x="114.013672" xlink:href="#ArialMT-2e"/>
       <use x="141.796875" xlink:href="#ArialMT-32"/>
       <use x="197.412109" xlink:href="#ArialMT-30"/>
      </g>
     </g>
    </g>
    <g id="xtick_2">
     <g id="line2d_2">
      <g>
       <use style="fill:#262626;stroke:#262626;stroke-width:1.25;" x="121.722756" xlink:href="#m530a55461f" y="224.64"/>
      </g>
     </g>
     <g id="text_2">
      <!-- −0.15 -->
      <g style="fill:#262626;" transform="translate(107.806896 242.013594)scale(0.11 -0.11)">
       <defs>
        <path d="M 2384 0 
L 1822 0 
L 1822 3584 
Q 1619 3391 1289 3197 
Q 959 3003 697 2906 
L 697 3450 
Q 1169 3672 1522 3987 
Q 1875 4303 2022 4600 
L 2384 4600 
L 2384 0 
z
" id="ArialMT-31" transform="scale(0.015625)"/>
        <path d="M 266 1200 
L 856 1250 
Q 922 819 1161 601 
Q 1400 384 1738 384 
Q 2144 384 2425 690 
Q 2706 997 2706 1503 
Q 2706 1984 2436 2262 
Q 2166 2541 1728 2541 
Q 1456 2541 1237 2417 
Q 1019 2294 894 2097 
L 366 2166 
L 809 4519 
L 3088 4519 
L 3088 3981 
L 1259 3981 
L 1013 2750 
Q 1425 3038 1878 3038 
Q 2478 3038 2890 2622 
Q 3303 2206 3303 1553 
Q 3303 931 2941 478 
Q 2500 -78 1738 -78 
Q 1113 -78 717 272 
Q 322 622 266 1200 
z
" id="ArialMT-35" transform="scale(0.015625)"/>
       </defs>
       <use xlink:href="#ArialMT-2212"/>
       <use x="58.398438" xlink:href="#ArialMT-30"/>
       <use x="114.013672" xlink:href="#ArialMT-2e"/>
       <use x="141.796875" xlink:href="#ArialMT-31"/>
       <use x="197.412109" xlink:href="#ArialMT-35"/>
      </g>
     </g>
    </g>
    <g id="xtick_3">
     <g id="line2d_3">
      <g>
       <use style="fill:#262626;stroke:#262626;stroke-width:1.25;" x="182.8342" xlink:href="#m530a55461f" y="224.64"/>
      </g>
     </g>
     <g id="text_3">
      <!-- −0.10 -->
      <g style="fill:#262626;" transform="translate(168.91834 242.013594)scale(0.11 -0.11)">
       <use xlink:href="#ArialMT-2212"/>
       <use x="58.398438" xlink:href="#ArialMT-30"/>
       <use x="114.013672" xlink:href="#ArialMT-2e"/>
       <use x="141.796875" xlink:href="#ArialMT-31"/>
       <use x="197.412109" xlink:href="#ArialMT-30"/>
      </g>
     </g>
    </g>
    <g id="xtick_4">
     <g id="line2d_4">
      <g>
       <use style="fill:#262626;stroke:#262626;stroke-width:1.25;" x="243.945643" xlink:href="#m530a55461f" y="224.64"/>
      </g>
     </g>
     <g id="text_4">
      <!-- −0.05 -->
      <g style="fill:#262626;" transform="translate(230.029784 242.013594)scale(0.11 -0.11)">
       <use xlink:href="#ArialMT-2212"/>
       <use x="58.398438" xlink:href="#ArialMT-30"/>
       <use x="114.013672" xlink:href="#ArialMT-2e"/>
       <use x="141.796875" xlink:href="#ArialMT-30"/>
       <use x="197.412109" xlink:href="#ArialMT-35"/>
      </g>
     </g>
    </g>
    <g id="xtick_5">
     <g id="line2d_5">
      <g>
       <use style="fill:#262626;stroke:#262626;stroke-width:1.25;" x="305.057087" xlink:href="#m530a55461f" y="224.64"/>
      </g>
     </g>
     <g id="text_5">
      <!-- 0.00 -->
      <g style="fill:#262626;" transform="translate(294.353572 242.013594)scale(0.11 -0.11)">
       <use xlink:href="#ArialMT-30"/>
       <use x="55.615234" xlink:href="#ArialMT-2e"/>
       <use x="83.398438" xlink:href="#ArialMT-30"/>
       <use x="139.013672" xlink:href="#ArialMT-30"/>
      </g>
     </g>
    </g>
    <g id="xtick_6">
     <g id="line2d_6">
      <g>
       <use style="fill:#262626;stroke:#262626;stroke-width:1.25;" x="366.168531" xlink:href="#m530a55461f" y="224.64"/>
      </g>
     </g>
     <g id="text_6">
      <!-- 0.05 -->
      <g style="fill:#262626;" transform="translate(355.465015 242.013594)scale(0.11 -0.11)">
       <use xlink:href="#ArialMT-30"/>
       <use x="55.615234" xlink:href="#ArialMT-2e"/>
       <use x="83.398438" xlink:href="#ArialMT-30"/>
       <use x="139.013672" xlink:href="#ArialMT-35"/>
      </g>
     </g>
    </g>
    <g id="text_7">
     <!-- $t - t_c$ $(\mathrm{s})$ -->
     <g style="fill:#262626;" transform="translate(188.341719 257.094844)scale(0.12 -0.12)">
      <defs>
       <path d="M 2706 3500 
L 2619 3053 
L 1472 3053 
L 1100 1153 
Q 1081 1047 1072 975 
Q 1063 903 1063 863 
Q 1063 663 1183 572 
Q 1303 481 1569 481 
L 2150 481 
L 2053 0 
L 1503 0 
Q 991 0 739 200 
Q 488 400 488 806 
Q 488 878 497 964 
Q 506 1050 525 1153 
L 897 3053 
L 409 3053 
L 500 3500 
L 978 3500 
L 1172 4494 
L 1747 4494 
L 1556 3500 
L 2706 3500 
z
" id="DejaVuSans-Oblique-74" transform="scale(0.015625)"/>
       <path d="M 678 2272 
L 4684 2272 
L 4684 1741 
L 678 1741 
L 678 2272 
z
" id="DejaVuSans-2212" transform="scale(0.015625)"/>
       <path d="M 3431 3366 
L 3316 2797 
Q 3109 2947 2876 3022 
Q 2644 3097 2394 3097 
Q 2119 3097 1870 3000 
Q 1622 2903 1453 2725 
Q 1184 2453 1037 2087 
Q 891 1722 891 1331 
Q 891 859 1127 628 
Q 1363 397 1844 397 
Q 2081 397 2348 469 
Q 2616 541 2906 684 
L 2797 116 
Q 2547 13 2283 -39 
Q 2019 -91 1741 -91 
Q 1044 -91 669 257 
Q 294 606 294 1253 
Q 294 1797 489 2255 
Q 684 2713 1069 3078 
Q 1331 3328 1684 3456 
Q 2038 3584 2456 3584 
Q 2700 3584 2940 3529 
Q 3181 3475 3431 3366 
z
" id="DejaVuSans-Oblique-63" transform="scale(0.015625)"/>
       <path id="ArialMT-20" transform="scale(0.015625)"/>
       <path d="M 1984 4856 
Q 1566 4138 1362 3434 
Q 1159 2731 1159 2009 
Q 1159 1288 1364 580 
Q 1569 -128 1984 -844 
L 1484 -844 
Q 1016 -109 783 600 
Q 550 1309 550 2009 
Q 550 2706 781 3412 
Q 1013 4119 1484 4856 
L 1984 4856 
z
" id="DejaVuSans-28" transform="scale(0.015625)"/>
       <path d="M 2834 3397 
L 2834 2853 
Q 2591 2978 2328 3040 
Q 2066 3103 1784 3103 
Q 1356 3103 1142 2972 
Q 928 2841 928 2578 
Q 928 2378 1081 2264 
Q 1234 2150 1697 2047 
L 1894 2003 
Q 2506 1872 2764 1633 
Q 3022 1394 3022 966 
Q 3022 478 2636 193 
Q 2250 -91 1575 -91 
Q 1294 -91 989 -36 
Q 684 19 347 128 
L 347 722 
Q 666 556 975 473 
Q 1284 391 1588 391 
Q 1994 391 2212 530 
Q 2431 669 2431 922 
Q 2431 1156 2273 1281 
Q 2116 1406 1581 1522 
L 1381 1569 
Q 847 1681 609 1914 
Q 372 2147 372 2553 
Q 372 3047 722 3315 
Q 1072 3584 1716 3584 
Q 2034 3584 2315 3537 
Q 2597 3491 2834 3397 
z
" id="DejaVuSans-73" transform="scale(0.015625)"/>
       <path d="M 513 4856 
L 1013 4856 
Q 1481 4119 1714 3412 
Q 1947 2706 1947 2009 
Q 1947 1309 1714 600 
Q 1481 -109 1013 -844 
L 513 -844 
Q 928 -128 1133 580 
Q 1338 1288 1338 2009 
Q 1338 2731 1133 3434 
Q 928 4138 513 4856 
z
" id="DejaVuSans-29" transform="scale(0.015625)"/>
      </defs>
      <use transform="translate(0 0.125)" xlink:href="#DejaVuSans-Oblique-74"/>
      <use transform="translate(58.691406 0.125)" xlink:href="#DejaVuSans-2212"/>
      <use transform="translate(161.962891 0.125)" xlink:href="#DejaVuSans-Oblique-74"/>
      <use transform="translate(201.171875 -16.28125)scale(0.7)" xlink:href="#DejaVuSans-Oblique-63"/>
      <use transform="translate(242.392578 0.125)" xlink:href="#ArialMT-20"/>
      <use transform="translate(270.175781 0.125)" xlink:href="#DejaVuSans-28"/>
      <use transform="translate(309.189453 0.125)" xlink:href="#DejaVuSans-73"/>
      <use transform="translate(361.289062 0.125)" xlink:href="#DejaVuSans-29"/>
     </g>
    </g>
   </g>
   <g id="matplotlib.axis_2">
    <g id="ytick_1">
     <g id="line2d_7">
      <defs>
       <path d="M 0 0 
L -6 0 
" id="m00e7d86fc5" style="stroke:#262626;stroke-width:1.25;"/>
      </defs>
      <g>
       <use style="fill:#262626;stroke:#262626;stroke-width:1.25;" x="45.001719" xlink:href="#m00e7d86fc5" y="198.423206"/>
      </g>
     </g>
     <g id="text_8">
      <!-- −4 -->
      <g style="fill:#262626;" transform="translate(22.96 202.360003)scale(0.11 -0.11)">
       <defs>
        <path d="M 2069 0 
L 2069 1097 
L 81 1097 
L 81 1613 
L 2172 4581 
L 2631 4581 
L 2631 1613 
L 3250 1613 
L 3250 1097 
L 2631 1097 
L 2631 0 
L 2069 0 
z
M 2069 1613 
L 2069 3678 
L 634 1613 
L 2069 1613 
z
" id="ArialMT-34" transform="scale(0.015625)"/>
       </defs>
       <use xlink:href="#ArialMT-2212"/>
       <use x="58.398438" xlink:href="#ArialMT-34"/>
      </g>
     </g>
    </g>
    <g id="ytick_2">
     <g id="line2d_8">
      <g>
       <use style="fill:#262626;stroke:#262626;stroke-width:1.25;" x="45.001719" xlink:href="#m00e7d86fc5" y="163.138465"/>
      </g>
     </g>
     <g id="text_9">
      <!-- −2 -->
      <g style="fill:#262626;" transform="translate(22.96 167.075262)scale(0.11 -0.11)">
       <use xlink:href="#ArialMT-2212"/>
       <use x="58.398438" xlink:href="#ArialMT-32"/>
      </g>
     </g>
    </g>
    <g id="ytick_3">
     <g id="line2d_9">
      <g>
       <use style="fill:#262626;stroke:#262626;stroke-width:1.25;" x="45.001719" xlink:href="#m00e7d86fc5" y="127.853723"/>
      </g>
     </g>
     <g id="text_10">
      <!-- 0 -->
      <g style="fill:#262626;" transform="translate(29.384688 131.79052)scale(0.11 -0.11)">
       <use xlink:href="#ArialMT-30"/>
      </g>
     </g>
    </g>
    <g id="ytick_4">
     <g id="line2d_10">
      <g>
       <use style="fill:#262626;stroke:#262626;stroke-width:1.25;" x="45.001719" xlink:href="#m00e7d86fc5" y="92.568981"/>
      </g>
     </g>
     <g id="text_11">
      <!-- 2 -->
      <g style="fill:#262626;" transform="translate(29.384688 96.505778)scale(0.11 -0.11)">
       <use xlink:href="#ArialMT-32"/>
      </g>
     </g>
    </g>
    <g id="ytick_5">
     <g id="line2d_11">
      <g>
       <use style="fill:#262626;stroke:#262626;stroke-width:1.25;" x="45.001719" xlink:href="#m00e7d86fc5" y="57.28424"/>
      </g>
     </g>
     <g id="text_12">
      <!-- 4 -->
      <g style="fill:#262626;" transform="translate(29.384688 61.221037)scale(0.11 -0.11)">
       <use xlink:href="#ArialMT-34"/>
      </g>
     </g>
    </g>
    <g id="ytick_6">
     <g id="line2d_12">
      <g>
       <use style="fill:#262626;stroke:#262626;stroke-width:1.25;" x="45.001719" xlink:href="#m00e7d86fc5" y="21.999498"/>
      </g>
     </g>
     <g id="text_13">
      <!-- 6 -->
      <g style="fill:#262626;" transform="translate(29.384688 25.936295)scale(0.11 -0.11)">
       <defs>
        <path d="M 3184 3459 
L 2625 3416 
Q 2550 3747 2413 3897 
Q 2184 4138 1850 4138 
Q 1581 4138 1378 3988 
Q 1113 3794 959 3422 
Q 806 3050 800 2363 
Q 1003 2672 1297 2822 
Q 1591 2972 1913 2972 
Q 2475 2972 2870 2558 
Q 3266 2144 3266 1488 
Q 3266 1056 3080 686 
Q 2894 316 2569 119 
Q 2244 -78 1831 -78 
Q 1128 -78 684 439 
Q 241 956 241 2144 
Q 241 3472 731 4075 
Q 1159 4600 1884 4600 
Q 2425 4600 2770 4297 
Q 3116 3994 3184 3459 
z
M 888 1484 
Q 888 1194 1011 928 
Q 1134 663 1356 523 
Q 1578 384 1822 384 
Q 2178 384 2434 671 
Q 2691 959 2691 1453 
Q 2691 1928 2437 2201 
Q 2184 2475 1800 2475 
Q 1419 2475 1153 2201 
Q 888 1928 888 1484 
z
" id="ArialMT-36" transform="scale(0.015625)"/>
       </defs>
       <use xlink:href="#ArialMT-36"/>
      </g>
     </g>
    </g>
    <g id="text_14">
     <!-- $h(t)$ (whitened) -->
     <g style="fill:#262626;" transform="translate(16.32 156.48)rotate(-90)scale(0.12 -0.12)">
      <defs>
       <path d="M 3566 2113 
L 3156 0 
L 2578 0 
L 2988 2091 
Q 3016 2238 3031 2350 
Q 3047 2463 3047 2528 
Q 3047 2791 2881 2937 
Q 2716 3084 2419 3084 
Q 1956 3084 1617 2771 
Q 1278 2459 1178 1941 
L 800 0 
L 225 0 
L 1172 4863 
L 1747 4863 
L 1375 2950 
Q 1594 3244 1934 3414 
Q 2275 3584 2650 3584 
Q 3113 3584 3367 3334 
Q 3622 3084 3622 2631 
Q 3622 2519 3608 2391 
Q 3594 2263 3566 2113 
z
" id="DejaVuSans-Oblique-68" transform="scale(0.015625)"/>
       <path d="M 1497 -1347 
Q 1031 -759 709 28 
Q 388 816 388 1659 
Q 388 2403 628 3084 
Q 909 3875 1497 4659 
L 1900 4659 
Q 1522 4009 1400 3731 
Q 1209 3300 1100 2831 
Q 966 2247 966 1656 
Q 966 153 1900 -1347 
L 1497 -1347 
z
" id="ArialMT-28" transform="scale(0.015625)"/>
       <path d="M 1034 0 
L 19 3319 
L 600 3319 
L 1128 1403 
L 1325 691 
Q 1338 744 1497 1375 
L 2025 3319 
L 2603 3319 
L 3100 1394 
L 3266 759 
L 3456 1400 
L 4025 3319 
L 4572 3319 
L 3534 0 
L 2950 0 
L 2422 1988 
L 2294 2553 
L 1622 0 
L 1034 0 
z
" id="ArialMT-77" transform="scale(0.015625)"/>
       <path d="M 422 0 
L 422 4581 
L 984 4581 
L 984 2938 
Q 1378 3394 1978 3394 
Q 2347 3394 2619 3248 
Q 2891 3103 3008 2847 
Q 3125 2591 3125 2103 
L 3125 0 
L 2563 0 
L 2563 2103 
Q 2563 2525 2380 2717 
Q 2197 2909 1863 2909 
Q 1613 2909 1392 2779 
Q 1172 2650 1078 2428 
Q 984 2206 984 1816 
L 984 0 
L 422 0 
z
" id="ArialMT-68" transform="scale(0.015625)"/>
       <path d="M 425 3934 
L 425 4581 
L 988 4581 
L 988 3934 
L 425 3934 
z
M 425 0 
L 425 3319 
L 988 3319 
L 988 0 
L 425 0 
z
" id="ArialMT-69" transform="scale(0.015625)"/>
       <path d="M 1650 503 
L 1731 6 
Q 1494 -44 1306 -44 
Q 1000 -44 831 53 
Q 663 150 594 308 
Q 525 466 525 972 
L 525 2881 
L 113 2881 
L 113 3319 
L 525 3319 
L 525 4141 
L 1084 4478 
L 1084 3319 
L 1650 3319 
L 1650 2881 
L 1084 2881 
L 1084 941 
Q 1084 700 1114 631 
Q 1144 563 1211 522 
Q 1278 481 1403 481 
Q 1497 481 1650 503 
z
" id="ArialMT-74" transform="scale(0.015625)"/>
       <path d="M 2694 1069 
L 3275 997 
Q 3138 488 2766 206 
Q 2394 -75 1816 -75 
Q 1088 -75 661 373 
Q 234 822 234 1631 
Q 234 2469 665 2931 
Q 1097 3394 1784 3394 
Q 2450 3394 2872 2941 
Q 3294 2488 3294 1666 
Q 3294 1616 3291 1516 
L 816 1516 
Q 847 969 1125 678 
Q 1403 388 1819 388 
Q 2128 388 2347 550 
Q 2566 713 2694 1069 
z
M 847 1978 
L 2700 1978 
Q 2663 2397 2488 2606 
Q 2219 2931 1791 2931 
Q 1403 2931 1139 2672 
Q 875 2413 847 1978 
z
" id="ArialMT-65" transform="scale(0.015625)"/>
       <path d="M 422 0 
L 422 3319 
L 928 3319 
L 928 2847 
Q 1294 3394 1984 3394 
Q 2284 3394 2536 3286 
Q 2788 3178 2913 3003 
Q 3038 2828 3088 2588 
Q 3119 2431 3119 2041 
L 3119 0 
L 2556 0 
L 2556 2019 
Q 2556 2363 2490 2533 
Q 2425 2703 2258 2804 
Q 2091 2906 1866 2906 
Q 1506 2906 1245 2678 
Q 984 2450 984 1813 
L 984 0 
L 422 0 
z
" id="ArialMT-6e" transform="scale(0.015625)"/>
       <path d="M 2575 0 
L 2575 419 
Q 2259 -75 1647 -75 
Q 1250 -75 917 144 
Q 584 363 401 755 
Q 219 1147 219 1656 
Q 219 2153 384 2558 
Q 550 2963 881 3178 
Q 1213 3394 1622 3394 
Q 1922 3394 2156 3267 
Q 2391 3141 2538 2938 
L 2538 4581 
L 3097 4581 
L 3097 0 
L 2575 0 
z
M 797 1656 
Q 797 1019 1065 703 
Q 1334 388 1700 388 
Q 2069 388 2326 689 
Q 2584 991 2584 1609 
Q 2584 2291 2321 2609 
Q 2059 2928 1675 2928 
Q 1300 2928 1048 2622 
Q 797 2316 797 1656 
z
" id="ArialMT-64" transform="scale(0.015625)"/>
       <path d="M 791 -1347 
L 388 -1347 
Q 1322 153 1322 1656 
Q 1322 2244 1188 2822 
Q 1081 3291 891 3722 
Q 769 4003 388 4659 
L 791 4659 
Q 1378 3875 1659 3084 
Q 1900 2403 1900 1659 
Q 1900 816 1576 28 
Q 1253 -759 791 -1347 
z
" id="ArialMT-29" transform="scale(0.015625)"/>
      </defs>
      <use transform="translate(0 0.015625)" xlink:href="#DejaVuSans-Oblique-68"/>
      <use transform="translate(63.378906 0.015625)" xlink:href="#DejaVuSans-28"/>
      <use transform="translate(102.392578 0.015625)" xlink:href="#DejaVuSans-Oblique-74"/>
      <use transform="translate(141.601562 0.015625)" xlink:href="#DejaVuSans-29"/>
      <use transform="translate(180.615234 0.015625)" xlink:href="#ArialMT-20"/>
      <use transform="translate(208.398438 0.015625)" xlink:href="#ArialMT-28"/>
      <use transform="translate(241.699219 0.015625)" xlink:href="#ArialMT-77"/>
      <use transform="translate(313.916016 0.015625)" xlink:href="#ArialMT-68"/>
      <use transform="translate(369.53125 0.015625)" xlink:href="#ArialMT-69"/>
      <use transform="translate(391.748047 0.015625)" xlink:href="#ArialMT-74"/>
      <use transform="translate(419.53125 0.015625)" xlink:href="#ArialMT-65"/>
      <use transform="translate(475.146484 0.015625)" xlink:href="#ArialMT-6e"/>
      <use transform="translate(530.761719 0.015625)" xlink:href="#ArialMT-65"/>
      <use transform="translate(586.376953 0.015625)" xlink:href="#ArialMT-64"/>
      <use transform="translate(641.992188 0.015625)" xlink:href="#ArialMT-29"/>
     </g>
    </g>
   </g>
   <g id="line2d_13">
    <path clip-path="url(#pa6ba69c7a6)" d="M 60.219901 114.434674 
L 61.413483 171.770369 
L 62.607066 101.160684 
L 63.800649 141.898256 
L 64.994232 143.145817 
L 66.187815 97.369985 
L 67.381398 107.645258 
L 68.574981 136.989324 
L 69.768564 140.589228 
L 70.962147 121.101503 
L 72.155729 141.023919 
L 73.349312 134.337994 
L 74.542895 88.001845 
L 75.736478 134.859741 
L 76.930061 130.917018 
L 78.123644 122.8306 
L 79.317227 133.835746 
L 80.51081 103.584385 
L 81.704393 125.915469 
L 82.897975 126.293522 
L 84.091558 183.6153 
L 85.285141 90.453376 
L 86.478724 114.404597 
L 87.672307 131.369943 
L 88.86589 88.629289 
L 90.059473 142.116059 
L 91.253056 126.485341 
L 92.446639 98.414713 
L 93.640221 119.77254 
L 94.833804 98.451243 
L 96.027387 143.885113 
L 97.22097 114.449275 
L 98.414553 136.219931 
L 99.608136 123.044848 
L 100.801719 119.7807 
L 101.995302 144.363028 
L 103.188885 119.53804 
L 104.382467 112.302204 
L 105.57605 128.160416 
L 106.769633 151.336925 
L 107.963216 125.159427 
L 109.156799 148.263537 
L 110.350382 119.831368 
L 111.543965 123.932123 
L 112.737548 144.007111 
L 113.931131 142.751833 
L 115.124713 120.927978 
L 116.318296 93.149228 
L 117.511879 107.508395 
L 118.705462 163.928352 
L 121.092628 102.615202 
L 122.286211 146.343282 
L 123.479794 149.641437 
L 124.673377 122.928318 
L 125.866959 129.898493 
L 127.060542 121.64402 
L 128.254125 80.641093 
L 129.447708 119.353418 
L 130.641291 135.212044 
L 131.834874 113.007195 
L 133.028457 130.923126 
L 134.22204 134.067627 
L 135.415622 101.505967 
L 137.802788 176.639808 
L 138.996371 120.734977 
L 140.189954 144.678541 
L 141.383537 102.363763 
L 142.57712 82.818138 
L 143.770703 140.719376 
L 144.964286 97.411871 
L 146.157868 104.923818 
L 147.351451 124.492504 
L 148.545034 146.860877 
L 149.738617 164.325746 
L 150.9322 125.890589 
L 152.125783 136.229467 
L 153.319366 139.518961 
L 154.512949 129.230404 
L 155.706532 121.393212 
L 156.900114 116.122782 
L 158.093697 101.060759 
L 159.28728 140.551109 
L 160.480863 125.638402 
L 161.674446 126.332627 
L 162.868029 128.455165 
L 164.061612 119.732248 
L 165.255195 120.26889 
L 166.448778 108.821013 
L 167.64236 125.655482 
L 168.835943 115.005757 
L 170.029526 122.098343 
L 171.223109 124.938443 
L 172.416692 80.011532 
L 173.610275 130.873451 
L 174.803858 119.868458 
L 175.997441 135.191692 
L 177.191024 136.816703 
L 178.384606 96.022641 
L 179.578189 142.36715 
L 180.771772 95.909536 
L 181.965355 118.666435 
L 183.158938 133.796282 
L 185.546104 112.190355 
L 186.739687 146.396099 
L 187.93327 129.543361 
L 190.320435 132.549001 
L 191.514018 139.008075 
L 193.901184 130.15334 
L 195.094767 113.174456 
L 196.28835 148.294276 
L 197.481933 129.977759 
L 198.675516 135.755486 
L 201.062681 101.411409 
L 202.256264 104.697227 
L 203.449847 115.145775 
L 204.64343 85.832123 
L 205.837013 110.874879 
L 207.030596 99.37881 
L 208.224179 101.556928 
L 209.417762 115.360875 
L 210.611344 104.0207 
L 211.804927 120.541022 
L 212.99851 134.662203 
L 214.192093 114.783682 
L 215.385676 159.177728 
L 216.579259 167.447846 
L 217.772842 137.482131 
L 218.966425 156.396569 
L 220.160008 106.17607 
L 221.35359 127.223276 
L 222.547173 100.173373 
L 223.740756 134.438885 
L 224.934339 122.813322 
L 226.127922 126.646883 
L 227.321505 145.917195 
L 228.515088 122.096687 
L 229.708671 128.87395 
L 230.902254 123.917239 
L 232.095836 63.701096 
L 233.289419 132.349664 
L 234.483002 98.119021 
L 235.676585 121.357515 
L 236.870168 104.792386 
L 238.063751 136.241232 
L 239.257334 110.868745 
L 240.450917 145.034762 
L 241.644499 152.148345 
L 242.838082 146.551684 
L 244.031665 150.428875 
L 245.225248 132.078383 
L 246.418831 158.568753 
L 247.612414 143.439693 
L 248.805997 136.681271 
L 249.99958 123.582894 
L 251.193163 125.59056 
L 252.386745 107.491477 
L 253.580328 104.04714 
L 254.773911 94.912897 
L 255.967494 105.570432 
L 257.161077 103.733862 
L 258.35466 95.66979 
L 259.548243 93.500596 
L 260.741826 127.157791 
L 261.935409 109.590348 
L 263.128991 118.258662 
L 264.322574 121.724315 
L 265.516157 171.731562 
L 266.70974 175.641014 
L 267.903323 122.218532 
L 269.096906 134.301382 
L 270.290489 159.245573 
L 271.484072 120.696043 
L 272.677655 139.867746 
L 273.871237 148.567141 
L 275.06482 150.207638 
L 276.258403 123.842492 
L 277.451986 88.614854 
L 278.645569 133.998746 
L 279.839152 73.541384 
L 281.032735 36.291126 
L 282.226318 111.469648 
L 283.419901 125.354966 
L 284.613483 137.498138 
L 287.000649 176.963091 
L 288.194232 191.506921 
L 289.387815 151.010385 
L 290.581398 163.605558 
L 291.774981 125.547141 
L 292.968564 136.518839 
L 294.162147 107.361008 
L 295.355729 53.985911 
L 296.549312 66.556792 
L 297.742895 82.557226 
L 298.936478 118.17053 
L 300.130061 175.881134 
L 301.323644 202.41739 
L 302.517227 194.712264 
L 303.71081 143.839817 
L 306.097975 17.083636 
L 307.291558 38.906058 
L 308.485141 151.196407 
L 309.678724 214.756364 
L 310.872307 184.17572 
L 312.06589 71.999103 
L 313.259473 73.992996 
L 314.453056 178.142965 
L 315.646639 173.770527 
L 316.840221 110.137013 
L 318.033804 119.14089 
L 319.227387 157.196615 
L 320.42097 127.849132 
L 321.614553 129.895167 
L 322.808136 100.086941 
L 324.001719 118.189347 
L 325.195302 147.212499 
L 326.388885 118.188943 
L 327.582467 118.650013 
L 328.77605 126.351629 
L 329.969633 137.741049 
L 332.356799 107.864281 
L 333.550382 144.964301 
L 334.743965 137.129139 
L 335.937548 145.650142 
L 337.131131 114.568793 
L 338.324713 104.72293 
L 339.518296 132.040956 
L 340.711879 122.562953 
L 341.905462 133.906738 
L 343.099045 161.166115 
L 344.292628 111.701674 
L 345.486211 119.477286 
L 346.679794 105.869379 
L 349.066959 131.585319 
L 350.260542 100.999136 
L 351.454125 113.220728 
L 352.647708 107.650923 
L 353.841291 119.142943 
L 355.034874 127.830069 
L 356.228457 114.100119 
L 357.42204 163.459292 
L 358.615622 138.46278 
L 359.809205 125.39007 
L 361.002788 123.355162 
L 362.196371 115.473946 
L 363.389954 113.924148 
L 364.583537 104.068805 
L 364.583537 104.068805 
" style="fill:none;stroke:#0173b2;stroke-linecap:round;stroke-width:1.5;"/>
   </g>
   <g id="patch_3">
    <path d="M 45.001719 224.64 
L 45.001719 7.2 
" style="fill:none;stroke:#262626;stroke-linecap:square;stroke-linejoin:miter;stroke-width:1.25;"/>
   </g>
   <g id="patch_4">
    <path d="M 379.801719 224.64 
L 379.801719 7.2 
" style="fill:none;stroke:#262626;stroke-linecap:square;stroke-linejoin:miter;stroke-width:1.25;"/>
   </g>
   <g id="patch_5">
    <path d="M 45.001719 224.64 
L 379.801719 224.64 
" style="fill:none;stroke:#262626;stroke-linecap:square;stroke-linejoin:miter;stroke-width:1.25;"/>
   </g>
   <g id="patch_6">
    <path d="M 45.001719 7.2 
L 379.801719 7.2 
" style="fill:none;stroke:#262626;stroke-linecap:square;stroke-linejoin:miter;stroke-width:1.25;"/>
   </g>
  </g>
 </g>
 <defs>
  <clipPath id="pa6ba69c7a6">
   <rect height="217.44" width="334.8" x="45.001719" y="7.2"/>
  </clipPath>
 </defs>
</svg>
