<?xml version="1.0" encoding="utf-8" standalone="no"?>
<!DOCTYPE svg PUBLIC "-//W3C//DTD SVG 1.1//EN"
  "http://www.w3.org/Graphics/SVG/1.1/DTD/svg11.dtd">
<svg height="251.732662pt" version="1.1" viewBox="0 0 371.241719 251.732662" width="371.241719pt" xmlns="http://www.w3.org/2000/svg" xmlns:xlink="http://www.w3.org/1999/xlink">
 <metadata>
  <rdf:RDF xmlns:cc="http://creativecommons.org/ns#" xmlns:dc="http://purl.org/dc/elements/1.1/" xmlns:rdf="http://www.w3.org/1999/02/22-rdf-syntax-ns#">
   <cc:Work>
    <dc:type rdf:resource="http://purl.org/dc/dcmitype/StillImage"/>
    <dc:date>2021-10-21T13:42:33.661247</dc:date>
    <dc:format>image/svg+xml</dc:format>
    <dc:creator>
     <cc:Agent>
      <dc:title>Matplotlib v3.4.3, https://matplotlib.org/</dc:title>
     </cc:Agent>
    </dc:creator>
   </cc:Work>
  </rdf:RDF>
 </metadata>
 <defs>
  <style type="text/css">*{stroke-linecap:butt;stroke-linejoin:round;}</style>
 </defs>
 <g id="figure_1">
  <g id="patch_1">
   <path d="M 0 251.732662 
L 371.241719 251.732662 
L 371.241719 0 
L 0 0 
z
" style="fill:#ffffff;"/>
  </g>
  <g id="axes_1">
   <g id="patch_2">
    <path d="M 29.241719 224.972818 
L 364.041719 224.972818 
L 364.041719 7.532818 
L 29.241719 7.532818 
z
" style="fill:#ffffff;"/>
   </g>
   <g id="matplotlib.axis_1">
    <g id="xtick_1">
     <g id="line2d_1">
      <defs>
       <path d="M 0 0 
L 0 6 
" id="m0178818153" style="stroke:#262626;stroke-width:1.25;"/>
      </defs>
      <g>
       <use style="fill:#262626;stroke:#262626;stroke-width:1.25;" x="44.459901" xlink:href="#m0178818153" y="224.972818"/>
      </g>
     </g>
     <g id="text_1">
      <!-- −1.00 -->
      <g style="fill:#262626;" transform="translate(30.544041 242.346412)scale(0.11 -0.11)">
       <defs>
        <path d="M 3381 1997 
L 356 1997 
L 356 2522 
L 3381 2522 
L 3381 1997 
z
" id="ArialMT-2212" transform="scale(0.015625)"/>
        <path d="M 2384 0 
L 1822 0 
L 1822 3584 
Q 1619 3391 1289 3197 
Q 959 3003 697 2906 
L 697 3450 
Q 1169 3672 1522 3987 
Q 1875 4303 2022 4600 
L 2384 4600 
L 2384 0 
z
" id="ArialMT-31" transform="scale(0.015625)"/>
        <path d="M 581 0 
L 581 641 
L 1222 641 
L 1222 0 
L 581 0 
z
" id="ArialMT-2e" transform="scale(0.015625)"/>
        <path d="M 266 2259 
Q 266 3072 433 3567 
Q 600 4063 929 4331 
Q 1259 4600 1759 4600 
Q 2128 4600 2406 4451 
Q 2684 4303 2865 4023 
Q 3047 3744 3150 3342 
Q 3253 2941 3253 2259 
Q 3253 1453 3087 958 
Q 2922 463 2592 192 
Q 2263 -78 1759 -78 
Q 1097 -78 719 397 
Q 266 969 266 2259 
z
M 844 2259 
Q 844 1131 1108 757 
Q 1372 384 1759 384 
Q 2147 384 2411 759 
Q 2675 1134 2675 2259 
Q 2675 3391 2411 3762 
Q 2147 4134 1753 4134 
Q 1366 4134 1134 3806 
Q 844 3388 844 2259 
z
" id="ArialMT-30" transform="scale(0.015625)"/>
       </defs>
       <use xlink:href="#ArialMT-2212"/>
       <use x="58.398438" xlink:href="#ArialMT-31"/>
       <use x="114.013672" xlink:href="#ArialMT-2e"/>
       <use x="141.796875" xlink:href="#ArialMT-30"/>
       <use x="197.412109" xlink:href="#ArialMT-30"/>
      </g>
     </g>
    </g>
    <g id="xtick_2">
     <g id="line2d_2">
      <g>
       <use style="fill:#262626;stroke:#262626;stroke-width:1.25;" x="82.505355" xlink:href="#m0178818153" y="224.972818"/>
      </g>
     </g>
     <g id="text_2">
      <!-- −0.75 -->
      <g style="fill:#262626;" transform="translate(68.589496 242.346412)scale(0.11 -0.11)">
       <defs>
        <path d="M 303 3981 
L 303 4522 
L 3269 4522 
L 3269 4084 
Q 2831 3619 2401 2847 
Q 1972 2075 1738 1259 
Q 1569 684 1522 0 
L 944 0 
Q 953 541 1156 1306 
Q 1359 2072 1739 2783 
Q 2119 3494 2547 3981 
L 303 3981 
z
" id="ArialMT-37" transform="scale(0.015625)"/>
        <path d="M 266 1200 
L 856 1250 
Q 922 819 1161 601 
Q 1400 384 1738 384 
Q 2144 384 2425 690 
Q 2706 997 2706 1503 
Q 2706 1984 2436 2262 
Q 2166 2541 1728 2541 
Q 1456 2541 1237 2417 
Q 1019 2294 894 2097 
L 366 2166 
L 809 4519 
L 3088 4519 
L 3088 3981 
L 1259 3981 
L 1013 2750 
Q 1425 3038 1878 3038 
Q 2478 3038 2890 2622 
Q 3303 2206 3303 1553 
Q 3303 931 2941 478 
Q 2500 -78 1738 -78 
Q 1113 -78 717 272 
Q 322 622 266 1200 
z
" id="ArialMT-35" transform="scale(0.015625)"/>
       </defs>
       <use xlink:href="#ArialMT-2212"/>
       <use x="58.398438" xlink:href="#ArialMT-30"/>
       <use x="114.013672" xlink:href="#ArialMT-2e"/>
       <use x="141.796875" xlink:href="#ArialMT-37"/>
       <use x="197.412109" xlink:href="#ArialMT-35"/>
      </g>
     </g>
    </g>
    <g id="xtick_3">
     <g id="line2d_3">
      <g>
       <use style="fill:#262626;stroke:#262626;stroke-width:1.25;" x="120.55081" xlink:href="#m0178818153" y="224.972818"/>
      </g>
     </g>
     <g id="text_3">
      <!-- −0.50 -->
      <g style="fill:#262626;" transform="translate(106.63495 242.346412)scale(0.11 -0.11)">
       <use xlink:href="#ArialMT-2212"/>
       <use x="58.398438" xlink:href="#ArialMT-30"/>
       <use x="114.013672" xlink:href="#ArialMT-2e"/>
       <use x="141.796875" xlink:href="#ArialMT-35"/>
       <use x="197.412109" xlink:href="#ArialMT-30"/>
      </g>
     </g>
    </g>
    <g id="xtick_4">
     <g id="line2d_4">
      <g>
       <use style="fill:#262626;stroke:#262626;stroke-width:1.25;" x="158.596264" xlink:href="#m0178818153" y="224.972818"/>
      </g>
     </g>
     <g id="text_4">
      <!-- −0.25 -->
      <g style="fill:#262626;" transform="translate(144.680405 242.346412)scale(0.11 -0.11)">
       <defs>
        <path d="M 3222 541 
L 3222 0 
L 194 0 
Q 188 203 259 391 
Q 375 700 629 1000 
Q 884 1300 1366 1694 
Q 2113 2306 2375 2664 
Q 2638 3022 2638 3341 
Q 2638 3675 2398 3904 
Q 2159 4134 1775 4134 
Q 1369 4134 1125 3890 
Q 881 3647 878 3216 
L 300 3275 
Q 359 3922 746 4261 
Q 1134 4600 1788 4600 
Q 2447 4600 2831 4234 
Q 3216 3869 3216 3328 
Q 3216 3053 3103 2787 
Q 2991 2522 2730 2228 
Q 2469 1934 1863 1422 
Q 1356 997 1212 845 
Q 1069 694 975 541 
L 3222 541 
z
" id="ArialMT-32" transform="scale(0.015625)"/>
       </defs>
       <use xlink:href="#ArialMT-2212"/>
       <use x="58.398438" xlink:href="#ArialMT-30"/>
       <use x="114.013672" xlink:href="#ArialMT-2e"/>
       <use x="141.796875" xlink:href="#ArialMT-32"/>
       <use x="197.412109" xlink:href="#ArialMT-35"/>
      </g>
     </g>
    </g>
    <g id="xtick_5">
     <g id="line2d_5">
      <g>
       <use style="fill:#262626;stroke:#262626;stroke-width:1.25;" x="196.641719" xlink:href="#m0178818153" y="224.972818"/>
      </g>
     </g>
     <g id="text_5">
      <!-- 0.00 -->
      <g style="fill:#262626;" transform="translate(185.938203 242.346412)scale(0.11 -0.11)">
       <use xlink:href="#ArialMT-30"/>
       <use x="55.615234" xlink:href="#ArialMT-2e"/>
       <use x="83.398438" xlink:href="#ArialMT-30"/>
       <use x="139.013672" xlink:href="#ArialMT-30"/>
      </g>
     </g>
    </g>
    <g id="xtick_6">
     <g id="line2d_6">
      <g>
       <use style="fill:#262626;stroke:#262626;stroke-width:1.25;" x="234.687173" xlink:href="#m0178818153" y="224.972818"/>
      </g>
     </g>
     <g id="text_6">
      <!-- 0.25 -->
      <g style="fill:#262626;" transform="translate(223.983658 242.346412)scale(0.11 -0.11)">
       <use xlink:href="#ArialMT-30"/>
       <use x="55.615234" xlink:href="#ArialMT-2e"/>
       <use x="83.398438" xlink:href="#ArialMT-32"/>
       <use x="139.013672" xlink:href="#ArialMT-35"/>
      </g>
     </g>
    </g>
    <g id="xtick_7">
     <g id="line2d_7">
      <g>
       <use style="fill:#262626;stroke:#262626;stroke-width:1.25;" x="272.732628" xlink:href="#m0178818153" y="224.972818"/>
      </g>
     </g>
     <g id="text_7">
      <!-- 0.50 -->
      <g style="fill:#262626;" transform="translate(262.029112 242.346412)scale(0.11 -0.11)">
       <use xlink:href="#ArialMT-30"/>
       <use x="55.615234" xlink:href="#ArialMT-2e"/>
       <use x="83.398438" xlink:href="#ArialMT-35"/>
       <use x="139.013672" xlink:href="#ArialMT-30"/>
      </g>
     </g>
    </g>
    <g id="xtick_8">
     <g id="line2d_8">
      <g>
       <use style="fill:#262626;stroke:#262626;stroke-width:1.25;" x="310.778082" xlink:href="#m0178818153" y="224.972818"/>
      </g>
     </g>
     <g id="text_8">
      <!-- 0.75 -->
      <g style="fill:#262626;" transform="translate(300.074567 242.346412)scale(0.11 -0.11)">
       <use xlink:href="#ArialMT-30"/>
       <use x="55.615234" xlink:href="#ArialMT-2e"/>
       <use x="83.398438" xlink:href="#ArialMT-37"/>
       <use x="139.013672" xlink:href="#ArialMT-35"/>
      </g>
     </g>
    </g>
    <g id="xtick_9">
     <g id="line2d_9">
      <g>
       <use style="fill:#262626;stroke:#262626;stroke-width:1.25;" x="348.823537" xlink:href="#m0178818153" y="224.972818"/>
      </g>
     </g>
     <g id="text_9">
      <!-- 1.00 -->
      <g style="fill:#262626;" transform="translate(338.120021 242.346412)scale(0.11 -0.11)">
       <use xlink:href="#ArialMT-31"/>
       <use x="55.615234" xlink:href="#ArialMT-2e"/>
       <use x="83.398438" xlink:href="#ArialMT-30"/>
       <use x="139.013672" xlink:href="#ArialMT-30"/>
      </g>
     </g>
    </g>
   </g>
   <g id="matplotlib.axis_2">
    <g id="ytick_1">
     <g id="line2d_10">
      <defs>
       <path d="M 0 0 
L -6 0 
" id="mc18045fa5f" style="stroke:#262626;stroke-width:1.25;"/>
      </defs>
      <g>
       <use style="fill:#262626;stroke:#262626;stroke-width:1.25;" x="29.241719" xlink:href="#mc18045fa5f" y="218.131418"/>
      </g>
     </g>
     <g id="text_10">
      <!-- −8 -->
      <g style="fill:#262626;" transform="translate(7.2 222.068215)scale(0.11 -0.11)">
       <defs>
        <path d="M 1131 2484 
Q 781 2613 612 2850 
Q 444 3088 444 3419 
Q 444 3919 803 4259 
Q 1163 4600 1759 4600 
Q 2359 4600 2725 4251 
Q 3091 3903 3091 3403 
Q 3091 3084 2923 2848 
Q 2756 2613 2416 2484 
Q 2838 2347 3058 2040 
Q 3278 1734 3278 1309 
Q 3278 722 2862 322 
Q 2447 -78 1769 -78 
Q 1091 -78 675 323 
Q 259 725 259 1325 
Q 259 1772 486 2073 
Q 713 2375 1131 2484 
z
M 1019 3438 
Q 1019 3113 1228 2906 
Q 1438 2700 1772 2700 
Q 2097 2700 2305 2904 
Q 2513 3109 2513 3406 
Q 2513 3716 2298 3927 
Q 2084 4138 1766 4138 
Q 1444 4138 1231 3931 
Q 1019 3725 1019 3438 
z
M 838 1322 
Q 838 1081 952 856 
Q 1066 631 1291 507 
Q 1516 384 1775 384 
Q 2178 384 2440 643 
Q 2703 903 2703 1303 
Q 2703 1709 2433 1975 
Q 2163 2241 1756 2241 
Q 1359 2241 1098 1978 
Q 838 1716 838 1322 
z
" id="ArialMT-38" transform="scale(0.015625)"/>
       </defs>
       <use xlink:href="#ArialMT-2212"/>
       <use x="58.398438" xlink:href="#ArialMT-38"/>
      </g>
     </g>
    </g>
    <g id="ytick_2">
     <g id="line2d_11">
      <g>
       <use style="fill:#262626;stroke:#262626;stroke-width:1.25;" x="29.241719" xlink:href="#mc18045fa5f" y="192.257091"/>
      </g>
     </g>
     <g id="text_11">
      <!-- −6 -->
      <g style="fill:#262626;" transform="translate(7.2 196.193887)scale(0.11 -0.11)">
       <defs>
        <path d="M 3184 3459 
L 2625 3416 
Q 2550 3747 2413 3897 
Q 2184 4138 1850 4138 
Q 1581 4138 1378 3988 
Q 1113 3794 959 3422 
Q 806 3050 800 2363 
Q 1003 2672 1297 2822 
Q 1591 2972 1913 2972 
Q 2475 2972 2870 2558 
Q 3266 2144 3266 1488 
Q 3266 1056 3080 686 
Q 2894 316 2569 119 
Q 2244 -78 1831 -78 
Q 1128 -78 684 439 
Q 241 956 241 2144 
Q 241 3472 731 4075 
Q 1159 4600 1884 4600 
Q 2425 4600 2770 4297 
Q 3116 3994 3184 3459 
z
M 888 1484 
Q 888 1194 1011 928 
Q 1134 663 1356 523 
Q 1578 384 1822 384 
Q 2178 384 2434 671 
Q 2691 959 2691 1453 
Q 2691 1928 2437 2201 
Q 2184 2475 1800 2475 
Q 1419 2475 1153 2201 
Q 888 1928 888 1484 
z
" id="ArialMT-36" transform="scale(0.015625)"/>
       </defs>
       <use xlink:href="#ArialMT-2212"/>
       <use x="58.398438" xlink:href="#ArialMT-36"/>
      </g>
     </g>
    </g>
    <g id="ytick_3">
     <g id="line2d_12">
      <g>
       <use style="fill:#262626;stroke:#262626;stroke-width:1.25;" x="29.241719" xlink:href="#mc18045fa5f" y="166.382763"/>
      </g>
     </g>
     <g id="text_12">
      <!-- −4 -->
      <g style="fill:#262626;" transform="translate(7.2 170.31956)scale(0.11 -0.11)">
       <defs>
        <path d="M 2069 0 
L 2069 1097 
L 81 1097 
L 81 1613 
L 2172 4581 
L 2631 4581 
L 2631 1613 
L 3250 1613 
L 3250 1097 
L 2631 1097 
L 2631 0 
L 2069 0 
z
M 2069 1613 
L 2069 3678 
L 634 1613 
L 2069 1613 
z
" id="ArialMT-34" transform="scale(0.015625)"/>
       </defs>
       <use xlink:href="#ArialMT-2212"/>
       <use x="58.398438" xlink:href="#ArialMT-34"/>
      </g>
     </g>
    </g>
    <g id="ytick_4">
     <g id="line2d_13">
      <g>
       <use style="fill:#262626;stroke:#262626;stroke-width:1.25;" x="29.241719" xlink:href="#mc18045fa5f" y="140.508435"/>
      </g>
     </g>
     <g id="text_13">
      <!-- −2 -->
      <g style="fill:#262626;" transform="translate(7.2 144.445232)scale(0.11 -0.11)">
       <use xlink:href="#ArialMT-2212"/>
       <use x="58.398438" xlink:href="#ArialMT-32"/>
      </g>
     </g>
    </g>
    <g id="ytick_5">
     <g id="line2d_14">
      <g>
       <use style="fill:#262626;stroke:#262626;stroke-width:1.25;" x="29.241719" xlink:href="#mc18045fa5f" y="114.634108"/>
      </g>
     </g>
     <g id="text_14">
      <!-- 0 -->
      <g style="fill:#262626;" transform="translate(13.624688 118.570904)scale(0.11 -0.11)">
       <use xlink:href="#ArialMT-30"/>
      </g>
     </g>
    </g>
    <g id="ytick_6">
     <g id="line2d_15">
      <g>
       <use style="fill:#262626;stroke:#262626;stroke-width:1.25;" x="29.241719" xlink:href="#mc18045fa5f" y="88.75978"/>
      </g>
     </g>
     <g id="text_15">
      <!-- 2 -->
      <g style="fill:#262626;" transform="translate(13.624688 92.696577)scale(0.11 -0.11)">
       <use xlink:href="#ArialMT-32"/>
      </g>
     </g>
    </g>
    <g id="ytick_7">
     <g id="line2d_16">
      <g>
       <use style="fill:#262626;stroke:#262626;stroke-width:1.25;" x="29.241719" xlink:href="#mc18045fa5f" y="62.885452"/>
      </g>
     </g>
     <g id="text_16">
      <!-- 4 -->
      <g style="fill:#262626;" transform="translate(13.624688 66.822249)scale(0.11 -0.11)">
       <use xlink:href="#ArialMT-34"/>
      </g>
     </g>
    </g>
    <g id="ytick_8">
     <g id="line2d_17">
      <g>
       <use style="fill:#262626;stroke:#262626;stroke-width:1.25;" x="29.241719" xlink:href="#mc18045fa5f" y="37.011125"/>
      </g>
     </g>
     <g id="text_17">
      <!-- 6 -->
      <g style="fill:#262626;" transform="translate(13.624688 40.947921)scale(0.11 -0.11)">
       <use xlink:href="#ArialMT-36"/>
      </g>
     </g>
    </g>
    <g id="ytick_9">
     <g id="line2d_18">
      <g>
       <use style="fill:#262626;stroke:#262626;stroke-width:1.25;" x="29.241719" xlink:href="#mc18045fa5f" y="11.136797"/>
      </g>
     </g>
     <g id="text_18">
      <!-- 8 -->
      <g style="fill:#262626;" transform="translate(13.624688 15.073594)scale(0.11 -0.11)">
       <use xlink:href="#ArialMT-38"/>
      </g>
     </g>
    </g>
   </g>
   <g id="line2d_19">
    <path clip-path="url(#p9888794a20)" d="M 44.459901 155.701157 
L 46.856465 156.593569 
L 49.253029 154.443985 
L 51.649593 149.45563 
L 54.046157 142.276536 
L 58.839285 125.478128 
L 61.235849 118.116719 
L 63.632413 112.647881 
L 66.028977 109.489382 
L 68.425541 108.597222 
L 70.822105 109.53162 
L 73.218669 111.608294 
L 75.615233 114.081041 
L 78.011797 116.29462 
L 80.408362 117.764255 
L 82.804926 118.172832 
L 85.20149 117.314004 
L 87.598054 115.032158 
L 89.994618 111.208059 
L 92.391182 105.81171 
L 94.787746 99.004628 
L 99.580874 83.293915 
L 101.977438 76.194434 
L 104.374002 71.026639 
L 106.770566 68.67839 
L 109.16713 69.594584 
L 111.563694 73.627428 
L 113.960258 80.03805 
L 118.753387 95.14873 
L 121.149951 101.32739 
L 123.546515 105.39042 
L 125.943079 107.052547 
L 128.339643 106.52975 
L 130.736207 104.404196 
L 137.925899 95.533815 
L 140.322463 93.405324 
L 142.719027 91.922797 
L 145.115591 90.927593 
L 149.908719 89.443131 
L 152.305284 88.525997 
L 154.701848 87.297149 
L 157.098412 85.66177 
L 159.494976 83.53032 
L 161.89154 80.793981 
L 164.288104 77.320568 
L 166.684668 72.975412 
L 169.081232 67.663312 
L 171.477796 61.380952 
L 173.87436 54.264609 
L 181.064052 31.655287 
L 183.460616 25.479427 
L 185.85718 20.858824 
L 188.253745 18.125023 
L 190.650309 17.416455 
L 193.046873 18.706019 
L 195.443437 21.873878 
L 197.840001 26.791179 
L 200.236565 33.374243 
L 202.633129 41.581016 
L 205.029693 51.347473 
L 207.426257 62.48964 
L 214.615949 99.037536 
L 217.012513 109.538987 
L 219.409077 117.700596 
L 221.805641 122.867199 
L 224.202206 124.741438 
L 226.59877 123.445351 
L 228.995334 119.502311 
L 231.391898 113.746143 
L 236.185026 100.808596 
L 238.58159 95.495803 
L 240.978154 91.840588 
L 243.374718 90.12156 
L 245.771282 90.292964 
L 248.167846 92.029236 
L 250.56441 94.799174 
L 252.960974 97.95084 
L 255.357538 100.793751 
L 257.754102 102.673568 
L 260.150666 103.040457 
L 262.547231 101.512791 
L 264.943795 97.932637 
L 267.340359 92.403003 
L 269.736923 85.293406 
L 276.926615 61.107464 
L 279.323179 54.567671 
L 281.719743 49.728959 
L 284.116307 46.761651 
L 286.512871 45.517264 
L 288.909435 45.574681 
L 293.702563 47.221159 
L 296.099127 47.710627 
L 298.495692 47.563285 
L 300.892256 46.820934 
L 303.28882 45.80541 
L 305.685384 45.042655 
L 308.081948 45.14623 
L 310.478512 46.691057 
L 312.875076 50.107903 
L 315.27164 55.619928 
L 317.668204 63.228178 
L 320.064768 72.737574 
L 322.461332 83.804005 
L 324.857896 95.980851 
L 332.047588 133.716123 
L 334.444153 144.644663 
L 336.840717 153.712467 
L 339.237281 160.436885 
L 341.633845 164.564284 
L 344.030409 166.145565 
L 346.426973 165.544973 
L 348.823537 163.360834 
L 348.823537 163.360834 
" style="fill:none;stroke:#0173b2;stroke-linecap:round;stroke-width:1.5;"/>
   </g>
   <g id="line2d_20">
    <path clip-path="url(#p9888794a20)" d="M 44.459901 57.546797 
L 46.856465 58.888142 
L 49.253029 61.273196 
L 51.649593 64.699698 
L 54.046157 69.005372 
L 58.839285 78.59796 
L 61.235849 82.683343 
L 63.632413 85.469838 
L 66.028977 86.540155 
L 68.425541 85.792855 
L 70.822105 83.502031 
L 75.615233 76.991289 
L 78.011797 74.486778 
L 80.408362 73.460869 
L 82.804926 74.233418 
L 85.20149 76.665317 
L 87.598054 80.189628 
L 89.994618 83.963889 
L 92.391182 87.103495 
L 94.787746 88.927597 
L 97.18431 89.141201 
L 99.580874 87.896211 
L 101.977438 85.714141 
L 104.374002 83.301452 
L 106.770566 81.325117 
L 109.16713 80.227054 
L 111.563694 80.136389 
L 113.960258 80.896987 
L 116.356823 82.183265 
L 121.149951 85.040709 
L 123.546515 86.262077 
L 128.339643 88.349663 
L 133.132771 90.226676 
L 135.529335 90.842923 
L 137.925899 90.922758 
L 140.322463 90.221569 
L 142.719027 88.61613 
L 145.115591 86.187439 
L 149.908719 80.293513 
L 152.305284 77.910279 
L 154.701848 76.642429 
L 157.098412 76.891582 
L 159.494976 78.860886 
L 161.89154 82.556589 
L 164.288104 87.830795 
L 166.684668 94.439021 
L 169.081232 102.089486 
L 171.477796 110.473119 
L 178.667488 136.792554 
L 181.064052 144.749351 
L 183.460616 151.551766 
L 185.85718 156.628342 
L 188.253745 159.348755 
L 190.650309 159.107851 
L 193.046873 155.462156 
L 195.443437 148.287619 
L 197.840001 137.904765 
L 200.236565 125.114179 
L 205.029693 97.261941 
L 207.426257 84.864912 
L 209.822821 74.85488 
L 212.219385 67.649295 
L 214.615949 63.112855 
L 217.012513 60.667485 
L 219.409077 59.502524 
L 224.202206 58.024426 
L 226.59877 56.876892 
L 228.995334 55.48993 
L 231.391898 54.289352 
L 233.788462 53.907352 
L 236.185026 55.057879 
L 238.58159 58.407942 
L 240.978154 64.45011 
L 243.374718 73.378681 
L 245.771282 84.979843 
L 248.167846 98.559653 
L 250.56441 112.942339 
L 252.960974 126.567228 
L 255.357538 137.69214 
L 257.754102 144.680385 
L 260.150666 146.317812 
L 262.547231 142.088524 
L 264.943795 132.339651 
L 267.340359 118.287815 
L 272.133487 85.369152 
L 274.530051 71.167361 
L 276.926615 61.216524 
L 279.323179 56.791807 
L 281.719743 58.296145 
L 284.116307 65.245273 
L 286.512871 76.416416 
L 288.909435 90.123323 
L 291.305999 104.553771 
L 293.702563 118.092726 
L 296.099127 129.559694 
L 298.495692 138.31362 
L 300.892256 144.217553 
L 303.28882 147.49748 
L 305.685384 148.559614 
L 308.081948 147.836738 
L 310.478512 145.712534 
L 312.875076 142.533185 
L 320.064768 130.933293 
L 322.461332 128.290148 
L 324.857896 127.270248 
L 327.25446 128.257404 
L 329.651024 131.31418 
L 332.047588 136.131778 
L 339.237281 153.704597 
L 341.633845 157.643052 
L 344.030409 159.494222 
L 346.426973 159.087039 
L 348.823537 156.671355 
L 348.823537 156.671355 
" style="fill:none;stroke:#de8f05;stroke-linecap:round;stroke-width:1.5;"/>
   </g>
   <g id="line2d_21">
    <path clip-path="url(#p9888794a20)" d="M 44.459901 112.202208 
L 49.253029 125.537209 
L 54.046157 139.07794 
L 58.839285 152.088357 
L 63.632413 164.640505 
L 66.028977 170.561829 
L 68.425541 175.941594 
L 70.822105 180.453034 
L 73.218669 183.768193 
L 75.615233 185.639542 
L 78.011797 185.972803 
L 80.408362 184.873382 
L 82.804926 182.655657 
L 87.598054 176.948718 
L 89.994618 174.688367 
L 92.391182 173.565912 
L 94.787746 173.918336 
L 97.18431 175.795705 
L 99.580874 178.911488 
L 101.977438 182.650606 
L 104.374002 186.143081 
L 106.770566 188.394722 
L 109.16713 188.449678 
L 111.563694 185.55063 
L 113.960258 179.265069 
L 116.356823 169.559027 
L 118.753387 156.8154 
L 121.149951 141.80438 
L 125.943079 109.551538 
L 128.339643 94.996891 
L 130.736207 83.245175 
L 133.132771 75.321889 
L 135.529335 71.81985 
L 137.925899 72.787854 
L 140.322463 77.703162 
L 142.719027 85.541553 
L 147.512155 104.392364 
L 149.908719 112.52651 
L 152.305284 118.270013 
L 154.701848 121.017633 
L 157.098412 120.685941 
L 159.494976 117.675877 
L 161.89154 112.748293 
L 166.684668 100.870832 
L 169.081232 95.568463 
L 171.477796 91.382576 
L 173.87436 88.467165 
L 176.270924 86.738364 
L 178.667488 85.968184 
L 181.064052 85.878041 
L 183.460616 86.205774 
L 190.650309 87.796611 
L 193.046873 88.102928 
L 195.443437 88.154063 
L 197.840001 87.909116 
L 200.236565 87.380633 
L 205.029693 85.935708 
L 207.426257 85.493239 
L 209.822821 85.684899 
L 212.219385 86.873131 
L 214.615949 89.358543 
L 217.012513 93.313864 
L 219.409077 98.743014 
L 221.805641 105.474457 
L 224.202206 113.183784 
L 228.995334 129.693038 
L 231.391898 137.395477 
L 233.788462 143.93055 
L 236.185026 148.693679 
L 238.58159 151.139736 
L 240.978154 150.863203 
L 243.374718 147.685717 
L 245.771282 141.722989 
L 248.167846 133.402686 
L 250.56441 123.417699 
L 255.357538 101.888074 
L 257.754102 91.988008 
L 260.150666 83.492818 
L 262.547231 76.749038 
L 264.943795 71.90637 
L 267.340359 68.98402 
L 269.736923 67.945328 
L 272.133487 68.752968 
L 274.530051 71.387604 
L 276.926615 75.827328 
L 279.323179 81.999975 
L 281.719743 89.730171 
L 284.116307 98.705421 
L 291.305999 128.251398 
L 293.702563 137.192968 
L 296.099127 144.947872 
L 298.495692 151.253856 
L 300.892256 155.960213 
L 303.28882 158.99725 
L 305.685384 160.357443 
L 308.081948 160.106576 
L 310.478512 158.424373 
L 312.875076 155.65341 
L 317.668204 149.11369 
L 320.064768 146.758635 
L 322.461332 145.879401 
L 324.857896 146.811977 
L 327.25446 149.468899 
L 329.651024 153.29454 
L 332.047588 157.346108 
L 334.444153 160.496931 
L 336.840717 161.717024 
L 339.237281 160.35345 
L 341.633845 156.323067 
L 344.030409 150.151313 
L 348.823537 135.584659 
L 348.823537 135.584659 
" style="fill:none;stroke:#029e73;stroke-linecap:round;stroke-width:1.5;"/>
   </g>
   <g id="line2d_22">
    <path clip-path="url(#p9888794a20)" d="M 44.459901 115.225469 
L 46.856465 109.761306 
L 49.253029 102.819726 
L 51.649593 94.559865 
L 56.442721 75.682276 
L 58.839285 66.23868 
L 61.235849 57.690628 
L 63.632413 50.670835 
L 66.028977 45.683703 
L 68.425541 43.052139 
L 70.822105 42.88972 
L 73.218669 45.089283 
L 75.615233 49.318942 
L 78.011797 55.025662 
L 82.804926 67.7383 
L 85.20149 72.963599 
L 87.598054 76.381451 
L 89.994618 77.551344 
L 92.391182 76.47195 
L 94.787746 73.611154 
L 99.580874 66.092154 
L 101.977438 63.376443 
L 104.374002 62.267876 
L 106.770566 62.908749 
L 109.16713 64.991206 
L 116.356823 73.711759 
L 118.753387 75.946678 
L 121.149951 77.924972 
L 123.546515 80.213045 
L 125.943079 83.547465 
L 128.339643 88.64813 
L 130.736207 96.05322 
L 133.132771 106.009485 
L 135.529335 118.426275 
L 137.925899 132.882433 
L 145.115591 180.336113 
L 147.512155 194.011044 
L 149.908719 204.832131 
L 152.305284 211.997038 
L 154.701848 215.089182 
L 157.098412 214.187036 
L 159.494976 209.891845 
L 161.89154 203.244327 
L 166.684668 188.008682 
L 169.081232 181.638508 
L 171.477796 176.871091 
L 173.87436 173.588205 
L 178.667488 168.909019 
L 181.064052 165.974545 
L 183.460616 162.027048 
L 185.85718 157.191045 
L 188.253745 152.057792 
L 190.650309 147.490908 
L 193.046873 144.339927 
L 195.443437 143.163279 
L 197.840001 144.053412 
L 200.236565 146.613097 
L 205.029693 153.492353 
L 207.426257 155.967319 
L 209.822821 156.785255 
L 212.219385 155.500723 
L 214.615949 151.942404 
L 217.012513 146.179314 
L 219.409077 138.472926 
L 221.805641 129.228526 
L 226.59877 108.181242 
L 228.995334 97.48778 
L 231.391898 87.407032 
L 233.788462 78.453836 
L 236.185026 71.125195 
L 238.58159 65.89937 
L 240.978154 63.202662 
L 243.374718 63.33349 
L 245.771282 66.359179 
L 248.167846 72.025345 
L 250.56441 79.72512 
L 255.357538 97.480207 
L 257.754102 105.491912 
L 260.150666 111.831584 
L 262.547231 116.099487 
L 264.943795 118.300404 
L 267.340359 118.80305 
L 269.736923 118.239469 
L 272.133487 117.371552 
L 274.530051 116.945967 
L 276.926615 117.551911 
L 279.323179 119.495355 
L 281.719743 122.708861 
L 286.512871 130.709777 
L 288.909435 133.639397 
L 291.305999 134.475995 
L 293.702563 132.426622 
L 296.099127 127.149632 
L 298.495692 118.87496 
L 300.892256 108.395508 
L 305.685384 85.855814 
L 308.081948 76.478403 
L 310.478512 69.734924 
L 312.875076 66.065133 
L 315.27164 65.373971 
L 317.668204 67.114019 
L 320.064768 70.446606 
L 322.461332 74.43181 
L 324.857896 78.201237 
L 327.25446 81.084234 
L 329.651024 82.678789 
L 332.047588 82.873894 
L 334.444153 81.835599 
L 336.840717 79.965371 
L 339.237281 77.832364 
L 341.633845 76.077748 
L 344.030409 75.293673 
L 346.426973 75.89031 
L 348.823537 77.976481 
L 348.823537 77.976481 
" style="fill:none;stroke:#d55e00;stroke-linecap:round;stroke-width:1.5;"/>
   </g>
   <g id="line2d_23">
    <path clip-path="url(#p9888794a20)" d="M 44.459901 158.255509 
L 51.649593 171.316373 
L 56.442721 179.788697 
L 58.839285 183.501075 
L 61.235849 186.414556 
L 63.632413 188.15263 
L 66.028977 188.388567 
L 68.425541 186.920205 
L 70.822105 183.740294 
L 73.218669 179.084843 
L 75.615233 173.438143 
L 78.011797 167.478771 
L 80.408362 161.967211 
L 82.804926 157.597072 
L 85.20149 154.84882 
L 87.598054 153.88862 
L 89.994618 154.542504 
L 92.391182 156.352719 
L 97.18431 160.943495 
L 99.580874 162.580741 
L 101.977438 163.329761 
L 104.374002 163.184444 
L 106.770566 162.398724 
L 109.16713 161.418197 
L 111.563694 160.769241 
L 113.960258 160.924501 
L 116.356823 162.171102 
L 118.753387 164.51228 
L 123.546515 170.915843 
L 125.943079 173.579311 
L 128.339643 174.781079 
L 130.736207 173.786118 
L 133.132771 170.091795 
L 135.529335 163.518904 
L 137.925899 154.256625 
L 140.322463 142.857426 
L 147.512155 105.196884 
L 149.908719 94.898457 
L 152.305284 86.980071 
L 154.701848 81.629275 
L 157.098412 78.593507 
L 159.494976 77.25761 
L 164.288104 76.363914 
L 166.684668 75.270979 
L 169.081232 73.119184 
L 171.477796 69.865244 
L 178.667488 57.871971 
L 181.064052 55.552598 
L 183.460616 55.31869 
L 185.85718 57.671818 
L 188.253745 62.822803 
L 190.650309 70.668676 
L 193.046873 80.827227 
L 195.443437 92.716222 
L 205.029693 144.057368 
L 207.426257 154.856219 
L 209.822821 163.95187 
L 212.219385 171.081762 
L 214.615949 176.107844 
L 217.012513 179.02917 
L 219.409077 179.983683 
L 221.805641 179.234684 
L 224.202206 177.142007 
L 226.59877 174.119612 
L 231.391898 166.873294 
L 238.58159 155.865437 
L 240.978154 151.583934 
L 243.374718 146.253512 
L 245.771282 139.391096 
L 248.167846 130.698562 
L 250.56441 120.199851 
L 252.960974 108.314242 
L 257.754102 83.82451 
L 260.150666 73.404044 
L 262.547231 65.560029 
L 264.943795 60.947737 
L 267.340359 59.787763 
L 269.736923 61.867809 
L 272.133487 66.647213 
L 274.530051 73.428106 
L 276.926615 81.537458 
L 279.323179 90.463789 
L 284.116307 109.762628 
L 288.909435 130.463498 
L 293.702563 151.026508 
L 296.099127 159.990055 
L 298.495692 167.112779 
L 300.892256 171.698692 
L 303.28882 173.261565 
L 305.685384 171.661017 
L 308.081948 167.173377 
L 310.478512 160.469515 
L 317.668204 136.78276 
L 320.064768 130.64911 
L 322.461332 126.269453 
L 324.857896 123.785158 
L 327.25446 123.224195 
L 329.651024 124.621461 
L 332.047588 128.068573 
L 334.444153 133.663174 
L 336.840717 141.379539 
L 339.237281 150.923795 
L 344.030409 172.572531 
L 346.426973 182.523976 
L 348.823537 190.343669 
L 348.823537 190.343669 
" style="fill:none;stroke:#cc78bc;stroke-linecap:round;stroke-width:1.5;"/>
   </g>
   <g id="line2d_24">
    <path clip-path="url(#p9888794a20)" d="M 44.459901 205.201356 
L 46.856465 209.947652 
L 49.253029 212.338948 
L 51.649593 212.250105 
L 54.046157 209.536957 
L 56.442721 204.157415 
L 58.839285 196.280587 
L 61.235849 186.349958 
L 68.425541 152.452805 
L 70.822105 143.19079 
L 73.218669 136.520805 
L 75.615233 132.999544 
L 78.011797 132.760972 
L 80.408362 135.48112 
L 82.804926 140.429384 
L 87.598054 152.871776 
L 89.994618 158.204042 
L 92.391182 161.739164 
L 94.787746 162.884687 
L 97.18431 161.328952 
L 99.580874 157.030933 
L 101.977438 150.202644 
L 104.374002 141.290631 
L 106.770566 130.948121 
L 111.563694 109.285619 
L 113.960258 99.719449 
L 116.356823 92.043356 
L 118.753387 86.8421 
L 121.149951 84.502211 
L 123.546515 85.215308 
L 125.943079 88.989171 
L 128.339643 95.6475 
L 130.736207 104.814415 
L 133.132771 115.899224 
L 140.322463 152.129269 
L 142.719027 162.128724 
L 145.115591 169.906166 
L 147.512155 175.201231 
L 149.908719 178.109072 
L 152.305284 179.027932 
L 154.701848 178.556981 
L 159.494976 176.108257 
L 161.89154 175.250229 
L 164.288104 175.060216 
L 166.684668 175.52634 
L 169.081232 176.353531 
L 171.477796 177.002665 
L 173.87436 176.783238 
L 176.270924 174.990845 
L 178.667488 171.064785 
L 181.064052 164.730499 
L 183.460616 156.092022 
L 185.85718 145.652245 
L 190.650309 122.981915 
L 193.046873 112.975202 
L 195.443437 105.306074 
L 197.840001 100.82205 
L 200.236565 100.044947 
L 202.633129 103.110455 
L 205.029693 109.754812 
L 207.426257 119.346907 
L 209.822821 130.961439 
L 214.615949 155.757371 
L 217.012513 166.699206 
L 219.409077 175.464116 
L 221.805641 181.533592 
L 224.202206 184.767962 
L 226.59877 185.390313 
L 228.995334 183.91042 
L 231.391898 181.010484 
L 236.185026 173.835984 
L 238.58159 170.819308 
L 240.978154 168.804431 
L 243.374718 168.067741 
L 245.771282 168.721881 
L 248.167846 170.69973 
L 250.56441 173.735755 
L 255.357538 180.903438 
L 257.754102 183.573382 
L 260.150666 184.520185 
L 262.547231 182.969037 
L 264.943795 178.353739 
L 267.340359 170.446894 
L 269.736923 159.457076 
L 272.133487 146.064312 
L 276.926615 116.768393 
L 279.323179 103.720164 
L 281.719743 93.53528 
L 284.116307 87.158431 
L 286.512871 85.047442 
L 288.909435 87.158587 
L 291.305999 93.031026 
L 293.702563 101.928006 
L 296.099127 112.978498 
L 303.28882 149.964415 
L 305.685384 160.533564 
L 308.081948 168.734067 
L 310.478512 173.814232 
L 312.875076 175.27968 
L 315.27164 173.014737 
L 317.668204 167.346617 
L 320.064768 159.020446 
L 327.25446 129.056079 
L 329.651024 121.035131 
L 332.047588 115.331916 
L 334.444153 112.342553 
L 336.840717 112.210123 
L 339.237281 114.858943 
L 341.633845 120.016878 
L 344.030409 127.224635 
L 346.426973 135.847591 
L 348.823537 145.110784 
L 348.823537 145.110784 
" style="fill:none;stroke:#ca9161;stroke-linecap:round;stroke-width:1.5;"/>
   </g>
   <g id="line2d_25">
    <path clip-path="url(#p9888794a20)" d="M 44.459901 137.679884 
L 46.856465 142.09899 
L 49.253029 148.507124 
L 51.649593 156.646928 
L 56.442721 175.219591 
L 58.839285 183.739622 
L 61.235849 190.553603 
L 63.632413 195.066901 
L 66.028977 197.034718 
L 68.425541 196.577355 
L 70.822105 194.143175 
L 73.218669 190.42996 
L 75.615233 186.271984 
L 78.011797 182.501222 
L 80.408362 179.799367 
L 82.804926 178.567257 
L 85.20149 178.842357 
L 87.598054 180.288843 
L 89.994618 182.269056 
L 92.391182 183.985147 
L 94.787746 184.661141 
L 97.18431 183.723001 
L 99.580874 180.930304 
L 101.977438 176.420312 
L 104.374002 170.645498 
L 111.563694 151.434406 
L 118.753387 133.286708 
L 123.546515 119.593044 
L 125.943079 112.798825 
L 128.339643 107.041173 
L 130.736207 103.189018 
L 133.132771 101.863735 
L 135.529335 103.203843 
L 137.925899 106.77524 
L 142.719027 116.675908 
L 145.115591 120.684144 
L 147.512155 122.823798 
L 149.908719 122.667263 
L 152.305284 120.229951 
L 154.701848 115.868359 
L 157.098412 110.117993 
L 159.494976 103.534135 
L 166.684668 82.941764 
L 169.081232 76.8246 
L 171.477796 71.66759 
L 173.87436 67.996428 
L 176.270924 66.437717 
L 178.667488 67.612067 
L 181.064052 71.978987 
L 183.460616 79.680305 
L 185.85718 90.435311 
L 188.253745 103.529282 
L 193.046873 132.375865 
L 195.443437 145.801862 
L 197.840001 157.352919 
L 200.236565 166.616616 
L 202.633129 173.62713 
L 205.029693 178.775544 
L 207.426257 182.636546 
L 209.822821 185.763657 
L 212.219385 188.511527 
L 214.615949 190.932788 
L 217.012513 192.77291 
L 219.409077 193.557173 
L 221.805641 192.738159 
L 224.202206 189.857227 
L 226.59877 184.673003 
L 228.995334 177.223317 
L 231.391898 167.810116 
L 233.788462 156.922058 
L 238.58159 132.984928 
L 243.374718 109.525459 
L 245.771282 98.99783 
L 248.167846 89.757996 
L 250.56441 82.161893 
L 252.960974 76.522641 
L 255.357538 73.04337 
L 257.754102 71.749197 
L 260.150666 72.452251 
L 262.547231 74.771498 
L 264.943795 78.206534 
L 269.736923 86.449217 
L 272.133487 90.545995 
L 274.530051 94.404807 
L 276.926615 98.001631 
L 279.323179 101.33254 
L 281.719743 104.330093 
L 284.116307 106.814904 
L 286.512871 108.506066 
L 288.909435 109.093939 
L 291.305999 108.355672 
L 293.702563 106.276119 
L 296.099127 103.130648 
L 298.495692 99.494467 
L 300.892256 96.163069 
L 303.28882 93.994277 
L 305.685384 93.707305 
L 308.081948 95.690487 
L 310.478512 99.872371 
L 312.875076 105.698186 
L 315.27164 112.22702 
L 317.668204 118.331574 
L 320.064768 122.951196 
L 322.461332 125.331261 
L 324.857896 125.18342 
L 327.25446 122.722932 
L 329.651024 118.57371 
L 334.444153 108.509475 
L 336.840717 103.938305 
L 339.237281 100.015181 
L 344.030409 92.898971 
L 346.426973 88.596902 
L 348.823537 83.133101 
L 348.823537 83.133101 
" style="fill:none;stroke:#fbafe4;stroke-linecap:round;stroke-width:1.5;"/>
   </g>
   <g id="line2d_26">
    <path clip-path="url(#p9888794a20)" d="M 44.459901 63.649029 
L 46.856465 62.910952 
L 49.253029 64.369328 
L 51.649593 67.766122 
L 54.046157 72.851264 
L 56.442721 79.471236 
L 58.839285 87.588223 
L 61.235849 97.224587 
L 63.632413 108.354004 
L 66.028977 120.780379 
L 73.218669 160.052312 
L 75.615233 170.885495 
L 78.011797 179.077499 
L 80.408362 184.007169 
L 82.804926 185.385412 
L 85.20149 183.26042 
L 87.598054 177.95619 
L 89.994618 169.97551 
L 92.391182 159.906075 
L 94.787746 148.361496 
L 101.977438 111.417728 
L 104.374002 100.853781 
L 106.770566 92.600629 
L 109.16713 87.470012 
L 111.563694 86.028513 
L 113.960258 88.425095 
L 116.356823 94.276387 
L 118.753387 102.660694 
L 123.546515 121.484426 
L 125.943079 128.944474 
L 128.339643 133.490689 
L 130.736207 134.470887 
L 133.132771 131.756645 
L 135.529335 125.693887 
L 137.925899 116.994435 
L 140.322463 106.608951 
L 145.115591 85.080064 
L 147.512155 76.036732 
L 149.908719 69.322007 
L 152.305284 65.517887 
L 154.701848 64.859821 
L 157.098412 67.180483 
L 159.494976 71.905326 
L 161.89154 78.117283 
L 164.288104 84.693793 
L 166.684668 90.49865 
L 169.081232 94.591009 
L 171.477796 96.401331 
L 173.87436 95.827332 
L 176.270924 93.222816 
L 178.667488 89.283687 
L 181.064052 84.866246 
L 183.460616 80.790863 
L 185.85718 77.682915 
L 188.253745 75.884869 
L 190.650309 75.448298 
L 193.046873 76.193434 
L 195.443437 77.812292 
L 197.840001 79.989457 
L 200.236565 82.51618 
L 202.633129 85.375194 
L 205.029693 88.774569 
L 207.426257 93.113597 
L 209.822821 98.876237 
L 212.219385 106.467894 
L 214.615949 116.03376 
L 217.012513 127.312247 
L 221.805641 151.697393 
L 224.202206 162.329822 
L 226.59877 170.181829 
L 228.995334 174.301994 
L 231.391898 174.306053 
L 233.788462 170.480161 
L 236.185026 163.732169 
L 240.978154 147.00855 
L 243.374718 139.923536 
L 245.771282 135.165019 
L 248.167846 133.22155 
L 250.56441 134.000271 
L 252.960974 136.869462 
L 257.754102 144.494579 
L 260.150666 146.759106 
L 262.547231 146.610359 
L 264.943795 143.535125 
L 267.340359 137.569036 
L 269.736923 129.256858 
L 274.530051 109.258752 
L 276.926615 99.435021 
L 279.323179 90.598016 
L 281.719743 83.007401 
L 284.116307 76.676976 
L 286.512871 71.508031 
L 288.909435 67.410353 
L 291.305999 64.357964 
L 293.702563 62.367998 
L 296.099127 61.433735 
L 298.495692 61.464249 
L 300.892256 62.273334 
L 303.28882 63.626196 
L 305.685384 65.314884 
L 308.081948 67.214181 
L 312.875076 71.49242 
L 317.668204 75.898824 
L 320.064768 77.60627 
L 322.461332 78.616264 
L 324.857896 78.82504 
L 329.651024 77.917071 
L 332.047588 78.080005 
L 334.444153 79.751036 
L 336.840717 83.644989 
L 339.237281 90.17924 
L 341.633845 99.384879 
L 344.030409 110.909234 
L 346.426973 124.087286 
L 348.823537 138.045835 
L 348.823537 138.045835 
" style="fill:none;stroke:#949494;stroke-linecap:round;stroke-width:1.5;"/>
   </g>
   <g id="line2d_27">
    <path clip-path="url(#p9888794a20)" d="M 44.459901 47.78364 
L 46.856465 45.402352 
L 49.253029 45.135542 
L 51.649593 47.544983 
L 54.046157 52.854164 
L 56.442721 60.90178 
L 58.839285 71.168164 
L 66.028977 106.664299 
L 68.425541 116.878804 
L 70.822105 124.919192 
L 73.218669 130.267731 
L 75.615233 132.663234 
L 78.011797 132.102257 
L 80.408362 128.818056 
L 82.804926 123.245248 
L 85.20149 115.977287 
L 92.391182 91.362476 
L 94.787746 84.815292 
L 97.18431 80.285245 
L 99.580874 78.300686 
L 101.977438 79.180677 
L 104.374002 82.974876 
L 106.770566 89.417657 
L 109.16713 97.913924 
L 113.960258 117.321643 
L 116.356823 126.034367 
L 118.753387 132.749756 
L 121.149951 136.8313 
L 123.546515 138.07806 
L 125.943079 136.728322 
L 128.339643 133.353424 
L 130.736207 128.676426 
L 137.925899 112.784868 
L 140.322463 107.999039 
L 142.719027 103.833137 
L 145.115591 100.621771 
L 147.512155 98.835519 
L 149.908719 98.973903 
L 152.305284 101.367483 
L 154.701848 105.96545 
L 157.098412 112.199015 
L 159.494976 118.987254 
L 161.89154 124.900676 
L 164.288104 128.441878 
L 166.684668 128.363357 
L 169.081232 123.934098 
L 171.477796 115.088375 
L 173.87436 102.431384 
L 176.270924 87.119617 
L 181.064052 54.710225 
L 183.460616 40.842506 
L 185.85718 30.423098 
L 188.253745 24.470181 
L 190.650309 23.558535 
L 193.046873 27.739797 
L 195.443437 36.494388 
L 197.840001 48.742026 
L 202.633129 77.267788 
L 205.029693 89.916354 
L 207.426257 99.371578 
L 209.822821 104.685548 
L 212.219385 105.632631 
L 214.615949 102.720193 
L 217.012513 97.048273 
L 221.805641 83.219874 
L 224.202206 77.786325 
L 226.59877 74.588953 
L 228.995334 73.989165 
L 231.391898 75.923959 
L 233.788462 80.023263 
L 236.185026 85.744881 
L 238.58159 92.484143 
L 243.374718 106.63127 
L 245.771282 112.924721 
L 248.167846 118.037732 
L 250.56441 121.590563 
L 252.960974 123.36141 
L 255.357538 123.330524 
L 257.754102 121.682363 
L 260.150666 118.74995 
L 262.547231 114.911165 
L 264.943795 110.471777 
L 267.340359 105.582523 
L 269.736923 100.229238 
L 272.133487 94.307572 
L 274.530051 87.757499 
L 281.719743 66.941805 
L 284.116307 61.715703 
L 286.512871 58.683802 
L 288.909435 58.494609 
L 291.305999 61.516849 
L 293.702563 67.804472 
L 296.099127 77.125091 
L 298.495692 89.01558 
L 300.892256 102.829711 
L 308.081948 147.164215 
L 310.478512 159.598472 
L 312.875076 169.349255 
L 315.27164 175.917029 
L 317.668204 179.265685 
L 320.064768 179.84681 
L 322.461332 178.492937 
L 327.25446 173.819631 
L 329.651024 171.861332 
L 334.444153 168.598263 
L 336.840717 165.923323 
L 339.237281 161.383011 
L 341.633845 154.347256 
L 344.030409 144.666553 
L 346.426973 132.754223 
L 348.823537 119.510383 
L 348.823537 119.510383 
" style="fill:none;stroke:#ece133;stroke-linecap:round;stroke-width:1.5;"/>
   </g>
   <g id="line2d_28">
    <path clip-path="url(#p9888794a20)" d="M 44.459901 109.69801 
L 46.856465 111.609526 
L 49.253029 114.770555 
L 51.649593 119.447056 
L 54.046157 125.733576 
L 56.442721 133.522034 
L 58.839285 142.49346 
L 63.632413 161.795093 
L 66.028977 170.727873 
L 68.425541 178.187092 
L 70.822105 183.488213 
L 73.218669 186.072912 
L 75.615233 185.558814 
L 78.011797 181.778511 
L 80.408362 174.810882 
L 82.804926 165.003685 
L 85.20149 152.978224 
L 92.391182 112.993419 
L 94.787746 101.846626 
L 97.18431 93.233878 
L 99.580874 87.600885 
L 101.977438 85.056648 
L 104.374002 85.423703 
L 106.770566 88.330329 
L 109.16713 93.30756 
L 111.563694 99.860155 
L 113.960258 107.499242 
L 121.149951 132.125486 
L 123.546515 139.31707 
L 125.943079 145.282387 
L 128.339643 149.715022 
L 130.736207 152.439608 
L 133.132771 153.419094 
L 135.529335 152.734137 
L 137.925899 150.542775 
L 140.322463 147.038125 
L 142.719027 142.42355 
L 145.115591 136.917053 
L 149.908719 124.358655 
L 152.305284 118.088312 
L 154.701848 112.478481 
L 157.098412 108.037528 
L 159.494976 105.178914 
L 161.89154 104.13362 
L 164.288104 104.901189 
L 166.684668 107.255189 
L 169.081232 110.79745 
L 176.270924 123.655625 
L 178.667488 127.20476 
L 181.064052 129.852986 
L 183.460616 131.447877 
L 185.85718 131.972344 
L 188.253745 131.557319 
L 190.650309 130.475415 
L 195.443437 127.840676 
L 197.840001 127.028231 
L 200.236565 126.84585 
L 202.633129 127.270546 
L 207.426257 128.972536 
L 209.822821 129.600623 
L 212.219385 129.77687 
L 214.615949 129.511501 
L 217.012513 129.031123 
L 219.409077 128.713924 
L 221.805641 128.970683 
L 224.202206 130.110642 
L 226.59877 132.235571 
L 228.995334 135.195095 
L 233.788462 141.993597 
L 236.185026 144.819521 
L 238.58159 146.702482 
L 240.978154 147.454103 
L 243.374718 147.115923 
L 245.771282 145.926493 
L 252.960974 140.820225 
L 255.357538 139.542656 
L 257.754102 138.601885 
L 262.547231 137.008757 
L 264.943795 135.812315 
L 267.340359 133.996896 
L 269.736923 131.385536 
L 272.133487 127.900175 
L 274.530051 123.556468 
L 276.926615 118.445791 
L 279.323179 112.719759 
L 286.512871 94.272407 
L 288.909435 88.842046 
L 291.305999 84.455007 
L 293.702563 81.483432 
L 296.099127 80.170577 
L 298.495692 80.569156 
L 300.892256 82.516962 
L 303.28882 85.657867 
L 310.478512 97.118684 
L 312.875076 99.916374 
L 315.27164 101.557304 
L 317.668204 101.838046 
L 320.064768 100.6786 
L 322.461332 98.102215 
L 324.857896 94.208098 
L 327.25446 89.146685 
L 329.651024 83.107921 
L 332.047588 76.328896 
L 336.840717 61.868968 
L 339.237281 55.072393 
L 341.633845 49.255869 
L 344.030409 44.903841 
L 346.426973 42.348748 
L 348.823537 41.681367 
L 348.823537 41.681367 
" style="fill:none;stroke:#56b4e9;stroke-linecap:round;stroke-width:1.5;"/>
   </g>
   <g id="patch_3">
    <path d="M 29.241719 224.972818 
L 29.241719 7.532818 
" style="fill:none;stroke:#262626;stroke-linecap:square;stroke-linejoin:miter;stroke-width:1.25;"/>
   </g>
   <g id="patch_4">
    <path d="M 364.041719 224.972818 
L 364.041719 7.532818 
" style="fill:none;stroke:#262626;stroke-linecap:square;stroke-linejoin:miter;stroke-width:1.25;"/>
   </g>
   <g id="patch_5">
    <path d="M 29.241719 224.972818 
L 364.041719 224.972818 
" style="fill:none;stroke:#262626;stroke-linecap:square;stroke-linejoin:miter;stroke-width:1.25;"/>
   </g>
   <g id="patch_6">
    <path d="M 29.241719 7.532818 
L 364.041719 7.532818 
" style="fill:none;stroke:#262626;stroke-linecap:square;stroke-linejoin:miter;stroke-width:1.25;"/>
   </g>
  </g>
 </g>
 <defs>
  <clipPath id="p9888794a20">
   <rect height="217.44" width="334.8" x="29.241719" y="7.532818"/>
  </clipPath>
 </defs>
</svg>
