<?xml version="1.0" encoding="utf-8" standalone="no"?>
<!DOCTYPE svg PUBLIC "-//W3C//DTD SVG 1.1//EN"
  "http://www.w3.org/Graphics/SVG/1.1/DTD/svg11.dtd">
<svg height="248.518125pt" version="1.1" viewBox="0 0 370.942187 248.518125" width="370.942187pt" xmlns="http://www.w3.org/2000/svg" xmlns:xlink="http://www.w3.org/1999/xlink">
 <metadata>
  <rdf:RDF xmlns:cc="http://creativecommons.org/ns#" xmlns:dc="http://purl.org/dc/elements/1.1/" xmlns:rdf="http://www.w3.org/1999/02/22-rdf-syntax-ns#">
   <cc:Work>
    <dc:type rdf:resource="http://purl.org/dc/dcmitype/StillImage"/>
    <dc:date>2021-10-14T14:07:09.027047</dc:date>
    <dc:format>image/svg+xml</dc:format>
    <dc:creator>
     <cc:Agent>
      <dc:title>Matplotlib v3.4.3, https://matplotlib.org/</dc:title>
     </cc:Agent>
    </dc:creator>
   </cc:Work>
  </rdf:RDF>
 </metadata>
 <defs>
  <style type="text/css">*{stroke-linecap:butt;stroke-linejoin:round;}</style>
 </defs>
 <g id="figure_1">
  <g id="patch_1">
   <path d="M 0 248.518125 
L 370.942187 248.518125 
L 370.942187 0 
L 0 0 
z
" style="fill:none;"/>
  </g>
  <g id="axes_1">
   <g id="patch_2">
    <path d="M 28.942188 224.64 
L 363.742188 224.64 
L 363.742188 7.2 
L 28.942188 7.2 
z
" style="fill:#ffffff;"/>
   </g>
   <g id="matplotlib.axis_1">
    <g id="xtick_1">
     <g id="line2d_1">
      <defs>
       <path d="M 0 0 
L 0 3.5 
" id="m114600eade" style="stroke:#000000;stroke-width:0.8;"/>
      </defs>
      <g>
       <use style="stroke:#000000;stroke-width:0.8;" x="44.160369" xlink:href="#m114600eade" y="224.64"/>
      </g>
     </g>
     <g id="text_1">
      <!-- −1.00 -->
      <g transform="translate(28.837713 239.238437)scale(0.1 -0.1)">
       <defs>
        <path d="M 678 2272 
L 4684 2272 
L 4684 1741 
L 678 1741 
L 678 2272 
z
" id="DejaVuSans-2212" transform="scale(0.015625)"/>
        <path d="M 794 531 
L 1825 531 
L 1825 4091 
L 703 3866 
L 703 4441 
L 1819 4666 
L 2450 4666 
L 2450 531 
L 3481 531 
L 3481 0 
L 794 0 
L 794 531 
z
" id="DejaVuSans-31" transform="scale(0.015625)"/>
        <path d="M 684 794 
L 1344 794 
L 1344 0 
L 684 0 
L 684 794 
z
" id="DejaVuSans-2e" transform="scale(0.015625)"/>
        <path d="M 2034 4250 
Q 1547 4250 1301 3770 
Q 1056 3291 1056 2328 
Q 1056 1369 1301 889 
Q 1547 409 2034 409 
Q 2525 409 2770 889 
Q 3016 1369 3016 2328 
Q 3016 3291 2770 3770 
Q 2525 4250 2034 4250 
z
M 2034 4750 
Q 2819 4750 3233 4129 
Q 3647 3509 3647 2328 
Q 3647 1150 3233 529 
Q 2819 -91 2034 -91 
Q 1250 -91 836 529 
Q 422 1150 422 2328 
Q 422 3509 836 4129 
Q 1250 4750 2034 4750 
z
" id="DejaVuSans-30" transform="scale(0.015625)"/>
       </defs>
       <use xlink:href="#DejaVuSans-2212"/>
       <use x="83.789062" xlink:href="#DejaVuSans-31"/>
       <use x="147.412109" xlink:href="#DejaVuSans-2e"/>
       <use x="179.199219" xlink:href="#DejaVuSans-30"/>
       <use x="242.822266" xlink:href="#DejaVuSans-30"/>
      </g>
     </g>
    </g>
    <g id="xtick_2">
     <g id="line2d_2">
      <g>
       <use style="stroke:#000000;stroke-width:0.8;" x="82.205824" xlink:href="#m114600eade" y="224.64"/>
      </g>
     </g>
     <g id="text_2">
      <!-- −0.75 -->
      <g transform="translate(66.883168 239.238437)scale(0.1 -0.1)">
       <defs>
        <path d="M 525 4666 
L 3525 4666 
L 3525 4397 
L 1831 0 
L 1172 0 
L 2766 4134 
L 525 4134 
L 525 4666 
z
" id="DejaVuSans-37" transform="scale(0.015625)"/>
        <path d="M 691 4666 
L 3169 4666 
L 3169 4134 
L 1269 4134 
L 1269 2991 
Q 1406 3038 1543 3061 
Q 1681 3084 1819 3084 
Q 2600 3084 3056 2656 
Q 3513 2228 3513 1497 
Q 3513 744 3044 326 
Q 2575 -91 1722 -91 
Q 1428 -91 1123 -41 
Q 819 9 494 109 
L 494 744 
Q 775 591 1075 516 
Q 1375 441 1709 441 
Q 2250 441 2565 725 
Q 2881 1009 2881 1497 
Q 2881 1984 2565 2268 
Q 2250 2553 1709 2553 
Q 1456 2553 1204 2497 
Q 953 2441 691 2322 
L 691 4666 
z
" id="DejaVuSans-35" transform="scale(0.015625)"/>
       </defs>
       <use xlink:href="#DejaVuSans-2212"/>
       <use x="83.789062" xlink:href="#DejaVuSans-30"/>
       <use x="147.412109" xlink:href="#DejaVuSans-2e"/>
       <use x="179.199219" xlink:href="#DejaVuSans-37"/>
       <use x="242.822266" xlink:href="#DejaVuSans-35"/>
      </g>
     </g>
    </g>
    <g id="xtick_3">
     <g id="line2d_3">
      <g>
       <use style="stroke:#000000;stroke-width:0.8;" x="120.251278" xlink:href="#m114600eade" y="224.64"/>
      </g>
     </g>
     <g id="text_3">
      <!-- −0.50 -->
      <g transform="translate(104.928622 239.238437)scale(0.1 -0.1)">
       <use xlink:href="#DejaVuSans-2212"/>
       <use x="83.789062" xlink:href="#DejaVuSans-30"/>
       <use x="147.412109" xlink:href="#DejaVuSans-2e"/>
       <use x="179.199219" xlink:href="#DejaVuSans-35"/>
       <use x="242.822266" xlink:href="#DejaVuSans-30"/>
      </g>
     </g>
    </g>
    <g id="xtick_4">
     <g id="line2d_4">
      <g>
       <use style="stroke:#000000;stroke-width:0.8;" x="158.296733" xlink:href="#m114600eade" y="224.64"/>
      </g>
     </g>
     <g id="text_4">
      <!-- −0.25 -->
      <g transform="translate(142.974077 239.238437)scale(0.1 -0.1)">
       <defs>
        <path d="M 1228 531 
L 3431 531 
L 3431 0 
L 469 0 
L 469 531 
Q 828 903 1448 1529 
Q 2069 2156 2228 2338 
Q 2531 2678 2651 2914 
Q 2772 3150 2772 3378 
Q 2772 3750 2511 3984 
Q 2250 4219 1831 4219 
Q 1534 4219 1204 4116 
Q 875 4013 500 3803 
L 500 4441 
Q 881 4594 1212 4672 
Q 1544 4750 1819 4750 
Q 2544 4750 2975 4387 
Q 3406 4025 3406 3419 
Q 3406 3131 3298 2873 
Q 3191 2616 2906 2266 
Q 2828 2175 2409 1742 
Q 1991 1309 1228 531 
z
" id="DejaVuSans-32" transform="scale(0.015625)"/>
       </defs>
       <use xlink:href="#DejaVuSans-2212"/>
       <use x="83.789062" xlink:href="#DejaVuSans-30"/>
       <use x="147.412109" xlink:href="#DejaVuSans-2e"/>
       <use x="179.199219" xlink:href="#DejaVuSans-32"/>
       <use x="242.822266" xlink:href="#DejaVuSans-35"/>
      </g>
     </g>
    </g>
    <g id="xtick_5">
     <g id="line2d_5">
      <g>
       <use style="stroke:#000000;stroke-width:0.8;" x="196.342188" xlink:href="#m114600eade" y="224.64"/>
      </g>
     </g>
     <g id="text_5">
      <!-- 0.00 -->
      <g transform="translate(185.209375 239.238437)scale(0.1 -0.1)">
       <use xlink:href="#DejaVuSans-30"/>
       <use x="63.623047" xlink:href="#DejaVuSans-2e"/>
       <use x="95.410156" xlink:href="#DejaVuSans-30"/>
       <use x="159.033203" xlink:href="#DejaVuSans-30"/>
      </g>
     </g>
    </g>
    <g id="xtick_6">
     <g id="line2d_6">
      <g>
       <use style="stroke:#000000;stroke-width:0.8;" x="234.387642" xlink:href="#m114600eade" y="224.64"/>
      </g>
     </g>
     <g id="text_6">
      <!-- 0.25 -->
      <g transform="translate(223.25483 239.238437)scale(0.1 -0.1)">
       <use xlink:href="#DejaVuSans-30"/>
       <use x="63.623047" xlink:href="#DejaVuSans-2e"/>
       <use x="95.410156" xlink:href="#DejaVuSans-32"/>
       <use x="159.033203" xlink:href="#DejaVuSans-35"/>
      </g>
     </g>
    </g>
    <g id="xtick_7">
     <g id="line2d_7">
      <g>
       <use style="stroke:#000000;stroke-width:0.8;" x="272.433097" xlink:href="#m114600eade" y="224.64"/>
      </g>
     </g>
     <g id="text_7">
      <!-- 0.50 -->
      <g transform="translate(261.300284 239.238437)scale(0.1 -0.1)">
       <use xlink:href="#DejaVuSans-30"/>
       <use x="63.623047" xlink:href="#DejaVuSans-2e"/>
       <use x="95.410156" xlink:href="#DejaVuSans-35"/>
       <use x="159.033203" xlink:href="#DejaVuSans-30"/>
      </g>
     </g>
    </g>
    <g id="xtick_8">
     <g id="line2d_8">
      <g>
       <use style="stroke:#000000;stroke-width:0.8;" x="310.478551" xlink:href="#m114600eade" y="224.64"/>
      </g>
     </g>
     <g id="text_8">
      <!-- 0.75 -->
      <g transform="translate(299.345739 239.238437)scale(0.1 -0.1)">
       <use xlink:href="#DejaVuSans-30"/>
       <use x="63.623047" xlink:href="#DejaVuSans-2e"/>
       <use x="95.410156" xlink:href="#DejaVuSans-37"/>
       <use x="159.033203" xlink:href="#DejaVuSans-35"/>
      </g>
     </g>
    </g>
    <g id="xtick_9">
     <g id="line2d_9">
      <g>
       <use style="stroke:#000000;stroke-width:0.8;" x="348.524006" xlink:href="#m114600eade" y="224.64"/>
      </g>
     </g>
     <g id="text_9">
      <!-- 1.00 -->
      <g transform="translate(337.391193 239.238437)scale(0.1 -0.1)">
       <use xlink:href="#DejaVuSans-31"/>
       <use x="63.623047" xlink:href="#DejaVuSans-2e"/>
       <use x="95.410156" xlink:href="#DejaVuSans-30"/>
       <use x="159.033203" xlink:href="#DejaVuSans-30"/>
      </g>
     </g>
    </g>
   </g>
   <g id="matplotlib.axis_2">
    <g id="ytick_1">
     <g id="line2d_10">
      <defs>
       <path d="M 0 0 
L -3.5 0 
" id="m7527bbe170" style="stroke:#000000;stroke-width:0.8;"/>
      </defs>
      <g>
       <use style="stroke:#000000;stroke-width:0.8;" x="28.942188" xlink:href="#m7527bbe170" y="204.522156"/>
      </g>
     </g>
     <g id="text_10">
      <!-- −6 -->
      <g transform="translate(7.2 208.321374)scale(0.1 -0.1)">
       <defs>
        <path d="M 2113 2584 
Q 1688 2584 1439 2293 
Q 1191 2003 1191 1497 
Q 1191 994 1439 701 
Q 1688 409 2113 409 
Q 2538 409 2786 701 
Q 3034 994 3034 1497 
Q 3034 2003 2786 2293 
Q 2538 2584 2113 2584 
z
M 3366 4563 
L 3366 3988 
Q 3128 4100 2886 4159 
Q 2644 4219 2406 4219 
Q 1781 4219 1451 3797 
Q 1122 3375 1075 2522 
Q 1259 2794 1537 2939 
Q 1816 3084 2150 3084 
Q 2853 3084 3261 2657 
Q 3669 2231 3669 1497 
Q 3669 778 3244 343 
Q 2819 -91 2113 -91 
Q 1303 -91 875 529 
Q 447 1150 447 2328 
Q 447 3434 972 4092 
Q 1497 4750 2381 4750 
Q 2619 4750 2861 4703 
Q 3103 4656 3366 4563 
z
" id="DejaVuSans-36" transform="scale(0.015625)"/>
       </defs>
       <use xlink:href="#DejaVuSans-2212"/>
       <use x="83.789062" xlink:href="#DejaVuSans-36"/>
      </g>
     </g>
    </g>
    <g id="ytick_2">
     <g id="line2d_11">
      <g>
       <use style="stroke:#000000;stroke-width:0.8;" x="28.942188" xlink:href="#m7527bbe170" y="170.305232"/>
      </g>
     </g>
     <g id="text_11">
      <!-- −4 -->
      <g transform="translate(7.2 174.104451)scale(0.1 -0.1)">
       <defs>
        <path d="M 2419 4116 
L 825 1625 
L 2419 1625 
L 2419 4116 
z
M 2253 4666 
L 3047 4666 
L 3047 1625 
L 3713 1625 
L 3713 1100 
L 3047 1100 
L 3047 0 
L 2419 0 
L 2419 1100 
L 313 1100 
L 313 1709 
L 2253 4666 
z
" id="DejaVuSans-34" transform="scale(0.015625)"/>
       </defs>
       <use xlink:href="#DejaVuSans-2212"/>
       <use x="83.789062" xlink:href="#DejaVuSans-34"/>
      </g>
     </g>
    </g>
    <g id="ytick_3">
     <g id="line2d_12">
      <g>
       <use style="stroke:#000000;stroke-width:0.8;" x="28.942188" xlink:href="#m7527bbe170" y="136.088308"/>
      </g>
     </g>
     <g id="text_12">
      <!-- −2 -->
      <g transform="translate(7.2 139.887527)scale(0.1 -0.1)">
       <use xlink:href="#DejaVuSans-2212"/>
       <use x="83.789062" xlink:href="#DejaVuSans-32"/>
      </g>
     </g>
    </g>
    <g id="ytick_4">
     <g id="line2d_13">
      <g>
       <use style="stroke:#000000;stroke-width:0.8;" x="28.942188" xlink:href="#m7527bbe170" y="101.871385"/>
      </g>
     </g>
     <g id="text_13">
      <!-- 0 -->
      <g transform="translate(15.579688 105.670604)scale(0.1 -0.1)">
       <use xlink:href="#DejaVuSans-30"/>
      </g>
     </g>
    </g>
    <g id="ytick_5">
     <g id="line2d_14">
      <g>
       <use style="stroke:#000000;stroke-width:0.8;" x="28.942188" xlink:href="#m7527bbe170" y="67.654461"/>
      </g>
     </g>
     <g id="text_14">
      <!-- 2 -->
      <g transform="translate(15.579688 71.45368)scale(0.1 -0.1)">
       <use xlink:href="#DejaVuSans-32"/>
      </g>
     </g>
    </g>
    <g id="ytick_6">
     <g id="line2d_15">
      <g>
       <use style="stroke:#000000;stroke-width:0.8;" x="28.942188" xlink:href="#m7527bbe170" y="33.437538"/>
      </g>
     </g>
     <g id="text_15">
      <!-- 4 -->
      <g transform="translate(15.579688 37.236756)scale(0.1 -0.1)">
       <use xlink:href="#DejaVuSans-34"/>
      </g>
     </g>
    </g>
   </g>
   <g id="line2d_16">
    <path clip-path="url(#p9a3a94fa60)" d="M 44.160369 39.893897 
L 46.556933 44.618452 
L 48.953497 39.05331 
L 51.350062 40.717519 
L 53.746626 36.054851 
L 56.14319 40.561923 
L 58.539754 38.416207 
L 60.936318 33.878484 
L 63.332882 29.868412 
L 65.729446 28.594787 
L 68.12601 26.953645 
L 70.522574 31.140521 
L 72.919138 32.878268 
L 75.315702 34.183841 
L 77.712266 34.146214 
L 80.10883 33.40426 
L 82.505394 34.902298 
L 84.901958 35.324697 
L 87.298523 36.10984 
L 89.695087 38.797668 
L 92.091651 38.005503 
L 94.488215 39.050474 
L 96.884779 30.44892 
L 99.281343 28.84806 
L 101.677907 24.009677 
L 104.074471 22.882907 
L 106.471035 23.216917 
L 108.867599 21.31272 
L 111.264163 21.539932 
L 113.660727 23.122543 
L 116.057291 28.440642 
L 118.453855 26.797779 
L 120.850419 27.072074 
L 123.246983 30.340928 
L 125.643548 30.865419 
L 128.040112 29.628819 
L 130.436676 27.664037 
L 132.83324 27.439553 
L 135.229804 28.146084 
L 137.626368 31.543285 
L 140.022932 33.1671 
L 142.419496 33.413539 
L 144.81606 38.955926 
L 147.212624 38.377635 
L 149.609188 33.20908 
L 152.005752 30.812485 
L 154.402316 29.621263 
L 156.79888 33.379513 
L 159.195444 38.173651 
L 161.592009 38.043991 
L 163.988573 39.21146 
L 166.385137 40.030215 
L 168.781701 37.679486 
L 173.574829 40.954406 
L 175.971393 38.32479 
L 178.367957 37.130672 
L 180.764521 40.023772 
L 183.161085 40.982316 
L 185.557649 41.513528 
L 187.954213 39.31118 
L 190.350777 40.914946 
L 192.747341 38.763013 
L 195.143905 35.880732 
L 197.54047 32.093411 
L 199.937034 35.933114 
L 202.333598 36.240489 
L 204.730162 35.52974 
L 207.126726 36.787142 
L 209.52329 32.369439 
L 214.316418 40.913909 
L 216.712982 42.538707 
L 219.109546 39.606714 
L 221.50611 41.340686 
L 223.902674 39.737252 
L 226.299238 40.84695 
L 228.695802 45.095897 
L 231.092366 43.098875 
L 233.488931 42.21338 
L 235.885495 37.54194 
L 238.282059 39.491936 
L 240.678623 43.120847 
L 243.075187 39.606604 
L 245.471751 41.637955 
L 247.868315 43.938261 
L 250.264879 45.895637 
L 255.058007 50.585746 
L 257.454571 53.844858 
L 259.851135 53.497329 
L 262.247699 59.780297 
L 264.644263 60.160718 
L 267.040827 55.09243 
L 269.437392 52.706445 
L 271.833956 49.603765 
L 274.23052 46.013503 
L 276.627084 47.330103 
L 279.023648 51.382833 
L 281.420212 48.699339 
L 283.816776 51.892976 
L 286.21334 45.037968 
L 288.609904 41.286177 
L 291.006468 47.458775 
L 293.403032 47.942795 
L 295.799596 49.554961 
L 298.19616 54.624541 
L 300.592724 49.75737 
L 302.989288 51.514173 
L 305.385852 56.517784 
L 307.782417 55.086009 
L 310.178981 57.320647 
L 312.575545 61.053516 
L 314.972109 57.071891 
L 317.368673 56.202614 
L 319.765237 54.029556 
L 322.161801 54.630985 
L 324.558365 53.931023 
L 326.954929 54.79496 
L 329.351493 51.164936 
L 331.748057 51.204566 
L 334.144621 58.03168 
L 336.541185 51.715706 
L 338.937749 51.464714 
L 341.334313 49.749587 
L 343.730878 51.311448 
L 346.127442 50.775976 
L 348.524006 50.047575 
L 348.524006 50.047575 
" style="fill:none;stroke:#1f77b4;stroke-linecap:square;stroke-width:1.5;"/>
   </g>
   <g id="line2d_17">
    <path clip-path="url(#p9a3a94fa60)" d="M 44.160369 63.318845 
L 46.556933 59.870813 
L 48.953497 62.136433 
L 51.350062 64.927603 
L 53.746626 66.027356 
L 56.14319 66.82791 
L 58.539754 71.381008 
L 60.936318 75.148528 
L 63.332882 77.549599 
L 65.729446 72.797894 
L 68.12601 71.494695 
L 70.522574 69.543071 
L 72.919138 71.334441 
L 75.315702 67.754892 
L 77.712266 62.267092 
L 80.10883 62.66951 
L 82.505394 62.350707 
L 84.901958 58.434659 
L 87.298523 62.150281 
L 89.695087 70.486619 
L 92.091651 69.491355 
L 94.488215 68.744679 
L 96.884779 73.010394 
L 99.281343 76.383012 
L 101.677907 80.212288 
L 104.074471 81.143381 
L 106.471035 78.611773 
L 108.867599 77.124928 
L 111.264163 75.13858 
L 113.660727 75.151245 
L 116.057291 74.650652 
L 118.453855 71.047068 
L 120.850419 69.753381 
L 123.246983 67.768876 
L 125.643548 66.316749 
L 128.040112 67.819447 
L 130.436676 66.283725 
L 132.83324 67.594221 
L 135.229804 67.15989 
L 137.626368 68.842521 
L 140.022932 69.240129 
L 142.419496 68.632425 
L 144.81606 66.973619 
L 147.212624 70.862928 
L 149.609188 69.985493 
L 152.005752 69.277639 
L 154.402316 70.625864 
L 156.79888 69.393338 
L 159.195444 72.583812 
L 161.592009 75.201494 
L 163.988573 79.334696 
L 166.385137 80.237247 
L 168.781701 80.684106 
L 171.178265 80.143327 
L 173.574829 77.356092 
L 175.971393 82.618383 
L 178.367957 84.496631 
L 180.764521 85.880301 
L 183.161085 82.835956 
L 185.557649 86.230298 
L 187.954213 85.676317 
L 190.350777 84.094371 
L 192.747341 87.577895 
L 195.143905 85.276376 
L 197.54047 83.609652 
L 199.937034 83.438363 
L 202.333598 89.608019 
L 204.730162 93.345692 
L 207.126726 96.869733 
L 209.52329 93.373729 
L 211.919854 96.278266 
L 214.316418 98.748646 
L 216.712982 99.050521 
L 219.109546 96.172428 
L 221.50611 97.853046 
L 223.902674 100.425117 
L 226.299238 94.289703 
L 228.695802 96.410294 
L 231.092366 102.805657 
L 233.488931 98.627213 
L 235.885495 97.534279 
L 238.282059 93.137566 
L 240.678623 91.977265 
L 243.075187 92.214386 
L 245.471751 88.223903 
L 247.868315 89.313575 
L 250.264879 90.552402 
L 252.661443 92.768366 
L 255.058007 92.038164 
L 257.454571 93.684708 
L 259.851135 90.762993 
L 262.247699 90.908463 
L 264.644263 85.99027 
L 267.040827 80.164812 
L 269.437392 75.855982 
L 271.833956 78.243795 
L 274.23052 79.254868 
L 276.627084 75.148543 
L 279.023648 73.437171 
L 281.420212 79.036954 
L 283.816776 80.082856 
L 286.21334 83.535643 
L 288.609904 87.515568 
L 291.006468 88.672443 
L 293.403032 86.178864 
L 295.799596 88.482662 
L 298.19616 89.992199 
L 300.592724 95.48194 
L 302.989288 98.649719 
L 305.385852 100.935082 
L 307.782417 99.502479 
L 312.575545 110.682213 
L 314.972109 112.447348 
L 317.368673 114.601999 
L 319.765237 118.397804 
L 322.161801 120.690922 
L 324.558365 125.280727 
L 326.954929 121.061521 
L 329.351493 122.394734 
L 331.748057 123.222204 
L 334.144621 120.130814 
L 336.541185 119.269681 
L 341.334313 105.629326 
L 343.730878 100.697438 
L 346.127442 99.474768 
L 348.524006 96.66678 
L 348.524006 96.66678 
" style="fill:none;stroke:#ff7f0e;stroke-linecap:square;stroke-width:1.5;"/>
   </g>
   <g id="line2d_18">
    <path clip-path="url(#p9a3a94fa60)" d="M 44.160369 120.108553 
L 46.556933 123.13157 
L 48.953497 120.425885 
L 51.350062 122.844347 
L 53.746626 119.479913 
L 56.14319 119.596065 
L 58.539754 128.062778 
L 60.936318 128.932795 
L 63.332882 130.222253 
L 65.729446 131.835996 
L 68.12601 130.962106 
L 70.522574 132.391451 
L 72.919138 129.353718 
L 75.315702 128.323255 
L 77.712266 121.531362 
L 80.10883 121.098964 
L 82.505394 116.872108 
L 84.901958 122.751795 
L 87.298523 123.680383 
L 89.695087 118.31247 
L 92.091651 118.715432 
L 94.488215 116.119378 
L 96.884779 112.685443 
L 99.281343 109.910496 
L 101.677907 113.945004 
L 104.074471 114.900739 
L 106.471035 113.197626 
L 108.867599 114.599168 
L 111.264163 113.132514 
L 113.660727 107.758797 
L 116.057291 108.391194 
L 120.850419 116.44378 
L 123.246983 116.557127 
L 125.643548 117.737991 
L 128.040112 117.874793 
L 130.436676 118.704381 
L 132.83324 120.015338 
L 135.229804 122.663214 
L 137.626368 118.017825 
L 140.022932 119.260341 
L 142.419496 117.367667 
L 144.81606 116.347688 
L 147.212624 117.862945 
L 149.609188 115.150555 
L 152.005752 117.432118 
L 154.402316 124.139246 
L 159.195444 125.503775 
L 161.592009 126.535937 
L 163.988573 125.778639 
L 166.385137 124.333475 
L 168.781701 123.60576 
L 171.178265 123.98081 
L 173.574829 123.83581 
L 175.971393 121.371748 
L 178.367957 121.066996 
L 180.764521 120.105981 
L 183.161085 121.824911 
L 185.557649 120.645389 
L 187.954213 121.374237 
L 190.350777 122.476522 
L 192.747341 123.293445 
L 195.143905 118.59235 
L 197.54047 115.745547 
L 199.937034 121.815382 
L 202.333598 123.599025 
L 204.730162 124.475473 
L 209.52329 121.705646 
L 211.919854 119.546516 
L 214.316418 119.692352 
L 216.712982 118.509463 
L 221.50611 117.107439 
L 226.299238 118.631501 
L 228.695802 116.304219 
L 231.092366 118.895176 
L 233.488931 118.780084 
L 235.885495 120.891119 
L 238.282059 122.449152 
L 240.678623 121.137792 
L 243.075187 120.486843 
L 245.471751 123.330499 
L 247.868315 116.674025 
L 250.264879 113.240036 
L 252.661443 113.434324 
L 255.058007 107.335908 
L 257.454571 103.433405 
L 259.851135 104.971171 
L 262.247699 101.653014 
L 264.644263 102.036091 
L 267.040827 104.575045 
L 269.437392 105.602931 
L 271.833956 107.659636 
L 274.23052 111.490526 
L 276.627084 109.39709 
L 279.023648 113.18618 
L 281.420212 115.244935 
L 283.816776 113.449935 
L 286.21334 112.790497 
L 288.609904 115.726391 
L 291.006468 116.249526 
L 293.403032 118.935455 
L 295.799596 118.657373 
L 298.19616 118.190673 
L 300.592724 119.493097 
L 302.989288 118.155681 
L 305.385852 118.441373 
L 307.782417 115.911743 
L 310.178981 114.163573 
L 312.575545 112.731043 
L 317.368673 110.985221 
L 319.765237 111.380697 
L 322.161801 109.733959 
L 324.558365 112.343488 
L 326.954929 108.686519 
L 329.351493 103.072789 
L 331.748057 96.829519 
L 334.144621 92.206583 
L 336.541185 95.712052 
L 338.937749 96.949368 
L 341.334313 95.300523 
L 343.730878 97.741613 
L 346.127442 100.662607 
L 348.524006 98.186716 
L 348.524006 98.186716 
" style="fill:none;stroke:#2ca02c;stroke-linecap:square;stroke-width:1.5;"/>
   </g>
   <g id="line2d_19">
    <path clip-path="url(#p9a3a94fa60)" d="M 44.160369 214.599385 
L 46.556933 210.492095 
L 48.953497 211.378505 
L 51.350062 208.277284 
L 53.746626 208.176718 
L 56.14319 210.67732 
L 58.539754 211.19762 
L 60.936318 210.730383 
L 63.332882 209.884959 
L 65.729446 211.234153 
L 68.12601 207.333591 
L 70.522574 208.028097 
L 72.919138 205.695274 
L 75.315702 204.838433 
L 77.712266 210.594172 
L 80.10883 214.756364 
L 82.505394 210.957047 
L 84.901958 209.679229 
L 87.298523 206.43184 
L 89.695087 204.855745 
L 92.091651 211.251691 
L 94.488215 207.981126 
L 96.884779 203.68763 
L 99.281343 209.74791 
L 101.677907 207.989267 
L 104.074471 209.38261 
L 106.471035 205.730565 
L 108.867599 202.307606 
L 111.264163 199.589028 
L 113.660727 195.589077 
L 116.057291 200.042892 
L 118.453855 207.94822 
L 120.850419 210.169995 
L 123.246983 209.421893 
L 125.643548 206.901466 
L 128.040112 206.596625 
L 130.436676 206.178166 
L 132.83324 203.630103 
L 135.229804 200.497199 
L 137.626368 199.873743 
L 140.022932 198.887573 
L 142.419496 195.224115 
L 144.81606 187.877992 
L 147.212624 187.945102 
L 149.609188 187.067399 
L 152.005752 191.243203 
L 154.402316 189.022946 
L 156.79888 188.700485 
L 159.195444 189.110169 
L 161.592009 184.552993 
L 163.988573 179.591486 
L 166.385137 177.468268 
L 168.781701 176.553815 
L 171.178265 174.998841 
L 173.574829 175.547638 
L 175.971393 169.73146 
L 178.367957 175.353487 
L 180.764521 176.409798 
L 183.161085 172.908542 
L 185.557649 175.255281 
L 187.954213 176.295435 
L 190.350777 176.015375 
L 195.143905 178.932322 
L 197.54047 178.162856 
L 199.937034 178.641003 
L 202.333598 179.35626 
L 204.730162 183.934391 
L 207.126726 181.126817 
L 209.52329 179.703787 
L 211.919854 180.707471 
L 214.316418 174.92142 
L 216.712982 173.055672 
L 219.109546 172.867745 
L 221.50611 173.377393 
L 223.902674 170.753986 
L 226.299238 168.650401 
L 228.695802 166.047939 
L 231.092366 168.976007 
L 233.488931 167.315102 
L 235.885495 163.798885 
L 238.282059 168.359709 
L 240.678623 165.669028 
L 243.075187 164.844897 
L 245.471751 164.714781 
L 247.868315 167.420644 
L 250.264879 163.264571 
L 252.661443 160.958921 
L 255.058007 168.554041 
L 257.454571 167.482103 
L 259.851135 167.259092 
L 262.247699 167.836579 
L 264.644263 166.513059 
L 267.040827 164.791522 
L 269.437392 161.79036 
L 271.833956 163.264837 
L 274.23052 158.070354 
L 276.627084 159.938129 
L 279.023648 161.11147 
L 281.420212 157.733622 
L 283.816776 163.850429 
L 286.21334 165.058516 
L 288.609904 165.047445 
L 291.006468 166.422255 
L 293.403032 163.677055 
L 295.799596 158.920468 
L 298.19616 156.320581 
L 300.592724 153.229245 
L 302.989288 151.02066 
L 305.385852 152.226244 
L 307.782417 151.049749 
L 310.178981 156.091605 
L 312.575545 151.727667 
L 314.972109 149.515019 
L 317.368673 149.451354 
L 319.765237 143.290719 
L 322.161801 139.499549 
L 324.558365 133.825951 
L 326.954929 134.728379 
L 329.351493 139.654178 
L 331.748057 145.915787 
L 334.144621 146.850482 
L 336.541185 149.017686 
L 338.937749 148.31497 
L 341.334313 146.799833 
L 343.730878 147.293253 
L 346.127442 148.849901 
L 348.524006 144.886689 
L 348.524006 144.886689 
" style="fill:none;stroke:#d62728;stroke-linecap:square;stroke-width:1.5;"/>
   </g>
   <g id="line2d_20">
    <path clip-path="url(#p9a3a94fa60)" d="M 44.160369 103.421779 
L 46.556933 100.504567 
L 48.953497 103.356036 
L 51.350062 105.332262 
L 53.746626 104.657698 
L 56.14319 105.618367 
L 58.539754 102.045496 
L 60.936318 106.815343 
L 63.332882 109.682188 
L 65.729446 105.826365 
L 68.12601 103.097255 
L 70.522574 106.512909 
L 72.919138 104.965758 
L 75.315702 104.692536 
L 77.712266 106.571621 
L 80.10883 109.890118 
L 82.505394 106.683768 
L 84.901958 102.993323 
L 87.298523 102.915464 
L 89.695087 103.288629 
L 92.091651 101.775198 
L 94.488215 97.221963 
L 96.884779 92.420005 
L 99.281343 95.21399 
L 101.677907 91.598799 
L 104.074471 92.440372 
L 106.471035 92.009339 
L 108.867599 91.422659 
L 111.264163 91.150937 
L 113.660727 93.199592 
L 116.057291 98.439475 
L 118.453855 95.136221 
L 120.850419 94.080485 
L 123.246983 96.634562 
L 125.643548 93.588382 
L 128.040112 91.192183 
L 130.436676 89.879498 
L 132.83324 88.985898 
L 135.229804 89.932444 
L 137.626368 86.060262 
L 140.022932 83.506203 
L 142.419496 84.325826 
L 144.81606 87.782433 
L 147.212624 89.911822 
L 149.609188 88.690992 
L 152.005752 92.406495 
L 154.402316 92.29383 
L 156.79888 97.853468 
L 159.195444 94.0267 
L 161.592009 97.5191 
L 163.988573 100.07788 
L 166.385137 100.570738 
L 168.781701 99.763482 
L 171.178265 102.69494 
L 173.574829 100.735354 
L 175.971393 96.064788 
L 178.367957 93.870015 
L 180.764521 98.570595 
L 183.161085 94.624893 
L 185.557649 94.27434 
L 187.954213 96.136318 
L 190.350777 94.684004 
L 192.747341 95.043314 
L 195.143905 93.882182 
L 197.54047 98.446205 
L 199.937034 99.991678 
L 202.333598 104.587403 
L 204.730162 105.403392 
L 207.126726 103.563913 
L 209.52329 104.193172 
L 214.316418 108.29999 
L 216.712982 105.931328 
L 219.109546 101.366217 
L 221.50611 103.613062 
L 223.902674 98.991557 
L 226.299238 98.631094 
L 228.695802 104.345198 
L 231.092366 106.460606 
L 233.488931 100.730554 
L 235.885495 102.043105 
L 238.282059 96.833613 
L 240.678623 101.837098 
L 243.075187 102.31188 
L 245.471751 98.872841 
L 247.868315 99.894663 
L 250.264879 95.783059 
L 252.661443 92.338593 
L 255.058007 92.723487 
L 257.454571 93.765882 
L 259.851135 95.797052 
L 262.247699 97.596541 
L 264.644263 97.514459 
L 267.040827 93.360387 
L 269.437392 93.012293 
L 271.833956 92.141228 
L 274.23052 98.774619 
L 276.627084 96.85077 
L 279.023648 92.144426 
L 281.420212 96.213988 
L 283.816776 94.286029 
L 286.21334 97.108527 
L 288.609904 99.266383 
L 291.006468 102.085579 
L 293.403032 102.852684 
L 295.799596 99.984987 
L 298.19616 99.831778 
L 300.592724 98.651719 
L 302.989288 98.78598 
L 305.385852 99.86346 
L 307.782417 99.771772 
L 310.178981 93.605156 
L 312.575545 93.078349 
L 314.972109 92.98582 
L 317.368673 93.623271 
L 319.765237 94.651916 
L 322.161801 93.440462 
L 324.558365 90.814093 
L 326.954929 86.432128 
L 329.351493 88.90406 
L 331.748057 86.633797 
L 334.144621 79.029169 
L 336.541185 78.100193 
L 338.937749 75.628929 
L 341.334313 80.02018 
L 343.730878 76.37827 
L 346.127442 71.823551 
L 348.524006 73.005012 
L 348.524006 73.005012 
" style="fill:none;stroke:#9467bd;stroke-linecap:square;stroke-width:1.5;"/>
   </g>
   <g id="line2d_21">
    <path clip-path="url(#p9a3a94fa60)" d="M 44.160369 190.173314 
L 46.556933 193.364383 
L 48.953497 194.254756 
L 51.350062 195.510669 
L 53.746626 194.78095 
L 56.14319 189.654921 
L 58.539754 188.684015 
L 60.936318 186.670383 
L 63.332882 188.923797 
L 65.729446 193.012384 
L 68.12601 189.807826 
L 70.522574 189.635528 
L 72.919138 189.584229 
L 75.315702 192.381308 
L 80.10883 190.838178 
L 82.505394 195.524009 
L 84.901958 191.186645 
L 87.298523 189.605372 
L 89.695087 187.14673 
L 92.091651 184.947552 
L 94.488215 185.342976 
L 96.884779 184.280552 
L 99.281343 189.179598 
L 101.677907 190.204402 
L 104.074471 192.969673 
L 106.471035 186.488641 
L 108.867599 187.822538 
L 111.264163 191.049303 
L 113.660727 193.215638 
L 116.057291 191.877453 
L 118.453855 194.971045 
L 120.850419 195.688217 
L 123.246983 194.167505 
L 125.643548 193.862712 
L 128.040112 192.637517 
L 130.436676 195.014176 
L 132.83324 192.141685 
L 135.229804 192.768979 
L 137.626368 189.650397 
L 140.022932 186.100614 
L 142.419496 185.449697 
L 144.81606 186.789986 
L 147.212624 189.54929 
L 149.609188 191.947891 
L 152.005752 192.123847 
L 154.402316 188.290914 
L 156.79888 192.961706 
L 159.195444 189.039468 
L 161.592009 185.489725 
L 163.988573 184.837354 
L 166.385137 186.215485 
L 168.781701 183.771 
L 171.178265 178.967297 
L 173.574829 180.87751 
L 175.971393 179.997783 
L 178.367957 180.01318 
L 180.764521 178.746472 
L 183.161085 178.367711 
L 185.557649 178.41725 
L 187.954213 179.955641 
L 190.350777 179.011429 
L 192.747341 178.949495 
L 195.143905 176.238797 
L 197.54047 178.218811 
L 202.333598 173.57138 
L 204.730162 179.844575 
L 207.126726 179.562678 
L 209.52329 182.364236 
L 211.919854 182.30896 
L 214.316418 183.946989 
L 216.712982 186.63631 
L 219.109546 187.727759 
L 221.50611 182.551113 
L 223.902674 179.017936 
L 226.299238 179.323067 
L 228.695802 186.412035 
L 231.092366 187.419703 
L 233.488931 186.413834 
L 235.885495 183.642401 
L 238.282059 187.344738 
L 240.678623 188.850397 
L 243.075187 193.144349 
L 245.471751 193.197236 
L 247.868315 194.932085 
L 250.264879 193.724296 
L 252.661443 192.31953 
L 255.058007 189.341388 
L 257.454571 194.901477 
L 259.851135 193.316505 
L 262.247699 190.148798 
L 264.644263 179.775246 
L 267.040827 179.177759 
L 269.437392 180.279927 
L 274.23052 181.733936 
L 276.627084 180.312787 
L 279.023648 182.937313 
L 281.420212 179.422524 
L 283.816776 175.361825 
L 286.21334 171.921705 
L 288.609904 166.851464 
L 291.006468 166.755823 
L 293.403032 164.761637 
L 295.799596 162.114415 
L 298.19616 165.544969 
L 300.592724 162.924626 
L 302.989288 161.314954 
L 305.385852 160.561475 
L 307.782417 159.013227 
L 310.178981 158.779602 
L 312.575545 155.631027 
L 314.972109 155.45218 
L 317.368673 150.437869 
L 319.765237 154.412398 
L 322.161801 151.091252 
L 324.558365 153.327522 
L 326.954929 156.062096 
L 329.351493 155.82722 
L 331.748057 160.168216 
L 334.144621 167.428092 
L 336.541185 172.028789 
L 341.334313 168.369427 
L 343.730878 167.892956 
L 346.127442 169.093728 
L 348.524006 168.925081 
L 348.524006 168.925081 
" style="fill:none;stroke:#8c564b;stroke-linecap:square;stroke-width:1.5;"/>
   </g>
   <g id="line2d_22">
    <path clip-path="url(#p9a3a94fa60)" d="M 44.160369 128.256573 
L 46.556933 132.372356 
L 48.953497 132.814325 
L 51.350062 125.948771 
L 53.746626 127.742157 
L 56.14319 130.137905 
L 58.539754 128.196607 
L 60.936318 131.341309 
L 65.729446 129.938768 
L 68.12601 132.411417 
L 70.522574 137.155316 
L 72.919138 142.384252 
L 75.315702 136.957198 
L 80.10883 143.525849 
L 82.505394 144.20183 
L 84.901958 145.270851 
L 87.298523 142.313646 
L 89.695087 142.322973 
L 92.091651 146.418943 
L 94.488215 148.699895 
L 96.884779 149.774591 
L 99.281343 153.8274 
L 101.677907 150.023234 
L 104.074471 149.336808 
L 106.471035 149.95641 
L 108.867599 147.892993 
L 111.264163 144.932887 
L 113.660727 145.031715 
L 116.057291 146.553448 
L 120.850419 139.702117 
L 123.246983 140.390149 
L 125.643548 143.557696 
L 128.040112 145.782507 
L 130.436676 145.257828 
L 132.83324 145.265337 
L 135.229804 146.142971 
L 137.626368 145.04911 
L 140.022932 144.689096 
L 142.419496 145.418815 
L 144.81606 148.514041 
L 147.212624 144.794079 
L 149.609188 143.068164 
L 152.005752 137.455316 
L 154.402316 137.92343 
L 156.79888 138.74191 
L 159.195444 138.838393 
L 161.592009 136.439913 
L 163.988573 136.300794 
L 166.385137 132.882536 
L 168.781701 132.171006 
L 173.574829 129.919248 
L 175.971393 128.076609 
L 178.367957 130.008333 
L 180.764521 130.468322 
L 183.161085 131.182719 
L 185.557649 133.398285 
L 187.954213 133.249944 
L 190.350777 134.310487 
L 192.747341 131.603728 
L 195.143905 129.942422 
L 197.54047 134.401854 
L 199.937034 132.545094 
L 202.333598 131.549542 
L 204.730162 131.441006 
L 207.126726 126.016578 
L 209.52329 121.330435 
L 211.919854 118.866572 
L 214.316418 122.516405 
L 216.712982 120.48266 
L 219.109546 119.392211 
L 221.50611 119.153826 
L 226.299238 120.087068 
L 228.695802 115.795809 
L 231.092366 116.469605 
L 233.488931 113.255114 
L 235.885495 118.634546 
L 238.282059 117.643943 
L 240.678623 117.451915 
L 243.075187 122.355777 
L 245.471751 120.004742 
L 247.868315 119.239215 
L 250.264879 122.201501 
L 255.058007 122.1812 
L 257.454571 121.140511 
L 259.851135 119.866059 
L 262.247699 110.746536 
L 264.644263 107.434682 
L 269.437392 107.301185 
L 271.833956 107.490395 
L 274.23052 102.703628 
L 276.627084 103.640118 
L 279.023648 102.011319 
L 281.420212 97.472603 
L 283.816776 97.839418 
L 286.21334 97.656497 
L 288.609904 97.141426 
L 291.006468 97.460707 
L 293.403032 101.382099 
L 295.799596 102.5318 
L 298.19616 103.389758 
L 300.592724 100.691419 
L 302.989288 98.372491 
L 305.385852 100.183173 
L 307.782417 100.712109 
L 310.178981 99.054283 
L 312.575545 102.556273 
L 314.972109 100.004289 
L 317.368673 110.248419 
L 319.765237 108.965689 
L 322.161801 108.286813 
L 324.558365 110.739467 
L 326.954929 108.343673 
L 329.351493 108.664413 
L 331.748057 107.537143 
L 334.144621 109.852098 
L 336.541185 111.406727 
L 338.937749 109.616964 
L 341.334313 108.736217 
L 343.730878 103.66975 
L 346.127442 106.407025 
L 348.524006 106.738395 
L 348.524006 106.738395 
" style="fill:none;stroke:#e377c2;stroke-linecap:square;stroke-width:1.5;"/>
   </g>
   <g id="line2d_23">
    <path clip-path="url(#p9a3a94fa60)" d="M 44.160369 118.951541 
L 46.556933 114.617618 
L 48.953497 115.574923 
L 51.350062 109.788684 
L 53.746626 112.369779 
L 56.14319 111.143033 
L 58.539754 113.841763 
L 60.936318 111.014643 
L 63.332882 109.314067 
L 65.729446 108.656156 
L 68.12601 111.963305 
L 70.522574 115.869096 
L 72.919138 111.515945 
L 75.315702 109.716669 
L 77.712266 107.167826 
L 80.10883 102.510869 
L 82.505394 104.855779 
L 84.901958 104.730181 
L 87.298523 98.068872 
L 89.695087 95.265975 
L 92.091651 93.245684 
L 94.488215 85.87314 
L 96.884779 86.882322 
L 99.281343 85.706479 
L 101.677907 85.379679 
L 104.074471 83.200487 
L 106.471035 83.676491 
L 108.867599 83.318239 
L 111.264163 78.824495 
L 113.660727 80.843379 
L 116.057291 80.870302 
L 118.453855 84.88114 
L 120.850419 83.529778 
L 123.246983 88.66018 
L 125.643548 87.883228 
L 128.040112 83.365425 
L 130.436676 82.761066 
L 132.83324 85.495943 
L 135.229804 84.425091 
L 137.626368 86.576574 
L 140.022932 93.136364 
L 142.419496 91.440273 
L 144.81606 90.191491 
L 147.212624 89.694189 
L 149.609188 90.720022 
L 152.005752 90.089434 
L 154.402316 94.686525 
L 156.79888 98.019637 
L 159.195444 100.001106 
L 161.592009 96.812293 
L 163.988573 97.919019 
L 166.385137 101.09719 
L 168.781701 99.528357 
L 171.178265 100.606771 
L 173.574829 100.486233 
L 175.971393 101.344412 
L 178.367957 106.08653 
L 180.764521 106.791838 
L 183.161085 105.051241 
L 185.557649 105.224599 
L 187.954213 108.544061 
L 190.350777 114.887583 
L 192.747341 113.594127 
L 195.143905 115.674804 
L 197.54047 116.227567 
L 199.937034 115.285039 
L 202.333598 113.960947 
L 204.730162 112.036571 
L 207.126726 114.396401 
L 209.52329 123.032037 
L 211.919854 117.415321 
L 214.316418 119.240842 
L 216.712982 121.521901 
L 219.109546 120.056853 
L 221.50611 117.565718 
L 223.902674 117.35412 
L 226.299238 114.019948 
L 231.092366 106.664105 
L 233.488931 105.761289 
L 238.282059 96.511329 
L 240.678623 98.002587 
L 243.075187 91.663419 
L 247.868315 85.319424 
L 250.264879 87.319447 
L 252.661443 85.535548 
L 255.058007 84.492097 
L 257.454571 81.278007 
L 259.851135 82.074242 
L 262.247699 85.941971 
L 264.644263 84.269714 
L 267.040827 89.947688 
L 269.437392 82.71159 
L 271.833956 84.156945 
L 274.23052 83.401134 
L 276.627084 81.138693 
L 279.023648 78.269267 
L 281.420212 79.271239 
L 283.816776 81.183727 
L 286.21334 81.52136 
L 288.609904 85.553219 
L 291.006468 76.508471 
L 293.403032 76.638318 
L 298.19616 71.010844 
L 300.592724 66.870767 
L 302.989288 61.682068 
L 305.385852 63.164443 
L 307.782417 63.716228 
L 310.178981 63.55739 
L 312.575545 66.134502 
L 314.972109 69.02948 
L 317.368673 70.377825 
L 319.765237 70.418074 
L 322.161801 69.981829 
L 324.558365 73.824877 
L 326.954929 77.256487 
L 329.351493 76.260191 
L 331.748057 73.818814 
L 334.144621 70.647454 
L 336.541185 72.707055 
L 341.334313 81.541103 
L 343.730878 83.235057 
L 346.127442 82.913137 
L 348.524006 76.565008 
L 348.524006 76.565008 
" style="fill:none;stroke:#7f7f7f;stroke-linecap:square;stroke-width:1.5;"/>
   </g>
   <g id="line2d_24">
    <path clip-path="url(#p9a3a94fa60)" d="M 44.160369 85.16641 
L 46.556933 86.719756 
L 48.953497 85.474767 
L 51.350062 85.248647 
L 53.746626 87.868692 
L 56.14319 85.162187 
L 58.539754 86.788247 
L 60.936318 83.17275 
L 63.332882 84.147295 
L 65.729446 87.366646 
L 68.12601 85.618874 
L 70.522574 81.720376 
L 72.919138 80.492249 
L 75.315702 79.874801 
L 77.712266 79.389688 
L 80.10883 74.359052 
L 82.505394 77.138633 
L 84.901958 74.378008 
L 87.298523 75.232855 
L 89.695087 74.573593 
L 92.091651 75.498211 
L 94.488215 77.405476 
L 96.884779 83.829217 
L 99.281343 85.535365 
L 101.677907 85.06228 
L 104.074471 90.015552 
L 106.471035 94.376359 
L 108.867599 93.557899 
L 111.264163 93.179105 
L 113.660727 89.699568 
L 116.057291 87.446217 
L 118.453855 84.93207 
L 120.850419 86.464891 
L 123.246983 84.395794 
L 125.643548 79.236607 
L 128.040112 76.052642 
L 130.436676 76.663258 
L 132.83324 75.126961 
L 135.229804 74.1641 
L 137.626368 76.269981 
L 140.022932 75.438169 
L 144.81606 75.484932 
L 147.212624 71.793304 
L 149.609188 65.358837 
L 152.005752 62.165519 
L 154.402316 65.561251 
L 156.79888 60.152809 
L 159.195444 56.943328 
L 161.592009 58.494739 
L 163.988573 52.43907 
L 166.385137 57.690881 
L 168.781701 55.053559 
L 171.178265 52.592686 
L 173.574829 53.04556 
L 175.971393 51.548473 
L 178.367957 57.909637 
L 180.764521 57.650143 
L 183.161085 57.942522 
L 185.557649 51.140275 
L 187.954213 53.711595 
L 190.350777 49.242506 
L 192.747341 49.142341 
L 195.143905 46.591698 
L 197.54047 39.695004 
L 199.937034 46.53178 
L 202.333598 45.246656 
L 204.730162 42.7857 
L 207.126726 43.840555 
L 211.919854 44.955073 
L 214.316418 40.625213 
L 216.712982 37.111626 
L 219.109546 33.02465 
L 221.50611 33.507755 
L 223.902674 35.290708 
L 226.299238 38.470541 
L 228.695802 37.62259 
L 231.092366 34.68965 
L 233.488931 36.222461 
L 235.885495 32.953216 
L 238.282059 37.771738 
L 240.678623 35.749673 
L 243.075187 30.401488 
L 245.471751 27.577769 
L 247.868315 24.011576 
L 250.264879 23.357852 
L 252.661443 20.504639 
L 255.058007 17.083636 
L 259.851135 25.303125 
L 262.247699 29.064121 
L 264.644263 31.944201 
L 267.040827 30.739246 
L 269.437392 28.495509 
L 271.833956 28.262165 
L 274.23052 31.443966 
L 276.627084 32.932176 
L 279.023648 29.821279 
L 281.420212 31.124912 
L 283.816776 30.584036 
L 286.21334 31.838649 
L 288.609904 30.122762 
L 291.006468 29.861986 
L 293.403032 26.592383 
L 295.799596 27.480188 
L 298.19616 24.057064 
L 300.592724 25.699184 
L 302.989288 22.502831 
L 305.385852 22.15352 
L 307.782417 24.129668 
L 310.178981 25.318425 
L 312.575545 28.984479 
L 314.972109 21.869147 
L 317.368673 21.224652 
L 319.765237 24.792809 
L 322.161801 26.292686 
L 324.558365 28.482692 
L 326.954929 28.96952 
L 329.351493 24.644607 
L 331.748057 27.808644 
L 334.144621 31.511292 
L 336.541185 35.833479 
L 338.937749 38.487191 
L 341.334313 35.709229 
L 343.730878 36.456327 
L 346.127442 39.209636 
L 348.524006 40.728439 
L 348.524006 40.728439 
" style="fill:none;stroke:#bcbd22;stroke-linecap:square;stroke-width:1.5;"/>
   </g>
   <g id="line2d_25">
    <path clip-path="url(#p9a3a94fa60)" d="M 44.160369 40.535211 
L 46.556933 38.904103 
L 48.953497 41.841985 
L 51.350062 42.501595 
L 58.539754 40.135793 
L 60.936318 41.272965 
L 63.332882 38.916099 
L 65.729446 42.888134 
L 68.12601 40.04732 
L 70.522574 37.455077 
L 72.919138 35.125183 
L 75.315702 35.282727 
L 77.712266 31.380255 
L 80.10883 32.422418 
L 82.505394 28.656507 
L 84.901958 27.600552 
L 87.298523 30.415221 
L 89.695087 32.089355 
L 92.091651 29.28284 
L 94.488215 27.628744 
L 96.884779 26.711798 
L 99.281343 26.12054 
L 101.677907 22.675138 
L 104.074471 20.856713 
L 106.471035 26.529551 
L 108.867599 25.738348 
L 111.264163 28.851789 
L 113.660727 27.542685 
L 116.057291 25.544289 
L 118.453855 30.717605 
L 120.850419 33.459912 
L 123.246983 34.871972 
L 128.040112 29.027626 
L 130.436676 33.259174 
L 132.83324 33.42217 
L 135.229804 30.26455 
L 137.626368 32.877751 
L 140.022932 28.563552 
L 142.419496 28.313761 
L 144.81606 24.195651 
L 147.212624 27.036952 
L 149.609188 30.325203 
L 152.005752 29.946806 
L 154.402316 32.582885 
L 156.79888 31.068343 
L 159.195444 29.88364 
L 161.592009 31.997755 
L 163.988573 34.467126 
L 166.385137 32.77396 
L 168.781701 35.741731 
L 171.178265 39.745661 
L 173.574829 40.106547 
L 175.971393 40.118944 
L 178.367957 43.519175 
L 180.764521 42.72512 
L 183.161085 41.785785 
L 185.557649 42.123541 
L 187.954213 36.477217 
L 190.350777 39.270051 
L 192.747341 38.572667 
L 195.143905 41.281503 
L 197.54047 41.50467 
L 199.937034 41.23491 
L 202.333598 42.04709 
L 204.730162 45.661249 
L 207.126726 45.867158 
L 209.52329 47.286493 
L 211.919854 45.105896 
L 214.316418 47.520095 
L 216.712982 46.089047 
L 219.109546 48.053292 
L 221.50611 45.435212 
L 223.902674 47.562402 
L 226.299238 43.657702 
L 228.695802 40.771827 
L 231.092366 40.559379 
L 233.488931 41.541735 
L 235.885495 43.15237 
L 238.282059 41.581462 
L 240.678623 47.590589 
L 243.075187 43.742899 
L 245.471751 47.27362 
L 247.868315 43.208999 
L 250.264879 43.518606 
L 252.661443 44.36052 
L 255.058007 42.809675 
L 259.851135 41.405701 
L 262.247699 42.590388 
L 264.644263 40.400818 
L 267.040827 45.70051 
L 269.437392 56.419737 
L 271.833956 54.852726 
L 274.23052 53.720981 
L 276.627084 57.544049 
L 279.023648 61.901982 
L 281.420212 61.102303 
L 283.816776 57.064901 
L 286.21334 56.470078 
L 288.609904 57.623453 
L 291.006468 58.06986 
L 293.403032 59.063014 
L 295.799596 60.834456 
L 298.19616 61.37647 
L 300.592724 56.955925 
L 302.989288 58.052678 
L 305.385852 55.232962 
L 307.782417 60.368154 
L 310.178981 57.299464 
L 312.575545 54.743906 
L 314.972109 52.005975 
L 317.368673 50.228201 
L 319.765237 48.932267 
L 322.161801 48.826856 
L 324.558365 46.823373 
L 326.954929 43.769339 
L 329.351493 43.944806 
L 331.748057 45.025709 
L 334.144621 49.740611 
L 336.541185 49.958739 
L 338.937749 51.982469 
L 341.334313 56.196652 
L 343.730878 49.463551 
L 346.127442 44.866175 
L 348.524006 46.727629 
L 348.524006 46.727629 
" style="fill:none;stroke:#17becf;stroke-linecap:square;stroke-width:1.5;"/>
   </g>
   <g id="patch_3">
    <path d="M 28.942188 224.64 
L 28.942188 7.2 
" style="fill:none;stroke:#000000;stroke-linecap:square;stroke-linejoin:miter;stroke-width:0.8;"/>
   </g>
   <g id="patch_4">
    <path d="M 363.742188 224.64 
L 363.742188 7.2 
" style="fill:none;stroke:#000000;stroke-linecap:square;stroke-linejoin:miter;stroke-width:0.8;"/>
   </g>
   <g id="patch_5">
    <path d="M 28.942188 224.64 
L 363.742188 224.64 
" style="fill:none;stroke:#000000;stroke-linecap:square;stroke-linejoin:miter;stroke-width:0.8;"/>
   </g>
   <g id="patch_6">
    <path d="M 28.942188 7.2 
L 363.742188 7.2 
" style="fill:none;stroke:#000000;stroke-linecap:square;stroke-linejoin:miter;stroke-width:0.8;"/>
   </g>
  </g>
 </g>
 <defs>
  <clipPath id="p9a3a94fa60">
   <rect height="217.44" width="334.8" x="28.942188" y="7.2"/>
  </clipPath>
 </defs>
</svg>
