<?xml version="1.0" encoding="utf-8" standalone="no"?>
<!DOCTYPE svg PUBLIC "-//W3C//DTD SVG 1.1//EN"
  "http://www.w3.org/Graphics/SVG/1.1/DTD/svg11.dtd">
<svg height="251.399844pt" version="1.1" viewBox="0 0 371.241719 251.399844" width="371.241719pt" xmlns="http://www.w3.org/2000/svg" xmlns:xlink="http://www.w3.org/1999/xlink">
 <metadata>
  <rdf:RDF xmlns:cc="http://creativecommons.org/ns#" xmlns:dc="http://purl.org/dc/elements/1.1/" xmlns:rdf="http://www.w3.org/1999/02/22-rdf-syntax-ns#">
   <cc:Work>
    <dc:type rdf:resource="http://purl.org/dc/dcmitype/StillImage"/>
    <dc:date>2021-11-02T13:57:32.174839</dc:date>
    <dc:format>image/svg+xml</dc:format>
    <dc:creator>
     <cc:Agent>
      <dc:title>Matplotlib v3.4.3, https://matplotlib.org/</dc:title>
     </cc:Agent>
    </dc:creator>
   </cc:Work>
  </rdf:RDF>
 </metadata>
 <defs>
  <style type="text/css">*{stroke-linecap:butt;stroke-linejoin:round;}</style>
 </defs>
 <g id="figure_1">
  <g id="patch_1">
   <path d="M 0 251.399844 
L 371.241719 251.399844 
L 371.241719 0 
L 0 0 
z
" style="fill:#ffffff;"/>
  </g>
  <g id="axes_1">
   <g id="patch_2">
    <path d="M 29.241719 224.64 
L 364.041719 224.64 
L 364.041719 7.2 
L 29.241719 7.2 
z
" style="fill:#ffffff;"/>
   </g>
   <g id="matplotlib.axis_1">
    <g id="xtick_1">
     <g id="line2d_1">
      <defs>
       <path d="M 0 0 
L 0 6 
" id="m0a02342fc6" style="stroke:#262626;stroke-width:1.25;"/>
      </defs>
      <g>
       <use style="fill:#262626;stroke:#262626;stroke-width:1.25;" x="43.974622" xlink:href="#m0a02342fc6" y="224.64"/>
      </g>
     </g>
     <g id="text_1">
      <!-- 0 -->
      <g style="fill:#262626;" transform="translate(40.916106 242.013594)scale(0.11 -0.11)">
       <defs>
        <path d="M 266 2259 
Q 266 3072 433 3567 
Q 600 4063 929 4331 
Q 1259 4600 1759 4600 
Q 2128 4600 2406 4451 
Q 2684 4303 2865 4023 
Q 3047 3744 3150 3342 
Q 3253 2941 3253 2259 
Q 3253 1453 3087 958 
Q 2922 463 2592 192 
Q 2263 -78 1759 -78 
Q 1097 -78 719 397 
Q 266 969 266 2259 
z
M 844 2259 
Q 844 1131 1108 757 
Q 1372 384 1759 384 
Q 2147 384 2411 759 
Q 2675 1134 2675 2259 
Q 2675 3391 2411 3762 
Q 2147 4134 1753 4134 
Q 1366 4134 1134 3806 
Q 844 3388 844 2259 
z
" id="ArialMT-30" transform="scale(0.015625)"/>
       </defs>
       <use xlink:href="#ArialMT-30"/>
      </g>
     </g>
    </g>
    <g id="xtick_2">
     <g id="line2d_2">
      <g>
       <use style="fill:#262626;stroke:#262626;stroke-width:1.25;" x="105.178724" xlink:href="#m0a02342fc6" y="224.64"/>
      </g>
     </g>
     <g id="text_2">
      <!-- 50 -->
      <g style="fill:#262626;" transform="translate(99.061693 242.013594)scale(0.11 -0.11)">
       <defs>
        <path d="M 266 1200 
L 856 1250 
Q 922 819 1161 601 
Q 1400 384 1738 384 
Q 2144 384 2425 690 
Q 2706 997 2706 1503 
Q 2706 1984 2436 2262 
Q 2166 2541 1728 2541 
Q 1456 2541 1237 2417 
Q 1019 2294 894 2097 
L 366 2166 
L 809 4519 
L 3088 4519 
L 3088 3981 
L 1259 3981 
L 1013 2750 
Q 1425 3038 1878 3038 
Q 2478 3038 2890 2622 
Q 3303 2206 3303 1553 
Q 3303 931 2941 478 
Q 2500 -78 1738 -78 
Q 1113 -78 717 272 
Q 322 622 266 1200 
z
" id="ArialMT-35" transform="scale(0.015625)"/>
       </defs>
       <use xlink:href="#ArialMT-35"/>
       <use x="55.615234" xlink:href="#ArialMT-30"/>
      </g>
     </g>
    </g>
    <g id="xtick_3">
     <g id="line2d_3">
      <g>
       <use style="fill:#262626;stroke:#262626;stroke-width:1.25;" x="166.382826" xlink:href="#m0a02342fc6" y="224.64"/>
      </g>
     </g>
     <g id="text_3">
      <!-- 100 -->
      <g style="fill:#262626;" transform="translate(157.207279 242.013594)scale(0.11 -0.11)">
       <defs>
        <path d="M 2384 0 
L 1822 0 
L 1822 3584 
Q 1619 3391 1289 3197 
Q 959 3003 697 2906 
L 697 3450 
Q 1169 3672 1522 3987 
Q 1875 4303 2022 4600 
L 2384 4600 
L 2384 0 
z
" id="ArialMT-31" transform="scale(0.015625)"/>
       </defs>
       <use xlink:href="#ArialMT-31"/>
       <use x="55.615234" xlink:href="#ArialMT-30"/>
       <use x="111.230469" xlink:href="#ArialMT-30"/>
      </g>
     </g>
    </g>
    <g id="xtick_4">
     <g id="line2d_4">
      <g>
       <use style="fill:#262626;stroke:#262626;stroke-width:1.25;" x="227.586928" xlink:href="#m0a02342fc6" y="224.64"/>
      </g>
     </g>
     <g id="text_4">
      <!-- 150 -->
      <g style="fill:#262626;" transform="translate(218.411381 242.013594)scale(0.11 -0.11)">
       <use xlink:href="#ArialMT-31"/>
       <use x="55.615234" xlink:href="#ArialMT-35"/>
       <use x="111.230469" xlink:href="#ArialMT-30"/>
      </g>
     </g>
    </g>
    <g id="xtick_5">
     <g id="line2d_5">
      <g>
       <use style="fill:#262626;stroke:#262626;stroke-width:1.25;" x="288.79103" xlink:href="#m0a02342fc6" y="224.64"/>
      </g>
     </g>
     <g id="text_5">
      <!-- 200 -->
      <g style="fill:#262626;" transform="translate(279.615484 242.013594)scale(0.11 -0.11)">
       <defs>
        <path d="M 3222 541 
L 3222 0 
L 194 0 
Q 188 203 259 391 
Q 375 700 629 1000 
Q 884 1300 1366 1694 
Q 2113 2306 2375 2664 
Q 2638 3022 2638 3341 
Q 2638 3675 2398 3904 
Q 2159 4134 1775 4134 
Q 1369 4134 1125 3890 
Q 881 3647 878 3216 
L 300 3275 
Q 359 3922 746 4261 
Q 1134 4600 1788 4600 
Q 2447 4600 2831 4234 
Q 3216 3869 3216 3328 
Q 3216 3053 3103 2787 
Q 2991 2522 2730 2228 
Q 2469 1934 1863 1422 
Q 1356 997 1212 845 
Q 1069 694 975 541 
L 3222 541 
z
" id="ArialMT-32" transform="scale(0.015625)"/>
       </defs>
       <use xlink:href="#ArialMT-32"/>
       <use x="55.615234" xlink:href="#ArialMT-30"/>
       <use x="111.230469" xlink:href="#ArialMT-30"/>
      </g>
     </g>
    </g>
    <g id="xtick_6">
     <g id="line2d_6">
      <g>
       <use style="fill:#262626;stroke:#262626;stroke-width:1.25;" x="349.995133" xlink:href="#m0a02342fc6" y="224.64"/>
      </g>
     </g>
     <g id="text_6">
      <!-- 250 -->
      <g style="fill:#262626;" transform="translate(340.819586 242.013594)scale(0.11 -0.11)">
       <use xlink:href="#ArialMT-32"/>
       <use x="55.615234" xlink:href="#ArialMT-35"/>
       <use x="111.230469" xlink:href="#ArialMT-30"/>
      </g>
     </g>
    </g>
   </g>
   <g id="matplotlib.axis_2">
    <g id="ytick_1">
     <g id="line2d_7">
      <defs>
       <path d="M 0 0 
L -6 0 
" id="mbe3101aab5" style="stroke:#262626;stroke-width:1.25;"/>
      </defs>
      <g>
       <use style="fill:#262626;stroke:#262626;stroke-width:1.25;" x="29.241719" xlink:href="#mbe3101aab5" y="208.8451"/>
      </g>
     </g>
     <g id="text_7">
      <!-- −4 -->
      <g style="fill:#262626;" transform="translate(7.2 212.781897)scale(0.11 -0.11)">
       <defs>
        <path d="M 3381 1997 
L 356 1997 
L 356 2522 
L 3381 2522 
L 3381 1997 
z
" id="ArialMT-2212" transform="scale(0.015625)"/>
        <path d="M 2069 0 
L 2069 1097 
L 81 1097 
L 81 1613 
L 2172 4581 
L 2631 4581 
L 2631 1613 
L 3250 1613 
L 3250 1097 
L 2631 1097 
L 2631 0 
L 2069 0 
z
M 2069 1613 
L 2069 3678 
L 634 1613 
L 2069 1613 
z
" id="ArialMT-34" transform="scale(0.015625)"/>
       </defs>
       <use xlink:href="#ArialMT-2212"/>
       <use x="58.398438" xlink:href="#ArialMT-34"/>
      </g>
     </g>
    </g>
    <g id="ytick_2">
     <g id="line2d_8">
      <g>
       <use style="fill:#262626;stroke:#262626;stroke-width:1.25;" x="29.241719" xlink:href="#mbe3101aab5" y="165.101923"/>
      </g>
     </g>
     <g id="text_8">
      <!-- −2 -->
      <g style="fill:#262626;" transform="translate(7.2 169.03872)scale(0.11 -0.11)">
       <use xlink:href="#ArialMT-2212"/>
       <use x="58.398438" xlink:href="#ArialMT-32"/>
      </g>
     </g>
    </g>
    <g id="ytick_3">
     <g id="line2d_9">
      <g>
       <use style="fill:#262626;stroke:#262626;stroke-width:1.25;" x="29.241719" xlink:href="#mbe3101aab5" y="121.358747"/>
      </g>
     </g>
     <g id="text_9">
      <!-- 0 -->
      <g style="fill:#262626;" transform="translate(13.624688 125.295544)scale(0.11 -0.11)">
       <use xlink:href="#ArialMT-30"/>
      </g>
     </g>
    </g>
    <g id="ytick_4">
     <g id="line2d_10">
      <g>
       <use style="fill:#262626;stroke:#262626;stroke-width:1.25;" x="29.241719" xlink:href="#mbe3101aab5" y="77.61557"/>
      </g>
     </g>
     <g id="text_10">
      <!-- 2 -->
      <g style="fill:#262626;" transform="translate(13.624688 81.552367)scale(0.11 -0.11)">
       <use xlink:href="#ArialMT-32"/>
      </g>
     </g>
    </g>
    <g id="ytick_5">
     <g id="line2d_11">
      <g>
       <use style="fill:#262626;stroke:#262626;stroke-width:1.25;" x="29.241719" xlink:href="#mbe3101aab5" y="33.872394"/>
      </g>
     </g>
     <g id="text_11">
      <!-- 4 -->
      <g style="fill:#262626;" transform="translate(13.624688 37.809191)scale(0.11 -0.11)">
       <use xlink:href="#ArialMT-34"/>
      </g>
     </g>
    </g>
   </g>
   <g id="line2d_12">
    <path clip-path="url(#pfdf9bebec6)" d="M 44.459901 156.054517 
L 44.726902 125.214603 
L 45.222555 115.321028 
L 45.60251 138.02322 
L 46.18541 99.22063 
L 46.696976 153.752372 
L 46.750046 153.585467 
L 47.003618 118.54708 
L 47.614196 158.416979 
L 47.901342 149.049718 
L 48.025299 128.211147 
L 48.3742 98.544267 
L 48.609205 91.337475 
L 49.278246 169.990469 
L 49.387377 159.514735 
L 49.8082 79.382118 
L 49.992242 116.812499 
L 50.458541 153.830145 
L 50.774399 96.226402 
L 51.187989 106.611615 
L 51.890927 153.293705 
L 52.367833 70.267202 
L 53.015031 176.243296 
L 53.444659 54.629972 
L 53.89722 150.999389 
L 54.107741 142.910982 
L 54.692847 88.059746 
L 55.469264 153.12019 
L 55.473074 153.00148 
L 55.955111 76.816597 
L 56.37611 167.880433 
L 56.538974 148.06122 
L 57.13649 123.8712 
L 57.377462 145.71401 
L 57.379058 145.615779 
L 57.888973 118.323978 
L 58.124192 178.621527 
L 58.264091 171.373069 
L 58.542502 82.488147 
L 59.013006 148.09578 
L 59.433581 108.821781 
L 59.843874 150.238517 
L 60.355661 100.316503 
L 60.736232 145.937552 
L 61.493311 87.0405 
L 61.987106 118.277629 
L 62.413982 156.169085 
L 62.879046 116.687519 
L 63.426982 158.987597 
L 63.650656 162.928654 
L 63.837979 104.323889 
L 64.270057 150.189977 
L 64.640599 91.665917 
L 64.938492 76.575666 
L 65.283449 170.20596 
L 65.31123 168.600211 
L 65.774273 62.491024 
L 66.095426 167.559424 
L 66.454057 139.945096 
L 66.538584 124.058483 
L 66.941702 124.013449 
L 67.254755 72.525181 
L 67.684405 148.603543 
L 67.90423 167.713036 
L 68.365071 92.153736 
L 68.50014 109.613204 
L 68.776604 115.428823 
L 69.200049 147.069508 
L 69.753966 102.489445 
L 70.198286 110.184165 
L 70.29151 141.419068 
L 70.703578 119.397792 
L 71.246292 124.968061 
L 71.76714 137.124031 
L 72.271035 84.325457 
L 72.444786 89.29055 
L 72.988027 135.134117 
L 73.181662 104.257217 
L 73.313136 107.64714 
L 73.831978 110.063888 
L 74.09682 114.357483 
L 74.405612 133.491643 
L 74.952147 136.218801 
L 75.426164 114.985796 
L 75.586902 93.569146 
L 75.710357 101.209341 
L 75.8659 125.995006 
L 76.224598 112.702843 
L 76.612579 138.595812 
L 76.976388 138.924965 
L 77.431123 98.047243 
L 77.620476 144.916387 
L 78.245101 107.393641 
L 78.487125 105.691071 
L 79.281321 146.361122 
L 79.370012 145.543883 
L 79.479737 129.822985 
L 79.612652 99.088096 
L 79.892074 81.764756 
L 80.213604 137.515328 
L 80.445757 142.474163 
L 80.681595 140.221195 
L 80.933262 132.149078 
L 81.366265 92.902003 
L 81.741515 167.621631 
L 82.310381 52.728776 
L 82.728864 141.505862 
L 83.33781 115.39938 
L 83.666017 129.136116 
L 83.810094 117.517715 
L 84.331629 133.634612 
L 84.889805 126.033841 
L 85.301778 132.771311 
L 85.489728 111.049546 
L 85.714674 102.284699 
L 86.157037 128.211403 
L 86.599484 129.910476 
L 86.86024 106.31086 
L 87.233299 107.394934 
L 87.900587 143.908997 
L 88.126452 130.26125 
L 88.508213 116.876532 
L 89.0546 176.854454 
L 89.104049 166.310666 
L 89.666235 95.595342 
L 89.698769 103.031211 
L 89.966888 153.113273 
L 90.172671 156.842607 
L 90.357801 119.030855 
L 90.86805 113.849499 
L 91.139216 82.412574 
L 91.280834 98.064901 
L 91.613955 149.021033 
L 92.092576 87.689055 
L 92.636024 168.337421 
L 93.155176 88.321378 
L 93.49909 81.6102 
L 93.788262 128.600504 
L 94.107025 146.97142 
L 94.291167 121.020788 
L 94.828842 95.113149 
L 95.192843 144.098812 
L 95.590571 144.447514 
L 95.88631 98.374285 
L 96.195021 124.114381 
L 96.640301 119.025398 
L 97.095289 132.246075 
L 97.46767 109.098182 
L 97.781557 160.502256 
L 98.012727 154.510647 
L 98.332652 69.100019 
L 98.535254 113.812147 
L 98.899997 163.4405 
L 99.3358 60.280244 
L 99.572421 117.777435 
L 100.045284 114.524976 
L 100.489903 144.587629 
L 100.603921 135.155857 
L 101.116406 102.66074 
L 101.306934 177.002484 
L 101.518901 198.877089 
L 102.004114 54.860148 
L 102.601814 127.432086 
L 102.89429 149.376403 
L 103.3297 83.991138 
L 103.617584 70.20523 
L 104.157176 176.227878 
L 104.185397 167.211051 
L 104.445111 113.064094 
L 104.859276 106.505208 
L 105.405801 118.786678 
L 105.569221 141.919613 
L 105.786498 155.919294 
L 106.20977 74.568402 
L 106.532231 171.636117 
L 107.136175 81.356137 
L 107.647884 89.417457 
L 108.215181 158.186885 
L 108.352929 142.641977 
L 108.725489 83.469124 
L 108.933014 104.179638 
L 109.230815 162.763424 
L 109.61182 107.866931 
L 110.223374 169.416748 
L 110.481772 123.253671 
L 111.021885 140.81697 
L 111.079429 135.477171 
L 111.614032 125.185221 
L 111.674839 147.256002 
L 112.080624 134.911471 
L 112.155377 102.983929 
L 112.644218 163.579888 
L 112.939392 143.978231 
L 113.328712 101.842851 
L 113.923854 69.855276 
L 114.167556 98.914185 
L 114.694894 117.932324 
L 115.239188 144.516742 
L 115.468273 120.923037 
L 115.70791 94.935788 
L 115.722095 95.564426 
L 116.11686 201.040115 
L 116.667606 81.997154 
L 117.059996 149.996361 
L 117.553381 126.386075 
L 117.574152 129.133564 
L 118.172143 60.814505 
L 118.697269 196.795639 
L 119.198796 50.289081 
L 119.65602 194.377217 
L 120.0356 86.601874 
L 120.611894 94.750284 
L 120.860179 78.768933 
L 121.138511 183.037059 
L 121.345787 214.756364 
L 121.729067 17.083636 
L 122.04625 140.596585 
L 122.624974 73.24213 
L 122.944237 129.079262 
L 123.497747 112.634429 
L 123.792173 182.300394 
L 124.031368 134.742162 
L 124.362641 39.271218 
L 124.613773 138.474648 
L 125.157776 80.262304 
L 125.669898 132.414908 
L 126.210005 165.806298 
L 126.658916 72.018521 
L 127.188538 173.985986 
L 127.706842 68.369956 
L 127.932388 75.031146 
L 128.37745 136.718018 
L 128.867969 114.927288 
L 129.009382 90.841591 
L 129.538478 131.804454 
L 129.610382 145.99957 
L 130.131097 99.869918 
L 130.481088 85.97836 
L 130.831398 137.897521 
L 131.270412 110.605696 
L 131.760899 115.022534 
L 131.79164 116.562999 
L 132.182596 145.03607 
L 132.697196 72.511884 
L 133.029808 146.73363 
L 133.46893 109.691585 
L 133.841944 118.798101 
L 133.895864 122.911791 
L 134.299449 123.228824 
L 134.807999 107.361988 
L 135.072561 121.321511 
L 135.547284 135.493468 
L 136.138418 102.29847 
L 136.565107 130.690776 
L 136.950636 100.640383 
L 137.283156 163.223241 
L 137.761885 93.611791 
L 138.19882 139.70359 
L 138.327985 137.256954 
L 138.564464 121.276757 
L 139.10182 92.534261 
L 139.643409 164.490951 
L 140.205003 80.211785 
L 140.376927 104.173976 
L 140.878171 143.201437 
L 141.607713 108.57641 
L 142.14583 132.323247 
L 142.294231 184.473194 
L 142.445394 181.360066 
L 142.609787 125.563789 
L 143.043818 89.790167 
L 143.203566 156.857554 
L 143.474659 159.373142 
L 143.551518 134.238198 
L 144.127905 153.838502 
L 144.381009 99.362222 
L 144.903571 196.137073 
L 145.466848 57.470134 
L 145.89514 141.650723 
L 146.213313 108.493974 
L 146.660127 184.961723 
L 147.232145 91.214213 
L 147.46173 190.506384 
L 148.154712 87.710928 
L 148.484941 130.353777 
L 148.59629 115.829676 
L 148.920798 115.136571 
L 149.242422 162.225251 
L 149.727672 89.087767 
L 150.132328 131.50802 
L 150.336883 131.028164 
L 150.723352 107.117749 
L 151.231428 116.306529 
L 151.377296 112.614396 
L 151.574755 118.348672 
L 152.037308 123.674751 
L 152.197493 116.390273 
L 152.503692 129.291124 
L 152.942947 71.315892 
L 153.516528 157.497811 
L 153.770746 107.677179 
L 154.043612 94.969352 
L 154.617964 109.776153 
L 154.771024 106.050205 
L 155.08847 151.050307 
L 155.251969 153.484574 
L 155.6332 118.456708 
L 156.101122 132.650392 
L 156.523907 97.320762 
L 156.989637 153.739636 
L 157.595255 96.423325 
L 158.161694 104.462006 
L 158.244816 79.330905 
L 158.497816 101.773857 
L 158.659081 149.30873 
L 159.134035 94.817932 
L 159.1842 99.162035 
L 159.628264 137.830549 
L 159.955194 98.132629 
L 160.530543 152.831195 
L 160.972765 89.801301 
L 161.184831 131.773388 
L 161.36858 121.374929 
L 161.868008 161.374505 
L 162.251881 131.388699 
L 162.846049 155.241038 
L 163.294458 93.595947 
L 163.772159 150.313974 
L 164.120083 116.483735 
L 164.728593 153.511217 
L 164.886841 138.398204 
L 165.254126 74.377822 
L 165.862008 165.862779 
L 165.898208 154.904461 
L 166.398742 95.326679 
L 166.936366 128.831483 
L 167.059791 94.807641 
L 167.670049 155.73091 
L 168.062605 81.415068 
L 168.57848 126.793112 
L 168.967186 112.468116 
L 169.277007 200.882888 
L 169.757724 54.928864 
L 170.119087 150.553853 
L 170.638823 98.419039 
L 170.992365 117.933777 
L 171.412307 93.526686 
L 171.536324 98.633048 
L 171.838036 136.449294 
L 172.309598 93.574812 
L 172.817151 129.473829 
L 173.001039 91.775153 
L 173.614234 151.094602 
L 174.054755 99.383125 
L 174.132536 102.109599 
L 174.233476 103.466955 
L 174.770414 146.505279 
L 175.303627 114.435704 
L 175.351052 104.37578 
L 175.538713 91.502321 
L 175.981887 141.207455 
L 176.021769 139.657375 
L 176.298282 135.001437 
L 176.935275 101.924831 
L 176.974979 97.31146 
L 177.254525 121.065383 
L 177.356959 139.882799 
L 177.763687 161.61682 
L 177.76931 159.877951 
L 177.966393 88.266236 
L 178.253321 71.39301 
L 178.443001 139.754147 
L 178.893217 125.461499 
L 179.421297 135.797263 
L 179.504519 152.217926 
L 179.748099 151.370929 
L 180.167319 95.664469 
L 180.642999 123.740977 
L 180.876016 162.83902 
L 181.291788 114.61184 
L 181.744412 106.871826 
L 182.003716 164.435318 
L 182.210581 154.267014 
L 182.572962 92.651546 
L 182.865317 115.508155 
L 183.395061 174.587748 
L 184.003162 101.009834 
L 184.518514 136.791287 
L 184.726163 123.333925 
L 185.13845 114.311644 
L 185.18794 116.039179 
L 185.727872 153.501611 
L 186.011215 151.389284 
L 186.336336 120.156979 
L 186.777279 134.160739 
L 187.068115 165.698607 
L 187.105045 160.807213 
L 187.307274 120.341027 
L 187.878736 137.612724 
L 188.323245 142.687864 
L 188.763722 153.029439 
L 189.224125 109.85007 
L 189.481197 185.354643 
L 190.072909 113.11695 
L 190.214417 137.218463 
L 190.362004 140.106289 
L 190.513332 116.121111 
L 191.088429 100.800109 
L 191.68869 153.699938 
L 192.073709 92.637544 
L 192.575909 147.593205 
L 193.182527 72.368977 
L 193.406809 97.89304 
L 193.714603 146.036228 
L 194.022266 125.378631 
L 194.567256 100.71675 
L 194.86938 116.643866 
L 195.177526 146.888229 
L 195.536289 88.784014 
L 195.673872 92.166398 
L 196.119882 160.236961 
L 196.507678 79.498147 
L 197.101035 117.01653 
L 197.320185 97.462014 
L 198.151 155.093746 
L 198.518776 93.074061 
L 199.087091 154.905964 
L 199.692932 98.212973 
L 200.033203 148.344884 
L 200.041245 148.31084 
L 200.504246 140.916033 
L 200.935947 114.337334 
L 201.629427 171.768915 
L 201.941615 96.393557 
L 202.378418 118.387927 
L 202.886052 124.775872 
L 203.396731 94.740025 
L 203.923061 155.770002 
L 204.560539 74.613509 
L 205.045068 124.17931 
L 205.308819 123.678465 
L 205.335059 126.443708 
L 205.897479 111.131641 
L 206.232605 90.996824 
L 206.784467 132.002035 
L 206.805063 130.317917 
L 207.567276 87.425909 
L 207.707481 65.959393 
L 208.157362 179.206277 
L 208.639813 108.208363 
L 208.959696 106.581988 
L 209.046492 100.08181 
L 209.303515 101.776909 
L 209.423916 124.262604 
L 209.925853 113.681557 
L 210.742317 168.599239 
L 211.23271 58.687224 
L 211.252364 59.536054 
L 211.392915 93.585995 
L 211.806003 158.808311 
L 212.173766 110.802048 
L 212.441922 114.298929 
L 212.627138 108.969076 
L 212.953529 89.816605 
L 213.139457 144.340282 
L 213.67239 102.868092 
L 214.28583 182.279349 
L 214.467543 163.468903 
L 214.853719 97.806111 
L 214.899943 102.20972 
L 214.952986 108.150611 
L 215.447946 114.000892 
L 215.474556 113.53342 
L 216.002439 157.821032 
L 216.36887 95.028158 
L 216.654138 113.491309 
L 216.880822 148.695469 
L 217.027423 148.696211 
L 217.555178 114.708825 
L 217.689101 113.538238 
L 217.896826 102.863919 
L 218.370596 173.049809 
L 218.627612 126.704626 
L 218.982177 89.573937 
L 219.535603 124.885501 
L 219.598511 99.999438 
L 219.870235 82.855667 
L 220.442134 127.089452 
L 220.597547 99.110244 
L 221.209405 153.219396 
L 221.635405 71.110518 
L 222.178893 141.928012 
L 222.682888 125.427734 
L 222.963904 137.950675 
L 223.37802 63.175519 
L 223.412986 67.908933 
L 223.936581 168.442894 
L 224.334451 50.0489 
L 224.912041 143.443596 
L 225.051726 117.861954 
L 225.379062 127.929532 
L 225.975302 99.108406 
L 226.522997 170.829779 
L 226.996715 36.032547 
L 227.369066 194.899101 
L 227.92014 100.408253 
L 227.964436 116.147106 
L 228.438899 94.820624 
L 228.652684 47.364719 
L 228.768889 88.9722 
L 229.195967 165.412163 
L 230.293349 72.399562 
L 230.884873 146.438982 
L 230.973637 102.303667 
L 231.302365 80.291192 
L 231.767491 189.154075 
L 232.306353 102.105745 
L 232.512371 139.858443 
L 232.723094 140.087694 
L 233.119184 125.086486 
L 233.245154 113.256348 
L 233.714604 98.072646 
L 234.263995 167.222034 
L 234.821477 73.982288 
L 234.952898 133.377752 
L 235.453256 144.317411 
L 235.517512 129.737574 
L 235.845788 97.327399 
L 236.409655 114.261729 
L 236.607617 135.131582 
L 236.965048 153.628212 
L 237.484043 76.423851 
L 237.781063 141.245468 
L 238.168192 149.266623 
L 238.343912 142.888157 
L 238.760835 59.34399 
L 239.275841 174.208329 
L 239.442065 179.076861 
L 239.528832 172.268073 
L 239.823404 86.917546 
L 240.090112 57.873115 
L 240.295074 115.717578 
L 240.745411 170.208464 
L 241.218566 93.100394 
L 241.914361 153.873881 
L 242.22871 108.964759 
L 243.244998 134.076061 
L 243.345951 127.381198 
L 243.912508 118.170459 
L 244.371216 152.090794 
L 244.727082 107.676575 
L 245.004608 131.194501 
L 245.524038 89.75925 
L 246.130681 150.23984 
L 246.332977 111.605456 
L 246.599942 104.985081 
L 247.083708 134.626045 
L 247.621031 137.05415 
L 247.999045 58.252808 
L 248.345816 166.619448 
L 248.906742 88.573234 
L 249.404477 128.500714 
L 249.848255 137.939061 
L 250.029371 170.570997 
L 250.449663 74.519452 
L 251.047051 146.686723 
L 251.556543 85.982607 
L 251.923197 112.721101 
L 252.495653 160.067468 
L 252.861055 78.979097 
L 253.240939 132.591176 
L 253.618299 145.69601 
L 254.062688 111.487275 
L 254.351095 75.167924 
L 254.872716 162.29796 
L 254.901399 159.283989 
L 255.220695 107.812964 
L 255.728994 131.277892 
L 256.010609 113.326074 
L 256.222362 89.259409 
L 256.503436 109.147435 
L 256.678392 142.067503 
L 257.232374 101.159735 
L 257.821632 123.612558 
L 258.209247 89.742079 
L 258.546499 145.908019 
L 258.795451 128.447313 
L 258.806484 128.589617 
L 258.910825 139.007324 
L 259.500126 109.502622 
L 259.739675 72.499303 
L 259.995137 89.000248 
L 260.523255 174.290317 
L 260.902959 51.224956 
L 261.0104 51.748056 
L 261.49812 182.335562 
L 261.772071 103.549497 
L 262.287316 137.759526 
L 262.563199 114.419534 
L 263.118265 109.240662 
L 263.161052 113.472744 
L 263.733272 127.395008 
L 263.877301 115.916694 
L 264.276742 121.939681 
L 264.558106 156.448216 
L 264.997211 101.284369 
L 265.260813 94.396069 
L 265.547568 132.772109 
L 265.919301 122.41349 
L 266.180341 133.729361 
L 266.576307 118.884344 
L 267.025037 115.197568 
L 267.147095 110.99659 
L 267.556637 100.788329 
L 268.164875 169.813527 
L 268.579886 74.590355 
L 269.099627 128.29249 
L 269.432537 143.034007 
L 269.956556 91.508942 
L 270.322748 95.774997 
L 270.418667 131.116352 
L 270.95299 122.672157 
L 271.066317 102.630104 
L 271.562657 121.289154 
L 271.711603 136.519865 
L 272.281646 113.412209 
L 272.654291 119.232335 
L 272.886708 118.495279 
L 273.177707 141.195463 
L 273.749591 101.940968 
L 274.116538 113.238667 
L 274.274537 132.176911 
L 274.868117 142.339423 
L 275.444456 63.127914 
L 275.972194 143.247038 
L 276.569134 149.210218 
L 276.892491 105.395924 
L 277.103071 45.314079 
L 277.460628 174.585474 
L 278.026153 76.04291 
L 278.501572 126.576997 
L 278.720547 99.11373 
L 278.767274 101.256311 
L 279.145025 167.321771 
L 279.683261 66.864658 
L 279.795606 85.721149 
L 280.052217 159.71912 
L 280.503531 87.680211 
L 280.940005 134.891248 
L 281.022617 130.246343 
L 281.155887 108.961359 
L 281.558342 106.126258 
L 281.666934 150.977441 
L 282.079303 106.764418 
L 282.828832 180.962171 
L 283.140191 22.055755 
L 283.681134 177.982415 
L 283.798194 171.109193 
L 284.129175 101.506355 
L 284.2783 97.137733 
L 284.674935 93.95584 
L 285.263568 186.0939 
L 285.69933 72.332708 
L 286.166963 189.407347 
L 286.300716 179.319564 
L 286.594709 73.010182 
L 286.777004 91.024855 
L 287.044196 140.410637 
L 287.178918 130.941404 
L 287.669332 140.092633 
L 288.211718 73.119283 
L 288.467909 65.950172 
L 288.627619 165.049786 
L 289.066637 111.933873 
L 289.223731 70.62203 
L 289.361311 88.251212 
L 289.96189 120.117321 
L 290.157322 88.254452 
L 290.71554 160.691501 
L 291.169621 68.873353 
L 291.446589 165.843336 
L 291.645334 143.5452 
L 291.770885 99.285286 
L 292.380233 162.267315 
L 292.716481 85.324341 
L 292.952829 138.65694 
L 293.233442 131.239991 
L 293.270386 120.861661 
L 293.622783 74.161599 
L 294.162837 139.402789 
L 294.251769 111.174858 
L 294.940707 148.205291 
L 295.160226 132.437737 
L 295.776639 124.369125 
L 296.375627 138.838495 
L 296.759442 162.503072 
L 297.074233 89.354969 
L 297.457547 108.868164 
L 298.134494 146.528793 
L 298.712845 57.896696 
L 299.046011 149.539781 
L 299.52945 102.612755 
L 299.841795 118.053774 
L 299.910936 114.79304 
L 300.06072 101.491359 
L 300.272081 103.488619 
L 300.295655 107.716029 
L 300.775713 146.27177 
L 301.377681 110.811795 
L 301.427666 131.396256 
L 301.742692 162.260148 
L 301.976352 105.721975 
L 302.817876 110.812905 
L 302.83255 110.034556 
L 303.244646 141.429796 
L 303.519992 111.874636 
L 303.810415 104.973662 
L 304.283547 142.463711 
L 304.610212 93.352718 
L 304.771399 88.82452 
L 305.206526 141.184188 
L 305.478995 131.670536 
L 305.974226 134.337311 
L 306.410306 104.334795 
L 306.616507 105.481363 
L 307.201629 91.549805 
L 307.724534 165.992675 
L 308.078207 95.841891 
L 308.679702 135.238174 
L 308.967612 114.605468 
L 309.158288 155.099555 
L 309.682784 55.43691 
L 310.269689 176.534306 
L 310.411268 143.236784 
L 310.80235 84.239464 
L 311.147648 143.794505 
L 311.167439 142.302432 
L 311.775097 152.903132 
L 312.087312 148.852772 
L 312.62981 107.440229 
L 312.661477 111.82457 
L 312.729236 123.008002 
L 313.165094 149.626903 
L 313.745503 99.123061 
L 313.777433 100.356711 
L 314.225982 122.983202 
L 314.506488 123.75556 
L 314.525202 125.483288 
L 314.847255 143.749712 
L 315.117916 89.119972 
L 315.561323 181.522259 
L 315.996373 100.596999 
L 316.499976 137.140083 
L 316.998472 120.734021 
L 317.145744 123.153674 
L 317.568693 139.31647 
L 317.75304 126.754677 
L 318.15938 117.185113 
L 318.278707 123.962258 
L 318.820485 122.862024 
L 318.909871 126.382878 
L 319.348159 116.409821 
L 319.404469 111.620628 
L 319.823619 132.374365 
L 320.310321 111.376275 
L 320.592395 144.228998 
L 321.058237 83.622397 
L 321.532405 164.388823 
L 321.764431 139.796513 
L 321.955033 88.794115 
L 322.252982 119.244273 
L 322.799096 117.908707 
L 323.256236 150.208205 
L 323.264727 149.933641 
L 323.800919 86.813546 
L 324.262243 129.464967 
L 324.532695 130.515913 
L 325.140953 111.34463 
L 325.196056 102.18911 
L 325.451822 91.737208 
L 325.899697 158.812367 
L 325.993906 147.942832 
L 326.560865 125.911553 
L 326.576054 129.073588 
L 327.116852 121.260533 
L 327.453905 131.86185 
L 327.950459 56.375276 
L 328.058114 81.296901 
L 328.610131 116.985172 
L 329.095696 126.779257 
L 329.245192 149.623256 
L 329.651504 93.3836 
L 330.17083 140.368461 
L 330.695855 109.553886 
L 331.112339 155.933592 
L 331.580716 59.880192 
L 331.985288 181.426608 
L 332.503128 62.370036 
L 332.823224 173.106914 
L 333.053102 144.820645 
L 333.355939 75.553175 
L 333.744976 184.223694 
L 334.334009 86.190065 
L 334.688105 174.012525 
L 334.980238 100.355198 
L 335.112128 99.08252 
L 335.17763 111.925211 
L 335.676387 101.062778 
L 335.992821 113.420059 
L 336.244461 182.377436 
L 336.450073 139.066727 
L 336.857571 61.386017 
L 337.079443 138.782386 
L 337.379623 159.37709 
L 337.628806 107.456048 
L 337.827965 106.837976 
L 337.834147 108.126643 
L 338.445035 86.088197 
L 338.972831 170.941186 
L 339.14108 115.249779 
L 339.703382 175.835794 
L 340.275684 68.204422 
L 340.562375 158.260401 
L 340.729468 162.390055 
L 341.009969 74.093181 
L 341.244319 91.019809 
L 341.463579 167.050647 
L 341.849349 100.35708 
L 342.181616 102.837997 
L 342.602155 151.805252 
L 343.590131 99.015887 
L 344.273548 142.197144 
L 344.48372 117.82437 
L 344.994236 117.083579 
L 345.053728 112.755249 
L 345.442446 127.338325 
L 345.788223 115.054002 
L 346.330297 131.288786 
L 346.673241 152.22373 
L 347.226405 93.428438 
L 347.495658 94.563153 
L 348.006975 159.61196 
L 348.560485 68.004011 
L 348.62005 71.816628 
L 348.823537 143.944481 
L 348.823537 143.944481 
" style="fill:none;stroke:#0173b2;stroke-linecap:round;stroke-width:1.5;"/>
   </g>
   <g id="patch_3">
    <path d="M 29.241719 224.64 
L 29.241719 7.2 
" style="fill:none;stroke:#262626;stroke-linecap:square;stroke-linejoin:miter;stroke-width:1.25;"/>
   </g>
   <g id="patch_4">
    <path d="M 364.041719 224.64 
L 364.041719 7.2 
" style="fill:none;stroke:#262626;stroke-linecap:square;stroke-linejoin:miter;stroke-width:1.25;"/>
   </g>
   <g id="patch_5">
    <path d="M 29.241719 224.64 
L 364.041719 224.64 
" style="fill:none;stroke:#262626;stroke-linecap:square;stroke-linejoin:miter;stroke-width:1.25;"/>
   </g>
   <g id="patch_6">
    <path d="M 29.241719 7.2 
L 364.041719 7.2 
" style="fill:none;stroke:#262626;stroke-linecap:square;stroke-linejoin:miter;stroke-width:1.25;"/>
   </g>
  </g>
 </g>
 <defs>
  <clipPath id="pfdf9bebec6">
   <rect height="217.44" width="334.8" x="29.241719" y="7.2"/>
  </clipPath>
 </defs>
</svg>
