<?xml version="1.0" encoding="utf-8" standalone="no"?>
<!DOCTYPE svg PUBLIC "-//W3C//DTD SVG 1.1//EN"
  "http://www.w3.org/Graphics/SVG/1.1/DTD/svg11.dtd">
<svg height="251.399844pt" version="1.1" viewBox="0 0 373.99 251.399844" width="373.99pt" xmlns="http://www.w3.org/2000/svg" xmlns:xlink="http://www.w3.org/1999/xlink">
 <metadata>
  <rdf:RDF xmlns:cc="http://creativecommons.org/ns#" xmlns:dc="http://purl.org/dc/elements/1.1/" xmlns:rdf="http://www.w3.org/1999/02/22-rdf-syntax-ns#">
   <cc:Work>
    <dc:type rdf:resource="http://purl.org/dc/dcmitype/StillImage"/>
    <dc:date>2021-10-28T15:40:50.575158</dc:date>
    <dc:format>image/svg+xml</dc:format>
    <dc:creator>
     <cc:Agent>
      <dc:title>Matplotlib v3.4.3, https://matplotlib.org/</dc:title>
     </cc:Agent>
    </dc:creator>
   </cc:Work>
  </rdf:RDF>
 </metadata>
 <defs>
  <style type="text/css">*{stroke-linecap:butt;stroke-linejoin:round;}</style>
 </defs>
 <g id="figure_1">
  <g id="patch_1">
   <path d="M 0 251.399844 
L 373.99 251.399844 
L 373.99 0 
L 0 0 
z
" style="fill:#ffffff;"/>
  </g>
  <g id="axes_1">
   <g id="patch_2">
    <path d="M 31.99 224.64 
L 366.79 224.64 
L 366.79 7.2 
L 31.99 7.2 
z
" style="fill:#ffffff;"/>
   </g>
   <g id="matplotlib.axis_1">
    <g id="xtick_1">
     <g id="line2d_1">
      <defs>
       <path d="M 0 0 
L 0 6 
" id="md7916f29b9" style="stroke:#262626;stroke-width:1.25;"/>
      </defs>
      <g>
       <use style="fill:#262626;stroke:#262626;stroke-width:1.25;" x="47.208182" xlink:href="#md7916f29b9" y="224.64"/>
      </g>
     </g>
     <g id="text_1">
      <!-- 0 -->
      <g style="fill:#262626;" transform="translate(44.149666 242.013594)scale(0.11 -0.11)">
       <defs>
        <path d="M 266 2259 
Q 266 3072 433 3567 
Q 600 4063 929 4331 
Q 1259 4600 1759 4600 
Q 2128 4600 2406 4451 
Q 2684 4303 2865 4023 
Q 3047 3744 3150 3342 
Q 3253 2941 3253 2259 
Q 3253 1453 3087 958 
Q 2922 463 2592 192 
Q 2263 -78 1759 -78 
Q 1097 -78 719 397 
Q 266 969 266 2259 
z
M 844 2259 
Q 844 1131 1108 757 
Q 1372 384 1759 384 
Q 2147 384 2411 759 
Q 2675 1134 2675 2259 
Q 2675 3391 2411 3762 
Q 2147 4134 1753 4134 
Q 1366 4134 1134 3806 
Q 844 3388 844 2259 
z
" id="ArialMT-30" transform="scale(0.015625)"/>
       </defs>
       <use xlink:href="#ArialMT-30"/>
      </g>
     </g>
    </g>
    <g id="xtick_2">
     <g id="line2d_2">
      <g>
       <use style="fill:#262626;stroke:#262626;stroke-width:1.25;" x="106.712314" xlink:href="#md7916f29b9" y="224.64"/>
      </g>
     </g>
     <g id="text_2">
      <!-- 200 -->
      <g style="fill:#262626;" transform="translate(97.536767 242.013594)scale(0.11 -0.11)">
       <defs>
        <path d="M 3222 541 
L 3222 0 
L 194 0 
Q 188 203 259 391 
Q 375 700 629 1000 
Q 884 1300 1366 1694 
Q 2113 2306 2375 2664 
Q 2638 3022 2638 3341 
Q 2638 3675 2398 3904 
Q 2159 4134 1775 4134 
Q 1369 4134 1125 3890 
Q 881 3647 878 3216 
L 300 3275 
Q 359 3922 746 4261 
Q 1134 4600 1788 4600 
Q 2447 4600 2831 4234 
Q 3216 3869 3216 3328 
Q 3216 3053 3103 2787 
Q 2991 2522 2730 2228 
Q 2469 1934 1863 1422 
Q 1356 997 1212 845 
Q 1069 694 975 541 
L 3222 541 
z
" id="ArialMT-32" transform="scale(0.015625)"/>
       </defs>
       <use xlink:href="#ArialMT-32"/>
       <use x="55.615234" xlink:href="#ArialMT-30"/>
       <use x="111.230469" xlink:href="#ArialMT-30"/>
      </g>
     </g>
    </g>
    <g id="xtick_3">
     <g id="line2d_3">
      <g>
       <use style="fill:#262626;stroke:#262626;stroke-width:1.25;" x="166.216446" xlink:href="#md7916f29b9" y="224.64"/>
      </g>
     </g>
     <g id="text_3">
      <!-- 400 -->
      <g style="fill:#262626;" transform="translate(157.040899 242.013594)scale(0.11 -0.11)">
       <defs>
        <path d="M 2069 0 
L 2069 1097 
L 81 1097 
L 81 1613 
L 2172 4581 
L 2631 4581 
L 2631 1613 
L 3250 1613 
L 3250 1097 
L 2631 1097 
L 2631 0 
L 2069 0 
z
M 2069 1613 
L 2069 3678 
L 634 1613 
L 2069 1613 
z
" id="ArialMT-34" transform="scale(0.015625)"/>
       </defs>
       <use xlink:href="#ArialMT-34"/>
       <use x="55.615234" xlink:href="#ArialMT-30"/>
       <use x="111.230469" xlink:href="#ArialMT-30"/>
      </g>
     </g>
    </g>
    <g id="xtick_4">
     <g id="line2d_4">
      <g>
       <use style="fill:#262626;stroke:#262626;stroke-width:1.25;" x="225.720579" xlink:href="#md7916f29b9" y="224.64"/>
      </g>
     </g>
     <g id="text_4">
      <!-- 600 -->
      <g style="fill:#262626;" transform="translate(216.545032 242.013594)scale(0.11 -0.11)">
       <defs>
        <path d="M 3184 3459 
L 2625 3416 
Q 2550 3747 2413 3897 
Q 2184 4138 1850 4138 
Q 1581 4138 1378 3988 
Q 1113 3794 959 3422 
Q 806 3050 800 2363 
Q 1003 2672 1297 2822 
Q 1591 2972 1913 2972 
Q 2475 2972 2870 2558 
Q 3266 2144 3266 1488 
Q 3266 1056 3080 686 
Q 2894 316 2569 119 
Q 2244 -78 1831 -78 
Q 1128 -78 684 439 
Q 241 956 241 2144 
Q 241 3472 731 4075 
Q 1159 4600 1884 4600 
Q 2425 4600 2770 4297 
Q 3116 3994 3184 3459 
z
M 888 1484 
Q 888 1194 1011 928 
Q 1134 663 1356 523 
Q 1578 384 1822 384 
Q 2178 384 2434 671 
Q 2691 959 2691 1453 
Q 2691 1928 2437 2201 
Q 2184 2475 1800 2475 
Q 1419 2475 1153 2201 
Q 888 1928 888 1484 
z
" id="ArialMT-36" transform="scale(0.015625)"/>
       </defs>
       <use xlink:href="#ArialMT-36"/>
       <use x="55.615234" xlink:href="#ArialMT-30"/>
       <use x="111.230469" xlink:href="#ArialMT-30"/>
      </g>
     </g>
    </g>
    <g id="xtick_5">
     <g id="line2d_5">
      <g>
       <use style="fill:#262626;stroke:#262626;stroke-width:1.25;" x="285.224711" xlink:href="#md7916f29b9" y="224.64"/>
      </g>
     </g>
     <g id="text_5">
      <!-- 800 -->
      <g style="fill:#262626;" transform="translate(276.049164 242.013594)scale(0.11 -0.11)">
       <defs>
        <path d="M 1131 2484 
Q 781 2613 612 2850 
Q 444 3088 444 3419 
Q 444 3919 803 4259 
Q 1163 4600 1759 4600 
Q 2359 4600 2725 4251 
Q 3091 3903 3091 3403 
Q 3091 3084 2923 2848 
Q 2756 2613 2416 2484 
Q 2838 2347 3058 2040 
Q 3278 1734 3278 1309 
Q 3278 722 2862 322 
Q 2447 -78 1769 -78 
Q 1091 -78 675 323 
Q 259 725 259 1325 
Q 259 1772 486 2073 
Q 713 2375 1131 2484 
z
M 1019 3438 
Q 1019 3113 1228 2906 
Q 1438 2700 1772 2700 
Q 2097 2700 2305 2904 
Q 2513 3109 2513 3406 
Q 2513 3716 2298 3927 
Q 2084 4138 1766 4138 
Q 1444 4138 1231 3931 
Q 1019 3725 1019 3438 
z
M 838 1322 
Q 838 1081 952 856 
Q 1066 631 1291 507 
Q 1516 384 1775 384 
Q 2178 384 2440 643 
Q 2703 903 2703 1303 
Q 2703 1709 2433 1975 
Q 2163 2241 1756 2241 
Q 1359 2241 1098 1978 
Q 838 1716 838 1322 
z
" id="ArialMT-38" transform="scale(0.015625)"/>
       </defs>
       <use xlink:href="#ArialMT-38"/>
       <use x="55.615234" xlink:href="#ArialMT-30"/>
       <use x="111.230469" xlink:href="#ArialMT-30"/>
      </g>
     </g>
    </g>
    <g id="xtick_6">
     <g id="line2d_6">
      <g>
       <use style="fill:#262626;stroke:#262626;stroke-width:1.25;" x="344.728843" xlink:href="#md7916f29b9" y="224.64"/>
      </g>
     </g>
     <g id="text_6">
      <!-- 1000 -->
      <g style="fill:#262626;" transform="translate(332.49478 242.013594)scale(0.11 -0.11)">
       <defs>
        <path d="M 2384 0 
L 1822 0 
L 1822 3584 
Q 1619 3391 1289 3197 
Q 959 3003 697 2906 
L 697 3450 
Q 1169 3672 1522 3987 
Q 1875 4303 2022 4600 
L 2384 4600 
L 2384 0 
z
" id="ArialMT-31" transform="scale(0.015625)"/>
       </defs>
       <use xlink:href="#ArialMT-31"/>
       <use x="55.615234" xlink:href="#ArialMT-30"/>
       <use x="111.230469" xlink:href="#ArialMT-30"/>
       <use x="166.845703" xlink:href="#ArialMT-30"/>
      </g>
     </g>
    </g>
   </g>
   <g id="matplotlib.axis_2">
    <g id="ytick_1">
     <g id="line2d_7">
      <defs>
       <path d="M 0 0 
L -6 0 
" id="ma0ed7b4376" style="stroke:#262626;stroke-width:1.25;"/>
      </defs>
      <g>
       <use style="fill:#262626;stroke:#262626;stroke-width:1.25;" x="31.99" xlink:href="#ma0ed7b4376" y="215.053727"/>
      </g>
     </g>
     <g id="text_7">
      <!-- 0.0 -->
      <g style="fill:#262626;" transform="translate(7.2 218.990524)scale(0.11 -0.11)">
       <defs>
        <path d="M 581 0 
L 581 641 
L 1222 641 
L 1222 0 
L 581 0 
z
" id="ArialMT-2e" transform="scale(0.015625)"/>
       </defs>
       <use xlink:href="#ArialMT-30"/>
       <use x="55.615234" xlink:href="#ArialMT-2e"/>
       <use x="83.398438" xlink:href="#ArialMT-30"/>
      </g>
     </g>
    </g>
    <g id="ytick_2">
     <g id="line2d_8">
      <g>
       <use style="fill:#262626;stroke:#262626;stroke-width:1.25;" x="31.99" xlink:href="#ma0ed7b4376" y="175.341349"/>
      </g>
     </g>
     <g id="text_8">
      <!-- 0.2 -->
      <g style="fill:#262626;" transform="translate(7.2 179.278146)scale(0.11 -0.11)">
       <use xlink:href="#ArialMT-30"/>
       <use x="55.615234" xlink:href="#ArialMT-2e"/>
       <use x="83.398438" xlink:href="#ArialMT-32"/>
      </g>
     </g>
    </g>
    <g id="ytick_3">
     <g id="line2d_9">
      <g>
       <use style="fill:#262626;stroke:#262626;stroke-width:1.25;" x="31.99" xlink:href="#ma0ed7b4376" y="135.628971"/>
      </g>
     </g>
     <g id="text_9">
      <!-- 0.4 -->
      <g style="fill:#262626;" transform="translate(7.2 139.565768)scale(0.11 -0.11)">
       <use xlink:href="#ArialMT-30"/>
       <use x="55.615234" xlink:href="#ArialMT-2e"/>
       <use x="83.398438" xlink:href="#ArialMT-34"/>
      </g>
     </g>
    </g>
    <g id="ytick_4">
     <g id="line2d_10">
      <g>
       <use style="fill:#262626;stroke:#262626;stroke-width:1.25;" x="31.99" xlink:href="#ma0ed7b4376" y="95.916593"/>
      </g>
     </g>
     <g id="text_10">
      <!-- 0.6 -->
      <g style="fill:#262626;" transform="translate(7.2 99.85339)scale(0.11 -0.11)">
       <use xlink:href="#ArialMT-30"/>
       <use x="55.615234" xlink:href="#ArialMT-2e"/>
       <use x="83.398438" xlink:href="#ArialMT-36"/>
      </g>
     </g>
    </g>
    <g id="ytick_5">
     <g id="line2d_11">
      <g>
       <use style="fill:#262626;stroke:#262626;stroke-width:1.25;" x="31.99" xlink:href="#ma0ed7b4376" y="56.204215"/>
      </g>
     </g>
     <g id="text_11">
      <!-- 0.8 -->
      <g style="fill:#262626;" transform="translate(7.2 60.141012)scale(0.11 -0.11)">
       <use xlink:href="#ArialMT-30"/>
       <use x="55.615234" xlink:href="#ArialMT-2e"/>
       <use x="83.398438" xlink:href="#ArialMT-38"/>
      </g>
     </g>
    </g>
    <g id="ytick_6">
     <g id="line2d_12">
      <g>
       <use style="fill:#262626;stroke:#262626;stroke-width:1.25;" x="31.99" xlink:href="#ma0ed7b4376" y="16.491837"/>
      </g>
     </g>
     <g id="text_12">
      <!-- 1.0 -->
      <g style="fill:#262626;" transform="translate(7.2 20.428634)scale(0.11 -0.11)">
       <use xlink:href="#ArialMT-31"/>
       <use x="55.615234" xlink:href="#ArialMT-2e"/>
       <use x="83.398438" xlink:href="#ArialMT-30"/>
      </g>
     </g>
    </g>
   </g>
   <g id="line2d_13">
    <path clip-path="url(#pb3e3083fdb)" d="M 47.208182 214.756364 
L 47.803223 214.363887 
L 48.100744 214.042607 
L 48.398264 213.937701 
L 49.588347 212.887348 
L 51.07595 212.252292 
L 51.670992 211.563598 
L 51.968512 211.55467 
L 52.563554 210.938816 
L 52.861074 210.612118 
L 53.456116 210.292108 
L 54.051157 209.7739 
L 54.646198 209.651988 
L 55.24124 209.447876 
L 55.53876 209.435241 
L 55.836281 209.103869 
L 56.133802 209.099317 
L 58.216446 207.961651 
L 58.513967 207.638069 
L 59.109008 207.494545 
L 59.70405 206.797586 
L 60.596612 206.524521 
L 62.381736 204.913482 
L 62.679256 204.666194 
L 62.976777 204.629724 
L 63.869339 204.135711 
L 64.16686 204.091714 
L 64.761901 203.672907 
L 65.654463 203.321327 
L 66.249504 202.705299 
L 67.142066 202.443789 
L 67.737107 201.711636 
L 68.034628 201.667052 
L 68.92719 201.216773 
L 69.522231 201.040169 
L 69.819752 200.737426 
L 70.117273 200.599621 
L 70.712314 200.161701 
L 71.307355 199.739621 
L 71.604876 199.707033 
L 71.902397 199.365506 
L 72.794959 199.140698 
L 73.092479 199.111327 
L 73.687521 198.524545 
L 74.580083 198.227946 
L 74.877603 197.955661 
L 75.175124 197.85536 
L 75.770165 197.38948 
L 76.067686 197.283345 
L 76.365207 196.962445 
L 76.662727 196.951363 
L 76.960248 196.599833 
L 77.257769 196.599786 
L 77.555289 196.297441 
L 78.150331 196.12163 
L 78.447851 195.949362 
L 79.935455 194.395838 
L 80.530496 194.246549 
L 80.828017 194.090323 
L 81.423058 193.480928 
L 81.720579 193.356096 
L 82.61314 192.544305 
L 83.803223 191.851351 
L 84.100744 191.774441 
L 84.993306 190.914727 
L 85.588347 190.712947 
L 86.480909 189.70288 
L 87.670992 189.347971 
L 88.563554 188.541546 
L 89.456116 188.032419 
L 90.348678 187.476783 
L 90.646198 187.423204 
L 90.943719 187.152355 
L 91.53876 186.985082 
L 93.026364 185.704607 
L 93.323884 185.680725 
L 95.406529 184.372494 
L 95.70405 184.286972 
L 96.596612 183.621682 
L 96.894132 183.562194 
L 97.489174 183.205551 
L 97.786694 183.044095 
L 98.084215 183.042266 
L 99.869339 181.220595 
L 100.16686 181.155668 
L 100.46438 180.772005 
L 100.761901 180.772005 
L 101.059421 180.653171 
L 101.356942 180.331716 
L 101.654463 180.262825 
L 102.249504 179.970959 
L 103.142066 179.555846 
L 103.439587 179.279028 
L 103.737107 179.189963 
L 106.414793 177.176219 
L 107.307355 176.766536 
L 107.604876 176.558186 
L 108.497438 175.643098 
L 109.092479 175.268767 
L 109.985041 174.33583 
L 110.282562 174.266759 
L 110.877603 173.621604 
L 111.175124 173.537287 
L 111.770165 173.07639 
L 112.365207 173.031491 
L 113.555289 172.003831 
L 114.447851 171.292906 
L 114.745372 171.156643 
L 115.042893 171.149091 
L 117.720579 169.031438 
L 118.018099 168.953595 
L 118.31562 168.664245 
L 118.910661 168.413339 
L 119.505702 167.772645 
L 119.803223 167.7518 
L 120.100744 167.593795 
L 120.993306 166.786557 
L 121.290826 166.711551 
L 121.588347 166.391628 
L 121.885868 166.384701 
L 122.480909 165.792221 
L 123.07595 165.461135 
L 123.670992 164.962712 
L 123.968512 164.946129 
L 124.563554 164.547851 
L 125.158595 164.533853 
L 125.753636 163.944777 
L 126.348678 163.56741 
L 126.646198 163.311742 
L 126.943719 163.223486 
L 127.53876 162.508577 
L 127.836281 162.427928 
L 128.133802 162.203146 
L 128.431322 161.823987 
L 128.728843 161.80104 
L 130.216446 160.946736 
L 131.109008 160.623139 
L 131.70405 159.854441 
L 132.00157 159.800145 
L 133.191653 158.80918 
L 133.489174 158.800837 
L 134.084215 158.449388 
L 134.976777 158.098353 
L 135.274298 157.865419 
L 135.571818 157.851287 
L 135.869339 157.510133 
L 137.059421 157.03541 
L 137.654463 156.486152 
L 139.142066 155.549154 
L 139.737107 155.488685 
L 140.332149 155.087936 
L 142.414793 154.449658 
L 143.307355 153.956085 
L 143.604876 153.943554 
L 144.199917 153.583505 
L 144.497438 153.315601 
L 145.687521 152.903249 
L 146.580083 151.994436 
L 146.877603 151.722327 
L 147.770165 151.525584 
L 148.365207 151.17163 
L 148.960248 150.53728 
L 149.257769 150.396382 
L 149.555289 150.032336 
L 150.447851 149.653485 
L 150.745372 149.537431 
L 151.042893 149.248451 
L 151.340413 149.201161 
L 151.637934 148.937785 
L 152.232975 148.721231 
L 152.828017 148.257242 
L 153.423058 148.189454 
L 154.31562 147.63836 
L 155.208182 146.762375 
L 155.505702 146.597399 
L 156.100744 145.926428 
L 156.398264 145.856822 
L 156.695785 145.513052 
L 156.993306 145.393807 
L 158.183388 144.309613 
L 160.266033 142.088654 
L 160.861074 142.011394 
L 161.158595 141.866438 
L 161.456116 141.53988 
L 162.051157 141.440862 
L 162.348678 141.103368 
L 162.646198 140.944039 
L 163.24124 140.358146 
L 163.53876 140.228059 
L 165.323884 138.558814 
L 165.918926 138.492132 
L 166.216446 138.408997 
L 166.513967 138.16374 
L 167.109008 137.959031 
L 167.406529 137.61429 
L 167.70405 137.547571 
L 168.00157 137.182742 
L 168.299091 137.062102 
L 168.894132 136.428844 
L 169.786694 136.263124 
L 171.571818 135.054348 
L 171.869339 134.687852 
L 173.059421 133.985085 
L 173.356942 133.654832 
L 174.249504 133.517738 
L 175.142066 132.571699 
L 175.737107 132.263285 
L 176.332149 131.834398 
L 178.414793 130.800869 
L 178.712314 130.417075 
L 179.307355 130.259206 
L 179.902397 130.103027 
L 180.199917 130.095455 
L 180.497438 129.898653 
L 180.794959 129.557937 
L 181.092479 129.457463 
L 181.39 129.09262 
L 182.580083 128.273315 
L 184.067686 127.303155 
L 184.365207 127.24177 
L 184.662727 126.867298 
L 185.257769 126.694104 
L 185.85281 126.140713 
L 186.150331 125.804561 
L 186.745372 125.638233 
L 187.042893 125.38834 
L 187.340413 125.290799 
L 188.232975 124.353825 
L 188.530496 124.246735 
L 189.125537 123.724805 
L 189.720579 123.321572 
L 190.61314 122.628497 
L 190.910661 122.591675 
L 191.208182 122.363105 
L 191.505702 122.277639 
L 192.100744 121.844171 
L 192.695785 121.752138 
L 192.993306 121.519471 
L 193.290826 121.460463 
L 193.588347 121.223329 
L 193.885868 121.13316 
L 194.183388 120.81837 
L 194.480909 120.785609 
L 195.07595 120.321815 
L 195.373471 120.211848 
L 195.968512 119.749109 
L 197.158595 119.207748 
L 197.753636 118.982893 
L 198.051157 118.927195 
L 198.646198 118.301263 
L 198.943719 118.194771 
L 199.24124 117.819911 
L 200.133802 117.66553 
L 200.431322 117.47031 
L 200.728843 117.439686 
L 201.323884 117.173033 
L 201.621405 116.808523 
L 202.216446 116.607021 
L 202.513967 116.237984 
L 203.109008 116.022125 
L 203.70405 115.592386 
L 204.00157 115.227504 
L 204.596612 115.127318 
L 205.191653 114.809071 
L 205.489174 114.756036 
L 206.381736 114.058887 
L 206.976777 113.407019 
L 207.274298 113.323738 
L 207.869339 112.668932 
L 208.761901 112.097153 
L 209.059421 112.073078 
L 209.356942 111.697816 
L 209.951983 111.467636 
L 210.249504 111.431112 
L 210.547025 111.195387 
L 210.844545 111.162384 
L 211.142066 110.848317 
L 211.737107 110.65328 
L 212.034628 110.377358 
L 213.522231 109.959954 
L 214.712314 108.761907 
L 215.902397 107.578963 
L 216.794959 107.20131 
L 217.092479 106.997249 
L 217.39 106.978205 
L 220.662727 104.405476 
L 220.960248 104.031037 
L 221.257769 103.975625 
L 221.555289 103.60745 
L 222.150331 103.546412 
L 223.042893 102.828536 
L 223.935455 102.526014 
L 224.828017 102.122323 
L 225.720579 101.635406 
L 226.31562 101.488524 
L 226.61314 101.165891 
L 227.803223 100.797109 
L 228.695785 99.80459 
L 229.290826 99.392008 
L 231.670992 98.477808 
L 232.266033 97.78477 
L 232.861074 97.441387 
L 233.456116 97.400195 
L 234.051157 96.699093 
L 234.943719 96.481958 
L 235.24124 96.359133 
L 235.836281 95.682042 
L 236.133802 95.643621 
L 236.431322 95.27645 
L 237.323884 95.095903 
L 238.216446 94.829777 
L 238.811488 94.369322 
L 239.109008 94.336606 
L 239.406529 94.098952 
L 239.70405 94.080897 
L 240.299091 93.72608 
L 241.786694 92.826016 
L 242.976777 92.332152 
L 243.571818 91.947162 
L 244.16686 91.761129 
L 244.761901 91.262539 
L 245.059421 91.218082 
L 245.951983 90.286684 
L 247.737107 89.038524 
L 248.629669 88.915394 
L 249.224711 88.380048 
L 249.522231 88.204348 
L 249.819752 88.177326 
L 250.712314 87.636532 
L 251.307355 87.005765 
L 251.604876 86.979878 
L 253.687521 85.97508 
L 254.282562 85.450935 
L 254.580083 85.414081 
L 255.175124 84.84269 
L 255.472645 84.708879 
L 256.067686 84.604982 
L 257.257769 83.688165 
L 258.447851 83.315628 
L 258.745372 82.983057 
L 259.042893 82.965737 
L 259.340413 82.594574 
L 259.637934 82.457917 
L 261.125537 80.860199 
L 262.31562 80.114896 
L 262.61314 79.973052 
L 263.505702 78.922864 
L 263.803223 78.825979 
L 264.100744 78.601041 
L 264.695785 78.521748 
L 265.290826 77.923998 
L 265.885868 77.452379 
L 266.77843 76.56299 
L 267.670992 75.659388 
L 268.266033 75.181937 
L 268.563554 74.834757 
L 269.158595 74.691402 
L 270.943719 73.626201 
L 271.836281 73.190864 
L 272.728843 72.150082 
L 273.026364 71.932727 
L 273.621405 71.679372 
L 273.918926 71.460303 
L 274.513967 71.197179 
L 275.109008 70.992898 
L 275.406529 70.664881 
L 276.00157 70.565785 
L 276.894132 69.57031 
L 277.786694 68.931375 
L 278.084215 68.908279 
L 279.869339 67.434385 
L 280.16686 67.353641 
L 281.059421 66.616416 
L 281.951983 66.488715 
L 282.547025 66.16603 
L 283.439587 65.234007 
L 284.034628 64.948013 
L 284.332149 64.562158 
L 285.224711 64.353244 
L 285.819752 63.902706 
L 286.117273 63.830354 
L 286.712314 63.164445 
L 287.009835 63.110747 
L 288.199917 62.12698 
L 289.092479 61.530772 
L 289.985041 61.086262 
L 290.580083 60.445621 
L 290.877603 60.331758 
L 291.175124 59.972828 
L 294.150331 58.168331 
L 294.447851 57.864357 
L 295.340413 57.441011 
L 295.935455 56.843779 
L 296.232975 56.653207 
L 296.530496 56.29013 
L 297.423058 55.90341 
L 297.720579 55.697903 
L 298.018099 55.329308 
L 298.61314 55.119744 
L 298.910661 54.753427 
L 299.208182 54.66731 
L 299.505702 54.31545 
L 299.803223 54.136345 
L 300.398264 53.623389 
L 300.993306 53.471785 
L 301.885868 52.673122 
L 302.183388 52.576643 
L 302.480909 52.222823 
L 302.77843 52.177959 
L 305.753636 49.458308 
L 306.051157 49.283131 
L 306.646198 49.194496 
L 307.53876 48.616283 
L 307.836281 48.465772 
L 308.431322 47.8689 
L 309.026364 47.619296 
L 309.621405 47.213257 
L 310.513967 46.211207 
L 311.109008 45.679324 
L 311.70405 45.121549 
L 312.00157 44.795309 
L 312.596612 44.506858 
L 312.894132 44.158002 
L 313.191653 44.1032 
L 313.786694 43.562948 
L 314.976777 42.146106 
L 315.274298 41.842907 
L 315.571818 41.825505 
L 315.869339 41.439521 
L 316.46438 41.212814 
L 317.059421 41.052135 
L 318.249504 39.845225 
L 319.142066 39.467825 
L 319.439587 39.093668 
L 319.737107 38.994182 
L 320.629669 38.218368 
L 320.92719 38.158407 
L 321.224711 37.839523 
L 322.414793 37.663343 
L 323.307355 36.809255 
L 323.902397 36.51061 
L 324.497438 36.112545 
L 325.39 35.103524 
L 326.580083 34.501679 
L 327.472645 33.732054 
L 327.770165 33.447566 
L 328.067686 33.358554 
L 328.365207 32.981996 
L 328.960248 32.827293 
L 329.257769 32.750583 
L 329.555289 32.550532 
L 330.150331 31.872183 
L 332.232975 30.602621 
L 332.828017 30.030219 
L 333.720579 29.583827 
L 334.61314 28.75695 
L 335.803223 27.709311 
L 336.100744 27.708851 
L 336.398264 27.375969 
L 336.993306 27.313585 
L 337.290826 26.986776 
L 339.07595 26.175401 
L 339.373471 25.851848 
L 340.266033 25.665966 
L 340.563554 25.500382 
L 341.158595 24.78412 
L 341.456116 24.715576 
L 341.753636 24.434953 
L 342.051157 24.327664 
L 342.646198 23.652195 
L 343.24124 23.455127 
L 343.53876 23.397374 
L 343.836281 23.021775 
L 344.431322 22.981494 
L 345.621405 22.133171 
L 346.216446 21.578277 
L 347.406529 20.5259 
L 348.00157 19.869203 
L 348.596612 19.711471 
L 349.191653 19.009485 
L 349.489174 18.925446 
L 350.084215 18.343195 
L 350.679256 18.101125 
L 351.571818 17.083636 
L 351.571818 17.083636 
" style="fill:none;stroke:#0173b2;stroke-linecap:round;stroke-width:1.5;"/>
   </g>
   <g id="patch_3">
    <path d="M 31.99 224.64 
L 31.99 7.2 
" style="fill:none;stroke:#262626;stroke-linecap:square;stroke-linejoin:miter;stroke-width:1.25;"/>
   </g>
   <g id="patch_4">
    <path d="M 366.79 224.64 
L 366.79 7.2 
" style="fill:none;stroke:#262626;stroke-linecap:square;stroke-linejoin:miter;stroke-width:1.25;"/>
   </g>
   <g id="patch_5">
    <path d="M 31.99 224.64 
L 366.79 224.64 
" style="fill:none;stroke:#262626;stroke-linecap:square;stroke-linejoin:miter;stroke-width:1.25;"/>
   </g>
   <g id="patch_6">
    <path d="M 31.99 7.2 
L 366.79 7.2 
" style="fill:none;stroke:#262626;stroke-linecap:square;stroke-linejoin:miter;stroke-width:1.25;"/>
   </g>
  </g>
 </g>
 <defs>
  <clipPath id="pb3e3083fdb">
   <rect height="217.44" width="334.8" x="31.99" y="7.2"/>
  </clipPath>
 </defs>
</svg>
