<?xml version="1.0" encoding="utf-8" standalone="no"?>
<!DOCTYPE svg PUBLIC "-//W3C//DTD SVG 1.1//EN"
  "http://www.w3.org/Graphics/SVG/1.1/DTD/svg11.dtd">
<svg height="251.399844pt" version="1.1" viewBox="0 0 386.531719 251.399844" width="386.531719pt" xmlns="http://www.w3.org/2000/svg" xmlns:xlink="http://www.w3.org/1999/xlink">
 <metadata>
  <rdf:RDF xmlns:cc="http://creativecommons.org/ns#" xmlns:dc="http://purl.org/dc/elements/1.1/" xmlns:rdf="http://www.w3.org/1999/02/22-rdf-syntax-ns#">
   <cc:Work>
    <dc:type rdf:resource="http://purl.org/dc/dcmitype/StillImage"/>
    <dc:date>2021-10-21T13:50:27.291648</dc:date>
    <dc:format>image/svg+xml</dc:format>
    <dc:creator>
     <cc:Agent>
      <dc:title>Matplotlib v3.4.3, https://matplotlib.org/</dc:title>
     </cc:Agent>
    </dc:creator>
   </cc:Work>
  </rdf:RDF>
 </metadata>
 <defs>
  <style type="text/css">*{stroke-linecap:butt;stroke-linejoin:round;}</style>
 </defs>
 <g id="figure_1">
  <g id="patch_1">
   <path d="M 0 251.399844 
L 386.531719 251.399844 
L 386.531719 0 
L 0 0 
z
" style="fill:#ffffff;"/>
  </g>
  <g id="axes_1">
   <g id="patch_2">
    <path d="M 44.531719 224.64 
L 379.331719 224.64 
L 379.331719 7.2 
L 44.531719 7.2 
z
" style="fill:#ffffff;"/>
   </g>
   <g id="matplotlib.axis_1">
    <g id="xtick_1">
     <g id="line2d_1">
      <defs>
       <path d="M 0 0 
L 0 6 
" id="m6f91af64bf" style="stroke:#262626;stroke-width:1.25;"/>
      </defs>
      <g>
       <use style="fill:#262626;stroke:#262626;stroke-width:1.25;" x="59.749901" xlink:href="#m6f91af64bf" y="224.64"/>
      </g>
     </g>
     <g id="text_1">
      <!-- −1.00 -->
      <g style="fill:#262626;" transform="translate(45.834041 242.013594)scale(0.11 -0.11)">
       <defs>
        <path d="M 3381 1997 
L 356 1997 
L 356 2522 
L 3381 2522 
L 3381 1997 
z
" id="ArialMT-2212" transform="scale(0.015625)"/>
        <path d="M 2384 0 
L 1822 0 
L 1822 3584 
Q 1619 3391 1289 3197 
Q 959 3003 697 2906 
L 697 3450 
Q 1169 3672 1522 3987 
Q 1875 4303 2022 4600 
L 2384 4600 
L 2384 0 
z
" id="ArialMT-31" transform="scale(0.015625)"/>
        <path d="M 581 0 
L 581 641 
L 1222 641 
L 1222 0 
L 581 0 
z
" id="ArialMT-2e" transform="scale(0.015625)"/>
        <path d="M 266 2259 
Q 266 3072 433 3567 
Q 600 4063 929 4331 
Q 1259 4600 1759 4600 
Q 2128 4600 2406 4451 
Q 2684 4303 2865 4023 
Q 3047 3744 3150 3342 
Q 3253 2941 3253 2259 
Q 3253 1453 3087 958 
Q 2922 463 2592 192 
Q 2263 -78 1759 -78 
Q 1097 -78 719 397 
Q 266 969 266 2259 
z
M 844 2259 
Q 844 1131 1108 757 
Q 1372 384 1759 384 
Q 2147 384 2411 759 
Q 2675 1134 2675 2259 
Q 2675 3391 2411 3762 
Q 2147 4134 1753 4134 
Q 1366 4134 1134 3806 
Q 844 3388 844 2259 
z
" id="ArialMT-30" transform="scale(0.015625)"/>
       </defs>
       <use xlink:href="#ArialMT-2212"/>
       <use x="58.398438" xlink:href="#ArialMT-31"/>
       <use x="114.013672" xlink:href="#ArialMT-2e"/>
       <use x="141.796875" xlink:href="#ArialMT-30"/>
       <use x="197.412109" xlink:href="#ArialMT-30"/>
      </g>
     </g>
    </g>
    <g id="xtick_2">
     <g id="line2d_2">
      <g>
       <use style="fill:#262626;stroke:#262626;stroke-width:1.25;" x="97.795355" xlink:href="#m6f91af64bf" y="224.64"/>
      </g>
     </g>
     <g id="text_2">
      <!-- −0.75 -->
      <g style="fill:#262626;" transform="translate(83.879496 242.013594)scale(0.11 -0.11)">
       <defs>
        <path d="M 303 3981 
L 303 4522 
L 3269 4522 
L 3269 4084 
Q 2831 3619 2401 2847 
Q 1972 2075 1738 1259 
Q 1569 684 1522 0 
L 944 0 
Q 953 541 1156 1306 
Q 1359 2072 1739 2783 
Q 2119 3494 2547 3981 
L 303 3981 
z
" id="ArialMT-37" transform="scale(0.015625)"/>
        <path d="M 266 1200 
L 856 1250 
Q 922 819 1161 601 
Q 1400 384 1738 384 
Q 2144 384 2425 690 
Q 2706 997 2706 1503 
Q 2706 1984 2436 2262 
Q 2166 2541 1728 2541 
Q 1456 2541 1237 2417 
Q 1019 2294 894 2097 
L 366 2166 
L 809 4519 
L 3088 4519 
L 3088 3981 
L 1259 3981 
L 1013 2750 
Q 1425 3038 1878 3038 
Q 2478 3038 2890 2622 
Q 3303 2206 3303 1553 
Q 3303 931 2941 478 
Q 2500 -78 1738 -78 
Q 1113 -78 717 272 
Q 322 622 266 1200 
z
" id="ArialMT-35" transform="scale(0.015625)"/>
       </defs>
       <use xlink:href="#ArialMT-2212"/>
       <use x="58.398438" xlink:href="#ArialMT-30"/>
       <use x="114.013672" xlink:href="#ArialMT-2e"/>
       <use x="141.796875" xlink:href="#ArialMT-37"/>
       <use x="197.412109" xlink:href="#ArialMT-35"/>
      </g>
     </g>
    </g>
    <g id="xtick_3">
     <g id="line2d_3">
      <g>
       <use style="fill:#262626;stroke:#262626;stroke-width:1.25;" x="135.84081" xlink:href="#m6f91af64bf" y="224.64"/>
      </g>
     </g>
     <g id="text_3">
      <!-- −0.50 -->
      <g style="fill:#262626;" transform="translate(121.92495 242.013594)scale(0.11 -0.11)">
       <use xlink:href="#ArialMT-2212"/>
       <use x="58.398438" xlink:href="#ArialMT-30"/>
       <use x="114.013672" xlink:href="#ArialMT-2e"/>
       <use x="141.796875" xlink:href="#ArialMT-35"/>
       <use x="197.412109" xlink:href="#ArialMT-30"/>
      </g>
     </g>
    </g>
    <g id="xtick_4">
     <g id="line2d_4">
      <g>
       <use style="fill:#262626;stroke:#262626;stroke-width:1.25;" x="173.886264" xlink:href="#m6f91af64bf" y="224.64"/>
      </g>
     </g>
     <g id="text_4">
      <!-- −0.25 -->
      <g style="fill:#262626;" transform="translate(159.970405 242.013594)scale(0.11 -0.11)">
       <defs>
        <path d="M 3222 541 
L 3222 0 
L 194 0 
Q 188 203 259 391 
Q 375 700 629 1000 
Q 884 1300 1366 1694 
Q 2113 2306 2375 2664 
Q 2638 3022 2638 3341 
Q 2638 3675 2398 3904 
Q 2159 4134 1775 4134 
Q 1369 4134 1125 3890 
Q 881 3647 878 3216 
L 300 3275 
Q 359 3922 746 4261 
Q 1134 4600 1788 4600 
Q 2447 4600 2831 4234 
Q 3216 3869 3216 3328 
Q 3216 3053 3103 2787 
Q 2991 2522 2730 2228 
Q 2469 1934 1863 1422 
Q 1356 997 1212 845 
Q 1069 694 975 541 
L 3222 541 
z
" id="ArialMT-32" transform="scale(0.015625)"/>
       </defs>
       <use xlink:href="#ArialMT-2212"/>
       <use x="58.398438" xlink:href="#ArialMT-30"/>
       <use x="114.013672" xlink:href="#ArialMT-2e"/>
       <use x="141.796875" xlink:href="#ArialMT-32"/>
       <use x="197.412109" xlink:href="#ArialMT-35"/>
      </g>
     </g>
    </g>
    <g id="xtick_5">
     <g id="line2d_5">
      <g>
       <use style="fill:#262626;stroke:#262626;stroke-width:1.25;" x="211.931719" xlink:href="#m6f91af64bf" y="224.64"/>
      </g>
     </g>
     <g id="text_5">
      <!-- 0.00 -->
      <g style="fill:#262626;" transform="translate(201.228203 242.013594)scale(0.11 -0.11)">
       <use xlink:href="#ArialMT-30"/>
       <use x="55.615234" xlink:href="#ArialMT-2e"/>
       <use x="83.398438" xlink:href="#ArialMT-30"/>
       <use x="139.013672" xlink:href="#ArialMT-30"/>
      </g>
     </g>
    </g>
    <g id="xtick_6">
     <g id="line2d_6">
      <g>
       <use style="fill:#262626;stroke:#262626;stroke-width:1.25;" x="249.977173" xlink:href="#m6f91af64bf" y="224.64"/>
      </g>
     </g>
     <g id="text_6">
      <!-- 0.25 -->
      <g style="fill:#262626;" transform="translate(239.273658 242.013594)scale(0.11 -0.11)">
       <use xlink:href="#ArialMT-30"/>
       <use x="55.615234" xlink:href="#ArialMT-2e"/>
       <use x="83.398438" xlink:href="#ArialMT-32"/>
       <use x="139.013672" xlink:href="#ArialMT-35"/>
      </g>
     </g>
    </g>
    <g id="xtick_7">
     <g id="line2d_7">
      <g>
       <use style="fill:#262626;stroke:#262626;stroke-width:1.25;" x="288.022628" xlink:href="#m6f91af64bf" y="224.64"/>
      </g>
     </g>
     <g id="text_7">
      <!-- 0.50 -->
      <g style="fill:#262626;" transform="translate(277.319112 242.013594)scale(0.11 -0.11)">
       <use xlink:href="#ArialMT-30"/>
       <use x="55.615234" xlink:href="#ArialMT-2e"/>
       <use x="83.398438" xlink:href="#ArialMT-35"/>
       <use x="139.013672" xlink:href="#ArialMT-30"/>
      </g>
     </g>
    </g>
    <g id="xtick_8">
     <g id="line2d_8">
      <g>
       <use style="fill:#262626;stroke:#262626;stroke-width:1.25;" x="326.068082" xlink:href="#m6f91af64bf" y="224.64"/>
      </g>
     </g>
     <g id="text_8">
      <!-- 0.75 -->
      <g style="fill:#262626;" transform="translate(315.364567 242.013594)scale(0.11 -0.11)">
       <use xlink:href="#ArialMT-30"/>
       <use x="55.615234" xlink:href="#ArialMT-2e"/>
       <use x="83.398438" xlink:href="#ArialMT-37"/>
       <use x="139.013672" xlink:href="#ArialMT-35"/>
      </g>
     </g>
    </g>
    <g id="xtick_9">
     <g id="line2d_9">
      <g>
       <use style="fill:#262626;stroke:#262626;stroke-width:1.25;" x="364.113537" xlink:href="#m6f91af64bf" y="224.64"/>
      </g>
     </g>
     <g id="text_9">
      <!-- 1.00 -->
      <g style="fill:#262626;" transform="translate(353.410021 242.013594)scale(0.11 -0.11)">
       <use xlink:href="#ArialMT-31"/>
       <use x="55.615234" xlink:href="#ArialMT-2e"/>
       <use x="83.398438" xlink:href="#ArialMT-30"/>
       <use x="139.013672" xlink:href="#ArialMT-30"/>
      </g>
     </g>
    </g>
   </g>
   <g id="matplotlib.axis_2">
    <g id="ytick_1">
     <g id="line2d_10">
      <defs>
       <path d="M 0 0 
L -6 0 
" id="m4047af6a43" style="stroke:#262626;stroke-width:1.25;"/>
      </defs>
      <g>
       <use style="fill:#262626;stroke:#262626;stroke-width:1.25;" x="44.531719" xlink:href="#m4047af6a43" y="224.184013"/>
      </g>
     </g>
     <g id="text_10">
      <!-- −12.5 -->
      <g style="fill:#262626;" transform="translate(7.2 228.12081)scale(0.11 -0.11)">
       <use xlink:href="#ArialMT-2212"/>
       <use x="58.398438" xlink:href="#ArialMT-31"/>
       <use x="114.013672" xlink:href="#ArialMT-32"/>
       <use x="169.628906" xlink:href="#ArialMT-2e"/>
       <use x="197.412109" xlink:href="#ArialMT-35"/>
      </g>
     </g>
    </g>
    <g id="ytick_2">
     <g id="line2d_11">
      <g>
       <use style="fill:#262626;stroke:#262626;stroke-width:1.25;" x="44.531719" xlink:href="#m4047af6a43" y="197.766929"/>
      </g>
     </g>
     <g id="text_11">
      <!-- −10.0 -->
      <g style="fill:#262626;" transform="translate(7.2 201.703726)scale(0.11 -0.11)">
       <use xlink:href="#ArialMT-2212"/>
       <use x="58.398438" xlink:href="#ArialMT-31"/>
       <use x="114.013672" xlink:href="#ArialMT-30"/>
       <use x="169.628906" xlink:href="#ArialMT-2e"/>
       <use x="197.412109" xlink:href="#ArialMT-30"/>
      </g>
     </g>
    </g>
    <g id="ytick_3">
     <g id="line2d_12">
      <g>
       <use style="fill:#262626;stroke:#262626;stroke-width:1.25;" x="44.531719" xlink:href="#m4047af6a43" y="171.349845"/>
      </g>
     </g>
     <g id="text_12">
      <!-- −7.5 -->
      <g style="fill:#262626;" transform="translate(13.317031 175.286642)scale(0.11 -0.11)">
       <use xlink:href="#ArialMT-2212"/>
       <use x="58.398438" xlink:href="#ArialMT-37"/>
       <use x="114.013672" xlink:href="#ArialMT-2e"/>
       <use x="141.796875" xlink:href="#ArialMT-35"/>
      </g>
     </g>
    </g>
    <g id="ytick_4">
     <g id="line2d_13">
      <g>
       <use style="fill:#262626;stroke:#262626;stroke-width:1.25;" x="44.531719" xlink:href="#m4047af6a43" y="144.93276"/>
      </g>
     </g>
     <g id="text_13">
      <!-- −5.0 -->
      <g style="fill:#262626;" transform="translate(13.317031 148.869557)scale(0.11 -0.11)">
       <use xlink:href="#ArialMT-2212"/>
       <use x="58.398438" xlink:href="#ArialMT-35"/>
       <use x="114.013672" xlink:href="#ArialMT-2e"/>
       <use x="141.796875" xlink:href="#ArialMT-30"/>
      </g>
     </g>
    </g>
    <g id="ytick_5">
     <g id="line2d_14">
      <g>
       <use style="fill:#262626;stroke:#262626;stroke-width:1.25;" x="44.531719" xlink:href="#m4047af6a43" y="118.515676"/>
      </g>
     </g>
     <g id="text_14">
      <!-- −2.5 -->
      <g style="fill:#262626;" transform="translate(13.317031 122.452473)scale(0.11 -0.11)">
       <use xlink:href="#ArialMT-2212"/>
       <use x="58.398438" xlink:href="#ArialMT-32"/>
       <use x="114.013672" xlink:href="#ArialMT-2e"/>
       <use x="141.796875" xlink:href="#ArialMT-35"/>
      </g>
     </g>
    </g>
    <g id="ytick_6">
     <g id="line2d_15">
      <g>
       <use style="fill:#262626;stroke:#262626;stroke-width:1.25;" x="44.531719" xlink:href="#m4047af6a43" y="92.098592"/>
      </g>
     </g>
     <g id="text_15">
      <!-- 0.0 -->
      <g style="fill:#262626;" transform="translate(19.741719 96.035389)scale(0.11 -0.11)">
       <use xlink:href="#ArialMT-30"/>
       <use x="55.615234" xlink:href="#ArialMT-2e"/>
       <use x="83.398438" xlink:href="#ArialMT-30"/>
      </g>
     </g>
    </g>
    <g id="ytick_7">
     <g id="line2d_16">
      <g>
       <use style="fill:#262626;stroke:#262626;stroke-width:1.25;" x="44.531719" xlink:href="#m4047af6a43" y="65.681508"/>
      </g>
     </g>
     <g id="text_16">
      <!-- 2.5 -->
      <g style="fill:#262626;" transform="translate(19.741719 69.618304)scale(0.11 -0.11)">
       <use xlink:href="#ArialMT-32"/>
       <use x="55.615234" xlink:href="#ArialMT-2e"/>
       <use x="83.398438" xlink:href="#ArialMT-35"/>
      </g>
     </g>
    </g>
    <g id="ytick_8">
     <g id="line2d_17">
      <g>
       <use style="fill:#262626;stroke:#262626;stroke-width:1.25;" x="44.531719" xlink:href="#m4047af6a43" y="39.264423"/>
      </g>
     </g>
     <g id="text_17">
      <!-- 5.0 -->
      <g style="fill:#262626;" transform="translate(19.741719 43.20122)scale(0.11 -0.11)">
       <use xlink:href="#ArialMT-35"/>
       <use x="55.615234" xlink:href="#ArialMT-2e"/>
       <use x="83.398438" xlink:href="#ArialMT-30"/>
      </g>
     </g>
    </g>
    <g id="ytick_9">
     <g id="line2d_18">
      <g>
       <use style="fill:#262626;stroke:#262626;stroke-width:1.25;" x="44.531719" xlink:href="#m4047af6a43" y="12.847339"/>
      </g>
     </g>
     <g id="text_18">
      <!-- 7.5 -->
      <g style="fill:#262626;" transform="translate(19.741719 16.784136)scale(0.11 -0.11)">
       <use xlink:href="#ArialMT-37"/>
       <use x="55.615234" xlink:href="#ArialMT-2e"/>
       <use x="83.398438" xlink:href="#ArialMT-35"/>
      </g>
     </g>
    </g>
   </g>
   <g id="line2d_19">
    <path clip-path="url(#p4554f82264)" d="M 59.749901 67.078998 
L 62.146465 72.186292 
L 64.543029 70.398541 
L 66.939593 69.298568 
L 69.336157 74.479761 
L 71.732721 71.508571 
L 74.129285 62.795979 
L 78.922413 54.502404 
L 81.318977 62.740563 
L 83.715541 70.470254 
L 86.112105 74.0362 
L 88.508669 66.784104 
L 90.905233 62.451995 
L 93.301797 56.694186 
L 95.698362 53.116003 
L 98.094926 65.461878 
L 100.49149 63.411766 
L 102.888054 71.950923 
L 105.284618 73.178469 
L 107.681182 80.155298 
L 110.077746 69.324363 
L 112.47431 71.076286 
L 114.870874 80.425164 
L 117.267438 73.844341 
L 119.664002 74.987843 
L 122.060566 68.202405 
L 124.45713 74.274845 
L 126.853694 74.852839 
L 129.250258 77.10693 
L 131.646823 72.782623 
L 134.043387 65.209803 
L 136.439951 69.701541 
L 138.836515 74.848404 
L 141.233079 66.815265 
L 143.629643 74.018016 
L 146.026207 68.866242 
L 148.422771 66.689353 
L 150.819335 68.895565 
L 153.215899 72.548435 
L 155.612463 71.854195 
L 158.009027 79.2415 
L 160.405591 89.561249 
L 162.802155 90.316609 
L 165.198719 82.895419 
L 167.595284 78.30299 
L 169.991848 69.285473 
L 172.388412 69.659376 
L 174.784976 57.735543 
L 177.18154 63.002344 
L 179.578104 69.67487 
L 181.974668 68.105142 
L 184.371232 69.32335 
L 186.767796 69.343362 
L 189.16436 72.002561 
L 191.560924 79.465745 
L 193.957488 84.856379 
L 196.354052 88.907598 
L 198.750616 95.284641 
L 201.14718 92.256536 
L 203.543745 97.252773 
L 205.940309 100.193758 
L 208.336873 102.423838 
L 210.733437 104.984539 
L 213.130001 109.606064 
L 215.526565 107.915543 
L 217.923129 116.976766 
L 220.319693 116.003136 
L 222.716257 113.107362 
L 227.509385 126.887474 
L 229.905949 125.553193 
L 232.302513 129.870009 
L 234.699077 127.217847 
L 237.095641 118.589027 
L 239.492206 115.237591 
L 241.88877 117.555237 
L 244.285334 117.903785 
L 246.681898 115.911022 
L 249.078462 120.500543 
L 251.475026 134.296777 
L 253.87159 129.682383 
L 256.268154 130.678748 
L 258.664718 129.932765 
L 261.061282 130.171248 
L 263.457846 131.838176 
L 265.85441 118.576118 
L 268.250974 119.48184 
L 270.647538 123.117927 
L 273.044102 119.435908 
L 275.440666 112.490314 
L 277.837231 102.931864 
L 280.233795 111.082912 
L 282.630359 114.337645 
L 285.026923 110.240983 
L 287.423487 106.85296 
L 289.820051 108.003329 
L 292.216615 106.759644 
L 294.613179 110.891785 
L 297.009743 99.405521 
L 299.406307 99.314919 
L 304.199435 92.140378 
L 306.595999 94.1641 
L 308.992563 95.098518 
L 311.389127 88.225493 
L 313.785692 84.962932 
L 316.182256 73.833342 
L 318.57882 74.201269 
L 320.975384 84.18998 
L 323.371948 78.003323 
L 325.768512 86.706731 
L 328.165076 92.563195 
L 330.56164 94.321389 
L 332.958204 94.991447 
L 335.354768 94.144435 
L 337.751332 92.002214 
L 340.147896 97.110207 
L 342.54446 96.042018 
L 344.941024 102.068642 
L 347.337588 102.678505 
L 352.130717 100.977202 
L 354.527281 103.408776 
L 356.923845 113.211476 
L 359.320409 110.706779 
L 361.716973 108.494991 
L 364.113537 99.167081 
L 364.113537 99.167081 
" style="fill:none;stroke:#0173b2;stroke-linecap:round;stroke-width:1.5;"/>
   </g>
   <g id="line2d_20">
    <path clip-path="url(#p4554f82264)" d="M 59.749901 104.592348 
L 62.146465 103.186958 
L 64.543029 105.26686 
L 66.939593 95.853766 
L 69.336157 97.441413 
L 71.732721 104.264958 
L 74.129285 109.953 
L 76.525849 113.514071 
L 78.922413 110.562168 
L 81.318977 101.585363 
L 83.715541 109.384548 
L 86.112105 116.068096 
L 88.508669 116.376456 
L 90.905233 114.160663 
L 93.301797 112.140323 
L 95.698362 110.747082 
L 98.094926 115.898313 
L 100.49149 116.863585 
L 102.888054 116.373677 
L 105.284618 107.705106 
L 107.681182 98.612692 
L 110.077746 93.527237 
L 112.47431 93.221718 
L 114.870874 97.021307 
L 117.267438 93.57599 
L 119.664002 97.716241 
L 122.060566 96.130755 
L 124.45713 109.303982 
L 126.853694 113.129224 
L 129.250258 118.565544 
L 131.646823 120.322253 
L 134.043387 123.167158 
L 136.439951 123.902723 
L 138.836515 121.287535 
L 141.233079 125.037977 
L 143.629643 116.468973 
L 146.026207 112.168967 
L 148.422771 100.939295 
L 150.819335 95.250174 
L 153.215899 88.998865 
L 155.612463 81.199843 
L 158.009027 76.51948 
L 160.405591 85.617002 
L 162.802155 71.893621 
L 165.198719 78.726827 
L 167.595284 78.315426 
L 169.991848 71.099252 
L 172.388412 62.837813 
L 174.784976 73.5806 
L 177.18154 79.782221 
L 179.578104 90.972783 
L 181.974668 102.913633 
L 184.371232 114.057156 
L 186.767796 116.389027 
L 189.16436 120.168588 
L 191.560924 121.354416 
L 193.957488 116.028188 
L 196.354052 106.619971 
L 198.750616 107.799366 
L 201.14718 109.994525 
L 203.543745 104.241712 
L 205.940309 99.933367 
L 208.336873 103.945255 
L 210.733437 101.033511 
L 213.130001 96.579716 
L 215.526565 90.936772 
L 217.923129 104.617069 
L 220.319693 102.670231 
L 222.716257 107.453895 
L 225.112821 92.353415 
L 227.509385 91.756284 
L 229.905949 91.021825 
L 232.302513 92.059409 
L 234.699077 92.678096 
L 237.095641 98.794693 
L 239.492206 92.02353 
L 241.88877 99.770888 
L 244.285334 97.064005 
L 246.681898 90.533094 
L 249.078462 91.668655 
L 251.475026 95.130086 
L 253.87159 86.350691 
L 256.268154 88.770691 
L 258.664718 88.499656 
L 261.061282 78.834122 
L 263.457846 73.587536 
L 265.85441 73.836451 
L 268.250974 69.285232 
L 270.647538 74.13669 
L 273.044102 74.179572 
L 275.440666 68.183318 
L 277.837231 63.929652 
L 280.233795 72.108239 
L 282.630359 61.119641 
L 285.026923 64.954003 
L 287.423487 55.145576 
L 289.820051 55.479384 
L 292.216615 57.000434 
L 294.613179 64.493943 
L 297.009743 64.214654 
L 299.406307 68.7792 
L 301.802871 70.136584 
L 304.199435 53.533357 
L 306.595999 52.201742 
L 308.992563 49.712278 
L 311.389127 43.517778 
L 313.785692 57.271362 
L 316.182256 47.978129 
L 318.57882 52.273813 
L 320.975384 51.608177 
L 323.371948 50.101493 
L 325.768512 69.675974 
L 328.165076 78.667425 
L 330.56164 84.3791 
L 332.958204 75.912628 
L 335.354768 73.795551 
L 337.751332 71.219649 
L 340.147896 66.322702 
L 342.54446 71.307322 
L 344.941024 78.981728 
L 347.337588 79.07939 
L 349.734153 81.390302 
L 352.130717 70.416137 
L 354.527281 74.773286 
L 356.923845 86.326632 
L 359.320409 84.860581 
L 361.716973 90.855414 
L 364.113537 95.301094 
L 364.113537 95.301094 
" style="fill:none;stroke:#de8f05;stroke-linecap:round;stroke-width:1.5;"/>
   </g>
   <g id="line2d_21">
    <path clip-path="url(#p4554f82264)" d="M 59.749901 131.03074 
L 62.146465 127.094615 
L 64.543029 132.826081 
L 66.939593 136.79028 
L 69.336157 135.027779 
L 71.732721 128.978954 
L 74.129285 135.972408 
L 76.525849 144.187878 
L 78.922413 147.953571 
L 81.318977 145.683655 
L 83.715541 144.876465 
L 86.112105 143.255084 
L 88.508669 133.694523 
L 90.905233 126.953464 
L 93.301797 128.567719 
L 95.698362 122.26355 
L 98.094926 118.505142 
L 100.49149 119.730234 
L 102.888054 123.782014 
L 105.284618 121.380232 
L 107.681182 125.016025 
L 110.077746 115.397911 
L 112.47431 120.351729 
L 114.870874 132.589837 
L 117.267438 137.078079 
L 119.664002 127.778672 
L 122.060566 121.157161 
L 124.45713 121.436384 
L 126.853694 126.267922 
L 129.250258 122.110275 
L 131.646823 121.501091 
L 134.043387 125.734354 
L 136.439951 122.417738 
L 138.836515 122.771846 
L 141.233079 128.303203 
L 143.629643 133.22219 
L 146.026207 133.858054 
L 148.422771 131.680156 
L 150.819335 128.360112 
L 153.215899 124.267076 
L 155.612463 125.531467 
L 158.009027 124.816297 
L 160.405591 132.140106 
L 162.802155 138.957457 
L 165.198719 139.271106 
L 167.595284 145.849172 
L 169.991848 140.092671 
L 172.388412 156.72205 
L 174.784976 161.114648 
L 177.18154 152.420647 
L 179.578104 153.817951 
L 181.974668 152.151596 
L 184.371232 152.61805 
L 186.767796 150.952875 
L 189.16436 145.299014 
L 191.560924 141.336678 
L 193.957488 138.598211 
L 196.354052 127.871996 
L 198.750616 127.322886 
L 201.14718 124.180816 
L 203.543745 116.499854 
L 205.940309 117.219249 
L 208.336873 105.687889 
L 210.733437 103.589798 
L 213.130001 111.241062 
L 215.526565 105.242427 
L 217.923129 112.766707 
L 220.319693 112.89818 
L 222.716257 121.678344 
L 225.112821 121.236839 
L 227.509385 133.146779 
L 229.905949 136.298985 
L 232.302513 131.579902 
L 234.699077 131.315277 
L 237.095641 128.334444 
L 239.492206 126.849905 
L 241.88877 137.309762 
L 244.285334 133.304503 
L 246.681898 139.812564 
L 249.078462 142.791868 
L 251.475026 153.298775 
L 253.87159 158.941252 
L 256.268154 151.381306 
L 258.664718 152.53061 
L 261.061282 153.166831 
L 265.85441 160.313657 
L 268.250974 168.807877 
L 270.647538 176.132177 
L 273.044102 180.405895 
L 275.440666 184.26965 
L 277.837231 180.40261 
L 280.233795 186.618895 
L 282.630359 177.323438 
L 285.026923 175.744947 
L 287.423487 179.577014 
L 289.820051 170.79336 
L 292.216615 171.902708 
L 294.613179 168.946295 
L 297.009743 163.817647 
L 299.406307 157.149257 
L 301.802871 158.028999 
L 304.199435 149.332436 
L 306.595999 154.006432 
L 308.992563 158.415265 
L 311.389127 162.389519 
L 313.785692 161.759554 
L 316.182256 157.475934 
L 318.57882 159.134244 
L 320.975384 161.347419 
L 323.371948 148.520161 
L 325.768512 150.516144 
L 328.165076 143.745756 
L 330.56164 138.670785 
L 332.958204 151.972423 
L 335.354768 147.449704 
L 337.751332 144.322466 
L 340.147896 149.598937 
L 342.54446 152.699543 
L 344.941024 154.765773 
L 347.337588 148.990511 
L 349.734153 144.332363 
L 352.130717 138.019138 
L 354.527281 120.722411 
L 356.923845 115.587384 
L 359.320409 105.587226 
L 361.716973 112.085226 
L 364.113537 107.247535 
L 364.113537 107.247535 
" style="fill:none;stroke:#029e73;stroke-linecap:round;stroke-width:1.5;"/>
   </g>
   <g id="line2d_22">
    <path clip-path="url(#p4554f82264)" d="M 59.749901 22.962348 
L 62.146465 30.496505 
L 64.543029 25.704427 
L 66.939593 27.069319 
L 69.336157 25.18748 
L 71.732721 27.622046 
L 74.129285 32.701884 
L 76.525849 33.877322 
L 78.922413 34.820584 
L 81.318977 37.12539 
L 83.715541 38.093673 
L 86.112105 33.526401 
L 88.508669 40.956893 
L 90.905233 41.844005 
L 93.301797 41.078501 
L 95.698362 39.698384 
L 98.094926 40.50181 
L 100.49149 45.813411 
L 102.888054 47.172038 
L 105.284618 46.608971 
L 107.681182 50.772639 
L 110.077746 52.983744 
L 112.47431 56.040379 
L 114.870874 56.902064 
L 117.267438 61.162694 
L 119.664002 58.024672 
L 122.060566 60.809818 
L 124.45713 58.141045 
L 126.853694 63.056948 
L 129.250258 67.079503 
L 131.646823 72.187398 
L 134.043387 68.659893 
L 136.439951 77.783033 
L 138.836515 68.991506 
L 141.233079 77.953233 
L 143.629643 80.068756 
L 146.026207 73.098076 
L 148.422771 74.788678 
L 150.819335 72.434748 
L 153.215899 72.084191 
L 155.612463 74.423757 
L 158.009027 75.37852 
L 160.405591 61.989006 
L 162.802155 66.814144 
L 165.198719 66.664316 
L 167.595284 67.755262 
L 169.991848 67.59621 
L 172.388412 75.246664 
L 174.784976 81.381327 
L 177.18154 76.525215 
L 179.578104 87.223463 
L 181.974668 88.151852 
L 184.371232 89.283905 
L 186.767796 94.414502 
L 189.16436 97.77813 
L 191.560924 106.173327 
L 193.957488 102.66464 
L 196.354052 101.901296 
L 198.750616 101.914176 
L 201.14718 104.774431 
L 203.543745 108.62608 
L 205.940309 103.77907 
L 208.336873 105.049185 
L 210.733437 83.083674 
L 213.130001 84.05234 
L 215.526565 83.985108 
L 217.923129 92.968475 
L 220.319693 87.073281 
L 225.112821 96.631833 
L 227.509385 95.434819 
L 229.905949 91.570877 
L 232.302513 79.522583 
L 234.699077 80.213306 
L 237.095641 73.96648 
L 239.492206 73.915259 
L 241.88877 64.15514 
L 244.285334 69.328882 
L 246.681898 78.711242 
L 249.078462 87.599573 
L 251.475026 82.124849 
L 253.87159 82.767247 
L 256.268154 79.486414 
L 258.664718 79.417133 
L 261.061282 80.497483 
L 263.457846 77.114622 
L 265.85441 77.695327 
L 268.250974 82.407666 
L 270.647538 89.470351 
L 273.044102 95.354486 
L 277.837231 106.103723 
L 280.233795 103.513799 
L 282.630359 106.797275 
L 285.026923 114.840406 
L 287.423487 109.767995 
L 289.820051 108.969243 
L 292.216615 113.091761 
L 294.613179 113.592153 
L 297.009743 118.750474 
L 299.406307 129.621523 
L 301.802871 132.890121 
L 304.199435 139.102782 
L 306.595999 149.722644 
L 308.992563 147.760636 
L 311.389127 145.179631 
L 313.785692 133.046102 
L 316.182256 140.389671 
L 318.57882 134.924878 
L 320.975384 142.357577 
L 323.371948 136.981451 
L 325.768512 126.694171 
L 328.165076 127.27544 
L 330.56164 124.652558 
L 332.958204 127.202243 
L 335.354768 131.52256 
L 337.751332 136.186808 
L 340.147896 131.818253 
L 342.54446 135.09158 
L 344.941024 140.95685 
L 349.734153 123.943271 
L 352.130717 125.853892 
L 354.527281 128.629927 
L 356.923845 124.252503 
L 359.320409 119.612013 
L 361.716973 132.004241 
L 364.113537 122.210306 
L 364.113537 122.210306 
" style="fill:none;stroke:#d55e00;stroke-linecap:round;stroke-width:1.5;"/>
   </g>
   <g id="line2d_23">
    <path clip-path="url(#p4554f82264)" d="M 59.749901 59.455299 
L 62.146465 53.659874 
L 64.543029 55.684266 
L 66.939593 55.675101 
L 69.336157 51.998507 
L 71.732721 47.207147 
L 74.129285 46.873381 
L 76.525849 47.760065 
L 78.922413 36.49247 
L 81.318977 44.297326 
L 83.715541 42.361786 
L 86.112105 38.553821 
L 88.508669 37.831507 
L 90.905233 44.424013 
L 93.301797 38.752191 
L 95.698362 48.822385 
L 98.094926 61.726994 
L 100.49149 67.727242 
L 105.284618 54.227292 
L 107.681182 46.36472 
L 110.077746 42.720697 
L 112.47431 36.549058 
L 114.870874 40.258885 
L 117.267438 49.683504 
L 119.664002 47.395297 
L 122.060566 53.065233 
L 124.45713 54.584036 
L 126.853694 50.817965 
L 129.250258 47.381399 
L 131.646823 52.00549 
L 134.043387 47.684042 
L 136.439951 47.973719 
L 138.836515 52.411259 
L 141.233079 53.488564 
L 143.629643 63.053713 
L 146.026207 59.814355 
L 148.422771 58.345147 
L 150.819335 57.173484 
L 153.215899 62.170528 
L 155.612463 63.222361 
L 158.009027 62.247673 
L 160.405591 67.696076 
L 162.802155 69.135411 
L 165.198719 78.652417 
L 167.595284 82.668554 
L 169.991848 81.584899 
L 172.388412 80.288171 
L 174.784976 80.996937 
L 177.18154 74.345285 
L 179.578104 76.609325 
L 181.974668 74.977729 
L 184.371232 75.726213 
L 186.767796 79.256418 
L 189.16436 79.250108 
L 191.560924 64.361712 
L 193.957488 62.848923 
L 196.354052 49.066737 
L 198.750616 42.579103 
L 201.14718 40.455933 
L 203.543745 36.292138 
L 205.940309 38.7095 
L 208.336873 40.376389 
L 210.733437 35.535035 
L 213.130001 43.904361 
L 215.526565 38.636973 
L 217.923129 42.701433 
L 220.319693 39.865539 
L 222.716257 48.830642 
L 225.112821 41.8264 
L 227.509385 46.400809 
L 229.905949 52.885193 
L 232.302513 47.539303 
L 234.699077 44.314391 
L 237.095641 42.153099 
L 239.492206 51.365199 
L 241.88877 50.156222 
L 244.285334 55.484302 
L 246.681898 68.759142 
L 249.078462 73.213043 
L 251.475026 72.826177 
L 256.268154 61.366417 
L 258.664718 64.585349 
L 261.061282 64.958221 
L 263.457846 67.822337 
L 265.85441 69.516747 
L 268.250974 71.013914 
L 270.647538 66.010925 
L 273.044102 63.426499 
L 275.440666 60.669079 
L 277.837231 62.291118 
L 280.233795 57.11141 
L 282.630359 63.953507 
L 285.026923 74.019854 
L 287.423487 62.90635 
L 289.820051 64.751013 
L 292.216615 71.661347 
L 294.613179 81.010622 
L 297.009743 84.913332 
L 299.406307 80.791344 
L 301.802871 80.096314 
L 304.199435 75.926414 
L 306.595999 69.157734 
L 308.992563 57.691196 
L 311.389127 59.52039 
L 313.785692 64.659825 
L 316.182256 64.422559 
L 318.57882 70.379516 
L 323.371948 72.886625 
L 325.768512 69.583041 
L 328.165076 72.183924 
L 330.56164 76.812554 
L 332.958204 90.355698 
L 335.354768 91.110751 
L 337.751332 100.184533 
L 340.147896 102.248422 
L 342.54446 107.886963 
L 344.941024 109.04408 
L 347.337588 109.608099 
L 349.734153 121.631627 
L 352.130717 119.080658 
L 354.527281 128.000495 
L 356.923845 126.95481 
L 359.320409 122.320352 
L 361.716973 120.889945 
L 364.113537 119.153883 
L 364.113537 119.153883 
" style="fill:none;stroke:#cc78bc;stroke-linecap:round;stroke-width:1.5;"/>
   </g>
   <g id="line2d_24">
    <path clip-path="url(#p4554f82264)" d="M 59.749901 75.503831 
L 62.146465 72.319029 
L 64.543029 65.100067 
L 66.939593 62.760548 
L 69.336157 68.8864 
L 71.732721 68.196718 
L 74.129285 68.118081 
L 76.525849 61.569794 
L 78.922413 66.564937 
L 81.318977 67.266485 
L 83.715541 65.884241 
L 86.112105 68.403362 
L 88.508669 72.724584 
L 93.301797 78.272815 
L 95.698362 90.122517 
L 98.094926 86.458228 
L 100.49149 86.697954 
L 102.888054 90.99675 
L 105.284618 92.253979 
L 107.681182 94.211633 
L 110.077746 83.406683 
L 112.47431 76.20909 
L 114.870874 73.238892 
L 117.267438 75.981428 
L 122.060566 89.301633 
L 124.45713 100.726753 
L 126.853694 103.211437 
L 129.250258 98.362687 
L 131.646823 97.277125 
L 134.043387 97.608587 
L 136.439951 96.708678 
L 138.836515 98.210038 
L 141.233079 100.809064 
L 143.629643 102.621314 
L 146.026207 96.518202 
L 148.422771 83.319689 
L 150.819335 89.1018 
L 153.215899 84.425387 
L 155.612463 83.611034 
L 158.009027 85.937897 
L 160.405591 89.913731 
L 162.802155 97.158564 
L 165.198719 91.635018 
L 167.595284 98.852457 
L 169.991848 89.110887 
L 172.388412 96.516146 
L 174.784976 108.770857 
L 177.18154 110.358431 
L 179.578104 111.655262 
L 181.974668 113.575747 
L 184.371232 110.606511 
L 186.767796 102.548076 
L 189.16436 110.614746 
L 191.560924 103.579283 
L 193.957488 98.013989 
L 196.354052 102.605588 
L 198.750616 102.21383 
L 201.14718 102.848328 
L 203.543745 110.535988 
L 205.940309 111.349671 
L 208.336873 114.018121 
L 210.733437 122.028767 
L 213.130001 114.340129 
L 215.526565 112.818417 
L 217.923129 99.342865 
L 220.319693 101.152664 
L 225.112821 98.519966 
L 227.509385 100.299837 
L 232.302513 95.725114 
L 234.699077 88.643488 
L 237.095641 87.985033 
L 239.492206 87.682422 
L 241.88877 85.153957 
L 244.285334 84.789758 
L 246.681898 96.481932 
L 249.078462 89.291427 
L 251.475026 97.491133 
L 253.87159 97.172223 
L 256.268154 97.707022 
L 258.664718 105.63621 
L 261.061282 116.31669 
L 263.457846 115.069891 
L 265.85441 121.944357 
L 268.250974 127.990571 
L 273.044102 125.041937 
L 275.440666 121.742955 
L 277.837231 113.70034 
L 280.233795 116.182998 
L 282.630359 117.808376 
L 285.026923 121.538014 
L 287.423487 126.389824 
L 289.820051 117.34572 
L 292.216615 123.340133 
L 294.613179 125.950125 
L 297.009743 119.775878 
L 299.406307 123.390656 
L 301.802871 117.293532 
L 304.199435 110.695209 
L 306.595999 106.385798 
L 308.992563 110.525107 
L 311.389127 101.794408 
L 313.785692 101.728875 
L 316.182256 90.474909 
L 318.57882 90.757539 
L 320.975384 91.225177 
L 323.371948 77.836085 
L 328.165076 80.316131 
L 330.56164 72.796805 
L 332.958204 68.655785 
L 335.354768 67.032961 
L 337.751332 64.547872 
L 340.147896 58.000579 
L 342.54446 52.075803 
L 344.941024 52.076546 
L 347.337588 53.145947 
L 349.734153 37.802025 
L 352.130717 29.2571 
L 354.527281 23.804719 
L 356.923845 17.083636 
L 359.320409 29.70301 
L 361.716973 34.467646 
L 364.113537 36.556771 
L 364.113537 36.556771 
" style="fill:none;stroke:#ca9161;stroke-linecap:round;stroke-width:1.5;"/>
   </g>
   <g id="line2d_25">
    <path clip-path="url(#p4554f82264)" d="M 59.749901 214.756364 
L 62.146465 208.191717 
L 64.543029 207.273326 
L 66.939593 207.873244 
L 69.336157 203.874616 
L 71.732721 210.630457 
L 74.129285 214.683582 
L 76.525849 213.942082 
L 78.922413 213.87732 
L 81.318977 204.401483 
L 83.715541 206.290278 
L 86.112105 202.855082 
L 88.508669 198.577245 
L 90.905233 191.158723 
L 93.301797 190.617985 
L 95.698362 189.57446 
L 98.094926 194.725366 
L 100.49149 194.921161 
L 102.888054 206.368766 
L 105.284618 195.47147 
L 107.681182 186.292079 
L 110.077746 192.689142 
L 112.47431 190.097333 
L 114.870874 197.034317 
L 117.267438 195.632541 
L 119.664002 186.37579 
L 122.060566 185.814551 
L 124.45713 192.607814 
L 126.853694 197.192151 
L 129.250258 210.376805 
L 131.646823 202.664876 
L 134.043387 209.987839 
L 136.439951 207.27136 
L 138.836515 195.014654 
L 141.233079 195.46534 
L 143.629643 192.827072 
L 146.026207 186.491041 
L 148.422771 173.96296 
L 150.819335 177.356545 
L 153.215899 183.242679 
L 155.612463 177.017988 
L 158.009027 171.654597 
L 160.405591 162.360229 
L 162.802155 154.229321 
L 165.198719 155.971307 
L 167.595284 163.226741 
L 169.991848 164.296841 
L 172.388412 151.140303 
L 174.784976 144.91136 
L 177.18154 145.925553 
L 179.578104 160.535604 
L 181.974668 160.090202 
L 184.371232 157.013979 
L 186.767796 151.322575 
L 189.16436 139.351426 
L 191.560924 133.129701 
L 193.957488 133.168171 
L 196.354052 132.568943 
L 198.750616 125.602366 
L 201.14718 126.481399 
L 203.543745 134.692947 
L 208.336873 123.234837 
L 210.733437 123.353143 
L 213.130001 128.620536 
L 215.526565 130.389133 
L 220.319693 127.619661 
L 222.716257 121.510069 
L 225.112821 116.378091 
L 227.509385 117.974918 
L 229.905949 122.115946 
L 232.302513 132.34742 
L 234.699077 128.691817 
L 237.095641 133.265726 
L 239.492206 139.162353 
L 241.88877 142.730099 
L 244.285334 153.776152 
L 246.681898 156.262439 
L 249.078462 152.879938 
L 251.475026 143.670359 
L 253.87159 141.003018 
L 256.268154 147.471141 
L 258.664718 152.597724 
L 261.061282 148.105687 
L 265.85441 159.389068 
L 268.250974 157.141834 
L 270.647538 154.224187 
L 273.044102 149.670379 
L 275.440666 155.400429 
L 277.837231 152.088014 
L 280.233795 148.266525 
L 282.630359 141.240749 
L 285.026923 147.460805 
L 287.423487 156.500722 
L 289.820051 154.989275 
L 292.216615 158.5867 
L 294.613179 152.451458 
L 297.009743 140.338156 
L 299.406307 132.360632 
L 301.802871 128.90746 
L 304.199435 132.888483 
L 306.595999 127.866561 
L 308.992563 118.04953 
L 311.389127 114.485517 
L 313.785692 118.726616 
L 316.182256 112.013933 
L 318.57882 115.081578 
L 320.975384 110.433523 
L 323.371948 107.136712 
L 325.768512 105.259463 
L 328.165076 101.8275 
L 330.56164 115.524681 
L 332.958204 117.342262 
L 335.354768 117.932435 
L 337.751332 114.641085 
L 340.147896 115.332532 
L 342.54446 109.616475 
L 344.941024 107.430765 
L 347.337588 100.988376 
L 349.734153 104.563716 
L 352.130717 96.893133 
L 354.527281 99.670639 
L 356.923845 103.667954 
L 359.320409 100.152586 
L 361.716973 108.015113 
L 364.113537 97.308376 
L 364.113537 97.308376 
" style="fill:none;stroke:#fbafe4;stroke-linecap:round;stroke-width:1.5;"/>
   </g>
   <g id="line2d_26">
    <path clip-path="url(#p4554f82264)" d="M 59.749901 98.67256 
L 62.146465 106.828331 
L 64.543029 98.365949 
L 66.939593 98.169464 
L 69.336157 104.479335 
L 71.732721 100.568007 
L 74.129285 82.386241 
L 76.525849 82.726101 
L 78.922413 84.674688 
L 81.318977 80.736968 
L 83.715541 78.921659 
L 86.112105 87.356089 
L 88.508669 87.467188 
L 90.905233 87.140056 
L 93.301797 89.791669 
L 95.698362 89.642032 
L 98.094926 85.585941 
L 100.49149 88.532108 
L 102.888054 86.582549 
L 105.284618 87.29003 
L 107.681182 79.066599 
L 110.077746 78.921307 
L 112.47431 80.858061 
L 114.870874 76.313606 
L 117.267438 82.453478 
L 119.664002 81.320737 
L 122.060566 81.23895 
L 124.45713 80.150621 
L 126.853694 88.441647 
L 129.250258 89.771016 
L 131.646823 88.149596 
L 134.043387 85.90711 
L 136.439951 87.146493 
L 138.836515 78.77451 
L 141.233079 75.402854 
L 143.629643 72.270505 
L 146.026207 65.713853 
L 148.422771 73.562194 
L 150.819335 65.992705 
L 153.215899 60.854214 
L 155.612463 57.80446 
L 158.009027 58.466004 
L 160.405591 61.004597 
L 162.802155 54.853841 
L 165.198719 50.352253 
L 167.595284 47.550895 
L 169.991848 45.614338 
L 172.388412 47.319381 
L 174.784976 53.640737 
L 177.18154 52.85815 
L 179.578104 37.503872 
L 181.974668 31.650683 
L 184.371232 38.527646 
L 186.767796 38.419666 
L 189.16436 37.041948 
L 191.560924 38.425052 
L 193.957488 44.360796 
L 196.354052 38.267035 
L 198.750616 48.387075 
L 201.14718 46.428762 
L 203.543745 52.584927 
L 205.940309 54.447615 
L 208.336873 58.681425 
L 210.733437 65.732167 
L 215.526565 74.453045 
L 217.923129 74.499692 
L 220.319693 69.687961 
L 222.716257 70.572894 
L 225.112821 75.554713 
L 227.509385 84.232893 
L 229.905949 74.944983 
L 232.302513 71.785045 
L 234.699077 70.28566 
L 237.095641 75.997536 
L 239.492206 75.183274 
L 241.88877 84.870948 
L 244.285334 71.832646 
L 246.681898 71.008415 
L 249.078462 64.913147 
L 251.475026 63.663039 
L 256.268154 70.495709 
L 258.664718 77.101997 
L 261.061282 78.185809 
L 263.457846 78.880207 
L 265.85441 76.294285 
L 268.250974 81.846675 
L 270.647538 91.148402 
L 273.044102 83.788842 
L 275.440666 86.178505 
L 277.837231 90.522824 
L 280.233795 92.732956 
L 282.630359 90.465533 
L 285.026923 91.572941 
L 287.423487 90.086176 
L 289.820051 102.018662 
L 292.216615 98.229489 
L 294.613179 103.472885 
L 297.009743 99.443874 
L 299.406307 102.494855 
L 301.802871 110.832498 
L 304.199435 117.291148 
L 306.595999 119.84449 
L 308.992563 119.143278 
L 311.389127 116.407173 
L 313.785692 114.501748 
L 316.182256 111.126652 
L 318.57882 110.782169 
L 320.975384 113.616698 
L 323.371948 118.850582 
L 325.768512 120.538822 
L 328.165076 116.172809 
L 330.56164 116.776767 
L 332.958204 119.702961 
L 335.354768 119.773506 
L 340.147896 123.366415 
L 342.54446 120.260747 
L 344.941024 115.405288 
L 347.337588 116.292848 
L 349.734153 114.86973 
L 352.130717 124.650698 
L 354.527281 137.989383 
L 356.923845 129.921589 
L 359.320409 127.05421 
L 361.716973 123.336884 
L 364.113537 133.583209 
L 364.113537 133.583209 
" style="fill:none;stroke:#949494;stroke-linecap:round;stroke-width:1.5;"/>
   </g>
   <g id="line2d_27">
    <path clip-path="url(#p4554f82264)" d="M 59.749901 86.10452 
L 62.146465 94.357231 
L 64.543029 108.752893 
L 66.939593 116.218401 
L 69.336157 111.927063 
L 71.732721 109.838981 
L 74.129285 110.985259 
L 76.525849 113.161163 
L 78.922413 116.739131 
L 81.318977 121.413678 
L 83.715541 123.072909 
L 86.112105 110.259553 
L 88.508669 120.297033 
L 90.905233 119.333279 
L 93.301797 126.203794 
L 95.698362 123.943585 
L 98.094926 124.929008 
L 100.49149 110.857187 
L 102.888054 106.210316 
L 105.284618 105.37527 
L 107.681182 104.284397 
L 110.077746 102.737018 
L 112.47431 115.636825 
L 114.870874 113.193621 
L 117.267438 109.319809 
L 119.664002 110.120777 
L 122.060566 107.833753 
L 124.45713 110.762304 
L 126.853694 102.507594 
L 129.250258 102.425536 
L 131.646823 99.320788 
L 134.043387 95.344828 
L 136.439951 95.539135 
L 138.836515 96.839596 
L 141.233079 102.464561 
L 143.629643 102.230461 
L 146.026207 112.976178 
L 148.422771 120.369843 
L 150.819335 116.824326 
L 153.215899 106.415186 
L 155.612463 100.747432 
L 158.009027 89.325776 
L 160.405591 92.020432 
L 162.802155 90.012347 
L 165.198719 91.414276 
L 167.595284 87.833828 
L 169.991848 89.255641 
L 172.388412 95.490608 
L 177.18154 91.255546 
L 179.578104 95.257007 
L 181.974668 101.740701 
L 184.371232 106.012268 
L 186.767796 106.393211 
L 189.16436 109.920115 
L 191.560924 115.378597 
L 193.957488 102.344974 
L 196.354052 92.523944 
L 198.750616 95.887509 
L 201.14718 93.425381 
L 203.543745 104.542552 
L 205.940309 108.770981 
L 208.336873 111.651613 
L 213.130001 106.894412 
L 215.526565 103.132004 
L 217.923129 108.916515 
L 220.319693 111.412439 
L 222.716257 99.908472 
L 225.112821 96.699305 
L 227.509385 95.576206 
L 229.905949 88.403748 
L 232.302513 88.627774 
L 234.699077 81.334018 
L 239.492206 77.086457 
L 241.88877 71.512797 
L 244.285334 67.218285 
L 246.681898 63.66251 
L 249.078462 66.015033 
L 251.475026 66.34311 
L 253.87159 62.090869 
L 256.268154 61.662466 
L 258.664718 60.219274 
L 261.061282 75.557791 
L 263.457846 79.67618 
L 265.85441 84.635416 
L 268.250974 94.101382 
L 270.647538 104.028759 
L 273.044102 107.29073 
L 275.440666 104.544905 
L 280.233795 115.200458 
L 282.630359 117.363192 
L 285.026923 114.706402 
L 287.423487 112.278016 
L 289.820051 110.188769 
L 292.216615 118.408827 
L 294.613179 118.318637 
L 297.009743 112.649084 
L 299.406307 114.172216 
L 301.802871 115.877761 
L 304.199435 122.739969 
L 306.595999 117.42104 
L 308.992563 119.99781 
L 311.389127 114.509373 
L 313.785692 110.77436 
L 316.182256 110.97963 
L 318.57882 114.359922 
L 320.975384 111.432555 
L 323.371948 119.752911 
L 325.768512 117.787914 
L 328.165076 120.935192 
L 330.56164 114.874754 
L 332.958204 118.060725 
L 335.354768 112.171623 
L 337.751332 119.746601 
L 340.147896 123.155061 
L 342.54446 128.049123 
L 344.941024 124.202198 
L 347.337588 123.993294 
L 349.734153 119.237012 
L 352.130717 129.811603 
L 354.527281 128.323363 
L 356.923845 136.394858 
L 359.320409 137.016679 
L 361.716973 131.825677 
L 364.113537 131.360316 
L 364.113537 131.360316 
" style="fill:none;stroke:#ece133;stroke-linecap:round;stroke-width:1.5;"/>
   </g>
   <g id="line2d_28">
    <path clip-path="url(#p4554f82264)" d="M 59.749901 144.655516 
L 62.146465 148.006331 
L 64.543029 143.427533 
L 66.939593 148.665513 
L 69.336157 142.680029 
L 71.732721 130.403486 
L 74.129285 138.786064 
L 76.525849 135.086002 
L 78.922413 135.210809 
L 81.318977 135.220792 
L 83.715541 139.949637 
L 86.112105 141.39998 
L 88.508669 138.248425 
L 90.905233 139.247164 
L 93.301797 135.399681 
L 95.698362 131.289212 
L 98.094926 135.225422 
L 100.49149 141.372908 
L 102.888054 146.424302 
L 105.284618 152.612407 
L 107.681182 143.123605 
L 110.077746 139.731364 
L 112.47431 143.460174 
L 114.870874 132.663679 
L 117.267438 135.512447 
L 119.664002 139.137561 
L 122.060566 125.96555 
L 124.45713 110.830863 
L 126.853694 118.592688 
L 129.250258 115.452358 
L 131.646823 121.615624 
L 134.043387 119.888825 
L 136.439951 119.401448 
L 138.836515 123.99573 
L 141.233079 123.219377 
L 143.629643 128.624394 
L 146.026207 123.982236 
L 148.422771 125.054121 
L 150.819335 123.926607 
L 153.215899 118.267692 
L 155.612463 115.700434 
L 158.009027 109.400717 
L 160.405591 97.232899 
L 162.802155 98.969521 
L 165.198719 84.322305 
L 167.595284 77.64975 
L 169.991848 81.178013 
L 172.388412 70.570534 
L 174.784976 62.714118 
L 177.18154 61.685265 
L 179.578104 56.371861 
L 181.974668 44.975087 
L 184.371232 43.361796 
L 186.767796 35.035322 
L 189.16436 44.747127 
L 191.560924 53.105788 
L 193.957488 58.796045 
L 196.354052 63.069013 
L 198.750616 64.163212 
L 201.14718 56.488814 
L 203.543745 72.405904 
L 205.940309 79.451873 
L 208.336873 69.270186 
L 210.733437 68.150606 
L 213.130001 73.054131 
L 215.526565 83.16789 
L 217.923129 76.728045 
L 220.319693 75.763904 
L 222.716257 76.848733 
L 225.112821 78.811527 
L 227.509385 72.9667 
L 229.905949 69.219723 
L 232.302513 83.612478 
L 234.699077 73.437276 
L 237.095641 72.184627 
L 239.492206 83.551191 
L 241.88877 88.693 
L 244.285334 94.405118 
L 246.681898 101.238511 
L 249.078462 97.227728 
L 251.475026 99.905322 
L 253.87159 106.725306 
L 256.268154 110.805944 
L 258.664718 114.016539 
L 261.061282 103.574109 
L 263.457846 100.233911 
L 265.85441 98.312772 
L 268.250974 97.064082 
L 270.647538 100.596745 
L 273.044102 91.22458 
L 275.440666 100.96613 
L 277.837231 99.68012 
L 280.233795 109.767782 
L 282.630359 115.458406 
L 285.026923 122.711095 
L 287.423487 116.405735 
L 289.820051 116.524126 
L 292.216615 103.630296 
L 294.613179 105.266078 
L 297.009743 112.059773 
L 299.406307 116.970432 
L 301.802871 116.001919 
L 304.199435 109.782668 
L 306.595999 109.021196 
L 308.992563 108.38457 
L 311.389127 118.455236 
L 313.785692 109.938331 
L 316.182256 111.445217 
L 318.57882 112.062722 
L 320.975384 117.426879 
L 323.371948 120.489231 
L 325.768512 112.649178 
L 328.165076 116.801242 
L 330.56164 118.498957 
L 332.958204 118.359162 
L 335.354768 112.153322 
L 337.751332 122.029684 
L 340.147896 124.44034 
L 342.54446 128.779495 
L 344.941024 128.820343 
L 347.337588 132.544962 
L 349.734153 134.505104 
L 352.130717 124.129818 
L 354.527281 119.626699 
L 356.923845 118.691039 
L 359.320409 124.188427 
L 361.716973 117.922131 
L 364.113537 121.113177 
L 364.113537 121.113177 
" style="fill:none;stroke:#56b4e9;stroke-linecap:round;stroke-width:1.5;"/>
   </g>
   <g id="patch_3">
    <path d="M 44.531719 224.64 
L 44.531719 7.2 
" style="fill:none;stroke:#262626;stroke-linecap:square;stroke-linejoin:miter;stroke-width:1.25;"/>
   </g>
   <g id="patch_4">
    <path d="M 379.331719 224.64 
L 379.331719 7.2 
" style="fill:none;stroke:#262626;stroke-linecap:square;stroke-linejoin:miter;stroke-width:1.25;"/>
   </g>
   <g id="patch_5">
    <path d="M 44.531719 224.64 
L 379.331719 224.64 
" style="fill:none;stroke:#262626;stroke-linecap:square;stroke-linejoin:miter;stroke-width:1.25;"/>
   </g>
   <g id="patch_6">
    <path d="M 44.531719 7.2 
L 379.331719 7.2 
" style="fill:none;stroke:#262626;stroke-linecap:square;stroke-linejoin:miter;stroke-width:1.25;"/>
   </g>
  </g>
 </g>
 <defs>
  <clipPath id="p4554f82264">
   <rect height="217.44" width="334.8" x="44.531719" y="7.2"/>
  </clipPath>
 </defs>
</svg>
