<?xml version="1.0" encoding="utf-8" standalone="no"?>
<!DOCTYPE svg PUBLIC "-//W3C//DTD SVG 1.1//EN"
  "http://www.w3.org/Graphics/SVG/1.1/DTD/svg11.dtd">
<svg height="263.799844pt" version="1.1" viewBox="0 0 349.2 263.799844" width="349.2pt" xmlns="http://www.w3.org/2000/svg" xmlns:xlink="http://www.w3.org/1999/xlink">
 <metadata>
  <rdf:RDF xmlns:cc="http://creativecommons.org/ns#" xmlns:dc="http://purl.org/dc/elements/1.1/" xmlns:rdf="http://www.w3.org/1999/02/22-rdf-syntax-ns#">
   <cc:Work>
    <dc:type rdf:resource="http://purl.org/dc/dcmitype/StillImage"/>
    <dc:date>2021-11-05T21:42:12.849219</dc:date>
    <dc:format>image/svg+xml</dc:format>
    <dc:creator>
     <cc:Agent>
      <dc:title>Matplotlib v3.4.3, https://matplotlib.org/</dc:title>
     </cc:Agent>
    </dc:creator>
   </cc:Work>
  </rdf:RDF>
 </metadata>
 <defs>
  <style type="text/css">*{stroke-linecap:butt;stroke-linejoin:round;}</style>
 </defs>
 <g id="figure_1">
  <g id="patch_1">
   <path d="M 0 263.799844 
L 349.2 263.799844 
L 349.2 0 
L 0 0 
z
" style="fill:#ffffff;"/>
  </g>
  <g id="axes_1">
   <g id="patch_2">
    <path d="M 7.2 224.64 
L 342 224.64 
L 342 7.2 
L 7.2 7.2 
z
" style="fill:#ffffff;"/>
   </g>
   <g id="matplotlib.axis_1">
    <g id="xtick_1">
     <g id="line2d_1">
      <defs>
       <path d="M 0 0 
L 0 3 
" id="maabd442360" style="stroke:#808080;"/>
      </defs>
      <g>
       <use style="fill:#808080;stroke:#808080;" x="54.810548" xlink:href="#maabd442360" y="224.64"/>
      </g>
     </g>
     <g id="text_1">
      <!-- 2.1 -->
      <g style="fill:#262626;" transform="translate(47.165548 239.013594)scale(0.11 -0.11)">
       <defs>
        <path d="M 3222 541 
L 3222 0 
L 194 0 
Q 188 203 259 391 
Q 375 700 629 1000 
Q 884 1300 1366 1694 
Q 2113 2306 2375 2664 
Q 2638 3022 2638 3341 
Q 2638 3675 2398 3904 
Q 2159 4134 1775 4134 
Q 1369 4134 1125 3890 
Q 881 3647 878 3216 
L 300 3275 
Q 359 3922 746 4261 
Q 1134 4600 1788 4600 
Q 2447 4600 2831 4234 
Q 3216 3869 3216 3328 
Q 3216 3053 3103 2787 
Q 2991 2522 2730 2228 
Q 2469 1934 1863 1422 
Q 1356 997 1212 845 
Q 1069 694 975 541 
L 3222 541 
z
" id="ArialMT-32" transform="scale(0.015625)"/>
        <path d="M 581 0 
L 581 641 
L 1222 641 
L 1222 0 
L 581 0 
z
" id="ArialMT-2e" transform="scale(0.015625)"/>
        <path d="M 2384 0 
L 1822 0 
L 1822 3584 
Q 1619 3391 1289 3197 
Q 959 3003 697 2906 
L 697 3450 
Q 1169 3672 1522 3987 
Q 1875 4303 2022 4600 
L 2384 4600 
L 2384 0 
z
" id="ArialMT-31" transform="scale(0.015625)"/>
       </defs>
       <use xlink:href="#ArialMT-32"/>
       <use x="55.615234" xlink:href="#ArialMT-2e"/>
       <use x="83.398438" xlink:href="#ArialMT-31"/>
      </g>
     </g>
    </g>
    <g id="xtick_2">
     <g id="line2d_2">
      <g>
       <use style="fill:#808080;stroke:#808080;" x="117.873713" xlink:href="#maabd442360" y="224.64"/>
      </g>
     </g>
     <g id="text_2">
      <!-- 2.2 -->
      <g style="fill:#262626;" transform="translate(110.228713 239.013594)scale(0.11 -0.11)">
       <use xlink:href="#ArialMT-32"/>
       <use x="55.615234" xlink:href="#ArialMT-2e"/>
       <use x="83.398438" xlink:href="#ArialMT-32"/>
      </g>
     </g>
    </g>
    <g id="xtick_3">
     <g id="line2d_3">
      <g>
       <use style="fill:#808080;stroke:#808080;" x="180.936878" xlink:href="#maabd442360" y="224.64"/>
      </g>
     </g>
     <g id="text_3">
      <!-- 2.3 -->
      <g style="fill:#262626;" transform="translate(173.291878 239.013594)scale(0.11 -0.11)">
       <defs>
        <path d="M 269 1209 
L 831 1284 
Q 928 806 1161 595 
Q 1394 384 1728 384 
Q 2125 384 2398 659 
Q 2672 934 2672 1341 
Q 2672 1728 2419 1979 
Q 2166 2231 1775 2231 
Q 1616 2231 1378 2169 
L 1441 2663 
Q 1497 2656 1531 2656 
Q 1891 2656 2178 2843 
Q 2466 3031 2466 3422 
Q 2466 3731 2256 3934 
Q 2047 4138 1716 4138 
Q 1388 4138 1169 3931 
Q 950 3725 888 3313 
L 325 3413 
Q 428 3978 793 4289 
Q 1159 4600 1703 4600 
Q 2078 4600 2393 4439 
Q 2709 4278 2876 4000 
Q 3044 3722 3044 3409 
Q 3044 3113 2884 2869 
Q 2725 2625 2413 2481 
Q 2819 2388 3044 2092 
Q 3269 1797 3269 1353 
Q 3269 753 2831 336 
Q 2394 -81 1725 -81 
Q 1122 -81 723 278 
Q 325 638 269 1209 
z
" id="ArialMT-33" transform="scale(0.015625)"/>
       </defs>
       <use xlink:href="#ArialMT-32"/>
       <use x="55.615234" xlink:href="#ArialMT-2e"/>
       <use x="83.398438" xlink:href="#ArialMT-33"/>
      </g>
     </g>
    </g>
    <g id="xtick_4">
     <g id="line2d_4">
      <g>
       <use style="fill:#808080;stroke:#808080;" x="244.000044" xlink:href="#maabd442360" y="224.64"/>
      </g>
     </g>
     <g id="text_4">
      <!-- 2.4 -->
      <g style="fill:#262626;" transform="translate(236.355044 239.013594)scale(0.11 -0.11)">
       <defs>
        <path d="M 2069 0 
L 2069 1097 
L 81 1097 
L 81 1613 
L 2172 4581 
L 2631 4581 
L 2631 1613 
L 3250 1613 
L 3250 1097 
L 2631 1097 
L 2631 0 
L 2069 0 
z
M 2069 1613 
L 2069 3678 
L 634 1613 
L 2069 1613 
z
" id="ArialMT-34" transform="scale(0.015625)"/>
       </defs>
       <use xlink:href="#ArialMT-32"/>
       <use x="55.615234" xlink:href="#ArialMT-2e"/>
       <use x="83.398438" xlink:href="#ArialMT-34"/>
      </g>
     </g>
    </g>
    <g id="xtick_5">
     <g id="line2d_5">
      <g>
       <use style="fill:#808080;stroke:#808080;" x="307.063209" xlink:href="#maabd442360" y="224.64"/>
      </g>
     </g>
     <g id="text_5">
      <!-- 2.5 -->
      <g style="fill:#262626;" transform="translate(299.418209 239.013594)scale(0.11 -0.11)">
       <defs>
        <path d="M 266 1200 
L 856 1250 
Q 922 819 1161 601 
Q 1400 384 1738 384 
Q 2144 384 2425 690 
Q 2706 997 2706 1503 
Q 2706 1984 2436 2262 
Q 2166 2541 1728 2541 
Q 1456 2541 1237 2417 
Q 1019 2294 894 2097 
L 366 2166 
L 809 4519 
L 3088 4519 
L 3088 3981 
L 1259 3981 
L 1013 2750 
Q 1425 3038 1878 3038 
Q 2478 3038 2890 2622 
Q 3303 2206 3303 1553 
Q 3303 931 2941 478 
Q 2500 -78 1738 -78 
Q 1113 -78 717 272 
Q 322 622 266 1200 
z
" id="ArialMT-35" transform="scale(0.015625)"/>
       </defs>
       <use xlink:href="#ArialMT-32"/>
       <use x="55.615234" xlink:href="#ArialMT-2e"/>
       <use x="83.398438" xlink:href="#ArialMT-35"/>
      </g>
     </g>
    </g>
    <g id="text_6">
     <!-- $\nu_\mathrm{max}$ ($\mu\mathrm{Hz}$) -->
     <g style="fill:#262626;" transform="translate(144.78 253.959844)scale(0.12 -0.12)">
      <defs>
       <path d="M 959 0 
L 572 3500 
L 1191 3500 
L 1522 563 
Q 1972 950 2391 1488 
Q 2706 1891 2788 2241 
Q 2825 2406 2809 2719 
Q 2794 3091 2544 3500 
L 3125 3500 
L 3125 3500 
Q 3288 3222 3353 2834 
Q 3416 2478 3369 2234 
Q 3250 1622 2719 1075 
Q 2025 363 1572 0 
L 959 0 
z
" id="DejaVuSans-Oblique-3bd" transform="scale(0.015625)"/>
       <path d="M 3328 2828 
Q 3544 3216 3844 3400 
Q 4144 3584 4550 3584 
Q 5097 3584 5394 3201 
Q 5691 2819 5691 2113 
L 5691 0 
L 5113 0 
L 5113 2094 
Q 5113 2597 4934 2840 
Q 4756 3084 4391 3084 
Q 3944 3084 3684 2787 
Q 3425 2491 3425 1978 
L 3425 0 
L 2847 0 
L 2847 2094 
Q 2847 2600 2669 2842 
Q 2491 3084 2119 3084 
Q 1678 3084 1418 2786 
Q 1159 2488 1159 1978 
L 1159 0 
L 581 0 
L 581 3500 
L 1159 3500 
L 1159 2956 
Q 1356 3278 1631 3431 
Q 1906 3584 2284 3584 
Q 2666 3584 2933 3390 
Q 3200 3197 3328 2828 
z
" id="DejaVuSans-6d" transform="scale(0.015625)"/>
       <path d="M 2194 1759 
Q 1497 1759 1228 1600 
Q 959 1441 959 1056 
Q 959 750 1161 570 
Q 1363 391 1709 391 
Q 2188 391 2477 730 
Q 2766 1069 2766 1631 
L 2766 1759 
L 2194 1759 
z
M 3341 1997 
L 3341 0 
L 2766 0 
L 2766 531 
Q 2569 213 2275 61 
Q 1981 -91 1556 -91 
Q 1019 -91 701 211 
Q 384 513 384 1019 
Q 384 1609 779 1909 
Q 1175 2209 1959 2209 
L 2766 2209 
L 2766 2266 
Q 2766 2663 2505 2880 
Q 2244 3097 1772 3097 
Q 1472 3097 1187 3025 
Q 903 2953 641 2809 
L 641 3341 
Q 956 3463 1253 3523 
Q 1550 3584 1831 3584 
Q 2591 3584 2966 3190 
Q 3341 2797 3341 1997 
z
" id="DejaVuSans-61" transform="scale(0.015625)"/>
       <path d="M 3513 3500 
L 2247 1797 
L 3578 0 
L 2900 0 
L 1881 1375 
L 863 0 
L 184 0 
L 1544 1831 
L 300 3500 
L 978 3500 
L 1906 2253 
L 2834 3500 
L 3513 3500 
z
" id="DejaVuSans-78" transform="scale(0.015625)"/>
       <path id="ArialMT-20" transform="scale(0.015625)"/>
       <path d="M 1497 -1347 
Q 1031 -759 709 28 
Q 388 816 388 1659 
Q 388 2403 628 3084 
Q 909 3875 1497 4659 
L 1900 4659 
Q 1522 4009 1400 3731 
Q 1209 3300 1100 2831 
Q 966 2247 966 1656 
Q 966 153 1900 -1347 
L 1497 -1347 
z
" id="ArialMT-28" transform="scale(0.015625)"/>
       <path d="M -84 -1331 
L 856 3500 
L 1434 3500 
L 1009 1322 
Q 997 1256 987 1175 
Q 978 1094 978 1013 
Q 978 722 1161 565 
Q 1344 409 1684 409 
Q 2147 409 2431 671 
Q 2716 934 2816 1459 
L 3213 3500 
L 3788 3500 
L 3266 809 
Q 3253 750 3248 706 
Q 3244 663 3244 628 
Q 3244 531 3283 486 
Q 3322 441 3406 441 
Q 3438 441 3492 456 
Q 3547 472 3647 513 
L 3559 50 
Q 3422 -19 3297 -55 
Q 3172 -91 3053 -91 
Q 2847 -91 2730 40 
Q 2613 172 2613 403 
Q 2438 153 2195 31 
Q 1953 -91 1625 -91 
Q 1334 -91 1117 43 
Q 900 178 831 397 
L 494 -1331 
L -84 -1331 
z
" id="DejaVuSans-Oblique-3bc" transform="scale(0.015625)"/>
       <path d="M 628 4666 
L 1259 4666 
L 1259 2753 
L 3553 2753 
L 3553 4666 
L 4184 4666 
L 4184 0 
L 3553 0 
L 3553 2222 
L 1259 2222 
L 1259 0 
L 628 0 
L 628 4666 
z
" id="DejaVuSans-48" transform="scale(0.015625)"/>
       <path d="M 353 3500 
L 3084 3500 
L 3084 2975 
L 922 459 
L 3084 459 
L 3084 0 
L 275 0 
L 275 525 
L 2438 3041 
L 353 3041 
L 353 3500 
z
" id="DejaVuSans-7a" transform="scale(0.015625)"/>
       <path d="M 791 -1347 
L 388 -1347 
Q 1322 153 1322 1656 
Q 1322 2244 1188 2822 
Q 1081 3291 891 3722 
Q 769 4003 388 4659 
L 791 4659 
Q 1378 3875 1659 3084 
Q 1900 2403 1900 1659 
Q 1900 816 1576 28 
Q 1253 -759 791 -1347 
z
" id="ArialMT-29" transform="scale(0.015625)"/>
      </defs>
      <use transform="translate(0 0.09375)" xlink:href="#DejaVuSans-Oblique-3bd"/>
      <use transform="translate(55.859375 -16.3125)scale(0.7)" xlink:href="#DejaVuSans-6d"/>
      <use transform="translate(124.047852 -16.3125)scale(0.7)" xlink:href="#DejaVuSans-61"/>
      <use transform="translate(166.943359 -16.3125)scale(0.7)" xlink:href="#DejaVuSans-78"/>
      <use transform="translate(211.103516 0.09375)" xlink:href="#ArialMT-20"/>
      <use transform="translate(238.886719 0.09375)" xlink:href="#ArialMT-28"/>
      <use transform="translate(272.1875 0.09375)" xlink:href="#DejaVuSans-Oblique-3bc"/>
      <use transform="translate(335.810547 0.09375)" xlink:href="#DejaVuSans-48"/>
      <use transform="translate(411.005859 0.09375)" xlink:href="#DejaVuSans-7a"/>
      <use transform="translate(463.496094 0.09375)" xlink:href="#ArialMT-29"/>
     </g>
    </g>
   </g>
   <g id="matplotlib.axis_2"/>
   <g id="PolyCollection_1">
    <defs>
     <path d="M 22.418182 -49.04348 
L 22.418182 -57.518384 
L 23.013805 -57.531613 
L 23.609429 -57.564053 
L 24.205052 -57.605875 
L 24.800676 -57.664047 
L 25.3963 -57.754073 
L 25.991923 -57.862287 
L 26.587547 -57.982835 
L 27.18317 -58.12814 
L 27.778794 -58.286321 
L 28.374417 -58.46726 
L 28.970041 -58.644767 
L 29.565664 -58.848486 
L 30.161288 -59.073478 
L 30.756912 -59.308779 
L 31.352535 -59.560418 
L 31.948159 -59.824662 
L 32.543782 -60.097181 
L 33.139406 -60.373532 
L 33.735029 -60.671558 
L 34.330653 -60.983808 
L 34.926276 -61.304875 
L 35.5219 -61.645099 
L 36.117524 -61.991241 
L 36.713147 -62.336172 
L 37.308771 -62.681787 
L 37.904394 -63.043872 
L 38.500018 -63.415783 
L 39.095641 -63.797732 
L 39.691265 -64.179113 
L 40.286888 -64.565171 
L 40.882512 -64.948289 
L 41.478136 -65.34569 
L 42.073759 -65.741231 
L 42.669383 -66.140219 
L 43.265006 -66.541838 
L 43.86063 -66.943928 
L 44.456253 -67.347376 
L 45.051877 -67.767895 
L 45.6475 -68.198889 
L 46.243124 -68.619952 
L 46.838748 -69.047131 
L 47.434371 -69.495795 
L 48.029995 -69.948137 
L 48.625618 -70.407936 
L 49.221242 -70.868109 
L 49.816865 -71.328778 
L 50.412489 -71.79669 
L 51.008112 -72.275551 
L 51.603736 -72.759378 
L 52.19936 -73.241552 
L 52.794983 -73.746365 
L 53.390607 -74.254401 
L 53.98623 -74.787035 
L 54.581854 -75.321925 
L 55.177477 -75.868986 
L 55.773101 -76.428843 
L 56.368724 -77.005719 
L 56.964348 -77.594045 
L 57.559972 -78.197919 
L 58.155595 -78.824443 
L 58.751219 -79.467345 
L 59.346842 -80.130641 
L 59.942466 -80.818909 
L 60.538089 -81.51912 
L 61.133713 -82.244915 
L 61.729336 -82.983076 
L 62.32496 -83.747626 
L 62.920584 -84.510555 
L 63.516207 -85.31114 
L 64.111831 -86.112477 
L 64.707454 -86.933507 
L 65.303078 -87.774082 
L 65.898701 -88.626171 
L 66.494325 -89.492516 
L 67.089948 -90.379423 
L 67.685572 -91.279275 
L 68.281196 -92.183827 
L 68.876819 -93.101736 
L 69.472443 -94.032458 
L 70.068066 -94.969927 
L 70.66369 -95.899569 
L 71.259313 -96.862806 
L 71.854937 -97.821546 
L 72.45056 -98.770009 
L 73.046184 -99.73439 
L 73.641808 -100.711828 
L 74.237431 -101.684615 
L 74.833055 -102.654581 
L 75.428678 -103.621026 
L 76.024302 -104.604575 
L 76.619925 -105.578674 
L 77.215549 -106.545487 
L 77.811172 -107.514969 
L 78.406796 -108.486861 
L 79.002419 -109.453195 
L 79.598043 -110.416927 
L 80.193667 -111.367005 
L 80.78929 -112.314042 
L 81.384914 -113.269802 
L 81.980537 -114.219636 
L 82.576161 -115.151311 
L 83.171784 -116.094888 
L 83.767408 -117.038447 
L 84.363031 -118.000706 
L 84.958655 -118.934913 
L 85.554279 -119.864029 
L 86.149902 -120.804164 
L 86.745526 -121.740571 
L 87.341149 -122.662087 
L 87.936773 -123.564507 
L 88.532396 -124.492608 
L 89.12802 -125.423984 
L 89.723643 -126.342544 
L 90.319267 -127.25523 
L 90.914891 -128.152031 
L 91.510514 -129.062271 
L 92.106138 -129.957464 
L 92.701761 -130.828197 
L 93.297385 -131.71041 
L 93.893008 -132.599385 
L 94.488632 -133.453738 
L 95.084255 -134.309772 
L 95.679879 -135.151405 
L 96.275503 -135.998681 
L 96.871126 -136.823838 
L 97.46675 -137.650819 
L 98.062373 -138.46355 
L 98.657997 -139.293641 
L 99.25362 -140.095739 
L 99.849244 -140.899512 
L 100.444867 -141.696257 
L 101.040491 -142.487152 
L 101.636115 -143.297862 
L 102.231738 -144.110665 
L 102.827362 -144.9153 
L 103.422985 -145.730771 
L 104.018609 -146.533062 
L 104.614232 -147.351368 
L 105.209856 -148.20452 
L 105.805479 -149.049886 
L 106.401103 -149.927035 
L 106.996727 -150.793772 
L 107.59235 -151.703703 
L 108.187974 -152.616689 
L 108.783597 -153.577832 
L 109.379221 -154.540392 
L 109.974844 -155.562662 
L 110.570468 -156.60236 
L 111.166091 -157.678093 
L 111.761715 -158.779151 
L 112.357339 -159.915754 
L 112.952962 -161.064833 
L 113.548586 -162.28925 
L 114.144209 -163.519901 
L 114.739833 -164.785944 
L 115.335456 -166.100284 
L 115.93108 -167.437423 
L 116.526703 -168.783401 
L 117.122327 -170.171633 
L 117.717951 -171.59399 
L 118.313574 -173.050863 
L 118.909198 -174.53583 
L 119.504821 -176.049612 
L 120.100445 -177.598232 
L 120.696068 -179.163453 
L 121.291692 -180.75147 
L 121.887315 -182.328685 
L 122.482939 -183.932345 
L 123.078563 -185.519803 
L 123.674186 -187.109742 
L 124.26981 -188.726164 
L 124.865433 -190.34526 
L 125.461057 -191.950919 
L 126.05668 -193.524599 
L 126.652304 -195.095531 
L 127.247927 -196.666715 
L 127.843551 -198.223981 
L 128.439175 -199.751106 
L 129.034798 -201.252536 
L 129.630422 -202.71762 
L 130.226045 -204.2002 
L 130.821669 -205.636745 
L 131.417292 -207.040827 
L 132.012916 -208.426131 
L 132.608539 -209.793165 
L 133.204163 -211.129499 
L 133.799787 -212.436604 
L 134.39541 -213.708664 
L 134.991034 -214.962654 
L 135.586657 -216.175633 
L 136.182281 -217.358192 
L 136.777904 -218.5112 
L 137.373528 -219.655802 
L 137.969151 -220.755606 
L 138.564775 -221.824004 
L 139.160399 -222.873447 
L 139.756022 -223.92574 
L 140.351646 -224.942683 
L 140.947269 -225.95296 
L 141.542893 -226.948941 
L 142.138516 -227.9039 
L 142.73414 -228.868974 
L 143.329763 -229.827283 
L 143.925387 -230.745812 
L 144.52101 -231.666999 
L 145.116634 -232.574323 
L 145.712258 -233.464655 
L 146.307881 -234.334114 
L 146.903505 -235.198887 
L 147.499128 -236.067578 
L 148.094752 -236.904565 
L 148.690375 -237.741436 
L 149.285999 -238.548757 
L 149.881622 -239.337533 
L 150.477246 -240.087201 
L 151.07287 -240.817182 
L 151.668493 -241.526083 
L 152.264117 -242.198857 
L 152.85974 -242.831738 
L 153.455364 -243.424361 
L 154.050987 -243.986253 
L 154.646611 -244.505248 
L 155.242234 -244.978819 
L 155.837858 -245.389355 
L 156.433482 -245.755202 
L 157.029105 -246.06929 
L 157.624729 -246.315399 
L 158.220352 -246.482878 
L 158.815976 -246.591684 
L 159.411599 -246.66139 
L 160.007223 -246.716207 
L 160.602846 -246.644469 
L 161.19847 -246.513995 
L 161.794094 -246.350295 
L 162.389717 -246.076067 
L 162.985341 -245.736794 
L 163.580964 -245.367432 
L 164.176588 -244.904598 
L 164.772211 -244.378804 
L 165.367835 -243.788954 
L 165.963458 -243.150176 
L 166.559082 -242.445049 
L 167.154706 -241.700779 
L 167.750329 -240.899729 
L 168.345953 -240.080643 
L 168.941576 -239.201387 
L 169.5372 -238.277564 
L 170.132823 -237.333132 
L 170.728447 -236.354887 
L 171.32407 -235.351649 
L 171.919694 -234.319519 
L 172.515318 -233.270865 
L 173.110941 -232.230864 
L 173.706565 -231.152198 
L 174.302188 -230.072015 
L 174.897812 -229.006829 
L 175.493435 -227.948385 
L 176.089059 -226.906612 
L 176.684682 -225.844382 
L 177.280306 -224.804977 
L 177.87593 -223.778452 
L 178.471553 -222.783488 
L 179.067177 -221.789299 
L 179.6628 -220.802893 
L 180.258424 -219.833486 
L 180.854047 -218.882686 
L 181.449671 -217.953558 
L 182.045294 -217.059957 
L 182.640918 -216.14722 
L 183.236542 -215.286267 
L 183.832165 -214.434967 
L 184.427789 -213.610577 
L 185.023412 -212.794451 
L 185.619036 -212.007384 
L 186.214659 -211.233392 
L 186.810283 -210.480162 
L 187.405906 -209.740245 
L 188.00153 -209.004938 
L 188.597154 -208.293903 
L 189.192777 -207.574902 
L 189.788401 -206.880777 
L 190.384024 -206.203731 
L 190.979648 -205.541156 
L 191.575271 -204.874039 
L 192.170895 -204.253819 
L 192.766518 -203.635828 
L 193.362142 -202.996059 
L 193.957766 -202.355547 
L 194.553389 -201.725562 
L 195.149013 -201.126182 
L 195.744636 -200.53023 
L 196.34026 -199.920099 
L 196.935883 -199.323683 
L 197.531507 -198.747184 
L 198.12713 -198.158151 
L 198.722754 -197.593541 
L 199.318378 -196.988809 
L 199.914001 -196.411224 
L 200.509625 -195.852288 
L 201.105248 -195.290997 
L 201.700872 -194.70004 
L 202.296495 -194.122267 
L 202.892119 -193.534845 
L 203.487742 -192.953723 
L 204.083366 -192.372317 
L 204.67899 -191.793326 
L 205.274613 -191.197103 
L 205.870237 -190.602148 
L 206.46586 -189.981162 
L 207.061484 -189.372587 
L 207.657107 -188.746956 
L 208.252731 -188.100245 
L 208.848354 -187.443992 
L 209.443978 -186.756997 
L 210.039601 -186.056958 
L 210.635225 -185.345738 
L 211.230849 -184.624296 
L 211.826472 -183.849614 
L 212.422096 -183.05562 
L 213.017719 -182.275447 
L 213.613343 -181.450691 
L 214.208966 -180.603643 
L 214.80459 -179.751346 
L 215.400213 -178.877394 
L 215.995837 -177.964748 
L 216.591461 -177.005116 
L 217.187084 -176.047453 
L 217.782708 -175.055661 
L 218.378331 -174.049284 
L 218.973955 -173.003567 
L 219.569578 -171.942298 
L 220.165202 -170.857825 
L 220.760825 -169.765078 
L 221.356449 -168.621916 
L 221.952073 -167.454825 
L 222.547696 -166.254707 
L 223.14332 -165.044769 
L 223.738943 -163.818576 
L 224.334567 -162.567388 
L 224.93019 -161.303427 
L 225.525814 -160.019566 
L 226.121437 -158.706836 
L 226.717061 -157.353038 
L 227.312685 -155.994576 
L 227.908308 -154.618106 
L 228.503932 -153.2071 
L 229.099555 -151.74892 
L 229.695179 -150.312073 
L 230.290802 -148.860354 
L 230.886426 -147.379413 
L 231.482049 -145.906249 
L 232.077673 -144.407572 
L 232.673297 -142.897394 
L 233.26892 -141.379694 
L 233.864544 -139.860018 
L 234.460167 -138.323805 
L 235.055791 -136.786392 
L 235.651414 -135.236415 
L 236.247038 -133.679501 
L 236.842661 -132.105263 
L 237.438285 -130.537173 
L 238.033909 -128.986193 
L 238.629532 -127.445402 
L 239.225156 -125.904153 
L 239.820779 -124.359466 
L 240.416403 -122.833223 
L 241.012026 -121.326102 
L 241.60765 -119.835221 
L 242.203273 -118.366685 
L 242.798897 -116.915124 
L 243.394521 -115.462128 
L 243.990144 -114.03998 
L 244.585768 -112.626629 
L 245.181391 -111.240501 
L 245.777015 -109.881701 
L 246.372638 -108.554486 
L 246.968262 -107.237326 
L 247.563885 -105.954125 
L 248.159509 -104.688426 
L 248.755133 -103.459575 
L 249.350756 -102.269358 
L 249.94638 -101.106295 
L 250.542003 -99.966708 
L 251.137627 -98.841176 
L 251.73325 -97.742047 
L 252.328874 -96.662013 
L 252.924497 -95.607057 
L 253.520121 -94.566628 
L 254.115745 -93.562478 
L 254.711368 -92.569608 
L 255.306992 -91.588369 
L 255.902615 -90.622011 
L 256.498239 -89.676236 
L 257.093862 -88.763035 
L 257.689486 -87.845225 
L 258.285109 -86.948851 
L 258.880733 -86.070181 
L 259.476357 -85.195836 
L 260.07198 -84.344235 
L 260.667604 -83.507199 
L 261.263227 -82.656268 
L 261.858851 -81.835323 
L 262.454474 -81.028978 
L 263.050098 -80.239699 
L 263.645721 -79.463447 
L 264.241345 -78.693789 
L 264.836969 -77.925376 
L 265.432592 -77.172271 
L 266.028216 -76.424818 
L 266.623839 -75.69092 
L 267.219463 -74.986637 
L 267.815086 -74.291165 
L 268.41071 -73.601875 
L 269.006333 -72.931938 
L 269.601957 -72.255983 
L 270.197581 -71.614881 
L 270.793204 -70.984046 
L 271.388828 -70.373008 
L 271.984451 -69.774862 
L 272.580075 -69.186856 
L 273.175698 -68.603575 
L 273.771322 -68.042583 
L 274.366945 -67.502757 
L 274.962569 -66.973851 
L 275.558192 -66.466257 
L 276.153816 -65.962986 
L 276.74944 -65.480422 
L 277.345063 -65.011789 
L 277.940687 -64.544685 
L 278.53631 -64.108122 
L 279.131934 -63.68073 
L 279.727557 -63.266012 
L 280.323181 -62.863791 
L 280.918804 -62.47695 
L 281.514428 -62.104785 
L 282.110052 -61.737408 
L 282.705675 -61.384945 
L 283.301299 -61.034319 
L 283.896922 -60.692978 
L 284.492546 -60.373332 
L 285.088169 -60.064793 
L 285.683793 -59.776986 
L 286.279416 -59.489222 
L 286.87504 -59.209197 
L 287.470664 -58.946485 
L 288.066287 -58.693156 
L 288.661911 -58.449147 
L 289.257534 -58.214384 
L 289.853158 -57.973376 
L 290.448781 -57.759288 
L 291.044405 -57.553795 
L 291.640028 -57.360466 
L 292.235652 -57.172553 
L 292.831276 -56.987425 
L 293.426899 -56.815744 
L 294.022523 -56.653087 
L 294.618146 -56.49925 
L 295.21377 -56.35402 
L 295.809393 -56.222769 
L 296.405017 -56.098114 
L 297.00064 -55.973776 
L 297.596264 -55.853665 
L 298.191888 -55.747185 
L 298.787511 -55.649867 
L 299.383135 -55.558441 
L 299.978758 -55.469627 
L 300.574382 -55.389861 
L 301.170005 -55.315851 
L 301.765629 -55.234497 
L 302.361252 -55.171635 
L 302.956876 -55.109401 
L 303.5525 -55.051191 
L 304.148123 -54.996752 
L 304.743747 -54.94584 
L 305.33937 -54.901304 
L 305.934994 -54.859351 
L 306.530617 -54.816763 
L 307.126241 -54.776977 
L 307.721864 -54.742874 
L 308.317488 -54.704533 
L 308.913112 -54.678811 
L 309.508735 -54.6486 
L 310.104359 -54.623566 
L 310.699982 -54.603651 
L 311.295606 -54.57656 
L 311.891229 -54.558638 
L 312.486853 -54.545643 
L 313.082476 -54.530909 
L 313.6781 -54.517495 
L 314.273724 -54.505365 
L 314.869347 -54.494472 
L 315.464971 -54.478594 
L 316.060594 -54.471531 
L 316.656218 -54.462839 
L 317.251841 -54.455453 
L 317.847465 -54.452304 
L 318.443088 -54.447149 
L 319.038712 -54.450209 
L 319.634336 -54.448029 
L 320.229959 -54.450273 
L 320.825583 -54.452653 
L 321.421206 -54.455097 
L 322.01683 -54.457523 
L 322.612453 -54.459843 
L 323.208077 -54.461965 
L 323.8037 -54.463798 
L 324.399324 -54.46525 
L 324.994948 -54.466236 
L 325.590571 -54.466674 
L 326.186195 -54.460326 
L 326.781818 -54.460434 
L 326.781818 -49.04348 
L 326.781818 -49.04348 
L 326.186195 -49.04348 
L 325.590571 -49.04348 
L 324.994948 -49.04348 
L 324.399324 -49.04348 
L 323.8037 -49.04348 
L 323.208077 -49.04348 
L 322.612453 -49.04348 
L 322.01683 -49.04348 
L 321.421206 -49.04348 
L 320.825583 -49.04348 
L 320.229959 -49.04348 
L 319.634336 -49.04348 
L 319.038712 -49.04348 
L 318.443088 -49.04348 
L 317.847465 -49.04348 
L 317.251841 -49.04348 
L 316.656218 -49.04348 
L 316.060594 -49.04348 
L 315.464971 -49.04348 
L 314.869347 -49.04348 
L 314.273724 -49.04348 
L 313.6781 -49.04348 
L 313.082476 -49.04348 
L 312.486853 -49.04348 
L 311.891229 -49.04348 
L 311.295606 -49.04348 
L 310.699982 -49.04348 
L 310.104359 -49.04348 
L 309.508735 -49.04348 
L 308.913112 -49.04348 
L 308.317488 -49.04348 
L 307.721864 -49.04348 
L 307.126241 -49.04348 
L 306.530617 -49.04348 
L 305.934994 -49.04348 
L 305.33937 -49.04348 
L 304.743747 -49.04348 
L 304.148123 -49.04348 
L 303.5525 -49.04348 
L 302.956876 -49.04348 
L 302.361252 -49.04348 
L 301.765629 -49.04348 
L 301.170005 -49.04348 
L 300.574382 -49.04348 
L 299.978758 -49.04348 
L 299.383135 -49.04348 
L 298.787511 -49.04348 
L 298.191888 -49.04348 
L 297.596264 -49.04348 
L 297.00064 -49.04348 
L 296.405017 -49.04348 
L 295.809393 -49.04348 
L 295.21377 -49.04348 
L 294.618146 -49.04348 
L 294.022523 -49.04348 
L 293.426899 -49.04348 
L 292.831276 -49.04348 
L 292.235652 -49.04348 
L 291.640028 -49.04348 
L 291.044405 -49.04348 
L 290.448781 -49.04348 
L 289.853158 -49.04348 
L 289.257534 -49.04348 
L 288.661911 -49.04348 
L 288.066287 -49.04348 
L 287.470664 -49.04348 
L 286.87504 -49.04348 
L 286.279416 -49.04348 
L 285.683793 -49.04348 
L 285.088169 -49.04348 
L 284.492546 -49.04348 
L 283.896922 -49.04348 
L 283.301299 -49.04348 
L 282.705675 -49.04348 
L 282.110052 -49.04348 
L 281.514428 -49.04348 
L 280.918804 -49.04348 
L 280.323181 -49.04348 
L 279.727557 -49.04348 
L 279.131934 -49.04348 
L 278.53631 -49.04348 
L 277.940687 -49.04348 
L 277.345063 -49.04348 
L 276.74944 -49.04348 
L 276.153816 -49.04348 
L 275.558192 -49.04348 
L 274.962569 -49.04348 
L 274.366945 -49.04348 
L 273.771322 -49.04348 
L 273.175698 -49.04348 
L 272.580075 -49.04348 
L 271.984451 -49.04348 
L 271.388828 -49.04348 
L 270.793204 -49.04348 
L 270.197581 -49.04348 
L 269.601957 -49.04348 
L 269.006333 -49.04348 
L 268.41071 -49.04348 
L 267.815086 -49.04348 
L 267.219463 -49.04348 
L 266.623839 -49.04348 
L 266.028216 -49.04348 
L 265.432592 -49.04348 
L 264.836969 -49.04348 
L 264.241345 -49.04348 
L 263.645721 -49.04348 
L 263.050098 -49.04348 
L 262.454474 -49.04348 
L 261.858851 -49.04348 
L 261.263227 -49.04348 
L 260.667604 -49.04348 
L 260.07198 -49.04348 
L 259.476357 -49.04348 
L 258.880733 -49.04348 
L 258.285109 -49.04348 
L 257.689486 -49.04348 
L 257.093862 -49.04348 
L 256.498239 -49.04348 
L 255.902615 -49.04348 
L 255.306992 -49.04348 
L 254.711368 -49.04348 
L 254.115745 -49.04348 
L 253.520121 -49.04348 
L 252.924497 -49.04348 
L 252.328874 -49.04348 
L 251.73325 -49.04348 
L 251.137627 -49.04348 
L 250.542003 -49.04348 
L 249.94638 -49.04348 
L 249.350756 -49.04348 
L 248.755133 -49.04348 
L 248.159509 -49.04348 
L 247.563885 -49.04348 
L 246.968262 -49.04348 
L 246.372638 -49.04348 
L 245.777015 -49.04348 
L 245.181391 -49.04348 
L 244.585768 -49.04348 
L 243.990144 -49.04348 
L 243.394521 -49.04348 
L 242.798897 -49.04348 
L 242.203273 -49.04348 
L 241.60765 -49.04348 
L 241.012026 -49.04348 
L 240.416403 -49.04348 
L 239.820779 -49.04348 
L 239.225156 -49.04348 
L 238.629532 -49.04348 
L 238.033909 -49.04348 
L 237.438285 -49.04348 
L 236.842661 -49.04348 
L 236.247038 -49.04348 
L 235.651414 -49.04348 
L 235.055791 -49.04348 
L 234.460167 -49.04348 
L 233.864544 -49.04348 
L 233.26892 -49.04348 
L 232.673297 -49.04348 
L 232.077673 -49.04348 
L 231.482049 -49.04348 
L 230.886426 -49.04348 
L 230.290802 -49.04348 
L 229.695179 -49.04348 
L 229.099555 -49.04348 
L 228.503932 -49.04348 
L 227.908308 -49.04348 
L 227.312685 -49.04348 
L 226.717061 -49.04348 
L 226.121437 -49.04348 
L 225.525814 -49.04348 
L 224.93019 -49.04348 
L 224.334567 -49.04348 
L 223.738943 -49.04348 
L 223.14332 -49.04348 
L 222.547696 -49.04348 
L 221.952073 -49.04348 
L 221.356449 -49.04348 
L 220.760825 -49.04348 
L 220.165202 -49.04348 
L 219.569578 -49.04348 
L 218.973955 -49.04348 
L 218.378331 -49.04348 
L 217.782708 -49.04348 
L 217.187084 -49.04348 
L 216.591461 -49.04348 
L 215.995837 -49.04348 
L 215.400213 -49.04348 
L 214.80459 -49.04348 
L 214.208966 -49.04348 
L 213.613343 -49.04348 
L 213.017719 -49.04348 
L 212.422096 -49.04348 
L 211.826472 -49.04348 
L 211.230849 -49.04348 
L 210.635225 -49.04348 
L 210.039601 -49.04348 
L 209.443978 -49.04348 
L 208.848354 -49.04348 
L 208.252731 -49.04348 
L 207.657107 -49.04348 
L 207.061484 -49.04348 
L 206.46586 -49.04348 
L 205.870237 -49.04348 
L 205.274613 -49.04348 
L 204.67899 -49.04348 
L 204.083366 -49.04348 
L 203.487742 -49.04348 
L 202.892119 -49.04348 
L 202.296495 -49.04348 
L 201.700872 -49.04348 
L 201.105248 -49.04348 
L 200.509625 -49.04348 
L 199.914001 -49.04348 
L 199.318378 -49.04348 
L 198.722754 -49.04348 
L 198.12713 -49.04348 
L 197.531507 -49.04348 
L 196.935883 -49.04348 
L 196.34026 -49.04348 
L 195.744636 -49.04348 
L 195.149013 -49.04348 
L 194.553389 -49.04348 
L 193.957766 -49.04348 
L 193.362142 -49.04348 
L 192.766518 -49.04348 
L 192.170895 -49.04348 
L 191.575271 -49.04348 
L 190.979648 -49.04348 
L 190.384024 -49.04348 
L 189.788401 -49.04348 
L 189.192777 -49.04348 
L 188.597154 -49.04348 
L 188.00153 -49.04348 
L 187.405906 -49.04348 
L 186.810283 -49.04348 
L 186.214659 -49.04348 
L 185.619036 -49.04348 
L 185.023412 -49.04348 
L 184.427789 -49.04348 
L 183.832165 -49.04348 
L 183.236542 -49.04348 
L 182.640918 -49.04348 
L 182.045294 -49.04348 
L 181.449671 -49.04348 
L 180.854047 -49.04348 
L 180.258424 -49.04348 
L 179.6628 -49.04348 
L 179.067177 -49.04348 
L 178.471553 -49.04348 
L 177.87593 -49.04348 
L 177.280306 -49.04348 
L 176.684682 -49.04348 
L 176.089059 -49.04348 
L 175.493435 -49.04348 
L 174.897812 -49.04348 
L 174.302188 -49.04348 
L 173.706565 -49.04348 
L 173.110941 -49.04348 
L 172.515318 -49.04348 
L 171.919694 -49.04348 
L 171.32407 -49.04348 
L 170.728447 -49.04348 
L 170.132823 -49.04348 
L 169.5372 -49.04348 
L 168.941576 -49.04348 
L 168.345953 -49.04348 
L 167.750329 -49.04348 
L 167.154706 -49.04348 
L 166.559082 -49.04348 
L 165.963458 -49.04348 
L 165.367835 -49.04348 
L 164.772211 -49.04348 
L 164.176588 -49.04348 
L 163.580964 -49.04348 
L 162.985341 -49.04348 
L 162.389717 -49.04348 
L 161.794094 -49.04348 
L 161.19847 -49.04348 
L 160.602846 -49.04348 
L 160.007223 -49.04348 
L 159.411599 -49.04348 
L 158.815976 -49.04348 
L 158.220352 -49.04348 
L 157.624729 -49.04348 
L 157.029105 -49.04348 
L 156.433482 -49.04348 
L 155.837858 -49.04348 
L 155.242234 -49.04348 
L 154.646611 -49.04348 
L 154.050987 -49.04348 
L 153.455364 -49.04348 
L 152.85974 -49.04348 
L 152.264117 -49.04348 
L 151.668493 -49.04348 
L 151.07287 -49.04348 
L 150.477246 -49.04348 
L 149.881622 -49.04348 
L 149.285999 -49.04348 
L 148.690375 -49.04348 
L 148.094752 -49.04348 
L 147.499128 -49.04348 
L 146.903505 -49.04348 
L 146.307881 -49.04348 
L 145.712258 -49.04348 
L 145.116634 -49.04348 
L 144.52101 -49.04348 
L 143.925387 -49.04348 
L 143.329763 -49.04348 
L 142.73414 -49.04348 
L 142.138516 -49.04348 
L 141.542893 -49.04348 
L 140.947269 -49.04348 
L 140.351646 -49.04348 
L 139.756022 -49.04348 
L 139.160399 -49.04348 
L 138.564775 -49.04348 
L 137.969151 -49.04348 
L 137.373528 -49.04348 
L 136.777904 -49.04348 
L 136.182281 -49.04348 
L 135.586657 -49.04348 
L 134.991034 -49.04348 
L 134.39541 -49.04348 
L 133.799787 -49.04348 
L 133.204163 -49.04348 
L 132.608539 -49.04348 
L 132.012916 -49.04348 
L 131.417292 -49.04348 
L 130.821669 -49.04348 
L 130.226045 -49.04348 
L 129.630422 -49.04348 
L 129.034798 -49.04348 
L 128.439175 -49.04348 
L 127.843551 -49.04348 
L 127.247927 -49.04348 
L 126.652304 -49.04348 
L 126.05668 -49.04348 
L 125.461057 -49.04348 
L 124.865433 -49.04348 
L 124.26981 -49.04348 
L 123.674186 -49.04348 
L 123.078563 -49.04348 
L 122.482939 -49.04348 
L 121.887315 -49.04348 
L 121.291692 -49.04348 
L 120.696068 -49.04348 
L 120.100445 -49.04348 
L 119.504821 -49.04348 
L 118.909198 -49.04348 
L 118.313574 -49.04348 
L 117.717951 -49.04348 
L 117.122327 -49.04348 
L 116.526703 -49.04348 
L 115.93108 -49.04348 
L 115.335456 -49.04348 
L 114.739833 -49.04348 
L 114.144209 -49.04348 
L 113.548586 -49.04348 
L 112.952962 -49.04348 
L 112.357339 -49.04348 
L 111.761715 -49.04348 
L 111.166091 -49.04348 
L 110.570468 -49.04348 
L 109.974844 -49.04348 
L 109.379221 -49.04348 
L 108.783597 -49.04348 
L 108.187974 -49.04348 
L 107.59235 -49.04348 
L 106.996727 -49.04348 
L 106.401103 -49.04348 
L 105.805479 -49.04348 
L 105.209856 -49.04348 
L 104.614232 -49.04348 
L 104.018609 -49.04348 
L 103.422985 -49.04348 
L 102.827362 -49.04348 
L 102.231738 -49.04348 
L 101.636115 -49.04348 
L 101.040491 -49.04348 
L 100.444867 -49.04348 
L 99.849244 -49.04348 
L 99.25362 -49.04348 
L 98.657997 -49.04348 
L 98.062373 -49.04348 
L 97.46675 -49.04348 
L 96.871126 -49.04348 
L 96.275503 -49.04348 
L 95.679879 -49.04348 
L 95.084255 -49.04348 
L 94.488632 -49.04348 
L 93.893008 -49.04348 
L 93.297385 -49.04348 
L 92.701761 -49.04348 
L 92.106138 -49.04348 
L 91.510514 -49.04348 
L 90.914891 -49.04348 
L 90.319267 -49.04348 
L 89.723643 -49.04348 
L 89.12802 -49.04348 
L 88.532396 -49.04348 
L 87.936773 -49.04348 
L 87.341149 -49.04348 
L 86.745526 -49.04348 
L 86.149902 -49.04348 
L 85.554279 -49.04348 
L 84.958655 -49.04348 
L 84.363031 -49.04348 
L 83.767408 -49.04348 
L 83.171784 -49.04348 
L 82.576161 -49.04348 
L 81.980537 -49.04348 
L 81.384914 -49.04348 
L 80.78929 -49.04348 
L 80.193667 -49.04348 
L 79.598043 -49.04348 
L 79.002419 -49.04348 
L 78.406796 -49.04348 
L 77.811172 -49.04348 
L 77.215549 -49.04348 
L 76.619925 -49.04348 
L 76.024302 -49.04348 
L 75.428678 -49.04348 
L 74.833055 -49.04348 
L 74.237431 -49.04348 
L 73.641808 -49.04348 
L 73.046184 -49.04348 
L 72.45056 -49.04348 
L 71.854937 -49.04348 
L 71.259313 -49.04348 
L 70.66369 -49.04348 
L 70.068066 -49.04348 
L 69.472443 -49.04348 
L 68.876819 -49.04348 
L 68.281196 -49.04348 
L 67.685572 -49.04348 
L 67.089948 -49.04348 
L 66.494325 -49.04348 
L 65.898701 -49.04348 
L 65.303078 -49.04348 
L 64.707454 -49.04348 
L 64.111831 -49.04348 
L 63.516207 -49.04348 
L 62.920584 -49.04348 
L 62.32496 -49.04348 
L 61.729336 -49.04348 
L 61.133713 -49.04348 
L 60.538089 -49.04348 
L 59.942466 -49.04348 
L 59.346842 -49.04348 
L 58.751219 -49.04348 
L 58.155595 -49.04348 
L 57.559972 -49.04348 
L 56.964348 -49.04348 
L 56.368724 -49.04348 
L 55.773101 -49.04348 
L 55.177477 -49.04348 
L 54.581854 -49.04348 
L 53.98623 -49.04348 
L 53.390607 -49.04348 
L 52.794983 -49.04348 
L 52.19936 -49.04348 
L 51.603736 -49.04348 
L 51.008112 -49.04348 
L 50.412489 -49.04348 
L 49.816865 -49.04348 
L 49.221242 -49.04348 
L 48.625618 -49.04348 
L 48.029995 -49.04348 
L 47.434371 -49.04348 
L 46.838748 -49.04348 
L 46.243124 -49.04348 
L 45.6475 -49.04348 
L 45.051877 -49.04348 
L 44.456253 -49.04348 
L 43.86063 -49.04348 
L 43.265006 -49.04348 
L 42.669383 -49.04348 
L 42.073759 -49.04348 
L 41.478136 -49.04348 
L 40.882512 -49.04348 
L 40.286888 -49.04348 
L 39.691265 -49.04348 
L 39.095641 -49.04348 
L 38.500018 -49.04348 
L 37.904394 -49.04348 
L 37.308771 -49.04348 
L 36.713147 -49.04348 
L 36.117524 -49.04348 
L 35.5219 -49.04348 
L 34.926276 -49.04348 
L 34.330653 -49.04348 
L 33.735029 -49.04348 
L 33.139406 -49.04348 
L 32.543782 -49.04348 
L 31.948159 -49.04348 
L 31.352535 -49.04348 
L 30.756912 -49.04348 
L 30.161288 -49.04348 
L 29.565664 -49.04348 
L 28.970041 -49.04348 
L 28.374417 -49.04348 
L 27.778794 -49.04348 
L 27.18317 -49.04348 
L 26.587547 -49.04348 
L 25.991923 -49.04348 
L 25.3963 -49.04348 
L 24.800676 -49.04348 
L 24.205052 -49.04348 
L 23.609429 -49.04348 
L 23.013805 -49.04348 
L 22.418182 -49.04348 
z
" id="m58b447674a" style="stroke:#0173b2;stroke-opacity:0;"/>
    </defs>
    <g clip-path="url(#pdc8d1991b0)">
     <use style="fill:#0173b2;fill-opacity:0;stroke:#0173b2;stroke-opacity:0;" x="0" xlink:href="#m58b447674a" y="263.799844"/>
    </g>
   </g>
   <g id="line2d_6">
    <path clip-path="url(#pdc8d1991b0)" d="M 22.418182 206.28146 
L 24.800676 206.135797 
L 27.18317 205.671704 
L 29.565664 204.951358 
L 31.948159 203.975182 
L 34.926276 202.494968 
L 39.095641 200.002111 
L 44.456253 196.452468 
L 48.625618 193.391908 
L 52.794983 190.053478 
L 55.773101 187.371001 
L 58.751219 184.332499 
L 61.133713 181.554929 
L 64.111831 177.687366 
L 67.089948 173.42042 
L 71.259313 166.937038 
L 89.12802 138.375859 
L 93.893008 131.200459 
L 99.25362 123.704105 
L 106.401103 113.872809 
L 108.783597 110.222012 
L 110.570468 107.197484 
L 112.952962 102.735011 
L 115.93108 96.36242 
L 118.313574 90.748981 
L 121.291692 83.048374 
L 130.226045 59.599644 
L 133.204163 52.670344 
L 135.586657 47.624211 
L 137.969151 43.044238 
L 141.542893 36.850903 
L 145.712258 30.335189 
L 149.285999 25.251087 
L 151.668493 22.273761 
L 153.455364 20.375483 
L 155.242234 18.821025 
L 156.433482 18.044642 
L 157.624729 17.484445 
L 158.815976 17.20816 
L 160.007223 17.083636 
L 161.19847 17.285848 
L 162.389717 17.723777 
L 163.580964 18.432411 
L 164.772211 19.42104 
L 165.963458 20.649668 
L 167.750329 22.900114 
L 169.5372 25.52228 
L 171.919694 29.480325 
L 180.258424 43.966357 
L 183.236542 48.513577 
L 185.619036 51.79246 
L 188.597154 55.505941 
L 190.979648 58.258688 
L 193.957766 61.444297 
L 196.935883 64.476161 
L 207.061484 74.427257 
L 209.443978 77.042847 
L 211.826472 79.95023 
L 214.80459 84.048498 
L 216.591461 86.794728 
L 218.973955 90.796277 
L 221.356449 95.177928 
L 224.334567 101.232455 
L 227.312685 107.805268 
L 230.290802 114.939489 
L 235.651414 128.563429 
L 242.203273 145.433159 
L 245.777015 153.918142 
L 248.755133 160.340269 
L 251.73325 166.057797 
L 254.711368 171.230235 
L 257.689486 175.954618 
L 261.263227 181.143575 
L 264.241345 185.106054 
L 267.219463 188.813207 
L 270.793204 192.815798 
L 273.771322 195.75726 
L 276.74944 198.319422 
L 279.727557 200.533832 
L 282.705675 202.414899 
L 285.088169 203.735051 
L 288.661911 205.350697 
L 291.640028 206.439377 
L 294.618146 207.300594 
L 297.596264 207.946179 
L 301.170005 208.483992 
L 304.148123 208.803092 
L 309.508735 209.151244 
L 316.060594 209.328313 
L 323.8037 209.336046 
L 326.781818 209.33941 
L 326.781818 209.33941 
" style="fill:none;stroke:#0173b2;stroke-linecap:round;stroke-width:1.5;"/>
   </g>
   <g id="line2d_7">
    <path clip-path="url(#pdc8d1991b0)" d="M 122.27179 210.605236 
L 226.768647 210.605236 
" style="fill:none;stroke:#000000;stroke-width:3;"/>
   </g>
   <g id="patch_3">
    <path d="M 7.2 224.64 
L 342 224.64 
" style="fill:none;stroke:#808080;stroke-linecap:square;stroke-linejoin:miter;stroke-width:1.25;"/>
   </g>
   <g id="text_7">
    <!-- 2.207  -->
    <g style="fill:#262626;" transform="translate(88.91179 200.227418)scale(0.12 -0.12)">
     <defs>
      <path d="M 266 2259 
Q 266 3072 433 3567 
Q 600 4063 929 4331 
Q 1259 4600 1759 4600 
Q 2128 4600 2406 4451 
Q 2684 4303 2865 4023 
Q 3047 3744 3150 3342 
Q 3253 2941 3253 2259 
Q 3253 1453 3087 958 
Q 2922 463 2592 192 
Q 2263 -78 1759 -78 
Q 1097 -78 719 397 
Q 266 969 266 2259 
z
M 844 2259 
Q 844 1131 1108 757 
Q 1372 384 1759 384 
Q 2147 384 2411 759 
Q 2675 1134 2675 2259 
Q 2675 3391 2411 3762 
Q 2147 4134 1753 4134 
Q 1366 4134 1134 3806 
Q 844 3388 844 2259 
z
" id="ArialMT-30" transform="scale(0.015625)"/>
      <path d="M 303 3981 
L 303 4522 
L 3269 4522 
L 3269 4084 
Q 2831 3619 2401 2847 
Q 1972 2075 1738 1259 
Q 1569 684 1522 0 
L 944 0 
Q 953 541 1156 1306 
Q 1359 2072 1739 2783 
Q 2119 3494 2547 3981 
L 303 3981 
z
" id="ArialMT-37" transform="scale(0.015625)"/>
     </defs>
     <use xlink:href="#ArialMT-32"/>
     <use x="55.615234" xlink:href="#ArialMT-2e"/>
     <use x="83.398438" xlink:href="#ArialMT-32"/>
     <use x="139.013672" xlink:href="#ArialMT-30"/>
     <use x="194.628906" xlink:href="#ArialMT-37"/>
     <use x="250.244141" xlink:href="#ArialMT-20"/>
    </g>
   </g>
   <g id="text_8">
    <!--  2.373 -->
    <g style="fill:#262626;" transform="translate(226.768647 200.227418)scale(0.12 -0.12)">
     <use xlink:href="#ArialMT-20"/>
     <use x="27.783203" xlink:href="#ArialMT-32"/>
     <use x="83.398438" xlink:href="#ArialMT-2e"/>
     <use x="111.181641" xlink:href="#ArialMT-33"/>
     <use x="166.796875" xlink:href="#ArialMT-37"/>
     <use x="222.412109" xlink:href="#ArialMT-33"/>
    </g>
   </g>
   <g id="text_9">
    <!-- 68% HDI -->
    <g style="fill:#262626;" transform="translate(150.511781 152.489455)scale(0.12 -0.12)">
     <defs>
      <path d="M 3184 3459 
L 2625 3416 
Q 2550 3747 2413 3897 
Q 2184 4138 1850 4138 
Q 1581 4138 1378 3988 
Q 1113 3794 959 3422 
Q 806 3050 800 2363 
Q 1003 2672 1297 2822 
Q 1591 2972 1913 2972 
Q 2475 2972 2870 2558 
Q 3266 2144 3266 1488 
Q 3266 1056 3080 686 
Q 2894 316 2569 119 
Q 2244 -78 1831 -78 
Q 1128 -78 684 439 
Q 241 956 241 2144 
Q 241 3472 731 4075 
Q 1159 4600 1884 4600 
Q 2425 4600 2770 4297 
Q 3116 3994 3184 3459 
z
M 888 1484 
Q 888 1194 1011 928 
Q 1134 663 1356 523 
Q 1578 384 1822 384 
Q 2178 384 2434 671 
Q 2691 959 2691 1453 
Q 2691 1928 2437 2201 
Q 2184 2475 1800 2475 
Q 1419 2475 1153 2201 
Q 888 1928 888 1484 
z
" id="ArialMT-36" transform="scale(0.015625)"/>
      <path d="M 1131 2484 
Q 781 2613 612 2850 
Q 444 3088 444 3419 
Q 444 3919 803 4259 
Q 1163 4600 1759 4600 
Q 2359 4600 2725 4251 
Q 3091 3903 3091 3403 
Q 3091 3084 2923 2848 
Q 2756 2613 2416 2484 
Q 2838 2347 3058 2040 
Q 3278 1734 3278 1309 
Q 3278 722 2862 322 
Q 2447 -78 1769 -78 
Q 1091 -78 675 323 
Q 259 725 259 1325 
Q 259 1772 486 2073 
Q 713 2375 1131 2484 
z
M 1019 3438 
Q 1019 3113 1228 2906 
Q 1438 2700 1772 2700 
Q 2097 2700 2305 2904 
Q 2513 3109 2513 3406 
Q 2513 3716 2298 3927 
Q 2084 4138 1766 4138 
Q 1444 4138 1231 3931 
Q 1019 3725 1019 3438 
z
M 838 1322 
Q 838 1081 952 856 
Q 1066 631 1291 507 
Q 1516 384 1775 384 
Q 2178 384 2440 643 
Q 2703 903 2703 1303 
Q 2703 1709 2433 1975 
Q 2163 2241 1756 2241 
Q 1359 2241 1098 1978 
Q 838 1716 838 1322 
z
" id="ArialMT-38" transform="scale(0.015625)"/>
      <path d="M 372 3481 
Q 372 3972 619 4315 
Q 866 4659 1334 4659 
Q 1766 4659 2048 4351 
Q 2331 4044 2331 3447 
Q 2331 2866 2045 2552 
Q 1759 2238 1341 2238 
Q 925 2238 648 2547 
Q 372 2856 372 3481 
z
M 1350 4272 
Q 1141 4272 1002 4090 
Q 863 3909 863 3425 
Q 863 2984 1003 2804 
Q 1144 2625 1350 2625 
Q 1563 2625 1702 2806 
Q 1841 2988 1841 3469 
Q 1841 3913 1700 4092 
Q 1559 4272 1350 4272 
z
M 1353 -169 
L 3859 4659 
L 4316 4659 
L 1819 -169 
L 1353 -169 
z
M 3334 1075 
Q 3334 1569 3581 1911 
Q 3828 2253 4300 2253 
Q 4731 2253 5014 1945 
Q 5297 1638 5297 1041 
Q 5297 459 5011 145 
Q 4725 -169 4303 -169 
Q 3888 -169 3611 142 
Q 3334 453 3334 1075 
z
M 4316 1866 
Q 4103 1866 3964 1684 
Q 3825 1503 3825 1019 
Q 3825 581 3965 400 
Q 4106 219 4313 219 
Q 4528 219 4667 400 
Q 4806 581 4806 1063 
Q 4806 1506 4665 1686 
Q 4525 1866 4316 1866 
z
" id="ArialMT-25" transform="scale(0.015625)"/>
      <path d="M 513 0 
L 513 4581 
L 1119 4581 
L 1119 2700 
L 3500 2700 
L 3500 4581 
L 4106 4581 
L 4106 0 
L 3500 0 
L 3500 2159 
L 1119 2159 
L 1119 0 
L 513 0 
z
" id="ArialMT-48" transform="scale(0.015625)"/>
      <path d="M 494 0 
L 494 4581 
L 2072 4581 
Q 2606 4581 2888 4516 
Q 3281 4425 3559 4188 
Q 3922 3881 4101 3404 
Q 4281 2928 4281 2316 
Q 4281 1794 4159 1391 
Q 4038 988 3847 723 
Q 3656 459 3429 307 
Q 3203 156 2883 78 
Q 2563 0 2147 0 
L 494 0 
z
M 1100 541 
L 2078 541 
Q 2531 541 2789 625 
Q 3047 709 3200 863 
Q 3416 1078 3536 1442 
Q 3656 1806 3656 2325 
Q 3656 3044 3420 3430 
Q 3184 3816 2847 3947 
Q 2603 4041 2063 4041 
L 1100 4041 
L 1100 541 
z
" id="ArialMT-44" transform="scale(0.015625)"/>
      <path d="M 597 0 
L 597 4581 
L 1203 4581 
L 1203 0 
L 597 0 
z
" id="ArialMT-49" transform="scale(0.015625)"/>
     </defs>
     <use xlink:href="#ArialMT-36"/>
     <use x="55.615234" xlink:href="#ArialMT-38"/>
     <use x="111.230469" xlink:href="#ArialMT-25"/>
     <use x="200.146484" xlink:href="#ArialMT-20"/>
     <use x="227.929688" xlink:href="#ArialMT-48"/>
     <use x="300.146484" xlink:href="#ArialMT-44"/>
     <use x="372.363281" xlink:href="#ArialMT-49"/>
    </g>
   </g>
   <g id="text_10">
    <!-- median=2.271 -->
    <g style="fill:#262626;" transform="translate(124.71604 48.711273)scale(0.12 -0.12)">
     <defs>
      <path d="M 422 0 
L 422 3319 
L 925 3319 
L 925 2853 
Q 1081 3097 1340 3245 
Q 1600 3394 1931 3394 
Q 2300 3394 2536 3241 
Q 2772 3088 2869 2813 
Q 3263 3394 3894 3394 
Q 4388 3394 4653 3120 
Q 4919 2847 4919 2278 
L 4919 0 
L 4359 0 
L 4359 2091 
Q 4359 2428 4304 2576 
Q 4250 2725 4106 2815 
Q 3963 2906 3769 2906 
Q 3419 2906 3187 2673 
Q 2956 2441 2956 1928 
L 2956 0 
L 2394 0 
L 2394 2156 
Q 2394 2531 2256 2718 
Q 2119 2906 1806 2906 
Q 1569 2906 1367 2781 
Q 1166 2656 1075 2415 
Q 984 2175 984 1722 
L 984 0 
L 422 0 
z
" id="ArialMT-6d" transform="scale(0.015625)"/>
      <path d="M 2694 1069 
L 3275 997 
Q 3138 488 2766 206 
Q 2394 -75 1816 -75 
Q 1088 -75 661 373 
Q 234 822 234 1631 
Q 234 2469 665 2931 
Q 1097 3394 1784 3394 
Q 2450 3394 2872 2941 
Q 3294 2488 3294 1666 
Q 3294 1616 3291 1516 
L 816 1516 
Q 847 969 1125 678 
Q 1403 388 1819 388 
Q 2128 388 2347 550 
Q 2566 713 2694 1069 
z
M 847 1978 
L 2700 1978 
Q 2663 2397 2488 2606 
Q 2219 2931 1791 2931 
Q 1403 2931 1139 2672 
Q 875 2413 847 1978 
z
" id="ArialMT-65" transform="scale(0.015625)"/>
      <path d="M 2575 0 
L 2575 419 
Q 2259 -75 1647 -75 
Q 1250 -75 917 144 
Q 584 363 401 755 
Q 219 1147 219 1656 
Q 219 2153 384 2558 
Q 550 2963 881 3178 
Q 1213 3394 1622 3394 
Q 1922 3394 2156 3267 
Q 2391 3141 2538 2938 
L 2538 4581 
L 3097 4581 
L 3097 0 
L 2575 0 
z
M 797 1656 
Q 797 1019 1065 703 
Q 1334 388 1700 388 
Q 2069 388 2326 689 
Q 2584 991 2584 1609 
Q 2584 2291 2321 2609 
Q 2059 2928 1675 2928 
Q 1300 2928 1048 2622 
Q 797 2316 797 1656 
z
" id="ArialMT-64" transform="scale(0.015625)"/>
      <path d="M 425 3934 
L 425 4581 
L 988 4581 
L 988 3934 
L 425 3934 
z
M 425 0 
L 425 3319 
L 988 3319 
L 988 0 
L 425 0 
z
" id="ArialMT-69" transform="scale(0.015625)"/>
      <path d="M 2588 409 
Q 2275 144 1986 34 
Q 1697 -75 1366 -75 
Q 819 -75 525 192 
Q 231 459 231 875 
Q 231 1119 342 1320 
Q 453 1522 633 1644 
Q 813 1766 1038 1828 
Q 1203 1872 1538 1913 
Q 2219 1994 2541 2106 
Q 2544 2222 2544 2253 
Q 2544 2597 2384 2738 
Q 2169 2928 1744 2928 
Q 1347 2928 1158 2789 
Q 969 2650 878 2297 
L 328 2372 
Q 403 2725 575 2942 
Q 747 3159 1072 3276 
Q 1397 3394 1825 3394 
Q 2250 3394 2515 3294 
Q 2781 3194 2906 3042 
Q 3031 2891 3081 2659 
Q 3109 2516 3109 2141 
L 3109 1391 
Q 3109 606 3145 398 
Q 3181 191 3288 0 
L 2700 0 
Q 2613 175 2588 409 
z
M 2541 1666 
Q 2234 1541 1622 1453 
Q 1275 1403 1131 1340 
Q 988 1278 909 1158 
Q 831 1038 831 891 
Q 831 666 1001 516 
Q 1172 366 1500 366 
Q 1825 366 2078 508 
Q 2331 650 2450 897 
Q 2541 1088 2541 1459 
L 2541 1666 
z
" id="ArialMT-61" transform="scale(0.015625)"/>
      <path d="M 422 0 
L 422 3319 
L 928 3319 
L 928 2847 
Q 1294 3394 1984 3394 
Q 2284 3394 2536 3286 
Q 2788 3178 2913 3003 
Q 3038 2828 3088 2588 
Q 3119 2431 3119 2041 
L 3119 0 
L 2556 0 
L 2556 2019 
Q 2556 2363 2490 2533 
Q 2425 2703 2258 2804 
Q 2091 2906 1866 2906 
Q 1506 2906 1245 2678 
Q 984 2450 984 1813 
L 984 0 
L 422 0 
z
" id="ArialMT-6e" transform="scale(0.015625)"/>
      <path d="M 3381 2694 
L 356 2694 
L 356 3219 
L 3381 3219 
L 3381 2694 
z
M 3381 1303 
L 356 1303 
L 356 1828 
L 3381 1828 
L 3381 1303 
z
" id="ArialMT-3d" transform="scale(0.015625)"/>
     </defs>
     <use xlink:href="#ArialMT-6d"/>
     <use x="83.300781" xlink:href="#ArialMT-65"/>
     <use x="138.916016" xlink:href="#ArialMT-64"/>
     <use x="194.53125" xlink:href="#ArialMT-69"/>
     <use x="216.748047" xlink:href="#ArialMT-61"/>
     <use x="272.363281" xlink:href="#ArialMT-6e"/>
     <use x="327.978516" xlink:href="#ArialMT-3d"/>
     <use x="386.376953" xlink:href="#ArialMT-32"/>
     <use x="441.992188" xlink:href="#ArialMT-2e"/>
     <use x="469.775391" xlink:href="#ArialMT-32"/>
     <use x="525.390625" xlink:href="#ArialMT-37"/>
     <use x="581.005859" xlink:href="#ArialMT-31"/>
    </g>
   </g>
  </g>
 </g>
 <defs>
  <clipPath id="pdc8d1991b0">
   <rect height="217.44" width="334.8" x="7.2" y="7.2"/>
  </clipPath>
 </defs>
</svg>
