<?xml version="1.0" encoding="utf-8" standalone="no"?>
<!DOCTYPE svg PUBLIC "-//W3C//DTD SVG 1.1//EN"
  "http://www.w3.org/Graphics/SVG/1.1/DTD/svg11.dtd">
<svg height="251.399844pt" version="1.1" viewBox="0 0 386.531719 251.399844" width="386.531719pt" xmlns="http://www.w3.org/2000/svg" xmlns:xlink="http://www.w3.org/1999/xlink">
 <metadata>
  <rdf:RDF xmlns:cc="http://creativecommons.org/ns#" xmlns:dc="http://purl.org/dc/elements/1.1/" xmlns:rdf="http://www.w3.org/1999/02/22-rdf-syntax-ns#">
   <cc:Work>
    <dc:type rdf:resource="http://purl.org/dc/dcmitype/StillImage"/>
    <dc:date>2021-11-02T13:13:41.760878</dc:date>
    <dc:format>image/svg+xml</dc:format>
    <dc:creator>
     <cc:Agent>
      <dc:title>Matplotlib v3.4.3, https://matplotlib.org/</dc:title>
     </cc:Agent>
    </dc:creator>
   </cc:Work>
  </rdf:RDF>
 </metadata>
 <defs>
  <style type="text/css">*{stroke-linecap:butt;stroke-linejoin:round;}</style>
 </defs>
 <g id="figure_1">
  <g id="patch_1">
   <path d="M 0 251.399844 
L 386.531719 251.399844 
L 386.531719 0 
L 0 0 
z
" style="fill:#ffffff;"/>
  </g>
  <g id="axes_1">
   <g id="patch_2">
    <path d="M 44.531719 224.64 
L 379.331719 224.64 
L 379.331719 7.2 
L 44.531719 7.2 
z
" style="fill:#ffffff;"/>
   </g>
   <g id="matplotlib.axis_1">
    <g id="xtick_1">
     <g id="line2d_1">
      <defs>
       <path d="M 0 0 
L 0 6 
" id="m86ecd3db88" style="stroke:#262626;stroke-width:1.25;"/>
      </defs>
      <g>
       <use style="fill:#262626;stroke:#262626;stroke-width:1.25;" x="59.749901" xlink:href="#m86ecd3db88" y="224.64"/>
      </g>
     </g>
     <g id="text_1">
      <!-- −1.00 -->
      <g style="fill:#262626;" transform="translate(45.834041 242.013594)scale(0.11 -0.11)">
       <defs>
        <path d="M 3381 1997 
L 356 1997 
L 356 2522 
L 3381 2522 
L 3381 1997 
z
" id="ArialMT-2212" transform="scale(0.015625)"/>
        <path d="M 2384 0 
L 1822 0 
L 1822 3584 
Q 1619 3391 1289 3197 
Q 959 3003 697 2906 
L 697 3450 
Q 1169 3672 1522 3987 
Q 1875 4303 2022 4600 
L 2384 4600 
L 2384 0 
z
" id="ArialMT-31" transform="scale(0.015625)"/>
        <path d="M 581 0 
L 581 641 
L 1222 641 
L 1222 0 
L 581 0 
z
" id="ArialMT-2e" transform="scale(0.015625)"/>
        <path d="M 266 2259 
Q 266 3072 433 3567 
Q 600 4063 929 4331 
Q 1259 4600 1759 4600 
Q 2128 4600 2406 4451 
Q 2684 4303 2865 4023 
Q 3047 3744 3150 3342 
Q 3253 2941 3253 2259 
Q 3253 1453 3087 958 
Q 2922 463 2592 192 
Q 2263 -78 1759 -78 
Q 1097 -78 719 397 
Q 266 969 266 2259 
z
M 844 2259 
Q 844 1131 1108 757 
Q 1372 384 1759 384 
Q 2147 384 2411 759 
Q 2675 1134 2675 2259 
Q 2675 3391 2411 3762 
Q 2147 4134 1753 4134 
Q 1366 4134 1134 3806 
Q 844 3388 844 2259 
z
" id="ArialMT-30" transform="scale(0.015625)"/>
       </defs>
       <use xlink:href="#ArialMT-2212"/>
       <use x="58.398438" xlink:href="#ArialMT-31"/>
       <use x="114.013672" xlink:href="#ArialMT-2e"/>
       <use x="141.796875" xlink:href="#ArialMT-30"/>
       <use x="197.412109" xlink:href="#ArialMT-30"/>
      </g>
     </g>
    </g>
    <g id="xtick_2">
     <g id="line2d_2">
      <g>
       <use style="fill:#262626;stroke:#262626;stroke-width:1.25;" x="97.795355" xlink:href="#m86ecd3db88" y="224.64"/>
      </g>
     </g>
     <g id="text_2">
      <!-- −0.75 -->
      <g style="fill:#262626;" transform="translate(83.879496 242.013594)scale(0.11 -0.11)">
       <defs>
        <path d="M 303 3981 
L 303 4522 
L 3269 4522 
L 3269 4084 
Q 2831 3619 2401 2847 
Q 1972 2075 1738 1259 
Q 1569 684 1522 0 
L 944 0 
Q 953 541 1156 1306 
Q 1359 2072 1739 2783 
Q 2119 3494 2547 3981 
L 303 3981 
z
" id="ArialMT-37" transform="scale(0.015625)"/>
        <path d="M 266 1200 
L 856 1250 
Q 922 819 1161 601 
Q 1400 384 1738 384 
Q 2144 384 2425 690 
Q 2706 997 2706 1503 
Q 2706 1984 2436 2262 
Q 2166 2541 1728 2541 
Q 1456 2541 1237 2417 
Q 1019 2294 894 2097 
L 366 2166 
L 809 4519 
L 3088 4519 
L 3088 3981 
L 1259 3981 
L 1013 2750 
Q 1425 3038 1878 3038 
Q 2478 3038 2890 2622 
Q 3303 2206 3303 1553 
Q 3303 931 2941 478 
Q 2500 -78 1738 -78 
Q 1113 -78 717 272 
Q 322 622 266 1200 
z
" id="ArialMT-35" transform="scale(0.015625)"/>
       </defs>
       <use xlink:href="#ArialMT-2212"/>
       <use x="58.398438" xlink:href="#ArialMT-30"/>
       <use x="114.013672" xlink:href="#ArialMT-2e"/>
       <use x="141.796875" xlink:href="#ArialMT-37"/>
       <use x="197.412109" xlink:href="#ArialMT-35"/>
      </g>
     </g>
    </g>
    <g id="xtick_3">
     <g id="line2d_3">
      <g>
       <use style="fill:#262626;stroke:#262626;stroke-width:1.25;" x="135.84081" xlink:href="#m86ecd3db88" y="224.64"/>
      </g>
     </g>
     <g id="text_3">
      <!-- −0.50 -->
      <g style="fill:#262626;" transform="translate(121.92495 242.013594)scale(0.11 -0.11)">
       <use xlink:href="#ArialMT-2212"/>
       <use x="58.398438" xlink:href="#ArialMT-30"/>
       <use x="114.013672" xlink:href="#ArialMT-2e"/>
       <use x="141.796875" xlink:href="#ArialMT-35"/>
       <use x="197.412109" xlink:href="#ArialMT-30"/>
      </g>
     </g>
    </g>
    <g id="xtick_4">
     <g id="line2d_4">
      <g>
       <use style="fill:#262626;stroke:#262626;stroke-width:1.25;" x="173.886264" xlink:href="#m86ecd3db88" y="224.64"/>
      </g>
     </g>
     <g id="text_4">
      <!-- −0.25 -->
      <g style="fill:#262626;" transform="translate(159.970405 242.013594)scale(0.11 -0.11)">
       <defs>
        <path d="M 3222 541 
L 3222 0 
L 194 0 
Q 188 203 259 391 
Q 375 700 629 1000 
Q 884 1300 1366 1694 
Q 2113 2306 2375 2664 
Q 2638 3022 2638 3341 
Q 2638 3675 2398 3904 
Q 2159 4134 1775 4134 
Q 1369 4134 1125 3890 
Q 881 3647 878 3216 
L 300 3275 
Q 359 3922 746 4261 
Q 1134 4600 1788 4600 
Q 2447 4600 2831 4234 
Q 3216 3869 3216 3328 
Q 3216 3053 3103 2787 
Q 2991 2522 2730 2228 
Q 2469 1934 1863 1422 
Q 1356 997 1212 845 
Q 1069 694 975 541 
L 3222 541 
z
" id="ArialMT-32" transform="scale(0.015625)"/>
       </defs>
       <use xlink:href="#ArialMT-2212"/>
       <use x="58.398438" xlink:href="#ArialMT-30"/>
       <use x="114.013672" xlink:href="#ArialMT-2e"/>
       <use x="141.796875" xlink:href="#ArialMT-32"/>
       <use x="197.412109" xlink:href="#ArialMT-35"/>
      </g>
     </g>
    </g>
    <g id="xtick_5">
     <g id="line2d_5">
      <g>
       <use style="fill:#262626;stroke:#262626;stroke-width:1.25;" x="211.931719" xlink:href="#m86ecd3db88" y="224.64"/>
      </g>
     </g>
     <g id="text_5">
      <!-- 0.00 -->
      <g style="fill:#262626;" transform="translate(201.228203 242.013594)scale(0.11 -0.11)">
       <use xlink:href="#ArialMT-30"/>
       <use x="55.615234" xlink:href="#ArialMT-2e"/>
       <use x="83.398438" xlink:href="#ArialMT-30"/>
       <use x="139.013672" xlink:href="#ArialMT-30"/>
      </g>
     </g>
    </g>
    <g id="xtick_6">
     <g id="line2d_6">
      <g>
       <use style="fill:#262626;stroke:#262626;stroke-width:1.25;" x="249.977173" xlink:href="#m86ecd3db88" y="224.64"/>
      </g>
     </g>
     <g id="text_6">
      <!-- 0.25 -->
      <g style="fill:#262626;" transform="translate(239.273658 242.013594)scale(0.11 -0.11)">
       <use xlink:href="#ArialMT-30"/>
       <use x="55.615234" xlink:href="#ArialMT-2e"/>
       <use x="83.398438" xlink:href="#ArialMT-32"/>
       <use x="139.013672" xlink:href="#ArialMT-35"/>
      </g>
     </g>
    </g>
    <g id="xtick_7">
     <g id="line2d_7">
      <g>
       <use style="fill:#262626;stroke:#262626;stroke-width:1.25;" x="288.022628" xlink:href="#m86ecd3db88" y="224.64"/>
      </g>
     </g>
     <g id="text_7">
      <!-- 0.50 -->
      <g style="fill:#262626;" transform="translate(277.319112 242.013594)scale(0.11 -0.11)">
       <use xlink:href="#ArialMT-30"/>
       <use x="55.615234" xlink:href="#ArialMT-2e"/>
       <use x="83.398438" xlink:href="#ArialMT-35"/>
       <use x="139.013672" xlink:href="#ArialMT-30"/>
      </g>
     </g>
    </g>
    <g id="xtick_8">
     <g id="line2d_8">
      <g>
       <use style="fill:#262626;stroke:#262626;stroke-width:1.25;" x="326.068082" xlink:href="#m86ecd3db88" y="224.64"/>
      </g>
     </g>
     <g id="text_8">
      <!-- 0.75 -->
      <g style="fill:#262626;" transform="translate(315.364567 242.013594)scale(0.11 -0.11)">
       <use xlink:href="#ArialMT-30"/>
       <use x="55.615234" xlink:href="#ArialMT-2e"/>
       <use x="83.398438" xlink:href="#ArialMT-37"/>
       <use x="139.013672" xlink:href="#ArialMT-35"/>
      </g>
     </g>
    </g>
    <g id="xtick_9">
     <g id="line2d_9">
      <g>
       <use style="fill:#262626;stroke:#262626;stroke-width:1.25;" x="364.113537" xlink:href="#m86ecd3db88" y="224.64"/>
      </g>
     </g>
     <g id="text_9">
      <!-- 1.00 -->
      <g style="fill:#262626;" transform="translate(353.410021 242.013594)scale(0.11 -0.11)">
       <use xlink:href="#ArialMT-31"/>
       <use x="55.615234" xlink:href="#ArialMT-2e"/>
       <use x="83.398438" xlink:href="#ArialMT-30"/>
       <use x="139.013672" xlink:href="#ArialMT-30"/>
      </g>
     </g>
    </g>
   </g>
   <g id="matplotlib.axis_2">
    <g id="ytick_1">
     <g id="line2d_10">
      <defs>
       <path d="M 0 0 
L -6 0 
" id="me311a3b2e6" style="stroke:#262626;stroke-width:1.25;"/>
      </defs>
      <g>
       <use style="fill:#262626;stroke:#262626;stroke-width:1.25;" x="44.531719" xlink:href="#me311a3b2e6" y="216.619702"/>
      </g>
     </g>
     <g id="text_10">
      <!-- −10.0 -->
      <g style="fill:#262626;" transform="translate(7.2 220.556499)scale(0.11 -0.11)">
       <use xlink:href="#ArialMT-2212"/>
       <use x="58.398438" xlink:href="#ArialMT-31"/>
       <use x="114.013672" xlink:href="#ArialMT-30"/>
       <use x="169.628906" xlink:href="#ArialMT-2e"/>
       <use x="197.412109" xlink:href="#ArialMT-30"/>
      </g>
     </g>
    </g>
    <g id="ytick_2">
     <g id="line2d_11">
      <g>
       <use style="fill:#262626;stroke:#262626;stroke-width:1.25;" x="44.531719" xlink:href="#me311a3b2e6" y="189.351505"/>
      </g>
     </g>
     <g id="text_11">
      <!-- −7.5 -->
      <g style="fill:#262626;" transform="translate(13.317031 193.288302)scale(0.11 -0.11)">
       <use xlink:href="#ArialMT-2212"/>
       <use x="58.398438" xlink:href="#ArialMT-37"/>
       <use x="114.013672" xlink:href="#ArialMT-2e"/>
       <use x="141.796875" xlink:href="#ArialMT-35"/>
      </g>
     </g>
    </g>
    <g id="ytick_3">
     <g id="line2d_12">
      <g>
       <use style="fill:#262626;stroke:#262626;stroke-width:1.25;" x="44.531719" xlink:href="#me311a3b2e6" y="162.083308"/>
      </g>
     </g>
     <g id="text_12">
      <!-- −5.0 -->
      <g style="fill:#262626;" transform="translate(13.317031 166.020105)scale(0.11 -0.11)">
       <use xlink:href="#ArialMT-2212"/>
       <use x="58.398438" xlink:href="#ArialMT-35"/>
       <use x="114.013672" xlink:href="#ArialMT-2e"/>
       <use x="141.796875" xlink:href="#ArialMT-30"/>
      </g>
     </g>
    </g>
    <g id="ytick_4">
     <g id="line2d_13">
      <g>
       <use style="fill:#262626;stroke:#262626;stroke-width:1.25;" x="44.531719" xlink:href="#me311a3b2e6" y="134.81511"/>
      </g>
     </g>
     <g id="text_13">
      <!-- −2.5 -->
      <g style="fill:#262626;" transform="translate(13.317031 138.751907)scale(0.11 -0.11)">
       <use xlink:href="#ArialMT-2212"/>
       <use x="58.398438" xlink:href="#ArialMT-32"/>
       <use x="114.013672" xlink:href="#ArialMT-2e"/>
       <use x="141.796875" xlink:href="#ArialMT-35"/>
      </g>
     </g>
    </g>
    <g id="ytick_5">
     <g id="line2d_14">
      <g>
       <use style="fill:#262626;stroke:#262626;stroke-width:1.25;" x="44.531719" xlink:href="#me311a3b2e6" y="107.546913"/>
      </g>
     </g>
     <g id="text_14">
      <!-- 0.0 -->
      <g style="fill:#262626;" transform="translate(19.741719 111.48371)scale(0.11 -0.11)">
       <use xlink:href="#ArialMT-30"/>
       <use x="55.615234" xlink:href="#ArialMT-2e"/>
       <use x="83.398438" xlink:href="#ArialMT-30"/>
      </g>
     </g>
    </g>
    <g id="ytick_6">
     <g id="line2d_15">
      <g>
       <use style="fill:#262626;stroke:#262626;stroke-width:1.25;" x="44.531719" xlink:href="#me311a3b2e6" y="80.278716"/>
      </g>
     </g>
     <g id="text_15">
      <!-- 2.5 -->
      <g style="fill:#262626;" transform="translate(19.741719 84.215513)scale(0.11 -0.11)">
       <use xlink:href="#ArialMT-32"/>
       <use x="55.615234" xlink:href="#ArialMT-2e"/>
       <use x="83.398438" xlink:href="#ArialMT-35"/>
      </g>
     </g>
    </g>
    <g id="ytick_7">
     <g id="line2d_16">
      <g>
       <use style="fill:#262626;stroke:#262626;stroke-width:1.25;" x="44.531719" xlink:href="#me311a3b2e6" y="53.010519"/>
      </g>
     </g>
     <g id="text_16">
      <!-- 5.0 -->
      <g style="fill:#262626;" transform="translate(19.741719 56.947315)scale(0.11 -0.11)">
       <use xlink:href="#ArialMT-35"/>
       <use x="55.615234" xlink:href="#ArialMT-2e"/>
       <use x="83.398438" xlink:href="#ArialMT-30"/>
      </g>
     </g>
    </g>
    <g id="ytick_8">
     <g id="line2d_17">
      <g>
       <use style="fill:#262626;stroke:#262626;stroke-width:1.25;" x="44.531719" xlink:href="#me311a3b2e6" y="25.742321"/>
      </g>
     </g>
     <g id="text_17">
      <!-- 7.5 -->
      <g style="fill:#262626;" transform="translate(19.741719 29.679118)scale(0.11 -0.11)">
       <use xlink:href="#ArialMT-37"/>
       <use x="55.615234" xlink:href="#ArialMT-2e"/>
       <use x="83.398438" xlink:href="#ArialMT-35"/>
      </g>
     </g>
    </g>
   </g>
   <g id="line2d_18">
    <path clip-path="url(#pe5b2b502c0)" d="M 59.749901 133.193542 
L 62.146465 125.814936 
L 64.543029 124.027225 
L 66.939593 114.752961 
L 69.336157 103.51205 
L 71.732721 104.07319 
L 76.525849 108.614097 
L 78.922413 117.084125 
L 81.318977 103.347292 
L 83.715541 106.58048 
L 86.112105 101.290814 
L 88.508669 95.44316 
L 90.905233 99.035276 
L 93.301797 114.10079 
L 95.698362 109.223038 
L 98.094926 112.499801 
L 100.49149 121.608811 
L 102.888054 113.423431 
L 105.284618 101.049428 
L 107.681182 102.76297 
L 110.077746 104.864551 
L 112.47431 102.735387 
L 114.870874 101.814507 
L 117.267438 101.86651 
L 119.664002 111.869192 
L 122.060566 112.508734 
L 124.45713 112.920161 
L 126.853694 116.177169 
L 129.250258 114.446719 
L 131.646823 113.095006 
L 134.043387 116.399774 
L 136.439951 111.569661 
L 138.836515 112.108735 
L 141.233079 110.010584 
L 146.026207 104.729244 
L 148.422771 96.13191 
L 150.819335 93.227931 
L 153.215899 91.074728 
L 155.612463 92.289553 
L 158.009027 86.851241 
L 160.405591 86.126998 
L 162.802155 89.758101 
L 165.198719 83.145547 
L 167.595284 81.470791 
L 169.991848 82.130071 
L 172.388412 75.476828 
L 174.784976 78.109665 
L 177.18154 81.390382 
L 179.578104 80.273267 
L 181.974668 79.54406 
L 184.371232 76.493597 
L 186.767796 72.00599 
L 189.16436 71.791172 
L 191.560924 72.169336 
L 193.957488 69.283085 
L 196.354052 67.955893 
L 198.750616 74.907792 
L 201.14718 75.209821 
L 203.543745 82.661672 
L 205.940309 80.45785 
L 208.336873 80.595798 
L 213.130001 88.135204 
L 215.526565 81.43431 
L 217.923129 93.096982 
L 220.319693 89.243665 
L 222.716257 80.732172 
L 225.112821 81.717148 
L 227.509385 77.764458 
L 229.905949 70.666661 
L 232.302513 73.598181 
L 234.699077 74.047092 
L 237.095641 82.587282 
L 239.492206 78.112848 
L 241.88877 82.601905 
L 244.285334 76.933602 
L 246.681898 81.018091 
L 249.078462 77.656771 
L 251.475026 88.60006 
L 253.87159 89.900669 
L 256.268154 89.221491 
L 258.664718 92.38228 
L 261.061282 85.953186 
L 263.457846 96.428117 
L 265.85441 102.463034 
L 268.250974 104.549791 
L 270.647538 96.590124 
L 273.044102 102.049349 
L 275.440666 110.574811 
L 277.837231 104.166182 
L 280.233795 105.770699 
L 282.630359 97.3612 
L 285.026923 90.329862 
L 287.423487 87.835738 
L 289.820051 85.021556 
L 292.216615 84.985245 
L 294.613179 79.130513 
L 297.009743 81.578745 
L 299.406307 77.879942 
L 301.802871 73.726107 
L 304.199435 79.989731 
L 306.595999 89.465289 
L 308.992563 91.698058 
L 311.389127 96.202045 
L 316.182256 89.148386 
L 318.57882 97.142459 
L 320.975384 87.750684 
L 323.371948 84.179257 
L 325.768512 88.568937 
L 328.165076 77.600224 
L 330.56164 65.150554 
L 332.958204 60.98362 
L 335.354768 63.768338 
L 337.751332 60.9869 
L 340.147896 57.558669 
L 342.54446 70.187932 
L 344.941024 61.556706 
L 347.337588 69.4008 
L 349.734153 70.367143 
L 352.130717 73.757161 
L 354.527281 63.998207 
L 356.923845 67.762101 
L 359.320409 61.090085 
L 361.716973 71.096662 
L 364.113537 74.419048 
L 364.113537 74.419048 
" style="fill:none;stroke:#0173b2;stroke-linecap:round;stroke-width:1.5;"/>
   </g>
   <g id="line2d_19">
    <path clip-path="url(#pe5b2b502c0)" d="M 59.749901 104.229695 
L 62.146465 110.90329 
L 64.543029 109.747934 
L 66.939593 121.499489 
L 69.336157 123.495778 
L 71.732721 133.464238 
L 74.129285 133.566639 
L 76.525849 137.405107 
L 78.922413 139.626832 
L 81.318977 140.967291 
L 83.715541 141.234989 
L 86.112105 136.47961 
L 88.508669 127.480457 
L 90.905233 137.395119 
L 93.301797 139.702176 
L 95.698362 139.96173 
L 98.094926 134.265051 
L 100.49149 135.998344 
L 102.888054 126.638725 
L 105.284618 132.065729 
L 107.681182 129.338338 
L 110.077746 125.183206 
L 112.47431 131.304324 
L 114.870874 136.306701 
L 117.267438 150.322134 
L 122.060566 152.356934 
L 124.45713 149.122402 
L 126.853694 145.019876 
L 129.250258 143.705694 
L 131.646823 132.580912 
L 134.043387 141.910178 
L 136.439951 135.652782 
L 138.836515 133.561069 
L 141.233079 138.00988 
L 143.629643 138.373129 
L 146.026207 139.232232 
L 148.422771 139.955619 
L 150.819335 143.663655 
L 153.215899 136.642382 
L 155.612463 130.112707 
L 158.009027 137.469598 
L 160.405591 146.451363 
L 162.802155 131.313402 
L 165.198719 119.749381 
L 167.595284 111.314004 
L 169.991848 121.73817 
L 172.388412 115.183276 
L 174.784976 108.230843 
L 177.18154 112.639961 
L 179.578104 116.773199 
L 181.974668 106.45951 
L 184.371232 110.208489 
L 186.767796 104.413669 
L 189.16436 103.497268 
L 191.560924 109.085157 
L 193.957488 113.052065 
L 196.354052 106.992542 
L 198.750616 103.645951 
L 201.14718 108.313407 
L 203.543745 106.210037 
L 205.940309 94.963099 
L 208.336873 95.825553 
L 210.733437 94.590678 
L 213.130001 107.234058 
L 215.526565 102.257166 
L 217.923129 108.427621 
L 220.319693 110.626096 
L 222.716257 101.834949 
L 225.112821 107.84478 
L 227.509385 108.03846 
L 229.905949 109.296516 
L 232.302513 111.920667 
L 234.699077 107.914237 
L 237.095641 108.793005 
L 239.492206 105.870489 
L 241.88877 107.990389 
L 244.285334 107.079477 
L 246.681898 98.970509 
L 249.078462 104.755335 
L 251.475026 114.741035 
L 253.87159 113.973912 
L 256.268154 111.097744 
L 258.664718 117.896465 
L 261.061282 119.183221 
L 263.457846 117.910168 
L 265.85441 122.750113 
L 268.250974 116.042222 
L 270.647538 125.843472 
L 273.044102 120.493165 
L 275.440666 121.339848 
L 277.837231 113.281704 
L 280.233795 111.54497 
L 282.630359 113.371774 
L 285.026923 114.006955 
L 287.423487 117.069424 
L 289.820051 113.569687 
L 292.216615 109.209347 
L 294.613179 106.634558 
L 297.009743 106.458459 
L 299.406307 107.624346 
L 301.802871 110.736427 
L 304.199435 113.365214 
L 306.595999 102.122467 
L 311.389127 78.332788 
L 313.785692 83.816323 
L 316.182256 78.987389 
L 318.57882 78.541644 
L 320.975384 79.283964 
L 323.371948 74.11607 
L 325.768512 71.125753 
L 328.165076 66.73544 
L 330.56164 58.306583 
L 332.958204 53.135327 
L 335.354768 45.923746 
L 337.751332 45.385386 
L 340.147896 47.057507 
L 342.54446 46.202338 
L 344.941024 39.1023 
L 349.734153 50.08064 
L 352.130717 35.660109 
L 354.527281 27.038291 
L 356.923845 17.083636 
L 359.320409 21.815166 
L 361.716973 21.46525 
L 364.113537 25.043474 
L 364.113537 25.043474 
" style="fill:none;stroke:#de8f05;stroke-linecap:round;stroke-width:1.5;"/>
   </g>
   <g id="line2d_20">
    <path clip-path="url(#pe5b2b502c0)" d="M 59.749901 116.560018 
L 62.146465 109.415088 
L 64.543029 100.169958 
L 66.939593 95.890859 
L 69.336157 89.582079 
L 74.129285 83.292208 
L 76.525849 90.282212 
L 78.922413 95.185162 
L 81.318977 92.370103 
L 83.715541 99.218879 
L 86.112105 108.93632 
L 88.508669 105.277503 
L 90.905233 103.502684 
L 93.301797 100.600854 
L 95.698362 93.901327 
L 98.094926 98.573572 
L 100.49149 100.87608 
L 102.888054 106.991953 
L 105.284618 117.947057 
L 107.681182 118.040119 
L 110.077746 117.548805 
L 114.870874 102.280402 
L 117.267438 104.608653 
L 119.664002 105.218576 
L 122.060566 103.125879 
L 124.45713 103.080961 
L 126.853694 100.052853 
L 129.250258 110.248738 
L 131.646823 110.124374 
L 134.043387 120.803444 
L 136.439951 113.353233 
L 138.836515 117.105684 
L 141.233079 113.560801 
L 143.629643 113.217055 
L 146.026207 121.092382 
L 148.422771 124.99578 
L 150.819335 126.859483 
L 153.215899 123.220567 
L 155.612463 115.124228 
L 158.009027 120.394843 
L 160.405591 127.520684 
L 162.802155 127.782166 
L 165.198719 130.785156 
L 167.595284 134.149219 
L 169.991848 141.538327 
L 172.388412 142.283689 
L 174.784976 138.82438 
L 177.18154 134.096289 
L 179.578104 144.625012 
L 181.974668 148.754206 
L 184.371232 150.096915 
L 186.767796 145.743922 
L 189.16436 146.802193 
L 191.560924 134.318388 
L 193.957488 129.834948 
L 196.354052 125.085829 
L 198.750616 126.97203 
L 201.14718 128.420193 
L 203.543745 123.045351 
L 205.940309 108.060351 
L 208.336873 109.737852 
L 210.733437 108.08483 
L 213.130001 111.407901 
L 215.526565 118.567994 
L 217.923129 128.059727 
L 220.319693 112.9178 
L 222.716257 101.583153 
L 225.112821 98.985854 
L 227.509385 92.397942 
L 229.905949 95.795506 
L 232.302513 92.394887 
L 234.699077 96.314232 
L 237.095641 96.655524 
L 239.492206 86.56795 
L 241.88877 86.868937 
L 244.285334 76.500251 
L 246.681898 80.235559 
L 249.078462 75.62121 
L 251.475026 81.588272 
L 253.87159 88.645059 
L 256.268154 87.297745 
L 261.061282 82.899753 
L 263.457846 88.835453 
L 265.85441 87.260673 
L 268.250974 80.0109 
L 270.647538 81.138353 
L 273.044102 80.492193 
L 275.440666 72.544118 
L 277.837231 66.187862 
L 282.630359 50.112099 
L 285.026923 52.635338 
L 287.423487 56.050394 
L 289.820051 58.735296 
L 292.216615 70.635266 
L 294.613179 72.772779 
L 297.009743 72.040541 
L 299.406307 72.708551 
L 301.802871 75.999624 
L 304.199435 69.672448 
L 306.595999 68.487103 
L 308.992563 62.43063 
L 311.389127 64.014839 
L 313.785692 70.265762 
L 316.182256 62.48573 
L 318.57882 57.865321 
L 320.975384 64.071435 
L 323.371948 72.766725 
L 325.768512 65.902895 
L 328.165076 68.059803 
L 330.56164 73.098208 
L 332.958204 63.419022 
L 335.354768 60.791152 
L 337.751332 60.981952 
L 340.147896 60.293807 
L 342.54446 68.66869 
L 344.941024 65.598031 
L 347.337588 58.754173 
L 349.734153 54.589483 
L 352.130717 53.384077 
L 354.527281 52.496316 
L 356.923845 53.84882 
L 359.320409 53.14781 
L 361.716973 52.304299 
L 364.113537 63.822105 
L 364.113537 63.822105 
" style="fill:none;stroke:#029e73;stroke-linecap:round;stroke-width:1.5;"/>
   </g>
   <g id="line2d_21">
    <path clip-path="url(#pe5b2b502c0)" d="M 59.749901 163.869301 
L 62.146465 165.337844 
L 64.543029 160.612666 
L 66.939593 169.079386 
L 69.336157 175.438921 
L 71.732721 183.326364 
L 74.129285 184.961986 
L 76.525849 192.724211 
L 78.922413 186.125661 
L 81.318977 182.967658 
L 83.715541 194.313665 
L 86.112105 200.889289 
L 88.508669 199.567077 
L 90.905233 202.270673 
L 93.301797 205.712949 
L 95.698362 214.756364 
L 98.094926 203.215604 
L 100.49149 211.371248 
L 102.888054 207.45295 
L 105.284618 198.333851 
L 107.681182 196.316811 
L 110.077746 197.84637 
L 112.47431 186.718416 
L 114.870874 186.095068 
L 117.267438 184.710638 
L 119.664002 189.979467 
L 122.060566 185.866195 
L 124.45713 188.189194 
L 126.853694 189.085425 
L 129.250258 188.052487 
L 131.646823 191.796902 
L 134.043387 191.657294 
L 136.439951 194.178934 
L 138.836515 198.267618 
L 141.233079 195.706286 
L 143.629643 199.212385 
L 146.026207 195.938287 
L 148.422771 198.086014 
L 150.819335 202.454385 
L 153.215899 204.559281 
L 158.009027 188.262702 
L 160.405591 185.241459 
L 162.802155 189.242537 
L 165.198719 182.815563 
L 167.595284 168.412895 
L 169.991848 165.847163 
L 172.388412 169.529768 
L 174.784976 164.293304 
L 177.18154 163.159158 
L 179.578104 158.171537 
L 181.974668 162.684193 
L 186.767796 156.410034 
L 189.16436 159.392151 
L 191.560924 158.502576 
L 193.957488 170.449118 
L 196.354052 168.881091 
L 198.750616 161.291967 
L 201.14718 155.632344 
L 203.543745 154.456498 
L 205.940309 150.894414 
L 208.336873 136.622076 
L 210.733437 136.760151 
L 213.130001 141.340863 
L 215.526565 143.747769 
L 217.923129 143.291376 
L 220.319693 148.391607 
L 222.716257 144.59505 
L 225.112821 142.245024 
L 227.509385 142.312583 
L 229.905949 151.844891 
L 232.302513 159.46154 
L 234.699077 159.652565 
L 237.095641 159.610105 
L 239.492206 153.753961 
L 241.88877 153.519337 
L 244.285334 150.24977 
L 246.681898 148.904583 
L 249.078462 152.752257 
L 251.475026 155.446542 
L 253.87159 146.469761 
L 256.268154 136.325992 
L 258.664718 137.428047 
L 261.061282 129.749921 
L 263.457846 128.905646 
L 265.85441 133.859265 
L 268.250974 122.934718 
L 270.647538 130.447839 
L 273.044102 130.533695 
L 275.440666 127.80662 
L 277.837231 126.46056 
L 280.233795 127.906343 
L 282.630359 134.330018 
L 285.026923 145.434841 
L 287.423487 144.995982 
L 289.820051 143.953296 
L 292.216615 142.570805 
L 294.613179 145.48079 
L 297.009743 129.87731 
L 299.406307 136.535235 
L 301.802871 141.538826 
L 304.199435 138.880444 
L 308.992563 146.192222 
L 311.389127 147.433037 
L 313.785692 147.808612 
L 316.182256 151.530629 
L 318.57882 163.070325 
L 320.975384 162.449261 
L 323.371948 164.099578 
L 325.768512 155.285117 
L 328.165076 160.545615 
L 330.56164 162.689894 
L 332.958204 158.378707 
L 335.354768 158.606569 
L 337.751332 156.985926 
L 340.147896 154.07606 
L 342.54446 162.118981 
L 344.941024 171.334712 
L 347.337588 166.895877 
L 349.734153 165.366553 
L 352.130717 165.251055 
L 354.527281 163.766936 
L 356.923845 167.71904 
L 359.320409 175.821326 
L 361.716973 181.554628 
L 364.113537 178.545422 
L 364.113537 178.545422 
" style="fill:none;stroke:#d55e00;stroke-linecap:round;stroke-width:1.5;"/>
   </g>
   <g id="line2d_22">
    <path clip-path="url(#pe5b2b502c0)" d="M 59.749901 92.255796 
L 62.146465 91.646042 
L 64.543029 93.020682 
L 66.939593 88.818329 
L 69.336157 94.178217 
L 71.732721 102.636252 
L 74.129285 98.493853 
L 76.525849 104.273475 
L 78.922413 105.510932 
L 81.318977 108.182548 
L 83.715541 108.443819 
L 86.112105 111.76963 
L 88.508669 116.278054 
L 90.905233 116.519119 
L 93.301797 122.270998 
L 95.698362 120.950752 
L 98.094926 114.596613 
L 100.49149 117.101782 
L 102.888054 114.736303 
L 105.284618 117.308356 
L 107.681182 106.517914 
L 110.077746 108.774944 
L 112.47431 109.93751 
L 114.870874 119.183908 
L 117.267438 117.517057 
L 119.664002 123.09494 
L 122.060566 127.582574 
L 124.45713 123.078266 
L 126.853694 116.200371 
L 129.250258 101.066639 
L 131.646823 104.482171 
L 134.043387 98.809713 
L 136.439951 99.313812 
L 138.836515 100.409366 
L 141.233079 99.824909 
L 143.629643 100.786475 
L 146.026207 94.080047 
L 148.422771 89.475531 
L 150.819335 96.627602 
L 153.215899 83.731425 
L 155.612463 86.094344 
L 158.009027 83.843061 
L 160.405591 76.04479 
L 162.802155 76.913858 
L 165.198719 77.254154 
L 167.595284 77.982232 
L 169.991848 87.727542 
L 172.388412 91.884732 
L 174.784976 95.658997 
L 177.18154 96.735018 
L 179.578104 98.096502 
L 181.974668 96.493745 
L 184.371232 92.891293 
L 186.767796 92.762368 
L 189.16436 86.453166 
L 191.560924 85.235813 
L 193.957488 81.52229 
L 196.354052 86.271852 
L 198.750616 102.474154 
L 201.14718 105.649372 
L 203.543745 110.877534 
L 205.940309 108.083079 
L 208.336873 106.649894 
L 210.733437 105.387623 
L 213.130001 110.326079 
L 215.526565 108.481751 
L 217.923129 110.315537 
L 220.319693 112.58939 
L 222.716257 122.1793 
L 225.112821 127.032552 
L 227.509385 128.474568 
L 229.905949 129.67759 
L 232.302513 129.952205 
L 234.699077 124.631926 
L 237.095641 136.476224 
L 239.492206 141.902599 
L 241.88877 140.106271 
L 244.285334 144.660022 
L 246.681898 152.409065 
L 249.078462 148.258459 
L 251.475026 142.753967 
L 253.87159 142.668337 
L 256.268154 137.841972 
L 258.664718 138.887246 
L 261.061282 136.319824 
L 263.457846 142.897813 
L 265.85441 148.113093 
L 268.250974 142.818401 
L 270.647538 152.890765 
L 273.044102 145.963269 
L 275.440666 137.895869 
L 277.837231 134.814832 
L 280.233795 131.042584 
L 282.630359 129.65811 
L 285.026923 131.893574 
L 287.423487 127.4554 
L 289.820051 141.746299 
L 292.216615 142.28321 
L 294.613179 136.423349 
L 297.009743 140.990039 
L 299.406307 128.893495 
L 301.802871 125.579818 
L 304.199435 118.382709 
L 308.992563 137.329251 
L 311.389127 131.996598 
L 313.785692 128.635796 
L 316.182256 127.794618 
L 318.57882 135.858511 
L 320.975384 147.3994 
L 323.371948 145.710501 
L 325.768512 146.484032 
L 328.165076 147.126238 
L 330.56164 133.071991 
L 332.958204 135.70948 
L 335.354768 137.263969 
L 337.751332 141.743488 
L 340.147896 132.458274 
L 342.54446 136.202928 
L 344.941024 129.974291 
L 347.337588 126.869943 
L 349.734153 125.198101 
L 352.130717 126.999285 
L 354.527281 129.731461 
L 356.923845 128.643865 
L 359.320409 128.093622 
L 361.716973 139.207728 
L 364.113537 139.235989 
L 364.113537 139.235989 
" style="fill:none;stroke:#cc78bc;stroke-linecap:round;stroke-width:1.5;"/>
   </g>
   <g id="line2d_23">
    <path clip-path="url(#pe5b2b502c0)" d="M 59.749901 101.073685 
L 62.146465 102.870798 
L 64.543029 110.79392 
L 66.939593 98.840448 
L 69.336157 100.356091 
L 71.732721 105.265524 
L 74.129285 97.779889 
L 76.525849 88.776934 
L 78.922413 93.500917 
L 81.318977 102.605478 
L 83.715541 104.145833 
L 86.112105 99.659293 
L 88.508669 95.429544 
L 90.905233 95.020537 
L 93.301797 91.834388 
L 95.698362 105.513032 
L 98.094926 107.867214 
L 100.49149 99.518507 
L 102.888054 94.928697 
L 105.284618 86.685814 
L 107.681182 85.254726 
L 110.077746 77.600296 
L 112.47431 80.072121 
L 114.870874 78.640539 
L 117.267438 79.101013 
L 119.664002 80.911012 
L 122.060566 82.162942 
L 124.45713 86.819451 
L 126.853694 97.833931 
L 129.250258 104.199352 
L 131.646823 109.829595 
L 134.043387 118.224411 
L 136.439951 122.68535 
L 138.836515 115.234235 
L 141.233079 111.756864 
L 143.629643 109.134794 
L 146.026207 105.755428 
L 148.422771 86.157026 
L 150.819335 89.628743 
L 153.215899 88.426242 
L 155.612463 83.952316 
L 158.009027 75.903137 
L 160.405591 72.152861 
L 162.802155 74.43042 
L 165.198719 78.468673 
L 167.595284 73.101031 
L 169.991848 74.079226 
L 174.784976 94.426102 
L 177.18154 95.470042 
L 179.578104 97.829444 
L 181.974668 98.785341 
L 184.371232 97.239769 
L 186.767796 91.744925 
L 189.16436 90.056571 
L 191.560924 84.901289 
L 193.957488 85.34939 
L 196.354052 89.076006 
L 198.750616 84.684752 
L 201.14718 89.514118 
L 203.543745 80.645116 
L 205.940309 72.79735 
L 208.336873 67.268822 
L 210.733437 57.482691 
L 215.526565 72.518515 
L 217.923129 64.028677 
L 220.319693 62.506631 
L 222.716257 68.136621 
L 225.112821 69.582265 
L 227.509385 66.578668 
L 229.905949 71.389461 
L 232.302513 59.752134 
L 234.699077 62.986088 
L 237.095641 66.608677 
L 239.492206 72.592115 
L 241.88877 72.029306 
L 244.285334 61.230321 
L 246.681898 65.128396 
L 249.078462 72.905962 
L 251.475026 64.283002 
L 253.87159 67.973481 
L 256.268154 59.999307 
L 258.664718 60.965613 
L 261.061282 60.519774 
L 263.457846 60.476793 
L 265.85441 72.022184 
L 268.250974 61.877395 
L 270.647538 56.4763 
L 273.044102 62.393554 
L 275.440666 55.023474 
L 277.837231 47.067767 
L 280.233795 54.371226 
L 282.630359 47.154899 
L 285.026923 48.934721 
L 287.423487 53.857801 
L 289.820051 60.893106 
L 292.216615 59.071755 
L 294.613179 60.842849 
L 297.009743 63.485134 
L 299.406307 73.180485 
L 301.802871 67.006805 
L 304.199435 65.00872 
L 306.595999 65.051809 
L 308.992563 70.284294 
L 311.389127 69.493287 
L 313.785692 72.188076 
L 316.182256 69.566069 
L 318.57882 75.74234 
L 320.975384 80.903275 
L 323.371948 75.16372 
L 325.768512 83.24923 
L 328.165076 88.394779 
L 332.958204 92.96773 
L 335.354768 91.637468 
L 337.751332 94.410958 
L 340.147896 96.175675 
L 342.54446 99.354367 
L 344.941024 95.027786 
L 347.337588 102.078158 
L 349.734153 98.991909 
L 352.130717 102.45712 
L 354.527281 98.035477 
L 356.923845 102.657708 
L 359.320409 105.827303 
L 361.716973 118.875291 
L 364.113537 125.47232 
L 364.113537 125.47232 
" style="fill:none;stroke:#ca9161;stroke-linecap:round;stroke-width:1.5;"/>
   </g>
   <g id="line2d_24">
    <path clip-path="url(#pe5b2b502c0)" d="M 59.749901 147.265534 
L 62.146465 152.488705 
L 64.543029 147.749649 
L 66.939593 147.135965 
L 69.336157 152.504992 
L 71.732721 152.335587 
L 74.129285 159.117431 
L 76.525849 169.325029 
L 78.922413 170.247463 
L 81.318977 172.781979 
L 83.715541 173.455662 
L 86.112105 181.258885 
L 88.508669 181.021365 
L 90.905233 178.472115 
L 93.301797 173.545935 
L 95.698362 175.729962 
L 98.094926 175.790737 
L 100.49149 181.545579 
L 102.888054 171.088494 
L 105.284618 178.804593 
L 107.681182 184.835569 
L 110.077746 190.065103 
L 112.47431 171.683612 
L 114.870874 175.882055 
L 117.267438 174.846045 
L 119.664002 184.473423 
L 122.060566 179.350991 
L 124.45713 176.365934 
L 126.853694 181.133266 
L 129.250258 185.489486 
L 131.646823 196.519478 
L 134.043387 192.940947 
L 136.439951 190.331382 
L 138.836515 200.222574 
L 141.233079 190.621943 
L 143.629643 193.85252 
L 146.026207 192.427912 
L 148.422771 192.771574 
L 150.819335 196.316254 
L 153.215899 195.469359 
L 155.612463 192.826944 
L 158.009027 197.98203 
L 160.405591 202.538997 
L 162.802155 203.603779 
L 165.198719 199.501961 
L 167.595284 208.960031 
L 169.991848 200.563734 
L 172.388412 197.455624 
L 174.784976 187.698986 
L 177.18154 193.691095 
L 179.578104 187.865244 
L 181.974668 178.362723 
L 184.371232 181.041755 
L 186.767796 177.738117 
L 189.16436 169.402305 
L 191.560924 173.04446 
L 193.957488 162.86627 
L 196.354052 164.226243 
L 198.750616 161.931133 
L 201.14718 154.175206 
L 203.543745 159.138496 
L 208.336873 146.615112 
L 210.733437 159.66852 
L 213.130001 164.234999 
L 215.526565 156.109659 
L 217.923129 152.375737 
L 220.319693 147.219276 
L 222.716257 148.535584 
L 225.112821 147.79184 
L 227.509385 149.053861 
L 229.905949 150.991055 
L 232.302513 156.729621 
L 234.699077 148.08954 
L 237.095641 157.575721 
L 239.492206 162.48511 
L 241.88877 159.100342 
L 244.285334 167.68794 
L 246.681898 166.242367 
L 249.078462 167.892731 
L 251.475026 166.383973 
L 253.87159 162.439192 
L 256.268154 164.797548 
L 258.664718 161.950303 
L 261.061282 163.683386 
L 263.457846 175.221232 
L 265.85441 166.393997 
L 268.250974 159.13627 
L 270.647538 151.044806 
L 273.044102 151.991721 
L 275.440666 142.919582 
L 277.837231 143.5591 
L 280.233795 148.907636 
L 282.630359 149.83959 
L 285.026923 144.949775 
L 287.423487 138.330124 
L 289.820051 136.894046 
L 292.216615 143.789885 
L 294.613179 151.176772 
L 297.009743 149.674532 
L 301.802871 151.461577 
L 304.199435 156.610055 
L 306.595999 149.679251 
L 308.992563 137.782154 
L 311.389127 130.27098 
L 313.785692 132.116304 
L 316.182256 129.146723 
L 318.57882 124.172601 
L 320.975384 116.065734 
L 323.371948 115.171772 
L 325.768512 106.496186 
L 328.165076 95.532437 
L 330.56164 102.448362 
L 332.958204 99.083855 
L 335.354768 100.46143 
L 337.751332 101.170907 
L 340.147896 101.102119 
L 342.54446 98.444367 
L 344.941024 102.924843 
L 347.337588 99.026112 
L 349.734153 105.93814 
L 352.130717 105.62916 
L 354.527281 98.528795 
L 356.923845 99.845339 
L 359.320409 96.429372 
L 361.716973 92.426766 
L 364.113537 92.29649 
L 364.113537 92.29649 
" style="fill:none;stroke:#fbafe4;stroke-linecap:round;stroke-width:1.5;"/>
   </g>
   <g id="line2d_25">
    <path clip-path="url(#pe5b2b502c0)" d="M 59.749901 49.558579 
L 62.146465 51.255562 
L 66.939593 45.281266 
L 71.732721 30.34239 
L 74.129285 38.436355 
L 76.525849 32.700341 
L 78.922413 31.075037 
L 81.318977 26.674674 
L 83.715541 37.82579 
L 86.112105 42.676237 
L 88.508669 44.173542 
L 90.905233 51.507123 
L 93.301797 51.771945 
L 95.698362 57.819019 
L 98.094926 71.254521 
L 100.49149 68.070563 
L 102.888054 72.625849 
L 105.284618 71.113519 
L 107.681182 64.65061 
L 110.077746 67.679669 
L 112.47431 61.192911 
L 114.870874 56.460748 
L 117.267438 56.230358 
L 119.664002 47.974103 
L 122.060566 41.321631 
L 124.45713 48.831116 
L 126.853694 53.072367 
L 129.250258 51.072006 
L 131.646823 56.112545 
L 134.043387 51.232552 
L 136.439951 56.137958 
L 138.836515 50.61437 
L 141.233079 47.806819 
L 143.629643 52.088592 
L 146.026207 48.17331 
L 148.422771 51.268643 
L 150.819335 53.709508 
L 153.215899 51.151548 
L 155.612463 54.19202 
L 158.009027 52.737685 
L 160.405591 58.195911 
L 162.802155 68.71975 
L 165.198719 64.434137 
L 167.595284 63.446981 
L 169.991848 78.10263 
L 172.388412 70.915654 
L 174.784976 57.224512 
L 177.18154 56.670782 
L 179.578104 53.888947 
L 181.974668 57.337768 
L 184.371232 52.718411 
L 186.767796 53.117585 
L 189.16436 54.872469 
L 191.560924 55.306585 
L 193.957488 61.447157 
L 196.354052 54.431249 
L 198.750616 62.29304 
L 201.14718 67.200487 
L 203.543745 70.130996 
L 205.940309 69.519207 
L 208.336873 76.79924 
L 210.733437 87.92648 
L 213.130001 82.388602 
L 215.526565 88.968498 
L 217.923129 89.416176 
L 220.319693 85.797584 
L 222.716257 98.712509 
L 225.112821 105.643337 
L 227.509385 108.686395 
L 229.905949 103.498352 
L 232.302513 120.273278 
L 234.699077 128.27036 
L 237.095641 117.901384 
L 239.492206 120.713841 
L 241.88877 116.667507 
L 244.285334 118.109015 
L 246.681898 114.496573 
L 249.078462 108.984002 
L 251.475026 84.384859 
L 253.87159 91.725343 
L 256.268154 89.614341 
L 258.664718 104.86969 
L 261.061282 107.076871 
L 263.457846 107.778055 
L 265.85441 103.940102 
L 268.250974 99.707824 
L 270.647538 92.469223 
L 273.044102 98.484143 
L 275.440666 101.90149 
L 277.837231 102.264919 
L 280.233795 98.059041 
L 282.630359 105.723691 
L 285.026923 102.640894 
L 287.423487 97.253034 
L 289.820051 109.715393 
L 292.216615 110.37991 
L 294.613179 113.336568 
L 297.009743 106.611063 
L 299.406307 97.734318 
L 301.802871 102.481494 
L 304.199435 93.846671 
L 306.595999 102.04944 
L 308.992563 106.912938 
L 311.389127 103.114223 
L 313.785692 92.266894 
L 316.182256 90.229925 
L 320.975384 97.568982 
L 323.371948 89.282559 
L 325.768512 95.393868 
L 328.165076 105.0744 
L 330.56164 106.19169 
L 332.958204 101.545359 
L 335.354768 105.951016 
L 337.751332 111.73644 
L 340.147896 117.023882 
L 342.54446 117.976781 
L 344.941024 115.821684 
L 347.337588 120.921908 
L 349.734153 118.791541 
L 352.130717 128.062995 
L 354.527281 127.309631 
L 356.923845 121.296692 
L 359.320409 110.743073 
L 361.716973 105.477795 
L 364.113537 103.10459 
L 364.113537 103.10459 
" style="fill:none;stroke:#949494;stroke-linecap:round;stroke-width:1.5;"/>
   </g>
   <g id="line2d_26">
    <path clip-path="url(#pe5b2b502c0)" d="M 59.749901 55.093017 
L 62.146465 59.338227 
L 64.543029 51.360647 
L 66.939593 56.273687 
L 69.336157 59.990385 
L 71.732721 65.794492 
L 74.129285 65.09686 
L 76.525849 66.405975 
L 78.922413 70.671121 
L 81.318977 66.288828 
L 83.715541 61.460296 
L 86.112105 70.103748 
L 88.508669 68.32539 
L 90.905233 67.405555 
L 93.301797 62.140515 
L 95.698362 59.332784 
L 98.094926 59.821565 
L 100.49149 54.306042 
L 102.888054 59.013254 
L 105.284618 68.424268 
L 107.681182 58.386095 
L 110.077746 57.737704 
L 112.47431 55.348269 
L 114.870874 42.298222 
L 117.267438 48.62163 
L 119.664002 61.669388 
L 122.060566 58.191778 
L 124.45713 55.919496 
L 126.853694 56.194762 
L 129.250258 59.526358 
L 131.646823 64.256759 
L 134.043387 53.462447 
L 136.439951 48.249712 
L 138.836515 58.938602 
L 141.233079 53.741143 
L 143.629643 49.166695 
L 146.026207 41.241186 
L 148.422771 44.885072 
L 150.819335 39.304977 
L 155.612463 58.815486 
L 158.009027 58.002519 
L 160.405591 64.149079 
L 162.802155 51.513076 
L 167.595284 72.072179 
L 169.991848 72.954685 
L 172.388412 67.301721 
L 174.784976 67.820861 
L 177.18154 69.134331 
L 179.578104 78.412902 
L 181.974668 63.730064 
L 184.371232 57.351386 
L 186.767796 50.285747 
L 189.16436 60.711328 
L 191.560924 64.308237 
L 193.957488 70.696543 
L 196.354052 62.848512 
L 198.750616 68.393621 
L 201.14718 73.532339 
L 203.543745 67.290009 
L 205.940309 70.780869 
L 208.336873 64.041099 
L 210.733437 69.650194 
L 213.130001 67.92231 
L 215.526565 68.852821 
L 217.923129 68.944896 
L 220.319693 74.409073 
L 222.716257 76.267405 
L 225.112821 76.785233 
L 227.509385 78.556318 
L 229.905949 97.338783 
L 232.302513 102.193759 
L 234.699077 104.101815 
L 237.095641 102.46498 
L 239.492206 87.161934 
L 241.88877 84.831458 
L 244.285334 89.375724 
L 246.681898 84.476728 
L 249.078462 83.370263 
L 251.475026 79.95269 
L 253.87159 74.285949 
L 256.268154 75.876197 
L 258.664718 71.790764 
L 261.061282 75.98492 
L 263.457846 77.817384 
L 265.85441 73.280459 
L 268.250974 73.88184 
L 270.647538 78.881223 
L 273.044102 88.057349 
L 275.440666 91.547066 
L 277.837231 78.817063 
L 280.233795 79.752016 
L 282.630359 72.094861 
L 285.026923 69.989046 
L 287.423487 77.128923 
L 289.820051 80.112832 
L 292.216615 82.891673 
L 294.613179 76.690952 
L 297.009743 81.84023 
L 299.406307 83.314746 
L 301.802871 84.266226 
L 304.199435 86.473134 
L 306.595999 91.146846 
L 308.992563 84.628364 
L 311.389127 85.437554 
L 313.785692 81.178761 
L 316.182256 78.566876 
L 318.57882 69.75516 
L 320.975384 73.196046 
L 323.371948 67.783133 
L 325.768512 57.823372 
L 328.165076 59.453524 
L 330.56164 50.869493 
L 332.958204 44.308968 
L 335.354768 49.063442 
L 337.751332 47.622316 
L 340.147896 47.070038 
L 342.54446 43.485814 
L 344.941024 47.840133 
L 347.337588 44.224754 
L 349.734153 52.599794 
L 352.130717 46.371503 
L 354.527281 46.288223 
L 356.923845 50.385814 
L 359.320409 31.426413 
L 361.716973 21.99549 
L 364.113537 28.990876 
L 364.113537 28.990876 
" style="fill:none;stroke:#ece133;stroke-linecap:round;stroke-width:1.5;"/>
   </g>
   <g id="line2d_27">
    <path clip-path="url(#pe5b2b502c0)" d="M 59.749901 117.445261 
L 62.146465 112.831455 
L 64.543029 104.737015 
L 66.939593 108.063374 
L 69.336157 99.372986 
L 71.732721 91.457567 
L 74.129285 92.61301 
L 76.525849 97.21523 
L 78.922413 104.05759 
L 81.318977 102.094002 
L 83.715541 105.774892 
L 86.112105 117.169345 
L 88.508669 117.178601 
L 90.905233 109.328161 
L 93.301797 112.292233 
L 95.698362 106.127112 
L 98.094926 105.781795 
L 100.49149 105.72472 
L 102.888054 113.384194 
L 105.284618 113.854709 
L 107.681182 123.540726 
L 110.077746 118.463888 
L 112.47431 124.43572 
L 114.870874 125.335035 
L 117.267438 118.587671 
L 119.664002 121.413951 
L 122.060566 128.354241 
L 124.45713 130.844535 
L 126.853694 112.639546 
L 129.250258 120.533864 
L 131.646823 116.440746 
L 134.043387 114.292603 
L 136.439951 109.544035 
L 138.836515 101.936278 
L 141.233079 106.236901 
L 143.629643 108.258148 
L 146.026207 116.063394 
L 148.422771 117.510507 
L 150.819335 117.34027 
L 153.215899 115.178914 
L 155.612463 119.148451 
L 158.009027 121.018929 
L 160.405591 118.033713 
L 162.802155 122.685845 
L 165.198719 119.144206 
L 167.595284 111.039092 
L 169.991848 107.816823 
L 172.388412 106.405436 
L 174.784976 115.591255 
L 177.18154 112.006743 
L 179.578104 103.970248 
L 181.974668 109.362278 
L 184.371232 105.831167 
L 186.767796 107.850908 
L 189.16436 117.629021 
L 191.560924 109.906388 
L 193.957488 125.396396 
L 196.354052 120.723918 
L 198.750616 110.359097 
L 201.14718 109.299275 
L 203.543745 102.97394 
L 205.940309 99.093838 
L 208.336873 102.784965 
L 210.733437 109.737966 
L 213.130001 101.720393 
L 215.526565 99.690371 
L 217.923129 92.730859 
L 220.319693 95.867222 
L 222.716257 92.851327 
L 225.112821 85.304681 
L 227.509385 96.722662 
L 229.905949 100.004229 
L 232.302513 96.706802 
L 234.699077 95.276313 
L 237.095641 90.265952 
L 239.492206 91.756333 
L 241.88877 93.38102 
L 244.285334 92.126532 
L 246.681898 106.083838 
L 249.078462 107.975767 
L 251.475026 109.468202 
L 253.87159 109.274862 
L 256.268154 131.194548 
L 258.664718 133.290299 
L 261.061282 127.51349 
L 263.457846 123.962743 
L 265.85441 122.374028 
L 268.250974 115.112196 
L 270.647538 125.142132 
L 273.044102 117.948646 
L 275.440666 120.516948 
L 277.837231 120.500441 
L 280.233795 118.517148 
L 282.630359 109.797167 
L 285.026923 110.351976 
L 287.423487 104.496661 
L 289.820051 106.351303 
L 292.216615 115.667263 
L 294.613179 133.372676 
L 297.009743 134.67699 
L 299.406307 140.089594 
L 301.802871 145.143 
L 304.199435 152.200323 
L 306.595999 158.254705 
L 308.992563 160.931033 
L 311.389127 158.124559 
L 313.785692 155.057336 
L 316.182256 154.389764 
L 318.57882 152.765007 
L 320.975384 150.481579 
L 323.371948 137.961153 
L 325.768512 133.76592 
L 328.165076 133.843181 
L 330.56164 120.082875 
L 332.958204 119.084133 
L 335.354768 130.049095 
L 337.751332 128.640776 
L 340.147896 127.843435 
L 342.54446 130.098174 
L 344.941024 134.054959 
L 347.337588 129.609512 
L 349.734153 127.208315 
L 352.130717 131.565716 
L 354.527281 130.264773 
L 359.320409 119.255922 
L 361.716973 127.242671 
L 364.113537 123.957887 
L 364.113537 123.957887 
" style="fill:none;stroke:#56b4e9;stroke-linecap:round;stroke-width:1.5;"/>
   </g>
   <g id="patch_3">
    <path d="M 44.531719 224.64 
L 44.531719 7.2 
" style="fill:none;stroke:#262626;stroke-linecap:square;stroke-linejoin:miter;stroke-width:1.25;"/>
   </g>
   <g id="patch_4">
    <path d="M 379.331719 224.64 
L 379.331719 7.2 
" style="fill:none;stroke:#262626;stroke-linecap:square;stroke-linejoin:miter;stroke-width:1.25;"/>
   </g>
   <g id="patch_5">
    <path d="M 44.531719 224.64 
L 379.331719 224.64 
" style="fill:none;stroke:#262626;stroke-linecap:square;stroke-linejoin:miter;stroke-width:1.25;"/>
   </g>
   <g id="patch_6">
    <path d="M 44.531719 7.2 
L 379.331719 7.2 
" style="fill:none;stroke:#262626;stroke-linecap:square;stroke-linejoin:miter;stroke-width:1.25;"/>
   </g>
  </g>
 </g>
 <defs>
  <clipPath id="pe5b2b502c0">
   <rect height="217.44" width="334.8" x="44.531719" y="7.2"/>
  </clipPath>
 </defs>
</svg>
