<?xml version="1.0" encoding="utf-8" standalone="no"?>
<!DOCTYPE svg PUBLIC "-//W3C//DTD SVG 1.1//EN"
  "http://www.w3.org/Graphics/SVG/1.1/DTD/svg11.dtd">
<svg height="263.799844pt" version="1.1" viewBox="0 0 349.2 263.799844" width="349.2pt" xmlns="http://www.w3.org/2000/svg" xmlns:xlink="http://www.w3.org/1999/xlink">
 <metadata>
  <rdf:RDF xmlns:cc="http://creativecommons.org/ns#" xmlns:dc="http://purl.org/dc/elements/1.1/" xmlns:rdf="http://www.w3.org/1999/02/22-rdf-syntax-ns#">
   <cc:Work>
    <dc:type rdf:resource="http://purl.org/dc/dcmitype/StillImage"/>
    <dc:date>2021-11-04T23:04:57.791730</dc:date>
    <dc:format>image/svg+xml</dc:format>
    <dc:creator>
     <cc:Agent>
      <dc:title>Matplotlib v3.4.3, https://matplotlib.org/</dc:title>
     </cc:Agent>
    </dc:creator>
   </cc:Work>
  </rdf:RDF>
 </metadata>
 <defs>
  <style type="text/css">*{stroke-linecap:butt;stroke-linejoin:round;}</style>
 </defs>
 <g id="figure_1">
  <g id="patch_1">
   <path d="M 0 263.799844 
L 349.2 263.799844 
L 349.2 0 
L 0 0 
z
" style="fill:#ffffff;"/>
  </g>
  <g id="axes_1">
   <g id="patch_2">
    <path d="M 7.2 224.64 
L 342 224.64 
L 342 7.2 
L 7.2 7.2 
z
" style="fill:#ffffff;"/>
   </g>
   <g id="matplotlib.axis_1">
    <g id="xtick_1">
     <g id="line2d_1">
      <defs>
       <path d="M 0 0 
L 0 3 
" id="m24738c7f7a" style="stroke:#808080;"/>
      </defs>
      <g>
       <use style="fill:#808080;stroke:#808080;" x="20.814636" xlink:href="#m24738c7f7a" y="224.64"/>
      </g>
     </g>
     <g id="text_1">
      <!-- 2.0 -->
      <g style="fill:#262626;" transform="translate(13.169636 239.013594)scale(0.11 -0.11)">
       <defs>
        <path d="M 3222 541 
L 3222 0 
L 194 0 
Q 188 203 259 391 
Q 375 700 629 1000 
Q 884 1300 1366 1694 
Q 2113 2306 2375 2664 
Q 2638 3022 2638 3341 
Q 2638 3675 2398 3904 
Q 2159 4134 1775 4134 
Q 1369 4134 1125 3890 
Q 881 3647 878 3216 
L 300 3275 
Q 359 3922 746 4261 
Q 1134 4600 1788 4600 
Q 2447 4600 2831 4234 
Q 3216 3869 3216 3328 
Q 3216 3053 3103 2787 
Q 2991 2522 2730 2228 
Q 2469 1934 1863 1422 
Q 1356 997 1212 845 
Q 1069 694 975 541 
L 3222 541 
z
" id="ArialMT-32" transform="scale(0.015625)"/>
        <path d="M 581 0 
L 581 641 
L 1222 641 
L 1222 0 
L 581 0 
z
" id="ArialMT-2e" transform="scale(0.015625)"/>
        <path d="M 266 2259 
Q 266 3072 433 3567 
Q 600 4063 929 4331 
Q 1259 4600 1759 4600 
Q 2128 4600 2406 4451 
Q 2684 4303 2865 4023 
Q 3047 3744 3150 3342 
Q 3253 2941 3253 2259 
Q 3253 1453 3087 958 
Q 2922 463 2592 192 
Q 2263 -78 1759 -78 
Q 1097 -78 719 397 
Q 266 969 266 2259 
z
M 844 2259 
Q 844 1131 1108 757 
Q 1372 384 1759 384 
Q 2147 384 2411 759 
Q 2675 1134 2675 2259 
Q 2675 3391 2411 3762 
Q 2147 4134 1753 4134 
Q 1366 4134 1134 3806 
Q 844 3388 844 2259 
z
" id="ArialMT-30" transform="scale(0.015625)"/>
       </defs>
       <use xlink:href="#ArialMT-32"/>
       <use x="55.615234" xlink:href="#ArialMT-2e"/>
       <use x="83.398438" xlink:href="#ArialMT-30"/>
      </g>
     </g>
    </g>
    <g id="xtick_2">
     <g id="line2d_2">
      <g>
       <use style="fill:#808080;stroke:#808080;" x="76.219366" xlink:href="#m24738c7f7a" y="224.64"/>
      </g>
     </g>
     <g id="text_2">
      <!-- 2.1 -->
      <g style="fill:#262626;" transform="translate(68.574366 239.013594)scale(0.11 -0.11)">
       <defs>
        <path d="M 2384 0 
L 1822 0 
L 1822 3584 
Q 1619 3391 1289 3197 
Q 959 3003 697 2906 
L 697 3450 
Q 1169 3672 1522 3987 
Q 1875 4303 2022 4600 
L 2384 4600 
L 2384 0 
z
" id="ArialMT-31" transform="scale(0.015625)"/>
       </defs>
       <use xlink:href="#ArialMT-32"/>
       <use x="55.615234" xlink:href="#ArialMT-2e"/>
       <use x="83.398438" xlink:href="#ArialMT-31"/>
      </g>
     </g>
    </g>
    <g id="xtick_3">
     <g id="line2d_3">
      <g>
       <use style="fill:#808080;stroke:#808080;" x="131.624097" xlink:href="#m24738c7f7a" y="224.64"/>
      </g>
     </g>
     <g id="text_3">
      <!-- 2.2 -->
      <g style="fill:#262626;" transform="translate(123.979097 239.013594)scale(0.11 -0.11)">
       <use xlink:href="#ArialMT-32"/>
       <use x="55.615234" xlink:href="#ArialMT-2e"/>
       <use x="83.398438" xlink:href="#ArialMT-32"/>
      </g>
     </g>
    </g>
    <g id="xtick_4">
     <g id="line2d_4">
      <g>
       <use style="fill:#808080;stroke:#808080;" x="187.028827" xlink:href="#m24738c7f7a" y="224.64"/>
      </g>
     </g>
     <g id="text_4">
      <!-- 2.3 -->
      <g style="fill:#262626;" transform="translate(179.383827 239.013594)scale(0.11 -0.11)">
       <defs>
        <path d="M 269 1209 
L 831 1284 
Q 928 806 1161 595 
Q 1394 384 1728 384 
Q 2125 384 2398 659 
Q 2672 934 2672 1341 
Q 2672 1728 2419 1979 
Q 2166 2231 1775 2231 
Q 1616 2231 1378 2169 
L 1441 2663 
Q 1497 2656 1531 2656 
Q 1891 2656 2178 2843 
Q 2466 3031 2466 3422 
Q 2466 3731 2256 3934 
Q 2047 4138 1716 4138 
Q 1388 4138 1169 3931 
Q 950 3725 888 3313 
L 325 3413 
Q 428 3978 793 4289 
Q 1159 4600 1703 4600 
Q 2078 4600 2393 4439 
Q 2709 4278 2876 4000 
Q 3044 3722 3044 3409 
Q 3044 3113 2884 2869 
Q 2725 2625 2413 2481 
Q 2819 2388 3044 2092 
Q 3269 1797 3269 1353 
Q 3269 753 2831 336 
Q 2394 -81 1725 -81 
Q 1122 -81 723 278 
Q 325 638 269 1209 
z
" id="ArialMT-33" transform="scale(0.015625)"/>
       </defs>
       <use xlink:href="#ArialMT-32"/>
       <use x="55.615234" xlink:href="#ArialMT-2e"/>
       <use x="83.398438" xlink:href="#ArialMT-33"/>
      </g>
     </g>
    </g>
    <g id="xtick_5">
     <g id="line2d_5">
      <g>
       <use style="fill:#808080;stroke:#808080;" x="242.433557" xlink:href="#m24738c7f7a" y="224.64"/>
      </g>
     </g>
     <g id="text_5">
      <!-- 2.4 -->
      <g style="fill:#262626;" transform="translate(234.788557 239.013594)scale(0.11 -0.11)">
       <defs>
        <path d="M 2069 0 
L 2069 1097 
L 81 1097 
L 81 1613 
L 2172 4581 
L 2631 4581 
L 2631 1613 
L 3250 1613 
L 3250 1097 
L 2631 1097 
L 2631 0 
L 2069 0 
z
M 2069 1613 
L 2069 3678 
L 634 1613 
L 2069 1613 
z
" id="ArialMT-34" transform="scale(0.015625)"/>
       </defs>
       <use xlink:href="#ArialMT-32"/>
       <use x="55.615234" xlink:href="#ArialMT-2e"/>
       <use x="83.398438" xlink:href="#ArialMT-34"/>
      </g>
     </g>
    </g>
    <g id="xtick_6">
     <g id="line2d_6">
      <g>
       <use style="fill:#808080;stroke:#808080;" x="297.838288" xlink:href="#m24738c7f7a" y="224.64"/>
      </g>
     </g>
     <g id="text_6">
      <!-- 2.5 -->
      <g style="fill:#262626;" transform="translate(290.193288 239.013594)scale(0.11 -0.11)">
       <defs>
        <path d="M 266 1200 
L 856 1250 
Q 922 819 1161 601 
Q 1400 384 1738 384 
Q 2144 384 2425 690 
Q 2706 997 2706 1503 
Q 2706 1984 2436 2262 
Q 2166 2541 1728 2541 
Q 1456 2541 1237 2417 
Q 1019 2294 894 2097 
L 366 2166 
L 809 4519 
L 3088 4519 
L 3088 3981 
L 1259 3981 
L 1013 2750 
Q 1425 3038 1878 3038 
Q 2478 3038 2890 2622 
Q 3303 2206 3303 1553 
Q 3303 931 2941 478 
Q 2500 -78 1738 -78 
Q 1113 -78 717 272 
Q 322 622 266 1200 
z
" id="ArialMT-35" transform="scale(0.015625)"/>
       </defs>
       <use xlink:href="#ArialMT-32"/>
       <use x="55.615234" xlink:href="#ArialMT-2e"/>
       <use x="83.398438" xlink:href="#ArialMT-35"/>
      </g>
     </g>
    </g>
    <g id="text_7">
     <!-- $\nu_\mathrm{max}$ ($\mu\mathrm{Hz}$) -->
     <g style="fill:#262626;" transform="translate(144.78 253.959844)scale(0.12 -0.12)">
      <defs>
       <path d="M 959 0 
L 572 3500 
L 1191 3500 
L 1522 563 
Q 1972 950 2391 1488 
Q 2706 1891 2788 2241 
Q 2825 2406 2809 2719 
Q 2794 3091 2544 3500 
L 3125 3500 
L 3125 3500 
Q 3288 3222 3353 2834 
Q 3416 2478 3369 2234 
Q 3250 1622 2719 1075 
Q 2025 363 1572 0 
L 959 0 
z
" id="DejaVuSans-Oblique-3bd" transform="scale(0.015625)"/>
       <path d="M 3328 2828 
Q 3544 3216 3844 3400 
Q 4144 3584 4550 3584 
Q 5097 3584 5394 3201 
Q 5691 2819 5691 2113 
L 5691 0 
L 5113 0 
L 5113 2094 
Q 5113 2597 4934 2840 
Q 4756 3084 4391 3084 
Q 3944 3084 3684 2787 
Q 3425 2491 3425 1978 
L 3425 0 
L 2847 0 
L 2847 2094 
Q 2847 2600 2669 2842 
Q 2491 3084 2119 3084 
Q 1678 3084 1418 2786 
Q 1159 2488 1159 1978 
L 1159 0 
L 581 0 
L 581 3500 
L 1159 3500 
L 1159 2956 
Q 1356 3278 1631 3431 
Q 1906 3584 2284 3584 
Q 2666 3584 2933 3390 
Q 3200 3197 3328 2828 
z
" id="DejaVuSans-6d" transform="scale(0.015625)"/>
       <path d="M 2194 1759 
Q 1497 1759 1228 1600 
Q 959 1441 959 1056 
Q 959 750 1161 570 
Q 1363 391 1709 391 
Q 2188 391 2477 730 
Q 2766 1069 2766 1631 
L 2766 1759 
L 2194 1759 
z
M 3341 1997 
L 3341 0 
L 2766 0 
L 2766 531 
Q 2569 213 2275 61 
Q 1981 -91 1556 -91 
Q 1019 -91 701 211 
Q 384 513 384 1019 
Q 384 1609 779 1909 
Q 1175 2209 1959 2209 
L 2766 2209 
L 2766 2266 
Q 2766 2663 2505 2880 
Q 2244 3097 1772 3097 
Q 1472 3097 1187 3025 
Q 903 2953 641 2809 
L 641 3341 
Q 956 3463 1253 3523 
Q 1550 3584 1831 3584 
Q 2591 3584 2966 3190 
Q 3341 2797 3341 1997 
z
" id="DejaVuSans-61" transform="scale(0.015625)"/>
       <path d="M 3513 3500 
L 2247 1797 
L 3578 0 
L 2900 0 
L 1881 1375 
L 863 0 
L 184 0 
L 1544 1831 
L 300 3500 
L 978 3500 
L 1906 2253 
L 2834 3500 
L 3513 3500 
z
" id="DejaVuSans-78" transform="scale(0.015625)"/>
       <path id="ArialMT-20" transform="scale(0.015625)"/>
       <path d="M 1497 -1347 
Q 1031 -759 709 28 
Q 388 816 388 1659 
Q 388 2403 628 3084 
Q 909 3875 1497 4659 
L 1900 4659 
Q 1522 4009 1400 3731 
Q 1209 3300 1100 2831 
Q 966 2247 966 1656 
Q 966 153 1900 -1347 
L 1497 -1347 
z
" id="ArialMT-28" transform="scale(0.015625)"/>
       <path d="M -84 -1331 
L 856 3500 
L 1434 3500 
L 1009 1322 
Q 997 1256 987 1175 
Q 978 1094 978 1013 
Q 978 722 1161 565 
Q 1344 409 1684 409 
Q 2147 409 2431 671 
Q 2716 934 2816 1459 
L 3213 3500 
L 3788 3500 
L 3266 809 
Q 3253 750 3248 706 
Q 3244 663 3244 628 
Q 3244 531 3283 486 
Q 3322 441 3406 441 
Q 3438 441 3492 456 
Q 3547 472 3647 513 
L 3559 50 
Q 3422 -19 3297 -55 
Q 3172 -91 3053 -91 
Q 2847 -91 2730 40 
Q 2613 172 2613 403 
Q 2438 153 2195 31 
Q 1953 -91 1625 -91 
Q 1334 -91 1117 43 
Q 900 178 831 397 
L 494 -1331 
L -84 -1331 
z
" id="DejaVuSans-Oblique-3bc" transform="scale(0.015625)"/>
       <path d="M 628 4666 
L 1259 4666 
L 1259 2753 
L 3553 2753 
L 3553 4666 
L 4184 4666 
L 4184 0 
L 3553 0 
L 3553 2222 
L 1259 2222 
L 1259 0 
L 628 0 
L 628 4666 
z
" id="DejaVuSans-48" transform="scale(0.015625)"/>
       <path d="M 353 3500 
L 3084 3500 
L 3084 2975 
L 922 459 
L 3084 459 
L 3084 0 
L 275 0 
L 275 525 
L 2438 3041 
L 353 3041 
L 353 3500 
z
" id="DejaVuSans-7a" transform="scale(0.015625)"/>
       <path d="M 791 -1347 
L 388 -1347 
Q 1322 153 1322 1656 
Q 1322 2244 1188 2822 
Q 1081 3291 891 3722 
Q 769 4003 388 4659 
L 791 4659 
Q 1378 3875 1659 3084 
Q 1900 2403 1900 1659 
Q 1900 816 1576 28 
Q 1253 -759 791 -1347 
z
" id="ArialMT-29" transform="scale(0.015625)"/>
      </defs>
      <use transform="translate(0 0.09375)" xlink:href="#DejaVuSans-Oblique-3bd"/>
      <use transform="translate(55.859375 -16.3125)scale(0.7)" xlink:href="#DejaVuSans-6d"/>
      <use transform="translate(124.047852 -16.3125)scale(0.7)" xlink:href="#DejaVuSans-61"/>
      <use transform="translate(166.943359 -16.3125)scale(0.7)" xlink:href="#DejaVuSans-78"/>
      <use transform="translate(211.103516 0.09375)" xlink:href="#ArialMT-20"/>
      <use transform="translate(238.886719 0.09375)" xlink:href="#ArialMT-28"/>
      <use transform="translate(272.1875 0.09375)" xlink:href="#DejaVuSans-Oblique-3bc"/>
      <use transform="translate(335.810547 0.09375)" xlink:href="#DejaVuSans-48"/>
      <use transform="translate(411.005859 0.09375)" xlink:href="#DejaVuSans-7a"/>
      <use transform="translate(463.496094 0.09375)" xlink:href="#ArialMT-29"/>
     </g>
    </g>
   </g>
   <g id="matplotlib.axis_2"/>
   <g id="PolyCollection_1">
    <defs>
     <path d="M 22.418182 -49.04348 
L 22.418182 -51.164617 
L 23.013805 -51.177044 
L 23.609429 -51.18848 
L 24.205052 -51.194598 
L 24.800676 -51.205999 
L 25.3963 -51.212403 
L 25.991923 -51.224342 
L 26.587547 -51.238016 
L 27.18317 -51.253585 
L 27.778794 -51.27121 
L 28.374417 -51.291056 
L 28.970041 -51.317236 
L 29.565664 -51.346755 
L 30.161288 -51.379907 
L 30.756912 -51.42095 
L 31.352535 -51.463093 
L 31.948159 -51.502733 
L 32.543782 -51.551176 
L 33.139406 -51.604729 
L 33.735029 -51.666928 
L 34.330653 -51.73091 
L 34.926276 -51.800194 
L 35.5219 -51.87895 
L 36.117524 -51.960266 
L 36.713147 -52.047603 
L 37.308771 -52.149016 
L 37.904394 -52.250409 
L 38.500018 -52.359125 
L 39.095641 -52.475253 
L 39.691265 -52.598183 
L 40.286888 -52.727928 
L 40.882512 -52.868399 
L 41.478136 -53.012393 
L 42.073759 -53.163047 
L 42.669383 -53.320158 
L 43.265006 -53.483458 
L 43.86063 -53.660511 
L 44.456253 -53.841318 
L 45.051877 -54.0249 
L 45.6475 -54.217346 
L 46.243124 -54.411019 
L 46.838748 -54.616519 
L 47.434371 -54.822944 
L 48.029995 -55.03303 
L 48.625618 -55.246201 
L 49.221242 -55.473712 
L 49.816865 -55.701525 
L 50.412489 -55.928638 
L 51.008112 -56.157917 
L 51.603736 -56.388992 
L 52.19936 -56.613636 
L 52.794983 -56.841851 
L 53.390607 -57.070686 
L 53.98623 -57.300546 
L 54.581854 -57.550344 
L 55.177477 -57.783804 
L 55.773101 -58.025317 
L 56.368724 -58.264826 
L 56.964348 -58.51002 
L 57.559972 -58.750431 
L 58.155595 -58.989275 
L 58.751219 -59.242281 
L 59.346842 -59.496712 
L 59.942466 -59.75295 
L 60.538089 -60.023206 
L 61.133713 -60.310175 
L 61.729336 -60.601083 
L 62.32496 -60.907983 
L 62.920584 -61.218153 
L 63.516207 -61.546818 
L 64.111831 -61.883696 
L 64.707454 -62.248496 
L 65.303078 -62.629021 
L 65.898701 -63.033902 
L 66.494325 -63.477091 
L 67.089948 -63.935428 
L 67.685572 -64.404322 
L 68.281196 -64.913452 
L 68.876819 -65.455366 
L 69.472443 -66.015941 
L 70.068066 -66.600877 
L 70.66369 -67.225451 
L 71.259313 -67.884039 
L 71.854937 -68.557729 
L 72.45056 -69.263073 
L 73.046184 -70.007996 
L 73.641808 -70.782143 
L 74.237431 -71.576906 
L 74.833055 -72.394446 
L 75.428678 -73.229404 
L 76.024302 -74.109559 
L 76.619925 -75.00145 
L 77.215549 -75.913188 
L 77.811172 -76.86664 
L 78.406796 -77.821188 
L 79.002419 -78.783549 
L 79.598043 -79.762197 
L 80.193667 -80.755862 
L 80.78929 -81.755498 
L 81.384914 -82.778287 
L 81.980537 -83.790666 
L 82.576161 -84.815084 
L 83.171784 -85.842792 
L 83.767408 -86.860513 
L 84.363031 -87.896152 
L 84.958655 -88.940209 
L 85.554279 -89.987521 
L 86.149902 -91.027195 
L 86.745526 -92.066561 
L 87.341149 -93.09674 
L 87.936773 -94.119944 
L 88.532396 -95.154181 
L 89.12802 -96.174646 
L 89.723643 -97.218745 
L 90.319267 -98.248569 
L 90.914891 -99.269854 
L 91.510514 -100.282312 
L 92.106138 -101.29734 
L 92.701761 -102.327838 
L 93.297385 -103.350414 
L 93.893008 -104.391344 
L 94.488632 -105.441291 
L 95.084255 -106.50624 
L 95.679879 -107.55761 
L 96.275503 -108.612177 
L 96.871126 -109.682059 
L 97.46675 -110.749326 
L 98.062373 -111.833143 
L 98.657997 -112.943682 
L 99.25362 -114.064564 
L 99.849244 -115.213478 
L 100.444867 -116.378214 
L 101.040491 -117.574714 
L 101.636115 -118.767345 
L 102.231738 -119.995235 
L 102.827362 -121.254628 
L 103.422985 -122.533408 
L 104.018609 -123.831678 
L 104.614232 -125.136755 
L 105.209856 -126.477395 
L 105.805479 -127.856327 
L 106.401103 -129.297619 
L 106.996727 -130.730853 
L 107.59235 -132.206388 
L 108.187974 -133.722385 
L 108.783597 -135.265299 
L 109.379221 -136.835057 
L 109.974844 -138.451 
L 110.570468 -140.087325 
L 111.166091 -141.764967 
L 111.761715 -143.467527 
L 112.357339 -145.193847 
L 112.952962 -146.975127 
L 113.548586 -148.762863 
L 114.144209 -150.610061 
L 114.739833 -152.500114 
L 115.335456 -154.417802 
L 115.93108 -156.346899 
L 116.526703 -158.29071 
L 117.122327 -160.275013 
L 117.717951 -162.29158 
L 118.313574 -164.313688 
L 118.909198 -166.39153 
L 119.504821 -168.474331 
L 120.100445 -170.555903 
L 120.696068 -172.64382 
L 121.291692 -174.723753 
L 121.887315 -176.80243 
L 122.482939 -178.881691 
L 123.078563 -180.946955 
L 123.674186 -182.987267 
L 124.26981 -185.038503 
L 124.865433 -187.076941 
L 125.461057 -189.082982 
L 126.05668 -191.037461 
L 126.652304 -192.973978 
L 127.247927 -194.873098 
L 127.843551 -196.732759 
L 128.439175 -198.514428 
L 129.034798 -200.255307 
L 129.630422 -201.934852 
L 130.226045 -203.559588 
L 130.821669 -205.100628 
L 131.417292 -206.599396 
L 132.012916 -208.025518 
L 132.608539 -209.388992 
L 133.204163 -210.664523 
L 133.799787 -211.89455 
L 134.39541 -213.066247 
L 134.991034 -214.157051 
L 135.586657 -215.160983 
L 136.182281 -216.113339 
L 136.777904 -217.005536 
L 137.373528 -217.874817 
L 137.969151 -218.675063 
L 138.564775 -219.397362 
L 139.160399 -220.100576 
L 139.756022 -220.752532 
L 140.351646 -221.359669 
L 140.947269 -221.948515 
L 141.542893 -222.540665 
L 142.138516 -223.114595 
L 142.73414 -223.649281 
L 143.329763 -224.179897 
L 143.925387 -224.686449 
L 144.52101 -225.200614 
L 145.116634 -225.785068 
L 145.712258 -226.335312 
L 146.307881 -226.87171 
L 146.903505 -227.437395 
L 147.499128 -227.999492 
L 148.094752 -228.539075 
L 148.690375 -229.126955 
L 149.285999 -229.737961 
L 149.881622 -230.351934 
L 150.477246 -230.98405 
L 151.07287 -231.624337 
L 151.668493 -232.303037 
L 152.264117 -232.971335 
L 152.85974 -233.672003 
L 153.455364 -234.379118 
L 154.050987 -235.088133 
L 154.646611 -235.808037 
L 155.242234 -236.501899 
L 155.837858 -237.205989 
L 156.433482 -237.884544 
L 157.029105 -238.55954 
L 157.624729 -239.214264 
L 158.220352 -239.891397 
L 158.815976 -240.550591 
L 159.411599 -241.17776 
L 160.007223 -241.837357 
L 160.602846 -242.427294 
L 161.19847 -243.014955 
L 161.794094 -243.560099 
L 162.389717 -244.055545 
L 162.985341 -244.507375 
L 163.580964 -244.910952 
L 164.176588 -245.333076 
L 164.772211 -245.673548 
L 165.367835 -245.946017 
L 165.963458 -246.199102 
L 166.559082 -246.409502 
L 167.154706 -246.579175 
L 167.750329 -246.672569 
L 168.345953 -246.716207 
L 168.941576 -246.667455 
L 169.5372 -246.594327 
L 170.132823 -246.459035 
L 170.728447 -246.259701 
L 171.32407 -246.050576 
L 171.919694 -245.737234 
L 172.515318 -245.395786 
L 173.110941 -244.980847 
L 173.706565 -244.51722 
L 174.302188 -243.998275 
L 174.897812 -243.431456 
L 175.493435 -242.801799 
L 176.089059 -242.132362 
L 176.684682 -241.409358 
L 177.280306 -240.648635 
L 177.87593 -239.86226 
L 178.471553 -239.048875 
L 179.067177 -238.259949 
L 179.6628 -237.395524 
L 180.258424 -236.531196 
L 180.854047 -235.690412 
L 181.449671 -234.798323 
L 182.045294 -233.904416 
L 182.640918 -233.0604 
L 183.236542 -232.223142 
L 183.832165 -231.407506 
L 184.427789 -230.618299 
L 185.023412 -229.840993 
L 185.619036 -229.093736 
L 186.214659 -228.371891 
L 186.810283 -227.644513 
L 187.405906 -226.962489 
L 188.00153 -226.323239 
L 188.597154 -225.725742 
L 189.192777 -225.135264 
L 189.788401 -224.586873 
L 190.384024 -224.047718 
L 190.979648 -223.55332 
L 191.575271 -223.061272 
L 192.170895 -222.605018 
L 192.766518 -222.199067 
L 193.362142 -221.78575 
L 193.957766 -221.342671 
L 194.553389 -220.926252 
L 195.149013 -220.49754 
L 195.744636 -220.077052 
L 196.34026 -219.599723 
L 196.935883 -219.122022 
L 197.531507 -218.618874 
L 198.12713 -218.100778 
L 198.722754 -217.542857 
L 199.318378 -216.940662 
L 199.914001 -216.266281 
L 200.509625 -215.57404 
L 201.105248 -214.831427 
L 201.700872 -214.024922 
L 202.296495 -213.190551 
L 202.892119 -212.265171 
L 203.487742 -211.288986 
L 204.083366 -210.242081 
L 204.67899 -209.126525 
L 205.274613 -207.964336 
L 205.870237 -206.735922 
L 206.46586 -205.441907 
L 207.061484 -204.093848 
L 207.657107 -202.652352 
L 208.252731 -201.194169 
L 208.848354 -199.713251 
L 209.443978 -198.145308 
L 210.039601 -196.565887 
L 210.635225 -194.965603 
L 211.230849 -193.312288 
L 211.826472 -191.639196 
L 212.422096 -189.950986 
L 213.017719 -188.240788 
L 213.613343 -186.504298 
L 214.208966 -184.753179 
L 214.80459 -183.013153 
L 215.400213 -181.271942 
L 215.995837 -179.546983 
L 216.591461 -177.852322 
L 217.187084 -176.168692 
L 217.782708 -174.533296 
L 218.378331 -172.913288 
L 218.973955 -171.328135 
L 219.569578 -169.788402 
L 220.165202 -168.280157 
L 220.760825 -166.810387 
L 221.356449 -165.37426 
L 221.952073 -163.985084 
L 222.547696 -162.61117 
L 223.14332 -161.325741 
L 223.738943 -160.048352 
L 224.334567 -158.834892 
L 224.93019 -157.670371 
L 225.525814 -156.569149 
L 226.121437 -155.499266 
L 226.717061 -154.428281 
L 227.312685 -153.417495 
L 227.908308 -152.449879 
L 228.503932 -151.472589 
L 229.099555 -150.526823 
L 229.695179 -149.589506 
L 230.290802 -148.672687 
L 230.886426 -147.752609 
L 231.482049 -146.829472 
L 232.077673 -145.914435 
L 232.673297 -144.996139 
L 233.26892 -144.053645 
L 233.864544 -143.064522 
L 234.460167 -142.113876 
L 235.055791 -141.104214 
L 235.651414 -140.108043 
L 236.247038 -139.067288 
L 236.842661 -138.005901 
L 237.438285 -136.932699 
L 238.033909 -135.809519 
L 238.629532 -134.680844 
L 239.225156 -133.489336 
L 239.820779 -132.26851 
L 240.416403 -131.008371 
L 241.012026 -129.729948 
L 241.60765 -128.394066 
L 242.203273 -127.05626 
L 242.798897 -125.697576 
L 243.394521 -124.286525 
L 243.990144 -122.878985 
L 244.585768 -121.46343 
L 245.181391 -120.01124 
L 245.777015 -118.548524 
L 246.372638 -117.071318 
L 246.968262 -115.580198 
L 247.563885 -114.09192 
L 248.159509 -112.599144 
L 248.755133 -111.112088 
L 249.350756 -109.642246 
L 249.94638 -108.157436 
L 250.542003 -106.690343 
L 251.137627 -105.246056 
L 251.73325 -103.822563 
L 252.328874 -102.387665 
L 252.924497 -100.997387 
L 253.520121 -99.626129 
L 254.115745 -98.276352 
L 254.711368 -96.943045 
L 255.306992 -95.611591 
L 255.902615 -94.326184 
L 256.498239 -93.073533 
L 257.093862 -91.843062 
L 257.689486 -90.646246 
L 258.285109 -89.462422 
L 258.880733 -88.326817 
L 259.476357 -87.210813 
L 260.07198 -86.12882 
L 260.667604 -85.065787 
L 261.263227 -84.018876 
L 261.858851 -83.008474 
L 262.454474 -82.019121 
L 263.050098 -81.050997 
L 263.645721 -80.113987 
L 264.241345 -79.193228 
L 264.836969 -78.2796 
L 265.432592 -77.411391 
L 266.028216 -76.561226 
L 266.623839 -75.722743 
L 267.219463 -74.917542 
L 267.815086 -74.136707 
L 268.41071 -73.375431 
L 269.006333 -72.640109 
L 269.601957 -71.919637 
L 270.197581 -71.194986 
L 270.793204 -70.509429 
L 271.388828 -69.846355 
L 271.984451 -69.205075 
L 272.580075 -68.568615 
L 273.175698 -67.962244 
L 273.771322 -67.378035 
L 274.366945 -66.802269 
L 274.962569 -66.252386 
L 275.558192 -65.723663 
L 276.153816 -65.215376 
L 276.74944 -64.720274 
L 277.345063 -64.235529 
L 277.940687 -63.775086 
L 278.53631 -63.337243 
L 279.131934 -62.907319 
L 279.727557 -62.496619 
L 280.323181 -62.090867 
L 280.918804 -61.710197 
L 281.514428 -61.348727 
L 282.110052 -60.985004 
L 282.705675 -60.640441 
L 283.301299 -60.307743 
L 283.896922 -59.98945 
L 284.492546 -59.682934 
L 285.088169 -59.373893 
L 285.683793 -59.070057 
L 286.279416 -58.78103 
L 286.87504 -58.50157 
L 287.470664 -58.223989 
L 288.066287 -57.948442 
L 288.661911 -57.678328 
L 289.257534 -57.419742 
L 289.853158 -57.161352 
L 290.448781 -56.903636 
L 291.044405 -56.656884 
L 291.640028 -56.406728 
L 292.235652 -56.170839 
L 292.831276 -55.934426 
L 293.426899 -55.695153 
L 294.022523 -55.470849 
L 294.618146 -55.250137 
L 295.21377 -55.026944 
L 295.809393 -54.819942 
L 296.405017 -54.618572 
L 297.00064 -54.412937 
L 297.596264 -54.217762 
L 298.191888 -54.026184 
L 298.787511 -53.845655 
L 299.383135 -53.669253 
L 299.978758 -53.494521 
L 300.574382 -53.342368 
L 301.170005 -53.187456 
L 301.765629 -53.051369 
L 302.361252 -52.91915 
L 302.956876 -52.798009 
L 303.5525 -52.684013 
L 304.148123 -52.570544 
L 304.743747 -52.471713 
L 305.33937 -52.372887 
L 305.934994 -52.288076 
L 306.530617 -52.205835 
L 307.126241 -52.132976 
L 307.721864 -52.06193 
L 308.317488 -51.999448 
L 308.913112 -51.945822 
L 309.508735 -51.893561 
L 310.104359 -51.844914 
L 310.699982 -51.796245 
L 311.295606 -51.754328 
L 311.891229 -51.714893 
L 312.486853 -51.681585 
L 313.082476 -51.647017 
L 313.6781 -51.610948 
L 314.273724 -51.577015 
L 314.869347 -51.548223 
L 315.464971 -51.517223 
L 316.060594 -51.491043 
L 316.656218 -51.459123 
L 317.251841 -51.43568 
L 317.847465 -51.409552 
L 318.443088 -51.391848 
L 319.038712 -51.37157 
L 319.634336 -51.352085 
L 320.229959 -51.330207 
L 320.825583 -51.313158 
L 321.421206 -51.293824 
L 322.01683 -51.272881 
L 322.612453 -51.257465 
L 323.208077 -51.243656 
L 323.8037 -51.23476 
L 324.399324 -51.226956 
L 324.994948 -51.224298 
L 325.590571 -51.21976 
L 326.186195 -51.216694 
L 326.781818 -51.215148 
L 326.781818 -49.04348 
L 326.781818 -49.04348 
L 326.186195 -49.04348 
L 325.590571 -49.04348 
L 324.994948 -49.04348 
L 324.399324 -49.04348 
L 323.8037 -49.04348 
L 323.208077 -49.04348 
L 322.612453 -49.04348 
L 322.01683 -49.04348 
L 321.421206 -49.04348 
L 320.825583 -49.04348 
L 320.229959 -49.04348 
L 319.634336 -49.04348 
L 319.038712 -49.04348 
L 318.443088 -49.04348 
L 317.847465 -49.04348 
L 317.251841 -49.04348 
L 316.656218 -49.04348 
L 316.060594 -49.04348 
L 315.464971 -49.04348 
L 314.869347 -49.04348 
L 314.273724 -49.04348 
L 313.6781 -49.04348 
L 313.082476 -49.04348 
L 312.486853 -49.04348 
L 311.891229 -49.04348 
L 311.295606 -49.04348 
L 310.699982 -49.04348 
L 310.104359 -49.04348 
L 309.508735 -49.04348 
L 308.913112 -49.04348 
L 308.317488 -49.04348 
L 307.721864 -49.04348 
L 307.126241 -49.04348 
L 306.530617 -49.04348 
L 305.934994 -49.04348 
L 305.33937 -49.04348 
L 304.743747 -49.04348 
L 304.148123 -49.04348 
L 303.5525 -49.04348 
L 302.956876 -49.04348 
L 302.361252 -49.04348 
L 301.765629 -49.04348 
L 301.170005 -49.04348 
L 300.574382 -49.04348 
L 299.978758 -49.04348 
L 299.383135 -49.04348 
L 298.787511 -49.04348 
L 298.191888 -49.04348 
L 297.596264 -49.04348 
L 297.00064 -49.04348 
L 296.405017 -49.04348 
L 295.809393 -49.04348 
L 295.21377 -49.04348 
L 294.618146 -49.04348 
L 294.022523 -49.04348 
L 293.426899 -49.04348 
L 292.831276 -49.04348 
L 292.235652 -49.04348 
L 291.640028 -49.04348 
L 291.044405 -49.04348 
L 290.448781 -49.04348 
L 289.853158 -49.04348 
L 289.257534 -49.04348 
L 288.661911 -49.04348 
L 288.066287 -49.04348 
L 287.470664 -49.04348 
L 286.87504 -49.04348 
L 286.279416 -49.04348 
L 285.683793 -49.04348 
L 285.088169 -49.04348 
L 284.492546 -49.04348 
L 283.896922 -49.04348 
L 283.301299 -49.04348 
L 282.705675 -49.04348 
L 282.110052 -49.04348 
L 281.514428 -49.04348 
L 280.918804 -49.04348 
L 280.323181 -49.04348 
L 279.727557 -49.04348 
L 279.131934 -49.04348 
L 278.53631 -49.04348 
L 277.940687 -49.04348 
L 277.345063 -49.04348 
L 276.74944 -49.04348 
L 276.153816 -49.04348 
L 275.558192 -49.04348 
L 274.962569 -49.04348 
L 274.366945 -49.04348 
L 273.771322 -49.04348 
L 273.175698 -49.04348 
L 272.580075 -49.04348 
L 271.984451 -49.04348 
L 271.388828 -49.04348 
L 270.793204 -49.04348 
L 270.197581 -49.04348 
L 269.601957 -49.04348 
L 269.006333 -49.04348 
L 268.41071 -49.04348 
L 267.815086 -49.04348 
L 267.219463 -49.04348 
L 266.623839 -49.04348 
L 266.028216 -49.04348 
L 265.432592 -49.04348 
L 264.836969 -49.04348 
L 264.241345 -49.04348 
L 263.645721 -49.04348 
L 263.050098 -49.04348 
L 262.454474 -49.04348 
L 261.858851 -49.04348 
L 261.263227 -49.04348 
L 260.667604 -49.04348 
L 260.07198 -49.04348 
L 259.476357 -49.04348 
L 258.880733 -49.04348 
L 258.285109 -49.04348 
L 257.689486 -49.04348 
L 257.093862 -49.04348 
L 256.498239 -49.04348 
L 255.902615 -49.04348 
L 255.306992 -49.04348 
L 254.711368 -49.04348 
L 254.115745 -49.04348 
L 253.520121 -49.04348 
L 252.924497 -49.04348 
L 252.328874 -49.04348 
L 251.73325 -49.04348 
L 251.137627 -49.04348 
L 250.542003 -49.04348 
L 249.94638 -49.04348 
L 249.350756 -49.04348 
L 248.755133 -49.04348 
L 248.159509 -49.04348 
L 247.563885 -49.04348 
L 246.968262 -49.04348 
L 246.372638 -49.04348 
L 245.777015 -49.04348 
L 245.181391 -49.04348 
L 244.585768 -49.04348 
L 243.990144 -49.04348 
L 243.394521 -49.04348 
L 242.798897 -49.04348 
L 242.203273 -49.04348 
L 241.60765 -49.04348 
L 241.012026 -49.04348 
L 240.416403 -49.04348 
L 239.820779 -49.04348 
L 239.225156 -49.04348 
L 238.629532 -49.04348 
L 238.033909 -49.04348 
L 237.438285 -49.04348 
L 236.842661 -49.04348 
L 236.247038 -49.04348 
L 235.651414 -49.04348 
L 235.055791 -49.04348 
L 234.460167 -49.04348 
L 233.864544 -49.04348 
L 233.26892 -49.04348 
L 232.673297 -49.04348 
L 232.077673 -49.04348 
L 231.482049 -49.04348 
L 230.886426 -49.04348 
L 230.290802 -49.04348 
L 229.695179 -49.04348 
L 229.099555 -49.04348 
L 228.503932 -49.04348 
L 227.908308 -49.04348 
L 227.312685 -49.04348 
L 226.717061 -49.04348 
L 226.121437 -49.04348 
L 225.525814 -49.04348 
L 224.93019 -49.04348 
L 224.334567 -49.04348 
L 223.738943 -49.04348 
L 223.14332 -49.04348 
L 222.547696 -49.04348 
L 221.952073 -49.04348 
L 221.356449 -49.04348 
L 220.760825 -49.04348 
L 220.165202 -49.04348 
L 219.569578 -49.04348 
L 218.973955 -49.04348 
L 218.378331 -49.04348 
L 217.782708 -49.04348 
L 217.187084 -49.04348 
L 216.591461 -49.04348 
L 215.995837 -49.04348 
L 215.400213 -49.04348 
L 214.80459 -49.04348 
L 214.208966 -49.04348 
L 213.613343 -49.04348 
L 213.017719 -49.04348 
L 212.422096 -49.04348 
L 211.826472 -49.04348 
L 211.230849 -49.04348 
L 210.635225 -49.04348 
L 210.039601 -49.04348 
L 209.443978 -49.04348 
L 208.848354 -49.04348 
L 208.252731 -49.04348 
L 207.657107 -49.04348 
L 207.061484 -49.04348 
L 206.46586 -49.04348 
L 205.870237 -49.04348 
L 205.274613 -49.04348 
L 204.67899 -49.04348 
L 204.083366 -49.04348 
L 203.487742 -49.04348 
L 202.892119 -49.04348 
L 202.296495 -49.04348 
L 201.700872 -49.04348 
L 201.105248 -49.04348 
L 200.509625 -49.04348 
L 199.914001 -49.04348 
L 199.318378 -49.04348 
L 198.722754 -49.04348 
L 198.12713 -49.04348 
L 197.531507 -49.04348 
L 196.935883 -49.04348 
L 196.34026 -49.04348 
L 195.744636 -49.04348 
L 195.149013 -49.04348 
L 194.553389 -49.04348 
L 193.957766 -49.04348 
L 193.362142 -49.04348 
L 192.766518 -49.04348 
L 192.170895 -49.04348 
L 191.575271 -49.04348 
L 190.979648 -49.04348 
L 190.384024 -49.04348 
L 189.788401 -49.04348 
L 189.192777 -49.04348 
L 188.597154 -49.04348 
L 188.00153 -49.04348 
L 187.405906 -49.04348 
L 186.810283 -49.04348 
L 186.214659 -49.04348 
L 185.619036 -49.04348 
L 185.023412 -49.04348 
L 184.427789 -49.04348 
L 183.832165 -49.04348 
L 183.236542 -49.04348 
L 182.640918 -49.04348 
L 182.045294 -49.04348 
L 181.449671 -49.04348 
L 180.854047 -49.04348 
L 180.258424 -49.04348 
L 179.6628 -49.04348 
L 179.067177 -49.04348 
L 178.471553 -49.04348 
L 177.87593 -49.04348 
L 177.280306 -49.04348 
L 176.684682 -49.04348 
L 176.089059 -49.04348 
L 175.493435 -49.04348 
L 174.897812 -49.04348 
L 174.302188 -49.04348 
L 173.706565 -49.04348 
L 173.110941 -49.04348 
L 172.515318 -49.04348 
L 171.919694 -49.04348 
L 171.32407 -49.04348 
L 170.728447 -49.04348 
L 170.132823 -49.04348 
L 169.5372 -49.04348 
L 168.941576 -49.04348 
L 168.345953 -49.04348 
L 167.750329 -49.04348 
L 167.154706 -49.04348 
L 166.559082 -49.04348 
L 165.963458 -49.04348 
L 165.367835 -49.04348 
L 164.772211 -49.04348 
L 164.176588 -49.04348 
L 163.580964 -49.04348 
L 162.985341 -49.04348 
L 162.389717 -49.04348 
L 161.794094 -49.04348 
L 161.19847 -49.04348 
L 160.602846 -49.04348 
L 160.007223 -49.04348 
L 159.411599 -49.04348 
L 158.815976 -49.04348 
L 158.220352 -49.04348 
L 157.624729 -49.04348 
L 157.029105 -49.04348 
L 156.433482 -49.04348 
L 155.837858 -49.04348 
L 155.242234 -49.04348 
L 154.646611 -49.04348 
L 154.050987 -49.04348 
L 153.455364 -49.04348 
L 152.85974 -49.04348 
L 152.264117 -49.04348 
L 151.668493 -49.04348 
L 151.07287 -49.04348 
L 150.477246 -49.04348 
L 149.881622 -49.04348 
L 149.285999 -49.04348 
L 148.690375 -49.04348 
L 148.094752 -49.04348 
L 147.499128 -49.04348 
L 146.903505 -49.04348 
L 146.307881 -49.04348 
L 145.712258 -49.04348 
L 145.116634 -49.04348 
L 144.52101 -49.04348 
L 143.925387 -49.04348 
L 143.329763 -49.04348 
L 142.73414 -49.04348 
L 142.138516 -49.04348 
L 141.542893 -49.04348 
L 140.947269 -49.04348 
L 140.351646 -49.04348 
L 139.756022 -49.04348 
L 139.160399 -49.04348 
L 138.564775 -49.04348 
L 137.969151 -49.04348 
L 137.373528 -49.04348 
L 136.777904 -49.04348 
L 136.182281 -49.04348 
L 135.586657 -49.04348 
L 134.991034 -49.04348 
L 134.39541 -49.04348 
L 133.799787 -49.04348 
L 133.204163 -49.04348 
L 132.608539 -49.04348 
L 132.012916 -49.04348 
L 131.417292 -49.04348 
L 130.821669 -49.04348 
L 130.226045 -49.04348 
L 129.630422 -49.04348 
L 129.034798 -49.04348 
L 128.439175 -49.04348 
L 127.843551 -49.04348 
L 127.247927 -49.04348 
L 126.652304 -49.04348 
L 126.05668 -49.04348 
L 125.461057 -49.04348 
L 124.865433 -49.04348 
L 124.26981 -49.04348 
L 123.674186 -49.04348 
L 123.078563 -49.04348 
L 122.482939 -49.04348 
L 121.887315 -49.04348 
L 121.291692 -49.04348 
L 120.696068 -49.04348 
L 120.100445 -49.04348 
L 119.504821 -49.04348 
L 118.909198 -49.04348 
L 118.313574 -49.04348 
L 117.717951 -49.04348 
L 117.122327 -49.04348 
L 116.526703 -49.04348 
L 115.93108 -49.04348 
L 115.335456 -49.04348 
L 114.739833 -49.04348 
L 114.144209 -49.04348 
L 113.548586 -49.04348 
L 112.952962 -49.04348 
L 112.357339 -49.04348 
L 111.761715 -49.04348 
L 111.166091 -49.04348 
L 110.570468 -49.04348 
L 109.974844 -49.04348 
L 109.379221 -49.04348 
L 108.783597 -49.04348 
L 108.187974 -49.04348 
L 107.59235 -49.04348 
L 106.996727 -49.04348 
L 106.401103 -49.04348 
L 105.805479 -49.04348 
L 105.209856 -49.04348 
L 104.614232 -49.04348 
L 104.018609 -49.04348 
L 103.422985 -49.04348 
L 102.827362 -49.04348 
L 102.231738 -49.04348 
L 101.636115 -49.04348 
L 101.040491 -49.04348 
L 100.444867 -49.04348 
L 99.849244 -49.04348 
L 99.25362 -49.04348 
L 98.657997 -49.04348 
L 98.062373 -49.04348 
L 97.46675 -49.04348 
L 96.871126 -49.04348 
L 96.275503 -49.04348 
L 95.679879 -49.04348 
L 95.084255 -49.04348 
L 94.488632 -49.04348 
L 93.893008 -49.04348 
L 93.297385 -49.04348 
L 92.701761 -49.04348 
L 92.106138 -49.04348 
L 91.510514 -49.04348 
L 90.914891 -49.04348 
L 90.319267 -49.04348 
L 89.723643 -49.04348 
L 89.12802 -49.04348 
L 88.532396 -49.04348 
L 87.936773 -49.04348 
L 87.341149 -49.04348 
L 86.745526 -49.04348 
L 86.149902 -49.04348 
L 85.554279 -49.04348 
L 84.958655 -49.04348 
L 84.363031 -49.04348 
L 83.767408 -49.04348 
L 83.171784 -49.04348 
L 82.576161 -49.04348 
L 81.980537 -49.04348 
L 81.384914 -49.04348 
L 80.78929 -49.04348 
L 80.193667 -49.04348 
L 79.598043 -49.04348 
L 79.002419 -49.04348 
L 78.406796 -49.04348 
L 77.811172 -49.04348 
L 77.215549 -49.04348 
L 76.619925 -49.04348 
L 76.024302 -49.04348 
L 75.428678 -49.04348 
L 74.833055 -49.04348 
L 74.237431 -49.04348 
L 73.641808 -49.04348 
L 73.046184 -49.04348 
L 72.45056 -49.04348 
L 71.854937 -49.04348 
L 71.259313 -49.04348 
L 70.66369 -49.04348 
L 70.068066 -49.04348 
L 69.472443 -49.04348 
L 68.876819 -49.04348 
L 68.281196 -49.04348 
L 67.685572 -49.04348 
L 67.089948 -49.04348 
L 66.494325 -49.04348 
L 65.898701 -49.04348 
L 65.303078 -49.04348 
L 64.707454 -49.04348 
L 64.111831 -49.04348 
L 63.516207 -49.04348 
L 62.920584 -49.04348 
L 62.32496 -49.04348 
L 61.729336 -49.04348 
L 61.133713 -49.04348 
L 60.538089 -49.04348 
L 59.942466 -49.04348 
L 59.346842 -49.04348 
L 58.751219 -49.04348 
L 58.155595 -49.04348 
L 57.559972 -49.04348 
L 56.964348 -49.04348 
L 56.368724 -49.04348 
L 55.773101 -49.04348 
L 55.177477 -49.04348 
L 54.581854 -49.04348 
L 53.98623 -49.04348 
L 53.390607 -49.04348 
L 52.794983 -49.04348 
L 52.19936 -49.04348 
L 51.603736 -49.04348 
L 51.008112 -49.04348 
L 50.412489 -49.04348 
L 49.816865 -49.04348 
L 49.221242 -49.04348 
L 48.625618 -49.04348 
L 48.029995 -49.04348 
L 47.434371 -49.04348 
L 46.838748 -49.04348 
L 46.243124 -49.04348 
L 45.6475 -49.04348 
L 45.051877 -49.04348 
L 44.456253 -49.04348 
L 43.86063 -49.04348 
L 43.265006 -49.04348 
L 42.669383 -49.04348 
L 42.073759 -49.04348 
L 41.478136 -49.04348 
L 40.882512 -49.04348 
L 40.286888 -49.04348 
L 39.691265 -49.04348 
L 39.095641 -49.04348 
L 38.500018 -49.04348 
L 37.904394 -49.04348 
L 37.308771 -49.04348 
L 36.713147 -49.04348 
L 36.117524 -49.04348 
L 35.5219 -49.04348 
L 34.926276 -49.04348 
L 34.330653 -49.04348 
L 33.735029 -49.04348 
L 33.139406 -49.04348 
L 32.543782 -49.04348 
L 31.948159 -49.04348 
L 31.352535 -49.04348 
L 30.756912 -49.04348 
L 30.161288 -49.04348 
L 29.565664 -49.04348 
L 28.970041 -49.04348 
L 28.374417 -49.04348 
L 27.778794 -49.04348 
L 27.18317 -49.04348 
L 26.587547 -49.04348 
L 25.991923 -49.04348 
L 25.3963 -49.04348 
L 24.800676 -49.04348 
L 24.205052 -49.04348 
L 23.609429 -49.04348 
L 23.013805 -49.04348 
L 22.418182 -49.04348 
z
" id="m8f09ed9e06" style="stroke:#0173b2;stroke-opacity:0;"/>
    </defs>
    <g clip-path="url(#p194a93f8c3)">
     <use style="fill:#0173b2;fill-opacity:0;stroke:#0173b2;stroke-opacity:0;" x="0" xlink:href="#m8f09ed9e06" y="263.799844"/>
    </g>
   </g>
   <g id="line2d_7">
    <path clip-path="url(#p194a93f8c3)" d="M 22.418182 212.635227 
L 30.756912 212.378894 
L 34.926276 211.99965 
L 38.500018 211.440719 
L 42.073759 210.636797 
L 45.6475 209.582498 
L 49.221242 208.326132 
L 58.155595 204.810569 
L 61.729336 203.198761 
L 64.707454 201.551348 
L 66.494325 200.322753 
L 68.281196 198.886392 
L 70.66369 196.574393 
L 73.046184 193.791847 
L 75.428678 190.57044 
L 78.406796 185.978656 
L 81.980537 180.009178 
L 95.679879 156.242234 
L 99.25362 149.73528 
L 102.231738 143.804609 
L 105.209856 137.322449 
L 107.59235 131.593456 
L 110.570468 123.712519 
L 113.548586 115.036981 
L 116.526703 105.509134 
L 120.100445 93.243941 
L 126.05668 72.762383 
L 128.439175 65.285416 
L 130.226045 60.240256 
L 132.012916 55.774325 
L 133.799787 51.905293 
L 134.991034 49.642793 
L 136.777904 46.794307 
L 137.969151 45.124781 
L 139.756022 43.047311 
L 142.73414 40.150562 
L 148.094752 35.260768 
L 151.07287 32.175507 
L 161.19847 20.784888 
L 162.985341 19.292468 
L 164.772211 18.126296 
L 166.559082 17.390342 
L 167.750329 17.127274 
L 168.941576 17.132389 
L 170.132823 17.340809 
L 171.32407 17.749268 
L 172.515318 18.404058 
L 173.706565 19.282624 
L 174.897812 20.368388 
L 176.684682 22.390486 
L 179.067177 25.539895 
L 184.427789 33.181545 
L 186.810283 36.155331 
L 188.597154 38.074102 
L 190.384024 39.752126 
L 192.766518 41.600776 
L 196.34026 44.200121 
L 198.12713 45.699065 
L 199.318378 46.859182 
L 201.105248 48.968416 
L 202.892119 51.534672 
L 204.67899 54.673319 
L 206.46586 58.357937 
L 208.252731 62.605675 
L 210.039601 67.233957 
L 212.422096 73.848857 
L 218.973955 92.471709 
L 221.356449 98.425583 
L 223.738943 103.751492 
L 225.525814 107.230694 
L 227.908308 111.349965 
L 230.886426 116.047235 
L 235.055791 122.69563 
L 237.438285 126.867145 
L 239.820779 131.531334 
L 242.203273 136.743584 
L 245.181391 143.788604 
L 254.115745 165.523492 
L 257.093862 171.956782 
L 259.476357 176.58903 
L 262.454474 181.780723 
L 264.836969 185.520244 
L 267.219463 188.882301 
L 270.197581 192.604858 
L 272.580075 195.231229 
L 274.962569 197.547458 
L 277.345063 199.564314 
L 279.727557 201.303224 
L 282.110052 202.81484 
L 285.088169 204.42595 
L 288.066287 205.851402 
L 292.235652 207.629005 
L 296.405017 209.181272 
L 299.978758 210.305322 
L 303.5525 211.115831 
L 306.530617 211.594009 
L 310.699982 212.003599 
L 317.251841 212.364164 
L 324.399324 212.572888 
L 326.781818 212.584695 
L 326.781818 212.584695 
" style="fill:none;stroke:#0173b2;stroke-linecap:round;stroke-width:1.5;"/>
   </g>
   <g id="line2d_8">
    <path clip-path="url(#p194a93f8c3)" d="M 123.686854 210.605236 
L 215.858887 210.605236 
" style="fill:none;stroke:#000000;stroke-width:3;"/>
   </g>
   <g id="patch_3">
    <path d="M 7.2 224.64 
L 342 224.64 
" style="fill:none;stroke:#808080;stroke-linecap:square;stroke-linejoin:miter;stroke-width:1.25;"/>
   </g>
   <g id="text_8">
    <!-- 2.19  -->
    <g style="fill:#262626;" transform="translate(96.999979 200.227418)scale(0.12 -0.12)">
     <defs>
      <path d="M 350 1059 
L 891 1109 
Q 959 728 1153 556 
Q 1347 384 1650 384 
Q 1909 384 2104 503 
Q 2300 622 2425 820 
Q 2550 1019 2634 1356 
Q 2719 1694 2719 2044 
Q 2719 2081 2716 2156 
Q 2547 1888 2255 1720 
Q 1963 1553 1622 1553 
Q 1053 1553 659 1965 
Q 266 2378 266 3053 
Q 266 3750 677 4175 
Q 1088 4600 1706 4600 
Q 2153 4600 2523 4359 
Q 2894 4119 3086 3673 
Q 3278 3228 3278 2384 
Q 3278 1506 3087 986 
Q 2897 466 2520 194 
Q 2144 -78 1638 -78 
Q 1100 -78 759 220 
Q 419 519 350 1059 
z
M 2653 3081 
Q 2653 3566 2395 3850 
Q 2138 4134 1775 4134 
Q 1400 4134 1122 3828 
Q 844 3522 844 3034 
Q 844 2597 1108 2323 
Q 1372 2050 1759 2050 
Q 2150 2050 2401 2323 
Q 2653 2597 2653 3081 
z
" id="ArialMT-39" transform="scale(0.015625)"/>
     </defs>
     <use xlink:href="#ArialMT-32"/>
     <use x="55.615234" xlink:href="#ArialMT-2e"/>
     <use x="83.398438" xlink:href="#ArialMT-31"/>
     <use x="139.013672" xlink:href="#ArialMT-39"/>
     <use x="194.628906" xlink:href="#ArialMT-20"/>
    </g>
   </g>
   <g id="text_9">
    <!--  2.35 -->
    <g style="fill:#262626;" transform="translate(215.858887 200.227418)scale(0.12 -0.12)">
     <use xlink:href="#ArialMT-20"/>
     <use x="27.783203" xlink:href="#ArialMT-32"/>
     <use x="83.398438" xlink:href="#ArialMT-2e"/>
     <use x="111.181641" xlink:href="#ArialMT-33"/>
     <use x="166.796875" xlink:href="#ArialMT-35"/>
    </g>
   </g>
   <g id="text_10">
    <!-- 68% HDI -->
    <g style="fill:#262626;" transform="translate(145.764433 152.489455)scale(0.12 -0.12)">
     <defs>
      <path d="M 3184 3459 
L 2625 3416 
Q 2550 3747 2413 3897 
Q 2184 4138 1850 4138 
Q 1581 4138 1378 3988 
Q 1113 3794 959 3422 
Q 806 3050 800 2363 
Q 1003 2672 1297 2822 
Q 1591 2972 1913 2972 
Q 2475 2972 2870 2558 
Q 3266 2144 3266 1488 
Q 3266 1056 3080 686 
Q 2894 316 2569 119 
Q 2244 -78 1831 -78 
Q 1128 -78 684 439 
Q 241 956 241 2144 
Q 241 3472 731 4075 
Q 1159 4600 1884 4600 
Q 2425 4600 2770 4297 
Q 3116 3994 3184 3459 
z
M 888 1484 
Q 888 1194 1011 928 
Q 1134 663 1356 523 
Q 1578 384 1822 384 
Q 2178 384 2434 671 
Q 2691 959 2691 1453 
Q 2691 1928 2437 2201 
Q 2184 2475 1800 2475 
Q 1419 2475 1153 2201 
Q 888 1928 888 1484 
z
" id="ArialMT-36" transform="scale(0.015625)"/>
      <path d="M 1131 2484 
Q 781 2613 612 2850 
Q 444 3088 444 3419 
Q 444 3919 803 4259 
Q 1163 4600 1759 4600 
Q 2359 4600 2725 4251 
Q 3091 3903 3091 3403 
Q 3091 3084 2923 2848 
Q 2756 2613 2416 2484 
Q 2838 2347 3058 2040 
Q 3278 1734 3278 1309 
Q 3278 722 2862 322 
Q 2447 -78 1769 -78 
Q 1091 -78 675 323 
Q 259 725 259 1325 
Q 259 1772 486 2073 
Q 713 2375 1131 2484 
z
M 1019 3438 
Q 1019 3113 1228 2906 
Q 1438 2700 1772 2700 
Q 2097 2700 2305 2904 
Q 2513 3109 2513 3406 
Q 2513 3716 2298 3927 
Q 2084 4138 1766 4138 
Q 1444 4138 1231 3931 
Q 1019 3725 1019 3438 
z
M 838 1322 
Q 838 1081 952 856 
Q 1066 631 1291 507 
Q 1516 384 1775 384 
Q 2178 384 2440 643 
Q 2703 903 2703 1303 
Q 2703 1709 2433 1975 
Q 2163 2241 1756 2241 
Q 1359 2241 1098 1978 
Q 838 1716 838 1322 
z
" id="ArialMT-38" transform="scale(0.015625)"/>
      <path d="M 372 3481 
Q 372 3972 619 4315 
Q 866 4659 1334 4659 
Q 1766 4659 2048 4351 
Q 2331 4044 2331 3447 
Q 2331 2866 2045 2552 
Q 1759 2238 1341 2238 
Q 925 2238 648 2547 
Q 372 2856 372 3481 
z
M 1350 4272 
Q 1141 4272 1002 4090 
Q 863 3909 863 3425 
Q 863 2984 1003 2804 
Q 1144 2625 1350 2625 
Q 1563 2625 1702 2806 
Q 1841 2988 1841 3469 
Q 1841 3913 1700 4092 
Q 1559 4272 1350 4272 
z
M 1353 -169 
L 3859 4659 
L 4316 4659 
L 1819 -169 
L 1353 -169 
z
M 3334 1075 
Q 3334 1569 3581 1911 
Q 3828 2253 4300 2253 
Q 4731 2253 5014 1945 
Q 5297 1638 5297 1041 
Q 5297 459 5011 145 
Q 4725 -169 4303 -169 
Q 3888 -169 3611 142 
Q 3334 453 3334 1075 
z
M 4316 1866 
Q 4103 1866 3964 1684 
Q 3825 1503 3825 1019 
Q 3825 581 3965 400 
Q 4106 219 4313 219 
Q 4528 219 4667 400 
Q 4806 581 4806 1063 
Q 4806 1506 4665 1686 
Q 4525 1866 4316 1866 
z
" id="ArialMT-25" transform="scale(0.015625)"/>
      <path d="M 513 0 
L 513 4581 
L 1119 4581 
L 1119 2700 
L 3500 2700 
L 3500 4581 
L 4106 4581 
L 4106 0 
L 3500 0 
L 3500 2159 
L 1119 2159 
L 1119 0 
L 513 0 
z
" id="ArialMT-48" transform="scale(0.015625)"/>
      <path d="M 494 0 
L 494 4581 
L 2072 4581 
Q 2606 4581 2888 4516 
Q 3281 4425 3559 4188 
Q 3922 3881 4101 3404 
Q 4281 2928 4281 2316 
Q 4281 1794 4159 1391 
Q 4038 988 3847 723 
Q 3656 459 3429 307 
Q 3203 156 2883 78 
Q 2563 0 2147 0 
L 494 0 
z
M 1100 541 
L 2078 541 
Q 2531 541 2789 625 
Q 3047 709 3200 863 
Q 3416 1078 3536 1442 
Q 3656 1806 3656 2325 
Q 3656 3044 3420 3430 
Q 3184 3816 2847 3947 
Q 2603 4041 2063 4041 
L 1100 4041 
L 1100 541 
z
" id="ArialMT-44" transform="scale(0.015625)"/>
      <path d="M 597 0 
L 597 4581 
L 1203 4581 
L 1203 0 
L 597 0 
z
" id="ArialMT-49" transform="scale(0.015625)"/>
     </defs>
     <use xlink:href="#ArialMT-36"/>
     <use x="55.615234" xlink:href="#ArialMT-38"/>
     <use x="111.230469" xlink:href="#ArialMT-25"/>
     <use x="200.146484" xlink:href="#ArialMT-20"/>
     <use x="227.929688" xlink:href="#ArialMT-48"/>
     <use x="300.146484" xlink:href="#ArialMT-44"/>
     <use x="372.363281" xlink:href="#ArialMT-49"/>
    </g>
   </g>
   <g id="text_11">
    <!-- median=2.27 -->
    <g style="fill:#262626;" transform="translate(136.281286 48.711273)scale(0.12 -0.12)">
     <defs>
      <path d="M 422 0 
L 422 3319 
L 925 3319 
L 925 2853 
Q 1081 3097 1340 3245 
Q 1600 3394 1931 3394 
Q 2300 3394 2536 3241 
Q 2772 3088 2869 2813 
Q 3263 3394 3894 3394 
Q 4388 3394 4653 3120 
Q 4919 2847 4919 2278 
L 4919 0 
L 4359 0 
L 4359 2091 
Q 4359 2428 4304 2576 
Q 4250 2725 4106 2815 
Q 3963 2906 3769 2906 
Q 3419 2906 3187 2673 
Q 2956 2441 2956 1928 
L 2956 0 
L 2394 0 
L 2394 2156 
Q 2394 2531 2256 2718 
Q 2119 2906 1806 2906 
Q 1569 2906 1367 2781 
Q 1166 2656 1075 2415 
Q 984 2175 984 1722 
L 984 0 
L 422 0 
z
" id="ArialMT-6d" transform="scale(0.015625)"/>
      <path d="M 2694 1069 
L 3275 997 
Q 3138 488 2766 206 
Q 2394 -75 1816 -75 
Q 1088 -75 661 373 
Q 234 822 234 1631 
Q 234 2469 665 2931 
Q 1097 3394 1784 3394 
Q 2450 3394 2872 2941 
Q 3294 2488 3294 1666 
Q 3294 1616 3291 1516 
L 816 1516 
Q 847 969 1125 678 
Q 1403 388 1819 388 
Q 2128 388 2347 550 
Q 2566 713 2694 1069 
z
M 847 1978 
L 2700 1978 
Q 2663 2397 2488 2606 
Q 2219 2931 1791 2931 
Q 1403 2931 1139 2672 
Q 875 2413 847 1978 
z
" id="ArialMT-65" transform="scale(0.015625)"/>
      <path d="M 2575 0 
L 2575 419 
Q 2259 -75 1647 -75 
Q 1250 -75 917 144 
Q 584 363 401 755 
Q 219 1147 219 1656 
Q 219 2153 384 2558 
Q 550 2963 881 3178 
Q 1213 3394 1622 3394 
Q 1922 3394 2156 3267 
Q 2391 3141 2538 2938 
L 2538 4581 
L 3097 4581 
L 3097 0 
L 2575 0 
z
M 797 1656 
Q 797 1019 1065 703 
Q 1334 388 1700 388 
Q 2069 388 2326 689 
Q 2584 991 2584 1609 
Q 2584 2291 2321 2609 
Q 2059 2928 1675 2928 
Q 1300 2928 1048 2622 
Q 797 2316 797 1656 
z
" id="ArialMT-64" transform="scale(0.015625)"/>
      <path d="M 425 3934 
L 425 4581 
L 988 4581 
L 988 3934 
L 425 3934 
z
M 425 0 
L 425 3319 
L 988 3319 
L 988 0 
L 425 0 
z
" id="ArialMT-69" transform="scale(0.015625)"/>
      <path d="M 2588 409 
Q 2275 144 1986 34 
Q 1697 -75 1366 -75 
Q 819 -75 525 192 
Q 231 459 231 875 
Q 231 1119 342 1320 
Q 453 1522 633 1644 
Q 813 1766 1038 1828 
Q 1203 1872 1538 1913 
Q 2219 1994 2541 2106 
Q 2544 2222 2544 2253 
Q 2544 2597 2384 2738 
Q 2169 2928 1744 2928 
Q 1347 2928 1158 2789 
Q 969 2650 878 2297 
L 328 2372 
Q 403 2725 575 2942 
Q 747 3159 1072 3276 
Q 1397 3394 1825 3394 
Q 2250 3394 2515 3294 
Q 2781 3194 2906 3042 
Q 3031 2891 3081 2659 
Q 3109 2516 3109 2141 
L 3109 1391 
Q 3109 606 3145 398 
Q 3181 191 3288 0 
L 2700 0 
Q 2613 175 2588 409 
z
M 2541 1666 
Q 2234 1541 1622 1453 
Q 1275 1403 1131 1340 
Q 988 1278 909 1158 
Q 831 1038 831 891 
Q 831 666 1001 516 
Q 1172 366 1500 366 
Q 1825 366 2078 508 
Q 2331 650 2450 897 
Q 2541 1088 2541 1459 
L 2541 1666 
z
" id="ArialMT-61" transform="scale(0.015625)"/>
      <path d="M 422 0 
L 422 3319 
L 928 3319 
L 928 2847 
Q 1294 3394 1984 3394 
Q 2284 3394 2536 3286 
Q 2788 3178 2913 3003 
Q 3038 2828 3088 2588 
Q 3119 2431 3119 2041 
L 3119 0 
L 2556 0 
L 2556 2019 
Q 2556 2363 2490 2533 
Q 2425 2703 2258 2804 
Q 2091 2906 1866 2906 
Q 1506 2906 1245 2678 
Q 984 2450 984 1813 
L 984 0 
L 422 0 
z
" id="ArialMT-6e" transform="scale(0.015625)"/>
      <path d="M 3381 2694 
L 356 2694 
L 356 3219 
L 3381 3219 
L 3381 2694 
z
M 3381 1303 
L 356 1303 
L 356 1828 
L 3381 1828 
L 3381 1303 
z
" id="ArialMT-3d" transform="scale(0.015625)"/>
      <path d="M 303 3981 
L 303 4522 
L 3269 4522 
L 3269 4084 
Q 2831 3619 2401 2847 
Q 1972 2075 1738 1259 
Q 1569 684 1522 0 
L 944 0 
Q 953 541 1156 1306 
Q 1359 2072 1739 2783 
Q 2119 3494 2547 3981 
L 303 3981 
z
" id="ArialMT-37" transform="scale(0.015625)"/>
     </defs>
     <use xlink:href="#ArialMT-6d"/>
     <use x="83.300781" xlink:href="#ArialMT-65"/>
     <use x="138.916016" xlink:href="#ArialMT-64"/>
     <use x="194.53125" xlink:href="#ArialMT-69"/>
     <use x="216.748047" xlink:href="#ArialMT-61"/>
     <use x="272.363281" xlink:href="#ArialMT-6e"/>
     <use x="327.978516" xlink:href="#ArialMT-3d"/>
     <use x="386.376953" xlink:href="#ArialMT-32"/>
     <use x="441.992188" xlink:href="#ArialMT-2e"/>
     <use x="469.775391" xlink:href="#ArialMT-32"/>
     <use x="525.390625" xlink:href="#ArialMT-37"/>
    </g>
   </g>
  </g>
 </g>
 <defs>
  <clipPath id="p194a93f8c3">
   <rect height="217.44" width="334.8" x="7.2" y="7.2"/>
  </clipPath>
 </defs>
</svg>
