<?xml version="1.0" encoding="utf-8" standalone="no"?>
<!DOCTYPE svg PUBLIC "-//W3C//DTD SVG 1.1//EN"
  "http://www.w3.org/Graphics/SVG/1.1/DTD/svg11.dtd">
<svg height="263.799844pt" version="1.1" viewBox="0 0 349.2 263.799844" width="349.2pt" xmlns="http://www.w3.org/2000/svg" xmlns:xlink="http://www.w3.org/1999/xlink">
 <metadata>
  <rdf:RDF xmlns:cc="http://creativecommons.org/ns#" xmlns:dc="http://purl.org/dc/elements/1.1/" xmlns:rdf="http://www.w3.org/1999/02/22-rdf-syntax-ns#">
   <cc:Work>
    <dc:type rdf:resource="http://purl.org/dc/dcmitype/StillImage"/>
    <dc:date>2021-11-05T08:31:15.626606</dc:date>
    <dc:format>image/svg+xml</dc:format>
    <dc:creator>
     <cc:Agent>
      <dc:title>Matplotlib v3.4.3, https://matplotlib.org/</dc:title>
     </cc:Agent>
    </dc:creator>
   </cc:Work>
  </rdf:RDF>
 </metadata>
 <defs>
  <style type="text/css">*{stroke-linecap:butt;stroke-linejoin:round;}</style>
 </defs>
 <g id="figure_1">
  <g id="patch_1">
   <path d="M 0 263.799844 
L 349.2 263.799844 
L 349.2 0 
L 0 0 
z
" style="fill:#ffffff;"/>
  </g>
  <g id="axes_1">
   <g id="patch_2">
    <path d="M 7.2 224.64 
L 342 224.64 
L 342 7.2 
L 7.2 7.2 
z
" style="fill:#ffffff;"/>
   </g>
   <g id="matplotlib.axis_1">
    <g id="xtick_1">
     <g id="line2d_1">
      <defs>
       <path d="M 0 0 
L 0 3 
" id="ma3b63f7c20" style="stroke:#808080;"/>
      </defs>
      <g>
       <use style="fill:#808080;stroke:#808080;" x="29.492074" xlink:href="#ma3b63f7c20" y="224.64"/>
      </g>
     </g>
     <g id="text_1">
      <!-- 2.0 -->
      <g style="fill:#262626;" transform="translate(21.847074 239.013594)scale(0.11 -0.11)">
       <defs>
        <path d="M 3222 541 
L 3222 0 
L 194 0 
Q 188 203 259 391 
Q 375 700 629 1000 
Q 884 1300 1366 1694 
Q 2113 2306 2375 2664 
Q 2638 3022 2638 3341 
Q 2638 3675 2398 3904 
Q 2159 4134 1775 4134 
Q 1369 4134 1125 3890 
Q 881 3647 878 3216 
L 300 3275 
Q 359 3922 746 4261 
Q 1134 4600 1788 4600 
Q 2447 4600 2831 4234 
Q 3216 3869 3216 3328 
Q 3216 3053 3103 2787 
Q 2991 2522 2730 2228 
Q 2469 1934 1863 1422 
Q 1356 997 1212 845 
Q 1069 694 975 541 
L 3222 541 
z
" id="ArialMT-32" transform="scale(0.015625)"/>
        <path d="M 581 0 
L 581 641 
L 1222 641 
L 1222 0 
L 581 0 
z
" id="ArialMT-2e" transform="scale(0.015625)"/>
        <path d="M 266 2259 
Q 266 3072 433 3567 
Q 600 4063 929 4331 
Q 1259 4600 1759 4600 
Q 2128 4600 2406 4451 
Q 2684 4303 2865 4023 
Q 3047 3744 3150 3342 
Q 3253 2941 3253 2259 
Q 3253 1453 3087 958 
Q 2922 463 2592 192 
Q 2263 -78 1759 -78 
Q 1097 -78 719 397 
Q 266 969 266 2259 
z
M 844 2259 
Q 844 1131 1108 757 
Q 1372 384 1759 384 
Q 2147 384 2411 759 
Q 2675 1134 2675 2259 
Q 2675 3391 2411 3762 
Q 2147 4134 1753 4134 
Q 1366 4134 1134 3806 
Q 844 3388 844 2259 
z
" id="ArialMT-30" transform="scale(0.015625)"/>
       </defs>
       <use xlink:href="#ArialMT-32"/>
       <use x="55.615234" xlink:href="#ArialMT-2e"/>
       <use x="83.398438" xlink:href="#ArialMT-30"/>
      </g>
     </g>
    </g>
    <g id="xtick_2">
     <g id="line2d_2">
      <g>
       <use style="fill:#808080;stroke:#808080;" x="78.09269" xlink:href="#ma3b63f7c20" y="224.64"/>
      </g>
     </g>
     <g id="text_2">
      <!-- 2.1 -->
      <g style="fill:#262626;" transform="translate(70.44769 239.013594)scale(0.11 -0.11)">
       <defs>
        <path d="M 2384 0 
L 1822 0 
L 1822 3584 
Q 1619 3391 1289 3197 
Q 959 3003 697 2906 
L 697 3450 
Q 1169 3672 1522 3987 
Q 1875 4303 2022 4600 
L 2384 4600 
L 2384 0 
z
" id="ArialMT-31" transform="scale(0.015625)"/>
       </defs>
       <use xlink:href="#ArialMT-32"/>
       <use x="55.615234" xlink:href="#ArialMT-2e"/>
       <use x="83.398438" xlink:href="#ArialMT-31"/>
      </g>
     </g>
    </g>
    <g id="xtick_3">
     <g id="line2d_3">
      <g>
       <use style="fill:#808080;stroke:#808080;" x="126.693307" xlink:href="#ma3b63f7c20" y="224.64"/>
      </g>
     </g>
     <g id="text_3">
      <!-- 2.2 -->
      <g style="fill:#262626;" transform="translate(119.048307 239.013594)scale(0.11 -0.11)">
       <use xlink:href="#ArialMT-32"/>
       <use x="55.615234" xlink:href="#ArialMT-2e"/>
       <use x="83.398438" xlink:href="#ArialMT-32"/>
      </g>
     </g>
    </g>
    <g id="xtick_4">
     <g id="line2d_4">
      <g>
       <use style="fill:#808080;stroke:#808080;" x="175.293923" xlink:href="#ma3b63f7c20" y="224.64"/>
      </g>
     </g>
     <g id="text_4">
      <!-- 2.3 -->
      <g style="fill:#262626;" transform="translate(167.648923 239.013594)scale(0.11 -0.11)">
       <defs>
        <path d="M 269 1209 
L 831 1284 
Q 928 806 1161 595 
Q 1394 384 1728 384 
Q 2125 384 2398 659 
Q 2672 934 2672 1341 
Q 2672 1728 2419 1979 
Q 2166 2231 1775 2231 
Q 1616 2231 1378 2169 
L 1441 2663 
Q 1497 2656 1531 2656 
Q 1891 2656 2178 2843 
Q 2466 3031 2466 3422 
Q 2466 3731 2256 3934 
Q 2047 4138 1716 4138 
Q 1388 4138 1169 3931 
Q 950 3725 888 3313 
L 325 3413 
Q 428 3978 793 4289 
Q 1159 4600 1703 4600 
Q 2078 4600 2393 4439 
Q 2709 4278 2876 4000 
Q 3044 3722 3044 3409 
Q 3044 3113 2884 2869 
Q 2725 2625 2413 2481 
Q 2819 2388 3044 2092 
Q 3269 1797 3269 1353 
Q 3269 753 2831 336 
Q 2394 -81 1725 -81 
Q 1122 -81 723 278 
Q 325 638 269 1209 
z
" id="ArialMT-33" transform="scale(0.015625)"/>
       </defs>
       <use xlink:href="#ArialMT-32"/>
       <use x="55.615234" xlink:href="#ArialMT-2e"/>
       <use x="83.398438" xlink:href="#ArialMT-33"/>
      </g>
     </g>
    </g>
    <g id="xtick_5">
     <g id="line2d_5">
      <g>
       <use style="fill:#808080;stroke:#808080;" x="223.89454" xlink:href="#ma3b63f7c20" y="224.64"/>
      </g>
     </g>
     <g id="text_5">
      <!-- 2.4 -->
      <g style="fill:#262626;" transform="translate(216.24954 239.013594)scale(0.11 -0.11)">
       <defs>
        <path d="M 2069 0 
L 2069 1097 
L 81 1097 
L 81 1613 
L 2172 4581 
L 2631 4581 
L 2631 1613 
L 3250 1613 
L 3250 1097 
L 2631 1097 
L 2631 0 
L 2069 0 
z
M 2069 1613 
L 2069 3678 
L 634 1613 
L 2069 1613 
z
" id="ArialMT-34" transform="scale(0.015625)"/>
       </defs>
       <use xlink:href="#ArialMT-32"/>
       <use x="55.615234" xlink:href="#ArialMT-2e"/>
       <use x="83.398438" xlink:href="#ArialMT-34"/>
      </g>
     </g>
    </g>
    <g id="xtick_6">
     <g id="line2d_6">
      <g>
       <use style="fill:#808080;stroke:#808080;" x="272.495156" xlink:href="#ma3b63f7c20" y="224.64"/>
      </g>
     </g>
     <g id="text_6">
      <!-- 2.5 -->
      <g style="fill:#262626;" transform="translate(264.850156 239.013594)scale(0.11 -0.11)">
       <defs>
        <path d="M 266 1200 
L 856 1250 
Q 922 819 1161 601 
Q 1400 384 1738 384 
Q 2144 384 2425 690 
Q 2706 997 2706 1503 
Q 2706 1984 2436 2262 
Q 2166 2541 1728 2541 
Q 1456 2541 1237 2417 
Q 1019 2294 894 2097 
L 366 2166 
L 809 4519 
L 3088 4519 
L 3088 3981 
L 1259 3981 
L 1013 2750 
Q 1425 3038 1878 3038 
Q 2478 3038 2890 2622 
Q 3303 2206 3303 1553 
Q 3303 931 2941 478 
Q 2500 -78 1738 -78 
Q 1113 -78 717 272 
Q 322 622 266 1200 
z
" id="ArialMT-35" transform="scale(0.015625)"/>
       </defs>
       <use xlink:href="#ArialMT-32"/>
       <use x="55.615234" xlink:href="#ArialMT-2e"/>
       <use x="83.398438" xlink:href="#ArialMT-35"/>
      </g>
     </g>
    </g>
    <g id="xtick_7">
     <g id="line2d_7">
      <g>
       <use style="fill:#808080;stroke:#808080;" x="321.095772" xlink:href="#ma3b63f7c20" y="224.64"/>
      </g>
     </g>
     <g id="text_7">
      <!-- 2.6 -->
      <g style="fill:#262626;" transform="translate(313.450772 239.013594)scale(0.11 -0.11)">
       <defs>
        <path d="M 3184 3459 
L 2625 3416 
Q 2550 3747 2413 3897 
Q 2184 4138 1850 4138 
Q 1581 4138 1378 3988 
Q 1113 3794 959 3422 
Q 806 3050 800 2363 
Q 1003 2672 1297 2822 
Q 1591 2972 1913 2972 
Q 2475 2972 2870 2558 
Q 3266 2144 3266 1488 
Q 3266 1056 3080 686 
Q 2894 316 2569 119 
Q 2244 -78 1831 -78 
Q 1128 -78 684 439 
Q 241 956 241 2144 
Q 241 3472 731 4075 
Q 1159 4600 1884 4600 
Q 2425 4600 2770 4297 
Q 3116 3994 3184 3459 
z
M 888 1484 
Q 888 1194 1011 928 
Q 1134 663 1356 523 
Q 1578 384 1822 384 
Q 2178 384 2434 671 
Q 2691 959 2691 1453 
Q 2691 1928 2437 2201 
Q 2184 2475 1800 2475 
Q 1419 2475 1153 2201 
Q 888 1928 888 1484 
z
" id="ArialMT-36" transform="scale(0.015625)"/>
       </defs>
       <use xlink:href="#ArialMT-32"/>
       <use x="55.615234" xlink:href="#ArialMT-2e"/>
       <use x="83.398438" xlink:href="#ArialMT-36"/>
      </g>
     </g>
    </g>
    <g id="text_8">
     <!-- $\nu_\mathrm{max}$ ($\mu\mathrm{Hz}$) -->
     <g style="fill:#262626;" transform="translate(144.78 253.959844)scale(0.12 -0.12)">
      <defs>
       <path d="M 959 0 
L 572 3500 
L 1191 3500 
L 1522 563 
Q 1972 950 2391 1488 
Q 2706 1891 2788 2241 
Q 2825 2406 2809 2719 
Q 2794 3091 2544 3500 
L 3125 3500 
L 3125 3500 
Q 3288 3222 3353 2834 
Q 3416 2478 3369 2234 
Q 3250 1622 2719 1075 
Q 2025 363 1572 0 
L 959 0 
z
" id="DejaVuSans-Oblique-3bd" transform="scale(0.015625)"/>
       <path d="M 3328 2828 
Q 3544 3216 3844 3400 
Q 4144 3584 4550 3584 
Q 5097 3584 5394 3201 
Q 5691 2819 5691 2113 
L 5691 0 
L 5113 0 
L 5113 2094 
Q 5113 2597 4934 2840 
Q 4756 3084 4391 3084 
Q 3944 3084 3684 2787 
Q 3425 2491 3425 1978 
L 3425 0 
L 2847 0 
L 2847 2094 
Q 2847 2600 2669 2842 
Q 2491 3084 2119 3084 
Q 1678 3084 1418 2786 
Q 1159 2488 1159 1978 
L 1159 0 
L 581 0 
L 581 3500 
L 1159 3500 
L 1159 2956 
Q 1356 3278 1631 3431 
Q 1906 3584 2284 3584 
Q 2666 3584 2933 3390 
Q 3200 3197 3328 2828 
z
" id="DejaVuSans-6d" transform="scale(0.015625)"/>
       <path d="M 2194 1759 
Q 1497 1759 1228 1600 
Q 959 1441 959 1056 
Q 959 750 1161 570 
Q 1363 391 1709 391 
Q 2188 391 2477 730 
Q 2766 1069 2766 1631 
L 2766 1759 
L 2194 1759 
z
M 3341 1997 
L 3341 0 
L 2766 0 
L 2766 531 
Q 2569 213 2275 61 
Q 1981 -91 1556 -91 
Q 1019 -91 701 211 
Q 384 513 384 1019 
Q 384 1609 779 1909 
Q 1175 2209 1959 2209 
L 2766 2209 
L 2766 2266 
Q 2766 2663 2505 2880 
Q 2244 3097 1772 3097 
Q 1472 3097 1187 3025 
Q 903 2953 641 2809 
L 641 3341 
Q 956 3463 1253 3523 
Q 1550 3584 1831 3584 
Q 2591 3584 2966 3190 
Q 3341 2797 3341 1997 
z
" id="DejaVuSans-61" transform="scale(0.015625)"/>
       <path d="M 3513 3500 
L 2247 1797 
L 3578 0 
L 2900 0 
L 1881 1375 
L 863 0 
L 184 0 
L 1544 1831 
L 300 3500 
L 978 3500 
L 1906 2253 
L 2834 3500 
L 3513 3500 
z
" id="DejaVuSans-78" transform="scale(0.015625)"/>
       <path id="ArialMT-20" transform="scale(0.015625)"/>
       <path d="M 1497 -1347 
Q 1031 -759 709 28 
Q 388 816 388 1659 
Q 388 2403 628 3084 
Q 909 3875 1497 4659 
L 1900 4659 
Q 1522 4009 1400 3731 
Q 1209 3300 1100 2831 
Q 966 2247 966 1656 
Q 966 153 1900 -1347 
L 1497 -1347 
z
" id="ArialMT-28" transform="scale(0.015625)"/>
       <path d="M -84 -1331 
L 856 3500 
L 1434 3500 
L 1009 1322 
Q 997 1256 987 1175 
Q 978 1094 978 1013 
Q 978 722 1161 565 
Q 1344 409 1684 409 
Q 2147 409 2431 671 
Q 2716 934 2816 1459 
L 3213 3500 
L 3788 3500 
L 3266 809 
Q 3253 750 3248 706 
Q 3244 663 3244 628 
Q 3244 531 3283 486 
Q 3322 441 3406 441 
Q 3438 441 3492 456 
Q 3547 472 3647 513 
L 3559 50 
Q 3422 -19 3297 -55 
Q 3172 -91 3053 -91 
Q 2847 -91 2730 40 
Q 2613 172 2613 403 
Q 2438 153 2195 31 
Q 1953 -91 1625 -91 
Q 1334 -91 1117 43 
Q 900 178 831 397 
L 494 -1331 
L -84 -1331 
z
" id="DejaVuSans-Oblique-3bc" transform="scale(0.015625)"/>
       <path d="M 628 4666 
L 1259 4666 
L 1259 2753 
L 3553 2753 
L 3553 4666 
L 4184 4666 
L 4184 0 
L 3553 0 
L 3553 2222 
L 1259 2222 
L 1259 0 
L 628 0 
L 628 4666 
z
" id="DejaVuSans-48" transform="scale(0.015625)"/>
       <path d="M 353 3500 
L 3084 3500 
L 3084 2975 
L 922 459 
L 3084 459 
L 3084 0 
L 275 0 
L 275 525 
L 2438 3041 
L 353 3041 
L 353 3500 
z
" id="DejaVuSans-7a" transform="scale(0.015625)"/>
       <path d="M 791 -1347 
L 388 -1347 
Q 1322 153 1322 1656 
Q 1322 2244 1188 2822 
Q 1081 3291 891 3722 
Q 769 4003 388 4659 
L 791 4659 
Q 1378 3875 1659 3084 
Q 1900 2403 1900 1659 
Q 1900 816 1576 28 
Q 1253 -759 791 -1347 
z
" id="ArialMT-29" transform="scale(0.015625)"/>
      </defs>
      <use transform="translate(0 0.09375)" xlink:href="#DejaVuSans-Oblique-3bd"/>
      <use transform="translate(55.859375 -16.3125)scale(0.7)" xlink:href="#DejaVuSans-6d"/>
      <use transform="translate(124.047852 -16.3125)scale(0.7)" xlink:href="#DejaVuSans-61"/>
      <use transform="translate(166.943359 -16.3125)scale(0.7)" xlink:href="#DejaVuSans-78"/>
      <use transform="translate(211.103516 0.09375)" xlink:href="#ArialMT-20"/>
      <use transform="translate(238.886719 0.09375)" xlink:href="#ArialMT-28"/>
      <use transform="translate(272.1875 0.09375)" xlink:href="#DejaVuSans-Oblique-3bc"/>
      <use transform="translate(335.810547 0.09375)" xlink:href="#DejaVuSans-48"/>
      <use transform="translate(411.005859 0.09375)" xlink:href="#DejaVuSans-7a"/>
      <use transform="translate(463.496094 0.09375)" xlink:href="#ArialMT-29"/>
     </g>
    </g>
   </g>
   <g id="matplotlib.axis_2"/>
   <g id="PolyCollection_1">
    <defs>
     <path d="M 22.418182 -49.04348 
L 22.418182 -51.453528 
L 23.013805 -51.449822 
L 23.609429 -51.43547 
L 24.205052 -51.417772 
L 24.800676 -51.392924 
L 25.3963 -51.365253 
L 25.991923 -51.327977 
L 26.587547 -51.284829 
L 27.18317 -51.236329 
L 27.778794 -51.187076 
L 28.374417 -51.134561 
L 28.970041 -51.075585 
L 29.565664 -51.018182 
L 30.161288 -50.955952 
L 30.756912 -50.892962 
L 31.352535 -50.830009 
L 31.948159 -50.767886 
L 32.543782 -50.711402 
L 33.139406 -50.654165 
L 33.735029 -50.600204 
L 34.330653 -50.550237 
L 34.926276 -50.508967 
L 35.5219 -50.469864 
L 36.117524 -50.436795 
L 36.713147 -50.418345 
L 37.308771 -50.408724 
L 37.904394 -50.400617 
L 38.500018 -50.409047 
L 39.095641 -50.420053 
L 39.691265 -50.440508 
L 40.286888 -50.47066 
L 40.882512 -50.510686 
L 41.478136 -50.55741 
L 42.073759 -50.618026 
L 42.669383 -50.688469 
L 43.265006 -50.776674 
L 43.86063 -50.876186 
L 44.456253 -50.983041 
L 45.051877 -51.096373 
L 45.6475 -51.223176 
L 46.243124 -51.35592 
L 46.838748 -51.501496 
L 47.434371 -51.652277 
L 48.029995 -51.811038 
L 48.625618 -51.982002 
L 49.221242 -52.169524 
L 49.816865 -52.362146 
L 50.412489 -52.555601 
L 51.008112 -52.764751 
L 51.603736 -52.982122 
L 52.19936 -53.20282 
L 52.794983 -53.43065 
L 53.390607 -53.661408 
L 53.98623 -53.897341 
L 54.581854 -54.146239 
L 55.177477 -54.397565 
L 55.773101 -54.662597 
L 56.368724 -54.93104 
L 56.964348 -55.202354 
L 57.559972 -55.487995 
L 58.155595 -55.789928 
L 58.751219 -56.082302 
L 59.346842 -56.389766 
L 59.942466 -56.707044 
L 60.538089 -57.030698 
L 61.133713 -57.371806 
L 61.729336 -57.728647 
L 62.32496 -58.094911 
L 62.920584 -58.462689 
L 63.516207 -58.850329 
L 64.111831 -59.247961 
L 64.707454 -59.659385 
L 65.303078 -60.105191 
L 65.898701 -60.558032 
L 66.494325 -61.028412 
L 67.089948 -61.512913 
L 67.685572 -62.011167 
L 68.281196 -62.530599 
L 68.876819 -63.07208 
L 69.472443 -63.644552 
L 70.068066 -64.226564 
L 70.66369 -64.819837 
L 71.259313 -65.426418 
L 71.854937 -66.064888 
L 72.45056 -66.713681 
L 73.046184 -67.390609 
L 73.641808 -68.093376 
L 74.237431 -68.799018 
L 74.833055 -69.519719 
L 75.428678 -70.254472 
L 76.024302 -71.010244 
L 76.619925 -71.77158 
L 77.215549 -72.543878 
L 77.811172 -73.318649 
L 78.406796 -74.113046 
L 79.002419 -74.907375 
L 79.598043 -75.710883 
L 80.193667 -76.519104 
L 80.78929 -77.351017 
L 81.384914 -78.182568 
L 81.980537 -79.003709 
L 82.576161 -79.850026 
L 83.171784 -80.681746 
L 83.767408 -81.51546 
L 84.363031 -82.351485 
L 84.958655 -83.220982 
L 85.554279 -84.074573 
L 86.149902 -84.948395 
L 86.745526 -85.805554 
L 87.341149 -86.682252 
L 87.936773 -87.594701 
L 88.532396 -88.4868 
L 89.12802 -89.389343 
L 89.723643 -90.375525 
L 90.319267 -91.346333 
L 90.914891 -92.313471 
L 91.510514 -93.310282 
L 92.106138 -94.340304 
L 92.701761 -95.397677 
L 93.297385 -96.478359 
L 93.893008 -97.597707 
L 94.488632 -98.735513 
L 95.084255 -99.930786 
L 95.679879 -101.172789 
L 96.275503 -102.461404 
L 96.871126 -103.791598 
L 97.46675 -105.184541 
L 98.062373 -106.616984 
L 98.657997 -108.115916 
L 99.25362 -109.67885 
L 99.849244 -111.289463 
L 100.444867 -112.976774 
L 101.040491 -114.726763 
L 101.636115 -116.551507 
L 102.231738 -118.461123 
L 102.827362 -120.394874 
L 103.422985 -122.406697 
L 104.018609 -124.477191 
L 104.614232 -126.604876 
L 105.209856 -128.764192 
L 105.805479 -130.985768 
L 106.401103 -133.249774 
L 106.996727 -135.535024 
L 107.59235 -137.840364 
L 108.187974 -140.175145 
L 108.783597 -142.513623 
L 109.379221 -144.873191 
L 109.974844 -147.223798 
L 110.570468 -149.581911 
L 111.166091 -151.904044 
L 111.761715 -154.195073 
L 112.357339 -156.442877 
L 112.952962 -158.664645 
L 113.548586 -160.813757 
L 114.144209 -162.925936 
L 114.739833 -164.993018 
L 115.335456 -166.991387 
L 115.93108 -168.902955 
L 116.526703 -170.732044 
L 117.122327 -172.502668 
L 117.717951 -174.17544 
L 118.313574 -175.785099 
L 118.909198 -177.348132 
L 119.504821 -178.799633 
L 120.100445 -180.174782 
L 120.696068 -181.495201 
L 121.291692 -182.72755 
L 121.887315 -183.920273 
L 122.482939 -185.055874 
L 123.078563 -186.146433 
L 123.674186 -187.173122 
L 124.26981 -188.149933 
L 124.865433 -189.094484 
L 125.461057 -189.996199 
L 126.05668 -190.885651 
L 126.652304 -191.751134 
L 127.247927 -192.623603 
L 127.843551 -193.451978 
L 128.439175 -194.267691 
L 129.034798 -195.070857 
L 129.630422 -195.879469 
L 130.226045 -196.684347 
L 130.821669 -197.48416 
L 131.417292 -198.320242 
L 132.012916 -199.155156 
L 132.608539 -200.028777 
L 133.204163 -200.878875 
L 133.799787 -201.758227 
L 134.39541 -202.664041 
L 134.991034 -203.603246 
L 135.586657 -204.554643 
L 136.182281 -205.549597 
L 136.777904 -206.516046 
L 137.373528 -207.520727 
L 137.969151 -208.568767 
L 138.564775 -209.620011 
L 139.160399 -210.713442 
L 139.756022 -211.832489 
L 140.351646 -212.965161 
L 140.947269 -214.093105 
L 141.542893 -215.281935 
L 142.138516 -216.444156 
L 142.73414 -217.645738 
L 143.329763 -218.81648 
L 143.925387 -219.957557 
L 144.52101 -221.125191 
L 145.116634 -222.282979 
L 145.712258 -223.367954 
L 146.307881 -224.479315 
L 146.903505 -225.572232 
L 147.499128 -226.697352 
L 148.094752 -227.731234 
L 148.690375 -228.7324 
L 149.285999 -229.717328 
L 149.881622 -230.653673 
L 150.477246 -231.563629 
L 151.07287 -232.438442 
L 151.668493 -233.2547 
L 152.264117 -234.017463 
L 152.85974 -234.747049 
L 153.455364 -235.430863 
L 154.050987 -236.140389 
L 154.646611 -236.777897 
L 155.242234 -237.373418 
L 155.837858 -237.989479 
L 156.433482 -238.56136 
L 157.029105 -239.136137 
L 157.624729 -239.65038 
L 158.220352 -240.201991 
L 158.815976 -240.733454 
L 159.411599 -241.234727 
L 160.007223 -241.709243 
L 160.602846 -242.202696 
L 161.19847 -242.697998 
L 161.794094 -243.170782 
L 162.389717 -243.626304 
L 162.985341 -244.078859 
L 163.580964 -244.520773 
L 164.176588 -244.898143 
L 164.772211 -245.316015 
L 165.367835 -245.646551 
L 165.963458 -245.958825 
L 166.559082 -246.196392 
L 167.154706 -246.411427 
L 167.750329 -246.572134 
L 168.345953 -246.692287 
L 168.941576 -246.716207 
L 169.5372 -246.68486 
L 170.132823 -246.579738 
L 170.728447 -246.409455 
L 171.32407 -246.176449 
L 171.919694 -245.906839 
L 172.515318 -245.565827 
L 173.110941 -245.128826 
L 173.706565 -244.637337 
L 174.302188 -244.09487 
L 174.897812 -243.473161 
L 175.493435 -242.824435 
L 176.089059 -242.135817 
L 176.684682 -241.361545 
L 177.280306 -240.564711 
L 177.87593 -239.726974 
L 178.471553 -238.857354 
L 179.067177 -237.955777 
L 179.6628 -237.045307 
L 180.258424 -236.092492 
L 180.854047 -235.122242 
L 181.449671 -234.139311 
L 182.045294 -233.146508 
L 182.640918 -232.132641 
L 183.236542 -231.095227 
L 183.832165 -230.064095 
L 184.427789 -229.020257 
L 185.023412 -227.962003 
L 185.619036 -226.863664 
L 186.214659 -225.776518 
L 186.810283 -224.647597 
L 187.405906 -223.480255 
L 188.00153 -222.290149 
L 188.597154 -221.05288 
L 189.192777 -219.816812 
L 189.788401 -218.533606 
L 190.384024 -217.205345 
L 190.979648 -215.848714 
L 191.575271 -214.443357 
L 192.170895 -212.996372 
L 192.766518 -211.518739 
L 193.362142 -210.007641 
L 193.957766 -208.4451 
L 194.553389 -206.831269 
L 195.149013 -205.174305 
L 195.744636 -203.457384 
L 196.34026 -201.722342 
L 196.935883 -199.96643 
L 197.531507 -198.135793 
L 198.12713 -196.31343 
L 198.722754 -194.445241 
L 199.318378 -192.560226 
L 199.914001 -190.658662 
L 200.509625 -188.72559 
L 201.105248 -186.787032 
L 201.700872 -184.833778 
L 202.296495 -182.857672 
L 202.892119 -180.880377 
L 203.487742 -178.840488 
L 204.083366 -176.856501 
L 204.67899 -174.85981 
L 205.274613 -172.861922 
L 205.870237 -170.863901 
L 206.46586 -168.86991 
L 207.061484 -166.862586 
L 207.657107 -164.89522 
L 208.252731 -162.938097 
L 208.848354 -160.995388 
L 209.443978 -159.043553 
L 210.039601 -157.077947 
L 210.635225 -155.15944 
L 211.230849 -153.255543 
L 211.826472 -151.340363 
L 212.422096 -149.4631 
L 213.017719 -147.579692 
L 213.613343 -145.74907 
L 214.208966 -143.884096 
L 214.80459 -142.094499 
L 215.400213 -140.320685 
L 215.995837 -138.575734 
L 216.591461 -136.815981 
L 217.187084 -135.076835 
L 217.782708 -133.356798 
L 218.378331 -131.662488 
L 218.973955 -129.979698 
L 219.569578 -128.316665 
L 220.165202 -126.70792 
L 220.760825 -125.049363 
L 221.356449 -123.465699 
L 221.952073 -121.885321 
L 222.547696 -120.337959 
L 223.14332 -118.820559 
L 223.738943 -117.315752 
L 224.334567 -115.830926 
L 224.93019 -114.394431 
L 225.525814 -112.983601 
L 226.121437 -111.579477 
L 226.717061 -110.206066 
L 227.312685 -108.861455 
L 227.908308 -107.52247 
L 228.503932 -106.234926 
L 229.099555 -104.974854 
L 229.695179 -103.752099 
L 230.290802 -102.531869 
L 230.886426 -101.351269 
L 231.482049 -100.197601 
L 232.077673 -99.066833 
L 232.673297 -97.978354 
L 233.26892 -96.897704 
L 233.864544 -95.844593 
L 234.460167 -94.814644 
L 235.055791 -93.805225 
L 235.651414 -92.821714 
L 236.247038 -91.868218 
L 236.842661 -90.918336 
L 237.438285 -89.976661 
L 238.033909 -89.046777 
L 238.629532 -88.145306 
L 239.225156 -87.241662 
L 239.820779 -86.354129 
L 240.416403 -85.48514 
L 241.012026 -84.615615 
L 241.60765 -83.765966 
L 242.203273 -82.922103 
L 242.798897 -82.100911 
L 243.394521 -81.272826 
L 243.990144 -80.453882 
L 244.585768 -79.646646 
L 245.181391 -78.850629 
L 245.777015 -78.063015 
L 246.372638 -77.274499 
L 246.968262 -76.486775 
L 247.563885 -75.732228 
L 248.159509 -74.971131 
L 248.755133 -74.245989 
L 249.350756 -73.510126 
L 249.94638 -72.794585 
L 250.542003 -72.102512 
L 251.137627 -71.41956 
L 251.73325 -70.75965 
L 252.328874 -70.098727 
L 252.924497 -69.440279 
L 253.520121 -68.819971 
L 254.115745 -68.20777 
L 254.711368 -67.618582 
L 255.306992 -67.05137 
L 255.902615 -66.496148 
L 256.498239 -65.957256 
L 257.093862 -65.425055 
L 257.689486 -64.904761 
L 258.285109 -64.412878 
L 258.880733 -63.94032 
L 259.476357 -63.47954 
L 260.07198 -63.034084 
L 260.667604 -62.606669 
L 261.263227 -62.190244 
L 261.858851 -61.797983 
L 262.454474 -61.410183 
L 263.050098 -61.037515 
L 263.645721 -60.666318 
L 264.241345 -60.31427 
L 264.836969 -59.965381 
L 265.432592 -59.639932 
L 266.028216 -59.308415 
L 266.623839 -58.989404 
L 267.219463 -58.681549 
L 267.815086 -58.380426 
L 268.41071 -58.082424 
L 269.006333 -57.80099 
L 269.601957 -57.520832 
L 270.197581 -57.242661 
L 270.793204 -56.967105 
L 271.388828 -56.701278 
L 271.984451 -56.441166 
L 272.580075 -56.183557 
L 273.175698 -55.938999 
L 273.771322 -55.699712 
L 274.366945 -55.465965 
L 274.962569 -55.238016 
L 275.558192 -55.016098 
L 276.153816 -54.793868 
L 276.74944 -54.585843 
L 277.345063 -54.380857 
L 277.940687 -54.186199 
L 278.53631 -53.997914 
L 279.131934 -53.809464 
L 279.727557 -53.638428 
L 280.323181 -53.47278 
L 280.918804 -53.309224 
L 281.514428 -53.151561 
L 282.110052 -52.99952 
L 282.705675 -52.852789 
L 283.301299 -52.704475 
L 283.896922 -52.571836 
L 284.492546 -52.4393 
L 285.088169 -52.313803 
L 285.683793 -52.187801 
L 286.279416 -52.068223 
L 286.87504 -51.947542 
L 287.470664 -51.832719 
L 288.066287 -51.716274 
L 288.661911 -51.605233 
L 289.257534 -51.495465 
L 289.853158 -51.380351 
L 290.448781 -51.27093 
L 291.044405 -51.166366 
L 291.640028 -51.059449 
L 292.235652 -50.961505 
L 292.831276 -50.858251 
L 293.426899 -50.760354 
L 294.022523 -50.660769 
L 294.618146 -50.56367 
L 295.21377 -50.472507 
L 295.809393 -50.380301 
L 296.405017 -50.291272 
L 297.00064 -50.208897 
L 297.596264 -50.129482 
L 298.191888 -50.046787 
L 298.787511 -49.975443 
L 299.383135 -49.908439 
L 299.978758 -49.850079 
L 300.574382 -49.792719 
L 301.170005 -49.739877 
L 301.765629 -49.688485 
L 302.361252 -49.645887 
L 302.956876 -49.608205 
L 303.5525 -49.572279 
L 304.148123 -49.545358 
L 304.743747 -49.523474 
L 305.33937 -49.506652 
L 305.934994 -49.494878 
L 306.530617 -49.484831 
L 307.126241 -49.487638 
L 307.721864 -49.492029 
L 308.317488 -49.501184 
L 308.913112 -49.51498 
L 309.508735 -49.533268 
L 310.104359 -49.555872 
L 310.699982 -49.582593 
L 311.295606 -49.613206 
L 311.891229 -49.644188 
L 312.486853 -49.682444 
L 313.082476 -49.720397 
L 313.6781 -49.764924 
L 314.273724 -49.811698 
L 314.869347 -49.860394 
L 315.464971 -49.910667 
L 316.060594 -49.96215 
L 316.656218 -50.014458 
L 317.251841 -50.063918 
L 317.847465 -50.117292 
L 318.443088 -50.170153 
L 319.038712 -50.222094 
L 319.634336 -50.269427 
L 320.229959 -50.318919 
L 320.825583 -50.366156 
L 321.421206 -50.410761 
L 322.01683 -50.452371 
L 322.612453 -50.490637 
L 323.208077 -50.525236 
L 323.8037 -50.555868 
L 324.399324 -50.582266 
L 324.994948 -50.604195 
L 325.590571 -50.621459 
L 326.186195 -50.633904 
L 326.781818 -50.641417 
L 326.781818 -49.04348 
L 326.781818 -49.04348 
L 326.186195 -49.04348 
L 325.590571 -49.04348 
L 324.994948 -49.04348 
L 324.399324 -49.04348 
L 323.8037 -49.04348 
L 323.208077 -49.04348 
L 322.612453 -49.04348 
L 322.01683 -49.04348 
L 321.421206 -49.04348 
L 320.825583 -49.04348 
L 320.229959 -49.04348 
L 319.634336 -49.04348 
L 319.038712 -49.04348 
L 318.443088 -49.04348 
L 317.847465 -49.04348 
L 317.251841 -49.04348 
L 316.656218 -49.04348 
L 316.060594 -49.04348 
L 315.464971 -49.04348 
L 314.869347 -49.04348 
L 314.273724 -49.04348 
L 313.6781 -49.04348 
L 313.082476 -49.04348 
L 312.486853 -49.04348 
L 311.891229 -49.04348 
L 311.295606 -49.04348 
L 310.699982 -49.04348 
L 310.104359 -49.04348 
L 309.508735 -49.04348 
L 308.913112 -49.04348 
L 308.317488 -49.04348 
L 307.721864 -49.04348 
L 307.126241 -49.04348 
L 306.530617 -49.04348 
L 305.934994 -49.04348 
L 305.33937 -49.04348 
L 304.743747 -49.04348 
L 304.148123 -49.04348 
L 303.5525 -49.04348 
L 302.956876 -49.04348 
L 302.361252 -49.04348 
L 301.765629 -49.04348 
L 301.170005 -49.04348 
L 300.574382 -49.04348 
L 299.978758 -49.04348 
L 299.383135 -49.04348 
L 298.787511 -49.04348 
L 298.191888 -49.04348 
L 297.596264 -49.04348 
L 297.00064 -49.04348 
L 296.405017 -49.04348 
L 295.809393 -49.04348 
L 295.21377 -49.04348 
L 294.618146 -49.04348 
L 294.022523 -49.04348 
L 293.426899 -49.04348 
L 292.831276 -49.04348 
L 292.235652 -49.04348 
L 291.640028 -49.04348 
L 291.044405 -49.04348 
L 290.448781 -49.04348 
L 289.853158 -49.04348 
L 289.257534 -49.04348 
L 288.661911 -49.04348 
L 288.066287 -49.04348 
L 287.470664 -49.04348 
L 286.87504 -49.04348 
L 286.279416 -49.04348 
L 285.683793 -49.04348 
L 285.088169 -49.04348 
L 284.492546 -49.04348 
L 283.896922 -49.04348 
L 283.301299 -49.04348 
L 282.705675 -49.04348 
L 282.110052 -49.04348 
L 281.514428 -49.04348 
L 280.918804 -49.04348 
L 280.323181 -49.04348 
L 279.727557 -49.04348 
L 279.131934 -49.04348 
L 278.53631 -49.04348 
L 277.940687 -49.04348 
L 277.345063 -49.04348 
L 276.74944 -49.04348 
L 276.153816 -49.04348 
L 275.558192 -49.04348 
L 274.962569 -49.04348 
L 274.366945 -49.04348 
L 273.771322 -49.04348 
L 273.175698 -49.04348 
L 272.580075 -49.04348 
L 271.984451 -49.04348 
L 271.388828 -49.04348 
L 270.793204 -49.04348 
L 270.197581 -49.04348 
L 269.601957 -49.04348 
L 269.006333 -49.04348 
L 268.41071 -49.04348 
L 267.815086 -49.04348 
L 267.219463 -49.04348 
L 266.623839 -49.04348 
L 266.028216 -49.04348 
L 265.432592 -49.04348 
L 264.836969 -49.04348 
L 264.241345 -49.04348 
L 263.645721 -49.04348 
L 263.050098 -49.04348 
L 262.454474 -49.04348 
L 261.858851 -49.04348 
L 261.263227 -49.04348 
L 260.667604 -49.04348 
L 260.07198 -49.04348 
L 259.476357 -49.04348 
L 258.880733 -49.04348 
L 258.285109 -49.04348 
L 257.689486 -49.04348 
L 257.093862 -49.04348 
L 256.498239 -49.04348 
L 255.902615 -49.04348 
L 255.306992 -49.04348 
L 254.711368 -49.04348 
L 254.115745 -49.04348 
L 253.520121 -49.04348 
L 252.924497 -49.04348 
L 252.328874 -49.04348 
L 251.73325 -49.04348 
L 251.137627 -49.04348 
L 250.542003 -49.04348 
L 249.94638 -49.04348 
L 249.350756 -49.04348 
L 248.755133 -49.04348 
L 248.159509 -49.04348 
L 247.563885 -49.04348 
L 246.968262 -49.04348 
L 246.372638 -49.04348 
L 245.777015 -49.04348 
L 245.181391 -49.04348 
L 244.585768 -49.04348 
L 243.990144 -49.04348 
L 243.394521 -49.04348 
L 242.798897 -49.04348 
L 242.203273 -49.04348 
L 241.60765 -49.04348 
L 241.012026 -49.04348 
L 240.416403 -49.04348 
L 239.820779 -49.04348 
L 239.225156 -49.04348 
L 238.629532 -49.04348 
L 238.033909 -49.04348 
L 237.438285 -49.04348 
L 236.842661 -49.04348 
L 236.247038 -49.04348 
L 235.651414 -49.04348 
L 235.055791 -49.04348 
L 234.460167 -49.04348 
L 233.864544 -49.04348 
L 233.26892 -49.04348 
L 232.673297 -49.04348 
L 232.077673 -49.04348 
L 231.482049 -49.04348 
L 230.886426 -49.04348 
L 230.290802 -49.04348 
L 229.695179 -49.04348 
L 229.099555 -49.04348 
L 228.503932 -49.04348 
L 227.908308 -49.04348 
L 227.312685 -49.04348 
L 226.717061 -49.04348 
L 226.121437 -49.04348 
L 225.525814 -49.04348 
L 224.93019 -49.04348 
L 224.334567 -49.04348 
L 223.738943 -49.04348 
L 223.14332 -49.04348 
L 222.547696 -49.04348 
L 221.952073 -49.04348 
L 221.356449 -49.04348 
L 220.760825 -49.04348 
L 220.165202 -49.04348 
L 219.569578 -49.04348 
L 218.973955 -49.04348 
L 218.378331 -49.04348 
L 217.782708 -49.04348 
L 217.187084 -49.04348 
L 216.591461 -49.04348 
L 215.995837 -49.04348 
L 215.400213 -49.04348 
L 214.80459 -49.04348 
L 214.208966 -49.04348 
L 213.613343 -49.04348 
L 213.017719 -49.04348 
L 212.422096 -49.04348 
L 211.826472 -49.04348 
L 211.230849 -49.04348 
L 210.635225 -49.04348 
L 210.039601 -49.04348 
L 209.443978 -49.04348 
L 208.848354 -49.04348 
L 208.252731 -49.04348 
L 207.657107 -49.04348 
L 207.061484 -49.04348 
L 206.46586 -49.04348 
L 205.870237 -49.04348 
L 205.274613 -49.04348 
L 204.67899 -49.04348 
L 204.083366 -49.04348 
L 203.487742 -49.04348 
L 202.892119 -49.04348 
L 202.296495 -49.04348 
L 201.700872 -49.04348 
L 201.105248 -49.04348 
L 200.509625 -49.04348 
L 199.914001 -49.04348 
L 199.318378 -49.04348 
L 198.722754 -49.04348 
L 198.12713 -49.04348 
L 197.531507 -49.04348 
L 196.935883 -49.04348 
L 196.34026 -49.04348 
L 195.744636 -49.04348 
L 195.149013 -49.04348 
L 194.553389 -49.04348 
L 193.957766 -49.04348 
L 193.362142 -49.04348 
L 192.766518 -49.04348 
L 192.170895 -49.04348 
L 191.575271 -49.04348 
L 190.979648 -49.04348 
L 190.384024 -49.04348 
L 189.788401 -49.04348 
L 189.192777 -49.04348 
L 188.597154 -49.04348 
L 188.00153 -49.04348 
L 187.405906 -49.04348 
L 186.810283 -49.04348 
L 186.214659 -49.04348 
L 185.619036 -49.04348 
L 185.023412 -49.04348 
L 184.427789 -49.04348 
L 183.832165 -49.04348 
L 183.236542 -49.04348 
L 182.640918 -49.04348 
L 182.045294 -49.04348 
L 181.449671 -49.04348 
L 180.854047 -49.04348 
L 180.258424 -49.04348 
L 179.6628 -49.04348 
L 179.067177 -49.04348 
L 178.471553 -49.04348 
L 177.87593 -49.04348 
L 177.280306 -49.04348 
L 176.684682 -49.04348 
L 176.089059 -49.04348 
L 175.493435 -49.04348 
L 174.897812 -49.04348 
L 174.302188 -49.04348 
L 173.706565 -49.04348 
L 173.110941 -49.04348 
L 172.515318 -49.04348 
L 171.919694 -49.04348 
L 171.32407 -49.04348 
L 170.728447 -49.04348 
L 170.132823 -49.04348 
L 169.5372 -49.04348 
L 168.941576 -49.04348 
L 168.345953 -49.04348 
L 167.750329 -49.04348 
L 167.154706 -49.04348 
L 166.559082 -49.04348 
L 165.963458 -49.04348 
L 165.367835 -49.04348 
L 164.772211 -49.04348 
L 164.176588 -49.04348 
L 163.580964 -49.04348 
L 162.985341 -49.04348 
L 162.389717 -49.04348 
L 161.794094 -49.04348 
L 161.19847 -49.04348 
L 160.602846 -49.04348 
L 160.007223 -49.04348 
L 159.411599 -49.04348 
L 158.815976 -49.04348 
L 158.220352 -49.04348 
L 157.624729 -49.04348 
L 157.029105 -49.04348 
L 156.433482 -49.04348 
L 155.837858 -49.04348 
L 155.242234 -49.04348 
L 154.646611 -49.04348 
L 154.050987 -49.04348 
L 153.455364 -49.04348 
L 152.85974 -49.04348 
L 152.264117 -49.04348 
L 151.668493 -49.04348 
L 151.07287 -49.04348 
L 150.477246 -49.04348 
L 149.881622 -49.04348 
L 149.285999 -49.04348 
L 148.690375 -49.04348 
L 148.094752 -49.04348 
L 147.499128 -49.04348 
L 146.903505 -49.04348 
L 146.307881 -49.04348 
L 145.712258 -49.04348 
L 145.116634 -49.04348 
L 144.52101 -49.04348 
L 143.925387 -49.04348 
L 143.329763 -49.04348 
L 142.73414 -49.04348 
L 142.138516 -49.04348 
L 141.542893 -49.04348 
L 140.947269 -49.04348 
L 140.351646 -49.04348 
L 139.756022 -49.04348 
L 139.160399 -49.04348 
L 138.564775 -49.04348 
L 137.969151 -49.04348 
L 137.373528 -49.04348 
L 136.777904 -49.04348 
L 136.182281 -49.04348 
L 135.586657 -49.04348 
L 134.991034 -49.04348 
L 134.39541 -49.04348 
L 133.799787 -49.04348 
L 133.204163 -49.04348 
L 132.608539 -49.04348 
L 132.012916 -49.04348 
L 131.417292 -49.04348 
L 130.821669 -49.04348 
L 130.226045 -49.04348 
L 129.630422 -49.04348 
L 129.034798 -49.04348 
L 128.439175 -49.04348 
L 127.843551 -49.04348 
L 127.247927 -49.04348 
L 126.652304 -49.04348 
L 126.05668 -49.04348 
L 125.461057 -49.04348 
L 124.865433 -49.04348 
L 124.26981 -49.04348 
L 123.674186 -49.04348 
L 123.078563 -49.04348 
L 122.482939 -49.04348 
L 121.887315 -49.04348 
L 121.291692 -49.04348 
L 120.696068 -49.04348 
L 120.100445 -49.04348 
L 119.504821 -49.04348 
L 118.909198 -49.04348 
L 118.313574 -49.04348 
L 117.717951 -49.04348 
L 117.122327 -49.04348 
L 116.526703 -49.04348 
L 115.93108 -49.04348 
L 115.335456 -49.04348 
L 114.739833 -49.04348 
L 114.144209 -49.04348 
L 113.548586 -49.04348 
L 112.952962 -49.04348 
L 112.357339 -49.04348 
L 111.761715 -49.04348 
L 111.166091 -49.04348 
L 110.570468 -49.04348 
L 109.974844 -49.04348 
L 109.379221 -49.04348 
L 108.783597 -49.04348 
L 108.187974 -49.04348 
L 107.59235 -49.04348 
L 106.996727 -49.04348 
L 106.401103 -49.04348 
L 105.805479 -49.04348 
L 105.209856 -49.04348 
L 104.614232 -49.04348 
L 104.018609 -49.04348 
L 103.422985 -49.04348 
L 102.827362 -49.04348 
L 102.231738 -49.04348 
L 101.636115 -49.04348 
L 101.040491 -49.04348 
L 100.444867 -49.04348 
L 99.849244 -49.04348 
L 99.25362 -49.04348 
L 98.657997 -49.04348 
L 98.062373 -49.04348 
L 97.46675 -49.04348 
L 96.871126 -49.04348 
L 96.275503 -49.04348 
L 95.679879 -49.04348 
L 95.084255 -49.04348 
L 94.488632 -49.04348 
L 93.893008 -49.04348 
L 93.297385 -49.04348 
L 92.701761 -49.04348 
L 92.106138 -49.04348 
L 91.510514 -49.04348 
L 90.914891 -49.04348 
L 90.319267 -49.04348 
L 89.723643 -49.04348 
L 89.12802 -49.04348 
L 88.532396 -49.04348 
L 87.936773 -49.04348 
L 87.341149 -49.04348 
L 86.745526 -49.04348 
L 86.149902 -49.04348 
L 85.554279 -49.04348 
L 84.958655 -49.04348 
L 84.363031 -49.04348 
L 83.767408 -49.04348 
L 83.171784 -49.04348 
L 82.576161 -49.04348 
L 81.980537 -49.04348 
L 81.384914 -49.04348 
L 80.78929 -49.04348 
L 80.193667 -49.04348 
L 79.598043 -49.04348 
L 79.002419 -49.04348 
L 78.406796 -49.04348 
L 77.811172 -49.04348 
L 77.215549 -49.04348 
L 76.619925 -49.04348 
L 76.024302 -49.04348 
L 75.428678 -49.04348 
L 74.833055 -49.04348 
L 74.237431 -49.04348 
L 73.641808 -49.04348 
L 73.046184 -49.04348 
L 72.45056 -49.04348 
L 71.854937 -49.04348 
L 71.259313 -49.04348 
L 70.66369 -49.04348 
L 70.068066 -49.04348 
L 69.472443 -49.04348 
L 68.876819 -49.04348 
L 68.281196 -49.04348 
L 67.685572 -49.04348 
L 67.089948 -49.04348 
L 66.494325 -49.04348 
L 65.898701 -49.04348 
L 65.303078 -49.04348 
L 64.707454 -49.04348 
L 64.111831 -49.04348 
L 63.516207 -49.04348 
L 62.920584 -49.04348 
L 62.32496 -49.04348 
L 61.729336 -49.04348 
L 61.133713 -49.04348 
L 60.538089 -49.04348 
L 59.942466 -49.04348 
L 59.346842 -49.04348 
L 58.751219 -49.04348 
L 58.155595 -49.04348 
L 57.559972 -49.04348 
L 56.964348 -49.04348 
L 56.368724 -49.04348 
L 55.773101 -49.04348 
L 55.177477 -49.04348 
L 54.581854 -49.04348 
L 53.98623 -49.04348 
L 53.390607 -49.04348 
L 52.794983 -49.04348 
L 52.19936 -49.04348 
L 51.603736 -49.04348 
L 51.008112 -49.04348 
L 50.412489 -49.04348 
L 49.816865 -49.04348 
L 49.221242 -49.04348 
L 48.625618 -49.04348 
L 48.029995 -49.04348 
L 47.434371 -49.04348 
L 46.838748 -49.04348 
L 46.243124 -49.04348 
L 45.6475 -49.04348 
L 45.051877 -49.04348 
L 44.456253 -49.04348 
L 43.86063 -49.04348 
L 43.265006 -49.04348 
L 42.669383 -49.04348 
L 42.073759 -49.04348 
L 41.478136 -49.04348 
L 40.882512 -49.04348 
L 40.286888 -49.04348 
L 39.691265 -49.04348 
L 39.095641 -49.04348 
L 38.500018 -49.04348 
L 37.904394 -49.04348 
L 37.308771 -49.04348 
L 36.713147 -49.04348 
L 36.117524 -49.04348 
L 35.5219 -49.04348 
L 34.926276 -49.04348 
L 34.330653 -49.04348 
L 33.735029 -49.04348 
L 33.139406 -49.04348 
L 32.543782 -49.04348 
L 31.948159 -49.04348 
L 31.352535 -49.04348 
L 30.756912 -49.04348 
L 30.161288 -49.04348 
L 29.565664 -49.04348 
L 28.970041 -49.04348 
L 28.374417 -49.04348 
L 27.778794 -49.04348 
L 27.18317 -49.04348 
L 26.587547 -49.04348 
L 25.991923 -49.04348 
L 25.3963 -49.04348 
L 24.800676 -49.04348 
L 24.205052 -49.04348 
L 23.609429 -49.04348 
L 23.013805 -49.04348 
L 22.418182 -49.04348 
z
" id="m60b6de2e30" style="stroke:#0173b2;stroke-opacity:0;"/>
    </defs>
    <g clip-path="url(#pe2d0c37138)">
     <use style="fill:#0173b2;fill-opacity:0;stroke:#0173b2;stroke-opacity:0;" x="0" xlink:href="#m60b6de2e30" y="263.799844"/>
    </g>
   </g>
   <g id="line2d_8">
    <path clip-path="url(#pe2d0c37138)" d="M 22.418182 212.346316 
L 25.991923 212.471867 
L 31.352535 212.969835 
L 36.117524 213.363048 
L 39.095641 213.379791 
L 42.073759 213.181818 
L 44.456253 212.816803 
L 47.434371 212.147566 
L 50.412489 211.244243 
L 53.98623 209.902502 
L 57.559972 208.311848 
L 61.133713 206.428038 
L 64.111831 204.551883 
L 66.494325 202.771432 
L 68.876819 200.727763 
L 71.854937 197.734956 
L 74.237431 195.000826 
L 77.215549 191.255966 
L 80.78929 186.448827 
L 87.341149 177.117591 
L 90.914891 171.486373 
L 93.297385 167.321484 
L 95.679879 162.627055 
L 97.46675 158.615303 
L 99.25362 154.120994 
L 101.040491 149.073081 
L 102.827362 143.40497 
L 105.209856 135.035652 
L 108.783597 121.28622 
L 112.952962 105.135199 
L 115.335456 96.808456 
L 117.122327 91.297175 
L 118.909198 86.451712 
L 120.696068 82.304643 
L 122.482939 78.74397 
L 124.26981 75.64991 
L 126.652304 72.04871 
L 129.034798 68.728986 
L 133.204163 62.920969 
L 135.586657 59.245201 
L 139.160399 53.086401 
L 142.73414 46.154106 
L 146.307881 39.320529 
L 149.285999 34.082516 
L 151.07287 31.361402 
L 152.85974 29.052795 
L 155.242234 26.426425 
L 157.029105 24.663707 
L 162.389717 20.17354 
L 164.772211 18.483829 
L 166.559082 17.603452 
L 167.750329 17.22771 
L 168.941576 17.083636 
L 170.132823 17.220106 
L 171.32407 17.623395 
L 172.515318 18.234017 
L 173.706565 19.162506 
L 174.897812 20.326683 
L 176.089059 21.664026 
L 178.471553 24.94249 
L 180.854047 28.677602 
L 184.427789 34.779587 
L 186.810283 39.152247 
L 189.192777 43.983032 
L 191.575271 49.356487 
L 193.957766 55.354744 
L 196.34026 62.077502 
L 198.722754 69.354603 
L 202.296495 80.942172 
L 213.017719 116.220152 
L 217.187084 128.723009 
L 220.760825 138.75048 
L 224.334567 147.968918 
L 227.312685 154.938388 
L 229.695179 160.047745 
L 232.077673 164.733011 
L 235.055791 169.994619 
L 238.033909 174.753067 
L 242.203273 180.87774 
L 246.968262 187.313068 
L 250.542003 191.697332 
L 253.520121 194.979873 
L 255.902615 197.303696 
L 258.880733 199.859524 
L 261.263227 201.6096 
L 264.836969 203.834463 
L 269.006333 205.998853 
L 273.175698 207.860845 
L 277.345063 209.418986 
L 280.918804 210.49062 
L 285.088169 211.486041 
L 291.044405 212.633478 
L 297.00064 213.590947 
L 301.170005 214.059967 
L 304.743747 214.276369 
L 308.913112 214.284864 
L 313.6781 214.03492 
L 325.590571 213.178384 
L 326.781818 213.158427 
L 326.781818 213.158427 
" style="fill:none;stroke:#0173b2;stroke-linecap:round;stroke-width:1.5;"/>
   </g>
   <g id="line2d_9">
    <path clip-path="url(#pe2d0c37138)" d="M 114.680836 210.605236 
L 195.991974 210.605236 
" style="fill:none;stroke:#000000;stroke-width:3;"/>
   </g>
   <g id="patch_3">
    <path d="M 7.2 224.64 
L 342 224.64 
" style="fill:none;stroke:#808080;stroke-linecap:square;stroke-linejoin:miter;stroke-width:1.25;"/>
   </g>
   <g id="text_9">
    <!-- 2.18  -->
    <g style="fill:#262626;" transform="translate(87.993961 200.227418)scale(0.12 -0.12)">
     <defs>
      <path d="M 1131 2484 
Q 781 2613 612 2850 
Q 444 3088 444 3419 
Q 444 3919 803 4259 
Q 1163 4600 1759 4600 
Q 2359 4600 2725 4251 
Q 3091 3903 3091 3403 
Q 3091 3084 2923 2848 
Q 2756 2613 2416 2484 
Q 2838 2347 3058 2040 
Q 3278 1734 3278 1309 
Q 3278 722 2862 322 
Q 2447 -78 1769 -78 
Q 1091 -78 675 323 
Q 259 725 259 1325 
Q 259 1772 486 2073 
Q 713 2375 1131 2484 
z
M 1019 3438 
Q 1019 3113 1228 2906 
Q 1438 2700 1772 2700 
Q 2097 2700 2305 2904 
Q 2513 3109 2513 3406 
Q 2513 3716 2298 3927 
Q 2084 4138 1766 4138 
Q 1444 4138 1231 3931 
Q 1019 3725 1019 3438 
z
M 838 1322 
Q 838 1081 952 856 
Q 1066 631 1291 507 
Q 1516 384 1775 384 
Q 2178 384 2440 643 
Q 2703 903 2703 1303 
Q 2703 1709 2433 1975 
Q 2163 2241 1756 2241 
Q 1359 2241 1098 1978 
Q 838 1716 838 1322 
z
" id="ArialMT-38" transform="scale(0.015625)"/>
     </defs>
     <use xlink:href="#ArialMT-32"/>
     <use x="55.615234" xlink:href="#ArialMT-2e"/>
     <use x="83.398438" xlink:href="#ArialMT-31"/>
     <use x="139.013672" xlink:href="#ArialMT-38"/>
     <use x="194.628906" xlink:href="#ArialMT-20"/>
    </g>
   </g>
   <g id="text_10">
    <!--  2.34 -->
    <g style="fill:#262626;" transform="translate(195.991974 200.227418)scale(0.12 -0.12)">
     <use xlink:href="#ArialMT-20"/>
     <use x="27.783203" xlink:href="#ArialMT-32"/>
     <use x="83.398438" xlink:href="#ArialMT-2e"/>
     <use x="111.181641" xlink:href="#ArialMT-33"/>
     <use x="166.796875" xlink:href="#ArialMT-34"/>
    </g>
   </g>
   <g id="text_11">
    <!-- 68% HDI -->
    <g style="fill:#262626;" transform="translate(131.327968 152.489455)scale(0.12 -0.12)">
     <defs>
      <path d="M 372 3481 
Q 372 3972 619 4315 
Q 866 4659 1334 4659 
Q 1766 4659 2048 4351 
Q 2331 4044 2331 3447 
Q 2331 2866 2045 2552 
Q 1759 2238 1341 2238 
Q 925 2238 648 2547 
Q 372 2856 372 3481 
z
M 1350 4272 
Q 1141 4272 1002 4090 
Q 863 3909 863 3425 
Q 863 2984 1003 2804 
Q 1144 2625 1350 2625 
Q 1563 2625 1702 2806 
Q 1841 2988 1841 3469 
Q 1841 3913 1700 4092 
Q 1559 4272 1350 4272 
z
M 1353 -169 
L 3859 4659 
L 4316 4659 
L 1819 -169 
L 1353 -169 
z
M 3334 1075 
Q 3334 1569 3581 1911 
Q 3828 2253 4300 2253 
Q 4731 2253 5014 1945 
Q 5297 1638 5297 1041 
Q 5297 459 5011 145 
Q 4725 -169 4303 -169 
Q 3888 -169 3611 142 
Q 3334 453 3334 1075 
z
M 4316 1866 
Q 4103 1866 3964 1684 
Q 3825 1503 3825 1019 
Q 3825 581 3965 400 
Q 4106 219 4313 219 
Q 4528 219 4667 400 
Q 4806 581 4806 1063 
Q 4806 1506 4665 1686 
Q 4525 1866 4316 1866 
z
" id="ArialMT-25" transform="scale(0.015625)"/>
      <path d="M 513 0 
L 513 4581 
L 1119 4581 
L 1119 2700 
L 3500 2700 
L 3500 4581 
L 4106 4581 
L 4106 0 
L 3500 0 
L 3500 2159 
L 1119 2159 
L 1119 0 
L 513 0 
z
" id="ArialMT-48" transform="scale(0.015625)"/>
      <path d="M 494 0 
L 494 4581 
L 2072 4581 
Q 2606 4581 2888 4516 
Q 3281 4425 3559 4188 
Q 3922 3881 4101 3404 
Q 4281 2928 4281 2316 
Q 4281 1794 4159 1391 
Q 4038 988 3847 723 
Q 3656 459 3429 307 
Q 3203 156 2883 78 
Q 2563 0 2147 0 
L 494 0 
z
M 1100 541 
L 2078 541 
Q 2531 541 2789 625 
Q 3047 709 3200 863 
Q 3416 1078 3536 1442 
Q 3656 1806 3656 2325 
Q 3656 3044 3420 3430 
Q 3184 3816 2847 3947 
Q 2603 4041 2063 4041 
L 1100 4041 
L 1100 541 
z
" id="ArialMT-44" transform="scale(0.015625)"/>
      <path d="M 597 0 
L 597 4581 
L 1203 4581 
L 1203 0 
L 597 0 
z
" id="ArialMT-49" transform="scale(0.015625)"/>
     </defs>
     <use xlink:href="#ArialMT-36"/>
     <use x="55.615234" xlink:href="#ArialMT-38"/>
     <use x="111.230469" xlink:href="#ArialMT-25"/>
     <use x="200.146484" xlink:href="#ArialMT-20"/>
     <use x="227.929688" xlink:href="#ArialMT-48"/>
     <use x="300.146484" xlink:href="#ArialMT-44"/>
     <use x="372.363281" xlink:href="#ArialMT-49"/>
    </g>
   </g>
   <g id="text_12">
    <!-- median=2.28 -->
    <g style="fill:#262626;" transform="translate(128.932962 48.711273)scale(0.12 -0.12)">
     <defs>
      <path d="M 422 0 
L 422 3319 
L 925 3319 
L 925 2853 
Q 1081 3097 1340 3245 
Q 1600 3394 1931 3394 
Q 2300 3394 2536 3241 
Q 2772 3088 2869 2813 
Q 3263 3394 3894 3394 
Q 4388 3394 4653 3120 
Q 4919 2847 4919 2278 
L 4919 0 
L 4359 0 
L 4359 2091 
Q 4359 2428 4304 2576 
Q 4250 2725 4106 2815 
Q 3963 2906 3769 2906 
Q 3419 2906 3187 2673 
Q 2956 2441 2956 1928 
L 2956 0 
L 2394 0 
L 2394 2156 
Q 2394 2531 2256 2718 
Q 2119 2906 1806 2906 
Q 1569 2906 1367 2781 
Q 1166 2656 1075 2415 
Q 984 2175 984 1722 
L 984 0 
L 422 0 
z
" id="ArialMT-6d" transform="scale(0.015625)"/>
      <path d="M 2694 1069 
L 3275 997 
Q 3138 488 2766 206 
Q 2394 -75 1816 -75 
Q 1088 -75 661 373 
Q 234 822 234 1631 
Q 234 2469 665 2931 
Q 1097 3394 1784 3394 
Q 2450 3394 2872 2941 
Q 3294 2488 3294 1666 
Q 3294 1616 3291 1516 
L 816 1516 
Q 847 969 1125 678 
Q 1403 388 1819 388 
Q 2128 388 2347 550 
Q 2566 713 2694 1069 
z
M 847 1978 
L 2700 1978 
Q 2663 2397 2488 2606 
Q 2219 2931 1791 2931 
Q 1403 2931 1139 2672 
Q 875 2413 847 1978 
z
" id="ArialMT-65" transform="scale(0.015625)"/>
      <path d="M 2575 0 
L 2575 419 
Q 2259 -75 1647 -75 
Q 1250 -75 917 144 
Q 584 363 401 755 
Q 219 1147 219 1656 
Q 219 2153 384 2558 
Q 550 2963 881 3178 
Q 1213 3394 1622 3394 
Q 1922 3394 2156 3267 
Q 2391 3141 2538 2938 
L 2538 4581 
L 3097 4581 
L 3097 0 
L 2575 0 
z
M 797 1656 
Q 797 1019 1065 703 
Q 1334 388 1700 388 
Q 2069 388 2326 689 
Q 2584 991 2584 1609 
Q 2584 2291 2321 2609 
Q 2059 2928 1675 2928 
Q 1300 2928 1048 2622 
Q 797 2316 797 1656 
z
" id="ArialMT-64" transform="scale(0.015625)"/>
      <path d="M 425 3934 
L 425 4581 
L 988 4581 
L 988 3934 
L 425 3934 
z
M 425 0 
L 425 3319 
L 988 3319 
L 988 0 
L 425 0 
z
" id="ArialMT-69" transform="scale(0.015625)"/>
      <path d="M 2588 409 
Q 2275 144 1986 34 
Q 1697 -75 1366 -75 
Q 819 -75 525 192 
Q 231 459 231 875 
Q 231 1119 342 1320 
Q 453 1522 633 1644 
Q 813 1766 1038 1828 
Q 1203 1872 1538 1913 
Q 2219 1994 2541 2106 
Q 2544 2222 2544 2253 
Q 2544 2597 2384 2738 
Q 2169 2928 1744 2928 
Q 1347 2928 1158 2789 
Q 969 2650 878 2297 
L 328 2372 
Q 403 2725 575 2942 
Q 747 3159 1072 3276 
Q 1397 3394 1825 3394 
Q 2250 3394 2515 3294 
Q 2781 3194 2906 3042 
Q 3031 2891 3081 2659 
Q 3109 2516 3109 2141 
L 3109 1391 
Q 3109 606 3145 398 
Q 3181 191 3288 0 
L 2700 0 
Q 2613 175 2588 409 
z
M 2541 1666 
Q 2234 1541 1622 1453 
Q 1275 1403 1131 1340 
Q 988 1278 909 1158 
Q 831 1038 831 891 
Q 831 666 1001 516 
Q 1172 366 1500 366 
Q 1825 366 2078 508 
Q 2331 650 2450 897 
Q 2541 1088 2541 1459 
L 2541 1666 
z
" id="ArialMT-61" transform="scale(0.015625)"/>
      <path d="M 422 0 
L 422 3319 
L 928 3319 
L 928 2847 
Q 1294 3394 1984 3394 
Q 2284 3394 2536 3286 
Q 2788 3178 2913 3003 
Q 3038 2828 3088 2588 
Q 3119 2431 3119 2041 
L 3119 0 
L 2556 0 
L 2556 2019 
Q 2556 2363 2490 2533 
Q 2425 2703 2258 2804 
Q 2091 2906 1866 2906 
Q 1506 2906 1245 2678 
Q 984 2450 984 1813 
L 984 0 
L 422 0 
z
" id="ArialMT-6e" transform="scale(0.015625)"/>
      <path d="M 3381 2694 
L 356 2694 
L 356 3219 
L 3381 3219 
L 3381 2694 
z
M 3381 1303 
L 356 1303 
L 356 1828 
L 3381 1828 
L 3381 1303 
z
" id="ArialMT-3d" transform="scale(0.015625)"/>
     </defs>
     <use xlink:href="#ArialMT-6d"/>
     <use x="83.300781" xlink:href="#ArialMT-65"/>
     <use x="138.916016" xlink:href="#ArialMT-64"/>
     <use x="194.53125" xlink:href="#ArialMT-69"/>
     <use x="216.748047" xlink:href="#ArialMT-61"/>
     <use x="272.363281" xlink:href="#ArialMT-6e"/>
     <use x="327.978516" xlink:href="#ArialMT-3d"/>
     <use x="386.376953" xlink:href="#ArialMT-32"/>
     <use x="441.992188" xlink:href="#ArialMT-2e"/>
     <use x="469.775391" xlink:href="#ArialMT-32"/>
     <use x="525.390625" xlink:href="#ArialMT-38"/>
    </g>
   </g>
  </g>
 </g>
 <defs>
  <clipPath id="pe2d0c37138">
   <rect height="217.44" width="334.8" x="7.2" y="7.2"/>
  </clipPath>
 </defs>
</svg>
