<?xml version="1.0" encoding="utf-8" standalone="no"?>
<!DOCTYPE svg PUBLIC "-//W3C//DTD SVG 1.1//EN"
  "http://www.w3.org/Graphics/SVG/1.1/DTD/svg11.dtd">
<svg height="269.844375pt" version="1.1" viewBox="0 0 395.454375 269.844375" width="395.454375pt" xmlns="http://www.w3.org/2000/svg" xmlns:xlink="http://www.w3.org/1999/xlink">
 <metadata>
  <rdf:RDF xmlns:cc="http://creativecommons.org/ns#" xmlns:dc="http://purl.org/dc/elements/1.1/" xmlns:rdf="http://www.w3.org/1999/02/22-rdf-syntax-ns#">
   <cc:Work>
    <dc:type rdf:resource="http://purl.org/dc/dcmitype/StillImage"/>
    <dc:date>2021-11-11T22:13:55.729484</dc:date>
    <dc:format>image/svg+xml</dc:format>
    <dc:creator>
     <cc:Agent>
      <dc:title>Matplotlib v3.4.3, https://matplotlib.org/</dc:title>
     </cc:Agent>
    </dc:creator>
   </cc:Work>
  </rdf:RDF>
 </metadata>
 <defs>
  <style type="text/css">*{stroke-linecap:butt;stroke-linejoin:round;}</style>
 </defs>
 <g id="figure_1">
  <g id="patch_1">
   <path d="M 0 269.844375 
L 395.454375 269.844375 
L 395.454375 0 
L 0 0 
z
" style="fill:#ffffff;"/>
  </g>
  <g id="axes_1">
   <g id="patch_2">
    <path d="M 53.454375 224.64 
L 388.254375 224.64 
L 388.254375 7.2 
L 53.454375 7.2 
z
" style="fill:#ffffff;"/>
   </g>
   <g id="matplotlib.axis_1">
    <g id="xtick_1">
     <g id="line2d_1">
      <defs>
       <path d="M 0 0 
L 0 6 
" id="m61f7abe8d2" style="stroke:#262626;stroke-width:1.25;"/>
      </defs>
      <g>
       <use style="fill:#262626;stroke:#262626;stroke-width:1.25;" x="221.275166" xlink:href="#m61f7abe8d2" y="224.64"/>
      </g>
     </g>
     <g id="text_1">
      <!-- $\mathdefault{10^{2}}$ -->
      <g style="fill:#262626;" transform="translate(212.640166 245.48375)scale(0.11 -0.11)">
       <defs>
        <path d="M 2384 0 
L 1822 0 
L 1822 3584 
Q 1619 3391 1289 3197 
Q 959 3003 697 2906 
L 697 3450 
Q 1169 3672 1522 3987 
Q 1875 4303 2022 4600 
L 2384 4600 
L 2384 0 
z
" id="ArialMT-31" transform="scale(0.015625)"/>
        <path d="M 266 2259 
Q 266 3072 433 3567 
Q 600 4063 929 4331 
Q 1259 4600 1759 4600 
Q 2128 4600 2406 4451 
Q 2684 4303 2865 4023 
Q 3047 3744 3150 3342 
Q 3253 2941 3253 2259 
Q 3253 1453 3087 958 
Q 2922 463 2592 192 
Q 2263 -78 1759 -78 
Q 1097 -78 719 397 
Q 266 969 266 2259 
z
M 844 2259 
Q 844 1131 1108 757 
Q 1372 384 1759 384 
Q 2147 384 2411 759 
Q 2675 1134 2675 2259 
Q 2675 3391 2411 3762 
Q 2147 4134 1753 4134 
Q 1366 4134 1134 3806 
Q 844 3388 844 2259 
z
" id="ArialMT-30" transform="scale(0.015625)"/>
        <path d="M 3222 541 
L 3222 0 
L 194 0 
Q 188 203 259 391 
Q 375 700 629 1000 
Q 884 1300 1366 1694 
Q 2113 2306 2375 2664 
Q 2638 3022 2638 3341 
Q 2638 3675 2398 3904 
Q 2159 4134 1775 4134 
Q 1369 4134 1125 3890 
Q 881 3647 878 3216 
L 300 3275 
Q 359 3922 746 4261 
Q 1134 4600 1788 4600 
Q 2447 4600 2831 4234 
Q 3216 3869 3216 3328 
Q 3216 3053 3103 2787 
Q 2991 2522 2730 2228 
Q 2469 1934 1863 1422 
Q 1356 997 1212 845 
Q 1069 694 975 541 
L 3222 541 
z
" id="ArialMT-32" transform="scale(0.015625)"/>
       </defs>
       <use transform="translate(0 0.99375)" xlink:href="#ArialMT-31"/>
       <use transform="translate(55.615234 0.99375)" xlink:href="#ArialMT-30"/>
       <use transform="translate(112.972813 70.6875)scale(0.7)" xlink:href="#ArialMT-32"/>
      </g>
     </g>
    </g>
    <g id="xtick_2">
     <g id="line2d_2">
      <defs>
       <path d="M 0 0 
L 0 4 
" id="mf0b502155f" style="stroke:#262626;"/>
      </defs>
      <g>
       <use style="fill:#262626;stroke:#262626;" x="68.672557" xlink:href="#mf0b502155f" y="224.64"/>
      </g>
     </g>
    </g>
    <g id="xtick_3">
     <g id="line2d_3">
      <g>
       <use style="fill:#262626;stroke:#262626;" x="107.117677" xlink:href="#mf0b502155f" y="224.64"/>
      </g>
     </g>
    </g>
    <g id="xtick_4">
     <g id="line2d_4">
      <g>
       <use style="fill:#262626;stroke:#262626;" x="134.394923" xlink:href="#mf0b502155f" y="224.64"/>
      </g>
     </g>
    </g>
    <g id="xtick_5">
     <g id="line2d_5">
      <g>
       <use style="fill:#262626;stroke:#262626;" x="155.5528" xlink:href="#mf0b502155f" y="224.64"/>
      </g>
     </g>
    </g>
    <g id="xtick_6">
     <g id="line2d_6">
      <g>
       <use style="fill:#262626;stroke:#262626;" x="172.840043" xlink:href="#mf0b502155f" y="224.64"/>
      </g>
     </g>
    </g>
    <g id="xtick_7">
     <g id="line2d_7">
      <g>
       <use style="fill:#262626;stroke:#262626;" x="187.456199" xlink:href="#mf0b502155f" y="224.64"/>
      </g>
     </g>
    </g>
    <g id="xtick_8">
     <g id="line2d_8">
      <g>
       <use style="fill:#262626;stroke:#262626;" x="200.11729" xlink:href="#mf0b502155f" y="224.64"/>
      </g>
     </g>
    </g>
    <g id="xtick_9">
     <g id="line2d_9">
      <g>
       <use style="fill:#262626;stroke:#262626;" x="211.285163" xlink:href="#mf0b502155f" y="224.64"/>
      </g>
     </g>
    </g>
    <g id="xtick_10">
     <g id="line2d_10">
      <g>
       <use style="fill:#262626;stroke:#262626;" x="286.997533" xlink:href="#mf0b502155f" y="224.64"/>
      </g>
     </g>
    </g>
    <g id="xtick_11">
     <g id="line2d_11">
      <g>
       <use style="fill:#262626;stroke:#262626;" x="325.442652" xlink:href="#mf0b502155f" y="224.64"/>
      </g>
     </g>
    </g>
    <g id="xtick_12">
     <g id="line2d_12">
      <g>
       <use style="fill:#262626;stroke:#262626;" x="352.719899" xlink:href="#mf0b502155f" y="224.64"/>
      </g>
     </g>
    </g>
    <g id="xtick_13">
     <g id="line2d_13">
      <g>
       <use style="fill:#262626;stroke:#262626;" x="373.877775" xlink:href="#mf0b502155f" y="224.64"/>
      </g>
     </g>
    </g>
    <g id="text_2">
     <!-- $m / M_\odot$ -->
     <g style="fill:#262626;" transform="translate(202.434375 260.259375)scale(0.12 -0.12)">
      <defs>
       <path d="M 5747 2113 
L 5338 0 
L 4763 0 
L 5166 2094 
Q 5191 2228 5203 2325 
Q 5216 2422 5216 2491 
Q 5216 2772 5059 2928 
Q 4903 3084 4622 3084 
Q 4203 3084 3875 2770 
Q 3547 2456 3450 1953 
L 3066 0 
L 2491 0 
L 2900 2094 
Q 2925 2209 2937 2307 
Q 2950 2406 2950 2484 
Q 2950 2769 2794 2926 
Q 2638 3084 2363 3084 
Q 1938 3084 1609 2770 
Q 1281 2456 1184 1953 
L 800 0 
L 225 0 
L 909 3500 
L 1484 3500 
L 1375 2956 
Q 1609 3263 1923 3423 
Q 2238 3584 2597 3584 
Q 2978 3584 3223 3384 
Q 3469 3184 3519 2828 
Q 3781 3197 4126 3390 
Q 4472 3584 4856 3584 
Q 5306 3584 5551 3325 
Q 5797 3066 5797 2591 
Q 5797 2488 5784 2364 
Q 5772 2241 5747 2113 
z
" id="DejaVuSans-Oblique-6d" transform="scale(0.015625)"/>
       <path d="M 1625 4666 
L 2156 4666 
L 531 -594 
L 0 -594 
L 1625 4666 
z
" id="DejaVuSans-2f" transform="scale(0.015625)"/>
       <path d="M 1081 4666 
L 2028 4666 
L 2572 1522 
L 4378 4666 
L 5350 4666 
L 4441 0 
L 3828 0 
L 4622 4091 
L 2791 897 
L 2175 897 
L 1581 4103 
L 788 0 
L 172 0 
L 1081 4666 
z
" id="DejaVuSans-Oblique-4d" transform="scale(0.015625)"/>
       <path d="M 2350 2403 
L 3013 2403 
L 3013 1609 
L 2350 1609 
L 2350 2403 
z
M 3306 3522 
Q 3016 3644 2681 3644 
Q 2347 3644 2056 3522 
Q 1769 3400 1531 3163 
Q 1291 2922 1172 2634 
Q 1053 2347 1053 2006 
Q 1053 1675 1172 1387 
Q 1291 1100 1531 859 
Q 1769 622 2056 500 
Q 2347 378 2681 378 
Q 3016 378 3306 500 
Q 3594 622 3831 859 
Q 4072 1100 4190 1387 
Q 4309 1675 4309 2006 
Q 4309 2347 4190 2634 
Q 4072 2922 3831 3163 
Q 3594 3400 3306 3522 
z
M 1878 3956 
Q 2250 4113 2681 4113 
Q 3113 4113 3484 3956 
Q 3856 3800 4163 3494 
Q 4472 3184 4625 2813 
Q 4778 2444 4778 2006 
Q 4778 1578 4625 1206 
Q 4472 838 4163 528 
Q 3856 222 3484 65 
Q 3113 -91 2681 -91 
Q 2250 -91 1878 65 
Q 1506 222 1200 528 
Q 891 838 738 1206 
Q 584 1578 584 2006 
Q 584 2444 738 2813 
Q 891 3184 1200 3494 
Q 1506 3800 1878 3956 
z
" id="DejaVuSans-2299" transform="scale(0.015625)"/>
      </defs>
      <use transform="translate(0 0.09375)" xlink:href="#DejaVuSans-Oblique-6d"/>
      <use transform="translate(97.412109 0.09375)" xlink:href="#DejaVuSans-2f"/>
      <use transform="translate(131.103516 0.09375)" xlink:href="#DejaVuSans-Oblique-4d"/>
      <use transform="translate(231.020508 -16.3125)scale(0.7)" xlink:href="#DejaVuSans-2299"/>
     </g>
    </g>
   </g>
   <g id="matplotlib.axis_2">
    <g id="ytick_1">
     <g id="line2d_14">
      <defs>
       <path d="M 0 0 
L -6 0 
" id="m4eb2252a11" style="stroke:#262626;stroke-width:1.25;"/>
      </defs>
      <g>
       <use style="fill:#262626;stroke:#262626;stroke-width:1.25;" x="53.454375" xlink:href="#m4eb2252a11" y="224.64"/>
      </g>
     </g>
     <g id="text_3">
      <!-- $\mathdefault{10^{-1}}$ -->
      <g style="fill:#262626;" transform="translate(22.174375 230.311875)scale(0.11 -0.11)">
       <defs>
        <path d="M 3381 1997 
L 356 1997 
L 356 2522 
L 3381 2522 
L 3381 1997 
z
" id="ArialMT-2212" transform="scale(0.015625)"/>
       </defs>
       <use transform="translate(0 0.99375)" xlink:href="#ArialMT-31"/>
       <use transform="translate(55.615234 0.99375)" xlink:href="#ArialMT-30"/>
       <use transform="translate(112.972813 70.6875)scale(0.7)" xlink:href="#ArialMT-2212"/>
       <use transform="translate(153.851719 70.6875)scale(0.7)" xlink:href="#ArialMT-31"/>
      </g>
     </g>
    </g>
    <g id="ytick_2">
     <g id="line2d_15">
      <g>
       <use style="fill:#262626;stroke:#262626;stroke-width:1.25;" x="53.454375" xlink:href="#m4eb2252a11" y="163.242755"/>
      </g>
     </g>
     <g id="text_4">
      <!-- $\mathdefault{10^{0}}$ -->
      <g style="fill:#262626;" transform="translate(26.684375 168.91463)scale(0.11 -0.11)">
       <use transform="translate(0 0.99375)" xlink:href="#ArialMT-31"/>
       <use transform="translate(55.615234 0.99375)" xlink:href="#ArialMT-30"/>
       <use transform="translate(112.972813 70.6875)scale(0.7)" xlink:href="#ArialMT-30"/>
      </g>
     </g>
    </g>
    <g id="ytick_3">
     <g id="line2d_16">
      <g>
       <use style="fill:#262626;stroke:#262626;stroke-width:1.25;" x="53.454375" xlink:href="#m4eb2252a11" y="101.84551"/>
      </g>
     </g>
     <g id="text_5">
      <!-- $\mathdefault{10^{1}}$ -->
      <g style="fill:#262626;" transform="translate(26.684375 107.517385)scale(0.11 -0.11)">
       <use transform="translate(0 0.99375)" xlink:href="#ArialMT-31"/>
       <use transform="translate(55.615234 0.99375)" xlink:href="#ArialMT-30"/>
       <use transform="translate(112.972813 70.6875)scale(0.7)" xlink:href="#ArialMT-31"/>
      </g>
     </g>
    </g>
    <g id="ytick_4">
     <g id="line2d_17">
      <g>
       <use style="fill:#262626;stroke:#262626;stroke-width:1.25;" x="53.454375" xlink:href="#m4eb2252a11" y="40.448264"/>
      </g>
     </g>
     <g id="text_6">
      <!-- $\mathdefault{10^{2}}$ -->
      <g style="fill:#262626;" transform="translate(26.684375 46.120139)scale(0.11 -0.11)">
       <use transform="translate(0 0.99375)" xlink:href="#ArialMT-31"/>
       <use transform="translate(55.615234 0.99375)" xlink:href="#ArialMT-30"/>
       <use transform="translate(112.972813 70.6875)scale(0.7)" xlink:href="#ArialMT-32"/>
      </g>
     </g>
    </g>
    <g id="ytick_5">
     <g id="line2d_18">
      <defs>
       <path d="M 0 0 
L -4 0 
" id="md3258d1978" style="stroke:#262626;"/>
      </defs>
      <g>
       <use style="fill:#262626;stroke:#262626;" x="53.454375" xlink:href="#md3258d1978" y="206.157588"/>
      </g>
     </g>
    </g>
    <g id="ytick_6">
     <g id="line2d_19">
      <g>
       <use style="fill:#262626;stroke:#262626;" x="53.454375" xlink:href="#md3258d1978" y="195.346069"/>
      </g>
     </g>
    </g>
    <g id="ytick_7">
     <g id="line2d_20">
      <g>
       <use style="fill:#262626;stroke:#262626;" x="53.454375" xlink:href="#md3258d1978" y="187.675175"/>
      </g>
     </g>
    </g>
    <g id="ytick_8">
     <g id="line2d_21">
      <g>
       <use style="fill:#262626;stroke:#262626;" x="53.454375" xlink:href="#md3258d1978" y="181.725167"/>
      </g>
     </g>
    </g>
    <g id="ytick_9">
     <g id="line2d_22">
      <g>
       <use style="fill:#262626;stroke:#262626;" x="53.454375" xlink:href="#md3258d1978" y="176.863657"/>
      </g>
     </g>
    </g>
    <g id="ytick_10">
     <g id="line2d_23">
      <g>
       <use style="fill:#262626;stroke:#262626;" x="53.454375" xlink:href="#md3258d1978" y="172.753308"/>
      </g>
     </g>
    </g>
    <g id="ytick_11">
     <g id="line2d_24">
      <g>
       <use style="fill:#262626;stroke:#262626;" x="53.454375" xlink:href="#md3258d1978" y="169.192763"/>
      </g>
     </g>
    </g>
    <g id="ytick_12">
     <g id="line2d_25">
      <g>
       <use style="fill:#262626;stroke:#262626;" x="53.454375" xlink:href="#md3258d1978" y="166.052139"/>
      </g>
     </g>
    </g>
    <g id="ytick_13">
     <g id="line2d_26">
      <g>
       <use style="fill:#262626;stroke:#262626;" x="53.454375" xlink:href="#md3258d1978" y="144.760342"/>
      </g>
     </g>
    </g>
    <g id="ytick_14">
     <g id="line2d_27">
      <g>
       <use style="fill:#262626;stroke:#262626;" x="53.454375" xlink:href="#md3258d1978" y="133.948824"/>
      </g>
     </g>
    </g>
    <g id="ytick_15">
     <g id="line2d_28">
      <g>
       <use style="fill:#262626;stroke:#262626;" x="53.454375" xlink:href="#md3258d1978" y="126.27793"/>
      </g>
     </g>
    </g>
    <g id="ytick_16">
     <g id="line2d_29">
      <g>
       <use style="fill:#262626;stroke:#262626;" x="53.454375" xlink:href="#md3258d1978" y="120.327922"/>
      </g>
     </g>
    </g>
    <g id="ytick_17">
     <g id="line2d_30">
      <g>
       <use style="fill:#262626;stroke:#262626;" x="53.454375" xlink:href="#md3258d1978" y="115.466412"/>
      </g>
     </g>
    </g>
    <g id="ytick_18">
     <g id="line2d_31">
      <g>
       <use style="fill:#262626;stroke:#262626;" x="53.454375" xlink:href="#md3258d1978" y="111.356063"/>
      </g>
     </g>
    </g>
    <g id="ytick_19">
     <g id="line2d_32">
      <g>
       <use style="fill:#262626;stroke:#262626;" x="53.454375" xlink:href="#md3258d1978" y="107.795517"/>
      </g>
     </g>
    </g>
    <g id="ytick_20">
     <g id="line2d_33">
      <g>
       <use style="fill:#262626;stroke:#262626;" x="53.454375" xlink:href="#md3258d1978" y="104.654893"/>
      </g>
     </g>
    </g>
    <g id="ytick_21">
     <g id="line2d_34">
      <g>
       <use style="fill:#262626;stroke:#262626;" x="53.454375" xlink:href="#md3258d1978" y="83.363097"/>
      </g>
     </g>
    </g>
    <g id="ytick_22">
     <g id="line2d_35">
      <g>
       <use style="fill:#262626;stroke:#262626;" x="53.454375" xlink:href="#md3258d1978" y="72.551579"/>
      </g>
     </g>
    </g>
    <g id="ytick_23">
     <g id="line2d_36">
      <g>
       <use style="fill:#262626;stroke:#262626;" x="53.454375" xlink:href="#md3258d1978" y="64.880685"/>
      </g>
     </g>
    </g>
    <g id="ytick_24">
     <g id="line2d_37">
      <g>
       <use style="fill:#262626;stroke:#262626;" x="53.454375" xlink:href="#md3258d1978" y="58.930677"/>
      </g>
     </g>
    </g>
    <g id="ytick_25">
     <g id="line2d_38">
      <g>
       <use style="fill:#262626;stroke:#262626;" x="53.454375" xlink:href="#md3258d1978" y="54.069166"/>
      </g>
     </g>
    </g>
    <g id="ytick_26">
     <g id="line2d_39">
      <g>
       <use style="fill:#262626;stroke:#262626;" x="53.454375" xlink:href="#md3258d1978" y="49.958818"/>
      </g>
     </g>
    </g>
    <g id="ytick_27">
     <g id="line2d_40">
      <g>
       <use style="fill:#262626;stroke:#262626;" x="53.454375" xlink:href="#md3258d1978" y="46.398272"/>
      </g>
     </g>
    </g>
    <g id="ytick_28">
     <g id="line2d_41">
      <g>
       <use style="fill:#262626;stroke:#262626;" x="53.454375" xlink:href="#md3258d1978" y="43.257648"/>
      </g>
     </g>
    </g>
    <g id="ytick_29">
     <g id="line2d_42">
      <g>
       <use style="fill:#262626;stroke:#262626;" x="53.454375" xlink:href="#md3258d1978" y="21.965852"/>
      </g>
     </g>
    </g>
    <g id="ytick_30">
     <g id="line2d_43">
      <g>
       <use style="fill:#262626;stroke:#262626;" x="53.454375" xlink:href="#md3258d1978" y="11.154334"/>
      </g>
     </g>
    </g>
    <g id="text_7">
     <!-- $m \mathrm{d} N / \mathrm{d} m$ -->
     <g style="fill:#262626;" transform="translate(15.789375 141.78)rotate(-90)scale(0.12 -0.12)">
      <defs>
       <path d="M 2906 2969 
L 2906 4863 
L 3481 4863 
L 3481 0 
L 2906 0 
L 2906 525 
Q 2725 213 2448 61 
Q 2172 -91 1784 -91 
Q 1150 -91 751 415 
Q 353 922 353 1747 
Q 353 2572 751 3078 
Q 1150 3584 1784 3584 
Q 2172 3584 2448 3432 
Q 2725 3281 2906 2969 
z
M 947 1747 
Q 947 1113 1208 752 
Q 1469 391 1925 391 
Q 2381 391 2643 752 
Q 2906 1113 2906 1747 
Q 2906 2381 2643 2742 
Q 2381 3103 1925 3103 
Q 1469 3103 1208 2742 
Q 947 2381 947 1747 
z
" id="DejaVuSans-64" transform="scale(0.015625)"/>
       <path d="M 1081 4666 
L 1931 4666 
L 3219 666 
L 4000 4666 
L 4616 4666 
L 3706 0 
L 2853 0 
L 1569 4025 
L 788 0 
L 172 0 
L 1081 4666 
z
" id="DejaVuSans-Oblique-4e" transform="scale(0.015625)"/>
      </defs>
      <use transform="translate(0 0.015625)" xlink:href="#DejaVuSans-Oblique-6d"/>
      <use transform="translate(97.412109 0.015625)" xlink:href="#DejaVuSans-64"/>
      <use transform="translate(160.888672 0.015625)" xlink:href="#DejaVuSans-Oblique-4e"/>
      <use transform="translate(235.693359 0.015625)" xlink:href="#DejaVuSans-2f"/>
      <use transform="translate(269.384766 0.015625)" xlink:href="#DejaVuSans-64"/>
      <use transform="translate(332.861328 0.015625)" xlink:href="#DejaVuSans-Oblique-6d"/>
     </g>
    </g>
   </g>
   <g id="PolyCollection_1">
    <defs>
     <path d="M 68.672557 -252.512827 
L 68.672557 -258.676646 
L 69.62073 -258.14256 
L 70.568903 -257.599373 
L 71.517077 -257.04619 
L 72.46525 -256.500267 
L 73.413423 -255.951957 
L 74.361597 -255.403036 
L 75.30977 -254.867421 
L 76.257943 -254.319982 
L 77.206117 -253.779096 
L 78.15429 -253.237933 
L 79.102463 -252.687842 
L 80.050637 -252.138256 
L 80.99881 -251.618561 
L 81.946983 -251.066338 
L 82.895157 -250.53691 
L 83.84333 -249.979724 
L 84.791503 -249.441787 
L 85.739677 -248.891774 
L 86.68785 -248.342936 
L 87.636023 -247.803455 
L 88.584197 -247.257631 
L 89.53237 -246.736021 
L 90.480543 -246.212747 
L 91.428717 -245.670825 
L 92.37689 -245.135901 
L 93.325063 -244.578886 
L 94.273237 -244.042518 
L 95.22141 -243.477276 
L 96.169583 -242.924726 
L 97.117756 -242.37308 
L 98.06593 -241.836788 
L 99.014103 -241.29786 
L 99.962276 -240.765185 
L 100.91045 -240.237223 
L 101.858623 -239.707934 
L 102.806796 -239.154347 
L 103.75497 -238.616415 
L 104.703143 -238.069697 
L 105.651316 -237.548461 
L 106.59949 -237.032614 
L 107.547663 -236.538447 
L 108.495836 -236.004243 
L 109.44401 -235.467683 
L 110.392183 -234.957871 
L 111.340356 -234.423291 
L 112.28853 -233.888059 
L 113.236703 -233.365176 
L 114.184876 -232.845523 
L 115.13305 -232.311867 
L 116.081223 -231.803258 
L 117.029396 -231.280577 
L 117.97757 -230.752335 
L 118.925743 -230.230255 
L 119.873916 -229.734785 
L 120.82209 -229.217555 
L 121.770263 -228.685888 
L 122.718436 -228.170832 
L 123.666609 -227.651577 
L 124.614783 -227.147227 
L 125.562956 -226.617678 
L 126.511129 -226.120646 
L 127.459303 -225.60503 
L 128.407476 -225.090468 
L 129.355649 -224.585952 
L 130.303823 -224.071225 
L 131.251996 -223.559993 
L 132.200169 -223.05553 
L 133.148343 -222.538136 
L 134.096516 -222.0258 
L 135.044689 -221.514247 
L 135.992863 -221.00654 
L 136.941036 -220.50619 
L 137.889209 -219.989884 
L 138.837383 -219.491075 
L 139.785556 -218.995526 
L 140.733729 -218.482567 
L 141.681903 -217.984469 
L 142.630076 -217.492827 
L 143.578249 -216.982172 
L 144.526423 -216.48307 
L 145.474596 -215.969706 
L 146.422769 -215.454552 
L 147.370943 -214.965326 
L 148.319116 -214.50296 
L 149.267289 -214.010507 
L 150.215463 -213.512346 
L 151.163636 -213.022777 
L 152.111809 -212.540799 
L 153.059982 -212.038457 
L 154.008156 -211.537766 
L 154.956329 -211.050461 
L 155.904502 -210.566993 
L 156.852676 -210.077166 
L 157.800849 -209.576322 
L 158.749022 -209.082042 
L 159.697196 -208.59823 
L 160.645369 -208.126114 
L 161.593542 -207.640515 
L 162.541716 -207.150514 
L 163.489889 -206.658746 
L 164.438062 -206.175408 
L 165.386236 -205.673208 
L 166.334409 -205.182354 
L 167.282582 -204.701586 
L 168.230756 -204.218444 
L 169.178929 -203.735879 
L 170.127102 -203.256829 
L 171.075276 -202.775382 
L 172.023449 -202.285472 
L 172.971622 -201.801993 
L 173.919796 -201.319401 
L 174.867969 -200.838775 
L 175.816142 -200.358776 
L 176.764316 -199.887898 
L 177.712489 -199.396007 
L 178.660662 -198.915175 
L 179.608835 -198.42151 
L 180.557009 -197.919189 
L 181.505182 -197.456295 
L 182.453355 -196.946556 
L 183.401529 -196.458395 
L 184.349702 -195.97927 
L 185.297875 -195.501436 
L 186.246049 -195.027016 
L 187.194222 -194.564388 
L 188.142395 -194.080335 
L 189.090569 -193.606417 
L 190.038742 -193.136584 
L 190.986915 -192.650857 
L 191.935089 -192.163785 
L 192.883262 -191.695736 
L 193.831435 -191.220644 
L 194.779609 -190.750664 
L 195.727782 -190.281602 
L 196.675955 -189.779949 
L 197.624129 -189.280285 
L 198.572302 -188.782302 
L 199.520475 -188.294986 
L 200.468649 -187.810405 
L 201.416822 -187.329207 
L 202.364995 -186.862561 
L 203.313169 -186.395915 
L 204.261342 -185.92261 
L 205.209515 -185.436095 
L 206.157689 -184.94991 
L 207.105862 -184.481923 
L 208.054035 -184.022867 
L 209.002208 -183.556239 
L 209.950382 -183.096966 
L 210.898555 -182.589642 
L 211.846728 -182.109765 
L 212.794902 -181.622301 
L 213.743075 -181.143762 
L 214.691248 -180.678134 
L 215.639422 -180.186958 
L 216.587595 -179.719826 
L 217.535768 -179.23454 
L 218.483942 -178.727553 
L 219.432115 -178.257349 
L 220.380288 -177.779359 
L 221.328462 -177.310787 
L 222.276635 -176.82732 
L 223.224808 -176.35345 
L 224.172982 -175.895148 
L 225.121155 -175.405587 
L 226.069328 -174.937444 
L 227.017502 -174.467055 
L 227.965675 -173.994618 
L 228.913848 -173.509627 
L 229.862022 -173.033578 
L 230.810195 -172.557953 
L 231.758368 -172.072585 
L 232.706542 -171.60643 
L 233.654715 -171.108841 
L 234.602888 -170.629923 
L 235.551061 -170.15976 
L 236.499235 -169.709691 
L 237.447408 -169.234035 
L 238.395581 -168.752961 
L 239.343755 -168.277708 
L 240.291928 -167.795115 
L 241.240101 -167.322134 
L 242.188275 -166.850401 
L 243.136448 -166.378668 
L 244.084621 -165.910238 
L 245.032795 -165.448248 
L 245.980968 -164.969319 
L 246.929141 -164.488235 
L 247.877315 -164.013924 
L 248.825488 -163.530792 
L 249.773661 -163.044268 
L 250.721835 -162.552906 
L 251.670008 -162.081071 
L 252.618181 -161.598393 
L 253.566355 -161.123361 
L 254.514528 -160.653473 
L 255.462701 -160.161922 
L 256.410875 -159.673875 
L 257.359048 -159.183129 
L 258.307221 -158.705366 
L 259.255395 -158.23378 
L 260.203568 -157.769328 
L 261.151741 -157.277545 
L 262.099915 -156.780799 
L 263.048088 -156.292518 
L 263.996261 -155.812084 
L 264.944434 -155.343984 
L 265.892608 -154.875011 
L 266.840781 -154.375533 
L 267.788954 -153.870449 
L 268.737128 -153.402615 
L 269.685301 -152.926007 
L 270.633474 -152.468297 
L 271.581648 -151.978514 
L 272.529821 -151.504603 
L 273.477994 -150.999911 
L 274.426168 -150.516935 
L 275.374341 -150.042912 
L 276.322514 -149.56889 
L 277.270688 -149.094868 
L 278.218861 -148.614803 
L 279.167034 -148.134436 
L 280.115208 -147.654069 
L 281.063381 -147.173703 
L 282.011554 -146.693337 
L 282.959728 -146.212971 
L 283.907901 -145.732606 
L 284.856074 -145.250406 
L 285.804248 -144.76709 
L 286.752421 -144.300591 
L 287.700594 -143.823591 
L 288.648768 -143.332823 
L 289.596941 -142.857198 
L 290.545114 -142.379337 
L 291.493287 -141.880685 
L 292.441461 -141.388782 
L 293.389634 -140.905755 
L 294.337807 -140.422729 
L 295.285981 -139.938943 
L 296.234154 -139.456434 
L 297.182327 -138.978902 
L 298.130501 -138.513758 
L 299.078674 -138.024245 
L 300.026847 -137.556513 
L 300.975021 -137.073593 
L 301.923194 -136.577649 
L 302.871367 -136.089416 
L 303.819541 -135.605441 
L 304.767714 -135.121467 
L 305.715887 -134.639474 
L 306.664061 -134.158824 
L 307.612234 -133.671379 
L 308.560407 -133.181054 
L 309.508581 -132.712813 
L 310.456754 -132.234233 
L 311.404927 -131.753756 
L 312.353101 -131.28545 
L 313.301274 -130.808982 
L 314.249447 -130.325433 
L 315.197621 -129.841888 
L 316.145794 -129.365024 
L 317.093967 -128.894517 
L 318.042141 -128.422464 
L 318.990314 -127.950414 
L 319.938487 -127.463 
L 320.88666 -126.970894 
L 321.834834 -126.480259 
L 322.783007 -126.002474 
L 323.73118 -125.52469 
L 324.679354 -125.037802 
L 325.627527 -124.553774 
L 326.5757 -124.078961 
L 327.523874 -123.604147 
L 328.472047 -123.137971 
L 329.42022 -122.672891 
L 330.368394 -122.177398 
L 331.316567 -121.692348 
L 332.26474 -121.203981 
L 333.212914 -120.727071 
L 334.161087 -120.25016 
L 335.10926 -119.772871 
L 336.057434 -119.307444 
L 337.005607 -118.835315 
L 337.95378 -118.345791 
L 338.901954 -117.860333 
L 339.850127 -117.382198 
L 340.7983 -116.904064 
L 341.746474 -116.424263 
L 342.694647 -115.942705 
L 343.64282 -115.461148 
L 344.590994 -114.979591 
L 345.539167 -114.498033 
L 346.48734 -114.019195 
L 347.435513 -113.543984 
L 348.383687 -113.068772 
L 349.33186 -112.59356 
L 350.280033 -112.118348 
L 351.228207 -111.643136 
L 352.17638 -111.167925 
L 353.124553 -110.692713 
L 354.072727 -110.217501 
L 355.0209 -109.74229 
L 355.969073 -109.268018 
L 356.917247 -108.794748 
L 357.86542 -108.321479 
L 358.813593 -107.84821 
L 359.761767 -107.374717 
L 360.70994 -106.897759 
L 361.658113 -106.420801 
L 362.606287 -105.943845 
L 363.55446 -105.468945 
L 364.502633 -104.995109 
L 365.450807 -104.510759 
L 366.39898 -104.021411 
L 367.347153 -103.543426 
L 368.295327 -103.066501 
L 369.2435 -102.589576 
L 370.191673 -102.112652 
L 371.139847 -101.639327 
L 372.08802 -101.16799 
L 373.036193 -100.696652 
L 373.036193 -76.280986 
L 373.036193 -76.280986 
L 372.08802 -76.849709 
L 371.139847 -77.418432 
L 370.191673 -77.990504 
L 369.2435 -78.566433 
L 368.295327 -79.13295 
L 367.347153 -79.693837 
L 366.39898 -80.254724 
L 365.450807 -80.820388 
L 364.502633 -81.386247 
L 363.55446 -81.950434 
L 362.606287 -82.512434 
L 361.658113 -83.075688 
L 360.70994 -83.640522 
L 359.761767 -84.210538 
L 358.813593 -84.780553 
L 357.86542 -85.350569 
L 356.917247 -85.918447 
L 355.969073 -86.484619 
L 355.0209 -87.050791 
L 354.072727 -87.614998 
L 353.124553 -88.178556 
L 352.17638 -88.740418 
L 351.228207 -89.284001 
L 350.280033 -89.827587 
L 349.33186 -90.377138 
L 348.383687 -90.938601 
L 347.435513 -91.500909 
L 346.48734 -92.063217 
L 345.539167 -92.626919 
L 344.590994 -93.191964 
L 343.64282 -93.757009 
L 342.694647 -94.322054 
L 341.746474 -94.887099 
L 340.7983 -95.45334 
L 339.850127 -96.020949 
L 338.901954 -96.587559 
L 337.95378 -97.150662 
L 337.005607 -97.716303 
L 336.057434 -98.283359 
L 335.10926 -98.85293 
L 334.161087 -99.414468 
L 333.212914 -99.964497 
L 332.26474 -100.523953 
L 331.316567 -101.088335 
L 330.368394 -101.652718 
L 329.42022 -102.220215 
L 328.472047 -102.788253 
L 327.523874 -103.351278 
L 326.5757 -103.910092 
L 325.627527 -104.476135 
L 324.679354 -105.023416 
L 323.73118 -105.577251 
L 322.783007 -106.133891 
L 321.834834 -106.697567 
L 320.88666 -107.269009 
L 319.938487 -107.841578 
L 318.990314 -108.414148 
L 318.042141 -108.986717 
L 317.093967 -109.559287 
L 316.145794 -110.131857 
L 315.197621 -110.704426 
L 314.249447 -111.27196 
L 313.301274 -111.823248 
L 312.353101 -112.371014 
L 311.404927 -112.929531 
L 310.456754 -113.497143 
L 309.508581 -114.065974 
L 308.560407 -114.628718 
L 307.612234 -115.199178 
L 306.664061 -115.763175 
L 305.715887 -116.332597 
L 304.767714 -116.90538 
L 303.819541 -117.473638 
L 302.871367 -118.039378 
L 301.923194 -118.603492 
L 300.975021 -119.169677 
L 300.026847 -119.738359 
L 299.078674 -120.307041 
L 298.130501 -120.875723 
L 297.182327 -121.445264 
L 296.234154 -122.015141 
L 295.285981 -122.583125 
L 294.337807 -123.148098 
L 293.389634 -123.705858 
L 292.441461 -124.250485 
L 291.493287 -124.810696 
L 290.545114 -125.38093 
L 289.596941 -125.955431 
L 288.648768 -126.515114 
L 287.700594 -127.071949 
L 286.752421 -127.62884 
L 285.804248 -128.205671 
L 284.856074 -128.751723 
L 283.907901 -129.328803 
L 282.959728 -129.894664 
L 282.011554 -130.463093 
L 281.063381 -131.031762 
L 280.115208 -131.600934 
L 279.167034 -132.165785 
L 278.218861 -132.730341 
L 277.270688 -133.287679 
L 276.322514 -133.845018 
L 275.374341 -134.405791 
L 274.426168 -134.979477 
L 273.477994 -135.548342 
L 272.529821 -136.111624 
L 271.581648 -136.677472 
L 270.633474 -137.242363 
L 269.685301 -137.803471 
L 268.737128 -138.361341 
L 267.788954 -138.918941 
L 266.840781 -139.473089 
L 265.892608 -140.024648 
L 264.944434 -140.56916 
L 263.996261 -141.133675 
L 263.048088 -141.695389 
L 262.099915 -142.261229 
L 261.151741 -142.829102 
L 260.203568 -143.380684 
L 259.255395 -143.938776 
L 258.307221 -144.501833 
L 257.359048 -145.070393 
L 256.410875 -145.64565 
L 255.462701 -146.208545 
L 254.514528 -146.77409 
L 253.566355 -147.342866 
L 252.618181 -147.881875 
L 251.670008 -148.451042 
L 250.721835 -149.023319 
L 249.773661 -149.581003 
L 248.825488 -150.159183 
L 247.877315 -150.709388 
L 246.929141 -151.27572 
L 245.980968 -151.843177 
L 245.032795 -152.402635 
L 244.084621 -152.993991 
L 243.136448 -153.559673 
L 242.188275 -154.109967 
L 241.240101 -154.664387 
L 240.291928 -155.230923 
L 239.343755 -155.802169 
L 238.395581 -156.347035 
L 237.447408 -156.905431 
L 236.499235 -157.465118 
L 235.551061 -158.019543 
L 234.602888 -158.585547 
L 233.654715 -159.142965 
L 232.706542 -159.707415 
L 231.758368 -160.273672 
L 230.810195 -160.835833 
L 229.862022 -161.406533 
L 228.913848 -161.974395 
L 227.965675 -162.530442 
L 227.017502 -163.092343 
L 226.069328 -163.657432 
L 225.121155 -164.208344 
L 224.172982 -164.770096 
L 223.224808 -165.330726 
L 222.276635 -165.8899 
L 221.328462 -166.46183 
L 220.380288 -167.019313 
L 219.432115 -167.565954 
L 218.483942 -168.128875 
L 217.535768 -168.69284 
L 216.587595 -169.237879 
L 215.639422 -169.773987 
L 214.691248 -170.346084 
L 213.743075 -170.920869 
L 212.794902 -171.495655 
L 211.846728 -172.070443 
L 210.898555 -172.635767 
L 209.950382 -173.172195 
L 209.002208 -173.732646 
L 208.054035 -174.30859 
L 207.105862 -174.844401 
L 206.157689 -175.408995 
L 205.209515 -175.975579 
L 204.261342 -176.51789 
L 203.313169 -177.069152 
L 202.364995 -177.614824 
L 201.416822 -178.160169 
L 200.468649 -178.708573 
L 199.520475 -179.272685 
L 198.572302 -179.840614 
L 197.624129 -180.413962 
L 196.675955 -180.975926 
L 195.727782 -181.547721 
L 194.779609 -182.103109 
L 193.831435 -182.642273 
L 192.883262 -183.21387 
L 191.935089 -183.79759 
L 190.986915 -184.333648 
L 190.038742 -184.88537 
L 189.090569 -185.451653 
L 188.142395 -186.008083 
L 187.194222 -186.583442 
L 186.246049 -187.135754 
L 185.297875 -187.683921 
L 184.349702 -188.247953 
L 183.401529 -188.79129 
L 182.453355 -189.381231 
L 181.505182 -189.917788 
L 180.557009 -190.458692 
L 179.608835 -191.017702 
L 178.660662 -191.59766 
L 177.712489 -192.169079 
L 176.764316 -192.714815 
L 175.816142 -193.258877 
L 174.867969 -193.801397 
L 173.919796 -194.361216 
L 172.971622 -194.909724 
L 172.023449 -195.457423 
L 171.075276 -196.010825 
L 170.127102 -196.563284 
L 169.178929 -197.116239 
L 168.230756 -197.656526 
L 167.282582 -198.202847 
L 166.334409 -198.763181 
L 165.386236 -199.337969 
L 164.438062 -199.89781 
L 163.489889 -200.430916 
L 162.541716 -200.967297 
L 161.593542 -201.508501 
L 160.645369 -202.048903 
L 159.697196 -202.607384 
L 158.749022 -203.153877 
L 157.800849 -203.706894 
L 156.852676 -204.241865 
L 155.904502 -204.797048 
L 154.956329 -205.335387 
L 154.008156 -205.891924 
L 153.059982 -206.437034 
L 152.111809 -207.017422 
L 151.163636 -207.563309 
L 150.215463 -208.112901 
L 149.267289 -208.658723 
L 148.319116 -209.218186 
L 147.370943 -209.776249 
L 146.422769 -210.307785 
L 145.474596 -210.843994 
L 144.526423 -211.39308 
L 143.578249 -211.945926 
L 142.630076 -212.512722 
L 141.681903 -213.025693 
L 140.733729 -213.5658 
L 139.785556 -214.104637 
L 138.837383 -214.651351 
L 137.889209 -215.186302 
L 136.941036 -215.715937 
L 135.992863 -216.266106 
L 135.044689 -216.804546 
L 134.096516 -217.346756 
L 133.148343 -217.897813 
L 132.200169 -218.435195 
L 131.251996 -218.973943 
L 130.303823 -219.506196 
L 129.355649 -220.044218 
L 128.407476 -220.579566 
L 127.459303 -221.110102 
L 126.511129 -221.642254 
L 125.562956 -222.137129 
L 124.614783 -222.673271 
L 123.666609 -223.18211 
L 122.718436 -223.718034 
L 121.770263 -224.261064 
L 120.82209 -224.781364 
L 119.873916 -225.315173 
L 118.925743 -225.824717 
L 117.97757 -226.359595 
L 117.029396 -226.877357 
L 116.081223 -227.403805 
L 115.13305 -227.934484 
L 114.184876 -228.444309 
L 113.236703 -228.967604 
L 112.28853 -229.492979 
L 111.340356 -230.009937 
L 110.392183 -230.529587 
L 109.44401 -231.051165 
L 108.495836 -231.560139 
L 107.547663 -232.083211 
L 106.59949 -232.58356 
L 105.651316 -233.085125 
L 104.703143 -233.595109 
L 103.75497 -234.110484 
L 102.806796 -234.620324 
L 101.858623 -235.120418 
L 100.91045 -235.612025 
L 99.962276 -236.11672 
L 99.014103 -236.606456 
L 98.06593 -237.090773 
L 97.117756 -237.593378 
L 96.169583 -238.098296 
L 95.22141 -238.607321 
L 94.273237 -239.100531 
L 93.325063 -239.616388 
L 92.37689 -240.128341 
L 91.428717 -240.615953 
L 90.480543 -241.118432 
L 89.53237 -241.614787 
L 88.584197 -242.125812 
L 87.636023 -242.598414 
L 86.68785 -243.107516 
L 85.739677 -243.643392 
L 84.791503 -244.121139 
L 83.84333 -244.618671 
L 82.895157 -245.116823 
L 81.946983 -245.601388 
L 80.99881 -246.093378 
L 80.050637 -246.581046 
L 79.102463 -247.086485 
L 78.15429 -247.584363 
L 77.206117 -248.061687 
L 76.257943 -248.540752 
L 75.30977 -249.019577 
L 74.361597 -249.508596 
L 73.413423 -250.014741 
L 72.46525 -250.509595 
L 71.517077 -251.010422 
L 70.568903 -251.513064 
L 69.62073 -252.014009 
L 68.672557 -252.512827 
z
" id="ma77a6c64d1" style="stroke:#0173b2;stroke-opacity:0.25;"/>
    </defs>
    <g clip-path="url(#pf487fa3ca0)">
     <use style="fill:#0173b2;fill-opacity:0.25;stroke:#0173b2;stroke-opacity:0.25;" x="0" xlink:href="#ma77a6c64d1" y="269.844375"/>
    </g>
   </g>
   <g id="PolyCollection_2">
    <defs>
     <path d="M 68.672557 -249.340822 
L 68.672557 -261.34341 
L 69.62073 -260.759467 
L 70.568903 -260.191126 
L 71.517077 -259.647692 
L 72.46525 -259.078344 
L 73.413423 -258.496814 
L 74.361597 -257.91143 
L 75.30977 -257.327753 
L 76.257943 -256.798213 
L 77.206117 -256.212051 
L 78.15429 -255.66338 
L 79.102463 -255.115049 
L 80.050637 -254.506924 
L 80.99881 -253.934774 
L 81.946983 -253.371922 
L 82.895157 -252.781336 
L 83.84333 -252.220633 
L 84.791503 -251.660634 
L 85.739677 -251.100283 
L 86.68785 -250.539933 
L 87.636023 -249.979582 
L 88.584197 -249.430895 
L 89.53237 -248.879158 
L 90.480543 -248.305018 
L 91.428717 -247.797427 
L 92.37689 -247.228723 
L 93.325063 -246.666568 
L 94.273237 -246.121142 
L 95.22141 -245.566209 
L 96.169583 -244.963006 
L 97.117756 -244.426397 
L 98.06593 -243.839369 
L 99.014103 -243.309396 
L 99.962276 -242.763575 
L 100.91045 -242.22529 
L 101.858623 -241.631673 
L 102.806796 -241.099898 
L 103.75497 -240.549871 
L 104.703143 -240.037596 
L 105.651316 -239.500745 
L 106.59949 -238.975976 
L 107.547663 -238.444523 
L 108.495836 -237.904369 
L 109.44401 -237.381375 
L 110.392183 -236.848527 
L 111.340356 -236.302111 
L 112.28853 -235.771503 
L 113.236703 -235.257553 
L 114.184876 -234.738942 
L 115.13305 -234.225027 
L 116.081223 -233.714285 
L 117.029396 -233.208903 
L 117.97757 -232.701848 
L 118.925743 -232.167806 
L 119.873916 -231.660225 
L 120.82209 -231.165163 
L 121.770263 -230.682667 
L 122.718436 -230.189131 
L 123.666609 -229.693521 
L 124.614783 -229.197893 
L 125.562956 -228.703038 
L 126.511129 -228.207893 
L 127.459303 -227.714787 
L 128.407476 -227.23044 
L 129.355649 -226.765024 
L 130.303823 -226.301796 
L 131.251996 -225.774262 
L 132.200169 -225.299861 
L 133.148343 -224.83461 
L 134.096516 -224.374839 
L 135.044689 -223.943573 
L 135.992863 -223.493069 
L 136.941036 -223.013121 
L 137.889209 -222.505805 
L 138.837383 -222.038033 
L 139.785556 -221.534954 
L 140.733729 -221.026662 
L 141.681903 -220.551054 
L 142.630076 -220.044461 
L 143.578249 -219.57673 
L 144.526423 -219.112794 
L 145.474596 -218.616071 
L 146.422769 -218.137895 
L 147.370943 -217.680558 
L 148.319116 -217.204603 
L 149.267289 -216.748194 
L 150.215463 -216.278863 
L 151.163636 -215.829334 
L 152.111809 -215.351217 
L 153.059982 -214.879328 
L 154.008156 -214.382168 
L 154.956329 -213.905765 
L 155.904502 -213.43099 
L 156.852676 -212.945976 
L 157.800849 -212.478982 
L 158.749022 -212.011011 
L 159.697196 -211.545455 
L 160.645369 -211.060168 
L 161.593542 -210.569887 
L 162.541716 -210.108115 
L 163.489889 -209.649921 
L 164.438062 -209.205971 
L 165.386236 -208.744999 
L 166.334409 -208.278786 
L 167.282582 -207.812575 
L 168.230756 -207.345833 
L 169.178929 -206.87876 
L 170.127102 -206.428103 
L 171.075276 -205.977363 
L 172.023449 -205.481631 
L 172.971622 -204.995644 
L 173.919796 -204.543395 
L 174.867969 -204.066169 
L 175.816142 -203.589046 
L 176.764316 -203.143104 
L 177.712489 -202.663998 
L 178.660662 -202.18082 
L 179.608835 -201.740318 
L 180.557009 -201.276367 
L 181.505182 -200.809494 
L 182.453355 -200.352681 
L 183.401529 -199.876164 
L 184.349702 -199.401712 
L 185.297875 -198.942914 
L 186.246049 -198.476565 
L 187.194222 -198.042228 
L 188.142395 -197.60128 
L 189.090569 -197.134581 
L 190.038742 -196.666689 
L 190.986915 -196.198577 
L 191.935089 -195.713808 
L 192.883262 -195.211236 
L 193.831435 -194.734098 
L 194.779609 -194.274347 
L 195.727782 -193.808412 
L 196.675955 -193.369567 
L 197.624129 -192.926272 
L 198.572302 -192.459514 
L 199.520475 -191.991777 
L 200.468649 -191.554602 
L 201.416822 -191.120313 
L 202.364995 -190.686394 
L 203.313169 -190.252255 
L 204.261342 -189.81648 
L 205.209515 -189.339955 
L 206.157689 -188.862863 
L 207.105862 -188.385158 
L 208.054035 -187.907453 
L 209.002208 -187.429748 
L 209.950382 -186.952042 
L 210.898555 -186.510984 
L 211.846728 -186.073942 
L 212.794902 -185.615145 
L 213.743075 -185.195098 
L 214.691248 -184.773564 
L 215.639422 -184.313486 
L 216.587595 -183.850238 
L 217.535768 -183.425542 
L 218.483942 -183.000845 
L 219.432115 -182.576149 
L 220.380288 -182.151452 
L 221.328462 -181.726756 
L 222.276635 -181.30206 
L 223.224808 -180.873116 
L 224.172982 -180.439948 
L 225.121155 -179.991621 
L 226.069328 -179.528613 
L 227.017502 -179.065605 
L 227.965675 -178.602598 
L 228.913848 -178.13959 
L 229.862022 -177.676582 
L 230.810195 -177.213574 
L 231.758368 -176.750566 
L 232.706542 -176.287558 
L 233.654715 -175.835853 
L 234.602888 -175.401131 
L 235.551061 -174.942426 
L 236.499235 -174.517401 
L 237.447408 -174.089276 
L 238.395581 -173.618869 
L 239.343755 -173.148415 
L 240.291928 -172.697897 
L 241.240101 -172.233669 
L 242.188275 -171.802724 
L 243.136448 -171.375346 
L 244.084621 -170.947337 
L 245.032795 -170.518545 
L 245.980968 -170.089755 
L 246.929141 -169.660966 
L 247.877315 -169.218321 
L 248.825488 -168.793192 
L 249.773661 -168.329738 
L 250.721835 -167.87357 
L 251.670008 -167.450397 
L 252.618181 -167.027488 
L 253.566355 -166.6037 
L 254.514528 -166.156655 
L 255.462701 -165.716263 
L 256.410875 -165.284585 
L 257.359048 -164.834485 
L 258.307221 -164.393554 
L 259.255395 -163.980494 
L 260.203568 -163.526226 
L 261.151741 -163.071456 
L 262.099915 -162.617303 
L 263.048088 -162.163373 
L 263.996261 -161.709443 
L 264.944434 -161.255515 
L 265.892608 -160.801587 
L 266.840781 -160.347659 
L 267.788954 -159.915048 
L 268.737128 -159.493751 
L 269.685301 -159.072454 
L 270.633474 -158.651157 
L 271.581648 -158.239491 
L 272.529821 -157.83522 
L 273.477994 -157.43095 
L 274.426168 -157.02668 
L 275.374341 -156.622411 
L 276.322514 -156.216818 
L 277.270688 -155.78877 
L 278.218861 -155.36043 
L 279.167034 -154.93209 
L 280.115208 -154.500169 
L 281.063381 -154.052968 
L 282.011554 -153.605731 
L 282.959728 -153.174119 
L 283.907901 -152.75275 
L 284.856074 -152.331381 
L 285.804248 -151.910012 
L 286.752421 -151.486996 
L 287.700594 -151.056072 
L 288.648768 -150.625148 
L 289.596941 -150.194117 
L 290.545114 -149.762756 
L 291.493287 -149.331127 
L 292.441461 -148.884244 
L 293.389634 -148.435399 
L 294.337807 -147.986555 
L 295.285981 -147.537711 
L 296.234154 -147.101922 
L 297.182327 -146.682153 
L 298.130501 -146.262383 
L 299.078674 -145.84225 
L 300.026847 -145.412555 
L 300.975021 -144.958635 
L 301.923194 -144.504717 
L 302.871367 -144.05063 
L 303.819541 -143.59642 
L 304.767714 -143.141801 
L 305.715887 -142.687067 
L 306.664061 -142.232333 
L 307.612234 -141.777598 
L 308.560407 -141.322864 
L 309.508581 -140.86813 
L 310.456754 -140.413396 
L 311.404927 -139.973036 
L 312.353101 -139.539897 
L 313.301274 -139.106759 
L 314.249447 -138.673621 
L 315.197621 -138.240483 
L 316.145794 -137.807346 
L 317.093967 -137.377795 
L 318.042141 -136.950142 
L 318.990314 -136.520164 
L 319.938487 -136.091133 
L 320.88666 -135.643376 
L 321.834834 -135.210825 
L 322.783007 -134.778275 
L 323.73118 -134.345724 
L 324.679354 -133.912998 
L 325.627527 -133.480026 
L 326.5757 -133.047053 
L 327.523874 -132.604504 
L 328.472047 -132.159333 
L 329.42022 -131.714162 
L 330.368394 -131.268991 
L 331.316567 -130.82382 
L 332.26474 -130.37865 
L 333.212914 -129.93348 
L 334.161087 -129.488309 
L 335.10926 -129.043139 
L 336.057434 -128.597969 
L 337.005607 -128.1528 
L 337.95378 -127.70763 
L 338.901954 -127.262461 
L 339.850127 -126.817291 
L 340.7983 -126.372122 
L 341.746474 -125.926953 
L 342.694647 -125.481784 
L 343.64282 -125.036616 
L 344.590994 -124.591447 
L 345.539167 -124.146279 
L 346.48734 -123.701111 
L 347.435513 -123.255943 
L 348.383687 -122.810775 
L 349.33186 -122.365607 
L 350.280033 -121.920439 
L 351.228207 -121.475272 
L 352.17638 -121.030104 
L 353.124553 -120.584766 
L 354.072727 -120.138914 
L 355.0209 -119.693063 
L 355.969073 -119.247211 
L 356.917247 -118.80136 
L 357.86542 -118.355509 
L 358.813593 -117.909658 
L 359.761767 -117.474518 
L 360.70994 -117.04257 
L 361.658113 -116.610624 
L 362.606287 -116.178678 
L 363.55446 -115.746734 
L 364.502633 -115.314789 
L 365.450807 -114.882846 
L 366.39898 -114.450903 
L 367.347153 -114.018961 
L 368.295327 -113.571342 
L 369.2435 -113.112365 
L 370.191673 -112.672452 
L 371.139847 -112.239601 
L 372.08802 -111.806751 
L 373.036193 -111.373901 
L 373.036193 -64.05759 
L 373.036193 -64.05759 
L 372.08802 -64.665265 
L 371.139847 -65.266854 
L 370.191673 -65.868442 
L 369.2435 -66.470031 
L 368.295327 -67.071619 
L 367.347153 -67.673208 
L 366.39898 -68.270629 
L 365.450807 -68.869938 
L 364.502633 -69.478419 
L 363.55446 -70.079925 
L 362.606287 -70.681431 
L 361.658113 -71.282937 
L 360.70994 -71.884443 
L 359.761767 -72.485949 
L 358.813593 -73.08688 
L 357.86542 -73.685361 
L 356.917247 -74.283841 
L 355.969073 -74.882321 
L 355.0209 -75.480802 
L 354.072727 -76.079282 
L 353.124553 -76.677763 
L 352.17638 -77.276243 
L 351.228207 -77.874723 
L 350.280033 -78.473204 
L 349.33186 -79.071684 
L 348.383687 -79.670164 
L 347.435513 -80.268645 
L 346.48734 -80.867439 
L 345.539167 -81.466284 
L 344.590994 -82.065129 
L 343.64282 -82.677782 
L 342.694647 -83.290952 
L 341.746474 -83.904415 
L 340.7983 -84.518182 
L 339.850127 -85.121758 
L 338.901954 -85.739018 
L 337.95378 -86.358569 
L 337.005607 -86.971819 
L 336.057434 -87.585069 
L 335.10926 -88.198554 
L 334.161087 -88.812098 
L 333.212914 -89.425643 
L 332.26474 -90.039187 
L 331.316567 -90.652731 
L 330.368394 -91.266275 
L 329.42022 -91.879819 
L 328.472047 -92.493363 
L 327.523874 -93.106908 
L 326.5757 -93.710339 
L 325.627527 -94.313712 
L 324.679354 -94.917085 
L 323.73118 -95.520458 
L 322.783007 -96.123831 
L 321.834834 -96.727864 
L 320.88666 -97.341076 
L 319.938487 -97.953079 
L 318.990314 -98.567612 
L 318.042141 -99.180629 
L 317.093967 -99.79382 
L 316.145794 -100.407012 
L 315.197621 -101.01233 
L 314.249447 -101.612786 
L 313.301274 -102.213242 
L 312.353101 -102.813698 
L 311.404927 -103.414154 
L 310.456754 -104.01461 
L 309.508581 -104.615066 
L 308.560407 -105.215522 
L 307.612234 -105.815978 
L 306.664061 -106.416434 
L 305.715887 -107.01689 
L 304.767714 -107.617346 
L 303.819541 -108.217802 
L 302.871367 -108.818258 
L 301.923194 -109.41876 
L 300.975021 -110.020389 
L 300.026847 -110.634342 
L 299.078674 -111.23273 
L 298.130501 -111.831119 
L 297.182327 -112.429507 
L 296.234154 -113.027966 
L 295.285981 -113.632807 
L 294.337807 -114.241029 
L 293.389634 -114.849251 
L 292.441461 -115.457532 
L 291.493287 -116.065873 
L 290.545114 -116.674215 
L 289.596941 -117.282556 
L 288.648768 -117.890898 
L 287.700594 -118.499715 
L 286.752421 -119.108632 
L 285.804248 -119.717548 
L 284.856074 -120.336551 
L 283.907901 -120.962254 
L 282.959728 -121.587957 
L 282.011554 -122.21366 
L 281.063381 -122.83519 
L 280.115208 -123.427141 
L 279.167034 -124.019093 
L 278.218861 -124.611045 
L 277.270688 -125.202998 
L 276.322514 -125.802285 
L 275.374341 -126.410337 
L 274.426168 -127.018389 
L 273.477994 -127.626441 
L 272.529821 -128.234494 
L 271.581648 -128.842547 
L 270.633474 -129.4506 
L 269.685301 -130.058654 
L 268.737128 -130.666707 
L 267.788954 -131.274761 
L 266.840781 -131.882815 
L 265.892608 -132.491103 
L 264.944434 -133.099445 
L 263.996261 -133.707787 
L 263.048088 -134.31613 
L 262.099915 -134.924472 
L 261.151741 -135.532814 
L 260.203568 -136.141157 
L 259.255395 -136.749499 
L 258.307221 -137.357841 
L 257.359048 -137.966184 
L 256.410875 -138.564156 
L 255.462701 -139.153208 
L 254.514528 -139.738088 
L 253.566355 -140.322968 
L 252.618181 -140.907848 
L 251.670008 -141.492728 
L 250.721835 -142.077609 
L 249.773661 -142.663007 
L 248.825488 -143.248747 
L 247.877315 -143.859059 
L 246.929141 -144.485202 
L 245.980968 -145.076729 
L 245.032795 -145.668256 
L 244.084621 -146.26006 
L 243.136448 -146.852053 
L 242.188275 -147.444047 
L 241.240101 -148.03604 
L 240.291928 -148.628034 
L 239.343755 -149.220028 
L 238.395581 -149.812022 
L 237.447408 -150.41219 
L 236.499235 -151.031281 
L 235.551061 -151.650373 
L 234.602888 -152.247234 
L 233.654715 -152.841797 
L 232.706542 -153.436361 
L 231.758368 -154.030925 
L 230.810195 -154.626184 
L 229.862022 -155.229191 
L 228.913848 -155.840139 
L 227.965675 -156.45159 
L 227.017502 -157.038538 
L 226.069328 -157.64112 
L 225.121155 -158.243701 
L 224.172982 -158.846454 
L 223.224808 -159.447442 
L 222.276635 -160.039114 
L 221.328462 -160.630879 
L 220.380288 -161.223107 
L 219.432115 -161.815336 
L 218.483942 -162.422055 
L 217.535768 -163.03803 
L 216.587595 -163.654006 
L 215.639422 -164.269982 
L 214.691248 -164.876519 
L 213.743075 -165.479347 
L 212.794902 -166.082176 
L 211.846728 -166.685004 
L 210.898555 -167.287832 
L 209.950382 -167.890661 
L 209.002208 -168.493913 
L 208.054035 -169.097598 
L 207.105862 -169.69789 
L 206.157689 -170.291549 
L 205.209515 -170.88521 
L 204.261342 -171.478872 
L 203.313169 -172.095821 
L 202.364995 -172.718274 
L 201.416822 -173.321132 
L 200.468649 -173.910092 
L 199.520475 -174.480078 
L 198.572302 -175.101716 
L 197.624129 -175.690613 
L 196.675955 -176.271278 
L 195.727782 -176.872194 
L 194.779609 -177.481646 
L 193.831435 -178.071207 
L 192.883262 -178.691585 
L 191.935089 -179.311493 
L 190.986915 -179.920855 
L 190.038742 -180.490164 
L 189.090569 -181.041401 
L 188.142395 -181.592638 
L 187.194222 -182.227148 
L 186.246049 -182.859738 
L 185.297875 -183.456545 
L 184.349702 -184.086632 
L 183.401529 -184.71672 
L 182.453355 -185.321869 
L 181.505182 -185.916138 
L 180.557009 -186.503883 
L 179.608835 -187.055564 
L 178.660662 -187.675895 
L 177.712489 -188.263903 
L 176.764316 -188.851292 
L 175.816142 -189.438683 
L 174.867969 -190.0256 
L 173.919796 -190.589999 
L 172.971622 -191.151142 
L 172.023449 -191.719806 
L 171.075276 -192.288677 
L 170.127102 -192.872934 
L 169.178929 -193.472536 
L 168.230756 -194.072781 
L 167.282582 -194.6732 
L 166.334409 -195.27362 
L 165.386236 -195.87404 
L 164.438062 -196.427942 
L 163.489889 -197.018567 
L 162.541716 -197.580303 
L 161.593542 -198.150757 
L 160.645369 -198.709229 
L 159.697196 -199.267701 
L 158.749022 -199.826172 
L 157.800849 -200.386941 
L 156.852676 -200.980586 
L 155.904502 -201.569355 
L 154.956329 -202.111683 
L 154.008156 -202.679434 
L 153.059982 -203.334244 
L 152.111809 -203.955083 
L 151.163636 -204.531224 
L 150.215463 -205.092452 
L 149.267289 -205.655488 
L 148.319116 -206.253227 
L 147.370943 -206.820078 
L 146.422769 -207.388058 
L 145.474596 -207.960563 
L 144.526423 -208.525197 
L 143.578249 -209.095255 
L 142.630076 -209.659765 
L 141.681903 -210.223003 
L 140.733729 -210.779229 
L 139.785556 -211.356872 
L 138.837383 -211.932534 
L 137.889209 -212.524947 
L 136.941036 -213.087655 
L 135.992863 -213.650918 
L 135.044689 -214.222077 
L 134.096516 -214.790426 
L 133.148343 -215.340517 
L 132.200169 -215.903372 
L 131.251996 -216.454302 
L 130.303823 -216.975806 
L 129.355649 -217.481544 
L 128.407476 -218.057425 
L 127.459303 -218.591267 
L 126.511129 -219.130645 
L 125.562956 -219.67423 
L 124.614783 -220.241445 
L 123.666609 -220.77462 
L 122.718436 -221.304521 
L 121.770263 -221.825547 
L 120.82209 -222.387313 
L 119.873916 -222.822965 
L 118.925743 -223.374008 
L 117.97757 -223.934559 
L 117.029396 -224.50527 
L 116.081223 -225.066751 
L 115.13305 -225.558848 
L 114.184876 -226.051573 
L 113.236703 -226.54503 
L 112.28853 -227.075154 
L 111.340356 -227.610416 
L 110.392183 -228.138011 
L 109.44401 -228.651358 
L 108.495836 -229.128568 
L 107.547663 -229.618851 
L 106.59949 -230.155498 
L 105.651316 -230.605923 
L 104.703143 -231.075822 
L 103.75497 -231.594324 
L 102.806796 -232.065899 
L 101.858623 -232.597718 
L 100.91045 -233.12962 
L 99.962276 -233.663832 
L 99.014103 -234.160247 
L 98.06593 -234.629863 
L 97.117756 -235.08882 
L 96.169583 -235.559856 
L 95.22141 -236.022557 
L 94.273237 -236.506154 
L 93.325063 -236.990355 
L 92.37689 -237.478869 
L 91.428717 -237.960329 
L 90.480543 -238.451101 
L 89.53237 -238.900515 
L 88.584197 -239.38577 
L 87.636023 -239.866598 
L 86.68785 -240.344274 
L 85.739677 -240.820145 
L 84.791503 -241.320623 
L 83.84333 -241.802973 
L 82.895157 -242.29038 
L 81.946983 -242.762454 
L 80.99881 -243.240617 
L 80.050637 -243.75496 
L 79.102463 -244.219509 
L 78.15429 -244.674494 
L 77.206117 -245.138448 
L 76.257943 -245.622386 
L 75.30977 -246.064131 
L 74.361597 -246.501385 
L 73.413423 -246.959194 
L 72.46525 -247.450558 
L 71.517077 -247.909141 
L 70.568903 -248.364315 
L 69.62073 -248.842899 
L 68.672557 -249.340822 
z
" id="mfa3f0b4111" style="stroke:#0173b2;stroke-opacity:0.25;"/>
    </defs>
    <g clip-path="url(#pf487fa3ca0)">
     <use style="fill:#0173b2;fill-opacity:0.25;stroke:#0173b2;stroke-opacity:0.25;" x="0" xlink:href="#mfa3f0b4111" y="269.844375"/>
    </g>
   </g>
   <g id="line2d_44">
    <path clip-path="url(#pf487fa3ca0)" d="M 68.672557 14.752343 
L 73.413423 16.68893 
L 79.102463 19.253307 
L 91.428717 25.148382 
L 103.75497 30.903201 
L 117.029396 37.079188 
L 122.718436 39.953922 
L 127.459303 42.561679 
L 132.200169 45.407305 
L 136.941036 48.501676 
L 142.630076 52.50451 
L 152.111809 59.555222 
L 158.749022 64.361075 
L 162.541716 66.877861 
L 166.334409 69.122783 
L 169.178929 70.582927 
L 172.023449 71.826454 
L 174.867969 72.843926 
L 177.712489 73.640322 
L 180.557009 74.234969 
L 184.349702 74.769623 
L 189.090569 75.16082 
L 199.520475 75.88634 
L 203.313169 76.388241 
L 207.105862 77.127741 
L 210.898555 78.149036 
L 214.691248 79.472881 
L 218.483942 81.091178 
L 222.276635 82.962605 
L 227.965675 86.072731 
L 235.551061 90.234754 
L 240.291928 92.561845 
L 245.032795 94.640951 
L 253.566355 98.284149 
L 257.359048 100.166368 
L 260.203568 101.781124 
L 263.048088 103.601067 
L 265.892608 105.637666 
L 269.685301 108.682293 
L 273.477994 112.062802 
L 278.218861 116.663242 
L 282.959728 121.577379 
L 287.700594 126.779347 
L 291.493287 131.214313 
L 295.285981 136.008312 
L 298.130501 139.923059 
L 300.975021 144.180904 
L 303.819541 148.842261 
L 306.664061 153.962279 
L 309.508581 159.589214 
L 312.353101 165.763937 
L 315.197621 172.520211 
L 318.042141 179.885399 
L 320.88666 187.881364 
L 323.73118 196.525385 
L 326.5757 205.831012 
L 329.42022 215.80881 
L 332.26474 226.466979 
L 335.10926 237.811869 
L 338.901954 254.014933 
L 342.565089 270.844375 
L 342.565089 270.844375 
" style="fill:none;stroke:#000000;stroke-linecap:round;stroke-width:1.5;"/>
   </g>
   <g id="line2d_45">
    <path clip-path="url(#pf487fa3ca0)" d="M 68.672557 14.239844 
L 140.733729 53.751389 
L 145.474596 56.337782 
L 154.008156 60.968754 
L 163.489889 66.15138 
L 183.401529 77.054722 
L 196.675955 84.323134 
L 234.602888 105.007447 
L 250.721835 113.789909 
L 264.944434 121.60465 
L 373.036193 180.712061 
L 373.036193 180.712061 
" style="fill:none;stroke:#0173b2;stroke-linecap:round;stroke-width:1.5;"/>
   </g>
   <g id="patch_3">
    <path d="M 53.454375 224.64 
L 53.454375 7.2 
" style="fill:none;stroke:#262626;stroke-linecap:square;stroke-linejoin:miter;stroke-width:1.25;"/>
   </g>
   <g id="patch_4">
    <path d="M 388.254375 224.64 
L 388.254375 7.2 
" style="fill:none;stroke:#262626;stroke-linecap:square;stroke-linejoin:miter;stroke-width:1.25;"/>
   </g>
   <g id="patch_5">
    <path d="M 53.454375 224.64 
L 388.254375 224.64 
" style="fill:none;stroke:#262626;stroke-linecap:square;stroke-linejoin:miter;stroke-width:1.25;"/>
   </g>
   <g id="patch_6">
    <path d="M 53.454375 7.2 
L 388.254375 7.2 
" style="fill:none;stroke:#262626;stroke-linecap:square;stroke-linejoin:miter;stroke-width:1.25;"/>
   </g>
   <g id="legend_1">
    <g id="patch_7">
     <path d="M 297.667656 47.119687 
L 380.554375 47.119687 
Q 382.754375 47.119687 382.754375 44.919687 
L 382.754375 14.9 
Q 382.754375 12.7 380.554375 12.7 
L 297.667656 12.7 
Q 295.467656 12.7 295.467656 14.9 
L 295.467656 44.919687 
Q 295.467656 47.119687 297.667656 47.119687 
z
" style="fill:#ffffff;opacity:0.8;stroke:#cccccc;stroke-linejoin:miter;"/>
    </g>
    <g id="line2d_46">
     <path d="M 299.867656 21.123594 
L 321.867656 21.123594 
" style="fill:none;stroke:#000000;stroke-linecap:round;stroke-width:1.5;"/>
    </g>
    <g id="line2d_47"/>
    <g id="text_8">
     <!-- Observed -->
     <g style="fill:#262626;" transform="translate(330.667656 24.973594)scale(0.11 -0.11)">
      <defs>
       <path d="M 309 2231 
Q 309 3372 921 4017 
Q 1534 4663 2503 4663 
Q 3138 4663 3647 4359 
Q 4156 4056 4423 3514 
Q 4691 2972 4691 2284 
Q 4691 1588 4409 1038 
Q 4128 488 3612 205 
Q 3097 -78 2500 -78 
Q 1853 -78 1343 234 
Q 834 547 571 1087 
Q 309 1628 309 2231 
z
M 934 2222 
Q 934 1394 1379 917 
Q 1825 441 2497 441 
Q 3181 441 3623 922 
Q 4066 1403 4066 2288 
Q 4066 2847 3877 3264 
Q 3688 3681 3323 3911 
Q 2959 4141 2506 4141 
Q 1863 4141 1398 3698 
Q 934 3256 934 2222 
z
" id="ArialMT-4f" transform="scale(0.015625)"/>
       <path d="M 941 0 
L 419 0 
L 419 4581 
L 981 4581 
L 981 2947 
Q 1338 3394 1891 3394 
Q 2197 3394 2470 3270 
Q 2744 3147 2920 2923 
Q 3097 2700 3197 2384 
Q 3297 2069 3297 1709 
Q 3297 856 2875 390 
Q 2453 -75 1863 -75 
Q 1275 -75 941 416 
L 941 0 
z
M 934 1684 
Q 934 1088 1097 822 
Q 1363 388 1816 388 
Q 2184 388 2453 708 
Q 2722 1028 2722 1663 
Q 2722 2313 2464 2622 
Q 2206 2931 1841 2931 
Q 1472 2931 1203 2611 
Q 934 2291 934 1684 
z
" id="ArialMT-62" transform="scale(0.015625)"/>
       <path d="M 197 991 
L 753 1078 
Q 800 744 1014 566 
Q 1228 388 1613 388 
Q 2000 388 2187 545 
Q 2375 703 2375 916 
Q 2375 1106 2209 1216 
Q 2094 1291 1634 1406 
Q 1016 1563 777 1677 
Q 538 1791 414 1992 
Q 291 2194 291 2438 
Q 291 2659 392 2848 
Q 494 3038 669 3163 
Q 800 3259 1026 3326 
Q 1253 3394 1513 3394 
Q 1903 3394 2198 3281 
Q 2494 3169 2634 2976 
Q 2775 2784 2828 2463 
L 2278 2388 
Q 2241 2644 2061 2787 
Q 1881 2931 1553 2931 
Q 1166 2931 1000 2803 
Q 834 2675 834 2503 
Q 834 2394 903 2306 
Q 972 2216 1119 2156 
Q 1203 2125 1616 2013 
Q 2213 1853 2448 1751 
Q 2684 1650 2818 1456 
Q 2953 1263 2953 975 
Q 2953 694 2789 445 
Q 2625 197 2315 61 
Q 2006 -75 1616 -75 
Q 969 -75 630 194 
Q 291 463 197 991 
z
" id="ArialMT-73" transform="scale(0.015625)"/>
       <path d="M 2694 1069 
L 3275 997 
Q 3138 488 2766 206 
Q 2394 -75 1816 -75 
Q 1088 -75 661 373 
Q 234 822 234 1631 
Q 234 2469 665 2931 
Q 1097 3394 1784 3394 
Q 2450 3394 2872 2941 
Q 3294 2488 3294 1666 
Q 3294 1616 3291 1516 
L 816 1516 
Q 847 969 1125 678 
Q 1403 388 1819 388 
Q 2128 388 2347 550 
Q 2566 713 2694 1069 
z
M 847 1978 
L 2700 1978 
Q 2663 2397 2488 2606 
Q 2219 2931 1791 2931 
Q 1403 2931 1139 2672 
Q 875 2413 847 1978 
z
" id="ArialMT-65" transform="scale(0.015625)"/>
       <path d="M 416 0 
L 416 3319 
L 922 3319 
L 922 2816 
Q 1116 3169 1280 3281 
Q 1444 3394 1641 3394 
Q 1925 3394 2219 3213 
L 2025 2691 
Q 1819 2813 1613 2813 
Q 1428 2813 1281 2702 
Q 1134 2591 1072 2394 
Q 978 2094 978 1738 
L 978 0 
L 416 0 
z
" id="ArialMT-72" transform="scale(0.015625)"/>
       <path d="M 1344 0 
L 81 3319 
L 675 3319 
L 1388 1331 
Q 1503 1009 1600 663 
Q 1675 925 1809 1294 
L 2547 3319 
L 3125 3319 
L 1869 0 
L 1344 0 
z
" id="ArialMT-76" transform="scale(0.015625)"/>
       <path d="M 2575 0 
L 2575 419 
Q 2259 -75 1647 -75 
Q 1250 -75 917 144 
Q 584 363 401 755 
Q 219 1147 219 1656 
Q 219 2153 384 2558 
Q 550 2963 881 3178 
Q 1213 3394 1622 3394 
Q 1922 3394 2156 3267 
Q 2391 3141 2538 2938 
L 2538 4581 
L 3097 4581 
L 3097 0 
L 2575 0 
z
M 797 1656 
Q 797 1019 1065 703 
Q 1334 388 1700 388 
Q 2069 388 2326 689 
Q 2584 991 2584 1609 
Q 2584 2291 2321 2609 
Q 2059 2928 1675 2928 
Q 1300 2928 1048 2622 
Q 797 2316 797 1656 
z
" id="ArialMT-64" transform="scale(0.015625)"/>
      </defs>
      <use xlink:href="#ArialMT-4f"/>
      <use x="77.783203" xlink:href="#ArialMT-62"/>
      <use x="133.398438" xlink:href="#ArialMT-73"/>
      <use x="183.398438" xlink:href="#ArialMT-65"/>
      <use x="239.013672" xlink:href="#ArialMT-72"/>
      <use x="272.314453" xlink:href="#ArialMT-76"/>
      <use x="322.314453" xlink:href="#ArialMT-65"/>
      <use x="377.929688" xlink:href="#ArialMT-64"/>
     </g>
    </g>
    <g id="line2d_48">
     <path d="M 299.867656 36.683437 
L 321.867656 36.683437 
" style="fill:none;stroke:#0173b2;stroke-linecap:round;stroke-width:1.5;"/>
    </g>
    <g id="line2d_49"/>
    <g id="text_9">
     <!-- Fit -->
     <g style="fill:#262626;" transform="translate(330.667656 40.533437)scale(0.11 -0.11)">
      <defs>
       <path d="M 525 0 
L 525 4581 
L 3616 4581 
L 3616 4041 
L 1131 4041 
L 1131 2622 
L 3281 2622 
L 3281 2081 
L 1131 2081 
L 1131 0 
L 525 0 
z
" id="ArialMT-46" transform="scale(0.015625)"/>
       <path d="M 425 3934 
L 425 4581 
L 988 4581 
L 988 3934 
L 425 3934 
z
M 425 0 
L 425 3319 
L 988 3319 
L 988 0 
L 425 0 
z
" id="ArialMT-69" transform="scale(0.015625)"/>
       <path d="M 1650 503 
L 1731 6 
Q 1494 -44 1306 -44 
Q 1000 -44 831 53 
Q 663 150 594 308 
Q 525 466 525 972 
L 525 2881 
L 113 2881 
L 113 3319 
L 525 3319 
L 525 4141 
L 1084 4478 
L 1084 3319 
L 1650 3319 
L 1650 2881 
L 1084 2881 
L 1084 941 
Q 1084 700 1114 631 
Q 1144 563 1211 522 
Q 1278 481 1403 481 
Q 1497 481 1650 503 
z
" id="ArialMT-74" transform="scale(0.015625)"/>
      </defs>
      <use xlink:href="#ArialMT-46"/>
      <use x="61.083984" xlink:href="#ArialMT-69"/>
      <use x="83.300781" xlink:href="#ArialMT-74"/>
     </g>
    </g>
   </g>
  </g>
 </g>
 <defs>
  <clipPath id="pf487fa3ca0">
   <rect height="217.44" width="334.8" x="53.454375" y="7.2"/>
  </clipPath>
 </defs>
</svg>
