<?xml version="1.0" encoding="utf-8" standalone="no"?>
<!DOCTYPE svg PUBLIC "-//W3C//DTD SVG 1.1//EN"
  "http://www.w3.org/Graphics/SVG/1.1/DTD/svg11.dtd">
<svg height="269.844375pt" version="1.1" viewBox="0 0 395.454375 269.844375" width="395.454375pt" xmlns="http://www.w3.org/2000/svg" xmlns:xlink="http://www.w3.org/1999/xlink">
 <metadata>
  <rdf:RDF xmlns:cc="http://creativecommons.org/ns#" xmlns:dc="http://purl.org/dc/elements/1.1/" xmlns:rdf="http://www.w3.org/1999/02/22-rdf-syntax-ns#">
   <cc:Work>
    <dc:type rdf:resource="http://purl.org/dc/dcmitype/StillImage"/>
    <dc:date>2021-11-09T21:41:24.917432</dc:date>
    <dc:format>image/svg+xml</dc:format>
    <dc:creator>
     <cc:Agent>
      <dc:title>Matplotlib v3.4.3, https://matplotlib.org/</dc:title>
     </cc:Agent>
    </dc:creator>
   </cc:Work>
  </rdf:RDF>
 </metadata>
 <defs>
  <style type="text/css">*{stroke-linecap:butt;stroke-linejoin:round;}</style>
 </defs>
 <g id="figure_1">
  <g id="patch_1">
   <path d="M 0 269.844375 
L 395.454375 269.844375 
L 395.454375 0 
L 0 0 
z
" style="fill:#ffffff;"/>
  </g>
  <g id="axes_1">
   <g id="patch_2">
    <path d="M 53.454375 224.64 
L 388.254375 224.64 
L 388.254375 7.2 
L 53.454375 7.2 
z
" style="fill:#ffffff;"/>
   </g>
   <g id="matplotlib.axis_1">
    <g id="xtick_1">
     <g id="line2d_1">
      <defs>
       <path d="M 0 0 
L 0 6 
" id="m46d3a5caae" style="stroke:#262626;stroke-width:1.25;"/>
      </defs>
      <g>
       <use style="fill:#262626;stroke:#262626;stroke-width:1.25;" x="221.275166" xlink:href="#m46d3a5caae" y="224.64"/>
      </g>
     </g>
     <g id="text_1">
      <!-- $\mathdefault{10^{2}}$ -->
      <g style="fill:#262626;" transform="translate(212.640166 245.48375)scale(0.11 -0.11)">
       <defs>
        <path d="M 2384 0 
L 1822 0 
L 1822 3584 
Q 1619 3391 1289 3197 
Q 959 3003 697 2906 
L 697 3450 
Q 1169 3672 1522 3987 
Q 1875 4303 2022 4600 
L 2384 4600 
L 2384 0 
z
" id="ArialMT-31" transform="scale(0.015625)"/>
        <path d="M 266 2259 
Q 266 3072 433 3567 
Q 600 4063 929 4331 
Q 1259 4600 1759 4600 
Q 2128 4600 2406 4451 
Q 2684 4303 2865 4023 
Q 3047 3744 3150 3342 
Q 3253 2941 3253 2259 
Q 3253 1453 3087 958 
Q 2922 463 2592 192 
Q 2263 -78 1759 -78 
Q 1097 -78 719 397 
Q 266 969 266 2259 
z
M 844 2259 
Q 844 1131 1108 757 
Q 1372 384 1759 384 
Q 2147 384 2411 759 
Q 2675 1134 2675 2259 
Q 2675 3391 2411 3762 
Q 2147 4134 1753 4134 
Q 1366 4134 1134 3806 
Q 844 3388 844 2259 
z
" id="ArialMT-30" transform="scale(0.015625)"/>
        <path d="M 3222 541 
L 3222 0 
L 194 0 
Q 188 203 259 391 
Q 375 700 629 1000 
Q 884 1300 1366 1694 
Q 2113 2306 2375 2664 
Q 2638 3022 2638 3341 
Q 2638 3675 2398 3904 
Q 2159 4134 1775 4134 
Q 1369 4134 1125 3890 
Q 881 3647 878 3216 
L 300 3275 
Q 359 3922 746 4261 
Q 1134 4600 1788 4600 
Q 2447 4600 2831 4234 
Q 3216 3869 3216 3328 
Q 3216 3053 3103 2787 
Q 2991 2522 2730 2228 
Q 2469 1934 1863 1422 
Q 1356 997 1212 845 
Q 1069 694 975 541 
L 3222 541 
z
" id="ArialMT-32" transform="scale(0.015625)"/>
       </defs>
       <use transform="translate(0 0.99375)" xlink:href="#ArialMT-31"/>
       <use transform="translate(55.615234 0.99375)" xlink:href="#ArialMT-30"/>
       <use transform="translate(112.972813 70.6875)scale(0.7)" xlink:href="#ArialMT-32"/>
      </g>
     </g>
    </g>
    <g id="xtick_2">
     <g id="line2d_2">
      <defs>
       <path d="M 0 0 
L 0 4 
" id="m10de917e1c" style="stroke:#262626;"/>
      </defs>
      <g>
       <use style="fill:#262626;stroke:#262626;" x="68.672557" xlink:href="#m10de917e1c" y="224.64"/>
      </g>
     </g>
    </g>
    <g id="xtick_3">
     <g id="line2d_3">
      <g>
       <use style="fill:#262626;stroke:#262626;" x="107.117677" xlink:href="#m10de917e1c" y="224.64"/>
      </g>
     </g>
    </g>
    <g id="xtick_4">
     <g id="line2d_4">
      <g>
       <use style="fill:#262626;stroke:#262626;" x="134.394923" xlink:href="#m10de917e1c" y="224.64"/>
      </g>
     </g>
    </g>
    <g id="xtick_5">
     <g id="line2d_5">
      <g>
       <use style="fill:#262626;stroke:#262626;" x="155.5528" xlink:href="#m10de917e1c" y="224.64"/>
      </g>
     </g>
    </g>
    <g id="xtick_6">
     <g id="line2d_6">
      <g>
       <use style="fill:#262626;stroke:#262626;" x="172.840043" xlink:href="#m10de917e1c" y="224.64"/>
      </g>
     </g>
    </g>
    <g id="xtick_7">
     <g id="line2d_7">
      <g>
       <use style="fill:#262626;stroke:#262626;" x="187.456199" xlink:href="#m10de917e1c" y="224.64"/>
      </g>
     </g>
    </g>
    <g id="xtick_8">
     <g id="line2d_8">
      <g>
       <use style="fill:#262626;stroke:#262626;" x="200.11729" xlink:href="#m10de917e1c" y="224.64"/>
      </g>
     </g>
    </g>
    <g id="xtick_9">
     <g id="line2d_9">
      <g>
       <use style="fill:#262626;stroke:#262626;" x="211.285163" xlink:href="#m10de917e1c" y="224.64"/>
      </g>
     </g>
    </g>
    <g id="xtick_10">
     <g id="line2d_10">
      <g>
       <use style="fill:#262626;stroke:#262626;" x="286.997533" xlink:href="#m10de917e1c" y="224.64"/>
      </g>
     </g>
    </g>
    <g id="xtick_11">
     <g id="line2d_11">
      <g>
       <use style="fill:#262626;stroke:#262626;" x="325.442652" xlink:href="#m10de917e1c" y="224.64"/>
      </g>
     </g>
    </g>
    <g id="xtick_12">
     <g id="line2d_12">
      <g>
       <use style="fill:#262626;stroke:#262626;" x="352.719899" xlink:href="#m10de917e1c" y="224.64"/>
      </g>
     </g>
    </g>
    <g id="xtick_13">
     <g id="line2d_13">
      <g>
       <use style="fill:#262626;stroke:#262626;" x="373.877775" xlink:href="#m10de917e1c" y="224.64"/>
      </g>
     </g>
    </g>
    <g id="text_2">
     <!-- $m / M_\odot$ -->
     <g style="fill:#262626;" transform="translate(202.434375 260.259375)scale(0.12 -0.12)">
      <defs>
       <path d="M 5747 2113 
L 5338 0 
L 4763 0 
L 5166 2094 
Q 5191 2228 5203 2325 
Q 5216 2422 5216 2491 
Q 5216 2772 5059 2928 
Q 4903 3084 4622 3084 
Q 4203 3084 3875 2770 
Q 3547 2456 3450 1953 
L 3066 0 
L 2491 0 
L 2900 2094 
Q 2925 2209 2937 2307 
Q 2950 2406 2950 2484 
Q 2950 2769 2794 2926 
Q 2638 3084 2363 3084 
Q 1938 3084 1609 2770 
Q 1281 2456 1184 1953 
L 800 0 
L 225 0 
L 909 3500 
L 1484 3500 
L 1375 2956 
Q 1609 3263 1923 3423 
Q 2238 3584 2597 3584 
Q 2978 3584 3223 3384 
Q 3469 3184 3519 2828 
Q 3781 3197 4126 3390 
Q 4472 3584 4856 3584 
Q 5306 3584 5551 3325 
Q 5797 3066 5797 2591 
Q 5797 2488 5784 2364 
Q 5772 2241 5747 2113 
z
" id="DejaVuSans-Oblique-6d" transform="scale(0.015625)"/>
       <path d="M 1625 4666 
L 2156 4666 
L 531 -594 
L 0 -594 
L 1625 4666 
z
" id="DejaVuSans-2f" transform="scale(0.015625)"/>
       <path d="M 1081 4666 
L 2028 4666 
L 2572 1522 
L 4378 4666 
L 5350 4666 
L 4441 0 
L 3828 0 
L 4622 4091 
L 2791 897 
L 2175 897 
L 1581 4103 
L 788 0 
L 172 0 
L 1081 4666 
z
" id="DejaVuSans-Oblique-4d" transform="scale(0.015625)"/>
       <path d="M 2350 2403 
L 3013 2403 
L 3013 1609 
L 2350 1609 
L 2350 2403 
z
M 3306 3522 
Q 3016 3644 2681 3644 
Q 2347 3644 2056 3522 
Q 1769 3400 1531 3163 
Q 1291 2922 1172 2634 
Q 1053 2347 1053 2006 
Q 1053 1675 1172 1387 
Q 1291 1100 1531 859 
Q 1769 622 2056 500 
Q 2347 378 2681 378 
Q 3016 378 3306 500 
Q 3594 622 3831 859 
Q 4072 1100 4190 1387 
Q 4309 1675 4309 2006 
Q 4309 2347 4190 2634 
Q 4072 2922 3831 3163 
Q 3594 3400 3306 3522 
z
M 1878 3956 
Q 2250 4113 2681 4113 
Q 3113 4113 3484 3956 
Q 3856 3800 4163 3494 
Q 4472 3184 4625 2813 
Q 4778 2444 4778 2006 
Q 4778 1578 4625 1206 
Q 4472 838 4163 528 
Q 3856 222 3484 65 
Q 3113 -91 2681 -91 
Q 2250 -91 1878 65 
Q 1506 222 1200 528 
Q 891 838 738 1206 
Q 584 1578 584 2006 
Q 584 2444 738 2813 
Q 891 3184 1200 3494 
Q 1506 3800 1878 3956 
z
" id="DejaVuSans-2299" transform="scale(0.015625)"/>
      </defs>
      <use transform="translate(0 0.09375)" xlink:href="#DejaVuSans-Oblique-6d"/>
      <use transform="translate(97.412109 0.09375)" xlink:href="#DejaVuSans-2f"/>
      <use transform="translate(131.103516 0.09375)" xlink:href="#DejaVuSans-Oblique-4d"/>
      <use transform="translate(231.020508 -16.3125)scale(0.7)" xlink:href="#DejaVuSans-2299"/>
     </g>
    </g>
   </g>
   <g id="matplotlib.axis_2">
    <g id="ytick_1">
     <g id="line2d_14">
      <defs>
       <path d="M 0 0 
L -6 0 
" id="m3549ac00ba" style="stroke:#262626;stroke-width:1.25;"/>
      </defs>
      <g>
       <use style="fill:#262626;stroke:#262626;stroke-width:1.25;" x="53.454375" xlink:href="#m3549ac00ba" y="224.64"/>
      </g>
     </g>
     <g id="text_3">
      <!-- $\mathdefault{10^{-1}}$ -->
      <g style="fill:#262626;" transform="translate(22.174375 230.311875)scale(0.11 -0.11)">
       <defs>
        <path d="M 3381 1997 
L 356 1997 
L 356 2522 
L 3381 2522 
L 3381 1997 
z
" id="ArialMT-2212" transform="scale(0.015625)"/>
       </defs>
       <use transform="translate(0 0.99375)" xlink:href="#ArialMT-31"/>
       <use transform="translate(55.615234 0.99375)" xlink:href="#ArialMT-30"/>
       <use transform="translate(112.972813 70.6875)scale(0.7)" xlink:href="#ArialMT-2212"/>
       <use transform="translate(153.851719 70.6875)scale(0.7)" xlink:href="#ArialMT-31"/>
      </g>
     </g>
    </g>
    <g id="ytick_2">
     <g id="line2d_15">
      <g>
       <use style="fill:#262626;stroke:#262626;stroke-width:1.25;" x="53.454375" xlink:href="#m3549ac00ba" y="162.767138"/>
      </g>
     </g>
     <g id="text_4">
      <!-- $\mathdefault{10^{0}}$ -->
      <g style="fill:#262626;" transform="translate(26.684375 168.439013)scale(0.11 -0.11)">
       <use transform="translate(0 0.99375)" xlink:href="#ArialMT-31"/>
       <use transform="translate(55.615234 0.99375)" xlink:href="#ArialMT-30"/>
       <use transform="translate(112.972813 70.6875)scale(0.7)" xlink:href="#ArialMT-30"/>
      </g>
     </g>
    </g>
    <g id="ytick_3">
     <g id="line2d_16">
      <g>
       <use style="fill:#262626;stroke:#262626;stroke-width:1.25;" x="53.454375" xlink:href="#m3549ac00ba" y="100.894276"/>
      </g>
     </g>
     <g id="text_5">
      <!-- $\mathdefault{10^{1}}$ -->
      <g style="fill:#262626;" transform="translate(26.684375 106.566151)scale(0.11 -0.11)">
       <use transform="translate(0 0.99375)" xlink:href="#ArialMT-31"/>
       <use transform="translate(55.615234 0.99375)" xlink:href="#ArialMT-30"/>
       <use transform="translate(112.972813 70.6875)scale(0.7)" xlink:href="#ArialMT-31"/>
      </g>
     </g>
    </g>
    <g id="ytick_4">
     <g id="line2d_17">
      <g>
       <use style="fill:#262626;stroke:#262626;stroke-width:1.25;" x="53.454375" xlink:href="#m3549ac00ba" y="39.021415"/>
      </g>
     </g>
     <g id="text_6">
      <!-- $\mathdefault{10^{2}}$ -->
      <g style="fill:#262626;" transform="translate(26.684375 44.69329)scale(0.11 -0.11)">
       <use transform="translate(0 0.99375)" xlink:href="#ArialMT-31"/>
       <use transform="translate(55.615234 0.99375)" xlink:href="#ArialMT-30"/>
       <use transform="translate(112.972813 70.6875)scale(0.7)" xlink:href="#ArialMT-32"/>
      </g>
     </g>
    </g>
    <g id="ytick_5">
     <g id="line2d_18">
      <defs>
       <path d="M 0 0 
L -4 0 
" id="m7ed4c79d5b" style="stroke:#262626;"/>
      </defs>
      <g>
       <use style="fill:#262626;stroke:#262626;" x="53.454375" xlink:href="#m7ed4c79d5b" y="206.014413"/>
      </g>
     </g>
    </g>
    <g id="ytick_6">
     <g id="line2d_19">
      <g>
       <use style="fill:#262626;stroke:#262626;" x="53.454375" xlink:href="#m7ed4c79d5b" y="195.119143"/>
      </g>
     </g>
    </g>
    <g id="ytick_7">
     <g id="line2d_20">
      <g>
       <use style="fill:#262626;stroke:#262626;" x="53.454375" xlink:href="#m7ed4c79d5b" y="187.388825"/>
      </g>
     </g>
    </g>
    <g id="ytick_8">
     <g id="line2d_21">
      <g>
       <use style="fill:#262626;stroke:#262626;" x="53.454375" xlink:href="#m7ed4c79d5b" y="181.392726"/>
      </g>
     </g>
    </g>
    <g id="ytick_9">
     <g id="line2d_22">
      <g>
       <use style="fill:#262626;stroke:#262626;" x="53.454375" xlink:href="#m7ed4c79d5b" y="176.493555"/>
      </g>
     </g>
    </g>
    <g id="ytick_10">
     <g id="line2d_23">
      <g>
       <use style="fill:#262626;stroke:#262626;" x="53.454375" xlink:href="#m7ed4c79d5b" y="172.351366"/>
      </g>
     </g>
    </g>
    <g id="ytick_11">
     <g id="line2d_24">
      <g>
       <use style="fill:#262626;stroke:#262626;" x="53.454375" xlink:href="#m7ed4c79d5b" y="168.763238"/>
      </g>
     </g>
    </g>
    <g id="ytick_12">
     <g id="line2d_25">
      <g>
       <use style="fill:#262626;stroke:#262626;" x="53.454375" xlink:href="#m7ed4c79d5b" y="165.598285"/>
      </g>
     </g>
    </g>
    <g id="ytick_13">
     <g id="line2d_26">
      <g>
       <use style="fill:#262626;stroke:#262626;" x="53.454375" xlink:href="#m7ed4c79d5b" y="144.141551"/>
      </g>
     </g>
    </g>
    <g id="ytick_14">
     <g id="line2d_27">
      <g>
       <use style="fill:#262626;stroke:#262626;" x="53.454375" xlink:href="#m7ed4c79d5b" y="133.246281"/>
      </g>
     </g>
    </g>
    <g id="ytick_15">
     <g id="line2d_28">
      <g>
       <use style="fill:#262626;stroke:#262626;" x="53.454375" xlink:href="#m7ed4c79d5b" y="125.515964"/>
      </g>
     </g>
    </g>
    <g id="ytick_16">
     <g id="line2d_29">
      <g>
       <use style="fill:#262626;stroke:#262626;" x="53.454375" xlink:href="#m7ed4c79d5b" y="119.519864"/>
      </g>
     </g>
    </g>
    <g id="ytick_17">
     <g id="line2d_30">
      <g>
       <use style="fill:#262626;stroke:#262626;" x="53.454375" xlink:href="#m7ed4c79d5b" y="114.620693"/>
      </g>
     </g>
    </g>
    <g id="ytick_18">
     <g id="line2d_31">
      <g>
       <use style="fill:#262626;stroke:#262626;" x="53.454375" xlink:href="#m7ed4c79d5b" y="110.478504"/>
      </g>
     </g>
    </g>
    <g id="ytick_19">
     <g id="line2d_32">
      <g>
       <use style="fill:#262626;stroke:#262626;" x="53.454375" xlink:href="#m7ed4c79d5b" y="106.890376"/>
      </g>
     </g>
    </g>
    <g id="ytick_20">
     <g id="line2d_33">
      <g>
       <use style="fill:#262626;stroke:#262626;" x="53.454375" xlink:href="#m7ed4c79d5b" y="103.725423"/>
      </g>
     </g>
    </g>
    <g id="ytick_21">
     <g id="line2d_34">
      <g>
       <use style="fill:#262626;stroke:#262626;" x="53.454375" xlink:href="#m7ed4c79d5b" y="82.268689"/>
      </g>
     </g>
    </g>
    <g id="ytick_22">
     <g id="line2d_35">
      <g>
       <use style="fill:#262626;stroke:#262626;" x="53.454375" xlink:href="#m7ed4c79d5b" y="71.373419"/>
      </g>
     </g>
    </g>
    <g id="ytick_23">
     <g id="line2d_36">
      <g>
       <use style="fill:#262626;stroke:#262626;" x="53.454375" xlink:href="#m7ed4c79d5b" y="63.643102"/>
      </g>
     </g>
    </g>
    <g id="ytick_24">
     <g id="line2d_37">
      <g>
       <use style="fill:#262626;stroke:#262626;" x="53.454375" xlink:href="#m7ed4c79d5b" y="57.647002"/>
      </g>
     </g>
    </g>
    <g id="ytick_25">
     <g id="line2d_38">
      <g>
       <use style="fill:#262626;stroke:#262626;" x="53.454375" xlink:href="#m7ed4c79d5b" y="52.747832"/>
      </g>
     </g>
    </g>
    <g id="ytick_26">
     <g id="line2d_39">
      <g>
       <use style="fill:#262626;stroke:#262626;" x="53.454375" xlink:href="#m7ed4c79d5b" y="48.605642"/>
      </g>
     </g>
    </g>
    <g id="ytick_27">
     <g id="line2d_40">
      <g>
       <use style="fill:#262626;stroke:#262626;" x="53.454375" xlink:href="#m7ed4c79d5b" y="45.017514"/>
      </g>
     </g>
    </g>
    <g id="ytick_28">
     <g id="line2d_41">
      <g>
       <use style="fill:#262626;stroke:#262626;" x="53.454375" xlink:href="#m7ed4c79d5b" y="41.852561"/>
      </g>
     </g>
    </g>
    <g id="ytick_29">
     <g id="line2d_42">
      <g>
       <use style="fill:#262626;stroke:#262626;" x="53.454375" xlink:href="#m7ed4c79d5b" y="20.395827"/>
      </g>
     </g>
    </g>
    <g id="ytick_30">
     <g id="line2d_43">
      <g>
       <use style="fill:#262626;stroke:#262626;" x="53.454375" xlink:href="#m7ed4c79d5b" y="9.500557"/>
      </g>
     </g>
    </g>
    <g id="text_7">
     <!-- $m \mathrm{d} N / \mathrm{d} m$ -->
     <g style="fill:#262626;" transform="translate(15.789375 141.78)rotate(-90)scale(0.12 -0.12)">
      <defs>
       <path d="M 2906 2969 
L 2906 4863 
L 3481 4863 
L 3481 0 
L 2906 0 
L 2906 525 
Q 2725 213 2448 61 
Q 2172 -91 1784 -91 
Q 1150 -91 751 415 
Q 353 922 353 1747 
Q 353 2572 751 3078 
Q 1150 3584 1784 3584 
Q 2172 3584 2448 3432 
Q 2725 3281 2906 2969 
z
M 947 1747 
Q 947 1113 1208 752 
Q 1469 391 1925 391 
Q 2381 391 2643 752 
Q 2906 1113 2906 1747 
Q 2906 2381 2643 2742 
Q 2381 3103 1925 3103 
Q 1469 3103 1208 2742 
Q 947 2381 947 1747 
z
" id="DejaVuSans-64" transform="scale(0.015625)"/>
       <path d="M 1081 4666 
L 1931 4666 
L 3219 666 
L 4000 4666 
L 4616 4666 
L 3706 0 
L 2853 0 
L 1569 4025 
L 788 0 
L 172 0 
L 1081 4666 
z
" id="DejaVuSans-Oblique-4e" transform="scale(0.015625)"/>
      </defs>
      <use transform="translate(0 0.015625)" xlink:href="#DejaVuSans-Oblique-6d"/>
      <use transform="translate(97.412109 0.015625)" xlink:href="#DejaVuSans-64"/>
      <use transform="translate(160.888672 0.015625)" xlink:href="#DejaVuSans-Oblique-4e"/>
      <use transform="translate(235.693359 0.015625)" xlink:href="#DejaVuSans-2f"/>
      <use transform="translate(269.384766 0.015625)" xlink:href="#DejaVuSans-64"/>
      <use transform="translate(332.861328 0.015625)" xlink:href="#DejaVuSans-Oblique-6d"/>
     </g>
    </g>
   </g>
   <g id="PolyCollection_1">
    <defs>
     <path d="M 68.672557 -251.274971 
L 68.672557 -257.776094 
L 69.62073 -257.27216 
L 70.568903 -256.764654 
L 71.517077 -256.248215 
L 72.46525 -255.737734 
L 73.413423 -255.226157 
L 74.361597 -254.719934 
L 75.30977 -254.228005 
L 76.257943 -253.724265 
L 77.206117 -253.225452 
L 78.15429 -252.729022 
L 79.102463 -252.243492 
L 80.050637 -251.749916 
L 80.99881 -251.26375 
L 81.946983 -250.767302 
L 82.895157 -250.269275 
L 83.84333 -249.748794 
L 84.791503 -249.253604 
L 85.739677 -248.755791 
L 86.68785 -248.261257 
L 87.636023 -247.744306 
L 88.584197 -247.239436 
L 89.53237 -246.735498 
L 90.480543 -246.244706 
L 91.428717 -245.745725 
L 92.37689 -245.249363 
L 93.325063 -244.766589 
L 94.273237 -244.267698 
L 95.22141 -243.762434 
L 96.169583 -243.255757 
L 97.117756 -242.759817 
L 98.06593 -242.26226 
L 99.014103 -241.789258 
L 99.962276 -241.300305 
L 100.91045 -240.810498 
L 101.858623 -240.342519 
L 102.806796 -239.858538 
L 103.75497 -239.357257 
L 104.703143 -238.866667 
L 105.651316 -238.393942 
L 106.59949 -237.927625 
L 107.547663 -237.432418 
L 108.495836 -236.935526 
L 109.44401 -236.47576 
L 110.392183 -236.020027 
L 111.340356 -235.525025 
L 112.28853 -235.020815 
L 113.236703 -234.531252 
L 114.184876 -234.037662 
L 115.13305 -233.549627 
L 116.081223 -233.069337 
L 117.029396 -232.606547 
L 117.97757 -232.110828 
L 118.925743 -231.614876 
L 119.873916 -231.150046 
L 120.82209 -230.678787 
L 121.770263 -230.224104 
L 122.718436 -229.741202 
L 123.666609 -229.262056 
L 124.614783 -228.790224 
L 125.562956 -228.314685 
L 126.511129 -227.852358 
L 127.459303 -227.395491 
L 128.407476 -226.935663 
L 129.355649 -226.456251 
L 130.303823 -225.969787 
L 131.251996 -225.490227 
L 132.200169 -225.043989 
L 133.148343 -224.564587 
L 134.096516 -224.096038 
L 135.044689 -223.604007 
L 135.992863 -223.13227 
L 136.941036 -222.680652 
L 137.889209 -222.221282 
L 138.837383 -221.756822 
L 139.785556 -221.291773 
L 140.733729 -220.826243 
L 141.681903 -220.377765 
L 142.630076 -219.920913 
L 143.578249 -219.451504 
L 144.526423 -218.981118 
L 145.474596 -218.506431 
L 146.422769 -218.049703 
L 147.370943 -217.615976 
L 148.319116 -217.140901 
L 149.267289 -216.685607 
L 150.215463 -216.241642 
L 151.163636 -215.778577 
L 152.111809 -215.314336 
L 153.059982 -214.840591 
L 154.008156 -214.396321 
L 154.956329 -213.950256 
L 155.904502 -213.475055 
L 156.852676 -213.019565 
L 157.800849 -212.567058 
L 158.749022 -212.125102 
L 159.697196 -211.679535 
L 160.645369 -211.21866 
L 161.593542 -210.774992 
L 162.541716 -210.325907 
L 163.489889 -209.874718 
L 164.438062 -209.422145 
L 165.386236 -208.987908 
L 166.334409 -208.538981 
L 167.282582 -208.092147 
L 168.230756 -207.667905 
L 169.178929 -207.257755 
L 170.127102 -206.812114 
L 171.075276 -206.356881 
L 172.023449 -205.889277 
L 172.971622 -205.440474 
L 173.919796 -204.975548 
L 174.867969 -204.527236 
L 175.816142 -204.098721 
L 176.764316 -203.639486 
L 177.712489 -203.190726 
L 178.660662 -202.759578 
L 179.608835 -202.302635 
L 180.557009 -201.84122 
L 181.505182 -201.402924 
L 182.453355 -200.963217 
L 183.401529 -200.545552 
L 184.349702 -200.107713 
L 185.297875 -199.659442 
L 186.246049 -199.211224 
L 187.194222 -198.753467 
L 188.142395 -198.308549 
L 189.090569 -197.872895 
L 190.038742 -197.431316 
L 190.986915 -196.962312 
L 191.935089 -196.512235 
L 192.883262 -196.088206 
L 193.831435 -195.630662 
L 194.779609 -195.16247 
L 195.727782 -194.724683 
L 196.675955 -194.268489 
L 197.624129 -193.812008 
L 198.572302 -193.356709 
L 199.520475 -192.901088 
L 200.468649 -192.455282 
L 201.416822 -192.026119 
L 202.364995 -191.588972 
L 203.313169 -191.151811 
L 204.261342 -190.696697 
L 205.209515 -190.244692 
L 206.157689 -189.804018 
L 207.105862 -189.376898 
L 208.054035 -188.920824 
L 209.002208 -188.468818 
L 209.950382 -188.044769 
L 210.898555 -187.6152 
L 211.846728 -187.182499 
L 212.794902 -186.726232 
L 213.743075 -186.275673 
L 214.691248 -185.825997 
L 215.639422 -185.375422 
L 216.587595 -184.924449 
L 217.535768 -184.469979 
L 218.483942 -184.027322 
L 219.432115 -183.578312 
L 220.380288 -183.161752 
L 221.328462 -182.713305 
L 222.276635 -182.270971 
L 223.224808 -181.851772 
L 224.172982 -181.42925 
L 225.121155 -180.983446 
L 226.069328 -180.555921 
L 227.017502 -180.125946 
L 227.965675 -179.66731 
L 228.913848 -179.232549 
L 229.862022 -178.769998 
L 230.810195 -178.313814 
L 231.758368 -177.87458 
L 232.706542 -177.445194 
L 233.654715 -177.013939 
L 234.602888 -176.569588 
L 235.551061 -176.137348 
L 236.499235 -175.684004 
L 237.447408 -175.251757 
L 238.395581 -174.80699 
L 239.343755 -174.362671 
L 240.291928 -173.925957 
L 241.240101 -173.48433 
L 242.188275 -173.04702 
L 243.136448 -172.608498 
L 244.084621 -172.167822 
L 245.032795 -171.716838 
L 245.980968 -171.284158 
L 246.929141 -170.833621 
L 247.877315 -170.393372 
L 248.825488 -169.954057 
L 249.773661 -169.505269 
L 250.721835 -169.057174 
L 251.670008 -168.609369 
L 252.618181 -168.160109 
L 253.566355 -167.718683 
L 254.514528 -167.272094 
L 255.462701 -166.839027 
L 256.410875 -166.397109 
L 257.359048 -165.956796 
L 258.307221 -165.509452 
L 259.255395 -165.061165 
L 260.203568 -164.612093 
L 261.151741 -164.160381 
L 262.099915 -163.718131 
L 263.048088 -163.268698 
L 263.996261 -162.8335 
L 264.944434 -162.376681 
L 265.892608 -161.92704 
L 266.840781 -161.48366 
L 267.788954 -161.059324 
L 268.737128 -160.619305 
L 269.685301 -160.175847 
L 270.633474 -159.719784 
L 271.581648 -159.271704 
L 272.529821 -158.821455 
L 273.477994 -158.385986 
L 274.426168 -157.939883 
L 275.374341 -157.507629 
L 276.322514 -157.07552 
L 277.270688 -156.638461 
L 278.218861 -156.199981 
L 279.167034 -155.761502 
L 280.115208 -155.323022 
L 281.063381 -154.881132 
L 282.011554 -154.43906 
L 282.959728 -153.997974 
L 283.907901 -153.553558 
L 284.856074 -153.097471 
L 285.804248 -152.675988 
L 286.752421 -152.241414 
L 287.700594 -151.790787 
L 288.648768 -151.358636 
L 289.596941 -150.921156 
L 290.545114 -150.483232 
L 291.493287 -150.044044 
L 292.441461 -149.608641 
L 293.389634 -149.169827 
L 294.337807 -148.724265 
L 295.285981 -148.282537 
L 296.234154 -147.850255 
L 297.182327 -147.415747 
L 298.130501 -146.976305 
L 299.078674 -146.545045 
L 300.026847 -146.113786 
L 300.975021 -145.682527 
L 301.923194 -145.248883 
L 302.871367 -144.79454 
L 303.819541 -144.351646 
L 304.767714 -143.920619 
L 305.715887 -143.487589 
L 306.664061 -143.053432 
L 307.612234 -142.610288 
L 308.560407 -142.168422 
L 309.508581 -141.726556 
L 310.456754 -141.284691 
L 311.404927 -140.842637 
L 312.353101 -140.396694 
L 313.301274 -139.950752 
L 314.249447 -139.50139 
L 315.197621 -139.064083 
L 316.145794 -138.62226 
L 317.093967 -138.180438 
L 318.042141 -137.738616 
L 318.990314 -137.296795 
L 319.938487 -136.854973 
L 320.88666 -136.413153 
L 321.834834 -135.971333 
L 322.783007 -135.531941 
L 323.73118 -135.10152 
L 324.679354 -134.670308 
L 325.627527 -134.23701 
L 326.5757 -133.803715 
L 327.523874 -133.366096 
L 328.472047 -132.913299 
L 329.42022 -132.461143 
L 330.368394 -132.013989 
L 331.316567 -131.567947 
L 332.26474 -131.130884 
L 333.212914 -130.698652 
L 334.161087 -130.273116 
L 335.10926 -129.844958 
L 336.057434 -129.416802 
L 337.005607 -128.988647 
L 337.95378 -128.560494 
L 338.901954 -128.132342 
L 339.850127 -127.699465 
L 340.7983 -127.273759 
L 341.746474 -126.848053 
L 342.694647 -126.420141 
L 343.64282 -125.974917 
L 344.590994 -125.526735 
L 345.539167 -125.078871 
L 346.48734 -124.632716 
L 347.435513 -124.186561 
L 348.383687 -123.740406 
L 349.33186 -123.302907 
L 350.280033 -122.857838 
L 351.228207 -122.416921 
L 352.17638 -121.995168 
L 353.124553 -121.570927 
L 354.072727 -121.142634 
L 355.0209 -120.696927 
L 355.969073 -120.242383 
L 356.917247 -119.804868 
L 357.86542 -119.370312 
L 358.813593 -118.935756 
L 359.761767 -118.501201 
L 360.70994 -118.066647 
L 361.658113 -117.626791 
L 362.606287 -117.185798 
L 363.55446 -116.749851 
L 364.502633 -116.303887 
L 365.450807 -115.85599 
L 366.39898 -115.407469 
L 367.347153 -114.95793 
L 368.295327 -114.510067 
L 369.2435 -114.064537 
L 370.191673 -113.620059 
L 371.139847 -113.177742 
L 372.08802 -112.735426 
L 373.036193 -112.293113 
L 373.036193 -89.632772 
L 373.036193 -89.632772 
L 372.08802 -90.15699 
L 371.139847 -90.682139 
L 370.191673 -91.210963 
L 369.2435 -91.739786 
L 368.295327 -92.261948 
L 367.347153 -92.772485 
L 366.39898 -93.292377 
L 365.450807 -93.812744 
L 364.502633 -94.336571 
L 363.55446 -94.860398 
L 362.606287 -95.384225 
L 361.658113 -95.908052 
L 360.70994 -96.431879 
L 359.761767 -96.949182 
L 358.813593 -97.467377 
L 357.86542 -97.992629 
L 356.917247 -98.517882 
L 355.969073 -99.03559 
L 355.0209 -99.544163 
L 354.072727 -100.052736 
L 353.124553 -100.561309 
L 352.17638 -101.070232 
L 351.228207 -101.584369 
L 350.280033 -102.094904 
L 349.33186 -102.600603 
L 348.383687 -103.113518 
L 347.435513 -103.632411 
L 346.48734 -104.144042 
L 345.539167 -104.654085 
L 344.590994 -105.166052 
L 343.64282 -105.678019 
L 342.694647 -106.195456 
L 341.746474 -106.730211 
L 340.7983 -107.268082 
L 339.850127 -107.785418 
L 338.901954 -108.297276 
L 337.95378 -108.800029 
L 337.005607 -109.302696 
L 336.057434 -109.818869 
L 335.10926 -110.351724 
L 334.161087 -110.871385 
L 333.212914 -111.380506 
L 332.26474 -111.896084 
L 331.316567 -112.408067 
L 330.368394 -112.920049 
L 329.42022 -113.427708 
L 328.472047 -113.944013 
L 327.523874 -114.456434 
L 326.5757 -114.968665 
L 325.627527 -115.482545 
L 324.679354 -115.999364 
L 323.73118 -116.517952 
L 322.783007 -117.040421 
L 321.834834 -117.563856 
L 320.88666 -118.079302 
L 319.938487 -118.600832 
L 318.990314 -119.12284 
L 318.042141 -119.644849 
L 317.093967 -120.163665 
L 316.145794 -120.660546 
L 315.197621 -121.152877 
L 314.249447 -121.66205 
L 313.301274 -122.158158 
L 312.353101 -122.663556 
L 311.404927 -123.191383 
L 310.456754 -123.72035 
L 309.508581 -124.24932 
L 308.560407 -124.778291 
L 307.612234 -125.302137 
L 306.664061 -125.818959 
L 305.715887 -126.329246 
L 304.767714 -126.835113 
L 303.819541 -127.340981 
L 302.871367 -127.848567 
L 301.923194 -128.359445 
L 300.975021 -128.872158 
L 300.026847 -129.401793 
L 299.078674 -129.917275 
L 298.130501 -130.421798 
L 297.182327 -130.915767 
L 296.234154 -131.409307 
L 295.285981 -131.929304 
L 294.337807 -132.448758 
L 293.389634 -132.958927 
L 292.441461 -133.469097 
L 291.493287 -133.979267 
L 290.545114 -134.489438 
L 289.596941 -135.012065 
L 288.648768 -135.535798 
L 287.700594 -136.059531 
L 286.752421 -136.584319 
L 285.804248 -137.111637 
L 284.856074 -137.640061 
L 283.907901 -138.157941 
L 282.959728 -138.680398 
L 282.011554 -139.201467 
L 281.063381 -139.729465 
L 280.115208 -140.255112 
L 279.167034 -140.78076 
L 278.218861 -141.306408 
L 277.270688 -141.834405 
L 276.322514 -142.385569 
L 275.374341 -142.90399 
L 274.426168 -143.418961 
L 273.477994 -143.933959 
L 272.529821 -144.454133 
L 271.581648 -144.976893 
L 270.633474 -145.497263 
L 269.685301 -145.995301 
L 268.737128 -146.499081 
L 267.788954 -147.009372 
L 266.840781 -147.517119 
L 265.892608 -148.018598 
L 264.944434 -148.514287 
L 263.996261 -149.026489 
L 263.048088 -149.552827 
L 262.099915 -150.06784 
L 261.151741 -150.58752 
L 260.203568 -151.101693 
L 259.255395 -151.621302 
L 258.307221 -152.128778 
L 257.359048 -152.647797 
L 256.410875 -153.169192 
L 255.462701 -153.686677 
L 254.514528 -154.206474 
L 253.566355 -154.729791 
L 252.618181 -155.254773 
L 251.670008 -155.774737 
L 250.721835 -156.291875 
L 249.773661 -156.816056 
L 248.825488 -157.333848 
L 247.877315 -157.832744 
L 246.929141 -158.367187 
L 245.980968 -158.889156 
L 245.032795 -159.415573 
L 244.084621 -159.930221 
L 243.136448 -160.459332 
L 242.188275 -160.968257 
L 241.240101 -161.48685 
L 240.291928 -162.005745 
L 239.343755 -162.527704 
L 238.395581 -163.056815 
L 237.447408 -163.575297 
L 236.499235 -164.084941 
L 235.551061 -164.609466 
L 234.602888 -165.146267 
L 233.654715 -165.647742 
L 232.706542 -166.172426 
L 231.758368 -166.69428 
L 230.810195 -167.210601 
L 229.862022 -167.720898 
L 228.913848 -168.239665 
L 227.965675 -168.763938 
L 227.017502 -169.281296 
L 226.069328 -169.798198 
L 225.121155 -170.310046 
L 224.172982 -170.822839 
L 223.224808 -171.339306 
L 222.276635 -171.855373 
L 221.328462 -172.369513 
L 220.380288 -172.883815 
L 219.432115 -173.394216 
L 218.483942 -173.913485 
L 217.535768 -174.428236 
L 216.587595 -174.960662 
L 215.639422 -175.488676 
L 214.691248 -176.026947 
L 213.743075 -176.517238 
L 212.794902 -177.01572 
L 211.846728 -177.518802 
L 210.898555 -178.029821 
L 209.950382 -178.545135 
L 209.002208 -179.060767 
L 208.054035 -179.570161 
L 207.105862 -180.097488 
L 206.157689 -180.618476 
L 205.209515 -181.142547 
L 204.261342 -181.661339 
L 203.313169 -182.16959 
L 202.364995 -182.68607 
L 201.416822 -183.191001 
L 200.468649 -183.70145 
L 199.520475 -184.217579 
L 198.572302 -184.706313 
L 197.624129 -185.21792 
L 196.675955 -185.723743 
L 195.727782 -186.223707 
L 194.779609 -186.731188 
L 193.831435 -187.276964 
L 192.883262 -187.783215 
L 191.935089 -188.28542 
L 190.986915 -188.802714 
L 190.038742 -189.337296 
L 189.090569 -189.849271 
L 188.142395 -190.373526 
L 187.194222 -190.893187 
L 186.246049 -191.395331 
L 185.297875 -191.92747 
L 184.349702 -192.45311 
L 183.401529 -192.974109 
L 182.453355 -193.479872 
L 181.505182 -193.987103 
L 180.557009 -194.469483 
L 179.608835 -194.977836 
L 178.660662 -195.488963 
L 177.712489 -195.990864 
L 176.764316 -196.512736 
L 175.816142 -197.028358 
L 174.867969 -197.538864 
L 173.919796 -198.038014 
L 172.971622 -198.541653 
L 172.023449 -199.050656 
L 171.075276 -199.559151 
L 170.127102 -200.08688 
L 169.178929 -200.610899 
L 168.230756 -201.103561 
L 167.282582 -201.600481 
L 166.334409 -202.129319 
L 165.386236 -202.656536 
L 164.438062 -203.141963 
L 163.489889 -203.634733 
L 162.541716 -204.133684 
L 161.593542 -204.624515 
L 160.645369 -205.126454 
L 159.697196 -205.62068 
L 158.749022 -206.121887 
L 157.800849 -206.626092 
L 156.852676 -207.136911 
L 155.904502 -207.643952 
L 154.956329 -208.146577 
L 154.008156 -208.63568 
L 153.059982 -209.146596 
L 152.111809 -209.66258 
L 151.163636 -210.15674 
L 150.215463 -210.64979 
L 149.267289 -211.143658 
L 148.319116 -211.650936 
L 147.370943 -212.135288 
L 146.422769 -212.643322 
L 145.474596 -213.15092 
L 144.526423 -213.664772 
L 143.578249 -214.167161 
L 142.630076 -214.659289 
L 141.681903 -215.142325 
L 140.733729 -215.648559 
L 139.785556 -216.137033 
L 138.837383 -216.6214 
L 137.889209 -217.084864 
L 136.941036 -217.605322 
L 135.992863 -218.086548 
L 135.044689 -218.597379 
L 134.096516 -219.091878 
L 133.148343 -219.585085 
L 132.200169 -220.095385 
L 131.251996 -220.563845 
L 130.303823 -221.052077 
L 129.355649 -221.557018 
L 128.407476 -222.044005 
L 127.459303 -222.514467 
L 126.511129 -222.995257 
L 125.562956 -223.480588 
L 124.614783 -223.98046 
L 123.666609 -224.48169 
L 122.718436 -224.960484 
L 121.770263 -225.442648 
L 120.82209 -225.899272 
L 119.873916 -226.370598 
L 118.925743 -226.833446 
L 117.97757 -227.294533 
L 117.029396 -227.75971 
L 116.081223 -228.240063 
L 115.13305 -228.710577 
L 114.184876 -229.196762 
L 113.236703 -229.682382 
L 112.28853 -230.167777 
L 111.340356 -230.656769 
L 110.392183 -231.107153 
L 109.44401 -231.568097 
L 108.495836 -232.027317 
L 107.547663 -232.480597 
L 106.59949 -232.945522 
L 105.651316 -233.409992 
L 104.703143 -233.882834 
L 103.75497 -234.349622 
L 102.806796 -234.823663 
L 101.858623 -235.286445 
L 100.91045 -235.757479 
L 99.962276 -236.235418 
L 99.014103 -236.705304 
L 98.06593 -237.16026 
L 97.117756 -237.61593 
L 96.169583 -238.081171 
L 95.22141 -238.526481 
L 94.273237 -238.971946 
L 93.325063 -239.427102 
L 92.37689 -239.884854 
L 91.428717 -240.351842 
L 90.480543 -240.806615 
L 89.53237 -241.266236 
L 88.584197 -241.722288 
L 87.636023 -242.207859 
L 86.68785 -242.673123 
L 85.739677 -243.123541 
L 84.791503 -243.571697 
L 83.84333 -243.99612 
L 82.895157 -244.424415 
L 81.946983 -244.884156 
L 80.99881 -245.338546 
L 80.050637 -245.817738 
L 79.102463 -246.279203 
L 78.15429 -246.7436 
L 77.206117 -247.194318 
L 76.257943 -247.626113 
L 75.30977 -248.082846 
L 74.361597 -248.547845 
L 73.413423 -249.001457 
L 72.46525 -249.446451 
L 71.517077 -249.901882 
L 70.568903 -250.36892 
L 69.62073 -250.823435 
L 68.672557 -251.274971 
z
" id="me277cdaadb" style="stroke:#0173b2;stroke-opacity:0.25;"/>
    </defs>
    <g clip-path="url(#p6abe04fe21)">
     <use style="fill:#0173b2;fill-opacity:0.25;stroke:#0173b2;stroke-opacity:0.25;" x="0" xlink:href="#me277cdaadb" y="269.844375"/>
    </g>
   </g>
   <g id="PolyCollection_2">
    <defs>
     <path d="M 68.672557 -248.320902 
L 68.672557 -261.333332 
L 69.62073 -260.761017 
L 70.568903 -260.188702 
L 71.517077 -259.616387 
L 72.46525 -259.051691 
L 73.413423 -258.501424 
L 74.361597 -257.951019 
L 75.30977 -257.384378 
L 76.257943 -256.848859 
L 77.206117 -256.316559 
L 78.15429 -255.784517 
L 79.102463 -255.248282 
L 80.050637 -254.719199 
L 80.99881 -254.153088 
L 81.946983 -253.592147 
L 82.895157 -253.020178 
L 83.84333 -252.484379 
L 84.791503 -251.994173 
L 85.739677 -251.473738 
L 86.68785 -250.939537 
L 87.636023 -250.386275 
L 88.584197 -249.845832 
L 89.53237 -249.27231 
L 90.480543 -248.752339 
L 91.428717 -248.245906 
L 92.37689 -247.766634 
L 93.325063 -247.246097 
L 94.273237 -246.706899 
L 95.22141 -246.196875 
L 96.169583 -245.668437 
L 97.117756 -245.164677 
L 98.06593 -244.682794 
L 99.014103 -244.178399 
L 99.962276 -243.67398 
L 100.91045 -243.159603 
L 101.858623 -242.66574 
L 102.806796 -242.161262 
L 103.75497 -241.652802 
L 104.703143 -241.102781 
L 105.651316 -240.580983 
L 106.59949 -240.129426 
L 107.547663 -239.6168 
L 108.495836 -239.116036 
L 109.44401 -238.591547 
L 110.392183 -238.106116 
L 111.340356 -237.591081 
L 112.28853 -237.11265 
L 113.236703 -236.579581 
L 114.184876 -236.122352 
L 115.13305 -235.628212 
L 116.081223 -235.120612 
L 117.029396 -234.610359 
L 117.97757 -234.091683 
L 118.925743 -233.599751 
L 119.873916 -233.177272 
L 120.82209 -232.712325 
L 121.770263 -232.234521 
L 122.718436 -231.756931 
L 123.666609 -231.250253 
L 124.614783 -230.781889 
L 125.562956 -230.304118 
L 126.511129 -229.860106 
L 127.459303 -229.415707 
L 128.407476 -228.992795 
L 129.355649 -228.528501 
L 130.303823 -228.089521 
L 131.251996 -227.642471 
L 132.200169 -227.174488 
L 133.148343 -226.709181 
L 134.096516 -226.248726 
L 135.044689 -225.784272 
L 135.992863 -225.35809 
L 136.941036 -224.935882 
L 137.889209 -224.47428 
L 138.837383 -224.041383 
L 139.785556 -223.608067 
L 140.733729 -223.173235 
L 141.681903 -222.70848 
L 142.630076 -222.263525 
L 143.578249 -221.829048 
L 144.526423 -221.378212 
L 145.474596 -220.907944 
L 146.422769 -220.452006 
L 147.370943 -220.056262 
L 148.319116 -219.585038 
L 149.267289 -219.159467 
L 150.215463 -218.714925 
L 151.163636 -218.303577 
L 152.111809 -217.85295 
L 153.059982 -217.40969 
L 154.008156 -216.982591 
L 154.956329 -216.53867 
L 155.904502 -216.094711 
L 156.852676 -215.669511 
L 157.800849 -215.257994 
L 158.749022 -214.843472 
L 159.697196 -214.373596 
L 160.645369 -213.976172 
L 161.593542 -213.517317 
L 162.541716 -213.092255 
L 163.489889 -212.681812 
L 164.438062 -212.252041 
L 165.386236 -211.851148 
L 166.334409 -211.390756 
L 167.282582 -210.930485 
L 168.230756 -210.492432 
L 169.178929 -210.058249 
L 170.127102 -209.621692 
L 171.075276 -209.218131 
L 172.023449 -208.814826 
L 172.971622 -208.362465 
L 173.919796 -207.914606 
L 174.867969 -207.471594 
L 175.816142 -207.02934 
L 176.764316 -206.637304 
L 177.712489 -206.244503 
L 178.660662 -205.863908 
L 179.608835 -205.431637 
L 180.557009 -204.990202 
L 181.505182 -204.54646 
L 182.453355 -204.133321 
L 183.401529 -203.700549 
L 184.349702 -203.267777 
L 185.297875 -202.835004 
L 186.246049 -202.40345 
L 187.194222 -201.970724 
L 188.142395 -201.537427 
L 189.090569 -201.110571 
L 190.038742 -200.671144 
L 190.986915 -200.232295 
L 191.935089 -199.77982 
L 192.883262 -199.372827 
L 193.831435 -198.940055 
L 194.779609 -198.507743 
L 195.727782 -198.096206 
L 196.675955 -197.660962 
L 197.624129 -197.268526 
L 198.572302 -196.853749 
L 199.520475 -196.448313 
L 200.468649 -196.044947 
L 201.416822 -195.641581 
L 202.364995 -195.238215 
L 203.313169 -194.83473 
L 204.261342 -194.418524 
L 205.209515 -194.018955 
L 206.157689 -193.619385 
L 207.105862 -193.183246 
L 208.054035 -192.749837 
L 209.002208 -192.352419 
L 209.950382 -191.995697 
L 210.898555 -191.576696 
L 211.846728 -191.160555 
L 212.794902 -190.762748 
L 213.743075 -190.36533 
L 214.691248 -189.967913 
L 215.639422 -189.570495 
L 216.587595 -189.173077 
L 217.535768 -188.777673 
L 218.483942 -188.380037 
L 219.432115 -187.981625 
L 220.380288 -187.584211 
L 221.328462 -187.178768 
L 222.276635 -186.789257 
L 223.224808 -186.387746 
L 224.172982 -185.982156 
L 225.121155 -185.597066 
L 226.069328 -185.200592 
L 227.017502 -184.803231 
L 227.965675 -184.40587 
L 228.913848 -184.008509 
L 229.862022 -183.615961 
L 230.810195 -183.233072 
L 231.758368 -182.838698 
L 232.706542 -182.442306 
L 233.654715 -182.034665 
L 234.602888 -181.624984 
L 235.551061 -181.227665 
L 236.499235 -180.830347 
L 237.447408 -180.433028 
L 238.395581 -180.027262 
L 239.343755 -179.63308 
L 240.291928 -179.238381 
L 241.240101 -178.838965 
L 242.188275 -178.43955 
L 243.136448 -178.040134 
L 244.084621 -177.640719 
L 245.032795 -177.241303 
L 245.980968 -176.841887 
L 246.929141 -176.460744 
L 247.877315 -176.06415 
L 248.825488 -175.667026 
L 249.773661 -175.269902 
L 250.721835 -174.872778 
L 251.670008 -174.475324 
L 252.618181 -174.077706 
L 253.566355 -173.689564 
L 254.514528 -173.294019 
L 255.462701 -172.886476 
L 256.410875 -172.488799 
L 257.359048 -172.093603 
L 258.307221 -171.700236 
L 259.255395 -171.296161 
L 260.203568 -170.89901 
L 261.151741 -170.501858 
L 262.099915 -170.087896 
L 263.048088 -169.70693 
L 263.996261 -169.310194 
L 264.944434 -168.914701 
L 265.892608 -168.525452 
L 266.840781 -168.136203 
L 267.788954 -167.746954 
L 268.737128 -167.357705 
L 269.685301 -166.968456 
L 270.633474 -166.579207 
L 271.581648 -166.189919 
L 272.529821 -165.793551 
L 273.477994 -165.387419 
L 274.426168 -164.981067 
L 275.374341 -164.574716 
L 276.322514 -164.168365 
L 277.270688 -163.758768 
L 278.218861 -163.350733 
L 279.167034 -162.949684 
L 280.115208 -162.550951 
L 281.063381 -162.158909 
L 282.011554 -161.761796 
L 282.959728 -161.364384 
L 283.907901 -160.965111 
L 284.856074 -160.562062 
L 285.804248 -160.159012 
L 286.752421 -159.755963 
L 287.700594 -159.352914 
L 288.648768 -158.949864 
L 289.596941 -158.546815 
L 290.545114 -158.143245 
L 291.493287 -157.739625 
L 292.441461 -157.325494 
L 293.389634 -156.905851 
L 294.337807 -156.486208 
L 295.285981 -156.070446 
L 296.234154 -155.670882 
L 297.182327 -155.284842 
L 298.130501 -154.904313 
L 299.078674 -154.514151 
L 300.026847 -154.111535 
L 300.975021 -153.708919 
L 301.923194 -153.306304 
L 302.871367 -152.90369 
L 303.819541 -152.501075 
L 304.767714 -152.098031 
L 305.715887 -151.694983 
L 306.664061 -151.291934 
L 307.612234 -150.895954 
L 308.560407 -150.508808 
L 309.508581 -150.121663 
L 310.456754 -149.734517 
L 311.404927 -149.347372 
L 312.353101 -148.960227 
L 313.301274 -148.573082 
L 314.249447 -148.185936 
L 315.197621 -147.798791 
L 316.145794 -147.411647 
L 317.093967 -147.024502 
L 318.042141 -146.637357 
L 318.990314 -146.250212 
L 319.938487 -145.863068 
L 320.88666 -145.473763 
L 321.834834 -145.063095 
L 322.783007 -144.651701 
L 323.73118 -144.240306 
L 324.679354 -143.828912 
L 325.627527 -143.417518 
L 326.5757 -143.006124 
L 327.523874 -142.594731 
L 328.472047 -142.183337 
L 329.42022 -141.771944 
L 330.368394 -141.360551 
L 331.316567 -140.949159 
L 332.26474 -140.537766 
L 333.212914 -140.126374 
L 334.161087 -139.727006 
L 335.10926 -139.332227 
L 336.057434 -138.937319 
L 337.005607 -138.542412 
L 337.95378 -138.147504 
L 338.901954 -137.752597 
L 339.850127 -137.35769 
L 340.7983 -136.962783 
L 341.746474 -136.567875 
L 342.694647 -136.172968 
L 343.64282 -135.778061 
L 344.590994 -135.383155 
L 345.539167 -134.988248 
L 346.48734 -134.593341 
L 347.435513 -134.198434 
L 348.383687 -133.803527 
L 349.33186 -133.408621 
L 350.280033 -133.013714 
L 351.228207 -132.618808 
L 352.17638 -132.223901 
L 353.124553 -131.828995 
L 354.072727 -131.434089 
L 355.0209 -131.039182 
L 355.969073 -130.644234 
L 356.917247 -130.247374 
L 357.86542 -129.84467 
L 358.813593 -129.441966 
L 359.761767 -129.039262 
L 360.70994 -128.636558 
L 361.658113 -128.233854 
L 362.606287 -127.83115 
L 363.55446 -127.428446 
L 364.502633 -127.025742 
L 365.450807 -126.622548 
L 366.39898 -126.219318 
L 367.347153 -125.816089 
L 368.295327 -125.41286 
L 369.2435 -125.00963 
L 370.191673 -124.599262 
L 371.139847 -124.183889 
L 372.08802 -123.768517 
L 373.036193 -123.353144 
L 373.036193 -77.687201 
L 373.036193 -77.687201 
L 372.08802 -78.248868 
L 371.139847 -78.810534 
L 370.191673 -79.366881 
L 369.2435 -79.921146 
L 368.295327 -80.475411 
L 367.347153 -81.029676 
L 366.39898 -81.595639 
L 365.450807 -82.167582 
L 364.502633 -82.739526 
L 363.55446 -83.293394 
L 362.606287 -83.841779 
L 361.658113 -84.390561 
L 360.70994 -84.939359 
L 359.761767 -85.508635 
L 358.813593 -86.078398 
L 357.86542 -86.648162 
L 356.917247 -87.217927 
L 355.969073 -87.787692 
L 355.0209 -88.352994 
L 354.072727 -88.914197 
L 353.124553 -89.4754 
L 352.17638 -90.036603 
L 351.228207 -90.597806 
L 350.280033 -91.15901 
L 349.33186 -91.720213 
L 348.383687 -92.281416 
L 347.435513 -92.84262 
L 346.48734 -93.403823 
L 345.539167 -93.965027 
L 344.590994 -94.52623 
L 343.64282 -95.087434 
L 342.694647 -95.648638 
L 341.746474 -96.209841 
L 340.7983 -96.771045 
L 339.850127 -97.332249 
L 338.901954 -97.893453 
L 337.95378 -98.454657 
L 337.005607 -99.015861 
L 336.057434 -99.577065 
L 335.10926 -100.138544 
L 334.161087 -100.700541 
L 333.212914 -101.262539 
L 332.26474 -101.824537 
L 331.316567 -102.386535 
L 330.368394 -102.948535 
L 329.42022 -103.510534 
L 328.472047 -104.072535 
L 327.523874 -104.634535 
L 326.5757 -105.196537 
L 325.627527 -105.758539 
L 324.679354 -106.320541 
L 323.73118 -106.882328 
L 322.783007 -107.443407 
L 321.834834 -108.004713 
L 320.88666 -108.56602 
L 319.938487 -109.127327 
L 318.990314 -109.688633 
L 318.042141 -110.24994 
L 317.093967 -110.811247 
L 316.145794 -111.372553 
L 315.197621 -111.93386 
L 314.249447 -112.495167 
L 313.301274 -113.056473 
L 312.353101 -113.61778 
L 311.404927 -114.179087 
L 310.456754 -114.740394 
L 309.508581 -115.3017 
L 308.560407 -115.863007 
L 307.612234 -116.424314 
L 306.664061 -116.985621 
L 305.715887 -117.546927 
L 304.767714 -118.108234 
L 303.819541 -118.669541 
L 302.871367 -119.230848 
L 301.923194 -119.792155 
L 300.975021 -120.353462 
L 300.026847 -120.914768 
L 299.078674 -121.476075 
L 298.130501 -122.037382 
L 297.182327 -122.598689 
L 296.234154 -123.159996 
L 295.285981 -123.721303 
L 294.337807 -124.28261 
L 293.389634 -124.843917 
L 292.441461 -125.405224 
L 291.493287 -125.966531 
L 290.545114 -126.527837 
L 289.596941 -127.089144 
L 288.648768 -127.650451 
L 287.700594 -128.202114 
L 286.752421 -128.739892 
L 285.804248 -129.27767 
L 284.856074 -129.815449 
L 283.907901 -130.353228 
L 282.959728 -130.891007 
L 282.011554 -131.433224 
L 281.063381 -131.996664 
L 280.115208 -132.576101 
L 279.167034 -133.155539 
L 278.218861 -133.734977 
L 277.270688 -134.314416 
L 276.322514 -134.894356 
L 275.374341 -135.474456 
L 274.426168 -136.024704 
L 273.477994 -136.57057 
L 272.529821 -137.138776 
L 271.581648 -137.721651 
L 270.633474 -138.268123 
L 269.685301 -138.814595 
L 268.737128 -139.361067 
L 267.788954 -139.907671 
L 266.840781 -140.455112 
L 265.892608 -141.012629 
L 264.944434 -141.595877 
L 263.996261 -142.171527 
L 263.048088 -142.725995 
L 262.099915 -143.304414 
L 261.151741 -143.883577 
L 260.203568 -144.46274 
L 259.255395 -145.041903 
L 258.307221 -145.617689 
L 257.359048 -146.178926 
L 256.410875 -146.739659 
L 255.462701 -147.300393 
L 254.514528 -147.861128 
L 253.566355 -148.421863 
L 252.618181 -148.982599 
L 251.670008 -149.534625 
L 250.721835 -150.07772 
L 249.773661 -150.620818 
L 248.825488 -151.178151 
L 247.877315 -151.749016 
L 246.929141 -152.300986 
L 245.980968 -152.847741 
L 245.032795 -153.392707 
L 244.084621 -153.937672 
L 243.136448 -154.482637 
L 242.188275 -155.027603 
L 241.240101 -155.572998 
L 240.291928 -156.118684 
L 239.343755 -156.66437 
L 238.395581 -157.225922 
L 237.447408 -157.79587 
L 236.499235 -158.365818 
L 235.551061 -158.927053 
L 234.602888 -159.479106 
L 233.654715 -160.031159 
L 232.706542 -160.583213 
L 231.758368 -161.123797 
L 230.810195 -161.664733 
L 229.862022 -162.205819 
L 228.913848 -162.746496 
L 227.965675 -163.286443 
L 227.017502 -163.844407 
L 226.069328 -164.419506 
L 225.121155 -164.989031 
L 224.172982 -165.554969 
L 223.224808 -166.106589 
L 222.276635 -166.658553 
L 221.328462 -167.210929 
L 220.380288 -167.763305 
L 219.432115 -168.315681 
L 218.483942 -168.868056 
L 217.535768 -169.420432 
L 216.587595 -169.972808 
L 215.639422 -170.52529 
L 214.691248 -171.087906 
L 213.743075 -171.630504 
L 212.794902 -172.182312 
L 211.846728 -172.734908 
L 210.898555 -173.31021 
L 209.950382 -173.8879 
L 209.002208 -174.466194 
L 208.054035 -175.044504 
L 207.105862 -175.622814 
L 206.157689 -176.191586 
L 205.209515 -176.73094 
L 204.261342 -177.301807 
L 203.313169 -177.878113 
L 202.364995 -178.45442 
L 201.416822 -179.030729 
L 200.468649 -179.607039 
L 199.520475 -180.152937 
L 198.572302 -180.660401 
L 197.624129 -181.167868 
L 196.675955 -181.675336 
L 195.727782 -182.208608 
L 194.779609 -182.765473 
L 193.831435 -183.324081 
L 192.883262 -183.861146 
L 191.935089 -184.388047 
L 190.986915 -184.958513 
L 190.038742 -185.529099 
L 189.090569 -186.081478 
L 188.142395 -186.6401 
L 187.194222 -187.163764 
L 186.246049 -187.688287 
L 185.297875 -188.22547 
L 184.349702 -188.770784 
L 183.401529 -189.331142 
L 182.453355 -189.854093 
L 181.505182 -190.418781 
L 180.557009 -190.958598 
L 179.608835 -191.524898 
L 178.660662 -192.093008 
L 177.712489 -192.625769 
L 176.764316 -193.121055 
L 175.816142 -193.61172 
L 174.867969 -194.104696 
L 173.919796 -194.65568 
L 172.971622 -195.155506 
L 172.023449 -195.615305 
L 171.075276 -196.195627 
L 170.127102 -196.774709 
L 169.178929 -197.294272 
L 168.230756 -197.823661 
L 167.282582 -198.384731 
L 166.334409 -198.867776 
L 165.386236 -199.364061 
L 164.438062 -199.881881 
L 163.489889 -200.398969 
L 162.541716 -200.916814 
L 161.593542 -201.434246 
L 160.645369 -201.974756 
L 159.697196 -202.483438 
L 158.749022 -202.992119 
L 157.800849 -203.51056 
L 156.852676 -204.0213 
L 155.904502 -204.538781 
L 154.956329 -205.078461 
L 154.008156 -205.575874 
L 153.059982 -206.10631 
L 152.111809 -206.602917 
L 151.163636 -207.125979 
L 150.215463 -207.659522 
L 149.267289 -208.222747 
L 148.319116 -208.741696 
L 147.370943 -209.287326 
L 146.422769 -209.834633 
L 145.474596 -210.36695 
L 144.526423 -210.902524 
L 143.578249 -211.38888 
L 142.630076 -211.893638 
L 141.681903 -212.394341 
L 140.733729 -212.879529 
L 139.785556 -213.398192 
L 138.837383 -213.906877 
L 137.889209 -214.422157 
L 136.941036 -214.947426 
L 135.992863 -215.463272 
L 135.044689 -215.966513 
L 134.096516 -216.467403 
L 133.148343 -216.971925 
L 132.200169 -217.475689 
L 131.251996 -217.977181 
L 130.303823 -218.479033 
L 129.355649 -218.982126 
L 128.407476 -219.485219 
L 127.459303 -219.953385 
L 126.511129 -220.482269 
L 125.562956 -220.969949 
L 124.614783 -221.48208 
L 123.666609 -221.980336 
L 122.718436 -222.503192 
L 121.770263 -222.9901 
L 120.82209 -223.451952 
L 119.873916 -223.944143 
L 118.925743 -224.401623 
L 117.97757 -224.876189 
L 117.029396 -225.393847 
L 116.081223 -225.8917 
L 115.13305 -226.40695 
L 114.184876 -226.898154 
L 113.236703 -227.390196 
L 112.28853 -227.841511 
L 111.340356 -228.289422 
L 110.392183 -228.730697 
L 109.44401 -229.209474 
L 108.495836 -229.663259 
L 107.547663 -230.063991 
L 106.59949 -230.507895 
L 105.651316 -230.952603 
L 104.703143 -231.438801 
L 103.75497 -231.93556 
L 102.806796 -232.420267 
L 101.858623 -232.899805 
L 100.91045 -233.324286 
L 99.962276 -233.755486 
L 99.014103 -234.216737 
L 98.06593 -234.672963 
L 97.117756 -235.155612 
L 96.169583 -235.595505 
L 95.22141 -236.053586 
L 94.273237 -236.539987 
L 93.325063 -236.971743 
L 92.37689 -237.373056 
L 91.428717 -237.82743 
L 90.480543 -238.267595 
L 89.53237 -238.714868 
L 88.584197 -239.183611 
L 87.636023 -239.679048 
L 86.68785 -240.102465 
L 85.739677 -240.50416 
L 84.791503 -240.951732 
L 83.84333 -241.399101 
L 82.895157 -241.846934 
L 81.946983 -242.287049 
L 80.99881 -242.706531 
L 80.050637 -243.129168 
L 79.102463 -243.600247 
L 78.15429 -244.005735 
L 77.206117 -244.395373 
L 76.257943 -244.815982 
L 75.30977 -245.222445 
L 74.361597 -245.654953 
L 73.413423 -246.106116 
L 72.46525 -246.576712 
L 71.517077 -247.041311 
L 70.568903 -247.468873 
L 69.62073 -247.889942 
L 68.672557 -248.320902 
z
" id="m4c00d968e2" style="stroke:#0173b2;stroke-opacity:0.25;"/>
    </defs>
    <g clip-path="url(#p6abe04fe21)">
     <use style="fill:#0173b2;fill-opacity:0.25;stroke:#0173b2;stroke-opacity:0.25;" x="0" xlink:href="#m4c00d968e2" y="269.844375"/>
    </g>
   </g>
   <g id="line2d_44">
    <path clip-path="url(#p6abe04fe21)" d="M 68.672557 13.126439 
L 73.413423 15.078027 
L 79.102463 17.662269 
L 91.428717 23.603011 
L 103.75497 29.402409 
L 117.029396 35.62624 
L 122.718436 38.523242 
L 127.459303 41.151201 
L 132.200169 44.018871 
L 136.941036 47.137212 
L 142.630076 51.171054 
L 151.163636 57.562844 
L 157.800849 62.452518 
L 162.541716 65.655749 
L 166.334409 67.918062 
L 169.178929 69.389516 
L 172.023449 70.642676 
L 174.867969 71.66803 
L 177.712489 72.470596 
L 180.557009 73.069849 
L 184.349702 73.608645 
L 189.090569 74.002873 
L 199.520475 74.734013 
L 203.313169 75.239802 
L 207.105862 75.98503 
L 210.898555 77.014237 
L 214.691248 78.348337 
L 218.483942 79.979171 
L 222.276635 81.865095 
L 227.965675 84.999313 
L 235.551061 89.193577 
L 240.291928 91.538696 
L 245.032795 93.633908 
L 253.566355 97.305328 
L 257.359048 99.202127 
L 260.203568 100.829392 
L 263.048088 102.663434 
L 265.892608 104.715809 
L 269.685301 107.784021 
L 273.477994 111.190717 
L 278.218861 115.826795 
L 282.959728 120.779 
L 287.700594 126.021265 
L 291.493287 130.490587 
L 295.285981 135.321723 
L 298.130501 139.266796 
L 300.975021 143.557624 
L 303.819541 148.25509 
L 306.664061 153.414771 
L 309.508581 159.085295 
L 312.353101 165.307851 
L 315.197621 172.116462 
L 318.042141 179.538705 
L 320.88666 187.596611 
L 323.73118 196.307593 
L 326.5757 205.685307 
L 329.42022 215.740398 
L 332.26474 226.481132 
L 335.10926 237.913905 
L 338.901954 254.242487 
L 342.489863 270.844375 
L 342.489863 270.844375 
" style="fill:none;stroke:#000000;stroke-linecap:round;stroke-width:1.5;"/>
   </g>
   <g id="line2d_45">
    <path clip-path="url(#p6abe04fe21)" d="M 68.672557 15.170916 
L 179.608835 71.08625 
L 194.779609 78.753399 
L 253.566355 108.421075 
L 260.203568 111.707882 
L 282.011554 122.669653 
L 355.0209 159.503652 
L 362.606287 163.329008 
L 373.036193 168.565391 
L 373.036193 168.565391 
" style="fill:none;stroke:#0173b2;stroke-linecap:round;stroke-width:1.5;"/>
   </g>
   <g id="patch_3">
    <path d="M 53.454375 224.64 
L 53.454375 7.2 
" style="fill:none;stroke:#262626;stroke-linecap:square;stroke-linejoin:miter;stroke-width:1.25;"/>
   </g>
   <g id="patch_4">
    <path d="M 388.254375 224.64 
L 388.254375 7.2 
" style="fill:none;stroke:#262626;stroke-linecap:square;stroke-linejoin:miter;stroke-width:1.25;"/>
   </g>
   <g id="patch_5">
    <path d="M 53.454375 224.64 
L 388.254375 224.64 
" style="fill:none;stroke:#262626;stroke-linecap:square;stroke-linejoin:miter;stroke-width:1.25;"/>
   </g>
   <g id="patch_6">
    <path d="M 53.454375 7.2 
L 388.254375 7.2 
" style="fill:none;stroke:#262626;stroke-linecap:square;stroke-linejoin:miter;stroke-width:1.25;"/>
   </g>
   <g id="legend_1">
    <g id="patch_7">
     <path d="M 297.667656 47.119687 
L 380.554375 47.119687 
Q 382.754375 47.119687 382.754375 44.919687 
L 382.754375 14.9 
Q 382.754375 12.7 380.554375 12.7 
L 297.667656 12.7 
Q 295.467656 12.7 295.467656 14.9 
L 295.467656 44.919687 
Q 295.467656 47.119687 297.667656 47.119687 
z
" style="fill:#ffffff;opacity:0.8;stroke:#cccccc;stroke-linejoin:miter;"/>
    </g>
    <g id="line2d_46">
     <path d="M 299.867656 21.123594 
L 321.867656 21.123594 
" style="fill:none;stroke:#000000;stroke-linecap:round;stroke-width:1.5;"/>
    </g>
    <g id="line2d_47"/>
    <g id="text_8">
     <!-- Observed -->
     <g style="fill:#262626;" transform="translate(330.667656 24.973594)scale(0.11 -0.11)">
      <defs>
       <path d="M 309 2231 
Q 309 3372 921 4017 
Q 1534 4663 2503 4663 
Q 3138 4663 3647 4359 
Q 4156 4056 4423 3514 
Q 4691 2972 4691 2284 
Q 4691 1588 4409 1038 
Q 4128 488 3612 205 
Q 3097 -78 2500 -78 
Q 1853 -78 1343 234 
Q 834 547 571 1087 
Q 309 1628 309 2231 
z
M 934 2222 
Q 934 1394 1379 917 
Q 1825 441 2497 441 
Q 3181 441 3623 922 
Q 4066 1403 4066 2288 
Q 4066 2847 3877 3264 
Q 3688 3681 3323 3911 
Q 2959 4141 2506 4141 
Q 1863 4141 1398 3698 
Q 934 3256 934 2222 
z
" id="ArialMT-4f" transform="scale(0.015625)"/>
       <path d="M 941 0 
L 419 0 
L 419 4581 
L 981 4581 
L 981 2947 
Q 1338 3394 1891 3394 
Q 2197 3394 2470 3270 
Q 2744 3147 2920 2923 
Q 3097 2700 3197 2384 
Q 3297 2069 3297 1709 
Q 3297 856 2875 390 
Q 2453 -75 1863 -75 
Q 1275 -75 941 416 
L 941 0 
z
M 934 1684 
Q 934 1088 1097 822 
Q 1363 388 1816 388 
Q 2184 388 2453 708 
Q 2722 1028 2722 1663 
Q 2722 2313 2464 2622 
Q 2206 2931 1841 2931 
Q 1472 2931 1203 2611 
Q 934 2291 934 1684 
z
" id="ArialMT-62" transform="scale(0.015625)"/>
       <path d="M 197 991 
L 753 1078 
Q 800 744 1014 566 
Q 1228 388 1613 388 
Q 2000 388 2187 545 
Q 2375 703 2375 916 
Q 2375 1106 2209 1216 
Q 2094 1291 1634 1406 
Q 1016 1563 777 1677 
Q 538 1791 414 1992 
Q 291 2194 291 2438 
Q 291 2659 392 2848 
Q 494 3038 669 3163 
Q 800 3259 1026 3326 
Q 1253 3394 1513 3394 
Q 1903 3394 2198 3281 
Q 2494 3169 2634 2976 
Q 2775 2784 2828 2463 
L 2278 2388 
Q 2241 2644 2061 2787 
Q 1881 2931 1553 2931 
Q 1166 2931 1000 2803 
Q 834 2675 834 2503 
Q 834 2394 903 2306 
Q 972 2216 1119 2156 
Q 1203 2125 1616 2013 
Q 2213 1853 2448 1751 
Q 2684 1650 2818 1456 
Q 2953 1263 2953 975 
Q 2953 694 2789 445 
Q 2625 197 2315 61 
Q 2006 -75 1616 -75 
Q 969 -75 630 194 
Q 291 463 197 991 
z
" id="ArialMT-73" transform="scale(0.015625)"/>
       <path d="M 2694 1069 
L 3275 997 
Q 3138 488 2766 206 
Q 2394 -75 1816 -75 
Q 1088 -75 661 373 
Q 234 822 234 1631 
Q 234 2469 665 2931 
Q 1097 3394 1784 3394 
Q 2450 3394 2872 2941 
Q 3294 2488 3294 1666 
Q 3294 1616 3291 1516 
L 816 1516 
Q 847 969 1125 678 
Q 1403 388 1819 388 
Q 2128 388 2347 550 
Q 2566 713 2694 1069 
z
M 847 1978 
L 2700 1978 
Q 2663 2397 2488 2606 
Q 2219 2931 1791 2931 
Q 1403 2931 1139 2672 
Q 875 2413 847 1978 
z
" id="ArialMT-65" transform="scale(0.015625)"/>
       <path d="M 416 0 
L 416 3319 
L 922 3319 
L 922 2816 
Q 1116 3169 1280 3281 
Q 1444 3394 1641 3394 
Q 1925 3394 2219 3213 
L 2025 2691 
Q 1819 2813 1613 2813 
Q 1428 2813 1281 2702 
Q 1134 2591 1072 2394 
Q 978 2094 978 1738 
L 978 0 
L 416 0 
z
" id="ArialMT-72" transform="scale(0.015625)"/>
       <path d="M 1344 0 
L 81 3319 
L 675 3319 
L 1388 1331 
Q 1503 1009 1600 663 
Q 1675 925 1809 1294 
L 2547 3319 
L 3125 3319 
L 1869 0 
L 1344 0 
z
" id="ArialMT-76" transform="scale(0.015625)"/>
       <path d="M 2575 0 
L 2575 419 
Q 2259 -75 1647 -75 
Q 1250 -75 917 144 
Q 584 363 401 755 
Q 219 1147 219 1656 
Q 219 2153 384 2558 
Q 550 2963 881 3178 
Q 1213 3394 1622 3394 
Q 1922 3394 2156 3267 
Q 2391 3141 2538 2938 
L 2538 4581 
L 3097 4581 
L 3097 0 
L 2575 0 
z
M 797 1656 
Q 797 1019 1065 703 
Q 1334 388 1700 388 
Q 2069 388 2326 689 
Q 2584 991 2584 1609 
Q 2584 2291 2321 2609 
Q 2059 2928 1675 2928 
Q 1300 2928 1048 2622 
Q 797 2316 797 1656 
z
" id="ArialMT-64" transform="scale(0.015625)"/>
      </defs>
      <use xlink:href="#ArialMT-4f"/>
      <use x="77.783203" xlink:href="#ArialMT-62"/>
      <use x="133.398438" xlink:href="#ArialMT-73"/>
      <use x="183.398438" xlink:href="#ArialMT-65"/>
      <use x="239.013672" xlink:href="#ArialMT-72"/>
      <use x="272.314453" xlink:href="#ArialMT-76"/>
      <use x="322.314453" xlink:href="#ArialMT-65"/>
      <use x="377.929688" xlink:href="#ArialMT-64"/>
     </g>
    </g>
    <g id="line2d_48">
     <path d="M 299.867656 36.683437 
L 321.867656 36.683437 
" style="fill:none;stroke:#0173b2;stroke-linecap:round;stroke-width:1.5;"/>
    </g>
    <g id="line2d_49"/>
    <g id="text_9">
     <!-- Fit -->
     <g style="fill:#262626;" transform="translate(330.667656 40.533437)scale(0.11 -0.11)">
      <defs>
       <path d="M 525 0 
L 525 4581 
L 3616 4581 
L 3616 4041 
L 1131 4041 
L 1131 2622 
L 3281 2622 
L 3281 2081 
L 1131 2081 
L 1131 0 
L 525 0 
z
" id="ArialMT-46" transform="scale(0.015625)"/>
       <path d="M 425 3934 
L 425 4581 
L 988 4581 
L 988 3934 
L 425 3934 
z
M 425 0 
L 425 3319 
L 988 3319 
L 988 0 
L 425 0 
z
" id="ArialMT-69" transform="scale(0.015625)"/>
       <path d="M 1650 503 
L 1731 6 
Q 1494 -44 1306 -44 
Q 1000 -44 831 53 
Q 663 150 594 308 
Q 525 466 525 972 
L 525 2881 
L 113 2881 
L 113 3319 
L 525 3319 
L 525 4141 
L 1084 4478 
L 1084 3319 
L 1650 3319 
L 1650 2881 
L 1084 2881 
L 1084 941 
Q 1084 700 1114 631 
Q 1144 563 1211 522 
Q 1278 481 1403 481 
Q 1497 481 1650 503 
z
" id="ArialMT-74" transform="scale(0.015625)"/>
      </defs>
      <use xlink:href="#ArialMT-46"/>
      <use x="61.083984" xlink:href="#ArialMT-69"/>
      <use x="83.300781" xlink:href="#ArialMT-74"/>
     </g>
    </g>
   </g>
  </g>
 </g>
 <defs>
  <clipPath id="p6abe04fe21">
   <rect height="217.44" width="334.8" x="53.454375" y="7.2"/>
  </clipPath>
 </defs>
</svg>
