<?xml version="1.0" encoding="utf-8" standalone="no"?>
<!DOCTYPE svg PUBLIC "-//W3C//DTD SVG 1.1//EN"
  "http://www.w3.org/Graphics/SVG/1.1/DTD/svg11.dtd">
<svg height="269.844375pt" version="1.1" viewBox="0 0 395.454375 269.844375" width="395.454375pt" xmlns="http://www.w3.org/2000/svg" xmlns:xlink="http://www.w3.org/1999/xlink">
 <metadata>
  <rdf:RDF xmlns:cc="http://creativecommons.org/ns#" xmlns:dc="http://purl.org/dc/elements/1.1/" xmlns:rdf="http://www.w3.org/1999/02/22-rdf-syntax-ns#">
   <cc:Work>
    <dc:type rdf:resource="http://purl.org/dc/dcmitype/StillImage"/>
    <dc:date>2021-11-30T12:32:49.079284</dc:date>
    <dc:format>image/svg+xml</dc:format>
    <dc:creator>
     <cc:Agent>
      <dc:title>Matplotlib v3.4.3, https://matplotlib.org/</dc:title>
     </cc:Agent>
    </dc:creator>
   </cc:Work>
  </rdf:RDF>
 </metadata>
 <defs>
  <style type="text/css">*{stroke-linecap:butt;stroke-linejoin:round;}</style>
 </defs>
 <g id="figure_1">
  <g id="patch_1">
   <path d="M 0 269.844375 
L 395.454375 269.844375 
L 395.454375 0 
L 0 0 
z
" style="fill:#ffffff;"/>
  </g>
  <g id="axes_1">
   <g id="patch_2">
    <path d="M 53.454375 224.64 
L 388.254375 224.64 
L 388.254375 7.2 
L 53.454375 7.2 
z
" style="fill:#ffffff;"/>
   </g>
   <g id="matplotlib.axis_1">
    <g id="xtick_1">
     <g id="line2d_1">
      <defs>
       <path d="M 0 0 
L 0 6 
" id="m490c90b2fd" style="stroke:#262626;stroke-width:1.25;"/>
      </defs>
      <g>
       <use style="fill:#262626;stroke:#262626;stroke-width:1.25;" x="221.275166" xlink:href="#m490c90b2fd" y="224.64"/>
      </g>
     </g>
     <g id="text_1">
      <!-- $\mathdefault{10^{2}}$ -->
      <g style="fill:#262626;" transform="translate(212.640166 245.48375)scale(0.11 -0.11)">
       <defs>
        <path d="M 2384 0 
L 1822 0 
L 1822 3584 
Q 1619 3391 1289 3197 
Q 959 3003 697 2906 
L 697 3450 
Q 1169 3672 1522 3987 
Q 1875 4303 2022 4600 
L 2384 4600 
L 2384 0 
z
" id="ArialMT-31" transform="scale(0.015625)"/>
        <path d="M 266 2259 
Q 266 3072 433 3567 
Q 600 4063 929 4331 
Q 1259 4600 1759 4600 
Q 2128 4600 2406 4451 
Q 2684 4303 2865 4023 
Q 3047 3744 3150 3342 
Q 3253 2941 3253 2259 
Q 3253 1453 3087 958 
Q 2922 463 2592 192 
Q 2263 -78 1759 -78 
Q 1097 -78 719 397 
Q 266 969 266 2259 
z
M 844 2259 
Q 844 1131 1108 757 
Q 1372 384 1759 384 
Q 2147 384 2411 759 
Q 2675 1134 2675 2259 
Q 2675 3391 2411 3762 
Q 2147 4134 1753 4134 
Q 1366 4134 1134 3806 
Q 844 3388 844 2259 
z
" id="ArialMT-30" transform="scale(0.015625)"/>
        <path d="M 3222 541 
L 3222 0 
L 194 0 
Q 188 203 259 391 
Q 375 700 629 1000 
Q 884 1300 1366 1694 
Q 2113 2306 2375 2664 
Q 2638 3022 2638 3341 
Q 2638 3675 2398 3904 
Q 2159 4134 1775 4134 
Q 1369 4134 1125 3890 
Q 881 3647 878 3216 
L 300 3275 
Q 359 3922 746 4261 
Q 1134 4600 1788 4600 
Q 2447 4600 2831 4234 
Q 3216 3869 3216 3328 
Q 3216 3053 3103 2787 
Q 2991 2522 2730 2228 
Q 2469 1934 1863 1422 
Q 1356 997 1212 845 
Q 1069 694 975 541 
L 3222 541 
z
" id="ArialMT-32" transform="scale(0.015625)"/>
       </defs>
       <use transform="translate(0 0.99375)" xlink:href="#ArialMT-31"/>
       <use transform="translate(55.615234 0.99375)" xlink:href="#ArialMT-30"/>
       <use transform="translate(112.972813 70.6875)scale(0.7)" xlink:href="#ArialMT-32"/>
      </g>
     </g>
    </g>
    <g id="xtick_2">
     <g id="line2d_2">
      <defs>
       <path d="M 0 0 
L 0 4 
" id="m4a2f9e8f1c" style="stroke:#262626;"/>
      </defs>
      <g>
       <use style="fill:#262626;stroke:#262626;" x="68.672557" xlink:href="#m4a2f9e8f1c" y="224.64"/>
      </g>
     </g>
    </g>
    <g id="xtick_3">
     <g id="line2d_3">
      <g>
       <use style="fill:#262626;stroke:#262626;" x="107.117677" xlink:href="#m4a2f9e8f1c" y="224.64"/>
      </g>
     </g>
    </g>
    <g id="xtick_4">
     <g id="line2d_4">
      <g>
       <use style="fill:#262626;stroke:#262626;" x="134.394923" xlink:href="#m4a2f9e8f1c" y="224.64"/>
      </g>
     </g>
    </g>
    <g id="xtick_5">
     <g id="line2d_5">
      <g>
       <use style="fill:#262626;stroke:#262626;" x="155.5528" xlink:href="#m4a2f9e8f1c" y="224.64"/>
      </g>
     </g>
    </g>
    <g id="xtick_6">
     <g id="line2d_6">
      <g>
       <use style="fill:#262626;stroke:#262626;" x="172.840043" xlink:href="#m4a2f9e8f1c" y="224.64"/>
      </g>
     </g>
    </g>
    <g id="xtick_7">
     <g id="line2d_7">
      <g>
       <use style="fill:#262626;stroke:#262626;" x="187.456199" xlink:href="#m4a2f9e8f1c" y="224.64"/>
      </g>
     </g>
    </g>
    <g id="xtick_8">
     <g id="line2d_8">
      <g>
       <use style="fill:#262626;stroke:#262626;" x="200.11729" xlink:href="#m4a2f9e8f1c" y="224.64"/>
      </g>
     </g>
    </g>
    <g id="xtick_9">
     <g id="line2d_9">
      <g>
       <use style="fill:#262626;stroke:#262626;" x="211.285163" xlink:href="#m4a2f9e8f1c" y="224.64"/>
      </g>
     </g>
    </g>
    <g id="xtick_10">
     <g id="line2d_10">
      <g>
       <use style="fill:#262626;stroke:#262626;" x="286.997533" xlink:href="#m4a2f9e8f1c" y="224.64"/>
      </g>
     </g>
    </g>
    <g id="xtick_11">
     <g id="line2d_11">
      <g>
       <use style="fill:#262626;stroke:#262626;" x="325.442652" xlink:href="#m4a2f9e8f1c" y="224.64"/>
      </g>
     </g>
    </g>
    <g id="xtick_12">
     <g id="line2d_12">
      <g>
       <use style="fill:#262626;stroke:#262626;" x="352.719899" xlink:href="#m4a2f9e8f1c" y="224.64"/>
      </g>
     </g>
    </g>
    <g id="xtick_13">
     <g id="line2d_13">
      <g>
       <use style="fill:#262626;stroke:#262626;" x="373.877775" xlink:href="#m4a2f9e8f1c" y="224.64"/>
      </g>
     </g>
    </g>
    <g id="text_2">
     <!-- $m / M_\odot$ -->
     <g style="fill:#262626;" transform="translate(202.434375 260.259375)scale(0.12 -0.12)">
      <defs>
       <path d="M 5747 2113 
L 5338 0 
L 4763 0 
L 5166 2094 
Q 5191 2228 5203 2325 
Q 5216 2422 5216 2491 
Q 5216 2772 5059 2928 
Q 4903 3084 4622 3084 
Q 4203 3084 3875 2770 
Q 3547 2456 3450 1953 
L 3066 0 
L 2491 0 
L 2900 2094 
Q 2925 2209 2937 2307 
Q 2950 2406 2950 2484 
Q 2950 2769 2794 2926 
Q 2638 3084 2363 3084 
Q 1938 3084 1609 2770 
Q 1281 2456 1184 1953 
L 800 0 
L 225 0 
L 909 3500 
L 1484 3500 
L 1375 2956 
Q 1609 3263 1923 3423 
Q 2238 3584 2597 3584 
Q 2978 3584 3223 3384 
Q 3469 3184 3519 2828 
Q 3781 3197 4126 3390 
Q 4472 3584 4856 3584 
Q 5306 3584 5551 3325 
Q 5797 3066 5797 2591 
Q 5797 2488 5784 2364 
Q 5772 2241 5747 2113 
z
" id="DejaVuSans-Oblique-6d" transform="scale(0.015625)"/>
       <path d="M 1625 4666 
L 2156 4666 
L 531 -594 
L 0 -594 
L 1625 4666 
z
" id="DejaVuSans-2f" transform="scale(0.015625)"/>
       <path d="M 1081 4666 
L 2028 4666 
L 2572 1522 
L 4378 4666 
L 5350 4666 
L 4441 0 
L 3828 0 
L 4622 4091 
L 2791 897 
L 2175 897 
L 1581 4103 
L 788 0 
L 172 0 
L 1081 4666 
z
" id="DejaVuSans-Oblique-4d" transform="scale(0.015625)"/>
       <path d="M 2350 2403 
L 3013 2403 
L 3013 1609 
L 2350 1609 
L 2350 2403 
z
M 3306 3522 
Q 3016 3644 2681 3644 
Q 2347 3644 2056 3522 
Q 1769 3400 1531 3163 
Q 1291 2922 1172 2634 
Q 1053 2347 1053 2006 
Q 1053 1675 1172 1387 
Q 1291 1100 1531 859 
Q 1769 622 2056 500 
Q 2347 378 2681 378 
Q 3016 378 3306 500 
Q 3594 622 3831 859 
Q 4072 1100 4190 1387 
Q 4309 1675 4309 2006 
Q 4309 2347 4190 2634 
Q 4072 2922 3831 3163 
Q 3594 3400 3306 3522 
z
M 1878 3956 
Q 2250 4113 2681 4113 
Q 3113 4113 3484 3956 
Q 3856 3800 4163 3494 
Q 4472 3184 4625 2813 
Q 4778 2444 4778 2006 
Q 4778 1578 4625 1206 
Q 4472 838 4163 528 
Q 3856 222 3484 65 
Q 3113 -91 2681 -91 
Q 2250 -91 1878 65 
Q 1506 222 1200 528 
Q 891 838 738 1206 
Q 584 1578 584 2006 
Q 584 2444 738 2813 
Q 891 3184 1200 3494 
Q 1506 3800 1878 3956 
z
" id="DejaVuSans-2299" transform="scale(0.015625)"/>
      </defs>
      <use transform="translate(0 0.09375)" xlink:href="#DejaVuSans-Oblique-6d"/>
      <use transform="translate(97.412109 0.09375)" xlink:href="#DejaVuSans-2f"/>
      <use transform="translate(131.103516 0.09375)" xlink:href="#DejaVuSans-Oblique-4d"/>
      <use transform="translate(231.020508 -16.3125)scale(0.7)" xlink:href="#DejaVuSans-2299"/>
     </g>
    </g>
   </g>
   <g id="matplotlib.axis_2">
    <g id="ytick_1">
     <g id="line2d_14">
      <defs>
       <path d="M 0 0 
L -6 0 
" id="m7114ead767" style="stroke:#262626;stroke-width:1.25;"/>
      </defs>
      <g>
       <use style="fill:#262626;stroke:#262626;stroke-width:1.25;" x="53.454375" xlink:href="#m7114ead767" y="224.64"/>
      </g>
     </g>
     <g id="text_3">
      <!-- $\mathdefault{10^{-1}}$ -->
      <g style="fill:#262626;" transform="translate(22.174375 230.311875)scale(0.11 -0.11)">
       <defs>
        <path d="M 3381 1997 
L 356 1997 
L 356 2522 
L 3381 2522 
L 3381 1997 
z
" id="ArialMT-2212" transform="scale(0.015625)"/>
       </defs>
       <use transform="translate(0 0.99375)" xlink:href="#ArialMT-31"/>
       <use transform="translate(55.615234 0.99375)" xlink:href="#ArialMT-30"/>
       <use transform="translate(112.972813 70.6875)scale(0.7)" xlink:href="#ArialMT-2212"/>
       <use transform="translate(153.851719 70.6875)scale(0.7)" xlink:href="#ArialMT-31"/>
      </g>
     </g>
    </g>
    <g id="ytick_2">
     <g id="line2d_15">
      <g>
       <use style="fill:#262626;stroke:#262626;stroke-width:1.25;" x="53.454375" xlink:href="#m7114ead767" y="163.296377"/>
      </g>
     </g>
     <g id="text_4">
      <!-- $\mathdefault{10^{0}}$ -->
      <g style="fill:#262626;" transform="translate(26.684375 168.968252)scale(0.11 -0.11)">
       <use transform="translate(0 0.99375)" xlink:href="#ArialMT-31"/>
       <use transform="translate(55.615234 0.99375)" xlink:href="#ArialMT-30"/>
       <use transform="translate(112.972813 70.6875)scale(0.7)" xlink:href="#ArialMT-30"/>
      </g>
     </g>
    </g>
    <g id="ytick_3">
     <g id="line2d_16">
      <g>
       <use style="fill:#262626;stroke:#262626;stroke-width:1.25;" x="53.454375" xlink:href="#m7114ead767" y="101.952755"/>
      </g>
     </g>
     <g id="text_5">
      <!-- $\mathdefault{10^{1}}$ -->
      <g style="fill:#262626;" transform="translate(26.684375 107.62463)scale(0.11 -0.11)">
       <use transform="translate(0 0.99375)" xlink:href="#ArialMT-31"/>
       <use transform="translate(55.615234 0.99375)" xlink:href="#ArialMT-30"/>
       <use transform="translate(112.972813 70.6875)scale(0.7)" xlink:href="#ArialMT-31"/>
      </g>
     </g>
    </g>
    <g id="ytick_4">
     <g id="line2d_17">
      <g>
       <use style="fill:#262626;stroke:#262626;stroke-width:1.25;" x="53.454375" xlink:href="#m7114ead767" y="40.609132"/>
      </g>
     </g>
     <g id="text_6">
      <!-- $\mathdefault{10^{2}}$ -->
      <g style="fill:#262626;" transform="translate(26.684375 46.281007)scale(0.11 -0.11)">
       <use transform="translate(0 0.99375)" xlink:href="#ArialMT-31"/>
       <use transform="translate(55.615234 0.99375)" xlink:href="#ArialMT-30"/>
       <use transform="translate(112.972813 70.6875)scale(0.7)" xlink:href="#ArialMT-32"/>
      </g>
     </g>
    </g>
    <g id="ytick_5">
     <g id="line2d_18">
      <defs>
       <path d="M 0 0 
L -4 0 
" id="m062b1db76a" style="stroke:#262626;"/>
      </defs>
      <g>
       <use style="fill:#262626;stroke:#262626;" x="53.454375" xlink:href="#m062b1db76a" y="206.17373"/>
      </g>
     </g>
    </g>
    <g id="ytick_6">
     <g id="line2d_19">
      <g>
       <use style="fill:#262626;stroke:#262626;" x="53.454375" xlink:href="#m062b1db76a" y="195.371654"/>
      </g>
     </g>
    </g>
    <g id="ytick_7">
     <g id="line2d_20">
      <g>
       <use style="fill:#262626;stroke:#262626;" x="53.454375" xlink:href="#m062b1db76a" y="187.707459"/>
      </g>
     </g>
    </g>
    <g id="ytick_8">
     <g id="line2d_21">
      <g>
       <use style="fill:#262626;stroke:#262626;" x="53.454375" xlink:href="#m062b1db76a" y="181.762648"/>
      </g>
     </g>
    </g>
    <g id="ytick_9">
     <g id="line2d_22">
      <g>
       <use style="fill:#262626;stroke:#262626;" x="53.454375" xlink:href="#m062b1db76a" y="176.905383"/>
      </g>
     </g>
    </g>
    <g id="ytick_10">
     <g id="line2d_23">
      <g>
       <use style="fill:#262626;stroke:#262626;" x="53.454375" xlink:href="#m062b1db76a" y="172.798625"/>
      </g>
     </g>
    </g>
    <g id="ytick_11">
     <g id="line2d_24">
      <g>
       <use style="fill:#262626;stroke:#262626;" x="53.454375" xlink:href="#m062b1db76a" y="169.241189"/>
      </g>
     </g>
    </g>
    <g id="ytick_12">
     <g id="line2d_25">
      <g>
       <use style="fill:#262626;stroke:#262626;" x="53.454375" xlink:href="#m062b1db76a" y="166.103308"/>
      </g>
     </g>
    </g>
    <g id="ytick_13">
     <g id="line2d_26">
      <g>
       <use style="fill:#262626;stroke:#262626;" x="53.454375" xlink:href="#m062b1db76a" y="144.830107"/>
      </g>
     </g>
    </g>
    <g id="ytick_14">
     <g id="line2d_27">
      <g>
       <use style="fill:#262626;stroke:#262626;" x="53.454375" xlink:href="#m062b1db76a" y="134.028031"/>
      </g>
     </g>
    </g>
    <g id="ytick_15">
     <g id="line2d_28">
      <g>
       <use style="fill:#262626;stroke:#262626;" x="53.454375" xlink:href="#m062b1db76a" y="126.363836"/>
      </g>
     </g>
    </g>
    <g id="ytick_16">
     <g id="line2d_29">
      <g>
       <use style="fill:#262626;stroke:#262626;" x="53.454375" xlink:href="#m062b1db76a" y="120.419025"/>
      </g>
     </g>
    </g>
    <g id="ytick_17">
     <g id="line2d_30">
      <g>
       <use style="fill:#262626;stroke:#262626;" x="53.454375" xlink:href="#m062b1db76a" y="115.561761"/>
      </g>
     </g>
    </g>
    <g id="ytick_18">
     <g id="line2d_31">
      <g>
       <use style="fill:#262626;stroke:#262626;" x="53.454375" xlink:href="#m062b1db76a" y="111.455002"/>
      </g>
     </g>
    </g>
    <g id="ytick_19">
     <g id="line2d_32">
      <g>
       <use style="fill:#262626;stroke:#262626;" x="53.454375" xlink:href="#m062b1db76a" y="107.897566"/>
      </g>
     </g>
    </g>
    <g id="ytick_20">
     <g id="line2d_33">
      <g>
       <use style="fill:#262626;stroke:#262626;" x="53.454375" xlink:href="#m062b1db76a" y="104.759685"/>
      </g>
     </g>
    </g>
    <g id="ytick_21">
     <g id="line2d_34">
      <g>
       <use style="fill:#262626;stroke:#262626;" x="53.454375" xlink:href="#m062b1db76a" y="83.486484"/>
      </g>
     </g>
    </g>
    <g id="ytick_22">
     <g id="line2d_35">
      <g>
       <use style="fill:#262626;stroke:#262626;" x="53.454375" xlink:href="#m062b1db76a" y="72.684408"/>
      </g>
     </g>
    </g>
    <g id="ytick_23">
     <g id="line2d_36">
      <g>
       <use style="fill:#262626;stroke:#262626;" x="53.454375" xlink:href="#m062b1db76a" y="65.020214"/>
      </g>
     </g>
    </g>
    <g id="ytick_24">
     <g id="line2d_37">
      <g>
       <use style="fill:#262626;stroke:#262626;" x="53.454375" xlink:href="#m062b1db76a" y="59.075402"/>
      </g>
     </g>
    </g>
    <g id="ytick_25">
     <g id="line2d_38">
      <g>
       <use style="fill:#262626;stroke:#262626;" x="53.454375" xlink:href="#m062b1db76a" y="54.218138"/>
      </g>
     </g>
    </g>
    <g id="ytick_26">
     <g id="line2d_39">
      <g>
       <use style="fill:#262626;stroke:#262626;" x="53.454375" xlink:href="#m062b1db76a" y="50.111379"/>
      </g>
     </g>
    </g>
    <g id="ytick_27">
     <g id="line2d_40">
      <g>
       <use style="fill:#262626;stroke:#262626;" x="53.454375" xlink:href="#m062b1db76a" y="46.553943"/>
      </g>
     </g>
    </g>
    <g id="ytick_28">
     <g id="line2d_41">
      <g>
       <use style="fill:#262626;stroke:#262626;" x="53.454375" xlink:href="#m062b1db76a" y="43.416062"/>
      </g>
     </g>
    </g>
    <g id="ytick_29">
     <g id="line2d_42">
      <g>
       <use style="fill:#262626;stroke:#262626;" x="53.454375" xlink:href="#m062b1db76a" y="22.142861"/>
      </g>
     </g>
    </g>
    <g id="ytick_30">
     <g id="line2d_43">
      <g>
       <use style="fill:#262626;stroke:#262626;" x="53.454375" xlink:href="#m062b1db76a" y="11.340786"/>
      </g>
     </g>
    </g>
    <g id="text_7">
     <!-- $m \mathrm{d} N / \mathrm{d} m$ -->
     <g style="fill:#262626;" transform="translate(15.789375 141.78)rotate(-90)scale(0.12 -0.12)">
      <defs>
       <path d="M 2906 2969 
L 2906 4863 
L 3481 4863 
L 3481 0 
L 2906 0 
L 2906 525 
Q 2725 213 2448 61 
Q 2172 -91 1784 -91 
Q 1150 -91 751 415 
Q 353 922 353 1747 
Q 353 2572 751 3078 
Q 1150 3584 1784 3584 
Q 2172 3584 2448 3432 
Q 2725 3281 2906 2969 
z
M 947 1747 
Q 947 1113 1208 752 
Q 1469 391 1925 391 
Q 2381 391 2643 752 
Q 2906 1113 2906 1747 
Q 2906 2381 2643 2742 
Q 2381 3103 1925 3103 
Q 1469 3103 1208 2742 
Q 947 2381 947 1747 
z
" id="DejaVuSans-64" transform="scale(0.015625)"/>
       <path d="M 1081 4666 
L 1931 4666 
L 3219 666 
L 4000 4666 
L 4616 4666 
L 3706 0 
L 2853 0 
L 1569 4025 
L 788 0 
L 172 0 
L 1081 4666 
z
" id="DejaVuSans-Oblique-4e" transform="scale(0.015625)"/>
      </defs>
      <use transform="translate(0 0.015625)" xlink:href="#DejaVuSans-Oblique-6d"/>
      <use transform="translate(97.412109 0.015625)" xlink:href="#DejaVuSans-64"/>
      <use transform="translate(160.888672 0.015625)" xlink:href="#DejaVuSans-Oblique-4e"/>
      <use transform="translate(235.693359 0.015625)" xlink:href="#DejaVuSans-2f"/>
      <use transform="translate(269.384766 0.015625)" xlink:href="#DejaVuSans-64"/>
      <use transform="translate(332.861328 0.015625)" xlink:href="#DejaVuSans-Oblique-6d"/>
     </g>
    </g>
   </g>
   <g id="PolyCollection_1">
    <defs>
     <path d="M 68.672557 -252.087414 
L 68.672557 -258.470613 
L 69.62073 -257.923875 
L 70.568903 -257.386524 
L 71.517077 -256.852029 
L 72.46525 -256.307129 
L 73.413423 -255.757277 
L 74.361597 -255.216984 
L 75.30977 -254.657528 
L 76.257943 -254.105963 
L 77.206117 -253.566804 
L 78.15429 -253.040582 
L 79.102463 -252.521884 
L 80.050637 -251.986359 
L 80.99881 -251.448903 
L 81.946983 -250.911372 
L 82.895157 -250.362437 
L 83.84333 -249.807343 
L 84.791503 -249.226508 
L 85.739677 -248.689928 
L 86.68785 -248.155041 
L 87.636023 -247.625071 
L 88.584197 -247.050005 
L 89.53237 -246.481541 
L 90.480543 -245.968752 
L 91.428717 -245.410594 
L 92.37689 -244.887566 
L 93.325063 -244.35126 
L 94.273237 -243.827656 
L 95.22141 -243.312135 
L 96.169583 -242.762429 
L 97.117756 -242.23698 
L 98.06593 -241.72315 
L 99.014103 -241.218449 
L 99.962276 -240.69391 
L 100.91045 -240.160893 
L 101.858623 -239.60665 
L 102.806796 -239.071696 
L 103.75497 -238.550616 
L 104.703143 -237.997227 
L 105.651316 -237.442245 
L 106.59949 -236.894107 
L 107.547663 -236.387894 
L 108.495836 -235.851527 
L 109.44401 -235.313367 
L 110.392183 -234.785126 
L 111.340356 -234.270081 
L 112.28853 -233.742704 
L 113.236703 -233.216474 
L 114.184876 -232.689795 
L 115.13305 -232.177956 
L 116.081223 -231.653001 
L 117.029396 -231.141905 
L 117.97757 -230.633721 
L 118.925743 -230.098713 
L 119.873916 -229.578925 
L 120.82209 -229.067321 
L 121.770263 -228.540871 
L 122.718436 -228.048179 
L 123.666609 -227.535524 
L 124.614783 -227.02585 
L 125.562956 -226.514761 
L 126.511129 -225.99707 
L 127.459303 -225.492099 
L 128.407476 -224.994551 
L 129.355649 -224.501687 
L 130.303823 -223.9909 
L 131.251996 -223.48894 
L 132.200169 -222.969177 
L 133.148343 -222.45313 
L 134.096516 -221.956668 
L 135.044689 -221.447158 
L 135.992863 -220.928621 
L 136.941036 -220.432402 
L 137.889209 -219.949004 
L 138.837383 -219.427772 
L 139.785556 -218.94221 
L 140.733729 -218.434581 
L 141.681903 -217.948173 
L 142.630076 -217.472685 
L 143.578249 -216.987568 
L 144.526423 -216.505558 
L 145.474596 -216.040207 
L 146.422769 -215.557095 
L 147.370943 -215.085856 
L 148.319116 -214.583407 
L 149.267289 -214.11287 
L 150.215463 -213.613279 
L 151.163636 -213.129935 
L 152.111809 -212.622575 
L 153.059982 -212.128559 
L 154.008156 -211.662131 
L 154.956329 -211.165388 
L 155.904502 -210.701168 
L 156.852676 -210.228403 
L 157.800849 -209.737798 
L 158.749022 -209.235224 
L 159.697196 -208.738595 
L 160.645369 -208.237465 
L 161.593542 -207.752223 
L 162.541716 -207.255575 
L 163.489889 -206.768134 
L 164.438062 -206.284687 
L 165.386236 -205.792286 
L 166.334409 -205.300048 
L 167.282582 -204.830528 
L 168.230756 -204.328064 
L 169.178929 -203.838643 
L 170.127102 -203.374877 
L 171.075276 -202.88641 
L 172.023449 -202.411049 
L 172.971622 -201.921624 
L 173.919796 -201.419247 
L 174.867969 -200.915927 
L 175.816142 -200.422879 
L 176.764316 -199.930754 
L 177.712489 -199.427322 
L 178.660662 -198.963994 
L 179.608835 -198.502692 
L 180.557009 -198.032982 
L 181.505182 -197.553677 
L 182.453355 -197.06449 
L 183.401529 -196.578696 
L 184.349702 -196.104789 
L 185.297875 -195.624593 
L 186.246049 -195.141868 
L 187.194222 -194.649201 
L 188.142395 -194.185081 
L 189.090569 -193.688143 
L 190.038742 -193.212124 
L 190.986915 -192.733188 
L 191.935089 -192.244158 
L 192.883262 -191.758464 
L 193.831435 -191.272102 
L 194.779609 -190.80305 
L 195.727782 -190.34074 
L 196.675955 -189.855509 
L 197.624129 -189.405881 
L 198.572302 -188.930803 
L 199.520475 -188.435873 
L 200.468649 -187.963666 
L 201.416822 -187.488706 
L 202.364995 -187.005149 
L 203.313169 -186.526154 
L 204.261342 -186.042537 
L 205.209515 -185.575319 
L 206.157689 -185.098658 
L 207.105862 -184.62127 
L 208.054035 -184.150162 
L 209.002208 -183.689323 
L 209.950382 -183.234005 
L 210.898555 -182.754375 
L 211.846728 -182.268593 
L 212.794902 -181.784374 
L 213.743075 -181.295363 
L 214.691248 -180.818342 
L 215.639422 -180.343814 
L 216.587595 -179.872234 
L 217.535768 -179.40889 
L 218.483942 -178.939009 
L 219.432115 -178.466958 
L 220.380288 -178.009061 
L 221.328462 -177.5289 
L 222.276635 -177.044161 
L 223.224808 -176.561181 
L 224.172982 -176.100137 
L 225.121155 -175.630118 
L 226.069328 -175.132177 
L 227.017502 -174.63643 
L 227.965675 -174.145513 
L 228.913848 -173.671482 
L 229.862022 -173.215713 
L 230.810195 -172.752857 
L 231.758368 -172.286196 
L 232.706542 -171.812014 
L 233.654715 -171.356956 
L 234.602888 -170.894061 
L 235.551061 -170.427445 
L 236.499235 -169.953954 
L 237.447408 -169.462076 
L 238.395581 -168.973699 
L 239.343755 -168.506605 
L 240.291928 -168.035524 
L 241.240101 -167.558517 
L 242.188275 -167.075819 
L 243.136448 -166.587884 
L 244.084621 -166.118459 
L 245.032795 -165.658905 
L 245.980968 -165.158586 
L 246.929141 -164.669755 
L 247.877315 -164.203169 
L 248.825488 -163.738959 
L 249.773661 -163.274752 
L 250.721835 -162.787652 
L 251.670008 -162.298892 
L 252.618181 -161.810132 
L 253.566355 -161.327294 
L 254.514528 -160.857734 
L 255.462701 -160.390089 
L 256.410875 -159.922445 
L 257.359048 -159.454317 
L 258.307221 -158.986005 
L 259.255395 -158.517692 
L 260.203568 -158.048932 
L 261.151741 -157.56345 
L 262.099915 -157.074201 
L 263.048088 -156.583857 
L 263.996261 -156.093438 
L 264.944434 -155.60302 
L 265.892608 -155.113137 
L 266.840781 -154.625669 
L 267.788954 -154.133344 
L 268.737128 -153.635808 
L 269.685301 -153.156582 
L 270.633474 -152.670374 
L 271.581648 -152.200601 
L 272.529821 -151.730828 
L 273.477994 -151.260006 
L 274.426168 -150.789454 
L 275.374341 -150.321508 
L 276.322514 -149.851735 
L 277.270688 -149.381962 
L 278.218861 -148.912189 
L 279.167034 -148.442416 
L 280.115208 -147.972643 
L 281.063381 -147.50287 
L 282.011554 -147.035673 
L 282.959728 -146.567595 
L 283.907901 -146.106526 
L 284.856074 -145.629197 
L 285.804248 -145.157136 
L 286.752421 -144.678803 
L 287.700594 -144.205805 
L 288.648768 -143.730216 
L 289.596941 -143.259924 
L 290.545114 -142.787653 
L 291.493287 -142.305744 
L 292.441461 -141.824406 
L 293.389634 -141.362772 
L 294.337807 -140.883762 
L 295.285981 -140.403506 
L 296.234154 -139.937173 
L 297.182327 -139.458882 
L 298.130501 -138.994406 
L 299.078674 -138.515824 
L 300.026847 -138.033274 
L 300.975021 -137.580535 
L 301.923194 -137.106352 
L 302.871367 -136.627335 
L 303.819541 -136.151907 
L 304.767714 -135.698858 
L 305.715887 -135.245129 
L 306.664061 -134.777133 
L 307.612234 -134.305142 
L 308.560407 -133.832156 
L 309.508581 -133.35917 
L 310.456754 -132.881057 
L 311.404927 -132.400009 
L 312.353101 -131.918944 
L 313.301274 -131.439184 
L 314.249447 -130.966133 
L 315.197621 -130.503632 
L 316.145794 -130.037902 
L 317.093967 -129.570672 
L 318.042141 -129.102826 
L 318.990314 -128.633975 
L 319.938487 -128.164191 
L 320.88666 -127.696274 
L 321.834834 -127.227423 
L 322.783007 -126.757855 
L 323.73118 -126.286847 
L 324.679354 -125.815839 
L 325.627527 -125.350385 
L 326.5757 -124.887497 
L 327.523874 -124.418985 
L 328.472047 -123.94259 
L 329.42022 -123.460799 
L 330.368394 -122.989792 
L 331.316567 -122.518784 
L 332.26474 -122.047377 
L 333.212914 -121.58091 
L 334.161087 -121.117701 
L 335.10926 -120.649459 
L 336.057434 -120.180337 
L 337.005607 -119.71533 
L 337.95378 -119.247541 
L 338.901954 -118.768577 
L 339.850127 -118.289253 
L 340.7983 -117.80993 
L 341.746474 -117.336422 
L 342.694647 -116.864544 
L 343.64282 -116.392054 
L 344.590994 -115.91484 
L 345.539167 -115.443983 
L 346.48734 -114.973127 
L 347.435513 -114.502271 
L 348.383687 -114.031415 
L 349.33186 -113.560559 
L 350.280033 -113.089106 
L 351.228207 -112.614553 
L 352.17638 -112.137043 
L 353.124553 -111.649595 
L 354.072727 -111.16215 
L 355.0209 -110.684438 
L 355.969073 -110.210124 
L 356.917247 -109.735012 
L 357.86542 -109.264706 
L 358.813593 -108.797151 
L 359.761767 -108.329597 
L 360.70994 -107.862044 
L 361.658113 -107.394612 
L 362.606287 -106.929144 
L 363.55446 -106.463788 
L 364.502633 -105.998285 
L 365.450807 -105.532783 
L 366.39898 -105.064503 
L 367.347153 -104.589689 
L 368.295327 -104.114586 
L 369.2435 -103.639483 
L 370.191673 -103.16404 
L 371.139847 -102.688117 
L 372.08802 -102.221369 
L 373.036193 -101.750338 
L 373.036193 -76.978098 
L 373.036193 -76.978098 
L 372.08802 -77.533618 
L 371.139847 -78.089906 
L 370.191673 -78.646851 
L 369.2435 -79.215162 
L 368.295327 -79.783475 
L 367.347153 -80.35179 
L 366.39898 -80.922145 
L 365.450807 -81.493601 
L 364.502633 -82.052335 
L 363.55446 -82.610518 
L 362.606287 -83.168703 
L 361.658113 -83.722815 
L 360.70994 -84.283386 
L 359.761767 -84.850598 
L 358.813593 -85.421879 
L 357.86542 -85.990193 
L 356.917247 -86.558505 
L 355.969073 -87.122138 
L 355.0209 -87.680153 
L 354.072727 -88.239966 
L 353.124553 -88.800335 
L 352.17638 -89.360705 
L 351.228207 -89.921075 
L 350.280033 -90.481445 
L 349.33186 -91.041817 
L 348.383687 -91.602188 
L 347.435513 -92.162561 
L 346.48734 -92.719864 
L 345.539167 -93.276403 
L 344.590994 -93.832943 
L 343.64282 -94.389484 
L 342.694647 -94.946025 
L 341.746474 -95.502568 
L 340.7983 -96.059111 
L 339.850127 -96.608773 
L 338.901954 -97.149534 
L 337.95378 -97.690295 
L 337.005607 -98.231056 
L 336.057434 -98.77362 
L 335.10926 -99.31714 
L 334.161087 -99.861998 
L 333.212914 -100.424533 
L 332.26474 -100.995311 
L 331.316567 -101.566091 
L 330.368394 -102.13687 
L 329.42022 -102.701071 
L 328.472047 -103.246042 
L 327.523874 -103.791015 
L 326.5757 -104.344883 
L 325.627527 -104.904071 
L 324.679354 -105.466859 
L 323.73118 -106.030164 
L 322.783007 -106.594989 
L 321.834834 -107.160646 
L 320.88666 -107.735237 
L 319.938487 -108.286607 
L 318.990314 -108.856516 
L 318.042141 -109.426653 
L 317.093967 -109.997348 
L 316.145794 -110.544283 
L 315.197621 -111.107778 
L 314.249447 -111.674071 
L 313.301274 -112.230678 
L 312.353101 -112.783607 
L 311.404927 -113.343256 
L 310.456754 -113.904028 
L 309.508581 -114.468642 
L 308.560407 -115.033776 
L 307.612234 -115.602871 
L 306.664061 -116.158162 
L 305.715887 -116.720762 
L 304.767714 -117.278663 
L 303.819541 -117.840646 
L 302.871367 -118.394308 
L 301.923194 -118.959263 
L 300.975021 -119.524218 
L 300.026847 -120.092663 
L 299.078674 -120.654748 
L 298.130501 -121.221463 
L 297.182327 -121.783377 
L 296.234154 -122.345292 
L 295.285981 -122.907206 
L 294.337807 -123.46912 
L 293.389634 -124.031035 
L 292.441461 -124.592949 
L 291.493287 -125.157079 
L 290.545114 -125.722798 
L 289.596941 -126.289843 
L 288.648768 -126.856058 
L 287.700594 -127.430109 
L 286.752421 -128.00469 
L 285.804248 -128.576394 
L 284.856074 -129.116212 
L 283.907901 -129.659872 
L 282.959728 -130.221407 
L 282.011554 -130.783405 
L 281.063381 -131.345403 
L 280.115208 -131.907401 
L 279.167034 -132.4694 
L 278.218861 -133.031398 
L 277.270688 -133.593396 
L 276.322514 -134.155395 
L 275.374341 -134.711142 
L 274.426168 -135.266011 
L 273.477994 -135.841729 
L 272.529821 -136.417044 
L 271.581648 -136.992083 
L 270.633474 -137.56503 
L 269.685301 -138.11224 
L 268.737128 -138.660917 
L 267.788954 -139.220479 
L 266.840781 -139.780078 
L 265.892608 -140.340659 
L 264.944434 -140.903397 
L 263.996261 -141.466135 
L 263.048088 -142.015323 
L 262.099915 -142.559871 
L 261.151741 -143.116171 
L 260.203568 -143.690182 
L 259.255395 -144.245907 
L 258.307221 -144.805979 
L 257.359048 -145.360462 
L 256.410875 -145.914664 
L 255.462701 -146.472581 
L 254.514528 -147.015972 
L 253.566355 -147.580497 
L 252.618181 -148.140414 
L 251.670008 -148.694776 
L 250.721835 -149.260331 
L 249.773661 -149.830004 
L 248.825488 -150.384698 
L 247.877315 -150.939392 
L 246.929141 -151.494087 
L 245.980968 -152.048781 
L 245.032795 -152.603475 
L 244.084621 -153.158806 
L 243.136448 -153.714208 
L 242.188275 -154.26961 
L 241.240101 -154.825012 
L 240.291928 -155.380414 
L 239.343755 -155.93507 
L 238.395581 -156.486335 
L 237.447408 -157.038833 
L 236.499235 -157.575141 
L 235.551061 -158.13384 
L 234.602888 -158.693039 
L 233.654715 -159.250346 
L 232.706542 -159.81963 
L 231.758368 -160.387905 
L 230.810195 -160.940586 
L 229.862022 -161.510656 
L 228.913848 -162.061087 
L 227.965675 -162.603319 
L 227.017502 -163.179399 
L 226.069328 -163.727159 
L 225.121155 -164.296024 
L 224.172982 -164.856441 
L 223.224808 -165.413022 
L 222.276635 -165.974125 
L 221.328462 -166.542431 
L 220.380288 -167.11744 
L 219.432115 -167.677305 
L 218.483942 -168.232584 
L 217.535768 -168.793602 
L 216.587595 -169.359994 
L 215.639422 -169.913028 
L 214.691248 -170.475057 
L 213.743075 -171.042917 
L 212.794902 -171.605776 
L 211.846728 -172.150394 
L 210.898555 -172.718066 
L 209.950382 -173.270513 
L 209.002208 -173.826 
L 208.054035 -174.382001 
L 207.105862 -174.926096 
L 206.157689 -175.466398 
L 205.209515 -176.014928 
L 204.261342 -176.606219 
L 203.313169 -177.17316 
L 202.364995 -177.734912 
L 201.416822 -178.303486 
L 200.468649 -178.858772 
L 199.520475 -179.405573 
L 198.572302 -179.958461 
L 197.624129 -180.515683 
L 196.675955 -181.045259 
L 195.727782 -181.59755 
L 194.779609 -182.136689 
L 193.831435 -182.679543 
L 192.883262 -183.225365 
L 191.935089 -183.772955 
L 190.986915 -184.324784 
L 190.038742 -184.877695 
L 189.090569 -185.425802 
L 188.142395 -185.976271 
L 187.194222 -186.52502 
L 186.246049 -187.078636 
L 185.297875 -187.629654 
L 184.349702 -188.179405 
L 183.401529 -188.732069 
L 182.453355 -189.293072 
L 181.505182 -189.844611 
L 180.557009 -190.385748 
L 179.608835 -190.920831 
L 178.660662 -191.454112 
L 177.712489 -191.999601 
L 176.764316 -192.551543 
L 175.816142 -193.108975 
L 174.867969 -193.651267 
L 173.919796 -194.196475 
L 172.971622 -194.755947 
L 172.023449 -195.303251 
L 171.075276 -195.877042 
L 170.127102 -196.450795 
L 169.178929 -196.998206 
L 168.230756 -197.540041 
L 167.282582 -198.079925 
L 166.334409 -198.644907 
L 165.386236 -199.198529 
L 164.438062 -199.752405 
L 163.489889 -200.295559 
L 162.541716 -200.861104 
L 161.593542 -201.427182 
L 160.645369 -201.976756 
L 159.697196 -202.527491 
L 158.749022 -203.057616 
L 157.800849 -203.600583 
L 156.852676 -204.13955 
L 155.904502 -204.676517 
L 154.956329 -205.243879 
L 154.008156 -205.778935 
L 153.059982 -206.332764 
L 152.111809 -206.897885 
L 151.163636 -207.435788 
L 150.215463 -207.998423 
L 149.267289 -208.563041 
L 148.319116 -209.111556 
L 147.370943 -209.651579 
L 146.422769 -210.206366 
L 145.474596 -210.753813 
L 144.526423 -211.313197 
L 143.578249 -211.853368 
L 142.630076 -212.386788 
L 141.681903 -212.902134 
L 140.733729 -213.442708 
L 139.785556 -213.962715 
L 138.837383 -214.484527 
L 137.889209 -215.001894 
L 136.941036 -215.540165 
L 135.992863 -216.050679 
L 135.044689 -216.61115 
L 134.096516 -217.154264 
L 133.148343 -217.681602 
L 132.200169 -218.202781 
L 131.251996 -218.736464 
L 130.303823 -219.26374 
L 129.355649 -219.785295 
L 128.407476 -220.306121 
L 127.459303 -220.832129 
L 126.511129 -221.352919 
L 125.562956 -221.865568 
L 124.614783 -222.391128 
L 123.666609 -222.922334 
L 122.718436 -223.435362 
L 121.770263 -223.950602 
L 120.82209 -224.458949 
L 119.873916 -224.976472 
L 118.925743 -225.484719 
L 117.97757 -226.001323 
L 117.029396 -226.528592 
L 116.081223 -227.043551 
L 115.13305 -227.561669 
L 114.184876 -228.080748 
L 113.236703 -228.619324 
L 112.28853 -229.146021 
L 111.340356 -229.666473 
L 110.392183 -230.173888 
L 109.44401 -230.701114 
L 108.495836 -231.214961 
L 107.547663 -231.717549 
L 106.59949 -232.215905 
L 105.651316 -232.738217 
L 104.703143 -233.245347 
L 103.75497 -233.760235 
L 102.806796 -234.28092 
L 101.858623 -234.75095 
L 100.91045 -235.266033 
L 99.962276 -235.778093 
L 99.014103 -236.298761 
L 98.06593 -236.779417 
L 97.117756 -237.293849 
L 96.169583 -237.793672 
L 95.22141 -238.310065 
L 94.273237 -238.812114 
L 93.325063 -239.31725 
L 92.37689 -239.831337 
L 91.428717 -240.330204 
L 90.480543 -240.824245 
L 89.53237 -241.330382 
L 88.584197 -241.80114 
L 87.636023 -242.298631 
L 86.68785 -242.790238 
L 85.739677 -243.290613 
L 84.791503 -243.792383 
L 83.84333 -244.277604 
L 82.895157 -244.762033 
L 81.946983 -245.255408 
L 80.99881 -245.725175 
L 80.050637 -246.22211 
L 79.102463 -246.726622 
L 78.15429 -247.223625 
L 77.206117 -247.715282 
L 76.257943 -248.209495 
L 75.30977 -248.692816 
L 74.361597 -249.173121 
L 73.413423 -249.661621 
L 72.46525 -250.14359 
L 71.517077 -250.623884 
L 70.568903 -251.104778 
L 69.62073 -251.603372 
L 68.672557 -252.087414 
z
" id="m011eb41ace" style="stroke:#de8f05;stroke-opacity:0.25;"/>
    </defs>
    <g clip-path="url(#p6eaa9cb264)">
     <use style="fill:#de8f05;fill-opacity:0.25;stroke:#de8f05;stroke-opacity:0.25;" x="0" xlink:href="#m011eb41ace" y="269.844375"/>
    </g>
   </g>
   <g id="PolyCollection_2">
    <defs>
     <path d="M 68.672557 -248.910073 
L 68.672557 -261.344547 
L 69.62073 -260.788978 
L 70.568903 -260.231488 
L 71.517077 -259.657585 
L 72.46525 -259.064034 
L 73.413423 -258.469907 
L 74.361597 -257.872983 
L 75.30977 -257.282501 
L 76.257943 -256.700909 
L 77.206117 -256.122065 
L 78.15429 -255.566232 
L 79.102463 -254.98627 
L 80.050637 -254.404992 
L 80.99881 -253.8374 
L 81.946983 -253.269801 
L 82.895157 -252.694601 
L 83.84333 -252.138154 
L 84.791503 -251.599171 
L 85.739677 -251.056213 
L 86.68785 -250.510076 
L 87.636023 -249.930975 
L 88.584197 -249.397656 
L 89.53237 -248.828991 
L 90.480543 -248.238369 
L 91.428717 -247.694326 
L 92.37689 -247.153128 
L 93.325063 -246.642724 
L 94.273237 -246.095016 
L 95.22141 -245.547281 
L 96.169583 -245.032088 
L 97.117756 -244.492013 
L 98.06593 -243.961884 
L 99.014103 -243.445306 
L 99.962276 -242.891044 
L 100.91045 -242.292471 
L 101.858623 -241.731317 
L 102.806796 -241.193369 
L 103.75497 -240.653481 
L 104.703143 -240.130717 
L 105.651316 -239.606933 
L 106.59949 -239.081117 
L 107.547663 -238.555291 
L 108.495836 -238.033452 
L 109.44401 -237.485588 
L 110.392183 -236.943353 
L 111.340356 -236.407219 
L 112.28853 -235.898176 
L 113.236703 -235.348746 
L 114.184876 -234.836849 
L 115.13305 -234.301087 
L 116.081223 -233.813547 
L 117.029396 -233.281891 
L 117.97757 -232.788024 
L 118.925743 -232.281357 
L 119.873916 -231.820714 
L 120.82209 -231.330958 
L 121.770263 -230.837359 
L 122.718436 -230.333885 
L 123.666609 -229.855743 
L 124.614783 -229.333944 
L 125.562956 -228.833492 
L 126.511129 -228.370512 
L 127.459303 -227.876895 
L 128.407476 -227.335837 
L 129.355649 -226.827475 
L 130.303823 -226.354436 
L 131.251996 -225.861687 
L 132.200169 -225.342205 
L 133.148343 -224.837082 
L 134.096516 -224.356084 
L 135.044689 -223.851017 
L 135.992863 -223.363331 
L 136.941036 -222.871469 
L 137.889209 -222.407123 
L 138.837383 -221.943304 
L 139.785556 -221.481305 
L 140.733729 -220.949731 
L 141.681903 -220.453155 
L 142.630076 -219.935112 
L 143.578249 -219.431885 
L 144.526423 -218.96211 
L 145.474596 -218.490702 
L 146.422769 -218.018884 
L 147.370943 -217.537184 
L 148.319116 -217.07315 
L 149.267289 -216.586394 
L 150.215463 -216.12023 
L 151.163636 -215.626775 
L 152.111809 -215.134321 
L 153.059982 -214.709448 
L 154.008156 -214.229143 
L 154.956329 -213.776555 
L 155.904502 -213.31706 
L 156.852676 -212.86178 
L 157.800849 -212.399157 
L 158.749022 -211.959702 
L 159.697196 -211.505372 
L 160.645369 -211.034668 
L 161.593542 -210.577978 
L 162.541716 -210.13819 
L 163.489889 -209.699363 
L 164.438062 -209.252193 
L 165.386236 -208.762669 
L 166.334409 -208.291018 
L 167.282582 -207.840315 
L 168.230756 -207.389046 
L 169.178929 -206.937143 
L 170.127102 -206.458949 
L 171.075276 -205.987635 
L 172.023449 -205.522681 
L 172.971622 -205.043035 
L 173.919796 -204.59278 
L 174.867969 -204.114229 
L 175.816142 -203.635682 
L 176.764316 -203.157733 
L 177.712489 -202.693893 
L 178.660662 -202.229453 
L 179.608835 -201.765014 
L 180.557009 -201.300576 
L 181.505182 -200.846721 
L 182.453355 -200.428834 
L 183.401529 -199.985903 
L 184.349702 -199.542559 
L 185.297875 -199.109954 
L 186.246049 -198.624632 
L 187.194222 -198.168487 
L 188.142395 -197.75903 
L 189.090569 -197.291702 
L 190.038742 -196.818137 
L 190.986915 -196.341302 
L 191.935089 -195.878092 
L 192.883262 -195.452269 
L 193.831435 -194.996557 
L 194.779609 -194.534464 
L 195.727782 -194.066163 
L 196.675955 -193.609275 
L 197.624129 -193.157474 
L 198.572302 -192.726986 
L 199.520475 -192.289585 
L 200.468649 -191.837839 
L 201.416822 -191.401987 
L 202.364995 -190.965887 
L 203.313169 -190.529207 
L 204.261342 -190.07075 
L 205.209515 -189.636235 
L 206.157689 -189.205491 
L 207.105862 -188.774747 
L 208.054035 -188.33974 
L 209.002208 -187.898577 
L 209.950382 -187.477256 
L 210.898555 -187.041441 
L 211.846728 -186.60558 
L 212.794902 -186.176719 
L 213.743075 -185.733457 
L 214.691248 -185.292169 
L 215.639422 -184.840332 
L 216.587595 -184.38787 
L 217.535768 -183.936121 
L 218.483942 -183.484138 
L 219.432115 -183.032046 
L 220.380288 -182.579953 
L 221.328462 -182.127861 
L 222.276635 -181.675768 
L 223.224808 -181.223676 
L 224.172982 -180.771583 
L 225.121155 -180.33755 
L 226.069328 -179.904373 
L 227.017502 -179.454635 
L 227.965675 -179.004897 
L 228.913848 -178.555161 
L 229.862022 -178.105426 
L 230.810195 -177.655692 
L 231.758368 -177.205665 
L 232.706542 -176.770951 
L 233.654715 -176.342286 
L 234.602888 -175.913621 
L 235.551061 -175.484957 
L 236.499235 -175.056292 
L 237.447408 -174.627627 
L 238.395581 -174.198829 
L 239.343755 -173.769662 
L 240.291928 -173.340495 
L 241.240101 -172.911328 
L 242.188275 -172.482163 
L 243.136448 -172.052998 
L 244.084621 -171.597663 
L 245.032795 -171.133595 
L 245.980968 -170.669528 
L 246.929141 -170.205461 
L 247.877315 -169.741352 
L 248.825488 -169.277122 
L 249.773661 -168.831571 
L 250.721835 -168.379394 
L 251.670008 -167.916197 
L 252.618181 -167.464994 
L 253.566355 -167.029603 
L 254.514528 -166.573447 
L 255.462701 -166.146629 
L 256.410875 -165.726208 
L 257.359048 -165.305427 
L 258.307221 -164.853779 
L 259.255395 -164.400765 
L 260.203568 -163.947566 
L 261.151741 -163.494368 
L 262.099915 -163.061804 
L 263.048088 -162.636009 
L 263.996261 -162.210215 
L 264.944434 -161.784421 
L 265.892608 -161.358627 
L 266.840781 -160.932833 
L 267.788954 -160.507039 
L 268.737128 -160.081244 
L 269.685301 -159.655207 
L 270.633474 -159.228804 
L 271.581648 -158.802402 
L 272.529821 -158.376001 
L 273.477994 -157.921308 
L 274.426168 -157.459766 
L 275.374341 -156.998225 
L 276.322514 -156.565727 
L 277.270688 -156.122283 
L 278.218861 -155.692663 
L 279.167034 -155.263043 
L 280.115208 -154.833423 
L 281.063381 -154.403803 
L 282.011554 -153.97351 
L 282.959728 -153.543012 
L 283.907901 -153.097892 
L 284.856074 -152.634626 
L 285.804248 -152.17136 
L 286.752421 -151.732484 
L 287.700594 -151.281153 
L 288.648768 -150.848083 
L 289.596941 -150.405207 
L 290.545114 -149.954251 
L 291.493287 -149.503295 
L 292.441461 -149.052339 
L 293.389634 -148.601384 
L 294.337807 -148.150429 
L 295.285981 -147.699474 
L 296.234154 -147.266416 
L 297.182327 -146.834863 
L 298.130501 -146.40331 
L 299.078674 -145.971758 
L 300.026847 -145.540205 
L 300.975021 -145.108653 
L 301.923194 -144.677102 
L 302.871367 -144.244077 
L 303.819541 -143.796052 
L 304.767714 -143.348028 
L 305.715887 -142.925503 
L 306.664061 -142.507217 
L 307.612234 -142.088932 
L 308.560407 -141.659183 
L 309.508581 -141.228395 
L 310.456754 -140.797606 
L 311.404927 -140.366079 
L 312.353101 -139.934492 
L 313.301274 -139.500787 
L 314.249447 -139.072495 
L 315.197621 -138.641763 
L 316.145794 -138.211031 
L 317.093967 -137.780299 
L 318.042141 -137.349567 
L 318.990314 -136.918792 
L 319.938487 -136.487637 
L 320.88666 -136.056482 
L 321.834834 -135.625327 
L 322.783007 -135.194172 
L 323.73118 -134.763017 
L 324.679354 -134.331566 
L 325.627527 -133.900083 
L 326.5757 -133.468601 
L 327.523874 -133.037118 
L 328.472047 -132.605636 
L 329.42022 -132.169055 
L 330.368394 -131.723739 
L 331.316567 -131.278423 
L 332.26474 -130.833108 
L 333.212914 -130.387792 
L 334.161087 -129.942477 
L 335.10926 -129.497162 
L 336.057434 -129.051847 
L 337.005607 -128.606532 
L 337.95378 -128.161217 
L 338.901954 -127.715903 
L 339.850127 -127.270589 
L 340.7983 -126.825275 
L 341.746474 -126.379961 
L 342.694647 -125.934647 
L 343.64282 -125.489334 
L 344.590994 -125.044021 
L 345.539167 -124.598708 
L 346.48734 -124.166474 
L 347.435513 -123.739122 
L 348.383687 -123.311628 
L 349.33186 -122.886138 
L 350.280033 -122.467825 
L 351.228207 -122.049513 
L 352.17638 -121.631201 
L 353.124553 -121.21289 
L 354.072727 -120.794578 
L 355.0209 -120.376268 
L 355.969073 -119.957957 
L 356.917247 -119.539647 
L 357.86542 -119.121338 
L 358.813593 -118.703028 
L 359.761767 -118.281281 
L 360.70994 -117.843326 
L 361.658113 -117.405372 
L 362.606287 -116.967418 
L 363.55446 -116.529464 
L 364.502633 -116.091511 
L 365.450807 -115.653558 
L 366.39898 -115.215606 
L 367.347153 -114.77733 
L 368.295327 -114.339043 
L 369.2435 -113.910965 
L 370.191673 -113.483513 
L 371.139847 -113.056062 
L 372.08802 -112.62861 
L 373.036193 -112.201159 
L 373.036193 -64.157683 
L 373.036193 -64.157683 
L 372.08802 -64.76292 
L 371.139847 -65.368158 
L 370.191673 -65.973395 
L 369.2435 -66.578633 
L 368.295327 -67.18387 
L 367.347153 -67.789108 
L 366.39898 -68.394346 
L 365.450807 -68.999584 
L 364.502633 -69.604823 
L 363.55446 -70.210061 
L 362.606287 -70.8153 
L 361.658113 -71.420539 
L 360.70994 -72.025778 
L 359.761767 -72.631017 
L 358.813593 -73.236256 
L 357.86542 -73.841571 
L 356.917247 -74.447427 
L 355.969073 -75.053282 
L 355.0209 -75.659138 
L 354.072727 -76.264993 
L 353.124553 -76.870849 
L 352.17638 -77.476705 
L 351.228207 -78.082561 
L 350.280033 -78.688417 
L 349.33186 -79.294273 
L 348.383687 -79.90013 
L 347.435513 -80.505986 
L 346.48734 -81.111843 
L 345.539167 -81.7177 
L 344.590994 -82.323557 
L 343.64282 -82.929414 
L 342.694647 -83.535271 
L 341.746474 -84.141128 
L 340.7983 -84.746986 
L 339.850127 -85.352843 
L 338.901954 -85.958701 
L 337.95378 -86.564559 
L 337.005607 -87.170417 
L 336.057434 -87.776275 
L 335.10926 -88.382133 
L 334.161087 -88.987991 
L 333.212914 -89.593849 
L 332.26474 -90.199708 
L 331.316567 -90.805567 
L 330.368394 -91.41739 
L 329.42022 -92.034338 
L 328.472047 -92.651286 
L 327.523874 -93.268233 
L 326.5757 -93.885181 
L 325.627527 -94.502129 
L 324.679354 -95.119078 
L 323.73118 -95.736026 
L 322.783007 -96.352974 
L 321.834834 -96.969923 
L 320.88666 -97.586871 
L 319.938487 -98.20382 
L 318.990314 -98.820769 
L 318.042141 -99.437718 
L 317.093967 -100.054667 
L 316.145794 -100.671617 
L 315.197621 -101.288566 
L 314.249447 -101.905516 
L 313.301274 -102.522465 
L 312.353101 -103.139415 
L 311.404927 -103.756365 
L 310.456754 -104.373315 
L 309.508581 -104.990265 
L 308.560407 -105.607215 
L 307.612234 -106.224166 
L 306.664061 -106.841116 
L 305.715887 -107.458067 
L 304.767714 -108.075018 
L 303.819541 -108.691968 
L 302.871367 -109.309113 
L 301.923194 -109.926264 
L 300.975021 -110.543415 
L 300.026847 -111.160566 
L 299.078674 -111.777718 
L 298.130501 -112.394869 
L 297.182327 -113.01202 
L 296.234154 -113.629171 
L 295.285981 -114.23652 
L 294.337807 -114.82275 
L 293.389634 -115.40898 
L 292.441461 -115.995211 
L 291.493287 -116.581442 
L 290.545114 -117.167674 
L 289.596941 -117.753907 
L 288.648768 -118.340141 
L 287.700594 -118.926376 
L 286.752421 -119.507587 
L 285.804248 -120.088949 
L 284.856074 -120.670369 
L 283.907901 -121.27132 
L 282.959728 -121.867409 
L 282.011554 -122.480379 
L 281.063381 -123.093349 
L 280.115208 -123.70632 
L 279.167034 -124.319292 
L 278.218861 -124.932265 
L 277.270688 -125.545238 
L 276.322514 -126.158212 
L 275.374341 -126.771187 
L 274.426168 -127.384474 
L 273.477994 -127.997946 
L 272.529821 -128.611418 
L 271.581648 -129.22489 
L 270.633474 -129.838362 
L 269.685301 -130.451834 
L 268.737128 -131.065306 
L 267.788954 -131.678778 
L 266.840781 -132.29225 
L 265.892608 -132.905722 
L 264.944434 -133.519194 
L 263.996261 -134.132667 
L 263.048088 -134.746139 
L 262.099915 -135.359611 
L 261.151741 -135.973084 
L 260.203568 -136.586556 
L 259.255395 -137.191927 
L 258.307221 -137.777996 
L 257.359048 -138.364066 
L 256.410875 -138.950136 
L 255.462701 -139.536207 
L 254.514528 -140.122278 
L 253.566355 -140.70835 
L 252.618181 -141.294422 
L 251.670008 -141.880494 
L 250.721835 -142.466566 
L 249.773661 -143.052639 
L 248.825488 -143.638712 
L 247.877315 -144.224786 
L 246.929141 -144.81086 
L 245.980968 -145.396934 
L 245.032795 -145.983009 
L 244.084621 -146.569522 
L 243.136448 -147.170534 
L 242.188275 -147.79698 
L 241.240101 -148.381949 
L 240.291928 -148.971523 
L 239.343755 -149.58783 
L 238.395581 -150.204533 
L 237.447408 -150.821373 
L 236.499235 -151.438213 
L 235.551061 -152.045986 
L 234.602888 -152.628197 
L 233.654715 -153.210409 
L 232.706542 -153.792621 
L 231.758368 -154.389838 
L 230.810195 -154.995397 
L 229.862022 -155.601063 
L 228.913848 -156.20673 
L 227.965675 -156.812396 
L 227.017502 -157.418062 
L 226.069328 -158.027289 
L 225.121155 -158.636725 
L 224.172982 -159.246162 
L 223.224808 -159.840075 
L 222.276635 -160.441918 
L 221.328462 -161.032334 
L 220.380288 -161.622751 
L 219.432115 -162.21317 
L 218.483942 -162.803589 
L 217.535768 -163.394437 
L 216.587595 -163.986284 
L 215.639422 -164.578131 
L 214.691248 -165.153875 
L 213.743075 -165.724871 
L 212.794902 -166.295869 
L 211.846728 -166.88912 
L 210.898555 -167.500924 
L 209.950382 -168.117606 
L 209.002208 -168.718708 
L 208.054035 -169.31158 
L 207.105862 -169.902614 
L 206.157689 -170.494718 
L 205.209515 -171.109827 
L 204.261342 -171.725563 
L 203.313169 -172.308657 
L 202.364995 -172.917886 
L 201.416822 -173.490758 
L 200.468649 -174.080178 
L 199.520475 -174.63723 
L 198.572302 -175.224974 
L 197.624129 -175.816016 
L 196.675955 -176.407058 
L 195.727782 -176.998101 
L 194.779609 -177.589273 
L 193.831435 -178.206203 
L 192.883262 -178.83449 
L 191.935089 -179.473897 
L 190.986915 -180.12277 
L 190.038742 -180.706865 
L 189.090569 -181.296913 
L 188.142395 -181.870693 
L 187.194222 -182.444472 
L 186.246049 -183.018251 
L 185.297875 -183.59203 
L 184.349702 -184.165809 
L 183.401529 -184.739588 
L 182.453355 -185.313413 
L 181.505182 -185.887699 
L 180.557009 -186.470599 
L 179.608835 -187.05029 
L 178.660662 -187.617047 
L 177.712489 -188.19963 
L 176.764316 -188.784677 
L 175.816142 -189.341046 
L 174.867969 -189.956015 
L 173.919796 -190.547315 
L 172.971622 -191.125771 
L 172.023449 -191.710016 
L 171.075276 -192.272775 
L 170.127102 -192.829722 
L 169.178929 -193.387165 
L 168.230756 -193.992326 
L 167.282582 -194.616067 
L 166.334409 -195.190151 
L 165.386236 -195.756894 
L 164.438062 -196.3244 
L 163.489889 -196.9549 
L 162.541716 -197.536025 
L 161.593542 -198.063117 
L 160.645369 -198.59021 
L 159.697196 -199.1523 
L 158.749022 -199.745304 
L 157.800849 -200.309704 
L 156.852676 -200.903915 
L 155.904502 -201.506591 
L 154.956329 -202.104098 
L 154.008156 -202.6812 
L 153.059982 -203.292939 
L 152.111809 -203.904568 
L 151.163636 -204.502405 
L 150.215463 -205.073909 
L 149.267289 -205.618538 
L 148.319116 -206.160131 
L 147.370943 -206.728589 
L 146.422769 -207.275981 
L 145.474596 -207.837232 
L 144.526423 -208.455616 
L 143.578249 -209.062547 
L 142.630076 -209.577696 
L 141.681903 -210.144212 
L 140.733729 -210.713908 
L 139.785556 -211.229193 
L 138.837383 -211.830037 
L 137.889209 -212.38382 
L 136.941036 -212.961651 
L 135.992863 -213.552311 
L 135.044689 -214.123113 
L 134.096516 -214.709624 
L 133.148343 -215.253369 
L 132.200169 -215.796199 
L 131.251996 -216.344935 
L 130.303823 -216.924376 
L 129.355649 -217.522816 
L 128.407476 -218.02385 
L 127.459303 -218.583212 
L 126.511129 -219.088974 
L 125.562956 -219.610758 
L 124.614783 -220.129386 
L 123.666609 -220.674991 
L 122.718436 -221.22588 
L 121.770263 -221.769107 
L 120.82209 -222.304815 
L 119.873916 -222.815696 
L 118.925743 -223.339166 
L 117.97757 -223.845976 
L 117.029396 -224.355718 
L 116.081223 -224.911001 
L 115.13305 -225.39237 
L 114.184876 -225.883268 
L 113.236703 -226.379477 
L 112.28853 -226.893092 
L 111.340356 -227.357235 
L 110.392183 -227.849937 
L 109.44401 -228.40595 
L 108.495836 -228.949644 
L 107.547663 -229.430596 
L 106.59949 -229.897189 
L 105.651316 -230.432985 
L 104.703143 -230.939283 
L 103.75497 -231.418451 
L 102.806796 -231.934141 
L 101.858623 -232.40652 
L 100.91045 -232.898332 
L 99.962276 -233.416533 
L 99.014103 -233.874456 
L 98.06593 -234.332534 
L 97.117756 -234.81018 
L 96.169583 -235.279182 
L 95.22141 -235.728723 
L 94.273237 -236.18506 
L 93.325063 -236.635213 
L 92.37689 -237.134466 
L 91.428717 -237.575886 
L 90.480543 -238.015503 
L 89.53237 -238.487434 
L 88.584197 -238.94166 
L 87.636023 -239.44537 
L 86.68785 -239.92095 
L 85.739677 -240.38413 
L 84.791503 -240.861812 
L 83.84333 -241.35393 
L 82.895157 -241.846336 
L 81.946983 -242.328545 
L 80.99881 -242.820604 
L 80.050637 -243.314264 
L 79.102463 -243.804547 
L 78.15429 -244.298779 
L 77.206117 -244.791658 
L 76.257943 -245.270736 
L 75.30977 -245.7325 
L 74.361597 -246.194165 
L 73.413423 -246.648124 
L 72.46525 -247.102218 
L 71.517077 -247.556312 
L 70.568903 -248.010407 
L 69.62073 -248.464501 
L 68.672557 -248.910073 
z
" id="m1361a2f908" style="stroke:#de8f05;stroke-opacity:0.25;"/>
    </defs>
    <g clip-path="url(#p6eaa9cb264)">
     <use style="fill:#de8f05;fill-opacity:0.25;stroke:#de8f05;stroke-opacity:0.25;" x="0" xlink:href="#m1361a2f908" y="269.844375"/>
    </g>
   </g>
   <g id="line2d_44">
    <path clip-path="url(#p6eaa9cb264)" d="M 68.672557 14.935653 
L 73.413423 16.870548 
L 79.102463 19.432685 
L 91.428717 25.322612 
L 103.75497 31.072404 
L 117.029396 37.242998 
L 122.718436 40.115221 
L 127.459303 42.720701 
L 132.200169 45.563842 
L 136.941036 48.65551 
L 142.630076 52.654848 
L 152.111809 59.699403 
L 158.749022 64.501058 
L 162.541716 67.015646 
L 166.334409 69.258607 
L 169.178929 70.717476 
L 172.023449 71.959916 
L 174.867969 72.9765 
L 177.712489 73.772201 
L 180.557009 74.366328 
L 184.349702 74.900515 
L 189.090569 75.291371 
L 199.520475 76.016257 
L 203.313169 76.51772 
L 207.105862 77.256573 
L 210.898555 78.276976 
L 214.691248 79.599665 
L 218.483942 81.21655 
L 222.276635 83.086342 
L 227.965675 86.193751 
L 235.551061 90.352139 
L 240.291928 92.677199 
L 245.032795 94.754489 
L 253.566355 98.394505 
L 257.359048 100.275079 
L 260.203568 101.888425 
L 263.048088 103.706779 
L 265.892608 105.741599 
L 269.685301 108.783567 
L 273.477994 112.161123 
L 278.218861 116.757545 
L 282.959728 121.667391 
L 287.700594 126.864816 
L 291.493287 131.295908 
L 295.285981 136.08572 
L 298.130501 139.997049 
L 300.975021 144.251175 
L 303.819541 148.908461 
L 306.664061 154.024007 
L 309.508581 159.646027 
L 312.353101 165.815358 
L 315.197621 172.565731 
L 318.042141 179.924486 
L 320.88666 187.913467 
L 323.73118 196.549939 
L 326.5757 205.847439 
L 329.42022 215.816523 
L 332.26474 226.465383 
L 335.10926 237.800365 
L 338.901954 253.989278 
L 342.573643 270.844375 
L 342.573643 270.844375 
" style="fill:none;stroke:#000000;stroke-linecap:round;stroke-width:1.5;"/>
   </g>
   <g id="line2d_45">
    <path clip-path="url(#p6eaa9cb264)" d="M 68.672557 41.057532 
L 69.62073 35.804521 
L 70.568903 31.547048 
L 71.517077 28.177091 
L 72.46525 25.580589 
L 73.413423 23.641475 
L 74.361597 22.246598 
L 75.30977 21.29083 
L 76.257943 20.68137 
L 77.206117 20.340414 
L 78.15429 20.205673 
L 79.102463 20.228905 
L 80.99881 20.608981 
L 82.895157 21.262272 
L 89.53237 23.824031 
L 95.22141 25.859916 
L 98.06593 27.116012 
L 99.962276 28.198156 
L 101.858623 29.541147 
L 104.703143 31.954983 
L 109.44401 36.11654 
L 111.340356 37.516271 
L 113.236703 38.677235 
L 115.13305 39.610233 
L 117.97757 40.716022 
L 122.718436 42.457733 
L 126.511129 44.129872 
L 128.407476 45.140494 
L 130.303823 46.351576 
L 132.200169 47.788305 
L 135.044689 50.276792 
L 140.733729 55.726337 
L 146.422769 61.168261 
L 148.319116 62.688865 
L 151.163636 64.56951 
L 155.904502 67.259329 
L 161.593542 70.218333 
L 164.438062 71.516958 
L 167.282582 72.592402 
L 171.075276 73.752066 
L 173.919796 74.38646 
L 176.764316 74.752138 
L 183.401529 75.381976 
L 187.194222 76.058634 
L 190.038742 76.783444 
L 192.883262 77.761683 
L 197.624129 79.491012 
L 205.209515 81.879562 
L 208.054035 83.303036 
L 213.743075 86.398353 
L 223.224808 90.676912 
L 231.758368 95.068179 
L 236.499235 97.142615 
L 241.240101 99.419616 
L 245.032795 101.053538 
L 246.929141 102.086002 
L 252.618181 105.452592 
L 255.462701 106.64565 
L 258.307221 107.814358 
L 260.203568 108.926574 
L 262.099915 110.466402 
L 263.996261 112.413267 
L 266.840781 115.84615 
L 269.685301 119.632904 
L 275.374341 127.708931 
L 278.218861 132.016695 
L 281.063381 136.938077 
L 283.907901 141.926404 
L 285.804248 144.878307 
L 288.648768 148.898356 
L 291.493287 152.572909 
L 296.234154 158.02185 
L 298.130501 160.860764 
L 300.026847 164.321501 
L 303.819541 171.550648 
L 307.612234 177.885937 
L 309.508581 181.195834 
L 311.404927 185.057051 
L 312.353101 187.349216 
L 313.301274 189.977693 
L 314.249447 193.010517 
L 315.197621 196.505365 
L 316.145794 200.505512 
L 318.042141 210.103465 
L 319.938487 221.670736 
L 322.783007 239.808682 
L 323.73118 244.565045 
L 324.679354 248.083651 
L 325.627527 250.446772 
L 328.472047 255.363209 
L 329.42022 257.737512 
L 330.368394 260.741911 
L 333.074064 270.844375 
L 333.074064 270.844375 
" style="fill:none;stroke:#0173b2;stroke-linecap:round;stroke-width:1.5;"/>
   </g>
   <g id="line2d_46">
    <path clip-path="url(#p6eaa9cb264)" d="M 68.672557 14.589064 
L 76.257943 18.745245 
L 81.946983 21.857186 
L 87.636023 24.974696 
L 99.014103 31.140999 
L 116.081223 40.436544 
L 134.096516 50.296219 
L 142.630076 54.981332 
L 158.749022 63.77402 
L 178.660662 74.590301 
L 189.090569 80.210587 
L 246.929141 111.555673 
L 373.036193 180.334534 
L 373.036193 180.334534 
" style="fill:none;stroke:#de8f05;stroke-linecap:round;stroke-width:1.5;"/>
   </g>
   <g id="patch_3">
    <path d="M 53.454375 224.64 
L 53.454375 7.2 
" style="fill:none;stroke:#262626;stroke-linecap:square;stroke-linejoin:miter;stroke-width:1.25;"/>
   </g>
   <g id="patch_4">
    <path d="M 388.254375 224.64 
L 388.254375 7.2 
" style="fill:none;stroke:#262626;stroke-linecap:square;stroke-linejoin:miter;stroke-width:1.25;"/>
   </g>
   <g id="patch_5">
    <path d="M 53.454375 224.64 
L 388.254375 224.64 
" style="fill:none;stroke:#262626;stroke-linecap:square;stroke-linejoin:miter;stroke-width:1.25;"/>
   </g>
   <g id="patch_6">
    <path d="M 53.454375 7.2 
L 388.254375 7.2 
" style="fill:none;stroke:#262626;stroke-linecap:square;stroke-linejoin:miter;stroke-width:1.25;"/>
   </g>
   <g id="legend_1">
    <g id="patch_7">
     <path d="M 266.496406 62.679531 
L 380.554375 62.679531 
Q 382.754375 62.679531 382.754375 60.479531 
L 382.754375 14.9 
Q 382.754375 12.7 380.554375 12.7 
L 266.496406 12.7 
Q 264.296406 12.7 264.296406 14.9 
L 264.296406 60.479531 
Q 264.296406 62.679531 266.496406 62.679531 
z
" style="fill:#ffffff;opacity:0.8;stroke:#cccccc;stroke-linejoin:miter;"/>
    </g>
    <g id="line2d_47">
     <path d="M 268.696406 21.123594 
L 290.696406 21.123594 
" style="fill:none;stroke:#000000;stroke-linecap:round;stroke-width:1.5;"/>
    </g>
    <g id="line2d_48"/>
    <g id="text_8">
     <!-- Observed -->
     <g style="fill:#262626;" transform="translate(299.496406 24.973594)scale(0.11 -0.11)">
      <defs>
       <path d="M 309 2231 
Q 309 3372 921 4017 
Q 1534 4663 2503 4663 
Q 3138 4663 3647 4359 
Q 4156 4056 4423 3514 
Q 4691 2972 4691 2284 
Q 4691 1588 4409 1038 
Q 4128 488 3612 205 
Q 3097 -78 2500 -78 
Q 1853 -78 1343 234 
Q 834 547 571 1087 
Q 309 1628 309 2231 
z
M 934 2222 
Q 934 1394 1379 917 
Q 1825 441 2497 441 
Q 3181 441 3623 922 
Q 4066 1403 4066 2288 
Q 4066 2847 3877 3264 
Q 3688 3681 3323 3911 
Q 2959 4141 2506 4141 
Q 1863 4141 1398 3698 
Q 934 3256 934 2222 
z
" id="ArialMT-4f" transform="scale(0.015625)"/>
       <path d="M 941 0 
L 419 0 
L 419 4581 
L 981 4581 
L 981 2947 
Q 1338 3394 1891 3394 
Q 2197 3394 2470 3270 
Q 2744 3147 2920 2923 
Q 3097 2700 3197 2384 
Q 3297 2069 3297 1709 
Q 3297 856 2875 390 
Q 2453 -75 1863 -75 
Q 1275 -75 941 416 
L 941 0 
z
M 934 1684 
Q 934 1088 1097 822 
Q 1363 388 1816 388 
Q 2184 388 2453 708 
Q 2722 1028 2722 1663 
Q 2722 2313 2464 2622 
Q 2206 2931 1841 2931 
Q 1472 2931 1203 2611 
Q 934 2291 934 1684 
z
" id="ArialMT-62" transform="scale(0.015625)"/>
       <path d="M 197 991 
L 753 1078 
Q 800 744 1014 566 
Q 1228 388 1613 388 
Q 2000 388 2187 545 
Q 2375 703 2375 916 
Q 2375 1106 2209 1216 
Q 2094 1291 1634 1406 
Q 1016 1563 777 1677 
Q 538 1791 414 1992 
Q 291 2194 291 2438 
Q 291 2659 392 2848 
Q 494 3038 669 3163 
Q 800 3259 1026 3326 
Q 1253 3394 1513 3394 
Q 1903 3394 2198 3281 
Q 2494 3169 2634 2976 
Q 2775 2784 2828 2463 
L 2278 2388 
Q 2241 2644 2061 2787 
Q 1881 2931 1553 2931 
Q 1166 2931 1000 2803 
Q 834 2675 834 2503 
Q 834 2394 903 2306 
Q 972 2216 1119 2156 
Q 1203 2125 1616 2013 
Q 2213 1853 2448 1751 
Q 2684 1650 2818 1456 
Q 2953 1263 2953 975 
Q 2953 694 2789 445 
Q 2625 197 2315 61 
Q 2006 -75 1616 -75 
Q 969 -75 630 194 
Q 291 463 197 991 
z
" id="ArialMT-73" transform="scale(0.015625)"/>
       <path d="M 2694 1069 
L 3275 997 
Q 3138 488 2766 206 
Q 2394 -75 1816 -75 
Q 1088 -75 661 373 
Q 234 822 234 1631 
Q 234 2469 665 2931 
Q 1097 3394 1784 3394 
Q 2450 3394 2872 2941 
Q 3294 2488 3294 1666 
Q 3294 1616 3291 1516 
L 816 1516 
Q 847 969 1125 678 
Q 1403 388 1819 388 
Q 2128 388 2347 550 
Q 2566 713 2694 1069 
z
M 847 1978 
L 2700 1978 
Q 2663 2397 2488 2606 
Q 2219 2931 1791 2931 
Q 1403 2931 1139 2672 
Q 875 2413 847 1978 
z
" id="ArialMT-65" transform="scale(0.015625)"/>
       <path d="M 416 0 
L 416 3319 
L 922 3319 
L 922 2816 
Q 1116 3169 1280 3281 
Q 1444 3394 1641 3394 
Q 1925 3394 2219 3213 
L 2025 2691 
Q 1819 2813 1613 2813 
Q 1428 2813 1281 2702 
Q 1134 2591 1072 2394 
Q 978 2094 978 1738 
L 978 0 
L 416 0 
z
" id="ArialMT-72" transform="scale(0.015625)"/>
       <path d="M 1344 0 
L 81 3319 
L 675 3319 
L 1388 1331 
Q 1503 1009 1600 663 
Q 1675 925 1809 1294 
L 2547 3319 
L 3125 3319 
L 1869 0 
L 1344 0 
z
" id="ArialMT-76" transform="scale(0.015625)"/>
       <path d="M 2575 0 
L 2575 419 
Q 2259 -75 1647 -75 
Q 1250 -75 917 144 
Q 584 363 401 755 
Q 219 1147 219 1656 
Q 219 2153 384 2558 
Q 550 2963 881 3178 
Q 1213 3394 1622 3394 
Q 1922 3394 2156 3267 
Q 2391 3141 2538 2938 
L 2538 4581 
L 3097 4581 
L 3097 0 
L 2575 0 
z
M 797 1656 
Q 797 1019 1065 703 
Q 1334 388 1700 388 
Q 2069 388 2326 689 
Q 2584 991 2584 1609 
Q 2584 2291 2321 2609 
Q 2059 2928 1675 2928 
Q 1300 2928 1048 2622 
Q 797 2316 797 1656 
z
" id="ArialMT-64" transform="scale(0.015625)"/>
      </defs>
      <use xlink:href="#ArialMT-4f"/>
      <use x="77.783203" xlink:href="#ArialMT-62"/>
      <use x="133.398438" xlink:href="#ArialMT-73"/>
      <use x="183.398438" xlink:href="#ArialMT-65"/>
      <use x="239.013672" xlink:href="#ArialMT-72"/>
      <use x="272.314453" xlink:href="#ArialMT-76"/>
      <use x="322.314453" xlink:href="#ArialMT-65"/>
      <use x="377.929688" xlink:href="#ArialMT-64"/>
     </g>
    </g>
    <g id="line2d_49">
     <path d="M 268.696406 36.683437 
L 290.696406 36.683437 
" style="fill:none;stroke:#0173b2;stroke-linecap:round;stroke-width:1.5;"/>
    </g>
    <g id="line2d_50"/>
    <g id="text_9">
     <!-- Inferred Masses -->
     <g style="fill:#262626;" transform="translate(299.496406 40.533437)scale(0.11 -0.11)">
      <defs>
       <path d="M 597 0 
L 597 4581 
L 1203 4581 
L 1203 0 
L 597 0 
z
" id="ArialMT-49" transform="scale(0.015625)"/>
       <path d="M 422 0 
L 422 3319 
L 928 3319 
L 928 2847 
Q 1294 3394 1984 3394 
Q 2284 3394 2536 3286 
Q 2788 3178 2913 3003 
Q 3038 2828 3088 2588 
Q 3119 2431 3119 2041 
L 3119 0 
L 2556 0 
L 2556 2019 
Q 2556 2363 2490 2533 
Q 2425 2703 2258 2804 
Q 2091 2906 1866 2906 
Q 1506 2906 1245 2678 
Q 984 2450 984 1813 
L 984 0 
L 422 0 
z
" id="ArialMT-6e" transform="scale(0.015625)"/>
       <path d="M 556 0 
L 556 2881 
L 59 2881 
L 59 3319 
L 556 3319 
L 556 3672 
Q 556 4006 616 4169 
Q 697 4388 901 4523 
Q 1106 4659 1475 4659 
Q 1713 4659 2000 4603 
L 1916 4113 
Q 1741 4144 1584 4144 
Q 1328 4144 1222 4034 
Q 1116 3925 1116 3625 
L 1116 3319 
L 1763 3319 
L 1763 2881 
L 1116 2881 
L 1116 0 
L 556 0 
z
" id="ArialMT-66" transform="scale(0.015625)"/>
       <path id="ArialMT-20" transform="scale(0.015625)"/>
       <path d="M 475 0 
L 475 4581 
L 1388 4581 
L 2472 1338 
Q 2622 884 2691 659 
Q 2769 909 2934 1394 
L 4031 4581 
L 4847 4581 
L 4847 0 
L 4263 0 
L 4263 3834 
L 2931 0 
L 2384 0 
L 1059 3900 
L 1059 0 
L 475 0 
z
" id="ArialMT-4d" transform="scale(0.015625)"/>
       <path d="M 2588 409 
Q 2275 144 1986 34 
Q 1697 -75 1366 -75 
Q 819 -75 525 192 
Q 231 459 231 875 
Q 231 1119 342 1320 
Q 453 1522 633 1644 
Q 813 1766 1038 1828 
Q 1203 1872 1538 1913 
Q 2219 1994 2541 2106 
Q 2544 2222 2544 2253 
Q 2544 2597 2384 2738 
Q 2169 2928 1744 2928 
Q 1347 2928 1158 2789 
Q 969 2650 878 2297 
L 328 2372 
Q 403 2725 575 2942 
Q 747 3159 1072 3276 
Q 1397 3394 1825 3394 
Q 2250 3394 2515 3294 
Q 2781 3194 2906 3042 
Q 3031 2891 3081 2659 
Q 3109 2516 3109 2141 
L 3109 1391 
Q 3109 606 3145 398 
Q 3181 191 3288 0 
L 2700 0 
Q 2613 175 2588 409 
z
M 2541 1666 
Q 2234 1541 1622 1453 
Q 1275 1403 1131 1340 
Q 988 1278 909 1158 
Q 831 1038 831 891 
Q 831 666 1001 516 
Q 1172 366 1500 366 
Q 1825 366 2078 508 
Q 2331 650 2450 897 
Q 2541 1088 2541 1459 
L 2541 1666 
z
" id="ArialMT-61" transform="scale(0.015625)"/>
      </defs>
      <use xlink:href="#ArialMT-49"/>
      <use x="27.783203" xlink:href="#ArialMT-6e"/>
      <use x="83.398438" xlink:href="#ArialMT-66"/>
      <use x="111.181641" xlink:href="#ArialMT-65"/>
      <use x="166.796875" xlink:href="#ArialMT-72"/>
      <use x="200.097656" xlink:href="#ArialMT-72"/>
      <use x="233.398438" xlink:href="#ArialMT-65"/>
      <use x="289.013672" xlink:href="#ArialMT-64"/>
      <use x="344.628906" xlink:href="#ArialMT-20"/>
      <use x="372.412109" xlink:href="#ArialMT-4d"/>
      <use x="455.712891" xlink:href="#ArialMT-61"/>
      <use x="511.328125" xlink:href="#ArialMT-73"/>
      <use x="561.328125" xlink:href="#ArialMT-73"/>
      <use x="611.328125" xlink:href="#ArialMT-65"/>
      <use x="666.943359" xlink:href="#ArialMT-73"/>
     </g>
    </g>
    <g id="line2d_51">
     <path d="M 268.696406 52.243281 
L 290.696406 52.243281 
" style="fill:none;stroke:#de8f05;stroke-linecap:round;stroke-width:1.5;"/>
    </g>
    <g id="line2d_52"/>
    <g id="text_10">
     <!-- Fit -->
     <g style="fill:#262626;" transform="translate(299.496406 56.093281)scale(0.11 -0.11)">
      <defs>
       <path d="M 525 0 
L 525 4581 
L 3616 4581 
L 3616 4041 
L 1131 4041 
L 1131 2622 
L 3281 2622 
L 3281 2081 
L 1131 2081 
L 1131 0 
L 525 0 
z
" id="ArialMT-46" transform="scale(0.015625)"/>
       <path d="M 425 3934 
L 425 4581 
L 988 4581 
L 988 3934 
L 425 3934 
z
M 425 0 
L 425 3319 
L 988 3319 
L 988 0 
L 425 0 
z
" id="ArialMT-69" transform="scale(0.015625)"/>
       <path d="M 1650 503 
L 1731 6 
Q 1494 -44 1306 -44 
Q 1000 -44 831 53 
Q 663 150 594 308 
Q 525 466 525 972 
L 525 2881 
L 113 2881 
L 113 3319 
L 525 3319 
L 525 4141 
L 1084 4478 
L 1084 3319 
L 1650 3319 
L 1650 2881 
L 1084 2881 
L 1084 941 
Q 1084 700 1114 631 
Q 1144 563 1211 522 
Q 1278 481 1403 481 
Q 1497 481 1650 503 
z
" id="ArialMT-74" transform="scale(0.015625)"/>
      </defs>
      <use xlink:href="#ArialMT-46"/>
      <use x="61.083984" xlink:href="#ArialMT-69"/>
      <use x="83.300781" xlink:href="#ArialMT-74"/>
     </g>
    </g>
   </g>
  </g>
 </g>
 <defs>
  <clipPath id="p6eaa9cb264">
   <rect height="217.44" width="334.8" x="53.454375" y="7.2"/>
  </clipPath>
 </defs>
</svg>
