<?xml version="1.0" encoding="utf-8" standalone="no"?>
<!DOCTYPE svg PUBLIC "-//W3C//DTD SVG 1.1//EN"
  "http://www.w3.org/Graphics/SVG/1.1/DTD/svg11.dtd">
<svg height="269.844375pt" version="1.1" viewBox="0 0 395.454375 269.844375" width="395.454375pt" xmlns="http://www.w3.org/2000/svg" xmlns:xlink="http://www.w3.org/1999/xlink">
 <metadata>
  <rdf:RDF xmlns:cc="http://creativecommons.org/ns#" xmlns:dc="http://purl.org/dc/elements/1.1/" xmlns:rdf="http://www.w3.org/1999/02/22-rdf-syntax-ns#">
   <cc:Work>
    <dc:type rdf:resource="http://purl.org/dc/dcmitype/StillImage"/>
    <dc:date>2021-11-30T12:25:36.356849</dc:date>
    <dc:format>image/svg+xml</dc:format>
    <dc:creator>
     <cc:Agent>
      <dc:title>Matplotlib v3.4.3, https://matplotlib.org/</dc:title>
     </cc:Agent>
    </dc:creator>
   </cc:Work>
  </rdf:RDF>
 </metadata>
 <defs>
  <style type="text/css">*{stroke-linecap:butt;stroke-linejoin:round;}</style>
 </defs>
 <g id="figure_1">
  <g id="patch_1">
   <path d="M 0 269.844375 
L 395.454375 269.844375 
L 395.454375 0 
L 0 0 
z
" style="fill:#ffffff;"/>
  </g>
  <g id="axes_1">
   <g id="patch_2">
    <path d="M 53.454375 224.64 
L 388.254375 224.64 
L 388.254375 7.2 
L 53.454375 7.2 
z
" style="fill:#ffffff;"/>
   </g>
   <g id="matplotlib.axis_1">
    <g id="xtick_1">
     <g id="line2d_1">
      <defs>
       <path d="M 0 0 
L 0 6 
" id="m3e50ad4b39" style="stroke:#262626;stroke-width:1.25;"/>
      </defs>
      <g>
       <use style="fill:#262626;stroke:#262626;stroke-width:1.25;" x="221.275166" xlink:href="#m3e50ad4b39" y="224.64"/>
      </g>
     </g>
     <g id="text_1">
      <!-- $\mathdefault{10^{2}}$ -->
      <g style="fill:#262626;" transform="translate(212.640166 245.48375)scale(0.11 -0.11)">
       <defs>
        <path d="M 2384 0 
L 1822 0 
L 1822 3584 
Q 1619 3391 1289 3197 
Q 959 3003 697 2906 
L 697 3450 
Q 1169 3672 1522 3987 
Q 1875 4303 2022 4600 
L 2384 4600 
L 2384 0 
z
" id="ArialMT-31" transform="scale(0.015625)"/>
        <path d="M 266 2259 
Q 266 3072 433 3567 
Q 600 4063 929 4331 
Q 1259 4600 1759 4600 
Q 2128 4600 2406 4451 
Q 2684 4303 2865 4023 
Q 3047 3744 3150 3342 
Q 3253 2941 3253 2259 
Q 3253 1453 3087 958 
Q 2922 463 2592 192 
Q 2263 -78 1759 -78 
Q 1097 -78 719 397 
Q 266 969 266 2259 
z
M 844 2259 
Q 844 1131 1108 757 
Q 1372 384 1759 384 
Q 2147 384 2411 759 
Q 2675 1134 2675 2259 
Q 2675 3391 2411 3762 
Q 2147 4134 1753 4134 
Q 1366 4134 1134 3806 
Q 844 3388 844 2259 
z
" id="ArialMT-30" transform="scale(0.015625)"/>
        <path d="M 3222 541 
L 3222 0 
L 194 0 
Q 188 203 259 391 
Q 375 700 629 1000 
Q 884 1300 1366 1694 
Q 2113 2306 2375 2664 
Q 2638 3022 2638 3341 
Q 2638 3675 2398 3904 
Q 2159 4134 1775 4134 
Q 1369 4134 1125 3890 
Q 881 3647 878 3216 
L 300 3275 
Q 359 3922 746 4261 
Q 1134 4600 1788 4600 
Q 2447 4600 2831 4234 
Q 3216 3869 3216 3328 
Q 3216 3053 3103 2787 
Q 2991 2522 2730 2228 
Q 2469 1934 1863 1422 
Q 1356 997 1212 845 
Q 1069 694 975 541 
L 3222 541 
z
" id="ArialMT-32" transform="scale(0.015625)"/>
       </defs>
       <use transform="translate(0 0.99375)" xlink:href="#ArialMT-31"/>
       <use transform="translate(55.615234 0.99375)" xlink:href="#ArialMT-30"/>
       <use transform="translate(112.972813 70.6875)scale(0.7)" xlink:href="#ArialMT-32"/>
      </g>
     </g>
    </g>
    <g id="xtick_2">
     <g id="line2d_2">
      <defs>
       <path d="M 0 0 
L 0 4 
" id="m8f9d5d2818" style="stroke:#262626;"/>
      </defs>
      <g>
       <use style="fill:#262626;stroke:#262626;" x="68.672557" xlink:href="#m8f9d5d2818" y="224.64"/>
      </g>
     </g>
    </g>
    <g id="xtick_3">
     <g id="line2d_3">
      <g>
       <use style="fill:#262626;stroke:#262626;" x="107.117677" xlink:href="#m8f9d5d2818" y="224.64"/>
      </g>
     </g>
    </g>
    <g id="xtick_4">
     <g id="line2d_4">
      <g>
       <use style="fill:#262626;stroke:#262626;" x="134.394923" xlink:href="#m8f9d5d2818" y="224.64"/>
      </g>
     </g>
    </g>
    <g id="xtick_5">
     <g id="line2d_5">
      <g>
       <use style="fill:#262626;stroke:#262626;" x="155.5528" xlink:href="#m8f9d5d2818" y="224.64"/>
      </g>
     </g>
    </g>
    <g id="xtick_6">
     <g id="line2d_6">
      <g>
       <use style="fill:#262626;stroke:#262626;" x="172.840043" xlink:href="#m8f9d5d2818" y="224.64"/>
      </g>
     </g>
    </g>
    <g id="xtick_7">
     <g id="line2d_7">
      <g>
       <use style="fill:#262626;stroke:#262626;" x="187.456199" xlink:href="#m8f9d5d2818" y="224.64"/>
      </g>
     </g>
    </g>
    <g id="xtick_8">
     <g id="line2d_8">
      <g>
       <use style="fill:#262626;stroke:#262626;" x="200.11729" xlink:href="#m8f9d5d2818" y="224.64"/>
      </g>
     </g>
    </g>
    <g id="xtick_9">
     <g id="line2d_9">
      <g>
       <use style="fill:#262626;stroke:#262626;" x="211.285163" xlink:href="#m8f9d5d2818" y="224.64"/>
      </g>
     </g>
    </g>
    <g id="xtick_10">
     <g id="line2d_10">
      <g>
       <use style="fill:#262626;stroke:#262626;" x="286.997533" xlink:href="#m8f9d5d2818" y="224.64"/>
      </g>
     </g>
    </g>
    <g id="xtick_11">
     <g id="line2d_11">
      <g>
       <use style="fill:#262626;stroke:#262626;" x="325.442652" xlink:href="#m8f9d5d2818" y="224.64"/>
      </g>
     </g>
    </g>
    <g id="xtick_12">
     <g id="line2d_12">
      <g>
       <use style="fill:#262626;stroke:#262626;" x="352.719899" xlink:href="#m8f9d5d2818" y="224.64"/>
      </g>
     </g>
    </g>
    <g id="xtick_13">
     <g id="line2d_13">
      <g>
       <use style="fill:#262626;stroke:#262626;" x="373.877775" xlink:href="#m8f9d5d2818" y="224.64"/>
      </g>
     </g>
    </g>
    <g id="text_2">
     <!-- $m / M_\odot$ -->
     <g style="fill:#262626;" transform="translate(202.434375 260.259375)scale(0.12 -0.12)">
      <defs>
       <path d="M 5747 2113 
L 5338 0 
L 4763 0 
L 5166 2094 
Q 5191 2228 5203 2325 
Q 5216 2422 5216 2491 
Q 5216 2772 5059 2928 
Q 4903 3084 4622 3084 
Q 4203 3084 3875 2770 
Q 3547 2456 3450 1953 
L 3066 0 
L 2491 0 
L 2900 2094 
Q 2925 2209 2937 2307 
Q 2950 2406 2950 2484 
Q 2950 2769 2794 2926 
Q 2638 3084 2363 3084 
Q 1938 3084 1609 2770 
Q 1281 2456 1184 1953 
L 800 0 
L 225 0 
L 909 3500 
L 1484 3500 
L 1375 2956 
Q 1609 3263 1923 3423 
Q 2238 3584 2597 3584 
Q 2978 3584 3223 3384 
Q 3469 3184 3519 2828 
Q 3781 3197 4126 3390 
Q 4472 3584 4856 3584 
Q 5306 3584 5551 3325 
Q 5797 3066 5797 2591 
Q 5797 2488 5784 2364 
Q 5772 2241 5747 2113 
z
" id="DejaVuSans-Oblique-6d" transform="scale(0.015625)"/>
       <path d="M 1625 4666 
L 2156 4666 
L 531 -594 
L 0 -594 
L 1625 4666 
z
" id="DejaVuSans-2f" transform="scale(0.015625)"/>
       <path d="M 1081 4666 
L 2028 4666 
L 2572 1522 
L 4378 4666 
L 5350 4666 
L 4441 0 
L 3828 0 
L 4622 4091 
L 2791 897 
L 2175 897 
L 1581 4103 
L 788 0 
L 172 0 
L 1081 4666 
z
" id="DejaVuSans-Oblique-4d" transform="scale(0.015625)"/>
       <path d="M 2350 2403 
L 3013 2403 
L 3013 1609 
L 2350 1609 
L 2350 2403 
z
M 3306 3522 
Q 3016 3644 2681 3644 
Q 2347 3644 2056 3522 
Q 1769 3400 1531 3163 
Q 1291 2922 1172 2634 
Q 1053 2347 1053 2006 
Q 1053 1675 1172 1387 
Q 1291 1100 1531 859 
Q 1769 622 2056 500 
Q 2347 378 2681 378 
Q 3016 378 3306 500 
Q 3594 622 3831 859 
Q 4072 1100 4190 1387 
Q 4309 1675 4309 2006 
Q 4309 2347 4190 2634 
Q 4072 2922 3831 3163 
Q 3594 3400 3306 3522 
z
M 1878 3956 
Q 2250 4113 2681 4113 
Q 3113 4113 3484 3956 
Q 3856 3800 4163 3494 
Q 4472 3184 4625 2813 
Q 4778 2444 4778 2006 
Q 4778 1578 4625 1206 
Q 4472 838 4163 528 
Q 3856 222 3484 65 
Q 3113 -91 2681 -91 
Q 2250 -91 1878 65 
Q 1506 222 1200 528 
Q 891 838 738 1206 
Q 584 1578 584 2006 
Q 584 2444 738 2813 
Q 891 3184 1200 3494 
Q 1506 3800 1878 3956 
z
" id="DejaVuSans-2299" transform="scale(0.015625)"/>
      </defs>
      <use transform="translate(0 0.09375)" xlink:href="#DejaVuSans-Oblique-6d"/>
      <use transform="translate(97.412109 0.09375)" xlink:href="#DejaVuSans-2f"/>
      <use transform="translate(131.103516 0.09375)" xlink:href="#DejaVuSans-Oblique-4d"/>
      <use transform="translate(231.020508 -16.3125)scale(0.7)" xlink:href="#DejaVuSans-2299"/>
     </g>
    </g>
   </g>
   <g id="matplotlib.axis_2">
    <g id="ytick_1">
     <g id="line2d_14">
      <defs>
       <path d="M 0 0 
L -6 0 
" id="meae92ebd44" style="stroke:#262626;stroke-width:1.25;"/>
      </defs>
      <g>
       <use style="fill:#262626;stroke:#262626;stroke-width:1.25;" x="53.454375" xlink:href="#meae92ebd44" y="224.64"/>
      </g>
     </g>
     <g id="text_3">
      <!-- $\mathdefault{10^{-1}}$ -->
      <g style="fill:#262626;" transform="translate(22.174375 230.311875)scale(0.11 -0.11)">
       <defs>
        <path d="M 3381 1997 
L 356 1997 
L 356 2522 
L 3381 2522 
L 3381 1997 
z
" id="ArialMT-2212" transform="scale(0.015625)"/>
       </defs>
       <use transform="translate(0 0.99375)" xlink:href="#ArialMT-31"/>
       <use transform="translate(55.615234 0.99375)" xlink:href="#ArialMT-30"/>
       <use transform="translate(112.972813 70.6875)scale(0.7)" xlink:href="#ArialMT-2212"/>
       <use transform="translate(153.851719 70.6875)scale(0.7)" xlink:href="#ArialMT-31"/>
      </g>
     </g>
    </g>
    <g id="ytick_2">
     <g id="line2d_15">
      <g>
       <use style="fill:#262626;stroke:#262626;stroke-width:1.25;" x="53.454375" xlink:href="#meae92ebd44" y="162.599172"/>
      </g>
     </g>
     <g id="text_4">
      <!-- $\mathdefault{10^{0}}$ -->
      <g style="fill:#262626;" transform="translate(26.684375 168.271047)scale(0.11 -0.11)">
       <use transform="translate(0 0.99375)" xlink:href="#ArialMT-31"/>
       <use transform="translate(55.615234 0.99375)" xlink:href="#ArialMT-30"/>
       <use transform="translate(112.972813 70.6875)scale(0.7)" xlink:href="#ArialMT-30"/>
      </g>
     </g>
    </g>
    <g id="ytick_3">
     <g id="line2d_16">
      <g>
       <use style="fill:#262626;stroke:#262626;stroke-width:1.25;" x="53.454375" xlink:href="#meae92ebd44" y="100.558345"/>
      </g>
     </g>
     <g id="text_5">
      <!-- $\mathdefault{10^{1}}$ -->
      <g style="fill:#262626;" transform="translate(26.684375 106.23022)scale(0.11 -0.11)">
       <use transform="translate(0 0.99375)" xlink:href="#ArialMT-31"/>
       <use transform="translate(55.615234 0.99375)" xlink:href="#ArialMT-30"/>
       <use transform="translate(112.972813 70.6875)scale(0.7)" xlink:href="#ArialMT-31"/>
      </g>
     </g>
    </g>
    <g id="ytick_4">
     <g id="line2d_17">
      <g>
       <use style="fill:#262626;stroke:#262626;stroke-width:1.25;" x="53.454375" xlink:href="#meae92ebd44" y="38.517517"/>
      </g>
     </g>
     <g id="text_6">
      <!-- $\mathdefault{10^{2}}$ -->
      <g style="fill:#262626;" transform="translate(26.684375 44.189392)scale(0.11 -0.11)">
       <use transform="translate(0 0.99375)" xlink:href="#ArialMT-31"/>
       <use transform="translate(55.615234 0.99375)" xlink:href="#ArialMT-30"/>
       <use transform="translate(112.972813 70.6875)scale(0.7)" xlink:href="#ArialMT-32"/>
      </g>
     </g>
    </g>
    <g id="ytick_5">
     <g id="line2d_18">
      <defs>
       <path d="M 0 0 
L -4 0 
" id="m110b1f0546" style="stroke:#262626;"/>
      </defs>
      <g>
       <use style="fill:#262626;stroke:#262626;" x="53.454375" xlink:href="#m110b1f0546" y="205.96385"/>
      </g>
     </g>
    </g>
    <g id="ytick_6">
     <g id="line2d_19">
      <g>
       <use style="fill:#262626;stroke:#262626;" x="53.454375" xlink:href="#m110b1f0546" y="195.039002"/>
      </g>
     </g>
    </g>
    <g id="ytick_7">
     <g id="line2d_20">
      <g>
       <use style="fill:#262626;stroke:#262626;" x="53.454375" xlink:href="#m110b1f0546" y="187.2877"/>
      </g>
     </g>
    </g>
    <g id="ytick_8">
     <g id="line2d_21">
      <g>
       <use style="fill:#262626;stroke:#262626;" x="53.454375" xlink:href="#m110b1f0546" y="181.275322"/>
      </g>
     </g>
    </g>
    <g id="ytick_9">
     <g id="line2d_22">
      <g>
       <use style="fill:#262626;stroke:#262626;" x="53.454375" xlink:href="#m110b1f0546" y="176.362852"/>
      </g>
     </g>
    </g>
    <g id="ytick_10">
     <g id="line2d_23">
      <g>
       <use style="fill:#262626;stroke:#262626;" x="53.454375" xlink:href="#m110b1f0546" y="172.209418"/>
      </g>
     </g>
    </g>
    <g id="ytick_11">
     <g id="line2d_24">
      <g>
       <use style="fill:#262626;stroke:#262626;" x="53.454375" xlink:href="#m110b1f0546" y="168.61155"/>
      </g>
     </g>
    </g>
    <g id="ytick_12">
     <g id="line2d_25">
      <g>
       <use style="fill:#262626;stroke:#262626;" x="53.454375" xlink:href="#m110b1f0546" y="165.438005"/>
      </g>
     </g>
    </g>
    <g id="ytick_13">
     <g id="line2d_26">
      <g>
       <use style="fill:#262626;stroke:#262626;" x="53.454375" xlink:href="#m110b1f0546" y="143.923022"/>
      </g>
     </g>
    </g>
    <g id="ytick_14">
     <g id="line2d_27">
      <g>
       <use style="fill:#262626;stroke:#262626;" x="53.454375" xlink:href="#m110b1f0546" y="132.998175"/>
      </g>
     </g>
    </g>
    <g id="ytick_15">
     <g id="line2d_28">
      <g>
       <use style="fill:#262626;stroke:#262626;" x="53.454375" xlink:href="#m110b1f0546" y="125.246872"/>
      </g>
     </g>
    </g>
    <g id="ytick_16">
     <g id="line2d_29">
      <g>
       <use style="fill:#262626;stroke:#262626;" x="53.454375" xlink:href="#m110b1f0546" y="119.234495"/>
      </g>
     </g>
    </g>
    <g id="ytick_17">
     <g id="line2d_30">
      <g>
       <use style="fill:#262626;stroke:#262626;" x="53.454375" xlink:href="#m110b1f0546" y="114.322025"/>
      </g>
     </g>
    </g>
    <g id="ytick_18">
     <g id="line2d_31">
      <g>
       <use style="fill:#262626;stroke:#262626;" x="53.454375" xlink:href="#m110b1f0546" y="110.16859"/>
      </g>
     </g>
    </g>
    <g id="ytick_19">
     <g id="line2d_32">
      <g>
       <use style="fill:#262626;stroke:#262626;" x="53.454375" xlink:href="#m110b1f0546" y="106.570722"/>
      </g>
     </g>
    </g>
    <g id="ytick_20">
     <g id="line2d_33">
      <g>
       <use style="fill:#262626;stroke:#262626;" x="53.454375" xlink:href="#m110b1f0546" y="103.397177"/>
      </g>
     </g>
    </g>
    <g id="ytick_21">
     <g id="line2d_34">
      <g>
       <use style="fill:#262626;stroke:#262626;" x="53.454375" xlink:href="#m110b1f0546" y="81.882194"/>
      </g>
     </g>
    </g>
    <g id="ytick_22">
     <g id="line2d_35">
      <g>
       <use style="fill:#262626;stroke:#262626;" x="53.454375" xlink:href="#m110b1f0546" y="70.957347"/>
      </g>
     </g>
    </g>
    <g id="ytick_23">
     <g id="line2d_36">
      <g>
       <use style="fill:#262626;stroke:#262626;" x="53.454375" xlink:href="#m110b1f0546" y="63.206044"/>
      </g>
     </g>
    </g>
    <g id="ytick_24">
     <g id="line2d_37">
      <g>
       <use style="fill:#262626;stroke:#262626;" x="53.454375" xlink:href="#m110b1f0546" y="57.193667"/>
      </g>
     </g>
    </g>
    <g id="ytick_25">
     <g id="line2d_38">
      <g>
       <use style="fill:#262626;stroke:#262626;" x="53.454375" xlink:href="#m110b1f0546" y="52.281197"/>
      </g>
     </g>
    </g>
    <g id="ytick_26">
     <g id="line2d_39">
      <g>
       <use style="fill:#262626;stroke:#262626;" x="53.454375" xlink:href="#m110b1f0546" y="48.127763"/>
      </g>
     </g>
    </g>
    <g id="ytick_27">
     <g id="line2d_40">
      <g>
       <use style="fill:#262626;stroke:#262626;" x="53.454375" xlink:href="#m110b1f0546" y="44.529894"/>
      </g>
     </g>
    </g>
    <g id="ytick_28">
     <g id="line2d_41">
      <g>
       <use style="fill:#262626;stroke:#262626;" x="53.454375" xlink:href="#m110b1f0546" y="41.356349"/>
      </g>
     </g>
    </g>
    <g id="ytick_29">
     <g id="line2d_42">
      <g>
       <use style="fill:#262626;stroke:#262626;" x="53.454375" xlink:href="#m110b1f0546" y="19.841367"/>
      </g>
     </g>
    </g>
    <g id="ytick_30">
     <g id="line2d_43">
      <g>
       <use style="fill:#262626;stroke:#262626;" x="53.454375" xlink:href="#m110b1f0546" y="8.916519"/>
      </g>
     </g>
    </g>
    <g id="text_7">
     <!-- $m \mathrm{d} N / \mathrm{d} m$ -->
     <g style="fill:#262626;" transform="translate(15.789375 141.78)rotate(-90)scale(0.12 -0.12)">
      <defs>
       <path d="M 2906 2969 
L 2906 4863 
L 3481 4863 
L 3481 0 
L 2906 0 
L 2906 525 
Q 2725 213 2448 61 
Q 2172 -91 1784 -91 
Q 1150 -91 751 415 
Q 353 922 353 1747 
Q 353 2572 751 3078 
Q 1150 3584 1784 3584 
Q 2172 3584 2448 3432 
Q 2725 3281 2906 2969 
z
M 947 1747 
Q 947 1113 1208 752 
Q 1469 391 1925 391 
Q 2381 391 2643 752 
Q 2906 1113 2906 1747 
Q 2906 2381 2643 2742 
Q 2381 3103 1925 3103 
Q 1469 3103 1208 2742 
Q 947 2381 947 1747 
z
" id="DejaVuSans-64" transform="scale(0.015625)"/>
       <path d="M 1081 4666 
L 1931 4666 
L 3219 666 
L 4000 4666 
L 4616 4666 
L 3706 0 
L 2853 0 
L 1569 4025 
L 788 0 
L 172 0 
L 1081 4666 
z
" id="DejaVuSans-Oblique-4e" transform="scale(0.015625)"/>
      </defs>
      <use transform="translate(0 0.015625)" xlink:href="#DejaVuSans-Oblique-6d"/>
      <use transform="translate(97.412109 0.015625)" xlink:href="#DejaVuSans-64"/>
      <use transform="translate(160.888672 0.015625)" xlink:href="#DejaVuSans-Oblique-4e"/>
      <use transform="translate(235.693359 0.015625)" xlink:href="#DejaVuSans-2f"/>
      <use transform="translate(269.384766 0.015625)" xlink:href="#DejaVuSans-64"/>
      <use transform="translate(332.861328 0.015625)" xlink:href="#DejaVuSans-Oblique-6d"/>
     </g>
    </g>
   </g>
   <g id="PolyCollection_1">
    <defs>
     <path d="M 68.672557 -251.932774 
L 68.672557 -258.459458 
L 69.62073 -257.936399 
L 70.568903 -257.435694 
L 71.517077 -256.927773 
L 72.46525 -256.415912 
L 73.413423 -255.918837 
L 74.361597 -255.418749 
L 75.30977 -254.953162 
L 76.257943 -254.448231 
L 77.206117 -253.968568 
L 78.15429 -253.480511 
L 79.102463 -252.972151 
L 80.050637 -252.46859 
L 80.99881 -251.966097 
L 81.946983 -251.448917 
L 82.895157 -250.940661 
L 83.84333 -250.44318 
L 84.791503 -249.940228 
L 85.739677 -249.443671 
L 86.68785 -248.946457 
L 87.636023 -248.425131 
L 88.584197 -247.904542 
L 89.53237 -247.393861 
L 90.480543 -246.896993 
L 91.428717 -246.389002 
L 92.37689 -245.898978 
L 93.325063 -245.385782 
L 94.273237 -244.896333 
L 95.22141 -244.385294 
L 96.169583 -243.887728 
L 97.117756 -243.383819 
L 98.06593 -242.902756 
L 99.014103 -242.420431 
L 99.962276 -241.945213 
L 100.91045 -241.449588 
L 101.858623 -240.946321 
L 102.806796 -240.446884 
L 103.75497 -239.954192 
L 104.703143 -239.46114 
L 105.651316 -238.980023 
L 106.59949 -238.486992 
L 107.547663 -237.989478 
L 108.495836 -237.498304 
L 109.44401 -237.000763 
L 110.392183 -236.513121 
L 111.340356 -236.030275 
L 112.28853 -235.528301 
L 113.236703 -235.019762 
L 114.184876 -234.517887 
L 115.13305 -234.04556 
L 116.081223 -233.574331 
L 117.029396 -233.088827 
L 117.97757 -232.604506 
L 118.925743 -232.129821 
L 119.873916 -231.659362 
L 120.82209 -231.190845 
L 121.770263 -230.709698 
L 122.718436 -230.217745 
L 123.666609 -229.733178 
L 124.614783 -229.26876 
L 125.562956 -228.820589 
L 126.511129 -228.338588 
L 127.459303 -227.868971 
L 128.407476 -227.390273 
L 129.355649 -226.89695 
L 130.303823 -226.425487 
L 131.251996 -225.958651 
L 132.200169 -225.495769 
L 133.148343 -225.031835 
L 134.096516 -224.557657 
L 135.044689 -224.104909 
L 135.992863 -223.632762 
L 136.941036 -223.165865 
L 137.889209 -222.694931 
L 138.837383 -222.224727 
L 139.785556 -221.766977 
L 140.733729 -221.297065 
L 141.681903 -220.845895 
L 142.630076 -220.375992 
L 143.578249 -219.932464 
L 144.526423 -219.457622 
L 145.474596 -219.010617 
L 146.422769 -218.533971 
L 147.370943 -218.061998 
L 148.319116 -217.609857 
L 149.267289 -217.162196 
L 150.215463 -216.696015 
L 151.163636 -216.238603 
L 152.111809 -215.777189 
L 153.059982 -215.304754 
L 154.008156 -214.848395 
L 154.956329 -214.377895 
L 155.904502 -213.922011 
L 156.852676 -213.447459 
L 157.800849 -212.987781 
L 158.749022 -212.521434 
L 159.697196 -212.049775 
L 160.645369 -211.578539 
L 161.593542 -211.117758 
L 162.541716 -210.641708 
L 163.489889 -210.195639 
L 164.438062 -209.738113 
L 165.386236 -209.299018 
L 166.334409 -208.860214 
L 167.282582 -208.407452 
L 168.230756 -207.968749 
L 169.178929 -207.539198 
L 170.127102 -207.082974 
L 171.075276 -206.646271 
L 172.023449 -206.194842 
L 172.971622 -205.748516 
L 173.919796 -205.311423 
L 174.867969 -204.867112 
L 175.816142 -204.39366 
L 176.764316 -203.944981 
L 177.712489 -203.486331 
L 178.660662 -203.038208 
L 179.608835 -202.597316 
L 180.557009 -202.153832 
L 181.505182 -201.704806 
L 182.453355 -201.255809 
L 183.401529 -200.810703 
L 184.349702 -200.38552 
L 185.297875 -199.933 
L 186.246049 -199.480385 
L 187.194222 -199.028245 
L 188.142395 -198.582477 
L 189.090569 -198.117552 
L 190.038742 -197.658024 
L 190.986915 -197.191962 
L 191.935089 -196.735931 
L 192.883262 -196.280103 
L 193.831435 -195.835953 
L 194.779609 -195.383023 
L 195.727782 -194.926308 
L 196.675955 -194.464368 
L 197.624129 -194.006917 
L 198.572302 -193.562553 
L 199.520475 -193.121759 
L 200.468649 -192.698474 
L 201.416822 -192.268649 
L 202.364995 -191.826173 
L 203.313169 -191.371328 
L 204.261342 -190.930413 
L 205.209515 -190.483187 
L 206.157689 -190.050765 
L 207.105862 -189.619292 
L 208.054035 -189.174916 
L 209.002208 -188.726476 
L 209.950382 -188.295371 
L 210.898555 -187.868167 
L 211.846728 -187.417665 
L 212.794902 -186.965236 
L 213.743075 -186.517788 
L 214.691248 -186.086572 
L 215.639422 -185.644174 
L 216.587595 -185.189216 
L 217.535768 -184.7649 
L 218.483942 -184.304164 
L 219.432115 -183.864365 
L 220.380288 -183.426234 
L 221.328462 -182.990882 
L 222.276635 -182.545506 
L 223.224808 -182.094765 
L 224.172982 -181.644038 
L 225.121155 -181.193857 
L 226.069328 -180.750023 
L 227.017502 -180.29039 
L 227.965675 -179.842631 
L 228.913848 -179.395037 
L 229.862022 -178.943712 
L 230.810195 -178.498068 
L 231.758368 -178.04709 
L 232.706542 -177.61075 
L 233.654715 -177.171291 
L 234.602888 -176.738321 
L 235.551061 -176.293713 
L 236.499235 -175.857829 
L 237.447408 -175.42699 
L 238.395581 -174.988028 
L 239.343755 -174.543843 
L 240.291928 -174.099163 
L 241.240101 -173.654819 
L 242.188275 -173.21164 
L 243.136448 -172.764259 
L 244.084621 -172.321868 
L 245.032795 -171.869401 
L 245.980968 -171.421436 
L 246.929141 -170.980386 
L 247.877315 -170.540568 
L 248.825488 -170.104881 
L 249.773661 -169.662364 
L 250.721835 -169.216519 
L 251.670008 -168.769392 
L 252.618181 -168.325775 
L 253.566355 -167.892445 
L 254.514528 -167.446778 
L 255.462701 -167.004914 
L 256.410875 -166.564525 
L 257.359048 -166.123977 
L 258.307221 -165.691358 
L 259.255395 -165.258711 
L 260.203568 -164.835204 
L 261.151741 -164.40683 
L 262.099915 -163.97061 
L 263.048088 -163.540677 
L 263.996261 -163.111247 
L 264.944434 -162.668031 
L 265.892608 -162.236197 
L 266.840781 -161.80583 
L 267.788954 -161.36968 
L 268.737128 -160.929632 
L 269.685301 -160.489432 
L 270.633474 -160.045067 
L 271.581648 -159.613392 
L 272.529821 -159.180926 
L 273.477994 -158.756431 
L 274.426168 -158.324258 
L 275.374341 -157.886582 
L 276.322514 -157.44515 
L 277.270688 -157.007755 
L 278.218861 -156.562204 
L 279.167034 -156.109565 
L 280.115208 -155.66773 
L 281.063381 -155.229636 
L 282.011554 -154.791469 
L 282.959728 -154.353303 
L 283.907901 -153.905902 
L 284.856074 -153.456539 
L 285.804248 -153.021508 
L 286.752421 -152.570236 
L 287.700594 -152.133364 
L 288.648768 -151.703944 
L 289.596941 -151.257006 
L 290.545114 -150.822342 
L 291.493287 -150.39239 
L 292.441461 -149.959701 
L 293.389634 -149.532312 
L 294.337807 -149.105948 
L 295.285981 -148.671065 
L 296.234154 -148.23285 
L 297.182327 -147.79847 
L 298.130501 -147.357268 
L 299.078674 -146.919441 
L 300.026847 -146.480785 
L 300.975021 -146.03547 
L 301.923194 -145.588733 
L 302.871367 -145.151725 
L 303.819541 -144.717763 
L 304.767714 -144.279131 
L 305.715887 -143.835832 
L 306.664061 -143.398055 
L 307.612234 -142.960278 
L 308.560407 -142.529032 
L 309.508581 -142.102037 
L 310.456754 -141.661653 
L 311.404927 -141.219517 
L 312.353101 -140.776806 
L 313.301274 -140.334613 
L 314.249447 -139.893806 
L 315.197621 -139.453416 
L 316.145794 -139.013048 
L 317.093967 -138.591936 
L 318.042141 -138.168773 
L 318.990314 -137.734387 
L 319.938487 -137.297437 
L 320.88666 -136.871006 
L 321.834834 -136.423621 
L 322.783007 -135.986131 
L 323.73118 -135.547755 
L 324.679354 -135.117121 
L 325.627527 -134.676945 
L 326.5757 -134.23385 
L 327.523874 -133.795846 
L 328.472047 -133.359291 
L 329.42022 -132.922087 
L 330.368394 -132.484358 
L 331.316567 -132.05482 
L 332.26474 -131.626008 
L 333.212914 -131.18914 
L 334.161087 -130.755547 
L 335.10926 -130.330965 
L 336.057434 -129.904243 
L 337.005607 -129.470671 
L 337.95378 -129.032011 
L 338.901954 -128.591034 
L 339.850127 -128.14921 
L 340.7983 -127.707387 
L 341.746474 -127.270047 
L 342.694647 -126.838194 
L 343.64282 -126.396391 
L 344.590994 -125.954511 
L 345.539167 -125.5114 
L 346.48734 -125.065645 
L 347.435513 -124.61986 
L 348.383687 -124.174076 
L 349.33186 -123.73093 
L 350.280033 -123.290597 
L 351.228207 -122.849854 
L 352.17638 -122.407701 
L 353.124553 -121.966365 
L 354.072727 -121.525385 
L 355.0209 -121.084405 
L 355.969073 -120.643425 
L 356.917247 -120.202445 
L 357.86542 -119.761465 
L 358.813593 -119.320485 
L 359.761767 -118.879505 
L 360.70994 -118.440633 
L 361.658113 -118.011708 
L 362.606287 -117.57926 
L 363.55446 -117.128757 
L 364.502633 -116.698221 
L 365.450807 -116.262816 
L 366.39898 -115.825449 
L 367.347153 -115.388082 
L 368.295327 -114.949247 
L 369.2435 -114.50999 
L 370.191673 -114.070733 
L 371.139847 -113.631475 
L 372.08802 -113.192011 
L 373.036193 -112.75098 
L 373.036193 -90.747589 
L 373.036193 -90.747589 
L 372.08802 -91.266058 
L 371.139847 -91.784527 
L 370.191673 -92.299284 
L 369.2435 -92.806736 
L 368.295327 -93.317264 
L 367.347153 -93.832756 
L 366.39898 -94.349909 
L 365.450807 -94.868674 
L 364.502633 -95.387438 
L 363.55446 -95.911748 
L 362.606287 -96.432611 
L 361.658113 -96.953477 
L 360.70994 -97.481275 
L 359.761767 -98.006157 
L 358.813593 -98.524709 
L 357.86542 -99.045381 
L 356.917247 -99.566054 
L 355.969073 -100.085545 
L 355.0209 -100.60208 
L 354.072727 -101.117704 
L 353.124553 -101.638486 
L 352.17638 -102.152572 
L 351.228207 -102.664515 
L 350.280033 -103.166798 
L 349.33186 -103.674291 
L 348.383687 -104.184573 
L 347.435513 -104.711828 
L 346.48734 -105.240274 
L 345.539167 -105.768806 
L 344.590994 -106.292107 
L 343.64282 -106.808376 
L 342.694647 -107.324647 
L 341.746474 -107.847277 
L 340.7983 -108.370469 
L 339.850127 -108.893661 
L 338.901954 -109.416717 
L 337.95378 -109.934748 
L 337.005607 -110.45278 
L 336.057434 -110.962943 
L 335.10926 -111.472618 
L 334.161087 -111.991975 
L 333.212914 -112.51998 
L 332.26474 -113.048236 
L 331.316567 -113.567828 
L 330.368394 -114.086921 
L 329.42022 -114.602644 
L 328.472047 -115.120113 
L 327.523874 -115.645542 
L 326.5757 -116.163893 
L 325.627527 -116.682243 
L 324.679354 -117.202484 
L 323.73118 -117.727654 
L 322.783007 -118.253706 
L 321.834834 -118.76591 
L 320.88666 -119.286632 
L 319.938487 -119.804368 
L 318.990314 -120.321256 
L 318.042141 -120.840173 
L 317.093967 -121.360923 
L 316.145794 -121.871918 
L 315.197621 -122.390504 
L 314.249447 -122.907605 
L 313.301274 -123.421023 
L 312.353101 -123.937441 
L 311.404927 -124.46067 
L 310.456754 -124.9774 
L 309.508581 -125.492822 
L 308.560407 -126.008244 
L 307.612234 -126.523667 
L 306.664061 -127.038408 
L 305.715887 -127.553627 
L 304.767714 -128.070472 
L 303.819541 -128.584536 
L 302.871367 -129.098923 
L 301.923194 -129.612513 
L 300.975021 -130.117022 
L 300.026847 -130.637124 
L 299.078674 -131.157071 
L 298.130501 -131.672508 
L 297.182327 -132.187946 
L 296.234154 -132.703383 
L 295.285981 -133.220309 
L 294.337807 -133.739922 
L 293.389634 -134.250281 
L 292.441461 -134.763146 
L 291.493287 -135.272818 
L 290.545114 -135.785252 
L 289.596941 -136.300565 
L 288.648768 -136.819952 
L 287.700594 -137.342317 
L 286.752421 -137.856263 
L 285.804248 -138.371583 
L 284.856074 -138.888629 
L 283.907901 -139.409236 
L 282.959728 -139.931599 
L 282.011554 -140.448331 
L 281.063381 -140.964 
L 280.115208 -141.480884 
L 279.167034 -141.997886 
L 278.218861 -142.512098 
L 277.270688 -143.032089 
L 276.322514 -143.55131 
L 275.374341 -144.066615 
L 274.426168 -144.581921 
L 273.477994 -145.097998 
L 272.529821 -145.612932 
L 271.581648 -146.127839 
L 270.633474 -146.643145 
L 269.685301 -147.15927 
L 268.737128 -147.674274 
L 267.788954 -148.193136 
L 266.840781 -148.718906 
L 265.892608 -149.238988 
L 264.944434 -149.762195 
L 263.996261 -150.2804 
L 263.048088 -150.798956 
L 262.099915 -151.314273 
L 261.151741 -151.829832 
L 260.203568 -152.345878 
L 259.255395 -152.862856 
L 258.307221 -153.376013 
L 257.359048 -153.891909 
L 256.410875 -154.409675 
L 255.462701 -154.927026 
L 254.514528 -155.444089 
L 253.566355 -155.963048 
L 252.618181 -156.486108 
L 251.670008 -157.004923 
L 250.721835 -157.511258 
L 249.773661 -158.026968 
L 248.825488 -158.546314 
L 247.877315 -159.074561 
L 246.929141 -159.584347 
L 245.980968 -160.093645 
L 245.032795 -160.592418 
L 244.084621 -161.100264 
L 243.136448 -161.617023 
L 242.188275 -162.133407 
L 241.240101 -162.645415 
L 240.291928 -163.162157 
L 239.343755 -163.672675 
L 238.395581 -164.1997 
L 237.447408 -164.717575 
L 236.499235 -165.234333 
L 235.551061 -165.745093 
L 234.602888 -166.245836 
L 233.654715 -166.758102 
L 232.706542 -167.280534 
L 231.758368 -167.798586 
L 230.810195 -168.302206 
L 229.862022 -168.825775 
L 228.913848 -169.349343 
L 227.965675 -169.865863 
L 227.017502 -170.357705 
L 226.069328 -170.864014 
L 225.121155 -171.38863 
L 224.172982 -171.912131 
L 223.224808 -172.417849 
L 222.276635 -172.928551 
L 221.328462 -173.447134 
L 220.380288 -173.965822 
L 219.432115 -174.4799 
L 218.483942 -174.988095 
L 217.535768 -175.515383 
L 216.587595 -176.019042 
L 215.639422 -176.518022 
L 214.691248 -177.029972 
L 213.743075 -177.549618 
L 212.794902 -178.072252 
L 211.846728 -178.586336 
L 210.898555 -179.099579 
L 209.950382 -179.610874 
L 209.002208 -180.136949 
L 208.054035 -180.655986 
L 207.105862 -181.169512 
L 206.157689 -181.68662 
L 205.209515 -182.195836 
L 204.261342 -182.70903 
L 203.313169 -183.234838 
L 202.364995 -183.763434 
L 201.416822 -184.27165 
L 200.468649 -184.799562 
L 199.520475 -185.319858 
L 198.572302 -185.838653 
L 197.624129 -186.342214 
L 196.675955 -186.853725 
L 195.727782 -187.380001 
L 194.779609 -187.901827 
L 193.831435 -188.410286 
L 192.883262 -188.938056 
L 191.935089 -189.449205 
L 190.986915 -189.967457 
L 190.038742 -190.483434 
L 189.090569 -190.986632 
L 188.142395 -191.485375 
L 187.194222 -191.996668 
L 186.246049 -192.495318 
L 185.297875 -193.000805 
L 184.349702 -193.501141 
L 183.401529 -194.006122 
L 182.453355 -194.505722 
L 181.505182 -195.02162 
L 180.557009 -195.526043 
L 179.608835 -196.029625 
L 178.660662 -196.541012 
L 177.712489 -197.055012 
L 176.764316 -197.568762 
L 175.816142 -198.083052 
L 174.867969 -198.595028 
L 173.919796 -199.096662 
L 172.971622 -199.586241 
L 172.023449 -200.085625 
L 171.075276 -200.591864 
L 170.127102 -201.097311 
L 169.178929 -201.620397 
L 168.230756 -202.134297 
L 167.282582 -202.655629 
L 166.334409 -203.140437 
L 165.386236 -203.629722 
L 164.438062 -204.145103 
L 163.489889 -204.637514 
L 162.541716 -205.156205 
L 161.593542 -205.659024 
L 160.645369 -206.152256 
L 159.697196 -206.653531 
L 158.749022 -207.143342 
L 157.800849 -207.633976 
L 156.852676 -208.140081 
L 155.904502 -208.642924 
L 154.956329 -209.118837 
L 154.008156 -209.616909 
L 153.059982 -210.112237 
L 152.111809 -210.610271 
L 151.163636 -211.111819 
L 150.215463 -211.597594 
L 149.267289 -212.089901 
L 148.319116 -212.578611 
L 147.370943 -213.080127 
L 146.422769 -213.558202 
L 145.474596 -214.058498 
L 144.526423 -214.549779 
L 143.578249 -215.028432 
L 142.630076 -215.51189 
L 141.681903 -216.026203 
L 140.733729 -216.514053 
L 139.785556 -217.012864 
L 138.837383 -217.484487 
L 137.889209 -217.955882 
L 136.941036 -218.435996 
L 135.992863 -218.930638 
L 135.044689 -219.415358 
L 134.096516 -219.885907 
L 133.148343 -220.359517 
L 132.200169 -220.858116 
L 131.251996 -221.312633 
L 130.303823 -221.786698 
L 129.355649 -222.288563 
L 128.407476 -222.781221 
L 127.459303 -223.237938 
L 126.511129 -223.695641 
L 125.562956 -224.165219 
L 124.614783 -224.652265 
L 123.666609 -225.134048 
L 122.718436 -225.611363 
L 121.770263 -226.091407 
L 120.82209 -226.572186 
L 119.873916 -227.068734 
L 118.925743 -227.571158 
L 117.97757 -228.069659 
L 117.029396 -228.534494 
L 116.081223 -229.015769 
L 115.13305 -229.488401 
L 114.184876 -229.9649 
L 113.236703 -230.440782 
L 112.28853 -230.903638 
L 111.340356 -231.378484 
L 110.392183 -231.853981 
L 109.44401 -232.315206 
L 108.495836 -232.813316 
L 107.547663 -233.287586 
L 106.59949 -233.751355 
L 105.651316 -234.223025 
L 104.703143 -234.669592 
L 103.75497 -235.126087 
L 102.806796 -235.585497 
L 101.858623 -236.046178 
L 100.91045 -236.499244 
L 99.962276 -236.979652 
L 99.014103 -237.43808 
L 98.06593 -237.902939 
L 97.117756 -238.348202 
L 96.169583 -238.814693 
L 95.22141 -239.262617 
L 94.273237 -239.71 
L 93.325063 -240.133784 
L 92.37689 -240.593824 
L 91.428717 -241.03358 
L 90.480543 -241.487987 
L 89.53237 -241.947844 
L 88.584197 -242.419114 
L 87.636023 -242.881574 
L 86.68785 -243.350636 
L 85.739677 -243.812174 
L 84.791503 -244.251036 
L 83.84333 -244.711862 
L 82.895157 -245.153754 
L 81.946983 -245.601654 
L 80.99881 -246.047364 
L 80.050637 -246.502585 
L 79.102463 -246.970068 
L 78.15429 -247.434623 
L 77.206117 -247.886811 
L 76.257943 -248.321622 
L 75.30977 -248.788861 
L 74.361597 -249.216543 
L 73.413423 -249.674677 
L 72.46525 -250.124929 
L 71.517077 -250.578005 
L 70.568903 -251.029589 
L 69.62073 -251.477662 
L 68.672557 -251.932774 
z
" id="md1efd81ec3" style="stroke:#0173b2;stroke-opacity:0.25;"/>
    </defs>
    <g clip-path="url(#p469f2f2dbc)">
     <use style="fill:#0173b2;fill-opacity:0.25;stroke:#0173b2;stroke-opacity:0.25;" x="0" xlink:href="#md1efd81ec3" y="269.844375"/>
    </g>
   </g>
   <g id="PolyCollection_2">
    <defs>
     <path d="M 68.672557 -248.900624 
L 68.672557 -261.329773 
L 69.62073 -260.797894 
L 70.568903 -260.25268 
L 71.517077 -259.745401 
L 72.46525 -259.226122 
L 73.413423 -258.684123 
L 74.361597 -258.158653 
L 75.30977 -257.662458 
L 76.257943 -257.096626 
L 77.206117 -256.583722 
L 78.15429 -256.0404 
L 79.102463 -255.482921 
L 80.050637 -254.925027 
L 80.99881 -254.38682 
L 81.946983 -253.846674 
L 82.895157 -253.322439 
L 83.84333 -252.791418 
L 84.791503 -252.284161 
L 85.739677 -251.778029 
L 86.68785 -251.292145 
L 87.636023 -250.796644 
L 88.584197 -250.301144 
L 89.53237 -249.803985 
L 90.480543 -249.284198 
L 91.428717 -248.738323 
L 92.37689 -248.24981 
L 93.325063 -247.735936 
L 94.273237 -247.225823 
L 95.22141 -246.734989 
L 96.169583 -246.244345 
L 97.117756 -245.726534 
L 98.06593 -245.193436 
L 99.014103 -244.702679 
L 99.962276 -244.189903 
L 100.91045 -243.686474 
L 101.858623 -243.194081 
L 102.806796 -242.701727 
L 103.75497 -242.212085 
L 104.703143 -241.701219 
L 105.651316 -241.169775 
L 106.59949 -240.688565 
L 107.547663 -240.168633 
L 108.495836 -239.646872 
L 109.44401 -239.144772 
L 110.392183 -238.654591 
L 111.340356 -238.160605 
L 112.28853 -237.680351 
L 113.236703 -237.215835 
L 114.184876 -236.75066 
L 115.13305 -236.281159 
L 116.081223 -235.788941 
L 117.029396 -235.257509 
L 117.97757 -234.818304 
L 118.925743 -234.345483 
L 119.873916 -233.852609 
L 120.82209 -233.390066 
L 121.770263 -232.907914 
L 122.718436 -232.402043 
L 123.666609 -231.941141 
L 124.614783 -231.455824 
L 125.562956 -230.967561 
L 126.511129 -230.501567 
L 127.459303 -230.012655 
L 128.407476 -229.522945 
L 129.355649 -229.033235 
L 130.303823 -228.584335 
L 131.251996 -228.119514 
L 132.200169 -227.665982 
L 133.148343 -227.234456 
L 134.096516 -226.775278 
L 135.044689 -226.332683 
L 135.992863 -225.857696 
L 136.941036 -225.420678 
L 137.889209 -224.94158 
L 138.837383 -224.46208 
L 139.785556 -223.981545 
L 140.733729 -223.497815 
L 141.681903 -223.019049 
L 142.630076 -222.539743 
L 143.578249 -222.073732 
L 144.526423 -221.614388 
L 145.474596 -221.127799 
L 146.422769 -220.643051 
L 147.370943 -220.182207 
L 148.319116 -219.711177 
L 149.267289 -219.305204 
L 150.215463 -218.900685 
L 151.163636 -218.456748 
L 152.111809 -218.046499 
L 153.059982 -217.609384 
L 154.008156 -217.168477 
L 154.956329 -216.726184 
L 155.904502 -216.301286 
L 156.852676 -215.864663 
L 157.800849 -215.419014 
L 158.749022 -215.01812 
L 159.697196 -214.573041 
L 160.645369 -214.112486 
L 161.593542 -213.651935 
L 162.541716 -213.25631 
L 163.489889 -212.867696 
L 164.438062 -212.478902 
L 165.386236 -212.077161 
L 166.334409 -211.624231 
L 167.282582 -211.171011 
L 168.230756 -210.718596 
L 169.178929 -210.308483 
L 170.127102 -209.84893 
L 171.075276 -209.387957 
L 172.023449 -208.945009 
L 172.971622 -208.500266 
L 173.919796 -208.046886 
L 174.867969 -207.616671 
L 175.816142 -207.18623 
L 176.764316 -206.7686 
L 177.712489 -206.351768 
L 178.660662 -205.92959 
L 179.608835 -205.516357 
L 180.557009 -205.085575 
L 181.505182 -204.665918 
L 182.453355 -204.264509 
L 183.401529 -203.867802 
L 184.349702 -203.434398 
L 185.297875 -203.001088 
L 186.246049 -202.56954 
L 187.194222 -202.160948 
L 188.142395 -201.74835 
L 189.090569 -201.309046 
L 190.038742 -200.869564 
L 190.986915 -200.430082 
L 191.935089 -199.990558 
L 192.883262 -199.550302 
L 193.831435 -199.118908 
L 194.779609 -198.701815 
L 195.727782 -198.294986 
L 196.675955 -197.874327 
L 197.624129 -197.470763 
L 198.572302 -197.065966 
L 199.520475 -196.661668 
L 200.468649 -196.255664 
L 201.416822 -195.804794 
L 202.364995 -195.406046 
L 203.313169 -194.96761 
L 204.261342 -194.560019 
L 205.209515 -194.151941 
L 206.157689 -193.715195 
L 207.105862 -193.283681 
L 208.054035 -192.873863 
L 209.002208 -192.434896 
L 209.950382 -191.995929 
L 210.898555 -191.556962 
L 211.846728 -191.117995 
L 212.794902 -190.679028 
L 213.743075 -190.240062 
L 214.691248 -189.820004 
L 215.639422 -189.426947 
L 216.587595 -189.009608 
L 217.535768 -188.579406 
L 218.483942 -188.151314 
L 219.432115 -187.737872 
L 220.380288 -187.291915 
L 221.328462 -186.854565 
L 222.276635 -186.432046 
L 223.224808 -186.037889 
L 224.172982 -185.625223 
L 225.121155 -185.177394 
L 226.069328 -184.773788 
L 227.017502 -184.392971 
L 227.965675 -184.012155 
L 228.913848 -183.622299 
L 229.862022 -183.202946 
L 230.810195 -182.790468 
L 231.758368 -182.377752 
L 232.706542 -181.965037 
L 233.654715 -181.552322 
L 234.602888 -181.130358 
L 235.551061 -180.704481 
L 236.499235 -180.278605 
L 237.447408 -179.852729 
L 238.395581 -179.426853 
L 239.343755 -179.000977 
L 240.291928 -178.575087 
L 241.240101 -178.164761 
L 242.188275 -177.755412 
L 243.136448 -177.346063 
L 244.084621 -176.91336 
L 245.032795 -176.476014 
L 245.980968 -176.038668 
L 246.929141 -175.601322 
L 247.877315 -175.166497 
L 248.825488 -174.74396 
L 249.773661 -174.331296 
L 250.721835 -173.935496 
L 251.670008 -173.546889 
L 252.618181 -173.169941 
L 253.566355 -172.792994 
L 254.514528 -172.416048 
L 255.462701 -172.034129 
L 256.410875 -171.626106 
L 257.359048 -171.217029 
L 258.307221 -170.799849 
L 259.255395 -170.396258 
L 260.203568 -169.991253 
L 261.151741 -169.582613 
L 262.099915 -169.173908 
L 263.048088 -168.768911 
L 263.996261 -168.363345 
L 264.944434 -167.948402 
L 265.892608 -167.540134 
L 266.840781 -167.131866 
L 267.788954 -166.723598 
L 268.737128 -166.315331 
L 269.685301 -165.907063 
L 270.633474 -165.498796 
L 271.581648 -165.089743 
L 272.529821 -164.68038 
L 273.477994 -164.271018 
L 274.426168 -163.856981 
L 275.374341 -163.419116 
L 276.322514 -162.996863 
L 277.270688 -162.584589 
L 278.218861 -162.172314 
L 279.167034 -161.76004 
L 280.115208 -161.347766 
L 281.063381 -160.935491 
L 282.011554 -160.523217 
L 282.959728 -160.110943 
L 283.907901 -159.698669 
L 284.856074 -159.286394 
L 285.804248 -158.87412 
L 286.752421 -158.465713 
L 287.700594 -158.083459 
L 288.648768 -157.700863 
L 289.596941 -157.285053 
L 290.545114 -156.858748 
L 291.493287 -156.454058 
L 292.441461 -156.043792 
L 293.389634 -155.616598 
L 294.337807 -155.188963 
L 295.285981 -154.761328 
L 296.234154 -154.339104 
L 297.182327 -153.92683 
L 298.130501 -153.514556 
L 299.078674 -153.102282 
L 300.026847 -152.690008 
L 300.975021 -152.277734 
L 301.923194 -151.869756 
L 302.871367 -151.462155 
L 303.819541 -151.054555 
L 304.767714 -150.646954 
L 305.715887 -150.239353 
L 306.664061 -149.831752 
L 307.612234 -149.424152 
L 308.560407 -149.016551 
L 309.508581 -148.60895 
L 310.456754 -148.201349 
L 311.404927 -147.801096 
L 312.353101 -147.40235 
L 313.301274 -147.003604 
L 314.249447 -146.604858 
L 315.197621 -146.206112 
L 316.145794 -145.807366 
L 317.093967 -145.408621 
L 318.042141 -145.009875 
L 318.990314 -144.61113 
L 319.938487 -144.212385 
L 320.88666 -143.813639 
L 321.834834 -143.414894 
L 322.783007 -143.016149 
L 323.73118 -142.614097 
L 324.679354 -142.205739 
L 325.627527 -141.797381 
L 326.5757 -141.389024 
L 327.523874 -140.980666 
L 328.472047 -140.572308 
L 329.42022 -140.163951 
L 330.368394 -139.755594 
L 331.316567 -139.347236 
L 332.26474 -138.938879 
L 333.212914 -138.530522 
L 334.161087 -138.121698 
L 335.10926 -137.712819 
L 336.057434 -137.30394 
L 337.005607 -136.895061 
L 337.95378 -136.486182 
L 338.901954 -136.077303 
L 339.850127 -135.668424 
L 340.7983 -135.26621 
L 341.746474 -134.861119 
L 342.694647 -134.46022 
L 343.64282 -134.05361 
L 344.590994 -133.652797 
L 345.539167 -133.23505 
L 346.48734 -132.831469 
L 347.435513 -132.43234 
L 348.383687 -132.03321 
L 349.33186 -131.634081 
L 350.280033 -131.234952 
L 351.228207 -130.835823 
L 352.17638 -130.436694 
L 353.124553 -130.037565 
L 354.072727 -129.638435 
L 355.0209 -129.239306 
L 355.969073 -128.840177 
L 356.917247 -128.441048 
L 357.86542 -128.040943 
L 358.813593 -127.640151 
L 359.761767 -127.23936 
L 360.70994 -126.838569 
L 361.658113 -126.437778 
L 362.606287 -126.036986 
L 363.55446 -125.636195 
L 364.502633 -125.235404 
L 365.450807 -124.834612 
L 366.39898 -124.433821 
L 367.347153 -124.03303 
L 368.295327 -123.632239 
L 369.2435 -123.231447 
L 370.191673 -122.830361 
L 371.139847 -122.423248 
L 372.08802 -122.018837 
L 373.036193 -121.622588 
L 373.036193 -79.722561 
L 373.036193 -79.722561 
L 372.08802 -80.289884 
L 371.139847 -80.857206 
L 370.191673 -81.424529 
L 369.2435 -81.991852 
L 368.295327 -82.545764 
L 367.347153 -83.094594 
L 366.39898 -83.643424 
L 365.450807 -84.192255 
L 364.502633 -84.741085 
L 363.55446 -85.289916 
L 362.606287 -85.848275 
L 361.658113 -86.407899 
L 360.70994 -86.967803 
L 359.761767 -87.527707 
L 358.813593 -88.087611 
L 357.86542 -88.647515 
L 356.917247 -89.20742 
L 355.969073 -89.767324 
L 355.0209 -90.327228 
L 354.072727 -90.886986 
L 353.124553 -91.446437 
L 352.17638 -92.005889 
L 351.228207 -92.56534 
L 350.280033 -93.124792 
L 349.33186 -93.684244 
L 348.383687 -94.243696 
L 347.435513 -94.803148 
L 346.48734 -95.362601 
L 345.539167 -95.922054 
L 344.590994 -96.481507 
L 343.64282 -97.04096 
L 342.694647 -97.600414 
L 341.746474 -98.159867 
L 340.7983 -98.719321 
L 339.850127 -99.278776 
L 338.901954 -99.83823 
L 337.95378 -100.392129 
L 337.005607 -100.943616 
L 336.057434 -101.495103 
L 335.10926 -102.04659 
L 334.161087 -102.598078 
L 333.212914 -103.150337 
L 332.26474 -103.702878 
L 331.316567 -104.25542 
L 330.368394 -104.807964 
L 329.42022 -105.360508 
L 328.472047 -105.913054 
L 327.523874 -106.465601 
L 326.5757 -107.018149 
L 325.627527 -107.575835 
L 324.679354 -108.161614 
L 323.73118 -108.747395 
L 322.783007 -109.333176 
L 321.834834 -109.91824 
L 320.88666 -110.477882 
L 319.938487 -111.037523 
L 318.990314 -111.597165 
L 318.042141 -112.156806 
L 317.093967 -112.716448 
L 316.145794 -113.27609 
L 315.197621 -113.835732 
L 314.249447 -114.395374 
L 313.301274 -114.935247 
L 312.353101 -115.471076 
L 311.404927 -116.007166 
L 310.456754 -116.54336 
L 309.508581 -117.079554 
L 308.560407 -117.61575 
L 307.612234 -118.151946 
L 306.664061 -118.688144 
L 305.715887 -119.253771 
L 304.767714 -119.819172 
L 303.819541 -120.384574 
L 302.871367 -120.949978 
L 301.923194 -121.515383 
L 300.975021 -122.081142 
L 300.026847 -122.647076 
L 299.078674 -123.213009 
L 298.130501 -123.774658 
L 297.182327 -124.325338 
L 296.234154 -124.876017 
L 295.285981 -125.426697 
L 294.337807 -125.977377 
L 293.389634 -126.528056 
L 292.441461 -127.078736 
L 291.493287 -127.629415 
L 290.545114 -128.180095 
L 289.596941 -128.730968 
L 288.648768 -129.282042 
L 287.700594 -129.833118 
L 286.752421 -130.384193 
L 285.804248 -130.935269 
L 284.856074 -131.486345 
L 283.907901 -132.037646 
L 282.959728 -132.589054 
L 282.011554 -133.140463 
L 281.063381 -133.699065 
L 280.115208 -134.279198 
L 279.167034 -134.831316 
L 278.218861 -135.376233 
L 277.270688 -135.921337 
L 276.322514 -136.487747 
L 275.374341 -137.054765 
L 274.426168 -137.613165 
L 273.477994 -138.136938 
L 272.529821 -138.657529 
L 271.581648 -139.197983 
L 270.633474 -139.748484 
L 269.685301 -140.298985 
L 268.737128 -140.849486 
L 267.788954 -141.399988 
L 266.840781 -141.950489 
L 265.892608 -142.50099 
L 264.944434 -143.051491 
L 263.996261 -143.601993 
L 263.048088 -144.152494 
L 262.099915 -144.702996 
L 261.151741 -145.253497 
L 260.203568 -145.803999 
L 259.255395 -146.354781 
L 258.307221 -146.905706 
L 257.359048 -147.456631 
L 256.410875 -148.007555 
L 255.462701 -148.55848 
L 254.514528 -149.109405 
L 253.566355 -149.66033 
L 252.618181 -150.211256 
L 251.670008 -150.761866 
L 250.721835 -151.317124 
L 249.773661 -151.873244 
L 248.825488 -152.421717 
L 247.877315 -152.978605 
L 246.929141 -153.548247 
L 245.980968 -154.11789 
L 245.032795 -154.687558 
L 244.084621 -155.257258 
L 243.136448 -155.821463 
L 242.188275 -156.369886 
L 241.240101 -156.912206 
L 240.291928 -157.454527 
L 239.343755 -157.996848 
L 238.395581 -158.539169 
L 237.447408 -159.057205 
L 236.499235 -159.573242 
L 235.551061 -160.1227 
L 234.602888 -160.677366 
L 233.654715 -161.227475 
L 232.706542 -161.786938 
L 231.758368 -162.325153 
L 230.810195 -162.875682 
L 229.862022 -163.41963 
L 228.913848 -163.970109 
L 227.965675 -164.527714 
L 227.017502 -165.078155 
L 226.069328 -165.628596 
L 225.121155 -166.179085 
L 224.172982 -166.729683 
L 223.224808 -167.280281 
L 222.276635 -167.83088 
L 221.328462 -168.381478 
L 220.380288 -168.917845 
L 219.432115 -169.45364 
L 218.483942 -169.987692 
L 217.535768 -170.520351 
L 216.587595 -171.060575 
L 215.639422 -171.584627 
L 214.691248 -172.116688 
L 213.743075 -172.649047 
L 212.794902 -173.1816 
L 211.846728 -173.719778 
L 210.898555 -174.261639 
L 209.950382 -174.803501 
L 209.002208 -175.344086 
L 208.054035 -175.888153 
L 207.105862 -176.430095 
L 206.157689 -176.972393 
L 205.209515 -177.514305 
L 204.261342 -178.055921 
L 203.313169 -178.574304 
L 202.364995 -179.139805 
L 201.416822 -179.681769 
L 200.468649 -180.223943 
L 199.520475 -180.766116 
L 198.572302 -181.30829 
L 197.624129 -181.808184 
L 196.675955 -182.352131 
L 195.727782 -182.885019 
L 194.779609 -183.389359 
L 193.831435 -183.958321 
L 192.883262 -184.529841 
L 191.935089 -185.07435 
L 190.986915 -185.618859 
L 190.038742 -186.163369 
L 189.090569 -186.707878 
L 188.142395 -187.252388 
L 187.194222 -187.796897 
L 186.246049 -188.341408 
L 185.297875 -188.886526 
L 184.349702 -189.431832 
L 183.401529 -189.977139 
L 182.453355 -190.512426 
L 181.505182 -191.025393 
L 180.557009 -191.582167 
L 179.608835 -192.114543 
L 178.660662 -192.647859 
L 177.712489 -193.181174 
L 176.764316 -193.714491 
L 175.816142 -194.247984 
L 174.867969 -194.782254 
L 173.919796 -195.315103 
L 172.971622 -195.846489 
L 172.023449 -196.381073 
L 171.075276 -196.914389 
L 170.127102 -197.452815 
L 169.178929 -197.997403 
L 168.230756 -198.541314 
L 167.282582 -199.086084 
L 166.334409 -199.630855 
L 165.386236 -200.1771 
L 164.438062 -200.728468 
L 163.489889 -201.270843 
L 162.541716 -201.806538 
L 161.593542 -202.330651 
L 160.645369 -202.852542 
L 159.697196 -203.394469 
L 158.749022 -203.966995 
L 157.800849 -204.494025 
L 156.852676 -204.994556 
L 155.904502 -205.52063 
L 154.956329 -206.009324 
L 154.008156 -206.562773 
L 153.059982 -207.067012 
L 152.111809 -207.615273 
L 151.163636 -208.128285 
L 150.215463 -208.660274 
L 149.267289 -209.192556 
L 148.319116 -209.707216 
L 147.370943 -210.248955 
L 146.422769 -210.772582 
L 145.474596 -211.273102 
L 144.526423 -211.766968 
L 143.578249 -212.267232 
L 142.630076 -212.754702 
L 141.681903 -213.269509 
L 140.733729 -213.808108 
L 139.785556 -214.335318 
L 138.837383 -214.832433 
L 137.889209 -215.358012 
L 136.941036 -215.891054 
L 135.992863 -216.401981 
L 135.044689 -216.915724 
L 134.096516 -217.43528 
L 133.148343 -217.921124 
L 132.200169 -218.422911 
L 131.251996 -218.910179 
L 130.303823 -219.354959 
L 129.355649 -219.831627 
L 128.407476 -220.320031 
L 127.459303 -220.835499 
L 126.511129 -221.333661 
L 125.562956 -221.809427 
L 124.614783 -222.295474 
L 123.666609 -222.821584 
L 122.718436 -223.320732 
L 121.770263 -223.797941 
L 120.82209 -224.274342 
L 119.873916 -224.735734 
L 118.925743 -225.207172 
L 117.97757 -225.692682 
L 117.029396 -226.172876 
L 116.081223 -226.651515 
L 115.13305 -227.105652 
L 114.184876 -227.553264 
L 113.236703 -228.021443 
L 112.28853 -228.45886 
L 111.340356 -228.949809 
L 110.392183 -229.41621 
L 109.44401 -229.845689 
L 108.495836 -230.338274 
L 107.547663 -230.715956 
L 106.59949 -231.127846 
L 105.651316 -231.587542 
L 104.703143 -232.0192 
L 103.75497 -232.498517 
L 102.806796 -232.95346 
L 101.858623 -233.428532 
L 100.91045 -233.863632 
L 99.962276 -234.333074 
L 99.014103 -234.798978 
L 98.06593 -235.2827 
L 97.117756 -235.71304 
L 96.169583 -236.154817 
L 95.22141 -236.595245 
L 94.273237 -237.017183 
L 93.325063 -237.486593 
L 92.37689 -237.914738 
L 91.428717 -238.353194 
L 90.480543 -238.773538 
L 89.53237 -239.193733 
L 88.584197 -239.62513 
L 87.636023 -240.053204 
L 86.68785 -240.491636 
L 85.739677 -240.990081 
L 84.791503 -241.392659 
L 83.84333 -241.826241 
L 82.895157 -242.243812 
L 81.946983 -242.664535 
L 80.99881 -243.084964 
L 80.050637 -243.53365 
L 79.102463 -243.985827 
L 78.15429 -244.438211 
L 77.206117 -244.890596 
L 76.257943 -245.34298 
L 75.30977 -245.776458 
L 74.361597 -246.224568 
L 73.413423 -246.672466 
L 72.46525 -247.079798 
L 71.517077 -247.542942 
L 70.568903 -248.001291 
L 69.62073 -248.466037 
L 68.672557 -248.900624 
z
" id="m1f98606c0a" style="stroke:#0173b2;stroke-opacity:0.25;"/>
    </defs>
    <g clip-path="url(#p469f2f2dbc)">
     <use style="fill:#0173b2;fill-opacity:0.25;stroke:#0173b2;stroke-opacity:0.25;" x="0" xlink:href="#m1f98606c0a" y="269.844375"/>
    </g>
   </g>
   <g id="line2d_44">
    <path clip-path="url(#p469f2f2dbc)" d="M 68.672557 12.552244 
L 73.413423 14.509131 
L 79.102463 17.100388 
L 91.428717 23.057257 
L 103.75497 28.872399 
L 117.029396 35.113125 
L 122.718436 38.017992 
L 127.459303 40.653085 
L 132.200169 43.52854 
L 136.941036 46.655347 
L 142.630076 50.700139 
L 151.163636 57.10928 
L 157.800849 62.012228 
L 162.541716 65.224156 
L 166.334409 67.492609 
L 169.178929 68.968059 
L 172.023449 70.224621 
L 174.867969 71.252758 
L 177.712489 72.057503 
L 180.557009 72.658382 
L 184.349702 73.198641 
L 189.090569 73.593939 
L 199.520475 74.327064 
L 203.313169 74.834226 
L 207.105862 75.581477 
L 210.898555 76.613478 
L 214.691248 77.9512 
L 218.483942 79.586461 
L 222.276635 81.477504 
L 227.965675 84.620231 
L 235.551061 88.825882 
L 240.291928 91.177367 
L 245.032795 93.278266 
L 253.566355 96.959653 
L 257.359048 98.861601 
L 260.203568 100.493284 
L 263.048088 102.332304 
L 265.892608 104.390252 
L 269.685301 107.466793 
L 273.477994 110.882737 
L 278.218861 115.5314 
L 282.959728 120.497049 
L 287.700594 125.753546 
L 291.493287 130.235 
L 295.285981 135.079251 
L 298.130501 139.035034 
L 300.975021 143.33751 
L 303.819541 148.047729 
L 306.664061 153.221416 
L 309.508581 158.907334 
L 312.353101 165.146782 
L 315.197621 171.973877 
L 318.042141 179.416269 
L 320.88666 187.49605 
L 323.73118 196.23068 
L 326.5757 205.633851 
L 329.42022 215.716239 
L 332.26474 226.48613 
L 335.10926 237.94994 
L 338.901954 254.322849 
L 342.463572 270.844375 
L 342.463572 270.844375 
" style="fill:none;stroke:#000000;stroke-linecap:round;stroke-width:1.5;"/>
   </g>
   <g id="line2d_45">
    <path clip-path="url(#p469f2f2dbc)" d="M 68.672557 14.604749 
L 139.785556 50.413024 
L 150.215463 55.7054 
L 188.142395 74.801053 
L 194.779609 78.132023 
L 215.639422 88.582842 
L 373.036193 167.592233 
L 373.036193 167.592233 
" style="fill:none;stroke:#0173b2;stroke-linecap:round;stroke-width:1.5;"/>
   </g>
   <g id="patch_3">
    <path d="M 53.454375 224.64 
L 53.454375 7.2 
" style="fill:none;stroke:#262626;stroke-linecap:square;stroke-linejoin:miter;stroke-width:1.25;"/>
   </g>
   <g id="patch_4">
    <path d="M 388.254375 224.64 
L 388.254375 7.2 
" style="fill:none;stroke:#262626;stroke-linecap:square;stroke-linejoin:miter;stroke-width:1.25;"/>
   </g>
   <g id="patch_5">
    <path d="M 53.454375 224.64 
L 388.254375 224.64 
" style="fill:none;stroke:#262626;stroke-linecap:square;stroke-linejoin:miter;stroke-width:1.25;"/>
   </g>
   <g id="patch_6">
    <path d="M 53.454375 7.2 
L 388.254375 7.2 
" style="fill:none;stroke:#262626;stroke-linecap:square;stroke-linejoin:miter;stroke-width:1.25;"/>
   </g>
   <g id="legend_1">
    <g id="patch_7">
     <path d="M 297.667656 47.119687 
L 380.554375 47.119687 
Q 382.754375 47.119687 382.754375 44.919687 
L 382.754375 14.9 
Q 382.754375 12.7 380.554375 12.7 
L 297.667656 12.7 
Q 295.467656 12.7 295.467656 14.9 
L 295.467656 44.919687 
Q 295.467656 47.119687 297.667656 47.119687 
z
" style="fill:#ffffff;opacity:0.8;stroke:#cccccc;stroke-linejoin:miter;"/>
    </g>
    <g id="line2d_46">
     <path d="M 299.867656 21.123594 
L 321.867656 21.123594 
" style="fill:none;stroke:#000000;stroke-linecap:round;stroke-width:1.5;"/>
    </g>
    <g id="line2d_47"/>
    <g id="text_8">
     <!-- Observed -->
     <g style="fill:#262626;" transform="translate(330.667656 24.973594)scale(0.11 -0.11)">
      <defs>
       <path d="M 309 2231 
Q 309 3372 921 4017 
Q 1534 4663 2503 4663 
Q 3138 4663 3647 4359 
Q 4156 4056 4423 3514 
Q 4691 2972 4691 2284 
Q 4691 1588 4409 1038 
Q 4128 488 3612 205 
Q 3097 -78 2500 -78 
Q 1853 -78 1343 234 
Q 834 547 571 1087 
Q 309 1628 309 2231 
z
M 934 2222 
Q 934 1394 1379 917 
Q 1825 441 2497 441 
Q 3181 441 3623 922 
Q 4066 1403 4066 2288 
Q 4066 2847 3877 3264 
Q 3688 3681 3323 3911 
Q 2959 4141 2506 4141 
Q 1863 4141 1398 3698 
Q 934 3256 934 2222 
z
" id="ArialMT-4f" transform="scale(0.015625)"/>
       <path d="M 941 0 
L 419 0 
L 419 4581 
L 981 4581 
L 981 2947 
Q 1338 3394 1891 3394 
Q 2197 3394 2470 3270 
Q 2744 3147 2920 2923 
Q 3097 2700 3197 2384 
Q 3297 2069 3297 1709 
Q 3297 856 2875 390 
Q 2453 -75 1863 -75 
Q 1275 -75 941 416 
L 941 0 
z
M 934 1684 
Q 934 1088 1097 822 
Q 1363 388 1816 388 
Q 2184 388 2453 708 
Q 2722 1028 2722 1663 
Q 2722 2313 2464 2622 
Q 2206 2931 1841 2931 
Q 1472 2931 1203 2611 
Q 934 2291 934 1684 
z
" id="ArialMT-62" transform="scale(0.015625)"/>
       <path d="M 197 991 
L 753 1078 
Q 800 744 1014 566 
Q 1228 388 1613 388 
Q 2000 388 2187 545 
Q 2375 703 2375 916 
Q 2375 1106 2209 1216 
Q 2094 1291 1634 1406 
Q 1016 1563 777 1677 
Q 538 1791 414 1992 
Q 291 2194 291 2438 
Q 291 2659 392 2848 
Q 494 3038 669 3163 
Q 800 3259 1026 3326 
Q 1253 3394 1513 3394 
Q 1903 3394 2198 3281 
Q 2494 3169 2634 2976 
Q 2775 2784 2828 2463 
L 2278 2388 
Q 2241 2644 2061 2787 
Q 1881 2931 1553 2931 
Q 1166 2931 1000 2803 
Q 834 2675 834 2503 
Q 834 2394 903 2306 
Q 972 2216 1119 2156 
Q 1203 2125 1616 2013 
Q 2213 1853 2448 1751 
Q 2684 1650 2818 1456 
Q 2953 1263 2953 975 
Q 2953 694 2789 445 
Q 2625 197 2315 61 
Q 2006 -75 1616 -75 
Q 969 -75 630 194 
Q 291 463 197 991 
z
" id="ArialMT-73" transform="scale(0.015625)"/>
       <path d="M 2694 1069 
L 3275 997 
Q 3138 488 2766 206 
Q 2394 -75 1816 -75 
Q 1088 -75 661 373 
Q 234 822 234 1631 
Q 234 2469 665 2931 
Q 1097 3394 1784 3394 
Q 2450 3394 2872 2941 
Q 3294 2488 3294 1666 
Q 3294 1616 3291 1516 
L 816 1516 
Q 847 969 1125 678 
Q 1403 388 1819 388 
Q 2128 388 2347 550 
Q 2566 713 2694 1069 
z
M 847 1978 
L 2700 1978 
Q 2663 2397 2488 2606 
Q 2219 2931 1791 2931 
Q 1403 2931 1139 2672 
Q 875 2413 847 1978 
z
" id="ArialMT-65" transform="scale(0.015625)"/>
       <path d="M 416 0 
L 416 3319 
L 922 3319 
L 922 2816 
Q 1116 3169 1280 3281 
Q 1444 3394 1641 3394 
Q 1925 3394 2219 3213 
L 2025 2691 
Q 1819 2813 1613 2813 
Q 1428 2813 1281 2702 
Q 1134 2591 1072 2394 
Q 978 2094 978 1738 
L 978 0 
L 416 0 
z
" id="ArialMT-72" transform="scale(0.015625)"/>
       <path d="M 1344 0 
L 81 3319 
L 675 3319 
L 1388 1331 
Q 1503 1009 1600 663 
Q 1675 925 1809 1294 
L 2547 3319 
L 3125 3319 
L 1869 0 
L 1344 0 
z
" id="ArialMT-76" transform="scale(0.015625)"/>
       <path d="M 2575 0 
L 2575 419 
Q 2259 -75 1647 -75 
Q 1250 -75 917 144 
Q 584 363 401 755 
Q 219 1147 219 1656 
Q 219 2153 384 2558 
Q 550 2963 881 3178 
Q 1213 3394 1622 3394 
Q 1922 3394 2156 3267 
Q 2391 3141 2538 2938 
L 2538 4581 
L 3097 4581 
L 3097 0 
L 2575 0 
z
M 797 1656 
Q 797 1019 1065 703 
Q 1334 388 1700 388 
Q 2069 388 2326 689 
Q 2584 991 2584 1609 
Q 2584 2291 2321 2609 
Q 2059 2928 1675 2928 
Q 1300 2928 1048 2622 
Q 797 2316 797 1656 
z
" id="ArialMT-64" transform="scale(0.015625)"/>
      </defs>
      <use xlink:href="#ArialMT-4f"/>
      <use x="77.783203" xlink:href="#ArialMT-62"/>
      <use x="133.398438" xlink:href="#ArialMT-73"/>
      <use x="183.398438" xlink:href="#ArialMT-65"/>
      <use x="239.013672" xlink:href="#ArialMT-72"/>
      <use x="272.314453" xlink:href="#ArialMT-76"/>
      <use x="322.314453" xlink:href="#ArialMT-65"/>
      <use x="377.929688" xlink:href="#ArialMT-64"/>
     </g>
    </g>
    <g id="line2d_48">
     <path d="M 299.867656 36.683437 
L 321.867656 36.683437 
" style="fill:none;stroke:#0173b2;stroke-linecap:round;stroke-width:1.5;"/>
    </g>
    <g id="line2d_49"/>
    <g id="text_9">
     <!-- Fit -->
     <g style="fill:#262626;" transform="translate(330.667656 40.533437)scale(0.11 -0.11)">
      <defs>
       <path d="M 525 0 
L 525 4581 
L 3616 4581 
L 3616 4041 
L 1131 4041 
L 1131 2622 
L 3281 2622 
L 3281 2081 
L 1131 2081 
L 1131 0 
L 525 0 
z
" id="ArialMT-46" transform="scale(0.015625)"/>
       <path d="M 425 3934 
L 425 4581 
L 988 4581 
L 988 3934 
L 425 3934 
z
M 425 0 
L 425 3319 
L 988 3319 
L 988 0 
L 425 0 
z
" id="ArialMT-69" transform="scale(0.015625)"/>
       <path d="M 1650 503 
L 1731 6 
Q 1494 -44 1306 -44 
Q 1000 -44 831 53 
Q 663 150 594 308 
Q 525 466 525 972 
L 525 2881 
L 113 2881 
L 113 3319 
L 525 3319 
L 525 4141 
L 1084 4478 
L 1084 3319 
L 1650 3319 
L 1650 2881 
L 1084 2881 
L 1084 941 
Q 1084 700 1114 631 
Q 1144 563 1211 522 
Q 1278 481 1403 481 
Q 1497 481 1650 503 
z
" id="ArialMT-74" transform="scale(0.015625)"/>
      </defs>
      <use xlink:href="#ArialMT-46"/>
      <use x="61.083984" xlink:href="#ArialMT-69"/>
      <use x="83.300781" xlink:href="#ArialMT-74"/>
     </g>
    </g>
   </g>
  </g>
 </g>
 <defs>
  <clipPath id="p469f2f2dbc">
   <rect height="217.44" width="334.8" x="53.454375" y="7.2"/>
  </clipPath>
 </defs>
</svg>
