<?xml version="1.0" encoding="utf-8" standalone="no"?>
<!DOCTYPE svg PUBLIC "-//W3C//DTD SVG 1.1//EN"
  "http://www.w3.org/Graphics/SVG/1.1/DTD/svg11.dtd">
<svg height="266.374219pt" version="1.1" viewBox="0 0 386.216094 266.374219" width="386.216094pt" xmlns="http://www.w3.org/2000/svg" xmlns:xlink="http://www.w3.org/1999/xlink">
 <metadata>
  <rdf:RDF xmlns:cc="http://creativecommons.org/ns#" xmlns:dc="http://purl.org/dc/elements/1.1/" xmlns:rdf="http://www.w3.org/1999/02/22-rdf-syntax-ns#">
   <cc:Work>
    <dc:type rdf:resource="http://purl.org/dc/dcmitype/StillImage"/>
    <dc:date>2021-09-14T17:33:46.243733</dc:date>
    <dc:format>image/svg+xml</dc:format>
    <dc:creator>
     <cc:Agent>
      <dc:title>Matplotlib v3.4.3, https://matplotlib.org/</dc:title>
     </cc:Agent>
    </dc:creator>
   </cc:Work>
  </rdf:RDF>
 </metadata>
 <defs>
  <style type="text/css">*{stroke-linecap:butt;stroke-linejoin:round;}</style>
 </defs>
 <g id="figure_1">
  <g id="patch_1">
   <path d="M 0 266.374219 
L 386.216094 266.374219 
L 386.216094 0 
L 0 0 
z
" style="fill:#ffffff;"/>
  </g>
  <g id="axes_1">
   <g id="patch_2">
    <path d="M 44.216094 224.64 
L 379.016094 224.64 
L 379.016094 7.2 
L 44.216094 7.2 
z
" style="fill:#ffffff;"/>
   </g>
   <g id="matplotlib.axis_1">
    <g id="xtick_1">
     <g id="line2d_1">
      <defs>
       <path d="M 0 0 
L 0 6 
" id="mab6e7d6325" style="stroke:#262626;stroke-width:1.25;"/>
      </defs>
      <g>
       <use style="fill:#262626;stroke:#262626;stroke-width:1.25;" x="59.434276" xlink:href="#mab6e7d6325" y="224.64"/>
      </g>
     </g>
     <g id="text_1">
      <!-- −1.00 -->
      <g style="fill:#262626;" transform="translate(45.518416 242.013594)scale(0.11 -0.11)">
       <defs>
        <path d="M 3381 1997 
L 356 1997 
L 356 2522 
L 3381 2522 
L 3381 1997 
z
" id="ArialMT-2212" transform="scale(0.015625)"/>
        <path d="M 2384 0 
L 1822 0 
L 1822 3584 
Q 1619 3391 1289 3197 
Q 959 3003 697 2906 
L 697 3450 
Q 1169 3672 1522 3987 
Q 1875 4303 2022 4600 
L 2384 4600 
L 2384 0 
z
" id="ArialMT-31" transform="scale(0.015625)"/>
        <path d="M 581 0 
L 581 641 
L 1222 641 
L 1222 0 
L 581 0 
z
" id="ArialMT-2e" transform="scale(0.015625)"/>
        <path d="M 266 2259 
Q 266 3072 433 3567 
Q 600 4063 929 4331 
Q 1259 4600 1759 4600 
Q 2128 4600 2406 4451 
Q 2684 4303 2865 4023 
Q 3047 3744 3150 3342 
Q 3253 2941 3253 2259 
Q 3253 1453 3087 958 
Q 2922 463 2592 192 
Q 2263 -78 1759 -78 
Q 1097 -78 719 397 
Q 266 969 266 2259 
z
M 844 2259 
Q 844 1131 1108 757 
Q 1372 384 1759 384 
Q 2147 384 2411 759 
Q 2675 1134 2675 2259 
Q 2675 3391 2411 3762 
Q 2147 4134 1753 4134 
Q 1366 4134 1134 3806 
Q 844 3388 844 2259 
z
" id="ArialMT-30" transform="scale(0.015625)"/>
       </defs>
       <use xlink:href="#ArialMT-2212"/>
       <use x="58.398438" xlink:href="#ArialMT-31"/>
       <use x="114.013672" xlink:href="#ArialMT-2e"/>
       <use x="141.796875" xlink:href="#ArialMT-30"/>
       <use x="197.412109" xlink:href="#ArialMT-30"/>
      </g>
     </g>
    </g>
    <g id="xtick_2">
     <g id="line2d_2">
      <g>
       <use style="fill:#262626;stroke:#262626;stroke-width:1.25;" x="97.47973" xlink:href="#mab6e7d6325" y="224.64"/>
      </g>
     </g>
     <g id="text_2">
      <!-- −0.75 -->
      <g style="fill:#262626;" transform="translate(83.563871 242.013594)scale(0.11 -0.11)">
       <defs>
        <path d="M 303 3981 
L 303 4522 
L 3269 4522 
L 3269 4084 
Q 2831 3619 2401 2847 
Q 1972 2075 1738 1259 
Q 1569 684 1522 0 
L 944 0 
Q 953 541 1156 1306 
Q 1359 2072 1739 2783 
Q 2119 3494 2547 3981 
L 303 3981 
z
" id="ArialMT-37" transform="scale(0.015625)"/>
        <path d="M 266 1200 
L 856 1250 
Q 922 819 1161 601 
Q 1400 384 1738 384 
Q 2144 384 2425 690 
Q 2706 997 2706 1503 
Q 2706 1984 2436 2262 
Q 2166 2541 1728 2541 
Q 1456 2541 1237 2417 
Q 1019 2294 894 2097 
L 366 2166 
L 809 4519 
L 3088 4519 
L 3088 3981 
L 1259 3981 
L 1013 2750 
Q 1425 3038 1878 3038 
Q 2478 3038 2890 2622 
Q 3303 2206 3303 1553 
Q 3303 931 2941 478 
Q 2500 -78 1738 -78 
Q 1113 -78 717 272 
Q 322 622 266 1200 
z
" id="ArialMT-35" transform="scale(0.015625)"/>
       </defs>
       <use xlink:href="#ArialMT-2212"/>
       <use x="58.398438" xlink:href="#ArialMT-30"/>
       <use x="114.013672" xlink:href="#ArialMT-2e"/>
       <use x="141.796875" xlink:href="#ArialMT-37"/>
       <use x="197.412109" xlink:href="#ArialMT-35"/>
      </g>
     </g>
    </g>
    <g id="xtick_3">
     <g id="line2d_3">
      <g>
       <use style="fill:#262626;stroke:#262626;stroke-width:1.25;" x="135.525185" xlink:href="#mab6e7d6325" y="224.64"/>
      </g>
     </g>
     <g id="text_3">
      <!-- −0.50 -->
      <g style="fill:#262626;" transform="translate(121.609325 242.013594)scale(0.11 -0.11)">
       <use xlink:href="#ArialMT-2212"/>
       <use x="58.398438" xlink:href="#ArialMT-30"/>
       <use x="114.013672" xlink:href="#ArialMT-2e"/>
       <use x="141.796875" xlink:href="#ArialMT-35"/>
       <use x="197.412109" xlink:href="#ArialMT-30"/>
      </g>
     </g>
    </g>
    <g id="xtick_4">
     <g id="line2d_4">
      <g>
       <use style="fill:#262626;stroke:#262626;stroke-width:1.25;" x="173.570639" xlink:href="#mab6e7d6325" y="224.64"/>
      </g>
     </g>
     <g id="text_4">
      <!-- −0.25 -->
      <g style="fill:#262626;" transform="translate(159.65478 242.013594)scale(0.11 -0.11)">
       <defs>
        <path d="M 3222 541 
L 3222 0 
L 194 0 
Q 188 203 259 391 
Q 375 700 629 1000 
Q 884 1300 1366 1694 
Q 2113 2306 2375 2664 
Q 2638 3022 2638 3341 
Q 2638 3675 2398 3904 
Q 2159 4134 1775 4134 
Q 1369 4134 1125 3890 
Q 881 3647 878 3216 
L 300 3275 
Q 359 3922 746 4261 
Q 1134 4600 1788 4600 
Q 2447 4600 2831 4234 
Q 3216 3869 3216 3328 
Q 3216 3053 3103 2787 
Q 2991 2522 2730 2228 
Q 2469 1934 1863 1422 
Q 1356 997 1212 845 
Q 1069 694 975 541 
L 3222 541 
z
" id="ArialMT-32" transform="scale(0.015625)"/>
       </defs>
       <use xlink:href="#ArialMT-2212"/>
       <use x="58.398438" xlink:href="#ArialMT-30"/>
       <use x="114.013672" xlink:href="#ArialMT-2e"/>
       <use x="141.796875" xlink:href="#ArialMT-32"/>
       <use x="197.412109" xlink:href="#ArialMT-35"/>
      </g>
     </g>
    </g>
    <g id="xtick_5">
     <g id="line2d_5">
      <g>
       <use style="fill:#262626;stroke:#262626;stroke-width:1.25;" x="211.616094" xlink:href="#mab6e7d6325" y="224.64"/>
      </g>
     </g>
     <g id="text_5">
      <!-- 0.00 -->
      <g style="fill:#262626;" transform="translate(200.912578 242.013594)scale(0.11 -0.11)">
       <use xlink:href="#ArialMT-30"/>
       <use x="55.615234" xlink:href="#ArialMT-2e"/>
       <use x="83.398438" xlink:href="#ArialMT-30"/>
       <use x="139.013672" xlink:href="#ArialMT-30"/>
      </g>
     </g>
    </g>
    <g id="xtick_6">
     <g id="line2d_6">
      <g>
       <use style="fill:#262626;stroke:#262626;stroke-width:1.25;" x="249.661548" xlink:href="#mab6e7d6325" y="224.64"/>
      </g>
     </g>
     <g id="text_6">
      <!-- 0.25 -->
      <g style="fill:#262626;" transform="translate(238.958033 242.013594)scale(0.11 -0.11)">
       <use xlink:href="#ArialMT-30"/>
       <use x="55.615234" xlink:href="#ArialMT-2e"/>
       <use x="83.398438" xlink:href="#ArialMT-32"/>
       <use x="139.013672" xlink:href="#ArialMT-35"/>
      </g>
     </g>
    </g>
    <g id="xtick_7">
     <g id="line2d_7">
      <g>
       <use style="fill:#262626;stroke:#262626;stroke-width:1.25;" x="287.707003" xlink:href="#mab6e7d6325" y="224.64"/>
      </g>
     </g>
     <g id="text_7">
      <!-- 0.50 -->
      <g style="fill:#262626;" transform="translate(277.003487 242.013594)scale(0.11 -0.11)">
       <use xlink:href="#ArialMT-30"/>
       <use x="55.615234" xlink:href="#ArialMT-2e"/>
       <use x="83.398438" xlink:href="#ArialMT-35"/>
       <use x="139.013672" xlink:href="#ArialMT-30"/>
      </g>
     </g>
    </g>
    <g id="xtick_8">
     <g id="line2d_8">
      <g>
       <use style="fill:#262626;stroke:#262626;stroke-width:1.25;" x="325.752457" xlink:href="#mab6e7d6325" y="224.64"/>
      </g>
     </g>
     <g id="text_8">
      <!-- 0.75 -->
      <g style="fill:#262626;" transform="translate(315.048942 242.013594)scale(0.11 -0.11)">
       <use xlink:href="#ArialMT-30"/>
       <use x="55.615234" xlink:href="#ArialMT-2e"/>
       <use x="83.398438" xlink:href="#ArialMT-37"/>
       <use x="139.013672" xlink:href="#ArialMT-35"/>
      </g>
     </g>
    </g>
    <g id="xtick_9">
     <g id="line2d_9">
      <g>
       <use style="fill:#262626;stroke:#262626;stroke-width:1.25;" x="363.797912" xlink:href="#mab6e7d6325" y="224.64"/>
      </g>
     </g>
     <g id="text_9">
      <!-- 1.00 -->
      <g style="fill:#262626;" transform="translate(353.094396 242.013594)scale(0.11 -0.11)">
       <use xlink:href="#ArialMT-31"/>
       <use x="55.615234" xlink:href="#ArialMT-2e"/>
       <use x="83.398438" xlink:href="#ArialMT-30"/>
       <use x="139.013672" xlink:href="#ArialMT-30"/>
      </g>
     </g>
    </g>
    <g id="text_10">
     <!-- $x$ -->
     <g style="fill:#262626;" transform="translate(208.016094 256.789219)scale(0.12 -0.12)">
      <defs>
       <path d="M 3841 3500 
L 2234 1784 
L 3219 0 
L 2559 0 
L 1819 1388 
L 531 0 
L -166 0 
L 1556 1844 
L 641 3500 
L 1300 3500 
L 1972 2234 
L 3144 3500 
L 3841 3500 
z
" id="DejaVuSans-Oblique-78" transform="scale(0.015625)"/>
      </defs>
      <use transform="translate(0 0.3125)" xlink:href="#DejaVuSans-Oblique-78"/>
     </g>
    </g>
   </g>
   <g id="matplotlib.axis_2">
    <g id="ytick_1">
     <g id="line2d_10">
      <defs>
       <path d="M 0 0 
L -6 0 
" id="m3038a28d85" style="stroke:#262626;stroke-width:1.25;"/>
      </defs>
      <g>
       <use style="fill:#262626;stroke:#262626;stroke-width:1.25;" x="44.216094" xlink:href="#m3038a28d85" y="216.60558"/>
      </g>
     </g>
     <g id="text_11">
      <!-- −6 -->
      <g style="fill:#262626;" transform="translate(22.174375 220.542377)scale(0.11 -0.11)">
       <defs>
        <path d="M 3184 3459 
L 2625 3416 
Q 2550 3747 2413 3897 
Q 2184 4138 1850 4138 
Q 1581 4138 1378 3988 
Q 1113 3794 959 3422 
Q 806 3050 800 2363 
Q 1003 2672 1297 2822 
Q 1591 2972 1913 2972 
Q 2475 2972 2870 2558 
Q 3266 2144 3266 1488 
Q 3266 1056 3080 686 
Q 2894 316 2569 119 
Q 2244 -78 1831 -78 
Q 1128 -78 684 439 
Q 241 956 241 2144 
Q 241 3472 731 4075 
Q 1159 4600 1884 4600 
Q 2425 4600 2770 4297 
Q 3116 3994 3184 3459 
z
M 888 1484 
Q 888 1194 1011 928 
Q 1134 663 1356 523 
Q 1578 384 1822 384 
Q 2178 384 2434 671 
Q 2691 959 2691 1453 
Q 2691 1928 2437 2201 
Q 2184 2475 1800 2475 
Q 1419 2475 1153 2201 
Q 888 1928 888 1484 
z
" id="ArialMT-36" transform="scale(0.015625)"/>
       </defs>
       <use xlink:href="#ArialMT-2212"/>
       <use x="58.398438" xlink:href="#ArialMT-36"/>
      </g>
     </g>
    </g>
    <g id="ytick_2">
     <g id="line2d_11">
      <g>
       <use style="fill:#262626;stroke:#262626;stroke-width:1.25;" x="44.216094" xlink:href="#m3038a28d85" y="173.923461"/>
      </g>
     </g>
     <g id="text_12">
      <!-- −4 -->
      <g style="fill:#262626;" transform="translate(22.174375 177.860258)scale(0.11 -0.11)">
       <defs>
        <path d="M 2069 0 
L 2069 1097 
L 81 1097 
L 81 1613 
L 2172 4581 
L 2631 4581 
L 2631 1613 
L 3250 1613 
L 3250 1097 
L 2631 1097 
L 2631 0 
L 2069 0 
z
M 2069 1613 
L 2069 3678 
L 634 1613 
L 2069 1613 
z
" id="ArialMT-34" transform="scale(0.015625)"/>
       </defs>
       <use xlink:href="#ArialMT-2212"/>
       <use x="58.398438" xlink:href="#ArialMT-34"/>
      </g>
     </g>
    </g>
    <g id="ytick_3">
     <g id="line2d_12">
      <g>
       <use style="fill:#262626;stroke:#262626;stroke-width:1.25;" x="44.216094" xlink:href="#m3038a28d85" y="131.241342"/>
      </g>
     </g>
     <g id="text_13">
      <!-- −2 -->
      <g style="fill:#262626;" transform="translate(22.174375 135.178139)scale(0.11 -0.11)">
       <use xlink:href="#ArialMT-2212"/>
       <use x="58.398438" xlink:href="#ArialMT-32"/>
      </g>
     </g>
    </g>
    <g id="ytick_4">
     <g id="line2d_13">
      <g>
       <use style="fill:#262626;stroke:#262626;stroke-width:1.25;" x="44.216094" xlink:href="#m3038a28d85" y="88.559222"/>
      </g>
     </g>
     <g id="text_14">
      <!-- 0 -->
      <g style="fill:#262626;" transform="translate(28.599063 92.496019)scale(0.11 -0.11)">
       <use xlink:href="#ArialMT-30"/>
      </g>
     </g>
    </g>
    <g id="ytick_5">
     <g id="line2d_14">
      <g>
       <use style="fill:#262626;stroke:#262626;stroke-width:1.25;" x="44.216094" xlink:href="#m3038a28d85" y="45.877103"/>
      </g>
     </g>
     <g id="text_15">
      <!-- 2 -->
      <g style="fill:#262626;" transform="translate(28.599063 49.8139)scale(0.11 -0.11)">
       <use xlink:href="#ArialMT-32"/>
      </g>
     </g>
    </g>
    <g id="text_16">
     <!-- $y$ -->
     <g style="fill:#262626;" transform="translate(15.654375 119.52)rotate(-90)scale(0.12 -0.12)">
      <defs>
       <path d="M 1588 -325 
Q 1188 -997 936 -1164 
Q 684 -1331 294 -1331 
L -159 -1331 
L -63 -850 
L 269 -850 
Q 509 -850 678 -719 
Q 847 -588 1056 -206 
L 1234 128 
L 459 3500 
L 1069 3500 
L 1650 819 
L 3256 3500 
L 3859 3500 
L 1588 -325 
z
" id="DejaVuSans-Oblique-79" transform="scale(0.015625)"/>
      </defs>
      <use transform="translate(0 0.3125)" xlink:href="#DejaVuSans-Oblique-79"/>
     </g>
    </g>
   </g>
   <g id="LineCollection_1">
    <path clip-path="url(#p494dcb44cf)" d="M 59.434276 178.842768 
L 59.434276 162.270436 
" style="fill:none;stroke:#0173b2;stroke-width:1.5;"/>
    <path clip-path="url(#p494dcb44cf)" d="M 72.116094 173.946325 
L 72.116094 158.347291 
" style="fill:none;stroke:#0173b2;stroke-width:1.5;"/>
    <path clip-path="url(#p494dcb44cf)" d="M 84.797912 169.062545 
L 84.797912 154.411483 
" style="fill:none;stroke:#0173b2;stroke-width:1.5;"/>
    <path clip-path="url(#p494dcb44cf)" d="M 97.47973 164.194051 
L 97.47973 150.460388 
" style="fill:none;stroke:#0173b2;stroke-width:1.5;"/>
    <path clip-path="url(#p494dcb44cf)" d="M 110.161548 159.344118 
L 110.161548 146.490733 
" style="fill:none;stroke:#0173b2;stroke-width:1.5;"/>
    <path clip-path="url(#p494dcb44cf)" d="M 122.843366 154.516825 
L 122.843366 142.498438 
" style="fill:none;stroke:#0173b2;stroke-width:1.5;"/>
    <path clip-path="url(#p494dcb44cf)" d="M 135.525185 149.71722 
L 135.525185 138.478455 
" style="fill:none;stroke:#0173b2;stroke-width:1.5;"/>
    <path clip-path="url(#p494dcb44cf)" d="M 148.207003 144.951459 
L 148.207003 134.424628 
" style="fill:none;stroke:#0173b2;stroke-width:1.5;"/>
    <path clip-path="url(#p494dcb44cf)" d="M 160.888821 140.226851 
L 160.888821 130.329648 
" style="fill:none;stroke:#0173b2;stroke-width:1.5;"/>
    <path clip-path="url(#p494dcb44cf)" d="M 173.570639 135.551702 
L 173.570639 126.185209 
" style="fill:none;stroke:#0173b2;stroke-width:1.5;"/>
    <path clip-path="url(#p494dcb44cf)" d="M 186.252457 130.934816 
L 186.252457 121.982507 
" style="fill:none;stroke:#0173b2;stroke-width:1.5;"/>
    <path clip-path="url(#p494dcb44cf)" d="M 198.934276 126.384552 
L 198.934276 117.713183 
" style="fill:none;stroke:#0173b2;stroke-width:1.5;"/>
    <path clip-path="url(#p494dcb44cf)" d="M 211.616094 121.90749 
L 211.616094 113.370657 
" style="fill:none;stroke:#0173b2;stroke-width:1.5;"/>
    <path clip-path="url(#p494dcb44cf)" d="M 224.297912 117.507086 
L 224.297912 108.951473 
" style="fill:none;stroke:#0173b2;stroke-width:1.5;"/>
    <path clip-path="url(#p494dcb44cf)" d="M 236.97973 113.182845 
L 236.97973 104.456126 
" style="fill:none;stroke:#0173b2;stroke-width:1.5;"/>
    <path clip-path="url(#p494dcb44cf)" d="M 249.661548 108.930445 
L 249.661548 99.888938 
" style="fill:none;stroke:#0173b2;stroke-width:1.5;"/>
    <path clip-path="url(#p494dcb44cf)" d="M 262.343366 104.742739 
L 262.343366 95.257056 
" style="fill:none;stroke:#0173b2;stroke-width:1.5;"/>
    <path clip-path="url(#p494dcb44cf)" d="M 275.025185 100.61115 
L 275.025185 90.569057 
" style="fill:none;stroke:#0173b2;stroke-width:1.5;"/>
    <path clip-path="url(#p494dcb44cf)" d="M 287.707003 96.526925 
L 287.707003 85.833694 
" style="fill:none;stroke:#0173b2;stroke-width:1.5;"/>
    <path clip-path="url(#p494dcb44cf)" d="M 300.388821 92.48197 
L 300.388821 81.05906 
" style="fill:none;stroke:#0173b2;stroke-width:1.5;"/>
    <path clip-path="url(#p494dcb44cf)" d="M 313.070639 88.469253 
L 313.070639 76.252189 
" style="fill:none;stroke:#0173b2;stroke-width:1.5;"/>
    <path clip-path="url(#p494dcb44cf)" d="M 325.752457 84.482898 
L 325.752457 71.418957 
" style="fill:none;stroke:#0173b2;stroke-width:1.5;"/>
    <path clip-path="url(#p494dcb44cf)" d="M 338.434276 80.518105 
L 338.434276 66.564161 
" style="fill:none;stroke:#0173b2;stroke-width:1.5;"/>
    <path clip-path="url(#p494dcb44cf)" d="M 351.116094 76.571008 
L 351.116094 61.691671 
" style="fill:none;stroke:#0173b2;stroke-width:1.5;"/>
    <path clip-path="url(#p494dcb44cf)" d="M 363.797912 72.638503 
L 363.797912 56.804587 
" style="fill:none;stroke:#0173b2;stroke-width:1.5;"/>
   </g>
   <g id="LineCollection_2">
    <path clip-path="url(#p494dcb44cf)" d="M 59.434276 196.483933 
L 59.434276 153.801814 
" style="fill:none;stroke:#000000;stroke-width:1.5;"/>
    <path clip-path="url(#p494dcb44cf)" d="M 72.116094 183.166219 
L 72.116094 140.4841 
" style="fill:none;stroke:#000000;stroke-width:1.5;"/>
    <path clip-path="url(#p494dcb44cf)" d="M 84.797912 214.756364 
L 84.797912 172.074244 
" style="fill:none;stroke:#000000;stroke-width:1.5;"/>
    <path clip-path="url(#p494dcb44cf)" d="M 97.47973 145.628499 
L 97.47973 102.94638 
" style="fill:none;stroke:#000000;stroke-width:1.5;"/>
    <path clip-path="url(#p494dcb44cf)" d="M 110.161548 182.37322 
L 110.161548 139.691101 
" style="fill:none;stroke:#000000;stroke-width:1.5;"/>
    <path clip-path="url(#p494dcb44cf)" d="M 122.843366 127.658783 
L 122.843366 84.976664 
" style="fill:none;stroke:#000000;stroke-width:1.5;"/>
    <path clip-path="url(#p494dcb44cf)" d="M 135.525185 170.511884 
L 135.525185 127.829764 
" style="fill:none;stroke:#000000;stroke-width:1.5;"/>
    <path clip-path="url(#p494dcb44cf)" d="M 148.207003 159.124225 
L 148.207003 116.442106 
" style="fill:none;stroke:#000000;stroke-width:1.5;"/>
    <path clip-path="url(#p494dcb44cf)" d="M 160.888821 130.896264 
L 160.888821 88.214145 
" style="fill:none;stroke:#000000;stroke-width:1.5;"/>
    <path clip-path="url(#p494dcb44cf)" d="M 173.570639 164.086505 
L 173.570639 121.404386 
" style="fill:none;stroke:#000000;stroke-width:1.5;"/>
    <path clip-path="url(#p494dcb44cf)" d="M 186.252457 189.611238 
L 186.252457 146.929119 
" style="fill:none;stroke:#000000;stroke-width:1.5;"/>
    <path clip-path="url(#p494dcb44cf)" d="M 198.934276 166.666542 
L 198.934276 123.984423 
" style="fill:none;stroke:#000000;stroke-width:1.5;"/>
    <path clip-path="url(#p494dcb44cf)" d="M 211.616094 130.231476 
L 211.616094 87.549357 
" style="fill:none;stroke:#000000;stroke-width:1.5;"/>
    <path clip-path="url(#p494dcb44cf)" d="M 224.297912 126.444796 
L 224.297912 83.762677 
" style="fill:none;stroke:#000000;stroke-width:1.5;"/>
    <path clip-path="url(#p494dcb44cf)" d="M 236.97973 138.861805 
L 236.97973 96.179686 
" style="fill:none;stroke:#000000;stroke-width:1.5;"/>
    <path clip-path="url(#p494dcb44cf)" d="M 249.661548 143.398244 
L 249.661548 100.716125 
" style="fill:none;stroke:#000000;stroke-width:1.5;"/>
    <path clip-path="url(#p494dcb44cf)" d="M 262.343366 134.039948 
L 262.343366 91.357829 
" style="fill:none;stroke:#000000;stroke-width:1.5;"/>
    <path clip-path="url(#p494dcb44cf)" d="M 275.025185 79.640815 
L 275.025185 36.958695 
" style="fill:none;stroke:#000000;stroke-width:1.5;"/>
    <path clip-path="url(#p494dcb44cf)" d="M 287.707003 136.776314 
L 287.707003 94.094194 
" style="fill:none;stroke:#000000;stroke-width:1.5;"/>
    <path clip-path="url(#p494dcb44cf)" d="M 300.388821 76.394125 
L 300.388821 33.712006 
" style="fill:none;stroke:#000000;stroke-width:1.5;"/>
    <path clip-path="url(#p494dcb44cf)" d="M 313.070639 129.036434 
L 313.070639 86.354315 
" style="fill:none;stroke:#000000;stroke-width:1.5;"/>
    <path clip-path="url(#p494dcb44cf)" d="M 325.752457 118.645016 
L 325.752457 75.962897 
" style="fill:none;stroke:#000000;stroke-width:1.5;"/>
    <path clip-path="url(#p494dcb44cf)" d="M 338.434276 59.765756 
L 338.434276 17.083636 
" style="fill:none;stroke:#000000;stroke-width:1.5;"/>
    <path clip-path="url(#p494dcb44cf)" d="M 351.116094 102.43283 
L 351.116094 59.750711 
" style="fill:none;stroke:#000000;stroke-width:1.5;"/>
    <path clip-path="url(#p494dcb44cf)" d="M 363.797912 70.035535 
L 363.797912 27.353416 
" style="fill:none;stroke:#000000;stroke-width:1.5;"/>
   </g>
   <g id="line2d_15">
    <defs>
     <path d="M 0 1.5 
C 0.397805 1.5 0.77937 1.341951 1.06066 1.06066 
C 1.341951 0.77937 1.5 0.397805 1.5 0 
C 1.5 -0.397805 1.341951 -0.77937 1.06066 -1.06066 
C 0.77937 -1.341951 0.397805 -1.5 0 -1.5 
C -0.397805 -1.5 -0.77937 -1.341951 -1.06066 -1.06066 
C -1.341951 -0.77937 -1.5 -0.397805 -1.5 0 
C -1.5 0.397805 -1.341951 0.77937 -1.06066 1.06066 
C -0.77937 1.341951 -0.397805 1.5 0 1.5 
z
" id="mf01a3845fb" style="stroke:#0173b2;"/>
    </defs>
    <g clip-path="url(#p494dcb44cf)">
     <use style="fill:#0173b2;stroke:#0173b2;" x="59.434276" xlink:href="#mf01a3845fb" y="170.556602"/>
     <use style="fill:#0173b2;stroke:#0173b2;" x="72.116094" xlink:href="#mf01a3845fb" y="166.146808"/>
     <use style="fill:#0173b2;stroke:#0173b2;" x="84.797912" xlink:href="#mf01a3845fb" y="161.737014"/>
     <use style="fill:#0173b2;stroke:#0173b2;" x="97.47973" xlink:href="#mf01a3845fb" y="157.32722"/>
     <use style="fill:#0173b2;stroke:#0173b2;" x="110.161548" xlink:href="#mf01a3845fb" y="152.917426"/>
     <use style="fill:#0173b2;stroke:#0173b2;" x="122.843366" xlink:href="#mf01a3845fb" y="148.507632"/>
     <use style="fill:#0173b2;stroke:#0173b2;" x="135.525185" xlink:href="#mf01a3845fb" y="144.097838"/>
     <use style="fill:#0173b2;stroke:#0173b2;" x="148.207003" xlink:href="#mf01a3845fb" y="139.688044"/>
     <use style="fill:#0173b2;stroke:#0173b2;" x="160.888821" xlink:href="#mf01a3845fb" y="135.27825"/>
     <use style="fill:#0173b2;stroke:#0173b2;" x="173.570639" xlink:href="#mf01a3845fb" y="130.868456"/>
     <use style="fill:#0173b2;stroke:#0173b2;" x="186.252457" xlink:href="#mf01a3845fb" y="126.458662"/>
     <use style="fill:#0173b2;stroke:#0173b2;" x="198.934276" xlink:href="#mf01a3845fb" y="122.048868"/>
     <use style="fill:#0173b2;stroke:#0173b2;" x="211.616094" xlink:href="#mf01a3845fb" y="117.639074"/>
     <use style="fill:#0173b2;stroke:#0173b2;" x="224.297912" xlink:href="#mf01a3845fb" y="113.22928"/>
     <use style="fill:#0173b2;stroke:#0173b2;" x="236.97973" xlink:href="#mf01a3845fb" y="108.819485"/>
     <use style="fill:#0173b2;stroke:#0173b2;" x="249.661548" xlink:href="#mf01a3845fb" y="104.409691"/>
     <use style="fill:#0173b2;stroke:#0173b2;" x="262.343366" xlink:href="#mf01a3845fb" y="99.999897"/>
     <use style="fill:#0173b2;stroke:#0173b2;" x="275.025185" xlink:href="#mf01a3845fb" y="95.590103"/>
     <use style="fill:#0173b2;stroke:#0173b2;" x="287.707003" xlink:href="#mf01a3845fb" y="91.180309"/>
     <use style="fill:#0173b2;stroke:#0173b2;" x="300.388821" xlink:href="#mf01a3845fb" y="86.770515"/>
     <use style="fill:#0173b2;stroke:#0173b2;" x="313.070639" xlink:href="#mf01a3845fb" y="82.360721"/>
     <use style="fill:#0173b2;stroke:#0173b2;" x="325.752457" xlink:href="#mf01a3845fb" y="77.950927"/>
     <use style="fill:#0173b2;stroke:#0173b2;" x="338.434276" xlink:href="#mf01a3845fb" y="73.541133"/>
     <use style="fill:#0173b2;stroke:#0173b2;" x="351.116094" xlink:href="#mf01a3845fb" y="69.131339"/>
     <use style="fill:#0173b2;stroke:#0173b2;" x="363.797912" xlink:href="#mf01a3845fb" y="64.721545"/>
    </g>
   </g>
   <g id="line2d_16">
    <defs>
     <path d="M 0 1.5 
C 0.397805 1.5 0.77937 1.341951 1.06066 1.06066 
C 1.341951 0.77937 1.5 0.397805 1.5 0 
C 1.5 -0.397805 1.341951 -0.77937 1.06066 -1.06066 
C 0.77937 -1.341951 0.397805 -1.5 0 -1.5 
C -0.397805 -1.5 -0.77937 -1.341951 -1.06066 -1.06066 
C -1.341951 -0.77937 -1.5 -0.397805 -1.5 0 
C -1.5 0.397805 -1.341951 0.77937 -1.06066 1.06066 
C -0.77937 1.341951 -0.397805 1.5 0 1.5 
z
" id="m2f122b6ea2" style="stroke:#000000;"/>
    </defs>
    <g clip-path="url(#p494dcb44cf)">
     <use style="stroke:#000000;" x="59.434276" xlink:href="#m2f122b6ea2" y="175.142874"/>
     <use style="stroke:#000000;" x="72.116094" xlink:href="#m2f122b6ea2" y="161.82516"/>
     <use style="stroke:#000000;" x="84.797912" xlink:href="#m2f122b6ea2" y="193.415304"/>
     <use style="stroke:#000000;" x="97.47973" xlink:href="#m2f122b6ea2" y="124.287439"/>
     <use style="stroke:#000000;" x="110.161548" xlink:href="#m2f122b6ea2" y="161.032161"/>
     <use style="stroke:#000000;" x="122.843366" xlink:href="#m2f122b6ea2" y="106.317723"/>
     <use style="stroke:#000000;" x="135.525185" xlink:href="#m2f122b6ea2" y="149.170824"/>
     <use style="stroke:#000000;" x="148.207003" xlink:href="#m2f122b6ea2" y="137.783166"/>
     <use style="stroke:#000000;" x="160.888821" xlink:href="#m2f122b6ea2" y="109.555204"/>
     <use style="stroke:#000000;" x="173.570639" xlink:href="#m2f122b6ea2" y="142.745445"/>
     <use style="stroke:#000000;" x="186.252457" xlink:href="#m2f122b6ea2" y="168.270179"/>
     <use style="stroke:#000000;" x="198.934276" xlink:href="#m2f122b6ea2" y="145.325483"/>
     <use style="stroke:#000000;" x="211.616094" xlink:href="#m2f122b6ea2" y="108.890416"/>
     <use style="stroke:#000000;" x="224.297912" xlink:href="#m2f122b6ea2" y="105.103736"/>
     <use style="stroke:#000000;" x="236.97973" xlink:href="#m2f122b6ea2" y="117.520745"/>
     <use style="stroke:#000000;" x="249.661548" xlink:href="#m2f122b6ea2" y="122.057185"/>
     <use style="stroke:#000000;" x="262.343366" xlink:href="#m2f122b6ea2" y="112.698888"/>
     <use style="stroke:#000000;" x="275.025185" xlink:href="#m2f122b6ea2" y="58.299755"/>
     <use style="stroke:#000000;" x="287.707003" xlink:href="#m2f122b6ea2" y="115.435254"/>
     <use style="stroke:#000000;" x="300.388821" xlink:href="#m2f122b6ea2" y="55.053066"/>
     <use style="stroke:#000000;" x="313.070639" xlink:href="#m2f122b6ea2" y="107.695375"/>
     <use style="stroke:#000000;" x="325.752457" xlink:href="#m2f122b6ea2" y="97.303956"/>
     <use style="stroke:#000000;" x="338.434276" xlink:href="#m2f122b6ea2" y="38.424696"/>
     <use style="stroke:#000000;" x="351.116094" xlink:href="#m2f122b6ea2" y="81.09177"/>
     <use style="stroke:#000000;" x="363.797912" xlink:href="#m2f122b6ea2" y="48.694476"/>
    </g>
   </g>
   <g id="patch_3">
    <path d="M 44.216094 224.64 
L 44.216094 7.2 
" style="fill:none;stroke:#262626;stroke-linecap:square;stroke-linejoin:miter;stroke-width:1.25;"/>
   </g>
   <g id="patch_4">
    <path d="M 379.016094 224.64 
L 379.016094 7.2 
" style="fill:none;stroke:#262626;stroke-linecap:square;stroke-linejoin:miter;stroke-width:1.25;"/>
   </g>
   <g id="patch_5">
    <path d="M 44.216094 224.64 
L 379.016094 224.64 
" style="fill:none;stroke:#262626;stroke-linecap:square;stroke-linejoin:miter;stroke-width:1.25;"/>
   </g>
   <g id="patch_6">
    <path d="M 44.216094 7.2 
L 379.016094 7.2 
" style="fill:none;stroke:#262626;stroke-linecap:square;stroke-linejoin:miter;stroke-width:1.25;"/>
   </g>
   <g id="legend_1">
    <g id="patch_7">
     <path d="M 51.916094 47.119687 
L 134.802813 47.119687 
Q 137.002813 47.119687 137.002813 44.919688 
L 137.002813 14.9 
Q 137.002813 12.7 134.802813 12.7 
L 51.916094 12.7 
Q 49.716094 12.7 49.716094 14.9 
L 49.716094 44.919688 
Q 49.716094 47.119687 51.916094 47.119687 
z
" style="fill:#ffffff;opacity:0.8;stroke:#cccccc;stroke-linejoin:miter;"/>
    </g>
    <g id="LineCollection_3">
     <path d="M 65.116094 26.623594 
L 65.116094 15.623594 
" style="fill:none;stroke:#0173b2;stroke-width:1.5;"/>
    </g>
    <g id="line2d_17"/>
    <g id="line2d_18">
     <g>
      <use style="fill:#0173b2;stroke:#0173b2;" x="65.116094" xlink:href="#mf01a3845fb" y="21.123594"/>
     </g>
    </g>
    <g id="text_17">
     <!-- Inferred -->
     <g style="fill:#262626;" transform="translate(84.916094 24.973594)scale(0.11 -0.11)">
      <defs>
       <path d="M 597 0 
L 597 4581 
L 1203 4581 
L 1203 0 
L 597 0 
z
" id="ArialMT-49" transform="scale(0.015625)"/>
       <path d="M 422 0 
L 422 3319 
L 928 3319 
L 928 2847 
Q 1294 3394 1984 3394 
Q 2284 3394 2536 3286 
Q 2788 3178 2913 3003 
Q 3038 2828 3088 2588 
Q 3119 2431 3119 2041 
L 3119 0 
L 2556 0 
L 2556 2019 
Q 2556 2363 2490 2533 
Q 2425 2703 2258 2804 
Q 2091 2906 1866 2906 
Q 1506 2906 1245 2678 
Q 984 2450 984 1813 
L 984 0 
L 422 0 
z
" id="ArialMT-6e" transform="scale(0.015625)"/>
       <path d="M 556 0 
L 556 2881 
L 59 2881 
L 59 3319 
L 556 3319 
L 556 3672 
Q 556 4006 616 4169 
Q 697 4388 901 4523 
Q 1106 4659 1475 4659 
Q 1713 4659 2000 4603 
L 1916 4113 
Q 1741 4144 1584 4144 
Q 1328 4144 1222 4034 
Q 1116 3925 1116 3625 
L 1116 3319 
L 1763 3319 
L 1763 2881 
L 1116 2881 
L 1116 0 
L 556 0 
z
" id="ArialMT-66" transform="scale(0.015625)"/>
       <path d="M 2694 1069 
L 3275 997 
Q 3138 488 2766 206 
Q 2394 -75 1816 -75 
Q 1088 -75 661 373 
Q 234 822 234 1631 
Q 234 2469 665 2931 
Q 1097 3394 1784 3394 
Q 2450 3394 2872 2941 
Q 3294 2488 3294 1666 
Q 3294 1616 3291 1516 
L 816 1516 
Q 847 969 1125 678 
Q 1403 388 1819 388 
Q 2128 388 2347 550 
Q 2566 713 2694 1069 
z
M 847 1978 
L 2700 1978 
Q 2663 2397 2488 2606 
Q 2219 2931 1791 2931 
Q 1403 2931 1139 2672 
Q 875 2413 847 1978 
z
" id="ArialMT-65" transform="scale(0.015625)"/>
       <path d="M 416 0 
L 416 3319 
L 922 3319 
L 922 2816 
Q 1116 3169 1280 3281 
Q 1444 3394 1641 3394 
Q 1925 3394 2219 3213 
L 2025 2691 
Q 1819 2813 1613 2813 
Q 1428 2813 1281 2702 
Q 1134 2591 1072 2394 
Q 978 2094 978 1738 
L 978 0 
L 416 0 
z
" id="ArialMT-72" transform="scale(0.015625)"/>
       <path d="M 2575 0 
L 2575 419 
Q 2259 -75 1647 -75 
Q 1250 -75 917 144 
Q 584 363 401 755 
Q 219 1147 219 1656 
Q 219 2153 384 2558 
Q 550 2963 881 3178 
Q 1213 3394 1622 3394 
Q 1922 3394 2156 3267 
Q 2391 3141 2538 2938 
L 2538 4581 
L 3097 4581 
L 3097 0 
L 2575 0 
z
M 797 1656 
Q 797 1019 1065 703 
Q 1334 388 1700 388 
Q 2069 388 2326 689 
Q 2584 991 2584 1609 
Q 2584 2291 2321 2609 
Q 2059 2928 1675 2928 
Q 1300 2928 1048 2622 
Q 797 2316 797 1656 
z
" id="ArialMT-64" transform="scale(0.015625)"/>
      </defs>
      <use xlink:href="#ArialMT-49"/>
      <use x="27.783203" xlink:href="#ArialMT-6e"/>
      <use x="83.398438" xlink:href="#ArialMT-66"/>
      <use x="111.181641" xlink:href="#ArialMT-65"/>
      <use x="166.796875" xlink:href="#ArialMT-72"/>
      <use x="200.097656" xlink:href="#ArialMT-72"/>
      <use x="233.398438" xlink:href="#ArialMT-65"/>
      <use x="289.013672" xlink:href="#ArialMT-64"/>
     </g>
    </g>
    <g id="LineCollection_4">
     <path d="M 65.116094 42.183437 
L 65.116094 31.183437 
" style="fill:none;stroke:#000000;stroke-width:1.5;"/>
    </g>
    <g id="line2d_19"/>
    <g id="line2d_20">
     <g>
      <use style="stroke:#000000;" x="65.116094" xlink:href="#m2f122b6ea2" y="36.683437"/>
     </g>
    </g>
    <g id="text_18">
     <!-- Observed -->
     <g style="fill:#262626;" transform="translate(84.916094 40.533437)scale(0.11 -0.11)">
      <defs>
       <path d="M 309 2231 
Q 309 3372 921 4017 
Q 1534 4663 2503 4663 
Q 3138 4663 3647 4359 
Q 4156 4056 4423 3514 
Q 4691 2972 4691 2284 
Q 4691 1588 4409 1038 
Q 4128 488 3612 205 
Q 3097 -78 2500 -78 
Q 1853 -78 1343 234 
Q 834 547 571 1087 
Q 309 1628 309 2231 
z
M 934 2222 
Q 934 1394 1379 917 
Q 1825 441 2497 441 
Q 3181 441 3623 922 
Q 4066 1403 4066 2288 
Q 4066 2847 3877 3264 
Q 3688 3681 3323 3911 
Q 2959 4141 2506 4141 
Q 1863 4141 1398 3698 
Q 934 3256 934 2222 
z
" id="ArialMT-4f" transform="scale(0.015625)"/>
       <path d="M 941 0 
L 419 0 
L 419 4581 
L 981 4581 
L 981 2947 
Q 1338 3394 1891 3394 
Q 2197 3394 2470 3270 
Q 2744 3147 2920 2923 
Q 3097 2700 3197 2384 
Q 3297 2069 3297 1709 
Q 3297 856 2875 390 
Q 2453 -75 1863 -75 
Q 1275 -75 941 416 
L 941 0 
z
M 934 1684 
Q 934 1088 1097 822 
Q 1363 388 1816 388 
Q 2184 388 2453 708 
Q 2722 1028 2722 1663 
Q 2722 2313 2464 2622 
Q 2206 2931 1841 2931 
Q 1472 2931 1203 2611 
Q 934 2291 934 1684 
z
" id="ArialMT-62" transform="scale(0.015625)"/>
       <path d="M 197 991 
L 753 1078 
Q 800 744 1014 566 
Q 1228 388 1613 388 
Q 2000 388 2187 545 
Q 2375 703 2375 916 
Q 2375 1106 2209 1216 
Q 2094 1291 1634 1406 
Q 1016 1563 777 1677 
Q 538 1791 414 1992 
Q 291 2194 291 2438 
Q 291 2659 392 2848 
Q 494 3038 669 3163 
Q 800 3259 1026 3326 
Q 1253 3394 1513 3394 
Q 1903 3394 2198 3281 
Q 2494 3169 2634 2976 
Q 2775 2784 2828 2463 
L 2278 2388 
Q 2241 2644 2061 2787 
Q 1881 2931 1553 2931 
Q 1166 2931 1000 2803 
Q 834 2675 834 2503 
Q 834 2394 903 2306 
Q 972 2216 1119 2156 
Q 1203 2125 1616 2013 
Q 2213 1853 2448 1751 
Q 2684 1650 2818 1456 
Q 2953 1263 2953 975 
Q 2953 694 2789 445 
Q 2625 197 2315 61 
Q 2006 -75 1616 -75 
Q 969 -75 630 194 
Q 291 463 197 991 
z
" id="ArialMT-73" transform="scale(0.015625)"/>
       <path d="M 1344 0 
L 81 3319 
L 675 3319 
L 1388 1331 
Q 1503 1009 1600 663 
Q 1675 925 1809 1294 
L 2547 3319 
L 3125 3319 
L 1869 0 
L 1344 0 
z
" id="ArialMT-76" transform="scale(0.015625)"/>
      </defs>
      <use xlink:href="#ArialMT-4f"/>
      <use x="77.783203" xlink:href="#ArialMT-62"/>
      <use x="133.398438" xlink:href="#ArialMT-73"/>
      <use x="183.398438" xlink:href="#ArialMT-65"/>
      <use x="239.013672" xlink:href="#ArialMT-72"/>
      <use x="272.314453" xlink:href="#ArialMT-76"/>
      <use x="322.314453" xlink:href="#ArialMT-65"/>
      <use x="377.929688" xlink:href="#ArialMT-64"/>
     </g>
    </g>
   </g>
  </g>
 </g>
 <defs>
  <clipPath id="p494dcb44cf">
   <rect height="217.44" width="334.8" x="44.216094" y="7.2"/>
  </clipPath>
 </defs>
</svg>
