<?xml version="1.0" encoding="utf-8" standalone="no"?>
<!DOCTYPE svg PUBLIC "-//W3C//DTD SVG 1.1//EN"
  "http://www.w3.org/Graphics/SVG/1.1/DTD/svg11.dtd">
<svg height="266.374219pt" version="1.1" viewBox="0 0 386.216094 266.374219" width="386.216094pt" xmlns="http://www.w3.org/2000/svg" xmlns:xlink="http://www.w3.org/1999/xlink">
 <metadata>
  <rdf:RDF xmlns:cc="http://creativecommons.org/ns#" xmlns:dc="http://purl.org/dc/elements/1.1/" xmlns:rdf="http://www.w3.org/1999/02/22-rdf-syntax-ns#">
   <cc:Work>
    <dc:type rdf:resource="http://purl.org/dc/dcmitype/StillImage"/>
    <dc:date>2021-09-14T21:44:17.789992</dc:date>
    <dc:format>image/svg+xml</dc:format>
    <dc:creator>
     <cc:Agent>
      <dc:title>Matplotlib v3.4.3, https://matplotlib.org/</dc:title>
     </cc:Agent>
    </dc:creator>
   </cc:Work>
  </rdf:RDF>
 </metadata>
 <defs>
  <style type="text/css">*{stroke-linecap:butt;stroke-linejoin:round;}</style>
 </defs>
 <g id="figure_1">
  <g id="patch_1">
   <path d="M 0 266.374219 
L 386.216094 266.374219 
L 386.216094 0 
L 0 0 
z
" style="fill:#ffffff;"/>
  </g>
  <g id="axes_1">
   <g id="patch_2">
    <path d="M 44.216094 224.64 
L 379.016094 224.64 
L 379.016094 7.2 
L 44.216094 7.2 
z
" style="fill:#ffffff;"/>
   </g>
   <g id="matplotlib.axis_1">
    <g id="xtick_1">
     <g id="line2d_1">
      <defs>
       <path d="M 0 0 
L 0 6 
" id="m18b7dd2f0a" style="stroke:#262626;stroke-width:1.25;"/>
      </defs>
      <g>
       <use style="fill:#262626;stroke:#262626;stroke-width:1.25;" x="59.434276" xlink:href="#m18b7dd2f0a" y="224.64"/>
      </g>
     </g>
     <g id="text_1">
      <!-- −1.00 -->
      <g style="fill:#262626;" transform="translate(45.518416 242.013594)scale(0.11 -0.11)">
       <defs>
        <path d="M 3381 1997 
L 356 1997 
L 356 2522 
L 3381 2522 
L 3381 1997 
z
" id="ArialMT-2212" transform="scale(0.015625)"/>
        <path d="M 2384 0 
L 1822 0 
L 1822 3584 
Q 1619 3391 1289 3197 
Q 959 3003 697 2906 
L 697 3450 
Q 1169 3672 1522 3987 
Q 1875 4303 2022 4600 
L 2384 4600 
L 2384 0 
z
" id="ArialMT-31" transform="scale(0.015625)"/>
        <path d="M 581 0 
L 581 641 
L 1222 641 
L 1222 0 
L 581 0 
z
" id="ArialMT-2e" transform="scale(0.015625)"/>
        <path d="M 266 2259 
Q 266 3072 433 3567 
Q 600 4063 929 4331 
Q 1259 4600 1759 4600 
Q 2128 4600 2406 4451 
Q 2684 4303 2865 4023 
Q 3047 3744 3150 3342 
Q 3253 2941 3253 2259 
Q 3253 1453 3087 958 
Q 2922 463 2592 192 
Q 2263 -78 1759 -78 
Q 1097 -78 719 397 
Q 266 969 266 2259 
z
M 844 2259 
Q 844 1131 1108 757 
Q 1372 384 1759 384 
Q 2147 384 2411 759 
Q 2675 1134 2675 2259 
Q 2675 3391 2411 3762 
Q 2147 4134 1753 4134 
Q 1366 4134 1134 3806 
Q 844 3388 844 2259 
z
" id="ArialMT-30" transform="scale(0.015625)"/>
       </defs>
       <use xlink:href="#ArialMT-2212"/>
       <use x="58.398438" xlink:href="#ArialMT-31"/>
       <use x="114.013672" xlink:href="#ArialMT-2e"/>
       <use x="141.796875" xlink:href="#ArialMT-30"/>
       <use x="197.412109" xlink:href="#ArialMT-30"/>
      </g>
     </g>
    </g>
    <g id="xtick_2">
     <g id="line2d_2">
      <g>
       <use style="fill:#262626;stroke:#262626;stroke-width:1.25;" x="97.47973" xlink:href="#m18b7dd2f0a" y="224.64"/>
      </g>
     </g>
     <g id="text_2">
      <!-- −0.75 -->
      <g style="fill:#262626;" transform="translate(83.563871 242.013594)scale(0.11 -0.11)">
       <defs>
        <path d="M 303 3981 
L 303 4522 
L 3269 4522 
L 3269 4084 
Q 2831 3619 2401 2847 
Q 1972 2075 1738 1259 
Q 1569 684 1522 0 
L 944 0 
Q 953 541 1156 1306 
Q 1359 2072 1739 2783 
Q 2119 3494 2547 3981 
L 303 3981 
z
" id="ArialMT-37" transform="scale(0.015625)"/>
        <path d="M 266 1200 
L 856 1250 
Q 922 819 1161 601 
Q 1400 384 1738 384 
Q 2144 384 2425 690 
Q 2706 997 2706 1503 
Q 2706 1984 2436 2262 
Q 2166 2541 1728 2541 
Q 1456 2541 1237 2417 
Q 1019 2294 894 2097 
L 366 2166 
L 809 4519 
L 3088 4519 
L 3088 3981 
L 1259 3981 
L 1013 2750 
Q 1425 3038 1878 3038 
Q 2478 3038 2890 2622 
Q 3303 2206 3303 1553 
Q 3303 931 2941 478 
Q 2500 -78 1738 -78 
Q 1113 -78 717 272 
Q 322 622 266 1200 
z
" id="ArialMT-35" transform="scale(0.015625)"/>
       </defs>
       <use xlink:href="#ArialMT-2212"/>
       <use x="58.398438" xlink:href="#ArialMT-30"/>
       <use x="114.013672" xlink:href="#ArialMT-2e"/>
       <use x="141.796875" xlink:href="#ArialMT-37"/>
       <use x="197.412109" xlink:href="#ArialMT-35"/>
      </g>
     </g>
    </g>
    <g id="xtick_3">
     <g id="line2d_3">
      <g>
       <use style="fill:#262626;stroke:#262626;stroke-width:1.25;" x="135.525185" xlink:href="#m18b7dd2f0a" y="224.64"/>
      </g>
     </g>
     <g id="text_3">
      <!-- −0.50 -->
      <g style="fill:#262626;" transform="translate(121.609325 242.013594)scale(0.11 -0.11)">
       <use xlink:href="#ArialMT-2212"/>
       <use x="58.398438" xlink:href="#ArialMT-30"/>
       <use x="114.013672" xlink:href="#ArialMT-2e"/>
       <use x="141.796875" xlink:href="#ArialMT-35"/>
       <use x="197.412109" xlink:href="#ArialMT-30"/>
      </g>
     </g>
    </g>
    <g id="xtick_4">
     <g id="line2d_4">
      <g>
       <use style="fill:#262626;stroke:#262626;stroke-width:1.25;" x="173.570639" xlink:href="#m18b7dd2f0a" y="224.64"/>
      </g>
     </g>
     <g id="text_4">
      <!-- −0.25 -->
      <g style="fill:#262626;" transform="translate(159.65478 242.013594)scale(0.11 -0.11)">
       <defs>
        <path d="M 3222 541 
L 3222 0 
L 194 0 
Q 188 203 259 391 
Q 375 700 629 1000 
Q 884 1300 1366 1694 
Q 2113 2306 2375 2664 
Q 2638 3022 2638 3341 
Q 2638 3675 2398 3904 
Q 2159 4134 1775 4134 
Q 1369 4134 1125 3890 
Q 881 3647 878 3216 
L 300 3275 
Q 359 3922 746 4261 
Q 1134 4600 1788 4600 
Q 2447 4600 2831 4234 
Q 3216 3869 3216 3328 
Q 3216 3053 3103 2787 
Q 2991 2522 2730 2228 
Q 2469 1934 1863 1422 
Q 1356 997 1212 845 
Q 1069 694 975 541 
L 3222 541 
z
" id="ArialMT-32" transform="scale(0.015625)"/>
       </defs>
       <use xlink:href="#ArialMT-2212"/>
       <use x="58.398438" xlink:href="#ArialMT-30"/>
       <use x="114.013672" xlink:href="#ArialMT-2e"/>
       <use x="141.796875" xlink:href="#ArialMT-32"/>
       <use x="197.412109" xlink:href="#ArialMT-35"/>
      </g>
     </g>
    </g>
    <g id="xtick_5">
     <g id="line2d_5">
      <g>
       <use style="fill:#262626;stroke:#262626;stroke-width:1.25;" x="211.616094" xlink:href="#m18b7dd2f0a" y="224.64"/>
      </g>
     </g>
     <g id="text_5">
      <!-- 0.00 -->
      <g style="fill:#262626;" transform="translate(200.912578 242.013594)scale(0.11 -0.11)">
       <use xlink:href="#ArialMT-30"/>
       <use x="55.615234" xlink:href="#ArialMT-2e"/>
       <use x="83.398438" xlink:href="#ArialMT-30"/>
       <use x="139.013672" xlink:href="#ArialMT-30"/>
      </g>
     </g>
    </g>
    <g id="xtick_6">
     <g id="line2d_6">
      <g>
       <use style="fill:#262626;stroke:#262626;stroke-width:1.25;" x="249.661548" xlink:href="#m18b7dd2f0a" y="224.64"/>
      </g>
     </g>
     <g id="text_6">
      <!-- 0.25 -->
      <g style="fill:#262626;" transform="translate(238.958033 242.013594)scale(0.11 -0.11)">
       <use xlink:href="#ArialMT-30"/>
       <use x="55.615234" xlink:href="#ArialMT-2e"/>
       <use x="83.398438" xlink:href="#ArialMT-32"/>
       <use x="139.013672" xlink:href="#ArialMT-35"/>
      </g>
     </g>
    </g>
    <g id="xtick_7">
     <g id="line2d_7">
      <g>
       <use style="fill:#262626;stroke:#262626;stroke-width:1.25;" x="287.707003" xlink:href="#m18b7dd2f0a" y="224.64"/>
      </g>
     </g>
     <g id="text_7">
      <!-- 0.50 -->
      <g style="fill:#262626;" transform="translate(277.003487 242.013594)scale(0.11 -0.11)">
       <use xlink:href="#ArialMT-30"/>
       <use x="55.615234" xlink:href="#ArialMT-2e"/>
       <use x="83.398438" xlink:href="#ArialMT-35"/>
       <use x="139.013672" xlink:href="#ArialMT-30"/>
      </g>
     </g>
    </g>
    <g id="xtick_8">
     <g id="line2d_8">
      <g>
       <use style="fill:#262626;stroke:#262626;stroke-width:1.25;" x="325.752457" xlink:href="#m18b7dd2f0a" y="224.64"/>
      </g>
     </g>
     <g id="text_8">
      <!-- 0.75 -->
      <g style="fill:#262626;" transform="translate(315.048942 242.013594)scale(0.11 -0.11)">
       <use xlink:href="#ArialMT-30"/>
       <use x="55.615234" xlink:href="#ArialMT-2e"/>
       <use x="83.398438" xlink:href="#ArialMT-37"/>
       <use x="139.013672" xlink:href="#ArialMT-35"/>
      </g>
     </g>
    </g>
    <g id="xtick_9">
     <g id="line2d_9">
      <g>
       <use style="fill:#262626;stroke:#262626;stroke-width:1.25;" x="363.797912" xlink:href="#m18b7dd2f0a" y="224.64"/>
      </g>
     </g>
     <g id="text_9">
      <!-- 1.00 -->
      <g style="fill:#262626;" transform="translate(353.094396 242.013594)scale(0.11 -0.11)">
       <use xlink:href="#ArialMT-31"/>
       <use x="55.615234" xlink:href="#ArialMT-2e"/>
       <use x="83.398438" xlink:href="#ArialMT-30"/>
       <use x="139.013672" xlink:href="#ArialMT-30"/>
      </g>
     </g>
    </g>
    <g id="text_10">
     <!-- $x$ -->
     <g style="fill:#262626;" transform="translate(208.016094 256.789219)scale(0.12 -0.12)">
      <defs>
       <path d="M 3841 3500 
L 2234 1784 
L 3219 0 
L 2559 0 
L 1819 1388 
L 531 0 
L -166 0 
L 1556 1844 
L 641 3500 
L 1300 3500 
L 1972 2234 
L 3144 3500 
L 3841 3500 
z
" id="DejaVuSans-Oblique-78" transform="scale(0.015625)"/>
      </defs>
      <use transform="translate(0 0.3125)" xlink:href="#DejaVuSans-Oblique-78"/>
     </g>
    </g>
   </g>
   <g id="matplotlib.axis_2">
    <g id="ytick_1">
     <g id="line2d_10">
      <defs>
       <path d="M 0 0 
L -6 0 
" id="m866c4f6137" style="stroke:#262626;stroke-width:1.25;"/>
      </defs>
      <g>
       <use style="fill:#262626;stroke:#262626;stroke-width:1.25;" x="44.216094" xlink:href="#m866c4f6137" y="216.60558"/>
      </g>
     </g>
     <g id="text_11">
      <!-- −6 -->
      <g style="fill:#262626;" transform="translate(22.174375 220.542377)scale(0.11 -0.11)">
       <defs>
        <path d="M 3184 3459 
L 2625 3416 
Q 2550 3747 2413 3897 
Q 2184 4138 1850 4138 
Q 1581 4138 1378 3988 
Q 1113 3794 959 3422 
Q 806 3050 800 2363 
Q 1003 2672 1297 2822 
Q 1591 2972 1913 2972 
Q 2475 2972 2870 2558 
Q 3266 2144 3266 1488 
Q 3266 1056 3080 686 
Q 2894 316 2569 119 
Q 2244 -78 1831 -78 
Q 1128 -78 684 439 
Q 241 956 241 2144 
Q 241 3472 731 4075 
Q 1159 4600 1884 4600 
Q 2425 4600 2770 4297 
Q 3116 3994 3184 3459 
z
M 888 1484 
Q 888 1194 1011 928 
Q 1134 663 1356 523 
Q 1578 384 1822 384 
Q 2178 384 2434 671 
Q 2691 959 2691 1453 
Q 2691 1928 2437 2201 
Q 2184 2475 1800 2475 
Q 1419 2475 1153 2201 
Q 888 1928 888 1484 
z
" id="ArialMT-36" transform="scale(0.015625)"/>
       </defs>
       <use xlink:href="#ArialMT-2212"/>
       <use x="58.398438" xlink:href="#ArialMT-36"/>
      </g>
     </g>
    </g>
    <g id="ytick_2">
     <g id="line2d_11">
      <g>
       <use style="fill:#262626;stroke:#262626;stroke-width:1.25;" x="44.216094" xlink:href="#m866c4f6137" y="173.923461"/>
      </g>
     </g>
     <g id="text_12">
      <!-- −4 -->
      <g style="fill:#262626;" transform="translate(22.174375 177.860258)scale(0.11 -0.11)">
       <defs>
        <path d="M 2069 0 
L 2069 1097 
L 81 1097 
L 81 1613 
L 2172 4581 
L 2631 4581 
L 2631 1613 
L 3250 1613 
L 3250 1097 
L 2631 1097 
L 2631 0 
L 2069 0 
z
M 2069 1613 
L 2069 3678 
L 634 1613 
L 2069 1613 
z
" id="ArialMT-34" transform="scale(0.015625)"/>
       </defs>
       <use xlink:href="#ArialMT-2212"/>
       <use x="58.398438" xlink:href="#ArialMT-34"/>
      </g>
     </g>
    </g>
    <g id="ytick_3">
     <g id="line2d_12">
      <g>
       <use style="fill:#262626;stroke:#262626;stroke-width:1.25;" x="44.216094" xlink:href="#m866c4f6137" y="131.241342"/>
      </g>
     </g>
     <g id="text_13">
      <!-- −2 -->
      <g style="fill:#262626;" transform="translate(22.174375 135.178139)scale(0.11 -0.11)">
       <use xlink:href="#ArialMT-2212"/>
       <use x="58.398438" xlink:href="#ArialMT-32"/>
      </g>
     </g>
    </g>
    <g id="ytick_4">
     <g id="line2d_13">
      <g>
       <use style="fill:#262626;stroke:#262626;stroke-width:1.25;" x="44.216094" xlink:href="#m866c4f6137" y="88.559222"/>
      </g>
     </g>
     <g id="text_14">
      <!-- 0 -->
      <g style="fill:#262626;" transform="translate(28.599063 92.496019)scale(0.11 -0.11)">
       <use xlink:href="#ArialMT-30"/>
      </g>
     </g>
    </g>
    <g id="ytick_5">
     <g id="line2d_14">
      <g>
       <use style="fill:#262626;stroke:#262626;stroke-width:1.25;" x="44.216094" xlink:href="#m866c4f6137" y="45.877103"/>
      </g>
     </g>
     <g id="text_15">
      <!-- 2 -->
      <g style="fill:#262626;" transform="translate(28.599063 49.8139)scale(0.11 -0.11)">
       <use xlink:href="#ArialMT-32"/>
      </g>
     </g>
    </g>
    <g id="text_16">
     <!-- $y$ -->
     <g style="fill:#262626;" transform="translate(15.654375 119.52)rotate(-90)scale(0.12 -0.12)">
      <defs>
       <path d="M 1588 -325 
Q 1188 -997 936 -1164 
Q 684 -1331 294 -1331 
L -159 -1331 
L -63 -850 
L 269 -850 
Q 509 -850 678 -719 
Q 847 -588 1056 -206 
L 1234 128 
L 459 3500 
L 1069 3500 
L 1650 819 
L 3256 3500 
L 3859 3500 
L 1588 -325 
z
" id="DejaVuSans-Oblique-79" transform="scale(0.015625)"/>
      </defs>
      <use transform="translate(0 0.3125)" xlink:href="#DejaVuSans-Oblique-79"/>
     </g>
    </g>
   </g>
   <g id="LineCollection_1">
    <path clip-path="url(#p8c65bd25a2)" d="M 59.434276 196.483933 
L 59.434276 153.801814 
" style="fill:none;stroke:#000000;stroke-width:1.5;"/>
    <path clip-path="url(#p8c65bd25a2)" d="M 72.116094 183.166219 
L 72.116094 140.4841 
" style="fill:none;stroke:#000000;stroke-width:1.5;"/>
    <path clip-path="url(#p8c65bd25a2)" d="M 84.797912 214.756364 
L 84.797912 172.074244 
" style="fill:none;stroke:#000000;stroke-width:1.5;"/>
    <path clip-path="url(#p8c65bd25a2)" d="M 97.47973 145.628499 
L 97.47973 102.94638 
" style="fill:none;stroke:#000000;stroke-width:1.5;"/>
    <path clip-path="url(#p8c65bd25a2)" d="M 110.161548 182.37322 
L 110.161548 139.691101 
" style="fill:none;stroke:#000000;stroke-width:1.5;"/>
    <path clip-path="url(#p8c65bd25a2)" d="M 122.843366 127.658783 
L 122.843366 84.976664 
" style="fill:none;stroke:#000000;stroke-width:1.5;"/>
    <path clip-path="url(#p8c65bd25a2)" d="M 135.525185 170.511884 
L 135.525185 127.829764 
" style="fill:none;stroke:#000000;stroke-width:1.5;"/>
    <path clip-path="url(#p8c65bd25a2)" d="M 148.207003 159.124225 
L 148.207003 116.442106 
" style="fill:none;stroke:#000000;stroke-width:1.5;"/>
    <path clip-path="url(#p8c65bd25a2)" d="M 160.888821 130.896264 
L 160.888821 88.214145 
" style="fill:none;stroke:#000000;stroke-width:1.5;"/>
    <path clip-path="url(#p8c65bd25a2)" d="M 173.570639 164.086505 
L 173.570639 121.404386 
" style="fill:none;stroke:#000000;stroke-width:1.5;"/>
    <path clip-path="url(#p8c65bd25a2)" d="M 186.252457 189.611238 
L 186.252457 146.929119 
" style="fill:none;stroke:#000000;stroke-width:1.5;"/>
    <path clip-path="url(#p8c65bd25a2)" d="M 198.934276 166.666542 
L 198.934276 123.984423 
" style="fill:none;stroke:#000000;stroke-width:1.5;"/>
    <path clip-path="url(#p8c65bd25a2)" d="M 211.616094 130.231476 
L 211.616094 87.549357 
" style="fill:none;stroke:#000000;stroke-width:1.5;"/>
    <path clip-path="url(#p8c65bd25a2)" d="M 224.297912 126.444796 
L 224.297912 83.762677 
" style="fill:none;stroke:#000000;stroke-width:1.5;"/>
    <path clip-path="url(#p8c65bd25a2)" d="M 236.97973 138.861805 
L 236.97973 96.179686 
" style="fill:none;stroke:#000000;stroke-width:1.5;"/>
    <path clip-path="url(#p8c65bd25a2)" d="M 249.661548 143.398244 
L 249.661548 100.716125 
" style="fill:none;stroke:#000000;stroke-width:1.5;"/>
    <path clip-path="url(#p8c65bd25a2)" d="M 262.343366 134.039948 
L 262.343366 91.357829 
" style="fill:none;stroke:#000000;stroke-width:1.5;"/>
    <path clip-path="url(#p8c65bd25a2)" d="M 275.025185 79.640815 
L 275.025185 36.958695 
" style="fill:none;stroke:#000000;stroke-width:1.5;"/>
    <path clip-path="url(#p8c65bd25a2)" d="M 287.707003 136.776314 
L 287.707003 94.094194 
" style="fill:none;stroke:#000000;stroke-width:1.5;"/>
    <path clip-path="url(#p8c65bd25a2)" d="M 300.388821 76.394125 
L 300.388821 33.712006 
" style="fill:none;stroke:#000000;stroke-width:1.5;"/>
    <path clip-path="url(#p8c65bd25a2)" d="M 313.070639 129.036434 
L 313.070639 86.354315 
" style="fill:none;stroke:#000000;stroke-width:1.5;"/>
    <path clip-path="url(#p8c65bd25a2)" d="M 325.752457 118.645016 
L 325.752457 75.962897 
" style="fill:none;stroke:#000000;stroke-width:1.5;"/>
    <path clip-path="url(#p8c65bd25a2)" d="M 338.434276 59.765756 
L 338.434276 17.083636 
" style="fill:none;stroke:#000000;stroke-width:1.5;"/>
    <path clip-path="url(#p8c65bd25a2)" d="M 351.116094 102.43283 
L 351.116094 59.750711 
" style="fill:none;stroke:#000000;stroke-width:1.5;"/>
    <path clip-path="url(#p8c65bd25a2)" d="M 363.797912 70.035535 
L 363.797912 27.353416 
" style="fill:none;stroke:#000000;stroke-width:1.5;"/>
   </g>
   <g id="line2d_15">
    <path clip-path="url(#p8c65bd25a2)" d="M 59.434276 176.438081 
L 72.116094 171.481998 
L 84.797912 166.525916 
L 97.47973 161.569834 
L 110.161548 156.613752 
L 122.843366 151.657669 
L 135.525185 146.701587 
L 148.207003 141.745505 
L 160.888821 136.789423 
L 173.570639 131.83334 
L 186.252457 126.877258 
L 198.934276 121.921176 
L 211.616094 116.965094 
L 224.297912 112.009012 
L 236.97973 107.052929 
L 249.661548 102.096847 
L 262.343366 97.140765 
L 275.025185 92.184683 
L 287.707003 87.2286 
L 300.388821 82.272518 
L 313.070639 77.316436 
L 325.752457 72.360354 
L 338.434276 67.404272 
L 351.116094 62.448189 
L 363.797912 57.492107 
" style="fill:none;stroke:#0173b2;stroke-linecap:round;stroke-opacity:0.1;stroke-width:1.5;"/>
   </g>
   <g id="line2d_16">
    <path clip-path="url(#p8c65bd25a2)" d="M 59.434276 158.21329 
L 72.116094 154.919123 
L 84.797912 151.624956 
L 97.47973 148.330788 
L 110.161548 145.036621 
L 122.843366 141.742454 
L 135.525185 138.448286 
L 148.207003 135.154119 
L 160.888821 131.859951 
L 173.570639 128.565784 
L 186.252457 125.271617 
L 198.934276 121.977449 
L 211.616094 118.683282 
L 224.297912 115.389115 
L 236.97973 112.094947 
L 249.661548 108.80078 
L 262.343366 105.506612 
L 275.025185 102.212445 
L 287.707003 98.918278 
L 300.388821 95.62411 
L 313.070639 92.329943 
L 325.752457 89.035776 
L 338.434276 85.741608 
L 351.116094 82.447441 
L 363.797912 79.153273 
" style="fill:none;stroke:#0173b2;stroke-linecap:round;stroke-opacity:0.1;stroke-width:1.5;"/>
   </g>
   <g id="line2d_17">
    <path clip-path="url(#p8c65bd25a2)" d="M 59.434276 174.403213 
L 72.116094 169.819222 
L 84.797912 165.235232 
L 97.47973 160.651241 
L 110.161548 156.06725 
L 122.843366 151.48326 
L 135.525185 146.899269 
L 148.207003 142.315279 
L 160.888821 137.731288 
L 173.570639 133.147297 
L 186.252457 128.563307 
L 198.934276 123.979316 
L 211.616094 119.395326 
L 224.297912 114.811335 
L 236.97973 110.227345 
L 249.661548 105.643354 
L 262.343366 101.059363 
L 275.025185 96.475373 
L 287.707003 91.891382 
L 300.388821 87.307392 
L 313.070639 82.723401 
L 325.752457 78.139411 
L 338.434276 73.55542 
L 351.116094 68.971429 
L 363.797912 64.387439 
" style="fill:none;stroke:#0173b2;stroke-linecap:round;stroke-opacity:0.1;stroke-width:1.5;"/>
   </g>
   <g id="line2d_18">
    <path clip-path="url(#p8c65bd25a2)" d="M 59.434276 171.07748 
L 72.116094 166.435627 
L 84.797912 161.793774 
L 97.47973 157.151922 
L 110.161548 152.510069 
L 122.843366 147.868216 
L 135.525185 143.226364 
L 148.207003 138.584511 
L 160.888821 133.942658 
L 173.570639 129.300806 
L 186.252457 124.658953 
L 198.934276 120.0171 
L 211.616094 115.375248 
L 224.297912 110.733395 
L 236.97973 106.091542 
L 249.661548 101.44969 
L 262.343366 96.807837 
L 275.025185 92.165984 
L 287.707003 87.524132 
L 300.388821 82.882279 
L 313.070639 78.240426 
L 325.752457 73.598574 
L 338.434276 68.956721 
L 351.116094 64.314868 
L 363.797912 59.673016 
" style="fill:none;stroke:#0173b2;stroke-linecap:round;stroke-opacity:0.1;stroke-width:1.5;"/>
   </g>
   <g id="line2d_19">
    <path clip-path="url(#p8c65bd25a2)" d="M 59.434276 164.394804 
L 72.116094 160.074013 
L 84.797912 155.753222 
L 97.47973 151.432431 
L 110.161548 147.111641 
L 122.843366 142.79085 
L 135.525185 138.470059 
L 148.207003 134.149268 
L 160.888821 129.828477 
L 173.570639 125.507686 
L 186.252457 121.186895 
L 198.934276 116.866105 
L 211.616094 112.545314 
L 224.297912 108.224523 
L 236.97973 103.903732 
L 249.661548 99.582941 
L 262.343366 95.26215 
L 275.025185 90.941359 
L 287.707003 86.620568 
L 300.388821 82.299778 
L 313.070639 77.978987 
L 325.752457 73.658196 
L 338.434276 69.337405 
L 351.116094 65.016614 
L 363.797912 60.695823 
" style="fill:none;stroke:#0173b2;stroke-linecap:round;stroke-opacity:0.1;stroke-width:1.5;"/>
   </g>
   <g id="line2d_20">
    <path clip-path="url(#p8c65bd25a2)" d="M 59.434276 179.079154 
L 72.116094 174.60063 
L 84.797912 170.122106 
L 97.47973 165.643581 
L 110.161548 161.165057 
L 122.843366 156.686533 
L 135.525185 152.208009 
L 148.207003 147.729485 
L 160.888821 143.25096 
L 173.570639 138.772436 
L 186.252457 134.293912 
L 198.934276 129.815388 
L 211.616094 125.336864 
L 224.297912 120.85834 
L 236.97973 116.379815 
L 249.661548 111.901291 
L 262.343366 107.422767 
L 275.025185 102.944243 
L 287.707003 98.465719 
L 300.388821 93.987195 
L 313.070639 89.50867 
L 325.752457 85.030146 
L 338.434276 80.551622 
L 351.116094 76.073098 
L 363.797912 71.594574 
" style="fill:none;stroke:#0173b2;stroke-linecap:round;stroke-opacity:0.1;stroke-width:1.5;"/>
   </g>
   <g id="line2d_21">
    <path clip-path="url(#p8c65bd25a2)" d="M 59.434276 177.288187 
L 72.116094 172.367898 
L 84.797912 167.447609 
L 97.47973 162.527321 
L 110.161548 157.607032 
L 122.843366 152.686743 
L 135.525185 147.766454 
L 148.207003 142.846165 
L 160.888821 137.925876 
L 173.570639 133.005587 
L 186.252457 128.085299 
L 198.934276 123.16501 
L 211.616094 118.244721 
L 224.297912 113.324432 
L 236.97973 108.404143 
L 249.661548 103.483854 
L 262.343366 98.563566 
L 275.025185 93.643277 
L 287.707003 88.722988 
L 300.388821 83.802699 
L 313.070639 78.88241 
L 325.752457 73.962121 
L 338.434276 69.041832 
L 351.116094 64.121544 
L 363.797912 59.201255 
" style="fill:none;stroke:#0173b2;stroke-linecap:round;stroke-opacity:0.1;stroke-width:1.5;"/>
   </g>
   <g id="line2d_22">
    <path clip-path="url(#p8c65bd25a2)" d="M 59.434276 152.308472 
L 72.116094 149.07851 
L 84.797912 145.848548 
L 97.47973 142.618585 
L 110.161548 139.388623 
L 122.843366 136.158661 
L 135.525185 132.928699 
L 148.207003 129.698737 
L 160.888821 126.468774 
L 173.570639 123.238812 
L 186.252457 120.00885 
L 198.934276 116.778888 
L 211.616094 113.548925 
L 224.297912 110.318963 
L 236.97973 107.089001 
L 249.661548 103.859039 
L 262.343366 100.629077 
L 275.025185 97.399114 
L 287.707003 94.169152 
L 300.388821 90.93919 
L 313.070639 87.709228 
L 325.752457 84.479265 
L 338.434276 81.249303 
L 351.116094 78.019341 
L 363.797912 74.789379 
" style="fill:none;stroke:#0173b2;stroke-linecap:round;stroke-opacity:0.1;stroke-width:1.5;"/>
   </g>
   <g id="line2d_23">
    <path clip-path="url(#p8c65bd25a2)" d="M 59.434276 166.970247 
L 72.116094 163.057119 
L 84.797912 159.14399 
L 97.47973 155.230862 
L 110.161548 151.317734 
L 122.843366 147.404606 
L 135.525185 143.491477 
L 148.207003 139.578349 
L 160.888821 135.665221 
L 173.570639 131.752092 
L 186.252457 127.838964 
L 198.934276 123.925836 
L 211.616094 120.012708 
L 224.297912 116.099579 
L 236.97973 112.186451 
L 249.661548 108.273323 
L 262.343366 104.360195 
L 275.025185 100.447066 
L 287.707003 96.533938 
L 300.388821 92.62081 
L 313.070639 88.707681 
L 325.752457 84.794553 
L 338.434276 80.881425 
L 351.116094 76.968297 
L 363.797912 73.055168 
" style="fill:none;stroke:#0173b2;stroke-linecap:round;stroke-opacity:0.1;stroke-width:1.5;"/>
   </g>
   <g id="line2d_24">
    <path clip-path="url(#p8c65bd25a2)" d="M 59.434276 184.173138 
L 72.116094 178.788574 
L 84.797912 173.404011 
L 97.47973 168.019448 
L 110.161548 162.634884 
L 122.843366 157.250321 
L 135.525185 151.865758 
L 148.207003 146.481194 
L 160.888821 141.096631 
L 173.570639 135.712068 
L 186.252457 130.327504 
L 198.934276 124.942941 
L 211.616094 119.558377 
L 224.297912 114.173814 
L 236.97973 108.789251 
L 249.661548 103.404687 
L 262.343366 98.020124 
L 275.025185 92.635561 
L 287.707003 87.250997 
L 300.388821 81.866434 
L 313.070639 76.481871 
L 325.752457 71.097307 
L 338.434276 65.712744 
L 351.116094 60.32818 
L 363.797912 54.943617 
" style="fill:none;stroke:#0173b2;stroke-linecap:round;stroke-opacity:0.1;stroke-width:1.5;"/>
   </g>
   <g id="line2d_25">
    <path clip-path="url(#p8c65bd25a2)" d="M 59.434276 169.298836 
L 72.116094 165.447502 
L 84.797912 161.596169 
L 97.47973 157.744835 
L 110.161548 153.893501 
L 122.843366 150.042167 
L 135.525185 146.190833 
L 148.207003 142.339499 
L 160.888821 138.488165 
L 173.570639 134.636831 
L 186.252457 130.785497 
L 198.934276 126.934163 
L 211.616094 123.082829 
L 224.297912 119.231495 
L 236.97973 115.380161 
L 249.661548 111.528827 
L 262.343366 107.677493 
L 275.025185 103.826159 
L 287.707003 99.974825 
L 300.388821 96.123491 
L 313.070639 92.272157 
L 325.752457 88.420823 
L 338.434276 84.569489 
L 351.116094 80.718155 
L 363.797912 76.866821 
" style="fill:none;stroke:#0173b2;stroke-linecap:round;stroke-opacity:0.1;stroke-width:1.5;"/>
   </g>
   <g id="line2d_26">
    <path clip-path="url(#p8c65bd25a2)" d="M 59.434276 167.040219 
L 72.116094 162.866076 
L 84.797912 158.691933 
L 97.47973 154.517791 
L 110.161548 150.343648 
L 122.843366 146.169505 
L 135.525185 141.995362 
L 148.207003 137.82122 
L 160.888821 133.647077 
L 173.570639 129.472934 
L 186.252457 125.298791 
L 198.934276 121.124649 
L 211.616094 116.950506 
L 224.297912 112.776363 
L 236.97973 108.60222 
L 249.661548 104.428078 
L 262.343366 100.253935 
L 275.025185 96.079792 
L 287.707003 91.905649 
L 300.388821 87.731506 
L 313.070639 83.557364 
L 325.752457 79.383221 
L 338.434276 75.209078 
L 351.116094 71.034935 
L 363.797912 66.860793 
" style="fill:none;stroke:#0173b2;stroke-linecap:round;stroke-opacity:0.1;stroke-width:1.5;"/>
   </g>
   <g id="line2d_27">
    <path clip-path="url(#p8c65bd25a2)" d="M 59.434276 178.454443 
L 72.116094 173.904381 
L 84.797912 169.354318 
L 97.47973 164.804256 
L 110.161548 160.254194 
L 122.843366 155.704132 
L 135.525185 151.154069 
L 148.207003 146.604007 
L 160.888821 142.053945 
L 173.570639 137.503882 
L 186.252457 132.95382 
L 198.934276 128.403758 
L 211.616094 123.853696 
L 224.297912 119.303633 
L 236.97973 114.753571 
L 249.661548 110.203509 
L 262.343366 105.653446 
L 275.025185 101.103384 
L 287.707003 96.553322 
L 300.388821 92.00326 
L 313.070639 87.453197 
L 325.752457 82.903135 
L 338.434276 78.353073 
L 351.116094 73.803011 
L 363.797912 69.252948 
" style="fill:none;stroke:#0173b2;stroke-linecap:round;stroke-opacity:0.1;stroke-width:1.5;"/>
   </g>
   <g id="line2d_28">
    <path clip-path="url(#p8c65bd25a2)" d="M 59.434276 160.148296 
L 72.116094 156.465469 
L 84.797912 152.782641 
L 97.47973 149.099814 
L 110.161548 145.416987 
L 122.843366 141.734159 
L 135.525185 138.051332 
L 148.207003 134.368504 
L 160.888821 130.685677 
L 173.570639 127.002849 
L 186.252457 123.320022 
L 198.934276 119.637194 
L 211.616094 115.954367 
L 224.297912 112.271539 
L 236.97973 108.588712 
L 249.661548 104.905884 
L 262.343366 101.223057 
L 275.025185 97.540229 
L 287.707003 93.857402 
L 300.388821 90.174575 
L 313.070639 86.491747 
L 325.752457 82.80892 
L 338.434276 79.126092 
L 351.116094 75.443265 
L 363.797912 71.760437 
" style="fill:none;stroke:#0173b2;stroke-linecap:round;stroke-opacity:0.1;stroke-width:1.5;"/>
   </g>
   <g id="line2d_29">
    <path clip-path="url(#p8c65bd25a2)" d="M 59.434276 166.990595 
L 72.116094 162.857439 
L 84.797912 158.724282 
L 97.47973 154.591126 
L 110.161548 150.45797 
L 122.843366 146.324814 
L 135.525185 142.191657 
L 148.207003 138.058501 
L 160.888821 133.925345 
L 173.570639 129.792188 
L 186.252457 125.659032 
L 198.934276 121.525876 
L 211.616094 117.39272 
L 224.297912 113.259563 
L 236.97973 109.126407 
L 249.661548 104.993251 
L 262.343366 100.860095 
L 275.025185 96.726938 
L 287.707003 92.593782 
L 300.388821 88.460626 
L 313.070639 84.32747 
L 325.752457 80.194313 
L 338.434276 76.061157 
L 351.116094 71.928001 
L 363.797912 67.794845 
" style="fill:none;stroke:#0173b2;stroke-linecap:round;stroke-opacity:0.1;stroke-width:1.5;"/>
   </g>
   <g id="line2d_30">
    <path clip-path="url(#p8c65bd25a2)" d="M 59.434276 169.947252 
L 72.116094 165.454963 
L 84.797912 160.962674 
L 97.47973 156.470386 
L 110.161548 151.978097 
L 122.843366 147.485809 
L 135.525185 142.99352 
L 148.207003 138.501232 
L 160.888821 134.008943 
L 173.570639 129.516654 
L 186.252457 125.024366 
L 198.934276 120.532077 
L 211.616094 116.039789 
L 224.297912 111.5475 
L 236.97973 107.055211 
L 249.661548 102.562923 
L 262.343366 98.070634 
L 275.025185 93.578346 
L 287.707003 89.086057 
L 300.388821 84.593769 
L 313.070639 80.10148 
L 325.752457 75.609191 
L 338.434276 71.116903 
L 351.116094 66.624614 
L 363.797912 62.132326 
" style="fill:none;stroke:#0173b2;stroke-linecap:round;stroke-opacity:0.1;stroke-width:1.5;"/>
   </g>
   <g id="line2d_31">
    <path clip-path="url(#p8c65bd25a2)" d="M 59.434276 161.207073 
L 72.116094 156.796272 
L 84.797912 152.385471 
L 97.47973 147.974671 
L 110.161548 143.56387 
L 122.843366 139.153069 
L 135.525185 134.742269 
L 148.207003 130.331468 
L 160.888821 125.920668 
L 173.570639 121.509867 
L 186.252457 117.099066 
L 198.934276 112.688266 
L 211.616094 108.277465 
L 224.297912 103.866664 
L 236.97973 99.455864 
L 249.661548 95.045063 
L 262.343366 90.634263 
L 275.025185 86.223462 
L 287.707003 81.812661 
L 300.388821 77.401861 
L 313.070639 72.99106 
L 325.752457 68.580259 
L 338.434276 64.169459 
L 351.116094 59.758658 
L 363.797912 55.347858 
" style="fill:none;stroke:#0173b2;stroke-linecap:round;stroke-opacity:0.1;stroke-width:1.5;"/>
   </g>
   <g id="line2d_32">
    <path clip-path="url(#p8c65bd25a2)" d="M 59.434276 169.555789 
L 72.116094 164.790098 
L 84.797912 160.024406 
L 97.47973 155.258715 
L 110.161548 150.493024 
L 122.843366 145.727333 
L 135.525185 140.961641 
L 148.207003 136.19595 
L 160.888821 131.430259 
L 173.570639 126.664567 
L 186.252457 121.898876 
L 198.934276 117.133185 
L 211.616094 112.367493 
L 224.297912 107.601802 
L 236.97973 102.836111 
L 249.661548 98.07042 
L 262.343366 93.304728 
L 275.025185 88.539037 
L 287.707003 83.773346 
L 300.388821 79.007654 
L 313.070639 74.241963 
L 325.752457 69.476272 
L 338.434276 64.71058 
L 351.116094 59.944889 
L 363.797912 55.179198 
" style="fill:none;stroke:#0173b2;stroke-linecap:round;stroke-opacity:0.1;stroke-width:1.5;"/>
   </g>
   <g id="line2d_33">
    <path clip-path="url(#p8c65bd25a2)" d="M 59.434276 171.576009 
L 72.116094 167.211415 
L 84.797912 162.84682 
L 97.47973 158.482226 
L 110.161548 154.117632 
L 122.843366 149.753038 
L 135.525185 145.388443 
L 148.207003 141.023849 
L 160.888821 136.659255 
L 173.570639 132.294661 
L 186.252457 127.930066 
L 198.934276 123.565472 
L 211.616094 119.200878 
L 224.297912 114.836284 
L 236.97973 110.471689 
L 249.661548 106.107095 
L 262.343366 101.742501 
L 275.025185 97.377907 
L 287.707003 93.013312 
L 300.388821 88.648718 
L 313.070639 84.284124 
L 325.752457 79.91953 
L 338.434276 75.554936 
L 351.116094 71.190341 
L 363.797912 66.825747 
" style="fill:none;stroke:#0173b2;stroke-linecap:round;stroke-opacity:0.1;stroke-width:1.5;"/>
   </g>
   <g id="line2d_34">
    <path clip-path="url(#p8c65bd25a2)" d="M 59.434276 151.139398 
L 72.116094 148.178549 
L 84.797912 145.217699 
L 97.47973 142.25685 
L 110.161548 139.296 
L 122.843366 136.335151 
L 135.525185 133.374301 
L 148.207003 130.413452 
L 160.888821 127.452602 
L 173.570639 124.491753 
L 186.252457 121.530903 
L 198.934276 118.570054 
L 211.616094 115.609204 
L 224.297912 112.648355 
L 236.97973 109.687505 
L 249.661548 106.726656 
L 262.343366 103.765806 
L 275.025185 100.804957 
L 287.707003 97.844107 
L 300.388821 94.883258 
L 313.070639 91.922408 
L 325.752457 88.961559 
L 338.434276 86.000709 
L 351.116094 83.03986 
L 363.797912 80.07901 
" style="fill:none;stroke:#0173b2;stroke-linecap:round;stroke-opacity:0.1;stroke-width:1.5;"/>
   </g>
   <g id="line2d_35">
    <path clip-path="url(#p8c65bd25a2)" d="M 59.434276 169.261411 
L 72.116094 165.128327 
L 84.797912 160.995243 
L 97.47973 156.862159 
L 110.161548 152.729075 
L 122.843366 148.595991 
L 135.525185 144.462906 
L 148.207003 140.329822 
L 160.888821 136.196738 
L 173.570639 132.063654 
L 186.252457 127.93057 
L 198.934276 123.797486 
L 211.616094 119.664402 
L 224.297912 115.531318 
L 236.97973 111.398234 
L 249.661548 107.26515 
L 262.343366 103.132066 
L 275.025185 98.998982 
L 287.707003 94.865898 
L 300.388821 90.732814 
L 313.070639 86.59973 
L 325.752457 82.466646 
L 338.434276 78.333562 
L 351.116094 74.200478 
L 363.797912 70.067394 
" style="fill:none;stroke:#0173b2;stroke-linecap:round;stroke-opacity:0.1;stroke-width:1.5;"/>
   </g>
   <g id="line2d_36">
    <path clip-path="url(#p8c65bd25a2)" d="M 59.434276 162.890044 
L 72.116094 159.002014 
L 84.797912 155.113984 
L 97.47973 151.225953 
L 110.161548 147.337923 
L 122.843366 143.449893 
L 135.525185 139.561862 
L 148.207003 135.673832 
L 160.888821 131.785802 
L 173.570639 127.897771 
L 186.252457 124.009741 
L 198.934276 120.121711 
L 211.616094 116.23368 
L 224.297912 112.34565 
L 236.97973 108.45762 
L 249.661548 104.56959 
L 262.343366 100.681559 
L 275.025185 96.793529 
L 287.707003 92.905499 
L 300.388821 89.017468 
L 313.070639 85.129438 
L 325.752457 81.241408 
L 338.434276 77.353377 
L 351.116094 73.465347 
L 363.797912 69.577317 
" style="fill:none;stroke:#0173b2;stroke-linecap:round;stroke-opacity:0.1;stroke-width:1.5;"/>
   </g>
   <g id="line2d_37">
    <path clip-path="url(#p8c65bd25a2)" d="M 59.434276 163.878995 
L 72.116094 159.802979 
L 84.797912 155.726962 
L 97.47973 151.650945 
L 110.161548 147.574929 
L 122.843366 143.498912 
L 135.525185 139.422896 
L 148.207003 135.346879 
L 160.888821 131.270863 
L 173.570639 127.194846 
L 186.252457 123.11883 
L 198.934276 119.042813 
L 211.616094 114.966796 
L 224.297912 110.89078 
L 236.97973 106.814763 
L 249.661548 102.738747 
L 262.343366 98.66273 
L 275.025185 94.586714 
L 287.707003 90.510697 
L 300.388821 86.43468 
L 313.070639 82.358664 
L 325.752457 78.282647 
L 338.434276 74.206631 
L 351.116094 70.130614 
L 363.797912 66.054598 
" style="fill:none;stroke:#0173b2;stroke-linecap:round;stroke-opacity:0.1;stroke-width:1.5;"/>
   </g>
   <g id="line2d_38">
    <path clip-path="url(#p8c65bd25a2)" d="M 59.434276 173.971394 
L 72.116094 169.609993 
L 84.797912 165.248592 
L 97.47973 160.887191 
L 110.161548 156.52579 
L 122.843366 152.164388 
L 135.525185 147.802987 
L 148.207003 143.441586 
L 160.888821 139.080185 
L 173.570639 134.718784 
L 186.252457 130.357383 
L 198.934276 125.995981 
L 211.616094 121.63458 
L 224.297912 117.273179 
L 236.97973 112.911778 
L 249.661548 108.550377 
L 262.343366 104.188976 
L 275.025185 99.827575 
L 287.707003 95.466173 
L 300.388821 91.104772 
L 313.070639 86.743371 
L 325.752457 82.38197 
L 338.434276 78.020569 
L 351.116094 73.659168 
L 363.797912 69.297766 
" style="fill:none;stroke:#0173b2;stroke-linecap:round;stroke-opacity:0.1;stroke-width:1.5;"/>
   </g>
   <g id="line2d_39">
    <path clip-path="url(#p8c65bd25a2)" d="M 59.434276 174.991227 
L 72.116094 170.405275 
L 84.797912 165.819323 
L 97.47973 161.233371 
L 110.161548 156.64742 
L 122.843366 152.061468 
L 135.525185 147.475516 
L 148.207003 142.889564 
L 160.888821 138.303612 
L 173.570639 133.717661 
L 186.252457 129.131709 
L 198.934276 124.545757 
L 211.616094 119.959805 
L 224.297912 115.373853 
L 236.97973 110.787902 
L 249.661548 106.20195 
L 262.343366 101.615998 
L 275.025185 97.030046 
L 287.707003 92.444094 
L 300.388821 87.858142 
L 313.070639 83.272191 
L 325.752457 78.686239 
L 338.434276 74.100287 
L 351.116094 69.514335 
L 363.797912 64.928383 
" style="fill:none;stroke:#0173b2;stroke-linecap:round;stroke-opacity:0.1;stroke-width:1.5;"/>
   </g>
   <g id="line2d_40">
    <path clip-path="url(#p8c65bd25a2)" d="M 59.434276 174.411766 
L 72.116094 170.022129 
L 84.797912 165.632492 
L 97.47973 161.242856 
L 110.161548 156.853219 
L 122.843366 152.463582 
L 135.525185 148.073945 
L 148.207003 143.684308 
L 160.888821 139.294671 
L 173.570639 134.905035 
L 186.252457 130.515398 
L 198.934276 126.125761 
L 211.616094 121.736124 
L 224.297912 117.346487 
L 236.97973 112.956851 
L 249.661548 108.567214 
L 262.343366 104.177577 
L 275.025185 99.78794 
L 287.707003 95.398303 
L 300.388821 91.008666 
L 313.070639 86.61903 
L 325.752457 82.229393 
L 338.434276 77.839756 
L 351.116094 73.450119 
L 363.797912 69.060482 
" style="fill:none;stroke:#0173b2;stroke-linecap:round;stroke-opacity:0.1;stroke-width:1.5;"/>
   </g>
   <g id="line2d_41">
    <path clip-path="url(#p8c65bd25a2)" d="M 59.434276 156.695348 
L 72.116094 153.217074 
L 84.797912 149.738801 
L 97.47973 146.260528 
L 110.161548 142.782254 
L 122.843366 139.303981 
L 135.525185 135.825708 
L 148.207003 132.347434 
L 160.888821 128.869161 
L 173.570639 125.390888 
L 186.252457 121.912614 
L 198.934276 118.434341 
L 211.616094 114.956067 
L 224.297912 111.477794 
L 236.97973 107.999521 
L 249.661548 104.521247 
L 262.343366 101.042974 
L 275.025185 97.564701 
L 287.707003 94.086427 
L 300.388821 90.608154 
L 313.070639 87.129881 
L 325.752457 83.651607 
L 338.434276 80.173334 
L 351.116094 76.695061 
L 363.797912 73.216787 
" style="fill:none;stroke:#0173b2;stroke-linecap:round;stroke-opacity:0.1;stroke-width:1.5;"/>
   </g>
   <g id="line2d_42">
    <path clip-path="url(#p8c65bd25a2)" d="M 59.434276 179.140442 
L 72.116094 174.05528 
L 84.797912 168.970119 
L 97.47973 163.884958 
L 110.161548 158.799797 
L 122.843366 153.714636 
L 135.525185 148.629475 
L 148.207003 143.544313 
L 160.888821 138.459152 
L 173.570639 133.373991 
L 186.252457 128.28883 
L 198.934276 123.203669 
L 211.616094 118.118508 
L 224.297912 113.033347 
L 236.97973 107.948185 
L 249.661548 102.863024 
L 262.343366 97.777863 
L 275.025185 92.692702 
L 287.707003 87.607541 
L 300.388821 82.52238 
L 313.070639 77.437218 
L 325.752457 72.352057 
L 338.434276 67.266896 
L 351.116094 62.181735 
L 363.797912 57.096574 
" style="fill:none;stroke:#0173b2;stroke-linecap:round;stroke-opacity:0.1;stroke-width:1.5;"/>
   </g>
   <g id="line2d_43">
    <path clip-path="url(#p8c65bd25a2)" d="M 59.434276 162.906751 
L 72.116094 158.781094 
L 84.797912 154.655437 
L 97.47973 150.529779 
L 110.161548 146.404122 
L 122.843366 142.278465 
L 135.525185 138.152807 
L 148.207003 134.02715 
L 160.888821 129.901493 
L 173.570639 125.775836 
L 186.252457 121.650178 
L 198.934276 117.524521 
L 211.616094 113.398864 
L 224.297912 109.273206 
L 236.97973 105.147549 
L 249.661548 101.021892 
L 262.343366 96.896234 
L 275.025185 92.770577 
L 287.707003 88.64492 
L 300.388821 84.519262 
L 313.070639 80.393605 
L 325.752457 76.267948 
L 338.434276 72.14229 
L 351.116094 68.016633 
L 363.797912 63.890976 
" style="fill:none;stroke:#0173b2;stroke-linecap:round;stroke-opacity:0.1;stroke-width:1.5;"/>
   </g>
   <g id="line2d_44">
    <path clip-path="url(#p8c65bd25a2)" d="M 59.434276 174.180384 
L 72.116094 169.311321 
L 84.797912 164.442257 
L 97.47973 159.573194 
L 110.161548 154.704131 
L 122.843366 149.835067 
L 135.525185 144.966004 
L 148.207003 140.09694 
L 160.888821 135.227877 
L 173.570639 130.358813 
L 186.252457 125.48975 
L 198.934276 120.620686 
L 211.616094 115.751623 
L 224.297912 110.88256 
L 236.97973 106.013496 
L 249.661548 101.144433 
L 262.343366 96.275369 
L 275.025185 91.406306 
L 287.707003 86.537242 
L 300.388821 81.668179 
L 313.070639 76.799116 
L 325.752457 71.930052 
L 338.434276 67.060989 
L 351.116094 62.191925 
L 363.797912 57.322862 
" style="fill:none;stroke:#0173b2;stroke-linecap:round;stroke-opacity:0.1;stroke-width:1.5;"/>
   </g>
   <g id="line2d_45">
    <path clip-path="url(#p8c65bd25a2)" d="M 59.434276 156.005199 
L 72.116094 152.325839 
L 84.797912 148.646478 
L 97.47973 144.967118 
L 110.161548 141.287758 
L 122.843366 137.608397 
L 135.525185 133.929037 
L 148.207003 130.249677 
L 160.888821 126.570317 
L 173.570639 122.890956 
L 186.252457 119.211596 
L 198.934276 115.532236 
L 211.616094 111.852875 
L 224.297912 108.173515 
L 236.97973 104.494155 
L 249.661548 100.814795 
L 262.343366 97.135434 
L 275.025185 93.456074 
L 287.707003 89.776714 
L 300.388821 86.097353 
L 313.070639 82.417993 
L 325.752457 78.738633 
L 338.434276 75.059273 
L 351.116094 71.379912 
L 363.797912 67.700552 
" style="fill:none;stroke:#0173b2;stroke-linecap:round;stroke-opacity:0.1;stroke-width:1.5;"/>
   </g>
   <g id="line2d_46">
    <path clip-path="url(#p8c65bd25a2)" d="M 59.434276 166.572125 
L 72.116094 162.658623 
L 84.797912 158.74512 
L 97.47973 154.831618 
L 110.161548 150.918116 
L 122.843366 147.004613 
L 135.525185 143.091111 
L 148.207003 139.177609 
L 160.888821 135.264107 
L 173.570639 131.350604 
L 186.252457 127.437102 
L 198.934276 123.5236 
L 211.616094 119.610097 
L 224.297912 115.696595 
L 236.97973 111.783093 
L 249.661548 107.86959 
L 262.343366 103.956088 
L 275.025185 100.042586 
L 287.707003 96.129083 
L 300.388821 92.215581 
L 313.070639 88.302079 
L 325.752457 84.388576 
L 338.434276 80.475074 
L 351.116094 76.561572 
L 363.797912 72.64807 
" style="fill:none;stroke:#0173b2;stroke-linecap:round;stroke-opacity:0.1;stroke-width:1.5;"/>
   </g>
   <g id="line2d_47">
    <path clip-path="url(#p8c65bd25a2)" d="M 59.434276 158.19199 
L 72.116094 154.68906 
L 84.797912 151.18613 
L 97.47973 147.6832 
L 110.161548 144.18027 
L 122.843366 140.67734 
L 135.525185 137.17441 
L 148.207003 133.67148 
L 160.888821 130.16855 
L 173.570639 126.665619 
L 186.252457 123.162689 
L 198.934276 119.659759 
L 211.616094 116.156829 
L 224.297912 112.653899 
L 236.97973 109.150969 
L 249.661548 105.648039 
L 262.343366 102.145109 
L 275.025185 98.642179 
L 287.707003 95.139249 
L 300.388821 91.636318 
L 313.070639 88.133388 
L 325.752457 84.630458 
L 338.434276 81.127528 
L 351.116094 77.624598 
L 363.797912 74.121668 
" style="fill:none;stroke:#0173b2;stroke-linecap:round;stroke-opacity:0.1;stroke-width:1.5;"/>
   </g>
   <g id="line2d_48">
    <path clip-path="url(#p8c65bd25a2)" d="M 59.434276 167.042849 
L 72.116094 162.916769 
L 84.797912 158.790688 
L 97.47973 154.664607 
L 110.161548 150.538526 
L 122.843366 146.412446 
L 135.525185 142.286365 
L 148.207003 138.160284 
L 160.888821 134.034204 
L 173.570639 129.908123 
L 186.252457 125.782042 
L 198.934276 121.655961 
L 211.616094 117.529881 
L 224.297912 113.4038 
L 236.97973 109.277719 
L 249.661548 105.151638 
L 262.343366 101.025558 
L 275.025185 96.899477 
L 287.707003 92.773396 
L 300.388821 88.647316 
L 313.070639 84.521235 
L 325.752457 80.395154 
L 338.434276 76.269073 
L 351.116094 72.142993 
L 363.797912 68.016912 
" style="fill:none;stroke:#0173b2;stroke-linecap:round;stroke-opacity:0.1;stroke-width:1.5;"/>
   </g>
   <g id="line2d_49">
    <path clip-path="url(#p8c65bd25a2)" d="M 59.434276 165.961733 
L 72.116094 162.137319 
L 84.797912 158.312905 
L 97.47973 154.48849 
L 110.161548 150.664076 
L 122.843366 146.839662 
L 135.525185 143.015247 
L 148.207003 139.190833 
L 160.888821 135.366419 
L 173.570639 131.542005 
L 186.252457 127.71759 
L 198.934276 123.893176 
L 211.616094 120.068762 
L 224.297912 116.244348 
L 236.97973 112.419933 
L 249.661548 108.595519 
L 262.343366 104.771105 
L 275.025185 100.946691 
L 287.707003 97.122276 
L 300.388821 93.297862 
L 313.070639 89.473448 
L 325.752457 85.649034 
L 338.434276 81.824619 
L 351.116094 78.000205 
L 363.797912 74.175791 
" style="fill:none;stroke:#0173b2;stroke-linecap:round;stroke-opacity:0.1;stroke-width:1.5;"/>
   </g>
   <g id="line2d_50">
    <path clip-path="url(#p8c65bd25a2)" d="M 59.434276 173.530616 
L 72.116094 169.194779 
L 84.797912 164.858943 
L 97.47973 160.523106 
L 110.161548 156.187269 
L 122.843366 151.851433 
L 135.525185 147.515596 
L 148.207003 143.179759 
L 160.888821 138.843923 
L 173.570639 134.508086 
L 186.252457 130.17225 
L 198.934276 125.836413 
L 211.616094 121.500576 
L 224.297912 117.16474 
L 236.97973 112.828903 
L 249.661548 108.493067 
L 262.343366 104.15723 
L 275.025185 99.821393 
L 287.707003 95.485557 
L 300.388821 91.14972 
L 313.070639 86.813884 
L 325.752457 82.478047 
L 338.434276 78.14221 
L 351.116094 73.806374 
L 363.797912 69.470537 
" style="fill:none;stroke:#0173b2;stroke-linecap:round;stroke-opacity:0.1;stroke-width:1.5;"/>
   </g>
   <g id="line2d_51">
    <path clip-path="url(#p8c65bd25a2)" d="M 59.434276 152.47498 
L 72.116094 149.467234 
L 84.797912 146.459489 
L 97.47973 143.451743 
L 110.161548 140.443997 
L 122.843366 137.436251 
L 135.525185 134.428505 
L 148.207003 131.420759 
L 160.888821 128.413013 
L 173.570639 125.405267 
L 186.252457 122.397521 
L 198.934276 119.389775 
L 211.616094 116.382029 
L 224.297912 113.374284 
L 236.97973 110.366538 
L 249.661548 107.358792 
L 262.343366 104.351046 
L 275.025185 101.3433 
L 287.707003 98.335554 
L 300.388821 95.327808 
L 313.070639 92.320062 
L 325.752457 89.312316 
L 338.434276 86.30457 
L 351.116094 83.296824 
L 363.797912 80.289079 
" style="fill:none;stroke:#0173b2;stroke-linecap:round;stroke-opacity:0.1;stroke-width:1.5;"/>
   </g>
   <g id="line2d_52">
    <path clip-path="url(#p8c65bd25a2)" d="M 59.434276 174.024585 
L 72.116094 170.093117 
L 84.797912 166.161649 
L 97.47973 162.230181 
L 110.161548 158.298713 
L 122.843366 154.367245 
L 135.525185 150.435777 
L 148.207003 146.504309 
L 160.888821 142.572841 
L 173.570639 138.641373 
L 186.252457 134.709905 
L 198.934276 130.778437 
L 211.616094 126.846969 
L 224.297912 122.915501 
L 236.97973 118.984033 
L 249.661548 115.052565 
L 262.343366 111.121097 
L 275.025185 107.189629 
L 287.707003 103.258161 
L 300.388821 99.326693 
L 313.070639 95.395225 
L 325.752457 91.463757 
L 338.434276 87.532289 
L 351.116094 83.600821 
L 363.797912 79.669353 
" style="fill:none;stroke:#0173b2;stroke-linecap:round;stroke-opacity:0.1;stroke-width:1.5;"/>
   </g>
   <g id="line2d_53">
    <path clip-path="url(#p8c65bd25a2)" d="M 59.434276 189.470841 
L 72.116094 184.009101 
L 84.797912 178.54736 
L 97.47973 173.085619 
L 110.161548 167.623879 
L 122.843366 162.162138 
L 135.525185 156.700398 
L 148.207003 151.238657 
L 160.888821 145.776917 
L 173.570639 140.315176 
L 186.252457 134.853436 
L 198.934276 129.391695 
L 211.616094 123.929955 
L 224.297912 118.468214 
L 236.97973 113.006473 
L 249.661548 107.544733 
L 262.343366 102.082992 
L 275.025185 96.621252 
L 287.707003 91.159511 
L 300.388821 85.697771 
L 313.070639 80.23603 
L 325.752457 74.77429 
L 338.434276 69.312549 
L 351.116094 63.850808 
L 363.797912 58.389068 
" style="fill:none;stroke:#0173b2;stroke-linecap:round;stroke-opacity:0.1;stroke-width:1.5;"/>
   </g>
   <g id="line2d_54">
    <path clip-path="url(#p8c65bd25a2)" d="M 59.434276 178.370698 
L 72.116094 173.492866 
L 84.797912 168.615034 
L 97.47973 163.737202 
L 110.161548 158.85937 
L 122.843366 153.981538 
L 135.525185 149.103706 
L 148.207003 144.225874 
L 160.888821 139.348042 
L 173.570639 134.47021 
L 186.252457 129.592379 
L 198.934276 124.714547 
L 211.616094 119.836715 
L 224.297912 114.958883 
L 236.97973 110.081051 
L 249.661548 105.203219 
L 262.343366 100.325387 
L 275.025185 95.447555 
L 287.707003 90.569723 
L 300.388821 85.691891 
L 313.070639 80.81406 
L 325.752457 75.936228 
L 338.434276 71.058396 
L 351.116094 66.180564 
L 363.797912 61.302732 
" style="fill:none;stroke:#0173b2;stroke-linecap:round;stroke-opacity:0.1;stroke-width:1.5;"/>
   </g>
   <g id="line2d_55">
    <path clip-path="url(#p8c65bd25a2)" d="M 59.434276 166.474535 
L 72.116094 162.446452 
L 84.797912 158.418369 
L 97.47973 154.390286 
L 110.161548 150.362203 
L 122.843366 146.334119 
L 135.525185 142.306036 
L 148.207003 138.277953 
L 160.888821 134.24987 
L 173.570639 130.221787 
L 186.252457 126.193703 
L 198.934276 122.16562 
L 211.616094 118.137537 
L 224.297912 114.109454 
L 236.97973 110.08137 
L 249.661548 106.053287 
L 262.343366 102.025204 
L 275.025185 97.997121 
L 287.707003 93.969038 
L 300.388821 89.940954 
L 313.070639 85.912871 
L 325.752457 81.884788 
L 338.434276 77.856705 
L 351.116094 73.828622 
L 363.797912 69.800538 
" style="fill:none;stroke:#0173b2;stroke-linecap:round;stroke-opacity:0.1;stroke-width:1.5;"/>
   </g>
   <g id="line2d_56">
    <path clip-path="url(#p8c65bd25a2)" d="M 59.434276 160.159184 
L 72.116094 155.675984 
L 84.797912 151.192785 
L 97.47973 146.709585 
L 110.161548 142.226385 
L 122.843366 137.743186 
L 135.525185 133.259986 
L 148.207003 128.776786 
L 160.888821 124.293587 
L 173.570639 119.810387 
L 186.252457 115.327187 
L 198.934276 110.843988 
L 211.616094 106.360788 
L 224.297912 101.877588 
L 236.97973 97.394389 
L 249.661548 92.911189 
L 262.343366 88.427989 
L 275.025185 83.94479 
L 287.707003 79.46159 
L 300.388821 74.97839 
L 313.070639 70.495191 
L 325.752457 66.011991 
L 338.434276 61.528791 
L 351.116094 57.045591 
L 363.797912 52.562392 
" style="fill:none;stroke:#0173b2;stroke-linecap:round;stroke-opacity:0.1;stroke-width:1.5;"/>
   </g>
   <g id="line2d_57">
    <path clip-path="url(#p8c65bd25a2)" d="M 59.434276 173.773416 
L 72.116094 169.458531 
L 84.797912 165.143647 
L 97.47973 160.828762 
L 110.161548 156.513877 
L 122.843366 152.198992 
L 135.525185 147.884107 
L 148.207003 143.569222 
L 160.888821 139.254337 
L 173.570639 134.939452 
L 186.252457 130.624567 
L 198.934276 126.309682 
L 211.616094 121.994797 
L 224.297912 117.679912 
L 236.97973 113.365027 
L 249.661548 109.050142 
L 262.343366 104.735257 
L 275.025185 100.420373 
L 287.707003 96.105488 
L 300.388821 91.790603 
L 313.070639 87.475718 
L 325.752457 83.160833 
L 338.434276 78.845948 
L 351.116094 74.531063 
L 363.797912 70.216178 
" style="fill:none;stroke:#0173b2;stroke-linecap:round;stroke-opacity:0.1;stroke-width:1.5;"/>
   </g>
   <g id="line2d_58">
    <path clip-path="url(#p8c65bd25a2)" d="M 59.434276 189.470841 
L 72.116094 184.009101 
L 84.797912 178.54736 
L 97.47973 173.085619 
L 110.161548 167.623879 
L 122.843366 162.162138 
L 135.525185 156.700398 
L 148.207003 151.238657 
L 160.888821 145.776917 
L 173.570639 140.315176 
L 186.252457 134.853436 
L 198.934276 129.391695 
L 211.616094 123.929955 
L 224.297912 118.468214 
L 236.97973 113.006473 
L 249.661548 107.544733 
L 262.343366 102.082992 
L 275.025185 96.621252 
L 287.707003 91.159511 
L 300.388821 85.697771 
L 313.070639 80.23603 
L 325.752457 74.77429 
L 338.434276 69.312549 
L 351.116094 63.850808 
L 363.797912 58.389068 
" style="fill:none;stroke:#0173b2;stroke-linecap:round;stroke-opacity:0.1;stroke-width:1.5;"/>
   </g>
   <g id="line2d_59">
    <path clip-path="url(#p8c65bd25a2)" d="M 59.434276 173.306816 
L 72.116094 168.937002 
L 84.797912 164.567189 
L 97.47973 160.197375 
L 110.161548 155.827561 
L 122.843366 151.457748 
L 135.525185 147.087934 
L 148.207003 142.71812 
L 160.888821 138.348307 
L 173.570639 133.978493 
L 186.252457 129.608679 
L 198.934276 125.238866 
L 211.616094 120.869052 
L 224.297912 116.499238 
L 236.97973 112.129425 
L 249.661548 107.759611 
L 262.343366 103.389797 
L 275.025185 99.019983 
L 287.707003 94.65017 
L 300.388821 90.280356 
L 313.070639 85.910542 
L 325.752457 81.540729 
L 338.434276 77.170915 
L 351.116094 72.801101 
L 363.797912 68.431288 
" style="fill:none;stroke:#0173b2;stroke-linecap:round;stroke-opacity:0.1;stroke-width:1.5;"/>
   </g>
   <g id="line2d_60">
    <path clip-path="url(#p8c65bd25a2)" d="M 59.434276 159.79157 
L 72.116094 155.433648 
L 84.797912 151.075725 
L 97.47973 146.717803 
L 110.161548 142.35988 
L 122.843366 138.001958 
L 135.525185 133.644035 
L 148.207003 129.286113 
L 160.888821 124.92819 
L 173.570639 120.570268 
L 186.252457 116.212346 
L 198.934276 111.854423 
L 211.616094 107.496501 
L 224.297912 103.138578 
L 236.97973 98.780656 
L 249.661548 94.422733 
L 262.343366 90.064811 
L 275.025185 85.706888 
L 287.707003 81.348966 
L 300.388821 76.991043 
L 313.070639 72.633121 
L 325.752457 68.275198 
L 338.434276 63.917276 
L 351.116094 59.559354 
L 363.797912 55.201431 
" style="fill:none;stroke:#0173b2;stroke-linecap:round;stroke-opacity:0.1;stroke-width:1.5;"/>
   </g>
   <g id="line2d_61">
    <path clip-path="url(#p8c65bd25a2)" d="M 59.434276 178.883968 
L 72.116094 173.805864 
L 84.797912 168.727759 
L 97.47973 163.649655 
L 110.161548 158.57155 
L 122.843366 153.493446 
L 135.525185 148.415341 
L 148.207003 143.337237 
L 160.888821 138.259132 
L 173.570639 133.181028 
L 186.252457 128.102924 
L 198.934276 123.024819 
L 211.616094 117.946715 
L 224.297912 112.86861 
L 236.97973 107.790506 
L 249.661548 102.712401 
L 262.343366 97.634297 
L 275.025185 92.556192 
L 287.707003 87.478088 
L 300.388821 82.399983 
L 313.070639 77.321879 
L 325.752457 72.243775 
L 338.434276 67.16567 
L 351.116094 62.087566 
L 363.797912 57.009461 
" style="fill:none;stroke:#0173b2;stroke-linecap:round;stroke-opacity:0.1;stroke-width:1.5;"/>
   </g>
   <g id="line2d_62">
    <path clip-path="url(#p8c65bd25a2)" d="M 59.434276 160.526487 
L 72.116094 156.50862 
L 84.797912 152.490754 
L 97.47973 148.472887 
L 110.161548 144.45502 
L 122.843366 140.437153 
L 135.525185 136.419287 
L 148.207003 132.40142 
L 160.888821 128.383553 
L 173.570639 124.365687 
L 186.252457 120.34782 
L 198.934276 116.329953 
L 211.616094 112.312086 
L 224.297912 108.29422 
L 236.97973 104.276353 
L 249.661548 100.258486 
L 262.343366 96.240619 
L 275.025185 92.222753 
L 287.707003 88.204886 
L 300.388821 84.187019 
L 313.070639 80.169153 
L 325.752457 76.151286 
L 338.434276 72.133419 
L 351.116094 68.115552 
L 363.797912 64.097686 
" style="fill:none;stroke:#0173b2;stroke-linecap:round;stroke-opacity:0.1;stroke-width:1.5;"/>
   </g>
   <g id="line2d_63">
    <path clip-path="url(#p8c65bd25a2)" d="M 59.434276 171.679813 
L 72.116094 167.304896 
L 84.797912 162.92998 
L 97.47973 158.555063 
L 110.161548 154.180147 
L 122.843366 149.805231 
L 135.525185 145.430314 
L 148.207003 141.055398 
L 160.888821 136.680481 
L 173.570639 132.305565 
L 186.252457 127.930649 
L 198.934276 123.555732 
L 211.616094 119.180816 
L 224.297912 114.805899 
L 236.97973 110.430983 
L 249.661548 106.056067 
L 262.343366 101.68115 
L 275.025185 97.306234 
L 287.707003 92.931317 
L 300.388821 88.556401 
L 313.070639 84.181485 
L 325.752457 79.806568 
L 338.434276 75.431652 
L 351.116094 71.056735 
L 363.797912 66.681819 
" style="fill:none;stroke:#0173b2;stroke-linecap:round;stroke-opacity:0.1;stroke-width:1.5;"/>
   </g>
   <g id="line2d_64">
    <path clip-path="url(#p8c65bd25a2)" d="M 59.434276 170.612407 
L 72.116094 165.976632 
L 84.797912 161.340858 
L 97.47973 156.705083 
L 110.161548 152.069308 
L 122.843366 147.433534 
L 135.525185 142.797759 
L 148.207003 138.161984 
L 160.888821 133.526209 
L 173.570639 128.890435 
L 186.252457 124.25466 
L 198.934276 119.618885 
L 211.616094 114.983111 
L 224.297912 110.347336 
L 236.97973 105.711561 
L 249.661548 101.075786 
L 262.343366 96.440012 
L 275.025185 91.804237 
L 287.707003 87.168462 
L 300.388821 82.532687 
L 313.070639 77.896913 
L 325.752457 73.261138 
L 338.434276 68.625363 
L 351.116094 63.989589 
L 363.797912 59.353814 
" style="fill:none;stroke:#0173b2;stroke-linecap:round;stroke-opacity:0.1;stroke-width:1.5;"/>
   </g>
   <g id="line2d_65">
    <path clip-path="url(#p8c65bd25a2)" d="M 59.434276 179.34515 
L 72.116094 174.051266 
L 84.797912 168.757381 
L 97.47973 163.463497 
L 110.161548 158.169613 
L 122.843366 152.875729 
L 135.525185 147.581844 
L 148.207003 142.28796 
L 160.888821 136.994076 
L 173.570639 131.700192 
L 186.252457 126.406307 
L 198.934276 121.112423 
L 211.616094 115.818539 
L 224.297912 110.524655 
L 236.97973 105.23077 
L 249.661548 99.936886 
L 262.343366 94.643002 
L 275.025185 89.349118 
L 287.707003 84.055233 
L 300.388821 78.761349 
L 313.070639 73.467465 
L 325.752457 68.173581 
L 338.434276 62.879696 
L 351.116094 57.585812 
L 363.797912 52.291928 
" style="fill:none;stroke:#0173b2;stroke-linecap:round;stroke-opacity:0.1;stroke-width:1.5;"/>
   </g>
   <g id="line2d_66">
    <path clip-path="url(#p8c65bd25a2)" d="M 59.434276 185.14795 
L 72.116094 180.034651 
L 84.797912 174.921353 
L 97.47973 169.808054 
L 110.161548 164.694755 
L 122.843366 159.581457 
L 135.525185 154.468158 
L 148.207003 149.354859 
L 160.888821 144.241561 
L 173.570639 139.128262 
L 186.252457 134.014963 
L 198.934276 128.901665 
L 211.616094 123.788366 
L 224.297912 118.675067 
L 236.97973 113.561769 
L 249.661548 108.44847 
L 262.343366 103.335171 
L 275.025185 98.221873 
L 287.707003 93.108574 
L 300.388821 87.995275 
L 313.070639 82.881977 
L 325.752457 77.768678 
L 338.434276 72.655379 
L 351.116094 67.542081 
L 363.797912 62.428782 
" style="fill:none;stroke:#0173b2;stroke-linecap:round;stroke-opacity:0.1;stroke-width:1.5;"/>
   </g>
   <g id="line2d_67">
    <path clip-path="url(#p8c65bd25a2)" d="M 59.434276 170.632161 
L 72.116094 166.057744 
L 84.797912 161.483328 
L 97.47973 156.908911 
L 110.161548 152.334495 
L 122.843366 147.760078 
L 135.525185 143.185662 
L 148.207003 138.611245 
L 160.888821 134.036829 
L 173.570639 129.462412 
L 186.252457 124.887996 
L 198.934276 120.313579 
L 211.616094 115.739162 
L 224.297912 111.164746 
L 236.97973 106.590329 
L 249.661548 102.015913 
L 262.343366 97.441496 
L 275.025185 92.86708 
L 287.707003 88.292663 
L 300.388821 83.718247 
L 313.070639 79.14383 
L 325.752457 74.569413 
L 338.434276 69.994997 
L 351.116094 65.42058 
L 363.797912 60.846164 
" style="fill:none;stroke:#0173b2;stroke-linecap:round;stroke-opacity:0.1;stroke-width:1.5;"/>
   </g>
   <g id="line2d_68">
    <path clip-path="url(#p8c65bd25a2)" d="M 59.434276 179.213204 
L 72.116094 174.08449 
L 84.797912 168.955776 
L 97.47973 163.827061 
L 110.161548 158.698347 
L 122.843366 153.569633 
L 135.525185 148.440919 
L 148.207003 143.312205 
L 160.888821 138.183491 
L 173.570639 133.054776 
L 186.252457 127.926062 
L 198.934276 122.797348 
L 211.616094 117.668634 
L 224.297912 112.53992 
L 236.97973 107.411205 
L 249.661548 102.282491 
L 262.343366 97.153777 
L 275.025185 92.025063 
L 287.707003 86.896349 
L 300.388821 81.767634 
L 313.070639 76.63892 
L 325.752457 71.510206 
L 338.434276 66.381492 
L 351.116094 61.252778 
L 363.797912 56.124063 
" style="fill:none;stroke:#0173b2;stroke-linecap:round;stroke-opacity:0.1;stroke-width:1.5;"/>
   </g>
   <g id="line2d_69">
    <path clip-path="url(#p8c65bd25a2)" d="M 59.434276 176.417906 
L 72.116094 171.341948 
L 84.797912 166.265989 
L 97.47973 161.190031 
L 110.161548 156.114073 
L 122.843366 151.038115 
L 135.525185 145.962157 
L 148.207003 140.886198 
L 160.888821 135.81024 
L 173.570639 130.734282 
L 186.252457 125.658324 
L 198.934276 120.582366 
L 211.616094 115.506407 
L 224.297912 110.430449 
L 236.97973 105.354491 
L 249.661548 100.278533 
L 262.343366 95.202575 
L 275.025185 90.126616 
L 287.707003 85.050658 
L 300.388821 79.9747 
L 313.070639 74.898742 
L 325.752457 69.822783 
L 338.434276 64.746825 
L 351.116094 59.670867 
L 363.797912 54.594909 
" style="fill:none;stroke:#0173b2;stroke-linecap:round;stroke-opacity:0.1;stroke-width:1.5;"/>
   </g>
   <g id="line2d_70">
    <path clip-path="url(#p8c65bd25a2)" d="M 59.434276 193.328012 
L 72.116094 188.037268 
L 84.797912 182.746524 
L 97.47973 177.455779 
L 110.161548 172.165035 
L 122.843366 166.87429 
L 135.525185 161.583546 
L 148.207003 156.292802 
L 160.888821 151.002057 
L 173.570639 145.711313 
L 186.252457 140.420569 
L 198.934276 135.129824 
L 211.616094 129.83908 
L 224.297912 124.548335 
L 236.97973 119.257591 
L 249.661548 113.966847 
L 262.343366 108.676102 
L 275.025185 103.385358 
L 287.707003 98.094614 
L 300.388821 92.803869 
L 313.070639 87.513125 
L 325.752457 82.22238 
L 338.434276 76.931636 
L 351.116094 71.640892 
L 363.797912 66.350147 
" style="fill:none;stroke:#0173b2;stroke-linecap:round;stroke-opacity:0.1;stroke-width:1.5;"/>
   </g>
   <g id="line2d_71">
    <path clip-path="url(#p8c65bd25a2)" d="M 59.434276 172.99475 
L 72.116094 168.352723 
L 84.797912 163.710696 
L 97.47973 159.068668 
L 110.161548 154.426641 
L 122.843366 149.784613 
L 135.525185 145.142586 
L 148.207003 140.500558 
L 160.888821 135.858531 
L 173.570639 131.216503 
L 186.252457 126.574476 
L 198.934276 121.932449 
L 211.616094 117.290421 
L 224.297912 112.648394 
L 236.97973 108.006366 
L 249.661548 103.364339 
L 262.343366 98.722311 
L 275.025185 94.080284 
L 287.707003 89.438257 
L 300.388821 84.796229 
L 313.070639 80.154202 
L 325.752457 75.512174 
L 338.434276 70.870147 
L 351.116094 66.228119 
L 363.797912 61.586092 
" style="fill:none;stroke:#0173b2;stroke-linecap:round;stroke-opacity:0.1;stroke-width:1.5;"/>
   </g>
   <g id="line2d_72">
    <path clip-path="url(#p8c65bd25a2)" d="M 59.434276 177.261195 
L 72.116094 172.195075 
L 84.797912 167.128955 
L 97.47973 162.062835 
L 110.161548 156.996715 
L 122.843366 151.930595 
L 135.525185 146.864475 
L 148.207003 141.798355 
L 160.888821 136.732236 
L 173.570639 131.666116 
L 186.252457 126.599996 
L 198.934276 121.533876 
L 211.616094 116.467756 
L 224.297912 111.401636 
L 236.97973 106.335516 
L 249.661548 101.269396 
L 262.343366 96.203277 
L 275.025185 91.137157 
L 287.707003 86.071037 
L 300.388821 81.004917 
L 313.070639 75.938797 
L 325.752457 70.872677 
L 338.434276 65.806557 
L 351.116094 60.740438 
L 363.797912 55.674318 
" style="fill:none;stroke:#0173b2;stroke-linecap:round;stroke-opacity:0.1;stroke-width:1.5;"/>
   </g>
   <g id="line2d_73">
    <path clip-path="url(#p8c65bd25a2)" d="M 59.434276 162.607586 
L 72.116094 158.951317 
L 84.797912 155.295049 
L 97.47973 151.63878 
L 110.161548 147.982512 
L 122.843366 144.326243 
L 135.525185 140.669975 
L 148.207003 137.013706 
L 160.888821 133.357438 
L 173.570639 129.701169 
L 186.252457 126.044901 
L 198.934276 122.388632 
L 211.616094 118.732364 
L 224.297912 115.076095 
L 236.97973 111.419827 
L 249.661548 107.763558 
L 262.343366 104.107289 
L 275.025185 100.451021 
L 287.707003 96.794752 
L 300.388821 93.138484 
L 313.070639 89.482215 
L 325.752457 85.825947 
L 338.434276 82.169678 
L 351.116094 78.51341 
L 363.797912 74.857141 
" style="fill:none;stroke:#0173b2;stroke-linecap:round;stroke-opacity:0.1;stroke-width:1.5;"/>
   </g>
   <g id="line2d_74">
    <path clip-path="url(#p8c65bd25a2)" d="M 59.434276 178.454443 
L 72.116094 173.904381 
L 84.797912 169.354318 
L 97.47973 164.804256 
L 110.161548 160.254194 
L 122.843366 155.704132 
L 135.525185 151.154069 
L 148.207003 146.604007 
L 160.888821 142.053945 
L 173.570639 137.503882 
L 186.252457 132.95382 
L 198.934276 128.403758 
L 211.616094 123.853696 
L 224.297912 119.303633 
L 236.97973 114.753571 
L 249.661548 110.203509 
L 262.343366 105.653446 
L 275.025185 101.103384 
L 287.707003 96.553322 
L 300.388821 92.00326 
L 313.070639 87.453197 
L 325.752457 82.903135 
L 338.434276 78.353073 
L 351.116094 73.803011 
L 363.797912 69.252948 
" style="fill:none;stroke:#0173b2;stroke-linecap:round;stroke-opacity:0.1;stroke-width:1.5;"/>
   </g>
   <g id="line2d_75">
    <path clip-path="url(#p8c65bd25a2)" d="M 59.434276 162.706624 
L 72.116094 158.743394 
L 84.797912 154.780165 
L 97.47973 150.816935 
L 110.161548 146.853706 
L 122.843366 142.890476 
L 135.525185 138.927247 
L 148.207003 134.964018 
L 160.888821 131.000788 
L 173.570639 127.037559 
L 186.252457 123.074329 
L 198.934276 119.1111 
L 211.616094 115.14787 
L 224.297912 111.184641 
L 236.97973 107.221412 
L 249.661548 103.258182 
L 262.343366 99.294953 
L 275.025185 95.331723 
L 287.707003 91.368494 
L 300.388821 87.405264 
L 313.070639 83.442035 
L 325.752457 79.478806 
L 338.434276 75.515576 
L 351.116094 71.552347 
L 363.797912 67.589117 
" style="fill:none;stroke:#0173b2;stroke-linecap:round;stroke-opacity:0.1;stroke-width:1.5;"/>
   </g>
   <g id="line2d_76">
    <path clip-path="url(#p8c65bd25a2)" d="M 59.434276 172.55863 
L 72.116094 168.174789 
L 84.797912 163.790949 
L 97.47973 159.407108 
L 110.161548 155.023267 
L 122.843366 150.639427 
L 135.525185 146.255586 
L 148.207003 141.871746 
L 160.888821 137.487905 
L 173.570639 133.104065 
L 186.252457 128.720224 
L 198.934276 124.336383 
L 211.616094 119.952543 
L 224.297912 115.568702 
L 236.97973 111.184862 
L 249.661548 106.801021 
L 262.343366 102.41718 
L 275.025185 98.03334 
L 287.707003 93.649499 
L 300.388821 89.265659 
L 313.070639 84.881818 
L 325.752457 80.497977 
L 338.434276 76.114137 
L 351.116094 71.730296 
L 363.797912 67.346456 
" style="fill:none;stroke:#0173b2;stroke-linecap:round;stroke-opacity:0.1;stroke-width:1.5;"/>
   </g>
   <g id="line2d_77">
    <path clip-path="url(#p8c65bd25a2)" d="M 59.434276 182.040424 
L 72.116094 176.749981 
L 84.797912 171.459538 
L 97.47973 166.169096 
L 110.161548 160.878653 
L 122.843366 155.58821 
L 135.525185 150.297768 
L 148.207003 145.007325 
L 160.888821 139.716883 
L 173.570639 134.42644 
L 186.252457 129.135997 
L 198.934276 123.845555 
L 211.616094 118.555112 
L 224.297912 113.264669 
L 236.97973 107.974227 
L 249.661548 102.683784 
L 262.343366 97.393342 
L 275.025185 92.102899 
L 287.707003 86.812456 
L 300.388821 81.522014 
L 313.070639 76.231571 
L 325.752457 70.941128 
L 338.434276 65.650686 
L 351.116094 60.360243 
L 363.797912 55.0698 
" style="fill:none;stroke:#0173b2;stroke-linecap:round;stroke-opacity:0.1;stroke-width:1.5;"/>
   </g>
   <g id="line2d_78">
    <path clip-path="url(#p8c65bd25a2)" d="M 59.434276 180.162036 
L 72.116094 174.709869 
L 84.797912 169.257701 
L 97.47973 163.805534 
L 110.161548 158.353366 
L 122.843366 152.901199 
L 135.525185 147.449031 
L 148.207003 141.996864 
L 160.888821 136.544696 
L 173.570639 131.092529 
L 186.252457 125.640361 
L 198.934276 120.188194 
L 211.616094 114.736026 
L 224.297912 109.283859 
L 236.97973 103.831691 
L 249.661548 98.379524 
L 262.343366 92.927356 
L 275.025185 87.475189 
L 287.707003 82.023021 
L 300.388821 76.570854 
L 313.070639 71.118686 
L 325.752457 65.666519 
L 338.434276 60.214351 
L 351.116094 54.762184 
L 363.797912 49.310016 
" style="fill:none;stroke:#0173b2;stroke-linecap:round;stroke-opacity:0.1;stroke-width:1.5;"/>
   </g>
   <g id="line2d_79">
    <path clip-path="url(#p8c65bd25a2)" d="M 59.434276 182.573837 
L 72.116094 177.590096 
L 84.797912 172.606354 
L 97.47973 167.622613 
L 110.161548 162.638871 
L 122.843366 157.65513 
L 135.525185 152.671389 
L 148.207003 147.687647 
L 160.888821 142.703906 
L 173.570639 137.720164 
L 186.252457 132.736423 
L 198.934276 127.752682 
L 211.616094 122.76894 
L 224.297912 117.785199 
L 236.97973 112.801457 
L 249.661548 107.817716 
L 262.343366 102.833974 
L 275.025185 97.850233 
L 287.707003 92.866492 
L 300.388821 87.88275 
L 313.070639 82.899009 
L 325.752457 77.915267 
L 338.434276 72.931526 
L 351.116094 67.947785 
L 363.797912 62.964043 
" style="fill:none;stroke:#0173b2;stroke-linecap:round;stroke-opacity:0.1;stroke-width:1.5;"/>
   </g>
   <g id="line2d_80">
    <path clip-path="url(#p8c65bd25a2)" d="M 59.434276 168.267138 
L 72.116094 163.775222 
L 84.797912 159.283307 
L 97.47973 154.791391 
L 110.161548 150.299475 
L 122.843366 145.807559 
L 135.525185 141.315644 
L 148.207003 136.823728 
L 160.888821 132.331812 
L 173.570639 127.839896 
L 186.252457 123.347981 
L 198.934276 118.856065 
L 211.616094 114.364149 
L 224.297912 109.872233 
L 236.97973 105.380318 
L 249.661548 100.888402 
L 262.343366 96.396486 
L 275.025185 91.904571 
L 287.707003 87.412655 
L 300.388821 82.920739 
L 313.070639 78.428823 
L 325.752457 73.936908 
L 338.434276 69.444992 
L 351.116094 64.953076 
L 363.797912 60.46116 
" style="fill:none;stroke:#0173b2;stroke-linecap:round;stroke-opacity:0.1;stroke-width:1.5;"/>
   </g>
   <g id="line2d_81">
    <path clip-path="url(#p8c65bd25a2)" d="M 59.434276 161.57967 
L 72.116094 157.777568 
L 84.797912 153.975465 
L 97.47973 150.173363 
L 110.161548 146.37126 
L 122.843366 142.569158 
L 135.525185 138.767055 
L 148.207003 134.964953 
L 160.888821 131.16285 
L 173.570639 127.360748 
L 186.252457 123.558645 
L 198.934276 119.756543 
L 211.616094 115.954441 
L 224.297912 112.152338 
L 236.97973 108.350236 
L 249.661548 104.548133 
L 262.343366 100.746031 
L 275.025185 96.943928 
L 287.707003 93.141826 
L 300.388821 89.339723 
L 313.070639 85.537621 
L 325.752457 81.735518 
L 338.434276 77.933416 
L 351.116094 74.131313 
L 363.797912 70.329211 
" style="fill:none;stroke:#0173b2;stroke-linecap:round;stroke-opacity:0.1;stroke-width:1.5;"/>
   </g>
   <g id="line2d_82">
    <path clip-path="url(#p8c65bd25a2)" d="M 59.434276 157.454668 
L 72.116094 153.482002 
L 84.797912 149.509336 
L 97.47973 145.536669 
L 110.161548 141.564003 
L 122.843366 137.591337 
L 135.525185 133.618671 
L 148.207003 129.646004 
L 160.888821 125.673338 
L 173.570639 121.700672 
L 186.252457 117.728006 
L 198.934276 113.755339 
L 211.616094 109.782673 
L 224.297912 105.810007 
L 236.97973 101.83734 
L 249.661548 97.864674 
L 262.343366 93.892008 
L 275.025185 89.919342 
L 287.707003 85.946675 
L 300.388821 81.974009 
L 313.070639 78.001343 
L 325.752457 74.028676 
L 338.434276 70.05601 
L 351.116094 66.083344 
L 363.797912 62.110678 
" style="fill:none;stroke:#0173b2;stroke-linecap:round;stroke-opacity:0.1;stroke-width:1.5;"/>
   </g>
   <g id="line2d_83">
    <path clip-path="url(#p8c65bd25a2)" d="M 59.434276 167.06532 
L 72.116094 162.649717 
L 84.797912 158.234114 
L 97.47973 153.818511 
L 110.161548 149.402907 
L 122.843366 144.987304 
L 135.525185 140.571701 
L 148.207003 136.156097 
L 160.888821 131.740494 
L 173.570639 127.324891 
L 186.252457 122.909288 
L 198.934276 118.493684 
L 211.616094 114.078081 
L 224.297912 109.662478 
L 236.97973 105.246874 
L 249.661548 100.831271 
L 262.343366 96.415668 
L 275.025185 92.000065 
L 287.707003 87.584461 
L 300.388821 83.168858 
L 313.070639 78.753255 
L 325.752457 74.337652 
L 338.434276 69.922048 
L 351.116094 65.506445 
L 363.797912 61.090842 
" style="fill:none;stroke:#0173b2;stroke-linecap:round;stroke-opacity:0.1;stroke-width:1.5;"/>
   </g>
   <g id="line2d_84">
    <path clip-path="url(#p8c65bd25a2)" d="M 59.434276 171.435085 
L 72.116094 167.052748 
L 84.797912 162.670412 
L 97.47973 158.288076 
L 110.161548 153.90574 
L 122.843366 149.523403 
L 135.525185 145.141067 
L 148.207003 140.758731 
L 160.888821 136.376394 
L 173.570639 131.994058 
L 186.252457 127.611722 
L 198.934276 123.229385 
L 211.616094 118.847049 
L 224.297912 114.464713 
L 236.97973 110.082377 
L 249.661548 105.70004 
L 262.343366 101.317704 
L 275.025185 96.935368 
L 287.707003 92.553031 
L 300.388821 88.170695 
L 313.070639 83.788359 
L 325.752457 79.406022 
L 338.434276 75.023686 
L 351.116094 70.64135 
L 363.797912 66.259014 
" style="fill:none;stroke:#0173b2;stroke-linecap:round;stroke-opacity:0.1;stroke-width:1.5;"/>
   </g>
   <g id="line2d_85">
    <path clip-path="url(#p8c65bd25a2)" d="M 59.434276 175.280819 
L 72.116094 170.605567 
L 84.797912 165.930316 
L 97.47973 161.255064 
L 110.161548 156.579813 
L 122.843366 151.904561 
L 135.525185 147.22931 
L 148.207003 142.554058 
L 160.888821 137.878807 
L 173.570639 133.203555 
L 186.252457 128.528304 
L 198.934276 123.853052 
L 211.616094 119.177801 
L 224.297912 114.502549 
L 236.97973 109.827298 
L 249.661548 105.152046 
L 262.343366 100.476795 
L 275.025185 95.801543 
L 287.707003 91.126292 
L 300.388821 86.45104 
L 313.070639 81.775789 
L 325.752457 77.100537 
L 338.434276 72.425286 
L 351.116094 67.750034 
L 363.797912 63.074783 
" style="fill:none;stroke:#0173b2;stroke-linecap:round;stroke-opacity:0.1;stroke-width:1.5;"/>
   </g>
   <g id="line2d_86">
    <path clip-path="url(#p8c65bd25a2)" d="M 59.434276 167.237887 
L 72.116094 163.184845 
L 84.797912 159.131802 
L 97.47973 155.078759 
L 110.161548 151.025716 
L 122.843366 146.972673 
L 135.525185 142.91963 
L 148.207003 138.866588 
L 160.888821 134.813545 
L 173.570639 130.760502 
L 186.252457 126.707459 
L 198.934276 122.654416 
L 211.616094 118.601373 
L 224.297912 114.54833 
L 236.97973 110.495288 
L 249.661548 106.442245 
L 262.343366 102.389202 
L 275.025185 98.336159 
L 287.707003 94.283116 
L 300.388821 90.230073 
L 313.070639 86.177031 
L 325.752457 82.123988 
L 338.434276 78.070945 
L 351.116094 74.017902 
L 363.797912 69.964859 
" style="fill:none;stroke:#0173b2;stroke-linecap:round;stroke-opacity:0.1;stroke-width:1.5;"/>
   </g>
   <g id="line2d_87">
    <path clip-path="url(#p8c65bd25a2)" d="M 59.434276 177.013943 
L 72.116094 172.444742 
L 84.797912 167.875542 
L 97.47973 163.306342 
L 110.161548 158.737141 
L 122.843366 154.167941 
L 135.525185 149.59874 
L 148.207003 145.02954 
L 160.888821 140.46034 
L 173.570639 135.891139 
L 186.252457 131.321939 
L 198.934276 126.752738 
L 211.616094 122.183538 
L 224.297912 117.614338 
L 236.97973 113.045137 
L 249.661548 108.475937 
L 262.343366 103.906736 
L 275.025185 99.337536 
L 287.707003 94.768336 
L 300.388821 90.199135 
L 313.070639 85.629935 
L 325.752457 81.060734 
L 338.434276 76.491534 
L 351.116094 71.922334 
L 363.797912 67.353133 
" style="fill:none;stroke:#0173b2;stroke-linecap:round;stroke-opacity:0.1;stroke-width:1.5;"/>
   </g>
   <g id="line2d_88">
    <path clip-path="url(#p8c65bd25a2)" d="M 59.434276 176.250775 
L 72.116094 171.415452 
L 84.797912 166.580128 
L 97.47973 161.744804 
L 110.161548 156.90948 
L 122.843366 152.074156 
L 135.525185 147.238833 
L 148.207003 142.403509 
L 160.888821 137.568185 
L 173.570639 132.732861 
L 186.252457 127.897537 
L 198.934276 123.062213 
L 211.616094 118.22689 
L 224.297912 113.391566 
L 236.97973 108.556242 
L 249.661548 103.720918 
L 262.343366 98.885594 
L 275.025185 94.05027 
L 287.707003 89.214947 
L 300.388821 84.379623 
L 313.070639 79.544299 
L 325.752457 74.708975 
L 338.434276 69.873651 
L 351.116094 65.038327 
L 363.797912 60.203004 
" style="fill:none;stroke:#0173b2;stroke-linecap:round;stroke-opacity:0.1;stroke-width:1.5;"/>
   </g>
   <g id="line2d_89">
    <path clip-path="url(#p8c65bd25a2)" d="M 59.434276 159.276077 
L 72.116094 154.830891 
L 84.797912 150.385704 
L 97.47973 145.940518 
L 110.161548 141.495331 
L 122.843366 137.050145 
L 135.525185 132.604958 
L 148.207003 128.159772 
L 160.888821 123.714586 
L 173.570639 119.269399 
L 186.252457 114.824213 
L 198.934276 110.379026 
L 211.616094 105.93384 
L 224.297912 101.488654 
L 236.97973 97.043467 
L 249.661548 92.598281 
L 262.343366 88.153094 
L 275.025185 83.707908 
L 287.707003 79.262722 
L 300.388821 74.817535 
L 313.070639 70.372349 
L 325.752457 65.927162 
L 338.434276 61.481976 
L 351.116094 57.036789 
L 363.797912 52.591603 
" style="fill:none;stroke:#0173b2;stroke-linecap:round;stroke-opacity:0.1;stroke-width:1.5;"/>
   </g>
   <g id="line2d_90">
    <path clip-path="url(#p8c65bd25a2)" d="M 59.434276 180.543532 
L 72.116094 175.416687 
L 84.797912 170.289841 
L 97.47973 165.162996 
L 110.161548 160.036151 
L 122.843366 154.909306 
L 135.525185 149.782461 
L 148.207003 144.655616 
L 160.888821 139.528771 
L 173.570639 134.401925 
L 186.252457 129.27508 
L 198.934276 124.148235 
L 211.616094 119.02139 
L 224.297912 113.894545 
L 236.97973 108.7677 
L 249.661548 103.640855 
L 262.343366 98.514009 
L 275.025185 93.387164 
L 287.707003 88.260319 
L 300.388821 83.133474 
L 313.070639 78.006629 
L 325.752457 72.879784 
L 338.434276 67.752939 
L 351.116094 62.626093 
L 363.797912 57.499248 
" style="fill:none;stroke:#0173b2;stroke-linecap:round;stroke-opacity:0.1;stroke-width:1.5;"/>
   </g>
   <g id="line2d_91">
    <path clip-path="url(#p8c65bd25a2)" d="M 59.434276 178.370698 
L 72.116094 173.492866 
L 84.797912 168.615034 
L 97.47973 163.737202 
L 110.161548 158.85937 
L 122.843366 153.981538 
L 135.525185 149.103706 
L 148.207003 144.225874 
L 160.888821 139.348042 
L 173.570639 134.47021 
L 186.252457 129.592379 
L 198.934276 124.714547 
L 211.616094 119.836715 
L 224.297912 114.958883 
L 236.97973 110.081051 
L 249.661548 105.203219 
L 262.343366 100.325387 
L 275.025185 95.447555 
L 287.707003 90.569723 
L 300.388821 85.691891 
L 313.070639 80.81406 
L 325.752457 75.936228 
L 338.434276 71.058396 
L 351.116094 66.180564 
L 363.797912 61.302732 
" style="fill:none;stroke:#0173b2;stroke-linecap:round;stroke-opacity:0.1;stroke-width:1.5;"/>
   </g>
   <g id="line2d_92">
    <path clip-path="url(#p8c65bd25a2)" d="M 59.434276 167.687298 
L 72.116094 163.48116 
L 84.797912 159.275023 
L 97.47973 155.068886 
L 110.161548 150.862749 
L 122.843366 146.656612 
L 135.525185 142.450475 
L 148.207003 138.244337 
L 160.888821 134.0382 
L 173.570639 129.832063 
L 186.252457 125.625926 
L 198.934276 121.419789 
L 211.616094 117.213651 
L 224.297912 113.007514 
L 236.97973 108.801377 
L 249.661548 104.59524 
L 262.343366 100.389103 
L 275.025185 96.182966 
L 287.707003 91.976828 
L 300.388821 87.770691 
L 313.070639 83.564554 
L 325.752457 79.358417 
L 338.434276 75.15228 
L 351.116094 70.946142 
L 363.797912 66.740005 
" style="fill:none;stroke:#0173b2;stroke-linecap:round;stroke-opacity:0.1;stroke-width:1.5;"/>
   </g>
   <g id="line2d_93">
    <path clip-path="url(#p8c65bd25a2)" d="M 59.434276 174.574863 
L 72.116094 170.740063 
L 84.797912 166.905263 
L 97.47973 163.070464 
L 110.161548 159.235664 
L 122.843366 155.400864 
L 135.525185 151.566065 
L 148.207003 147.731265 
L 160.888821 143.896465 
L 173.570639 140.061666 
L 186.252457 136.226866 
L 198.934276 132.392066 
L 211.616094 128.557267 
L 224.297912 124.722467 
L 236.97973 120.887667 
L 249.661548 117.052868 
L 262.343366 113.218068 
L 275.025185 109.383268 
L 287.707003 105.548469 
L 300.388821 101.713669 
L 313.070639 97.878869 
L 325.752457 94.04407 
L 338.434276 90.20927 
L 351.116094 86.37447 
L 363.797912 82.539671 
" style="fill:none;stroke:#0173b2;stroke-linecap:round;stroke-opacity:0.1;stroke-width:1.5;"/>
   </g>
   <g id="line2d_94">
    <path clip-path="url(#p8c65bd25a2)" d="M 59.434276 164.467374 
L 72.116094 160.019034 
L 84.797912 155.570694 
L 97.47973 151.122354 
L 110.161548 146.674015 
L 122.843366 142.225675 
L 135.525185 137.777335 
L 148.207003 133.328995 
L 160.888821 128.880655 
L 173.570639 124.432316 
L 186.252457 119.983976 
L 198.934276 115.535636 
L 211.616094 111.087296 
L 224.297912 106.638956 
L 236.97973 102.190616 
L 249.661548 97.742277 
L 262.343366 93.293937 
L 275.025185 88.845597 
L 287.707003 84.397257 
L 300.388821 79.948917 
L 313.070639 75.500578 
L 325.752457 71.052238 
L 338.434276 66.603898 
L 351.116094 62.155558 
L 363.797912 57.707218 
" style="fill:none;stroke:#0173b2;stroke-linecap:round;stroke-opacity:0.1;stroke-width:1.5;"/>
   </g>
   <g id="line2d_95">
    <path clip-path="url(#p8c65bd25a2)" d="M 59.434276 184.173138 
L 72.116094 178.788574 
L 84.797912 173.404011 
L 97.47973 168.019448 
L 110.161548 162.634884 
L 122.843366 157.250321 
L 135.525185 151.865758 
L 148.207003 146.481194 
L 160.888821 141.096631 
L 173.570639 135.712068 
L 186.252457 130.327504 
L 198.934276 124.942941 
L 211.616094 119.558377 
L 224.297912 114.173814 
L 236.97973 108.789251 
L 249.661548 103.404687 
L 262.343366 98.020124 
L 275.025185 92.635561 
L 287.707003 87.250997 
L 300.388821 81.866434 
L 313.070639 76.481871 
L 325.752457 71.097307 
L 338.434276 65.712744 
L 351.116094 60.32818 
L 363.797912 54.943617 
" style="fill:none;stroke:#0173b2;stroke-linecap:round;stroke-opacity:0.1;stroke-width:1.5;"/>
   </g>
   <g id="line2d_96">
    <path clip-path="url(#p8c65bd25a2)" d="M 59.434276 171.478837 
L 72.116094 166.758033 
L 84.797912 162.037228 
L 97.47973 157.316423 
L 110.161548 152.595619 
L 122.843366 147.874814 
L 135.525185 143.15401 
L 148.207003 138.433205 
L 160.888821 133.7124 
L 173.570639 128.991596 
L 186.252457 124.270791 
L 198.934276 119.549986 
L 211.616094 114.829182 
L 224.297912 110.108377 
L 236.97973 105.387573 
L 249.661548 100.666768 
L 262.343366 95.945963 
L 275.025185 91.225159 
L 287.707003 86.504354 
L 300.388821 81.783549 
L 313.070639 77.062745 
L 325.752457 72.34194 
L 338.434276 67.621136 
L 351.116094 62.900331 
L 363.797912 58.179526 
" style="fill:none;stroke:#0173b2;stroke-linecap:round;stroke-opacity:0.1;stroke-width:1.5;"/>
   </g>
   <g id="line2d_97">
    <path clip-path="url(#p8c65bd25a2)" d="M 59.434276 181.322461 
L 72.116094 176.451354 
L 84.797912 171.580248 
L 97.47973 166.709141 
L 110.161548 161.838034 
L 122.843366 156.966928 
L 135.525185 152.095821 
L 148.207003 147.224714 
L 160.888821 142.353608 
L 173.570639 137.482501 
L 186.252457 132.611394 
L 198.934276 127.740288 
L 211.616094 122.869181 
L 224.297912 117.998074 
L 236.97973 113.126968 
L 249.661548 108.255861 
L 262.343366 103.384754 
L 275.025185 98.513648 
L 287.707003 93.642541 
L 300.388821 88.771434 
L 313.070639 83.900328 
L 325.752457 79.029221 
L 338.434276 74.158114 
L 351.116094 69.287008 
L 363.797912 64.415901 
" style="fill:none;stroke:#0173b2;stroke-linecap:round;stroke-opacity:0.1;stroke-width:1.5;"/>
   </g>
   <g id="line2d_98">
    <path clip-path="url(#p8c65bd25a2)" d="M 59.434276 176.653546 
L 72.116094 171.568212 
L 84.797912 166.482878 
L 97.47973 161.397544 
L 110.161548 156.31221 
L 122.843366 151.226877 
L 135.525185 146.141543 
L 148.207003 141.056209 
L 160.888821 135.970875 
L 173.570639 130.885541 
L 186.252457 125.800208 
L 198.934276 120.714874 
L 211.616094 115.62954 
L 224.297912 110.544206 
L 236.97973 105.458872 
L 249.661548 100.373539 
L 262.343366 95.288205 
L 275.025185 90.202871 
L 287.707003 85.117537 
L 300.388821 80.032203 
L 313.070639 74.94687 
L 325.752457 69.861536 
L 338.434276 64.776202 
L 351.116094 59.690868 
L 363.797912 54.605535 
" style="fill:none;stroke:#0173b2;stroke-linecap:round;stroke-opacity:0.1;stroke-width:1.5;"/>
   </g>
   <g id="line2d_99">
    <path clip-path="url(#p8c65bd25a2)" d="M 59.434276 170.348952 
L 72.116094 166.550082 
L 84.797912 162.751212 
L 97.47973 158.952342 
L 110.161548 155.153472 
L 122.843366 151.354602 
L 135.525185 147.555732 
L 148.207003 143.756862 
L 160.888821 139.957992 
L 173.570639 136.159122 
L 186.252457 132.360252 
L 198.934276 128.561382 
L 211.616094 124.762512 
L 224.297912 120.963642 
L 236.97973 117.164773 
L 249.661548 113.365903 
L 262.343366 109.567033 
L 275.025185 105.768163 
L 287.707003 101.969293 
L 300.388821 98.170423 
L 313.070639 94.371553 
L 325.752457 90.572683 
L 338.434276 86.773813 
L 351.116094 82.974943 
L 363.797912 79.176073 
" style="fill:none;stroke:#0173b2;stroke-linecap:round;stroke-opacity:0.1;stroke-width:1.5;"/>
   </g>
   <g id="line2d_100">
    <path clip-path="url(#p8c65bd25a2)" d="M 59.434276 169.298836 
L 72.116094 165.447502 
L 84.797912 161.596169 
L 97.47973 157.744835 
L 110.161548 153.893501 
L 122.843366 150.042167 
L 135.525185 146.190833 
L 148.207003 142.339499 
L 160.888821 138.488165 
L 173.570639 134.636831 
L 186.252457 130.785497 
L 198.934276 126.934163 
L 211.616094 123.082829 
L 224.297912 119.231495 
L 236.97973 115.380161 
L 249.661548 111.528827 
L 262.343366 107.677493 
L 275.025185 103.826159 
L 287.707003 99.974825 
L 300.388821 96.123491 
L 313.070639 92.272157 
L 325.752457 88.420823 
L 338.434276 84.569489 
L 351.116094 80.718155 
L 363.797912 76.866821 
" style="fill:none;stroke:#0173b2;stroke-linecap:round;stroke-opacity:0.1;stroke-width:1.5;"/>
   </g>
   <g id="line2d_101">
    <path clip-path="url(#p8c65bd25a2)" d="M 59.434276 177.540444 
L 72.116094 173.32473 
L 84.797912 169.109016 
L 97.47973 164.893301 
L 110.161548 160.677587 
L 122.843366 156.461873 
L 135.525185 152.246159 
L 148.207003 148.030445 
L 160.888821 143.814731 
L 173.570639 139.599017 
L 186.252457 135.383303 
L 198.934276 131.167588 
L 211.616094 126.951874 
L 224.297912 122.73616 
L 236.97973 118.520446 
L 249.661548 114.304732 
L 262.343366 110.089018 
L 275.025185 105.873304 
L 287.707003 101.65759 
L 300.388821 97.441876 
L 313.070639 93.226161 
L 325.752457 89.010447 
L 338.434276 84.794733 
L 351.116094 80.579019 
L 363.797912 76.363305 
" style="fill:none;stroke:#0173b2;stroke-linecap:round;stroke-opacity:0.1;stroke-width:1.5;"/>
   </g>
   <g id="line2d_102">
    <path clip-path="url(#p8c65bd25a2)" d="M 59.434276 153.425493 
L 72.116094 149.784586 
L 84.797912 146.143679 
L 97.47973 142.502771 
L 110.161548 138.861864 
L 122.843366 135.220957 
L 135.525185 131.58005 
L 148.207003 127.939143 
L 160.888821 124.298236 
L 173.570639 120.657329 
L 186.252457 117.016422 
L 198.934276 113.375514 
L 211.616094 109.734607 
L 224.297912 106.0937 
L 236.97973 102.452793 
L 249.661548 98.811886 
L 262.343366 95.170979 
L 275.025185 91.530072 
L 287.707003 87.889165 
L 300.388821 84.248257 
L 313.070639 80.60735 
L 325.752457 76.966443 
L 338.434276 73.325536 
L 351.116094 69.684629 
L 363.797912 66.043722 
" style="fill:none;stroke:#0173b2;stroke-linecap:round;stroke-opacity:0.1;stroke-width:1.5;"/>
   </g>
   <g id="line2d_103">
    <path clip-path="url(#p8c65bd25a2)" d="M 59.434276 170.78559 
L 72.116094 166.411494 
L 84.797912 162.037397 
L 97.47973 157.663301 
L 110.161548 153.289205 
L 122.843366 148.915108 
L 135.525185 144.541012 
L 148.207003 140.166916 
L 160.888821 135.792819 
L 173.570639 131.418723 
L 186.252457 127.044627 
L 198.934276 122.67053 
L 211.616094 118.296434 
L 224.297912 113.922338 
L 236.97973 109.548241 
L 249.661548 105.174145 
L 262.343366 100.800049 
L 275.025185 96.425952 
L 287.707003 92.051856 
L 300.388821 87.677759 
L 313.070639 83.303663 
L 325.752457 78.929567 
L 338.434276 74.55547 
L 351.116094 70.181374 
L 363.797912 65.807278 
" style="fill:none;stroke:#0173b2;stroke-linecap:round;stroke-opacity:0.1;stroke-width:1.5;"/>
   </g>
   <g id="line2d_104">
    <path clip-path="url(#p8c65bd25a2)" d="M 59.434276 158.94484 
L 72.116094 155.021875 
L 84.797912 151.098909 
L 97.47973 147.175944 
L 110.161548 143.252978 
L 122.843366 139.330012 
L 135.525185 135.407047 
L 148.207003 131.484081 
L 160.888821 127.561116 
L 173.570639 123.63815 
L 186.252457 119.715185 
L 198.934276 115.792219 
L 211.616094 111.869253 
L 224.297912 107.946288 
L 236.97973 104.023322 
L 249.661548 100.100357 
L 262.343366 96.177391 
L 275.025185 92.254426 
L 287.707003 88.33146 
L 300.388821 84.408494 
L 313.070639 80.485529 
L 325.752457 76.562563 
L 338.434276 72.639598 
L 351.116094 68.716632 
L 363.797912 64.793666 
" style="fill:none;stroke:#0173b2;stroke-linecap:round;stroke-opacity:0.1;stroke-width:1.5;"/>
   </g>
   <g id="line2d_105">
    <path clip-path="url(#p8c65bd25a2)" d="M 59.434276 183.432343 
L 72.116094 178.220869 
L 84.797912 173.009395 
L 97.47973 167.797921 
L 110.161548 162.586447 
L 122.843366 157.374973 
L 135.525185 152.163499 
L 148.207003 146.952025 
L 160.888821 141.740551 
L 173.570639 136.529077 
L 186.252457 131.317603 
L 198.934276 126.106129 
L 211.616094 120.894655 
L 224.297912 115.683181 
L 236.97973 110.471707 
L 249.661548 105.260233 
L 262.343366 100.048759 
L 275.025185 94.837285 
L 287.707003 89.625811 
L 300.388821 84.414337 
L 313.070639 79.202863 
L 325.752457 73.991389 
L 338.434276 68.779915 
L 351.116094 63.568441 
L 363.797912 58.356967 
" style="fill:none;stroke:#0173b2;stroke-linecap:round;stroke-opacity:0.1;stroke-width:1.5;"/>
   </g>
   <g id="line2d_106">
    <path clip-path="url(#p8c65bd25a2)" d="M 59.434276 179.945577 
L 72.116094 174.75223 
L 84.797912 169.558883 
L 97.47973 164.365536 
L 110.161548 159.172189 
L 122.843366 153.978841 
L 135.525185 148.785494 
L 148.207003 143.592147 
L 160.888821 138.3988 
L 173.570639 133.205453 
L 186.252457 128.012106 
L 198.934276 122.818759 
L 211.616094 117.625412 
L 224.297912 112.432065 
L 236.97973 107.238718 
L 249.661548 102.045371 
L 262.343366 96.852024 
L 275.025185 91.658676 
L 287.707003 86.465329 
L 300.388821 81.271982 
L 313.070639 76.078635 
L 325.752457 70.885288 
L 338.434276 65.691941 
L 351.116094 60.498594 
L 363.797912 55.305247 
" style="fill:none;stroke:#0173b2;stroke-linecap:round;stroke-opacity:0.1;stroke-width:1.5;"/>
   </g>
   <g id="line2d_107">
    <path clip-path="url(#p8c65bd25a2)" d="M 59.434276 168.459323 
L 72.116094 163.778664 
L 84.797912 159.098005 
L 97.47973 154.417346 
L 110.161548 149.736687 
L 122.843366 145.056027 
L 135.525185 140.375368 
L 148.207003 135.694709 
L 160.888821 131.01405 
L 173.570639 126.333391 
L 186.252457 121.652732 
L 198.934276 116.972073 
L 211.616094 112.291414 
L 224.297912 107.610754 
L 236.97973 102.930095 
L 249.661548 98.249436 
L 262.343366 93.568777 
L 275.025185 88.888118 
L 287.707003 84.207459 
L 300.388821 79.5268 
L 313.070639 74.84614 
L 325.752457 70.165481 
L 338.434276 65.484822 
L 351.116094 60.804163 
L 363.797912 56.123504 
" style="fill:none;stroke:#0173b2;stroke-linecap:round;stroke-opacity:0.1;stroke-width:1.5;"/>
   </g>
   <g id="line2d_108">
    <path clip-path="url(#p8c65bd25a2)" d="M 59.434276 169.316462 
L 72.116094 164.679574 
L 84.797912 160.042685 
L 97.47973 155.405797 
L 110.161548 150.768908 
L 122.843366 146.13202 
L 135.525185 141.495131 
L 148.207003 136.858243 
L 160.888821 132.221354 
L 173.570639 127.584466 
L 186.252457 122.947577 
L 198.934276 118.310689 
L 211.616094 113.6738 
L 224.297912 109.036912 
L 236.97973 104.400023 
L 249.661548 99.763135 
L 262.343366 95.126246 
L 275.025185 90.489358 
L 287.707003 85.852469 
L 300.388821 81.215581 
L 313.070639 76.578693 
L 325.752457 71.941804 
L 338.434276 67.304916 
L 351.116094 62.668027 
L 363.797912 58.031139 
" style="fill:none;stroke:#0173b2;stroke-linecap:round;stroke-opacity:0.1;stroke-width:1.5;"/>
   </g>
   <g id="line2d_109">
    <path clip-path="url(#p8c65bd25a2)" d="M 59.434276 172.169859 
L 72.116094 167.417782 
L 84.797912 162.665705 
L 97.47973 157.913628 
L 110.161548 153.161551 
L 122.843366 148.409475 
L 135.525185 143.657398 
L 148.207003 138.905321 
L 160.888821 134.153244 
L 173.570639 129.401167 
L 186.252457 124.64909 
L 198.934276 119.897013 
L 211.616094 115.144936 
L 224.297912 110.392859 
L 236.97973 105.640782 
L 249.661548 100.888705 
L 262.343366 96.136628 
L 275.025185 91.384552 
L 287.707003 86.632475 
L 300.388821 81.880398 
L 313.070639 77.128321 
L 325.752457 72.376244 
L 338.434276 67.624167 
L 351.116094 62.87209 
L 363.797912 58.120013 
" style="fill:none;stroke:#0173b2;stroke-linecap:round;stroke-opacity:0.1;stroke-width:1.5;"/>
   </g>
   <g id="line2d_110">
    <path clip-path="url(#p8c65bd25a2)" d="M 59.434276 173.176577 
L 72.116094 168.945238 
L 84.797912 164.713898 
L 97.47973 160.482558 
L 110.161548 156.251218 
L 122.843366 152.019879 
L 135.525185 147.788539 
L 148.207003 143.557199 
L 160.888821 139.325859 
L 173.570639 135.094519 
L 186.252457 130.86318 
L 198.934276 126.63184 
L 211.616094 122.4005 
L 224.297912 118.16916 
L 236.97973 113.93782 
L 249.661548 109.706481 
L 262.343366 105.475141 
L 275.025185 101.243801 
L 287.707003 97.012461 
L 300.388821 92.781121 
L 313.070639 88.549782 
L 325.752457 84.318442 
L 338.434276 80.087102 
L 351.116094 75.855762 
L 363.797912 71.624423 
" style="fill:none;stroke:#0173b2;stroke-linecap:round;stroke-opacity:0.1;stroke-width:1.5;"/>
   </g>
   <g id="line2d_111">
    <path clip-path="url(#p8c65bd25a2)" d="M 59.434276 161.157552 
L 72.116094 156.984878 
L 84.797912 152.812203 
L 97.47973 148.639529 
L 110.161548 144.466854 
L 122.843366 140.294179 
L 135.525185 136.121505 
L 148.207003 131.94883 
L 160.888821 127.776156 
L 173.570639 123.603481 
L 186.252457 119.430806 
L 198.934276 115.258132 
L 211.616094 111.085457 
L 224.297912 106.912782 
L 236.97973 102.740108 
L 249.661548 98.567433 
L 262.343366 94.394759 
L 275.025185 90.222084 
L 287.707003 86.049409 
L 300.388821 81.876735 
L 313.070639 77.70406 
L 325.752457 73.531386 
L 338.434276 69.358711 
L 351.116094 65.186036 
L 363.797912 61.013362 
" style="fill:none;stroke:#0173b2;stroke-linecap:round;stroke-opacity:0.1;stroke-width:1.5;"/>
   </g>
   <g id="line2d_112">
    <path clip-path="url(#p8c65bd25a2)" d="M 59.434276 166.703068 
L 72.116094 162.392521 
L 84.797912 158.081974 
L 97.47973 153.771427 
L 110.161548 149.46088 
L 122.843366 145.150334 
L 135.525185 140.839787 
L 148.207003 136.52924 
L 160.888821 132.218693 
L 173.570639 127.908146 
L 186.252457 123.597599 
L 198.934276 119.287053 
L 211.616094 114.976506 
L 224.297912 110.665959 
L 236.97973 106.355412 
L 249.661548 102.044865 
L 262.343366 97.734318 
L 275.025185 93.423771 
L 287.707003 89.113225 
L 300.388821 84.802678 
L 313.070639 80.492131 
L 325.752457 76.181584 
L 338.434276 71.871037 
L 351.116094 67.56049 
L 363.797912 63.249943 
" style="fill:none;stroke:#0173b2;stroke-linecap:round;stroke-opacity:0.1;stroke-width:1.5;"/>
   </g>
   <g id="line2d_113">
    <path clip-path="url(#p8c65bd25a2)" d="M 59.434276 165.491443 
L 72.116094 160.944993 
L 84.797912 156.398543 
L 97.47973 151.852093 
L 110.161548 147.305643 
L 122.843366 142.759193 
L 135.525185 138.212744 
L 148.207003 133.666294 
L 160.888821 129.119844 
L 173.570639 124.573394 
L 186.252457 120.026944 
L 198.934276 115.480494 
L 211.616094 110.934044 
L 224.297912 106.387594 
L 236.97973 101.841144 
L 249.661548 97.294694 
L 262.343366 92.748244 
L 275.025185 88.201794 
L 287.707003 83.655344 
L 300.388821 79.108894 
L 313.070639 74.562444 
L 325.752457 70.015994 
L 338.434276 65.469544 
L 351.116094 60.923094 
L 363.797912 56.376644 
" style="fill:none;stroke:#0173b2;stroke-linecap:round;stroke-opacity:0.1;stroke-width:1.5;"/>
   </g>
   <g id="line2d_114">
    <path clip-path="url(#p8c65bd25a2)" d="M 59.434276 179.986491 
L 72.116094 174.975914 
L 84.797912 169.965336 
L 97.47973 164.954759 
L 110.161548 159.944181 
L 122.843366 154.933604 
L 135.525185 149.923026 
L 148.207003 144.912449 
L 160.888821 139.901871 
L 173.570639 134.891294 
L 186.252457 129.880717 
L 198.934276 124.870139 
L 211.616094 119.859562 
L 224.297912 114.848984 
L 236.97973 109.838407 
L 249.661548 104.827829 
L 262.343366 99.817252 
L 275.025185 94.806674 
L 287.707003 89.796097 
L 300.388821 84.785519 
L 313.070639 79.774942 
L 325.752457 74.764364 
L 338.434276 69.753787 
L 351.116094 64.743209 
L 363.797912 59.732632 
" style="fill:none;stroke:#0173b2;stroke-linecap:round;stroke-opacity:0.1;stroke-width:1.5;"/>
   </g>
   <g id="line2d_115">
    <defs>
     <path d="M 0 1.5 
C 0.397805 1.5 0.77937 1.341951 1.06066 1.06066 
C 1.341951 0.77937 1.5 0.397805 1.5 0 
C 1.5 -0.397805 1.341951 -0.77937 1.06066 -1.06066 
C 0.77937 -1.341951 0.397805 -1.5 0 -1.5 
C -0.397805 -1.5 -0.77937 -1.341951 -1.06066 -1.06066 
C -1.341951 -0.77937 -1.5 -0.397805 -1.5 0 
C -1.5 0.397805 -1.341951 0.77937 -1.06066 1.06066 
C -0.77937 1.341951 -0.397805 1.5 0 1.5 
z
" id="mc2e03a934b" style="stroke:#000000;"/>
    </defs>
    <g clip-path="url(#p8c65bd25a2)">
     <use style="stroke:#000000;" x="59.434276" xlink:href="#mc2e03a934b" y="175.142874"/>
     <use style="stroke:#000000;" x="72.116094" xlink:href="#mc2e03a934b" y="161.82516"/>
     <use style="stroke:#000000;" x="84.797912" xlink:href="#mc2e03a934b" y="193.415304"/>
     <use style="stroke:#000000;" x="97.47973" xlink:href="#mc2e03a934b" y="124.287439"/>
     <use style="stroke:#000000;" x="110.161548" xlink:href="#mc2e03a934b" y="161.032161"/>
     <use style="stroke:#000000;" x="122.843366" xlink:href="#mc2e03a934b" y="106.317723"/>
     <use style="stroke:#000000;" x="135.525185" xlink:href="#mc2e03a934b" y="149.170824"/>
     <use style="stroke:#000000;" x="148.207003" xlink:href="#mc2e03a934b" y="137.783166"/>
     <use style="stroke:#000000;" x="160.888821" xlink:href="#mc2e03a934b" y="109.555204"/>
     <use style="stroke:#000000;" x="173.570639" xlink:href="#mc2e03a934b" y="142.745445"/>
     <use style="stroke:#000000;" x="186.252457" xlink:href="#mc2e03a934b" y="168.270179"/>
     <use style="stroke:#000000;" x="198.934276" xlink:href="#mc2e03a934b" y="145.325483"/>
     <use style="stroke:#000000;" x="211.616094" xlink:href="#mc2e03a934b" y="108.890416"/>
     <use style="stroke:#000000;" x="224.297912" xlink:href="#mc2e03a934b" y="105.103736"/>
     <use style="stroke:#000000;" x="236.97973" xlink:href="#mc2e03a934b" y="117.520745"/>
     <use style="stroke:#000000;" x="249.661548" xlink:href="#mc2e03a934b" y="122.057185"/>
     <use style="stroke:#000000;" x="262.343366" xlink:href="#mc2e03a934b" y="112.698888"/>
     <use style="stroke:#000000;" x="275.025185" xlink:href="#mc2e03a934b" y="58.299755"/>
     <use style="stroke:#000000;" x="287.707003" xlink:href="#mc2e03a934b" y="115.435254"/>
     <use style="stroke:#000000;" x="300.388821" xlink:href="#mc2e03a934b" y="55.053066"/>
     <use style="stroke:#000000;" x="313.070639" xlink:href="#mc2e03a934b" y="107.695375"/>
     <use style="stroke:#000000;" x="325.752457" xlink:href="#mc2e03a934b" y="97.303956"/>
     <use style="stroke:#000000;" x="338.434276" xlink:href="#mc2e03a934b" y="38.424696"/>
     <use style="stroke:#000000;" x="351.116094" xlink:href="#mc2e03a934b" y="81.09177"/>
     <use style="stroke:#000000;" x="363.797912" xlink:href="#mc2e03a934b" y="48.694476"/>
    </g>
   </g>
   <g id="patch_3">
    <path d="M 44.216094 224.64 
L 44.216094 7.2 
" style="fill:none;stroke:#262626;stroke-linecap:square;stroke-linejoin:miter;stroke-width:1.25;"/>
   </g>
   <g id="patch_4">
    <path d="M 379.016094 224.64 
L 379.016094 7.2 
" style="fill:none;stroke:#262626;stroke-linecap:square;stroke-linejoin:miter;stroke-width:1.25;"/>
   </g>
   <g id="patch_5">
    <path d="M 44.216094 224.64 
L 379.016094 224.64 
" style="fill:none;stroke:#262626;stroke-linecap:square;stroke-linejoin:miter;stroke-width:1.25;"/>
   </g>
   <g id="patch_6">
    <path d="M 44.216094 7.2 
L 379.016094 7.2 
" style="fill:none;stroke:#262626;stroke-linecap:square;stroke-linejoin:miter;stroke-width:1.25;"/>
   </g>
  </g>
 </g>
 <defs>
  <clipPath id="p8c65bd25a2">
   <rect height="217.44" width="334.8" x="44.216094" y="7.2"/>
  </clipPath>
 </defs>
</svg>
