<?xml version="1.0" encoding="utf-8" standalone="no"?>
<!DOCTYPE svg PUBLIC "-//W3C//DTD SVG 1.1//EN"
  "http://www.w3.org/Graphics/SVG/1.1/DTD/svg11.dtd">
<svg height="266.374219pt" version="1.1" viewBox="0 0 400.315781 266.374219" width="400.315781pt" xmlns="http://www.w3.org/2000/svg" xmlns:xlink="http://www.w3.org/1999/xlink">
 <metadata>
  <rdf:RDF xmlns:cc="http://creativecommons.org/ns#" xmlns:dc="http://purl.org/dc/elements/1.1/" xmlns:rdf="http://www.w3.org/1999/02/22-rdf-syntax-ns#">
   <cc:Work>
    <dc:type rdf:resource="http://purl.org/dc/dcmitype/StillImage"/>
    <dc:date>2021-09-15T21:01:59.813638</dc:date>
    <dc:format>image/svg+xml</dc:format>
    <dc:creator>
     <cc:Agent>
      <dc:title>Matplotlib v3.4.3, https://matplotlib.org/</dc:title>
     </cc:Agent>
    </dc:creator>
   </cc:Work>
  </rdf:RDF>
 </metadata>
 <defs>
  <style type="text/css">*{stroke-linecap:butt;stroke-linejoin:round;}</style>
 </defs>
 <g id="figure_1">
  <g id="patch_1">
   <path d="M 0 266.374219 
L 400.315781 266.374219 
L 400.315781 0 
L 0 0 
z
" style="fill:#ffffff;"/>
  </g>
  <g id="axes_1">
   <g id="patch_2">
    <path d="M 58.315781 224.64 
L 393.115781 224.64 
L 393.115781 7.2 
L 58.315781 7.2 
z
" style="fill:#ffffff;"/>
   </g>
   <g id="matplotlib.axis_1">
    <g id="xtick_1">
     <g id="line2d_1">
      <defs>
       <path d="M 0 0 
L 0 6 
" id="m9d873b75ed" style="stroke:#262626;stroke-width:1.25;"/>
      </defs>
      <g>
       <use style="fill:#262626;stroke:#262626;stroke-width:1.25;" x="58.414916" xlink:href="#m9d873b75ed" y="224.64"/>
      </g>
     </g>
     <g id="text_1">
      <!-- 11000 -->
      <g style="fill:#262626;" transform="translate(43.527963 242.013594)scale(0.11 -0.11)">
       <defs>
        <path d="M 2384 0 
L 1822 0 
L 1822 3584 
Q 1619 3391 1289 3197 
Q 959 3003 697 2906 
L 697 3450 
Q 1169 3672 1522 3987 
Q 1875 4303 2022 4600 
L 2384 4600 
L 2384 0 
z
" id="ArialMT-31" transform="scale(0.015625)"/>
        <path d="M 266 2259 
Q 266 3072 433 3567 
Q 600 4063 929 4331 
Q 1259 4600 1759 4600 
Q 2128 4600 2406 4451 
Q 2684 4303 2865 4023 
Q 3047 3744 3150 3342 
Q 3253 2941 3253 2259 
Q 3253 1453 3087 958 
Q 2922 463 2592 192 
Q 2263 -78 1759 -78 
Q 1097 -78 719 397 
Q 266 969 266 2259 
z
M 844 2259 
Q 844 1131 1108 757 
Q 1372 384 1759 384 
Q 2147 384 2411 759 
Q 2675 1134 2675 2259 
Q 2675 3391 2411 3762 
Q 2147 4134 1753 4134 
Q 1366 4134 1134 3806 
Q 844 3388 844 2259 
z
" id="ArialMT-30" transform="scale(0.015625)"/>
       </defs>
       <use xlink:href="#ArialMT-31"/>
       <use x="48.240234" xlink:href="#ArialMT-31"/>
       <use x="103.855469" xlink:href="#ArialMT-30"/>
       <use x="159.470703" xlink:href="#ArialMT-30"/>
       <use x="215.085938" xlink:href="#ArialMT-30"/>
      </g>
     </g>
    </g>
    <g id="xtick_2">
     <g id="line2d_2">
      <g>
       <use style="fill:#262626;stroke:#262626;stroke-width:1.25;" x="96.187311" xlink:href="#m9d873b75ed" y="224.64"/>
      </g>
     </g>
     <g id="text_2">
      <!-- 11500 -->
      <g style="fill:#262626;" transform="translate(81.300358 242.013594)scale(0.11 -0.11)">
       <defs>
        <path d="M 266 1200 
L 856 1250 
Q 922 819 1161 601 
Q 1400 384 1738 384 
Q 2144 384 2425 690 
Q 2706 997 2706 1503 
Q 2706 1984 2436 2262 
Q 2166 2541 1728 2541 
Q 1456 2541 1237 2417 
Q 1019 2294 894 2097 
L 366 2166 
L 809 4519 
L 3088 4519 
L 3088 3981 
L 1259 3981 
L 1013 2750 
Q 1425 3038 1878 3038 
Q 2478 3038 2890 2622 
Q 3303 2206 3303 1553 
Q 3303 931 2941 478 
Q 2500 -78 1738 -78 
Q 1113 -78 717 272 
Q 322 622 266 1200 
z
" id="ArialMT-35" transform="scale(0.015625)"/>
       </defs>
       <use xlink:href="#ArialMT-31"/>
       <use x="48.240234" xlink:href="#ArialMT-31"/>
       <use x="103.855469" xlink:href="#ArialMT-35"/>
       <use x="159.470703" xlink:href="#ArialMT-30"/>
       <use x="215.085938" xlink:href="#ArialMT-30"/>
      </g>
     </g>
    </g>
    <g id="xtick_3">
     <g id="line2d_3">
      <g>
       <use style="fill:#262626;stroke:#262626;stroke-width:1.25;" x="133.959706" xlink:href="#m9d873b75ed" y="224.64"/>
      </g>
     </g>
     <g id="text_3">
      <!-- 12000 -->
      <g style="fill:#262626;" transform="translate(118.667128 242.013594)scale(0.11 -0.11)">
       <defs>
        <path d="M 3222 541 
L 3222 0 
L 194 0 
Q 188 203 259 391 
Q 375 700 629 1000 
Q 884 1300 1366 1694 
Q 2113 2306 2375 2664 
Q 2638 3022 2638 3341 
Q 2638 3675 2398 3904 
Q 2159 4134 1775 4134 
Q 1369 4134 1125 3890 
Q 881 3647 878 3216 
L 300 3275 
Q 359 3922 746 4261 
Q 1134 4600 1788 4600 
Q 2447 4600 2831 4234 
Q 3216 3869 3216 3328 
Q 3216 3053 3103 2787 
Q 2991 2522 2730 2228 
Q 2469 1934 1863 1422 
Q 1356 997 1212 845 
Q 1069 694 975 541 
L 3222 541 
z
" id="ArialMT-32" transform="scale(0.015625)"/>
       </defs>
       <use xlink:href="#ArialMT-31"/>
       <use x="55.615234" xlink:href="#ArialMT-32"/>
       <use x="111.230469" xlink:href="#ArialMT-30"/>
       <use x="166.845703" xlink:href="#ArialMT-30"/>
       <use x="222.460938" xlink:href="#ArialMT-30"/>
      </g>
     </g>
    </g>
    <g id="xtick_4">
     <g id="line2d_4">
      <g>
       <use style="fill:#262626;stroke:#262626;stroke-width:1.25;" x="171.732101" xlink:href="#m9d873b75ed" y="224.64"/>
      </g>
     </g>
     <g id="text_4">
      <!-- 12500 -->
      <g style="fill:#262626;" transform="translate(156.439523 242.013594)scale(0.11 -0.11)">
       <use xlink:href="#ArialMT-31"/>
       <use x="55.615234" xlink:href="#ArialMT-32"/>
       <use x="111.230469" xlink:href="#ArialMT-35"/>
       <use x="166.845703" xlink:href="#ArialMT-30"/>
       <use x="222.460938" xlink:href="#ArialMT-30"/>
      </g>
     </g>
    </g>
    <g id="xtick_5">
     <g id="line2d_5">
      <g>
       <use style="fill:#262626;stroke:#262626;stroke-width:1.25;" x="209.504496" xlink:href="#m9d873b75ed" y="224.64"/>
      </g>
     </g>
     <g id="text_5">
      <!-- 13000 -->
      <g style="fill:#262626;" transform="translate(194.211918 242.013594)scale(0.11 -0.11)">
       <defs>
        <path d="M 269 1209 
L 831 1284 
Q 928 806 1161 595 
Q 1394 384 1728 384 
Q 2125 384 2398 659 
Q 2672 934 2672 1341 
Q 2672 1728 2419 1979 
Q 2166 2231 1775 2231 
Q 1616 2231 1378 2169 
L 1441 2663 
Q 1497 2656 1531 2656 
Q 1891 2656 2178 2843 
Q 2466 3031 2466 3422 
Q 2466 3731 2256 3934 
Q 2047 4138 1716 4138 
Q 1388 4138 1169 3931 
Q 950 3725 888 3313 
L 325 3413 
Q 428 3978 793 4289 
Q 1159 4600 1703 4600 
Q 2078 4600 2393 4439 
Q 2709 4278 2876 4000 
Q 3044 3722 3044 3409 
Q 3044 3113 2884 2869 
Q 2725 2625 2413 2481 
Q 2819 2388 3044 2092 
Q 3269 1797 3269 1353 
Q 3269 753 2831 336 
Q 2394 -81 1725 -81 
Q 1122 -81 723 278 
Q 325 638 269 1209 
z
" id="ArialMT-33" transform="scale(0.015625)"/>
       </defs>
       <use xlink:href="#ArialMT-31"/>
       <use x="55.615234" xlink:href="#ArialMT-33"/>
       <use x="111.230469" xlink:href="#ArialMT-30"/>
       <use x="166.845703" xlink:href="#ArialMT-30"/>
       <use x="222.460938" xlink:href="#ArialMT-30"/>
      </g>
     </g>
    </g>
    <g id="xtick_6">
     <g id="line2d_6">
      <g>
       <use style="fill:#262626;stroke:#262626;stroke-width:1.25;" x="247.276891" xlink:href="#m9d873b75ed" y="224.64"/>
      </g>
     </g>
     <g id="text_6">
      <!-- 13500 -->
      <g style="fill:#262626;" transform="translate(231.984313 242.013594)scale(0.11 -0.11)">
       <use xlink:href="#ArialMT-31"/>
       <use x="55.615234" xlink:href="#ArialMT-33"/>
       <use x="111.230469" xlink:href="#ArialMT-35"/>
       <use x="166.845703" xlink:href="#ArialMT-30"/>
       <use x="222.460938" xlink:href="#ArialMT-30"/>
      </g>
     </g>
    </g>
    <g id="xtick_7">
     <g id="line2d_7">
      <g>
       <use style="fill:#262626;stroke:#262626;stroke-width:1.25;" x="285.049286" xlink:href="#m9d873b75ed" y="224.64"/>
      </g>
     </g>
     <g id="text_7">
      <!-- 14000 -->
      <g style="fill:#262626;" transform="translate(269.756708 242.013594)scale(0.11 -0.11)">
       <defs>
        <path d="M 2069 0 
L 2069 1097 
L 81 1097 
L 81 1613 
L 2172 4581 
L 2631 4581 
L 2631 1613 
L 3250 1613 
L 3250 1097 
L 2631 1097 
L 2631 0 
L 2069 0 
z
M 2069 1613 
L 2069 3678 
L 634 1613 
L 2069 1613 
z
" id="ArialMT-34" transform="scale(0.015625)"/>
       </defs>
       <use xlink:href="#ArialMT-31"/>
       <use x="55.615234" xlink:href="#ArialMT-34"/>
       <use x="111.230469" xlink:href="#ArialMT-30"/>
       <use x="166.845703" xlink:href="#ArialMT-30"/>
       <use x="222.460938" xlink:href="#ArialMT-30"/>
      </g>
     </g>
    </g>
    <g id="xtick_8">
     <g id="line2d_8">
      <g>
       <use style="fill:#262626;stroke:#262626;stroke-width:1.25;" x="322.821681" xlink:href="#m9d873b75ed" y="224.64"/>
      </g>
     </g>
     <g id="text_8">
      <!-- 14500 -->
      <g style="fill:#262626;" transform="translate(307.529103 242.013594)scale(0.11 -0.11)">
       <use xlink:href="#ArialMT-31"/>
       <use x="55.615234" xlink:href="#ArialMT-34"/>
       <use x="111.230469" xlink:href="#ArialMT-35"/>
       <use x="166.845703" xlink:href="#ArialMT-30"/>
       <use x="222.460938" xlink:href="#ArialMT-30"/>
      </g>
     </g>
    </g>
    <g id="xtick_9">
     <g id="line2d_9">
      <g>
       <use style="fill:#262626;stroke:#262626;stroke-width:1.25;" x="360.594076" xlink:href="#m9d873b75ed" y="224.64"/>
      </g>
     </g>
     <g id="text_9">
      <!-- 15000 -->
      <g style="fill:#262626;" transform="translate(345.301498 242.013594)scale(0.11 -0.11)">
       <use xlink:href="#ArialMT-31"/>
       <use x="55.615234" xlink:href="#ArialMT-35"/>
       <use x="111.230469" xlink:href="#ArialMT-30"/>
       <use x="166.845703" xlink:href="#ArialMT-30"/>
       <use x="222.460938" xlink:href="#ArialMT-30"/>
      </g>
     </g>
    </g>
    <g id="text_10">
     <!-- $t / \mathrm{d}$ -->
     <g style="fill:#262626;" transform="translate(217.495781 256.789219)scale(0.12 -0.12)">
      <defs>
       <path d="M 2706 3500 
L 2619 3053 
L 1472 3053 
L 1100 1153 
Q 1081 1047 1072 975 
Q 1063 903 1063 863 
Q 1063 663 1183 572 
Q 1303 481 1569 481 
L 2150 481 
L 2053 0 
L 1503 0 
Q 991 0 739 200 
Q 488 400 488 806 
Q 488 878 497 964 
Q 506 1050 525 1153 
L 897 3053 
L 409 3053 
L 500 3500 
L 978 3500 
L 1172 4494 
L 1747 4494 
L 1556 3500 
L 2706 3500 
z
" id="DejaVuSans-Oblique-74" transform="scale(0.015625)"/>
       <path d="M 1625 4666 
L 2156 4666 
L 531 -594 
L 0 -594 
L 1625 4666 
z
" id="DejaVuSans-2f" transform="scale(0.015625)"/>
       <path d="M 2906 2969 
L 2906 4863 
L 3481 4863 
L 3481 0 
L 2906 0 
L 2906 525 
Q 2725 213 2448 61 
Q 2172 -91 1784 -91 
Q 1150 -91 751 415 
Q 353 922 353 1747 
Q 353 2572 751 3078 
Q 1150 3584 1784 3584 
Q 2172 3584 2448 3432 
Q 2725 3281 2906 2969 
z
M 947 1747 
Q 947 1113 1208 752 
Q 1469 391 1925 391 
Q 2381 391 2643 752 
Q 2906 1113 2906 1747 
Q 2906 2381 2643 2742 
Q 2381 3103 1925 3103 
Q 1469 3103 1208 2742 
Q 947 2381 947 1747 
z
" id="DejaVuSans-64" transform="scale(0.015625)"/>
      </defs>
      <use transform="translate(0 0.015625)" xlink:href="#DejaVuSans-Oblique-74"/>
      <use transform="translate(39.208984 0.015625)" xlink:href="#DejaVuSans-2f"/>
      <use transform="translate(72.900391 0.015625)" xlink:href="#DejaVuSans-64"/>
     </g>
    </g>
   </g>
   <g id="matplotlib.axis_2">
    <g id="ytick_1">
     <g id="line2d_10">
      <defs>
       <path d="M 0 0 
L -6 0 
" id="mf52cf130a0" style="stroke:#262626;stroke-width:1.25;"/>
      </defs>
      <g>
       <use style="fill:#262626;stroke:#262626;stroke-width:1.25;" x="58.315781" xlink:href="#mf52cf130a0" y="188.757674"/>
      </g>
     </g>
     <g id="text_11">
      <!-- −150 -->
      <g style="fill:#262626;" transform="translate(24.04 192.694471)scale(0.11 -0.11)">
       <defs>
        <path d="M 3381 1997 
L 356 1997 
L 356 2522 
L 3381 2522 
L 3381 1997 
z
" id="ArialMT-2212" transform="scale(0.015625)"/>
       </defs>
       <use xlink:href="#ArialMT-2212"/>
       <use x="58.398438" xlink:href="#ArialMT-31"/>
       <use x="114.013672" xlink:href="#ArialMT-35"/>
       <use x="169.628906" xlink:href="#ArialMT-30"/>
      </g>
     </g>
    </g>
    <g id="ytick_2">
     <g id="line2d_11">
      <g>
       <use style="fill:#262626;stroke:#262626;stroke-width:1.25;" x="58.315781" xlink:href="#mf52cf130a0" y="140.683175"/>
      </g>
     </g>
     <g id="text_12">
      <!-- −100 -->
      <g style="fill:#262626;" transform="translate(24.04 144.619972)scale(0.11 -0.11)">
       <use xlink:href="#ArialMT-2212"/>
       <use x="58.398438" xlink:href="#ArialMT-31"/>
       <use x="114.013672" xlink:href="#ArialMT-30"/>
       <use x="169.628906" xlink:href="#ArialMT-30"/>
      </g>
     </g>
    </g>
    <g id="ytick_3">
     <g id="line2d_12">
      <g>
       <use style="fill:#262626;stroke:#262626;stroke-width:1.25;" x="58.315781" xlink:href="#mf52cf130a0" y="92.608675"/>
      </g>
     </g>
     <g id="text_13">
      <!-- −50 -->
      <g style="fill:#262626;" transform="translate(30.157031 96.545472)scale(0.11 -0.11)">
       <use xlink:href="#ArialMT-2212"/>
       <use x="58.398438" xlink:href="#ArialMT-35"/>
       <use x="114.013672" xlink:href="#ArialMT-30"/>
      </g>
     </g>
    </g>
    <g id="ytick_4">
     <g id="line2d_13">
      <g>
       <use style="fill:#262626;stroke:#262626;stroke-width:1.25;" x="58.315781" xlink:href="#mf52cf130a0" y="44.534176"/>
      </g>
     </g>
     <g id="text_14">
      <!-- 0 -->
      <g style="fill:#262626;" transform="translate(42.69875 48.470972)scale(0.11 -0.11)">
       <use xlink:href="#ArialMT-30"/>
      </g>
     </g>
    </g>
    <g id="text_15">
     <!-- $v_r / \mathrm{m} \, \mathrm{s}^{-1}$ -->
     <g style="fill:#262626;" transform="translate(17.655 139.8)rotate(-90)scale(0.12 -0.12)">
      <defs>
       <path d="M 459 3500 
L 1069 3500 
L 1581 525 
L 3256 3500 
L 3866 3500 
L 1875 0 
L 1100 0 
L 459 3500 
z
" id="DejaVuSans-Oblique-76" transform="scale(0.015625)"/>
       <path d="M 2853 2969 
Q 2766 3016 2653 3041 
Q 2541 3066 2413 3066 
Q 1953 3066 1609 2717 
Q 1266 2369 1153 1784 
L 800 0 
L 225 0 
L 909 3500 
L 1484 3500 
L 1375 2956 
Q 1603 3259 1920 3421 
Q 2238 3584 2597 3584 
Q 2691 3584 2781 3573 
Q 2872 3563 2963 3538 
L 2853 2969 
z
" id="DejaVuSans-Oblique-72" transform="scale(0.015625)"/>
       <path d="M 3328 2828 
Q 3544 3216 3844 3400 
Q 4144 3584 4550 3584 
Q 5097 3584 5394 3201 
Q 5691 2819 5691 2113 
L 5691 0 
L 5113 0 
L 5113 2094 
Q 5113 2597 4934 2840 
Q 4756 3084 4391 3084 
Q 3944 3084 3684 2787 
Q 3425 2491 3425 1978 
L 3425 0 
L 2847 0 
L 2847 2094 
Q 2847 2600 2669 2842 
Q 2491 3084 2119 3084 
Q 1678 3084 1418 2786 
Q 1159 2488 1159 1978 
L 1159 0 
L 581 0 
L 581 3500 
L 1159 3500 
L 1159 2956 
Q 1356 3278 1631 3431 
Q 1906 3584 2284 3584 
Q 2666 3584 2933 3390 
Q 3200 3197 3328 2828 
z
" id="DejaVuSans-6d" transform="scale(0.015625)"/>
       <path d="M 2834 3397 
L 2834 2853 
Q 2591 2978 2328 3040 
Q 2066 3103 1784 3103 
Q 1356 3103 1142 2972 
Q 928 2841 928 2578 
Q 928 2378 1081 2264 
Q 1234 2150 1697 2047 
L 1894 2003 
Q 2506 1872 2764 1633 
Q 3022 1394 3022 966 
Q 3022 478 2636 193 
Q 2250 -91 1575 -91 
Q 1294 -91 989 -36 
Q 684 19 347 128 
L 347 722 
Q 666 556 975 473 
Q 1284 391 1588 391 
Q 1994 391 2212 530 
Q 2431 669 2431 922 
Q 2431 1156 2273 1281 
Q 2116 1406 1581 1522 
L 1381 1569 
Q 847 1681 609 1914 
Q 372 2147 372 2553 
Q 372 3047 722 3315 
Q 1072 3584 1716 3584 
Q 2034 3584 2315 3537 
Q 2597 3491 2834 3397 
z
" id="DejaVuSans-73" transform="scale(0.015625)"/>
       <path d="M 678 2272 
L 4684 2272 
L 4684 1741 
L 678 1741 
L 678 2272 
z
" id="DejaVuSans-2212" transform="scale(0.015625)"/>
       <path d="M 794 531 
L 1825 531 
L 1825 4091 
L 703 3866 
L 703 4441 
L 1819 4666 
L 2450 4666 
L 2450 531 
L 3481 531 
L 3481 0 
L 794 0 
L 794 531 
z
" id="DejaVuSans-31" transform="scale(0.015625)"/>
      </defs>
      <use transform="translate(0 0.684375)" xlink:href="#DejaVuSans-Oblique-76"/>
      <use transform="translate(59.179688 -15.721875)scale(0.7)" xlink:href="#DejaVuSans-Oblique-72"/>
      <use transform="translate(90.693359 0.684375)" xlink:href="#DejaVuSans-2f"/>
      <use transform="translate(124.384766 0.684375)" xlink:href="#DejaVuSans-6d"/>
      <use transform="translate(238.032551 0.684375)" xlink:href="#DejaVuSans-73"/>
      <use transform="translate(291.089192 38.965625)scale(0.7)" xlink:href="#DejaVuSans-2212"/>
      <use transform="translate(349.741536 38.965625)scale(0.7)" xlink:href="#DejaVuSans-31"/>
     </g>
    </g>
   </g>
   <g id="LineCollection_1">
    <path clip-path="url(#p0a01119b64)" d="M 73.533963 214.756364 
L 73.533963 212.333409 
" style="fill:none;stroke:#0173b2;stroke-width:1.5;"/>
    <path clip-path="url(#p0a01119b64)" d="M 81.979069 209.650852 
L 81.979069 205.477985 
" style="fill:none;stroke:#0173b2;stroke-width:1.5;"/>
    <path clip-path="url(#p0a01119b64)" d="M 84.315528 195.40157 
L 84.315528 192.57479 
" style="fill:none;stroke:#0173b2;stroke-width:1.5;"/>
    <path clip-path="url(#p0a01119b64)" d="M 86.428229 191.776753 
L 86.428229 189.007662 
" style="fill:none;stroke:#0173b2;stroke-width:1.5;"/>
    <path clip-path="url(#p0a01119b64)" d="M 86.656314 187.286595 
L 86.656314 183.88292 
" style="fill:none;stroke:#0173b2;stroke-width:1.5;"/>
    <path clip-path="url(#p0a01119b64)" d="M 100.127727 175.614106 
L 100.127727 173.152692 
" style="fill:none;stroke:#0173b2;stroke-width:1.5;"/>
    <path clip-path="url(#p0a01119b64)" d="M 100.203941 177.123645 
L 100.203941 174.546852 
" style="fill:none;stroke:#0173b2;stroke-width:1.5;"/>
    <path clip-path="url(#p0a01119b64)" d="M 102.319603 175.306429 
L 102.319603 172.883475 
" style="fill:none;stroke:#0173b2;stroke-width:1.5;"/>
    <path clip-path="url(#p0a01119b64)" d="M 102.462781 180.710003 
L 102.462781 177.940912 
" style="fill:none;stroke:#0173b2;stroke-width:1.5;"/>
    <path clip-path="url(#p0a01119b64)" d="M 102.618068 178.296663 
L 102.618068 176.239075 
" style="fill:none;stroke:#0173b2;stroke-width:1.5;"/>
    <path clip-path="url(#p0a01119b64)" d="M 102.686821 174.489163 
L 102.686821 172.296966 
" style="fill:none;stroke:#0173b2;stroke-width:1.5;"/>
    <path clip-path="url(#p0a01119b64)" d="M 109.786788 181.892636 
L 109.786788 178.931247 
" style="fill:none;stroke:#0173b2;stroke-width:1.5;"/>
    <path clip-path="url(#p0a01119b64)" d="M 132.611037 167.624124 
L 132.611037 164.835803 
" style="fill:none;stroke:#0173b2;stroke-width:1.5;"/>
    <path clip-path="url(#p0a01119b64)" d="M 134.257926 158.730342 
L 134.257926 155.884331 
" style="fill:none;stroke:#0173b2;stroke-width:1.5;"/>
    <path clip-path="url(#p0a01119b64)" d="M 134.347606 160.114887 
L 134.347606 157.461175 
" style="fill:none;stroke:#0173b2;stroke-width:1.5;"/>
    <path clip-path="url(#p0a01119b64)" d="M 138.941012 164.403133 
L 138.941012 161.537893 
" style="fill:none;stroke:#0173b2;stroke-width:1.5;"/>
    <path clip-path="url(#p0a01119b64)" d="M 141.26977 158.441895 
L 141.26977 155.01899 
" style="fill:none;stroke:#0173b2;stroke-width:1.5;"/>
    <path clip-path="url(#p0a01119b64)" d="M 143.68671 160.412949 
L 143.68671 158.047684 
" style="fill:none;stroke:#0173b2;stroke-width:1.5;"/>
    <path clip-path="url(#p0a01119b64)" d="M 159.273061 153.58637 
L 159.273061 150.913428 
" style="fill:none;stroke:#0173b2;stroke-width:1.5;"/>
    <path clip-path="url(#p0a01119b64)" d="M 161.38882 150.749975 
L 161.38882 147.827045 
" style="fill:none;stroke:#0173b2;stroke-width:1.5;"/>
    <path clip-path="url(#p0a01119b64)" d="M 163.421978 152.086446 
L 163.421978 148.682771 
" style="fill:none;stroke:#0173b2;stroke-width:1.5;"/>
    <path clip-path="url(#p0a01119b64)" d="M 167.6406 148.83661 
L 167.6406 146.202127 
" style="fill:none;stroke:#0173b2;stroke-width:1.5;"/>
    <path clip-path="url(#p0a01119b64)" d="M 185.561256 125.501248 
L 185.561256 122.924455 
" style="fill:none;stroke:#0173b2;stroke-width:1.5;"/>
    <path clip-path="url(#p0a01119b64)" d="M 187.747334 124.568602 
L 187.747334 121.87643 
" style="fill:none;stroke:#0173b2;stroke-width:1.5;"/>
    <path clip-path="url(#p0a01119b64)" d="M 192.654696 119.963065 
L 192.654696 117.136285 
" style="fill:none;stroke:#0173b2;stroke-width:1.5;"/>
    <path clip-path="url(#p0a01119b64)" d="M 198.157974 121.549524 
L 198.157974 118.645824 
" style="fill:none;stroke:#0173b2;stroke-width:1.5;"/>
    <path clip-path="url(#p0a01119b64)" d="M 210.649534 113.819144 
L 210.649534 111.3385 
" style="fill:none;stroke:#0173b2;stroke-width:1.5;"/>
    <path clip-path="url(#p0a01119b64)" d="M 210.725661 112.559592 
L 210.725661 110.252017 
" style="fill:none;stroke:#0173b2;stroke-width:1.5;"/>
    <path clip-path="url(#p0a01119b64)" d="M 210.800263 113.367244 
L 210.800263 110.963519 
" style="fill:none;stroke:#0173b2;stroke-width:1.5;"/>
    <path clip-path="url(#p0a01119b64)" d="M 223.090412 109.934725 
L 223.090412 107.107944 
" style="fill:none;stroke:#0173b2;stroke-width:1.5;"/>
    <path clip-path="url(#p0a01119b64)" d="M 241.621153 101.156321 
L 241.621153 98.887205 
" style="fill:none;stroke:#0173b2;stroke-width:1.5;"/>
    <path clip-path="url(#p0a01119b64)" d="M 268.211236 85.330196 
L 268.211236 83.368756 
" style="fill:none;stroke:#0173b2;stroke-width:1.5;"/>
    <path clip-path="url(#p0a01119b64)" d="M 272.812517 84.186023 
L 272.812517 81.070795 
" style="fill:none;stroke:#0173b2;stroke-width:1.5;"/>
    <path clip-path="url(#p0a01119b64)" d="M 294.957386 60.869891 
L 294.957386 58.485395 
" style="fill:none;stroke:#0173b2;stroke-width:1.5;"/>
    <path clip-path="url(#p0a01119b64)" d="M 303.704977 63.658212 
L 303.704977 61.86984 
" style="fill:none;stroke:#0173b2;stroke-width:1.5;"/>
    <path clip-path="url(#p0a01119b64)" d="M 303.779959 63.706286 
L 303.779959 61.37948 
" style="fill:none;stroke:#0173b2;stroke-width:1.5;"/>
    <path clip-path="url(#p0a01119b64)" d="M 303.852593 63.485143 
L 303.852593 61.254487 
" style="fill:none;stroke:#0173b2;stroke-width:1.5;"/>
    <path clip-path="url(#p0a01119b64)" d="M 304.074108 67.831078 
L 304.074108 65.658111 
" style="fill:none;stroke:#0173b2;stroke-width:1.5;"/>
    <path clip-path="url(#p0a01119b64)" d="M 304.372307 64.917763 
L 304.372307 63.244771 
" style="fill:none;stroke:#0173b2;stroke-width:1.5;"/>
    <path clip-path="url(#p0a01119b64)" d="M 306.032349 64.052422 
L 306.032349 61.879455 
" style="fill:none;stroke:#0173b2;stroke-width:1.5;"/>
    <path clip-path="url(#p0a01119b64)" d="M 306.108331 63.619752 
L 306.108331 61.273716 
" style="fill:none;stroke:#0173b2;stroke-width:1.5;"/>
    <path clip-path="url(#p0a01119b64)" d="M 306.63819 55.129795 
L 306.63819 52.668381 
" style="fill:none;stroke:#0173b2;stroke-width:1.5;"/>
    <path clip-path="url(#p0a01119b64)" d="M 307.322248 63.235156 
L 307.322248 60.94681 
" style="fill:none;stroke:#0173b2;stroke-width:1.5;"/>
    <path clip-path="url(#p0a01119b64)" d="M 307.773444 61.36025 
L 307.773444 59.148823 
" style="fill:none;stroke:#0173b2;stroke-width:1.5;"/>
    <path clip-path="url(#p0a01119b64)" d="M 322.305792 54.70674 
L 322.305792 52.553002 
" style="fill:none;stroke:#0173b2;stroke-width:1.5;"/>
    <path clip-path="url(#p0a01119b64)" d="M 326.524435 55.62977 
L 326.524435 53.206815 
" style="fill:none;stroke:#0173b2;stroke-width:1.5;"/>
    <path clip-path="url(#p0a01119b64)" d="M 333.387166 56.360503 
L 333.387166 53.956778 
" style="fill:none;stroke:#0173b2;stroke-width:1.5;"/>
    <path clip-path="url(#p0a01119b64)" d="M 348.441087 46.755217 
L 348.441087 45.082225 
" style="fill:none;stroke:#0173b2;stroke-width:1.5;"/>
    <path clip-path="url(#p0a01119b64)" d="M 350.408374 49.620458 
L 350.408374 46.428311 
" style="fill:none;stroke:#0173b2;stroke-width:1.5;"/>
    <path clip-path="url(#p0a01119b64)" d="M 350.47712 47.97631 
L 350.47712 46.226398 
" style="fill:none;stroke:#0173b2;stroke-width:1.5;"/>
    <path clip-path="url(#p0a01119b64)" d="M 355.148474 49.466619 
L 355.148474 46.735988 
" style="fill:none;stroke:#0173b2;stroke-width:1.5;"/>
    <path clip-path="url(#p0a01119b64)" d="M 355.237573 48.889725 
L 355.237573 46.370621 
" style="fill:none;stroke:#0173b2;stroke-width:1.5;"/>
    <path clip-path="url(#p0a01119b64)" d="M 355.30888 48.082074 
L 355.30888 45.870647 
" style="fill:none;stroke:#0173b2;stroke-width:1.5;"/>
    <path clip-path="url(#p0a01119b64)" d="M 357.876003 47.168658 
L 357.876003 45.764883 
" style="fill:none;stroke:#0173b2;stroke-width:1.5;"/>
    <path clip-path="url(#p0a01119b64)" d="M 359.369789 44.13035 
L 359.369789 41.765084 
" style="fill:none;stroke:#0173b2;stroke-width:1.5;"/>
    <path clip-path="url(#p0a01119b64)" d="M 359.449467 41.69778 
L 359.449467 39.409434 
" style="fill:none;stroke:#0173b2;stroke-width:1.5;"/>
    <path clip-path="url(#p0a01119b64)" d="M 359.532679 43.120785 
L 359.532679 40.467073 
" style="fill:none;stroke:#0173b2;stroke-width:1.5;"/>
    <path clip-path="url(#p0a01119b64)" d="M 359.607391 38.524863 
L 359.607391 36.159598 
" style="fill:none;stroke:#0173b2;stroke-width:1.5;"/>
    <path clip-path="url(#p0a01119b64)" d="M 359.683054 41.524712 
L 359.683054 39.024838 
" style="fill:none;stroke:#0173b2;stroke-width:1.5;"/>
    <path clip-path="url(#p0a01119b64)" d="M 359.759693 44.322648 
L 359.759693 41.861233 
" style="fill:none;stroke:#0173b2;stroke-width:1.5;"/>
    <path clip-path="url(#p0a01119b64)" d="M 361.71428 42.822723 
L 361.71428 40.438228 
" style="fill:none;stroke:#0173b2;stroke-width:1.5;"/>
    <path clip-path="url(#p0a01119b64)" d="M 361.790553 46.716758 
L 361.790553 44.313033 
" style="fill:none;stroke:#0173b2;stroke-width:1.5;"/>
    <path clip-path="url(#p0a01119b64)" d="M 361.869852 44.688014 
L 361.869852 42.630425 
" style="fill:none;stroke:#0173b2;stroke-width:1.5;"/>
    <path clip-path="url(#p0a01119b64)" d="M 363.755386 41.197805 
L 363.755386 38.640242 
" style="fill:none;stroke:#0173b2;stroke-width:1.5;"/>
    <path clip-path="url(#p0a01119b64)" d="M 363.832729 37.669137 
L 363.832729 34.880816 
" style="fill:none;stroke:#0173b2;stroke-width:1.5;"/>
    <path clip-path="url(#p0a01119b64)" d="M 363.904402 42.284289 
L 363.904402 39.726726 
" style="fill:none;stroke:#0173b2;stroke-width:1.5;"/>
    <path clip-path="url(#p0a01119b64)" d="M 363.978192 38.399869 
L 363.978192 35.707697 
" style="fill:none;stroke:#0173b2;stroke-width:1.5;"/>
    <path clip-path="url(#p0a01119b64)" d="M 374.959667 26.602387 
L 374.959667 24.025594 
" style="fill:none;stroke:#0173b2;stroke-width:1.5;"/>
    <path clip-path="url(#p0a01119b64)" d="M 375.488321 25.265916 
L 375.488321 22.900651 
" style="fill:none;stroke:#0173b2;stroke-width:1.5;"/>
    <path clip-path="url(#p0a01119b64)" d="M 377.897599 19.371983 
L 377.897599 17.083636 
" style="fill:none;stroke:#0173b2;stroke-width:1.5;"/>
   </g>
   <g id="line2d_14">
    <defs>
     <path d="M 0 1.5 
C 0.397805 1.5 0.77937 1.341951 1.06066 1.06066 
C 1.341951 0.77937 1.5 0.397805 1.5 0 
C 1.5 -0.397805 1.341951 -0.77937 1.06066 -1.06066 
C 0.77937 -1.341951 0.397805 -1.5 0 -1.5 
C -0.397805 -1.5 -0.77937 -1.341951 -1.06066 -1.06066 
C -1.341951 -0.77937 -1.5 -0.397805 -1.5 0 
C -1.5 0.397805 -1.341951 0.77937 -1.06066 1.06066 
C -0.77937 1.341951 -0.397805 1.5 0 1.5 
z
" id="m2c049ca6d4" style="stroke:#0173b2;"/>
    </defs>
    <g clip-path="url(#p0a01119b64)">
     <use style="fill:#0173b2;stroke:#0173b2;" x="73.533963" xlink:href="#m2c049ca6d4" y="213.544886"/>
     <use style="fill:#0173b2;stroke:#0173b2;" x="81.979069" xlink:href="#m2c049ca6d4" y="207.564419"/>
     <use style="fill:#0173b2;stroke:#0173b2;" x="84.315528" xlink:href="#m2c049ca6d4" y="193.98818"/>
     <use style="fill:#0173b2;stroke:#0173b2;" x="86.428229" xlink:href="#m2c049ca6d4" y="190.392207"/>
     <use style="fill:#0173b2;stroke:#0173b2;" x="86.656314" xlink:href="#m2c049ca6d4" y="185.584757"/>
     <use style="fill:#0173b2;stroke:#0173b2;" x="100.127727" xlink:href="#m2c049ca6d4" y="174.383399"/>
     <use style="fill:#0173b2;stroke:#0173b2;" x="100.203941" xlink:href="#m2c049ca6d4" y="175.835249"/>
     <use style="fill:#0173b2;stroke:#0173b2;" x="102.319603" xlink:href="#m2c049ca6d4" y="174.094952"/>
     <use style="fill:#0173b2;stroke:#0173b2;" x="102.462781" xlink:href="#m2c049ca6d4" y="179.325457"/>
     <use style="fill:#0173b2;stroke:#0173b2;" x="102.618068" xlink:href="#m2c049ca6d4" y="177.267869"/>
     <use style="fill:#0173b2;stroke:#0173b2;" x="102.686821" xlink:href="#m2c049ca6d4" y="173.393064"/>
     <use style="fill:#0173b2;stroke:#0173b2;" x="109.786788" xlink:href="#m2c049ca6d4" y="180.411941"/>
     <use style="fill:#0173b2;stroke:#0173b2;" x="132.611037" xlink:href="#m2c049ca6d4" y="166.229964"/>
     <use style="fill:#0173b2;stroke:#0173b2;" x="134.257926" xlink:href="#m2c049ca6d4" y="157.307337"/>
     <use style="fill:#0173b2;stroke:#0173b2;" x="134.347606" xlink:href="#m2c049ca6d4" y="158.788031"/>
     <use style="fill:#0173b2;stroke:#0173b2;" x="138.941012" xlink:href="#m2c049ca6d4" y="162.970513"/>
     <use style="fill:#0173b2;stroke:#0173b2;" x="141.26977" xlink:href="#m2c049ca6d4" y="156.730443"/>
     <use style="fill:#0173b2;stroke:#0173b2;" x="143.68671" xlink:href="#m2c049ca6d4" y="159.230317"/>
     <use style="fill:#0173b2;stroke:#0173b2;" x="159.273061" xlink:href="#m2c049ca6d4" y="152.249899"/>
     <use style="fill:#0173b2;stroke:#0173b2;" x="161.38882" xlink:href="#m2c049ca6d4" y="149.28851"/>
     <use style="fill:#0173b2;stroke:#0173b2;" x="163.421978" xlink:href="#m2c049ca6d4" y="150.384609"/>
     <use style="fill:#0173b2;stroke:#0173b2;" x="167.6406" xlink:href="#m2c049ca6d4" y="147.519369"/>
     <use style="fill:#0173b2;stroke:#0173b2;" x="185.561256" xlink:href="#m2c049ca6d4" y="124.212851"/>
     <use style="fill:#0173b2;stroke:#0173b2;" x="187.747334" xlink:href="#m2c049ca6d4" y="123.222516"/>
     <use style="fill:#0173b2;stroke:#0173b2;" x="192.654696" xlink:href="#m2c049ca6d4" y="118.549675"/>
     <use style="fill:#0173b2;stroke:#0173b2;" x="198.157974" xlink:href="#m2c049ca6d4" y="120.097674"/>
     <use style="fill:#0173b2;stroke:#0173b2;" x="210.649534" xlink:href="#m2c049ca6d4" y="112.578822"/>
     <use style="fill:#0173b2;stroke:#0173b2;" x="210.725661" xlink:href="#m2c049ca6d4" y="111.405804"/>
     <use style="fill:#0173b2;stroke:#0173b2;" x="210.800263" xlink:href="#m2c049ca6d4" y="112.165382"/>
     <use style="fill:#0173b2;stroke:#0173b2;" x="223.090412" xlink:href="#m2c049ca6d4" y="108.521335"/>
     <use style="fill:#0173b2;stroke:#0173b2;" x="241.621153" xlink:href="#m2c049ca6d4" y="100.021763"/>
     <use style="fill:#0173b2;stroke:#0173b2;" x="268.211236" xlink:href="#m2c049ca6d4" y="84.349476"/>
     <use style="fill:#0173b2;stroke:#0173b2;" x="272.812517" xlink:href="#m2c049ca6d4" y="82.628409"/>
     <use style="fill:#0173b2;stroke:#0173b2;" x="294.957386" xlink:href="#m2c049ca6d4" y="59.677643"/>
     <use style="fill:#0173b2;stroke:#0173b2;" x="303.704977" xlink:href="#m2c049ca6d4" y="62.764026"/>
     <use style="fill:#0173b2;stroke:#0173b2;" x="303.779959" xlink:href="#m2c049ca6d4" y="62.542883"/>
     <use style="fill:#0173b2;stroke:#0173b2;" x="303.852593" xlink:href="#m2c049ca6d4" y="62.369815"/>
     <use style="fill:#0173b2;stroke:#0173b2;" x="304.074108" xlink:href="#m2c049ca6d4" y="66.744594"/>
     <use style="fill:#0173b2;stroke:#0173b2;" x="304.372307" xlink:href="#m2c049ca6d4" y="64.081267"/>
     <use style="fill:#0173b2;stroke:#0173b2;" x="306.032349" xlink:href="#m2c049ca6d4" y="62.965939"/>
     <use style="fill:#0173b2;stroke:#0173b2;" x="306.108331" xlink:href="#m2c049ca6d4" y="62.446734"/>
     <use style="fill:#0173b2;stroke:#0173b2;" x="306.63819" xlink:href="#m2c049ca6d4" y="53.899088"/>
     <use style="fill:#0173b2;stroke:#0173b2;" x="307.322248" xlink:href="#m2c049ca6d4" y="62.090983"/>
     <use style="fill:#0173b2;stroke:#0173b2;" x="307.773444" xlink:href="#m2c049ca6d4" y="60.254537"/>
     <use style="fill:#0173b2;stroke:#0173b2;" x="322.305792" xlink:href="#m2c049ca6d4" y="53.629871"/>
     <use style="fill:#0173b2;stroke:#0173b2;" x="326.524435" xlink:href="#m2c049ca6d4" y="54.418293"/>
     <use style="fill:#0173b2;stroke:#0173b2;" x="333.387166" xlink:href="#m2c049ca6d4" y="55.15864"/>
     <use style="fill:#0173b2;stroke:#0173b2;" x="348.441087" xlink:href="#m2c049ca6d4" y="45.918721"/>
     <use style="fill:#0173b2;stroke:#0173b2;" x="350.408374" xlink:href="#m2c049ca6d4" y="48.024384"/>
     <use style="fill:#0173b2;stroke:#0173b2;" x="350.47712" xlink:href="#m2c049ca6d4" y="47.101354"/>
     <use style="fill:#0173b2;stroke:#0173b2;" x="355.148474" xlink:href="#m2c049ca6d4" y="48.101303"/>
     <use style="fill:#0173b2;stroke:#0173b2;" x="355.237573" xlink:href="#m2c049ca6d4" y="47.630173"/>
     <use style="fill:#0173b2;stroke:#0173b2;" x="355.30888" xlink:href="#m2c049ca6d4" y="46.97636"/>
     <use style="fill:#0173b2;stroke:#0173b2;" x="357.876003" xlink:href="#m2c049ca6d4" y="46.46677"/>
     <use style="fill:#0173b2;stroke:#0173b2;" x="359.369789" xlink:href="#m2c049ca6d4" y="42.947717"/>
     <use style="fill:#0173b2;stroke:#0173b2;" x="359.449467" xlink:href="#m2c049ca6d4" y="40.553607"/>
     <use style="fill:#0173b2;stroke:#0173b2;" x="359.532679" xlink:href="#m2c049ca6d4" y="41.793929"/>
     <use style="fill:#0173b2;stroke:#0173b2;" x="359.607391" xlink:href="#m2c049ca6d4" y="37.34223"/>
     <use style="fill:#0173b2;stroke:#0173b2;" x="359.683054" xlink:href="#m2c049ca6d4" y="40.274775"/>
     <use style="fill:#0173b2;stroke:#0173b2;" x="359.759693" xlink:href="#m2c049ca6d4" y="43.091941"/>
     <use style="fill:#0173b2;stroke:#0173b2;" x="361.71428" xlink:href="#m2c049ca6d4" y="41.630476"/>
     <use style="fill:#0173b2;stroke:#0173b2;" x="361.790553" xlink:href="#m2c049ca6d4" y="45.514895"/>
     <use style="fill:#0173b2;stroke:#0173b2;" x="361.869852" xlink:href="#m2c049ca6d4" y="43.65922"/>
     <use style="fill:#0173b2;stroke:#0173b2;" x="363.755386" xlink:href="#m2c049ca6d4" y="39.919024"/>
     <use style="fill:#0173b2;stroke:#0173b2;" x="363.832729" xlink:href="#m2c049ca6d4" y="36.274977"/>
     <use style="fill:#0173b2;stroke:#0173b2;" x="363.904402" xlink:href="#m2c049ca6d4" y="41.005507"/>
     <use style="fill:#0173b2;stroke:#0173b2;" x="363.978192" xlink:href="#m2c049ca6d4" y="37.053783"/>
     <use style="fill:#0173b2;stroke:#0173b2;" x="374.959667" xlink:href="#m2c049ca6d4" y="25.313991"/>
     <use style="fill:#0173b2;stroke:#0173b2;" x="375.488321" xlink:href="#m2c049ca6d4" y="24.083283"/>
     <use style="fill:#0173b2;stroke:#0173b2;" x="377.897599" xlink:href="#m2c049ca6d4" y="18.227809"/>
    </g>
   </g>
   <g id="patch_3">
    <path d="M 58.315781 224.64 
L 58.315781 7.2 
" style="fill:none;stroke:#262626;stroke-linecap:square;stroke-linejoin:miter;stroke-width:1.25;"/>
   </g>
   <g id="patch_4">
    <path d="M 393.115781 224.64 
L 393.115781 7.2 
" style="fill:none;stroke:#262626;stroke-linecap:square;stroke-linejoin:miter;stroke-width:1.25;"/>
   </g>
   <g id="patch_5">
    <path d="M 58.315781 224.64 
L 393.115781 224.64 
" style="fill:none;stroke:#262626;stroke-linecap:square;stroke-linejoin:miter;stroke-width:1.25;"/>
   </g>
   <g id="patch_6">
    <path d="M 58.315781 7.2 
L 393.115781 7.2 
" style="fill:none;stroke:#262626;stroke-linecap:square;stroke-linejoin:miter;stroke-width:1.25;"/>
   </g>
  </g>
 </g>
 <defs>
  <clipPath id="p0a01119b64">
   <rect height="217.44" width="334.8" x="58.315781" y="7.2"/>
  </clipPath>
 </defs>
</svg>
