<?xml version="1.0" encoding="utf-8" standalone="no"?>
<!DOCTYPE svg PUBLIC "-//W3C//DTD SVG 1.1//EN"
  "http://www.w3.org/Graphics/SVG/1.1/DTD/svg11.dtd">
<svg height="296.39952pt" version="1.1" viewBox="0 0 440.39952 296.39952" width="440.39952pt" xmlns="http://www.w3.org/2000/svg" xmlns:xlink="http://www.w3.org/1999/xlink">
 <metadata>
  <rdf:RDF xmlns:cc="http://creativecommons.org/ns#" xmlns:dc="http://purl.org/dc/elements/1.1/" xmlns:rdf="http://www.w3.org/1999/02/22-rdf-syntax-ns#">
   <cc:Work>
    <dc:type rdf:resource="http://purl.org/dc/dcmitype/StillImage"/>
    <dc:date>2021-09-16T13:09:29.450788</dc:date>
    <dc:format>image/svg+xml</dc:format>
    <dc:creator>
     <cc:Agent>
      <dc:title>Matplotlib v3.4.3, https://matplotlib.org/</dc:title>
     </cc:Agent>
    </dc:creator>
   </cc:Work>
  </rdf:RDF>
 </metadata>
 <defs>
  <style type="text/css">*{stroke-linecap:butt;stroke-linejoin:round;}</style>
 </defs>
 <g id="figure_1">
  <g id="patch_1">
   <path d="M 0 296.39952 
L 440.39952 296.39952 
L 440.39952 0 
L 0 0 
z
" style="fill:#ffffff;"/>
  </g>
  <g id="axes_1">
   <g id="patch_2">
    <path d="M 7.2 269.639676 
L 433.19952 269.639676 
L 433.19952 21.789375 
L 7.2 21.789375 
z
" style="fill:#ffffff;"/>
   </g>
   <g id="matplotlib.axis_1">
    <g id="xtick_1">
     <g id="line2d_1">
      <defs>
       <path d="M 0 0 
L 0 6 
" id="mc257b32b97" style="stroke:#262626;stroke-width:1.25;"/>
      </defs>
      <g>
       <use style="fill:#262626;stroke:#262626;stroke-width:1.25;" x="22.586538" xlink:href="#mc257b32b97" y="269.639676"/>
      </g>
     </g>
     <g id="text_1">
      <!-- 0.00 -->
      <g style="fill:#262626;" transform="translate(11.883022 287.01327)scale(0.11 -0.11)">
       <defs>
        <path d="M 266 2259 
Q 266 3072 433 3567 
Q 600 4063 929 4331 
Q 1259 4600 1759 4600 
Q 2128 4600 2406 4451 
Q 2684 4303 2865 4023 
Q 3047 3744 3150 3342 
Q 3253 2941 3253 2259 
Q 3253 1453 3087 958 
Q 2922 463 2592 192 
Q 2263 -78 1759 -78 
Q 1097 -78 719 397 
Q 266 969 266 2259 
z
M 844 2259 
Q 844 1131 1108 757 
Q 1372 384 1759 384 
Q 2147 384 2411 759 
Q 2675 1134 2675 2259 
Q 2675 3391 2411 3762 
Q 2147 4134 1753 4134 
Q 1366 4134 1134 3806 
Q 844 3388 844 2259 
z
" id="ArialMT-30" transform="scale(0.015625)"/>
        <path d="M 581 0 
L 581 641 
L 1222 641 
L 1222 0 
L 581 0 
z
" id="ArialMT-2e" transform="scale(0.015625)"/>
       </defs>
       <use xlink:href="#ArialMT-30"/>
       <use x="55.615234" xlink:href="#ArialMT-2e"/>
       <use x="83.398438" xlink:href="#ArialMT-30"/>
       <use x="139.013672" xlink:href="#ArialMT-30"/>
      </g>
     </g>
    </g>
    <g id="xtick_2">
     <g id="line2d_2">
      <g>
       <use style="fill:#262626;stroke:#262626;stroke-width:1.25;" x="115.038533" xlink:href="#mc257b32b97" y="269.639676"/>
      </g>
     </g>
     <g id="text_2">
      <!-- 0.01 -->
      <g style="fill:#262626;" transform="translate(104.335018 287.01327)scale(0.11 -0.11)">
       <defs>
        <path d="M 2384 0 
L 1822 0 
L 1822 3584 
Q 1619 3391 1289 3197 
Q 959 3003 697 2906 
L 697 3450 
Q 1169 3672 1522 3987 
Q 1875 4303 2022 4600 
L 2384 4600 
L 2384 0 
z
" id="ArialMT-31" transform="scale(0.015625)"/>
       </defs>
       <use xlink:href="#ArialMT-30"/>
       <use x="55.615234" xlink:href="#ArialMT-2e"/>
       <use x="83.398438" xlink:href="#ArialMT-30"/>
       <use x="139.013672" xlink:href="#ArialMT-31"/>
      </g>
     </g>
    </g>
    <g id="xtick_3">
     <g id="line2d_3">
      <g>
       <use style="fill:#262626;stroke:#262626;stroke-width:1.25;" x="207.490529" xlink:href="#mc257b32b97" y="269.639676"/>
      </g>
     </g>
     <g id="text_3">
      <!-- 0.02 -->
      <g style="fill:#262626;" transform="translate(196.787013 287.01327)scale(0.11 -0.11)">
       <defs>
        <path d="M 3222 541 
L 3222 0 
L 194 0 
Q 188 203 259 391 
Q 375 700 629 1000 
Q 884 1300 1366 1694 
Q 2113 2306 2375 2664 
Q 2638 3022 2638 3341 
Q 2638 3675 2398 3904 
Q 2159 4134 1775 4134 
Q 1369 4134 1125 3890 
Q 881 3647 878 3216 
L 300 3275 
Q 359 3922 746 4261 
Q 1134 4600 1788 4600 
Q 2447 4600 2831 4234 
Q 3216 3869 3216 3328 
Q 3216 3053 3103 2787 
Q 2991 2522 2730 2228 
Q 2469 1934 1863 1422 
Q 1356 997 1212 845 
Q 1069 694 975 541 
L 3222 541 
z
" id="ArialMT-32" transform="scale(0.015625)"/>
       </defs>
       <use xlink:href="#ArialMT-30"/>
       <use x="55.615234" xlink:href="#ArialMT-2e"/>
       <use x="83.398438" xlink:href="#ArialMT-30"/>
       <use x="139.013672" xlink:href="#ArialMT-32"/>
      </g>
     </g>
    </g>
    <g id="xtick_4">
     <g id="line2d_4">
      <g>
       <use style="fill:#262626;stroke:#262626;stroke-width:1.25;" x="299.942525" xlink:href="#mc257b32b97" y="269.639676"/>
      </g>
     </g>
     <g id="text_4">
      <!-- 0.03 -->
      <g style="fill:#262626;" transform="translate(289.239009 287.01327)scale(0.11 -0.11)">
       <defs>
        <path d="M 269 1209 
L 831 1284 
Q 928 806 1161 595 
Q 1394 384 1728 384 
Q 2125 384 2398 659 
Q 2672 934 2672 1341 
Q 2672 1728 2419 1979 
Q 2166 2231 1775 2231 
Q 1616 2231 1378 2169 
L 1441 2663 
Q 1497 2656 1531 2656 
Q 1891 2656 2178 2843 
Q 2466 3031 2466 3422 
Q 2466 3731 2256 3934 
Q 2047 4138 1716 4138 
Q 1388 4138 1169 3931 
Q 950 3725 888 3313 
L 325 3413 
Q 428 3978 793 4289 
Q 1159 4600 1703 4600 
Q 2078 4600 2393 4439 
Q 2709 4278 2876 4000 
Q 3044 3722 3044 3409 
Q 3044 3113 2884 2869 
Q 2725 2625 2413 2481 
Q 2819 2388 3044 2092 
Q 3269 1797 3269 1353 
Q 3269 753 2831 336 
Q 2394 -81 1725 -81 
Q 1122 -81 723 278 
Q 325 638 269 1209 
z
" id="ArialMT-33" transform="scale(0.015625)"/>
       </defs>
       <use xlink:href="#ArialMT-30"/>
       <use x="55.615234" xlink:href="#ArialMT-2e"/>
       <use x="83.398438" xlink:href="#ArialMT-30"/>
       <use x="139.013672" xlink:href="#ArialMT-33"/>
      </g>
     </g>
    </g>
    <g id="xtick_5">
     <g id="line2d_5">
      <g>
       <use style="fill:#262626;stroke:#262626;stroke-width:1.25;" x="392.39452" xlink:href="#mc257b32b97" y="269.639676"/>
      </g>
     </g>
     <g id="text_5">
      <!-- 0.04 -->
      <g style="fill:#262626;" transform="translate(381.691005 287.01327)scale(0.11 -0.11)">
       <defs>
        <path d="M 2069 0 
L 2069 1097 
L 81 1097 
L 81 1613 
L 2172 4581 
L 2631 4581 
L 2631 1613 
L 3250 1613 
L 3250 1097 
L 2631 1097 
L 2631 0 
L 2069 0 
z
M 2069 1613 
L 2069 3678 
L 634 1613 
L 2069 1613 
z
" id="ArialMT-34" transform="scale(0.015625)"/>
       </defs>
       <use xlink:href="#ArialMT-30"/>
       <use x="55.615234" xlink:href="#ArialMT-2e"/>
       <use x="83.398438" xlink:href="#ArialMT-30"/>
       <use x="139.013672" xlink:href="#ArialMT-34"/>
      </g>
     </g>
    </g>
   </g>
   <g id="matplotlib.axis_2"/>
   <g id="line2d_6">
    <path clip-path="url(#p9912ffdd1c)" d="M 26.563615 221.288777 
L 27.321486 221.195114 
L 28.837229 220.693433 
L 30.352972 219.741011 
L 31.868714 218.367782 
L 33.384457 216.638788 
L 34.9002 214.53814 
L 36.415943 212.053052 
L 37.931686 209.204947 
L 40.2053 204.373495 
L 42.478914 198.943978 
L 44.752528 193.010788 
L 47.784014 184.513277 
L 61.425699 144.603661 
L 64.457185 136.649685 
L 67.488671 129.274052 
L 70.520156 122.40819 
L 73.551642 116.113043 
L 76.583128 110.288842 
L 80.372485 103.620525 
L 84.919713 96.275178 
L 87.951199 91.660504 
L 93.256299 84.088156 
L 103.866498 70.039394 
L 115.23457 55.533013 
L 120.539669 49.448492 
L 123.571155 46.396782 
L 125.844769 44.271159 
L 128.118384 42.342266 
L 131.907741 39.543069 
L 134.939226 37.678463 
L 137.212841 36.539554 
L 139.486455 35.556981 
L 144.033683 34.044239 
L 147.065169 33.414583 
L 149.338783 33.13727 
L 151.612397 33.055323 
L 153.886012 33.229319 
L 156.917497 33.86474 
L 158.43324 34.359397 
L 160.706854 35.370555 
L 163.73834 37.172771 
L 165.254083 38.259747 
L 167.527697 40.118614 
L 169.801311 42.265756 
L 172.074925 44.686453 
L 175.106411 48.185897 
L 181.169382 55.869923 
L 188.748096 65.464084 
L 195.568939 73.59164 
L 201.63191 80.902992 
L 208.452753 89.700532 
L 222.85231 109.350299 
L 225.883796 113.005103 
L 228.915281 116.413037 
L 233.46251 121.134896 
L 240.283352 127.929215 
L 244.072709 131.813786 
L 247.104195 135.092327 
L 251.651424 140.6215 
L 254.682909 144.721623 
L 258.472266 150.267211 
L 264.535238 159.711145 
L 269.840337 168.020389 
L 274.387566 174.756256 
L 278.176923 179.930253 
L 281.96628 184.757774 
L 288.029251 191.997511 
L 295.607965 201.035065 
L 306.218165 213.95162 
L 310.765394 218.971226 
L 313.796879 222.003401 
L 316.828365 224.748793 
L 319.859851 227.143433 
L 322.891336 229.243552 
L 325.922822 231.06909 
L 329.712179 233.043982 
L 335.017279 235.429285 
L 341.838121 238.193226 
L 356.237678 243.670634 
L 371.395106 249.35597 
L 376.700206 251.045265 
L 379.731692 251.845839 
L 383.521049 252.649412 
L 387.310406 253.197497 
L 391.857635 253.575206 
L 396.404863 253.653832 
L 402.467834 253.538167 
L 413.078034 253.297582 
L 413.835905 253.30359 
L 413.835905 253.30359 
" style="fill:none;stroke:#0173b2;stroke-linecap:round;stroke-width:1.5;"/>
   </g>
   <g id="line2d_7">
    <path clip-path="url(#p9912ffdd1c)" d="M 26.563615 258.373753 
L 26.563615 221.288777 
" style="fill:none;stroke:#0173b2;stroke-linecap:round;stroke-width:1.5;"/>
   </g>
   <g id="line2d_8">
    <path clip-path="url(#p9912ffdd1c)" d="M 413.835905 258.053605 
L 413.835905 253.30359 
" style="fill:none;stroke:#0173b2;stroke-linecap:round;stroke-width:1.5;"/>
   </g>
   <g id="line2d_9">
    <defs>
     <path d="M 0 3 
C 0.795609 3 1.55874 2.683901 2.12132 2.12132 
C 2.683901 1.55874 3 0.795609 3 0 
C 3 -0.795609 2.683901 -1.55874 2.12132 -2.12132 
C 1.55874 -2.683901 0.795609 -3 0 -3 
C -0.795609 -3 -1.55874 -2.683901 -2.12132 -2.12132 
C -2.683901 -1.55874 -3 -0.795609 -3 0 
C -3 0.795609 -2.683901 1.55874 -2.12132 2.12132 
C -1.55874 2.683901 -0.795609 3 0 3 
z
" id="m7c413310bd" style="stroke:#000000;"/>
    </defs>
    <g clip-path="url(#p9912ffdd1c)">
     <use style="fill:#0173b2;stroke:#000000;" x="168.038738" xlink:href="#m7c413310bd" y="258.006575"/>
    </g>
   </g>
   <g id="patch_3">
    <path d="M 7.2 269.639676 
L 433.19952 269.639676 
" style="fill:none;stroke:#262626;stroke-linecap:square;stroke-linejoin:miter;stroke-width:1.25;"/>
   </g>
   <g id="text_6">
    <!-- e -->
    <g style="fill:#262626;" transform="translate(216.863198 15.789375)scale(0.12 -0.12)">
     <defs>
      <path d="M 2694 1069 
L 3275 997 
Q 3138 488 2766 206 
Q 2394 -75 1816 -75 
Q 1088 -75 661 373 
Q 234 822 234 1631 
Q 234 2469 665 2931 
Q 1097 3394 1784 3394 
Q 2450 3394 2872 2941 
Q 3294 2488 3294 1666 
Q 3294 1616 3291 1516 
L 816 1516 
Q 847 969 1125 678 
Q 1403 388 1819 388 
Q 2128 388 2347 550 
Q 2566 713 2694 1069 
z
M 847 1978 
L 2700 1978 
Q 2663 2397 2488 2606 
Q 2219 2931 1791 2931 
Q 1403 2931 1139 2672 
Q 875 2413 847 1978 
z
" id="ArialMT-65" transform="scale(0.015625)"/>
     </defs>
     <use xlink:href="#ArialMT-65"/>
    </g>
   </g>
  </g>
 </g>
 <defs>
  <clipPath id="p9912ffdd1c">
   <rect height="247.850301" width="425.99952" x="7.2" y="21.789375"/>
  </clipPath>
 </defs>
</svg>
