<?xml version="1.0" encoding="utf-8" standalone="no"?>
<!DOCTYPE svg PUBLIC "-//W3C//DTD SVG 1.1//EN"
  "http://www.w3.org/Graphics/SVG/1.1/DTD/svg11.dtd">
<svg height="181.644094pt" version="1.1" viewBox="0 0 195.817323 181.644094" width="195.817323pt" xmlns="http://www.w3.org/2000/svg" xmlns:xlink="http://www.w3.org/1999/xlink">
 <metadata>
  <rdf:RDF xmlns:cc="http://creativecommons.org/ns#" xmlns:dc="http://purl.org/dc/elements/1.1/" xmlns:rdf="http://www.w3.org/1999/02/22-rdf-syntax-ns#">
   <cc:Work>
    <dc:type rdf:resource="http://purl.org/dc/dcmitype/StillImage"/>
    <dc:date>2021-09-14T22:14:46.746936</dc:date>
    <dc:format>image/svg+xml</dc:format>
    <dc:creator>
     <cc:Agent>
      <dc:title>Matplotlib v3.4.3, https://matplotlib.org/</dc:title>
     </cc:Agent>
    </dc:creator>
   </cc:Work>
  </rdf:RDF>
 </metadata>
 <defs>
  <style type="text/css">*{stroke-linecap:butt;stroke-linejoin:round;}</style>
 </defs>
 <g id="figure_1">
  <g id="patch_1">
   <path d="M 0 181.644094 
L 195.817323 181.644094 
L 195.817323 0 
L 0 0 
z
" style="fill:#ffffff;"/>
  </g>
  <g id="axes_1">
   <g id="matplotlib.axis_1"/>
   <g id="matplotlib.axis_2"/>
   <g id="patch_2">
    <path clip-path="url(#p15aa20ecb5)" d="M 12.869291 168.774803 
L 182.948031 168.774803 
L 182.948031 55.388976 
L 12.869291 55.388976 
z
" style="fill:none;stroke:#000000;stroke-linejoin:miter;"/>
   </g>
   <g id="patch_3">
    <path clip-path="url(#p15aa20ecb5)" d="M 87.886676 73.713447 
L 81.873484 69.704653 
L 82.875683 68.702454 
L 51.237734 37.064506 
L 51.237734 37.064506 
L 82.875683 68.702454 
L 83.877881 67.700256 
z
" style="stroke:#000000;stroke-linejoin:miter;"/>
   </g>
   <g id="patch_4">
    <path clip-path="url(#p15aa20ecb5)" d="M 97.908661 69.562205 
L 96.491339 62.475591 
L 97.908661 62.475591 
L 97.908661 41.215748 
L 97.908661 41.215748 
L 97.908661 62.475591 
L 99.325984 62.475591 
z
" style="stroke:#000000;stroke-linejoin:miter;"/>
   </g>
   <g id="patch_5">
    <path clip-path="url(#p15aa20ecb5)" d="M 83.735433 83.735433 
L 76.648819 85.152756 
L 76.648819 83.735433 
L 43.577953 83.735433 
L 43.577953 83.735433 
L 76.648819 83.735433 
L 76.648819 82.31811 
z
" style="stroke:#000000;stroke-linejoin:miter;"/>
   </g>
   <g id="patch_6">
    <path clip-path="url(#p15aa20ecb5)" d="M 107.930647 73.713447 
L 111.939442 67.700256 
L 112.94164 68.702454 
L 144.579589 37.064506 
L 144.579589 37.064506 
L 112.94164 68.702454 
L 113.943839 69.704653 
z
" style="stroke:#000000;stroke-linejoin:miter;"/>
   </g>
   <g id="patch_7">
    <path clip-path="url(#p15aa20ecb5)" d="M 142.074092 127.900864 
L 136.060901 123.89207 
L 137.0631 122.889871 
L 107.930647 93.757419 
L 107.930647 93.757419 
L 137.0631 122.889871 
L 138.065298 121.887673 
z
" style="stroke:#000000;stroke-linejoin:miter;"/>
   </g>
   <g id="patch_8">
    <path clip-path="url(#p15aa20ecb5)" d="M 154.601575 122.711811 
L 153.184252 115.625197 
L 154.601575 115.625197 
L 154.601575 86.097638 
L 154.601575 86.097638 
L 154.601575 115.625197 
L 156.018898 115.625197 
z
" style="stroke:#000000;stroke-linejoin:miter;"/>
   </g>
   <g id="patch_9">
    <path clip-path="url(#p15aa20ecb5)" d="M 41.215748 41.215748 
C 44.974532 41.215748 48.579872 39.722367 51.237734 37.064506 
C 53.895596 34.406644 55.388976 30.801304 55.388976 27.04252 
C 55.388976 23.283736 53.895596 19.678396 51.237734 17.020534 
C 48.579872 14.362672 44.974532 12.869291 41.215748 12.869291 
C 37.456964 12.869291 33.851624 14.362672 31.193762 17.020534 
C 28.5359 19.678396 27.04252 23.283736 27.04252 27.04252 
C 27.04252 30.801304 28.5359 34.406644 31.193762 37.064506 
C 33.851624 39.722367 37.456964 41.215748 41.215748 41.215748 
z
" style="fill:none;stroke:#000000;stroke-linejoin:miter;"/>
   </g>
   <g id="patch_10">
    <path clip-path="url(#p15aa20ecb5)" d="M 97.908661 41.215748 
C 101.667446 41.215748 105.272786 39.722367 107.930647 37.064506 
C 110.588509 34.406644 112.08189 30.801304 112.08189 27.04252 
C 112.08189 23.283736 110.588509 19.678396 107.930647 17.020534 
C 105.272786 14.362672 101.667446 12.869291 97.908661 12.869291 
C 94.149877 12.869291 90.544537 14.362672 87.886676 17.020534 
C 85.228814 19.678396 83.735433 23.283736 83.735433 27.04252 
C 83.735433 30.801304 85.228814 34.406644 87.886676 37.064506 
C 90.544537 39.722367 94.149877 41.215748 97.908661 41.215748 
z
" style="fill:none;stroke:#000000;stroke-linejoin:miter;"/>
   </g>
   <g id="patch_11">
    <path clip-path="url(#p15aa20ecb5)" d="M 154.601575 41.215748 
C 158.360359 41.215748 161.965699 39.722367 164.623561 37.064506 
C 167.281422 34.406644 168.774803 30.801304 168.774803 27.04252 
C 168.774803 23.283736 167.281422 19.678396 164.623561 17.020534 
C 161.965699 14.362672 158.360359 12.869291 154.601575 12.869291 
C 150.842791 12.869291 147.237451 14.362672 144.579589 17.020534 
C 141.921727 19.678396 140.428346 23.283736 140.428346 27.04252 
C 140.428346 30.801304 141.921727 34.406644 144.579589 37.064506 
C 147.237451 39.722367 150.842791 41.215748 154.601575 41.215748 
z
" style="fill:none;stroke:#000000;stroke-linejoin:miter;"/>
   </g>
   <g id="patch_12">
    <path clip-path="url(#p15aa20ecb5)" d="M 41.215748 86.097638 
C 41.842212 86.097638 42.443102 85.848741 42.886079 85.405764 
C 43.329056 84.962787 43.577953 84.361897 43.577953 83.735433 
C 43.577953 83.108969 43.329056 82.508079 42.886079 82.065102 
C 42.443102 81.622125 41.842212 81.373228 41.215748 81.373228 
C 40.589284 81.373228 39.988394 81.622125 39.545417 82.065102 
C 39.10244 82.508079 38.853543 83.108969 38.853543 83.735433 
C 38.853543 84.361897 39.10244 84.962787 39.545417 85.405764 
C 39.988394 85.848741 40.589284 86.097638 41.215748 86.097638 
z
" style="stroke:#000000;stroke-linejoin:miter;"/>
   </g>
   <g id="patch_13">
    <path clip-path="url(#p15aa20ecb5)" d="M 97.908661 97.908661 
C 101.667446 97.908661 105.272786 96.415281 107.930647 93.757419 
C 110.588509 91.099557 112.08189 87.494217 112.08189 83.735433 
C 112.08189 79.976649 110.588509 76.371309 107.930647 73.713447 
C 105.272786 71.055585 101.667446 69.562205 97.908661 69.562205 
C 94.149877 69.562205 90.544537 71.055585 87.886676 73.713447 
C 85.228814 76.371309 83.735433 79.976649 83.735433 83.735433 
C 83.735433 87.494217 85.228814 91.099557 87.886676 93.757419 
C 90.544537 96.415281 94.149877 97.908661 97.908661 97.908661 
z
" style="fill:none;stroke:#000000;stroke-linejoin:miter;"/>
   </g>
   <g id="patch_14">
    <path clip-path="url(#p15aa20ecb5)" d="M 154.601575 158.144882 
C 159.300055 158.144882 163.80673 156.278156 167.129057 152.955829 
C 170.451384 149.633502 172.31811 145.126827 172.31811 140.428346 
C 172.31811 135.729866 170.451384 131.223191 167.129057 127.900864 
C 163.80673 124.578537 159.300055 122.711811 154.601575 122.711811 
C 149.903095 122.711811 145.39642 124.578537 142.074092 127.900864 
C 138.751765 131.223191 136.885039 135.729866 136.885039 140.428346 
C 136.885039 145.126827 138.751765 149.633502 142.074092 152.955829 
C 145.39642 156.278156 149.903095 158.144882 154.601575 158.144882 
z
" style="fill:#b2b2b2;stroke:#000000;stroke-linejoin:miter;"/>
   </g>
   <g id="patch_15">
    <path clip-path="url(#p15aa20ecb5)" d="M 154.601575 158.144882 
C 159.300055 158.144882 163.80673 156.278156 167.129057 152.955829 
C 170.451384 149.633502 172.31811 145.126827 172.31811 140.428346 
C 172.31811 135.729866 170.451384 131.223191 167.129057 127.900864 
C 163.80673 124.578537 159.300055 122.711811 154.601575 122.711811 
C 149.903095 122.711811 145.39642 124.578537 142.074092 127.900864 
C 138.751765 131.223191 136.885039 135.729866 136.885039 140.428346 
C 136.885039 145.126827 138.751765 149.633502 142.074092 152.955829 
C 145.39642 156.278156 149.903095 158.144882 154.601575 158.144882 
z
" style="fill:none;stroke:#000000;stroke-linejoin:miter;"/>
   </g>
   <g id="patch_16">
    <path clip-path="url(#p15aa20ecb5)" d="M 154.601575 86.097638 
C 155.228039 86.097638 155.828929 85.848741 156.271906 85.405764 
C 156.714883 84.962787 156.96378 84.361897 156.96378 83.735433 
C 156.96378 83.108969 156.714883 82.508079 156.271906 82.065102 
C 155.828929 81.622125 155.228039 81.373228 154.601575 81.373228 
C 153.975111 81.373228 153.374221 81.622125 152.931244 82.065102 
C 152.488267 82.508079 152.23937 83.108969 152.23937 83.735433 
C 152.23937 84.361897 152.488267 84.962787 152.931244 85.405764 
C 153.374221 85.848741 153.975111 86.097638 154.601575 86.097638 
z
" style="stroke:#000000;stroke-linejoin:miter;"/>
   </g>
   <g id="text_1">
    <!-- $i = 1, \ldots, N$ -->
    <g style="fill:#262626;" transform="translate(17.869291 161.389803)scale(0.12 -0.12)">
     <defs>
      <path d="M 1172 4863 
L 1747 4863 
L 1606 4134 
L 1031 4134 
L 1172 4863 
z
M 909 3500 
L 1484 3500 
L 800 0 
L 225 0 
L 909 3500 
z
" id="DejaVuSans-Oblique-69" transform="scale(0.015625)"/>
      <path d="M 678 2906 
L 4684 2906 
L 4684 2381 
L 678 2381 
L 678 2906 
z
M 678 1631 
L 4684 1631 
L 4684 1100 
L 678 1100 
L 678 1631 
z
" id="DejaVuSans-3d" transform="scale(0.015625)"/>
      <path d="M 794 531 
L 1825 531 
L 1825 4091 
L 703 3866 
L 703 4441 
L 1819 4666 
L 2450 4666 
L 2450 531 
L 3481 531 
L 3481 0 
L 794 0 
L 794 531 
z
" id="DejaVuSans-31" transform="scale(0.015625)"/>
      <path d="M 750 794 
L 1409 794 
L 1409 256 
L 897 -744 
L 494 -744 
L 750 256 
L 750 794 
z
" id="DejaVuSans-2c" transform="scale(0.015625)"/>
      <path d="M 2869 794 
L 3531 794 
L 3531 0 
L 2869 0 
L 2869 794 
z
M 4997 794 
L 5663 794 
L 5663 0 
L 4997 0 
L 4997 794 
z
M 738 794 
L 1403 794 
L 1403 0 
L 738 0 
L 738 794 
z
" id="DejaVuSans-2026" transform="scale(0.015625)"/>
      <path d="M 1081 4666 
L 1931 4666 
L 3219 666 
L 4000 4666 
L 4616 4666 
L 3706 0 
L 2853 0 
L 1569 4025 
L 788 0 
L 172 0 
L 1081 4666 
z
" id="DejaVuSans-Oblique-4e" transform="scale(0.015625)"/>
     </defs>
     <use transform="translate(0 0.015625)" xlink:href="#DejaVuSans-Oblique-69"/>
     <use transform="translate(47.265625 0.015625)" xlink:href="#DejaVuSans-3d"/>
     <use transform="translate(150.537109 0.015625)" xlink:href="#DejaVuSans-31"/>
     <use transform="translate(214.160156 0.015625)" xlink:href="#DejaVuSans-2c"/>
     <use transform="translate(265.429688 0.015625)" xlink:href="#DejaVuSans-2026"/>
     <use transform="translate(365.429688 0.015625)" xlink:href="#DejaVuSans-2c"/>
     <use transform="translate(416.699219 0.015625)" xlink:href="#DejaVuSans-Oblique-4e"/>
    </g>
   </g>
   <g id="text_2">
    <!-- $m$ -->
    <g style="fill:#262626;" transform="translate(35.335748 30.144707)scale(0.12 -0.12)">
     <defs>
      <path d="M 5747 2113 
L 5338 0 
L 4763 0 
L 5166 2094 
Q 5191 2228 5203 2325 
Q 5216 2422 5216 2491 
Q 5216 2772 5059 2928 
Q 4903 3084 4622 3084 
Q 4203 3084 3875 2770 
Q 3547 2456 3450 1953 
L 3066 0 
L 2491 0 
L 2900 2094 
Q 2925 2209 2937 2307 
Q 2950 2406 2950 2484 
Q 2950 2769 2794 2926 
Q 2638 3084 2363 3084 
Q 1938 3084 1609 2770 
Q 1281 2456 1184 1953 
L 800 0 
L 225 0 
L 909 3500 
L 1484 3500 
L 1375 2956 
Q 1609 3263 1923 3423 
Q 2238 3584 2597 3584 
Q 2978 3584 3223 3384 
Q 3469 3184 3519 2828 
Q 3781 3197 4126 3390 
Q 4472 3584 4856 3584 
Q 5306 3584 5551 3325 
Q 5797 3066 5797 2591 
Q 5797 2488 5784 2364 
Q 5772 2241 5747 2113 
z
" id="DejaVuSans-Oblique-6d" transform="scale(0.015625)"/>
     </defs>
     <use xlink:href="#DejaVuSans-Oblique-6d"/>
    </g>
   </g>
   <g id="text_3">
    <!-- $b$ -->
    <g style="fill:#262626;" transform="translate(94.068661 30.144707)scale(0.12 -0.12)">
     <defs>
      <path d="M 3169 2138 
Q 3169 2591 2961 2847 
Q 2753 3103 2388 3103 
Q 2122 3103 1889 2973 
Q 1656 2844 1484 2597 
Q 1303 2338 1198 1995 
Q 1094 1653 1094 1313 
Q 1094 881 1298 636 
Q 1503 391 1863 391 
Q 2134 391 2365 517 
Q 2597 644 2772 891 
Q 2950 1147 3059 1487 
Q 3169 1828 3169 2138 
z
M 1381 2969 
Q 1594 3256 1914 3420 
Q 2234 3584 2584 3584 
Q 3122 3584 3439 3221 
Q 3756 2859 3756 2241 
Q 3756 1734 3570 1259 
Q 3384 784 3041 416 
Q 2816 172 2522 40 
Q 2228 -91 1906 -91 
Q 1566 -91 1316 65 
Q 1066 222 909 531 
L 806 0 
L 231 0 
L 1178 4863 
L 1753 4863 
L 1381 2969 
z
" id="DejaVuSans-Oblique-62" transform="scale(0.015625)"/>
     </defs>
     <use transform="translate(0 0.015625)" xlink:href="#DejaVuSans-Oblique-62"/>
    </g>
   </g>
   <g id="text_4">
    <!-- $\sigma$ -->
    <g style="fill:#262626;" transform="translate(150.761575 30.144707)scale(0.12 -0.12)">
     <defs>
      <path d="M 2219 3044 
Q 1744 3044 1422 2700 
Q 1081 2341 969 1747 
Q 844 1119 1044 756 
Q 1241 397 1706 397 
Q 2166 397 2503 759 
Q 2844 1122 2966 1747 
Q 3075 2319 2881 2700 
Q 2700 3044 2219 3044 
z
M 2309 3503 
L 4219 3500 
L 4106 2925 
L 3463 2925 
Q 3706 2438 3575 1747 
Q 3406 888 2884 400 
Q 2359 -91 1609 -91 
Q 856 -91 525 400 
Q 194 888 363 1747 
Q 528 2609 1050 3097 
Q 1484 3503 2309 3503 
z
" id="DejaVuSans-Oblique-3c3" transform="scale(0.015625)"/>
     </defs>
     <use transform="translate(0 0.265625)" xlink:href="#DejaVuSans-Oblique-3c3"/>
    </g>
   </g>
   <g id="text_5">
    <!-- $x_i$ -->
    <g style="fill:#262626;" transform="translate(36.295748 78.235433)scale(0.12 -0.12)">
     <defs>
      <path d="M 3841 3500 
L 2234 1784 
L 3219 0 
L 2559 0 
L 1819 1388 
L 531 0 
L -166 0 
L 1556 1844 
L 641 3500 
L 1300 3500 
L 1972 2234 
L 3144 3500 
L 3841 3500 
z
" id="DejaVuSans-Oblique-78" transform="scale(0.015625)"/>
     </defs>
     <use transform="translate(0 0.3125)" xlink:href="#DejaVuSans-Oblique-78"/>
     <use transform="translate(59.179688 -16.09375)scale(0.7)" xlink:href="#DejaVuSans-Oblique-69"/>
    </g>
   </g>
   <g id="text_6">
    <!-- $y_i$ -->
    <g style="fill:#262626;" transform="translate(92.988661 86.702621)scale(0.12 -0.12)">
     <defs>
      <path d="M 1588 -325 
Q 1188 -997 936 -1164 
Q 684 -1331 294 -1331 
L -159 -1331 
L -63 -850 
L 269 -850 
Q 509 -850 678 -719 
Q 847 -588 1056 -206 
L 1234 128 
L 459 3500 
L 1069 3500 
L 1650 819 
L 3256 3500 
L 3859 3500 
L 1588 -325 
z
" id="DejaVuSans-Oblique-79" transform="scale(0.015625)"/>
     </defs>
     <use transform="translate(0 0.3125)" xlink:href="#DejaVuSans-Oblique-79"/>
     <use transform="translate(59.179688 -16.09375)scale(0.7)" xlink:href="#DejaVuSans-Oblique-69"/>
    </g>
   </g>
   <g id="text_7">
    <!-- $y_{i,\mathrm{obs}}$ -->
    <g style="fill:#262626;" transform="translate(140.141575 142.915534)scale(0.12 -0.12)">
     <defs>
      <path d="M 1959 3097 
Q 1497 3097 1228 2736 
Q 959 2375 959 1747 
Q 959 1119 1226 758 
Q 1494 397 1959 397 
Q 2419 397 2687 759 
Q 2956 1122 2956 1747 
Q 2956 2369 2687 2733 
Q 2419 3097 1959 3097 
z
M 1959 3584 
Q 2709 3584 3137 3096 
Q 3566 2609 3566 1747 
Q 3566 888 3137 398 
Q 2709 -91 1959 -91 
Q 1206 -91 779 398 
Q 353 888 353 1747 
Q 353 2609 779 3096 
Q 1206 3584 1959 3584 
z
" id="DejaVuSans-6f" transform="scale(0.015625)"/>
      <path d="M 3116 1747 
Q 3116 2381 2855 2742 
Q 2594 3103 2138 3103 
Q 1681 3103 1420 2742 
Q 1159 2381 1159 1747 
Q 1159 1113 1420 752 
Q 1681 391 2138 391 
Q 2594 391 2855 752 
Q 3116 1113 3116 1747 
z
M 1159 2969 
Q 1341 3281 1617 3432 
Q 1894 3584 2278 3584 
Q 2916 3584 3314 3078 
Q 3713 2572 3713 1747 
Q 3713 922 3314 415 
Q 2916 -91 2278 -91 
Q 1894 -91 1617 61 
Q 1341 213 1159 525 
L 1159 0 
L 581 0 
L 581 4863 
L 1159 4863 
L 1159 2969 
z
" id="DejaVuSans-62" transform="scale(0.015625)"/>
      <path d="M 2834 3397 
L 2834 2853 
Q 2591 2978 2328 3040 
Q 2066 3103 1784 3103 
Q 1356 3103 1142 2972 
Q 928 2841 928 2578 
Q 928 2378 1081 2264 
Q 1234 2150 1697 2047 
L 1894 2003 
Q 2506 1872 2764 1633 
Q 3022 1394 3022 966 
Q 3022 478 2636 193 
Q 2250 -91 1575 -91 
Q 1294 -91 989 -36 
Q 684 19 347 128 
L 347 722 
Q 666 556 975 473 
Q 1284 391 1588 391 
Q 1994 391 2212 530 
Q 2431 669 2431 922 
Q 2431 1156 2273 1281 
Q 2116 1406 1581 1522 
L 1381 1569 
Q 847 1681 609 1914 
Q 372 2147 372 2553 
Q 372 3047 722 3315 
Q 1072 3584 1716 3584 
Q 2034 3584 2315 3537 
Q 2597 3491 2834 3397 
z
" id="DejaVuSans-73" transform="scale(0.015625)"/>
     </defs>
     <use transform="translate(0 0.3125)" xlink:href="#DejaVuSans-Oblique-79"/>
     <use transform="translate(59.179688 -16.09375)scale(0.7)" xlink:href="#DejaVuSans-Oblique-69"/>
     <use transform="translate(78.62793 -16.09375)scale(0.7)" xlink:href="#DejaVuSans-2c"/>
     <use transform="translate(114.516602 -16.09375)scale(0.7)" xlink:href="#DejaVuSans-6f"/>
     <use transform="translate(157.34375 -16.09375)scale(0.7)" xlink:href="#DejaVuSans-62"/>
     <use transform="translate(201.777344 -16.09375)scale(0.7)" xlink:href="#DejaVuSans-73"/>
    </g>
   </g>
   <g id="text_8">
    <!-- $\sigma_i$ -->
    <g style="fill:#262626;" transform="translate(149.441575 78.235433)scale(0.12 -0.12)">
     <use transform="translate(0 0.265625)" xlink:href="#DejaVuSans-Oblique-3c3"/>
     <use transform="translate(63.378906 -16.140625)scale(0.7)" xlink:href="#DejaVuSans-Oblique-69"/>
    </g>
   </g>
  </g>
 </g>
 <defs>
  <clipPath id="p15aa20ecb5">
   <rect height="167.244094" width="181.417323" x="7.2" y="7.2"/>
  </clipPath>
 </defs>
</svg>
