<?xml version="1.0" encoding="utf-8" standalone="no"?>
<!DOCTYPE svg PUBLIC "-//W3C//DTD SVG 1.1//EN"
  "http://www.w3.org/Graphics/SVG/1.1/DTD/svg11.dtd">
<svg height="296.39952pt" version="1.1" viewBox="0 0 440.39952 296.39952" width="440.39952pt" xmlns="http://www.w3.org/2000/svg" xmlns:xlink="http://www.w3.org/1999/xlink">
 <metadata>
  <rdf:RDF xmlns:cc="http://creativecommons.org/ns#" xmlns:dc="http://purl.org/dc/elements/1.1/" xmlns:rdf="http://www.w3.org/1999/02/22-rdf-syntax-ns#">
   <cc:Work>
    <dc:type rdf:resource="http://purl.org/dc/dcmitype/StillImage"/>
    <dc:date>2021-09-16T13:09:28.230771</dc:date>
    <dc:format>image/svg+xml</dc:format>
    <dc:creator>
     <cc:Agent>
      <dc:title>Matplotlib v3.4.3, https://matplotlib.org/</dc:title>
     </cc:Agent>
    </dc:creator>
   </cc:Work>
  </rdf:RDF>
 </metadata>
 <defs>
  <style type="text/css">*{stroke-linecap:butt;stroke-linejoin:round;}</style>
 </defs>
 <g id="figure_1">
  <g id="patch_1">
   <path d="M 0 296.39952 
L 440.39952 296.39952 
L 440.39952 0 
L 0 0 
z
" style="fill:#ffffff;"/>
  </g>
  <g id="axes_1">
   <g id="patch_2">
    <path d="M 7.2 256.579832 
L 433.19952 256.579832 
L 433.19952 21.789375 
L 7.2 21.789375 
z
" style="fill:#ffffff;"/>
   </g>
   <g id="matplotlib.axis_1">
    <g id="xtick_1">
     <g id="line2d_1">
      <defs>
       <path d="M 0 0 
L 0 6 
" id="m1892f2b0dc" style="stroke:#262626;stroke-width:1.25;"/>
      </defs>
      <g>
       <use style="fill:#262626;stroke:#262626;stroke-width:1.25;" x="66.2756" xlink:href="#m1892f2b0dc" y="256.579832"/>
      </g>
     </g>
     <g id="text_1">
      <!-- 0.00060 -->
      <g style="fill:#262626;" transform="translate(46.396537 273.953426)scale(0.11 -0.11)">
       <defs>
        <path d="M 266 2259 
Q 266 3072 433 3567 
Q 600 4063 929 4331 
Q 1259 4600 1759 4600 
Q 2128 4600 2406 4451 
Q 2684 4303 2865 4023 
Q 3047 3744 3150 3342 
Q 3253 2941 3253 2259 
Q 3253 1453 3087 958 
Q 2922 463 2592 192 
Q 2263 -78 1759 -78 
Q 1097 -78 719 397 
Q 266 969 266 2259 
z
M 844 2259 
Q 844 1131 1108 757 
Q 1372 384 1759 384 
Q 2147 384 2411 759 
Q 2675 1134 2675 2259 
Q 2675 3391 2411 3762 
Q 2147 4134 1753 4134 
Q 1366 4134 1134 3806 
Q 844 3388 844 2259 
z
" id="ArialMT-30" transform="scale(0.015625)"/>
        <path d="M 581 0 
L 581 641 
L 1222 641 
L 1222 0 
L 581 0 
z
" id="ArialMT-2e" transform="scale(0.015625)"/>
        <path d="M 3184 3459 
L 2625 3416 
Q 2550 3747 2413 3897 
Q 2184 4138 1850 4138 
Q 1581 4138 1378 3988 
Q 1113 3794 959 3422 
Q 806 3050 800 2363 
Q 1003 2672 1297 2822 
Q 1591 2972 1913 2972 
Q 2475 2972 2870 2558 
Q 3266 2144 3266 1488 
Q 3266 1056 3080 686 
Q 2894 316 2569 119 
Q 2244 -78 1831 -78 
Q 1128 -78 684 439 
Q 241 956 241 2144 
Q 241 3472 731 4075 
Q 1159 4600 1884 4600 
Q 2425 4600 2770 4297 
Q 3116 3994 3184 3459 
z
M 888 1484 
Q 888 1194 1011 928 
Q 1134 663 1356 523 
Q 1578 384 1822 384 
Q 2178 384 2434 671 
Q 2691 959 2691 1453 
Q 2691 1928 2437 2201 
Q 2184 2475 1800 2475 
Q 1419 2475 1153 2201 
Q 888 1928 888 1484 
z
" id="ArialMT-36" transform="scale(0.015625)"/>
       </defs>
       <use xlink:href="#ArialMT-30"/>
       <use x="55.615234" xlink:href="#ArialMT-2e"/>
       <use x="83.398438" xlink:href="#ArialMT-30"/>
       <use x="139.013672" xlink:href="#ArialMT-30"/>
       <use x="194.628906" xlink:href="#ArialMT-30"/>
       <use x="250.244141" xlink:href="#ArialMT-36"/>
       <use x="305.859375" xlink:href="#ArialMT-30"/>
      </g>
     </g>
    </g>
    <g id="xtick_2">
     <g id="line2d_2">
      <g>
       <use style="fill:#262626;stroke:#262626;stroke-width:1.25;" x="145.645327" xlink:href="#m1892f2b0dc" y="256.579832"/>
      </g>
     </g>
     <g id="text_2">
      <!-- 0.00065 -->
      <g style="fill:#262626;" transform="translate(125.766265 273.953426)scale(0.11 -0.11)">
       <defs>
        <path d="M 266 1200 
L 856 1250 
Q 922 819 1161 601 
Q 1400 384 1738 384 
Q 2144 384 2425 690 
Q 2706 997 2706 1503 
Q 2706 1984 2436 2262 
Q 2166 2541 1728 2541 
Q 1456 2541 1237 2417 
Q 1019 2294 894 2097 
L 366 2166 
L 809 4519 
L 3088 4519 
L 3088 3981 
L 1259 3981 
L 1013 2750 
Q 1425 3038 1878 3038 
Q 2478 3038 2890 2622 
Q 3303 2206 3303 1553 
Q 3303 931 2941 478 
Q 2500 -78 1738 -78 
Q 1113 -78 717 272 
Q 322 622 266 1200 
z
" id="ArialMT-35" transform="scale(0.015625)"/>
       </defs>
       <use xlink:href="#ArialMT-30"/>
       <use x="55.615234" xlink:href="#ArialMT-2e"/>
       <use x="83.398438" xlink:href="#ArialMT-30"/>
       <use x="139.013672" xlink:href="#ArialMT-30"/>
       <use x="194.628906" xlink:href="#ArialMT-30"/>
       <use x="250.244141" xlink:href="#ArialMT-36"/>
       <use x="305.859375" xlink:href="#ArialMT-35"/>
      </g>
     </g>
    </g>
    <g id="xtick_3">
     <g id="line2d_3">
      <g>
       <use style="fill:#262626;stroke:#262626;stroke-width:1.25;" x="225.015055" xlink:href="#m1892f2b0dc" y="256.579832"/>
      </g>
     </g>
     <g id="text_3">
      <!-- 0.00070 -->
      <g style="fill:#262626;" transform="translate(205.135993 273.953426)scale(0.11 -0.11)">
       <defs>
        <path d="M 303 3981 
L 303 4522 
L 3269 4522 
L 3269 4084 
Q 2831 3619 2401 2847 
Q 1972 2075 1738 1259 
Q 1569 684 1522 0 
L 944 0 
Q 953 541 1156 1306 
Q 1359 2072 1739 2783 
Q 2119 3494 2547 3981 
L 303 3981 
z
" id="ArialMT-37" transform="scale(0.015625)"/>
       </defs>
       <use xlink:href="#ArialMT-30"/>
       <use x="55.615234" xlink:href="#ArialMT-2e"/>
       <use x="83.398438" xlink:href="#ArialMT-30"/>
       <use x="139.013672" xlink:href="#ArialMT-30"/>
       <use x="194.628906" xlink:href="#ArialMT-30"/>
       <use x="250.244141" xlink:href="#ArialMT-37"/>
       <use x="305.859375" xlink:href="#ArialMT-30"/>
      </g>
     </g>
    </g>
    <g id="xtick_4">
     <g id="line2d_4">
      <g>
       <use style="fill:#262626;stroke:#262626;stroke-width:1.25;" x="304.384783" xlink:href="#m1892f2b0dc" y="256.579832"/>
      </g>
     </g>
     <g id="text_4">
      <!-- 0.00075 -->
      <g style="fill:#262626;" transform="translate(284.50572 273.953426)scale(0.11 -0.11)">
       <use xlink:href="#ArialMT-30"/>
       <use x="55.615234" xlink:href="#ArialMT-2e"/>
       <use x="83.398438" xlink:href="#ArialMT-30"/>
       <use x="139.013672" xlink:href="#ArialMT-30"/>
       <use x="194.628906" xlink:href="#ArialMT-30"/>
       <use x="250.244141" xlink:href="#ArialMT-37"/>
       <use x="305.859375" xlink:href="#ArialMT-35"/>
      </g>
     </g>
    </g>
    <g id="xtick_5">
     <g id="line2d_5">
      <g>
       <use style="fill:#262626;stroke:#262626;stroke-width:1.25;" x="383.75451" xlink:href="#m1892f2b0dc" y="256.579832"/>
      </g>
     </g>
     <g id="text_5">
      <!-- 0.00080 -->
      <g style="fill:#262626;" transform="translate(363.875448 273.953426)scale(0.11 -0.11)">
       <defs>
        <path d="M 1131 2484 
Q 781 2613 612 2850 
Q 444 3088 444 3419 
Q 444 3919 803 4259 
Q 1163 4600 1759 4600 
Q 2359 4600 2725 4251 
Q 3091 3903 3091 3403 
Q 3091 3084 2923 2848 
Q 2756 2613 2416 2484 
Q 2838 2347 3058 2040 
Q 3278 1734 3278 1309 
Q 3278 722 2862 322 
Q 2447 -78 1769 -78 
Q 1091 -78 675 323 
Q 259 725 259 1325 
Q 259 1772 486 2073 
Q 713 2375 1131 2484 
z
M 1019 3438 
Q 1019 3113 1228 2906 
Q 1438 2700 1772 2700 
Q 2097 2700 2305 2904 
Q 2513 3109 2513 3406 
Q 2513 3716 2298 3927 
Q 2084 4138 1766 4138 
Q 1444 4138 1231 3931 
Q 1019 3725 1019 3438 
z
M 838 1322 
Q 838 1081 952 856 
Q 1066 631 1291 507 
Q 1516 384 1775 384 
Q 2178 384 2440 643 
Q 2703 903 2703 1303 
Q 2703 1709 2433 1975 
Q 2163 2241 1756 2241 
Q 1359 2241 1098 1978 
Q 838 1716 838 1322 
z
" id="ArialMT-38" transform="scale(0.015625)"/>
       </defs>
       <use xlink:href="#ArialMT-30"/>
       <use x="55.615234" xlink:href="#ArialMT-2e"/>
       <use x="83.398438" xlink:href="#ArialMT-30"/>
       <use x="139.013672" xlink:href="#ArialMT-30"/>
       <use x="194.628906" xlink:href="#ArialMT-30"/>
       <use x="250.244141" xlink:href="#ArialMT-38"/>
       <use x="305.859375" xlink:href="#ArialMT-30"/>
      </g>
     </g>
    </g>
    <g id="text_6">
     <!-- +4.2300000000 -->
     <g style="fill:#262626;" transform="translate(356.431551 287.01327)scale(0.11 -0.11)">
      <defs>
       <path d="M 1603 741 
L 1603 1997 
L 356 1997 
L 356 2522 
L 1603 2522 
L 1603 3769 
L 2134 3769 
L 2134 2522 
L 3381 2522 
L 3381 1997 
L 2134 1997 
L 2134 741 
L 1603 741 
z
" id="ArialMT-2b" transform="scale(0.015625)"/>
       <path d="M 2069 0 
L 2069 1097 
L 81 1097 
L 81 1613 
L 2172 4581 
L 2631 4581 
L 2631 1613 
L 3250 1613 
L 3250 1097 
L 2631 1097 
L 2631 0 
L 2069 0 
z
M 2069 1613 
L 2069 3678 
L 634 1613 
L 2069 1613 
z
" id="ArialMT-34" transform="scale(0.015625)"/>
       <path d="M 3222 541 
L 3222 0 
L 194 0 
Q 188 203 259 391 
Q 375 700 629 1000 
Q 884 1300 1366 1694 
Q 2113 2306 2375 2664 
Q 2638 3022 2638 3341 
Q 2638 3675 2398 3904 
Q 2159 4134 1775 4134 
Q 1369 4134 1125 3890 
Q 881 3647 878 3216 
L 300 3275 
Q 359 3922 746 4261 
Q 1134 4600 1788 4600 
Q 2447 4600 2831 4234 
Q 3216 3869 3216 3328 
Q 3216 3053 3103 2787 
Q 2991 2522 2730 2228 
Q 2469 1934 1863 1422 
Q 1356 997 1212 845 
Q 1069 694 975 541 
L 3222 541 
z
" id="ArialMT-32" transform="scale(0.015625)"/>
       <path d="M 269 1209 
L 831 1284 
Q 928 806 1161 595 
Q 1394 384 1728 384 
Q 2125 384 2398 659 
Q 2672 934 2672 1341 
Q 2672 1728 2419 1979 
Q 2166 2231 1775 2231 
Q 1616 2231 1378 2169 
L 1441 2663 
Q 1497 2656 1531 2656 
Q 1891 2656 2178 2843 
Q 2466 3031 2466 3422 
Q 2466 3731 2256 3934 
Q 2047 4138 1716 4138 
Q 1388 4138 1169 3931 
Q 950 3725 888 3313 
L 325 3413 
Q 428 3978 793 4289 
Q 1159 4600 1703 4600 
Q 2078 4600 2393 4439 
Q 2709 4278 2876 4000 
Q 3044 3722 3044 3409 
Q 3044 3113 2884 2869 
Q 2725 2625 2413 2481 
Q 2819 2388 3044 2092 
Q 3269 1797 3269 1353 
Q 3269 753 2831 336 
Q 2394 -81 1725 -81 
Q 1122 -81 723 278 
Q 325 638 269 1209 
z
" id="ArialMT-33" transform="scale(0.015625)"/>
      </defs>
      <use xlink:href="#ArialMT-2b"/>
      <use x="58.398438" xlink:href="#ArialMT-34"/>
      <use x="114.013672" xlink:href="#ArialMT-2e"/>
      <use x="141.796875" xlink:href="#ArialMT-32"/>
      <use x="197.412109" xlink:href="#ArialMT-33"/>
      <use x="253.027344" xlink:href="#ArialMT-30"/>
      <use x="308.642578" xlink:href="#ArialMT-30"/>
      <use x="364.257812" xlink:href="#ArialMT-30"/>
      <use x="419.873047" xlink:href="#ArialMT-30"/>
      <use x="475.488281" xlink:href="#ArialMT-30"/>
      <use x="531.103516" xlink:href="#ArialMT-30"/>
      <use x="586.71875" xlink:href="#ArialMT-30"/>
      <use x="642.333984" xlink:href="#ArialMT-30"/>
     </g>
    </g>
   </g>
   <g id="matplotlib.axis_2"/>
   <g id="line2d_6">
    <path clip-path="url(#p3ef2a0857b)" d="M 26.563615 242.459091 
L 32.626586 242.320369 
L 37.173814 242.008043 
L 41.721043 241.459476 
L 46.268271 240.674993 
L 51.573371 239.543961 
L 57.636342 237.976552 
L 64.457185 235.810352 
L 71.278028 233.345616 
L 79.614613 230.187163 
L 84.161842 228.210347 
L 87.193327 226.689249 
L 90.224813 224.928686 
L 94.01417 222.359198 
L 97.803527 219.475798 
L 103.866498 214.521283 
L 112.203084 207.32513 
L 115.23457 204.476623 
L 119.023927 200.564487 
L 122.055412 197.100586 
L 125.086898 193.275205 
L 128.118384 189.132907 
L 131.907741 183.547839 
L 136.454969 176.294866 
L 141.760069 167.259842 
L 147.065169 157.793335 
L 152.370269 147.861883 
L 157.675369 137.348907 
L 162.222597 127.736485 
L 167.527697 115.77436 
L 172.074925 105.077686 
L 181.169382 83.82913 
L 184.958739 75.56065 
L 188.748096 67.75881 
L 192.537454 60.588598 
L 196.326811 53.955767 
L 199.358296 49.108158 
L 202.389782 44.808359 
L 204.663396 41.875745 
L 206.93701 39.287577 
L 209.210625 37.091789 
L 211.484239 35.316087 
L 212.999982 34.345062 
L 215.273596 33.268595 
L 216.789339 32.814335 
L 219.062953 32.472892 
L 220.578696 32.466081 
L 222.85231 32.786224 
L 224.368053 33.197354 
L 226.641667 34.048977 
L 229.673153 35.487648 
L 234.220381 38.199048 
L 238.009738 40.757231 
L 241.041224 43.178845 
L 243.314838 45.277061 
L 245.588452 47.645227 
L 247.104195 49.424594 
L 250.135681 53.531708 
L 252.409295 57.139262 
L 254.682909 61.18753 
L 256.956523 65.618677 
L 259.230138 70.403567 
L 262.261623 77.262429 
L 265.293109 84.53695 
L 270.598209 97.892333 
L 276.66118 113.837608 
L 290.302865 149.558099 
L 294.092223 158.527033 
L 297.123708 165.096193 
L 300.155194 171.033028 
L 303.186679 176.321682 
L 306.218165 181.012998 
L 309.249651 185.122108 
L 312.281136 188.826063 
L 316.828365 193.928283 
L 322.891336 200.488643 
L 331.227922 210.048161 
L 335.77515 215.312831 
L 340.322379 220.285399 
L 344.111736 224.060159 
L 347.901093 227.465406 
L 350.932578 229.871139 
L 353.964064 232.003307 
L 356.99555 233.892965 
L 360.784907 235.898796 
L 364.574264 237.597426 
L 367.605749 238.779864 
L 372.152978 240.269789 
L 375.942335 241.345533 
L 379.731692 242.255421 
L 384.27892 243.12283 
L 388.826149 243.708216 
L 392.615506 243.966194 
L 397.162734 243.985827 
L 402.467834 243.692693 
L 413.078034 243.056055 
L 413.835905 243.044997 
L 413.835905 243.044997 
" style="fill:none;stroke:#0173b2;stroke-linecap:round;stroke-width:1.5;"/>
   </g>
   <g id="line2d_7">
    <path clip-path="url(#p3ef2a0857b)" d="M 26.563615 245.907539 
L 26.563615 242.459091 
" style="fill:none;stroke:#0173b2;stroke-linecap:round;stroke-width:1.5;"/>
   </g>
   <g id="line2d_8">
    <path clip-path="url(#p3ef2a0857b)" d="M 413.835905 245.90168 
L 413.835905 243.044997 
" style="fill:none;stroke:#0173b2;stroke-linecap:round;stroke-width:1.5;"/>
   </g>
   <g id="line2d_9">
    <defs>
     <path d="M 0 3 
C 0.795609 3 1.55874 2.683901 2.12132 2.12132 
C 2.683901 1.55874 3 0.795609 3 0 
C 3 -0.795609 2.683901 -1.55874 2.12132 -2.12132 
C 1.55874 -2.683901 0.795609 -3 0 -3 
C -0.795609 -3 -1.55874 -2.683901 -2.12132 -2.12132 
C -2.683901 -1.55874 -3 -0.795609 -3 0 
C -3 0.795609 -2.683901 1.55874 -2.12132 2.12132 
C -1.55874 2.683901 -0.795609 3 0 3 
z
" id="m03c8369d40" style="stroke:#000000;"/>
    </defs>
    <g clip-path="url(#p3ef2a0857b)">
     <use style="fill:#0173b2;stroke:#000000;" x="219.131936" xlink:href="#m03c8369d40" y="245.873396"/>
    </g>
   </g>
   <g id="patch_3">
    <path d="M 7.2 256.579832 
L 433.19952 256.579832 
" style="fill:none;stroke:#262626;stroke-linecap:square;stroke-linejoin:miter;stroke-width:1.25;"/>
   </g>
   <g id="text_7">
    <!-- P -->
    <g style="fill:#262626;" transform="translate(216.197573 15.789375)scale(0.12 -0.12)">
     <defs>
      <path d="M 494 0 
L 494 4581 
L 2222 4581 
Q 2678 4581 2919 4538 
Q 3256 4481 3484 4323 
Q 3713 4166 3852 3881 
Q 3991 3597 3991 3256 
Q 3991 2672 3619 2267 
Q 3247 1863 2275 1863 
L 1100 1863 
L 1100 0 
L 494 0 
z
M 1100 2403 
L 2284 2403 
Q 2872 2403 3119 2622 
Q 3366 2841 3366 3238 
Q 3366 3525 3220 3729 
Q 3075 3934 2838 4000 
Q 2684 4041 2272 4041 
L 1100 4041 
L 1100 2403 
z
" id="ArialMT-50" transform="scale(0.015625)"/>
     </defs>
     <use xlink:href="#ArialMT-50"/>
    </g>
   </g>
  </g>
 </g>
 <defs>
  <clipPath id="p3ef2a0857b">
   <rect height="234.790458" width="425.99952" x="7.2" y="21.789375"/>
  </clipPath>
 </defs>
</svg>
