<?xml version="1.0" encoding="utf-8" standalone="no"?>
<!DOCTYPE svg PUBLIC "-//W3C//DTD SVG 1.1//EN"
  "http://www.w3.org/Graphics/SVG/1.1/DTD/svg11.dtd">
<svg height="266.374219pt" version="1.1" viewBox="0 0 386.216094 266.374219" width="386.216094pt" xmlns="http://www.w3.org/2000/svg" xmlns:xlink="http://www.w3.org/1999/xlink">
 <metadata>
  <rdf:RDF xmlns:cc="http://creativecommons.org/ns#" xmlns:dc="http://purl.org/dc/elements/1.1/" xmlns:rdf="http://www.w3.org/1999/02/22-rdf-syntax-ns#">
   <cc:Work>
    <dc:type rdf:resource="http://purl.org/dc/dcmitype/StillImage"/>
    <dc:date>2021-09-14T17:21:33.153522</dc:date>
    <dc:format>image/svg+xml</dc:format>
    <dc:creator>
     <cc:Agent>
      <dc:title>Matplotlib v3.4.3, https://matplotlib.org/</dc:title>
     </cc:Agent>
    </dc:creator>
   </cc:Work>
  </rdf:RDF>
 </metadata>
 <defs>
  <style type="text/css">*{stroke-linecap:butt;stroke-linejoin:round;}</style>
 </defs>
 <g id="figure_1">
  <g id="patch_1">
   <path d="M 0 266.374219 
L 386.216094 266.374219 
L 386.216094 0 
L 0 0 
z
" style="fill:#ffffff;"/>
  </g>
  <g id="axes_1">
   <g id="patch_2">
    <path d="M 44.216094 224.64 
L 379.016094 224.64 
L 379.016094 7.2 
L 44.216094 7.2 
z
" style="fill:#ffffff;"/>
   </g>
   <g id="matplotlib.axis_1">
    <g id="xtick_1">
     <g id="line2d_1">
      <defs>
       <path d="M 0 0 
L 0 6 
" id="m23a11d8583" style="stroke:#262626;stroke-width:1.25;"/>
      </defs>
      <g>
       <use style="fill:#262626;stroke:#262626;stroke-width:1.25;" x="59.434276" xlink:href="#m23a11d8583" y="224.64"/>
      </g>
     </g>
     <g id="text_1">
      <!-- −1.00 -->
      <g style="fill:#262626;" transform="translate(45.518416 242.013594)scale(0.11 -0.11)">
       <defs>
        <path d="M 3381 1997 
L 356 1997 
L 356 2522 
L 3381 2522 
L 3381 1997 
z
" id="ArialMT-2212" transform="scale(0.015625)"/>
        <path d="M 2384 0 
L 1822 0 
L 1822 3584 
Q 1619 3391 1289 3197 
Q 959 3003 697 2906 
L 697 3450 
Q 1169 3672 1522 3987 
Q 1875 4303 2022 4600 
L 2384 4600 
L 2384 0 
z
" id="ArialMT-31" transform="scale(0.015625)"/>
        <path d="M 581 0 
L 581 641 
L 1222 641 
L 1222 0 
L 581 0 
z
" id="ArialMT-2e" transform="scale(0.015625)"/>
        <path d="M 266 2259 
Q 266 3072 433 3567 
Q 600 4063 929 4331 
Q 1259 4600 1759 4600 
Q 2128 4600 2406 4451 
Q 2684 4303 2865 4023 
Q 3047 3744 3150 3342 
Q 3253 2941 3253 2259 
Q 3253 1453 3087 958 
Q 2922 463 2592 192 
Q 2263 -78 1759 -78 
Q 1097 -78 719 397 
Q 266 969 266 2259 
z
M 844 2259 
Q 844 1131 1108 757 
Q 1372 384 1759 384 
Q 2147 384 2411 759 
Q 2675 1134 2675 2259 
Q 2675 3391 2411 3762 
Q 2147 4134 1753 4134 
Q 1366 4134 1134 3806 
Q 844 3388 844 2259 
z
" id="ArialMT-30" transform="scale(0.015625)"/>
       </defs>
       <use xlink:href="#ArialMT-2212"/>
       <use x="58.398438" xlink:href="#ArialMT-31"/>
       <use x="114.013672" xlink:href="#ArialMT-2e"/>
       <use x="141.796875" xlink:href="#ArialMT-30"/>
       <use x="197.412109" xlink:href="#ArialMT-30"/>
      </g>
     </g>
    </g>
    <g id="xtick_2">
     <g id="line2d_2">
      <g>
       <use style="fill:#262626;stroke:#262626;stroke-width:1.25;" x="97.47973" xlink:href="#m23a11d8583" y="224.64"/>
      </g>
     </g>
     <g id="text_2">
      <!-- −0.75 -->
      <g style="fill:#262626;" transform="translate(83.563871 242.013594)scale(0.11 -0.11)">
       <defs>
        <path d="M 303 3981 
L 303 4522 
L 3269 4522 
L 3269 4084 
Q 2831 3619 2401 2847 
Q 1972 2075 1738 1259 
Q 1569 684 1522 0 
L 944 0 
Q 953 541 1156 1306 
Q 1359 2072 1739 2783 
Q 2119 3494 2547 3981 
L 303 3981 
z
" id="ArialMT-37" transform="scale(0.015625)"/>
        <path d="M 266 1200 
L 856 1250 
Q 922 819 1161 601 
Q 1400 384 1738 384 
Q 2144 384 2425 690 
Q 2706 997 2706 1503 
Q 2706 1984 2436 2262 
Q 2166 2541 1728 2541 
Q 1456 2541 1237 2417 
Q 1019 2294 894 2097 
L 366 2166 
L 809 4519 
L 3088 4519 
L 3088 3981 
L 1259 3981 
L 1013 2750 
Q 1425 3038 1878 3038 
Q 2478 3038 2890 2622 
Q 3303 2206 3303 1553 
Q 3303 931 2941 478 
Q 2500 -78 1738 -78 
Q 1113 -78 717 272 
Q 322 622 266 1200 
z
" id="ArialMT-35" transform="scale(0.015625)"/>
       </defs>
       <use xlink:href="#ArialMT-2212"/>
       <use x="58.398438" xlink:href="#ArialMT-30"/>
       <use x="114.013672" xlink:href="#ArialMT-2e"/>
       <use x="141.796875" xlink:href="#ArialMT-37"/>
       <use x="197.412109" xlink:href="#ArialMT-35"/>
      </g>
     </g>
    </g>
    <g id="xtick_3">
     <g id="line2d_3">
      <g>
       <use style="fill:#262626;stroke:#262626;stroke-width:1.25;" x="135.525185" xlink:href="#m23a11d8583" y="224.64"/>
      </g>
     </g>
     <g id="text_3">
      <!-- −0.50 -->
      <g style="fill:#262626;" transform="translate(121.609325 242.013594)scale(0.11 -0.11)">
       <use xlink:href="#ArialMT-2212"/>
       <use x="58.398438" xlink:href="#ArialMT-30"/>
       <use x="114.013672" xlink:href="#ArialMT-2e"/>
       <use x="141.796875" xlink:href="#ArialMT-35"/>
       <use x="197.412109" xlink:href="#ArialMT-30"/>
      </g>
     </g>
    </g>
    <g id="xtick_4">
     <g id="line2d_4">
      <g>
       <use style="fill:#262626;stroke:#262626;stroke-width:1.25;" x="173.570639" xlink:href="#m23a11d8583" y="224.64"/>
      </g>
     </g>
     <g id="text_4">
      <!-- −0.25 -->
      <g style="fill:#262626;" transform="translate(159.65478 242.013594)scale(0.11 -0.11)">
       <defs>
        <path d="M 3222 541 
L 3222 0 
L 194 0 
Q 188 203 259 391 
Q 375 700 629 1000 
Q 884 1300 1366 1694 
Q 2113 2306 2375 2664 
Q 2638 3022 2638 3341 
Q 2638 3675 2398 3904 
Q 2159 4134 1775 4134 
Q 1369 4134 1125 3890 
Q 881 3647 878 3216 
L 300 3275 
Q 359 3922 746 4261 
Q 1134 4600 1788 4600 
Q 2447 4600 2831 4234 
Q 3216 3869 3216 3328 
Q 3216 3053 3103 2787 
Q 2991 2522 2730 2228 
Q 2469 1934 1863 1422 
Q 1356 997 1212 845 
Q 1069 694 975 541 
L 3222 541 
z
" id="ArialMT-32" transform="scale(0.015625)"/>
       </defs>
       <use xlink:href="#ArialMT-2212"/>
       <use x="58.398438" xlink:href="#ArialMT-30"/>
       <use x="114.013672" xlink:href="#ArialMT-2e"/>
       <use x="141.796875" xlink:href="#ArialMT-32"/>
       <use x="197.412109" xlink:href="#ArialMT-35"/>
      </g>
     </g>
    </g>
    <g id="xtick_5">
     <g id="line2d_5">
      <g>
       <use style="fill:#262626;stroke:#262626;stroke-width:1.25;" x="211.616094" xlink:href="#m23a11d8583" y="224.64"/>
      </g>
     </g>
     <g id="text_5">
      <!-- 0.00 -->
      <g style="fill:#262626;" transform="translate(200.912578 242.013594)scale(0.11 -0.11)">
       <use xlink:href="#ArialMT-30"/>
       <use x="55.615234" xlink:href="#ArialMT-2e"/>
       <use x="83.398438" xlink:href="#ArialMT-30"/>
       <use x="139.013672" xlink:href="#ArialMT-30"/>
      </g>
     </g>
    </g>
    <g id="xtick_6">
     <g id="line2d_6">
      <g>
       <use style="fill:#262626;stroke:#262626;stroke-width:1.25;" x="249.661548" xlink:href="#m23a11d8583" y="224.64"/>
      </g>
     </g>
     <g id="text_6">
      <!-- 0.25 -->
      <g style="fill:#262626;" transform="translate(238.958033 242.013594)scale(0.11 -0.11)">
       <use xlink:href="#ArialMT-30"/>
       <use x="55.615234" xlink:href="#ArialMT-2e"/>
       <use x="83.398438" xlink:href="#ArialMT-32"/>
       <use x="139.013672" xlink:href="#ArialMT-35"/>
      </g>
     </g>
    </g>
    <g id="xtick_7">
     <g id="line2d_7">
      <g>
       <use style="fill:#262626;stroke:#262626;stroke-width:1.25;" x="287.707003" xlink:href="#m23a11d8583" y="224.64"/>
      </g>
     </g>
     <g id="text_7">
      <!-- 0.50 -->
      <g style="fill:#262626;" transform="translate(277.003487 242.013594)scale(0.11 -0.11)">
       <use xlink:href="#ArialMT-30"/>
       <use x="55.615234" xlink:href="#ArialMT-2e"/>
       <use x="83.398438" xlink:href="#ArialMT-35"/>
       <use x="139.013672" xlink:href="#ArialMT-30"/>
      </g>
     </g>
    </g>
    <g id="xtick_8">
     <g id="line2d_8">
      <g>
       <use style="fill:#262626;stroke:#262626;stroke-width:1.25;" x="325.752457" xlink:href="#m23a11d8583" y="224.64"/>
      </g>
     </g>
     <g id="text_8">
      <!-- 0.75 -->
      <g style="fill:#262626;" transform="translate(315.048942 242.013594)scale(0.11 -0.11)">
       <use xlink:href="#ArialMT-30"/>
       <use x="55.615234" xlink:href="#ArialMT-2e"/>
       <use x="83.398438" xlink:href="#ArialMT-37"/>
       <use x="139.013672" xlink:href="#ArialMT-35"/>
      </g>
     </g>
    </g>
    <g id="xtick_9">
     <g id="line2d_9">
      <g>
       <use style="fill:#262626;stroke:#262626;stroke-width:1.25;" x="363.797912" xlink:href="#m23a11d8583" y="224.64"/>
      </g>
     </g>
     <g id="text_9">
      <!-- 1.00 -->
      <g style="fill:#262626;" transform="translate(353.094396 242.013594)scale(0.11 -0.11)">
       <use xlink:href="#ArialMT-31"/>
       <use x="55.615234" xlink:href="#ArialMT-2e"/>
       <use x="83.398438" xlink:href="#ArialMT-30"/>
       <use x="139.013672" xlink:href="#ArialMT-30"/>
      </g>
     </g>
    </g>
    <g id="text_10">
     <!-- $x$ -->
     <g style="fill:#262626;" transform="translate(208.016094 256.789219)scale(0.12 -0.12)">
      <defs>
       <path d="M 3841 3500 
L 2234 1784 
L 3219 0 
L 2559 0 
L 1819 1388 
L 531 0 
L -166 0 
L 1556 1844 
L 641 3500 
L 1300 3500 
L 1972 2234 
L 3144 3500 
L 3841 3500 
z
" id="DejaVuSans-Oblique-78" transform="scale(0.015625)"/>
      </defs>
      <use transform="translate(0 0.3125)" xlink:href="#DejaVuSans-Oblique-78"/>
     </g>
    </g>
   </g>
   <g id="matplotlib.axis_2">
    <g id="ytick_1">
     <g id="line2d_10">
      <defs>
       <path d="M 0 0 
L -6 0 
" id="m7d3b097df1" style="stroke:#262626;stroke-width:1.25;"/>
      </defs>
      <g>
       <use style="fill:#262626;stroke:#262626;stroke-width:1.25;" x="44.216094" xlink:href="#m7d3b097df1" y="216.60558"/>
      </g>
     </g>
     <g id="text_11">
      <!-- −6 -->
      <g style="fill:#262626;" transform="translate(22.174375 220.542377)scale(0.11 -0.11)">
       <defs>
        <path d="M 3184 3459 
L 2625 3416 
Q 2550 3747 2413 3897 
Q 2184 4138 1850 4138 
Q 1581 4138 1378 3988 
Q 1113 3794 959 3422 
Q 806 3050 800 2363 
Q 1003 2672 1297 2822 
Q 1591 2972 1913 2972 
Q 2475 2972 2870 2558 
Q 3266 2144 3266 1488 
Q 3266 1056 3080 686 
Q 2894 316 2569 119 
Q 2244 -78 1831 -78 
Q 1128 -78 684 439 
Q 241 956 241 2144 
Q 241 3472 731 4075 
Q 1159 4600 1884 4600 
Q 2425 4600 2770 4297 
Q 3116 3994 3184 3459 
z
M 888 1484 
Q 888 1194 1011 928 
Q 1134 663 1356 523 
Q 1578 384 1822 384 
Q 2178 384 2434 671 
Q 2691 959 2691 1453 
Q 2691 1928 2437 2201 
Q 2184 2475 1800 2475 
Q 1419 2475 1153 2201 
Q 888 1928 888 1484 
z
" id="ArialMT-36" transform="scale(0.015625)"/>
       </defs>
       <use xlink:href="#ArialMT-2212"/>
       <use x="58.398438" xlink:href="#ArialMT-36"/>
      </g>
     </g>
    </g>
    <g id="ytick_2">
     <g id="line2d_11">
      <g>
       <use style="fill:#262626;stroke:#262626;stroke-width:1.25;" x="44.216094" xlink:href="#m7d3b097df1" y="173.923461"/>
      </g>
     </g>
     <g id="text_12">
      <!-- −4 -->
      <g style="fill:#262626;" transform="translate(22.174375 177.860258)scale(0.11 -0.11)">
       <defs>
        <path d="M 2069 0 
L 2069 1097 
L 81 1097 
L 81 1613 
L 2172 4581 
L 2631 4581 
L 2631 1613 
L 3250 1613 
L 3250 1097 
L 2631 1097 
L 2631 0 
L 2069 0 
z
M 2069 1613 
L 2069 3678 
L 634 1613 
L 2069 1613 
z
" id="ArialMT-34" transform="scale(0.015625)"/>
       </defs>
       <use xlink:href="#ArialMT-2212"/>
       <use x="58.398438" xlink:href="#ArialMT-34"/>
      </g>
     </g>
    </g>
    <g id="ytick_3">
     <g id="line2d_12">
      <g>
       <use style="fill:#262626;stroke:#262626;stroke-width:1.25;" x="44.216094" xlink:href="#m7d3b097df1" y="131.241342"/>
      </g>
     </g>
     <g id="text_13">
      <!-- −2 -->
      <g style="fill:#262626;" transform="translate(22.174375 135.178139)scale(0.11 -0.11)">
       <use xlink:href="#ArialMT-2212"/>
       <use x="58.398438" xlink:href="#ArialMT-32"/>
      </g>
     </g>
    </g>
    <g id="ytick_4">
     <g id="line2d_13">
      <g>
       <use style="fill:#262626;stroke:#262626;stroke-width:1.25;" x="44.216094" xlink:href="#m7d3b097df1" y="88.559222"/>
      </g>
     </g>
     <g id="text_14">
      <!-- 0 -->
      <g style="fill:#262626;" transform="translate(28.599063 92.496019)scale(0.11 -0.11)">
       <use xlink:href="#ArialMT-30"/>
      </g>
     </g>
    </g>
    <g id="ytick_5">
     <g id="line2d_14">
      <g>
       <use style="fill:#262626;stroke:#262626;stroke-width:1.25;" x="44.216094" xlink:href="#m7d3b097df1" y="45.877103"/>
      </g>
     </g>
     <g id="text_15">
      <!-- 2 -->
      <g style="fill:#262626;" transform="translate(28.599063 49.8139)scale(0.11 -0.11)">
       <use xlink:href="#ArialMT-32"/>
      </g>
     </g>
    </g>
    <g id="text_16">
     <!-- $y_\mathrm{obs}$ -->
     <g style="fill:#262626;" transform="translate(15.654375 127.08)rotate(-90)scale(0.12 -0.12)">
      <defs>
       <path d="M 1588 -325 
Q 1188 -997 936 -1164 
Q 684 -1331 294 -1331 
L -159 -1331 
L -63 -850 
L 269 -850 
Q 509 -850 678 -719 
Q 847 -588 1056 -206 
L 1234 128 
L 459 3500 
L 1069 3500 
L 1650 819 
L 3256 3500 
L 3859 3500 
L 1588 -325 
z
" id="DejaVuSans-Oblique-79" transform="scale(0.015625)"/>
       <path d="M 1959 3097 
Q 1497 3097 1228 2736 
Q 959 2375 959 1747 
Q 959 1119 1226 758 
Q 1494 397 1959 397 
Q 2419 397 2687 759 
Q 2956 1122 2956 1747 
Q 2956 2369 2687 2733 
Q 2419 3097 1959 3097 
z
M 1959 3584 
Q 2709 3584 3137 3096 
Q 3566 2609 3566 1747 
Q 3566 888 3137 398 
Q 2709 -91 1959 -91 
Q 1206 -91 779 398 
Q 353 888 353 1747 
Q 353 2609 779 3096 
Q 1206 3584 1959 3584 
z
" id="DejaVuSans-6f" transform="scale(0.015625)"/>
       <path d="M 3116 1747 
Q 3116 2381 2855 2742 
Q 2594 3103 2138 3103 
Q 1681 3103 1420 2742 
Q 1159 2381 1159 1747 
Q 1159 1113 1420 752 
Q 1681 391 2138 391 
Q 2594 391 2855 752 
Q 3116 1113 3116 1747 
z
M 1159 2969 
Q 1341 3281 1617 3432 
Q 1894 3584 2278 3584 
Q 2916 3584 3314 3078 
Q 3713 2572 3713 1747 
Q 3713 922 3314 415 
Q 2916 -91 2278 -91 
Q 1894 -91 1617 61 
Q 1341 213 1159 525 
L 1159 0 
L 581 0 
L 581 4863 
L 1159 4863 
L 1159 2969 
z
" id="DejaVuSans-62" transform="scale(0.015625)"/>
       <path d="M 2834 3397 
L 2834 2853 
Q 2591 2978 2328 3040 
Q 2066 3103 1784 3103 
Q 1356 3103 1142 2972 
Q 928 2841 928 2578 
Q 928 2378 1081 2264 
Q 1234 2150 1697 2047 
L 1894 2003 
Q 2506 1872 2764 1633 
Q 3022 1394 3022 966 
Q 3022 478 2636 193 
Q 2250 -91 1575 -91 
Q 1294 -91 989 -36 
Q 684 19 347 128 
L 347 722 
Q 666 556 975 473 
Q 1284 391 1588 391 
Q 1994 391 2212 530 
Q 2431 669 2431 922 
Q 2431 1156 2273 1281 
Q 2116 1406 1581 1522 
L 1381 1569 
Q 847 1681 609 1914 
Q 372 2147 372 2553 
Q 372 3047 722 3315 
Q 1072 3584 1716 3584 
Q 2034 3584 2315 3537 
Q 2597 3491 2834 3397 
z
" id="DejaVuSans-73" transform="scale(0.015625)"/>
      </defs>
      <use transform="translate(0 0.3125)" xlink:href="#DejaVuSans-Oblique-79"/>
      <use transform="translate(59.179688 -16.09375)scale(0.7)" xlink:href="#DejaVuSans-6f"/>
      <use transform="translate(102.006836 -16.09375)scale(0.7)" xlink:href="#DejaVuSans-62"/>
      <use transform="translate(146.44043 -16.09375)scale(0.7)" xlink:href="#DejaVuSans-73"/>
     </g>
    </g>
   </g>
   <g id="LineCollection_1">
    <path clip-path="url(#pf921a74b2c)" d="M 59.434276 196.483933 
L 59.434276 153.801814 
" style="fill:none;stroke:#0173b2;stroke-width:1.5;"/>
    <path clip-path="url(#pf921a74b2c)" d="M 72.116094 183.166219 
L 72.116094 140.4841 
" style="fill:none;stroke:#0173b2;stroke-width:1.5;"/>
    <path clip-path="url(#pf921a74b2c)" d="M 84.797912 214.756364 
L 84.797912 172.074244 
" style="fill:none;stroke:#0173b2;stroke-width:1.5;"/>
    <path clip-path="url(#pf921a74b2c)" d="M 97.47973 145.628499 
L 97.47973 102.94638 
" style="fill:none;stroke:#0173b2;stroke-width:1.5;"/>
    <path clip-path="url(#pf921a74b2c)" d="M 110.161548 182.37322 
L 110.161548 139.691101 
" style="fill:none;stroke:#0173b2;stroke-width:1.5;"/>
    <path clip-path="url(#pf921a74b2c)" d="M 122.843366 127.658783 
L 122.843366 84.976664 
" style="fill:none;stroke:#0173b2;stroke-width:1.5;"/>
    <path clip-path="url(#pf921a74b2c)" d="M 135.525185 170.511884 
L 135.525185 127.829764 
" style="fill:none;stroke:#0173b2;stroke-width:1.5;"/>
    <path clip-path="url(#pf921a74b2c)" d="M 148.207003 159.124225 
L 148.207003 116.442106 
" style="fill:none;stroke:#0173b2;stroke-width:1.5;"/>
    <path clip-path="url(#pf921a74b2c)" d="M 160.888821 130.896264 
L 160.888821 88.214145 
" style="fill:none;stroke:#0173b2;stroke-width:1.5;"/>
    <path clip-path="url(#pf921a74b2c)" d="M 173.570639 164.086505 
L 173.570639 121.404386 
" style="fill:none;stroke:#0173b2;stroke-width:1.5;"/>
    <path clip-path="url(#pf921a74b2c)" d="M 186.252457 189.611238 
L 186.252457 146.929119 
" style="fill:none;stroke:#0173b2;stroke-width:1.5;"/>
    <path clip-path="url(#pf921a74b2c)" d="M 198.934276 166.666542 
L 198.934276 123.984423 
" style="fill:none;stroke:#0173b2;stroke-width:1.5;"/>
    <path clip-path="url(#pf921a74b2c)" d="M 211.616094 130.231476 
L 211.616094 87.549357 
" style="fill:none;stroke:#0173b2;stroke-width:1.5;"/>
    <path clip-path="url(#pf921a74b2c)" d="M 224.297912 126.444796 
L 224.297912 83.762677 
" style="fill:none;stroke:#0173b2;stroke-width:1.5;"/>
    <path clip-path="url(#pf921a74b2c)" d="M 236.97973 138.861805 
L 236.97973 96.179686 
" style="fill:none;stroke:#0173b2;stroke-width:1.5;"/>
    <path clip-path="url(#pf921a74b2c)" d="M 249.661548 143.398244 
L 249.661548 100.716125 
" style="fill:none;stroke:#0173b2;stroke-width:1.5;"/>
    <path clip-path="url(#pf921a74b2c)" d="M 262.343366 134.039948 
L 262.343366 91.357829 
" style="fill:none;stroke:#0173b2;stroke-width:1.5;"/>
    <path clip-path="url(#pf921a74b2c)" d="M 275.025185 79.640815 
L 275.025185 36.958695 
" style="fill:none;stroke:#0173b2;stroke-width:1.5;"/>
    <path clip-path="url(#pf921a74b2c)" d="M 287.707003 136.776314 
L 287.707003 94.094194 
" style="fill:none;stroke:#0173b2;stroke-width:1.5;"/>
    <path clip-path="url(#pf921a74b2c)" d="M 300.388821 76.394125 
L 300.388821 33.712006 
" style="fill:none;stroke:#0173b2;stroke-width:1.5;"/>
    <path clip-path="url(#pf921a74b2c)" d="M 313.070639 129.036434 
L 313.070639 86.354315 
" style="fill:none;stroke:#0173b2;stroke-width:1.5;"/>
    <path clip-path="url(#pf921a74b2c)" d="M 325.752457 118.645016 
L 325.752457 75.962897 
" style="fill:none;stroke:#0173b2;stroke-width:1.5;"/>
    <path clip-path="url(#pf921a74b2c)" d="M 338.434276 59.765756 
L 338.434276 17.083636 
" style="fill:none;stroke:#0173b2;stroke-width:1.5;"/>
    <path clip-path="url(#pf921a74b2c)" d="M 351.116094 102.43283 
L 351.116094 59.750711 
" style="fill:none;stroke:#0173b2;stroke-width:1.5;"/>
    <path clip-path="url(#pf921a74b2c)" d="M 363.797912 70.035535 
L 363.797912 27.353416 
" style="fill:none;stroke:#0173b2;stroke-width:1.5;"/>
   </g>
   <g id="line2d_15">
    <defs>
     <path d="M 0 1.5 
C 0.397805 1.5 0.77937 1.341951 1.06066 1.06066 
C 1.341951 0.77937 1.5 0.397805 1.5 0 
C 1.5 -0.397805 1.341951 -0.77937 1.06066 -1.06066 
C 0.77937 -1.341951 0.397805 -1.5 0 -1.5 
C -0.397805 -1.5 -0.77937 -1.341951 -1.06066 -1.06066 
C -1.341951 -0.77937 -1.5 -0.397805 -1.5 0 
C -1.5 0.397805 -1.341951 0.77937 -1.06066 1.06066 
C -0.77937 1.341951 -0.397805 1.5 0 1.5 
z
" id="mbc6edb623e" style="stroke:#0173b2;"/>
    </defs>
    <g clip-path="url(#pf921a74b2c)">
     <use style="fill:#0173b2;stroke:#0173b2;" x="59.434276" xlink:href="#mbc6edb623e" y="175.142874"/>
     <use style="fill:#0173b2;stroke:#0173b2;" x="72.116094" xlink:href="#mbc6edb623e" y="161.82516"/>
     <use style="fill:#0173b2;stroke:#0173b2;" x="84.797912" xlink:href="#mbc6edb623e" y="193.415304"/>
     <use style="fill:#0173b2;stroke:#0173b2;" x="97.47973" xlink:href="#mbc6edb623e" y="124.287439"/>
     <use style="fill:#0173b2;stroke:#0173b2;" x="110.161548" xlink:href="#mbc6edb623e" y="161.032161"/>
     <use style="fill:#0173b2;stroke:#0173b2;" x="122.843366" xlink:href="#mbc6edb623e" y="106.317723"/>
     <use style="fill:#0173b2;stroke:#0173b2;" x="135.525185" xlink:href="#mbc6edb623e" y="149.170824"/>
     <use style="fill:#0173b2;stroke:#0173b2;" x="148.207003" xlink:href="#mbc6edb623e" y="137.783166"/>
     <use style="fill:#0173b2;stroke:#0173b2;" x="160.888821" xlink:href="#mbc6edb623e" y="109.555204"/>
     <use style="fill:#0173b2;stroke:#0173b2;" x="173.570639" xlink:href="#mbc6edb623e" y="142.745445"/>
     <use style="fill:#0173b2;stroke:#0173b2;" x="186.252457" xlink:href="#mbc6edb623e" y="168.270179"/>
     <use style="fill:#0173b2;stroke:#0173b2;" x="198.934276" xlink:href="#mbc6edb623e" y="145.325483"/>
     <use style="fill:#0173b2;stroke:#0173b2;" x="211.616094" xlink:href="#mbc6edb623e" y="108.890416"/>
     <use style="fill:#0173b2;stroke:#0173b2;" x="224.297912" xlink:href="#mbc6edb623e" y="105.103736"/>
     <use style="fill:#0173b2;stroke:#0173b2;" x="236.97973" xlink:href="#mbc6edb623e" y="117.520745"/>
     <use style="fill:#0173b2;stroke:#0173b2;" x="249.661548" xlink:href="#mbc6edb623e" y="122.057185"/>
     <use style="fill:#0173b2;stroke:#0173b2;" x="262.343366" xlink:href="#mbc6edb623e" y="112.698888"/>
     <use style="fill:#0173b2;stroke:#0173b2;" x="275.025185" xlink:href="#mbc6edb623e" y="58.299755"/>
     <use style="fill:#0173b2;stroke:#0173b2;" x="287.707003" xlink:href="#mbc6edb623e" y="115.435254"/>
     <use style="fill:#0173b2;stroke:#0173b2;" x="300.388821" xlink:href="#mbc6edb623e" y="55.053066"/>
     <use style="fill:#0173b2;stroke:#0173b2;" x="313.070639" xlink:href="#mbc6edb623e" y="107.695375"/>
     <use style="fill:#0173b2;stroke:#0173b2;" x="325.752457" xlink:href="#mbc6edb623e" y="97.303956"/>
     <use style="fill:#0173b2;stroke:#0173b2;" x="338.434276" xlink:href="#mbc6edb623e" y="38.424696"/>
     <use style="fill:#0173b2;stroke:#0173b2;" x="351.116094" xlink:href="#mbc6edb623e" y="81.09177"/>
     <use style="fill:#0173b2;stroke:#0173b2;" x="363.797912" xlink:href="#mbc6edb623e" y="48.694476"/>
    </g>
   </g>
   <g id="patch_3">
    <path d="M 44.216094 224.64 
L 44.216094 7.2 
" style="fill:none;stroke:#262626;stroke-linecap:square;stroke-linejoin:miter;stroke-width:1.25;"/>
   </g>
   <g id="patch_4">
    <path d="M 379.016094 224.64 
L 379.016094 7.2 
" style="fill:none;stroke:#262626;stroke-linecap:square;stroke-linejoin:miter;stroke-width:1.25;"/>
   </g>
   <g id="patch_5">
    <path d="M 44.216094 224.64 
L 379.016094 224.64 
" style="fill:none;stroke:#262626;stroke-linecap:square;stroke-linejoin:miter;stroke-width:1.25;"/>
   </g>
   <g id="patch_6">
    <path d="M 44.216094 7.2 
L 379.016094 7.2 
" style="fill:none;stroke:#262626;stroke-linecap:square;stroke-linejoin:miter;stroke-width:1.25;"/>
   </g>
  </g>
 </g>
 <defs>
  <clipPath id="pf921a74b2c">
   <rect height="217.44" width="334.8" x="44.216094" y="7.2"/>
  </clipPath>
 </defs>
</svg>
