<?xml version="1.0" encoding="utf-8"?>
<svg xmlns="http://www.w3.org/2000/svg" xmlns:xlink="http://www.w3.org/1999/xlink" width="600" height="400" viewBox="0 0 2400 1600">
<defs>
  <clipPath id="clip510">
    <rect x="0" y="0" width="2400" height="1600"/>
  </clipPath>
</defs>
<path clip-path="url(#clip510)" d="
M0 1600 L2400 1600 L2400 0 L0 0  Z
  " fill="#ffffff" fill-rule="evenodd" fill-opacity="1"/>
<defs>
  <clipPath id="clip511">
    <rect x="480" y="0" width="1681" height="1600"/>
  </clipPath>
</defs>
<defs>
  <clipPath id="clip512">
    <rect x="156" y="47" width="2198" height="1440"/>
  </clipPath>
</defs>
<path clip-path="url(#clip510)" d="
M156.112 1451.45 L2352.76 1451.45 L2352.76 47.2441 L156.112 47.2441  Z
  " fill="#ffffff" fill-rule="evenodd" fill-opacity="1"/>
<defs>
  <clipPath id="clip513">
    <rect x="156" y="47" width="2198" height="1405"/>
  </clipPath>
</defs>
<polyline clip-path="url(#clip513)" style="stroke:#000000; stroke-linecap:butt; stroke-linejoin:round; stroke-width:2; stroke-opacity:0.1; fill:none" points="
  239.038,1451.45 239.038,47.2441 
  "/>
<polyline clip-path="url(#clip513)" style="stroke:#000000; stroke-linecap:butt; stroke-linejoin:round; stroke-width:2; stroke-opacity:0.1; fill:none" points="
  695.81,1451.45 695.81,47.2441 
  "/>
<polyline clip-path="url(#clip513)" style="stroke:#000000; stroke-linecap:butt; stroke-linejoin:round; stroke-width:2; stroke-opacity:0.1; fill:none" points="
  1152.58,1451.45 1152.58,47.2441 
  "/>
<polyline clip-path="url(#clip513)" style="stroke:#000000; stroke-linecap:butt; stroke-linejoin:round; stroke-width:2; stroke-opacity:0.1; fill:none" points="
  1609.35,1451.45 1609.35,47.2441 
  "/>
<polyline clip-path="url(#clip513)" style="stroke:#000000; stroke-linecap:butt; stroke-linejoin:round; stroke-width:2; stroke-opacity:0.1; fill:none" points="
  2066.13,1451.45 2066.13,47.2441 
  "/>
<polyline clip-path="url(#clip510)" style="stroke:#000000; stroke-linecap:butt; stroke-linejoin:round; stroke-width:4; stroke-opacity:1; fill:none" points="
  156.112,1451.45 2352.76,1451.45 
  "/>
<polyline clip-path="url(#clip510)" style="stroke:#000000; stroke-linecap:butt; stroke-linejoin:round; stroke-width:4; stroke-opacity:1; fill:none" points="
  239.038,1451.45 239.038,1432.55 
  "/>
<polyline clip-path="url(#clip510)" style="stroke:#000000; stroke-linecap:butt; stroke-linejoin:round; stroke-width:4; stroke-opacity:1; fill:none" points="
  695.81,1451.45 695.81,1432.55 
  "/>
<polyline clip-path="url(#clip510)" style="stroke:#000000; stroke-linecap:butt; stroke-linejoin:round; stroke-width:4; stroke-opacity:1; fill:none" points="
  1152.58,1451.45 1152.58,1432.55 
  "/>
<polyline clip-path="url(#clip510)" style="stroke:#000000; stroke-linecap:butt; stroke-linejoin:round; stroke-width:4; stroke-opacity:1; fill:none" points="
  1609.35,1451.45 1609.35,1432.55 
  "/>
<polyline clip-path="url(#clip510)" style="stroke:#000000; stroke-linecap:butt; stroke-linejoin:round; stroke-width:4; stroke-opacity:1; fill:none" points="
  2066.13,1451.45 2066.13,1432.55 
  "/>
<path clip-path="url(#clip510)" d="M239.038 1480.64 Q235.427 1480.64 233.599 1484.21 Q231.793 1487.75 231.793 1494.88 Q231.793 1501.98 233.599 1505.55 Q235.427 1509.09 239.038 1509.09 Q242.673 1509.09 244.478 1505.55 Q246.307 1501.98 246.307 1494.88 Q246.307 1487.75 244.478 1484.21 Q242.673 1480.64 239.038 1480.64 M239.038 1476.94 Q244.849 1476.94 247.904 1481.54 Q250.983 1486.13 250.983 1494.88 Q250.983 1503.6 247.904 1508.21 Q244.849 1512.79 239.038 1512.79 Q233.228 1512.79 230.15 1508.21 Q227.094 1503.6 227.094 1494.88 Q227.094 1486.13 230.15 1481.54 Q233.228 1476.94 239.038 1476.94 Z" fill="#000000" fill-rule="evenodd" fill-opacity="1" /><path clip-path="url(#clip510)" d="M686.192 1508.19 L693.831 1508.19 L693.831 1481.82 L685.521 1483.49 L685.521 1479.23 L693.785 1477.56 L698.461 1477.56 L698.461 1508.19 L706.1 1508.19 L706.1 1512.12 L686.192 1512.12 L686.192 1508.19 Z" fill="#000000" fill-rule="evenodd" fill-opacity="1" /><path clip-path="url(#clip510)" d="M1147.23 1508.19 L1163.55 1508.19 L1163.55 1512.12 L1141.61 1512.12 L1141.61 1508.19 Q1144.27 1505.43 1148.86 1500.8 Q1153.46 1496.15 1154.64 1494.81 Q1156.89 1492.28 1157.77 1490.55 Q1158.67 1488.79 1158.67 1487.1 Q1158.67 1484.34 1156.73 1482.61 Q1154.8 1480.87 1151.7 1480.87 Q1149.5 1480.87 1147.05 1481.64 Q1144.62 1482.4 1141.84 1483.95 L1141.84 1479.23 Q1144.67 1478.09 1147.12 1477.52 Q1149.57 1476.94 1151.61 1476.94 Q1156.98 1476.94 1160.17 1479.62 Q1163.37 1482.31 1163.37 1486.8 Q1163.37 1488.93 1162.56 1490.85 Q1161.77 1492.75 1159.67 1495.34 Q1159.09 1496.01 1155.98 1499.23 Q1152.88 1502.42 1147.23 1508.19 Z" fill="#000000" fill-rule="evenodd" fill-opacity="1" /><path clip-path="url(#clip510)" d="M1613.6 1493.49 Q1616.96 1494.21 1618.83 1496.47 Q1620.73 1498.74 1620.73 1502.08 Q1620.73 1507.19 1617.21 1509.99 Q1613.69 1512.79 1607.21 1512.79 Q1605.04 1512.79 1602.72 1512.35 Q1600.43 1511.94 1597.98 1511.08 L1597.98 1506.57 Q1599.92 1507.7 1602.24 1508.28 Q1604.55 1508.86 1607.07 1508.86 Q1611.47 1508.86 1613.76 1507.12 Q1616.08 1505.39 1616.08 1502.08 Q1616.08 1499.02 1613.93 1497.31 Q1611.8 1495.57 1607.98 1495.57 L1603.95 1495.57 L1603.95 1491.73 L1608.16 1491.73 Q1611.61 1491.73 1613.44 1490.36 Q1615.27 1488.97 1615.27 1486.38 Q1615.27 1483.72 1613.37 1482.31 Q1611.5 1480.87 1607.98 1480.87 Q1606.06 1480.87 1603.86 1481.29 Q1601.66 1481.71 1599.02 1482.58 L1599.02 1478.42 Q1601.68 1477.68 1604 1477.31 Q1606.33 1476.94 1608.39 1476.94 Q1613.72 1476.94 1616.82 1479.37 Q1619.92 1481.77 1619.92 1485.9 Q1619.92 1488.77 1618.28 1490.76 Q1616.63 1492.72 1613.6 1493.49 Z" fill="#000000" fill-rule="evenodd" fill-opacity="1" /><path clip-path="url(#clip510)" d="M2069.14 1481.64 L2057.33 1500.08 L2069.14 1500.08 L2069.14 1481.64 M2067.91 1477.56 L2073.79 1477.56 L2073.79 1500.08 L2078.72 1500.08 L2078.72 1503.97 L2073.79 1503.97 L2073.79 1512.12 L2069.14 1512.12 L2069.14 1503.97 L2053.53 1503.97 L2053.53 1499.46 L2067.91 1477.56 Z" fill="#000000" fill-rule="evenodd" fill-opacity="1" /><path clip-path="url(#clip510)" d="M1269.36 1537.9 Q1269.36 1538.19 1269.1 1539.19 Q1268.87 1540.16 1268.13 1542.06 Q1267.42 1543.92 1266.33 1546.02 Q1265.27 1548.08 1263.3 1550.69 Q1261.34 1553.3 1258.89 1555.58 Q1254.28 1559.9 1249.36 1562.22 Q1244.46 1564.54 1240.27 1565.28 L1239.34 1565.28 Q1238.31 1565.28 1238.31 1564.47 L1239.02 1561.51 L1243.04 1545.37 Q1244.3 1540.45 1244.3 1540.03 Q1244.3 1539.64 1244.14 1539.45 Q1244.01 1539.22 1243.24 1539.06 Q1242.5 1538.9 1241.01 1538.9 Q1240.4 1538.9 1240.11 1538.87 Q1239.86 1538.84 1239.63 1538.68 Q1239.4 1538.48 1239.4 1538.1 Q1239.4 1537.55 1239.63 1537.26 Q1239.89 1536.94 1240.08 1536.87 Q1240.27 1536.81 1240.66 1536.78 Q1241.21 1536.74 1243.04 1536.58 Q1244.88 1536.39 1246.46 1536.26 Q1248.04 1536.13 1248.71 1536.13 Q1249.1 1536.13 1249.32 1536.32 Q1249.55 1536.49 1249.55 1536.68 L1249.58 1536.84 L1243.11 1563.09 Q1245.49 1562.31 1247.84 1561.03 Q1250.23 1559.74 1252.8 1557.61 Q1255.38 1555.45 1257.57 1552.78 Q1259.76 1550.11 1261.69 1546.37 Q1263.66 1542.6 1264.88 1538.29 Q1265.1 1537.42 1265.65 1536.9 Q1266.23 1536.39 1266.65 1536.26 Q1267.07 1536.13 1267.46 1536.13 Q1268.33 1536.13 1268.84 1536.61 Q1269.36 1537.07 1269.36 1537.9 Z" fill="#000000" fill-rule="evenodd" fill-opacity="1" /><polyline clip-path="url(#clip513)" style="stroke:#000000; stroke-linecap:butt; stroke-linejoin:round; stroke-width:2; stroke-opacity:0.1; fill:none" points="
  156.112,1411.71 2352.76,1411.71 
  "/>
<polyline clip-path="url(#clip513)" style="stroke:#000000; stroke-linecap:butt; stroke-linejoin:round; stroke-width:2; stroke-opacity:0.1; fill:none" points="
  156.112,1083.81 2352.76,1083.81 
  "/>
<polyline clip-path="url(#clip513)" style="stroke:#000000; stroke-linecap:butt; stroke-linejoin:round; stroke-width:2; stroke-opacity:0.1; fill:none" points="
  156.112,755.908 2352.76,755.908 
  "/>
<polyline clip-path="url(#clip513)" style="stroke:#000000; stroke-linecap:butt; stroke-linejoin:round; stroke-width:2; stroke-opacity:0.1; fill:none" points="
  156.112,428.008 2352.76,428.008 
  "/>
<polyline clip-path="url(#clip513)" style="stroke:#000000; stroke-linecap:butt; stroke-linejoin:round; stroke-width:2; stroke-opacity:0.1; fill:none" points="
  156.112,100.108 2352.76,100.108 
  "/>
<polyline clip-path="url(#clip510)" style="stroke:#000000; stroke-linecap:butt; stroke-linejoin:round; stroke-width:4; stroke-opacity:1; fill:none" points="
  156.112,1451.45 156.112,47.2441 
  "/>
<polyline clip-path="url(#clip510)" style="stroke:#000000; stroke-linecap:butt; stroke-linejoin:round; stroke-width:4; stroke-opacity:1; fill:none" points="
  156.112,1411.71 175.01,1411.71 
  "/>
<polyline clip-path="url(#clip510)" style="stroke:#000000; stroke-linecap:butt; stroke-linejoin:round; stroke-width:4; stroke-opacity:1; fill:none" points="
  156.112,1083.81 175.01,1083.81 
  "/>
<polyline clip-path="url(#clip510)" style="stroke:#000000; stroke-linecap:butt; stroke-linejoin:round; stroke-width:4; stroke-opacity:1; fill:none" points="
  156.112,755.908 175.01,755.908 
  "/>
<polyline clip-path="url(#clip510)" style="stroke:#000000; stroke-linecap:butt; stroke-linejoin:round; stroke-width:4; stroke-opacity:1; fill:none" points="
  156.112,428.008 175.01,428.008 
  "/>
<polyline clip-path="url(#clip510)" style="stroke:#000000; stroke-linecap:butt; stroke-linejoin:round; stroke-width:4; stroke-opacity:1; fill:none" points="
  156.112,100.108 175.01,100.108 
  "/>
<path clip-path="url(#clip510)" d="M62.9365 1397.51 Q59.3254 1397.51 57.4967 1401.07 Q55.6912 1404.61 55.6912 1411.74 Q55.6912 1418.85 57.4967 1422.41 Q59.3254 1425.96 62.9365 1425.96 Q66.5707 1425.96 68.3763 1422.41 Q70.205 1418.85 70.205 1411.74 Q70.205 1404.61 68.3763 1401.07 Q66.5707 1397.51 62.9365 1397.51 M62.9365 1393.8 Q68.7467 1393.8 71.8022 1398.41 Q74.8809 1402.99 74.8809 1411.74 Q74.8809 1420.47 71.8022 1425.08 Q68.7467 1429.66 62.9365 1429.66 Q57.1264 1429.66 54.0477 1425.08 Q50.9921 1420.47 50.9921 1411.74 Q50.9921 1402.99 54.0477 1398.41 Q57.1264 1393.8 62.9365 1393.8 Z" fill="#000000" fill-rule="evenodd" fill-opacity="1" /><path clip-path="url(#clip510)" d="M83.0984 1423.11 L87.9827 1423.11 L87.9827 1428.99 L83.0984 1428.99 L83.0984 1423.11 Z" fill="#000000" fill-rule="evenodd" fill-opacity="1" /><path clip-path="url(#clip510)" d="M108.168 1397.51 Q104.557 1397.51 102.728 1401.07 Q100.922 1404.61 100.922 1411.74 Q100.922 1418.85 102.728 1422.41 Q104.557 1425.96 108.168 1425.96 Q111.802 1425.96 113.608 1422.41 Q115.436 1418.85 115.436 1411.74 Q115.436 1404.61 113.608 1401.07 Q111.802 1397.51 108.168 1397.51 M108.168 1393.8 Q113.978 1393.8 117.033 1398.41 Q120.112 1402.99 120.112 1411.74 Q120.112 1420.47 117.033 1425.08 Q113.978 1429.66 108.168 1429.66 Q102.358 1429.66 99.2789 1425.08 Q96.2234 1420.47 96.2234 1411.74 Q96.2234 1402.99 99.2789 1398.41 Q102.358 1393.8 108.168 1393.8 Z" fill="#000000" fill-rule="evenodd" fill-opacity="1" /><path clip-path="url(#clip510)" d="M63.9319 1069.61 Q60.3208 1069.61 58.4921 1073.17 Q56.6865 1076.71 56.6865 1083.84 Q56.6865 1090.95 58.4921 1094.51 Q60.3208 1098.06 63.9319 1098.06 Q67.5661 1098.06 69.3717 1094.51 Q71.2004 1090.95 71.2004 1083.84 Q71.2004 1076.71 69.3717 1073.17 Q67.5661 1069.61 63.9319 1069.61 M63.9319 1065.9 Q69.742 1065.9 72.7976 1070.51 Q75.8763 1075.09 75.8763 1083.84 Q75.8763 1092.57 72.7976 1097.18 Q69.742 1101.76 63.9319 1101.76 Q58.1217 1101.76 55.043 1097.18 Q51.9875 1092.57 51.9875 1083.84 Q51.9875 1075.09 55.043 1070.51 Q58.1217 1065.9 63.9319 1065.9 Z" fill="#000000" fill-rule="evenodd" fill-opacity="1" /><path clip-path="url(#clip510)" d="M84.0938 1095.21 L88.978 1095.21 L88.978 1101.09 L84.0938 1101.09 L84.0938 1095.21 Z" fill="#000000" fill-rule="evenodd" fill-opacity="1" /><path clip-path="url(#clip510)" d="M99.2095 1066.53 L117.566 1066.53 L117.566 1070.46 L103.492 1070.46 L103.492 1078.94 Q104.51 1078.59 105.529 1078.43 Q106.547 1078.24 107.566 1078.24 Q113.353 1078.24 116.733 1081.41 Q120.112 1084.58 120.112 1090 Q120.112 1095.58 116.64 1098.68 Q113.168 1101.76 106.848 1101.76 Q104.672 1101.76 102.404 1101.39 Q100.159 1101.02 97.7511 1100.28 L97.7511 1095.58 Q99.8345 1096.71 102.057 1097.27 Q104.279 1097.82 106.756 1097.82 Q110.76 1097.82 113.098 1095.72 Q115.436 1093.61 115.436 1090 Q115.436 1086.39 113.098 1084.28 Q110.76 1082.18 106.756 1082.18 Q104.881 1082.18 103.006 1082.59 Q101.154 1083.01 99.2095 1083.89 L99.2095 1066.53 Z" fill="#000000" fill-rule="evenodd" fill-opacity="1" /><path clip-path="url(#clip510)" d="M53.7467 769.253 L61.3856 769.253 L61.3856 742.888 L53.0754 744.554 L53.0754 740.295 L61.3393 738.628 L66.0152 738.628 L66.0152 769.253 L73.654 769.253 L73.654 773.188 L53.7467 773.188 L53.7467 769.253 Z" fill="#000000" fill-rule="evenodd" fill-opacity="1" /><path clip-path="url(#clip510)" d="M83.0984 767.309 L87.9827 767.309 L87.9827 773.188 L83.0984 773.188 L83.0984 767.309 Z" fill="#000000" fill-rule="evenodd" fill-opacity="1" /><path clip-path="url(#clip510)" d="M108.168 741.707 Q104.557 741.707 102.728 745.272 Q100.922 748.814 100.922 755.943 Q100.922 763.05 102.728 766.614 Q104.557 770.156 108.168 770.156 Q111.802 770.156 113.608 766.614 Q115.436 763.05 115.436 755.943 Q115.436 748.814 113.608 745.272 Q111.802 741.707 108.168 741.707 M108.168 738.003 Q113.978 738.003 117.033 742.61 Q120.112 747.193 120.112 755.943 Q120.112 764.67 117.033 769.276 Q113.978 773.86 108.168 773.86 Q102.358 773.86 99.2789 769.276 Q96.2234 764.67 96.2234 755.943 Q96.2234 747.193 99.2789 742.61 Q102.358 738.003 108.168 738.003 Z" fill="#000000" fill-rule="evenodd" fill-opacity="1" /><path clip-path="url(#clip510)" d="M54.7421 441.353 L62.381 441.353 L62.381 414.988 L54.0708 416.654 L54.0708 412.395 L62.3347 410.728 L67.0106 410.728 L67.0106 441.353 L74.6494 441.353 L74.6494 445.288 L54.7421 445.288 L54.7421 441.353 Z" fill="#000000" fill-rule="evenodd" fill-opacity="1" /><path clip-path="url(#clip510)" d="M84.0938 439.409 L88.978 439.409 L88.978 445.288 L84.0938 445.288 L84.0938 439.409 Z" fill="#000000" fill-rule="evenodd" fill-opacity="1" /><path clip-path="url(#clip510)" d="M99.2095 410.728 L117.566 410.728 L117.566 414.664 L103.492 414.664 L103.492 423.136 Q104.51 422.789 105.529 422.626 Q106.547 422.441 107.566 422.441 Q113.353 422.441 116.733 425.613 Q120.112 428.784 120.112 434.2 Q120.112 439.779 116.64 442.881 Q113.168 445.96 106.848 445.96 Q104.672 445.96 102.404 445.589 Q100.159 445.219 97.7511 444.478 L97.7511 439.779 Q99.8345 440.913 102.057 441.469 Q104.279 442.025 106.756 442.025 Q110.76 442.025 113.098 439.918 Q115.436 437.812 115.436 434.2 Q115.436 430.589 113.098 428.483 Q110.76 426.376 106.756 426.376 Q104.881 426.376 103.006 426.793 Q101.154 427.21 99.2095 428.089 L99.2095 410.728 Z" fill="#000000" fill-rule="evenodd" fill-opacity="1" /><path clip-path="url(#clip510)" d="M56.9643 113.453 L73.2837 113.453 L73.2837 117.388 L51.3393 117.388 L51.3393 113.453 Q54.0014 110.699 58.5847 106.069 Q63.1911 101.416 64.3717 100.074 Q66.617 97.5505 67.4967 95.8144 Q68.3994 94.0551 68.3994 92.3653 Q68.3994 89.6107 66.455 87.8746 Q64.5337 86.1385 61.4319 86.1385 Q59.2328 86.1385 56.7791 86.9024 Q54.3486 87.6663 51.5708 89.2172 L51.5708 84.495 Q54.3949 83.3607 56.8486 82.782 Q59.3023 82.2033 61.3393 82.2033 Q66.7096 82.2033 69.9041 84.8885 Q73.0985 87.5737 73.0985 92.0644 Q73.0985 94.194 72.2883 96.1153 Q71.5013 98.0134 69.3948 100.606 Q68.8161 101.277 65.7143 104.495 Q62.6124 107.689 56.9643 113.453 Z" fill="#000000" fill-rule="evenodd" fill-opacity="1" /><path clip-path="url(#clip510)" d="M83.0984 111.509 L87.9827 111.509 L87.9827 117.388 L83.0984 117.388 L83.0984 111.509 Z" fill="#000000" fill-rule="evenodd" fill-opacity="1" /><path clip-path="url(#clip510)" d="M108.168 85.907 Q104.557 85.907 102.728 89.4718 Q100.922 93.0135 100.922 100.143 Q100.922 107.249 102.728 110.814 Q104.557 114.356 108.168 114.356 Q111.802 114.356 113.608 110.814 Q115.436 107.249 115.436 100.143 Q115.436 93.0135 113.608 89.4718 Q111.802 85.907 108.168 85.907 M108.168 82.2033 Q113.978 82.2033 117.033 86.8098 Q120.112 91.3931 120.112 100.143 Q120.112 108.87 117.033 113.476 Q113.978 118.06 108.168 118.06 Q102.358 118.06 99.2789 113.476 Q96.2234 108.87 96.2234 100.143 Q96.2234 91.3931 99.2789 86.8098 Q102.358 82.2033 108.168 82.2033 Z" fill="#000000" fill-rule="evenodd" fill-opacity="1" /><polyline clip-path="url(#clip513)" style="stroke:#009af9; stroke-linecap:butt; stroke-linejoin:round; stroke-width:4; stroke-opacity:1; fill:none" points="
  218.281,1411.7 228.695,1411.65 239.108,1411.44 249.522,1410.73 259.936,1408.62 270.349,1403.35 280.763,1392.17 291.176,1371.72 301.59,1338.91 312.004,1291.3 
  322.417,1226.56 332.831,1141.68 343.244,1033.72 353.658,902.175 364.072,751.509 374.485,591.831 384.899,437.382 395.312,303.001 405.726,199.558 416.14,130.862 
  426.553,94.686 436.967,86.9858 447.38,105.006 457.794,146.614 468.208,207.986 478.621,283.105 489.035,365.226 499.448,447.998 509.862,525.604 520.276,593.446 
  530.689,649.958 541.103,697.743 551.516,742.15 561.93,787.885 572.344,836.203 582.757,884.838 593.171,930.636 603.584,972.61 613.998,1012.71 624.412,1053.68 
  634.825,1096.17 645.239,1137.79 655.652,1174.94 666.066,1205.33 676.479,1229.05 686.893,1247.45 697.307,1261.72 707.72,1272.59 718.134,1281.3 728.547,1289.88 
  738.961,1300.03 749.375,1311.65 759.788,1322.77 770.202,1331.06 780.615,1335.33 791.029,1335.96 801.443,1334.3 811.856,1331.96 822.27,1330.45 832.683,1330.99 
  843.097,1334.2 853.511,1339.67 863.924,1345.92 874.338,1350.86 884.751,1352.92 895.165,1351.95 905.579,1349.46 915.992,1347.58 926.406,1348.06 936.819,1351.58 
  947.233,1357.81 957.647,1365.6 968.06,1373.47 978.474,1380.3 988.887,1385.69 999.301,1389.68 1009.71,1392.26 1020.13,1393.33 1030.54,1392.99 1040.96,1391.74 
  1051.37,1390.24 1061.78,1389.08 1072.2,1388.76 1082.61,1389.77 1093.02,1392.31 1103.44,1396 1113.85,1399.96 1124.26,1403.19 1134.68,1405.15 1145.09,1405.98 
  1155.5,1406.31 1165.92,1406.75 1176.33,1407.52 1186.75,1408.32 1197.16,1408.59 1207.57,1407.91 1217.99,1406.26 1228.4,1404.12 1238.81,1402.31 1249.23,1401.45 
  1259.64,1401.62 1270.05,1402.27 1280.47,1402.72 1290.88,1402.64 1301.3,1402.14 1311.71,1401.6 1322.12,1401.37 1332.54,1401.71 1342.95,1402.74 1353.36,1404.36 
  1363.78,1406.31 1374.19,1408.2 1384.6,1409.69 1395.02,1410.6 1405.43,1410.88 1415.84,1410.47 1426.26,1409.25 1436.67,1407.13 1447.09,1404.27 1457.5,1401.25 
  1467.91,1399.01 1478.33,1398.41 1488.74,1399.72 1499.15,1402.42 1509.57,1405.54 1519.98,1408.2 1530.39,1410.01 1540.81,1411.01 1551.22,1411.45 1561.64,1411.59 
  1572.05,1411.53 1582.46,1411.27 1592.88,1410.71 1603.29,1409.8 1613.7,1408.64 1624.12,1407.56 1634.53,1406.98 1644.94,1407.17 1655.36,1408.04 1665.77,1409.21 
  1676.18,1410.27 1686.6,1411.01 1697.01,1411.42 1707.43,1411.61 1717.84,1411.68 1728.25,1411.7 1738.67,1411.71 1749.08,1411.71 1759.49,1411.71 1769.91,1411.7 
  1780.32,1411.68 1790.73,1411.6 1801.15,1411.37 1811.56,1410.8 1821.97,1409.64 1832.39,1407.73 1842.8,1405.2 1853.22,1402.6 1863.63,1400.68 1874.04,1399.99 
  1884.46,1400.59 1894.87,1402.15 1905.28,1404.2 1915.7,1406.34 1926.11,1408.27 1936.52,1409.77 1946.94,1410.76 1957.35,1411.31 1967.77,1411.57 1978.18,1411.67 
  1988.59,1411.7 1999.01,1411.71 2009.42,1411.71 2019.83,1411.71 2030.25,1411.71 2040.66,1411.69 2051.07,1411.65 2061.49,1411.53 2071.9,1411.23 2082.31,1410.63 
  2092.73,1409.68 2103.14,1408.48 2113.56,1407.39 2123.97,1406.8 2134.38,1406.86 2144.8,1407.33 2155.21,1407.69 2165.62,1407.62 2176.04,1407.19 2186.45,1406.84 
  2196.86,1406.99 2207.28,1407.77 2217.69,1408.91 2228.11,1410.03 2238.52,1410.86 2248.93,1411.34 2259.35,1411.58 2269.76,1411.67 2280.17,1411.7 2290.59,1411.7 
  
  "/>
</svg>
