<?xml version="1.0" encoding="utf-8"?>
<svg xmlns="http://www.w3.org/2000/svg" xmlns:xlink="http://www.w3.org/1999/xlink" width="600" height="400" viewBox="0 0 2400 1600">
<defs>
  <clipPath id="clip910">
    <rect x="0" y="0" width="2400" height="1600"/>
  </clipPath>
</defs>
<path clip-path="url(#clip910)" d="
M0 1600 L2400 1600 L2400 0 L0 0  Z
  " fill="#ffffff" fill-rule="evenodd" fill-opacity="1"/>
<defs>
  <clipPath id="clip911">
    <rect x="480" y="0" width="1681" height="1600"/>
  </clipPath>
</defs>
<defs>
  <clipPath id="clip912">
    <rect x="422" y="123" width="1931" height="1305"/>
  </clipPath>
</defs>
<path clip-path="url(#clip910)" d="
M451.318 1427.31 L2352.76 1427.31 L2352.76 123.472 L451.318 123.472  Z
  " fill="#ffffff" fill-rule="evenodd" fill-opacity="1"/>
<defs>
  <clipPath id="clip913">
    <rect x="451" y="123" width="1902" height="1305"/>
  </clipPath>
</defs>
<polyline clip-path="url(#clip913)" style="stroke:#000000; stroke-linecap:butt; stroke-linejoin:round; stroke-width:2; stroke-opacity:0.1; fill:none" points="
  850.166,1427.31 850.166,123.472 
  "/>
<polyline clip-path="url(#clip913)" style="stroke:#000000; stroke-linecap:butt; stroke-linejoin:round; stroke-width:2; stroke-opacity:0.1; fill:none" points="
  1342.91,1427.31 1342.91,123.472 
  "/>
<polyline clip-path="url(#clip913)" style="stroke:#000000; stroke-linecap:butt; stroke-linejoin:round; stroke-width:2; stroke-opacity:0.1; fill:none" points="
  1835.65,1427.31 1835.65,123.472 
  "/>
<polyline clip-path="url(#clip913)" style="stroke:#000000; stroke-linecap:butt; stroke-linejoin:round; stroke-width:2; stroke-opacity:0.1; fill:none" points="
  2328.39,1427.31 2328.39,123.472 
  "/>
<polyline clip-path="url(#clip910)" style="stroke:#000000; stroke-linecap:butt; stroke-linejoin:round; stroke-width:4; stroke-opacity:1; fill:none" points="
  451.318,1427.31 2352.76,1427.31 
  "/>
<polyline clip-path="url(#clip910)" style="stroke:#000000; stroke-linecap:butt; stroke-linejoin:round; stroke-width:4; stroke-opacity:1; fill:none" points="
  850.166,1427.31 850.166,1408.42 
  "/>
<polyline clip-path="url(#clip910)" style="stroke:#000000; stroke-linecap:butt; stroke-linejoin:round; stroke-width:4; stroke-opacity:1; fill:none" points="
  1342.91,1427.31 1342.91,1408.42 
  "/>
<polyline clip-path="url(#clip910)" style="stroke:#000000; stroke-linecap:butt; stroke-linejoin:round; stroke-width:4; stroke-opacity:1; fill:none" points="
  1835.65,1427.31 1835.65,1408.42 
  "/>
<polyline clip-path="url(#clip910)" style="stroke:#000000; stroke-linecap:butt; stroke-linejoin:round; stroke-width:4; stroke-opacity:1; fill:none" points="
  2328.39,1427.31 2328.39,1408.42 
  "/>
<path clip-path="url(#clip910)" d="M825.351 1484.05 L832.99 1484.05 L832.99 1457.69 L824.68 1459.35 L824.68 1455.09 L832.943 1453.43 L837.619 1453.43 L837.619 1484.05 L845.258 1484.05 L845.258 1487.99 L825.351 1487.99 L825.351 1484.05 Z" fill="#000000" fill-rule="evenodd" fill-opacity="1" /><path clip-path="url(#clip910)" d="M854.749 1453.43 L873.105 1453.43 L873.105 1457.36 L859.031 1457.36 L859.031 1465.83 Q860.05 1465.49 861.068 1465.32 Q862.087 1465.14 863.105 1465.14 Q868.892 1465.14 872.272 1468.31 Q875.652 1471.48 875.652 1476.9 Q875.652 1482.48 872.179 1485.58 Q868.707 1488.66 862.388 1488.66 Q860.212 1488.66 857.943 1488.29 Q855.698 1487.92 853.291 1487.18 L853.291 1482.48 Q855.374 1483.61 857.596 1484.17 Q859.818 1484.72 862.295 1484.72 Q866.3 1484.72 868.638 1482.62 Q870.976 1480.51 870.976 1476.9 Q870.976 1473.29 868.638 1471.18 Q866.3 1469.07 862.295 1469.07 Q860.42 1469.07 858.545 1469.49 Q856.693 1469.91 854.749 1470.79 L854.749 1453.43 Z" fill="#000000" fill-rule="evenodd" fill-opacity="1" /><path clip-path="url(#clip910)" d="M1321.68 1484.05 L1338 1484.05 L1338 1487.99 L1316.06 1487.99 L1316.06 1484.05 Q1318.72 1481.3 1323.3 1476.67 Q1327.91 1472.01 1329.09 1470.67 Q1331.33 1468.15 1332.21 1466.41 Q1333.12 1464.65 1333.12 1462.96 Q1333.12 1460.21 1331.17 1458.47 Q1329.25 1456.74 1326.15 1456.74 Q1323.95 1456.74 1321.5 1457.5 Q1319.07 1458.26 1316.29 1459.82 L1316.29 1455.09 Q1319.11 1453.96 1321.57 1453.38 Q1324.02 1452.8 1326.06 1452.8 Q1331.43 1452.8 1334.62 1455.49 Q1337.82 1458.17 1337.82 1462.66 Q1337.82 1464.79 1337 1466.71 Q1336.22 1468.61 1334.11 1471.2 Q1333.53 1471.88 1330.43 1475.09 Q1327.33 1478.29 1321.68 1484.05 Z" fill="#000000" fill-rule="evenodd" fill-opacity="1" /><path clip-path="url(#clip910)" d="M1357.82 1456.51 Q1354.2 1456.51 1352.38 1460.07 Q1350.57 1463.61 1350.57 1470.74 Q1350.57 1477.85 1352.38 1481.41 Q1354.2 1484.95 1357.82 1484.95 Q1361.45 1484.95 1363.25 1481.41 Q1365.08 1477.85 1365.08 1470.74 Q1365.08 1463.61 1363.25 1460.07 Q1361.45 1456.51 1357.82 1456.51 M1357.82 1452.8 Q1363.63 1452.8 1366.68 1457.41 Q1369.76 1461.99 1369.76 1470.74 Q1369.76 1479.47 1366.68 1484.07 Q1363.63 1488.66 1357.82 1488.66 Q1352 1488.66 1348.93 1484.07 Q1345.87 1479.47 1345.87 1470.74 Q1345.87 1461.99 1348.93 1457.41 Q1352 1452.8 1357.82 1452.8 Z" fill="#000000" fill-rule="evenodd" fill-opacity="1" /><path clip-path="url(#clip910)" d="M1814.92 1484.05 L1831.24 1484.05 L1831.24 1487.99 L1809.3 1487.99 L1809.3 1484.05 Q1811.96 1481.3 1816.54 1476.67 Q1821.15 1472.01 1822.33 1470.67 Q1824.57 1468.15 1825.45 1466.41 Q1826.36 1464.65 1826.36 1462.96 Q1826.36 1460.21 1824.41 1458.47 Q1822.49 1456.74 1819.39 1456.74 Q1817.19 1456.74 1814.74 1457.5 Q1812.3 1458.26 1809.53 1459.82 L1809.53 1455.09 Q1812.35 1453.96 1814.8 1453.38 Q1817.26 1452.8 1819.3 1452.8 Q1824.67 1452.8 1827.86 1455.49 Q1831.05 1458.17 1831.05 1462.66 Q1831.05 1464.79 1830.24 1466.71 Q1829.46 1468.61 1827.35 1471.2 Q1826.77 1471.88 1823.67 1475.09 Q1820.57 1478.29 1814.92 1484.05 Z" fill="#000000" fill-rule="evenodd" fill-opacity="1" /><path clip-path="url(#clip910)" d="M1841.1 1453.43 L1859.46 1453.43 L1859.46 1457.36 L1845.38 1457.36 L1845.38 1465.83 Q1846.4 1465.49 1847.42 1465.32 Q1848.44 1465.14 1849.46 1465.14 Q1855.24 1465.14 1858.62 1468.31 Q1862 1471.48 1862 1476.9 Q1862 1482.48 1858.53 1485.58 Q1855.06 1488.66 1848.74 1488.66 Q1846.56 1488.66 1844.3 1488.29 Q1842.05 1487.92 1839.64 1487.18 L1839.64 1482.48 Q1841.73 1483.61 1843.95 1484.17 Q1846.17 1484.72 1848.65 1484.72 Q1852.65 1484.72 1854.99 1482.62 Q1857.33 1480.51 1857.33 1476.9 Q1857.33 1473.29 1854.99 1471.18 Q1852.65 1469.07 1848.65 1469.07 Q1846.77 1469.07 1844.9 1469.49 Q1843.05 1469.91 1841.1 1470.79 L1841.1 1453.43 Z" fill="#000000" fill-rule="evenodd" fill-opacity="1" /><path clip-path="url(#clip910)" d="M2317.23 1469.35 Q2320.59 1470.07 2322.47 1472.34 Q2324.36 1474.61 2324.36 1477.94 Q2324.36 1483.06 2320.85 1485.86 Q2317.33 1488.66 2310.85 1488.66 Q2308.67 1488.66 2306.35 1488.22 Q2304.06 1487.8 2301.61 1486.94 L2301.61 1482.43 Q2303.55 1483.57 2305.87 1484.14 Q2308.18 1484.72 2310.71 1484.72 Q2315.1 1484.72 2317.4 1482.99 Q2319.71 1481.25 2319.71 1477.94 Q2319.71 1474.88 2317.56 1473.17 Q2315.43 1471.44 2311.61 1471.44 L2307.58 1471.44 L2307.58 1467.59 L2311.79 1467.59 Q2315.24 1467.59 2317.07 1466.23 Q2318.9 1464.84 2318.9 1462.25 Q2318.9 1459.58 2317 1458.17 Q2315.13 1456.74 2311.61 1456.74 Q2309.69 1456.74 2307.49 1457.15 Q2305.29 1457.57 2302.65 1458.45 L2302.65 1454.28 Q2305.31 1453.54 2307.63 1453.17 Q2309.97 1452.8 2312.03 1452.8 Q2317.35 1452.8 2320.45 1455.23 Q2323.55 1457.64 2323.55 1461.76 Q2323.55 1464.63 2321.91 1466.62 Q2320.27 1468.59 2317.23 1469.35 Z" fill="#000000" fill-rule="evenodd" fill-opacity="1" /><path clip-path="url(#clip910)" d="M2343.23 1456.51 Q2339.62 1456.51 2337.79 1460.07 Q2335.98 1463.61 2335.98 1470.74 Q2335.98 1477.85 2337.79 1481.41 Q2339.62 1484.95 2343.23 1484.95 Q2346.86 1484.95 2348.67 1481.41 Q2350.5 1477.85 2350.5 1470.74 Q2350.5 1463.61 2348.67 1460.07 Q2346.86 1456.51 2343.23 1456.51 M2343.23 1452.8 Q2349.04 1452.8 2352.1 1457.41 Q2355.17 1461.99 2355.17 1470.74 Q2355.17 1479.47 2352.1 1484.07 Q2349.04 1488.66 2343.23 1488.66 Q2337.42 1488.66 2334.34 1484.07 Q2331.29 1479.47 2331.29 1470.74 Q2331.29 1461.99 2334.34 1457.41 Q2337.42 1452.8 2343.23 1452.8 Z" fill="#000000" fill-rule="evenodd" fill-opacity="1" /><path clip-path="url(#clip910)" d="M1363.59 1515.56 Q1363.59 1517.33 1362.47 1518.42 Q1361.37 1519.52 1359.99 1519.52 Q1358.99 1519.52 1358.25 1518.91 Q1357.54 1518.29 1357.54 1517.23 Q1357.54 1516.14 1358.38 1514.98 Q1359.21 1513.82 1361.11 1513.66 Q1359.86 1512.47 1357.86 1512.47 Q1356.86 1512.47 1356.03 1513.11 Q1355.22 1513.72 1354.77 1514.72 Q1354.29 1515.75 1353.19 1521.58 Q1352.84 1523.48 1352.52 1525.32 Q1352.19 1527.15 1351.81 1529.08 L1357.28 1529.08 Q1357.99 1529.08 1358.28 1529.12 Q1358.57 1529.15 1358.8 1529.31 Q1359.05 1529.47 1359.05 1529.82 Q1359.05 1530.73 1358.63 1530.95 Q1358.25 1531.15 1357.09 1531.15 L1351.42 1531.15 L1347.46 1552.05 Q1347.36 1552.66 1346.94 1554.59 Q1346.56 1556.49 1345.62 1559.61 Q1344.69 1562.77 1343.76 1564.64 Q1343.24 1565.7 1342.56 1566.7 Q1341.92 1567.73 1340.99 1568.76 Q1340.05 1569.79 1338.83 1570.4 Q1337.6 1571.05 1336.32 1571.05 Q1334.13 1571.05 1332.42 1569.82 Q1330.71 1568.6 1330.71 1566.51 Q1330.71 1564.74 1331.81 1563.64 Q1332.93 1562.55 1334.32 1562.55 Q1335.32 1562.55 1336.03 1563.16 Q1336.77 1563.77 1336.77 1564.83 Q1336.77 1565.28 1336.61 1565.8 Q1336.44 1566.31 1336.09 1566.89 Q1335.74 1567.51 1334.96 1567.92 Q1334.19 1568.34 1333.13 1568.41 Q1334.38 1569.6 1336.32 1569.6 Q1336.93 1569.6 1337.47 1569.34 Q1338.02 1569.12 1338.47 1568.54 Q1338.96 1567.96 1339.31 1567.38 Q1339.66 1566.83 1340.02 1565.77 Q1340.37 1564.74 1340.6 1563.96 Q1340.82 1563.19 1341.11 1561.8 Q1341.44 1560.42 1341.6 1559.58 Q1341.76 1558.78 1342.05 1557.2 L1346.98 1531.15 L1342.63 1531.15 Q1341.85 1531.15 1341.53 1531.11 Q1341.24 1531.08 1341.02 1530.92 Q1340.79 1530.73 1340.79 1530.34 Q1340.79 1529.73 1341.05 1529.47 Q1341.34 1529.18 1341.66 1529.15 Q1341.98 1529.08 1342.76 1529.08 L1347.33 1529.08 Q1348.88 1520.94 1349.49 1518.75 Q1350.2 1516.43 1351.29 1514.82 Q1352.39 1513.17 1353.61 1512.4 Q1354.83 1511.63 1355.83 1511.34 Q1356.86 1511.02 1357.86 1511.02 Q1360.12 1511.02 1361.85 1512.24 Q1363.59 1513.43 1363.59 1515.56 Z" fill="#000000" fill-rule="evenodd" fill-opacity="1" /><path clip-path="url(#clip910)" d="M1362.71 1573.08 Q1362.71 1572.75 1362.96 1572.05 L1386.25 1509.82 Q1386.25 1509.76 1386.41 1509.41 Q1386.57 1509.05 1386.67 1508.83 Q1386.76 1508.57 1386.96 1508.38 Q1387.18 1508.18 1387.44 1508.18 Q1388.08 1508.18 1388.08 1508.99 Q1388.08 1509.05 1387.89 1509.82 L1364.54 1572.11 Q1364.16 1573.24 1363.9 1573.56 Q1363.67 1573.88 1363.29 1573.88 Q1362.71 1573.88 1362.71 1573.08 Z" fill="#000000" fill-rule="evenodd" fill-opacity="1" /><path clip-path="url(#clip910)" d="M1395.37 1557.52 L1395.37 1555.49 L1396.95 1555.49 Q1400.52 1555.49 1401.33 1554.91 Q1402.17 1554.3 1402.17 1552.37 L1402.17 1517.62 Q1402.17 1515.72 1401.33 1515.14 Q1400.49 1514.53 1396.95 1514.53 L1395.37 1514.53 L1395.37 1512.47 Q1397.69 1512.66 1405.13 1512.66 Q1412.5 1512.66 1414.82 1512.47 L1414.82 1514.53 L1413.24 1514.53 Q1409.67 1514.53 1408.83 1515.14 Q1408.03 1515.72 1408.03 1517.62 L1408.03 1533.05 L1427.74 1533.05 L1427.74 1517.62 Q1427.74 1515.72 1426.9 1515.14 Q1426.09 1514.53 1422.52 1514.53 L1420.94 1514.53 L1420.94 1512.47 Q1423.26 1512.66 1430.7 1512.66 Q1438.07 1512.66 1440.39 1512.47 L1440.39 1514.53 L1438.82 1514.53 Q1435.24 1514.53 1434.4 1515.14 Q1433.6 1515.72 1433.6 1517.62 L1433.6 1552.37 Q1433.6 1554.27 1434.44 1554.88 Q1435.27 1555.49 1438.82 1555.49 L1440.39 1555.49 L1440.39 1557.52 Q1438.07 1557.33 1430.64 1557.33 Q1423.26 1557.33 1420.94 1557.52 L1420.94 1555.49 L1422.52 1555.49 Q1426.09 1555.49 1426.9 1554.91 Q1427.74 1554.3 1427.74 1552.37 L1427.74 1535.11 L1408.03 1535.11 L1408.03 1552.37 Q1408.03 1554.27 1408.83 1554.88 Q1409.67 1555.49 1413.24 1555.49 L1414.82 1555.49 L1414.82 1557.52 Q1412.5 1557.33 1405.06 1557.33 Q1397.69 1557.33 1395.37 1557.52 Z" fill="#000000" fill-rule="evenodd" fill-opacity="1" /><path clip-path="url(#clip910)" d="M1444.37 1556.59 Q1444.37 1556.14 1444.98 1555.4 L1463.37 1530.53 L1455.86 1530.53 Q1450.65 1530.53 1448.94 1532.47 Q1447.26 1534.37 1446.94 1539.71 L1445.3 1539.71 L1446.04 1529.08 L1467.14 1529.08 Q1467.88 1529.08 1468.17 1529.12 Q1468.46 1529.15 1468.65 1529.37 Q1468.84 1529.57 1468.84 1529.95 Q1468.84 1530.34 1468.26 1531.08 L1449.91 1555.88 L1457.7 1555.88 Q1463.17 1555.88 1465.01 1553.59 Q1466.88 1551.31 1467.33 1545.19 L1468.97 1545.19 L1467.84 1557.52 L1446.11 1557.52 Q1445.04 1557.52 1444.69 1557.39 Q1444.37 1557.23 1444.37 1556.59 Z" fill="#000000" fill-rule="evenodd" fill-opacity="1" /><polyline clip-path="url(#clip913)" style="stroke:#000000; stroke-linecap:butt; stroke-linejoin:round; stroke-width:2; stroke-opacity:0.1; fill:none" points="
  451.318,1223.66 2352.76,1223.66 
  "/>
<polyline clip-path="url(#clip913)" style="stroke:#000000; stroke-linecap:butt; stroke-linejoin:round; stroke-width:2; stroke-opacity:0.1; fill:none" points="
  451.318,936.751 2352.76,936.751 
  "/>
<polyline clip-path="url(#clip913)" style="stroke:#000000; stroke-linecap:butt; stroke-linejoin:round; stroke-width:2; stroke-opacity:0.1; fill:none" points="
  451.318,649.842 2352.76,649.842 
  "/>
<polyline clip-path="url(#clip913)" style="stroke:#000000; stroke-linecap:butt; stroke-linejoin:round; stroke-width:2; stroke-opacity:0.1; fill:none" points="
  451.318,362.932 2352.76,362.932 
  "/>
<polyline clip-path="url(#clip910)" style="stroke:#000000; stroke-linecap:butt; stroke-linejoin:round; stroke-width:4; stroke-opacity:1; fill:none" points="
  451.318,1427.31 451.318,123.472 
  "/>
<polyline clip-path="url(#clip910)" style="stroke:#000000; stroke-linecap:butt; stroke-linejoin:round; stroke-width:4; stroke-opacity:1; fill:none" points="
  451.318,1223.66 470.215,1223.66 
  "/>
<polyline clip-path="url(#clip910)" style="stroke:#000000; stroke-linecap:butt; stroke-linejoin:round; stroke-width:4; stroke-opacity:1; fill:none" points="
  451.318,936.751 470.215,936.751 
  "/>
<polyline clip-path="url(#clip910)" style="stroke:#000000; stroke-linecap:butt; stroke-linejoin:round; stroke-width:4; stroke-opacity:1; fill:none" points="
  451.318,649.842 470.215,649.842 
  "/>
<polyline clip-path="url(#clip910)" style="stroke:#000000; stroke-linecap:butt; stroke-linejoin:round; stroke-width:4; stroke-opacity:1; fill:none" points="
  451.318,362.932 470.215,362.932 
  "/>
<path clip-path="url(#clip910)" d="M114.931 1243.45 L122.57 1243.45 L122.57 1217.09 L114.26 1218.75 L114.26 1214.5 L122.524 1212.83 L127.2 1212.83 L127.2 1243.45 L134.839 1243.45 L134.839 1247.39 L114.931 1247.39 L114.931 1243.45 Z" fill="#000000" fill-rule="evenodd" fill-opacity="1" /><path clip-path="url(#clip910)" d="M144.283 1241.51 L149.167 1241.51 L149.167 1247.39 L144.283 1247.39 L144.283 1241.51 Z" fill="#000000" fill-rule="evenodd" fill-opacity="1" /><path clip-path="url(#clip910)" d="M159.399 1212.83 L177.755 1212.83 L177.755 1216.76 L163.681 1216.76 L163.681 1225.24 Q164.7 1224.89 165.718 1224.73 Q166.737 1224.54 167.755 1224.54 Q173.542 1224.54 176.922 1227.71 Q180.301 1230.88 180.301 1236.3 Q180.301 1241.88 176.829 1244.98 Q173.357 1248.06 167.038 1248.06 Q164.862 1248.06 162.593 1247.69 Q160.348 1247.32 157.94 1246.58 L157.94 1241.88 Q160.024 1243.01 162.246 1243.57 Q164.468 1244.12 166.945 1244.12 Q170.95 1244.12 173.288 1242.02 Q175.626 1239.91 175.626 1236.3 Q175.626 1232.69 173.288 1230.58 Q170.95 1228.48 166.945 1228.48 Q165.07 1228.48 163.195 1228.89 Q161.343 1229.31 159.399 1230.19 L159.399 1212.83 Z" fill="#000000" fill-rule="evenodd" fill-opacity="1" /><path clip-path="url(#clip910)" d="M199.514 1215.91 Q195.903 1215.91 194.075 1219.47 Q192.269 1223.01 192.269 1230.14 Q192.269 1237.25 194.075 1240.81 Q195.903 1244.36 199.514 1244.36 Q203.149 1244.36 204.954 1240.81 Q206.783 1237.25 206.783 1230.14 Q206.783 1223.01 204.954 1219.47 Q203.149 1215.91 199.514 1215.91 M199.514 1212.2 Q205.324 1212.2 208.38 1216.81 Q211.459 1221.39 211.459 1230.14 Q211.459 1238.87 208.38 1243.48 Q205.324 1248.06 199.514 1248.06 Q193.704 1248.06 190.625 1243.48 Q187.57 1238.87 187.57 1230.14 Q187.57 1221.39 190.625 1216.81 Q193.704 1212.2 199.514 1212.2 Z" fill="#000000" fill-rule="evenodd" fill-opacity="1" /><path clip-path="url(#clip910)" d="M229.676 1215.91 Q226.065 1215.91 224.236 1219.47 Q222.431 1223.01 222.431 1230.14 Q222.431 1237.25 224.236 1240.81 Q226.065 1244.36 229.676 1244.36 Q233.31 1244.36 235.116 1240.81 Q236.945 1237.25 236.945 1230.14 Q236.945 1223.01 235.116 1219.47 Q233.31 1215.91 229.676 1215.91 M229.676 1212.2 Q235.486 1212.2 238.542 1216.81 Q241.621 1221.39 241.621 1230.14 Q241.621 1238.87 238.542 1243.48 Q235.486 1248.06 229.676 1248.06 Q223.866 1248.06 220.787 1243.48 Q217.732 1238.87 217.732 1230.14 Q217.732 1221.39 220.787 1216.81 Q223.866 1212.2 229.676 1212.2 Z" fill="#000000" fill-rule="evenodd" fill-opacity="1" /><path clip-path="url(#clip910)" d="M278.009 1221.93 L267.431 1232.55 L278.009 1243.13 L275.255 1245.93 L264.63 1235.31 L254.005 1245.93 L251.273 1243.13 L261.829 1232.55 L251.273 1221.93 L254.005 1219.13 L264.63 1229.75 L275.255 1219.13 L278.009 1221.93 Z" fill="#000000" fill-rule="evenodd" fill-opacity="1" /><path clip-path="url(#clip910)" d="M290.37 1243.45 L298.009 1243.45 L298.009 1217.09 L289.699 1218.75 L289.699 1214.5 L297.963 1212.83 L302.639 1212.83 L302.639 1243.45 L310.278 1243.45 L310.278 1247.39 L290.37 1247.39 L290.37 1243.45 Z" fill="#000000" fill-rule="evenodd" fill-opacity="1" /><path clip-path="url(#clip910)" d="M329.722 1215.91 Q326.111 1215.91 324.282 1219.47 Q322.477 1223.01 322.477 1230.14 Q322.477 1237.25 324.282 1240.81 Q326.111 1244.36 329.722 1244.36 Q333.356 1244.36 335.162 1240.81 Q336.99 1237.25 336.99 1230.14 Q336.99 1223.01 335.162 1219.47 Q333.356 1215.91 329.722 1215.91 M329.722 1212.2 Q335.532 1212.2 338.588 1216.81 Q341.666 1221.39 341.666 1230.14 Q341.666 1238.87 338.588 1243.48 Q335.532 1248.06 329.722 1248.06 Q323.912 1248.06 320.833 1243.48 Q317.778 1238.87 317.778 1230.14 Q317.778 1221.39 320.833 1216.81 Q323.912 1212.2 329.722 1212.2 Z" fill="#000000" fill-rule="evenodd" fill-opacity="1" /><path clip-path="url(#clip910)" d="M341.666 1206.31 L365.778 1206.31 L365.778 1209.5 L341.666 1209.5 L341.666 1206.31 Z" fill="#000000" fill-rule="evenodd" fill-opacity="1" /><path clip-path="url(#clip910)" d="M374.636 1216.78 L380.843 1216.78 L380.843 1195.36 L374.091 1196.71 L374.091 1193.25 L380.805 1191.9 L384.604 1191.9 L384.604 1216.78 L390.811 1216.78 L390.811 1219.98 L374.636 1219.98 L374.636 1216.78 Z" fill="#000000" fill-rule="evenodd" fill-opacity="1" /><path clip-path="url(#clip910)" d="M399.143 1216.78 L405.349 1216.78 L405.349 1195.36 L398.597 1196.71 L398.597 1193.25 L405.312 1191.9 L409.111 1191.9 L409.111 1216.78 L415.318 1216.78 L415.318 1219.98 L399.143 1219.98 L399.143 1216.78 Z" fill="#000000" fill-rule="evenodd" fill-opacity="1" /><path clip-path="url(#clip910)" d="M114.931 956.544 L122.57 956.544 L122.57 930.178 L114.26 931.845 L114.26 927.586 L122.524 925.919 L127.2 925.919 L127.2 956.544 L134.839 956.544 L134.839 960.479 L114.931 960.479 L114.931 956.544 Z" fill="#000000" fill-rule="evenodd" fill-opacity="1" /><path clip-path="url(#clip910)" d="M144.283 954.599 L149.167 954.599 L149.167 960.479 L144.283 960.479 L144.283 954.599 Z" fill="#000000" fill-rule="evenodd" fill-opacity="1" /><path clip-path="url(#clip910)" d="M159.399 925.919 L177.755 925.919 L177.755 929.854 L163.681 929.854 L163.681 938.326 Q164.7 937.979 165.718 937.817 Q166.737 937.632 167.755 937.632 Q173.542 937.632 176.922 940.803 Q180.301 943.974 180.301 949.391 Q180.301 954.97 176.829 958.072 Q173.357 961.15 167.038 961.15 Q164.862 961.15 162.593 960.78 Q160.348 960.41 157.94 959.669 L157.94 954.97 Q160.024 956.104 162.246 956.66 Q164.468 957.215 166.945 957.215 Q170.95 957.215 173.288 955.109 Q175.626 953.002 175.626 949.391 Q175.626 945.78 173.288 943.674 Q170.95 941.567 166.945 941.567 Q165.07 941.567 163.195 941.984 Q161.343 942.4 159.399 943.28 L159.399 925.919 Z" fill="#000000" fill-rule="evenodd" fill-opacity="1" /><path clip-path="url(#clip910)" d="M189.561 925.919 L207.917 925.919 L207.917 929.854 L193.843 929.854 L193.843 938.326 Q194.862 937.979 195.88 937.817 Q196.899 937.632 197.917 937.632 Q203.704 937.632 207.084 940.803 Q210.463 943.974 210.463 949.391 Q210.463 954.97 206.991 958.072 Q203.519 961.15 197.2 961.15 Q195.024 961.15 192.755 960.78 Q190.51 960.41 188.102 959.669 L188.102 954.97 Q190.186 956.104 192.408 956.66 Q194.63 957.215 197.107 957.215 Q201.112 957.215 203.449 955.109 Q205.787 953.002 205.787 949.391 Q205.787 945.78 203.449 943.674 Q201.112 941.567 197.107 941.567 Q195.232 941.567 193.357 941.984 Q191.505 942.4 189.561 943.28 L189.561 925.919 Z" fill="#000000" fill-rule="evenodd" fill-opacity="1" /><path clip-path="url(#clip910)" d="M229.676 928.998 Q226.065 928.998 224.236 932.562 Q222.431 936.104 222.431 943.234 Q222.431 950.34 224.236 953.905 Q226.065 957.447 229.676 957.447 Q233.31 957.447 235.116 953.905 Q236.945 950.34 236.945 943.234 Q236.945 936.104 235.116 932.562 Q233.31 928.998 229.676 928.998 M229.676 925.294 Q235.486 925.294 238.542 929.9 Q241.621 934.484 241.621 943.234 Q241.621 951.961 238.542 956.567 Q235.486 961.15 229.676 961.15 Q223.866 961.15 220.787 956.567 Q217.732 951.961 217.732 943.234 Q217.732 934.484 220.787 929.9 Q223.866 925.294 229.676 925.294 Z" fill="#000000" fill-rule="evenodd" fill-opacity="1" /><path clip-path="url(#clip910)" d="M278.009 935.016 L267.431 945.641 L278.009 956.22 L275.255 959.021 L264.63 948.396 L254.005 959.021 L251.273 956.22 L261.829 945.641 L251.273 935.016 L254.005 932.215 L264.63 942.84 L275.255 932.215 L278.009 935.016 Z" fill="#000000" fill-rule="evenodd" fill-opacity="1" /><path clip-path="url(#clip910)" d="M290.37 956.544 L298.009 956.544 L298.009 930.178 L289.699 931.845 L289.699 927.586 L297.963 925.919 L302.639 925.919 L302.639 956.544 L310.278 956.544 L310.278 960.479 L290.37 960.479 L290.37 956.544 Z" fill="#000000" fill-rule="evenodd" fill-opacity="1" /><path clip-path="url(#clip910)" d="M329.722 928.998 Q326.111 928.998 324.282 932.562 Q322.477 936.104 322.477 943.234 Q322.477 950.34 324.282 953.905 Q326.111 957.447 329.722 957.447 Q333.356 957.447 335.162 953.905 Q336.99 950.34 336.99 943.234 Q336.99 936.104 335.162 932.562 Q333.356 928.998 329.722 928.998 M329.722 925.294 Q335.532 925.294 338.588 929.9 Q341.666 934.484 341.666 943.234 Q341.666 951.961 338.588 956.567 Q335.532 961.15 329.722 961.15 Q323.912 961.15 320.833 956.567 Q317.778 951.961 317.778 943.234 Q317.778 934.484 320.833 929.9 Q323.912 925.294 329.722 925.294 Z" fill="#000000" fill-rule="evenodd" fill-opacity="1" /><path clip-path="url(#clip910)" d="M341.666 919.395 L365.778 919.395 L365.778 922.593 L341.666 922.593 L341.666 919.395 Z" fill="#000000" fill-rule="evenodd" fill-opacity="1" /><path clip-path="url(#clip910)" d="M374.636 929.871 L380.843 929.871 L380.843 908.449 L374.091 909.803 L374.091 906.343 L380.805 904.989 L384.604 904.989 L384.604 929.871 L390.811 929.871 L390.811 933.069 L374.636 933.069 L374.636 929.871 Z" fill="#000000" fill-rule="evenodd" fill-opacity="1" /><path clip-path="url(#clip910)" d="M399.143 929.871 L405.349 929.871 L405.349 908.449 L398.597 909.803 L398.597 906.343 L405.312 904.989 L409.111 904.989 L409.111 929.871 L415.318 929.871 L415.318 933.069 L399.143 933.069 L399.143 929.871 Z" fill="#000000" fill-rule="evenodd" fill-opacity="1" /><path clip-path="url(#clip910)" d="M114.931 669.634 L122.57 669.634 L122.57 643.268 L114.26 644.935 L114.26 640.676 L122.524 639.009 L127.2 639.009 L127.2 669.634 L134.839 669.634 L134.839 673.569 L114.931 673.569 L114.931 669.634 Z" fill="#000000" fill-rule="evenodd" fill-opacity="1" /><path clip-path="url(#clip910)" d="M144.283 667.69 L149.167 667.69 L149.167 673.569 L144.283 673.569 L144.283 667.69 Z" fill="#000000" fill-rule="evenodd" fill-opacity="1" /><path clip-path="url(#clip910)" d="M169.931 654.426 Q166.783 654.426 164.931 656.578 Q163.102 658.731 163.102 662.481 Q163.102 666.208 164.931 668.384 Q166.783 670.537 169.931 670.537 Q173.079 670.537 174.908 668.384 Q176.76 666.208 176.76 662.481 Q176.76 658.731 174.908 656.578 Q173.079 654.426 169.931 654.426 M179.214 639.773 L179.214 644.032 Q177.454 643.199 175.649 642.759 Q173.866 642.319 172.107 642.319 Q167.477 642.319 165.024 645.444 Q162.593 648.569 162.246 654.889 Q163.612 652.875 165.672 651.81 Q167.732 650.722 170.209 650.722 Q175.417 650.722 178.426 653.893 Q181.459 657.041 181.459 662.481 Q181.459 667.805 178.311 671.023 Q175.163 674.24 169.931 674.24 Q163.936 674.24 160.765 669.657 Q157.593 665.051 157.593 656.324 Q157.593 648.129 161.482 643.268 Q165.371 638.384 171.922 638.384 Q173.681 638.384 175.464 638.731 Q177.269 639.079 179.214 639.773 Z" fill="#000000" fill-rule="evenodd" fill-opacity="1" /><path clip-path="url(#clip910)" d="M199.514 642.088 Q195.903 642.088 194.075 645.653 Q192.269 649.194 192.269 656.324 Q192.269 663.43 194.075 666.995 Q195.903 670.537 199.514 670.537 Q203.149 670.537 204.954 666.995 Q206.783 663.43 206.783 656.324 Q206.783 649.194 204.954 645.653 Q203.149 642.088 199.514 642.088 M199.514 638.384 Q205.324 638.384 208.38 642.991 Q211.459 647.574 211.459 656.324 Q211.459 665.051 208.38 669.657 Q205.324 674.24 199.514 674.24 Q193.704 674.24 190.625 669.657 Q187.57 665.051 187.57 656.324 Q187.57 647.574 190.625 642.991 Q193.704 638.384 199.514 638.384 Z" fill="#000000" fill-rule="evenodd" fill-opacity="1" /><path clip-path="url(#clip910)" d="M229.676 642.088 Q226.065 642.088 224.236 645.653 Q222.431 649.194 222.431 656.324 Q222.431 663.43 224.236 666.995 Q226.065 670.537 229.676 670.537 Q233.31 670.537 235.116 666.995 Q236.945 663.43 236.945 656.324 Q236.945 649.194 235.116 645.653 Q233.31 642.088 229.676 642.088 M229.676 638.384 Q235.486 638.384 238.542 642.991 Q241.621 647.574 241.621 656.324 Q241.621 665.051 238.542 669.657 Q235.486 674.24 229.676 674.24 Q223.866 674.24 220.787 669.657 Q217.732 665.051 217.732 656.324 Q217.732 647.574 220.787 642.991 Q223.866 638.384 229.676 638.384 Z" fill="#000000" fill-rule="evenodd" fill-opacity="1" /><path clip-path="url(#clip910)" d="M278.009 648.106 L267.431 658.731 L278.009 669.31 L275.255 672.111 L264.63 661.486 L254.005 672.111 L251.273 669.31 L261.829 658.731 L251.273 648.106 L254.005 645.305 L264.63 655.93 L275.255 645.305 L278.009 648.106 Z" fill="#000000" fill-rule="evenodd" fill-opacity="1" /><path clip-path="url(#clip910)" d="M290.37 669.634 L298.009 669.634 L298.009 643.268 L289.699 644.935 L289.699 640.676 L297.963 639.009 L302.639 639.009 L302.639 669.634 L310.278 669.634 L310.278 673.569 L290.37 673.569 L290.37 669.634 Z" fill="#000000" fill-rule="evenodd" fill-opacity="1" /><path clip-path="url(#clip910)" d="M329.722 642.088 Q326.111 642.088 324.282 645.653 Q322.477 649.194 322.477 656.324 Q322.477 663.43 324.282 666.995 Q326.111 670.537 329.722 670.537 Q333.356 670.537 335.162 666.995 Q336.99 663.43 336.99 656.324 Q336.99 649.194 335.162 645.653 Q333.356 642.088 329.722 642.088 M329.722 638.384 Q335.532 638.384 338.588 642.991 Q341.666 647.574 341.666 656.324 Q341.666 665.051 338.588 669.657 Q335.532 674.24 329.722 674.24 Q323.912 674.24 320.833 669.657 Q317.778 665.051 317.778 656.324 Q317.778 647.574 320.833 642.991 Q323.912 638.384 329.722 638.384 Z" fill="#000000" fill-rule="evenodd" fill-opacity="1" /><path clip-path="url(#clip910)" d="M341.666 632.485 L365.778 632.485 L365.778 635.683 L341.666 635.683 L341.666 632.485 Z" fill="#000000" fill-rule="evenodd" fill-opacity="1" /><path clip-path="url(#clip910)" d="M374.636 642.961 L380.843 642.961 L380.843 621.539 L374.091 622.894 L374.091 619.433 L380.805 618.079 L384.604 618.079 L384.604 642.961 L390.811 642.961 L390.811 646.159 L374.636 646.159 L374.636 642.961 Z" fill="#000000" fill-rule="evenodd" fill-opacity="1" /><path clip-path="url(#clip910)" d="M399.143 642.961 L405.349 642.961 L405.349 621.539 L398.597 622.894 L398.597 619.433 L405.312 618.079 L409.111 618.079 L409.111 642.961 L415.318 642.961 L415.318 646.159 L399.143 646.159 L399.143 642.961 Z" fill="#000000" fill-rule="evenodd" fill-opacity="1" /><path clip-path="url(#clip910)" d="M114.931 382.724 L122.57 382.724 L122.57 356.359 L114.26 358.025 L114.26 353.766 L122.524 352.099 L127.2 352.099 L127.2 382.724 L134.839 382.724 L134.839 386.659 L114.931 386.659 L114.931 382.724 Z" fill="#000000" fill-rule="evenodd" fill-opacity="1" /><path clip-path="url(#clip910)" d="M144.283 380.78 L149.167 380.78 L149.167 386.659 L144.283 386.659 L144.283 380.78 Z" fill="#000000" fill-rule="evenodd" fill-opacity="1" /><path clip-path="url(#clip910)" d="M169.931 367.516 Q166.783 367.516 164.931 369.669 Q163.102 371.821 163.102 375.571 Q163.102 379.298 164.931 381.474 Q166.783 383.627 169.931 383.627 Q173.079 383.627 174.908 381.474 Q176.76 379.298 176.76 375.571 Q176.76 371.821 174.908 369.669 Q173.079 367.516 169.931 367.516 M179.214 352.863 L179.214 357.122 Q177.454 356.289 175.649 355.849 Q173.866 355.409 172.107 355.409 Q167.477 355.409 165.024 358.534 Q162.593 361.659 162.246 367.979 Q163.612 365.965 165.672 364.9 Q167.732 363.812 170.209 363.812 Q175.417 363.812 178.426 366.983 Q181.459 370.132 181.459 375.571 Q181.459 380.895 178.311 384.113 Q175.163 387.331 169.931 387.331 Q163.936 387.331 160.765 382.747 Q157.593 378.141 157.593 369.414 Q157.593 361.22 161.482 356.359 Q165.371 351.474 171.922 351.474 Q173.681 351.474 175.464 351.822 Q177.269 352.169 179.214 352.863 Z" fill="#000000" fill-rule="evenodd" fill-opacity="1" /><path clip-path="url(#clip910)" d="M189.561 352.099 L207.917 352.099 L207.917 356.034 L193.843 356.034 L193.843 364.507 Q194.862 364.159 195.88 363.997 Q196.899 363.812 197.917 363.812 Q203.704 363.812 207.084 366.983 Q210.463 370.155 210.463 375.571 Q210.463 381.15 206.991 384.252 Q203.519 387.331 197.2 387.331 Q195.024 387.331 192.755 386.96 Q190.51 386.59 188.102 385.849 L188.102 381.15 Q190.186 382.284 192.408 382.84 Q194.63 383.395 197.107 383.395 Q201.112 383.395 203.449 381.289 Q205.787 379.182 205.787 375.571 Q205.787 371.96 203.449 369.854 Q201.112 367.747 197.107 367.747 Q195.232 367.747 193.357 368.164 Q191.505 368.581 189.561 369.46 L189.561 352.099 Z" fill="#000000" fill-rule="evenodd" fill-opacity="1" /><path clip-path="url(#clip910)" d="M229.676 355.178 Q226.065 355.178 224.236 358.743 Q222.431 362.284 222.431 369.414 Q222.431 376.52 224.236 380.085 Q226.065 383.627 229.676 383.627 Q233.31 383.627 235.116 380.085 Q236.945 376.52 236.945 369.414 Q236.945 362.284 235.116 358.743 Q233.31 355.178 229.676 355.178 M229.676 351.474 Q235.486 351.474 238.542 356.081 Q241.621 360.664 241.621 369.414 Q241.621 378.141 238.542 382.747 Q235.486 387.331 229.676 387.331 Q223.866 387.331 220.787 382.747 Q217.732 378.141 217.732 369.414 Q217.732 360.664 220.787 356.081 Q223.866 351.474 229.676 351.474 Z" fill="#000000" fill-rule="evenodd" fill-opacity="1" /><path clip-path="url(#clip910)" d="M278.009 361.196 L267.431 371.821 L278.009 382.4 L275.255 385.201 L264.63 374.576 L254.005 385.201 L251.273 382.4 L261.829 371.821 L251.273 361.196 L254.005 358.396 L264.63 369.02 L275.255 358.396 L278.009 361.196 Z" fill="#000000" fill-rule="evenodd" fill-opacity="1" /><path clip-path="url(#clip910)" d="M290.37 382.724 L298.009 382.724 L298.009 356.359 L289.699 358.025 L289.699 353.766 L297.963 352.099 L302.639 352.099 L302.639 382.724 L310.278 382.724 L310.278 386.659 L290.37 386.659 L290.37 382.724 Z" fill="#000000" fill-rule="evenodd" fill-opacity="1" /><path clip-path="url(#clip910)" d="M329.722 355.178 Q326.111 355.178 324.282 358.743 Q322.477 362.284 322.477 369.414 Q322.477 376.52 324.282 380.085 Q326.111 383.627 329.722 383.627 Q333.356 383.627 335.162 380.085 Q336.99 376.52 336.99 369.414 Q336.99 362.284 335.162 358.743 Q333.356 355.178 329.722 355.178 M329.722 351.474 Q335.532 351.474 338.588 356.081 Q341.666 360.664 341.666 369.414 Q341.666 378.141 338.588 382.747 Q335.532 387.331 329.722 387.331 Q323.912 387.331 320.833 382.747 Q317.778 378.141 317.778 369.414 Q317.778 360.664 320.833 356.081 Q323.912 351.474 329.722 351.474 Z" fill="#000000" fill-rule="evenodd" fill-opacity="1" /><path clip-path="url(#clip910)" d="M341.666 345.576 L365.778 345.576 L365.778 348.773 L341.666 348.773 L341.666 345.576 Z" fill="#000000" fill-rule="evenodd" fill-opacity="1" /><path clip-path="url(#clip910)" d="M374.636 356.052 L380.843 356.052 L380.843 334.63 L374.091 335.984 L374.091 332.523 L380.805 331.169 L384.604 331.169 L384.604 356.052 L390.811 356.052 L390.811 359.249 L374.636 359.249 L374.636 356.052 Z" fill="#000000" fill-rule="evenodd" fill-opacity="1" /><path clip-path="url(#clip910)" d="M399.143 356.052 L405.349 356.052 L405.349 334.63 L398.597 335.984 L398.597 332.523 L405.312 331.169 L409.111 331.169 L409.111 356.052 L415.318 356.052 L415.318 359.249 L399.143 359.249 L399.143 356.052 Z" fill="#000000" fill-rule="evenodd" fill-opacity="1" /><path clip-path="url(#clip910)" d="M41.7242 1094.09 Q42.4244 1092.02 44.7161 1090.08 Q47.0077 1088.11 51.0181 1086.14 L64.0042 1079.61 L64.0042 1086.52 L51.8138 1092.6 Q47.0395 1094.95 45.48 1097.18 Q43.9204 1099.38 43.9204 1103.2 L43.9204 1110.2 L64.0042 1110.2 L64.0042 1116.63 L16.4842 1116.63 L16.4842 1102.11 Q16.4842 1093.97 19.8898 1089.95 Q23.2955 1085.94 30.1704 1085.94 Q34.6582 1085.94 37.6183 1088.04 Q40.5784 1090.11 41.7242 1094.09 M21.7677 1110.2 L38.6368 1110.2 L38.6368 1102.11 Q38.6368 1097.47 36.5043 1095.11 Q34.34 1092.72 30.1704 1092.72 Q26.0009 1092.72 23.9002 1095.11 Q21.7677 1097.47 21.7677 1102.11 L21.7677 1110.2 Z" fill="#000000" fill-rule="evenodd" fill-opacity="1" /><path clip-path="url(#clip910)" d="M44.7161 1044.03 L47.5806 1044.03 L47.5806 1070.95 Q53.6281 1070.57 56.8109 1067.32 Q59.9619 1064.05 59.9619 1058.22 Q59.9619 1054.85 59.1344 1051.7 Q58.3069 1048.51 56.6518 1045.39 L62.1899 1045.39 Q63.5267 1048.55 64.227 1051.86 Q64.9272 1055.17 64.9272 1058.57 Q64.9272 1067.1 59.9619 1072.1 Q54.9967 1077.06 46.5303 1077.06 Q37.7774 1077.06 32.6531 1072.35 Q27.4968 1067.61 27.4968 1059.59 Q27.4968 1052.4 32.1438 1048.23 Q36.7589 1044.03 44.7161 1044.03 M42.9973 1049.88 Q38.1912 1049.95 35.3266 1052.59 Q32.4621 1055.2 32.4621 1059.53 Q32.4621 1064.43 35.2312 1067.39 Q38.0002 1070.32 43.0292 1070.76 L42.9973 1049.88 Z" fill="#000000" fill-rule="evenodd" fill-opacity="1" /><path clip-path="url(#clip910)" d="M29.4065 1011.69 L34.9447 1011.69 Q33.6716 1014.17 33.035 1016.84 Q32.3984 1019.52 32.3984 1022.38 Q32.3984 1026.74 33.7352 1028.94 Q35.072 1031.1 37.7456 1031.1 Q39.7826 1031.1 40.9603 1029.54 Q42.1061 1027.98 43.1565 1023.27 L43.6021 1021.27 Q44.9389 1015.03 47.3897 1012.42 Q49.8086 1009.78 54.1691 1009.78 Q59.1344 1009.78 62.0308 1013.73 Q64.9272 1017.64 64.9272 1024.52 Q64.9272 1027.38 64.3543 1030.5 Q63.8132 1033.59 62.6992 1037.02 L56.6518 1037.02 Q58.3387 1033.78 59.198 1030.63 Q60.0256 1027.48 60.0256 1024.39 Q60.0256 1020.25 58.6251 1018.02 Q57.1929 1015.79 54.6147 1015.79 Q52.2276 1015.79 50.9545 1017.42 Q49.6813 1019.01 48.5037 1024.45 L48.0262 1026.49 Q46.8804 1031.93 44.5251 1034.35 Q42.138 1036.77 38.0002 1036.77 Q32.9713 1036.77 30.2341 1033.2 Q27.4968 1029.64 27.4968 1023.08 Q27.4968 1019.84 27.9743 1016.97 Q28.4517 1014.11 29.4065 1011.69 Z" fill="#000000" fill-rule="evenodd" fill-opacity="1" /><path clip-path="url(#clip910)" d="M58.657 994.787 L77.5631 994.787 L77.5631 1000.68 L28.3562 1000.68 L28.3562 994.787 L33.7671 994.787 Q30.5842 992.941 29.0564 990.14 Q27.4968 987.308 27.4968 983.393 Q27.4968 976.9 32.6531 972.857 Q37.8093 968.783 46.212 968.783 Q54.6147 968.783 59.771 972.857 Q64.9272 976.9 64.9272 983.393 Q64.9272 987.308 63.3994 990.14 Q61.8398 992.941 58.657 994.787 M46.212 974.863 Q39.7508 974.863 36.0905 977.536 Q32.3984 980.178 32.3984 984.825 Q32.3984 989.472 36.0905 992.146 Q39.7508 994.787 46.212 994.787 Q52.6732 994.787 56.3653 992.146 Q60.0256 989.472 60.0256 984.825 Q60.0256 980.178 56.3653 977.536 Q52.6732 974.863 46.212 974.863 Z" fill="#000000" fill-rule="evenodd" fill-opacity="1" /><path clip-path="url(#clip910)" d="M32.4621 945.262 Q32.4621 949.973 36.1542 952.71 Q39.8145 955.447 46.212 955.447 Q52.6095 955.447 56.3017 952.742 Q59.9619 950.005 59.9619 945.262 Q59.9619 940.583 56.2698 937.846 Q52.5777 935.109 46.212 935.109 Q39.8781 935.109 36.186 937.846 Q32.4621 940.583 32.4621 945.262 M27.4968 945.262 Q27.4968 937.623 32.4621 933.263 Q37.4273 928.902 46.212 928.902 Q54.9649 928.902 59.9619 933.263 Q64.9272 937.623 64.9272 945.262 Q64.9272 952.933 59.9619 957.293 Q54.9649 961.622 46.212 961.622 Q37.4273 961.622 32.4621 957.293 Q27.4968 952.933 27.4968 945.262 Z" fill="#000000" fill-rule="evenodd" fill-opacity="1" /><path clip-path="url(#clip910)" d="M42.4881 889.562 L64.0042 889.562 L64.0042 895.419 L42.679 895.419 Q37.6183 895.419 35.1038 897.392 Q32.5894 899.365 32.5894 903.312 Q32.5894 908.055 35.6131 910.792 Q38.6368 913.529 43.8567 913.529 L64.0042 913.529 L64.0042 919.417 L28.3562 919.417 L28.3562 913.529 L33.8944 913.529 Q30.6797 911.428 29.0883 908.596 Q27.4968 905.731 27.4968 902.007 Q27.4968 895.864 31.3163 892.713 Q35.1038 889.562 42.4881 889.562 Z" fill="#000000" fill-rule="evenodd" fill-opacity="1" /><path clip-path="url(#clip910)" d="M29.4065 855.156 L34.9447 855.156 Q33.6716 857.638 33.035 860.312 Q32.3984 862.985 32.3984 865.85 Q32.3984 870.21 33.7352 872.407 Q35.072 874.571 37.7456 874.571 Q39.7826 874.571 40.9603 873.011 Q42.1061 871.452 43.1565 866.741 L43.6021 864.736 Q44.9389 858.498 47.3897 855.888 Q49.8086 853.246 54.1691 853.246 Q59.1344 853.246 62.0308 857.193 Q64.9272 861.108 64.9272 867.982 Q64.9272 870.847 64.3543 873.966 Q63.8132 877.054 62.6992 880.491 L56.6518 880.491 Q58.3387 877.245 59.198 874.094 Q60.0256 870.943 60.0256 867.855 Q60.0256 863.717 58.6251 861.489 Q57.1929 859.261 54.6147 859.261 Q52.2276 859.261 50.9545 860.885 Q49.6813 862.476 48.5037 867.919 L48.0262 869.956 Q46.8804 875.399 44.5251 877.817 Q42.138 880.236 38.0002 880.236 Q32.9713 880.236 30.2341 876.672 Q27.4968 873.107 27.4968 866.55 Q27.4968 863.304 27.9743 860.439 Q28.4517 857.575 29.4065 855.156 Z" fill="#000000" fill-rule="evenodd" fill-opacity="1" /><path clip-path="url(#clip910)" d="M44.7161 813.428 L47.5806 813.428 L47.5806 840.355 Q53.6281 839.973 56.8109 836.727 Q59.9619 833.449 59.9619 827.624 Q59.9619 824.25 59.1344 821.099 Q58.3069 817.916 56.6518 814.797 L62.1899 814.797 Q63.5267 817.948 64.227 821.258 Q64.9272 824.568 64.9272 827.974 Q64.9272 836.504 59.9619 841.501 Q54.9967 846.466 46.5303 846.466 Q37.7774 846.466 32.6531 841.756 Q27.4968 837.013 27.4968 828.993 Q27.4968 821.799 32.1438 817.63 Q36.7589 813.428 44.7161 813.428 M42.9973 819.285 Q38.1912 819.348 35.3266 821.99 Q32.4621 824.6 32.4621 828.929 Q32.4621 833.83 35.2312 836.791 Q38.0002 839.719 43.0292 840.164 L42.9973 819.285 Z" fill="#000000" fill-rule="evenodd" fill-opacity="1" /><path clip-path="url(#clip910)" d="M14.5426 769.028 Q21.8632 773.293 29.0246 775.361 Q36.186 777.43 43.5384 777.43 Q50.8908 777.43 58.1159 775.361 Q65.3091 773.261 72.5979 769.028 L72.5979 774.12 Q65.1182 778.894 57.8931 781.282 Q50.668 783.637 43.5384 783.637 Q36.4406 783.637 29.2474 781.282 Q22.0542 778.926 14.5426 774.12 L14.5426 769.028 Z" fill="#000000" fill-rule="evenodd" fill-opacity="1" /><path clip-path="url(#clip910)" d="M46.0847 741.464 Q46.0847 748.562 47.7079 751.299 Q49.3312 754.036 53.2461 754.036 Q56.3653 754.036 58.2114 751.999 Q60.0256 749.93 60.0256 746.397 Q60.0256 741.528 56.5881 738.599 Q53.1188 735.639 47.3897 735.639 L46.0847 735.639 L46.0847 741.464 M43.6657 729.783 L64.0042 729.783 L64.0042 735.639 L58.5933 735.639 Q61.8398 737.645 63.3994 740.637 Q64.9272 743.628 64.9272 747.957 Q64.9272 753.432 61.8716 756.678 Q58.7843 759.893 53.6281 759.893 Q47.6125 759.893 44.5569 755.882 Q41.5014 751.84 41.5014 743.851 L41.5014 735.639 L40.9285 735.639 Q36.8862 735.639 34.6901 738.313 Q32.4621 740.955 32.4621 745.761 Q32.4621 748.816 33.1941 751.713 Q33.9262 754.609 35.3903 757.283 L29.9795 757.283 Q28.7381 754.068 28.1334 751.044 Q27.4968 748.021 27.4968 745.156 Q27.4968 737.422 31.5072 733.602 Q35.5176 729.783 43.6657 729.783 Z" fill="#000000" fill-rule="evenodd" fill-opacity="1" /><path clip-path="url(#clip910)" d="M33.8307 697.063 Q33.2578 698.05 33.0032 699.228 Q32.7167 700.373 32.7167 701.774 Q32.7167 706.739 35.9632 709.413 Q39.1779 712.054 45.2253 712.054 L64.0042 712.054 L64.0042 717.943 L28.3562 717.943 L28.3562 712.054 L33.8944 712.054 Q30.6479 710.208 29.0883 707.248 Q27.4968 704.288 27.4968 700.055 Q27.4968 699.45 27.5923 698.718 Q27.656 697.986 27.8151 697.095 L33.8307 697.063 Z" fill="#000000" fill-rule="evenodd" fill-opacity="1" /><path clip-path="url(#clip910)" d="M46.212 665.33 Q39.7508 665.33 36.0905 668.004 Q32.3984 670.646 32.3984 675.293 Q32.3984 679.94 36.0905 682.613 Q39.7508 685.255 46.212 685.255 Q52.6732 685.255 56.3653 682.613 Q60.0256 679.94 60.0256 675.293 Q60.0256 670.646 56.3653 668.004 Q52.6732 665.33 46.212 665.33 M33.7671 685.255 Q30.5842 683.409 29.0564 680.608 Q27.4968 677.775 27.4968 673.86 Q27.4968 667.367 32.6531 663.325 Q37.8093 659.251 46.212 659.251 Q54.6147 659.251 59.771 663.325 Q64.9272 667.367 64.9272 673.86 Q64.9272 677.775 63.3994 680.608 Q61.8398 683.409 58.657 685.255 L64.0042 685.255 L64.0042 691.143 L14.479 691.143 L14.479 685.255 L33.7671 685.255 Z" fill="#000000" fill-rule="evenodd" fill-opacity="1" /><path clip-path="url(#clip910)" d="M55.9197 648.716 L55.9197 642 L64.0042 642 L64.0042 648.716 L55.9197 648.716 Z" fill="#000000" fill-rule="evenodd" fill-opacity="1" /><path clip-path="url(#clip910)" d="M49.9359 608.707 L28.3562 608.707 L28.3562 602.851 L49.7131 602.851 Q54.7739 602.851 57.3202 600.877 Q59.8346 598.904 59.8346 594.957 Q59.8346 590.215 56.8109 587.478 Q53.7872 584.709 48.5673 584.709 L28.3562 584.709 L28.3562 578.852 L64.0042 578.852 L64.0042 584.709 L58.5296 584.709 Q61.7762 586.841 63.3676 589.674 Q64.9272 592.475 64.9272 596.199 Q64.9272 602.342 61.1078 605.524 Q57.2883 608.707 49.9359 608.707 M27.4968 593.971 L27.4968 593.971 Z" fill="#000000" fill-rule="evenodd" fill-opacity="1" /><path clip-path="url(#clip910)" d="M42.4881 537.157 L64.0042 537.157 L64.0042 543.013 L42.679 543.013 Q37.6183 543.013 35.1038 544.987 Q32.5894 546.96 32.5894 550.907 Q32.5894 555.649 35.6131 558.386 Q38.6368 561.124 43.8567 561.124 L64.0042 561.124 L64.0042 567.012 L28.3562 567.012 L28.3562 561.124 L33.8944 561.124 Q30.6797 559.023 29.0883 556.19 Q27.4968 553.326 27.4968 549.602 Q27.4968 543.459 31.3163 540.308 Q35.1038 537.157 42.4881 537.157 Z" fill="#000000" fill-rule="evenodd" fill-opacity="1" /><path clip-path="url(#clip910)" d="M28.3562 525.476 L28.3562 519.619 L64.0042 519.619 L64.0042 525.476 L28.3562 525.476 M14.479 525.476 L14.479 519.619 L21.895 519.619 L21.895 525.476 L14.479 525.476 Z" fill="#000000" fill-rule="evenodd" fill-opacity="1" /><path clip-path="url(#clip910)" d="M18.2347 501.572 L28.3562 501.572 L28.3562 489.509 L32.9077 489.509 L32.9077 501.572 L52.2594 501.572 Q56.6199 501.572 57.8613 500.395 Q59.1026 499.185 59.1026 495.525 L59.1026 489.509 L64.0042 489.509 L64.0042 495.525 Q64.0042 502.304 61.4897 504.883 Q58.9434 507.461 52.2594 507.461 L32.9077 507.461 L32.9077 511.758 L28.3562 511.758 L28.3562 507.461 L18.2347 507.461 L18.2347 501.572 Z" fill="#000000" fill-rule="evenodd" fill-opacity="1" /><path clip-path="url(#clip910)" d="M29.4065 459.081 L34.9447 459.081 Q33.6716 461.564 33.035 464.238 Q32.3984 466.911 32.3984 469.776 Q32.3984 474.136 33.7352 476.332 Q35.072 478.497 37.7456 478.497 Q39.7826 478.497 40.9603 476.937 Q42.1061 475.378 43.1565 470.667 L43.6021 468.662 Q44.9389 462.423 47.3897 459.813 Q49.8086 457.172 54.1691 457.172 Q59.1344 457.172 62.0308 461.118 Q64.9272 465.033 64.9272 471.908 Q64.9272 474.773 64.3543 477.892 Q63.8132 480.979 62.6992 484.417 L56.6518 484.417 Q58.3387 481.17 59.198 478.019 Q60.0256 474.868 60.0256 471.781 Q60.0256 467.643 58.6251 465.415 Q57.1929 463.187 54.6147 463.187 Q52.2276 463.187 50.9545 464.81 Q49.6813 466.402 48.5037 471.845 L48.0262 473.882 Q46.8804 479.324 44.5251 481.743 Q42.138 484.162 38.0002 484.162 Q32.9713 484.162 30.2341 480.597 Q27.4968 477.033 27.4968 470.476 Q27.4968 467.229 27.9743 464.365 Q28.4517 461.5 29.4065 459.081 Z" fill="#000000" fill-rule="evenodd" fill-opacity="1" /><path clip-path="url(#clip910)" d="M14.5426 448.769 L14.5426 443.676 Q22.0542 438.902 29.2474 436.547 Q36.4406 434.16 43.5384 434.16 Q50.668 434.16 57.8931 436.547 Q65.1182 438.902 72.5979 443.676 L72.5979 448.769 Q65.3091 444.536 58.1159 442.467 Q50.8908 440.366 43.5384 440.366 Q36.186 440.366 29.0246 442.467 Q21.8632 444.536 14.5426 448.769 Z" fill="#000000" fill-rule="evenodd" fill-opacity="1" /><path clip-path="url(#clip910)" d="M1247.84 17.6457 Q1238.93 17.6457 1233.66 24.2892 Q1228.44 30.9327 1228.44 42.3968 Q1228.44 53.8203 1233.66 60.4638 Q1238.93 67.1073 1247.84 67.1073 Q1256.75 67.1073 1261.94 60.4638 Q1267.16 53.8203 1267.16 42.3968 Q1267.16 30.9327 1261.94 24.2892 Q1256.75 17.6457 1247.84 17.6457 M1247.84 11.0023 Q1260.56 11.0023 1268.17 19.5497 Q1275.79 28.0566 1275.79 42.3968 Q1275.79 56.6965 1268.17 65.2439 Q1260.56 73.7508 1247.84 73.7508 Q1235.08 73.7508 1227.42 65.2439 Q1219.81 56.737 1219.81 42.3968 Q1219.81 28.0566 1227.42 19.5497 Q1235.08 11.0023 1247.84 11.0023 Z" fill="#000000" fill-rule="evenodd" fill-opacity="1" /><path clip-path="url(#clip910)" d="M1320.92 28.9478 L1320.92 35.9153 Q1317.76 34.1734 1314.56 33.3227 Q1311.4 32.4315 1308.16 32.4315 Q1300.91 32.4315 1296.9 37.0496 Q1292.89 41.6271 1292.89 49.9314 Q1292.89 58.2358 1296.9 62.8538 Q1300.91 67.4314 1308.16 67.4314 Q1311.4 67.4314 1314.56 66.5807 Q1317.76 65.6895 1320.92 63.9476 L1320.92 70.8341 Q1317.8 72.2924 1314.44 73.0216 Q1311.11 73.7508 1307.35 73.7508 Q1297.1 73.7508 1291.06 67.3098 Q1285.03 60.8689 1285.03 49.9314 Q1285.03 38.832 1291.1 32.472 Q1297.22 26.1121 1307.83 26.1121 Q1311.28 26.1121 1314.56 26.8413 Q1317.84 27.5299 1320.92 28.9478 Z" fill="#000000" fill-rule="evenodd" fill-opacity="1" /><path clip-path="url(#clip910)" d="M1341.25 14.324 L1341.25 27.2059 L1356.61 27.2059 L1356.61 32.9987 L1341.25 32.9987 L1341.25 57.6282 Q1341.25 63.1779 1342.75 64.7578 Q1344.29 66.3376 1348.95 66.3376 L1356.61 66.3376 L1356.61 72.576 L1348.95 72.576 Q1340.32 72.576 1337.04 69.3758 Q1333.76 66.1351 1333.76 57.6282 L1333.76 32.9987 L1328.29 32.9987 L1328.29 27.2059 L1333.76 27.2059 L1333.76 14.324 L1341.25 14.324 Z" fill="#000000" fill-rule="evenodd" fill-opacity="1" /><path clip-path="url(#clip910)" d="M1365.64 54.671 L1365.64 27.2059 L1373.09 27.2059 L1373.09 54.3874 Q1373.09 60.8284 1375.6 64.0691 Q1378.12 67.2693 1383.14 67.2693 Q1389.18 67.2693 1392.66 63.421 Q1396.18 59.5726 1396.18 52.9291 L1396.18 27.2059 L1403.64 27.2059 L1403.64 72.576 L1396.18 72.576 L1396.18 65.6084 Q1393.47 69.7404 1389.86 71.7658 Q1386.3 73.7508 1381.56 73.7508 Q1373.74 73.7508 1369.69 68.8897 Q1365.64 64.0286 1365.64 54.671 M1384.4 26.1121 L1384.4 26.1121 Z" fill="#000000" fill-rule="evenodd" fill-opacity="1" /><path clip-path="url(#clip910)" d="M1426.2 65.7705 L1426.2 89.8329 L1418.71 89.8329 L1418.71 27.2059 L1426.2 27.2059 L1426.2 34.0924 Q1428.55 30.0415 1432.11 28.0971 Q1435.72 26.1121 1440.7 26.1121 Q1448.97 26.1121 1454.11 32.6746 Q1459.3 39.2371 1459.3 49.9314 Q1459.3 60.6258 1454.11 67.1883 Q1448.97 73.7508 1440.7 73.7508 Q1435.72 73.7508 1432.11 71.8063 Q1428.55 69.8214 1426.2 65.7705 M1451.56 49.9314 Q1451.56 41.7081 1448.16 37.0496 Q1444.79 32.3505 1438.88 32.3505 Q1432.97 32.3505 1429.56 37.0496 Q1426.2 41.7081 1426.2 49.9314 Q1426.2 58.1548 1429.56 62.8538 Q1432.97 67.5124 1438.88 67.5124 Q1444.79 67.5124 1448.16 62.8538 Q1451.56 58.1548 1451.56 49.9314 Z" fill="#000000" fill-rule="evenodd" fill-opacity="1" /><path clip-path="url(#clip910)" d="M1489.23 32.4315 Q1483.24 32.4315 1479.75 37.1306 Q1476.27 41.7891 1476.27 49.9314 Q1476.27 58.0738 1479.71 62.7728 Q1483.2 67.4314 1489.23 67.4314 Q1495.19 67.4314 1498.67 62.7323 Q1502.15 58.0333 1502.15 49.9314 Q1502.15 41.8701 1498.67 37.1711 Q1495.19 32.4315 1489.23 32.4315 M1489.23 26.1121 Q1498.95 26.1121 1504.5 32.4315 Q1510.05 38.7509 1510.05 49.9314 Q1510.05 61.0714 1504.5 67.4314 Q1498.95 73.7508 1489.23 73.7508 Q1479.47 73.7508 1473.92 67.4314 Q1468.41 61.0714 1468.41 49.9314 Q1468.41 38.7509 1473.92 32.4315 Q1479.47 26.1121 1489.23 26.1121 Z" fill="#000000" fill-rule="evenodd" fill-opacity="1" /><path clip-path="url(#clip910)" d="M1522.41 9.54393 L1529.86 9.54393 L1529.86 72.576 L1522.41 72.576 L1522.41 9.54393 Z" fill="#000000" fill-rule="evenodd" fill-opacity="1" /><path clip-path="url(#clip910)" d="M1584.27 48.0275 L1584.27 51.6733 L1550 51.6733 Q1550.48 59.3701 1554.61 63.421 Q1558.79 67.4314 1566.2 67.4314 Q1570.49 67.4314 1574.5 66.3781 Q1578.55 65.3249 1582.52 63.2184 L1582.52 70.267 Q1578.51 71.9684 1574.3 72.8596 Q1570.09 73.7508 1565.75 73.7508 Q1554.9 73.7508 1548.54 67.4314 Q1542.22 61.1119 1542.22 50.3365 Q1542.22 39.1965 1548.21 32.6746 Q1554.25 26.1121 1564.46 26.1121 Q1573.61 26.1121 1578.92 32.0264 Q1584.27 37.9003 1584.27 48.0275 M1576.81 45.84 Q1576.73 39.7232 1573.37 36.0774 Q1570.05 32.4315 1564.54 32.4315 Q1558.3 32.4315 1554.53 35.9558 Q1550.81 39.4801 1550.24 45.8805 L1576.81 45.84 Z" fill="#000000" fill-rule="evenodd" fill-opacity="1" /><polyline clip-path="url(#clip913)" style="stroke:#000000; stroke-linecap:butt; stroke-linejoin:round; stroke-width:4; stroke-opacity:1; fill:none" points="
  603.795,837.595 603.795,245.758 
  "/>
<polyline clip-path="url(#clip913)" style="stroke:#000000; stroke-linecap:butt; stroke-linejoin:round; stroke-width:4; stroke-opacity:1; fill:none" points="
  899.44,1390.41 899.44,872.426 
  "/>
<polyline clip-path="url(#clip913)" style="stroke:#000000; stroke-linecap:butt; stroke-linejoin:round; stroke-width:4; stroke-opacity:1; fill:none" points="
  1677.97,614.265 1677.97,160.373 
  "/>
<polyline clip-path="url(#clip913)" style="stroke:#000000; stroke-linecap:butt; stroke-linejoin:round; stroke-width:4; stroke-opacity:1; fill:none" points="
  1904.63,1320.41 1904.63,957.007 
  "/>
<polyline clip-path="url(#clip913)" style="stroke:#000000; stroke-linecap:butt; stroke-linejoin:round; stroke-width:4; stroke-opacity:1; fill:none" points="
  2200.28,1069.42 2200.28,739.415 
  "/>
<line clip-path="url(#clip913)" x1="619.795" y1="837.595" x2="587.795" y2="837.595" style="stroke:#000000; stroke-width:3.2; stroke-opacity:1"/>
<line clip-path="url(#clip913)" x1="619.795" y1="245.758" x2="587.795" y2="245.758" style="stroke:#000000; stroke-width:3.2; stroke-opacity:1"/>
<line clip-path="url(#clip913)" x1="915.44" y1="1390.41" x2="883.44" y2="1390.41" style="stroke:#000000; stroke-width:3.2; stroke-opacity:1"/>
<line clip-path="url(#clip913)" x1="915.44" y1="872.426" x2="883.44" y2="872.426" style="stroke:#000000; stroke-width:3.2; stroke-opacity:1"/>
<line clip-path="url(#clip913)" x1="1693.97" y1="614.265" x2="1661.97" y2="614.265" style="stroke:#000000; stroke-width:3.2; stroke-opacity:1"/>
<line clip-path="url(#clip913)" x1="1693.97" y1="160.373" x2="1661.97" y2="160.373" style="stroke:#000000; stroke-width:3.2; stroke-opacity:1"/>
<line clip-path="url(#clip913)" x1="1920.63" y1="1320.41" x2="1888.63" y2="1320.41" style="stroke:#000000; stroke-width:3.2; stroke-opacity:1"/>
<line clip-path="url(#clip913)" x1="1920.63" y1="957.007" x2="1888.63" y2="957.007" style="stroke:#000000; stroke-width:3.2; stroke-opacity:1"/>
<line clip-path="url(#clip913)" x1="2216.28" y1="1069.42" x2="2184.28" y2="1069.42" style="stroke:#000000; stroke-width:3.2; stroke-opacity:1"/>
<line clip-path="url(#clip913)" x1="2216.28" y1="739.415" x2="2184.28" y2="739.415" style="stroke:#000000; stroke-width:3.2; stroke-opacity:1"/>
<circle clip-path="url(#clip913)" cx="603.795" cy="540.816" r="14" fill="#009af9" fill-rule="evenodd" fill-opacity="1" stroke="#000000" stroke-opacity="1" stroke-width="3.2"/>
<circle clip-path="url(#clip913)" cx="899.44" cy="1131.85" r="14" fill="#009af9" fill-rule="evenodd" fill-opacity="1" stroke="#000000" stroke-opacity="1" stroke-width="3.2"/>
<circle clip-path="url(#clip913)" cx="1677.97" cy="380.146" r="14" fill="#009af9" fill-rule="evenodd" fill-opacity="1" stroke="#000000" stroke-opacity="1" stroke-width="3.2"/>
<circle clip-path="url(#clip913)" cx="1904.63" cy="1131.85" r="14" fill="#009af9" fill-rule="evenodd" fill-opacity="1" stroke="#000000" stroke-opacity="1" stroke-width="3.2"/>
<circle clip-path="url(#clip913)" cx="2200.28" cy="902.322" r="14" fill="#009af9" fill-rule="evenodd" fill-opacity="1" stroke="#000000" stroke-opacity="1" stroke-width="3.2"/>
<polyline clip-path="url(#clip913)" style="stroke:#009af9; stroke-linecap:butt; stroke-linejoin:round; stroke-width:4; stroke-opacity:1; fill:none" points="
  555.9,867.918 2248.17,867.918 
  "/>
<path clip-path="url(#clip913)" d="
M555.9 694.333 L2248.17 694.333 L2248.17 1041.5 L555.9 1041.5  Z
  " fill="#009af9" fill-rule="evenodd" fill-opacity="0.25"/>
<polyline clip-path="url(#clip913)" style="stroke:#009af9; stroke-linecap:butt; stroke-linejoin:round; stroke-width:4; stroke-opacity:0.25; fill:none" points="
  555.9,694.333 2248.17,694.333 
  "/>
<polyline clip-path="url(#clip913)" style="stroke:#e26f46; stroke-linecap:butt; stroke-linejoin:round; stroke-width:4; stroke-opacity:1; fill:none" points="
  505.132,867.801 2298.94,867.801 
  "/>
<path clip-path="url(#clip913)" d="
M505.132 773.63 L2298.94 773.63 L2298.94 961.972 L505.132 961.972  Z
  " fill="#e26f46" fill-rule="evenodd" fill-opacity="0.25"/>
<polyline clip-path="url(#clip913)" style="stroke:#e26f46; stroke-linecap:butt; stroke-linejoin:round; stroke-width:4; stroke-opacity:0.25; fill:none" points="
  505.132,773.63 2298.94,773.63 
  "/>
<path clip-path="url(#clip910)" d="
M1742.25 322.454 L2289.37 322.454 L2289.37 166.934 L1742.25 166.934  Z
  " fill="#ffffff" fill-rule="evenodd" fill-opacity="1"/>
<polyline clip-path="url(#clip910)" style="stroke:#000000; stroke-linecap:butt; stroke-linejoin:round; stroke-width:4; stroke-opacity:1; fill:none" points="
  1742.25,322.454 2289.37,322.454 2289.37,166.934 1742.25,166.934 1742.25,322.454 
  "/>
<path clip-path="url(#clip910)" d="
M1763.38 239.51 L1890.14 239.51 L1890.14 198.038 L1763.38 198.038 L1763.38 239.51  Z
  " fill="#009af9" fill-rule="evenodd" fill-opacity="0.25"/>
<polyline clip-path="url(#clip910)" style="stroke:#009af9; stroke-linecap:butt; stroke-linejoin:round; stroke-width:4; stroke-opacity:0.25; fill:none" points="
  1763.38,198.038 1890.14,198.038 
  "/>
<path clip-path="url(#clip910)" d="M1933.51 202.628 L1933.51 207.188 Q1930.85 205.915 1928.49 205.29 Q1926.13 204.665 1923.93 204.665 Q1920.11 204.665 1918.02 206.146 Q1915.96 207.628 1915.96 210.359 Q1915.96 212.651 1917.33 213.831 Q1918.72 214.989 1922.56 215.706 L1925.39 216.285 Q1930.62 217.28 1933.09 219.804 Q1935.59 222.304 1935.59 226.517 Q1935.59 231.54 1932.21 234.132 Q1928.86 236.725 1922.35 236.725 Q1919.9 236.725 1917.12 236.169 Q1914.37 235.614 1911.4 234.526 L1911.4 229.711 Q1914.25 231.308 1916.98 232.118 Q1919.71 232.929 1922.35 232.929 Q1926.36 232.929 1928.53 231.354 Q1930.71 229.78 1930.71 226.864 Q1930.71 224.317 1929.14 222.882 Q1927.59 221.447 1924.02 220.73 L1921.17 220.174 Q1915.94 219.132 1913.6 216.91 Q1911.27 214.688 1911.27 210.73 Q1911.27 206.146 1914.48 203.507 Q1917.72 200.869 1923.4 200.869 Q1925.83 200.869 1928.35 201.308 Q1930.87 201.748 1933.51 202.628 Z" fill="#000000" fill-rule="evenodd" fill-opacity="1" /><path clip-path="url(#clip910)" d="M1961.36 211.123 L1961.36 215.105 Q1959.55 214.109 1957.72 213.623 Q1955.92 213.114 1954.07 213.114 Q1949.92 213.114 1947.63 215.753 Q1945.34 218.368 1945.34 223.114 Q1945.34 227.859 1947.63 230.498 Q1949.92 233.114 1954.07 233.114 Q1955.92 233.114 1957.72 232.628 Q1959.55 232.118 1961.36 231.123 L1961.36 235.058 Q1959.58 235.891 1957.65 236.308 Q1955.76 236.725 1953.6 236.725 Q1947.75 236.725 1944.3 233.044 Q1940.85 229.364 1940.85 223.114 Q1940.85 216.771 1944.32 213.137 Q1947.82 209.503 1953.88 209.503 Q1955.85 209.503 1957.72 209.919 Q1959.6 210.313 1961.36 211.123 Z" fill="#000000" fill-rule="evenodd" fill-opacity="1" /><path clip-path="url(#clip910)" d="M1980.55 223.021 Q1975.39 223.021 1973.4 224.202 Q1971.4 225.382 1971.4 228.23 Q1971.4 230.498 1972.89 231.841 Q1974.39 233.16 1976.96 233.16 Q1980.5 233.16 1982.63 230.66 Q1984.78 228.137 1984.78 223.97 L1984.78 223.021 L1980.55 223.021 M1989.04 221.262 L1989.04 236.054 L1984.78 236.054 L1984.78 232.118 Q1983.33 234.479 1981.15 235.614 Q1978.97 236.725 1975.83 236.725 Q1971.84 236.725 1969.48 234.503 Q1967.15 232.257 1967.15 228.507 Q1967.15 224.132 1970.06 221.91 Q1973 219.688 1978.81 219.688 L1984.78 219.688 L1984.78 219.271 Q1984.78 216.331 1982.84 214.734 Q1980.92 213.114 1977.42 213.114 Q1975.2 213.114 1973.09 213.646 Q1970.99 214.179 1969.04 215.243 L1969.04 211.308 Q1971.38 210.406 1973.58 209.966 Q1975.78 209.503 1977.86 209.503 Q1983.49 209.503 1986.27 212.419 Q1989.04 215.336 1989.04 221.262 Z" fill="#000000" fill-rule="evenodd" fill-opacity="1" /><path clip-path="url(#clip910)" d="M1997.82 200.035 L2002.08 200.035 L2002.08 236.054 L1997.82 236.054 L1997.82 200.035 Z" fill="#000000" fill-rule="evenodd" fill-opacity="1" /><path clip-path="url(#clip910)" d="M2033.16 222.026 L2033.16 224.109 L2013.58 224.109 Q2013.86 228.507 2016.22 230.822 Q2018.6 233.114 2022.84 233.114 Q2025.29 233.114 2027.58 232.512 Q2029.9 231.91 2032.17 230.706 L2032.17 234.734 Q2029.88 235.706 2027.47 236.216 Q2025.06 236.725 2022.58 236.725 Q2016.38 236.725 2012.75 233.114 Q2009.14 229.503 2009.14 223.345 Q2009.14 216.98 2012.56 213.253 Q2016.01 209.503 2021.84 209.503 Q2027.08 209.503 2030.11 212.882 Q2033.16 216.239 2033.16 222.026 M2028.9 220.776 Q2028.86 217.28 2026.94 215.197 Q2025.04 213.114 2021.89 213.114 Q2018.33 213.114 2016.17 215.128 Q2014.04 217.142 2013.72 220.799 L2028.9 220.776 Z" fill="#000000" fill-rule="evenodd" fill-opacity="1" /><path clip-path="url(#clip910)" d="M2057.21 214.063 L2057.21 200.035 L2061.47 200.035 L2061.47 236.054 L2057.21 236.054 L2057.21 232.165 Q2055.87 234.479 2053.81 235.614 Q2051.77 236.725 2048.9 236.725 Q2044.2 236.725 2041.24 232.975 Q2038.3 229.225 2038.3 223.114 Q2038.3 217.003 2041.24 213.253 Q2044.2 209.503 2048.9 209.503 Q2051.77 209.503 2053.81 210.637 Q2055.87 211.748 2057.21 214.063 M2042.7 223.114 Q2042.7 227.813 2044.62 230.498 Q2046.57 233.16 2049.95 233.16 Q2053.33 233.16 2055.27 230.498 Q2057.21 227.813 2057.21 223.114 Q2057.21 218.415 2055.27 215.753 Q2053.33 213.068 2049.95 213.068 Q2046.57 213.068 2044.62 215.753 Q2042.7 218.415 2042.7 223.114 Z" fill="#000000" fill-rule="evenodd" fill-opacity="1" /><path clip-path="url(#clip910)" d="M2085.5 201.494 L2107.35 201.494 L2107.35 205.429 L2090.18 205.429 L2090.18 215.66 L2106.64 215.66 L2106.64 219.595 L2090.18 219.595 L2090.18 232.118 L2107.77 232.118 L2107.77 236.054 L2085.5 236.054 L2085.5 201.494 Z" fill="#000000" fill-rule="evenodd" fill-opacity="1" /><path clip-path="url(#clip910)" d="M2130.29 214.109 Q2129.57 213.693 2128.72 213.507 Q2127.88 213.299 2126.87 213.299 Q2123.26 213.299 2121.31 215.66 Q2119.39 217.998 2119.39 222.396 L2119.39 236.054 L2115.11 236.054 L2115.11 210.128 L2119.39 210.128 L2119.39 214.156 Q2120.73 211.794 2122.88 210.66 Q2125.04 209.503 2128.12 209.503 Q2128.56 209.503 2129.09 209.572 Q2129.62 209.618 2130.27 209.734 L2130.29 214.109 Z" fill="#000000" fill-rule="evenodd" fill-opacity="1" /><path clip-path="url(#clip910)" d="M2148.95 214.109 Q2148.23 213.693 2147.38 213.507 Q2146.54 213.299 2145.52 213.299 Q2141.91 213.299 2139.97 215.66 Q2138.05 217.998 2138.05 222.396 L2138.05 236.054 L2133.76 236.054 L2133.76 210.128 L2138.05 210.128 L2138.05 214.156 Q2139.39 211.794 2141.54 210.66 Q2143.7 209.503 2146.77 209.503 Q2147.21 209.503 2147.75 209.572 Q2148.28 209.618 2148.93 209.734 L2148.95 214.109 Z" fill="#000000" fill-rule="evenodd" fill-opacity="1" /><path clip-path="url(#clip910)" d="M2162.42 213.114 Q2159 213.114 2157.01 215.799 Q2155.01 218.461 2155.01 223.114 Q2155.01 227.767 2156.98 230.452 Q2158.97 233.114 2162.42 233.114 Q2165.82 233.114 2167.82 230.429 Q2169.81 227.743 2169.81 223.114 Q2169.81 218.507 2167.82 215.822 Q2165.82 213.114 2162.42 213.114 M2162.42 209.503 Q2167.98 209.503 2171.15 213.114 Q2174.32 216.725 2174.32 223.114 Q2174.32 229.479 2171.15 233.114 Q2167.98 236.725 2162.42 236.725 Q2156.84 236.725 2153.67 233.114 Q2150.52 229.479 2150.52 223.114 Q2150.52 216.725 2153.67 213.114 Q2156.84 209.503 2162.42 209.503 Z" fill="#000000" fill-rule="evenodd" fill-opacity="1" /><path clip-path="url(#clip910)" d="M2196.4 214.109 Q2195.69 213.693 2194.83 213.507 Q2194 213.299 2192.98 213.299 Q2189.37 213.299 2187.42 215.66 Q2185.5 217.998 2185.5 222.396 L2185.5 236.054 L2181.22 236.054 L2181.22 210.128 L2185.5 210.128 L2185.5 214.156 Q2186.84 211.794 2189 210.66 Q2191.15 209.503 2194.23 209.503 Q2194.67 209.503 2195.2 209.572 Q2195.73 209.618 2196.38 209.734 L2196.4 214.109 Z" fill="#000000" fill-rule="evenodd" fill-opacity="1" /><path clip-path="url(#clip910)" d="M2217.4 210.892 L2217.4 214.919 Q2215.59 213.993 2213.65 213.531 Q2211.7 213.068 2209.62 213.068 Q2206.45 213.068 2204.85 214.04 Q2203.28 215.012 2203.28 216.956 Q2203.28 218.438 2204.41 219.294 Q2205.55 220.128 2208.97 220.892 L2210.43 221.216 Q2214.97 222.188 2216.87 223.97 Q2218.79 225.73 2218.79 228.901 Q2218.79 232.512 2215.92 234.618 Q2213.07 236.725 2208.07 236.725 Q2205.99 236.725 2203.72 236.308 Q2201.47 235.915 2198.97 235.104 L2198.97 230.706 Q2201.33 231.933 2203.63 232.558 Q2205.92 233.16 2208.16 233.16 Q2211.17 233.16 2212.79 232.142 Q2214.41 231.1 2214.41 229.225 Q2214.41 227.489 2213.23 226.563 Q2212.07 225.637 2208.12 224.78 L2206.63 224.433 Q2202.68 223.6 2200.92 221.887 Q2199.16 220.151 2199.16 217.142 Q2199.16 213.484 2201.75 211.493 Q2204.34 209.503 2209.11 209.503 Q2211.47 209.503 2213.56 209.85 Q2215.64 210.197 2217.4 210.892 Z" fill="#000000" fill-rule="evenodd" fill-opacity="1" /><path clip-path="url(#clip910)" d="
M1763.38 291.35 L1890.14 291.35 L1890.14 249.878 L1763.38 249.878 L1763.38 291.35  Z
  " fill="#e26f46" fill-rule="evenodd" fill-opacity="0.25"/>
<polyline clip-path="url(#clip910)" style="stroke:#e26f46; stroke-linecap:butt; stroke-linejoin:round; stroke-width:4; stroke-opacity:0.25; fill:none" points="
  1763.38,249.878 1890.14,249.878 
  "/>
<path clip-path="url(#clip910)" d="M1927.28 256.505 Q1922.19 256.505 1919.18 260.301 Q1916.2 264.097 1916.2 270.648 Q1916.2 277.176 1919.18 280.972 Q1922.19 284.769 1927.28 284.769 Q1932.38 284.769 1935.34 280.972 Q1938.33 277.176 1938.33 270.648 Q1938.33 264.097 1935.34 260.301 Q1932.38 256.505 1927.28 256.505 M1927.28 252.709 Q1934.55 252.709 1938.9 257.593 Q1943.26 262.454 1943.26 270.648 Q1943.26 278.82 1938.9 283.704 Q1934.55 288.565 1927.28 288.565 Q1919.99 288.565 1915.62 283.704 Q1911.27 278.843 1911.27 270.648 Q1911.27 262.454 1915.62 257.593 Q1919.99 252.709 1927.28 252.709 Z" fill="#000000" fill-rule="evenodd" fill-opacity="1" /><path clip-path="url(#clip910)" d="M1965.41 265.949 Q1964.69 265.533 1963.83 265.347 Q1963 265.139 1961.98 265.139 Q1958.37 265.139 1956.43 267.5 Q1954.51 269.838 1954.51 274.236 L1954.51 287.894 L1950.22 287.894 L1950.22 261.968 L1954.51 261.968 L1954.51 265.996 Q1955.85 263.634 1958 262.5 Q1960.15 261.343 1963.23 261.343 Q1963.67 261.343 1964.21 261.412 Q1964.74 261.458 1965.39 261.574 L1965.41 265.949 Z" fill="#000000" fill-rule="evenodd" fill-opacity="1" /><path clip-path="url(#clip910)" d="M1969.88 261.968 L1974.14 261.968 L1974.14 287.894 L1969.88 287.894 L1969.88 261.968 M1969.88 251.875 L1974.14 251.875 L1974.14 257.269 L1969.88 257.269 L1969.88 251.875 Z" fill="#000000" fill-rule="evenodd" fill-opacity="1" /><path clip-path="url(#clip910)" d="M2000.11 274.63 Q2000.11 270 1998.19 267.454 Q1996.29 264.908 1992.84 264.908 Q1989.41 264.908 1987.49 267.454 Q1985.59 270 1985.59 274.63 Q1985.59 279.236 1987.49 281.782 Q1989.41 284.329 1992.84 284.329 Q1996.29 284.329 1998.19 281.782 Q2000.11 279.236 2000.11 274.63 M2004.37 284.676 Q2004.37 291.296 2001.43 294.514 Q1998.49 297.755 1992.42 297.755 Q1990.18 297.755 1988.19 297.407 Q1986.2 297.083 1984.32 296.389 L1984.32 292.245 Q1986.2 293.264 1988.02 293.75 Q1989.85 294.236 1991.75 294.236 Q1995.94 294.236 1998.02 292.037 Q2000.11 289.861 2000.11 285.44 L2000.11 283.333 Q1998.79 285.625 1996.73 286.759 Q1994.67 287.894 1991.8 287.894 Q1987.03 287.894 1984.11 284.259 Q1981.2 280.625 1981.2 274.63 Q1981.2 268.611 1984.11 264.977 Q1987.03 261.343 1991.8 261.343 Q1994.67 261.343 1996.73 262.477 Q1998.79 263.611 2000.11 265.903 L2000.11 261.968 L2004.37 261.968 L2004.37 284.676 Z" fill="#000000" fill-rule="evenodd" fill-opacity="1" /><path clip-path="url(#clip910)" d="M2013.14 261.968 L2017.4 261.968 L2017.4 287.894 L2013.14 287.894 L2013.14 261.968 M2013.14 251.875 L2017.4 251.875 L2017.4 257.269 L2013.14 257.269 L2013.14 251.875 Z" fill="#000000" fill-rule="evenodd" fill-opacity="1" /><path clip-path="url(#clip910)" d="M2047.86 272.245 L2047.86 287.894 L2043.6 287.894 L2043.6 272.384 Q2043.6 268.704 2042.17 266.875 Q2040.73 265.046 2037.86 265.046 Q2034.41 265.046 2032.42 267.245 Q2030.43 269.445 2030.43 273.241 L2030.43 287.894 L2026.15 287.894 L2026.15 261.968 L2030.43 261.968 L2030.43 265.996 Q2031.96 263.658 2034.02 262.5 Q2036.1 261.343 2038.81 261.343 Q2043.28 261.343 2045.57 264.121 Q2047.86 266.875 2047.86 272.245 Z" fill="#000000" fill-rule="evenodd" fill-opacity="1" /><path clip-path="url(#clip910)" d="M2068.14 274.861 Q2062.98 274.861 2060.99 276.042 Q2059 277.222 2059 280.07 Q2059 282.338 2060.48 283.681 Q2061.98 285 2064.55 285 Q2068.09 285 2070.22 282.5 Q2072.38 279.977 2072.38 275.81 L2072.38 274.861 L2068.14 274.861 M2076.64 273.102 L2076.64 287.894 L2072.38 287.894 L2072.38 283.958 Q2070.92 286.319 2068.74 287.454 Q2066.57 288.565 2063.42 288.565 Q2059.44 288.565 2057.08 286.343 Q2054.74 284.097 2054.74 280.347 Q2054.74 275.972 2057.65 273.75 Q2060.59 271.528 2066.4 271.528 L2072.38 271.528 L2072.38 271.111 Q2072.38 268.171 2070.43 266.574 Q2068.51 264.954 2065.01 264.954 Q2062.79 264.954 2060.69 265.486 Q2058.58 266.019 2056.64 267.083 L2056.64 263.148 Q2058.97 262.246 2061.17 261.806 Q2063.37 261.343 2065.45 261.343 Q2071.08 261.343 2073.86 264.259 Q2076.64 267.176 2076.64 273.102 Z" fill="#000000" fill-rule="evenodd" fill-opacity="1" /><path clip-path="url(#clip910)" d="M2085.41 251.875 L2089.67 251.875 L2089.67 287.894 L2085.41 287.894 L2085.41 251.875 Z" fill="#000000" fill-rule="evenodd" fill-opacity="1" /><path clip-path="url(#clip910)" d="M2113.83 253.334 L2135.69 253.334 L2135.69 257.269 L2118.51 257.269 L2118.51 267.5 L2134.97 267.5 L2134.97 271.435 L2118.51 271.435 L2118.51 283.958 L2136.1 283.958 L2136.1 287.894 L2113.83 287.894 L2113.83 253.334 Z" fill="#000000" fill-rule="evenodd" fill-opacity="1" /><path clip-path="url(#clip910)" d="M2158.63 265.949 Q2157.91 265.533 2157.05 265.347 Q2156.22 265.139 2155.2 265.139 Q2151.59 265.139 2149.64 267.5 Q2147.72 269.838 2147.72 274.236 L2147.72 287.894 L2143.44 287.894 L2143.44 261.968 L2147.72 261.968 L2147.72 265.996 Q2149.07 263.634 2151.22 262.5 Q2153.37 261.343 2156.45 261.343 Q2156.89 261.343 2157.42 261.412 Q2157.95 261.458 2158.6 261.574 L2158.63 265.949 Z" fill="#000000" fill-rule="evenodd" fill-opacity="1" /><path clip-path="url(#clip910)" d="M2177.28 265.949 Q2176.57 265.533 2175.71 265.347 Q2174.88 265.139 2173.86 265.139 Q2170.25 265.139 2168.3 267.5 Q2166.38 269.838 2166.38 274.236 L2166.38 287.894 L2162.1 287.894 L2162.1 261.968 L2166.38 261.968 L2166.38 265.996 Q2167.72 263.634 2169.88 262.5 Q2172.03 261.343 2175.11 261.343 Q2175.55 261.343 2176.08 261.412 Q2176.61 261.458 2177.26 261.574 L2177.28 265.949 Z" fill="#000000" fill-rule="evenodd" fill-opacity="1" /><path clip-path="url(#clip910)" d="M2190.76 264.954 Q2187.33 264.954 2185.34 267.639 Q2183.35 270.301 2183.35 274.954 Q2183.35 279.607 2185.32 282.292 Q2187.31 284.954 2190.76 284.954 Q2194.16 284.954 2196.15 282.269 Q2198.14 279.583 2198.14 274.954 Q2198.14 270.347 2196.15 267.662 Q2194.16 264.954 2190.76 264.954 M2190.76 261.343 Q2196.31 261.343 2199.48 264.954 Q2202.65 268.565 2202.65 274.954 Q2202.65 281.319 2199.48 284.954 Q2196.31 288.565 2190.76 288.565 Q2185.18 288.565 2182.01 284.954 Q2178.86 281.319 2178.86 274.954 Q2178.86 268.565 2182.01 264.954 Q2185.18 261.343 2190.76 261.343 Z" fill="#000000" fill-rule="evenodd" fill-opacity="1" /><path clip-path="url(#clip910)" d="M2224.74 265.949 Q2224.02 265.533 2223.16 265.347 Q2222.33 265.139 2221.31 265.139 Q2217.7 265.139 2215.75 267.5 Q2213.83 269.838 2213.83 274.236 L2213.83 287.894 L2209.55 287.894 L2209.55 261.968 L2213.83 261.968 L2213.83 265.996 Q2215.18 263.634 2217.33 262.5 Q2219.48 261.343 2222.56 261.343 Q2223 261.343 2223.53 261.412 Q2224.07 261.458 2224.71 261.574 L2224.74 265.949 Z" fill="#000000" fill-rule="evenodd" fill-opacity="1" /><path clip-path="url(#clip910)" d="M2245.73 262.732 L2245.73 266.759 Q2243.93 265.833 2241.98 265.371 Q2240.04 264.908 2237.95 264.908 Q2234.78 264.908 2233.19 265.88 Q2231.61 266.852 2231.61 268.796 Q2231.61 270.278 2232.75 271.134 Q2233.88 271.968 2237.31 272.732 L2238.76 273.056 Q2243.3 274.028 2245.2 275.81 Q2247.12 277.57 2247.12 280.741 Q2247.12 284.352 2244.25 286.458 Q2241.4 288.565 2236.4 288.565 Q2234.32 288.565 2232.05 288.148 Q2229.81 287.755 2227.31 286.944 L2227.31 282.546 Q2229.67 283.773 2231.96 284.398 Q2234.25 285 2236.5 285 Q2239.5 285 2241.13 283.982 Q2242.75 282.94 2242.75 281.065 Q2242.75 279.329 2241.56 278.403 Q2240.41 277.477 2236.45 276.62 L2234.97 276.273 Q2231.01 275.44 2229.25 273.727 Q2227.49 271.991 2227.49 268.982 Q2227.49 265.324 2230.08 263.333 Q2232.68 261.343 2237.44 261.343 Q2239.81 261.343 2241.89 261.69 Q2243.97 262.037 2245.73 262.732 Z" fill="#000000" fill-rule="evenodd" fill-opacity="1" /></svg>
