<?xml version="1.0" encoding="utf-8"?>
<svg xmlns="http://www.w3.org/2000/svg" xmlns:xlink="http://www.w3.org/1999/xlink" width="600" height="400" viewBox="0 0 2400 1600">
<defs>
  <clipPath id="clip480">
    <rect x="0" y="0" width="2400" height="1600"/>
  </clipPath>
</defs>
<path clip-path="url(#clip480)" d="
M0 1600 L2400 1600 L2400 0 L0 0  Z
  " fill="#ffffff" fill-rule="evenodd" fill-opacity="1"/>
<defs>
  <clipPath id="clip481">
    <rect x="480" y="0" width="1681" height="1600"/>
  </clipPath>
</defs>
<defs>
  <clipPath id="clip482">
    <rect x="1466" y="1073" width="907" height="399"/>
  </clipPath>
</defs>
<path clip-path="url(#clip480)" d="
M156.112 1451.45 L2352.76 1451.45 L2352.76 102.45 L156.112 102.45  Z
  " fill="#ffffff" fill-rule="evenodd" fill-opacity="1"/>
<defs>
  <clipPath id="clip483">
    <rect x="156" y="102" width="2198" height="1350"/>
  </clipPath>
</defs>
<polyline clip-path="url(#clip483)" style="stroke:#000000; stroke-linecap:butt; stroke-linejoin:round; stroke-width:2; stroke-opacity:0.1; fill:none" points="
  230.174,1451.45 230.174,102.45 
  "/>
<polyline clip-path="url(#clip483)" style="stroke:#000000; stroke-linecap:butt; stroke-linejoin:round; stroke-width:2; stroke-opacity:0.1; fill:none" points="
  866.421,1451.45 866.421,102.45 
  "/>
<polyline clip-path="url(#clip483)" style="stroke:#000000; stroke-linecap:butt; stroke-linejoin:round; stroke-width:2; stroke-opacity:0.1; fill:none" points="
  1502.67,1451.45 1502.67,102.45 
  "/>
<polyline clip-path="url(#clip483)" style="stroke:#000000; stroke-linecap:butt; stroke-linejoin:round; stroke-width:2; stroke-opacity:0.1; fill:none" points="
  2138.92,1451.45 2138.92,102.45 
  "/>
<polyline clip-path="url(#clip480)" style="stroke:#000000; stroke-linecap:butt; stroke-linejoin:round; stroke-width:4; stroke-opacity:1; fill:none" points="
  156.112,1451.45 2352.76,1451.45 
  "/>
<polyline clip-path="url(#clip480)" style="stroke:#000000; stroke-linecap:butt; stroke-linejoin:round; stroke-width:4; stroke-opacity:1; fill:none" points="
  230.174,1451.45 230.174,1432.55 
  "/>
<polyline clip-path="url(#clip480)" style="stroke:#000000; stroke-linecap:butt; stroke-linejoin:round; stroke-width:4; stroke-opacity:1; fill:none" points="
  866.421,1451.45 866.421,1432.55 
  "/>
<polyline clip-path="url(#clip480)" style="stroke:#000000; stroke-linecap:butt; stroke-linejoin:round; stroke-width:4; stroke-opacity:1; fill:none" points="
  1502.67,1451.45 1502.67,1432.55 
  "/>
<polyline clip-path="url(#clip480)" style="stroke:#000000; stroke-linecap:butt; stroke-linejoin:round; stroke-width:4; stroke-opacity:1; fill:none" points="
  2138.92,1451.45 2138.92,1432.55 
  "/>
<path clip-path="url(#clip480)" d="M230.174 1480.64 Q226.563 1480.64 224.734 1484.21 Q222.928 1487.75 222.928 1494.88 Q222.928 1501.98 224.734 1505.55 Q226.563 1509.09 230.174 1509.09 Q233.808 1509.09 235.613 1505.55 Q237.442 1501.98 237.442 1494.88 Q237.442 1487.75 235.613 1484.21 Q233.808 1480.64 230.174 1480.64 M230.174 1476.94 Q235.984 1476.94 239.039 1481.54 Q242.118 1486.13 242.118 1494.88 Q242.118 1503.6 239.039 1508.21 Q235.984 1512.79 230.174 1512.79 Q224.364 1512.79 221.285 1508.21 Q218.229 1503.6 218.229 1494.88 Q218.229 1486.13 221.285 1481.54 Q224.364 1476.94 230.174 1476.94 Z" fill="#000000" fill-rule="evenodd" fill-opacity="1" /><path clip-path="url(#clip480)" d="M856.803 1508.19 L864.442 1508.19 L864.442 1481.82 L856.132 1483.49 L856.132 1479.23 L864.396 1477.56 L869.072 1477.56 L869.072 1508.19 L876.71 1508.19 L876.71 1512.12 L856.803 1512.12 L856.803 1508.19 Z" fill="#000000" fill-rule="evenodd" fill-opacity="1" /><path clip-path="url(#clip480)" d="M1497.32 1508.19 L1513.64 1508.19 L1513.64 1512.12 L1491.7 1512.12 L1491.7 1508.19 Q1494.36 1505.43 1498.94 1500.8 Q1503.55 1496.15 1504.73 1494.81 Q1506.97 1492.28 1507.85 1490.55 Q1508.76 1488.79 1508.76 1487.1 Q1508.76 1484.34 1506.81 1482.61 Q1504.89 1480.87 1501.79 1480.87 Q1499.59 1480.87 1497.14 1481.64 Q1494.71 1482.4 1491.93 1483.95 L1491.93 1479.23 Q1494.75 1478.09 1497.21 1477.52 Q1499.66 1476.94 1501.7 1476.94 Q1507.07 1476.94 1510.26 1479.62 Q1513.46 1482.31 1513.46 1486.8 Q1513.46 1488.93 1512.65 1490.85 Q1511.86 1492.75 1509.75 1495.34 Q1509.17 1496.01 1506.07 1499.23 Q1502.97 1502.42 1497.32 1508.19 Z" fill="#000000" fill-rule="evenodd" fill-opacity="1" /><path clip-path="url(#clip480)" d="M2143.16 1493.49 Q2146.52 1494.21 2148.4 1496.47 Q2150.29 1498.74 2150.29 1502.08 Q2150.29 1507.19 2146.77 1509.99 Q2143.26 1512.79 2136.77 1512.79 Q2134.6 1512.79 2132.28 1512.35 Q2129.99 1511.94 2127.54 1511.08 L2127.54 1506.57 Q2129.48 1507.7 2131.8 1508.28 Q2134.11 1508.86 2136.64 1508.86 Q2141.03 1508.86 2143.33 1507.12 Q2145.64 1505.39 2145.64 1502.08 Q2145.64 1499.02 2143.49 1497.31 Q2141.36 1495.57 2137.54 1495.57 L2133.51 1495.57 L2133.51 1491.73 L2137.72 1491.73 Q2141.17 1491.73 2143 1490.36 Q2144.83 1488.97 2144.83 1486.38 Q2144.83 1483.72 2142.93 1482.31 Q2141.06 1480.87 2137.54 1480.87 Q2135.62 1480.87 2133.42 1481.29 Q2131.22 1481.71 2128.58 1482.58 L2128.58 1478.42 Q2131.24 1477.68 2133.56 1477.31 Q2135.9 1476.94 2137.96 1476.94 Q2143.28 1476.94 2146.38 1479.37 Q2149.48 1481.77 2149.48 1485.9 Q2149.48 1488.77 2147.84 1490.76 Q2146.2 1492.72 2143.16 1493.49 Z" fill="#000000" fill-rule="evenodd" fill-opacity="1" /><path clip-path="url(#clip480)" d="M1269.36 1537.9 Q1269.36 1538.19 1269.1 1539.19 Q1268.87 1540.16 1268.13 1542.06 Q1267.42 1543.92 1266.33 1546.02 Q1265.27 1548.08 1263.3 1550.69 Q1261.34 1553.3 1258.89 1555.58 Q1254.28 1559.9 1249.36 1562.22 Q1244.46 1564.54 1240.27 1565.28 L1239.34 1565.28 Q1238.31 1565.28 1238.31 1564.47 L1239.02 1561.51 L1243.04 1545.37 Q1244.3 1540.45 1244.3 1540.03 Q1244.3 1539.64 1244.14 1539.45 Q1244.01 1539.22 1243.24 1539.06 Q1242.5 1538.9 1241.01 1538.9 Q1240.4 1538.9 1240.11 1538.87 Q1239.86 1538.84 1239.63 1538.68 Q1239.4 1538.48 1239.4 1538.1 Q1239.4 1537.55 1239.63 1537.26 Q1239.89 1536.94 1240.08 1536.87 Q1240.27 1536.81 1240.66 1536.78 Q1241.21 1536.74 1243.04 1536.58 Q1244.88 1536.39 1246.46 1536.26 Q1248.04 1536.13 1248.71 1536.13 Q1249.1 1536.13 1249.32 1536.32 Q1249.55 1536.49 1249.55 1536.68 L1249.58 1536.84 L1243.11 1563.09 Q1245.49 1562.31 1247.84 1561.03 Q1250.23 1559.74 1252.8 1557.61 Q1255.38 1555.45 1257.57 1552.78 Q1259.76 1550.11 1261.69 1546.37 Q1263.66 1542.6 1264.88 1538.29 Q1265.1 1537.42 1265.65 1536.9 Q1266.23 1536.39 1266.65 1536.26 Q1267.07 1536.13 1267.46 1536.13 Q1268.33 1536.13 1268.84 1536.61 Q1269.36 1537.07 1269.36 1537.9 Z" fill="#000000" fill-rule="evenodd" fill-opacity="1" /><polyline clip-path="url(#clip483)" style="stroke:#000000; stroke-linecap:butt; stroke-linejoin:round; stroke-width:2; stroke-opacity:0.1; fill:none" points="
  156.112,1413.27 2352.76,1413.27 
  "/>
<polyline clip-path="url(#clip483)" style="stroke:#000000; stroke-linecap:butt; stroke-linejoin:round; stroke-width:2; stroke-opacity:0.1; fill:none" points="
  156.112,1106.39 2352.76,1106.39 
  "/>
<polyline clip-path="url(#clip483)" style="stroke:#000000; stroke-linecap:butt; stroke-linejoin:round; stroke-width:2; stroke-opacity:0.1; fill:none" points="
  156.112,799.518 2352.76,799.518 
  "/>
<polyline clip-path="url(#clip483)" style="stroke:#000000; stroke-linecap:butt; stroke-linejoin:round; stroke-width:2; stroke-opacity:0.1; fill:none" points="
  156.112,492.642 2352.76,492.642 
  "/>
<polyline clip-path="url(#clip483)" style="stroke:#000000; stroke-linecap:butt; stroke-linejoin:round; stroke-width:2; stroke-opacity:0.1; fill:none" points="
  156.112,185.765 2352.76,185.765 
  "/>
<polyline clip-path="url(#clip480)" style="stroke:#000000; stroke-linecap:butt; stroke-linejoin:round; stroke-width:4; stroke-opacity:1; fill:none" points="
  156.112,1451.45 156.112,102.45 
  "/>
<polyline clip-path="url(#clip480)" style="stroke:#000000; stroke-linecap:butt; stroke-linejoin:round; stroke-width:4; stroke-opacity:1; fill:none" points="
  156.112,1413.27 175.01,1413.27 
  "/>
<polyline clip-path="url(#clip480)" style="stroke:#000000; stroke-linecap:butt; stroke-linejoin:round; stroke-width:4; stroke-opacity:1; fill:none" points="
  156.112,1106.39 175.01,1106.39 
  "/>
<polyline clip-path="url(#clip480)" style="stroke:#000000; stroke-linecap:butt; stroke-linejoin:round; stroke-width:4; stroke-opacity:1; fill:none" points="
  156.112,799.518 175.01,799.518 
  "/>
<polyline clip-path="url(#clip480)" style="stroke:#000000; stroke-linecap:butt; stroke-linejoin:round; stroke-width:4; stroke-opacity:1; fill:none" points="
  156.112,492.642 175.01,492.642 
  "/>
<polyline clip-path="url(#clip480)" style="stroke:#000000; stroke-linecap:butt; stroke-linejoin:round; stroke-width:4; stroke-opacity:1; fill:none" points="
  156.112,185.765 175.01,185.765 
  "/>
<path clip-path="url(#clip480)" d="M62.9365 1399.07 Q59.3254 1399.07 57.4967 1402.63 Q55.6912 1406.18 55.6912 1413.31 Q55.6912 1420.41 57.4967 1423.98 Q59.3254 1427.52 62.9365 1427.52 Q66.5707 1427.52 68.3763 1423.98 Q70.205 1420.41 70.205 1413.31 Q70.205 1406.18 68.3763 1402.63 Q66.5707 1399.07 62.9365 1399.07 M62.9365 1395.37 Q68.7467 1395.37 71.8022 1399.97 Q74.8809 1404.56 74.8809 1413.31 Q74.8809 1422.03 71.8022 1426.64 Q68.7467 1431.22 62.9365 1431.22 Q57.1264 1431.22 54.0477 1426.64 Q50.9921 1422.03 50.9921 1413.31 Q50.9921 1404.56 54.0477 1399.97 Q57.1264 1395.37 62.9365 1395.37 Z" fill="#000000" fill-rule="evenodd" fill-opacity="1" /><path clip-path="url(#clip480)" d="M83.0984 1424.67 L87.9827 1424.67 L87.9827 1430.55 L83.0984 1430.55 L83.0984 1424.67 Z" fill="#000000" fill-rule="evenodd" fill-opacity="1" /><path clip-path="url(#clip480)" d="M108.168 1399.07 Q104.557 1399.07 102.728 1402.63 Q100.922 1406.18 100.922 1413.31 Q100.922 1420.41 102.728 1423.98 Q104.557 1427.52 108.168 1427.52 Q111.802 1427.52 113.608 1423.98 Q115.436 1420.41 115.436 1413.31 Q115.436 1406.18 113.608 1402.63 Q111.802 1399.07 108.168 1399.07 M108.168 1395.37 Q113.978 1395.37 117.033 1399.97 Q120.112 1404.56 120.112 1413.31 Q120.112 1422.03 117.033 1426.64 Q113.978 1431.22 108.168 1431.22 Q102.358 1431.22 99.2789 1426.64 Q96.2234 1422.03 96.2234 1413.31 Q96.2234 1404.56 99.2789 1399.97 Q102.358 1395.37 108.168 1395.37 Z" fill="#000000" fill-rule="evenodd" fill-opacity="1" /><path clip-path="url(#clip480)" d="M63.9319 1092.19 Q60.3208 1092.19 58.4921 1095.76 Q56.6865 1099.3 56.6865 1106.43 Q56.6865 1113.54 58.4921 1117.1 Q60.3208 1120.64 63.9319 1120.64 Q67.5661 1120.64 69.3717 1117.1 Q71.2004 1113.54 71.2004 1106.43 Q71.2004 1099.3 69.3717 1095.76 Q67.5661 1092.19 63.9319 1092.19 M63.9319 1088.49 Q69.742 1088.49 72.7976 1093.1 Q75.8763 1097.68 75.8763 1106.43 Q75.8763 1115.16 72.7976 1119.76 Q69.742 1124.35 63.9319 1124.35 Q58.1217 1124.35 55.043 1119.76 Q51.9875 1115.16 51.9875 1106.43 Q51.9875 1097.68 55.043 1093.1 Q58.1217 1088.49 63.9319 1088.49 Z" fill="#000000" fill-rule="evenodd" fill-opacity="1" /><path clip-path="url(#clip480)" d="M84.0938 1117.79 L88.978 1117.79 L88.978 1123.67 L84.0938 1123.67 L84.0938 1117.79 Z" fill="#000000" fill-rule="evenodd" fill-opacity="1" /><path clip-path="url(#clip480)" d="M99.2095 1089.11 L117.566 1089.11 L117.566 1093.05 L103.492 1093.05 L103.492 1101.52 Q104.51 1101.17 105.529 1101.01 Q106.547 1100.83 107.566 1100.83 Q113.353 1100.83 116.733 1104 Q120.112 1107.17 120.112 1112.59 Q120.112 1118.17 116.64 1121.27 Q113.168 1124.35 106.848 1124.35 Q104.672 1124.35 102.404 1123.98 Q100.159 1123.6 97.7511 1122.86 L97.7511 1118.17 Q99.8345 1119.3 102.057 1119.85 Q104.279 1120.41 106.756 1120.41 Q110.76 1120.41 113.098 1118.3 Q115.436 1116.2 115.436 1112.59 Q115.436 1108.98 113.098 1106.87 Q110.76 1104.76 106.756 1104.76 Q104.881 1104.76 103.006 1105.18 Q101.154 1105.6 99.2095 1106.48 L99.2095 1089.11 Z" fill="#000000" fill-rule="evenodd" fill-opacity="1" /><path clip-path="url(#clip480)" d="M53.7467 812.863 L61.3856 812.863 L61.3856 786.497 L53.0754 788.164 L53.0754 783.905 L61.3393 782.238 L66.0152 782.238 L66.0152 812.863 L73.654 812.863 L73.654 816.798 L53.7467 816.798 L53.7467 812.863 Z" fill="#000000" fill-rule="evenodd" fill-opacity="1" /><path clip-path="url(#clip480)" d="M83.0984 810.918 L87.9827 810.918 L87.9827 816.798 L83.0984 816.798 L83.0984 810.918 Z" fill="#000000" fill-rule="evenodd" fill-opacity="1" /><path clip-path="url(#clip480)" d="M108.168 785.317 Q104.557 785.317 102.728 788.881 Q100.922 792.423 100.922 799.553 Q100.922 806.659 102.728 810.224 Q104.557 813.766 108.168 813.766 Q111.802 813.766 113.608 810.224 Q115.436 806.659 115.436 799.553 Q115.436 792.423 113.608 788.881 Q111.802 785.317 108.168 785.317 M108.168 781.613 Q113.978 781.613 117.033 786.219 Q120.112 790.803 120.112 799.553 Q120.112 808.279 117.033 812.886 Q113.978 817.469 108.168 817.469 Q102.358 817.469 99.2789 812.886 Q96.2234 808.279 96.2234 799.553 Q96.2234 790.803 99.2789 786.219 Q102.358 781.613 108.168 781.613 Z" fill="#000000" fill-rule="evenodd" fill-opacity="1" /><path clip-path="url(#clip480)" d="M54.7421 505.986 L62.381 505.986 L62.381 479.621 L54.0708 481.287 L54.0708 477.028 L62.3347 475.362 L67.0106 475.362 L67.0106 505.986 L74.6494 505.986 L74.6494 509.922 L54.7421 509.922 L54.7421 505.986 Z" fill="#000000" fill-rule="evenodd" fill-opacity="1" /><path clip-path="url(#clip480)" d="M84.0938 504.042 L88.978 504.042 L88.978 509.922 L84.0938 509.922 L84.0938 504.042 Z" fill="#000000" fill-rule="evenodd" fill-opacity="1" /><path clip-path="url(#clip480)" d="M99.2095 475.362 L117.566 475.362 L117.566 479.297 L103.492 479.297 L103.492 487.769 Q104.51 487.422 105.529 487.26 Q106.547 487.074 107.566 487.074 Q113.353 487.074 116.733 490.246 Q120.112 493.417 120.112 498.834 Q120.112 504.412 116.64 507.514 Q113.168 510.593 106.848 510.593 Q104.672 510.593 102.404 510.222 Q100.159 509.852 97.7511 509.111 L97.7511 504.412 Q99.8345 505.547 102.057 506.102 Q104.279 506.658 106.756 506.658 Q110.76 506.658 113.098 504.551 Q115.436 502.445 115.436 498.834 Q115.436 495.223 113.098 493.116 Q110.76 491.01 106.756 491.01 Q104.881 491.01 103.006 491.426 Q101.154 491.843 99.2095 492.723 L99.2095 475.362 Z" fill="#000000" fill-rule="evenodd" fill-opacity="1" /><path clip-path="url(#clip480)" d="M56.9643 199.11 L73.2837 199.11 L73.2837 203.045 L51.3393 203.045 L51.3393 199.11 Q54.0014 196.355 58.5847 191.726 Q63.1911 187.073 64.3717 185.73 Q66.617 183.207 67.4967 181.471 Q68.3994 179.712 68.3994 178.022 Q68.3994 175.268 66.455 173.531 Q64.5337 171.795 61.4319 171.795 Q59.2328 171.795 56.7791 172.559 Q54.3486 173.323 51.5708 174.874 L51.5708 170.152 Q54.3949 169.018 56.8486 168.439 Q59.3023 167.86 61.3393 167.86 Q66.7096 167.86 69.9041 170.545 Q73.0985 173.231 73.0985 177.721 Q73.0985 179.851 72.2883 181.772 Q71.5013 183.67 69.3948 186.263 Q68.8161 186.934 65.7143 190.152 Q62.6124 193.346 56.9643 199.11 Z" fill="#000000" fill-rule="evenodd" fill-opacity="1" /><path clip-path="url(#clip480)" d="M83.0984 197.166 L87.9827 197.166 L87.9827 203.045 L83.0984 203.045 L83.0984 197.166 Z" fill="#000000" fill-rule="evenodd" fill-opacity="1" /><path clip-path="url(#clip480)" d="M108.168 171.564 Q104.557 171.564 102.728 175.129 Q100.922 178.67 100.922 185.8 Q100.922 192.906 102.728 196.471 Q104.557 200.013 108.168 200.013 Q111.802 200.013 113.608 196.471 Q115.436 192.906 115.436 185.8 Q115.436 178.67 113.608 175.129 Q111.802 171.564 108.168 171.564 M108.168 167.86 Q113.978 167.86 117.033 172.467 Q120.112 177.05 120.112 185.8 Q120.112 194.527 117.033 199.133 Q113.978 203.716 108.168 203.716 Q102.358 203.716 99.2789 199.133 Q96.2234 194.527 96.2234 185.8 Q96.2234 177.05 99.2789 172.467 Q102.358 167.86 108.168 167.86 Z" fill="#000000" fill-rule="evenodd" fill-opacity="1" /><path clip-path="url(#clip480)" d="M1022.34 18.0373 Q1022.34 22.6281 1018.94 26.85 Q1015.58 31.0719 1010.08 33.6542 Q1004.63 36.1956 998.771 36.1956 L984.507 36.1956 L979.301 57.1821 Q979.26 57.305 979.137 57.8379 Q979.014 58.3298 979.014 58.6167 Q979.014 59.6414 980.285 59.8874 Q981.597 60.1333 984.507 60.1333 Q986.393 60.1333 986.679 60.4612 Q986.843 60.6662 986.843 61.0351 Q986.843 61.6089 986.679 62.0188 Q986.516 62.3877 986.188 62.5107 Q985.901 62.6336 985.696 62.6746 Q985.491 62.7156 985.163 62.7156 Q984.302 62.7156 982.458 62.6336 Q980.654 62.5517 979.711 62.5517 L974.342 62.4697 L963.684 62.7156 Q962.414 62.7156 962.414 61.6909 Q962.414 60.9121 962.742 60.5842 Q963.07 60.2153 963.439 60.1743 Q963.807 60.1333 964.75 60.1333 Q966.8 60.1333 968.029 60.0103 Q969.259 59.8874 970.038 59.7234 Q970.858 59.5185 971.267 58.9446 Q971.718 58.3708 971.923 57.8789 Q972.128 57.346 972.415 56.1573 L983.646 11.0691 Q983.974 9.71649 983.974 9.51154 Q983.974 8.81472 983.564 8.56879 Q983.195 8.28186 982.13 8.1589 Q980.08 7.99494 978.523 7.99494 Q977.498 7.99494 977.088 7.95395 Q976.719 7.91296 976.391 7.70801 Q976.104 7.46208 976.104 6.97021 Q976.104 6.19141 976.432 5.8635 Q976.801 5.49459 977.211 5.4536 Q977.621 5.37162 978.605 5.37162 L1005.82 5.37162 Q1013.65 5.37162 1018 9.10165 Q1022.34 12.8317 1022.34 18.0373 M1014.55 16.0288 Q1014.55 7.99494 1003.12 7.99494 L995.082 7.99494 Q992.418 7.99494 991.762 8.48681 Q991.106 8.93769 990.532 11.1921 L984.835 34.0231 L996.681 34.0231 Q1004.63 34.0231 1009.59 29.5553 Q1011.85 27.5058 1013.2 23.243 Q1014.55 18.9801 1014.55 16.0288 Z" fill="#000000" fill-rule="evenodd" fill-opacity="1" /><path clip-path="url(#clip480)" d="M1015.76 36.0874 Q1015.76 26.2337 1019.43 18.288 Q1021 14.9559 1023.19 12.165 Q1025.38 9.37404 1026.84 8.14943 Q1028.29 6.92483 1028.69 6.92483 Q1029.26 6.92483 1029.28 7.49441 Q1029.28 7.77921 1028.52 8.49118 Q1019.12 18.0602 1019.15 36.0874 Q1019.15 54.1717 1028.29 63.3704 Q1029.28 64.3672 1029.28 64.6805 Q1029.28 65.2501 1028.69 65.2501 Q1028.29 65.2501 1026.89 64.0824 Q1025.5 62.9148 1023.33 60.2377 Q1021.17 57.5607 1019.6 54.2856 Q1015.76 46.3399 1015.76 36.0874 Z" fill="#000000" fill-rule="evenodd" fill-opacity="1" /><path clip-path="url(#clip480)" d="M1086.63 27.8747 Q1086.63 28.2436 1086.3 29.5143 Q1086.01 30.744 1085.07 33.1624 Q1084.17 35.5397 1082.77 38.204 Q1081.42 40.8274 1078.92 44.1475 Q1076.42 47.4676 1073.3 50.3779 Q1067.44 55.8704 1061.17 58.8216 Q1054.94 61.7729 1049.61 62.7156 L1048.42 62.7156 Q1047.11 62.7156 1047.11 61.6909 L1048.01 57.9199 L1053.14 37.3843 Q1054.74 31.1129 1054.74 30.58 Q1054.74 30.0882 1054.53 29.8422 Q1054.37 29.5553 1053.38 29.3504 Q1052.44 29.1454 1050.56 29.1454 Q1049.78 29.1454 1049.41 29.1044 Q1049.08 29.0634 1048.79 28.8585 Q1048.51 28.6125 1048.51 28.1207 Q1048.51 27.4239 1048.79 27.055 Q1049.12 26.6451 1049.37 26.5631 Q1049.61 26.4811 1050.1 26.4401 Q1050.8 26.3991 1053.14 26.1942 Q1055.47 25.9482 1057.48 25.7843 Q1059.49 25.6203 1060.35 25.6203 Q1060.84 25.6203 1061.13 25.8663 Q1061.42 26.0712 1061.42 26.3171 L1061.46 26.5221 L1053.22 59.9284 Q1056.25 58.9446 1059.25 57.305 Q1062.28 55.6655 1065.56 52.9602 Q1068.84 50.2139 1071.62 46.8118 Q1074.41 43.4097 1076.87 38.6549 Q1079.37 33.8592 1080.93 28.3666 Q1081.22 27.2599 1081.91 26.6041 Q1082.65 25.9482 1083.18 25.7843 Q1083.72 25.6203 1084.21 25.6203 Q1085.31 25.6203 1085.97 26.2352 Q1086.63 26.809 1086.63 27.8747 Z" fill="#000000" fill-rule="evenodd" fill-opacity="1" /><path clip-path="url(#clip480)" d="M1111.45 64.3142 Q1111.45 63.8223 1111.81 63.5354 Q1112.22 63.2895 1113.45 62.7156 L1154.44 43.9015 Q1157.64 42.3849 1159.28 41.7291 Q1157.6 41.0733 1154.44 39.5567 L1113.45 20.7426 Q1113.29 20.6606 1112.92 20.4967 Q1112.55 20.3327 1112.31 20.2097 Q1112.1 20.0868 1111.9 19.9228 Q1111.69 19.7179 1111.57 19.5539 Q1111.45 19.39 1111.45 19.144 Q1111.45 18.3242 1112.39 18.3242 Q1112.8 18.3242 1114.48 19.144 L1161.04 40.3765 Q1161.12 40.3765 1161.33 40.4994 Q1161.58 40.6224 1161.74 40.7864 Q1161.9 40.9093 1162.07 41.0323 Q1162.23 41.1553 1162.31 41.3192 Q1162.4 41.4832 1162.4 41.7291 Q1162.31 42.4669 1159.98 43.5736 L1114.48 64.3142 Q1112.8 65.134 1112.39 65.134 Q1111.45 65.134 1111.45 64.3142 Z" fill="#000000" fill-rule="evenodd" fill-opacity="1" /><path clip-path="url(#clip480)" d="M1199.41 14.7992 L1199.41 12.1758 Q1209.49 12.1758 1214.69 6.80625 Q1216.13 6.80625 1216.37 7.13416 Q1216.62 7.46208 1216.62 8.97868 L1216.62 56.0754 Q1216.62 58.5757 1217.85 59.3545 Q1219.08 60.1333 1224.45 60.1333 L1227.11 60.1333 L1227.11 62.7156 Q1224.16 62.4697 1213.51 62.4697 Q1202.85 62.4697 1199.94 62.7156 L1199.94 60.1333 L1202.6 60.1333 Q1207.89 60.1333 1209.16 59.3955 Q1210.43 58.6167 1210.43 56.0754 L1210.43 12.5857 Q1206.05 14.7992 1199.41 14.7992 Z" fill="#000000" fill-rule="evenodd" fill-opacity="1" /><path clip-path="url(#clip480)" d="M1235.8 64.6805 Q1235.8 64.3957 1236.54 63.6837 Q1245.94 54.1147 1245.94 36.0874 Q1245.94 18.0032 1236.91 8.86141 Q1235.8 7.80768 1235.8 7.49441 Q1235.8 6.92483 1236.37 6.92483 Q1236.77 6.92483 1238.17 8.09248 Q1239.59 9.26012 1241.73 11.9372 Q1243.89 14.6142 1245.49 17.8893 Q1249.33 25.835 1249.33 36.0874 Q1249.33 45.9412 1245.66 53.8869 Q1244.09 57.2189 1241.9 60.0099 Q1239.7 62.8009 1238.25 64.0255 Q1236.8 65.2501 1236.37 65.2501 Q1235.8 65.2501 1235.8 64.6805 Z" fill="#000000" fill-rule="evenodd" fill-opacity="1" /><path clip-path="url(#clip480)" d="M1281.49 49.968 Q1281.57 48.9432 1283.17 48.9432 L1334.61 48.9432 Q1337.03 48.9432 1337.07 49.886 Q1337.07 50.9107 1334.77 50.8697 L1283.74 50.8697 Q1281.49 50.9107 1281.49 49.968 M1281.49 33.5722 Q1281.49 32.5475 1283.25 32.5885 L1334.53 32.5885 Q1337.03 32.5885 1337.07 33.5722 Q1337.07 34.515 1334.94 34.515 L1283.17 34.515 Q1281.49 34.515 1281.49 33.5722 Z" fill="#000000" fill-rule="evenodd" fill-opacity="1" /><path clip-path="url(#clip480)" d="M1369.45 35.8676 Q1369.45 23.5299 1372.56 16.8076 Q1376.91 6.80625 1387.16 6.80625 Q1389.33 6.80625 1391.58 7.42109 Q1393.88 7.99494 1396.75 10.2493 Q1399.66 12.5038 1401.42 16.1928 Q1404.78 23.3249 1404.78 35.8676 Q1404.78 48.1234 1401.67 54.8047 Q1397.12 64.5601 1387.07 64.5601 Q1383.3 64.5601 1379.45 62.6336 Q1375.64 60.7072 1373.22 56.0754 Q1369.45 49.1482 1369.45 35.8676 M1376.42 34.8429 Q1376.42 47.5086 1377.32 52.5503 Q1378.34 58.0019 1381.13 60.3792 Q1383.96 62.7156 1387.07 62.7156 Q1390.44 62.7156 1393.22 60.2153 Q1396.05 57.6739 1396.91 52.2224 Q1397.85 46.8528 1397.81 34.8429 Q1397.81 23.161 1396.99 18.4882 Q1395.89 13.0366 1392.94 10.8642 Q1390.03 8.65077 1387.07 8.65077 Q1385.97 8.65077 1384.78 8.97868 Q1383.63 9.3066 1381.95 10.2493 Q1380.27 11.1921 1378.96 13.5285 Q1377.69 15.8649 1377.07 19.39 Q1376.42 23.9398 1376.42 34.8429 Z" fill="#000000" fill-rule="evenodd" fill-opacity="1" /><path clip-path="url(#clip480)" d="M1412.29 61.363 Q1411.02 60.0103 1411.02 58.2478 Q1411.02 56.4853 1412.29 55.2146 Q1413.56 53.9029 1415.49 53.9029 Q1417.33 53.9029 1418.56 55.1326 Q1419.83 56.3213 1419.83 58.2888 Q1419.83 60.2153 1418.48 61.4859 Q1417.17 62.7156 1415.49 62.7156 Q1413.56 62.7156 1412.29 61.363 Z" fill="#000000" fill-rule="evenodd" fill-opacity="1" /><path clip-path="url(#clip480)" d="M1434.12 35.8676 Q1434.12 23.5299 1437.23 16.8076 Q1441.58 6.80625 1451.83 6.80625 Q1454 6.80625 1456.25 7.42109 Q1458.55 7.99494 1461.42 10.2493 Q1464.33 12.5038 1466.09 16.1928 Q1469.45 23.3249 1469.45 35.8676 Q1469.45 48.1234 1466.34 54.8047 Q1461.79 64.5601 1451.74 64.5601 Q1447.97 64.5601 1444.12 62.6336 Q1440.31 60.7072 1437.89 56.0754 Q1434.12 49.1482 1434.12 35.8676 M1441.09 34.8429 Q1441.09 47.5086 1441.99 52.5503 Q1443.01 58.0019 1445.8 60.3792 Q1448.63 62.7156 1451.74 62.7156 Q1455.1 62.7156 1457.89 60.2153 Q1460.72 57.6739 1461.58 52.2224 Q1462.52 46.8528 1462.48 34.8429 Q1462.48 23.161 1461.66 18.4882 Q1460.56 13.0366 1457.61 10.8642 Q1454.69 8.65077 1451.74 8.65077 Q1450.64 8.65077 1449.45 8.97868 Q1448.3 9.3066 1446.62 10.2493 Q1444.94 11.1921 1443.63 13.5285 Q1442.36 15.8649 1441.74 19.39 Q1441.09 23.9398 1441.09 34.8429 Z" fill="#000000" fill-rule="evenodd" fill-opacity="1" /><path clip-path="url(#clip480)" d="M1470.44 23.243 L1473.18 5.98646 L1475.28 5.98646 Q1475.52 7.0112 1475.93 7.46208 Q1476.38 7.91296 1478.76 8.28186 Q1481.18 8.65077 1486.06 8.65077 L1506.43 8.65077 Q1506.43 10.5773 1505.69 11.602 L1494.34 27.5468 Q1490.73 32.5885 1489.13 41.8931 Q1488.19 48.1234 1488.23 55.6655 L1488.23 59.9284 Q1488.23 64.5601 1484.33 64.5601 Q1480.48 64.5601 1480.48 59.9284 Q1480.48 43.9015 1490.81 28.3666 Q1491.92 26.768 1495.97 21.0705 Q1500.07 15.373 1500.24 15.1271 L1482.86 15.1271 Q1475.23 15.1271 1474.62 15.6189 Q1473.8 16.3568 1472.53 23.243 L1470.44 23.243 Z" fill="#000000" fill-rule="evenodd" fill-opacity="1" /><path clip-path="url(#clip480)" d="M1504.88 36.1956 Q1504.88 22.997 1511.61 14.9221 Q1518.33 6.80625 1526.98 6.80625 Q1532.02 6.80625 1534.81 9.38857 Q1537.63 11.9299 1537.63 15.8649 Q1537.63 18.0373 1536.36 18.9801 Q1535.09 19.9228 1533.78 19.9228 Q1532.26 19.9228 1531.08 18.8981 Q1529.89 17.8734 1529.89 16.0288 Q1529.89 12.2578 1534.52 12.2578 Q1532.35 8.8967 1527.14 8.8967 Q1525.54 8.8967 1523.9 9.38857 Q1522.26 9.83946 1520.13 11.397 Q1518 12.9546 1516.36 15.414 Q1514.72 17.8734 1513.57 22.5051 Q1512.43 27.1369 1512.43 33.1624 L1512.43 35.1708 Q1515.87 26.85 1522.92 26.891 Q1529.97 26.891 1534.85 32.2606 Q1539.72 37.6302 1539.72 45.5821 Q1539.72 53.739 1534.64 59.1496 Q1529.56 64.5601 1522.43 64.5601 Q1519.23 64.5601 1516.32 63.2075 Q1513.45 61.8958 1510.75 58.8626 Q1508.08 55.8294 1506.48 50.0089 Q1504.88 44.1885 1504.88 36.1956 M1512.59 43.7376 Q1512.59 51.9764 1514.11 55.9114 Q1514.35 56.5672 1514.89 57.469 Q1515.46 58.3708 1516.4 59.5595 Q1517.39 60.7072 1518.98 61.4859 Q1520.58 62.2238 1522.43 62.2238 Q1528.04 62.2238 1530.75 56.7722 Q1532.18 53.739 1532.18 45.5001 Q1532.18 37.0973 1530.67 34.0231 Q1528.08 28.8175 1522.84 28.8175 Q1519.31 28.8175 1516.85 31.2359 Q1514.43 33.6542 1513.49 36.8924 Q1512.59 40.1305 1512.59 43.7376 Z" fill="#000000" fill-rule="evenodd" fill-opacity="1" /><polyline clip-path="url(#clip483)" style="stroke:#009af9; stroke-linecap:butt; stroke-linejoin:round; stroke-width:4; stroke-opacity:1; fill:none" points="
  218.281,1413.26 228.695,1413.25 239.108,1413.21 249.522,1413.08 259.936,1412.71 270.349,1411.8 280.763,1409.66 291.176,1405.07 301.59,1395.97 312.004,1379.37 
  322.417,1351.49 332.831,1308.45 343.244,1247.44 353.658,1168.09 364.072,1073.39 374.485,969.458 384.899,863.919 395.312,763.436 405.726,671.621 416.14,588.391 
  426.553,511.107 436.967,436.786 447.38,364.203 457.794,294.91 468.208,232.93 478.621,183.517 489.035,151.626 499.448,140.63 509.862,151.542 520.276,182.792 
  530.689,230.513 541.103,289.292 551.516,353.227 561.93,417.001 572.344,476.66 582.757,529.876 593.171,575.781 603.584,614.606 613.998,647.407 624.412,675.935 
  634.825,702.5 645.239,729.619 655.652,759.38 666.066,792.761 676.479,829.286 686.893,867.274 697.307,904.598 707.72,939.498 718.134,971.007 728.547,998.847 
  738.961,1023.02 749.375,1043.52 759.788,1060.38 770.202,1073.95 780.615,1085.12 791.029,1095.27 801.443,1105.92 811.856,1118.21 822.27,1132.58 832.683,1148.75 
  843.097,1166.02 853.511,1183.66 863.924,1201.22 874.338,1218.58 884.751,1235.69 895.165,1252.46 905.579,1268.62 915.992,1283.8 926.406,1297.62 936.819,1309.76 
  947.233,1320.08 957.647,1328.61 968.06,1335.56 978.474,1341.19 988.887,1345.77 999.301,1349.4 1009.71,1352.12 1020.13,1354.01 1030.54,1355.37 1040.96,1356.71 
  1051.37,1358.59 1061.78,1361.42 1072.2,1365.22 1082.61,1369.62 1093.02,1373.95 1103.44,1377.54 1113.85,1379.92 1124.26,1381.01 1134.68,1381.13 1145.09,1380.83 
  1155.5,1380.67 1165.92,1381.03 1176.33,1382 1186.75,1383.44 1197.16,1385.13 1207.57,1386.82 1217.99,1388.32 1228.4,1389.49 1238.81,1390.24 1249.23,1390.58 
  1259.64,1390.64 1270.05,1390.59 1280.47,1390.63 1290.88,1390.89 1301.3,1391.42 1311.71,1392.18 1322.12,1393.14 1332.54,1394.28 1342.95,1395.56 1353.36,1396.94 
  1363.78,1398.33 1374.19,1399.61 1384.6,1400.67 1395.02,1401.44 1405.43,1401.94 1415.84,1402.26 1426.26,1402.55 1436.67,1402.98 1447.09,1403.68 1457.5,1404.65 
  1467.91,1405.77 1478.33,1406.79 1488.74,1407.43 1499.15,1407.5 1509.57,1406.95 1519.98,1405.96 1530.39,1404.83 1540.81,1403.92 1551.22,1403.49 1561.64,1403.6 
  1572.05,1404.13 1582.46,1404.87 1592.88,1405.63 1603.29,1406.36 1613.7,1407.09 1624.12,1407.9 1634.53,1408.84 1644.94,1409.84 1655.36,1410.82 1665.77,1411.66 
  1676.18,1412.3 1686.6,1412.73 1697.01,1412.98 1707.43,1413.09 1717.84,1413.07 1728.25,1412.93 1738.67,1412.64 1749.08,1412.16 1759.49,1411.49 1769.91,1410.66 
  1780.32,1409.81 1790.73,1409.1 1801.15,1408.69 1811.56,1408.71 1821.97,1409.14 1832.39,1409.87 1842.8,1410.73 1853.22,1411.54 1863.63,1412.2 1874.04,1412.67 
  1884.46,1412.96 1894.87,1413.13 1905.28,1413.21 1915.7,1413.25 1926.11,1413.26 1936.52,1413.27 1946.94,1413.27 1957.35,1413.27 1967.77,1413.27 1978.18,1413.27 
  1988.59,1413.27 1999.01,1413.27 2009.42,1413.27 2019.83,1413.27 2030.25,1413.27 2040.66,1413.26 2051.07,1413.24 2061.49,1413.19 2071.9,1413.09 2082.31,1412.89 
  2092.73,1412.55 2103.14,1412.02 2113.56,1411.3 2123.97,1410.45 2134.38,1409.6 2144.8,1408.95 2155.21,1408.64 2165.62,1408.76 2176.04,1409.29 2186.45,1410.08 
  2196.86,1410.94 2207.28,1411.73 2217.69,1412.34 2228.11,1412.76 2238.52,1413.02 2248.93,1413.16 2259.35,1413.22 2269.76,1413.25 2280.17,1413.26 2290.59,1413.27 
  
  "/>
<polyline clip-path="url(#clip483)" style="stroke:#000000; stroke-linecap:butt; stroke-linejoin:round; stroke-width:4; stroke-opacity:1; fill:none" points="
  866.421,2800.45 866.421,-1246.55 
  "/>
</svg>
