<?xml version="1.0" encoding="utf-8"?>
<svg xmlns="http://www.w3.org/2000/svg" xmlns:xlink="http://www.w3.org/1999/xlink" width="600" height="400" viewBox="0 0 2400 1600">
<defs>
  <clipPath id="clip160">
    <rect x="0" y="0" width="2400" height="1600"/>
  </clipPath>
</defs>
<path clip-path="url(#clip160)" d="
M0 1600 L2400 1600 L2400 0 L0 0  Z
  " fill="#ffffff" fill-rule="evenodd" fill-opacity="1"/>
<defs>
  <clipPath id="clip161">
    <rect x="480" y="0" width="1681" height="1600"/>
  </clipPath>
</defs>
<path clip-path="url(#clip160)" d="
M373.865 175.205 L2069.83 175.205 L2069.83 47.2441 L373.865 47.2441  Z
  " fill="#ffffff" fill-rule="evenodd" fill-opacity="1"/>
<defs>
  <clipPath id="clip162">
    <rect x="373" y="47" width="1697" height="129"/>
  </clipPath>
</defs>
<polyline clip-path="url(#clip160)" style="stroke:#000000; stroke-linecap:butt; stroke-linejoin:round; stroke-width:4; stroke-opacity:1; fill:none" points="
  373.865,175.205 2069.83,175.205 
  "/>
<polyline clip-path="url(#clip160)" style="stroke:#000000; stroke-linecap:butt; stroke-linejoin:round; stroke-width:4; stroke-opacity:1; fill:none" points="
  373.865,175.205 373.865,47.2441 
  "/>
<polyline clip-path="url(#clip162)" style="stroke:#009af9; stroke-linecap:butt; stroke-linejoin:round; stroke-width:4; stroke-opacity:1; fill:none" points="
  172.989,175.205 184.907,175.204 196.824,175.203 208.742,175.201 220.66,175.197 232.577,175.189 244.495,175.177 256.413,175.156 268.33,175.123 280.248,175.072 
  292.165,174.996 304.083,174.888 316.001,174.738 327.918,174.54 339.836,174.287 351.753,173.977 363.671,173.613 375.589,173.204 387.506,172.764 399.424,172.313 
  411.341,171.872 423.259,171.464 435.177,171.106 447.094,170.805 459.012,170.561 470.929,170.359 482.847,170.176 494.765,169.977 506.682,169.726 518.6,169.383 
  530.517,168.913 542.435,168.29 554.353,167.494 566.27,166.521 578.188,165.375 590.105,164.075 602.023,162.65 613.941,161.135 625.858,159.573 637.776,158.004 
  649.694,156.466 661.611,154.986 673.529,153.574 685.446,152.224 697.364,150.911 709.282,149.59 721.199,148.201 733.117,146.676 745.034,144.944 756.952,142.941 
  768.87,140.618 780.787,137.943 792.705,134.912 804.622,131.545 816.54,127.888 828.458,124.006 840.375,119.978 852.293,115.887 864.21,111.812 876.128,107.818 
  888.046,103.952 899.963,100.238 911.881,96.6769 923.798,93.2528 935.716,89.9382 947.634,86.7024 959.551,83.52 971.469,80.3773 983.387,77.2772 995.304,74.2407 
  1007.22,71.3067 1019.14,68.5301 1031.06,65.9779 1042.97,63.7238 1054.89,61.8415 1066.81,60.3955 1078.73,59.4316 1090.64,58.9677 1102.56,58.9868 1114.48,59.4351 
  1126.4,60.2264 1138.32,61.2522 1150.23,62.3961 1162.15,63.5494 1174.07,64.6235 1185.99,65.5588 1197.9,66.325 1209.82,66.9175 1221.74,67.3493 1233.66,67.6425 
  1245.57,67.8216 1257.49,67.9098 1269.41,67.9293 1281.33,67.9027 1293.24,67.8563 1305.16,67.8213 1317.08,67.8343 1329,67.9361 1340.91,68.169 1352.83,68.5745 
  1364.75,69.1905 1376.67,70.0498 1388.59,71.1779 1400.5,72.5919 1412.42,74.2991 1424.34,76.2968 1436.26,78.5727 1448.17,81.1063 1460.09,83.8717 1472.01,86.8401 
  1483.93,89.9821 1495.84,93.2697 1507.76,96.6757 1519.68,100.174 1531.6,103.74 1543.51,107.346 1555.43,110.965 1567.35,114.572 1579.27,118.138 1591.18,121.636 
  1603.1,125.043 1615.02,128.333 1626.94,131.486 1638.85,134.488 1650.77,137.328 1662.69,140.007 1674.61,142.533 1686.53,144.923 1698.44,147.198 1710.36,149.379 
  1722.28,151.487 1734.2,153.533 1746.11,155.516 1758.03,157.426 1769.95,159.243 1781.87,160.94 1793.78,162.488 1805.7,163.862 1817.62,165.043 1829.54,166.025 
  1841.45,166.814 1853.37,167.427 1865.29,167.892 1877.21,168.245 1889.12,168.523 1901.04,168.763 1912.96,168.997 1924.88,169.25 1936.8,169.538 1948.71,169.87 
  1960.63,170.245 1972.55,170.658 1984.47,171.099 1996.38,171.556 2008.3,172.014 2020.22,172.461 2032.14,172.883 2044.05,173.27 2055.97,173.613 2067.89,173.906 
  2079.81,174.146 2091.72,174.332 2103.64,174.466 2115.56,174.552 2127.48,174.597 2139.39,174.607 2151.31,174.592 2163.23,174.56 2175.15,174.519 2187.06,174.476 
  2198.98,174.436 2210.9,174.403 2222.82,174.38 2234.74,174.368 2246.65,174.368 2258.57,174.38 2270.49,174.404 2282.41,174.442 2294.32,174.491 2306.24,174.551 
  2318.16,174.619 2330.08,174.694 2341.99,174.771 2353.91,174.846 2365.83,174.917 2377.75,174.981 2389.66,175.037 2401.58,175.082 2413.5,175.119 2425.42,175.146 
  2437.33,175.166 2449.25,175.18 2461.17,175.19 2473.09,175.196 2485.01,175.2 2496.92,175.202 2508.84,175.204 2520.76,175.204 2532.68,175.205 2544.59,175.205 
  
  "/>
<path clip-path="url(#clip160)" d="
M373.865 1421.34 L2069.83 1421.34 L2069.83 269.693 L373.865 269.693  Z
  " fill="#ffffff" fill-rule="evenodd" fill-opacity="1"/>
<defs>
  <clipPath id="clip163">
    <rect x="373" y="269" width="1697" height="1153"/>
  </clipPath>
</defs>
<polyline clip-path="url(#clip163)" style="stroke:#000000; stroke-linecap:butt; stroke-linejoin:round; stroke-width:2; stroke-opacity:0.1; fill:none" points="
  584.06,1421.34 584.06,269.693 
  "/>
<polyline clip-path="url(#clip163)" style="stroke:#000000; stroke-linecap:butt; stroke-linejoin:round; stroke-width:2; stroke-opacity:0.1; fill:none" points="
  962.345,1421.34 962.345,269.693 
  "/>
<polyline clip-path="url(#clip163)" style="stroke:#000000; stroke-linecap:butt; stroke-linejoin:round; stroke-width:2; stroke-opacity:0.1; fill:none" points="
  1340.63,1421.34 1340.63,269.693 
  "/>
<polyline clip-path="url(#clip163)" style="stroke:#000000; stroke-linecap:butt; stroke-linejoin:round; stroke-width:2; stroke-opacity:0.1; fill:none" points="
  1718.91,1421.34 1718.91,269.693 
  "/>
<polyline clip-path="url(#clip160)" style="stroke:#000000; stroke-linecap:butt; stroke-linejoin:round; stroke-width:4; stroke-opacity:1; fill:none" points="
  373.865,1421.34 2069.83,1421.34 
  "/>
<polyline clip-path="url(#clip160)" style="stroke:#000000; stroke-linecap:butt; stroke-linejoin:round; stroke-width:4; stroke-opacity:1; fill:none" points="
  584.06,1421.34 584.06,1402.45 
  "/>
<polyline clip-path="url(#clip160)" style="stroke:#000000; stroke-linecap:butt; stroke-linejoin:round; stroke-width:4; stroke-opacity:1; fill:none" points="
  962.345,1421.34 962.345,1402.45 
  "/>
<polyline clip-path="url(#clip160)" style="stroke:#000000; stroke-linecap:butt; stroke-linejoin:round; stroke-width:4; stroke-opacity:1; fill:none" points="
  1340.63,1421.34 1340.63,1402.45 
  "/>
<polyline clip-path="url(#clip160)" style="stroke:#000000; stroke-linecap:butt; stroke-linejoin:round; stroke-width:4; stroke-opacity:1; fill:none" points="
  1718.91,1421.34 1718.91,1402.45 
  "/>
<path clip-path="url(#clip160)" d="M448.358 1484.92 Q451.715 1485.63 453.59 1487.9 Q455.488 1490.17 455.488 1493.5 Q455.488 1498.62 451.969 1501.42 Q448.451 1504.22 441.969 1504.22 Q439.793 1504.22 437.479 1503.78 Q435.187 1503.37 432.733 1502.51 L432.733 1497.99 Q434.678 1499.13 436.992 1499.71 Q439.307 1500.29 441.83 1500.29 Q446.228 1500.29 448.52 1498.55 Q450.835 1496.81 450.835 1493.5 Q450.835 1490.45 448.682 1488.74 Q446.553 1487 442.733 1487 L438.705 1487 L438.705 1483.16 L442.918 1483.16 Q446.367 1483.16 448.196 1481.79 Q450.025 1480.4 450.025 1477.81 Q450.025 1475.15 448.127 1473.74 Q446.252 1472.3 442.733 1472.3 Q440.812 1472.3 438.613 1472.72 Q436.414 1473.13 433.775 1474.01 L433.775 1469.85 Q436.437 1469.11 438.752 1468.74 Q441.09 1468.37 443.15 1468.37 Q448.474 1468.37 451.576 1470.8 Q454.677 1473.2 454.677 1477.32 Q454.677 1480.19 453.034 1482.18 Q451.39 1484.15 448.358 1484.92 Z" fill="#000000" fill-rule="evenodd" fill-opacity="1" /><path clip-path="url(#clip160)" d="M464.353 1497.67 L469.238 1497.67 L469.238 1503.55 L464.353 1503.55 L464.353 1497.67 Z" fill="#000000" fill-rule="evenodd" fill-opacity="1" /><path clip-path="url(#clip160)" d="M493.589 1484.92 Q496.946 1485.63 498.821 1487.9 Q500.719 1490.17 500.719 1493.5 Q500.719 1498.62 497.2 1501.42 Q493.682 1504.22 487.2 1504.22 Q485.025 1504.22 482.71 1503.78 Q480.418 1503.37 477.964 1502.51 L477.964 1497.99 Q479.909 1499.13 482.224 1499.71 Q484.538 1500.29 487.062 1500.29 Q491.46 1500.29 493.751 1498.55 Q496.066 1496.81 496.066 1493.5 Q496.066 1490.45 493.913 1488.74 Q491.784 1487 487.964 1487 L483.937 1487 L483.937 1483.16 L488.15 1483.16 Q491.599 1483.16 493.427 1481.79 Q495.256 1480.4 495.256 1477.81 Q495.256 1475.15 493.358 1473.74 Q491.483 1472.3 487.964 1472.3 Q486.043 1472.3 483.844 1472.72 Q481.645 1473.13 479.006 1474.01 L479.006 1469.85 Q481.668 1469.11 483.983 1468.74 Q486.321 1468.37 488.381 1468.37 Q493.705 1468.37 496.807 1470.8 Q499.909 1473.2 499.909 1477.32 Q499.909 1480.19 498.265 1482.18 Q496.622 1484.15 493.589 1484.92 Z" fill="#000000" fill-rule="evenodd" fill-opacity="1" /><path clip-path="url(#clip160)" d="M519.585 1472.07 Q515.973 1472.07 514.145 1475.63 Q512.339 1479.18 512.339 1486.31 Q512.339 1493.41 514.145 1496.98 Q515.973 1500.52 519.585 1500.52 Q523.219 1500.52 525.024 1496.98 Q526.853 1493.41 526.853 1486.31 Q526.853 1479.18 525.024 1475.63 Q523.219 1472.07 519.585 1472.07 M519.585 1468.37 Q525.395 1468.37 528.45 1472.97 Q531.529 1477.56 531.529 1486.31 Q531.529 1495.03 528.45 1499.64 Q525.395 1504.22 519.585 1504.22 Q513.774 1504.22 510.696 1499.64 Q507.64 1495.03 507.64 1486.31 Q507.64 1477.56 510.696 1472.97 Q513.774 1468.37 519.585 1468.37 Z" fill="#000000" fill-rule="evenodd" fill-opacity="1" /><path clip-path="url(#clip160)" d="M549.746 1472.07 Q546.135 1472.07 544.307 1475.63 Q542.501 1479.18 542.501 1486.31 Q542.501 1493.41 544.307 1496.98 Q546.135 1500.52 549.746 1500.52 Q553.381 1500.52 555.186 1496.98 Q557.015 1493.41 557.015 1486.31 Q557.015 1479.18 555.186 1475.63 Q553.381 1472.07 549.746 1472.07 M549.746 1468.37 Q555.557 1468.37 558.612 1472.97 Q561.691 1477.56 561.691 1486.31 Q561.691 1495.03 558.612 1499.64 Q555.557 1504.22 549.746 1504.22 Q543.936 1504.22 540.858 1499.64 Q537.802 1495.03 537.802 1486.31 Q537.802 1477.56 540.858 1472.97 Q543.936 1468.37 549.746 1468.37 Z" fill="#000000" fill-rule="evenodd" fill-opacity="1" /><path clip-path="url(#clip160)" d="M598.08 1478.09 L587.501 1488.71 L598.08 1499.29 L595.325 1502.09 L584.7 1491.47 L574.075 1502.09 L571.344 1499.29 L581.899 1488.71 L571.344 1478.09 L574.075 1475.29 L584.7 1485.91 L595.325 1475.29 L598.08 1478.09 Z" fill="#000000" fill-rule="evenodd" fill-opacity="1" /><path clip-path="url(#clip160)" d="M610.441 1499.62 L618.079 1499.62 L618.079 1473.25 L609.769 1474.92 L609.769 1470.66 L618.033 1468.99 L622.709 1468.99 L622.709 1499.62 L630.348 1499.62 L630.348 1503.55 L610.441 1503.55 L610.441 1499.62 Z" fill="#000000" fill-rule="evenodd" fill-opacity="1" /><path clip-path="url(#clip160)" d="M649.792 1472.07 Q646.181 1472.07 644.352 1475.63 Q642.547 1479.18 642.547 1486.31 Q642.547 1493.41 644.352 1496.98 Q646.181 1500.52 649.792 1500.52 Q653.426 1500.52 655.232 1496.98 Q657.061 1493.41 657.061 1486.31 Q657.061 1479.18 655.232 1475.63 Q653.426 1472.07 649.792 1472.07 M649.792 1468.37 Q655.602 1468.37 658.658 1472.97 Q661.737 1477.56 661.737 1486.31 Q661.737 1495.03 658.658 1499.64 Q655.602 1504.22 649.792 1504.22 Q643.982 1504.22 640.903 1499.64 Q637.848 1495.03 637.848 1486.31 Q637.848 1477.56 640.903 1472.97 Q643.982 1468.37 649.792 1468.37 Z" fill="#000000" fill-rule="evenodd" fill-opacity="1" /><path clip-path="url(#clip160)" d="M661.737 1462.47 L685.848 1462.47 L685.848 1465.66 L661.737 1465.66 L661.737 1462.47 Z" fill="#000000" fill-rule="evenodd" fill-opacity="1" /><path clip-path="url(#clip160)" d="M694.707 1472.94 L700.913 1472.94 L700.913 1451.52 L694.161 1452.87 L694.161 1449.41 L700.876 1448.06 L704.675 1448.06 L704.675 1472.94 L710.881 1472.94 L710.881 1476.14 L694.707 1476.14 L694.707 1472.94 Z" fill="#000000" fill-rule="evenodd" fill-opacity="1" /><path clip-path="url(#clip160)" d="M719.213 1472.94 L725.42 1472.94 L725.42 1451.52 L718.668 1452.87 L718.668 1449.41 L725.382 1448.06 L729.181 1448.06 L729.181 1472.94 L735.388 1472.94 L735.388 1476.14 L719.213 1476.14 L719.213 1472.94 Z" fill="#000000" fill-rule="evenodd" fill-opacity="1" /><path clip-path="url(#clip160)" d="M826.643 1484.92 Q829.999 1485.63 831.874 1487.9 Q833.772 1490.17 833.772 1493.5 Q833.772 1498.62 830.254 1501.42 Q826.735 1504.22 820.254 1504.22 Q818.078 1504.22 815.763 1503.78 Q813.472 1503.37 811.018 1502.51 L811.018 1497.99 Q812.962 1499.13 815.277 1499.71 Q817.592 1500.29 820.115 1500.29 Q824.513 1500.29 826.805 1498.55 Q829.12 1496.81 829.12 1493.5 Q829.12 1490.45 826.967 1488.74 Q824.837 1487 821.018 1487 L816.99 1487 L816.99 1483.16 L821.203 1483.16 Q824.652 1483.16 826.481 1481.79 Q828.309 1480.4 828.309 1477.81 Q828.309 1475.15 826.411 1473.74 Q824.536 1472.3 821.018 1472.3 Q819.096 1472.3 816.897 1472.72 Q814.698 1473.13 812.06 1474.01 L812.06 1469.85 Q814.722 1469.11 817.036 1468.74 Q819.374 1468.37 821.434 1468.37 Q826.758 1468.37 829.86 1470.8 Q832.962 1473.2 832.962 1477.32 Q832.962 1480.19 831.319 1482.18 Q829.675 1484.15 826.643 1484.92 Z" fill="#000000" fill-rule="evenodd" fill-opacity="1" /><path clip-path="url(#clip160)" d="M842.638 1497.67 L847.522 1497.67 L847.522 1503.55 L842.638 1503.55 L842.638 1497.67 Z" fill="#000000" fill-rule="evenodd" fill-opacity="1" /><path clip-path="url(#clip160)" d="M871.874 1484.92 Q875.23 1485.63 877.105 1487.9 Q879.004 1490.17 879.004 1493.5 Q879.004 1498.62 875.485 1501.42 Q871.967 1504.22 865.485 1504.22 Q863.309 1504.22 860.994 1503.78 Q858.703 1503.37 856.249 1502.51 L856.249 1497.99 Q858.194 1499.13 860.508 1499.71 Q862.823 1500.29 865.346 1500.29 Q869.744 1500.29 872.036 1498.55 Q874.351 1496.81 874.351 1493.5 Q874.351 1490.45 872.198 1488.74 Q870.068 1487 866.249 1487 L862.221 1487 L862.221 1483.16 L866.434 1483.16 Q869.883 1483.16 871.712 1481.79 Q873.541 1480.4 873.541 1477.81 Q873.541 1475.15 871.643 1473.74 Q869.768 1472.3 866.249 1472.3 Q864.328 1472.3 862.129 1472.72 Q859.93 1473.13 857.291 1474.01 L857.291 1469.85 Q859.953 1469.11 862.268 1468.74 Q864.606 1468.37 866.666 1468.37 Q871.99 1468.37 875.092 1470.8 Q878.193 1473.2 878.193 1477.32 Q878.193 1480.19 876.55 1482.18 Q874.906 1484.15 871.874 1484.92 Z" fill="#000000" fill-rule="evenodd" fill-opacity="1" /><path clip-path="url(#clip160)" d="M887.916 1468.99 L906.272 1468.99 L906.272 1472.93 L892.198 1472.93 L892.198 1481.4 Q893.216 1481.05 894.235 1480.89 Q895.253 1480.7 896.272 1480.7 Q902.059 1480.7 905.439 1483.87 Q908.818 1487.05 908.818 1492.46 Q908.818 1498.04 905.346 1501.14 Q901.874 1504.22 895.554 1504.22 Q893.379 1504.22 891.11 1503.85 Q888.865 1503.48 886.457 1502.74 L886.457 1498.04 Q888.541 1499.18 890.763 1499.73 Q892.985 1500.29 895.462 1500.29 Q899.466 1500.29 901.804 1498.18 Q904.142 1496.07 904.142 1492.46 Q904.142 1488.85 901.804 1486.74 Q899.466 1484.64 895.462 1484.64 Q893.587 1484.64 891.712 1485.06 Q889.86 1485.47 887.916 1486.35 L887.916 1468.99 Z" fill="#000000" fill-rule="evenodd" fill-opacity="1" /><path clip-path="url(#clip160)" d="M928.031 1472.07 Q924.42 1472.07 922.591 1475.63 Q920.786 1479.18 920.786 1486.31 Q920.786 1493.41 922.591 1496.98 Q924.42 1500.52 928.031 1500.52 Q931.665 1500.52 933.471 1496.98 Q935.3 1493.41 935.3 1486.31 Q935.3 1479.18 933.471 1475.63 Q931.665 1472.07 928.031 1472.07 M928.031 1468.37 Q933.841 1468.37 936.897 1472.97 Q939.975 1477.56 939.975 1486.31 Q939.975 1495.03 936.897 1499.64 Q933.841 1504.22 928.031 1504.22 Q922.221 1504.22 919.142 1499.64 Q916.087 1495.03 916.087 1486.31 Q916.087 1477.56 919.142 1472.97 Q922.221 1468.37 928.031 1468.37 Z" fill="#000000" fill-rule="evenodd" fill-opacity="1" /><path clip-path="url(#clip160)" d="M976.364 1478.09 L965.786 1488.71 L976.364 1499.29 L973.61 1502.09 L962.985 1491.47 L952.36 1502.09 L949.628 1499.29 L960.184 1488.71 L949.628 1478.09 L952.36 1475.29 L962.985 1485.91 L973.61 1475.29 L976.364 1478.09 Z" fill="#000000" fill-rule="evenodd" fill-opacity="1" /><path clip-path="url(#clip160)" d="M988.725 1499.62 L996.364 1499.62 L996.364 1473.25 L988.054 1474.92 L988.054 1470.66 L996.318 1468.99 L1000.99 1468.99 L1000.99 1499.62 L1008.63 1499.62 L1008.63 1503.55 L988.725 1503.55 L988.725 1499.62 Z" fill="#000000" fill-rule="evenodd" fill-opacity="1" /><path clip-path="url(#clip160)" d="M1028.08 1472.07 Q1024.47 1472.07 1022.64 1475.63 Q1020.83 1479.18 1020.83 1486.31 Q1020.83 1493.41 1022.64 1496.98 Q1024.47 1500.52 1028.08 1500.52 Q1031.71 1500.52 1033.52 1496.98 Q1035.35 1493.41 1035.35 1486.31 Q1035.35 1479.18 1033.52 1475.63 Q1031.71 1472.07 1028.08 1472.07 M1028.08 1468.37 Q1033.89 1468.37 1036.94 1472.97 Q1040.02 1477.56 1040.02 1486.31 Q1040.02 1495.03 1036.94 1499.64 Q1033.89 1504.22 1028.08 1504.22 Q1022.27 1504.22 1019.19 1499.64 Q1016.13 1495.03 1016.13 1486.31 Q1016.13 1477.56 1019.19 1472.97 Q1022.27 1468.37 1028.08 1468.37 Z" fill="#000000" fill-rule="evenodd" fill-opacity="1" /><path clip-path="url(#clip160)" d="M1040.02 1462.47 L1064.13 1462.47 L1064.13 1465.66 L1040.02 1465.66 L1040.02 1462.47 Z" fill="#000000" fill-rule="evenodd" fill-opacity="1" /><path clip-path="url(#clip160)" d="M1072.99 1472.94 L1079.2 1472.94 L1079.2 1451.52 L1072.45 1452.87 L1072.45 1449.41 L1079.16 1448.06 L1082.96 1448.06 L1082.96 1472.94 L1089.17 1472.94 L1089.17 1476.14 L1072.99 1476.14 L1072.99 1472.94 Z" fill="#000000" fill-rule="evenodd" fill-opacity="1" /><path clip-path="url(#clip160)" d="M1097.5 1472.94 L1103.7 1472.94 L1103.7 1451.52 L1096.95 1452.87 L1096.95 1449.41 L1103.67 1448.06 L1107.47 1448.06 L1107.47 1472.94 L1113.67 1472.94 L1113.67 1476.14 L1097.5 1476.14 L1097.5 1472.94 Z" fill="#000000" fill-rule="evenodd" fill-opacity="1" /><path clip-path="url(#clip160)" d="M1204.93 1484.92 Q1208.28 1485.63 1210.16 1487.9 Q1212.06 1490.17 1212.06 1493.5 Q1212.06 1498.62 1208.54 1501.42 Q1205.02 1504.22 1198.54 1504.22 Q1196.36 1504.22 1194.05 1503.78 Q1191.76 1503.37 1189.3 1502.51 L1189.3 1497.99 Q1191.25 1499.13 1193.56 1499.71 Q1195.88 1500.29 1198.4 1500.29 Q1202.8 1500.29 1205.09 1498.55 Q1207.4 1496.81 1207.4 1493.5 Q1207.4 1490.45 1205.25 1488.74 Q1203.12 1487 1199.3 1487 L1195.27 1487 L1195.27 1483.16 L1199.49 1483.16 Q1202.94 1483.16 1204.77 1481.79 Q1206.59 1480.4 1206.59 1477.81 Q1206.59 1475.15 1204.7 1473.74 Q1202.82 1472.3 1199.3 1472.3 Q1197.38 1472.3 1195.18 1472.72 Q1192.98 1473.13 1190.34 1474.01 L1190.34 1469.85 Q1193.01 1469.11 1195.32 1468.74 Q1197.66 1468.37 1199.72 1468.37 Q1205.04 1468.37 1208.15 1470.8 Q1211.25 1473.2 1211.25 1477.32 Q1211.25 1480.19 1209.6 1482.18 Q1207.96 1484.15 1204.93 1484.92 Z" fill="#000000" fill-rule="evenodd" fill-opacity="1" /><path clip-path="url(#clip160)" d="M1220.92 1497.67 L1225.81 1497.67 L1225.81 1503.55 L1220.92 1503.55 L1220.92 1497.67 Z" fill="#000000" fill-rule="evenodd" fill-opacity="1" /><path clip-path="url(#clip160)" d="M1248.84 1473.06 L1237.03 1491.51 L1248.84 1491.51 L1248.84 1473.06 M1247.61 1468.99 L1253.49 1468.99 L1253.49 1491.51 L1258.42 1491.51 L1258.42 1495.4 L1253.49 1495.4 L1253.49 1503.55 L1248.84 1503.55 L1248.84 1495.4 L1233.24 1495.4 L1233.24 1490.89 L1247.61 1468.99 Z" fill="#000000" fill-rule="evenodd" fill-opacity="1" /><path clip-path="url(#clip160)" d="M1276.15 1472.07 Q1272.54 1472.07 1270.71 1475.63 Q1268.91 1479.18 1268.91 1486.31 Q1268.91 1493.41 1270.71 1496.98 Q1272.54 1500.52 1276.15 1500.52 Q1279.79 1500.52 1281.59 1496.98 Q1283.42 1493.41 1283.42 1486.31 Q1283.42 1479.18 1281.59 1475.63 Q1279.79 1472.07 1276.15 1472.07 M1276.15 1468.37 Q1281.96 1468.37 1285.02 1472.97 Q1288.1 1477.56 1288.1 1486.31 Q1288.1 1495.03 1285.02 1499.64 Q1281.96 1504.22 1276.15 1504.22 Q1270.34 1504.22 1267.27 1499.64 Q1264.21 1495.03 1264.21 1486.31 Q1264.21 1477.56 1267.27 1472.97 Q1270.34 1468.37 1276.15 1468.37 Z" fill="#000000" fill-rule="evenodd" fill-opacity="1" /><path clip-path="url(#clip160)" d="M1306.32 1472.07 Q1302.7 1472.07 1300.88 1475.63 Q1299.07 1479.18 1299.07 1486.31 Q1299.07 1493.41 1300.88 1496.98 Q1302.7 1500.52 1306.32 1500.52 Q1309.95 1500.52 1311.76 1496.98 Q1313.58 1493.41 1313.58 1486.31 Q1313.58 1479.18 1311.76 1475.63 Q1309.95 1472.07 1306.32 1472.07 M1306.32 1468.37 Q1312.13 1468.37 1315.18 1472.97 Q1318.26 1477.56 1318.26 1486.31 Q1318.26 1495.03 1315.18 1499.64 Q1312.13 1504.22 1306.32 1504.22 Q1300.51 1504.22 1297.43 1499.64 Q1294.37 1495.03 1294.37 1486.31 Q1294.37 1477.56 1297.43 1472.97 Q1300.51 1468.37 1306.32 1468.37 Z" fill="#000000" fill-rule="evenodd" fill-opacity="1" /><path clip-path="url(#clip160)" d="M1354.65 1478.09 L1344.07 1488.71 L1354.65 1499.29 L1351.89 1502.09 L1341.27 1491.47 L1330.64 1502.09 L1327.91 1499.29 L1338.47 1488.71 L1327.91 1478.09 L1330.64 1475.29 L1341.27 1485.91 L1351.89 1475.29 L1354.65 1478.09 Z" fill="#000000" fill-rule="evenodd" fill-opacity="1" /><path clip-path="url(#clip160)" d="M1367.01 1499.62 L1374.65 1499.62 L1374.65 1473.25 L1366.34 1474.92 L1366.34 1470.66 L1374.6 1468.99 L1379.28 1468.99 L1379.28 1499.62 L1386.92 1499.62 L1386.92 1503.55 L1367.01 1503.55 L1367.01 1499.62 Z" fill="#000000" fill-rule="evenodd" fill-opacity="1" /><path clip-path="url(#clip160)" d="M1406.36 1472.07 Q1402.75 1472.07 1400.92 1475.63 Q1399.12 1479.18 1399.12 1486.31 Q1399.12 1493.41 1400.92 1496.98 Q1402.75 1500.52 1406.36 1500.52 Q1410 1500.52 1411.8 1496.98 Q1413.63 1493.41 1413.63 1486.31 Q1413.63 1479.18 1411.8 1475.63 Q1410 1472.07 1406.36 1472.07 M1406.36 1468.37 Q1412.17 1468.37 1415.23 1472.97 Q1418.31 1477.56 1418.31 1486.31 Q1418.31 1495.03 1415.23 1499.64 Q1412.17 1504.22 1406.36 1504.22 Q1400.55 1504.22 1397.47 1499.64 Q1394.42 1495.03 1394.42 1486.31 Q1394.42 1477.56 1397.47 1472.97 Q1400.55 1468.37 1406.36 1468.37 Z" fill="#000000" fill-rule="evenodd" fill-opacity="1" /><path clip-path="url(#clip160)" d="M1418.31 1462.47 L1442.42 1462.47 L1442.42 1465.66 L1418.31 1465.66 L1418.31 1462.47 Z" fill="#000000" fill-rule="evenodd" fill-opacity="1" /><path clip-path="url(#clip160)" d="M1451.28 1472.94 L1457.48 1472.94 L1457.48 1451.52 L1450.73 1452.87 L1450.73 1449.41 L1457.44 1448.06 L1461.24 1448.06 L1461.24 1472.94 L1467.45 1472.94 L1467.45 1476.14 L1451.28 1476.14 L1451.28 1472.94 Z" fill="#000000" fill-rule="evenodd" fill-opacity="1" /><path clip-path="url(#clip160)" d="M1475.78 1472.94 L1481.99 1472.94 L1481.99 1451.52 L1475.24 1452.87 L1475.24 1449.41 L1481.95 1448.06 L1485.75 1448.06 L1485.75 1472.94 L1491.96 1472.94 L1491.96 1476.14 L1475.78 1476.14 L1475.78 1472.94 Z" fill="#000000" fill-rule="evenodd" fill-opacity="1" /><path clip-path="url(#clip160)" d="M1583.21 1484.92 Q1586.57 1485.63 1588.44 1487.9 Q1590.34 1490.17 1590.34 1493.5 Q1590.34 1498.62 1586.82 1501.42 Q1583.3 1504.22 1576.82 1504.22 Q1574.65 1504.22 1572.33 1503.78 Q1570.04 1503.37 1567.59 1502.51 L1567.59 1497.99 Q1569.53 1499.13 1571.85 1499.71 Q1574.16 1500.29 1576.68 1500.29 Q1581.08 1500.29 1583.37 1498.55 Q1585.69 1496.81 1585.69 1493.5 Q1585.69 1490.45 1583.54 1488.74 Q1581.41 1487 1577.59 1487 L1573.56 1487 L1573.56 1483.16 L1577.77 1483.16 Q1581.22 1483.16 1583.05 1481.79 Q1584.88 1480.4 1584.88 1477.81 Q1584.88 1475.15 1582.98 1473.74 Q1581.11 1472.3 1577.59 1472.3 Q1575.67 1472.3 1573.47 1472.72 Q1571.27 1473.13 1568.63 1474.01 L1568.63 1469.85 Q1571.29 1469.11 1573.61 1468.74 Q1575.94 1468.37 1578 1468.37 Q1583.33 1468.37 1586.43 1470.8 Q1589.53 1473.2 1589.53 1477.32 Q1589.53 1480.19 1587.89 1482.18 Q1586.24 1484.15 1583.21 1484.92 Z" fill="#000000" fill-rule="evenodd" fill-opacity="1" /><path clip-path="url(#clip160)" d="M1599.21 1497.67 L1604.09 1497.67 L1604.09 1503.55 L1599.21 1503.55 L1599.21 1497.67 Z" fill="#000000" fill-rule="evenodd" fill-opacity="1" /><path clip-path="url(#clip160)" d="M1627.12 1473.06 L1615.32 1491.51 L1627.12 1491.51 L1627.12 1473.06 M1625.9 1468.99 L1631.78 1468.99 L1631.78 1491.51 L1636.71 1491.51 L1636.71 1495.4 L1631.78 1495.4 L1631.78 1503.55 L1627.12 1503.55 L1627.12 1495.4 L1611.52 1495.4 L1611.52 1490.89 L1625.9 1468.99 Z" fill="#000000" fill-rule="evenodd" fill-opacity="1" /><path clip-path="url(#clip160)" d="M1644.48 1468.99 L1662.84 1468.99 L1662.84 1472.93 L1648.77 1472.93 L1648.77 1481.4 Q1649.79 1481.05 1650.8 1480.89 Q1651.82 1480.7 1652.84 1480.7 Q1658.63 1480.7 1662.01 1483.87 Q1665.39 1487.05 1665.39 1492.46 Q1665.39 1498.04 1661.92 1501.14 Q1658.44 1504.22 1652.12 1504.22 Q1649.95 1504.22 1647.68 1503.85 Q1645.43 1503.48 1643.03 1502.74 L1643.03 1498.04 Q1645.11 1499.18 1647.33 1499.73 Q1649.55 1500.29 1652.03 1500.29 Q1656.04 1500.29 1658.37 1498.18 Q1660.71 1496.07 1660.71 1492.46 Q1660.71 1488.85 1658.37 1486.74 Q1656.04 1484.64 1652.03 1484.64 Q1650.16 1484.64 1648.28 1485.06 Q1646.43 1485.47 1644.48 1486.35 L1644.48 1468.99 Z" fill="#000000" fill-rule="evenodd" fill-opacity="1" /><path clip-path="url(#clip160)" d="M1684.6 1472.07 Q1680.99 1472.07 1679.16 1475.63 Q1677.36 1479.18 1677.36 1486.31 Q1677.36 1493.41 1679.16 1496.98 Q1680.99 1500.52 1684.6 1500.52 Q1688.23 1500.52 1690.04 1496.98 Q1691.87 1493.41 1691.87 1486.31 Q1691.87 1479.18 1690.04 1475.63 Q1688.23 1472.07 1684.6 1472.07 M1684.6 1468.37 Q1690.41 1468.37 1693.47 1472.97 Q1696.54 1477.56 1696.54 1486.31 Q1696.54 1495.03 1693.47 1499.64 Q1690.41 1504.22 1684.6 1504.22 Q1678.79 1504.22 1675.71 1499.64 Q1672.66 1495.03 1672.66 1486.31 Q1672.66 1477.56 1675.71 1472.97 Q1678.79 1468.37 1684.6 1468.37 Z" fill="#000000" fill-rule="evenodd" fill-opacity="1" /><path clip-path="url(#clip160)" d="M1732.93 1478.09 L1722.35 1488.71 L1732.93 1499.29 L1730.18 1502.09 L1719.55 1491.47 L1708.93 1502.09 L1706.2 1499.29 L1716.75 1488.71 L1706.2 1478.09 L1708.93 1475.29 L1719.55 1485.91 L1730.18 1475.29 L1732.93 1478.09 Z" fill="#000000" fill-rule="evenodd" fill-opacity="1" /><path clip-path="url(#clip160)" d="M1745.29 1499.62 L1752.93 1499.62 L1752.93 1473.25 L1744.62 1474.92 L1744.62 1470.66 L1752.89 1468.99 L1757.56 1468.99 L1757.56 1499.62 L1765.2 1499.62 L1765.2 1503.55 L1745.29 1503.55 L1745.29 1499.62 Z" fill="#000000" fill-rule="evenodd" fill-opacity="1" /><path clip-path="url(#clip160)" d="M1784.65 1472.07 Q1781.04 1472.07 1779.21 1475.63 Q1777.4 1479.18 1777.4 1486.31 Q1777.4 1493.41 1779.21 1496.98 Q1781.04 1500.52 1784.65 1500.52 Q1788.28 1500.52 1790.09 1496.98 Q1791.91 1493.41 1791.91 1486.31 Q1791.91 1479.18 1790.09 1475.63 Q1788.28 1472.07 1784.65 1472.07 M1784.65 1468.37 Q1790.46 1468.37 1793.51 1472.97 Q1796.59 1477.56 1796.59 1486.31 Q1796.59 1495.03 1793.51 1499.64 Q1790.46 1504.22 1784.65 1504.22 Q1778.84 1504.22 1775.76 1499.64 Q1772.7 1495.03 1772.7 1486.31 Q1772.7 1477.56 1775.76 1472.97 Q1778.84 1468.37 1784.65 1468.37 Z" fill="#000000" fill-rule="evenodd" fill-opacity="1" /><path clip-path="url(#clip160)" d="M1796.59 1462.47 L1820.7 1462.47 L1820.7 1465.66 L1796.59 1465.66 L1796.59 1462.47 Z" fill="#000000" fill-rule="evenodd" fill-opacity="1" /><path clip-path="url(#clip160)" d="M1829.56 1472.94 L1835.77 1472.94 L1835.77 1451.52 L1829.02 1452.87 L1829.02 1449.41 L1835.73 1448.06 L1839.53 1448.06 L1839.53 1472.94 L1845.74 1472.94 L1845.74 1476.14 L1829.56 1476.14 L1829.56 1472.94 Z" fill="#000000" fill-rule="evenodd" fill-opacity="1" /><path clip-path="url(#clip160)" d="M1854.07 1472.94 L1860.27 1472.94 L1860.27 1451.52 L1853.52 1452.87 L1853.52 1449.41 L1860.24 1448.06 L1864.04 1448.06 L1864.04 1472.94 L1870.24 1472.94 L1870.24 1476.14 L1854.07 1476.14 L1854.07 1472.94 Z" fill="#000000" fill-rule="evenodd" fill-opacity="1" /><path clip-path="url(#clip160)" d="M1223.54 1541.49 Q1222.71 1545.64 1221.58 1548.02 Q1219.78 1551.66 1216.68 1551.66 Q1214.49 1551.66 1212.82 1550.34 Q1211.18 1549.02 1210.76 1546.83 Q1209.92 1547.83 1209.31 1548.41 Q1208.73 1548.99 1207.57 1549.89 Q1206.44 1550.76 1205.03 1551.21 Q1203.61 1551.66 1202 1551.66 Q1198.07 1551.66 1195.59 1549.6 Q1192.24 1563.1 1191.95 1563.77 Q1191.02 1565.16 1189.66 1565.16 Q1188.83 1565.16 1188.31 1564.64 Q1187.8 1564.16 1187.8 1563.39 Q1187.83 1563.13 1188.02 1562.32 L1197.49 1524.16 Q1197.75 1523.13 1198.39 1522.55 Q1199.07 1521.94 1199.45 1521.87 Q1199.84 1521.78 1200.13 1521.78 Q1201 1521.78 1201.51 1522.26 Q1202.06 1522.71 1202.06 1523.55 Q1202.06 1523.68 1201.87 1524.42 Q1201.71 1525.12 1201.45 1526.22 Q1201.19 1527.28 1201.06 1527.77 L1198.29 1538.84 Q1197.36 1542.64 1197.36 1544.45 Q1197.36 1547.19 1198.58 1548.7 Q1199.84 1550.18 1202.26 1550.18 Q1203.77 1550.18 1205.19 1549.57 Q1206.6 1548.93 1207.57 1548.06 Q1208.54 1547.19 1209.31 1546.25 Q1210.08 1545.29 1210.44 1544.67 Q1210.79 1544.03 1210.82 1543.87 L1212.53 1537.14 L1215.65 1524.8 Q1215.85 1524.03 1216.2 1523.51 Q1216.59 1522.97 1217.04 1522.77 Q1217.49 1522.58 1217.75 1522.55 Q1218 1522.48 1218.23 1522.48 Q1219.03 1522.48 1219.58 1522.97 Q1220.13 1523.45 1220.13 1524.29 Q1220.13 1524.45 1219.94 1525.22 Q1219.78 1525.96 1219.52 1527.06 Q1219.26 1528.12 1219.13 1528.7 Q1218.1 1532.76 1218 1533.18 L1216.17 1540.29 Q1216.07 1540.71 1215.75 1542.07 Q1215.46 1543.42 1215.3 1544.13 Q1215.14 1544.8 1214.98 1545.74 Q1214.85 1546.64 1214.85 1547.15 Q1214.85 1550.18 1216.84 1550.18 Q1217.62 1550.18 1218.29 1549.73 Q1218.97 1549.25 1219.42 1548.57 Q1219.9 1547.89 1220.36 1546.74 Q1220.84 1545.54 1221.13 1544.58 Q1221.42 1543.58 1221.84 1542.03 Q1222 1541.29 1222.16 1541.07 Q1222.32 1540.84 1222.77 1540.84 Q1223.54 1540.84 1223.54 1541.49 Z" fill="#000000" fill-rule="evenodd" fill-opacity="1" /><path clip-path="url(#clip160)" d="M1249.04 1559.74 Q1249.04 1560.93 1248.25 1561.7 Q1247.49 1562.47 1246.5 1562.47 Q1245.64 1562.47 1245.19 1561.97 Q1244.74 1561.47 1244.74 1560.84 Q1244.74 1559.94 1245.44 1559.2 Q1246.13 1558.45 1247.15 1558.3 Q1246.41 1557.76 1245.21 1557.76 Q1243.25 1557.76 1241.51 1559.27 Q1240.75 1559.96 1239.91 1561.25 Q1239.08 1562.51 1238.92 1563.05 L1237.46 1569.07 Q1237.32 1569.75 1236.49 1573 Q1235.67 1576.22 1235.61 1576.35 Q1235.38 1576.99 1234.89 1577.32 Q1234.39 1577.66 1233.89 1577.66 Q1233.33 1577.66 1232.95 1577.32 Q1232.56 1576.99 1232.56 1576.4 Q1232.56 1576.31 1232.63 1575.97 Q1232.7 1575.63 1232.81 1575.16 Q1232.92 1574.69 1232.97 1574.42 L1235.65 1563.75 Q1236.15 1561.81 1236.26 1561.2 Q1236.4 1560.57 1236.4 1559.87 Q1236.4 1558.66 1236.01 1558.21 Q1235.63 1557.76 1234.95 1557.76 Q1233.78 1557.76 1233.01 1559.15 Q1232.25 1560.55 1231.59 1563.26 Q1231.39 1564 1231.26 1564.16 Q1231.14 1564.32 1230.81 1564.32 Q1230.24 1564.29 1230.24 1563.84 Q1230.24 1563.73 1230.42 1563.01 Q1230.6 1562.26 1230.94 1561.18 Q1231.3 1560.08 1231.68 1559.38 Q1231.91 1558.9 1232.11 1558.59 Q1232.32 1558.27 1232.72 1557.78 Q1233.13 1557.28 1233.74 1557.01 Q1234.34 1556.74 1235.09 1556.74 Q1236.71 1556.74 1237.86 1557.73 Q1239.03 1558.72 1239.3 1560.28 Q1239.87 1559.47 1240.57 1558.77 Q1241.27 1558.05 1242.55 1557.39 Q1243.84 1556.74 1245.21 1556.74 Q1246.92 1556.74 1247.98 1557.62 Q1249.04 1558.48 1249.04 1559.74 Z" fill="#000000" fill-rule="evenodd" fill-opacity="1" /><polyline clip-path="url(#clip163)" style="stroke:#000000; stroke-linecap:butt; stroke-linejoin:round; stroke-width:2; stroke-opacity:0.1; fill:none" points="
  373.865,1200.52 2069.83,1200.52 
  "/>
<polyline clip-path="url(#clip163)" style="stroke:#000000; stroke-linecap:butt; stroke-linejoin:round; stroke-width:2; stroke-opacity:0.1; fill:none" points="
  373.865,941.713 2069.83,941.713 
  "/>
<polyline clip-path="url(#clip163)" style="stroke:#000000; stroke-linecap:butt; stroke-linejoin:round; stroke-width:2; stroke-opacity:0.1; fill:none" points="
  373.865,682.91 2069.83,682.91 
  "/>
<polyline clip-path="url(#clip163)" style="stroke:#000000; stroke-linecap:butt; stroke-linejoin:round; stroke-width:2; stroke-opacity:0.1; fill:none" points="
  373.865,424.108 2069.83,424.108 
  "/>
<polyline clip-path="url(#clip160)" style="stroke:#000000; stroke-linecap:butt; stroke-linejoin:round; stroke-width:4; stroke-opacity:1; fill:none" points="
  373.865,1421.34 373.865,269.693 
  "/>
<polyline clip-path="url(#clip160)" style="stroke:#000000; stroke-linecap:butt; stroke-linejoin:round; stroke-width:4; stroke-opacity:1; fill:none" points="
  373.865,1200.52 392.762,1200.52 
  "/>
<polyline clip-path="url(#clip160)" style="stroke:#000000; stroke-linecap:butt; stroke-linejoin:round; stroke-width:4; stroke-opacity:1; fill:none" points="
  373.865,941.713 392.762,941.713 
  "/>
<polyline clip-path="url(#clip160)" style="stroke:#000000; stroke-linecap:butt; stroke-linejoin:round; stroke-width:4; stroke-opacity:1; fill:none" points="
  373.865,682.91 392.762,682.91 
  "/>
<polyline clip-path="url(#clip160)" style="stroke:#000000; stroke-linecap:butt; stroke-linejoin:round; stroke-width:4; stroke-opacity:1; fill:none" points="
  373.865,424.108 392.762,424.108 
  "/>
<path clip-path="url(#clip160)" d="M325.92 1186.31 Q322.309 1186.31 320.481 1189.88 Q318.675 1193.42 318.675 1200.55 Q318.675 1207.66 320.481 1211.22 Q322.309 1214.76 325.92 1214.76 Q329.555 1214.76 331.36 1211.22 Q333.189 1207.66 333.189 1200.55 Q333.189 1193.42 331.36 1189.88 Q329.555 1186.31 325.92 1186.31 M325.92 1182.61 Q331.731 1182.61 334.786 1187.22 Q337.865 1191.8 337.865 1200.55 Q337.865 1209.28 334.786 1213.88 Q331.731 1218.47 325.92 1218.47 Q320.11 1218.47 317.032 1213.88 Q313.976 1209.28 313.976 1200.55 Q313.976 1191.8 317.032 1187.22 Q320.11 1182.61 325.92 1182.61 Z" fill="#000000" fill-rule="evenodd" fill-opacity="1" /><path clip-path="url(#clip160)" d="M110.689 946.806 Q114.045 947.524 115.92 949.792 Q117.818 952.061 117.818 955.394 Q117.818 960.51 114.3 963.311 Q110.781 966.112 104.3 966.112 Q102.124 966.112 99.809 965.672 Q97.5174 965.255 95.0637 964.399 L95.0637 959.885 Q97.0081 961.019 99.3229 961.598 Q101.638 962.176 104.161 962.176 Q108.559 962.176 110.851 960.44 Q113.165 958.704 113.165 955.394 Q113.165 952.339 111.013 950.626 Q108.883 948.89 105.064 948.89 L101.036 948.89 L101.036 945.047 L105.249 945.047 Q108.698 945.047 110.527 943.681 Q112.355 942.292 112.355 939.7 Q112.355 937.038 110.457 935.626 Q108.582 934.191 105.064 934.191 Q103.142 934.191 100.943 934.607 Q98.7442 935.024 96.1054 935.903 L96.1054 931.737 Q98.7674 930.996 101.082 930.626 Q103.42 930.255 105.48 930.255 Q110.804 930.255 113.906 932.686 Q117.008 935.093 117.008 939.214 Q117.008 942.084 115.365 944.075 Q113.721 946.042 110.689 946.806 Z" fill="#000000" fill-rule="evenodd" fill-opacity="1" /><path clip-path="url(#clip160)" d="M126.684 959.561 L131.568 959.561 L131.568 965.44 L126.684 965.44 L126.684 959.561 Z" fill="#000000" fill-rule="evenodd" fill-opacity="1" /><path clip-path="url(#clip160)" d="M151.753 933.959 Q148.142 933.959 146.313 937.524 Q144.508 941.065 144.508 948.195 Q144.508 955.302 146.313 958.866 Q148.142 962.408 151.753 962.408 Q155.387 962.408 157.193 958.866 Q159.022 955.302 159.022 948.195 Q159.022 941.065 157.193 937.524 Q155.387 933.959 151.753 933.959 M151.753 930.255 Q157.563 930.255 160.619 934.862 Q163.698 939.445 163.698 948.195 Q163.698 956.922 160.619 961.528 Q157.563 966.112 151.753 966.112 Q145.943 966.112 142.864 961.528 Q139.809 956.922 139.809 948.195 Q139.809 939.445 142.864 934.862 Q145.943 930.255 151.753 930.255 Z" fill="#000000" fill-rule="evenodd" fill-opacity="1" /><path clip-path="url(#clip160)" d="M200.086 939.978 L189.508 950.602 L200.086 961.181 L197.332 963.982 L186.707 953.357 L176.082 963.982 L173.35 961.181 L183.906 950.602 L173.35 939.978 L176.082 937.177 L186.707 947.802 L197.332 937.177 L200.086 939.978 Z" fill="#000000" fill-rule="evenodd" fill-opacity="1" /><path clip-path="url(#clip160)" d="M212.447 961.505 L220.086 961.505 L220.086 935.14 L211.776 936.806 L211.776 932.547 L220.04 930.88 L224.716 930.88 L224.716 961.505 L232.355 961.505 L232.355 965.44 L212.447 965.44 L212.447 961.505 Z" fill="#000000" fill-rule="evenodd" fill-opacity="1" /><path clip-path="url(#clip160)" d="M251.799 933.959 Q248.188 933.959 246.359 937.524 Q244.554 941.065 244.554 948.195 Q244.554 955.302 246.359 958.866 Q248.188 962.408 251.799 962.408 Q255.433 962.408 257.239 958.866 Q259.067 955.302 259.067 948.195 Q259.067 941.065 257.239 937.524 Q255.433 933.959 251.799 933.959 M251.799 930.255 Q257.609 930.255 260.665 934.862 Q263.743 939.445 263.743 948.195 Q263.743 956.922 260.665 961.528 Q257.609 966.112 251.799 966.112 Q245.989 966.112 242.91 961.528 Q239.855 956.922 239.855 948.195 Q239.855 939.445 242.91 934.862 Q245.989 930.255 251.799 930.255 Z" fill="#000000" fill-rule="evenodd" fill-opacity="1" /><path clip-path="url(#clip160)" d="M263.743 924.357 L287.855 924.357 L287.855 927.554 L263.743 927.554 L263.743 924.357 Z" fill="#000000" fill-rule="evenodd" fill-opacity="1" /><path clip-path="url(#clip160)" d="M296.713 934.833 L302.92 934.833 L302.92 913.411 L296.168 914.765 L296.168 911.304 L302.882 909.95 L306.681 909.95 L306.681 934.833 L312.888 934.833 L312.888 938.03 L296.713 938.03 L296.713 934.833 Z" fill="#000000" fill-rule="evenodd" fill-opacity="1" /><path clip-path="url(#clip160)" d="M332.072 922.89 Q334.799 923.473 336.323 925.316 Q337.865 927.159 337.865 929.867 Q337.865 934.024 335.006 936.3 Q332.147 938.575 326.881 938.575 Q325.113 938.575 323.232 938.218 Q321.37 937.879 319.377 937.184 L319.377 933.516 Q320.957 934.438 322.837 934.908 Q324.718 935.378 326.768 935.378 Q330.342 935.378 332.204 933.967 Q334.084 932.557 334.084 929.867 Q334.084 927.385 332.335 925.993 Q330.605 924.582 327.502 924.582 L324.229 924.582 L324.229 921.46 L327.652 921.46 Q330.455 921.46 331.94 920.351 Q333.426 919.222 333.426 917.116 Q333.426 914.953 331.884 913.806 Q330.36 912.639 327.502 912.639 Q325.941 912.639 324.154 912.978 Q322.367 913.317 320.223 914.031 L320.223 910.646 Q322.386 910.044 324.267 909.743 Q326.166 909.442 327.84 909.442 Q332.166 909.442 334.686 911.417 Q337.206 913.373 337.206 916.721 Q337.206 919.053 335.871 920.67 Q334.536 922.269 332.072 922.89 Z" fill="#000000" fill-rule="evenodd" fill-opacity="1" /><path clip-path="url(#clip160)" d="M107.101 687.495 Q103.953 687.495 102.101 689.647 Q100.272 691.8 100.272 695.55 Q100.272 699.277 102.101 701.453 Q103.953 703.606 107.101 703.606 Q110.249 703.606 112.077 701.453 Q113.929 699.277 113.929 695.55 Q113.929 691.8 112.077 689.647 Q110.249 687.495 107.101 687.495 M116.383 672.842 L116.383 677.101 Q114.624 676.268 112.818 675.828 Q111.036 675.388 109.277 675.388 Q104.647 675.388 102.193 678.513 Q99.7627 681.638 99.4155 687.958 Q100.781 685.944 102.841 684.879 Q104.902 683.791 107.378 683.791 Q112.587 683.791 115.596 686.962 Q118.628 690.11 118.628 695.55 Q118.628 700.874 115.48 704.092 Q112.332 707.309 107.101 707.309 Q101.105 707.309 97.9341 702.726 Q94.7628 698.12 94.7628 689.393 Q94.7628 681.198 98.6516 676.337 Q102.541 671.453 109.091 671.453 Q110.851 671.453 112.633 671.8 Q114.439 672.147 116.383 672.842 Z" fill="#000000" fill-rule="evenodd" fill-opacity="1" /><path clip-path="url(#clip160)" d="M126.684 700.758 L131.568 700.758 L131.568 706.638 L126.684 706.638 L126.684 700.758 Z" fill="#000000" fill-rule="evenodd" fill-opacity="1" /><path clip-path="url(#clip160)" d="M151.753 675.157 Q148.142 675.157 146.313 678.721 Q144.508 682.263 144.508 689.393 Q144.508 696.499 146.313 700.064 Q148.142 703.606 151.753 703.606 Q155.387 703.606 157.193 700.064 Q159.022 696.499 159.022 689.393 Q159.022 682.263 157.193 678.721 Q155.387 675.157 151.753 675.157 M151.753 671.453 Q157.563 671.453 160.619 676.059 Q163.698 680.643 163.698 689.393 Q163.698 698.12 160.619 702.726 Q157.563 707.309 151.753 707.309 Q145.943 707.309 142.864 702.726 Q139.809 698.12 139.809 689.393 Q139.809 680.643 142.864 676.059 Q145.943 671.453 151.753 671.453 Z" fill="#000000" fill-rule="evenodd" fill-opacity="1" /><path clip-path="url(#clip160)" d="M200.086 681.175 L189.508 691.8 L200.086 702.379 L197.332 705.18 L186.707 694.555 L176.082 705.18 L173.35 702.379 L183.906 691.8 L173.35 681.175 L176.082 678.374 L186.707 688.999 L197.332 678.374 L200.086 681.175 Z" fill="#000000" fill-rule="evenodd" fill-opacity="1" /><path clip-path="url(#clip160)" d="M212.447 702.703 L220.086 702.703 L220.086 676.337 L211.776 678.004 L211.776 673.745 L220.04 672.078 L224.716 672.078 L224.716 702.703 L232.355 702.703 L232.355 706.638 L212.447 706.638 L212.447 702.703 Z" fill="#000000" fill-rule="evenodd" fill-opacity="1" /><path clip-path="url(#clip160)" d="M251.799 675.157 Q248.188 675.157 246.359 678.721 Q244.554 682.263 244.554 689.393 Q244.554 696.499 246.359 700.064 Q248.188 703.606 251.799 703.606 Q255.433 703.606 257.239 700.064 Q259.067 696.499 259.067 689.393 Q259.067 682.263 257.239 678.721 Q255.433 675.157 251.799 675.157 M251.799 671.453 Q257.609 671.453 260.665 676.059 Q263.743 680.643 263.743 689.393 Q263.743 698.12 260.665 702.726 Q257.609 707.309 251.799 707.309 Q245.989 707.309 242.91 702.726 Q239.855 698.12 239.855 689.393 Q239.855 680.643 242.91 676.059 Q245.989 671.453 251.799 671.453 Z" fill="#000000" fill-rule="evenodd" fill-opacity="1" /><path clip-path="url(#clip160)" d="M263.743 665.554 L287.855 665.554 L287.855 668.752 L263.743 668.752 L263.743 665.554 Z" fill="#000000" fill-rule="evenodd" fill-opacity="1" /><path clip-path="url(#clip160)" d="M296.713 676.03 L302.92 676.03 L302.92 654.608 L296.168 655.962 L296.168 652.502 L302.882 651.148 L306.681 651.148 L306.681 676.03 L312.888 676.03 L312.888 679.228 L296.713 679.228 L296.713 676.03 Z" fill="#000000" fill-rule="evenodd" fill-opacity="1" /><path clip-path="url(#clip160)" d="M332.072 664.087 Q334.799 664.67 336.323 666.514 Q337.865 668.357 337.865 671.065 Q337.865 675.222 335.006 677.497 Q332.147 679.773 326.881 679.773 Q325.113 679.773 323.232 679.416 Q321.37 679.077 319.377 678.381 L319.377 674.714 Q320.957 675.635 322.837 676.105 Q324.718 676.576 326.768 676.576 Q330.342 676.576 332.204 675.165 Q334.084 673.755 334.084 671.065 Q334.084 668.582 332.335 667.191 Q330.605 665.78 327.502 665.78 L324.229 665.78 L324.229 662.658 L327.652 662.658 Q330.455 662.658 331.94 661.548 Q333.426 660.42 333.426 658.313 Q333.426 656.15 331.884 655.003 Q330.36 653.837 327.502 653.837 Q325.941 653.837 324.154 654.176 Q322.367 654.514 320.223 655.229 L320.223 651.843 Q322.386 651.242 324.267 650.941 Q326.166 650.64 327.84 650.64 Q332.166 650.64 334.686 652.615 Q337.206 654.571 337.206 657.918 Q337.206 660.251 335.871 661.868 Q334.536 663.467 332.072 664.087 Z" fill="#000000" fill-rule="evenodd" fill-opacity="1" /><path clip-path="url(#clip160)" d="M96.6609 447.118 L96.6609 442.859 Q98.4202 443.692 100.226 444.132 Q102.031 444.572 103.767 444.572 Q108.397 444.572 110.828 441.47 Q113.281 438.345 113.628 432.002 Q112.286 433.993 110.226 435.058 Q108.165 436.123 105.665 436.123 Q100.48 436.123 97.4479 432.998 Q94.4387 429.85 94.4387 424.41 Q94.4387 419.086 97.5868 415.868 Q100.735 412.651 105.966 412.651 Q111.962 412.651 115.11 417.257 Q118.281 421.84 118.281 430.59 Q118.281 438.762 114.392 443.646 Q110.527 448.507 103.976 448.507 Q102.216 448.507 100.411 448.16 Q98.6053 447.812 96.6609 447.118 M105.966 432.465 Q109.115 432.465 110.943 430.313 Q112.795 428.16 112.795 424.41 Q112.795 420.683 110.943 418.53 Q109.115 416.354 105.966 416.354 Q102.818 416.354 100.966 418.53 Q99.1377 420.683 99.1377 424.41 Q99.1377 428.16 100.966 430.313 Q102.818 432.465 105.966 432.465 Z" fill="#000000" fill-rule="evenodd" fill-opacity="1" /><path clip-path="url(#clip160)" d="M126.684 441.956 L131.568 441.956 L131.568 447.836 L126.684 447.836 L126.684 441.956 Z" fill="#000000" fill-rule="evenodd" fill-opacity="1" /><path clip-path="url(#clip160)" d="M151.753 416.354 Q148.142 416.354 146.313 419.919 Q144.508 423.461 144.508 430.59 Q144.508 437.697 146.313 441.262 Q148.142 444.803 151.753 444.803 Q155.387 444.803 157.193 441.262 Q159.022 437.697 159.022 430.59 Q159.022 423.461 157.193 419.919 Q155.387 416.354 151.753 416.354 M151.753 412.651 Q157.563 412.651 160.619 417.257 Q163.698 421.84 163.698 430.59 Q163.698 439.317 160.619 443.924 Q157.563 448.507 151.753 448.507 Q145.943 448.507 142.864 443.924 Q139.809 439.317 139.809 430.59 Q139.809 421.84 142.864 417.257 Q145.943 412.651 151.753 412.651 Z" fill="#000000" fill-rule="evenodd" fill-opacity="1" /><path clip-path="url(#clip160)" d="M200.086 422.373 L189.508 432.998 L200.086 443.576 L197.332 446.377 L186.707 435.752 L176.082 446.377 L173.35 443.576 L183.906 432.998 L173.35 422.373 L176.082 419.572 L186.707 430.197 L197.332 419.572 L200.086 422.373 Z" fill="#000000" fill-rule="evenodd" fill-opacity="1" /><path clip-path="url(#clip160)" d="M212.447 443.9 L220.086 443.9 L220.086 417.535 L211.776 419.202 L211.776 414.942 L220.04 413.276 L224.716 413.276 L224.716 443.9 L232.355 443.9 L232.355 447.836 L212.447 447.836 L212.447 443.9 Z" fill="#000000" fill-rule="evenodd" fill-opacity="1" /><path clip-path="url(#clip160)" d="M251.799 416.354 Q248.188 416.354 246.359 419.919 Q244.554 423.461 244.554 430.59 Q244.554 437.697 246.359 441.262 Q248.188 444.803 251.799 444.803 Q255.433 444.803 257.239 441.262 Q259.067 437.697 259.067 430.59 Q259.067 423.461 257.239 419.919 Q255.433 416.354 251.799 416.354 M251.799 412.651 Q257.609 412.651 260.665 417.257 Q263.743 421.84 263.743 430.59 Q263.743 439.317 260.665 443.924 Q257.609 448.507 251.799 448.507 Q245.989 448.507 242.91 443.924 Q239.855 439.317 239.855 430.59 Q239.855 421.84 242.91 417.257 Q245.989 412.651 251.799 412.651 Z" fill="#000000" fill-rule="evenodd" fill-opacity="1" /><path clip-path="url(#clip160)" d="M263.743 406.752 L287.855 406.752 L287.855 409.949 L263.743 409.949 L263.743 406.752 Z" fill="#000000" fill-rule="evenodd" fill-opacity="1" /><path clip-path="url(#clip160)" d="M296.713 417.228 L302.92 417.228 L302.92 395.806 L296.168 397.16 L296.168 393.699 L302.882 392.345 L306.681 392.345 L306.681 417.228 L312.888 417.228 L312.888 420.425 L296.713 420.425 L296.713 417.228 Z" fill="#000000" fill-rule="evenodd" fill-opacity="1" /><path clip-path="url(#clip160)" d="M332.072 405.285 Q334.799 405.868 336.323 407.711 Q337.865 409.554 337.865 412.263 Q337.865 416.419 335.006 418.695 Q332.147 420.971 326.881 420.971 Q325.113 420.971 323.232 420.613 Q321.37 420.275 319.377 419.579 L319.377 415.911 Q320.957 416.833 322.837 417.303 Q324.718 417.773 326.768 417.773 Q330.342 417.773 332.204 416.363 Q334.084 414.952 334.084 412.263 Q334.084 409.78 332.335 408.388 Q330.605 406.978 327.502 406.978 L324.229 406.978 L324.229 403.856 L327.652 403.856 Q330.455 403.856 331.94 402.746 Q333.426 401.617 333.426 399.511 Q333.426 397.348 331.884 396.201 Q330.36 395.035 327.502 395.035 Q325.941 395.035 324.154 395.373 Q322.367 395.712 320.223 396.427 L320.223 393.041 Q322.386 392.439 324.267 392.138 Q326.166 391.837 327.84 391.837 Q332.166 391.837 334.686 393.812 Q337.206 395.768 337.206 399.116 Q337.206 401.448 335.871 403.066 Q334.536 404.664 332.072 405.285 Z" fill="#000000" fill-rule="evenodd" fill-opacity="1" /><path clip-path="url(#clip160)" d="M22.3579 844.253 Q24.6123 844.253 24.6123 847.473 L24.6123 854.72 Q27.5108 852.691 31.7942 852.691 Q35.4656 852.691 38.9117 854.204 Q42.3255 855.686 44.7087 858.069 Q47.092 860.42 48.5412 863.383 Q49.9583 866.346 49.9583 869.244 Q49.9583 873.657 46.9631 876.394 Q43.968 879.132 39.5236 879.132 Q37.1726 879.132 34.5639 878.327 Q31.9552 877.489 29.5398 875.911 Q27.0921 874.333 25.1276 872.272 Q23.163 870.178 21.9714 867.473 Q20.7798 864.736 20.7798 861.869 L20.7798 846.829 Q20.7798 846.024 20.8442 845.605 Q20.8764 845.154 21.2629 844.704 Q21.6171 844.253 22.3579 844.253 M31.0212 856.91 Q30.2483 856.91 29.572 857.006 Q28.8634 857.103 27.9295 857.457 Q26.9633 857.811 26.287 858.423 Q25.5784 859.035 25.0954 860.227 Q24.6123 861.386 24.6123 862.964 Q24.6123 865.187 25.8361 867.634 Q27.0599 870.082 30.0873 871.95 Q32.6637 873.496 36.0131 874.269 Q39.3625 875.042 41.3593 875.042 Q44.7731 875.042 46.6411 873.399 Q48.4768 871.724 48.4768 869.18 Q48.4768 867.087 47.0598 864.703 Q45.6105 862.32 42.873 860.484 Q40.4898 858.874 37.0115 857.908 Q33.5333 856.91 31.0212 856.91 Z" fill="#000000" fill-rule="evenodd" fill-opacity="1" /><path clip-path="url(#clip160)" d="M44.6754 818.759 Q45.8702 818.759 46.6367 819.548 Q47.4032 820.314 47.4032 821.306 Q47.4032 822.163 46.9072 822.614 Q46.4113 823.065 45.78 823.065 Q44.8783 823.065 44.1343 822.366 Q43.3904 821.667 43.2325 820.652 Q42.6915 821.396 42.6915 822.591 Q42.6915 824.552 44.2019 826.288 Q44.9008 827.055 46.1858 827.889 Q47.4483 828.723 47.9894 828.881 L54.0086 830.346 Q54.685 830.482 57.9313 831.316 Q61.1551 832.127 61.2904 832.195 Q61.9216 832.42 62.2598 832.916 Q62.5979 833.412 62.5979 833.908 Q62.5979 834.472 62.2598 834.855 Q61.9216 835.238 61.3355 835.238 Q61.2453 835.238 60.9071 835.171 Q60.569 835.103 60.0955 834.99 Q59.6221 834.878 59.3516 834.833 L48.6882 832.15 Q46.7494 831.654 46.1407 831.541 Q45.5095 831.406 44.8106 831.406 Q43.5933 831.406 43.1424 831.789 Q42.6915 832.172 42.6915 832.849 Q42.6915 834.021 44.0892 834.787 Q45.487 835.554 48.1923 836.208 Q48.9362 836.411 49.094 836.546 Q49.2518 836.659 49.2518 836.997 Q49.2293 837.56 48.7784 837.56 Q48.6657 837.56 47.9443 837.38 Q47.2003 837.2 46.1182 836.862 Q45.0135 836.501 44.3147 836.118 Q43.8412 835.892 43.5256 835.689 Q43.21 835.486 42.714 835.081 Q42.2181 834.675 41.9475 834.066 Q41.677 833.457 41.677 832.713 Q41.677 831.09 42.6689 829.941 Q43.6609 828.768 45.2164 828.498 Q44.4048 827.934 43.706 827.235 Q42.9846 826.536 42.3308 825.251 Q41.677 823.966 41.677 822.591 Q41.677 820.878 42.5562 819.818 Q43.4129 818.759 44.6754 818.759 Z" fill="#000000" fill-rule="evenodd" fill-opacity="1" /><polyline clip-path="url(#clip163)" style="stroke:#1c0c43; stroke-linecap:butt; stroke-linejoin:round; stroke-width:4; stroke-opacity:1; fill:none" points="
  618.89,1172.93 619.409,1173.43 625.846,1178.96 628.709,1180.67 637.191,1185 638.01,1185.32 647.31,1188.44 656.61,1190.98 656.841,1191.03 665.911,1192.81 
  675.211,1194.39 684.512,1195.84 692.234,1197.06 693.812,1197.29 703.112,1198.78 712.413,1200.51 721.713,1202.55 723.752,1203.1 731.014,1204.89 740.314,1207.57 
  745.066,1209.13 749.614,1210.54 758.915,1213.72 762.818,1215.16 768.215,1217.06 777.516,1220.42 779.593,1221.2 786.816,1223.78 796.117,1226.98 796.85,1227.23 
  805.417,1230.08 814.717,1232.9 815.988,1233.26 824.018,1235.57 833.318,1237.95 839.248,1239.3 842.619,1240.09 851.919,1242.05 861.219,1243.73 870.52,1245.16 
  871.769,1245.33 879.82,1246.5 889.121,1247.63 898.421,1248.55 907.721,1249.3 917.022,1249.88 926.322,1250.33 935.623,1250.65 944.923,1250.88 954.223,1251.04 
  963.524,1251.16 972.824,1251.27 979.61,1251.37 982.125,1251.41 991.425,1251.62 1000.73,1251.92 1010.03,1252.33 1019.33,1252.85 1028.63,1253.47 1037.93,1254.17 
  1047.23,1254.91 1056.53,1255.67 1065.83,1256.41 1075.13,1257.08 1079.99,1257.4 1084.43,1257.73 1093.73,1258.31 1103.03,1258.75 1112.33,1259.04 1121.63,1259.18 
  1130.93,1259.17 1140.23,1259.02 1149.53,1258.73 1158.83,1258.33 1168.13,1257.82 1174.75,1257.4 1177.43,1257.25 1186.73,1256.7 1196.03,1256.11 1205.33,1255.51 
  1214.63,1254.91 1223.94,1254.34 1233.24,1253.8 1242.54,1253.32 1251.84,1252.91 1261.14,1252.57 1270.44,1252.3 1279.74,1252.1 1289.04,1251.96 1298.34,1251.88 
  1307.64,1251.84 1316.94,1251.83 1326.24,1251.83 1335.54,1251.82 1344.84,1251.79 1354.14,1251.71 1363.44,1251.57 1372.52,1251.37 1372.74,1251.36 1382.04,1251.09 
  1391.34,1250.73 1400.64,1250.26 1409.94,1249.67 1419.24,1248.96 1428.54,1248.12 1437.84,1247.16 1447.15,1246.08 1453.08,1245.33 1456.45,1244.95 1465.75,1243.85 
  1475.05,1242.7 1484.35,1241.52 1493.65,1240.36 1502.28,1239.3 1502.95,1239.22 1512.25,1238.24 1521.55,1237.3 1530.85,1236.38 1540.15,1235.47 1549.45,1234.55 
  1558.75,1233.57 1561.49,1233.26 1568.05,1232.58 1577.35,1231.51 1586.65,1230.27 1595.95,1228.84 1604.94,1227.23 1605.25,1227.18 1614.55,1225.4 1623.85,1223.33 
  1632.22,1221.2 1633.15,1220.96 1642.45,1218.41 1651.75,1215.53 1652.87,1215.16 1661.05,1212.43 1670.11,1209.13 1670.35,1209.04 1679.66,1205.44 1685.48,1203.1 
  1688.96,1201.59 1698.26,1197.53 1699.37,1197.06 1707.56,1193.22 1712.35,1191.03 1716.86,1188.66 1724.13,1185 1726.16,1183.78 1734.61,1178.96 1735.46,1178.36 
  1743.54,1172.93 1744.76,1171.83 1750.58,1166.89 1754.06,1162.45 1755.38,1160.86 1758.32,1154.83 1759.42,1148.79 1759.12,1142.76 1757.81,1136.73 1755.91,1130.69 
  1754.06,1125.5 1753.8,1124.66 1752.01,1118.63 1750.53,1112.59 1749.55,1106.56 1749.18,1100.52 1749.46,1094.49 1750.34,1088.46 1751.73,1082.42 1753.48,1076.39 
  1754.06,1074.67 1755.56,1070.36 1757.7,1064.32 1759.72,1058.29 1761.52,1052.26 1763.03,1046.22 1763.36,1044.59 1764.26,1040.19 1765.16,1034.15 1765.74,1028.12 
  1766.02,1022.09 1766.04,1016.05 1765.86,1010.02 1765.51,1003.99 1765.04,997.953 1764.47,991.92 1763.83,985.886 1763.36,981.654 1763.17,979.852 1762.49,973.819 
  1761.81,967.785 1761.12,961.751 1760.45,955.718 1759.8,949.684 1759.2,943.651 1758.67,937.617 1758.22,931.583 1757.9,925.55 1757.71,919.516 1757.7,913.483 
  1757.86,907.449 1758.2,901.415 1758.68,895.382 1759.27,889.348 1759.87,883.314 1760.36,877.281 1760.59,871.247 1760.36,865.214 1759.43,859.18 1757.53,853.146 
  1754.38,847.113 1754.06,846.669 1749.8,841.079 1744.76,836.216 1743.47,835.045 1735.46,829.14 1735.27,829.012 1726.16,823.516 1725.21,822.978 1716.86,818.558 
  1713.71,816.945 1707.56,813.853 1701.75,810.911 1698.26,809.09 1690.57,804.877 1688.96,803.92 1681.07,798.844 1679.66,797.803 1673.5,792.81 1670.35,789.735 
  1667.62,786.776 1663.26,780.743 1661.05,776.496 1660.2,774.709 1658.41,768.676 1657.58,762.642 1657.62,756.608 1658.34,750.575 1659.53,744.541 1660.95,738.508 
  1661.05,738.058 1662.34,732.474 1663.39,726.44 1663.83,720.407 1663.46,714.373 1662.05,708.339 1661.05,706.023 1659.26,702.306 1654.78,696.272 1651.75,693.327 
  1647.95,690.239 1642.45,686.768 1637.3,684.205 1633.15,682.497 1623.85,679.601 1617.43,678.171 1614.55,677.608 1605.25,676.304 1595.95,675.435 1586.65,674.866 
  1577.35,674.486 1568.05,674.204 1558.75,673.949 1549.45,673.664 1540.15,673.298 1530.85,672.805 1521.61,672.138 1521.55,672.133 1512.25,671.18 1502.95,669.905 
  1493.65,668.239 1484.35,666.12 1484.29,666.104 1475.05,663.285 1466.24,660.07 1465.75,659.87 1456.45,655.594 1453.35,654.037 1447.15,650.583 1442.7,648.003 
  1437.84,644.885 1433.28,641.97 1428.54,638.593 1424.63,635.936 1419.24,631.788 1416.58,629.902 1409.94,624.41 1409.21,623.869 1402.63,617.835 1400.64,615.421 
  1397.3,611.801 1393.61,605.768 1391.64,599.734 1391.34,596.906 1390.97,593.701 1391.3,587.667 1391.34,587.377 1392.09,581.633 1393.09,575.6 1394.08,569.566 
  1394.92,563.533 1395.52,557.499 1395.8,551.465 1395.69,545.432 1395.09,539.398 1393.85,533.364 1391.78,527.331 1391.34,526.472 1388.41,521.297 1383.37,515.264 
  1382.04,514.082 1375.26,509.23 1372.74,507.847 1363.44,504.148 1359.46,503.196 1354.14,502.123 1344.84,501.433 1335.54,501.894 1327.71,503.196 1326.24,503.461 
  1316.94,506.247 1309.6,509.23 1307.64,510.126 1298.4,515.264 1298.34,515.303 1290.02,521.297 1289.04,522.126 1283.17,527.331 1279.74,530.941 1277.39,533.364 
  1272.42,539.398 1270.44,542.207 1267.93,545.432 1263.73,551.465 1261.14,555.39 1259.46,557.499 1254.6,563.533 1251.84,566.634 1248.23,569.566 1242.54,573.518 
  1237.31,575.6 1233.24,577.003 1223.94,578.037 1214.63,577.096 1209.47,575.6 1205.33,574.507 1196.03,570.666 1193.99,569.566 1186.73,566.063 1182.15,563.533 
  1177.43,561.193 1170.31,557.499 1168.13,556.469 1158.83,552.16 1157.22,551.465 1149.53,548.372 1140.8,545.432 1140.23,545.246 1130.93,542.67 1121.63,540.791 
  1112.33,539.576 1109.54,539.398 1103.03,538.952 1093.73,538.989 1088.36,539.398 1084.43,539.66 1075.13,540.849 1065.83,542.548 1056.53,544.675 1053.63,545.432 
  1047.23,546.942 1037.93,549.246 1028.73,551.465 1028.63,551.488 1019.33,553.354 1010.03,554.879 1000.73,555.991 991.425,556.668 982.125,556.941 972.824,556.876 
  963.524,556.564 954.223,556.108 944.923,555.607 935.623,555.159 926.322,554.855 917.022,554.784 907.721,555.038 898.421,555.722 889.121,556.969 886.464,557.499 
  879.82,558.889 870.52,561.738 866.2,563.533 861.219,565.863 855.092,569.566 851.919,571.855 847.575,575.6 842.619,581.07 842.164,581.633 838.206,587.667 
  835.368,593.701 833.422,599.734 833.318,600.22 832.141,605.768 831.46,611.801 831.282,617.835 831.522,623.869 832.11,629.902 832.988,635.936 833.318,637.754 
  834.055,641.97 835.27,648.003 836.596,654.037 837.972,660.07 839.332,666.104 840.603,672.138 841.713,678.171 842.596,684.205 842.619,684.436 843.165,690.239 
  843.448,696.272 843.45,702.306 843.19,708.339 842.695,714.373 842.619,715.017 841.931,720.407 840.941,726.44 839.734,732.474 838.299,738.508 836.611,744.541 
  834.64,750.575 833.318,754.032 832.246,756.608 829.338,762.642 826.046,768.676 824.018,771.974 822.173,774.709 817.686,780.743 814.717,784.433 812.647,786.776 
  806.998,792.81 805.417,794.419 800.655,798.844 796.117,802.98 793.828,804.877 786.816,810.654 786.473,810.911 778.384,816.945 777.516,817.597 769.698,822.978 
  768.215,824.016 760.473,829.012 758.915,830.042 750.784,835.045 749.614,835.789 740.793,841.079 740.314,841.38 731.014,846.94 730.716,847.113 721.713,852.626 
  720.854,853.146 712.413,858.615 711.541,859.18 703.112,865.12 702.982,865.214 695.272,871.247 693.812,872.537 688.524,877.281 684.512,881.424 682.731,883.314 
  677.83,889.348 675.211,893.188 673.77,895.382 670.439,901.415 667.689,907.449 665.911,912.063 665.389,913.483 663.389,919.516 661.497,925.55 659.568,931.583 
  657.474,937.617 656.61,939.78 655.15,943.651 652.529,949.684 649.571,955.718 647.31,959.836 646.315,961.751 642.86,967.785 639.247,973.819 638.01,975.815 
  635.625,979.852 632.116,985.886 628.832,991.92 628.709,992.164 625.88,997.953 623.364,1003.99 621.35,1010.02 619.869,1016.05 619.409,1018.94 618.904,1022.09 
  618.449,1028.12 618.482,1034.15 618.954,1040.19 619.409,1043.39 619.788,1046.22 620.894,1052.26 622.236,1058.29 623.749,1064.32 625.37,1070.36 627.026,1076.39 
  628.636,1082.42 628.709,1082.74 630.013,1088.46 631.136,1094.49 631.895,1100.52 632.162,1106.56 631.811,1112.59 630.738,1118.63 628.886,1124.66 628.709,1125.1 
  626.176,1130.69 622.923,1136.73 619.504,1142.76 619.409,1142.96 616.407,1148.79 614.317,1154.83 613.745,1160.86 615.139,1166.89 618.89,1172.93 
  "/>
<polyline clip-path="url(#clip163)" style="stroke:#4a0b6a; stroke-linecap:butt; stroke-linejoin:round; stroke-width:4; stroke-opacity:1; fill:none" points="
  729.959,1112.59 731.014,1114.36 733.361,1118.63 736.82,1124.66 740.314,1130.42 740.463,1130.69 743.994,1136.73 747.866,1142.76 749.614,1145.22 751.928,1148.79 
  756.358,1154.83 758.915,1157.85 761.247,1160.86 766.696,1166.89 768.215,1168.34 772.68,1172.93 777.516,1177.14 779.483,1178.96 786.816,1184.75 787.122,1185 
  795.67,1191.03 796.117,1191.3 805.417,1197.04 805.451,1197.06 814.717,1202.04 816.781,1203.1 824.018,1206.44 830.364,1209.13 833.318,1210.29 842.619,1213.64 
  847.364,1215.16 851.919,1216.56 861.219,1219.08 870.376,1221.2 870.52,1221.23 879.82,1223.1 889.121,1224.67 898.421,1225.97 907.721,1227.02 910.072,1227.23 
  917.022,1227.89 926.322,1228.57 935.623,1229.09 944.923,1229.48 954.223,1229.77 963.524,1230.01 972.824,1230.23 982.125,1230.48 991.425,1230.79 1000.73,1231.2 
  1010.03,1231.71 1019.33,1232.35 1028.63,1233.09 1030.59,1233.26 1037.93,1233.97 1047.23,1234.93 1056.53,1235.91 1065.83,1236.86 1075.13,1237.74 1084.43,1238.52 
  1093.73,1239.17 1095.95,1239.3 1103.03,1239.73 1112.33,1240.13 1121.63,1240.35 1130.93,1240.39 1140.23,1240.27 1149.53,1239.99 1158.83,1239.56 1163.33,1239.3 
  1168.13,1239.04 1177.43,1238.46 1186.73,1237.8 1196.03,1237.09 1205.33,1236.35 1214.63,1235.6 1223.94,1234.86 1233.24,1234.15 1242.54,1233.48 1246,1233.26 
  1251.84,1232.92 1261.14,1232.45 1270.44,1232.06 1279.74,1231.74 1289.04,1231.51 1298.34,1231.34 1307.64,1231.23 1316.94,1231.16 1326.24,1231.12 1335.54,1231.08 
  1344.84,1231.01 1354.14,1230.9 1363.44,1230.73 1372.74,1230.47 1382.04,1230.1 1391.34,1229.6 1400.64,1228.97 1409.94,1228.19 1419.24,1227.24 1419.37,1227.23 
  1428.54,1226.23 1437.84,1225.08 1447.15,1223.8 1456.45,1222.41 1464.13,1221.2 1465.75,1220.95 1475.05,1219.53 1484.35,1218.09 1493.65,1216.66 1502.95,1215.26 
  1503.62,1215.16 1512.25,1213.98 1521.55,1212.74 1530.85,1211.54 1540.15,1210.33 1549.19,1209.13 1549.45,1209.1 1558.75,1207.83 1568.05,1206.43 1577.35,1204.83 
  1586.14,1203.1 1586.65,1202.99 1595.95,1200.87 1605.25,1198.38 1609.56,1197.06 1614.55,1195.44 1623.85,1191.99 1626.18,1191.03 1633.15,1187.87 1638.86,1185 
  1642.45,1182.94 1648.9,1178.96 1651.75,1176.88 1656.94,1172.93 1661.05,1169.06 1663.31,1166.89 1668.29,1160.86 1670.35,1157.55 1672.07,1154.83 1674.86,1148.79 
  1676.75,1142.76 1677.94,1136.73 1678.62,1130.69 1678.95,1124.66 1679.09,1118.63 1679.15,1112.59 1679.24,1106.56 1679.46,1100.52 1679.66,1097.49 1679.87,1094.49 
  1680.56,1088.46 1681.5,1082.42 1682.71,1076.39 1684.13,1070.36 1685.73,1064.32 1687.43,1058.29 1688.96,1052.92 1689.16,1052.26 1690.95,1046.22 1692.58,1040.19 
  1693.97,1034.15 1695.08,1028.12 1695.86,1022.09 1696.3,1016.05 1696.39,1010.02 1696.13,1003.99 1695.52,997.953 1694.58,991.92 1693.31,985.886 1691.72,979.852 
  1689.82,973.819 1688.96,971.362 1687.53,967.785 1684.78,961.751 1681.62,955.718 1679.66,952.281 1677.88,949.684 1673.34,943.651 1670.35,939.996 1667.97,937.617 
  1661.48,931.583 1661.05,931.192 1653.61,925.55 1651.75,924.151 1644.8,919.516 1642.45,917.882 1635.98,913.483 1633.15,911.347 1628.35,907.449 1623.85,903.059 
  1622.39,901.415 1618.59,895.382 1616.48,889.348 1616.01,883.314 1616.72,877.281 1617.92,871.247 1619,865.214 1619.52,859.18 1619.31,853.146 1618.34,847.113 
  1616.67,841.079 1614.55,835.436 1614.43,835.045 1611.91,829.012 1609.05,822.978 1605.92,816.945 1605.25,815.775 1602.78,810.911 1599.55,804.877 1596.22,798.844 
  1595.95,798.369 1592.99,792.81 1589.69,786.776 1586.65,781.37 1586.3,780.743 1582.9,774.709 1579.28,768.676 1577.35,765.647 1575.36,762.642 1570.98,756.608 
  1568.05,753.019 1565.87,750.575 1559.66,744.541 1558.75,743.763 1551.71,738.508 1549.45,737.043 1541.04,732.474 1540.15,732.046 1530.85,728.218 1525.51,726.44 
  1521.55,725.206 1512.25,722.762 1502.95,720.721 1501.35,720.407 1493.65,718.904 1484.35,717.203 1475.05,715.488 1469.47,714.373 1465.75,713.606 1456.45,711.408 
  1447.15,708.759 1445.91,708.339 1437.84,705.504 1430.21,702.306 1428.54,701.59 1419.24,697.067 1417.77,696.272 1409.94,692.127 1406.54,690.239 1400.64,687.064 
  1395.29,684.205 1391.34,682.181 1383.03,678.171 1382.04,677.714 1372.74,673.77 1368.29,672.138 1363.44,670.403 1354.14,667.625 1347.75,666.104 1344.84,665.404 
  1335.54,663.682 1326.24,662.494 1316.94,661.815 1307.64,661.634 1298.34,661.957 1289.04,662.796 1279.74,664.17 1270.44,666.092 1270.39,666.104 1261.14,668.425 
  1251.84,671.248 1249.15,672.138 1242.54,674.403 1233.24,677.843 1232.33,678.171 1223.94,681.342 1216.27,684.205 1214.63,684.837 1205.33,688.062 1198.36,690.239 
  1196.03,690.965 1186.73,693.323 1177.43,695.213 1170.19,696.272 1168.13,696.553 1158.83,697.273 1149.53,697.488 1140.23,697.204 1130.93,696.425 1129.79,696.272 
  1121.63,694.915 1112.33,692.751 1103.87,690.239 1103.03,689.915 1093.73,685.685 1090.85,684.205 1084.43,679.835 1082.13,678.171 1075.87,672.138 1075.13,671.141 
  1071.25,666.104 1067.75,660.07 1065.83,655.734 1064.97,654.037 1062.4,648.003 1059.43,641.97 1056.53,637.901 1054.59,635.936 1047.23,631.454 1043.38,629.902 
  1037.93,628.453 1028.63,626.487 1019.33,624.693 1015.45,623.869 1010.03,622.975 1000.73,621.192 991.425,619.161 985.905,617.835 982.125,617.103 972.824,615.298 
  963.524,613.695 954.223,612.593 944.923,612.405 935.623,613.695 926.322,617.214 925.387,617.835 920.335,623.869 918.78,629.902 919.628,635.936 921.981,641.97 
  925.098,648.003 926.322,650.163 928.839,654.037 932.31,660.07 934.912,666.104 935.623,668.654 936.657,672.138 937.323,678.171 936.926,684.205 935.628,690.239 
  935.623,690.255 933.76,696.272 931.342,702.306 928.529,708.339 926.322,712.643 925.515,714.373 922.493,720.407 919.459,726.44 917.022,731.377 916.512,732.474 
  913.736,738.508 911.082,744.541 908.54,750.575 907.721,752.558 906.074,756.608 903.6,762.642 901.033,768.676 898.421,774.378 898.267,774.709 895.133,780.743 
  891.546,786.776 889.121,790.315 887.369,792.81 882.509,798.844 879.82,801.783 876.966,804.877 870.807,810.911 870.52,811.169 864.164,816.945 861.219,819.476 
  857.225,822.978 851.919,827.487 850.158,829.012 843.093,835.045 842.619,835.448 836.068,841.079 833.318,843.48 829.168,847.113 824.018,851.755 822.46,853.146 
  815.946,859.18 814.717,860.374 809.643,865.214 805.417,869.564 803.735,871.247 798.201,877.281 796.117,879.816 793.132,883.314 788.637,889.348 786.816,892.199 
  784.681,895.382 781.3,901.415 778.571,907.449 777.516,910.422 776.348,913.483 774.623,919.516 773.414,925.55 772.66,931.583 772.303,937.617 772.282,943.651 
  772.532,949.684 772.967,955.718 773.476,961.751 773.91,967.785 774.069,973.819 773.699,979.852 772.52,985.886 770.273,991.92 768.215,995.562 766.633,997.953 
  761.341,1003.99 758.915,1006.27 754.341,1010.02 749.614,1013.51 745.777,1016.05 740.314,1019.57 736.245,1022.09 731.014,1025.47 727.11,1028.12 721.713,1032.31 
  719.638,1034.15 714.248,1040.19 712.413,1043.12 710.796,1046.22 708.938,1052.26 708.299,1058.29 708.676,1064.32 709.872,1070.36 711.721,1076.39 712.413,1078.1 
  714.117,1082.42 716.896,1088.46 719.959,1094.49 721.713,1097.67 723.19,1100.52 726.505,1106.56 729.959,1112.59 
  "/>
<polyline clip-path="url(#clip163)" style="stroke:#7a1c6d; stroke-linecap:butt; stroke-linejoin:round; stroke-width:4; stroke-opacity:1; fill:none" points="
  795.576,1100.52 796.117,1105.98 796.171,1106.56 797.208,1112.59 798.64,1118.63 800.412,1124.66 802.491,1130.69 804.874,1136.73 805.417,1137.93 807.515,1142.76 
  810.515,1148.79 813.997,1154.83 814.717,1155.9 818.009,1160.86 822.778,1166.89 824.018,1168.22 828.482,1172.93 833.318,1177.18 835.423,1178.96 842.619,1184.08 
  843.986,1185 851.919,1189.52 854.838,1191.03 861.219,1193.92 869.093,1197.06 870.52,1197.57 879.82,1200.52 889.121,1203.01 889.487,1203.1 898.421,1205.01 
  907.721,1206.65 917.022,1207.98 926.322,1209.04 927.357,1209.13 935.623,1209.86 944.923,1210.52 954.223,1211.04 963.524,1211.49 972.824,1211.92 982.125,1212.37 
  991.425,1212.89 1000.73,1213.51 1010.03,1214.25 1019.33,1215.11 1019.8,1215.16 1028.63,1216.13 1037.93,1217.24 1047.23,1218.41 1056.53,1219.6 1065.83,1220.75 
  1069.67,1221.2 1075.13,1221.86 1084.43,1222.87 1093.73,1223.73 1103.03,1224.41 1112.33,1224.9 1121.63,1225.19 1130.93,1225.3 1140.23,1225.21 1149.53,1224.95 
  1158.83,1224.53 1168.13,1223.96 1177.43,1223.28 1186.73,1222.5 1196.03,1221.65 1200.74,1221.2 1205.33,1220.77 1214.63,1219.9 1223.94,1219.03 1233.24,1218.18 
  1242.54,1217.37 1251.84,1216.62 1261.14,1215.95 1270.44,1215.38 1274.71,1215.16 1279.74,1214.92 1289.04,1214.58 1298.34,1214.32 1307.64,1214.16 1316.94,1214.05 
  1326.24,1213.98 1335.54,1213.92 1344.84,1213.84 1354.14,1213.71 1363.44,1213.51 1372.74,1213.2 1382.04,1212.77 1391.34,1212.18 1400.64,1211.43 1409.94,1210.5 
  1419.24,1209.39 1421.14,1209.13 1428.54,1208.14 1437.84,1206.73 1447.15,1205.17 1456.45,1203.46 1458.38,1203.1 1465.75,1201.71 1475.05,1199.89 1484.35,1198.03 
  1489.24,1197.06 1493.65,1196.18 1502.95,1194.37 1512.25,1192.57 1520.32,1191.03 1521.55,1190.79 1530.85,1189.02 1540.15,1187.21 1549.45,1185.31 1550.92,1185 
  1558.75,1183.22 1568.05,1180.87 1574.74,1178.96 1577.35,1178.15 1586.65,1174.85 1591.35,1172.93 1595.95,1170.79 1603.25,1166.89 1605.25,1165.63 1612.01,1160.86 
  1614.55,1158.65 1618.58,1154.83 1623.53,1148.79 1623.85,1148.29 1627.22,1142.76 1629.95,1136.73 1631.92,1130.69 1633.15,1125.43 1633.33,1124.66 1634.36,1118.63 
  1635.1,1112.59 1635.65,1106.56 1636.11,1100.52 1636.51,1094.49 1636.9,1088.46 1637.31,1082.42 1637.72,1076.39 1638.13,1070.36 1638.5,1064.32 1638.8,1058.29 
  1638.96,1052.26 1638.91,1046.22 1638.57,1040.19 1637.85,1034.15 1636.65,1028.12 1634.88,1022.09 1633.15,1017.78 1632.43,1016.05 1629.24,1010.02 1625.15,1003.99 
  1623.85,1002.36 1620.12,997.953 1614.55,992.365 1614.08,991.92 1607.14,985.886 1605.25,984.373 1599.42,979.852 1595.95,977.273 1591.23,973.819 1586.65,970.514 
  1582.89,967.785 1577.35,963.743 1574.68,961.751 1568.05,956.724 1566.76,955.718 1559.24,949.684 1558.75,949.279 1552.18,943.651 1549.45,941.249 1545.49,937.617 
  1540.15,932.566 1539.15,931.583 1533.33,925.55 1530.85,922.807 1527.98,919.516 1523.17,913.483 1521.55,911.17 1519,907.449 1515.53,901.415 1512.83,895.382 
  1512.25,893.409 1511.02,889.348 1510.22,883.314 1510.54,877.281 1512.12,871.247 1512.25,870.975 1514.83,865.214 1518.57,859.18 1521.55,855.183 1522.98,853.146 
  1527.41,847.113 1530.85,842.22 1531.58,841.079 1534.91,835.045 1537.36,829.012 1538.83,822.978 1539.25,816.945 1538.63,810.911 1537.01,804.877 1534.44,798.844 
  1530.94,792.81 1530.85,792.679 1525.92,786.776 1521.55,782.452 1519.43,780.743 1512.25,775.745 1510.28,774.709 1502.95,771.249 1495.09,768.676 1493.65,768.237 
  1484.35,766.572 1475.05,765.998 1465.75,766.542 1456.45,768.359 1455.45,768.676 1447.15,772.318 1443.52,774.709 1437.84,780.683 1437.8,780.743 1434.62,786.776 
  1432.71,792.81 1431.46,798.844 1430.53,804.877 1429.68,810.911 1428.68,816.945 1428.54,817.572 1427.29,822.978 1425.22,829.012 1422,835.045 1419.24,838.449 
  1416.77,841.079 1409.94,846.015 1408.04,847.113 1400.64,850.291 1391.64,853.146 1391.34,853.221 1382.04,854.948 1372.74,855.961 1363.44,856.219 1354.14,855.569 
  1344.84,853.716 1343.21,853.146 1335.54,849.389 1332.56,847.113 1327.59,841.079 1326.24,838.121 1325.15,835.045 1324.24,829.012 1324.31,822.978 1325.14,816.945 
  1326.24,812.436 1326.65,810.911 1328.93,804.877 1331.75,798.844 1335.12,792.81 1335.54,792.149 1339.44,786.776 1344.21,780.743 1344.84,779.976 1349.84,774.709 
  1354.14,770.032 1355.59,768.676 1361.21,762.642 1363.44,759.65 1365.92,756.608 1369.11,750.575 1370.48,744.541 1370.18,738.508 1368.29,732.474 1364.87,726.44 
  1363.44,724.716 1359.77,720.407 1354.14,715.519 1352.65,714.373 1344.84,709.694 1341.99,708.339 1335.54,705.828 1326.24,703.357 1318.53,702.306 1316.94,702.117 
  1307.64,702.039 1304.97,702.306 1298.34,703.031 1289.04,705.059 1279.74,707.975 1278.81,708.339 1270.44,711.841 1265.08,714.373 1261.14,716.298 1253.1,720.407 
  1251.84,721.049 1242.54,725.734 1241.07,726.44 1233.24,730.043 1227.43,732.474 1223.94,733.852 1214.63,737.132 1210.18,738.508 1205.33,739.93 1196.03,742.288 
  1186.73,744.278 1185.24,744.541 1177.43,745.887 1168.13,747.151 1158.83,748.07 1149.53,748.639 1140.23,748.861 1130.93,748.75 1121.63,748.338 1112.33,747.672 
  1103.03,746.813 1093.73,745.827 1084.43,744.784 1082.21,744.541 1075.13,743.738 1065.83,742.776 1056.53,741.986 1047.23,741.467 1037.93,741.335 1028.63,741.736 
  1019.33,742.855 1011.63,744.541 1010.03,744.912 1000.73,748.141 995.795,750.575 991.425,752.953 986.22,756.608 982.125,759.869 979.217,762.642 973.662,768.676 
  972.824,769.683 969.056,774.709 964.95,780.743 963.524,782.918 961.101,786.776 957.268,792.81 954.223,797.365 953.23,798.844 948.736,804.877 944.923,809.444 
  943.653,810.911 937.739,816.945 935.623,818.87 930.908,822.978 926.322,826.613 923.191,829.012 917.022,833.434 914.738,835.045 907.721,839.819 905.878,841.079 
  898.421,846.14 897.019,847.113 889.121,852.695 888.502,853.146 880.54,859.18 879.82,859.758 873.231,865.214 870.52,867.638 866.589,871.247 861.219,876.668 
  860.624,877.281 855.371,883.314 851.919,887.894 850.83,889.348 847.06,895.382 844.082,901.415 842.619,905.55 841.942,907.449 840.683,913.483 840.328,919.516 
  840.897,925.55 842.398,931.583 842.619,932.155 844.831,937.617 848.109,943.651 851.919,949.432 852.091,949.684 856.513,955.718 861.028,961.751 861.219,962.029 
  865.105,967.785 868.442,973.819 870.52,979.278 870.724,979.852 871.684,985.886 871.359,991.92 870.52,995.024 869.684,997.953 866.632,1003.99 862.416,1010.02 
  861.219,1011.39 856.996,1016.05 851.919,1020.97 850.736,1022.09 843.83,1028.12 842.619,1029.14 836.642,1034.15 833.318,1036.97 829.543,1040.19 824.018,1045.14 
  822.821,1046.22 816.63,1052.26 814.717,1054.34 811.126,1058.29 806.472,1064.32 805.417,1065.97 802.598,1070.36 799.613,1076.39 797.5,1082.42 796.181,1088.46 
  796.117,1089.08 795.549,1094.49 795.576,1100.52 
  "/>
<polyline clip-path="url(#clip163)" style="stroke:#a12b61; stroke-linecap:butt; stroke-linejoin:round; stroke-width:4; stroke-opacity:1; fill:none" points="
  840.24,1124.66 841.762,1130.69 842.619,1133.41 843.678,1136.73 846.038,1142.76 848.916,1148.79 851.919,1153.91 852.471,1154.83 857,1160.86 861.219,1165.38 
  862.719,1166.89 870.139,1172.93 870.52,1173.18 879.82,1178.83 880.065,1178.96 889.121,1183.06 894.093,1185 898.421,1186.44 907.721,1189.09 915.925,1191.03 
  917.022,1191.26 926.322,1192.9 935.623,1194.24 944.923,1195.33 954.223,1196.25 963.524,1197.05 963.66,1197.06 972.824,1197.78 982.125,1198.52 991.425,1199.32 
  1000.73,1200.23 1010.03,1201.26 1019.33,1202.41 1024.26,1203.1 1028.63,1203.69 1037.93,1205.05 1047.23,1206.47 1056.53,1207.9 1064.8,1209.13 1065.83,1209.28 
  1075.13,1210.6 1084.43,1211.77 1093.73,1212.78 1103.03,1213.58 1112.33,1214.18 1121.63,1214.55 1130.93,1214.7 1140.23,1214.65 1149.53,1214.39 1158.83,1213.95 
  1168.13,1213.36 1177.43,1212.63 1186.73,1211.78 1196.03,1210.85 1205.33,1209.86 1211.97,1209.13 1214.63,1208.84 1223.94,1207.83 1233.24,1206.83 1242.54,1205.88 
  1251.84,1204.99 1261.14,1204.2 1270.44,1203.51 1277.2,1203.1 1279.74,1202.94 1289.04,1202.51 1298.34,1202.2 1307.64,1202 1316.94,1201.88 1326.24,1201.81 
  1335.54,1201.75 1344.84,1201.68 1354.14,1201.56 1363.44,1201.34 1372.74,1201.01 1382.04,1200.52 1391.34,1199.87 1400.64,1199.03 1409.94,1197.98 1416.73,1197.06 
  1419.24,1196.73 1428.54,1195.29 1437.84,1193.66 1447.15,1191.84 1451.01,1191.03 1456.45,1189.88 1465.75,1187.79 1475.05,1185.6 1477.58,1185 1484.35,1183.34 
  1493.65,1181.03 1501.89,1178.96 1502.95,1178.68 1512.25,1176.29 1521.55,1173.84 1525.01,1172.93 1530.85,1171.28 1540.15,1168.54 1545.41,1166.89 1549.45,1165.51 
  1558.75,1162.03 1561.59,1160.86 1568.05,1157.83 1573.7,1154.83 1577.35,1152.54 1582.68,1148.79 1586.65,1145.38 1589.39,1142.76 1594.44,1136.73 1595.95,1134.43 
  1598.24,1130.69 1601.12,1124.66 1603.29,1118.63 1604.93,1112.59 1605.25,1111.01 1606.16,1106.56 1607.07,1100.52 1607.73,1094.49 1608.17,1088.46 1608.42,1082.42 
  1608.48,1076.39 1608.33,1070.36 1607.94,1064.32 1607.27,1058.29 1606.24,1052.26 1605.25,1048.13 1604.77,1046.22 1602.77,1040.19 1600.12,1034.15 1596.69,1028.12 
  1595.95,1027.03 1592.34,1022.09 1586.99,1016.05 1586.65,1015.71 1580.57,1010.02 1577.35,1007.31 1573.16,1003.99 1568.05,1000.16 1565,997.953 1558.75,993.537 
  1556.45,991.92 1549.45,986.979 1547.93,985.886 1540.15,980.147 1539.77,979.852 1532.17,973.819 1530.85,972.742 1525.12,967.785 1521.55,964.627 1518.49,961.751 
  1512.25,955.811 1512.16,955.718 1506.26,949.684 1502.95,946.298 1500.48,943.651 1494.82,937.617 1493.65,936.353 1489.32,931.583 1484.35,926.184 1483.76,925.55 
  1478.23,919.516 1475.05,916.106 1472.48,913.483 1466.37,907.449 1465.75,906.829 1459.49,901.415 1456.45,898.936 1451.04,895.382 1447.15,893.013 1438.67,889.348 
  1437.84,889.017 1428.54,886.427 1419.24,884.966 1409.94,884.24 1400.64,884.002 1391.34,884.1 1382.04,884.427 1372.74,884.907 1363.44,885.478 1354.14,886.076 
  1344.84,886.628 1335.54,887.038 1326.24,887.177 1316.94,886.855 1307.64,885.801 1298.34,883.621 1297.49,883.314 1289.04,879.191 1286.32,877.281 1280.43,871.247 
  1279.74,870.185 1276.96,865.214 1274.91,859.18 1273.86,853.146 1273.55,847.113 1273.78,841.079 1274.37,835.045 1275.19,829.012 1276.12,822.978 1277.05,816.945 
  1277.88,810.911 1278.53,804.877 1278.89,798.844 1278.82,792.81 1278.07,786.776 1276.18,780.743 1272.14,774.709 1270.44,773.211 1261.14,769.367 1254.91,768.676 
  1251.84,768.43 1243.66,768.676 1242.54,768.707 1233.24,769.664 1223.94,771.009 1214.63,772.603 1205.33,774.365 1203.64,774.709 1196.03,776.363 1186.73,778.428 
  1177.43,780.443 1175.92,780.743 1168.13,782.488 1158.83,784.261 1149.53,785.587 1140.23,786.346 1130.93,786.47 1121.63,785.968 1112.33,784.932 1103.03,783.529 
  1093.73,781.968 1086.15,780.743 1084.43,780.494 1075.13,779.375 1065.83,778.669 1056.53,778.545 1047.23,779.174 1037.93,780.743 1037.93,780.743 1028.63,783.648 
  1021.89,786.776 1019.33,788.092 1012.38,792.81 1010.03,794.537 1005.22,798.844 1000.73,803.007 998.962,804.877 993.161,810.911 991.425,812.622 987.35,816.945 
  982.125,822.014 981.163,822.978 974.541,829.012 972.824,830.436 967.285,835.045 963.524,837.935 959.38,841.079 954.223,844.792 950.945,847.113 944.923,851.293 
  942.217,853.146 935.623,857.73 933.528,859.18 926.322,864.417 925.231,865.214 917.618,871.247 917.022,871.777 910.896,877.281 907.721,880.586 905.136,883.314 
  900.405,889.348 898.421,892.606 896.745,895.382 894.203,901.415 892.793,907.449 892.556,913.483 893.496,919.516 895.547,925.55 898.421,931.314 898.556,931.583 
  902.223,937.617 906.194,943.651 907.721,945.962 910.016,949.684 913.379,955.718 916.138,961.751 917.022,964.305 918.103,967.785 919.28,973.819 919.727,979.852 
  919.455,985.886 918.476,991.92 917.022,997.134 916.779,997.953 914.227,1003.99 910.93,1010.02 907.721,1014.83 906.839,1016.05 901.807,1022.09 898.421,1025.7 
  895.996,1028.12 889.483,1034.15 889.121,1034.48 882.416,1040.19 879.82,1042.38 875.177,1046.22 870.52,1050.19 868.088,1052.26 861.451,1058.29 861.219,1058.52 
  855.537,1064.32 851.919,1068.57 850.442,1070.36 846.282,1076.39 842.996,1082.42 842.619,1083.35 840.625,1088.46 839.059,1094.49 838.21,1100.52 837.99,1106.56 
  838.307,1112.59 839.078,1118.63 840.24,1124.66 
  "/>
<polyline clip-path="url(#clip163)" style="stroke:#c13a50; stroke-linecap:butt; stroke-linejoin:round; stroke-width:4; stroke-opacity:1; fill:none" points="
  879.606,1136.73 879.82,1137.32 881.87,1142.76 885.019,1148.79 889.121,1154.6 889.296,1154.83 895.403,1160.86 898.421,1163.14 903.97,1166.89 907.721,1168.88 
  916.521,1172.93 917.022,1173.11 926.322,1176.12 935.623,1178.63 937.032,1178.96 944.923,1180.52 954.223,1182.11 963.524,1183.52 972.824,1184.84 973.947,1185 
  982.125,1186.04 991.425,1187.27 1000.73,1188.59 1010.03,1190.02 1016.03,1191.03 1019.33,1191.54 1028.63,1193.14 1037.93,1194.81 1047.23,1196.53 1050.04,1197.06 
  1056.53,1198.23 1065.83,1199.85 1075.13,1201.37 1084.43,1202.74 1087.24,1203.1 1093.73,1203.9 1103.03,1204.85 1112.33,1205.55 1121.63,1206.01 1130.93,1206.22 
  1140.23,1206.19 1149.53,1205.93 1158.83,1205.48 1168.13,1204.84 1177.43,1204.05 1186.73,1203.13 1187,1203.1 1196.03,1202.11 1205.33,1201.02 1214.63,1199.89 
  1223.94,1198.74 1233.24,1197.61 1237.91,1197.06 1242.54,1196.51 1251.84,1195.49 1261.14,1194.58 1270.44,1193.79 1279.74,1193.14 1289.04,1192.64 1298.34,1192.3 
  1307.64,1192.08 1316.94,1191.96 1326.24,1191.91 1335.54,1191.88 1344.84,1191.83 1354.14,1191.72 1363.44,1191.51 1372.74,1191.16 1375.11,1191.03 1382.04,1190.64 
  1391.34,1189.94 1400.64,1189.02 1409.94,1187.87 1419.24,1186.49 1427.88,1185 1428.54,1184.88 1437.84,1183.04 1447.15,1181 1455.63,1178.96 1456.45,1178.76 
  1465.75,1176.35 1475.05,1173.8 1478.13,1172.93 1484.35,1171.1 1493.65,1168.29 1498.21,1166.89 1502.95,1165.35 1512.25,1162.26 1516.36,1160.86 1521.55,1158.94 
  1530.85,1155.34 1532.12,1154.83 1540.15,1151.22 1545.12,1148.79 1549.45,1146.37 1555.35,1142.76 1558.75,1140.3 1563.26,1136.73 1568.05,1132.05 1569.34,1130.69 
  1573.99,1124.66 1577.35,1119 1577.56,1118.63 1580.26,1112.59 1582.27,1106.56 1583.72,1100.52 1584.69,1094.49 1585.24,1088.46 1585.39,1082.42 1585.14,1076.39 
  1584.47,1070.36 1583.34,1064.32 1581.7,1058.29 1579.44,1052.26 1577.35,1047.91 1576.48,1046.22 1572.64,1040.19 1568.05,1034.36 1567.87,1034.15 1562,1028.12 
  1558.75,1025.19 1555.07,1022.09 1549.45,1017.71 1547.24,1016.05 1540.15,1010.95 1538.86,1010.02 1530.85,1004.32 1530.4,1003.99 1522.32,997.953 1521.55,997.361 
  1514.85,991.92 1512.25,989.741 1507.96,985.886 1502.95,981.27 1501.51,979.852 1495.53,973.819 1493.65,971.895 1489.85,967.785 1484.35,961.878 1484.23,961.751 
  1478.83,955.718 1475.05,951.616 1473.3,949.684 1467.67,943.651 1465.75,941.657 1461.78,937.617 1456.45,932.481 1455.46,931.583 1448.46,925.55 1447.15,924.477 
  1440.26,919.516 1437.84,917.904 1429.84,913.483 1428.54,912.818 1419.24,909.072 1413.56,907.449 1409.94,906.478 1400.64,904.808 1391.34,903.895 1382.04,903.588 
  1372.74,903.773 1363.44,904.363 1354.14,905.288 1344.84,906.487 1338.41,907.449 1335.54,907.882 1326.24,909.371 1316.94,910.9 1307.64,912.374 1299.59,913.483 
  1298.34,913.66 1289.04,914.555 1279.74,914.942 1270.44,914.594 1262.77,913.483 1261.14,913.179 1251.84,910.026 1246.94,907.449 1242.54,904.385 1239.08,901.415 
  1233.55,895.382 1233.24,894.966 1229.02,889.348 1225.05,883.314 1223.94,881.426 1221.14,877.281 1217.23,871.247 1214.63,867.039 1213.08,865.214 1207.93,859.18 
  1205.33,856.268 1199.78,853.146 1196.03,851.283 1186.73,850.006 1177.43,850.29 1168.13,850.984 1158.83,851.551 1149.53,851.709 1140.23,851.295 1130.93,850.211 
  1121.63,848.41 1116.85,847.113 1112.33,845.796 1103.03,842.425 1099.74,841.079 1093.73,838.467 1085.95,835.045 1084.43,834.359 1075.13,830.603 1069.84,829.012 
  1065.83,827.833 1056.53,826.441 1047.23,826.642 1037.93,828.459 1036.44,829.012 1028.63,831.725 1021.8,835.045 1019.33,836.156 1010.56,841.079 1010.03,841.358 
  1000.73,847.008 1000.57,847.113 991.425,852.931 991.108,853.146 982.125,859.092 981.997,859.18 973.389,865.214 972.824,865.629 965.473,871.247 963.524,872.88 
  958.441,877.281 954.223,881.497 952.457,883.314 947.734,889.348 944.923,894.188 944.248,895.382 942.104,901.415 941.167,907.449 941.324,913.483 942.364,919.516 
  943.999,925.55 944.923,928.396 945.907,931.583 947.772,937.617 949.384,943.651 950.622,949.684 951.438,955.718 951.835,961.751 951.837,967.785 951.477,973.819 
  950.784,979.852 949.773,985.886 948.447,991.92 946.795,997.953 944.923,1003.6 944.788,1003.99 942.302,1010.02 939.385,1016.05 936.005,1022.09 935.623,1022.7 
  931.981,1028.12 927.453,1034.15 926.322,1035.57 922.321,1040.19 917.022,1045.99 916.791,1046.22 910.893,1052.26 907.721,1055.55 904.954,1058.29 899.192,1064.32 
  898.421,1065.21 893.86,1070.36 889.138,1076.39 889.121,1076.42 885.206,1082.42 882.043,1088.46 879.82,1094.04 879.646,1094.49 878.023,1100.52 877.026,1106.56 
  876.578,1112.59 876.62,1118.63 877.122,1124.66 878.097,1130.69 879.606,1136.73 
  "/>
<polyline clip-path="url(#clip163)" style="stroke:#df5436; stroke-linecap:butt; stroke-linejoin:round; stroke-width:4; stroke-opacity:1; fill:none" points="
  933.821,1142.76 935.623,1145.01 938.851,1148.79 944.923,1153.57 946.653,1154.83 954.223,1158.79 958.59,1160.86 963.524,1162.66 972.824,1165.8 976.206,1166.89 
  982.125,1168.46 991.425,1170.89 999.181,1172.93 1000.73,1173.28 1010.03,1175.49 1019.33,1177.78 1023.9,1178.96 1028.63,1180.05 1037.93,1182.28 1047.23,1184.54 
  1049.12,1185 1056.53,1186.66 1065.83,1188.67 1075.13,1190.54 1077.76,1191.03 1084.43,1192.18 1093.73,1193.58 1103.03,1194.72 1112.33,1195.58 1121.63,1196.15 
  1130.93,1196.44 1140.23,1196.45 1149.53,1196.2 1158.83,1195.71 1168.13,1195.02 1177.43,1194.14 1186.73,1193.13 1196.03,1191.99 1203.4,1191.03 1205.33,1190.77 
  1214.63,1189.46 1223.94,1188.13 1233.24,1186.82 1242.54,1185.56 1247.08,1185 1251.84,1184.37 1261.14,1183.29 1270.44,1182.36 1279.74,1181.62 1289.04,1181.06 
  1298.34,1180.69 1307.64,1180.47 1316.94,1180.39 1326.24,1180.38 1335.54,1180.41 1344.84,1180.42 1354.14,1180.35 1363.44,1180.17 1372.74,1179.83 1382.04,1179.29 
  1386.08,1178.96 1391.34,1178.52 1400.64,1177.5 1409.94,1176.22 1419.24,1174.67 1428.18,1172.93 1428.54,1172.85 1437.84,1170.74 1447.15,1168.38 1452.52,1166.89 
  1456.45,1165.76 1465.75,1162.89 1471.99,1160.86 1475.05,1159.8 1484.35,1156.47 1488.76,1154.83 1493.65,1152.87 1502.95,1148.99 1503.4,1148.79 1512.25,1144.63 
  1516.05,1142.76 1521.55,1139.7 1526.61,1136.73 1530.85,1133.84 1535.2,1130.69 1540.15,1126.41 1542.05,1124.66 1547.4,1118.63 1549.45,1115.68 1551.49,1112.59 
  1554.54,1106.56 1556.7,1100.52 1558.07,1094.49 1558.72,1088.46 1558.67,1082.42 1557.93,1076.39 1556.45,1070.36 1554.2,1064.32 1551.09,1058.29 1549.45,1055.76 
  1546.99,1052.26 1541.85,1046.22 1540.15,1044.49 1535.63,1040.19 1530.85,1036.12 1528.46,1034.15 1521.55,1028.83 1520.63,1028.12 1512.61,1022.09 1512.25,1021.82 
  1504.88,1016.05 1502.95,1014.51 1497.65,1010.02 1493.65,1006.5 1490.98,1003.99 1484.81,997.953 1484.35,997.488 1479.15,991.92 1475.05,987.433 1473.7,985.886 
  1468.46,979.852 1465.75,976.756 1463.23,973.819 1457.93,967.785 1456.45,966.139 1452.43,961.751 1447.15,956.258 1446.6,955.718 1440.21,949.684 1437.84,947.587 
  1432.94,943.651 1428.54,940.36 1424.26,937.617 1419.24,934.634 1412.8,931.583 1409.94,930.323 1400.64,927.284 1392.43,925.55 1391.34,925.332 1382.04,924.321 
  1372.74,924.104 1363.44,924.57 1354.77,925.55 1354.14,925.621 1344.84,927.164 1335.54,929.112 1326.24,931.385 1325.48,931.583 1316.94,933.863 1307.64,936.476 
  1303.57,937.617 1298.34,939.114 1289.04,941.687 1281.6,943.651 1279.74,944.151 1270.44,946.366 1261.14,948.352 1253.73,949.684 1251.84,950.026 1242.54,951.237 
  1233.24,951.963 1223.94,952.072 1214.63,951.405 1205.33,949.806 1204.88,949.684 1196.03,946.766 1189.09,943.651 1186.73,942.338 1179.34,937.617 1177.43,936.169 
  1171.53,931.583 1168.13,928.716 1164.13,925.55 1158.83,921.431 1156,919.516 1149.53,915.504 1145.57,913.483 1140.23,911.048 1130.93,907.641 1130.3,907.449 
  1121.63,904.981 1112.33,902.74 1106.05,901.415 1103.03,900.787 1093.73,899.029 1084.43,897.424 1075.13,896.012 1069.7,895.382 1065.83,894.902 1056.53,894.295 
  1047.23,894.49 1041.07,895.382 1037.93,895.899 1028.63,899.159 1024.77,901.415 1019.33,905.217 1017.1,907.449 1012.01,913.483 1010.03,916.191 1008.15,919.516 
  1004.96,925.55 1002,931.583 1000.73,934.112 999.27,937.617 996.684,943.651 994.133,949.684 991.64,955.718 991.425,956.22 989.325,961.751 987.104,967.785 
  984.978,973.819 982.948,979.852 982.125,982.355 981.02,985.886 979.161,991.92 977.327,997.953 975.484,1003.99 973.591,1010.02 972.824,1012.37 971.584,1016.05 
  969.416,1022.09 967.059,1028.12 964.488,1034.15 963.524,1036.29 961.62,1040.19 958.486,1046.22 955.17,1052.26 954.223,1053.97 951.632,1058.29 948.043,1064.32 
  944.923,1069.76 944.553,1070.36 941.152,1076.39 938.084,1082.42 935.623,1087.98 935.4,1088.46 933.05,1094.49 931.143,1100.52 929.674,1106.56 928.651,1112.59 
  928.114,1118.63 928.155,1124.66 928.935,1130.69 930.704,1136.73 933.821,1142.76 
  "/>
<polyline clip-path="url(#clip163)" style="stroke:#f88a0b; stroke-linecap:butt; stroke-linejoin:round; stroke-width:4; stroke-opacity:1; fill:none" points="
  997.543,1130.69 1000.73,1135.38 1001.64,1136.73 1007.47,1142.76 1010.03,1144.7 1015.41,1148.79 1019.33,1151.09 1025.7,1154.83 1028.63,1156.21 1037.93,1160.62 
  1038.44,1160.86 1047.23,1164.36 1053.75,1166.89 1056.53,1167.83 1065.83,1170.85 1072.71,1172.93 1075.13,1173.58 1084.43,1175.86 1093.73,1177.83 1100.15,1178.96 
  1103.03,1179.42 1112.33,1180.57 1121.63,1181.36 1130.93,1181.79 1140.23,1181.87 1149.53,1181.63 1158.83,1181.1 1168.13,1180.31 1177.43,1179.3 1180.14,1178.96 
  1186.73,1178.05 1196.03,1176.63 1205.33,1175.12 1214.63,1173.55 1218.28,1172.93 1223.94,1171.88 1233.24,1170.2 1242.54,1168.62 1251.84,1167.17 1253.85,1166.89 
  1261.14,1165.81 1270.44,1164.67 1279.74,1163.78 1289.04,1163.17 1298.34,1162.8 1307.64,1162.66 1316.94,1162.68 1326.24,1162.82 1335.54,1163 1344.84,1163.15 
  1354.14,1163.21 1363.44,1163.12 1372.74,1162.82 1382.04,1162.27 1391.34,1161.44 1396.12,1160.86 1400.64,1160.27 1409.94,1158.73 1419.24,1156.86 1427.91,1154.83 
  1428.54,1154.67 1437.84,1151.99 1447.15,1149.03 1447.82,1148.79 1456.45,1145.54 1463.37,1142.76 1465.75,1141.7 1475.05,1137.35 1476.32,1136.73 1484.35,1132.3 
  1487.15,1130.69 1493.65,1126.39 1496.15,1124.66 1502.95,1119.09 1503.49,1118.63 1509.2,1112.59 1512.25,1108.39 1513.52,1106.56 1516.45,1100.52 1518.16,1094.49 
  1518.67,1088.46 1517.98,1082.42 1516.1,1076.39 1513.03,1070.36 1512.25,1069.22 1508.62,1064.32 1503.11,1058.29 1502.95,1058.14 1496.5,1052.26 1493.65,1049.85 
  1489.27,1046.22 1484.35,1042.22 1481.86,1040.19 1475.05,1034.43 1474.73,1034.15 1468.09,1028.12 1465.75,1025.83 1462.06,1022.09 1456.6,1016.05 1456.45,1015.88 
  1451.49,1010.02 1447.15,1004.56 1446.69,1003.99 1441.9,997.953 1437.84,992.833 1437.1,991.92 1431.96,985.886 1428.54,982.065 1426.41,979.852 1420.17,973.819 
  1419.24,972.989 1412.59,967.785 1409.94,965.875 1402.89,961.751 1400.64,960.547 1391.34,956.856 1386.88,955.718 1382.04,954.582 1372.74,953.552 1363.44,953.565 
  1354.14,954.469 1347.07,955.718 1344.84,956.128 1335.54,958.445 1326.24,961.187 1324.51,961.751 1316.94,964.328 1307.64,967.621 1307.18,967.785 1298.34,971.085 
  1290.8,973.819 1289.04,974.488 1279.74,977.845 1273.79,979.852 1270.44,981.028 1261.14,984.019 1254.69,985.886 1251.84,986.744 1242.54,989.188 1233.24,991.244 
  1229.34,991.92 1223.94,992.888 1214.63,994.015 1205.33,994.526 1196.03,994.34 1186.73,993.387 1178.92,991.92 1177.43,991.634 1168.13,989.107 1158.83,985.923 
  1158.74,985.886 1149.53,982.213 1143.91,979.852 1140.23,978.26 1130.93,974.343 1129.57,973.819 1121.63,970.684 1112.85,967.785 1112.33,967.609 1103.03,965.183 
  1093.73,963.612 1084.43,962.941 1075.13,963.232 1065.83,964.594 1056.53,967.207 1055.16,967.785 1047.23,971.343 1043.28,973.819 1037.93,977.538 1035.34,979.852 
  1029.45,985.886 1028.63,986.861 1025.03,991.92 1021.43,997.953 1019.33,1002.16 1018.51,1003.99 1016.17,1010.02 1014.18,1016.05 1012.45,1022.09 1010.9,1028.12 
  1010.03,1031.78 1009.47,1034.15 1008.08,1040.19 1006.67,1046.22 1005.21,1052.26 1003.68,1058.29 1002.09,1064.32 1000.73,1069.35 1000.44,1070.36 998.756,1076.39 
  997.133,1082.42 995.643,1088.46 994.369,1094.49 993.399,1100.52 992.832,1106.56 992.786,1112.59 993.411,1118.63 994.907,1124.66 997.543,1130.69 
  "/>
<polyline clip-path="url(#clip163)" style="stroke:#fabb21; stroke-linecap:butt; stroke-linejoin:round; stroke-width:4; stroke-opacity:1; fill:none" points="
  1036.25,1124.66 1037.93,1127.66 1039.66,1130.69 1044.52,1136.73 1047.23,1139.25 1051.12,1142.76 1056.53,1146.57 1059.83,1148.79 1065.83,1152.06 1071.25,1154.83 
  1075.13,1156.47 1084.43,1160.05 1086.82,1160.86 1093.73,1162.85 1103.03,1165.08 1112.33,1166.82 1112.91,1166.89 1121.63,1167.89 1130.93,1168.5 1140.23,1168.67 
  1149.53,1168.43 1158.83,1167.83 1168.13,1166.91 1168.26,1166.89 1177.43,1165.57 1186.73,1164.02 1196.03,1162.31 1203.52,1160.86 1205.33,1160.46 1214.63,1158.36 
  1223.94,1156.31 1230.99,1154.83 1233.24,1154.29 1242.54,1152.23 1251.84,1150.42 1261.14,1148.89 1261.84,1148.79 1270.44,1147.5 1279.74,1146.48 1289.04,1145.83 
  1298.34,1145.52 1307.64,1145.51 1316.94,1145.73 1326.24,1146.1 1335.54,1146.54 1344.84,1146.93 1354.14,1147.21 1363.44,1147.26 1372.74,1147.04 1382.04,1146.47 
  1391.34,1145.52 1400.64,1144.19 1408.33,1142.76 1409.94,1142.42 1419.24,1140 1428.54,1137.21 1429.96,1136.73 1437.84,1133.64 1444.75,1130.69 1447.15,1129.5 
  1456.2,1124.66 1456.45,1124.5 1465.08,1118.63 1465.75,1118.07 1471.86,1112.59 1475.05,1108.84 1476.88,1106.56 1480.06,1100.52 1481.59,1094.49 1481.42,1088.46 
  1479.53,1082.42 1476.06,1076.39 1475.05,1075.12 1470.8,1070.36 1465.75,1065.56 1464.32,1064.32 1456.9,1058.29 1456.45,1057.92 1449.1,1052.26 1447.15,1050.63 
  1441.68,1046.22 1437.84,1042.68 1435.09,1040.19 1429.45,1034.15 1428.54,1033.04 1424.39,1028.12 1420.08,1022.09 1419.24,1020.85 1415.76,1016.05 1411.57,1010.02 
  1409.94,1007.79 1406.81,1003.99 1401.44,997.953 1400.64,997.158 1394.18,991.92 1391.34,989.914 1383.51,985.886 1382.04,985.24 1372.74,982.84 1363.44,982.076 
  1354.14,982.748 1344.84,984.546 1340.09,985.886 1335.54,987.341 1326.24,990.838 1323.57,991.92 1316.94,994.898 1309.99,997.953 1307.64,999.081 1298.34,1003.28 
  1296.64,1003.99 1289.04,1007.34 1282.07,1010.02 1279.74,1010.95 1270.44,1014.28 1264.78,1016.05 1261.14,1017.22 1251.84,1019.89 1242.94,1022.09 1242.54,1022.19 
  1233.24,1024.28 1223.94,1025.97 1214.63,1027.2 1205.33,1027.89 1196.03,1027.95 1186.73,1027.28 1177.43,1025.8 1168.13,1023.44 1164.16,1022.09 1158.83,1020.35 
  1149.53,1016.65 1148.16,1016.05 1140.23,1012.71 1134.02,1010.02 1130.93,1008.73 1121.63,1005.08 1118.33,1003.99 1112.33,1002.06 1103.03,999.877 1093.73,998.745 
  1084.43,998.953 1075.13,1000.84 1067.69,1003.99 1065.83,1004.93 1059.34,1010.02 1056.53,1012.8 1054.05,1016.05 1050.38,1022.09 1047.52,1028.12 1047.23,1028.89 
  1045.49,1034.15 1043.84,1040.19 1042.41,1046.22 1041.1,1052.26 1039.84,1058.29 1038.58,1064.32 1037.93,1067.45 1037.35,1070.36 1036.14,1076.39 1034.96,1082.42 
  1033.88,1088.46 1033,1094.49 1032.43,1100.52 1032.31,1106.56 1032.79,1112.59 1034.03,1118.63 1036.25,1124.66 
  "/>
<polyline clip-path="url(#clip163)" style="stroke:#f3de52; stroke-linecap:butt; stroke-linejoin:round; stroke-width:4; stroke-opacity:1; fill:none" points="
  1064.43,1118.63 1065.83,1122.03 1067,1124.66 1071.08,1130.69 1075.13,1135 1076.92,1136.73 1084.43,1142.2 1085.3,1142.76 1093.73,1146.99 1097.98,1148.79 
  1103.03,1150.51 1112.33,1153.01 1121.63,1154.79 1121.94,1154.83 1130.93,1155.66 1140.23,1155.93 1149.53,1155.67 1158.83,1154.94 1159.75,1154.83 1168.13,1153.59 
  1177.43,1151.87 1186.73,1149.92 1191.68,1148.79 1196.03,1147.6 1205.33,1145 1213.6,1142.76 1214.63,1142.42 1223.94,1139.51 1233.24,1136.92 1234.01,1136.73 
  1242.54,1134.16 1251.84,1131.84 1257.55,1130.69 1261.14,1129.81 1270.44,1128.06 1279.74,1126.86 1289.04,1126.16 1298.34,1125.92 1307.64,1126.08 1316.94,1126.58 
  1326.24,1127.34 1335.54,1128.23 1344.84,1129.11 1354.14,1129.84 1363.44,1130.24 1372.74,1130.18 1382.04,1129.57 1391.34,1128.36 1400.64,1126.56 1408.13,1124.66 
  1409.94,1124.06 1419.24,1120.33 1422.91,1118.63 1428.54,1115.16 1432.28,1112.59 1437.84,1107.12 1438.36,1106.56 1441.23,1100.52 1441.49,1094.49 1439.02,1088.46 
  1437.84,1087.01 1433.02,1082.42 1428.54,1079.25 1423.25,1076.39 1419.24,1074.41 1409.94,1070.89 1407.97,1070.36 1400.64,1068.23 1391.34,1066.3 1382.04,1065.04 
  1372.74,1064.34 1372.27,1064.32 1363.44,1063.93 1354.14,1063.68 1344.84,1063.37 1335.54,1062.85 1326.24,1062.08 1316.94,1061.11 1307.64,1060.06 1298.34,1059.06 
  1289.59,1058.29 1289.04,1058.24 1279.74,1057.75 1270.44,1057.61 1261.14,1057.83 1253.04,1058.29 1251.84,1058.36 1242.54,1059.16 1233.24,1060.09 1223.94,1061.02 
  1214.63,1061.79 1205.33,1062.26 1196.03,1062.27 1186.73,1061.7 1177.43,1060.42 1168.13,1058.32 1168.02,1058.29 1158.83,1055.49 1150.56,1052.26 1149.53,1051.85 
  1140.23,1047.73 1136.95,1046.22 1130.93,1043.46 1123.27,1040.19 1121.63,1039.5 1112.33,1036.62 1103.03,1035.3 1093.73,1036.56 1086.91,1040.19 1084.43,1041.91 
  1080.92,1046.22 1077.02,1052.26 1075.13,1055.76 1074.13,1058.29 1071.96,1064.32 1069.94,1070.36 1068.02,1076.39 1066.21,1082.42 1065.83,1083.83 1064.76,1088.46 
  1063.6,1094.49 1062.82,1100.52 1062.59,1106.56 1063.06,1112.59 1064.43,1118.63 
  "/>
<path clip-path="url(#clip160)" d="
M2164.32 1421.34 L2352.76 1421.34 L2352.76 269.693 L2164.32 269.693  Z
  " fill="#ffffff" fill-rule="evenodd" fill-opacity="1"/>
<defs>
  <clipPath id="clip164">
    <rect x="2164" y="269" width="189" height="1153"/>
  </clipPath>
</defs>
<polyline clip-path="url(#clip160)" style="stroke:#000000; stroke-linecap:butt; stroke-linejoin:round; stroke-width:4; stroke-opacity:1; fill:none" points="
  2164.32,1421.34 2352.76,1421.34 
  "/>
<polyline clip-path="url(#clip160)" style="stroke:#000000; stroke-linecap:butt; stroke-linejoin:round; stroke-width:4; stroke-opacity:1; fill:none" points="
  2164.32,1421.34 2164.32,269.693 
  "/>
<polyline clip-path="url(#clip164)" style="stroke:#009af9; stroke-linecap:butt; stroke-linejoin:round; stroke-width:4; stroke-opacity:1; fill:none" points="
  2164.32,1378.07 2164.33,1370.34 2164.34,1362.61 2164.37,1354.88 2164.42,1347.15 2164.5,1339.41 2164.64,1331.68 2164.87,1323.95 2165.24,1316.22 2165.81,1308.49 
  2166.69,1300.76 2167.97,1293.02 2169.8,1285.29 2172.33,1277.56 2175.72,1269.83 2180.13,1262.1 2185.7,1254.37 2192.52,1246.64 2200.62,1238.9 2209.96,1231.17 
  2220.4,1223.44 2231.74,1215.71 2243.68,1207.98 2255.88,1200.25 2267.97,1192.51 2279.62,1184.78 2290.49,1177.05 2300.33,1169.32 2308.98,1161.59 2316.33,1153.86 
  2322.36,1146.13 2327.12,1138.39 2330.69,1130.66 2333.19,1122.93 2334.74,1115.2 2335.48,1107.47 2335.52,1099.74 2334.99,1092 2333.98,1084.27 2332.58,1076.54 
  2330.87,1068.81 2328.9,1061.08 2326.73,1053.35 2324.37,1045.62 2321.84,1037.88 2319.14,1030.15 2316.27,1022.42 2313.21,1014.69 2309.99,1006.96 2306.62,999.227 
  2303.13,991.495 2299.57,983.764 2296.01,976.032 2292.5,968.301 2289.11,960.569 2285.88,952.837 2282.84,945.106 2279.97,937.374 2277.28,929.643 2274.72,921.911 
  2272.27,914.18 2269.88,906.448 2267.53,898.717 2265.19,890.985 2262.88,883.254 2260.6,875.522 2258.35,867.791 2256.16,860.059 2254.04,852.328 2251.98,844.596 
  2249.98,836.865 2248.04,829.133 2246.13,821.402 2244.24,813.67 2242.34,805.939 2240.42,798.207 2238.48,790.475 2236.5,782.744 2234.49,775.012 2232.44,767.281 
  2230.37,759.549 2228.26,751.818 2226.12,744.086 2223.95,736.355 2221.74,728.623 2219.5,720.892 2217.22,713.16 2214.92,705.429 2212.63,697.697 2210.37,689.966 
  2208.18,682.234 2206.11,674.503 2204.18,666.771 2202.44,659.04 2200.88,651.308 2199.49,643.577 2198.26,635.845 2197.15,628.113 2196.11,620.382 2195.08,612.65 
  2194.04,604.919 2192.95,597.187 2191.8,589.456 2190.59,581.724 2189.34,573.993 2188.09,566.261 2186.89,558.53 2185.76,550.798 2184.75,543.067 2183.88,535.335 
  2183.16,527.604 2182.58,519.872 2182.13,512.141 2181.77,504.409 2181.45,496.678 2181.12,488.946 2180.75,481.215 2180.29,473.483 2179.72,465.751 2179.02,458.02 
  2178.2,450.288 2177.28,442.557 2176.28,434.825 2175.24,427.094 2174.2,419.362 2173.19,411.631 2172.24,403.899 2171.37,396.168 2170.6,388.436 2169.91,380.705 
  2169.32,372.973 2168.81,365.242 2168.37,357.51 2168,349.779 2167.69,342.047 2167.45,334.316 2167.26,326.584 2167.13,318.853 2167.05,311.121 2167.01,303.389 
  2167,295.658 2167.02,287.926 2167.04,280.195 2167.05,272.463 2167.05,264.732 2167.02,257 2166.97,249.269 2166.9,241.537 2166.82,233.806 2166.72,226.074 
  2166.62,218.343 2166.53,210.611 2166.45,202.88 2166.38,195.148 2166.32,187.417 2166.26,179.685 2166.22,171.954 2166.16,164.222 2166.11,156.49 2166.03,148.759 
  2165.95,141.027 2165.85,133.296 2165.75,125.564 2165.65,117.833 2165.56,110.101 2165.49,102.37 2165.45,94.6383 2165.45,86.9068 2165.49,79.1753 2165.56,71.4437 
  2165.66,63.7122 2165.79,55.9807 2165.92,48.2492 2166.04,40.5176 2166.14,32.7861 2166.2,25.0546 2166.22,17.3231 2166.18,9.59154 2166.09,1.86001 2165.96,-5.87151 
  2165.79,-13.603 2165.6,-21.3346 2165.4,-29.0661 2165.21,-36.7976 2165.03,-44.5291 2164.87,-52.2607 2164.73,-59.9922 2164.62,-67.7237 2164.53,-75.4552 2164.46,-83.1868 
  2164.41,-90.9183 2164.38,-98.6498 2164.35,-106.381 2164.34,-114.113 2164.33,-121.844 2164.32,-129.576 2164.32,-137.307 2164.32,-145.039 2164.32,-152.77 2164.32,-160.502 
  
  "/>
</svg>
