<?xml version="1.0" encoding="utf-8"?>
<svg xmlns="http://www.w3.org/2000/svg" xmlns:xlink="http://www.w3.org/1999/xlink" width="600" height="400" viewBox="0 0 2400 1600">
<defs>
  <clipPath id="clip320">
    <rect x="0" y="0" width="2400" height="1600"/>
  </clipPath>
</defs>
<path clip-path="url(#clip320)" d="
M0 1600 L2400 1600 L2400 0 L0 0  Z
  " fill="#ffffff" fill-rule="evenodd" fill-opacity="1"/>
<defs>
  <clipPath id="clip321">
    <rect x="480" y="0" width="1681" height="1600"/>
  </clipPath>
</defs>
<path clip-path="url(#clip320)" d="
M422.892 1427.31 L2352.76 1427.31 L2352.76 47.2441 L422.892 47.2441  Z
  " fill="#ffffff" fill-rule="evenodd" fill-opacity="1"/>
<defs>
  <clipPath id="clip322">
    <rect x="422" y="47" width="1931" height="1381"/>
  </clipPath>
</defs>
<polyline clip-path="url(#clip322)" style="stroke:#000000; stroke-linecap:butt; stroke-linejoin:round; stroke-width:2; stroke-opacity:0.1; fill:none" points="
  447.826,1427.31 447.826,47.2441 
  "/>
<polyline clip-path="url(#clip322)" style="stroke:#000000; stroke-linecap:butt; stroke-linejoin:round; stroke-width:2; stroke-opacity:0.1; fill:none" points="
  942.562,1427.31 942.562,47.2441 
  "/>
<polyline clip-path="url(#clip322)" style="stroke:#000000; stroke-linecap:butt; stroke-linejoin:round; stroke-width:2; stroke-opacity:0.1; fill:none" points="
  1437.3,1427.31 1437.3,47.2441 
  "/>
<polyline clip-path="url(#clip322)" style="stroke:#000000; stroke-linecap:butt; stroke-linejoin:round; stroke-width:2; stroke-opacity:0.1; fill:none" points="
  1932.03,1427.31 1932.03,47.2441 
  "/>
<polyline clip-path="url(#clip320)" style="stroke:#000000; stroke-linecap:butt; stroke-linejoin:round; stroke-width:4; stroke-opacity:1; fill:none" points="
  422.892,1427.31 2352.76,1427.31 
  "/>
<polyline clip-path="url(#clip320)" style="stroke:#000000; stroke-linecap:butt; stroke-linejoin:round; stroke-width:4; stroke-opacity:1; fill:none" points="
  447.826,1427.31 447.826,1408.42 
  "/>
<polyline clip-path="url(#clip320)" style="stroke:#000000; stroke-linecap:butt; stroke-linejoin:round; stroke-width:4; stroke-opacity:1; fill:none" points="
  942.562,1427.31 942.562,1408.42 
  "/>
<polyline clip-path="url(#clip320)" style="stroke:#000000; stroke-linecap:butt; stroke-linejoin:round; stroke-width:4; stroke-opacity:1; fill:none" points="
  1437.3,1427.31 1437.3,1408.42 
  "/>
<polyline clip-path="url(#clip320)" style="stroke:#000000; stroke-linecap:butt; stroke-linejoin:round; stroke-width:4; stroke-opacity:1; fill:none" points="
  1932.03,1427.31 1932.03,1408.42 
  "/>
<path clip-path="url(#clip320)" d="M422.514 1484.05 L430.153 1484.05 L430.153 1457.69 L421.843 1459.35 L421.843 1455.09 L430.107 1453.43 L434.783 1453.43 L434.783 1484.05 L442.421 1484.05 L442.421 1487.99 L422.514 1487.99 L422.514 1484.05 Z" fill="#000000" fill-rule="evenodd" fill-opacity="1" /><path clip-path="url(#clip320)" d="M461.866 1456.51 Q458.255 1456.51 456.426 1460.07 Q454.62 1463.61 454.62 1470.74 Q454.62 1477.85 456.426 1481.41 Q458.255 1484.95 461.866 1484.95 Q465.5 1484.95 467.306 1481.41 Q469.134 1477.85 469.134 1470.74 Q469.134 1463.61 467.306 1460.07 Q465.5 1456.51 461.866 1456.51 M461.866 1452.8 Q467.676 1452.8 470.731 1457.41 Q473.81 1461.99 473.81 1470.74 Q473.81 1479.47 470.731 1484.07 Q467.676 1488.66 461.866 1488.66 Q456.056 1488.66 452.977 1484.07 Q449.921 1479.47 449.921 1470.74 Q449.921 1461.99 452.977 1457.41 Q456.056 1452.8 461.866 1452.8 Z" fill="#000000" fill-rule="evenodd" fill-opacity="1" /><path clip-path="url(#clip320)" d="M917.747 1484.05 L925.386 1484.05 L925.386 1457.69 L917.076 1459.35 L917.076 1455.09 L925.34 1453.43 L930.016 1453.43 L930.016 1484.05 L937.655 1484.05 L937.655 1487.99 L917.747 1487.99 L917.747 1484.05 Z" fill="#000000" fill-rule="evenodd" fill-opacity="1" /><path clip-path="url(#clip320)" d="M947.145 1453.43 L965.502 1453.43 L965.502 1457.36 L951.428 1457.36 L951.428 1465.83 Q952.446 1465.49 953.465 1465.32 Q954.483 1465.14 955.502 1465.14 Q961.289 1465.14 964.668 1468.31 Q968.048 1471.48 968.048 1476.9 Q968.048 1482.48 964.576 1485.58 Q961.103 1488.66 954.784 1488.66 Q952.608 1488.66 950.34 1488.29 Q948.094 1487.92 945.687 1487.18 L945.687 1482.48 Q947.77 1483.61 949.992 1484.17 Q952.215 1484.72 954.691 1484.72 Q958.696 1484.72 961.034 1482.62 Q963.372 1480.51 963.372 1476.9 Q963.372 1473.29 961.034 1471.18 Q958.696 1469.07 954.691 1469.07 Q952.817 1469.07 950.942 1469.49 Q949.09 1469.91 947.145 1470.79 L947.145 1453.43 Z" fill="#000000" fill-rule="evenodd" fill-opacity="1" /><path clip-path="url(#clip320)" d="M1416.07 1484.05 L1432.39 1484.05 L1432.39 1487.99 L1410.45 1487.99 L1410.45 1484.05 Q1413.11 1481.3 1417.69 1476.67 Q1422.3 1472.01 1423.48 1470.67 Q1425.72 1468.15 1426.6 1466.41 Q1427.51 1464.65 1427.51 1462.96 Q1427.51 1460.21 1425.56 1458.47 Q1423.64 1456.74 1420.54 1456.74 Q1418.34 1456.74 1415.89 1457.5 Q1413.45 1458.26 1410.68 1459.82 L1410.68 1455.09 Q1413.5 1453.96 1415.95 1453.38 Q1418.41 1452.8 1420.45 1452.8 Q1425.82 1452.8 1429.01 1455.49 Q1432.2 1458.17 1432.2 1462.66 Q1432.2 1464.79 1431.39 1466.71 Q1430.61 1468.61 1428.5 1471.2 Q1427.92 1471.88 1424.82 1475.09 Q1421.72 1478.29 1416.07 1484.05 Z" fill="#000000" fill-rule="evenodd" fill-opacity="1" /><path clip-path="url(#clip320)" d="M1452.2 1456.51 Q1448.59 1456.51 1446.76 1460.07 Q1444.96 1463.61 1444.96 1470.74 Q1444.96 1477.85 1446.76 1481.41 Q1448.59 1484.95 1452.2 1484.95 Q1455.84 1484.95 1457.64 1481.41 Q1459.47 1477.85 1459.47 1470.74 Q1459.47 1463.61 1457.64 1460.07 Q1455.84 1456.51 1452.2 1456.51 M1452.2 1452.8 Q1458.01 1452.8 1461.07 1457.41 Q1464.15 1461.99 1464.15 1470.74 Q1464.15 1479.47 1461.07 1484.07 Q1458.01 1488.66 1452.2 1488.66 Q1446.39 1488.66 1443.32 1484.07 Q1440.26 1479.47 1440.26 1470.74 Q1440.26 1461.99 1443.32 1457.41 Q1446.39 1452.8 1452.2 1452.8 Z" fill="#000000" fill-rule="evenodd" fill-opacity="1" /><path clip-path="url(#clip320)" d="M1911.3 1484.05 L1927.62 1484.05 L1927.62 1487.99 L1905.68 1487.99 L1905.68 1484.05 Q1908.34 1481.3 1912.92 1476.67 Q1917.53 1472.01 1918.71 1470.67 Q1920.96 1468.15 1921.84 1466.41 Q1922.74 1464.65 1922.74 1462.96 Q1922.74 1460.21 1920.79 1458.47 Q1918.87 1456.74 1915.77 1456.74 Q1913.57 1456.74 1911.12 1457.5 Q1908.69 1458.26 1905.91 1459.82 L1905.91 1455.09 Q1908.73 1453.96 1911.19 1453.38 Q1913.64 1452.8 1915.68 1452.8 Q1921.05 1452.8 1924.24 1455.49 Q1927.44 1458.17 1927.44 1462.66 Q1927.44 1464.79 1926.63 1466.71 Q1925.84 1468.61 1923.73 1471.2 Q1923.16 1471.88 1920.05 1475.09 Q1916.95 1478.29 1911.3 1484.05 Z" fill="#000000" fill-rule="evenodd" fill-opacity="1" /><path clip-path="url(#clip320)" d="M1937.48 1453.43 L1955.84 1453.43 L1955.84 1457.36 L1941.77 1457.36 L1941.77 1465.83 Q1942.79 1465.49 1943.8 1465.32 Q1944.82 1465.14 1945.84 1465.14 Q1951.63 1465.14 1955.01 1468.31 Q1958.39 1471.48 1958.39 1476.9 Q1958.39 1482.48 1954.91 1485.58 Q1951.44 1488.66 1945.12 1488.66 Q1942.95 1488.66 1940.68 1488.29 Q1938.43 1487.92 1936.03 1487.18 L1936.03 1482.48 Q1938.11 1483.61 1940.33 1484.17 Q1942.55 1484.72 1945.03 1484.72 Q1949.04 1484.72 1951.37 1482.62 Q1953.71 1480.51 1953.71 1476.9 Q1953.71 1473.29 1951.37 1471.18 Q1949.04 1469.07 1945.03 1469.07 Q1943.16 1469.07 1941.28 1469.49 Q1939.43 1469.91 1937.48 1470.79 L1937.48 1453.43 Z" fill="#000000" fill-rule="evenodd" fill-opacity="1" /><path clip-path="url(#clip320)" d="M1349.38 1515.56 Q1349.38 1517.33 1348.25 1518.42 Q1347.16 1519.52 1345.77 1519.52 Q1344.78 1519.52 1344.03 1518.91 Q1343.33 1518.29 1343.33 1517.23 Q1343.33 1516.14 1344.16 1514.98 Q1345 1513.82 1346.9 1513.66 Q1345.65 1512.47 1343.65 1512.47 Q1342.65 1512.47 1341.81 1513.11 Q1341.01 1513.72 1340.56 1514.72 Q1340.07 1515.75 1338.98 1521.58 Q1338.62 1523.48 1338.3 1525.32 Q1337.98 1527.15 1337.59 1529.08 L1343.07 1529.08 Q1343.78 1529.08 1344.07 1529.12 Q1344.36 1529.15 1344.58 1529.31 Q1344.84 1529.47 1344.84 1529.82 Q1344.84 1530.73 1344.42 1530.95 Q1344.03 1531.15 1342.88 1531.15 L1337.21 1531.15 L1333.25 1552.05 Q1333.15 1552.66 1332.73 1554.59 Q1332.34 1556.49 1331.41 1559.61 Q1330.48 1562.77 1329.54 1564.64 Q1329.03 1565.7 1328.35 1566.7 Q1327.71 1567.73 1326.77 1568.76 Q1325.84 1569.79 1324.61 1570.4 Q1323.39 1571.05 1322.1 1571.05 Q1319.91 1571.05 1318.21 1569.82 Q1316.5 1568.6 1316.5 1566.51 Q1316.5 1564.74 1317.59 1563.64 Q1318.72 1562.55 1320.11 1562.55 Q1321.1 1562.55 1321.81 1563.16 Q1322.55 1563.77 1322.55 1564.83 Q1322.55 1565.28 1322.39 1565.8 Q1322.23 1566.31 1321.88 1566.89 Q1321.52 1567.51 1320.75 1567.92 Q1319.98 1568.34 1318.91 1568.41 Q1320.17 1569.6 1322.1 1569.6 Q1322.71 1569.6 1323.26 1569.34 Q1323.81 1569.12 1324.26 1568.54 Q1324.74 1567.96 1325.1 1567.38 Q1325.45 1566.83 1325.81 1565.77 Q1326.16 1564.74 1326.39 1563.96 Q1326.61 1563.19 1326.9 1561.8 Q1327.22 1560.42 1327.38 1559.58 Q1327.55 1558.78 1327.84 1557.2 L1332.76 1531.15 L1328.41 1531.15 Q1327.64 1531.15 1327.32 1531.11 Q1327.03 1531.08 1326.8 1530.92 Q1326.58 1530.73 1326.58 1530.34 Q1326.58 1529.73 1326.84 1529.47 Q1327.13 1529.18 1327.45 1529.15 Q1327.77 1529.08 1328.54 1529.08 L1333.12 1529.08 Q1334.66 1520.94 1335.27 1518.75 Q1335.98 1516.43 1337.08 1514.82 Q1338.17 1513.17 1339.4 1512.4 Q1340.62 1511.63 1341.62 1511.34 Q1342.65 1511.02 1343.65 1511.02 Q1345.9 1511.02 1347.64 1512.24 Q1349.38 1513.43 1349.38 1515.56 Z" fill="#000000" fill-rule="evenodd" fill-opacity="1" /><path clip-path="url(#clip320)" d="M1348.49 1573.08 Q1348.49 1572.75 1348.75 1572.05 L1372.04 1509.82 Q1372.04 1509.76 1372.2 1509.41 Q1372.36 1509.05 1372.45 1508.83 Q1372.55 1508.57 1372.74 1508.38 Q1372.97 1508.18 1373.23 1508.18 Q1373.87 1508.18 1373.87 1508.99 Q1373.87 1509.05 1373.68 1509.82 L1350.33 1572.11 Q1349.94 1573.24 1349.68 1573.56 Q1349.46 1573.88 1349.07 1573.88 Q1348.49 1573.88 1348.49 1573.08 Z" fill="#000000" fill-rule="evenodd" fill-opacity="1" /><path clip-path="url(#clip320)" d="M1381.16 1557.52 L1381.16 1555.49 L1382.74 1555.49 Q1386.31 1555.49 1387.12 1554.91 Q1387.95 1554.3 1387.95 1552.37 L1387.95 1517.62 Q1387.95 1515.72 1387.12 1515.14 Q1386.28 1514.53 1382.74 1514.53 L1381.16 1514.53 L1381.16 1512.47 Q1383.48 1512.66 1390.92 1512.66 Q1398.29 1512.66 1400.61 1512.47 L1400.61 1514.53 L1399.03 1514.53 Q1395.46 1514.53 1394.62 1515.14 Q1393.81 1515.72 1393.81 1517.62 L1393.81 1533.05 L1413.52 1533.05 L1413.52 1517.62 Q1413.52 1515.72 1412.69 1515.14 Q1411.88 1514.53 1408.31 1514.53 L1406.73 1514.53 L1406.73 1512.47 Q1409.05 1512.66 1416.49 1512.66 Q1423.86 1512.66 1426.18 1512.47 L1426.18 1514.53 L1424.6 1514.53 Q1421.03 1514.53 1420.19 1515.14 Q1419.39 1515.72 1419.39 1517.62 L1419.39 1552.37 Q1419.39 1554.27 1420.22 1554.88 Q1421.06 1555.49 1424.6 1555.49 L1426.18 1555.49 L1426.18 1557.52 Q1423.86 1557.33 1416.42 1557.33 Q1409.05 1557.33 1406.73 1557.52 L1406.73 1555.49 L1408.31 1555.49 Q1411.88 1555.49 1412.69 1554.91 Q1413.52 1554.3 1413.52 1552.37 L1413.52 1535.11 L1393.81 1535.11 L1393.81 1552.37 Q1393.81 1554.27 1394.62 1554.88 Q1395.46 1555.49 1399.03 1555.49 L1400.61 1555.49 L1400.61 1557.52 Q1398.29 1557.33 1390.85 1557.33 Q1383.48 1557.33 1381.16 1557.52 Z" fill="#000000" fill-rule="evenodd" fill-opacity="1" /><path clip-path="url(#clip320)" d="M1430.15 1556.59 Q1430.15 1556.14 1430.77 1555.4 L1449.15 1530.53 L1441.65 1530.53 Q1436.43 1530.53 1434.73 1532.47 Q1433.05 1534.37 1432.73 1539.71 L1431.09 1539.71 L1431.83 1529.08 L1452.92 1529.08 Q1453.66 1529.08 1453.95 1529.12 Q1454.24 1529.15 1454.44 1529.37 Q1454.63 1529.57 1454.63 1529.95 Q1454.63 1530.34 1454.05 1531.08 L1435.69 1555.88 L1443.49 1555.88 Q1448.96 1555.88 1450.8 1553.59 Q1452.67 1551.31 1453.12 1545.19 L1454.76 1545.19 L1453.63 1557.52 L1431.89 1557.52 Q1430.83 1557.52 1430.48 1557.39 Q1430.15 1557.23 1430.15 1556.59 Z" fill="#000000" fill-rule="evenodd" fill-opacity="1" /><polyline clip-path="url(#clip322)" style="stroke:#000000; stroke-linecap:butt; stroke-linejoin:round; stroke-width:2; stroke-opacity:0.1; fill:none" points="
  422.892,1370.01 2352.76,1370.01 
  "/>
<polyline clip-path="url(#clip322)" style="stroke:#000000; stroke-linecap:butt; stroke-linejoin:round; stroke-width:2; stroke-opacity:0.1; fill:none" points="
  422.892,1056.1 2352.76,1056.1 
  "/>
<polyline clip-path="url(#clip322)" style="stroke:#000000; stroke-linecap:butt; stroke-linejoin:round; stroke-width:2; stroke-opacity:0.1; fill:none" points="
  422.892,742.189 2352.76,742.189 
  "/>
<polyline clip-path="url(#clip322)" style="stroke:#000000; stroke-linecap:butt; stroke-linejoin:round; stroke-width:2; stroke-opacity:0.1; fill:none" points="
  422.892,428.278 2352.76,428.278 
  "/>
<polyline clip-path="url(#clip322)" style="stroke:#000000; stroke-linecap:butt; stroke-linejoin:round; stroke-width:2; stroke-opacity:0.1; fill:none" points="
  422.892,114.366 2352.76,114.366 
  "/>
<polyline clip-path="url(#clip320)" style="stroke:#000000; stroke-linecap:butt; stroke-linejoin:round; stroke-width:4; stroke-opacity:1; fill:none" points="
  422.892,1427.31 422.892,47.2441 
  "/>
<polyline clip-path="url(#clip320)" style="stroke:#000000; stroke-linecap:butt; stroke-linejoin:round; stroke-width:4; stroke-opacity:1; fill:none" points="
  422.892,1370.01 441.789,1370.01 
  "/>
<polyline clip-path="url(#clip320)" style="stroke:#000000; stroke-linecap:butt; stroke-linejoin:round; stroke-width:4; stroke-opacity:1; fill:none" points="
  422.892,1056.1 441.789,1056.1 
  "/>
<polyline clip-path="url(#clip320)" style="stroke:#000000; stroke-linecap:butt; stroke-linejoin:round; stroke-width:4; stroke-opacity:1; fill:none" points="
  422.892,742.189 441.789,742.189 
  "/>
<polyline clip-path="url(#clip320)" style="stroke:#000000; stroke-linecap:butt; stroke-linejoin:round; stroke-width:4; stroke-opacity:1; fill:none" points="
  422.892,428.278 441.789,428.278 
  "/>
<polyline clip-path="url(#clip320)" style="stroke:#000000; stroke-linecap:butt; stroke-linejoin:round; stroke-width:4; stroke-opacity:1; fill:none" points="
  422.892,114.366 441.789,114.366 
  "/>
<path clip-path="url(#clip320)" d="M116.668 1389.8 L124.306 1389.8 L124.306 1363.44 L115.996 1365.1 L115.996 1360.85 L124.26 1359.18 L128.936 1359.18 L128.936 1389.8 L136.575 1389.8 L136.575 1393.74 L116.668 1393.74 L116.668 1389.8 Z" fill="#000000" fill-rule="evenodd" fill-opacity="1" /><path clip-path="url(#clip320)" d="M146.019 1387.86 L150.903 1387.86 L150.903 1393.74 L146.019 1393.74 L146.019 1387.86 Z" fill="#000000" fill-rule="evenodd" fill-opacity="1" /><path clip-path="url(#clip320)" d="M161.135 1359.18 L179.491 1359.18 L179.491 1363.11 L165.417 1363.11 L165.417 1371.59 Q166.436 1371.24 167.454 1371.08 Q168.473 1370.89 169.491 1370.89 Q175.278 1370.89 178.658 1374.06 Q182.038 1377.23 182.038 1382.65 Q182.038 1388.23 178.565 1391.33 Q175.093 1394.41 168.774 1394.41 Q166.598 1394.41 164.329 1394.04 Q162.084 1393.67 159.677 1392.93 L159.677 1388.23 Q161.76 1389.36 163.982 1389.92 Q166.204 1390.48 168.681 1390.48 Q172.686 1390.48 175.024 1388.37 Q177.362 1386.26 177.362 1382.65 Q177.362 1379.04 175.024 1376.93 Q172.686 1374.83 168.681 1374.83 Q166.806 1374.83 164.931 1375.24 Q163.079 1375.66 161.135 1376.54 L161.135 1359.18 Z" fill="#000000" fill-rule="evenodd" fill-opacity="1" /><path clip-path="url(#clip320)" d="M201.25 1362.26 Q197.639 1362.26 195.811 1365.82 Q194.005 1369.36 194.005 1376.49 Q194.005 1383.6 195.811 1387.16 Q197.639 1390.71 201.25 1390.71 Q204.885 1390.71 206.69 1387.16 Q208.519 1383.6 208.519 1376.49 Q208.519 1369.36 206.69 1365.82 Q204.885 1362.26 201.25 1362.26 M201.25 1358.55 Q207.061 1358.55 210.116 1363.16 Q213.195 1367.74 213.195 1376.49 Q213.195 1385.22 210.116 1389.83 Q207.061 1394.41 201.25 1394.41 Q195.44 1394.41 192.362 1389.83 Q189.306 1385.22 189.306 1376.49 Q189.306 1367.74 192.362 1363.16 Q195.44 1358.55 201.25 1358.55 Z" fill="#000000" fill-rule="evenodd" fill-opacity="1" /><path clip-path="url(#clip320)" d="M249.584 1368.28 L239.005 1378.9 L249.584 1389.48 L246.829 1392.28 L236.204 1381.66 L225.579 1392.28 L222.848 1389.48 L233.403 1378.9 L222.848 1368.28 L225.579 1365.48 L236.204 1376.1 L246.829 1365.48 L249.584 1368.28 Z" fill="#000000" fill-rule="evenodd" fill-opacity="1" /><path clip-path="url(#clip320)" d="M261.945 1389.8 L269.583 1389.8 L269.583 1363.44 L261.273 1365.1 L261.273 1360.85 L269.537 1359.18 L274.213 1359.18 L274.213 1389.8 L281.852 1389.8 L281.852 1393.74 L261.945 1393.74 L261.945 1389.8 Z" fill="#000000" fill-rule="evenodd" fill-opacity="1" /><path clip-path="url(#clip320)" d="M301.296 1362.26 Q297.685 1362.26 295.856 1365.82 Q294.051 1369.36 294.051 1376.49 Q294.051 1383.6 295.856 1387.16 Q297.685 1390.71 301.296 1390.71 Q304.93 1390.71 306.736 1387.16 Q308.565 1383.6 308.565 1376.49 Q308.565 1369.36 306.736 1365.82 Q304.93 1362.26 301.296 1362.26 M301.296 1358.55 Q307.106 1358.55 310.162 1363.16 Q313.241 1367.74 313.241 1376.49 Q313.241 1385.22 310.162 1389.83 Q307.106 1394.41 301.296 1394.41 Q295.486 1394.41 292.407 1389.83 Q289.352 1385.22 289.352 1376.49 Q289.352 1367.74 292.407 1363.16 Q295.486 1358.55 301.296 1358.55 Z" fill="#000000" fill-rule="evenodd" fill-opacity="1" /><path clip-path="url(#clip320)" d="M313.241 1352.66 L337.352 1352.66 L337.352 1355.85 L313.241 1355.85 L313.241 1352.66 Z" fill="#000000" fill-rule="evenodd" fill-opacity="1" /><path clip-path="url(#clip320)" d="M346.211 1363.13 L352.417 1363.13 L352.417 1341.71 L345.665 1343.06 L345.665 1339.6 L352.38 1338.25 L356.179 1338.25 L356.179 1363.13 L362.385 1363.13 L362.385 1366.33 L346.211 1366.33 L346.211 1363.13 Z" fill="#000000" fill-rule="evenodd" fill-opacity="1" /><path clip-path="url(#clip320)" d="M370.717 1363.13 L376.924 1363.13 L376.924 1341.71 L370.172 1343.06 L370.172 1339.6 L376.886 1338.25 L380.685 1338.25 L380.685 1363.13 L386.892 1363.13 L386.892 1366.33 L370.717 1366.33 L370.717 1363.13 Z" fill="#000000" fill-rule="evenodd" fill-opacity="1" /><path clip-path="url(#clip320)" d="M119.885 1075.89 L136.204 1075.89 L136.204 1079.83 L114.26 1079.83 L114.26 1075.89 Q116.922 1073.14 121.505 1068.51 Q126.112 1063.86 127.292 1062.51 Q129.538 1059.99 130.417 1058.25 Q131.32 1056.49 131.32 1054.8 Q131.32 1052.05 129.376 1050.31 Q127.455 1048.58 124.353 1048.58 Q122.154 1048.58 119.7 1049.34 Q117.269 1050.11 114.492 1051.66 L114.492 1046.93 Q117.316 1045.8 119.769 1045.22 Q122.223 1044.64 124.26 1044.64 Q129.63 1044.64 132.825 1047.33 Q136.019 1050.01 136.019 1054.5 Q136.019 1056.63 135.209 1058.55 Q134.422 1060.45 132.316 1063.05 Q131.737 1063.72 128.635 1066.93 Q125.533 1070.13 119.885 1075.89 Z" fill="#000000" fill-rule="evenodd" fill-opacity="1" /><path clip-path="url(#clip320)" d="M146.019 1073.95 L150.903 1073.95 L150.903 1079.83 L146.019 1079.83 L146.019 1073.95 Z" fill="#000000" fill-rule="evenodd" fill-opacity="1" /><path clip-path="url(#clip320)" d="M171.089 1048.35 Q167.477 1048.35 165.649 1051.91 Q163.843 1055.45 163.843 1062.58 Q163.843 1069.69 165.649 1073.25 Q167.477 1076.8 171.089 1076.8 Q174.723 1076.8 176.528 1073.25 Q178.357 1069.69 178.357 1062.58 Q178.357 1055.45 176.528 1051.91 Q174.723 1048.35 171.089 1048.35 M171.089 1044.64 Q176.899 1044.64 179.954 1049.25 Q183.033 1053.83 183.033 1062.58 Q183.033 1071.31 179.954 1075.92 Q176.899 1080.5 171.089 1080.5 Q165.278 1080.5 162.2 1075.92 Q159.144 1071.31 159.144 1062.58 Q159.144 1053.83 162.2 1049.25 Q165.278 1044.64 171.089 1044.64 Z" fill="#000000" fill-rule="evenodd" fill-opacity="1" /><path clip-path="url(#clip320)" d="M201.25 1048.35 Q197.639 1048.35 195.811 1051.91 Q194.005 1055.45 194.005 1062.58 Q194.005 1069.69 195.811 1073.25 Q197.639 1076.8 201.25 1076.8 Q204.885 1076.8 206.69 1073.25 Q208.519 1069.69 208.519 1062.58 Q208.519 1055.45 206.69 1051.91 Q204.885 1048.35 201.25 1048.35 M201.25 1044.64 Q207.061 1044.64 210.116 1049.25 Q213.195 1053.83 213.195 1062.58 Q213.195 1071.31 210.116 1075.92 Q207.061 1080.5 201.25 1080.5 Q195.44 1080.5 192.362 1075.92 Q189.306 1071.31 189.306 1062.58 Q189.306 1053.83 192.362 1049.25 Q195.44 1044.64 201.25 1044.64 Z" fill="#000000" fill-rule="evenodd" fill-opacity="1" /><path clip-path="url(#clip320)" d="M249.584 1054.36 L239.005 1064.99 L249.584 1075.57 L246.829 1078.37 L236.204 1067.74 L225.579 1078.37 L222.848 1075.57 L233.403 1064.99 L222.848 1054.36 L225.579 1051.56 L236.204 1062.19 L246.829 1051.56 L249.584 1054.36 Z" fill="#000000" fill-rule="evenodd" fill-opacity="1" /><path clip-path="url(#clip320)" d="M261.945 1075.89 L269.583 1075.89 L269.583 1049.53 L261.273 1051.19 L261.273 1046.93 L269.537 1045.27 L274.213 1045.27 L274.213 1075.89 L281.852 1075.89 L281.852 1079.83 L261.945 1079.83 L261.945 1075.89 Z" fill="#000000" fill-rule="evenodd" fill-opacity="1" /><path clip-path="url(#clip320)" d="M301.296 1048.35 Q297.685 1048.35 295.856 1051.91 Q294.051 1055.45 294.051 1062.58 Q294.051 1069.69 295.856 1073.25 Q297.685 1076.8 301.296 1076.8 Q304.93 1076.8 306.736 1073.25 Q308.565 1069.69 308.565 1062.58 Q308.565 1055.45 306.736 1051.91 Q304.93 1048.35 301.296 1048.35 M301.296 1044.64 Q307.106 1044.64 310.162 1049.25 Q313.241 1053.83 313.241 1062.58 Q313.241 1071.31 310.162 1075.92 Q307.106 1080.5 301.296 1080.5 Q295.486 1080.5 292.407 1075.92 Q289.352 1071.31 289.352 1062.58 Q289.352 1053.83 292.407 1049.25 Q295.486 1044.64 301.296 1044.64 Z" fill="#000000" fill-rule="evenodd" fill-opacity="1" /><path clip-path="url(#clip320)" d="M313.241 1038.74 L337.352 1038.74 L337.352 1041.94 L313.241 1041.94 L313.241 1038.74 Z" fill="#000000" fill-rule="evenodd" fill-opacity="1" /><path clip-path="url(#clip320)" d="M346.211 1049.22 L352.417 1049.22 L352.417 1027.8 L345.665 1029.15 L345.665 1025.69 L352.38 1024.34 L356.179 1024.34 L356.179 1049.22 L362.385 1049.22 L362.385 1052.42 L346.211 1052.42 L346.211 1049.22 Z" fill="#000000" fill-rule="evenodd" fill-opacity="1" /><path clip-path="url(#clip320)" d="M370.717 1049.22 L376.924 1049.22 L376.924 1027.8 L370.172 1029.15 L370.172 1025.69 L376.886 1024.34 L380.685 1024.34 L380.685 1049.22 L386.892 1049.22 L386.892 1052.42 L370.717 1052.42 L370.717 1049.22 Z" fill="#000000" fill-rule="evenodd" fill-opacity="1" /><path clip-path="url(#clip320)" d="M119.885 761.981 L136.204 761.981 L136.204 765.916 L114.26 765.916 L114.26 761.981 Q116.922 759.227 121.505 754.597 Q126.112 749.944 127.292 748.602 Q129.538 746.079 130.417 744.342 Q131.32 742.583 131.32 740.893 Q131.32 738.139 129.376 736.403 Q127.455 734.667 124.353 734.667 Q122.154 734.667 119.7 735.43 Q117.269 736.194 114.492 737.745 L114.492 733.023 Q117.316 731.889 119.769 731.31 Q122.223 730.731 124.26 730.731 Q129.63 730.731 132.825 733.417 Q136.019 736.102 136.019 740.592 Q136.019 742.722 135.209 744.643 Q134.422 746.542 132.316 749.134 Q131.737 749.805 128.635 753.023 Q125.533 756.217 119.885 761.981 Z" fill="#000000" fill-rule="evenodd" fill-opacity="1" /><path clip-path="url(#clip320)" d="M146.019 760.037 L150.903 760.037 L150.903 765.916 L146.019 765.916 L146.019 760.037 Z" fill="#000000" fill-rule="evenodd" fill-opacity="1" /><path clip-path="url(#clip320)" d="M161.135 731.356 L179.491 731.356 L179.491 735.292 L165.417 735.292 L165.417 743.764 Q166.436 743.417 167.454 743.255 Q168.473 743.069 169.491 743.069 Q175.278 743.069 178.658 746.241 Q182.038 749.412 182.038 754.829 Q182.038 760.407 178.565 763.509 Q175.093 766.588 168.774 766.588 Q166.598 766.588 164.329 766.217 Q162.084 765.847 159.677 765.106 L159.677 760.407 Q161.76 761.541 163.982 762.097 Q166.204 762.653 168.681 762.653 Q172.686 762.653 175.024 760.546 Q177.362 758.44 177.362 754.829 Q177.362 751.217 175.024 749.111 Q172.686 747.004 168.681 747.004 Q166.806 747.004 164.931 747.421 Q163.079 747.838 161.135 748.717 L161.135 731.356 Z" fill="#000000" fill-rule="evenodd" fill-opacity="1" /><path clip-path="url(#clip320)" d="M201.25 734.435 Q197.639 734.435 195.811 738 Q194.005 741.542 194.005 748.671 Q194.005 755.778 195.811 759.342 Q197.639 762.884 201.25 762.884 Q204.885 762.884 206.69 759.342 Q208.519 755.778 208.519 748.671 Q208.519 741.542 206.69 738 Q204.885 734.435 201.25 734.435 M201.25 730.731 Q207.061 730.731 210.116 735.338 Q213.195 739.921 213.195 748.671 Q213.195 757.398 210.116 762.004 Q207.061 766.588 201.25 766.588 Q195.44 766.588 192.362 762.004 Q189.306 757.398 189.306 748.671 Q189.306 739.921 192.362 735.338 Q195.44 730.731 201.25 730.731 Z" fill="#000000" fill-rule="evenodd" fill-opacity="1" /><path clip-path="url(#clip320)" d="M249.584 740.454 L239.005 751.079 L249.584 761.657 L246.829 764.458 L236.204 753.833 L225.579 764.458 L222.848 761.657 L233.403 751.079 L222.848 740.454 L225.579 737.653 L236.204 748.278 L246.829 737.653 L249.584 740.454 Z" fill="#000000" fill-rule="evenodd" fill-opacity="1" /><path clip-path="url(#clip320)" d="M261.945 761.981 L269.583 761.981 L269.583 735.616 L261.273 737.282 L261.273 733.023 L269.537 731.356 L274.213 731.356 L274.213 761.981 L281.852 761.981 L281.852 765.916 L261.945 765.916 L261.945 761.981 Z" fill="#000000" fill-rule="evenodd" fill-opacity="1" /><path clip-path="url(#clip320)" d="M301.296 734.435 Q297.685 734.435 295.856 738 Q294.051 741.542 294.051 748.671 Q294.051 755.778 295.856 759.342 Q297.685 762.884 301.296 762.884 Q304.93 762.884 306.736 759.342 Q308.565 755.778 308.565 748.671 Q308.565 741.542 306.736 738 Q304.93 734.435 301.296 734.435 M301.296 730.731 Q307.106 730.731 310.162 735.338 Q313.241 739.921 313.241 748.671 Q313.241 757.398 310.162 762.004 Q307.106 766.588 301.296 766.588 Q295.486 766.588 292.407 762.004 Q289.352 757.398 289.352 748.671 Q289.352 739.921 292.407 735.338 Q295.486 730.731 301.296 730.731 Z" fill="#000000" fill-rule="evenodd" fill-opacity="1" /><path clip-path="url(#clip320)" d="M313.241 724.833 L337.352 724.833 L337.352 728.03 L313.241 728.03 L313.241 724.833 Z" fill="#000000" fill-rule="evenodd" fill-opacity="1" /><path clip-path="url(#clip320)" d="M346.211 735.309 L352.417 735.309 L352.417 713.887 L345.665 715.241 L345.665 711.78 L352.38 710.426 L356.179 710.426 L356.179 735.309 L362.385 735.309 L362.385 738.506 L346.211 738.506 L346.211 735.309 Z" fill="#000000" fill-rule="evenodd" fill-opacity="1" /><path clip-path="url(#clip320)" d="M370.717 735.309 L376.924 735.309 L376.924 713.887 L370.172 715.241 L370.172 711.78 L376.886 710.426 L380.685 710.426 L380.685 735.309 L386.892 735.309 L386.892 738.506 L370.717 738.506 L370.717 735.309 Z" fill="#000000" fill-rule="evenodd" fill-opacity="1" /><path clip-path="url(#clip320)" d="M130.024 433.371 Q133.38 434.089 135.255 436.357 Q137.154 438.626 137.154 441.959 Q137.154 447.075 133.635 449.876 Q130.117 452.676 123.635 452.676 Q121.459 452.676 119.144 452.237 Q116.853 451.82 114.399 450.964 L114.399 446.45 Q116.343 447.584 118.658 448.163 Q120.973 448.741 123.496 448.741 Q127.894 448.741 130.186 447.005 Q132.501 445.269 132.501 441.959 Q132.501 438.903 130.348 437.19 Q128.218 435.454 124.399 435.454 L120.371 435.454 L120.371 431.612 L124.584 431.612 Q128.033 431.612 129.862 430.246 Q131.691 428.857 131.691 426.265 Q131.691 423.603 129.792 422.191 Q127.917 420.755 124.399 420.755 Q122.478 420.755 120.279 421.172 Q118.08 421.589 115.441 422.468 L115.441 418.302 Q118.103 417.561 120.418 417.191 Q122.755 416.82 124.816 416.82 Q130.14 416.82 133.242 419.251 Q136.343 421.658 136.343 425.778 Q136.343 428.649 134.7 430.64 Q133.056 432.607 130.024 433.371 Z" fill="#000000" fill-rule="evenodd" fill-opacity="1" /><path clip-path="url(#clip320)" d="M146.019 446.126 L150.903 446.126 L150.903 452.005 L146.019 452.005 L146.019 446.126 Z" fill="#000000" fill-rule="evenodd" fill-opacity="1" /><path clip-path="url(#clip320)" d="M171.089 420.524 Q167.477 420.524 165.649 424.089 Q163.843 427.63 163.843 434.76 Q163.843 441.866 165.649 445.431 Q167.477 448.973 171.089 448.973 Q174.723 448.973 176.528 445.431 Q178.357 441.866 178.357 434.76 Q178.357 427.63 176.528 424.089 Q174.723 420.524 171.089 420.524 M171.089 416.82 Q176.899 416.82 179.954 421.427 Q183.033 426.01 183.033 434.76 Q183.033 443.487 179.954 448.093 Q176.899 452.676 171.089 452.676 Q165.278 452.676 162.2 448.093 Q159.144 443.487 159.144 434.76 Q159.144 426.01 162.2 421.427 Q165.278 416.82 171.089 416.82 Z" fill="#000000" fill-rule="evenodd" fill-opacity="1" /><path clip-path="url(#clip320)" d="M201.25 420.524 Q197.639 420.524 195.811 424.089 Q194.005 427.63 194.005 434.76 Q194.005 441.866 195.811 445.431 Q197.639 448.973 201.25 448.973 Q204.885 448.973 206.69 445.431 Q208.519 441.866 208.519 434.76 Q208.519 427.63 206.69 424.089 Q204.885 420.524 201.25 420.524 M201.25 416.82 Q207.061 416.82 210.116 421.427 Q213.195 426.01 213.195 434.76 Q213.195 443.487 210.116 448.093 Q207.061 452.676 201.25 452.676 Q195.44 452.676 192.362 448.093 Q189.306 443.487 189.306 434.76 Q189.306 426.01 192.362 421.427 Q195.44 416.82 201.25 416.82 Z" fill="#000000" fill-rule="evenodd" fill-opacity="1" /><path clip-path="url(#clip320)" d="M249.584 426.542 L239.005 437.167 L249.584 447.746 L246.829 450.547 L236.204 439.922 L225.579 450.547 L222.848 447.746 L233.403 437.167 L222.848 426.542 L225.579 423.741 L236.204 434.366 L246.829 423.741 L249.584 426.542 Z" fill="#000000" fill-rule="evenodd" fill-opacity="1" /><path clip-path="url(#clip320)" d="M261.945 448.07 L269.583 448.07 L269.583 421.704 L261.273 423.371 L261.273 419.112 L269.537 417.445 L274.213 417.445 L274.213 448.07 L281.852 448.07 L281.852 452.005 L261.945 452.005 L261.945 448.07 Z" fill="#000000" fill-rule="evenodd" fill-opacity="1" /><path clip-path="url(#clip320)" d="M301.296 420.524 Q297.685 420.524 295.856 424.089 Q294.051 427.63 294.051 434.76 Q294.051 441.866 295.856 445.431 Q297.685 448.973 301.296 448.973 Q304.93 448.973 306.736 445.431 Q308.565 441.866 308.565 434.76 Q308.565 427.63 306.736 424.089 Q304.93 420.524 301.296 420.524 M301.296 416.82 Q307.106 416.82 310.162 421.427 Q313.241 426.01 313.241 434.76 Q313.241 443.487 310.162 448.093 Q307.106 452.676 301.296 452.676 Q295.486 452.676 292.407 448.093 Q289.352 443.487 289.352 434.76 Q289.352 426.01 292.407 421.427 Q295.486 416.82 301.296 416.82 Z" fill="#000000" fill-rule="evenodd" fill-opacity="1" /><path clip-path="url(#clip320)" d="M313.241 410.922 L337.352 410.922 L337.352 414.119 L313.241 414.119 L313.241 410.922 Z" fill="#000000" fill-rule="evenodd" fill-opacity="1" /><path clip-path="url(#clip320)" d="M346.211 421.397 L352.417 421.397 L352.417 399.975 L345.665 401.33 L345.665 397.869 L352.38 396.515 L356.179 396.515 L356.179 421.397 L362.385 421.397 L362.385 424.595 L346.211 424.595 L346.211 421.397 Z" fill="#000000" fill-rule="evenodd" fill-opacity="1" /><path clip-path="url(#clip320)" d="M370.717 421.397 L376.924 421.397 L376.924 399.975 L370.172 401.33 L370.172 397.869 L376.886 396.515 L380.685 396.515 L380.685 421.397 L386.892 421.397 L386.892 424.595 L370.717 424.595 L370.717 421.397 Z" fill="#000000" fill-rule="evenodd" fill-opacity="1" /><path clip-path="url(#clip320)" d="M130.024 119.46 Q133.38 120.177 135.255 122.446 Q137.154 124.714 137.154 128.048 Q137.154 133.163 133.635 135.964 Q130.117 138.765 123.635 138.765 Q121.459 138.765 119.144 138.325 Q116.853 137.909 114.399 137.052 L114.399 132.538 Q116.343 133.673 118.658 134.251 Q120.973 134.83 123.496 134.83 Q127.894 134.83 130.186 133.094 Q132.501 131.358 132.501 128.048 Q132.501 124.992 130.348 123.279 Q128.218 121.543 124.399 121.543 L120.371 121.543 L120.371 117.701 L124.584 117.701 Q128.033 117.701 129.862 116.335 Q131.691 114.946 131.691 112.353 Q131.691 109.691 129.792 108.279 Q127.917 106.844 124.399 106.844 Q122.478 106.844 120.279 107.261 Q118.08 107.677 115.441 108.557 L115.441 104.39 Q118.103 103.65 120.418 103.279 Q122.755 102.909 124.816 102.909 Q130.14 102.909 133.242 105.339 Q136.343 107.747 136.343 111.867 Q136.343 114.738 134.7 116.728 Q133.056 118.696 130.024 119.46 Z" fill="#000000" fill-rule="evenodd" fill-opacity="1" /><path clip-path="url(#clip320)" d="M146.019 132.214 L150.903 132.214 L150.903 138.094 L146.019 138.094 L146.019 132.214 Z" fill="#000000" fill-rule="evenodd" fill-opacity="1" /><path clip-path="url(#clip320)" d="M161.135 103.534 L179.491 103.534 L179.491 107.469 L165.417 107.469 L165.417 115.941 Q166.436 115.594 167.454 115.432 Q168.473 115.247 169.491 115.247 Q175.278 115.247 178.658 118.418 Q182.038 121.589 182.038 127.006 Q182.038 132.585 178.565 135.687 Q175.093 138.765 168.774 138.765 Q166.598 138.765 164.329 138.395 Q162.084 138.025 159.677 137.284 L159.677 132.585 Q161.76 133.719 163.982 134.275 Q166.204 134.83 168.681 134.83 Q172.686 134.83 175.024 132.724 Q177.362 130.617 177.362 127.006 Q177.362 123.395 175.024 121.288 Q172.686 119.182 168.681 119.182 Q166.806 119.182 164.931 119.599 Q163.079 120.015 161.135 120.895 L161.135 103.534 Z" fill="#000000" fill-rule="evenodd" fill-opacity="1" /><path clip-path="url(#clip320)" d="M201.25 106.613 Q197.639 106.613 195.811 110.177 Q194.005 113.719 194.005 120.849 Q194.005 127.955 195.811 131.52 Q197.639 135.062 201.25 135.062 Q204.885 135.062 206.69 131.52 Q208.519 127.955 208.519 120.849 Q208.519 113.719 206.69 110.177 Q204.885 106.613 201.25 106.613 M201.25 102.909 Q207.061 102.909 210.116 107.515 Q213.195 112.099 213.195 120.849 Q213.195 129.575 210.116 134.182 Q207.061 138.765 201.25 138.765 Q195.44 138.765 192.362 134.182 Q189.306 129.575 189.306 120.849 Q189.306 112.099 192.362 107.515 Q195.44 102.909 201.25 102.909 Z" fill="#000000" fill-rule="evenodd" fill-opacity="1" /><path clip-path="url(#clip320)" d="M249.584 112.631 L239.005 123.256 L249.584 133.835 L246.829 136.636 L236.204 126.011 L225.579 136.636 L222.848 133.835 L233.403 123.256 L222.848 112.631 L225.579 109.83 L236.204 120.455 L246.829 109.83 L249.584 112.631 Z" fill="#000000" fill-rule="evenodd" fill-opacity="1" /><path clip-path="url(#clip320)" d="M261.945 134.159 L269.583 134.159 L269.583 107.793 L261.273 109.46 L261.273 105.201 L269.537 103.534 L274.213 103.534 L274.213 134.159 L281.852 134.159 L281.852 138.094 L261.945 138.094 L261.945 134.159 Z" fill="#000000" fill-rule="evenodd" fill-opacity="1" /><path clip-path="url(#clip320)" d="M301.296 106.613 Q297.685 106.613 295.856 110.177 Q294.051 113.719 294.051 120.849 Q294.051 127.955 295.856 131.52 Q297.685 135.062 301.296 135.062 Q304.93 135.062 306.736 131.52 Q308.565 127.955 308.565 120.849 Q308.565 113.719 306.736 110.177 Q304.93 106.613 301.296 106.613 M301.296 102.909 Q307.106 102.909 310.162 107.515 Q313.241 112.099 313.241 120.849 Q313.241 129.575 310.162 134.182 Q307.106 138.765 301.296 138.765 Q295.486 138.765 292.407 134.182 Q289.352 129.575 289.352 120.849 Q289.352 112.099 292.407 107.515 Q295.486 102.909 301.296 102.909 Z" fill="#000000" fill-rule="evenodd" fill-opacity="1" /><path clip-path="url(#clip320)" d="M313.241 97.0103 L337.352 97.0103 L337.352 100.208 L313.241 100.208 L313.241 97.0103 Z" fill="#000000" fill-rule="evenodd" fill-opacity="1" /><path clip-path="url(#clip320)" d="M346.211 107.486 L352.417 107.486 L352.417 86.0642 L345.665 87.4183 L345.665 83.9577 L352.38 82.6036 L356.179 82.6036 L356.179 107.486 L362.385 107.486 L362.385 110.684 L346.211 110.684 L346.211 107.486 Z" fill="#000000" fill-rule="evenodd" fill-opacity="1" /><path clip-path="url(#clip320)" d="M370.717 107.486 L376.924 107.486 L376.924 86.0642 L370.172 87.4183 L370.172 83.9577 L376.886 82.6036 L380.685 82.6036 L380.685 107.486 L386.892 107.486 L386.892 110.684 L370.717 110.684 L370.717 107.486 Z" fill="#000000" fill-rule="evenodd" fill-opacity="1" /><path clip-path="url(#clip320)" d="M41.7242 1055.98 Q42.4244 1053.91 44.7161 1051.97 Q47.0077 1049.99 51.0181 1048.02 L64.0042 1041.5 L64.0042 1048.4 L51.8138 1054.48 Q47.0395 1056.84 45.48 1059.07 Q43.9204 1061.26 43.9204 1065.08 L43.9204 1072.08 L64.0042 1072.08 L64.0042 1078.51 L16.4842 1078.51 L16.4842 1064 Q16.4842 1055.85 19.8898 1051.84 Q23.2955 1047.83 30.1704 1047.83 Q34.6582 1047.83 37.6183 1049.93 Q40.5784 1052 41.7242 1055.98 M21.7677 1072.08 L38.6368 1072.08 L38.6368 1064 Q38.6368 1059.35 36.5043 1057 Q34.34 1054.61 30.1704 1054.61 Q26.0009 1054.61 23.9002 1057 Q21.7677 1059.35 21.7677 1064 L21.7677 1072.08 Z" fill="#000000" fill-rule="evenodd" fill-opacity="1" /><path clip-path="url(#clip320)" d="M44.7161 1005.91 L47.5806 1005.91 L47.5806 1032.84 Q53.6281 1032.46 56.8109 1029.21 Q59.9619 1025.93 59.9619 1020.11 Q59.9619 1016.73 59.1344 1013.58 Q58.3069 1010.4 56.6518 1007.28 L62.1899 1007.28 Q63.5267 1010.43 64.227 1013.74 Q64.9272 1017.05 64.9272 1020.46 Q64.9272 1028.99 59.9619 1033.98 Q54.9967 1038.95 46.5303 1038.95 Q37.7774 1038.95 32.6531 1034.24 Q27.4968 1029.5 27.4968 1021.48 Q27.4968 1014.28 32.1438 1010.11 Q36.7589 1005.91 44.7161 1005.91 M42.9973 1011.77 Q38.1912 1011.83 35.3266 1014.47 Q32.4621 1017.08 32.4621 1021.41 Q32.4621 1026.31 35.2312 1029.27 Q38.0002 1032.2 43.0292 1032.65 L42.9973 1011.77 Z" fill="#000000" fill-rule="evenodd" fill-opacity="1" /><path clip-path="url(#clip320)" d="M29.4065 973.574 L34.9447 973.574 Q33.6716 976.057 33.035 978.731 Q32.3984 981.404 32.3984 984.269 Q32.3984 988.629 33.7352 990.825 Q35.072 992.99 37.7456 992.99 Q39.7826 992.99 40.9603 991.43 Q42.1061 989.87 43.1565 985.16 L43.6021 983.155 Q44.9389 976.916 47.3897 974.306 Q49.8086 971.665 54.1691 971.665 Q59.1344 971.665 62.0308 975.611 Q64.9272 979.526 64.9272 986.401 Q64.9272 989.266 64.3543 992.385 Q63.8132 995.472 62.6992 998.91 L56.6518 998.91 Q58.3387 995.663 59.198 992.512 Q60.0256 989.361 60.0256 986.274 Q60.0256 982.136 58.6251 979.908 Q57.1929 977.68 54.6147 977.68 Q52.2276 977.68 50.9545 979.303 Q49.6813 980.895 48.5037 986.338 L48.0262 988.375 Q46.8804 993.817 44.5251 996.236 Q42.138 998.655 38.0002 998.655 Q32.9713 998.655 30.2341 995.09 Q27.4968 991.526 27.4968 984.969 Q27.4968 981.722 27.9743 978.858 Q28.4517 975.993 29.4065 973.574 Z" fill="#000000" fill-rule="evenodd" fill-opacity="1" /><path clip-path="url(#clip320)" d="M58.657 956.673 L77.5631 956.673 L77.5631 962.562 L28.3562 962.562 L28.3562 956.673 L33.7671 956.673 Q30.5842 954.827 29.0564 952.026 Q27.4968 949.194 27.4968 945.279 Q27.4968 938.786 32.6531 934.743 Q37.8093 930.669 46.212 930.669 Q54.6147 930.669 59.771 934.743 Q64.9272 938.786 64.9272 945.279 Q64.9272 949.194 63.3994 952.026 Q61.8398 954.827 58.657 956.673 M46.212 936.749 Q39.7508 936.749 36.0905 939.422 Q32.3984 942.064 32.3984 946.711 Q32.3984 951.358 36.0905 954.032 Q39.7508 956.673 46.212 956.673 Q52.6732 956.673 56.3653 954.032 Q60.0256 951.358 60.0256 946.711 Q60.0256 942.064 56.3653 939.422 Q52.6732 936.749 46.212 936.749 Z" fill="#000000" fill-rule="evenodd" fill-opacity="1" /><path clip-path="url(#clip320)" d="M32.4621 907.148 Q32.4621 911.859 36.1542 914.596 Q39.8145 917.333 46.212 917.333 Q52.6095 917.333 56.3017 914.628 Q59.9619 911.891 59.9619 907.148 Q59.9619 902.469 56.2698 899.732 Q52.5777 896.995 46.212 896.995 Q39.8781 896.995 36.186 899.732 Q32.4621 902.469 32.4621 907.148 M27.4968 907.148 Q27.4968 899.509 32.4621 895.149 Q37.4273 890.788 46.212 890.788 Q54.9649 890.788 59.9619 895.149 Q64.9272 899.509 64.9272 907.148 Q64.9272 914.819 59.9619 919.179 Q54.9649 923.508 46.212 923.508 Q37.4273 923.508 32.4621 919.179 Q27.4968 914.819 27.4968 907.148 Z" fill="#000000" fill-rule="evenodd" fill-opacity="1" /><path clip-path="url(#clip320)" d="M42.4881 851.448 L64.0042 851.448 L64.0042 857.305 L42.679 857.305 Q37.6183 857.305 35.1038 859.278 Q32.5894 861.251 32.5894 865.198 Q32.5894 869.941 35.6131 872.678 Q38.6368 875.415 43.8567 875.415 L64.0042 875.415 L64.0042 881.303 L28.3562 881.303 L28.3562 875.415 L33.8944 875.415 Q30.6797 873.314 29.0883 870.482 Q27.4968 867.617 27.4968 863.893 Q27.4968 857.75 31.3163 854.599 Q35.1038 851.448 42.4881 851.448 Z" fill="#000000" fill-rule="evenodd" fill-opacity="1" /><path clip-path="url(#clip320)" d="M29.4065 817.042 L34.9447 817.042 Q33.6716 819.524 33.035 822.198 Q32.3984 824.871 32.3984 827.736 Q32.3984 832.096 33.7352 834.293 Q35.072 836.457 37.7456 836.457 Q39.7826 836.457 40.9603 834.897 Q42.1061 833.338 43.1565 828.627 L43.6021 826.622 Q44.9389 820.384 47.3897 817.774 Q49.8086 815.132 54.1691 815.132 Q59.1344 815.132 62.0308 819.079 Q64.9272 822.993 64.9272 829.868 Q64.9272 832.733 64.3543 835.852 Q63.8132 838.94 62.6992 842.377 L56.6518 842.377 Q58.3387 839.131 59.198 835.98 Q60.0256 832.829 60.0256 829.741 Q60.0256 825.603 58.6251 823.375 Q57.1929 821.147 54.6147 821.147 Q52.2276 821.147 50.9545 822.771 Q49.6813 824.362 48.5037 829.805 L48.0262 831.842 Q46.8804 837.285 44.5251 839.703 Q42.138 842.122 38.0002 842.122 Q32.9713 842.122 30.2341 838.558 Q27.4968 834.993 27.4968 828.436 Q27.4968 825.19 27.9743 822.325 Q28.4517 819.461 29.4065 817.042 Z" fill="#000000" fill-rule="evenodd" fill-opacity="1" /><path clip-path="url(#clip320)" d="M44.7161 775.314 L47.5806 775.314 L47.5806 802.241 Q53.6281 801.859 56.8109 798.613 Q59.9619 795.335 59.9619 789.51 Q59.9619 786.136 59.1344 782.985 Q58.3069 779.802 56.6518 776.683 L62.1899 776.683 Q63.5267 779.834 64.227 783.144 Q64.9272 786.454 64.9272 789.86 Q64.9272 798.39 59.9619 803.387 Q54.9967 808.352 46.5303 808.352 Q37.7774 808.352 32.6531 803.642 Q27.4968 798.899 27.4968 790.879 Q27.4968 783.685 32.1438 779.516 Q36.7589 775.314 44.7161 775.314 M42.9973 781.171 Q38.1912 781.234 35.3266 783.876 Q32.4621 786.486 32.4621 790.815 Q32.4621 795.716 35.2312 798.677 Q38.0002 801.605 43.0292 802.05 L42.9973 781.171 Z" fill="#000000" fill-rule="evenodd" fill-opacity="1" /><path clip-path="url(#clip320)" d="M14.5426 730.914 Q21.8632 735.179 29.0246 737.247 Q36.186 739.316 43.5384 739.316 Q50.8908 739.316 58.1159 737.247 Q65.3091 735.147 72.5979 730.914 L72.5979 736.006 Q65.1182 740.78 57.8931 743.168 Q50.668 745.523 43.5384 745.523 Q36.4406 745.523 29.2474 743.168 Q22.0542 740.812 14.5426 736.006 L14.5426 730.914 Z" fill="#000000" fill-rule="evenodd" fill-opacity="1" /><path clip-path="url(#clip320)" d="M46.0847 703.35 Q46.0847 710.448 47.7079 713.185 Q49.3312 715.922 53.2461 715.922 Q56.3653 715.922 58.2114 713.885 Q60.0256 711.816 60.0256 708.283 Q60.0256 703.414 56.5881 700.485 Q53.1188 697.525 47.3897 697.525 L46.0847 697.525 L46.0847 703.35 M43.6657 691.669 L64.0042 691.669 L64.0042 697.525 L58.5933 697.525 Q61.8398 699.531 63.3994 702.523 Q64.9272 705.514 64.9272 709.843 Q64.9272 715.318 61.8716 718.564 Q58.7843 721.779 53.6281 721.779 Q47.6125 721.779 44.5569 717.768 Q41.5014 713.726 41.5014 705.737 L41.5014 697.525 L40.9285 697.525 Q36.8862 697.525 34.6901 700.199 Q32.4621 702.841 32.4621 707.647 Q32.4621 710.702 33.1941 713.599 Q33.9262 716.495 35.3903 719.169 L29.9795 719.169 Q28.7381 715.954 28.1334 712.93 Q27.4968 709.907 27.4968 707.042 Q27.4968 699.308 31.5072 695.488 Q35.5176 691.669 43.6657 691.669 Z" fill="#000000" fill-rule="evenodd" fill-opacity="1" /><path clip-path="url(#clip320)" d="M33.8307 658.949 Q33.2578 659.936 33.0032 661.114 Q32.7167 662.259 32.7167 663.66 Q32.7167 668.625 35.9632 671.299 Q39.1779 673.94 45.2253 673.94 L64.0042 673.94 L64.0042 679.829 L28.3562 679.829 L28.3562 673.94 L33.8944 673.94 Q30.6479 672.094 29.0883 669.134 Q27.4968 666.174 27.4968 661.941 Q27.4968 661.336 27.5923 660.604 Q27.656 659.872 27.8151 658.981 L33.8307 658.949 Z" fill="#000000" fill-rule="evenodd" fill-opacity="1" /><path clip-path="url(#clip320)" d="M46.212 627.216 Q39.7508 627.216 36.0905 629.89 Q32.3984 632.532 32.3984 637.179 Q32.3984 641.825 36.0905 644.499 Q39.7508 647.141 46.212 647.141 Q52.6732 647.141 56.3653 644.499 Q60.0256 641.825 60.0256 637.179 Q60.0256 632.532 56.3653 629.89 Q52.6732 627.216 46.212 627.216 M33.7671 647.141 Q30.5842 645.295 29.0564 642.494 Q27.4968 639.661 27.4968 635.746 Q27.4968 629.253 32.6531 625.211 Q37.8093 621.137 46.212 621.137 Q54.6147 621.137 59.771 625.211 Q64.9272 629.253 64.9272 635.746 Q64.9272 639.661 63.3994 642.494 Q61.8398 645.295 58.657 647.141 L64.0042 647.141 L64.0042 653.029 L14.479 653.029 L14.479 647.141 L33.7671 647.141 Z" fill="#000000" fill-rule="evenodd" fill-opacity="1" /><path clip-path="url(#clip320)" d="M55.9197 610.602 L55.9197 603.886 L64.0042 603.886 L64.0042 610.602 L55.9197 610.602 Z" fill="#000000" fill-rule="evenodd" fill-opacity="1" /><path clip-path="url(#clip320)" d="M49.9359 570.593 L28.3562 570.593 L28.3562 564.737 L49.7131 564.737 Q54.7739 564.737 57.3202 562.763 Q59.8346 560.79 59.8346 556.843 Q59.8346 552.101 56.8109 549.364 Q53.7872 546.595 48.5673 546.595 L28.3562 546.595 L28.3562 540.738 L64.0042 540.738 L64.0042 546.595 L58.5296 546.595 Q61.7762 548.727 63.3676 551.56 Q64.9272 554.361 64.9272 558.085 Q64.9272 564.228 61.1078 567.41 Q57.2883 570.593 49.9359 570.593 M27.4968 555.857 L27.4968 555.857 Z" fill="#000000" fill-rule="evenodd" fill-opacity="1" /><path clip-path="url(#clip320)" d="M42.4881 499.043 L64.0042 499.043 L64.0042 504.899 L42.679 504.899 Q37.6183 504.899 35.1038 506.873 Q32.5894 508.846 32.5894 512.793 Q32.5894 517.535 35.6131 520.272 Q38.6368 523.01 43.8567 523.01 L64.0042 523.01 L64.0042 528.898 L28.3562 528.898 L28.3562 523.01 L33.8944 523.01 Q30.6797 520.909 29.0883 518.076 Q27.4968 515.212 27.4968 511.488 Q27.4968 505.345 31.3163 502.194 Q35.1038 499.043 42.4881 499.043 Z" fill="#000000" fill-rule="evenodd" fill-opacity="1" /><path clip-path="url(#clip320)" d="M28.3562 487.362 L28.3562 481.505 L64.0042 481.505 L64.0042 487.362 L28.3562 487.362 M14.479 487.362 L14.479 481.505 L21.895 481.505 L21.895 487.362 L14.479 487.362 Z" fill="#000000" fill-rule="evenodd" fill-opacity="1" /><path clip-path="url(#clip320)" d="M18.2347 463.458 L28.3562 463.458 L28.3562 451.395 L32.9077 451.395 L32.9077 463.458 L52.2594 463.458 Q56.6199 463.458 57.8613 462.281 Q59.1026 461.071 59.1026 457.411 L59.1026 451.395 L64.0042 451.395 L64.0042 457.411 Q64.0042 464.19 61.4897 466.769 Q58.9434 469.347 52.2594 469.347 L32.9077 469.347 L32.9077 473.644 L28.3562 473.644 L28.3562 469.347 L18.2347 469.347 L18.2347 463.458 Z" fill="#000000" fill-rule="evenodd" fill-opacity="1" /><path clip-path="url(#clip320)" d="M29.4065 420.967 L34.9447 420.967 Q33.6716 423.45 33.035 426.124 Q32.3984 428.797 32.3984 431.662 Q32.3984 436.022 33.7352 438.218 Q35.072 440.383 37.7456 440.383 Q39.7826 440.383 40.9603 438.823 Q42.1061 437.264 43.1565 432.553 L43.6021 430.548 Q44.9389 424.309 47.3897 421.699 Q49.8086 419.058 54.1691 419.058 Q59.1344 419.058 62.0308 423.004 Q64.9272 426.919 64.9272 433.794 Q64.9272 436.659 64.3543 439.778 Q63.8132 442.865 62.6992 446.303 L56.6518 446.303 Q58.3387 443.056 59.198 439.905 Q60.0256 436.754 60.0256 433.667 Q60.0256 429.529 58.6251 427.301 Q57.1929 425.073 54.6147 425.073 Q52.2276 425.073 50.9545 426.696 Q49.6813 428.288 48.5037 433.731 L48.0262 435.768 Q46.8804 441.21 44.5251 443.629 Q42.138 446.048 38.0002 446.048 Q32.9713 446.048 30.2341 442.483 Q27.4968 438.919 27.4968 432.362 Q27.4968 429.115 27.9743 426.251 Q28.4517 423.386 29.4065 420.967 Z" fill="#000000" fill-rule="evenodd" fill-opacity="1" /><path clip-path="url(#clip320)" d="M14.5426 410.655 L14.5426 405.562 Q22.0542 400.788 29.2474 398.433 Q36.4406 396.046 43.5384 396.046 Q50.668 396.046 57.8931 398.433 Q65.1182 400.788 72.5979 405.562 L72.5979 410.655 Q65.3091 406.422 58.1159 404.353 Q50.8908 402.252 43.5384 402.252 Q36.186 402.252 29.0246 404.353 Q21.8632 406.422 14.5426 410.655 Z" fill="#000000" fill-rule="evenodd" fill-opacity="1" /><polyline clip-path="url(#clip322)" style="stroke:#000000; stroke-linecap:butt; stroke-linejoin:round; stroke-width:4; stroke-opacity:1; fill:none" points="
  477.511,315.018 477.511,115.245 
  "/>
<polyline clip-path="url(#clip322)" style="stroke:#000000; stroke-linecap:butt; stroke-linejoin:round; stroke-width:4; stroke-opacity:1; fill:none" points="
  1001.93,215.006 1001.93,86.3027 
  "/>
<polyline clip-path="url(#clip322)" style="stroke:#000000; stroke-linecap:butt; stroke-linejoin:round; stroke-width:4; stroke-opacity:1; fill:none" points="
  1150.35,254.057 1150.35,128.951 
  "/>
<polyline clip-path="url(#clip322)" style="stroke:#000000; stroke-linecap:butt; stroke-linejoin:round; stroke-width:4; stroke-opacity:1; fill:none" points="
  1349.43,254.823 1349.43,135.505 
  "/>
<line clip-path="url(#clip322)" x1="493.511" y1="315.018" x2="461.511" y2="315.018" style="stroke:#000000; stroke-width:3.2; stroke-opacity:1"/>
<line clip-path="url(#clip322)" x1="493.511" y1="115.245" x2="461.511" y2="115.245" style="stroke:#000000; stroke-width:3.2; stroke-opacity:1"/>
<line clip-path="url(#clip322)" x1="1017.93" y1="215.006" x2="985.93" y2="215.006" style="stroke:#000000; stroke-width:3.2; stroke-opacity:1"/>
<line clip-path="url(#clip322)" x1="1017.93" y1="86.3027" x2="985.93" y2="86.3027" style="stroke:#000000; stroke-width:3.2; stroke-opacity:1"/>
<line clip-path="url(#clip322)" x1="1166.35" y1="254.057" x2="1134.35" y2="254.057" style="stroke:#000000; stroke-width:3.2; stroke-opacity:1"/>
<line clip-path="url(#clip322)" x1="1166.35" y1="128.951" x2="1134.35" y2="128.951" style="stroke:#000000; stroke-width:3.2; stroke-opacity:1"/>
<line clip-path="url(#clip322)" x1="1365.43" y1="254.823" x2="1333.43" y2="254.823" style="stroke:#000000; stroke-width:3.2; stroke-opacity:1"/>
<line clip-path="url(#clip322)" x1="1365.43" y1="135.505" x2="1333.43" y2="135.505" style="stroke:#000000; stroke-width:3.2; stroke-opacity:1"/>
<circle clip-path="url(#clip322)" cx="477.511" cy="222.352" r="14" fill="#009af9" fill-rule="evenodd" fill-opacity="1" stroke="#000000" stroke-opacity="1" stroke-width="3.2"/>
<circle clip-path="url(#clip322)" cx="1001.93" cy="150.78" r="14" fill="#009af9" fill-rule="evenodd" fill-opacity="1" stroke="#000000" stroke-opacity="1" stroke-width="3.2"/>
<circle clip-path="url(#clip322)" cx="1150.35" cy="190.333" r="14" fill="#009af9" fill-rule="evenodd" fill-opacity="1" stroke="#000000" stroke-opacity="1" stroke-width="3.2"/>
<circle clip-path="url(#clip322)" cx="1349.43" cy="192.216" r="14" fill="#009af9" fill-rule="evenodd" fill-opacity="1" stroke="#000000" stroke-opacity="1" stroke-width="3.2"/>
<polyline clip-path="url(#clip322)" style="stroke:#000000; stroke-linecap:butt; stroke-linejoin:round; stroke-width:4; stroke-opacity:1; fill:none" points="
  695.194,1327.77 695.194,1263.02 
  "/>
<polyline clip-path="url(#clip322)" style="stroke:#000000; stroke-linecap:butt; stroke-linejoin:round; stroke-width:4; stroke-opacity:1; fill:none" points="
  992.035,1388.26 992.035,1331.58 
  "/>
<polyline clip-path="url(#clip322)" style="stroke:#000000; stroke-linecap:butt; stroke-linejoin:round; stroke-width:4; stroke-opacity:1; fill:none" points="
  1773.72,1303.34 1773.72,1253.68 
  "/>
<polyline clip-path="url(#clip322)" style="stroke:#000000; stroke-linecap:butt; stroke-linejoin:round; stroke-width:4; stroke-opacity:1; fill:none" points="
  2001.3,1380.6 2001.3,1340.84 
  "/>
<polyline clip-path="url(#clip322)" style="stroke:#000000; stroke-linecap:butt; stroke-linejoin:round; stroke-width:4; stroke-opacity:1; fill:none" points="
  2298.14,1353.14 2298.14,1317.03 
  "/>
<line clip-path="url(#clip322)" x1="711.194" y1="1327.77" x2="679.194" y2="1327.77" style="stroke:#000000; stroke-width:3.2; stroke-opacity:1"/>
<line clip-path="url(#clip322)" x1="711.194" y1="1263.02" x2="679.194" y2="1263.02" style="stroke:#000000; stroke-width:3.2; stroke-opacity:1"/>
<line clip-path="url(#clip322)" x1="1008.04" y1="1388.26" x2="976.035" y2="1388.26" style="stroke:#000000; stroke-width:3.2; stroke-opacity:1"/>
<line clip-path="url(#clip322)" x1="1008.04" y1="1331.58" x2="976.035" y2="1331.58" style="stroke:#000000; stroke-width:3.2; stroke-opacity:1"/>
<line clip-path="url(#clip322)" x1="1789.72" y1="1303.34" x2="1757.72" y2="1303.34" style="stroke:#000000; stroke-width:3.2; stroke-opacity:1"/>
<line clip-path="url(#clip322)" x1="1789.72" y1="1253.68" x2="1757.72" y2="1253.68" style="stroke:#000000; stroke-width:3.2; stroke-opacity:1"/>
<line clip-path="url(#clip322)" x1="2017.3" y1="1380.6" x2="1985.3" y2="1380.6" style="stroke:#000000; stroke-width:3.2; stroke-opacity:1"/>
<line clip-path="url(#clip322)" x1="2017.3" y1="1340.84" x2="1985.3" y2="1340.84" style="stroke:#000000; stroke-width:3.2; stroke-opacity:1"/>
<line clip-path="url(#clip322)" x1="2314.14" y1="1353.14" x2="2282.14" y2="1353.14" style="stroke:#000000; stroke-width:3.2; stroke-opacity:1"/>
<line clip-path="url(#clip322)" x1="2314.14" y1="1317.03" x2="2282.14" y2="1317.03" style="stroke:#000000; stroke-width:3.2; stroke-opacity:1"/>
<circle clip-path="url(#clip322)" cx="695.194" cy="1295.3" r="14" fill="#e26f46" fill-rule="evenodd" fill-opacity="1" stroke="#000000" stroke-opacity="1" stroke-width="3.2"/>
<circle clip-path="url(#clip322)" cx="992.035" cy="1359.97" r="14" fill="#e26f46" fill-rule="evenodd" fill-opacity="1" stroke="#000000" stroke-opacity="1" stroke-width="3.2"/>
<circle clip-path="url(#clip322)" cx="1773.72" cy="1277.72" r="14" fill="#e26f46" fill-rule="evenodd" fill-opacity="1" stroke="#000000" stroke-opacity="1" stroke-width="3.2"/>
<circle clip-path="url(#clip322)" cx="2001.3" cy="1359.97" r="14" fill="#e26f46" fill-rule="evenodd" fill-opacity="1" stroke="#000000" stroke-opacity="1" stroke-width="3.2"/>
<circle clip-path="url(#clip322)" cx="2298.14" cy="1334.85" r="14" fill="#e26f46" fill-rule="evenodd" fill-opacity="1" stroke="#000000" stroke-opacity="1" stroke-width="3.2"/>
<path clip-path="url(#clip320)" d="
M1801.71 248.766 L2288.43 248.766 L2288.43 93.2464 L1801.71 93.2464  Z
  " fill="#ffffff" fill-rule="evenodd" fill-opacity="1"/>
<polyline clip-path="url(#clip320)" style="stroke:#000000; stroke-linecap:butt; stroke-linejoin:round; stroke-width:4; stroke-opacity:1; fill:none" points="
  1801.71,248.766 2288.43,248.766 2288.43,93.2464 1801.71,93.2464 1801.71,248.766 
  "/>
<circle clip-path="url(#clip320)" cx="1887.48" cy="145.086" r="23" fill="#009af9" fill-rule="evenodd" fill-opacity="1" stroke="#000000" stroke-opacity="1" stroke-width="5.12"/>
<path clip-path="url(#clip320)" d="M1989.27 130.978 Q1984.18 130.978 1981.17 134.774 Q1978.18 138.57 1978.18 145.121 Q1978.18 151.649 1981.17 155.445 Q1984.18 159.241 1989.27 159.241 Q1994.36 159.241 1997.32 155.445 Q2000.31 151.649 2000.31 145.121 Q2000.31 138.57 1997.32 134.774 Q1994.36 130.978 1989.27 130.978 M1995.82 161.741 L2001.98 168.478 L1996.33 168.478 L1991.21 162.945 Q1990.45 162.991 1990.03 163.015 Q1989.64 163.038 1989.27 163.038 Q1981.98 163.038 1977.6 158.177 Q1973.25 153.292 1973.25 145.121 Q1973.25 136.927 1977.6 132.066 Q1981.98 127.181 1989.27 127.181 Q1996.54 127.181 2000.89 132.066 Q2005.24 136.927 2005.24 145.121 Q2005.24 151.14 2002.81 155.422 Q2000.4 159.704 1995.82 161.741 Z" fill="#000000" fill-rule="evenodd" fill-opacity="1" /><path clip-path="url(#clip320)" d="M2011.93 152.135 L2011.93 136.441 L2016.19 136.441 L2016.19 151.973 Q2016.19 155.654 2017.63 157.505 Q2019.06 159.334 2021.93 159.334 Q2025.38 159.334 2027.37 157.135 Q2029.38 154.936 2029.38 151.14 L2029.38 136.441 L2033.64 136.441 L2033.64 162.366 L2029.38 162.366 L2029.38 158.385 Q2027.83 160.746 2025.77 161.903 Q2023.74 163.038 2021.03 163.038 Q2016.56 163.038 2014.25 160.26 Q2011.93 157.482 2011.93 152.135 M2022.65 135.816 L2022.65 135.816 Z" fill="#000000" fill-rule="evenodd" fill-opacity="1" /><path clip-path="url(#clip320)" d="M2054.2 149.334 Q2049.04 149.334 2047.05 150.515 Q2045.06 151.695 2045.06 154.542 Q2045.06 156.811 2046.54 158.153 Q2048.04 159.473 2050.61 159.473 Q2054.15 159.473 2056.28 156.973 Q2058.44 154.45 2058.44 150.283 L2058.44 149.334 L2054.2 149.334 M2062.69 147.575 L2062.69 162.366 L2058.44 162.366 L2058.44 158.431 Q2056.98 160.792 2054.8 161.927 Q2052.63 163.038 2049.48 163.038 Q2045.5 163.038 2043.13 160.816 Q2040.8 158.57 2040.8 154.82 Q2040.8 150.445 2043.71 148.223 Q2046.65 146.001 2052.46 146.001 L2058.44 146.001 L2058.44 145.584 Q2058.44 142.644 2056.49 141.047 Q2054.57 139.427 2051.07 139.427 Q2048.85 139.427 2046.75 139.959 Q2044.64 140.492 2042.7 141.556 L2042.7 137.621 Q2045.03 136.718 2047.23 136.279 Q2049.43 135.816 2051.51 135.816 Q2057.14 135.816 2059.92 138.732 Q2062.69 141.649 2062.69 147.575 Z" fill="#000000" fill-rule="evenodd" fill-opacity="1" /><path clip-path="url(#clip320)" d="M2088.53 140.376 L2088.53 126.348 L2092.79 126.348 L2092.79 162.366 L2088.53 162.366 L2088.53 158.478 Q2087.19 160.792 2085.13 161.927 Q2083.09 163.038 2080.22 163.038 Q2075.52 163.038 2072.56 159.288 Q2069.62 155.538 2069.62 149.427 Q2069.62 143.316 2072.56 139.566 Q2075.52 135.816 2080.22 135.816 Q2083.09 135.816 2085.13 136.95 Q2087.19 138.061 2088.53 140.376 M2074.01 149.427 Q2074.01 154.126 2075.94 156.811 Q2077.88 159.473 2081.26 159.473 Q2084.64 159.473 2086.58 156.811 Q2088.53 154.126 2088.53 149.427 Q2088.53 144.728 2086.58 142.066 Q2084.64 139.38 2081.26 139.38 Q2077.88 139.38 2075.94 142.066 Q2074.01 144.728 2074.01 149.427 Z" fill="#000000" fill-rule="evenodd" fill-opacity="1" /><path clip-path="url(#clip320)" d="M2116.58 140.422 Q2115.87 140.005 2115.01 139.82 Q2114.18 139.612 2113.16 139.612 Q2109.55 139.612 2107.6 141.973 Q2105.68 144.311 2105.68 148.709 L2105.68 162.366 L2101.4 162.366 L2101.4 136.441 L2105.68 136.441 L2105.68 140.468 Q2107.02 138.107 2109.18 136.973 Q2111.33 135.816 2114.41 135.816 Q2114.85 135.816 2115.38 135.885 Q2115.91 135.931 2116.56 136.047 L2116.58 140.422 Z" fill="#000000" fill-rule="evenodd" fill-opacity="1" /><path clip-path="url(#clip320)" d="M2120.61 152.135 L2120.61 136.441 L2124.87 136.441 L2124.87 151.973 Q2124.87 155.654 2126.31 157.505 Q2127.74 159.334 2130.61 159.334 Q2134.06 159.334 2136.05 157.135 Q2138.06 154.936 2138.06 151.14 L2138.06 136.441 L2142.32 136.441 L2142.32 162.366 L2138.06 162.366 L2138.06 158.385 Q2136.51 160.746 2134.45 161.903 Q2132.42 163.038 2129.71 163.038 Q2125.24 163.038 2122.93 160.26 Q2120.61 157.482 2120.61 152.135 M2131.33 135.816 L2131.33 135.816 Z" fill="#000000" fill-rule="evenodd" fill-opacity="1" /><path clip-path="url(#clip320)" d="M2155.22 158.478 L2155.22 172.227 L2150.94 172.227 L2150.94 136.441 L2155.22 136.441 L2155.22 140.376 Q2156.56 138.061 2158.6 136.95 Q2160.66 135.816 2163.5 135.816 Q2168.23 135.816 2171.17 139.566 Q2174.13 143.316 2174.13 149.427 Q2174.13 155.538 2171.17 159.288 Q2168.23 163.038 2163.5 163.038 Q2160.66 163.038 2158.6 161.927 Q2156.56 160.792 2155.22 158.478 M2169.71 149.427 Q2169.71 144.728 2167.76 142.066 Q2165.84 139.38 2162.46 139.38 Q2159.08 139.38 2157.14 142.066 Q2155.22 144.728 2155.22 149.427 Q2155.22 154.126 2157.14 156.811 Q2159.08 159.473 2162.46 159.473 Q2165.84 159.473 2167.76 156.811 Q2169.71 154.126 2169.71 149.427 Z" fill="#000000" fill-rule="evenodd" fill-opacity="1" /><path clip-path="url(#clip320)" d="M2191.24 139.427 Q2187.81 139.427 2185.82 142.112 Q2183.83 144.774 2183.83 149.427 Q2183.83 154.079 2185.8 156.765 Q2187.79 159.427 2191.24 159.427 Q2194.64 159.427 2196.63 156.741 Q2198.62 154.056 2198.62 149.427 Q2198.62 144.82 2196.63 142.135 Q2194.64 139.427 2191.24 139.427 M2191.24 135.816 Q2196.79 135.816 2199.96 139.427 Q2203.13 143.038 2203.13 149.427 Q2203.13 155.792 2199.96 159.427 Q2196.79 163.038 2191.24 163.038 Q2185.66 163.038 2182.49 159.427 Q2179.34 155.792 2179.34 149.427 Q2179.34 143.038 2182.49 139.427 Q2185.66 135.816 2191.24 135.816 Z" fill="#000000" fill-rule="evenodd" fill-opacity="1" /><path clip-path="url(#clip320)" d="M2210.19 126.348 L2214.45 126.348 L2214.45 162.366 L2210.19 162.366 L2210.19 126.348 Z" fill="#000000" fill-rule="evenodd" fill-opacity="1" /><path clip-path="url(#clip320)" d="M2245.54 148.339 L2245.54 150.422 L2225.96 150.422 Q2226.24 154.82 2228.6 157.135 Q2230.98 159.427 2235.22 159.427 Q2237.67 159.427 2239.96 158.825 Q2242.28 158.223 2244.55 157.019 L2244.55 161.047 Q2242.25 162.019 2239.85 162.528 Q2237.44 163.038 2234.96 163.038 Q2228.76 163.038 2225.12 159.427 Q2221.51 155.816 2221.51 149.658 Q2221.51 143.292 2224.94 139.566 Q2228.39 135.816 2234.22 135.816 Q2239.45 135.816 2242.49 139.195 Q2245.54 142.552 2245.54 148.339 M2241.28 147.089 Q2241.24 143.593 2239.31 141.51 Q2237.42 139.427 2234.27 139.427 Q2230.7 139.427 2228.55 141.441 Q2226.42 143.455 2226.1 147.112 L2241.28 147.089 Z" fill="#000000" fill-rule="evenodd" fill-opacity="1" /><circle clip-path="url(#clip320)" cx="1887.48" cy="196.926" r="23" fill="#e26f46" fill-rule="evenodd" fill-opacity="1" stroke="#000000" stroke-opacity="1" stroke-width="5.12"/>
<path clip-path="url(#clip320)" d="M1989.27 182.818 Q1984.18 182.818 1981.17 186.614 Q1978.18 190.41 1978.18 196.961 Q1978.18 203.489 1981.17 207.285 Q1984.18 211.081 1989.27 211.081 Q1994.36 211.081 1997.32 207.285 Q2000.31 203.489 2000.31 196.961 Q2000.31 190.41 1997.32 186.614 Q1994.36 182.818 1989.27 182.818 M1989.27 179.021 Q1996.54 179.021 2000.89 183.906 Q2005.24 188.767 2005.24 196.961 Q2005.24 205.132 2000.89 210.017 Q1996.54 214.878 1989.27 214.878 Q1981.98 214.878 1977.6 210.017 Q1973.25 205.156 1973.25 196.961 Q1973.25 188.767 1977.6 183.906 Q1981.98 179.021 1989.27 179.021 Z" fill="#000000" fill-rule="evenodd" fill-opacity="1" /><path clip-path="url(#clip320)" d="M2031.03 189.276 L2031.03 193.257 Q2029.22 192.262 2027.39 191.776 Q2025.59 191.267 2023.74 191.267 Q2019.59 191.267 2017.3 193.906 Q2015.01 196.521 2015.01 201.267 Q2015.01 206.012 2017.3 208.651 Q2019.59 211.267 2023.74 211.267 Q2025.59 211.267 2027.39 210.781 Q2029.22 210.271 2031.03 209.276 L2031.03 213.211 Q2029.25 214.044 2027.32 214.461 Q2025.43 214.878 2023.27 214.878 Q2017.42 214.878 2013.97 211.197 Q2010.52 207.517 2010.52 201.267 Q2010.52 194.924 2013.99 191.29 Q2017.49 187.656 2023.55 187.656 Q2025.52 187.656 2027.39 188.072 Q2029.27 188.466 2031.03 189.276 Z" fill="#000000" fill-rule="evenodd" fill-opacity="1" /><path clip-path="url(#clip320)" d="M2042.65 180.92 L2042.65 188.281 L2051.42 188.281 L2051.42 191.591 L2042.65 191.591 L2042.65 205.665 Q2042.65 208.836 2043.51 209.739 Q2044.38 210.642 2047.05 210.642 L2051.42 210.642 L2051.42 214.206 L2047.05 214.206 Q2042.12 214.206 2040.24 212.378 Q2038.37 210.526 2038.37 205.665 L2038.37 191.591 L2035.24 191.591 L2035.24 188.281 L2038.37 188.281 L2038.37 180.92 L2042.65 180.92 Z" fill="#000000" fill-rule="evenodd" fill-opacity="1" /><path clip-path="url(#clip320)" d="M2056.58 203.975 L2056.58 188.281 L2060.84 188.281 L2060.84 203.813 Q2060.84 207.494 2062.28 209.345 Q2063.71 211.174 2066.58 211.174 Q2070.03 211.174 2072.02 208.975 Q2074.04 206.776 2074.04 202.98 L2074.04 188.281 L2078.3 188.281 L2078.3 214.206 L2074.04 214.206 L2074.04 210.225 Q2072.49 212.586 2070.43 213.743 Q2068.39 214.878 2065.68 214.878 Q2061.21 214.878 2058.9 212.1 Q2056.58 209.322 2056.58 203.975 M2067.3 187.656 L2067.3 187.656 Z" fill="#000000" fill-rule="evenodd" fill-opacity="1" /><path clip-path="url(#clip320)" d="M2091.19 210.318 L2091.19 224.067 L2086.91 224.067 L2086.91 188.281 L2091.19 188.281 L2091.19 192.216 Q2092.53 189.901 2094.57 188.79 Q2096.63 187.656 2099.48 187.656 Q2104.2 187.656 2107.14 191.406 Q2110.1 195.156 2110.1 201.267 Q2110.1 207.378 2107.14 211.128 Q2104.2 214.878 2099.48 214.878 Q2096.63 214.878 2094.57 213.767 Q2092.53 212.632 2091.19 210.318 M2105.68 201.267 Q2105.68 196.568 2103.74 193.906 Q2101.82 191.22 2098.44 191.22 Q2095.06 191.22 2093.11 193.906 Q2091.19 196.568 2091.19 201.267 Q2091.19 205.966 2093.11 208.651 Q2095.06 211.313 2098.44 211.313 Q2101.82 211.313 2103.74 208.651 Q2105.68 205.966 2105.68 201.267 Z" fill="#000000" fill-rule="evenodd" fill-opacity="1" /><path clip-path="url(#clip320)" d="M2127.21 191.267 Q2123.78 191.267 2121.79 193.952 Q2119.8 196.614 2119.8 201.267 Q2119.8 205.919 2121.77 208.605 Q2123.76 211.267 2127.21 211.267 Q2130.61 211.267 2132.6 208.581 Q2134.59 205.896 2134.59 201.267 Q2134.59 196.66 2132.6 193.975 Q2130.61 191.267 2127.21 191.267 M2127.21 187.656 Q2132.76 187.656 2135.94 191.267 Q2139.11 194.878 2139.11 201.267 Q2139.11 207.632 2135.94 211.267 Q2132.76 214.878 2127.21 214.878 Q2121.63 214.878 2118.46 211.267 Q2115.31 207.632 2115.31 201.267 Q2115.31 194.878 2118.46 191.267 Q2121.63 187.656 2127.21 187.656 Z" fill="#000000" fill-rule="evenodd" fill-opacity="1" /><path clip-path="url(#clip320)" d="M2146.17 178.188 L2150.43 178.188 L2150.43 214.206 L2146.17 214.206 L2146.17 178.188 Z" fill="#000000" fill-rule="evenodd" fill-opacity="1" /><path clip-path="url(#clip320)" d="M2181.51 200.179 L2181.51 202.262 L2161.93 202.262 Q2162.21 206.66 2164.57 208.975 Q2166.95 211.267 2171.19 211.267 Q2173.64 211.267 2175.94 210.665 Q2178.25 210.063 2180.52 208.859 L2180.52 212.887 Q2178.23 213.859 2175.82 214.368 Q2173.41 214.878 2170.94 214.878 Q2164.73 214.878 2161.1 211.267 Q2157.49 207.656 2157.49 201.498 Q2157.49 195.132 2160.91 191.406 Q2164.36 187.656 2170.19 187.656 Q2175.43 187.656 2178.46 191.035 Q2181.51 194.392 2181.51 200.179 M2177.25 198.929 Q2177.21 195.433 2175.29 193.35 Q2173.39 191.267 2170.24 191.267 Q2166.68 191.267 2164.52 193.281 Q2162.39 195.295 2162.07 198.952 L2177.25 198.929 Z" fill="#000000" fill-rule="evenodd" fill-opacity="1" /></svg>
