<?xml version="1.0" encoding="utf-8"?>
<svg xmlns="http://www.w3.org/2000/svg" xmlns:xlink="http://www.w3.org/1999/xlink" width="600" height="400" viewBox="0 0 2400 1600">
<defs>
  <clipPath id="clip710">
    <rect x="0" y="0" width="2400" height="1600"/>
  </clipPath>
</defs>
<path clip-path="url(#clip710)" d="
M0 1600 L2400 1600 L2400 0 L0 0  Z
  " fill="#ffffff" fill-rule="evenodd" fill-opacity="1"/>
<defs>
  <clipPath id="clip711">
    <rect x="480" y="0" width="1681" height="1600"/>
  </clipPath>
</defs>
<defs>
  <clipPath id="clip712">
    <rect x="422" y="47" width="1931" height="1381"/>
  </clipPath>
</defs>
<path clip-path="url(#clip710)" d="
M451.318 1427.31 L2352.76 1427.31 L2352.76 47.2441 L451.318 47.2441  Z
  " fill="#ffffff" fill-rule="evenodd" fill-opacity="1"/>
<defs>
  <clipPath id="clip713">
    <rect x="451" y="47" width="1902" height="1381"/>
  </clipPath>
</defs>
<polyline clip-path="url(#clip713)" style="stroke:#000000; stroke-linecap:butt; stroke-linejoin:round; stroke-width:2; stroke-opacity:0.1; fill:none" points="
  555.9,1427.31 555.9,47.2441 
  "/>
<polyline clip-path="url(#clip713)" style="stroke:#000000; stroke-linecap:butt; stroke-linejoin:round; stroke-width:2; stroke-opacity:0.1; fill:none" points="
  817.053,1427.31 817.053,47.2441 
  "/>
<polyline clip-path="url(#clip713)" style="stroke:#000000; stroke-linecap:butt; stroke-linejoin:round; stroke-width:2; stroke-opacity:0.1; fill:none" points="
  1078.21,1427.31 1078.21,47.2441 
  "/>
<polyline clip-path="url(#clip713)" style="stroke:#000000; stroke-linecap:butt; stroke-linejoin:round; stroke-width:2; stroke-opacity:0.1; fill:none" points="
  1339.36,1427.31 1339.36,47.2441 
  "/>
<polyline clip-path="url(#clip713)" style="stroke:#000000; stroke-linecap:butt; stroke-linejoin:round; stroke-width:2; stroke-opacity:0.1; fill:none" points="
  1600.51,1427.31 1600.51,47.2441 
  "/>
<polyline clip-path="url(#clip713)" style="stroke:#000000; stroke-linecap:butt; stroke-linejoin:round; stroke-width:2; stroke-opacity:0.1; fill:none" points="
  1861.67,1427.31 1861.67,47.2441 
  "/>
<polyline clip-path="url(#clip713)" style="stroke:#000000; stroke-linecap:butt; stroke-linejoin:round; stroke-width:2; stroke-opacity:0.1; fill:none" points="
  2122.82,1427.31 2122.82,47.2441 
  "/>
<polyline clip-path="url(#clip710)" style="stroke:#000000; stroke-linecap:butt; stroke-linejoin:round; stroke-width:4; stroke-opacity:1; fill:none" points="
  451.318,1427.31 2352.76,1427.31 
  "/>
<polyline clip-path="url(#clip710)" style="stroke:#000000; stroke-linecap:butt; stroke-linejoin:round; stroke-width:4; stroke-opacity:1; fill:none" points="
  555.9,1427.31 555.9,1408.42 
  "/>
<polyline clip-path="url(#clip710)" style="stroke:#000000; stroke-linecap:butt; stroke-linejoin:round; stroke-width:4; stroke-opacity:1; fill:none" points="
  817.053,1427.31 817.053,1408.42 
  "/>
<polyline clip-path="url(#clip710)" style="stroke:#000000; stroke-linecap:butt; stroke-linejoin:round; stroke-width:4; stroke-opacity:1; fill:none" points="
  1078.21,1427.31 1078.21,1408.42 
  "/>
<polyline clip-path="url(#clip710)" style="stroke:#000000; stroke-linecap:butt; stroke-linejoin:round; stroke-width:4; stroke-opacity:1; fill:none" points="
  1339.36,1427.31 1339.36,1408.42 
  "/>
<polyline clip-path="url(#clip710)" style="stroke:#000000; stroke-linecap:butt; stroke-linejoin:round; stroke-width:4; stroke-opacity:1; fill:none" points="
  1600.51,1427.31 1600.51,1408.42 
  "/>
<polyline clip-path="url(#clip710)" style="stroke:#000000; stroke-linecap:butt; stroke-linejoin:round; stroke-width:4; stroke-opacity:1; fill:none" points="
  1861.67,1427.31 1861.67,1408.42 
  "/>
<polyline clip-path="url(#clip710)" style="stroke:#000000; stroke-linecap:butt; stroke-linejoin:round; stroke-width:4; stroke-opacity:1; fill:none" points="
  2122.82,1427.31 2122.82,1408.42 
  "/>
<path clip-path="url(#clip710)" d="M508.47 1484.05 L516.109 1484.05 L516.109 1457.69 L507.798 1459.35 L507.798 1455.09 L516.062 1453.43 L520.738 1453.43 L520.738 1484.05 L528.377 1484.05 L528.377 1487.99 L508.47 1487.99 L508.47 1484.05 Z" fill="#000000" fill-rule="evenodd" fill-opacity="1" /><path clip-path="url(#clip710)" d="M541.849 1484.05 L558.169 1484.05 L558.169 1487.99 L536.224 1487.99 L536.224 1484.05 Q538.886 1481.3 543.47 1476.67 Q548.076 1472.01 549.257 1470.67 Q551.502 1468.15 552.382 1466.41 Q553.284 1464.65 553.284 1462.96 Q553.284 1460.21 551.34 1458.47 Q549.419 1456.74 546.317 1456.74 Q544.118 1456.74 541.664 1457.5 Q539.233 1458.26 536.456 1459.82 L536.456 1455.09 Q539.28 1453.96 541.733 1453.38 Q544.187 1452.8 546.224 1452.8 Q551.595 1452.8 554.789 1455.49 Q557.983 1458.17 557.983 1462.66 Q557.983 1464.79 557.173 1466.71 Q556.386 1468.61 554.28 1471.2 Q553.701 1471.88 550.599 1475.09 Q547.497 1478.29 541.849 1484.05 Z" fill="#000000" fill-rule="evenodd" fill-opacity="1" /><path clip-path="url(#clip710)" d="M567.983 1482.11 L572.868 1482.11 L572.868 1487.99 L567.983 1487.99 L567.983 1482.11 Z" fill="#000000" fill-rule="evenodd" fill-opacity="1" /><path clip-path="url(#clip710)" d="M583.099 1453.43 L601.455 1453.43 L601.455 1457.36 L587.381 1457.36 L587.381 1465.83 Q588.4 1465.49 589.418 1465.32 Q590.437 1465.14 591.455 1465.14 Q597.242 1465.14 600.622 1468.31 Q604.002 1471.48 604.002 1476.9 Q604.002 1482.48 600.529 1485.58 Q597.057 1488.66 590.738 1488.66 Q588.562 1488.66 586.293 1488.29 Q584.048 1487.92 581.641 1487.18 L581.641 1482.48 Q583.724 1483.61 585.946 1484.17 Q588.168 1484.72 590.645 1484.72 Q594.65 1484.72 596.988 1482.62 Q599.326 1480.51 599.326 1476.9 Q599.326 1473.29 596.988 1471.18 Q594.65 1469.07 590.645 1469.07 Q588.77 1469.07 586.895 1469.49 Q585.043 1469.91 583.099 1470.79 L583.099 1453.43 Z" fill="#000000" fill-rule="evenodd" fill-opacity="1" /><path clip-path="url(#clip710)" d="M769.125 1484.05 L776.764 1484.05 L776.764 1457.69 L768.454 1459.35 L768.454 1455.09 L776.718 1453.43 L781.394 1453.43 L781.394 1484.05 L789.033 1484.05 L789.033 1487.99 L769.125 1487.99 L769.125 1484.05 Z" fill="#000000" fill-rule="evenodd" fill-opacity="1" /><path clip-path="url(#clip710)" d="M798.523 1453.43 L816.88 1453.43 L816.88 1457.36 L802.806 1457.36 L802.806 1465.83 Q803.824 1465.49 804.843 1465.32 Q805.861 1465.14 806.88 1465.14 Q812.667 1465.14 816.046 1468.31 Q819.426 1471.48 819.426 1476.9 Q819.426 1482.48 815.954 1485.58 Q812.482 1488.66 806.162 1488.66 Q803.986 1488.66 801.718 1488.29 Q799.472 1487.92 797.065 1487.18 L797.065 1482.48 Q799.148 1483.61 801.371 1484.17 Q803.593 1484.72 806.07 1484.72 Q810.074 1484.72 812.412 1482.62 Q814.75 1480.51 814.75 1476.9 Q814.75 1473.29 812.412 1471.18 Q810.074 1469.07 806.07 1469.07 Q804.195 1469.07 802.32 1469.49 Q800.468 1469.91 798.523 1470.79 L798.523 1453.43 Z" fill="#000000" fill-rule="evenodd" fill-opacity="1" /><path clip-path="url(#clip710)" d="M828.639 1482.11 L833.523 1482.11 L833.523 1487.99 L828.639 1487.99 L828.639 1482.11 Z" fill="#000000" fill-rule="evenodd" fill-opacity="1" /><path clip-path="url(#clip710)" d="M853.708 1456.51 Q850.097 1456.51 848.268 1460.07 Q846.463 1463.61 846.463 1470.74 Q846.463 1477.85 848.268 1481.41 Q850.097 1484.95 853.708 1484.95 Q857.342 1484.95 859.148 1481.41 Q860.977 1477.85 860.977 1470.74 Q860.977 1463.61 859.148 1460.07 Q857.342 1456.51 853.708 1456.51 M853.708 1452.8 Q859.518 1452.8 862.574 1457.41 Q865.653 1461.99 865.653 1470.74 Q865.653 1479.47 862.574 1484.07 Q859.518 1488.66 853.708 1488.66 Q847.898 1488.66 844.819 1484.07 Q841.764 1479.47 841.764 1470.74 Q841.764 1461.99 844.819 1457.41 Q847.898 1452.8 853.708 1452.8 Z" fill="#000000" fill-rule="evenodd" fill-opacity="1" /><path clip-path="url(#clip710)" d="M1030.78 1484.05 L1038.42 1484.05 L1038.42 1457.69 L1030.11 1459.35 L1030.11 1455.09 L1038.37 1453.43 L1043.04 1453.43 L1043.04 1484.05 L1050.68 1484.05 L1050.68 1487.99 L1030.78 1487.99 L1030.78 1484.05 Z" fill="#000000" fill-rule="evenodd" fill-opacity="1" /><path clip-path="url(#clip710)" d="M1058.95 1453.43 L1081.17 1453.43 L1081.17 1455.42 L1068.62 1487.99 L1063.74 1487.99 L1075.54 1457.36 L1058.95 1457.36 L1058.95 1453.43 Z" fill="#000000" fill-rule="evenodd" fill-opacity="1" /><path clip-path="url(#clip710)" d="M1090.29 1482.11 L1095.17 1482.11 L1095.17 1487.99 L1090.29 1487.99 L1090.29 1482.11 Z" fill="#000000" fill-rule="evenodd" fill-opacity="1" /><path clip-path="url(#clip710)" d="M1105.41 1453.43 L1123.76 1453.43 L1123.76 1457.36 L1109.69 1457.36 L1109.69 1465.83 Q1110.71 1465.49 1111.72 1465.32 Q1112.74 1465.14 1113.76 1465.14 Q1119.55 1465.14 1122.93 1468.31 Q1126.31 1471.48 1126.31 1476.9 Q1126.31 1482.48 1122.84 1485.58 Q1119.36 1488.66 1113.04 1488.66 Q1110.87 1488.66 1108.6 1488.29 Q1106.35 1487.92 1103.95 1487.18 L1103.95 1482.48 Q1106.03 1483.61 1108.25 1484.17 Q1110.47 1484.72 1112.95 1484.72 Q1116.96 1484.72 1119.29 1482.62 Q1121.63 1480.51 1121.63 1476.9 Q1121.63 1473.29 1119.29 1471.18 Q1116.96 1469.07 1112.95 1469.07 Q1111.08 1469.07 1109.2 1469.49 Q1107.35 1469.91 1105.41 1470.79 L1105.41 1453.43 Z" fill="#000000" fill-rule="evenodd" fill-opacity="1" /><path clip-path="url(#clip710)" d="M1295.52 1484.05 L1311.84 1484.05 L1311.84 1487.99 L1289.89 1487.99 L1289.89 1484.05 Q1292.55 1481.3 1297.14 1476.67 Q1301.74 1472.01 1302.92 1470.67 Q1305.17 1468.15 1306.05 1466.41 Q1306.95 1464.65 1306.95 1462.96 Q1306.95 1460.21 1305.01 1458.47 Q1303.09 1456.74 1299.99 1456.74 Q1297.79 1456.74 1295.33 1457.5 Q1292.9 1458.26 1290.12 1459.82 L1290.12 1455.09 Q1292.95 1453.96 1295.4 1453.38 Q1297.86 1452.8 1299.89 1452.8 Q1305.26 1452.8 1308.46 1455.49 Q1311.65 1458.17 1311.65 1462.66 Q1311.65 1464.79 1310.84 1466.71 Q1310.05 1468.61 1307.95 1471.2 Q1307.37 1471.88 1304.27 1475.09 Q1301.17 1478.29 1295.52 1484.05 Z" fill="#000000" fill-rule="evenodd" fill-opacity="1" /><path clip-path="url(#clip710)" d="M1331.65 1456.51 Q1328.04 1456.51 1326.21 1460.07 Q1324.41 1463.61 1324.41 1470.74 Q1324.41 1477.85 1326.21 1481.41 Q1328.04 1484.95 1331.65 1484.95 Q1335.29 1484.95 1337.09 1481.41 Q1338.92 1477.85 1338.92 1470.74 Q1338.92 1463.61 1337.09 1460.07 Q1335.29 1456.51 1331.65 1456.51 M1331.65 1452.8 Q1337.46 1452.8 1340.52 1457.41 Q1343.6 1461.99 1343.6 1470.74 Q1343.6 1479.47 1340.52 1484.07 Q1337.46 1488.66 1331.65 1488.66 Q1325.84 1488.66 1322.76 1484.07 Q1319.71 1479.47 1319.71 1470.74 Q1319.71 1461.99 1322.76 1457.41 Q1325.84 1452.8 1331.65 1452.8 Z" fill="#000000" fill-rule="evenodd" fill-opacity="1" /><path clip-path="url(#clip710)" d="M1351.81 1482.11 L1356.7 1482.11 L1356.7 1487.99 L1351.81 1487.99 L1351.81 1482.11 Z" fill="#000000" fill-rule="evenodd" fill-opacity="1" /><path clip-path="url(#clip710)" d="M1376.88 1456.51 Q1373.27 1456.51 1371.44 1460.07 Q1369.64 1463.61 1369.64 1470.74 Q1369.64 1477.85 1371.44 1481.41 Q1373.27 1484.95 1376.88 1484.95 Q1380.52 1484.95 1382.32 1481.41 Q1384.15 1477.85 1384.15 1470.74 Q1384.15 1463.61 1382.32 1460.07 Q1380.52 1456.51 1376.88 1456.51 M1376.88 1452.8 Q1382.69 1452.8 1385.75 1457.41 Q1388.83 1461.99 1388.83 1470.74 Q1388.83 1479.47 1385.75 1484.07 Q1382.69 1488.66 1376.88 1488.66 Q1371.07 1488.66 1367.99 1484.07 Q1364.94 1479.47 1364.94 1470.74 Q1364.94 1461.99 1367.99 1457.41 Q1371.07 1452.8 1376.88 1452.8 Z" fill="#000000" fill-rule="evenodd" fill-opacity="1" /><path clip-path="url(#clip710)" d="M1557.17 1484.05 L1573.49 1484.05 L1573.49 1487.99 L1551.54 1487.99 L1551.54 1484.05 Q1554.21 1481.3 1558.79 1476.67 Q1563.4 1472.01 1564.58 1470.67 Q1566.82 1468.15 1567.7 1466.41 Q1568.6 1464.65 1568.6 1462.96 Q1568.6 1460.21 1566.66 1458.47 Q1564.74 1456.74 1561.64 1456.74 Q1559.44 1456.74 1556.98 1457.5 Q1554.55 1458.26 1551.78 1459.82 L1551.78 1455.09 Q1554.6 1453.96 1557.05 1453.38 Q1559.51 1452.8 1561.54 1452.8 Q1566.91 1452.8 1570.11 1455.49 Q1573.3 1458.17 1573.3 1462.66 Q1573.3 1464.79 1572.49 1466.71 Q1571.71 1468.61 1569.6 1471.2 Q1569.02 1471.88 1565.92 1475.09 Q1562.82 1478.29 1557.17 1484.05 Z" fill="#000000" fill-rule="evenodd" fill-opacity="1" /><path clip-path="url(#clip710)" d="M1587.33 1484.05 L1603.65 1484.05 L1603.65 1487.99 L1581.71 1487.99 L1581.71 1484.05 Q1584.37 1481.3 1588.95 1476.67 Q1593.56 1472.01 1594.74 1470.67 Q1596.98 1468.15 1597.86 1466.41 Q1598.77 1464.65 1598.77 1462.96 Q1598.77 1460.21 1596.82 1458.47 Q1594.9 1456.74 1591.8 1456.74 Q1589.6 1456.74 1587.15 1457.5 Q1584.71 1458.26 1581.94 1459.82 L1581.94 1455.09 Q1584.76 1453.96 1587.21 1453.38 Q1589.67 1452.8 1591.71 1452.8 Q1597.08 1452.8 1600.27 1455.49 Q1603.46 1458.17 1603.46 1462.66 Q1603.46 1464.79 1602.65 1466.71 Q1601.87 1468.61 1599.76 1471.2 Q1599.18 1471.88 1596.08 1475.09 Q1592.98 1478.29 1587.33 1484.05 Z" fill="#000000" fill-rule="evenodd" fill-opacity="1" /><path clip-path="url(#clip710)" d="M1613.46 1482.11 L1618.35 1482.11 L1618.35 1487.99 L1613.46 1487.99 L1613.46 1482.11 Z" fill="#000000" fill-rule="evenodd" fill-opacity="1" /><path clip-path="url(#clip710)" d="M1628.58 1453.43 L1646.94 1453.43 L1646.94 1457.36 L1632.86 1457.36 L1632.86 1465.83 Q1633.88 1465.49 1634.9 1465.32 Q1635.92 1465.14 1636.94 1465.14 Q1642.72 1465.14 1646.1 1468.31 Q1649.48 1471.48 1649.48 1476.9 Q1649.48 1482.48 1646.01 1485.58 Q1642.54 1488.66 1636.22 1488.66 Q1634.04 1488.66 1631.77 1488.29 Q1629.53 1487.92 1627.12 1487.18 L1627.12 1482.48 Q1629.21 1483.61 1631.43 1484.17 Q1633.65 1484.72 1636.13 1484.72 Q1640.13 1484.72 1642.47 1482.62 Q1644.81 1480.51 1644.81 1476.9 Q1644.81 1473.29 1642.47 1471.18 Q1640.13 1469.07 1636.13 1469.07 Q1634.25 1469.07 1632.38 1469.49 Q1630.52 1469.91 1628.58 1470.79 L1628.58 1453.43 Z" fill="#000000" fill-rule="evenodd" fill-opacity="1" /><path clip-path="url(#clip710)" d="M1817.82 1484.05 L1834.14 1484.05 L1834.14 1487.99 L1812.2 1487.99 L1812.2 1484.05 Q1814.86 1481.3 1819.44 1476.67 Q1824.05 1472.01 1825.23 1470.67 Q1827.48 1468.15 1828.36 1466.41 Q1829.26 1464.65 1829.26 1462.96 Q1829.26 1460.21 1827.31 1458.47 Q1825.39 1456.74 1822.29 1456.74 Q1820.09 1456.74 1817.64 1457.5 Q1815.21 1458.26 1812.43 1459.82 L1812.43 1455.09 Q1815.25 1453.96 1817.71 1453.38 Q1820.16 1452.8 1822.2 1452.8 Q1827.57 1452.8 1830.76 1455.49 Q1833.96 1458.17 1833.96 1462.66 Q1833.96 1464.79 1833.15 1466.71 Q1832.36 1468.61 1830.25 1471.2 Q1829.68 1471.88 1826.57 1475.09 Q1823.47 1478.29 1817.82 1484.05 Z" fill="#000000" fill-rule="evenodd" fill-opacity="1" /><path clip-path="url(#clip710)" d="M1844 1453.43 L1862.36 1453.43 L1862.36 1457.36 L1848.29 1457.36 L1848.29 1465.83 Q1849.31 1465.49 1850.32 1465.32 Q1851.34 1465.14 1852.36 1465.14 Q1858.15 1465.14 1861.53 1468.31 Q1864.91 1471.48 1864.91 1476.9 Q1864.91 1482.48 1861.44 1485.58 Q1857.96 1488.66 1851.64 1488.66 Q1849.47 1488.66 1847.2 1488.29 Q1844.95 1487.92 1842.55 1487.18 L1842.55 1482.48 Q1844.63 1483.61 1846.85 1484.17 Q1849.07 1484.72 1851.55 1484.72 Q1855.56 1484.72 1857.89 1482.62 Q1860.23 1480.51 1860.23 1476.9 Q1860.23 1473.29 1857.89 1471.18 Q1855.56 1469.07 1851.55 1469.07 Q1849.68 1469.07 1847.8 1469.49 Q1845.95 1469.91 1844 1470.79 L1844 1453.43 Z" fill="#000000" fill-rule="evenodd" fill-opacity="1" /><path clip-path="url(#clip710)" d="M1874.12 1482.11 L1879 1482.11 L1879 1487.99 L1874.12 1487.99 L1874.12 1482.11 Z" fill="#000000" fill-rule="evenodd" fill-opacity="1" /><path clip-path="url(#clip710)" d="M1899.19 1456.51 Q1895.58 1456.51 1893.75 1460.07 Q1891.94 1463.61 1891.94 1470.74 Q1891.94 1477.85 1893.75 1481.41 Q1895.58 1484.95 1899.19 1484.95 Q1902.82 1484.95 1904.63 1481.41 Q1906.46 1477.85 1906.46 1470.74 Q1906.46 1463.61 1904.63 1460.07 Q1902.82 1456.51 1899.19 1456.51 M1899.19 1452.8 Q1905 1452.8 1908.06 1457.41 Q1911.13 1461.99 1911.13 1470.74 Q1911.13 1479.47 1908.06 1484.07 Q1905 1488.66 1899.19 1488.66 Q1893.38 1488.66 1890.3 1484.07 Q1887.25 1479.47 1887.25 1470.74 Q1887.25 1461.99 1890.3 1457.41 Q1893.38 1452.8 1899.19 1452.8 Z" fill="#000000" fill-rule="evenodd" fill-opacity="1" /><path clip-path="url(#clip710)" d="M2079.48 1484.05 L2095.79 1484.05 L2095.79 1487.99 L2073.85 1487.99 L2073.85 1484.05 Q2076.51 1481.3 2081.1 1476.67 Q2085.7 1472.01 2086.88 1470.67 Q2089.13 1468.15 2090.01 1466.41 Q2090.91 1464.65 2090.91 1462.96 Q2090.91 1460.21 2088.97 1458.47 Q2087.04 1456.74 2083.94 1456.74 Q2081.74 1456.74 2079.29 1457.5 Q2076.86 1458.26 2074.08 1459.82 L2074.08 1455.09 Q2076.91 1453.96 2079.36 1453.38 Q2081.81 1452.8 2083.85 1452.8 Q2089.22 1452.8 2092.41 1455.49 Q2095.61 1458.17 2095.61 1462.66 Q2095.61 1464.79 2094.8 1466.71 Q2094.01 1468.61 2091.91 1471.2 Q2091.33 1471.88 2088.23 1475.09 Q2085.12 1478.29 2079.48 1484.05 Z" fill="#000000" fill-rule="evenodd" fill-opacity="1" /><path clip-path="url(#clip710)" d="M2104.43 1453.43 L2126.65 1453.43 L2126.65 1455.42 L2114.1 1487.99 L2109.22 1487.99 L2121.03 1457.36 L2104.43 1457.36 L2104.43 1453.43 Z" fill="#000000" fill-rule="evenodd" fill-opacity="1" /><path clip-path="url(#clip710)" d="M2135.77 1482.11 L2140.66 1482.11 L2140.66 1487.99 L2135.77 1487.99 L2135.77 1482.11 Z" fill="#000000" fill-rule="evenodd" fill-opacity="1" /><path clip-path="url(#clip710)" d="M2150.89 1453.43 L2169.24 1453.43 L2169.24 1457.36 L2155.17 1457.36 L2155.17 1465.83 Q2156.19 1465.49 2157.21 1465.32 Q2158.22 1465.14 2159.24 1465.14 Q2165.03 1465.14 2168.41 1468.31 Q2171.79 1471.48 2171.79 1476.9 Q2171.79 1482.48 2168.32 1485.58 Q2164.85 1488.66 2158.53 1488.66 Q2156.35 1488.66 2154.08 1488.29 Q2151.84 1487.92 2149.43 1487.18 L2149.43 1482.48 Q2151.51 1483.61 2153.73 1484.17 Q2155.96 1484.72 2158.43 1484.72 Q2162.44 1484.72 2164.78 1482.62 Q2167.11 1480.51 2167.11 1476.9 Q2167.11 1473.29 2164.78 1471.18 Q2162.44 1469.07 2158.43 1469.07 Q2156.56 1469.07 2154.68 1469.49 Q2152.83 1469.91 2150.89 1470.79 L2150.89 1453.43 Z" fill="#000000" fill-rule="evenodd" fill-opacity="1" /><path clip-path="url(#clip710)" d="M1363.59 1515.56 Q1363.59 1517.33 1362.47 1518.42 Q1361.37 1519.52 1359.99 1519.52 Q1358.99 1519.52 1358.25 1518.91 Q1357.54 1518.29 1357.54 1517.23 Q1357.54 1516.14 1358.38 1514.98 Q1359.21 1513.82 1361.11 1513.66 Q1359.86 1512.47 1357.86 1512.47 Q1356.86 1512.47 1356.03 1513.11 Q1355.22 1513.72 1354.77 1514.72 Q1354.29 1515.75 1353.19 1521.58 Q1352.84 1523.48 1352.52 1525.32 Q1352.19 1527.15 1351.81 1529.08 L1357.28 1529.08 Q1357.99 1529.08 1358.28 1529.12 Q1358.57 1529.15 1358.8 1529.31 Q1359.05 1529.47 1359.05 1529.82 Q1359.05 1530.73 1358.63 1530.95 Q1358.25 1531.15 1357.09 1531.15 L1351.42 1531.15 L1347.46 1552.05 Q1347.36 1552.66 1346.94 1554.59 Q1346.56 1556.49 1345.62 1559.61 Q1344.69 1562.77 1343.76 1564.64 Q1343.24 1565.7 1342.56 1566.7 Q1341.92 1567.73 1340.99 1568.76 Q1340.05 1569.79 1338.83 1570.4 Q1337.6 1571.05 1336.32 1571.05 Q1334.13 1571.05 1332.42 1569.82 Q1330.71 1568.6 1330.71 1566.51 Q1330.71 1564.74 1331.81 1563.64 Q1332.93 1562.55 1334.32 1562.55 Q1335.32 1562.55 1336.03 1563.16 Q1336.77 1563.77 1336.77 1564.83 Q1336.77 1565.28 1336.61 1565.8 Q1336.44 1566.31 1336.09 1566.89 Q1335.74 1567.51 1334.96 1567.92 Q1334.19 1568.34 1333.13 1568.41 Q1334.38 1569.6 1336.32 1569.6 Q1336.93 1569.6 1337.47 1569.34 Q1338.02 1569.12 1338.47 1568.54 Q1338.96 1567.96 1339.31 1567.38 Q1339.66 1566.83 1340.02 1565.77 Q1340.37 1564.74 1340.6 1563.96 Q1340.82 1563.19 1341.11 1561.8 Q1341.44 1560.42 1341.6 1559.58 Q1341.76 1558.78 1342.05 1557.2 L1346.98 1531.15 L1342.63 1531.15 Q1341.85 1531.15 1341.53 1531.11 Q1341.24 1531.08 1341.02 1530.92 Q1340.79 1530.73 1340.79 1530.34 Q1340.79 1529.73 1341.05 1529.47 Q1341.34 1529.18 1341.66 1529.15 Q1341.98 1529.08 1342.76 1529.08 L1347.33 1529.08 Q1348.88 1520.94 1349.49 1518.75 Q1350.2 1516.43 1351.29 1514.82 Q1352.39 1513.17 1353.61 1512.4 Q1354.83 1511.63 1355.83 1511.34 Q1356.86 1511.02 1357.86 1511.02 Q1360.12 1511.02 1361.85 1512.24 Q1363.59 1513.43 1363.59 1515.56 Z" fill="#000000" fill-rule="evenodd" fill-opacity="1" /><path clip-path="url(#clip710)" d="M1362.71 1573.08 Q1362.71 1572.75 1362.96 1572.05 L1386.25 1509.82 Q1386.25 1509.76 1386.41 1509.41 Q1386.57 1509.05 1386.67 1508.83 Q1386.76 1508.57 1386.96 1508.38 Q1387.18 1508.18 1387.44 1508.18 Q1388.08 1508.18 1388.08 1508.99 Q1388.08 1509.05 1387.89 1509.82 L1364.54 1572.11 Q1364.16 1573.24 1363.9 1573.56 Q1363.67 1573.88 1363.29 1573.88 Q1362.71 1573.88 1362.71 1573.08 Z" fill="#000000" fill-rule="evenodd" fill-opacity="1" /><path clip-path="url(#clip710)" d="M1395.37 1557.52 L1395.37 1555.49 L1396.95 1555.49 Q1400.52 1555.49 1401.33 1554.91 Q1402.17 1554.3 1402.17 1552.37 L1402.17 1517.62 Q1402.17 1515.72 1401.33 1515.14 Q1400.49 1514.53 1396.95 1514.53 L1395.37 1514.53 L1395.37 1512.47 Q1397.69 1512.66 1405.13 1512.66 Q1412.5 1512.66 1414.82 1512.47 L1414.82 1514.53 L1413.24 1514.53 Q1409.67 1514.53 1408.83 1515.14 Q1408.03 1515.72 1408.03 1517.62 L1408.03 1533.05 L1427.74 1533.05 L1427.74 1517.62 Q1427.74 1515.72 1426.9 1515.14 Q1426.09 1514.53 1422.52 1514.53 L1420.94 1514.53 L1420.94 1512.47 Q1423.26 1512.66 1430.7 1512.66 Q1438.07 1512.66 1440.39 1512.47 L1440.39 1514.53 L1438.82 1514.53 Q1435.24 1514.53 1434.4 1515.14 Q1433.6 1515.72 1433.6 1517.62 L1433.6 1552.37 Q1433.6 1554.27 1434.44 1554.88 Q1435.27 1555.49 1438.82 1555.49 L1440.39 1555.49 L1440.39 1557.52 Q1438.07 1557.33 1430.64 1557.33 Q1423.26 1557.33 1420.94 1557.52 L1420.94 1555.49 L1422.52 1555.49 Q1426.09 1555.49 1426.9 1554.91 Q1427.74 1554.3 1427.74 1552.37 L1427.74 1535.11 L1408.03 1535.11 L1408.03 1552.37 Q1408.03 1554.27 1408.83 1554.88 Q1409.67 1555.49 1413.24 1555.49 L1414.82 1555.49 L1414.82 1557.52 Q1412.5 1557.33 1405.06 1557.33 Q1397.69 1557.33 1395.37 1557.52 Z" fill="#000000" fill-rule="evenodd" fill-opacity="1" /><path clip-path="url(#clip710)" d="M1444.37 1556.59 Q1444.37 1556.14 1444.98 1555.4 L1463.37 1530.53 L1455.86 1530.53 Q1450.65 1530.53 1448.94 1532.47 Q1447.26 1534.37 1446.94 1539.71 L1445.3 1539.71 L1446.04 1529.08 L1467.14 1529.08 Q1467.88 1529.08 1468.17 1529.12 Q1468.46 1529.15 1468.65 1529.37 Q1468.84 1529.57 1468.84 1529.95 Q1468.84 1530.34 1468.26 1531.08 L1449.91 1555.88 L1457.7 1555.88 Q1463.17 1555.88 1465.01 1553.59 Q1466.88 1551.31 1467.33 1545.19 L1468.97 1545.19 L1467.84 1557.52 L1446.11 1557.52 Q1445.04 1557.52 1444.69 1557.39 Q1444.37 1557.23 1444.37 1556.59 Z" fill="#000000" fill-rule="evenodd" fill-opacity="1" /><polyline clip-path="url(#clip713)" style="stroke:#000000; stroke-linecap:butt; stroke-linejoin:round; stroke-width:2; stroke-opacity:0.1; fill:none" points="
  451.318,1211.75 2352.76,1211.75 
  "/>
<polyline clip-path="url(#clip713)" style="stroke:#000000; stroke-linecap:butt; stroke-linejoin:round; stroke-width:2; stroke-opacity:0.1; fill:none" points="
  451.318,908.071 2352.76,908.071 
  "/>
<polyline clip-path="url(#clip713)" style="stroke:#000000; stroke-linecap:butt; stroke-linejoin:round; stroke-width:2; stroke-opacity:0.1; fill:none" points="
  451.318,604.387 2352.76,604.387 
  "/>
<polyline clip-path="url(#clip713)" style="stroke:#000000; stroke-linecap:butt; stroke-linejoin:round; stroke-width:2; stroke-opacity:0.1; fill:none" points="
  451.318,300.703 2352.76,300.703 
  "/>
<polyline clip-path="url(#clip710)" style="stroke:#000000; stroke-linecap:butt; stroke-linejoin:round; stroke-width:4; stroke-opacity:1; fill:none" points="
  451.318,1427.31 451.318,47.2441 
  "/>
<polyline clip-path="url(#clip710)" style="stroke:#000000; stroke-linecap:butt; stroke-linejoin:round; stroke-width:4; stroke-opacity:1; fill:none" points="
  451.318,1211.75 470.215,1211.75 
  "/>
<polyline clip-path="url(#clip710)" style="stroke:#000000; stroke-linecap:butt; stroke-linejoin:round; stroke-width:4; stroke-opacity:1; fill:none" points="
  451.318,908.071 470.215,908.071 
  "/>
<polyline clip-path="url(#clip710)" style="stroke:#000000; stroke-linecap:butt; stroke-linejoin:round; stroke-width:4; stroke-opacity:1; fill:none" points="
  451.318,604.387 470.215,604.387 
  "/>
<polyline clip-path="url(#clip710)" style="stroke:#000000; stroke-linecap:butt; stroke-linejoin:round; stroke-width:4; stroke-opacity:1; fill:none" points="
  451.318,300.703 470.215,300.703 
  "/>
<path clip-path="url(#clip710)" d="M114.931 1231.55 L122.57 1231.55 L122.57 1205.18 L114.26 1206.85 L114.26 1202.59 L122.524 1200.92 L127.2 1200.92 L127.2 1231.55 L134.839 1231.55 L134.839 1235.48 L114.931 1235.48 L114.931 1231.55 Z" fill="#000000" fill-rule="evenodd" fill-opacity="1" /><path clip-path="url(#clip710)" d="M144.283 1229.6 L149.167 1229.6 L149.167 1235.48 L144.283 1235.48 L144.283 1229.6 Z" fill="#000000" fill-rule="evenodd" fill-opacity="1" /><path clip-path="url(#clip710)" d="M159.399 1200.92 L177.755 1200.92 L177.755 1204.86 L163.681 1204.86 L163.681 1213.33 Q164.7 1212.98 165.718 1212.82 Q166.737 1212.64 167.755 1212.64 Q173.542 1212.64 176.922 1215.81 Q180.301 1218.98 180.301 1224.39 Q180.301 1229.97 176.829 1233.08 Q173.357 1236.15 167.038 1236.15 Q164.862 1236.15 162.593 1235.78 Q160.348 1235.41 157.94 1234.67 L157.94 1229.97 Q160.024 1231.11 162.246 1231.66 Q164.468 1232.22 166.945 1232.22 Q170.95 1232.22 173.288 1230.11 Q175.626 1228.01 175.626 1224.39 Q175.626 1220.78 173.288 1218.68 Q170.95 1216.57 166.945 1216.57 Q165.07 1216.57 163.195 1216.99 Q161.343 1217.4 159.399 1218.28 L159.399 1200.92 Z" fill="#000000" fill-rule="evenodd" fill-opacity="1" /><path clip-path="url(#clip710)" d="M199.514 1204 Q195.903 1204 194.075 1207.57 Q192.269 1211.11 192.269 1218.24 Q192.269 1225.34 194.075 1228.91 Q195.903 1232.45 199.514 1232.45 Q203.149 1232.45 204.954 1228.91 Q206.783 1225.34 206.783 1218.24 Q206.783 1211.11 204.954 1207.57 Q203.149 1204 199.514 1204 M199.514 1200.3 Q205.324 1200.3 208.38 1204.9 Q211.459 1209.49 211.459 1218.24 Q211.459 1226.96 208.38 1231.57 Q205.324 1236.15 199.514 1236.15 Q193.704 1236.15 190.625 1231.57 Q187.57 1226.96 187.57 1218.24 Q187.57 1209.49 190.625 1204.9 Q193.704 1200.3 199.514 1200.3 Z" fill="#000000" fill-rule="evenodd" fill-opacity="1" /><path clip-path="url(#clip710)" d="M229.676 1204 Q226.065 1204 224.236 1207.57 Q222.431 1211.11 222.431 1218.24 Q222.431 1225.34 224.236 1228.91 Q226.065 1232.45 229.676 1232.45 Q233.31 1232.45 235.116 1228.91 Q236.945 1225.34 236.945 1218.24 Q236.945 1211.11 235.116 1207.57 Q233.31 1204 229.676 1204 M229.676 1200.3 Q235.486 1200.3 238.542 1204.9 Q241.621 1209.49 241.621 1218.24 Q241.621 1226.96 238.542 1231.57 Q235.486 1236.15 229.676 1236.15 Q223.866 1236.15 220.787 1231.57 Q217.732 1226.96 217.732 1218.24 Q217.732 1209.49 220.787 1204.9 Q223.866 1200.3 229.676 1200.3 Z" fill="#000000" fill-rule="evenodd" fill-opacity="1" /><path clip-path="url(#clip710)" d="M278.009 1210.02 L267.431 1220.64 L278.009 1231.22 L275.255 1234.02 L264.63 1223.4 L254.005 1234.02 L251.273 1231.22 L261.829 1220.64 L251.273 1210.02 L254.005 1207.22 L264.63 1217.84 L275.255 1207.22 L278.009 1210.02 Z" fill="#000000" fill-rule="evenodd" fill-opacity="1" /><path clip-path="url(#clip710)" d="M290.37 1231.55 L298.009 1231.55 L298.009 1205.18 L289.699 1206.85 L289.699 1202.59 L297.963 1200.92 L302.639 1200.92 L302.639 1231.55 L310.278 1231.55 L310.278 1235.48 L290.37 1235.48 L290.37 1231.55 Z" fill="#000000" fill-rule="evenodd" fill-opacity="1" /><path clip-path="url(#clip710)" d="M329.722 1204 Q326.111 1204 324.282 1207.57 Q322.477 1211.11 322.477 1218.24 Q322.477 1225.34 324.282 1228.91 Q326.111 1232.45 329.722 1232.45 Q333.356 1232.45 335.162 1228.91 Q336.99 1225.34 336.99 1218.24 Q336.99 1211.11 335.162 1207.57 Q333.356 1204 329.722 1204 M329.722 1200.3 Q335.532 1200.3 338.588 1204.9 Q341.666 1209.49 341.666 1218.24 Q341.666 1226.96 338.588 1231.57 Q335.532 1236.15 329.722 1236.15 Q323.912 1236.15 320.833 1231.57 Q317.778 1226.96 317.778 1218.24 Q317.778 1209.49 320.833 1204.9 Q323.912 1200.3 329.722 1200.3 Z" fill="#000000" fill-rule="evenodd" fill-opacity="1" /><path clip-path="url(#clip710)" d="M341.666 1194.4 L365.778 1194.4 L365.778 1197.6 L341.666 1197.6 L341.666 1194.4 Z" fill="#000000" fill-rule="evenodd" fill-opacity="1" /><path clip-path="url(#clip710)" d="M374.636 1204.87 L380.843 1204.87 L380.843 1183.45 L374.091 1184.81 L374.091 1181.35 L380.805 1179.99 L384.604 1179.99 L384.604 1204.87 L390.811 1204.87 L390.811 1208.07 L374.636 1208.07 L374.636 1204.87 Z" fill="#000000" fill-rule="evenodd" fill-opacity="1" /><path clip-path="url(#clip710)" d="M399.143 1204.87 L405.349 1204.87 L405.349 1183.45 L398.597 1184.81 L398.597 1181.35 L405.312 1179.99 L409.111 1179.99 L409.111 1204.87 L415.318 1204.87 L415.318 1208.07 L399.143 1208.07 L399.143 1204.87 Z" fill="#000000" fill-rule="evenodd" fill-opacity="1" /><path clip-path="url(#clip710)" d="M114.931 927.863 L122.57 927.863 L122.57 901.498 L114.26 903.165 L114.26 898.905 L122.524 897.239 L127.2 897.239 L127.2 927.863 L134.839 927.863 L134.839 931.799 L114.931 931.799 L114.931 927.863 Z" fill="#000000" fill-rule="evenodd" fill-opacity="1" /><path clip-path="url(#clip710)" d="M144.283 925.919 L149.167 925.919 L149.167 931.799 L144.283 931.799 L144.283 925.919 Z" fill="#000000" fill-rule="evenodd" fill-opacity="1" /><path clip-path="url(#clip710)" d="M159.399 897.239 L177.755 897.239 L177.755 901.174 L163.681 901.174 L163.681 909.646 Q164.7 909.299 165.718 909.137 Q166.737 908.952 167.755 908.952 Q173.542 908.952 176.922 912.123 Q180.301 915.294 180.301 920.711 Q180.301 926.289 176.829 929.391 Q173.357 932.47 167.038 932.47 Q164.862 932.47 162.593 932.1 Q160.348 931.729 157.94 930.988 L157.94 926.289 Q160.024 927.424 162.246 927.979 Q164.468 928.535 166.945 928.535 Q170.95 928.535 173.288 926.428 Q175.626 924.322 175.626 920.711 Q175.626 917.1 173.288 914.993 Q170.95 912.887 166.945 912.887 Q165.07 912.887 163.195 913.303 Q161.343 913.72 159.399 914.6 L159.399 897.239 Z" fill="#000000" fill-rule="evenodd" fill-opacity="1" /><path clip-path="url(#clip710)" d="M189.561 897.239 L207.917 897.239 L207.917 901.174 L193.843 901.174 L193.843 909.646 Q194.862 909.299 195.88 909.137 Q196.899 908.952 197.917 908.952 Q203.704 908.952 207.084 912.123 Q210.463 915.294 210.463 920.711 Q210.463 926.289 206.991 929.391 Q203.519 932.47 197.2 932.47 Q195.024 932.47 192.755 932.1 Q190.51 931.729 188.102 930.988 L188.102 926.289 Q190.186 927.424 192.408 927.979 Q194.63 928.535 197.107 928.535 Q201.112 928.535 203.449 926.428 Q205.787 924.322 205.787 920.711 Q205.787 917.1 203.449 914.993 Q201.112 912.887 197.107 912.887 Q195.232 912.887 193.357 913.303 Q191.505 913.72 189.561 914.6 L189.561 897.239 Z" fill="#000000" fill-rule="evenodd" fill-opacity="1" /><path clip-path="url(#clip710)" d="M229.676 900.317 Q226.065 900.317 224.236 903.882 Q222.431 907.424 222.431 914.553 Q222.431 921.66 224.236 925.225 Q226.065 928.766 229.676 928.766 Q233.31 928.766 235.116 925.225 Q236.945 921.66 236.945 914.553 Q236.945 907.424 235.116 903.882 Q233.31 900.317 229.676 900.317 M229.676 896.614 Q235.486 896.614 238.542 901.22 Q241.621 905.803 241.621 914.553 Q241.621 923.28 238.542 927.887 Q235.486 932.47 229.676 932.47 Q223.866 932.47 220.787 927.887 Q217.732 923.28 217.732 914.553 Q217.732 905.803 220.787 901.22 Q223.866 896.614 229.676 896.614 Z" fill="#000000" fill-rule="evenodd" fill-opacity="1" /><path clip-path="url(#clip710)" d="M278.009 906.336 L267.431 916.961 L278.009 927.539 L275.255 930.34 L264.63 919.715 L254.005 930.34 L251.273 927.539 L261.829 916.961 L251.273 906.336 L254.005 903.535 L264.63 914.16 L275.255 903.535 L278.009 906.336 Z" fill="#000000" fill-rule="evenodd" fill-opacity="1" /><path clip-path="url(#clip710)" d="M290.37 927.863 L298.009 927.863 L298.009 901.498 L289.699 903.165 L289.699 898.905 L297.963 897.239 L302.639 897.239 L302.639 927.863 L310.278 927.863 L310.278 931.799 L290.37 931.799 L290.37 927.863 Z" fill="#000000" fill-rule="evenodd" fill-opacity="1" /><path clip-path="url(#clip710)" d="M329.722 900.317 Q326.111 900.317 324.282 903.882 Q322.477 907.424 322.477 914.553 Q322.477 921.66 324.282 925.225 Q326.111 928.766 329.722 928.766 Q333.356 928.766 335.162 925.225 Q336.99 921.66 336.99 914.553 Q336.99 907.424 335.162 903.882 Q333.356 900.317 329.722 900.317 M329.722 896.614 Q335.532 896.614 338.588 901.22 Q341.666 905.803 341.666 914.553 Q341.666 923.28 338.588 927.887 Q335.532 932.47 329.722 932.47 Q323.912 932.47 320.833 927.887 Q317.778 923.28 317.778 914.553 Q317.778 905.803 320.833 901.22 Q323.912 896.614 329.722 896.614 Z" fill="#000000" fill-rule="evenodd" fill-opacity="1" /><path clip-path="url(#clip710)" d="M341.666 890.715 L365.778 890.715 L365.778 893.912 L341.666 893.912 L341.666 890.715 Z" fill="#000000" fill-rule="evenodd" fill-opacity="1" /><path clip-path="url(#clip710)" d="M374.636 901.191 L380.843 901.191 L380.843 879.769 L374.091 881.123 L374.091 877.662 L380.805 876.308 L384.604 876.308 L384.604 901.191 L390.811 901.191 L390.811 904.388 L374.636 904.388 L374.636 901.191 Z" fill="#000000" fill-rule="evenodd" fill-opacity="1" /><path clip-path="url(#clip710)" d="M399.143 901.191 L405.349 901.191 L405.349 879.769 L398.597 881.123 L398.597 877.662 L405.312 876.308 L409.111 876.308 L409.111 901.191 L415.318 901.191 L415.318 904.388 L399.143 904.388 L399.143 901.191 Z" fill="#000000" fill-rule="evenodd" fill-opacity="1" /><path clip-path="url(#clip710)" d="M114.931 624.18 L122.57 624.18 L122.57 597.814 L114.26 599.481 L114.26 595.221 L122.524 593.555 L127.2 593.555 L127.2 624.18 L134.839 624.18 L134.839 628.115 L114.931 628.115 L114.931 624.18 Z" fill="#000000" fill-rule="evenodd" fill-opacity="1" /><path clip-path="url(#clip710)" d="M144.283 622.235 L149.167 622.235 L149.167 628.115 L144.283 628.115 L144.283 622.235 Z" fill="#000000" fill-rule="evenodd" fill-opacity="1" /><path clip-path="url(#clip710)" d="M169.931 608.971 Q166.783 608.971 164.931 611.124 Q163.102 613.277 163.102 617.027 Q163.102 620.754 164.931 622.93 Q166.783 625.082 169.931 625.082 Q173.079 625.082 174.908 622.93 Q176.76 620.754 176.76 617.027 Q176.76 613.277 174.908 611.124 Q173.079 608.971 169.931 608.971 M179.214 594.319 L179.214 598.578 Q177.454 597.745 175.649 597.305 Q173.866 596.865 172.107 596.865 Q167.477 596.865 165.024 599.99 Q162.593 603.115 162.246 609.434 Q163.612 607.421 165.672 606.356 Q167.732 605.268 170.209 605.268 Q175.417 605.268 178.426 608.439 Q181.459 611.587 181.459 617.027 Q181.459 622.351 178.311 625.569 Q175.163 628.786 169.931 628.786 Q163.936 628.786 160.765 624.203 Q157.593 619.596 157.593 610.87 Q157.593 602.675 161.482 597.814 Q165.371 592.93 171.922 592.93 Q173.681 592.93 175.464 593.277 Q177.269 593.624 179.214 594.319 Z" fill="#000000" fill-rule="evenodd" fill-opacity="1" /><path clip-path="url(#clip710)" d="M199.514 596.634 Q195.903 596.634 194.075 600.198 Q192.269 603.74 192.269 610.87 Q192.269 617.976 194.075 621.541 Q195.903 625.082 199.514 625.082 Q203.149 625.082 204.954 621.541 Q206.783 617.976 206.783 610.87 Q206.783 603.74 204.954 600.198 Q203.149 596.634 199.514 596.634 M199.514 592.93 Q205.324 592.93 208.38 597.536 Q211.459 602.12 211.459 610.87 Q211.459 619.596 208.38 624.203 Q205.324 628.786 199.514 628.786 Q193.704 628.786 190.625 624.203 Q187.57 619.596 187.57 610.87 Q187.57 602.12 190.625 597.536 Q193.704 592.93 199.514 592.93 Z" fill="#000000" fill-rule="evenodd" fill-opacity="1" /><path clip-path="url(#clip710)" d="M229.676 596.634 Q226.065 596.634 224.236 600.198 Q222.431 603.74 222.431 610.87 Q222.431 617.976 224.236 621.541 Q226.065 625.082 229.676 625.082 Q233.31 625.082 235.116 621.541 Q236.945 617.976 236.945 610.87 Q236.945 603.74 235.116 600.198 Q233.31 596.634 229.676 596.634 M229.676 592.93 Q235.486 592.93 238.542 597.536 Q241.621 602.12 241.621 610.87 Q241.621 619.596 238.542 624.203 Q235.486 628.786 229.676 628.786 Q223.866 628.786 220.787 624.203 Q217.732 619.596 217.732 610.87 Q217.732 602.12 220.787 597.536 Q223.866 592.93 229.676 592.93 Z" fill="#000000" fill-rule="evenodd" fill-opacity="1" /><path clip-path="url(#clip710)" d="M278.009 602.652 L267.431 613.277 L278.009 623.856 L275.255 626.657 L264.63 616.032 L254.005 626.657 L251.273 623.856 L261.829 613.277 L251.273 602.652 L254.005 599.851 L264.63 610.476 L275.255 599.851 L278.009 602.652 Z" fill="#000000" fill-rule="evenodd" fill-opacity="1" /><path clip-path="url(#clip710)" d="M290.37 624.18 L298.009 624.18 L298.009 597.814 L289.699 599.481 L289.699 595.221 L297.963 593.555 L302.639 593.555 L302.639 624.18 L310.278 624.18 L310.278 628.115 L290.37 628.115 L290.37 624.18 Z" fill="#000000" fill-rule="evenodd" fill-opacity="1" /><path clip-path="url(#clip710)" d="M329.722 596.634 Q326.111 596.634 324.282 600.198 Q322.477 603.74 322.477 610.87 Q322.477 617.976 324.282 621.541 Q326.111 625.082 329.722 625.082 Q333.356 625.082 335.162 621.541 Q336.99 617.976 336.99 610.87 Q336.99 603.74 335.162 600.198 Q333.356 596.634 329.722 596.634 M329.722 592.93 Q335.532 592.93 338.588 597.536 Q341.666 602.12 341.666 610.87 Q341.666 619.596 338.588 624.203 Q335.532 628.786 329.722 628.786 Q323.912 628.786 320.833 624.203 Q317.778 619.596 317.778 610.87 Q317.778 602.12 320.833 597.536 Q323.912 592.93 329.722 592.93 Z" fill="#000000" fill-rule="evenodd" fill-opacity="1" /><path clip-path="url(#clip710)" d="M341.666 587.031 L365.778 587.031 L365.778 590.229 L341.666 590.229 L341.666 587.031 Z" fill="#000000" fill-rule="evenodd" fill-opacity="1" /><path clip-path="url(#clip710)" d="M374.636 597.507 L380.843 597.507 L380.843 576.085 L374.091 577.439 L374.091 573.979 L380.805 572.624 L384.604 572.624 L384.604 597.507 L390.811 597.507 L390.811 600.704 L374.636 600.704 L374.636 597.507 Z" fill="#000000" fill-rule="evenodd" fill-opacity="1" /><path clip-path="url(#clip710)" d="M399.143 597.507 L405.349 597.507 L405.349 576.085 L398.597 577.439 L398.597 573.979 L405.312 572.624 L409.111 572.624 L409.111 597.507 L415.318 597.507 L415.318 600.704 L399.143 600.704 L399.143 597.507 Z" fill="#000000" fill-rule="evenodd" fill-opacity="1" /><path clip-path="url(#clip710)" d="M114.931 320.496 L122.57 320.496 L122.57 294.13 L114.26 295.797 L114.26 291.538 L122.524 289.871 L127.2 289.871 L127.2 320.496 L134.839 320.496 L134.839 324.431 L114.931 324.431 L114.931 320.496 Z" fill="#000000" fill-rule="evenodd" fill-opacity="1" /><path clip-path="url(#clip710)" d="M144.283 318.551 L149.167 318.551 L149.167 324.431 L144.283 324.431 L144.283 318.551 Z" fill="#000000" fill-rule="evenodd" fill-opacity="1" /><path clip-path="url(#clip710)" d="M169.931 305.288 Q166.783 305.288 164.931 307.44 Q163.102 309.593 163.102 313.343 Q163.102 317.07 164.931 319.246 Q166.783 321.399 169.931 321.399 Q173.079 321.399 174.908 319.246 Q176.76 317.07 176.76 313.343 Q176.76 309.593 174.908 307.44 Q173.079 305.288 169.931 305.288 M179.214 290.635 L179.214 294.894 Q177.454 294.061 175.649 293.621 Q173.866 293.181 172.107 293.181 Q167.477 293.181 165.024 296.306 Q162.593 299.431 162.246 305.751 Q163.612 303.737 165.672 302.672 Q167.732 301.584 170.209 301.584 Q175.417 301.584 178.426 304.755 Q181.459 307.903 181.459 313.343 Q181.459 318.667 178.311 321.885 Q175.163 325.102 169.931 325.102 Q163.936 325.102 160.765 320.519 Q157.593 315.913 157.593 307.186 Q157.593 298.991 161.482 294.13 Q165.371 289.246 171.922 289.246 Q173.681 289.246 175.464 289.593 Q177.269 289.94 179.214 290.635 Z" fill="#000000" fill-rule="evenodd" fill-opacity="1" /><path clip-path="url(#clip710)" d="M189.561 289.871 L207.917 289.871 L207.917 293.806 L193.843 293.806 L193.843 302.278 Q194.862 301.931 195.88 301.769 Q196.899 301.584 197.917 301.584 Q203.704 301.584 207.084 304.755 Q210.463 307.927 210.463 313.343 Q210.463 318.922 206.991 322.024 Q203.519 325.102 197.2 325.102 Q195.024 325.102 192.755 324.732 Q190.51 324.362 188.102 323.621 L188.102 318.922 Q190.186 320.056 192.408 320.612 Q194.63 321.167 197.107 321.167 Q201.112 321.167 203.449 319.061 Q205.787 316.954 205.787 313.343 Q205.787 309.732 203.449 307.626 Q201.112 305.519 197.107 305.519 Q195.232 305.519 193.357 305.936 Q191.505 306.352 189.561 307.232 L189.561 289.871 Z" fill="#000000" fill-rule="evenodd" fill-opacity="1" /><path clip-path="url(#clip710)" d="M229.676 292.95 Q226.065 292.95 224.236 296.515 Q222.431 300.056 222.431 307.186 Q222.431 314.292 224.236 317.857 Q226.065 321.399 229.676 321.399 Q233.31 321.399 235.116 317.857 Q236.945 314.292 236.945 307.186 Q236.945 300.056 235.116 296.515 Q233.31 292.95 229.676 292.95 M229.676 289.246 Q235.486 289.246 238.542 293.853 Q241.621 298.436 241.621 307.186 Q241.621 315.913 238.542 320.519 Q235.486 325.102 229.676 325.102 Q223.866 325.102 220.787 320.519 Q217.732 315.913 217.732 307.186 Q217.732 298.436 220.787 293.853 Q223.866 289.246 229.676 289.246 Z" fill="#000000" fill-rule="evenodd" fill-opacity="1" /><path clip-path="url(#clip710)" d="M278.009 298.968 L267.431 309.593 L278.009 320.172 L275.255 322.973 L264.63 312.348 L254.005 322.973 L251.273 320.172 L261.829 309.593 L251.273 298.968 L254.005 296.167 L264.63 306.792 L275.255 296.167 L278.009 298.968 Z" fill="#000000" fill-rule="evenodd" fill-opacity="1" /><path clip-path="url(#clip710)" d="M290.37 320.496 L298.009 320.496 L298.009 294.13 L289.699 295.797 L289.699 291.538 L297.963 289.871 L302.639 289.871 L302.639 320.496 L310.278 320.496 L310.278 324.431 L290.37 324.431 L290.37 320.496 Z" fill="#000000" fill-rule="evenodd" fill-opacity="1" /><path clip-path="url(#clip710)" d="M329.722 292.95 Q326.111 292.95 324.282 296.515 Q322.477 300.056 322.477 307.186 Q322.477 314.292 324.282 317.857 Q326.111 321.399 329.722 321.399 Q333.356 321.399 335.162 317.857 Q336.99 314.292 336.99 307.186 Q336.99 300.056 335.162 296.515 Q333.356 292.95 329.722 292.95 M329.722 289.246 Q335.532 289.246 338.588 293.853 Q341.666 298.436 341.666 307.186 Q341.666 315.913 338.588 320.519 Q335.532 325.102 329.722 325.102 Q323.912 325.102 320.833 320.519 Q317.778 315.913 317.778 307.186 Q317.778 298.436 320.833 293.853 Q323.912 289.246 329.722 289.246 Z" fill="#000000" fill-rule="evenodd" fill-opacity="1" /><path clip-path="url(#clip710)" d="M341.666 283.347 L365.778 283.347 L365.778 286.545 L341.666 286.545 L341.666 283.347 Z" fill="#000000" fill-rule="evenodd" fill-opacity="1" /><path clip-path="url(#clip710)" d="M374.636 293.823 L380.843 293.823 L380.843 272.401 L374.091 273.755 L374.091 270.295 L380.805 268.941 L384.604 268.941 L384.604 293.823 L390.811 293.823 L390.811 297.021 L374.636 297.021 L374.636 293.823 Z" fill="#000000" fill-rule="evenodd" fill-opacity="1" /><path clip-path="url(#clip710)" d="M399.143 293.823 L405.349 293.823 L405.349 272.401 L398.597 273.755 L398.597 270.295 L405.312 268.941 L409.111 268.941 L409.111 293.823 L415.318 293.823 L415.318 297.021 L399.143 297.021 L399.143 293.823 Z" fill="#000000" fill-rule="evenodd" fill-opacity="1" /><path clip-path="url(#clip710)" d="M41.7242 1055.98 Q42.4244 1053.91 44.7161 1051.97 Q47.0077 1049.99 51.0181 1048.02 L64.0042 1041.5 L64.0042 1048.4 L51.8138 1054.48 Q47.0395 1056.84 45.48 1059.07 Q43.9204 1061.26 43.9204 1065.08 L43.9204 1072.08 L64.0042 1072.08 L64.0042 1078.51 L16.4842 1078.51 L16.4842 1064 Q16.4842 1055.85 19.8898 1051.84 Q23.2955 1047.83 30.1704 1047.83 Q34.6582 1047.83 37.6183 1049.93 Q40.5784 1052 41.7242 1055.98 M21.7677 1072.08 L38.6368 1072.08 L38.6368 1064 Q38.6368 1059.35 36.5043 1057 Q34.34 1054.61 30.1704 1054.61 Q26.0009 1054.61 23.9002 1057 Q21.7677 1059.35 21.7677 1064 L21.7677 1072.08 Z" fill="#000000" fill-rule="evenodd" fill-opacity="1" /><path clip-path="url(#clip710)" d="M44.7161 1005.91 L47.5806 1005.91 L47.5806 1032.84 Q53.6281 1032.46 56.8109 1029.21 Q59.9619 1025.93 59.9619 1020.11 Q59.9619 1016.73 59.1344 1013.58 Q58.3069 1010.4 56.6518 1007.28 L62.1899 1007.28 Q63.5267 1010.43 64.227 1013.74 Q64.9272 1017.05 64.9272 1020.46 Q64.9272 1028.99 59.9619 1033.98 Q54.9967 1038.95 46.5303 1038.95 Q37.7774 1038.95 32.6531 1034.24 Q27.4968 1029.5 27.4968 1021.48 Q27.4968 1014.28 32.1438 1010.11 Q36.7589 1005.91 44.7161 1005.91 M42.9973 1011.77 Q38.1912 1011.83 35.3266 1014.47 Q32.4621 1017.08 32.4621 1021.41 Q32.4621 1026.31 35.2312 1029.27 Q38.0002 1032.2 43.0292 1032.65 L42.9973 1011.77 Z" fill="#000000" fill-rule="evenodd" fill-opacity="1" /><path clip-path="url(#clip710)" d="M29.4065 973.574 L34.9447 973.574 Q33.6716 976.057 33.035 978.731 Q32.3984 981.404 32.3984 984.269 Q32.3984 988.629 33.7352 990.825 Q35.072 992.99 37.7456 992.99 Q39.7826 992.99 40.9603 991.43 Q42.1061 989.87 43.1565 985.16 L43.6021 983.155 Q44.9389 976.916 47.3897 974.306 Q49.8086 971.665 54.1691 971.665 Q59.1344 971.665 62.0308 975.611 Q64.9272 979.526 64.9272 986.401 Q64.9272 989.266 64.3543 992.385 Q63.8132 995.472 62.6992 998.91 L56.6518 998.91 Q58.3387 995.663 59.198 992.512 Q60.0256 989.361 60.0256 986.274 Q60.0256 982.136 58.6251 979.908 Q57.1929 977.68 54.6147 977.68 Q52.2276 977.68 50.9545 979.303 Q49.6813 980.895 48.5037 986.338 L48.0262 988.375 Q46.8804 993.817 44.5251 996.236 Q42.138 998.655 38.0002 998.655 Q32.9713 998.655 30.2341 995.09 Q27.4968 991.526 27.4968 984.969 Q27.4968 981.722 27.9743 978.858 Q28.4517 975.993 29.4065 973.574 Z" fill="#000000" fill-rule="evenodd" fill-opacity="1" /><path clip-path="url(#clip710)" d="M58.657 956.673 L77.5631 956.673 L77.5631 962.562 L28.3562 962.562 L28.3562 956.673 L33.7671 956.673 Q30.5842 954.827 29.0564 952.026 Q27.4968 949.194 27.4968 945.279 Q27.4968 938.786 32.6531 934.743 Q37.8093 930.669 46.212 930.669 Q54.6147 930.669 59.771 934.743 Q64.9272 938.786 64.9272 945.279 Q64.9272 949.194 63.3994 952.026 Q61.8398 954.827 58.657 956.673 M46.212 936.749 Q39.7508 936.749 36.0905 939.422 Q32.3984 942.064 32.3984 946.711 Q32.3984 951.358 36.0905 954.032 Q39.7508 956.673 46.212 956.673 Q52.6732 956.673 56.3653 954.032 Q60.0256 951.358 60.0256 946.711 Q60.0256 942.064 56.3653 939.422 Q52.6732 936.749 46.212 936.749 Z" fill="#000000" fill-rule="evenodd" fill-opacity="1" /><path clip-path="url(#clip710)" d="M32.4621 907.148 Q32.4621 911.859 36.1542 914.596 Q39.8145 917.333 46.212 917.333 Q52.6095 917.333 56.3017 914.628 Q59.9619 911.891 59.9619 907.148 Q59.9619 902.469 56.2698 899.732 Q52.5777 896.995 46.212 896.995 Q39.8781 896.995 36.186 899.732 Q32.4621 902.469 32.4621 907.148 M27.4968 907.148 Q27.4968 899.509 32.4621 895.149 Q37.4273 890.788 46.212 890.788 Q54.9649 890.788 59.9619 895.149 Q64.9272 899.509 64.9272 907.148 Q64.9272 914.819 59.9619 919.179 Q54.9649 923.508 46.212 923.508 Q37.4273 923.508 32.4621 919.179 Q27.4968 914.819 27.4968 907.148 Z" fill="#000000" fill-rule="evenodd" fill-opacity="1" /><path clip-path="url(#clip710)" d="M42.4881 851.448 L64.0042 851.448 L64.0042 857.305 L42.679 857.305 Q37.6183 857.305 35.1038 859.278 Q32.5894 861.251 32.5894 865.198 Q32.5894 869.941 35.6131 872.678 Q38.6368 875.415 43.8567 875.415 L64.0042 875.415 L64.0042 881.303 L28.3562 881.303 L28.3562 875.415 L33.8944 875.415 Q30.6797 873.314 29.0883 870.482 Q27.4968 867.617 27.4968 863.893 Q27.4968 857.75 31.3163 854.599 Q35.1038 851.448 42.4881 851.448 Z" fill="#000000" fill-rule="evenodd" fill-opacity="1" /><path clip-path="url(#clip710)" d="M29.4065 817.042 L34.9447 817.042 Q33.6716 819.524 33.035 822.198 Q32.3984 824.871 32.3984 827.736 Q32.3984 832.096 33.7352 834.293 Q35.072 836.457 37.7456 836.457 Q39.7826 836.457 40.9603 834.897 Q42.1061 833.338 43.1565 828.627 L43.6021 826.622 Q44.9389 820.384 47.3897 817.774 Q49.8086 815.132 54.1691 815.132 Q59.1344 815.132 62.0308 819.079 Q64.9272 822.993 64.9272 829.868 Q64.9272 832.733 64.3543 835.852 Q63.8132 838.94 62.6992 842.377 L56.6518 842.377 Q58.3387 839.131 59.198 835.98 Q60.0256 832.829 60.0256 829.741 Q60.0256 825.603 58.6251 823.375 Q57.1929 821.147 54.6147 821.147 Q52.2276 821.147 50.9545 822.771 Q49.6813 824.362 48.5037 829.805 L48.0262 831.842 Q46.8804 837.285 44.5251 839.703 Q42.138 842.122 38.0002 842.122 Q32.9713 842.122 30.2341 838.558 Q27.4968 834.993 27.4968 828.436 Q27.4968 825.19 27.9743 822.325 Q28.4517 819.461 29.4065 817.042 Z" fill="#000000" fill-rule="evenodd" fill-opacity="1" /><path clip-path="url(#clip710)" d="M44.7161 775.314 L47.5806 775.314 L47.5806 802.241 Q53.6281 801.859 56.8109 798.613 Q59.9619 795.335 59.9619 789.51 Q59.9619 786.136 59.1344 782.985 Q58.3069 779.802 56.6518 776.683 L62.1899 776.683 Q63.5267 779.834 64.227 783.144 Q64.9272 786.454 64.9272 789.86 Q64.9272 798.39 59.9619 803.387 Q54.9967 808.352 46.5303 808.352 Q37.7774 808.352 32.6531 803.642 Q27.4968 798.899 27.4968 790.879 Q27.4968 783.685 32.1438 779.516 Q36.7589 775.314 44.7161 775.314 M42.9973 781.171 Q38.1912 781.234 35.3266 783.876 Q32.4621 786.486 32.4621 790.815 Q32.4621 795.716 35.2312 798.677 Q38.0002 801.605 43.0292 802.05 L42.9973 781.171 Z" fill="#000000" fill-rule="evenodd" fill-opacity="1" /><path clip-path="url(#clip710)" d="M14.5426 730.914 Q21.8632 735.179 29.0246 737.247 Q36.186 739.316 43.5384 739.316 Q50.8908 739.316 58.1159 737.247 Q65.3091 735.147 72.5979 730.914 L72.5979 736.006 Q65.1182 740.78 57.8931 743.168 Q50.668 745.523 43.5384 745.523 Q36.4406 745.523 29.2474 743.168 Q22.0542 740.812 14.5426 736.006 L14.5426 730.914 Z" fill="#000000" fill-rule="evenodd" fill-opacity="1" /><path clip-path="url(#clip710)" d="M46.0847 703.35 Q46.0847 710.448 47.7079 713.185 Q49.3312 715.922 53.2461 715.922 Q56.3653 715.922 58.2114 713.885 Q60.0256 711.816 60.0256 708.283 Q60.0256 703.414 56.5881 700.485 Q53.1188 697.525 47.3897 697.525 L46.0847 697.525 L46.0847 703.35 M43.6657 691.669 L64.0042 691.669 L64.0042 697.525 L58.5933 697.525 Q61.8398 699.531 63.3994 702.523 Q64.9272 705.514 64.9272 709.843 Q64.9272 715.318 61.8716 718.564 Q58.7843 721.779 53.6281 721.779 Q47.6125 721.779 44.5569 717.768 Q41.5014 713.726 41.5014 705.737 L41.5014 697.525 L40.9285 697.525 Q36.8862 697.525 34.6901 700.199 Q32.4621 702.841 32.4621 707.647 Q32.4621 710.702 33.1941 713.599 Q33.9262 716.495 35.3903 719.169 L29.9795 719.169 Q28.7381 715.954 28.1334 712.93 Q27.4968 709.907 27.4968 707.042 Q27.4968 699.308 31.5072 695.488 Q35.5176 691.669 43.6657 691.669 Z" fill="#000000" fill-rule="evenodd" fill-opacity="1" /><path clip-path="url(#clip710)" d="M33.8307 658.949 Q33.2578 659.936 33.0032 661.114 Q32.7167 662.259 32.7167 663.66 Q32.7167 668.625 35.9632 671.299 Q39.1779 673.94 45.2253 673.94 L64.0042 673.94 L64.0042 679.829 L28.3562 679.829 L28.3562 673.94 L33.8944 673.94 Q30.6479 672.094 29.0883 669.134 Q27.4968 666.174 27.4968 661.941 Q27.4968 661.336 27.5923 660.604 Q27.656 659.872 27.8151 658.981 L33.8307 658.949 Z" fill="#000000" fill-rule="evenodd" fill-opacity="1" /><path clip-path="url(#clip710)" d="M46.212 627.216 Q39.7508 627.216 36.0905 629.89 Q32.3984 632.532 32.3984 637.179 Q32.3984 641.825 36.0905 644.499 Q39.7508 647.141 46.212 647.141 Q52.6732 647.141 56.3653 644.499 Q60.0256 641.825 60.0256 637.179 Q60.0256 632.532 56.3653 629.89 Q52.6732 627.216 46.212 627.216 M33.7671 647.141 Q30.5842 645.295 29.0564 642.494 Q27.4968 639.661 27.4968 635.746 Q27.4968 629.253 32.6531 625.211 Q37.8093 621.137 46.212 621.137 Q54.6147 621.137 59.771 625.211 Q64.9272 629.253 64.9272 635.746 Q64.9272 639.661 63.3994 642.494 Q61.8398 645.295 58.657 647.141 L64.0042 647.141 L64.0042 653.029 L14.479 653.029 L14.479 647.141 L33.7671 647.141 Z" fill="#000000" fill-rule="evenodd" fill-opacity="1" /><path clip-path="url(#clip710)" d="M55.9197 610.602 L55.9197 603.886 L64.0042 603.886 L64.0042 610.602 L55.9197 610.602 Z" fill="#000000" fill-rule="evenodd" fill-opacity="1" /><path clip-path="url(#clip710)" d="M49.9359 570.593 L28.3562 570.593 L28.3562 564.737 L49.7131 564.737 Q54.7739 564.737 57.3202 562.763 Q59.8346 560.79 59.8346 556.843 Q59.8346 552.101 56.8109 549.364 Q53.7872 546.595 48.5673 546.595 L28.3562 546.595 L28.3562 540.738 L64.0042 540.738 L64.0042 546.595 L58.5296 546.595 Q61.7762 548.727 63.3676 551.56 Q64.9272 554.361 64.9272 558.085 Q64.9272 564.228 61.1078 567.41 Q57.2883 570.593 49.9359 570.593 M27.4968 555.857 L27.4968 555.857 Z" fill="#000000" fill-rule="evenodd" fill-opacity="1" /><path clip-path="url(#clip710)" d="M42.4881 499.043 L64.0042 499.043 L64.0042 504.899 L42.679 504.899 Q37.6183 504.899 35.1038 506.873 Q32.5894 508.846 32.5894 512.793 Q32.5894 517.535 35.6131 520.272 Q38.6368 523.01 43.8567 523.01 L64.0042 523.01 L64.0042 528.898 L28.3562 528.898 L28.3562 523.01 L33.8944 523.01 Q30.6797 520.909 29.0883 518.076 Q27.4968 515.212 27.4968 511.488 Q27.4968 505.345 31.3163 502.194 Q35.1038 499.043 42.4881 499.043 Z" fill="#000000" fill-rule="evenodd" fill-opacity="1" /><path clip-path="url(#clip710)" d="M28.3562 487.362 L28.3562 481.505 L64.0042 481.505 L64.0042 487.362 L28.3562 487.362 M14.479 487.362 L14.479 481.505 L21.895 481.505 L21.895 487.362 L14.479 487.362 Z" fill="#000000" fill-rule="evenodd" fill-opacity="1" /><path clip-path="url(#clip710)" d="M18.2347 463.458 L28.3562 463.458 L28.3562 451.395 L32.9077 451.395 L32.9077 463.458 L52.2594 463.458 Q56.6199 463.458 57.8613 462.281 Q59.1026 461.071 59.1026 457.411 L59.1026 451.395 L64.0042 451.395 L64.0042 457.411 Q64.0042 464.19 61.4897 466.769 Q58.9434 469.347 52.2594 469.347 L32.9077 469.347 L32.9077 473.644 L28.3562 473.644 L28.3562 469.347 L18.2347 469.347 L18.2347 463.458 Z" fill="#000000" fill-rule="evenodd" fill-opacity="1" /><path clip-path="url(#clip710)" d="M29.4065 420.967 L34.9447 420.967 Q33.6716 423.45 33.035 426.124 Q32.3984 428.797 32.3984 431.662 Q32.3984 436.022 33.7352 438.218 Q35.072 440.383 37.7456 440.383 Q39.7826 440.383 40.9603 438.823 Q42.1061 437.264 43.1565 432.553 L43.6021 430.548 Q44.9389 424.309 47.3897 421.699 Q49.8086 419.058 54.1691 419.058 Q59.1344 419.058 62.0308 423.004 Q64.9272 426.919 64.9272 433.794 Q64.9272 436.659 64.3543 439.778 Q63.8132 442.865 62.6992 446.303 L56.6518 446.303 Q58.3387 443.056 59.198 439.905 Q60.0256 436.754 60.0256 433.667 Q60.0256 429.529 58.6251 427.301 Q57.1929 425.073 54.6147 425.073 Q52.2276 425.073 50.9545 426.696 Q49.6813 428.288 48.5037 433.731 L48.0262 435.768 Q46.8804 441.21 44.5251 443.629 Q42.138 446.048 38.0002 446.048 Q32.9713 446.048 30.2341 442.483 Q27.4968 438.919 27.4968 432.362 Q27.4968 429.115 27.9743 426.251 Q28.4517 423.386 29.4065 420.967 Z" fill="#000000" fill-rule="evenodd" fill-opacity="1" /><path clip-path="url(#clip710)" d="M14.5426 410.655 L14.5426 405.562 Q22.0542 400.788 29.2474 398.433 Q36.4406 396.046 43.5384 396.046 Q50.668 396.046 57.8931 398.433 Q65.1182 400.788 72.5979 405.562 L72.5979 410.655 Q65.3091 406.422 58.1159 404.353 Q50.8908 402.252 43.5384 402.252 Q36.186 402.252 29.0246 404.353 Q21.8632 406.422 14.5426 410.655 Z" fill="#000000" fill-rule="evenodd" fill-opacity="1" /><polyline clip-path="url(#clip713)" style="stroke:#000000; stroke-linecap:butt; stroke-linejoin:round; stroke-width:4; stroke-opacity:1; fill:none" points="
  555.9,803.118 555.9,176.679 
  "/>
<polyline clip-path="url(#clip713)" style="stroke:#000000; stroke-linecap:butt; stroke-linejoin:round; stroke-width:4; stroke-opacity:1; fill:none" points="
  869.284,1388.26 869.284,839.985 
  "/>
<polyline clip-path="url(#clip713)" style="stroke:#000000; stroke-linecap:butt; stroke-linejoin:round; stroke-width:4; stroke-opacity:1; fill:none" points="
  1694.53,566.73 1694.53,86.3027 
  "/>
<polyline clip-path="url(#clip713)" style="stroke:#000000; stroke-linecap:butt; stroke-linejoin:round; stroke-width:4; stroke-opacity:1; fill:none" points="
  1934.79,1314.16 1934.79,929.511 
  "/>
<polyline clip-path="url(#clip713)" style="stroke:#000000; stroke-linecap:butt; stroke-linejoin:round; stroke-width:4; stroke-opacity:1; fill:none" points="
  2248.17,1048.49 2248.17,699.197 
  "/>
<line clip-path="url(#clip713)" x1="571.9" y1="803.118" x2="539.9" y2="803.118" style="stroke:#000000; stroke-width:3.2; stroke-opacity:1"/>
<line clip-path="url(#clip713)" x1="571.9" y1="176.679" x2="539.9" y2="176.679" style="stroke:#000000; stroke-width:3.2; stroke-opacity:1"/>
<line clip-path="url(#clip713)" x1="885.284" y1="1388.26" x2="853.284" y2="1388.26" style="stroke:#000000; stroke-width:3.2; stroke-opacity:1"/>
<line clip-path="url(#clip713)" x1="885.284" y1="839.985" x2="853.284" y2="839.985" style="stroke:#000000; stroke-width:3.2; stroke-opacity:1"/>
<line clip-path="url(#clip713)" x1="1710.53" y1="566.73" x2="1678.53" y2="566.73" style="stroke:#000000; stroke-width:3.2; stroke-opacity:1"/>
<line clip-path="url(#clip713)" x1="1710.53" y1="86.3027" x2="1678.53" y2="86.3027" style="stroke:#000000; stroke-width:3.2; stroke-opacity:1"/>
<line clip-path="url(#clip713)" x1="1950.79" y1="1314.16" x2="1918.79" y2="1314.16" style="stroke:#000000; stroke-width:3.2; stroke-opacity:1"/>
<line clip-path="url(#clip713)" x1="1950.79" y1="929.511" x2="1918.79" y2="929.511" style="stroke:#000000; stroke-width:3.2; stroke-opacity:1"/>
<line clip-path="url(#clip713)" x1="2264.17" y1="1048.49" x2="2232.17" y2="1048.49" style="stroke:#000000; stroke-width:3.2; stroke-opacity:1"/>
<line clip-path="url(#clip713)" x1="2264.17" y1="699.197" x2="2232.17" y2="699.197" style="stroke:#000000; stroke-width:3.2; stroke-opacity:1"/>
<circle clip-path="url(#clip713)" cx="555.9" cy="488.987" r="14" fill="#e26f46" fill-rule="evenodd" fill-opacity="1" stroke="#000000" stroke-opacity="1" stroke-width="3.2"/>
<circle clip-path="url(#clip713)" cx="869.284" cy="1114.58" r="14" fill="#e26f46" fill-rule="evenodd" fill-opacity="1" stroke="#000000" stroke-opacity="1" stroke-width="3.2"/>
<circle clip-path="url(#clip713)" cx="1694.53" cy="318.924" r="14" fill="#e26f46" fill-rule="evenodd" fill-opacity="1" stroke="#000000" stroke-opacity="1" stroke-width="3.2"/>
<circle clip-path="url(#clip713)" cx="1934.79" cy="1114.58" r="14" fill="#e26f46" fill-rule="evenodd" fill-opacity="1" stroke="#000000" stroke-opacity="1" stroke-width="3.2"/>
<circle clip-path="url(#clip713)" cx="2248.17" cy="871.629" r="14" fill="#e26f46" fill-rule="evenodd" fill-opacity="1" stroke="#000000" stroke-opacity="1" stroke-width="3.2"/>
<polyline clip-path="url(#clip713)" style="stroke:#e26f46; stroke-linecap:butt; stroke-linejoin:round; stroke-width:4; stroke-opacity:1; fill:none" points="
  505.132,835.09 2298.94,835.09 
  "/>
<path clip-path="url(#clip713)" d="
M505.132 735.413 L2298.94 735.413 L2298.94 934.766 L505.132 934.766  Z
  " fill="#e26f46" fill-rule="evenodd" fill-opacity="0.5"/>
<polyline clip-path="url(#clip713)" style="stroke:#e26f46; stroke-linecap:butt; stroke-linejoin:round; stroke-width:4; stroke-opacity:0.5; fill:none" points="
  505.132,735.413 2298.94,735.413 
  "/>
<path clip-path="url(#clip710)" d="
M1869.84 196.926 L2289.37 196.926 L2289.37 93.2464 L1869.84 93.2464  Z
  " fill="#ffffff" fill-rule="evenodd" fill-opacity="1"/>
<polyline clip-path="url(#clip710)" style="stroke:#000000; stroke-linecap:butt; stroke-linejoin:round; stroke-width:4; stroke-opacity:1; fill:none" points="
  1869.84,196.926 2289.37,196.926 2289.37,93.2464 1869.84,93.2464 1869.84,196.926 
  "/>
<circle clip-path="url(#clip710)" cx="1954.35" cy="145.086" r="23" fill="#e26f46" fill-rule="evenodd" fill-opacity="1" stroke="#000000" stroke-opacity="1" stroke-width="5.12"/>
<path clip-path="url(#clip710)" d="M2054.88 130.978 Q2049.78 130.978 2046.77 134.774 Q2043.79 138.57 2043.79 145.121 Q2043.79 151.649 2046.77 155.445 Q2049.78 159.241 2054.88 159.241 Q2059.97 159.241 2062.93 155.445 Q2065.92 151.649 2065.92 145.121 Q2065.92 138.57 2062.93 134.774 Q2059.97 130.978 2054.88 130.978 M2054.88 127.181 Q2062.14 127.181 2066.5 132.066 Q2070.85 136.927 2070.85 145.121 Q2070.85 153.292 2066.5 158.177 Q2062.14 163.038 2054.88 163.038 Q2047.58 163.038 2043.21 158.177 Q2038.86 153.316 2038.86 145.121 Q2038.86 136.927 2043.21 132.066 Q2047.58 127.181 2054.88 127.181 Z" fill="#000000" fill-rule="evenodd" fill-opacity="1" /><path clip-path="url(#clip710)" d="M2096.64 137.436 L2096.64 141.417 Q2094.83 140.422 2093 139.936 Q2091.2 139.427 2089.34 139.427 Q2085.2 139.427 2082.91 142.066 Q2080.62 144.681 2080.62 149.427 Q2080.62 154.172 2082.91 156.811 Q2085.2 159.427 2089.34 159.427 Q2091.2 159.427 2093 158.941 Q2094.83 158.431 2096.64 157.436 L2096.64 161.371 Q2094.85 162.204 2092.93 162.621 Q2091.03 163.038 2088.88 163.038 Q2083.02 163.038 2079.58 159.357 Q2076.13 155.677 2076.13 149.427 Q2076.13 143.084 2079.6 139.45 Q2083.09 135.816 2089.16 135.816 Q2091.13 135.816 2093 136.232 Q2094.88 136.626 2096.64 137.436 Z" fill="#000000" fill-rule="evenodd" fill-opacity="1" /><path clip-path="url(#clip710)" d="M2108.26 129.08 L2108.26 136.441 L2117.03 136.441 L2117.03 139.751 L2108.26 139.751 L2108.26 153.825 Q2108.26 156.996 2109.11 157.899 Q2109.99 158.802 2112.65 158.802 L2117.03 158.802 L2117.03 162.366 L2112.65 162.366 Q2107.72 162.366 2105.85 160.538 Q2103.97 158.686 2103.97 153.825 L2103.97 139.751 L2100.85 139.751 L2100.85 136.441 L2103.97 136.441 L2103.97 129.08 L2108.26 129.08 Z" fill="#000000" fill-rule="evenodd" fill-opacity="1" /><path clip-path="url(#clip710)" d="M2122.19 152.135 L2122.19 136.441 L2126.45 136.441 L2126.45 151.973 Q2126.45 155.654 2127.88 157.505 Q2129.32 159.334 2132.19 159.334 Q2135.64 159.334 2137.63 157.135 Q2139.64 154.936 2139.64 151.14 L2139.64 136.441 L2143.9 136.441 L2143.9 162.366 L2139.64 162.366 L2139.64 158.385 Q2138.09 160.746 2136.03 161.903 Q2134 163.038 2131.29 163.038 Q2126.82 163.038 2124.51 160.26 Q2122.19 157.482 2122.19 152.135 M2132.91 135.816 L2132.91 135.816 Z" fill="#000000" fill-rule="evenodd" fill-opacity="1" /><path clip-path="url(#clip710)" d="M2156.8 158.478 L2156.8 172.227 L2152.51 172.227 L2152.51 136.441 L2156.8 136.441 L2156.8 140.376 Q2158.14 138.061 2160.18 136.95 Q2162.24 135.816 2165.08 135.816 Q2169.81 135.816 2172.75 139.566 Q2175.71 143.316 2175.71 149.427 Q2175.71 155.538 2172.75 159.288 Q2169.81 163.038 2165.08 163.038 Q2162.24 163.038 2160.18 161.927 Q2158.14 160.792 2156.8 158.478 M2171.29 149.427 Q2171.29 144.728 2169.34 142.066 Q2167.42 139.38 2164.04 139.38 Q2160.66 139.38 2158.72 142.066 Q2156.8 144.728 2156.8 149.427 Q2156.8 154.126 2158.72 156.811 Q2160.66 159.473 2164.04 159.473 Q2167.42 159.473 2169.34 156.811 Q2171.29 154.126 2171.29 149.427 Z" fill="#000000" fill-rule="evenodd" fill-opacity="1" /><path clip-path="url(#clip710)" d="M2192.82 139.427 Q2189.39 139.427 2187.4 142.112 Q2185.41 144.774 2185.41 149.427 Q2185.41 154.079 2187.38 156.765 Q2189.37 159.427 2192.82 159.427 Q2196.22 159.427 2198.21 156.741 Q2200.2 154.056 2200.2 149.427 Q2200.2 144.82 2198.21 142.135 Q2196.22 139.427 2192.82 139.427 M2192.82 135.816 Q2198.37 135.816 2201.54 139.427 Q2204.71 143.038 2204.71 149.427 Q2204.71 155.792 2201.54 159.427 Q2198.37 163.038 2192.82 163.038 Q2187.24 163.038 2184.07 159.427 Q2180.92 155.792 2180.92 149.427 Q2180.92 143.038 2184.07 139.427 Q2187.24 135.816 2192.82 135.816 Z" fill="#000000" fill-rule="evenodd" fill-opacity="1" /><path clip-path="url(#clip710)" d="M2211.77 126.348 L2216.03 126.348 L2216.03 162.366 L2211.77 162.366 L2211.77 126.348 Z" fill="#000000" fill-rule="evenodd" fill-opacity="1" /><path clip-path="url(#clip710)" d="M2247.12 148.339 L2247.12 150.422 L2227.54 150.422 Q2227.81 154.82 2230.18 157.135 Q2232.56 159.427 2236.8 159.427 Q2239.25 159.427 2241.54 158.825 Q2243.86 158.223 2246.13 157.019 L2246.13 161.047 Q2243.83 162.019 2241.43 162.528 Q2239.02 163.038 2236.54 163.038 Q2230.34 163.038 2226.7 159.427 Q2223.09 155.816 2223.09 149.658 Q2223.09 143.292 2226.52 139.566 Q2229.97 135.816 2235.8 135.816 Q2241.03 135.816 2244.06 139.195 Q2247.12 142.552 2247.12 148.339 M2242.86 147.089 Q2242.81 143.593 2240.89 141.51 Q2239 139.427 2235.85 139.427 Q2232.28 139.427 2230.13 141.441 Q2228 143.455 2227.68 147.112 L2242.86 147.089 Z" fill="#000000" fill-rule="evenodd" fill-opacity="1" /></svg>
