<?xml version="1.0" encoding="utf-8"?>
<svg xmlns="http://www.w3.org/2000/svg" xmlns:xlink="http://www.w3.org/1999/xlink" width="600" height="400" viewBox="0 0 2400 1600">
<defs>
  <clipPath id="clip680">
    <rect x="0" y="0" width="2400" height="1600"/>
  </clipPath>
</defs>
<path clip-path="url(#clip680)" d="
M0 1600 L2400 1600 L2400 0 L0 0  Z
  " fill="#ffffff" fill-rule="evenodd" fill-opacity="1"/>
<defs>
  <clipPath id="clip681">
    <rect x="480" y="0" width="1681" height="1600"/>
  </clipPath>
</defs>
<defs>
  <clipPath id="clip682">
    <rect x="156" y="102" width="2198" height="1350"/>
  </clipPath>
</defs>
<path clip-path="url(#clip680)" d="
M156.112 1451.45 L2352.76 1451.45 L2352.76 102.45 L156.112 102.45  Z
  " fill="#ffffff" fill-rule="evenodd" fill-opacity="1"/>
<polyline clip-path="url(#clip682)" style="stroke:#000000; stroke-linecap:butt; stroke-linejoin:round; stroke-width:2; stroke-opacity:0.1; fill:none" points="
  239.209,1451.45 239.209,102.45 
  "/>
<polyline clip-path="url(#clip682)" style="stroke:#000000; stroke-linecap:butt; stroke-linejoin:round; stroke-width:2; stroke-opacity:0.1; fill:none" points="
  653.964,1451.45 653.964,102.45 
  "/>
<polyline clip-path="url(#clip682)" style="stroke:#000000; stroke-linecap:butt; stroke-linejoin:round; stroke-width:2; stroke-opacity:0.1; fill:none" points="
  1068.72,1451.45 1068.72,102.45 
  "/>
<polyline clip-path="url(#clip682)" style="stroke:#000000; stroke-linecap:butt; stroke-linejoin:round; stroke-width:2; stroke-opacity:0.1; fill:none" points="
  1483.47,1451.45 1483.47,102.45 
  "/>
<polyline clip-path="url(#clip682)" style="stroke:#000000; stroke-linecap:butt; stroke-linejoin:round; stroke-width:2; stroke-opacity:0.1; fill:none" points="
  1898.23,1451.45 1898.23,102.45 
  "/>
<polyline clip-path="url(#clip682)" style="stroke:#000000; stroke-linecap:butt; stroke-linejoin:round; stroke-width:2; stroke-opacity:0.1; fill:none" points="
  2312.98,1451.45 2312.98,102.45 
  "/>
<polyline clip-path="url(#clip680)" style="stroke:#000000; stroke-linecap:butt; stroke-linejoin:round; stroke-width:4; stroke-opacity:1; fill:none" points="
  156.112,1451.45 2352.76,1451.45 
  "/>
<polyline clip-path="url(#clip680)" style="stroke:#000000; stroke-linecap:butt; stroke-linejoin:round; stroke-width:4; stroke-opacity:1; fill:none" points="
  239.209,1451.45 239.209,1432.55 
  "/>
<polyline clip-path="url(#clip680)" style="stroke:#000000; stroke-linecap:butt; stroke-linejoin:round; stroke-width:4; stroke-opacity:1; fill:none" points="
  653.964,1451.45 653.964,1432.55 
  "/>
<polyline clip-path="url(#clip680)" style="stroke:#000000; stroke-linecap:butt; stroke-linejoin:round; stroke-width:4; stroke-opacity:1; fill:none" points="
  1068.72,1451.45 1068.72,1432.55 
  "/>
<polyline clip-path="url(#clip680)" style="stroke:#000000; stroke-linecap:butt; stroke-linejoin:round; stroke-width:4; stroke-opacity:1; fill:none" points="
  1483.47,1451.45 1483.47,1432.55 
  "/>
<polyline clip-path="url(#clip680)" style="stroke:#000000; stroke-linecap:butt; stroke-linejoin:round; stroke-width:4; stroke-opacity:1; fill:none" points="
  1898.23,1451.45 1898.23,1432.55 
  "/>
<polyline clip-path="url(#clip680)" style="stroke:#000000; stroke-linecap:butt; stroke-linejoin:round; stroke-width:4; stroke-opacity:1; fill:none" points="
  2312.98,1451.45 2312.98,1432.55 
  "/>
<path clip-path="url(#clip680)" d="M216.594 1480.64 Q212.983 1480.64 211.154 1484.21 Q209.348 1487.75 209.348 1494.88 Q209.348 1501.98 211.154 1505.55 Q212.983 1509.09 216.594 1509.09 Q220.228 1509.09 222.034 1505.55 Q223.862 1501.98 223.862 1494.88 Q223.862 1487.75 222.034 1484.21 Q220.228 1480.64 216.594 1480.64 M216.594 1476.94 Q222.404 1476.94 225.459 1481.54 Q228.538 1486.13 228.538 1494.88 Q228.538 1503.6 225.459 1508.21 Q222.404 1512.79 216.594 1512.79 Q210.784 1512.79 207.705 1508.21 Q204.649 1503.6 204.649 1494.88 Q204.649 1486.13 207.705 1481.54 Q210.784 1476.94 216.594 1476.94 Z" fill="#000000" fill-rule="evenodd" fill-opacity="1" /><path clip-path="url(#clip680)" d="M236.756 1506.24 L241.64 1506.24 L241.64 1512.12 L236.756 1512.12 L236.756 1506.24 Z" fill="#000000" fill-rule="evenodd" fill-opacity="1" /><path clip-path="url(#clip680)" d="M261.825 1480.64 Q258.214 1480.64 256.385 1484.21 Q254.58 1487.75 254.58 1494.88 Q254.58 1501.98 256.385 1505.55 Q258.214 1509.09 261.825 1509.09 Q265.459 1509.09 267.265 1505.55 Q269.093 1501.98 269.093 1494.88 Q269.093 1487.75 267.265 1484.21 Q265.459 1480.64 261.825 1480.64 M261.825 1476.94 Q267.635 1476.94 270.691 1481.54 Q273.769 1486.13 273.769 1494.88 Q273.769 1503.6 270.691 1508.21 Q267.635 1512.79 261.825 1512.79 Q256.015 1512.79 252.936 1508.21 Q249.881 1503.6 249.881 1494.88 Q249.881 1486.13 252.936 1481.54 Q256.015 1476.94 261.825 1476.94 Z" fill="#000000" fill-rule="evenodd" fill-opacity="1" /><path clip-path="url(#clip680)" d="M631.846 1480.64 Q628.235 1480.64 626.406 1484.21 Q624.6 1487.75 624.6 1494.88 Q624.6 1501.98 626.406 1505.55 Q628.235 1509.09 631.846 1509.09 Q635.48 1509.09 637.285 1505.55 Q639.114 1501.98 639.114 1494.88 Q639.114 1487.75 637.285 1484.21 Q635.48 1480.64 631.846 1480.64 M631.846 1476.94 Q637.656 1476.94 640.711 1481.54 Q643.79 1486.13 643.79 1494.88 Q643.79 1503.6 640.711 1508.21 Q637.656 1512.79 631.846 1512.79 Q626.035 1512.79 622.957 1508.21 Q619.901 1503.6 619.901 1494.88 Q619.901 1486.13 622.957 1481.54 Q626.035 1476.94 631.846 1476.94 Z" fill="#000000" fill-rule="evenodd" fill-opacity="1" /><path clip-path="url(#clip680)" d="M652.008 1506.24 L656.892 1506.24 L656.892 1512.12 L652.008 1512.12 L652.008 1506.24 Z" fill="#000000" fill-rule="evenodd" fill-opacity="1" /><path clip-path="url(#clip680)" d="M667.123 1477.56 L685.48 1477.56 L685.48 1481.5 L671.406 1481.5 L671.406 1489.97 Q672.424 1489.62 673.443 1489.46 Q674.461 1489.27 675.48 1489.27 Q681.267 1489.27 684.646 1492.45 Q688.026 1495.62 688.026 1501.03 Q688.026 1506.61 684.554 1509.71 Q681.081 1512.79 674.762 1512.79 Q672.586 1512.79 670.318 1512.42 Q668.072 1512.05 665.665 1511.31 L665.665 1506.61 Q667.748 1507.75 669.97 1508.3 Q672.193 1508.86 674.669 1508.86 Q678.674 1508.86 681.012 1506.75 Q683.35 1504.65 683.35 1501.03 Q683.35 1497.42 681.012 1495.32 Q678.674 1493.21 674.669 1493.21 Q672.794 1493.21 670.919 1493.63 Q669.068 1494.04 667.123 1494.92 L667.123 1477.56 Z" fill="#000000" fill-rule="evenodd" fill-opacity="1" /><path clip-path="url(#clip680)" d="M1035.87 1508.19 L1043.51 1508.19 L1043.51 1481.82 L1035.2 1483.49 L1035.2 1479.23 L1043.46 1477.56 L1048.14 1477.56 L1048.14 1508.19 L1055.78 1508.19 L1055.78 1512.12 L1035.87 1512.12 L1035.87 1508.19 Z" fill="#000000" fill-rule="evenodd" fill-opacity="1" /><path clip-path="url(#clip680)" d="M1065.22 1506.24 L1070.11 1506.24 L1070.11 1512.12 L1065.22 1512.12 L1065.22 1506.24 Z" fill="#000000" fill-rule="evenodd" fill-opacity="1" /><path clip-path="url(#clip680)" d="M1090.29 1480.64 Q1086.68 1480.64 1084.85 1484.21 Q1083.05 1487.75 1083.05 1494.88 Q1083.05 1501.98 1084.85 1505.55 Q1086.68 1509.09 1090.29 1509.09 Q1093.93 1509.09 1095.73 1505.55 Q1097.56 1501.98 1097.56 1494.88 Q1097.56 1487.75 1095.73 1484.21 Q1093.93 1480.64 1090.29 1480.64 M1090.29 1476.94 Q1096.1 1476.94 1099.16 1481.54 Q1102.24 1486.13 1102.24 1494.88 Q1102.24 1503.6 1099.16 1508.21 Q1096.1 1512.79 1090.29 1512.79 Q1084.48 1512.79 1081.4 1508.21 Q1078.35 1503.6 1078.35 1494.88 Q1078.35 1486.13 1081.4 1481.54 Q1084.48 1476.94 1090.29 1476.94 Z" fill="#000000" fill-rule="evenodd" fill-opacity="1" /><path clip-path="url(#clip680)" d="M1451.12 1508.19 L1458.76 1508.19 L1458.76 1481.82 L1450.45 1483.49 L1450.45 1479.23 L1458.72 1477.56 L1463.39 1477.56 L1463.39 1508.19 L1471.03 1508.19 L1471.03 1512.12 L1451.12 1512.12 L1451.12 1508.19 Z" fill="#000000" fill-rule="evenodd" fill-opacity="1" /><path clip-path="url(#clip680)" d="M1480.47 1506.24 L1485.36 1506.24 L1485.36 1512.12 L1480.47 1512.12 L1480.47 1506.24 Z" fill="#000000" fill-rule="evenodd" fill-opacity="1" /><path clip-path="url(#clip680)" d="M1495.59 1477.56 L1513.95 1477.56 L1513.95 1481.5 L1499.87 1481.5 L1499.87 1489.97 Q1500.89 1489.62 1501.91 1489.46 Q1502.93 1489.27 1503.95 1489.27 Q1509.73 1489.27 1513.11 1492.45 Q1516.49 1495.62 1516.49 1501.03 Q1516.49 1506.61 1513.02 1509.71 Q1509.55 1512.79 1503.23 1512.79 Q1501.05 1512.79 1498.78 1512.42 Q1496.54 1512.05 1494.13 1511.31 L1494.13 1506.61 Q1496.21 1507.75 1498.44 1508.3 Q1500.66 1508.86 1503.14 1508.86 Q1507.14 1508.86 1509.48 1506.75 Q1511.82 1504.65 1511.82 1501.03 Q1511.82 1497.42 1509.48 1495.32 Q1507.14 1493.21 1503.14 1493.21 Q1501.26 1493.21 1499.39 1493.63 Q1497.53 1494.04 1495.59 1494.92 L1495.59 1477.56 Z" fill="#000000" fill-rule="evenodd" fill-opacity="1" /><path clip-path="url(#clip680)" d="M1869.46 1508.19 L1885.78 1508.19 L1885.78 1512.12 L1863.84 1512.12 L1863.84 1508.19 Q1866.5 1505.43 1871.09 1500.8 Q1875.69 1496.15 1876.87 1494.81 Q1879.12 1492.28 1880 1490.55 Q1880.9 1488.79 1880.9 1487.1 Q1880.9 1484.34 1878.96 1482.61 Q1877.03 1480.87 1873.93 1480.87 Q1871.73 1480.87 1869.28 1481.64 Q1866.85 1482.4 1864.07 1483.95 L1864.07 1479.23 Q1866.9 1478.09 1869.35 1477.52 Q1871.8 1476.94 1873.84 1476.94 Q1879.21 1476.94 1882.4 1479.62 Q1885.6 1482.31 1885.6 1486.8 Q1885.6 1488.93 1884.79 1490.85 Q1884 1492.75 1881.9 1495.34 Q1881.32 1496.01 1878.21 1499.23 Q1875.11 1502.42 1869.46 1508.19 Z" fill="#000000" fill-rule="evenodd" fill-opacity="1" /><path clip-path="url(#clip680)" d="M1895.6 1506.24 L1900.48 1506.24 L1900.48 1512.12 L1895.6 1512.12 L1895.6 1506.24 Z" fill="#000000" fill-rule="evenodd" fill-opacity="1" /><path clip-path="url(#clip680)" d="M1920.67 1480.64 Q1917.06 1480.64 1915.23 1484.21 Q1913.42 1487.75 1913.42 1494.88 Q1913.42 1501.98 1915.23 1505.55 Q1917.06 1509.09 1920.67 1509.09 Q1924.3 1509.09 1926.11 1505.55 Q1927.94 1501.98 1927.94 1494.88 Q1927.94 1487.75 1926.11 1484.21 Q1924.3 1480.64 1920.67 1480.64 M1920.67 1476.94 Q1926.48 1476.94 1929.53 1481.54 Q1932.61 1486.13 1932.61 1494.88 Q1932.61 1503.6 1929.53 1508.21 Q1926.48 1512.79 1920.67 1512.79 Q1914.86 1512.79 1911.78 1508.21 Q1908.72 1503.6 1908.72 1494.88 Q1908.72 1486.13 1911.78 1481.54 Q1914.86 1476.94 1920.67 1476.94 Z" fill="#000000" fill-rule="evenodd" fill-opacity="1" /><path clip-path="url(#clip680)" d="M2284.72 1508.19 L2301.04 1508.19 L2301.04 1512.12 L2279.09 1512.12 L2279.09 1508.19 Q2281.75 1505.43 2286.34 1500.8 Q2290.94 1496.15 2292.12 1494.81 Q2294.37 1492.28 2295.25 1490.55 Q2296.15 1488.79 2296.15 1487.1 Q2296.15 1484.34 2294.21 1482.61 Q2292.29 1480.87 2289.18 1480.87 Q2286.99 1480.87 2284.53 1481.64 Q2282.1 1482.4 2279.32 1483.95 L2279.32 1479.23 Q2282.15 1478.09 2284.6 1477.52 Q2287.05 1476.94 2289.09 1476.94 Q2294.46 1476.94 2297.66 1479.62 Q2300.85 1482.31 2300.85 1486.8 Q2300.85 1488.93 2300.04 1490.85 Q2299.25 1492.75 2297.15 1495.34 Q2296.57 1496.01 2293.47 1499.23 Q2290.36 1502.42 2284.72 1508.19 Z" fill="#000000" fill-rule="evenodd" fill-opacity="1" /><path clip-path="url(#clip680)" d="M2310.85 1506.24 L2315.73 1506.24 L2315.73 1512.12 L2310.85 1512.12 L2310.85 1506.24 Z" fill="#000000" fill-rule="evenodd" fill-opacity="1" /><path clip-path="url(#clip680)" d="M2325.97 1477.56 L2344.32 1477.56 L2344.32 1481.5 L2330.25 1481.5 L2330.25 1489.97 Q2331.27 1489.62 2332.29 1489.46 Q2333.3 1489.27 2334.32 1489.27 Q2340.11 1489.27 2343.49 1492.45 Q2346.87 1495.62 2346.87 1501.03 Q2346.87 1506.61 2343.4 1509.71 Q2339.92 1512.79 2333.61 1512.79 Q2331.43 1512.79 2329.16 1512.42 Q2326.92 1512.05 2324.51 1511.31 L2324.51 1506.61 Q2326.59 1507.75 2328.81 1508.3 Q2331.04 1508.86 2333.51 1508.86 Q2337.52 1508.86 2339.86 1506.75 Q2342.19 1504.65 2342.19 1501.03 Q2342.19 1497.42 2339.86 1495.32 Q2337.52 1493.21 2333.51 1493.21 Q2331.64 1493.21 2329.76 1493.63 Q2327.91 1494.04 2325.97 1494.92 L2325.97 1477.56 Z" fill="#000000" fill-rule="evenodd" fill-opacity="1" /><path clip-path="url(#clip680)" d="M1269.36 1537.9 Q1269.36 1538.19 1269.1 1539.19 Q1268.87 1540.16 1268.13 1542.06 Q1267.42 1543.92 1266.33 1546.02 Q1265.27 1548.08 1263.3 1550.69 Q1261.34 1553.3 1258.89 1555.58 Q1254.28 1559.9 1249.36 1562.22 Q1244.46 1564.54 1240.27 1565.28 L1239.34 1565.28 Q1238.31 1565.28 1238.31 1564.47 L1239.02 1561.51 L1243.04 1545.37 Q1244.3 1540.45 1244.3 1540.03 Q1244.3 1539.64 1244.14 1539.45 Q1244.01 1539.22 1243.24 1539.06 Q1242.5 1538.9 1241.01 1538.9 Q1240.4 1538.9 1240.11 1538.87 Q1239.86 1538.84 1239.63 1538.68 Q1239.4 1538.48 1239.4 1538.1 Q1239.4 1537.55 1239.63 1537.26 Q1239.89 1536.94 1240.08 1536.87 Q1240.27 1536.81 1240.66 1536.78 Q1241.21 1536.74 1243.04 1536.58 Q1244.88 1536.39 1246.46 1536.26 Q1248.04 1536.13 1248.71 1536.13 Q1249.1 1536.13 1249.32 1536.32 Q1249.55 1536.49 1249.55 1536.68 L1249.58 1536.84 L1243.11 1563.09 Q1245.49 1562.31 1247.84 1561.03 Q1250.23 1559.74 1252.8 1557.61 Q1255.38 1555.45 1257.57 1552.78 Q1259.76 1550.11 1261.69 1546.37 Q1263.66 1542.6 1264.88 1538.29 Q1265.1 1537.42 1265.65 1536.9 Q1266.23 1536.39 1266.65 1536.26 Q1267.07 1536.13 1267.46 1536.13 Q1268.33 1536.13 1268.84 1536.61 Q1269.36 1537.07 1269.36 1537.9 Z" fill="#000000" fill-rule="evenodd" fill-opacity="1" /><polyline clip-path="url(#clip682)" style="stroke:#000000; stroke-linecap:butt; stroke-linejoin:round; stroke-width:2; stroke-opacity:0.1; fill:none" points="
  156.112,1413.28 2352.76,1413.28 
  "/>
<polyline clip-path="url(#clip682)" style="stroke:#000000; stroke-linecap:butt; stroke-linejoin:round; stroke-width:2; stroke-opacity:0.1; fill:none" points="
  156.112,1120.13 2352.76,1120.13 
  "/>
<polyline clip-path="url(#clip682)" style="stroke:#000000; stroke-linecap:butt; stroke-linejoin:round; stroke-width:2; stroke-opacity:0.1; fill:none" points="
  156.112,826.983 2352.76,826.983 
  "/>
<polyline clip-path="url(#clip682)" style="stroke:#000000; stroke-linecap:butt; stroke-linejoin:round; stroke-width:2; stroke-opacity:0.1; fill:none" points="
  156.112,533.837 2352.76,533.837 
  "/>
<polyline clip-path="url(#clip682)" style="stroke:#000000; stroke-linecap:butt; stroke-linejoin:round; stroke-width:2; stroke-opacity:0.1; fill:none" points="
  156.112,240.691 2352.76,240.691 
  "/>
<polyline clip-path="url(#clip680)" style="stroke:#000000; stroke-linecap:butt; stroke-linejoin:round; stroke-width:4; stroke-opacity:1; fill:none" points="
  156.112,1451.45 156.112,102.45 
  "/>
<polyline clip-path="url(#clip680)" style="stroke:#000000; stroke-linecap:butt; stroke-linejoin:round; stroke-width:4; stroke-opacity:1; fill:none" points="
  156.112,1413.28 175.01,1413.28 
  "/>
<polyline clip-path="url(#clip680)" style="stroke:#000000; stroke-linecap:butt; stroke-linejoin:round; stroke-width:4; stroke-opacity:1; fill:none" points="
  156.112,1120.13 175.01,1120.13 
  "/>
<polyline clip-path="url(#clip680)" style="stroke:#000000; stroke-linecap:butt; stroke-linejoin:round; stroke-width:4; stroke-opacity:1; fill:none" points="
  156.112,826.983 175.01,826.983 
  "/>
<polyline clip-path="url(#clip680)" style="stroke:#000000; stroke-linecap:butt; stroke-linejoin:round; stroke-width:4; stroke-opacity:1; fill:none" points="
  156.112,533.837 175.01,533.837 
  "/>
<polyline clip-path="url(#clip680)" style="stroke:#000000; stroke-linecap:butt; stroke-linejoin:round; stroke-width:4; stroke-opacity:1; fill:none" points="
  156.112,240.691 175.01,240.691 
  "/>
<path clip-path="url(#clip680)" d="M62.9365 1399.07 Q59.3254 1399.07 57.4967 1402.64 Q55.6912 1406.18 55.6912 1413.31 Q55.6912 1420.42 57.4967 1423.98 Q59.3254 1427.52 62.9365 1427.52 Q66.5707 1427.52 68.3763 1423.98 Q70.205 1420.42 70.205 1413.31 Q70.205 1406.18 68.3763 1402.64 Q66.5707 1399.07 62.9365 1399.07 M62.9365 1395.37 Q68.7467 1395.37 71.8022 1399.98 Q74.8809 1404.56 74.8809 1413.31 Q74.8809 1422.04 71.8022 1426.64 Q68.7467 1431.23 62.9365 1431.23 Q57.1264 1431.23 54.0477 1426.64 Q50.9921 1422.04 50.9921 1413.31 Q50.9921 1404.56 54.0477 1399.98 Q57.1264 1395.37 62.9365 1395.37 Z" fill="#000000" fill-rule="evenodd" fill-opacity="1" /><path clip-path="url(#clip680)" d="M83.0984 1424.68 L87.9827 1424.68 L87.9827 1430.56 L83.0984 1430.56 L83.0984 1424.68 Z" fill="#000000" fill-rule="evenodd" fill-opacity="1" /><path clip-path="url(#clip680)" d="M108.168 1399.07 Q104.557 1399.07 102.728 1402.64 Q100.922 1406.18 100.922 1413.31 Q100.922 1420.42 102.728 1423.98 Q104.557 1427.52 108.168 1427.52 Q111.802 1427.52 113.608 1423.98 Q115.436 1420.42 115.436 1413.31 Q115.436 1406.18 113.608 1402.64 Q111.802 1399.07 108.168 1399.07 M108.168 1395.37 Q113.978 1395.37 117.033 1399.98 Q120.112 1404.56 120.112 1413.31 Q120.112 1422.04 117.033 1426.64 Q113.978 1431.23 108.168 1431.23 Q102.358 1431.23 99.2789 1426.64 Q96.2234 1422.04 96.2234 1413.31 Q96.2234 1404.56 99.2789 1399.98 Q102.358 1395.37 108.168 1395.37 Z" fill="#000000" fill-rule="evenodd" fill-opacity="1" /><path clip-path="url(#clip680)" d="M63.9319 1105.93 Q60.3208 1105.93 58.4921 1109.49 Q56.6865 1113.03 56.6865 1120.16 Q56.6865 1127.27 58.4921 1130.84 Q60.3208 1134.38 63.9319 1134.38 Q67.5661 1134.38 69.3717 1130.84 Q71.2004 1127.27 71.2004 1120.16 Q71.2004 1113.03 69.3717 1109.49 Q67.5661 1105.93 63.9319 1105.93 M63.9319 1102.22 Q69.742 1102.22 72.7976 1106.83 Q75.8763 1111.41 75.8763 1120.16 Q75.8763 1128.89 72.7976 1133.5 Q69.742 1138.08 63.9319 1138.08 Q58.1217 1138.08 55.043 1133.5 Q51.9875 1128.89 51.9875 1120.16 Q51.9875 1111.41 55.043 1106.83 Q58.1217 1102.22 63.9319 1102.22 Z" fill="#000000" fill-rule="evenodd" fill-opacity="1" /><path clip-path="url(#clip680)" d="M84.0938 1131.53 L88.978 1131.53 L88.978 1137.41 L84.0938 1137.41 L84.0938 1131.53 Z" fill="#000000" fill-rule="evenodd" fill-opacity="1" /><path clip-path="url(#clip680)" d="M99.2095 1102.85 L117.566 1102.85 L117.566 1106.78 L103.492 1106.78 L103.492 1115.26 Q104.51 1114.91 105.529 1114.75 Q106.547 1114.56 107.566 1114.56 Q113.353 1114.56 116.733 1117.73 Q120.112 1120.9 120.112 1126.32 Q120.112 1131.9 116.64 1135 Q113.168 1138.08 106.848 1138.08 Q104.672 1138.08 102.404 1137.71 Q100.159 1137.34 97.7511 1136.6 L97.7511 1131.9 Q99.8345 1133.03 102.057 1133.59 Q104.279 1134.15 106.756 1134.15 Q110.76 1134.15 113.098 1132.04 Q115.436 1129.93 115.436 1126.32 Q115.436 1122.71 113.098 1120.6 Q110.76 1118.5 106.756 1118.5 Q104.881 1118.5 103.006 1118.91 Q101.154 1119.33 99.2095 1120.21 L99.2095 1102.85 Z" fill="#000000" fill-rule="evenodd" fill-opacity="1" /><path clip-path="url(#clip680)" d="M53.7467 840.328 L61.3856 840.328 L61.3856 813.963 L53.0754 815.629 L53.0754 811.37 L61.3393 809.703 L66.0152 809.703 L66.0152 840.328 L73.654 840.328 L73.654 844.263 L53.7467 844.263 L53.7467 840.328 Z" fill="#000000" fill-rule="evenodd" fill-opacity="1" /><path clip-path="url(#clip680)" d="M83.0984 838.384 L87.9827 838.384 L87.9827 844.263 L83.0984 844.263 L83.0984 838.384 Z" fill="#000000" fill-rule="evenodd" fill-opacity="1" /><path clip-path="url(#clip680)" d="M108.168 812.782 Q104.557 812.782 102.728 816.347 Q100.922 819.889 100.922 827.018 Q100.922 834.125 102.728 837.689 Q104.557 841.231 108.168 841.231 Q111.802 841.231 113.608 837.689 Q115.436 834.125 115.436 827.018 Q115.436 819.889 113.608 816.347 Q111.802 812.782 108.168 812.782 M108.168 809.078 Q113.978 809.078 117.033 813.685 Q120.112 818.268 120.112 827.018 Q120.112 835.745 117.033 840.351 Q113.978 844.935 108.168 844.935 Q102.358 844.935 99.2789 840.351 Q96.2234 835.745 96.2234 827.018 Q96.2234 818.268 99.2789 813.685 Q102.358 809.078 108.168 809.078 Z" fill="#000000" fill-rule="evenodd" fill-opacity="1" /><path clip-path="url(#clip680)" d="M54.7421 547.182 L62.381 547.182 L62.381 520.817 L54.0708 522.483 L54.0708 518.224 L62.3347 516.557 L67.0106 516.557 L67.0106 547.182 L74.6494 547.182 L74.6494 551.117 L54.7421 551.117 L54.7421 547.182 Z" fill="#000000" fill-rule="evenodd" fill-opacity="1" /><path clip-path="url(#clip680)" d="M84.0938 545.238 L88.978 545.238 L88.978 551.117 L84.0938 551.117 L84.0938 545.238 Z" fill="#000000" fill-rule="evenodd" fill-opacity="1" /><path clip-path="url(#clip680)" d="M99.2095 516.557 L117.566 516.557 L117.566 520.493 L103.492 520.493 L103.492 528.965 Q104.51 528.617 105.529 528.455 Q106.547 528.27 107.566 528.27 Q113.353 528.27 116.733 531.442 Q120.112 534.613 120.112 540.029 Q120.112 545.608 116.64 548.71 Q113.168 551.789 106.848 551.789 Q104.672 551.789 102.404 551.418 Q100.159 551.048 97.7511 550.307 L97.7511 545.608 Q99.8345 546.742 102.057 547.298 Q104.279 547.853 106.756 547.853 Q110.76 547.853 113.098 545.747 Q115.436 543.641 115.436 540.029 Q115.436 536.418 113.098 534.312 Q110.76 532.205 106.756 532.205 Q104.881 532.205 103.006 532.622 Q101.154 533.039 99.2095 533.918 L99.2095 516.557 Z" fill="#000000" fill-rule="evenodd" fill-opacity="1" /><path clip-path="url(#clip680)" d="M56.9643 254.036 L73.2837 254.036 L73.2837 257.971 L51.3393 257.971 L51.3393 254.036 Q54.0014 251.282 58.5847 246.652 Q63.1911 241.999 64.3717 240.657 Q66.617 238.133 67.4967 236.397 Q68.3994 234.638 68.3994 232.948 Q68.3994 230.194 66.455 228.458 Q64.5337 226.722 61.4319 226.722 Q59.2328 226.722 56.7791 227.485 Q54.3486 228.249 51.5708 229.8 L51.5708 225.078 Q54.3949 223.944 56.8486 223.365 Q59.3023 222.786 61.3393 222.786 Q66.7096 222.786 69.9041 225.472 Q73.0985 228.157 73.0985 232.647 Q73.0985 234.777 72.2883 236.698 Q71.5013 238.596 69.3948 241.189 Q68.8161 241.86 65.7143 245.078 Q62.6124 248.272 56.9643 254.036 Z" fill="#000000" fill-rule="evenodd" fill-opacity="1" /><path clip-path="url(#clip680)" d="M83.0984 252.092 L87.9827 252.092 L87.9827 257.971 L83.0984 257.971 L83.0984 252.092 Z" fill="#000000" fill-rule="evenodd" fill-opacity="1" /><path clip-path="url(#clip680)" d="M108.168 226.49 Q104.557 226.49 102.728 230.055 Q100.922 233.596 100.922 240.726 Q100.922 247.833 102.728 251.397 Q104.557 254.939 108.168 254.939 Q111.802 254.939 113.608 251.397 Q115.436 247.833 115.436 240.726 Q115.436 233.596 113.608 230.055 Q111.802 226.49 108.168 226.49 M108.168 222.786 Q113.978 222.786 117.033 227.393 Q120.112 231.976 120.112 240.726 Q120.112 249.453 117.033 254.059 Q113.978 258.643 108.168 258.643 Q102.358 258.643 99.2789 254.059 Q96.2234 249.453 96.2234 240.726 Q96.2234 231.976 99.2789 227.393 Q102.358 222.786 108.168 222.786 Z" fill="#000000" fill-rule="evenodd" fill-opacity="1" /><path clip-path="url(#clip680)" d="M1021.15 18.0373 Q1021.15 22.6281 1017.75 26.85 Q1014.39 31.0719 1008.9 33.6542 Q1003.45 36.1956 997.584 36.1956 L983.32 36.1956 L978.114 57.1821 Q978.073 57.305 977.95 57.8379 Q977.827 58.3298 977.827 58.6167 Q977.827 59.6414 979.098 59.8874 Q980.409 60.1333 983.32 60.1333 Q985.205 60.1333 985.492 60.4612 Q985.656 60.6662 985.656 61.0351 Q985.656 61.6089 985.492 62.0188 Q985.328 62.3877 985 62.5107 Q984.713 62.6336 984.508 62.6746 Q984.303 62.7156 983.975 62.7156 Q983.115 62.7156 981.27 62.6336 Q979.467 62.5517 978.524 62.5517 L973.154 62.4697 L962.497 62.7156 Q961.226 62.7156 961.226 61.6909 Q961.226 60.9121 961.554 60.5842 Q961.882 60.2153 962.251 60.1743 Q962.62 60.1333 963.563 60.1333 Q965.612 60.1333 966.842 60.0103 Q968.072 59.8874 968.85 59.7234 Q969.67 59.5185 970.08 58.9446 Q970.531 58.3708 970.736 57.8789 Q970.941 57.346 971.228 56.1573 L982.459 11.0691 Q982.787 9.71649 982.787 9.51154 Q982.787 8.81472 982.377 8.56879 Q982.008 8.28186 980.942 8.1589 Q978.893 7.99494 977.335 7.99494 Q976.31 7.99494 975.9 7.95395 Q975.532 7.91296 975.204 7.70801 Q974.917 7.46208 974.917 6.97021 Q974.917 6.19141 975.245 5.8635 Q975.614 5.49459 976.023 5.4536 Q976.433 5.37162 977.417 5.37162 L1004.63 5.37162 Q1012.46 5.37162 1016.81 9.10165 Q1021.15 12.8317 1021.15 18.0373 M1013.36 16.0288 Q1013.36 7.99494 1001.93 7.99494 L993.895 7.99494 Q991.23 7.99494 990.575 8.48681 Q989.919 8.93769 989.345 11.1921 L983.647 34.0231 L995.493 34.0231 Q1003.45 34.0231 1008.4 29.5553 Q1010.66 27.5058 1012.01 23.243 Q1013.36 18.9801 1013.36 16.0288 Z" fill="#000000" fill-rule="evenodd" fill-opacity="1" /><path clip-path="url(#clip680)" d="M1014.57 36.0874 Q1014.57 26.2337 1018.24 18.288 Q1019.81 14.9559 1022 12.165 Q1024.2 9.37404 1025.65 8.14943 Q1027.1 6.92483 1027.5 6.92483 Q1028.07 6.92483 1028.1 7.49441 Q1028.1 7.77921 1027.33 8.49118 Q1017.93 18.0602 1017.96 36.0874 Q1017.96 54.1717 1027.1 63.3704 Q1028.1 64.3672 1028.1 64.6805 Q1028.1 65.2501 1027.5 65.2501 Q1027.1 65.2501 1025.7 64.0824 Q1024.31 62.9148 1022.14 60.2377 Q1019.98 57.5607 1018.41 54.2856 Q1014.57 46.3399 1014.57 36.0874 Z" fill="#000000" fill-rule="evenodd" fill-opacity="1" /><path clip-path="url(#clip680)" d="M1085.44 27.8747 Q1085.44 28.2436 1085.11 29.5143 Q1084.82 30.744 1083.88 33.1624 Q1082.98 35.5397 1081.59 38.204 Q1080.23 40.8274 1077.73 44.1475 Q1075.23 47.4676 1072.12 50.3779 Q1066.26 55.8704 1059.98 58.8216 Q1053.75 61.7729 1048.43 62.7156 L1047.24 62.7156 Q1045.92 62.7156 1045.92 61.6909 L1046.83 57.9199 L1051.95 37.3843 Q1053.55 31.1129 1053.55 30.58 Q1053.55 30.0882 1053.34 29.8422 Q1053.18 29.5553 1052.2 29.3504 Q1051.25 29.1454 1049.37 29.1454 Q1048.59 29.1454 1048.22 29.1044 Q1047.89 29.0634 1047.61 28.8585 Q1047.32 28.6125 1047.32 28.1207 Q1047.32 27.4239 1047.61 27.055 Q1047.93 26.6451 1048.18 26.5631 Q1048.43 26.4811 1048.92 26.4401 Q1049.61 26.3991 1051.95 26.1942 Q1054.29 25.9482 1056.3 25.7843 Q1058.3 25.6203 1059.16 25.6203 Q1059.66 25.6203 1059.94 25.8663 Q1060.23 26.0712 1060.23 26.3171 L1060.27 26.5221 L1052.03 59.9284 Q1055.07 58.9446 1058.06 57.305 Q1061.09 55.6655 1064.37 52.9602 Q1067.65 50.2139 1070.44 46.8118 Q1073.22 43.4097 1075.68 38.6549 Q1078.18 33.8592 1079.74 28.3666 Q1080.03 27.2599 1080.72 26.6041 Q1081.46 25.9482 1082 25.7843 Q1082.53 25.6203 1083.02 25.6203 Q1084.13 25.6203 1084.78 26.2352 Q1085.44 26.809 1085.44 27.8747 Z" fill="#000000" fill-rule="evenodd" fill-opacity="1" /><path clip-path="url(#clip680)" d="M1110.26 64.3142 Q1110.26 63.8223 1110.63 63.5354 Q1111.04 63.2895 1112.27 62.7156 L1153.26 43.9015 Q1156.45 42.3849 1158.09 41.7291 Q1156.41 41.0733 1153.26 39.5567 L1112.27 20.7426 Q1112.1 20.6606 1111.73 20.4967 Q1111.36 20.3327 1111.12 20.2097 Q1110.91 20.0868 1110.71 19.9228 Q1110.5 19.7179 1110.38 19.5539 Q1110.26 19.39 1110.26 19.144 Q1110.26 18.3242 1111.2 18.3242 Q1111.61 18.3242 1113.29 19.144 L1159.86 40.3765 Q1159.94 40.3765 1160.14 40.4994 Q1160.39 40.6224 1160.55 40.7864 Q1160.72 40.9093 1160.88 41.0323 Q1161.04 41.1553 1161.13 41.3192 Q1161.21 41.4832 1161.21 41.7291 Q1161.13 42.4669 1158.79 43.5736 L1113.29 64.3142 Q1111.61 65.134 1111.2 65.134 Q1110.26 65.134 1110.26 64.3142 Z" fill="#000000" fill-rule="evenodd" fill-opacity="1" /><path clip-path="url(#clip680)" d="M1198.22 14.7992 L1198.22 12.1758 Q1208.3 12.1758 1213.51 6.80625 Q1214.94 6.80625 1215.19 7.13416 Q1215.43 7.46208 1215.43 8.97868 L1215.43 56.0754 Q1215.43 58.5757 1216.66 59.3545 Q1217.89 60.1333 1223.26 60.1333 L1225.93 60.1333 L1225.93 62.7156 Q1222.98 62.4697 1212.32 62.4697 Q1201.66 62.4697 1198.75 62.7156 L1198.75 60.1333 L1201.42 60.1333 Q1206.7 60.1333 1207.97 59.3955 Q1209.24 58.6167 1209.24 56.0754 L1209.24 12.5857 Q1204.86 14.7992 1198.22 14.7992 Z" fill="#000000" fill-rule="evenodd" fill-opacity="1" /><path clip-path="url(#clip680)" d="M1234.62 64.6805 Q1234.62 64.3957 1235.36 63.6837 Q1244.75 54.1147 1244.75 36.0874 Q1244.75 18.0032 1235.73 8.86141 Q1234.62 7.80768 1234.62 7.49441 Q1234.62 6.92483 1235.19 6.92483 Q1235.58 6.92483 1236.98 8.09248 Q1238.4 9.26012 1240.54 11.9372 Q1242.7 14.6142 1244.3 17.8893 Q1248.14 25.835 1248.14 36.0874 Q1248.14 45.9412 1244.47 53.8869 Q1242.9 57.2189 1240.71 60.0099 Q1238.52 62.8009 1237.06 64.0255 Q1235.61 65.2501 1235.19 65.2501 Q1234.62 65.2501 1234.62 64.6805 Z" fill="#000000" fill-rule="evenodd" fill-opacity="1" /><path clip-path="url(#clip680)" d="M1280.3 49.968 Q1280.38 48.9432 1281.98 48.9432 L1333.42 48.9432 Q1335.84 48.9432 1335.88 49.886 Q1335.88 50.9107 1333.59 50.8697 L1282.56 50.8697 Q1280.3 50.9107 1280.3 49.968 M1280.3 33.5722 Q1280.3 32.5475 1282.06 32.5885 L1333.34 32.5885 Q1335.84 32.5885 1335.88 33.5722 Q1335.88 34.515 1333.75 34.515 L1281.98 34.515 Q1280.3 34.515 1280.3 33.5722 Z" fill="#000000" fill-rule="evenodd" fill-opacity="1" /><path clip-path="url(#clip680)" d="M1368.26 35.8676 Q1368.26 23.5299 1371.38 16.8076 Q1375.72 6.80625 1385.97 6.80625 Q1388.14 6.80625 1390.4 7.42109 Q1392.69 7.99494 1395.56 10.2493 Q1398.47 12.5038 1400.23 16.1928 Q1403.59 23.3249 1403.59 35.8676 Q1403.59 48.1234 1400.48 54.8047 Q1395.93 64.5601 1385.89 64.5601 Q1382.12 64.5601 1378.26 62.6336 Q1374.45 60.7072 1372.03 56.0754 Q1368.26 49.1482 1368.26 35.8676 M1375.23 34.8429 Q1375.23 47.5086 1376.13 52.5503 Q1377.16 58.0019 1379.94 60.3792 Q1382.77 62.7156 1385.89 62.7156 Q1389.25 62.7156 1392.04 60.2153 Q1394.86 57.6739 1395.72 52.2224 Q1396.67 46.8528 1396.63 34.8429 Q1396.63 23.161 1395.81 18.4882 Q1394.7 13.0366 1391.75 10.8642 Q1388.84 8.65077 1385.89 8.65077 Q1384.78 8.65077 1383.59 8.97868 Q1382.44 9.3066 1380.76 10.2493 Q1379.08 11.1921 1377.77 13.5285 Q1376.5 15.8649 1375.89 19.39 Q1375.23 23.9398 1375.23 34.8429 Z" fill="#000000" fill-rule="evenodd" fill-opacity="1" /><path clip-path="url(#clip680)" d="M1411.1 61.363 Q1409.83 60.0103 1409.83 58.2478 Q1409.83 56.4853 1411.1 55.2146 Q1412.37 53.9029 1414.3 53.9029 Q1416.14 53.9029 1417.37 55.1326 Q1418.64 56.3213 1418.64 58.2888 Q1418.64 60.2153 1417.29 61.4859 Q1415.98 62.7156 1414.3 62.7156 Q1412.37 62.7156 1411.1 61.363 Z" fill="#000000" fill-rule="evenodd" fill-opacity="1" /><path clip-path="url(#clip680)" d="M1432.93 35.8676 Q1432.93 23.5299 1436.05 16.8076 Q1440.39 6.80625 1450.64 6.80625 Q1452.81 6.80625 1455.06 7.42109 Q1457.36 7.99494 1460.23 10.2493 Q1463.14 12.5038 1464.9 16.1928 Q1468.26 23.3249 1468.26 35.8676 Q1468.26 48.1234 1465.15 54.8047 Q1460.6 64.5601 1450.56 64.5601 Q1446.79 64.5601 1442.93 62.6336 Q1439.12 60.7072 1436.7 56.0754 Q1432.93 49.1482 1432.93 35.8676 M1439.9 34.8429 Q1439.9 47.5086 1440.8 52.5503 Q1441.83 58.0019 1444.61 60.3792 Q1447.44 62.7156 1450.56 62.7156 Q1453.92 62.7156 1456.7 60.2153 Q1459.53 57.6739 1460.39 52.2224 Q1461.34 46.8528 1461.3 34.8429 Q1461.3 23.161 1460.48 18.4882 Q1459.37 13.0366 1456.42 10.8642 Q1453.51 8.65077 1450.56 8.65077 Q1449.45 8.65077 1448.26 8.97868 Q1447.11 9.3066 1445.43 10.2493 Q1443.75 11.1921 1442.44 13.5285 Q1441.17 15.8649 1440.55 19.39 Q1439.9 23.9398 1439.9 34.8429 Z" fill="#000000" fill-rule="evenodd" fill-opacity="1" /><path clip-path="url(#clip680)" d="M1469.25 23.243 L1472 5.98646 L1474.09 5.98646 Q1474.33 7.0112 1474.74 7.46208 Q1475.19 7.91296 1477.57 8.28186 Q1479.99 8.65077 1484.87 8.65077 L1505.24 8.65077 Q1505.24 10.5773 1504.5 11.602 L1493.15 27.5468 Q1489.54 32.5885 1487.94 41.8931 Q1487 48.1234 1487.04 55.6655 L1487.04 59.9284 Q1487.04 64.5601 1483.15 64.5601 Q1479.29 64.5601 1479.29 59.9284 Q1479.29 43.9015 1489.62 28.3666 Q1490.73 26.768 1494.79 21.0705 Q1498.89 15.373 1499.05 15.1271 L1481.67 15.1271 Q1474.05 15.1271 1473.43 15.6189 Q1472.61 16.3568 1471.34 23.243 L1469.25 23.243 Z" fill="#000000" fill-rule="evenodd" fill-opacity="1" /><path clip-path="url(#clip680)" d="M1506.07 14.7992 L1506.07 12.1758 Q1516.15 12.1758 1521.36 6.80625 Q1522.8 6.80625 1523.04 7.13416 Q1523.29 7.46208 1523.29 8.97868 L1523.29 56.0754 Q1523.29 58.5757 1524.52 59.3545 Q1525.75 60.1333 1531.12 60.1333 L1533.78 60.1333 L1533.78 62.7156 Q1530.83 62.4697 1520.17 62.4697 Q1509.51 62.4697 1506.6 62.7156 L1506.6 60.1333 L1509.27 60.1333 Q1514.56 60.1333 1515.83 59.3955 Q1517.1 58.6167 1517.1 56.0754 L1517.1 12.5857 Q1512.71 14.7992 1506.07 14.7992 Z" fill="#000000" fill-rule="evenodd" fill-opacity="1" /><polyline clip-path="url(#clip682)" style="stroke:#009af9; stroke-linecap:butt; stroke-linejoin:round; stroke-width:4; stroke-opacity:1; fill:none" points="
  218.281,1413.27 228.695,1413.25 239.108,1413.21 249.522,1413.11 259.936,1412.89 270.349,1412.41 280.763,1411.44 291.176,1409.6 301.59,1406.3 312.004,1400.69 
  322.417,1391.66 332.831,1377.92 343.244,1358.07 353.658,1330.83 364.072,1295.37 374.485,1251.49 384.899,1199.95 395.312,1142.45 405.726,1081.48 416.14,1019.93 
  426.553,960.493 436.967,905.067 447.38,854.409 457.794,808.055 468.208,764.556 478.621,721.892 489.035,677.903 499.448,630.635 509.862,578.635 520.276,521.234 
  530.689,458.863 541.103,393.296 551.516,327.677 561.93,266.183 572.344,213.35 582.757,173.22 593.171,148.596 603.584,140.63 613.998,148.84 624.412,171.483 
  634.825,206.07 645.239,249.812 655.652,299.862 666.066,353.372 676.479,407.477 686.893,459.401 697.307,506.742 707.72,547.894 718.134,582.42 728.547,611.138 
  738.961,635.842 749.375,658.716 759.788,681.677 770.202,705.895 780.615,731.659 791.029,758.557 801.443,785.834 811.856,812.737 822.27,838.736 832.683,863.603 
  843.097,887.403 853.511,910.462 863.924,933.329 874.338,956.694 884.751,981.228 895.165,1007.36 905.579,1035.01 915.992,1063.51 926.406,1091.57 936.819,1117.64 
  947.233,1140.27 957.647,1158.61 968.06,1172.65 978.474,1183.29 988.887,1192.03 999.301,1200.52 1009.71,1210.08 1020.13,1221.34 1030.54,1234.19 1040.96,1247.92 
  1051.37,1261.55 1061.78,1274.13 1072.2,1285.06 1082.61,1294.1 1093.02,1301.43 1103.44,1307.41 1113.85,1312.48 1124.26,1317 1134.68,1321.13 1145.09,1324.93 
  1155.5,1328.34 1165.92,1331.37 1176.33,1334.09 1186.75,1336.7 1197.16,1339.44 1207.57,1342.45 1217.99,1345.75 1228.4,1349.17 1238.81,1352.42 1249.23,1355.17 
  1259.64,1357.22 1270.05,1358.52 1280.47,1359.24 1290.88,1359.68 1301.3,1360.21 1311.71,1361.18 1322.12,1362.85 1332.54,1365.38 1342.95,1368.8 1353.36,1372.99 
  1363.78,1377.67 1374.19,1382.48 1384.6,1387.01 1395.02,1390.93 1405.43,1394 1415.84,1396.18 1426.26,1397.57 1436.67,1398.34 1447.09,1398.64 1457.5,1398.6 
  1467.91,1398.25 1478.33,1397.64 1488.74,1396.78 1499.15,1395.74 1509.57,1394.58 1519.98,1393.38 1530.39,1392.15 1540.81,1390.86 1551.22,1389.46 1561.64,1387.92 
  1572.05,1386.3 1582.46,1384.79 1592.88,1383.66 1603.29,1383.22 1613.7,1383.69 1624.12,1385.16 1634.53,1387.49 1644.94,1390.37 1655.36,1393.37 1665.77,1396.07 
  1676.18,1398.12 1686.6,1399.35 1697.01,1399.72 1707.43,1399.4 1717.84,1398.62 1728.25,1397.68 1738.67,1396.83 1749.08,1396.27 1759.49,1396.05 1769.91,1396.13 
  1780.32,1396.37 1790.73,1396.58 1801.15,1396.58 1811.56,1396.28 1821.97,1395.67 1832.39,1394.83 1842.8,1393.89 1853.22,1392.99 1863.63,1392.17 1874.04,1391.45 
  1884.46,1390.78 1894.87,1390.15 1905.28,1389.62 1915.7,1389.35 1926.11,1389.51 1936.52,1390.29 1946.94,1391.77 1957.35,1393.93 1967.77,1396.6 1978.18,1399.53 
  1988.59,1402.44 1999.01,1405.06 2009.42,1407.2 2019.83,1408.73 2030.25,1409.59 2040.66,1409.81 2051.07,1409.46 2061.49,1408.67 2071.9,1407.58 2082.31,1406.41 
  2092.73,1405.34 2103.14,1404.58 2113.56,1404.27 2123.97,1404.46 2134.38,1405.13 2144.8,1406.18 2155.21,1407.44 2165.62,1408.75 2176.04,1409.96 2186.45,1410.99 
  2196.86,1411.79 2207.28,1412.37 2217.69,1412.75 2228.11,1412.99 2238.52,1413.13 2248.93,1413.21 2259.35,1413.24 2269.76,1413.26 2280.17,1413.27 2290.59,1413.27 
  
  "/>
<polyline clip-path="url(#clip682)" style="stroke:#000000; stroke-linecap:butt; stroke-linejoin:round; stroke-width:4; stroke-opacity:1; fill:none" points="
  1068.72,2800.45 1068.72,-1246.55 
  "/>
</svg>
