<?xml version="1.0" encoding="utf-8"?>
<svg xmlns="http://www.w3.org/2000/svg" xmlns:xlink="http://www.w3.org/1999/xlink" width="600" height="400" viewBox="0 0 2400 1600">
<defs>
  <clipPath id="clip670">
    <rect x="0" y="0" width="2400" height="1600"/>
  </clipPath>
</defs>
<path clip-path="url(#clip670)" d="
M0 1600 L2400 1600 L2400 0 L0 0  Z
  " fill="#ffffff" fill-rule="evenodd" fill-opacity="1"/>
<defs>
  <clipPath id="clip671">
    <rect x="480" y="0" width="1681" height="1600"/>
  </clipPath>
</defs>
<defs>
  <clipPath id="clip672">
    <rect x="422" y="47" width="1931" height="1381"/>
  </clipPath>
</defs>
<path clip-path="url(#clip670)" d="
M422.753 1427.31 L2352.76 1427.31 L2352.76 47.2441 L422.753 47.2441  Z
  " fill="#ffffff" fill-rule="evenodd" fill-opacity="1"/>
<polyline clip-path="url(#clip672)" style="stroke:#000000; stroke-linecap:butt; stroke-linejoin:round; stroke-width:2; stroke-opacity:0.1; fill:none" points="
  470.428,1427.31 470.428,47.2441 
  "/>
<polyline clip-path="url(#clip672)" style="stroke:#000000; stroke-linecap:butt; stroke-linejoin:round; stroke-width:2; stroke-opacity:0.1; fill:none" points="
  860.282,1427.31 860.282,47.2441 
  "/>
<polyline clip-path="url(#clip672)" style="stroke:#000000; stroke-linecap:butt; stroke-linejoin:round; stroke-width:2; stroke-opacity:0.1; fill:none" points="
  1250.14,1427.31 1250.14,47.2441 
  "/>
<polyline clip-path="url(#clip672)" style="stroke:#000000; stroke-linecap:butt; stroke-linejoin:round; stroke-width:2; stroke-opacity:0.1; fill:none" points="
  1639.99,1427.31 1639.99,47.2441 
  "/>
<polyline clip-path="url(#clip672)" style="stroke:#000000; stroke-linecap:butt; stroke-linejoin:round; stroke-width:2; stroke-opacity:0.1; fill:none" points="
  2029.84,1427.31 2029.84,47.2441 
  "/>
<polyline clip-path="url(#clip670)" style="stroke:#000000; stroke-linecap:butt; stroke-linejoin:round; stroke-width:4; stroke-opacity:1; fill:none" points="
  422.753,1427.31 2352.76,1427.31 
  "/>
<polyline clip-path="url(#clip670)" style="stroke:#000000; stroke-linecap:butt; stroke-linejoin:round; stroke-width:4; stroke-opacity:1; fill:none" points="
  470.428,1427.31 470.428,1408.42 
  "/>
<polyline clip-path="url(#clip670)" style="stroke:#000000; stroke-linecap:butt; stroke-linejoin:round; stroke-width:4; stroke-opacity:1; fill:none" points="
  860.282,1427.31 860.282,1408.42 
  "/>
<polyline clip-path="url(#clip670)" style="stroke:#000000; stroke-linecap:butt; stroke-linejoin:round; stroke-width:4; stroke-opacity:1; fill:none" points="
  1250.14,1427.31 1250.14,1408.42 
  "/>
<polyline clip-path="url(#clip670)" style="stroke:#000000; stroke-linecap:butt; stroke-linejoin:round; stroke-width:4; stroke-opacity:1; fill:none" points="
  1639.99,1427.31 1639.99,1408.42 
  "/>
<polyline clip-path="url(#clip670)" style="stroke:#000000; stroke-linecap:butt; stroke-linejoin:round; stroke-width:4; stroke-opacity:1; fill:none" points="
  2029.84,1427.31 2029.84,1408.42 
  "/>
<path clip-path="url(#clip670)" d="M445.116 1484.05 L452.755 1484.05 L452.755 1457.69 L444.445 1459.35 L444.445 1455.09 L452.709 1453.43 L457.385 1453.43 L457.385 1484.05 L465.023 1484.05 L465.023 1487.99 L445.116 1487.99 L445.116 1484.05 Z" fill="#000000" fill-rule="evenodd" fill-opacity="1" /><path clip-path="url(#clip670)" d="M484.468 1456.51 Q480.857 1456.51 479.028 1460.07 Q477.222 1463.61 477.222 1470.74 Q477.222 1477.85 479.028 1481.41 Q480.857 1484.95 484.468 1484.95 Q488.102 1484.95 489.908 1481.41 Q491.736 1477.85 491.736 1470.74 Q491.736 1463.61 489.908 1460.07 Q488.102 1456.51 484.468 1456.51 M484.468 1452.8 Q490.278 1452.8 493.333 1457.41 Q496.412 1461.99 496.412 1470.74 Q496.412 1479.47 493.333 1484.07 Q490.278 1488.66 484.468 1488.66 Q478.658 1488.66 475.579 1484.07 Q472.523 1479.47 472.523 1470.74 Q472.523 1461.99 475.579 1457.41 Q478.658 1452.8 484.468 1452.8 Z" fill="#000000" fill-rule="evenodd" fill-opacity="1" /><path clip-path="url(#clip670)" d="M835.768 1484.05 L843.407 1484.05 L843.407 1457.69 L835.097 1459.35 L835.097 1455.09 L843.361 1453.43 L848.037 1453.43 L848.037 1484.05 L855.676 1484.05 L855.676 1487.99 L835.768 1487.99 L835.768 1484.05 Z" fill="#000000" fill-rule="evenodd" fill-opacity="1" /><path clip-path="url(#clip670)" d="M869.148 1484.05 L885.467 1484.05 L885.467 1487.99 L863.523 1487.99 L863.523 1484.05 Q866.185 1481.3 870.768 1476.67 Q875.375 1472.01 876.555 1470.67 Q878.801 1468.15 879.68 1466.41 Q880.583 1464.65 880.583 1462.96 Q880.583 1460.21 878.639 1458.47 Q876.717 1456.74 873.615 1456.74 Q871.416 1456.74 868.963 1457.5 Q866.532 1458.26 863.754 1459.82 L863.754 1455.09 Q866.578 1453.96 869.032 1453.38 Q871.486 1452.8 873.523 1452.8 Q878.893 1452.8 882.088 1455.49 Q885.282 1458.17 885.282 1462.66 Q885.282 1464.79 884.472 1466.71 Q883.685 1468.61 881.578 1471.2 Q881 1471.88 877.898 1475.09 Q874.796 1478.29 869.148 1484.05 Z" fill="#000000" fill-rule="evenodd" fill-opacity="1" /><path clip-path="url(#clip670)" d="M1224.58 1484.05 L1232.22 1484.05 L1232.22 1457.69 L1223.91 1459.35 L1223.91 1455.09 L1232.17 1453.43 L1236.85 1453.43 L1236.85 1484.05 L1244.49 1484.05 L1244.49 1487.99 L1224.58 1487.99 L1224.58 1484.05 Z" fill="#000000" fill-rule="evenodd" fill-opacity="1" /><path clip-path="url(#clip670)" d="M1266.78 1457.5 L1254.97 1475.95 L1266.78 1475.95 L1266.78 1457.5 M1265.55 1453.43 L1271.43 1453.43 L1271.43 1475.95 L1276.36 1475.95 L1276.36 1479.84 L1271.43 1479.84 L1271.43 1487.99 L1266.78 1487.99 L1266.78 1479.84 L1251.18 1479.84 L1251.18 1475.32 L1265.55 1453.43 Z" fill="#000000" fill-rule="evenodd" fill-opacity="1" /><path clip-path="url(#clip670)" d="M1614.6 1484.05 L1622.24 1484.05 L1622.24 1457.69 L1613.93 1459.35 L1613.93 1455.09 L1622.19 1453.43 L1626.86 1453.43 L1626.86 1484.05 L1634.5 1484.05 L1634.5 1487.99 L1614.6 1487.99 L1614.6 1484.05 Z" fill="#000000" fill-rule="evenodd" fill-opacity="1" /><path clip-path="url(#clip670)" d="M1654.53 1468.84 Q1651.38 1468.84 1649.53 1471 Q1647.7 1473.15 1647.7 1476.9 Q1647.7 1480.63 1649.53 1482.8 Q1651.38 1484.95 1654.53 1484.95 Q1657.67 1484.95 1659.5 1482.8 Q1661.36 1480.63 1661.36 1476.9 Q1661.36 1473.15 1659.5 1471 Q1657.67 1468.84 1654.53 1468.84 M1663.81 1454.19 L1663.81 1458.45 Q1662.05 1457.62 1660.24 1457.18 Q1658.46 1456.74 1656.7 1456.74 Q1652.07 1456.74 1649.62 1459.86 Q1647.19 1462.99 1646.84 1469.31 Q1648.21 1467.29 1650.27 1466.23 Q1652.33 1465.14 1654.8 1465.14 Q1660.01 1465.14 1663.02 1468.31 Q1666.05 1471.46 1666.05 1476.9 Q1666.05 1482.22 1662.91 1485.44 Q1659.76 1488.66 1654.53 1488.66 Q1648.53 1488.66 1645.36 1484.07 Q1642.19 1479.47 1642.19 1470.74 Q1642.19 1462.55 1646.08 1457.69 Q1649.97 1452.8 1656.52 1452.8 Q1658.28 1452.8 1660.06 1453.15 Q1661.86 1453.5 1663.81 1454.19 Z" fill="#000000" fill-rule="evenodd" fill-opacity="1" /><path clip-path="url(#clip670)" d="M2004.58 1484.05 L2012.22 1484.05 L2012.22 1457.69 L2003.91 1459.35 L2003.91 1455.09 L2012.17 1453.43 L2016.85 1453.43 L2016.85 1484.05 L2024.48 1484.05 L2024.48 1487.99 L2004.58 1487.99 L2004.58 1484.05 Z" fill="#000000" fill-rule="evenodd" fill-opacity="1" /><path clip-path="url(#clip670)" d="M2043.93 1471.57 Q2040.6 1471.57 2038.67 1473.36 Q2036.78 1475.14 2036.78 1478.26 Q2036.78 1481.39 2038.67 1483.17 Q2040.6 1484.95 2043.93 1484.95 Q2047.26 1484.95 2049.18 1483.17 Q2051.11 1481.37 2051.11 1478.26 Q2051.11 1475.14 2049.18 1473.36 Q2047.29 1471.57 2043.93 1471.57 M2039.25 1469.58 Q2036.24 1468.84 2034.55 1466.78 Q2032.89 1464.72 2032.89 1461.76 Q2032.89 1457.62 2035.83 1455.21 Q2038.79 1452.8 2043.93 1452.8 Q2049.09 1452.8 2052.03 1455.21 Q2054.97 1457.62 2054.97 1461.76 Q2054.97 1464.72 2053.28 1466.78 Q2051.61 1468.84 2048.63 1469.58 Q2052.01 1470.37 2053.88 1472.66 Q2055.78 1474.95 2055.78 1478.26 Q2055.78 1483.29 2052.7 1485.97 Q2049.65 1488.66 2043.93 1488.66 Q2038.21 1488.66 2035.13 1485.97 Q2032.08 1483.29 2032.08 1478.26 Q2032.08 1474.95 2033.98 1472.66 Q2035.87 1470.37 2039.25 1469.58 M2037.54 1462.2 Q2037.54 1464.88 2039.21 1466.39 Q2040.9 1467.89 2043.93 1467.89 Q2046.94 1467.89 2048.63 1466.39 Q2050.34 1464.88 2050.34 1462.2 Q2050.34 1459.51 2048.63 1458.01 Q2046.94 1456.51 2043.93 1456.51 Q2040.9 1456.51 2039.21 1458.01 Q2037.54 1459.51 2037.54 1462.2 Z" fill="#000000" fill-rule="evenodd" fill-opacity="1" /><path clip-path="url(#clip670)" d="M1349.31 1515.56 Q1349.31 1517.33 1348.18 1518.42 Q1347.09 1519.52 1345.7 1519.52 Q1344.71 1519.52 1343.97 1518.91 Q1343.26 1518.29 1343.26 1517.23 Q1343.26 1516.14 1344.09 1514.98 Q1344.93 1513.82 1346.83 1513.66 Q1345.58 1512.47 1343.58 1512.47 Q1342.58 1512.47 1341.74 1513.11 Q1340.94 1513.72 1340.49 1514.72 Q1340 1515.75 1338.91 1521.58 Q1338.55 1523.48 1338.23 1525.32 Q1337.91 1527.15 1337.52 1529.08 L1343 1529.08 Q1343.71 1529.08 1344 1529.12 Q1344.29 1529.15 1344.51 1529.31 Q1344.77 1529.47 1344.77 1529.82 Q1344.77 1530.73 1344.35 1530.95 Q1343.97 1531.15 1342.81 1531.15 L1337.14 1531.15 L1333.18 1552.05 Q1333.08 1552.66 1332.66 1554.59 Q1332.27 1556.49 1331.34 1559.61 Q1330.41 1562.77 1329.47 1564.64 Q1328.96 1565.7 1328.28 1566.7 Q1327.64 1567.73 1326.7 1568.76 Q1325.77 1569.79 1324.55 1570.4 Q1323.32 1571.05 1322.03 1571.05 Q1319.84 1571.05 1318.14 1569.82 Q1316.43 1568.6 1316.43 1566.51 Q1316.43 1564.74 1317.52 1563.64 Q1318.65 1562.55 1320.04 1562.55 Q1321.03 1562.55 1321.74 1563.16 Q1322.48 1563.77 1322.48 1564.83 Q1322.48 1565.28 1322.32 1565.8 Q1322.16 1566.31 1321.81 1566.89 Q1321.45 1567.51 1320.68 1567.92 Q1319.91 1568.34 1318.84 1568.41 Q1320.1 1569.6 1322.03 1569.6 Q1322.65 1569.6 1323.19 1569.34 Q1323.74 1569.12 1324.19 1568.54 Q1324.67 1567.96 1325.03 1567.38 Q1325.38 1566.83 1325.74 1565.77 Q1326.09 1564.74 1326.32 1563.96 Q1326.54 1563.19 1326.83 1561.8 Q1327.15 1560.42 1327.31 1559.58 Q1327.48 1558.78 1327.77 1557.2 L1332.69 1531.15 L1328.35 1531.15 Q1327.57 1531.15 1327.25 1531.11 Q1326.96 1531.08 1326.74 1530.92 Q1326.51 1530.73 1326.51 1530.34 Q1326.51 1529.73 1326.77 1529.47 Q1327.06 1529.18 1327.38 1529.15 Q1327.7 1529.08 1328.47 1529.08 L1333.05 1529.08 Q1334.59 1520.94 1335.21 1518.75 Q1335.91 1516.43 1337.01 1514.82 Q1338.1 1513.17 1339.33 1512.4 Q1340.55 1511.63 1341.55 1511.34 Q1342.58 1511.02 1343.58 1511.02 Q1345.83 1511.02 1347.57 1512.24 Q1349.31 1513.43 1349.31 1515.56 Z" fill="#000000" fill-rule="evenodd" fill-opacity="1" /><path clip-path="url(#clip670)" d="M1348.42 1573.08 Q1348.42 1572.75 1348.68 1572.05 L1371.97 1509.82 Q1371.97 1509.76 1372.13 1509.41 Q1372.29 1509.05 1372.38 1508.83 Q1372.48 1508.57 1372.67 1508.38 Q1372.9 1508.18 1373.16 1508.18 Q1373.8 1508.18 1373.8 1508.99 Q1373.8 1509.05 1373.61 1509.82 L1350.26 1572.11 Q1349.87 1573.24 1349.62 1573.56 Q1349.39 1573.88 1349 1573.88 Q1348.42 1573.88 1348.42 1573.08 Z" fill="#000000" fill-rule="evenodd" fill-opacity="1" /><path clip-path="url(#clip670)" d="M1381.09 1557.52 L1381.09 1555.49 L1382.67 1555.49 Q1386.24 1555.49 1387.05 1554.91 Q1387.88 1554.3 1387.88 1552.37 L1387.88 1517.62 Q1387.88 1515.72 1387.05 1515.14 Q1386.21 1514.53 1382.67 1514.53 L1381.09 1514.53 L1381.09 1512.47 Q1383.41 1512.66 1390.85 1512.66 Q1398.22 1512.66 1400.54 1512.47 L1400.54 1514.53 L1398.96 1514.53 Q1395.39 1514.53 1394.55 1515.14 Q1393.74 1515.72 1393.74 1517.62 L1393.74 1533.05 L1413.45 1533.05 L1413.45 1517.62 Q1413.45 1515.72 1412.62 1515.14 Q1411.81 1514.53 1408.24 1514.53 L1406.66 1514.53 L1406.66 1512.47 Q1408.98 1512.66 1416.42 1512.66 Q1423.79 1512.66 1426.11 1512.47 L1426.11 1514.53 L1424.53 1514.53 Q1420.96 1514.53 1420.12 1515.14 Q1419.32 1515.72 1419.32 1517.62 L1419.32 1552.37 Q1419.32 1554.27 1420.15 1554.88 Q1420.99 1555.49 1424.53 1555.49 L1426.11 1555.49 L1426.11 1557.52 Q1423.79 1557.33 1416.35 1557.33 Q1408.98 1557.33 1406.66 1557.52 L1406.66 1555.49 L1408.24 1555.49 Q1411.81 1555.49 1412.62 1554.91 Q1413.45 1554.3 1413.45 1552.37 L1413.45 1535.11 L1393.74 1535.11 L1393.74 1552.37 Q1393.74 1554.27 1394.55 1554.88 Q1395.39 1555.49 1398.96 1555.49 L1400.54 1555.49 L1400.54 1557.52 Q1398.22 1557.33 1390.78 1557.33 Q1383.41 1557.33 1381.09 1557.52 Z" fill="#000000" fill-rule="evenodd" fill-opacity="1" /><path clip-path="url(#clip670)" d="M1430.08 1556.59 Q1430.08 1556.14 1430.7 1555.4 L1449.09 1530.53 L1441.58 1530.53 Q1436.36 1530.53 1434.66 1532.47 Q1432.98 1534.37 1432.66 1539.71 L1431.02 1539.71 L1431.76 1529.08 L1452.85 1529.08 Q1453.59 1529.08 1453.88 1529.12 Q1454.17 1529.15 1454.37 1529.37 Q1454.56 1529.57 1454.56 1529.95 Q1454.56 1530.34 1453.98 1531.08 L1435.62 1555.88 L1443.42 1555.88 Q1448.89 1555.88 1450.73 1553.59 Q1452.6 1551.31 1453.05 1545.19 L1454.69 1545.19 L1453.56 1557.52 L1431.82 1557.52 Q1430.76 1557.52 1430.41 1557.39 Q1430.08 1557.23 1430.08 1556.59 Z" fill="#000000" fill-rule="evenodd" fill-opacity="1" /><polyline clip-path="url(#clip672)" style="stroke:#000000; stroke-linecap:butt; stroke-linejoin:round; stroke-width:2; stroke-opacity:0.1; fill:none" points="
  422.753,1318.21 2352.76,1318.21 
  "/>
<polyline clip-path="url(#clip672)" style="stroke:#000000; stroke-linecap:butt; stroke-linejoin:round; stroke-width:2; stroke-opacity:0.1; fill:none" points="
  422.753,960.824 2352.76,960.824 
  "/>
<polyline clip-path="url(#clip672)" style="stroke:#000000; stroke-linecap:butt; stroke-linejoin:round; stroke-width:2; stroke-opacity:0.1; fill:none" points="
  422.753,603.439 2352.76,603.439 
  "/>
<polyline clip-path="url(#clip672)" style="stroke:#000000; stroke-linecap:butt; stroke-linejoin:round; stroke-width:2; stroke-opacity:0.1; fill:none" points="
  422.753,246.054 2352.76,246.054 
  "/>
<polyline clip-path="url(#clip670)" style="stroke:#000000; stroke-linecap:butt; stroke-linejoin:round; stroke-width:4; stroke-opacity:1; fill:none" points="
  422.753,1427.31 422.753,47.2441 
  "/>
<polyline clip-path="url(#clip670)" style="stroke:#000000; stroke-linecap:butt; stroke-linejoin:round; stroke-width:4; stroke-opacity:1; fill:none" points="
  422.753,1318.21 441.651,1318.21 
  "/>
<polyline clip-path="url(#clip670)" style="stroke:#000000; stroke-linecap:butt; stroke-linejoin:round; stroke-width:4; stroke-opacity:1; fill:none" points="
  422.753,960.824 441.651,960.824 
  "/>
<polyline clip-path="url(#clip670)" style="stroke:#000000; stroke-linecap:butt; stroke-linejoin:round; stroke-width:4; stroke-opacity:1; fill:none" points="
  422.753,603.439 441.651,603.439 
  "/>
<polyline clip-path="url(#clip670)" style="stroke:#000000; stroke-linecap:butt; stroke-linejoin:round; stroke-width:4; stroke-opacity:1; fill:none" points="
  422.753,246.054 441.651,246.054 
  "/>
<path clip-path="url(#clip670)" d="M129.885 1323.3 Q133.242 1324.02 135.117 1326.29 Q137.015 1328.56 137.015 1331.89 Q137.015 1337.01 133.496 1339.81 Q129.978 1342.61 123.496 1342.61 Q121.32 1342.61 119.006 1342.17 Q116.714 1341.75 114.26 1340.89 L114.26 1336.38 Q116.205 1337.51 118.519 1338.09 Q120.834 1338.67 123.357 1338.67 Q127.755 1338.67 130.047 1336.94 Q132.362 1335.2 132.362 1331.89 Q132.362 1328.83 130.209 1327.12 Q128.08 1325.39 124.26 1325.39 L120.232 1325.39 L120.232 1321.54 L124.445 1321.54 Q127.894 1321.54 129.723 1320.18 Q131.552 1318.79 131.552 1316.2 Q131.552 1313.53 129.654 1312.12 Q127.779 1310.69 124.26 1310.69 Q122.339 1310.69 120.14 1311.1 Q117.941 1311.52 115.302 1312.4 L115.302 1308.23 Q117.964 1307.49 120.279 1307.12 Q122.617 1306.75 124.677 1306.75 Q130.001 1306.75 133.103 1309.18 Q136.204 1311.59 136.204 1315.71 Q136.204 1318.58 134.561 1320.57 Q132.917 1322.54 129.885 1323.3 Z" fill="#000000" fill-rule="evenodd" fill-opacity="1" /><path clip-path="url(#clip670)" d="M145.88 1336.06 L150.765 1336.06 L150.765 1341.94 L145.88 1341.94 L145.88 1336.06 Z" fill="#000000" fill-rule="evenodd" fill-opacity="1" /><path clip-path="url(#clip670)" d="M164.977 1338 L181.297 1338 L181.297 1341.94 L159.353 1341.94 L159.353 1338 Q162.015 1335.25 166.598 1330.62 Q171.204 1325.96 172.385 1324.62 Q174.63 1322.1 175.51 1320.36 Q176.413 1318.6 176.413 1316.91 Q176.413 1314.16 174.468 1312.42 Q172.547 1310.69 169.445 1310.69 Q167.246 1310.69 164.792 1311.45 Q162.362 1312.21 159.584 1313.76 L159.584 1309.04 Q162.408 1307.91 164.862 1307.33 Q167.315 1306.75 169.352 1306.75 Q174.723 1306.75 177.917 1309.44 Q181.112 1312.12 181.112 1316.61 Q181.112 1318.74 180.301 1320.66 Q179.514 1322.56 177.408 1325.15 Q176.829 1325.82 173.727 1329.04 Q170.626 1332.24 164.977 1338 Z" fill="#000000" fill-rule="evenodd" fill-opacity="1" /><path clip-path="url(#clip670)" d="M201.112 1310.45 Q197.5 1310.45 195.672 1314.02 Q193.866 1317.56 193.866 1324.69 Q193.866 1331.8 195.672 1335.36 Q197.5 1338.9 201.112 1338.9 Q204.746 1338.9 206.551 1335.36 Q208.38 1331.8 208.38 1324.69 Q208.38 1317.56 206.551 1314.02 Q204.746 1310.45 201.112 1310.45 M201.112 1306.75 Q206.922 1306.75 209.977 1311.36 Q213.056 1315.94 213.056 1324.69 Q213.056 1333.42 209.977 1338.02 Q206.922 1342.61 201.112 1342.61 Q195.301 1342.61 192.223 1338.02 Q189.167 1333.42 189.167 1324.69 Q189.167 1315.94 192.223 1311.36 Q195.301 1306.75 201.112 1306.75 Z" fill="#000000" fill-rule="evenodd" fill-opacity="1" /><path clip-path="url(#clip670)" d="M249.445 1316.47 L238.866 1327.1 L249.445 1337.68 L246.69 1340.48 L236.065 1329.85 L225.44 1340.48 L222.709 1337.68 L233.264 1327.1 L222.709 1316.47 L225.44 1313.67 L236.065 1324.3 L246.69 1313.67 L249.445 1316.47 Z" fill="#000000" fill-rule="evenodd" fill-opacity="1" /><path clip-path="url(#clip670)" d="M261.806 1338 L269.445 1338 L269.445 1311.64 L261.134 1313.3 L261.134 1309.04 L269.398 1307.38 L274.074 1307.38 L274.074 1338 L281.713 1338 L281.713 1341.94 L261.806 1341.94 L261.806 1338 Z" fill="#000000" fill-rule="evenodd" fill-opacity="1" /><path clip-path="url(#clip670)" d="M301.157 1310.45 Q297.546 1310.45 295.718 1314.02 Q293.912 1317.56 293.912 1324.69 Q293.912 1331.8 295.718 1335.36 Q297.546 1338.9 301.157 1338.9 Q304.792 1338.9 306.597 1335.36 Q308.426 1331.8 308.426 1324.69 Q308.426 1317.56 306.597 1314.02 Q304.792 1310.45 301.157 1310.45 M301.157 1306.75 Q306.967 1306.75 310.023 1311.36 Q313.102 1315.94 313.102 1324.69 Q313.102 1333.42 310.023 1338.02 Q306.967 1342.61 301.157 1342.61 Q295.347 1342.61 292.268 1338.02 Q289.213 1333.42 289.213 1324.69 Q289.213 1315.94 292.268 1311.36 Q295.347 1306.75 301.157 1306.75 Z" fill="#000000" fill-rule="evenodd" fill-opacity="1" /><path clip-path="url(#clip670)" d="M313.102 1300.85 L337.213 1300.85 L337.213 1304.05 L313.102 1304.05 L313.102 1300.85 Z" fill="#000000" fill-rule="evenodd" fill-opacity="1" /><path clip-path="url(#clip670)" d="M346.072 1311.33 L352.278 1311.33 L352.278 1289.91 L345.526 1291.26 L345.526 1287.8 L352.241 1286.45 L356.04 1286.45 L356.04 1311.33 L362.246 1311.33 L362.246 1314.53 L346.072 1314.53 L346.072 1311.33 Z" fill="#000000" fill-rule="evenodd" fill-opacity="1" /><path clip-path="url(#clip670)" d="M370.578 1311.33 L376.785 1311.33 L376.785 1289.91 L370.033 1291.26 L370.033 1287.8 L376.747 1286.45 L380.546 1286.45 L380.546 1311.33 L386.753 1311.33 L386.753 1314.53 L370.578 1314.53 L370.578 1311.33 Z" fill="#000000" fill-rule="evenodd" fill-opacity="1" /><path clip-path="url(#clip670)" d="M129.885 965.917 Q133.242 966.635 135.117 968.903 Q137.015 971.172 137.015 974.505 Q137.015 979.621 133.496 982.421 Q129.978 985.222 123.496 985.222 Q121.32 985.222 119.006 984.783 Q116.714 984.366 114.26 983.509 L114.26 978.996 Q116.205 980.13 118.519 980.709 Q120.834 981.287 123.357 981.287 Q127.755 981.287 130.047 979.551 Q132.362 977.815 132.362 974.505 Q132.362 971.449 130.209 969.736 Q128.08 968 124.26 968 L120.232 968 L120.232 964.158 L124.445 964.158 Q127.894 964.158 129.723 962.792 Q131.552 961.403 131.552 958.811 Q131.552 956.148 129.654 954.736 Q127.779 953.301 124.26 953.301 Q122.339 953.301 120.14 953.718 Q117.941 954.135 115.302 955.014 L115.302 950.848 Q117.964 950.107 120.279 949.736 Q122.617 949.366 124.677 949.366 Q130.001 949.366 133.103 951.797 Q136.204 954.204 136.204 958.324 Q136.204 961.195 134.561 963.185 Q132.917 965.153 129.885 965.917 Z" fill="#000000" fill-rule="evenodd" fill-opacity="1" /><path clip-path="url(#clip670)" d="M145.88 978.672 L150.765 978.672 L150.765 984.551 L145.88 984.551 L145.88 978.672 Z" fill="#000000" fill-rule="evenodd" fill-opacity="1" /><path clip-path="url(#clip670)" d="M175.116 965.917 Q178.473 966.635 180.348 968.903 Q182.246 971.172 182.246 974.505 Q182.246 979.621 178.727 982.421 Q175.209 985.222 168.727 985.222 Q166.552 985.222 164.237 984.783 Q161.945 984.366 159.491 983.509 L159.491 978.996 Q161.436 980.13 163.751 980.709 Q166.065 981.287 168.589 981.287 Q172.987 981.287 175.278 979.551 Q177.593 977.815 177.593 974.505 Q177.593 971.449 175.44 969.736 Q173.311 968 169.491 968 L165.464 968 L165.464 964.158 L169.677 964.158 Q173.126 964.158 174.954 962.792 Q176.783 961.403 176.783 958.811 Q176.783 956.148 174.885 954.736 Q173.01 953.301 169.491 953.301 Q167.57 953.301 165.371 953.718 Q163.172 954.135 160.533 955.014 L160.533 950.848 Q163.195 950.107 165.51 949.736 Q167.848 949.366 169.908 949.366 Q175.232 949.366 178.334 951.797 Q181.436 954.204 181.436 958.324 Q181.436 961.195 179.792 963.185 Q178.149 965.153 175.116 965.917 Z" fill="#000000" fill-rule="evenodd" fill-opacity="1" /><path clip-path="url(#clip670)" d="M201.112 953.07 Q197.5 953.07 195.672 956.635 Q193.866 960.176 193.866 967.306 Q193.866 974.412 195.672 977.977 Q197.5 981.519 201.112 981.519 Q204.746 981.519 206.551 977.977 Q208.38 974.412 208.38 967.306 Q208.38 960.176 206.551 956.635 Q204.746 953.07 201.112 953.07 M201.112 949.366 Q206.922 949.366 209.977 953.973 Q213.056 958.556 213.056 967.306 Q213.056 976.033 209.977 980.639 Q206.922 985.222 201.112 985.222 Q195.301 985.222 192.223 980.639 Q189.167 976.033 189.167 967.306 Q189.167 958.556 192.223 953.973 Q195.301 949.366 201.112 949.366 Z" fill="#000000" fill-rule="evenodd" fill-opacity="1" /><path clip-path="url(#clip670)" d="M249.445 959.088 L238.866 969.713 L249.445 980.292 L246.69 983.093 L236.065 972.468 L225.44 983.093 L222.709 980.292 L233.264 969.713 L222.709 959.088 L225.44 956.287 L236.065 966.912 L246.69 956.287 L249.445 959.088 Z" fill="#000000" fill-rule="evenodd" fill-opacity="1" /><path clip-path="url(#clip670)" d="M261.806 980.616 L269.445 980.616 L269.445 954.25 L261.134 955.917 L261.134 951.658 L269.398 949.991 L274.074 949.991 L274.074 980.616 L281.713 980.616 L281.713 984.551 L261.806 984.551 L261.806 980.616 Z" fill="#000000" fill-rule="evenodd" fill-opacity="1" /><path clip-path="url(#clip670)" d="M301.157 953.07 Q297.546 953.07 295.718 956.635 Q293.912 960.176 293.912 967.306 Q293.912 974.412 295.718 977.977 Q297.546 981.519 301.157 981.519 Q304.792 981.519 306.597 977.977 Q308.426 974.412 308.426 967.306 Q308.426 960.176 306.597 956.635 Q304.792 953.07 301.157 953.07 M301.157 949.366 Q306.967 949.366 310.023 953.973 Q313.102 958.556 313.102 967.306 Q313.102 976.033 310.023 980.639 Q306.967 985.222 301.157 985.222 Q295.347 985.222 292.268 980.639 Q289.213 976.033 289.213 967.306 Q289.213 958.556 292.268 953.973 Q295.347 949.366 301.157 949.366 Z" fill="#000000" fill-rule="evenodd" fill-opacity="1" /><path clip-path="url(#clip670)" d="M313.102 943.467 L337.213 943.467 L337.213 946.665 L313.102 946.665 L313.102 943.467 Z" fill="#000000" fill-rule="evenodd" fill-opacity="1" /><path clip-path="url(#clip670)" d="M346.072 953.943 L352.278 953.943 L352.278 932.521 L345.526 933.875 L345.526 930.415 L352.241 929.061 L356.04 929.061 L356.04 953.943 L362.246 953.943 L362.246 957.141 L346.072 957.141 L346.072 953.943 Z" fill="#000000" fill-rule="evenodd" fill-opacity="1" /><path clip-path="url(#clip670)" d="M370.578 953.943 L376.785 953.943 L376.785 932.521 L370.033 933.875 L370.033 930.415 L376.747 929.061 L380.546 929.061 L380.546 953.943 L386.753 953.943 L386.753 957.141 L370.578 957.141 L370.578 953.943 Z" fill="#000000" fill-rule="evenodd" fill-opacity="1" /><path clip-path="url(#clip670)" d="M129.885 608.532 Q133.242 609.25 135.117 611.518 Q137.015 613.787 137.015 617.12 Q137.015 622.236 133.496 625.037 Q129.978 627.838 123.496 627.838 Q121.32 627.838 119.006 627.398 Q116.714 626.981 114.26 626.125 L114.26 621.611 Q116.205 622.745 118.519 623.324 Q120.834 623.902 123.357 623.902 Q127.755 623.902 130.047 622.166 Q132.362 620.43 132.362 617.12 Q132.362 614.064 130.209 612.351 Q128.08 610.615 124.26 610.615 L120.232 610.615 L120.232 606.773 L124.445 606.773 Q127.894 606.773 129.723 605.407 Q131.552 604.018 131.552 601.426 Q131.552 598.764 129.654 597.352 Q127.779 595.916 124.26 595.916 Q122.339 595.916 120.14 596.333 Q117.941 596.75 115.302 597.629 L115.302 593.463 Q117.964 592.722 120.279 592.352 Q122.617 591.981 124.677 591.981 Q130.001 591.981 133.103 594.412 Q136.204 596.819 136.204 600.94 Q136.204 603.81 134.561 605.801 Q132.917 607.768 129.885 608.532 Z" fill="#000000" fill-rule="evenodd" fill-opacity="1" /><path clip-path="url(#clip670)" d="M145.88 621.287 L150.765 621.287 L150.765 627.166 L145.88 627.166 L145.88 621.287 Z" fill="#000000" fill-rule="evenodd" fill-opacity="1" /><path clip-path="url(#clip670)" d="M173.797 596.68 L161.991 615.129 L173.797 615.129 L173.797 596.68 M172.57 592.606 L178.45 592.606 L178.45 615.129 L183.38 615.129 L183.38 619.018 L178.45 619.018 L178.45 627.166 L173.797 627.166 L173.797 619.018 L158.195 619.018 L158.195 614.504 L172.57 592.606 Z" fill="#000000" fill-rule="evenodd" fill-opacity="1" /><path clip-path="url(#clip670)" d="M201.112 595.685 Q197.5 595.685 195.672 599.25 Q193.866 602.791 193.866 609.921 Q193.866 617.027 195.672 620.592 Q197.5 624.134 201.112 624.134 Q204.746 624.134 206.551 620.592 Q208.38 617.027 208.38 609.921 Q208.38 602.791 206.551 599.25 Q204.746 595.685 201.112 595.685 M201.112 591.981 Q206.922 591.981 209.977 596.588 Q213.056 601.171 213.056 609.921 Q213.056 618.648 209.977 623.254 Q206.922 627.838 201.112 627.838 Q195.301 627.838 192.223 623.254 Q189.167 618.648 189.167 609.921 Q189.167 601.171 192.223 596.588 Q195.301 591.981 201.112 591.981 Z" fill="#000000" fill-rule="evenodd" fill-opacity="1" /><path clip-path="url(#clip670)" d="M249.445 601.703 L238.866 612.328 L249.445 622.907 L246.69 625.708 L236.065 615.083 L225.44 625.708 L222.709 622.907 L233.264 612.328 L222.709 601.703 L225.44 598.902 L236.065 609.527 L246.69 598.902 L249.445 601.703 Z" fill="#000000" fill-rule="evenodd" fill-opacity="1" /><path clip-path="url(#clip670)" d="M261.806 623.231 L269.445 623.231 L269.445 596.865 L261.134 598.532 L261.134 594.273 L269.398 592.606 L274.074 592.606 L274.074 623.231 L281.713 623.231 L281.713 627.166 L261.806 627.166 L261.806 623.231 Z" fill="#000000" fill-rule="evenodd" fill-opacity="1" /><path clip-path="url(#clip670)" d="M301.157 595.685 Q297.546 595.685 295.718 599.25 Q293.912 602.791 293.912 609.921 Q293.912 617.027 295.718 620.592 Q297.546 624.134 301.157 624.134 Q304.792 624.134 306.597 620.592 Q308.426 617.027 308.426 609.921 Q308.426 602.791 306.597 599.25 Q304.792 595.685 301.157 595.685 M301.157 591.981 Q306.967 591.981 310.023 596.588 Q313.102 601.171 313.102 609.921 Q313.102 618.648 310.023 623.254 Q306.967 627.838 301.157 627.838 Q295.347 627.838 292.268 623.254 Q289.213 618.648 289.213 609.921 Q289.213 601.171 292.268 596.588 Q295.347 591.981 301.157 591.981 Z" fill="#000000" fill-rule="evenodd" fill-opacity="1" /><path clip-path="url(#clip670)" d="M313.102 586.083 L337.213 586.083 L337.213 589.28 L313.102 589.28 L313.102 586.083 Z" fill="#000000" fill-rule="evenodd" fill-opacity="1" /><path clip-path="url(#clip670)" d="M346.072 596.558 L352.278 596.558 L352.278 575.136 L345.526 576.491 L345.526 573.03 L352.241 571.676 L356.04 571.676 L356.04 596.558 L362.246 596.558 L362.246 599.756 L346.072 599.756 L346.072 596.558 Z" fill="#000000" fill-rule="evenodd" fill-opacity="1" /><path clip-path="url(#clip670)" d="M370.578 596.558 L376.785 596.558 L376.785 575.136 L370.033 576.491 L370.033 573.03 L376.747 571.676 L380.546 571.676 L380.546 596.558 L386.753 596.558 L386.753 599.756 L370.578 599.756 L370.578 596.558 Z" fill="#000000" fill-rule="evenodd" fill-opacity="1" /><path clip-path="url(#clip670)" d="M129.885 251.147 Q133.242 251.865 135.117 254.133 Q137.015 256.402 137.015 259.735 Q137.015 264.851 133.496 267.652 Q129.978 270.453 123.496 270.453 Q121.32 270.453 119.006 270.013 Q116.714 269.596 114.26 268.74 L114.26 264.226 Q116.205 265.36 118.519 265.939 Q120.834 266.517 123.357 266.517 Q127.755 266.517 130.047 264.781 Q132.362 263.045 132.362 259.735 Q132.362 256.68 130.209 254.967 Q128.08 253.23 124.26 253.23 L120.232 253.23 L120.232 249.388 L124.445 249.388 Q127.894 249.388 129.723 248.022 Q131.552 246.633 131.552 244.041 Q131.552 241.379 129.654 239.967 Q127.779 238.532 124.26 238.532 Q122.339 238.532 120.14 238.948 Q117.941 239.365 115.302 240.244 L115.302 236.078 Q117.964 235.337 120.279 234.967 Q122.617 234.596 124.677 234.596 Q130.001 234.596 133.103 237.027 Q136.204 239.434 136.204 243.555 Q136.204 246.425 134.561 248.416 Q132.917 250.383 129.885 251.147 Z" fill="#000000" fill-rule="evenodd" fill-opacity="1" /><path clip-path="url(#clip670)" d="M145.88 263.902 L150.765 263.902 L150.765 269.781 L145.88 269.781 L145.88 263.902 Z" fill="#000000" fill-rule="evenodd" fill-opacity="1" /><path clip-path="url(#clip670)" d="M160.996 235.221 L179.352 235.221 L179.352 239.156 L165.278 239.156 L165.278 247.629 Q166.297 247.281 167.315 247.119 Q168.334 246.934 169.352 246.934 Q175.139 246.934 178.519 250.106 Q181.899 253.277 181.899 258.693 Q181.899 264.272 178.426 267.374 Q174.954 270.453 168.635 270.453 Q166.459 270.453 164.19 270.082 Q161.945 269.712 159.538 268.971 L159.538 264.272 Q161.621 265.406 163.843 265.962 Q166.065 266.517 168.542 266.517 Q172.547 266.517 174.885 264.411 Q177.223 262.305 177.223 258.693 Q177.223 255.082 174.885 252.976 Q172.547 250.869 168.542 250.869 Q166.667 250.869 164.792 251.286 Q162.94 251.703 160.996 252.582 L160.996 235.221 Z" fill="#000000" fill-rule="evenodd" fill-opacity="1" /><path clip-path="url(#clip670)" d="M201.112 238.3 Q197.5 238.3 195.672 241.865 Q193.866 245.406 193.866 252.536 Q193.866 259.642 195.672 263.207 Q197.5 266.749 201.112 266.749 Q204.746 266.749 206.551 263.207 Q208.38 259.642 208.38 252.536 Q208.38 245.406 206.551 241.865 Q204.746 238.3 201.112 238.3 M201.112 234.596 Q206.922 234.596 209.977 239.203 Q213.056 243.786 213.056 252.536 Q213.056 261.263 209.977 265.869 Q206.922 270.453 201.112 270.453 Q195.301 270.453 192.223 265.869 Q189.167 261.263 189.167 252.536 Q189.167 243.786 192.223 239.203 Q195.301 234.596 201.112 234.596 Z" fill="#000000" fill-rule="evenodd" fill-opacity="1" /><path clip-path="url(#clip670)" d="M249.445 244.319 L238.866 254.943 L249.445 265.522 L246.69 268.323 L236.065 257.698 L225.44 268.323 L222.709 265.522 L233.264 254.943 L222.709 244.319 L225.44 241.518 L236.065 252.143 L246.69 241.518 L249.445 244.319 Z" fill="#000000" fill-rule="evenodd" fill-opacity="1" /><path clip-path="url(#clip670)" d="M261.806 265.846 L269.445 265.846 L269.445 239.481 L261.134 241.147 L261.134 236.888 L269.398 235.221 L274.074 235.221 L274.074 265.846 L281.713 265.846 L281.713 269.781 L261.806 269.781 L261.806 265.846 Z" fill="#000000" fill-rule="evenodd" fill-opacity="1" /><path clip-path="url(#clip670)" d="M301.157 238.3 Q297.546 238.3 295.718 241.865 Q293.912 245.406 293.912 252.536 Q293.912 259.642 295.718 263.207 Q297.546 266.749 301.157 266.749 Q304.792 266.749 306.597 263.207 Q308.426 259.642 308.426 252.536 Q308.426 245.406 306.597 241.865 Q304.792 238.3 301.157 238.3 M301.157 234.596 Q306.967 234.596 310.023 239.203 Q313.102 243.786 313.102 252.536 Q313.102 261.263 310.023 265.869 Q306.967 270.453 301.157 270.453 Q295.347 270.453 292.268 265.869 Q289.213 261.263 289.213 252.536 Q289.213 243.786 292.268 239.203 Q295.347 234.596 301.157 234.596 Z" fill="#000000" fill-rule="evenodd" fill-opacity="1" /><path clip-path="url(#clip670)" d="M313.102 228.698 L337.213 228.698 L337.213 231.895 L313.102 231.895 L313.102 228.698 Z" fill="#000000" fill-rule="evenodd" fill-opacity="1" /><path clip-path="url(#clip670)" d="M346.072 239.174 L352.278 239.174 L352.278 217.752 L345.526 219.106 L345.526 215.645 L352.241 214.291 L356.04 214.291 L356.04 239.174 L362.246 239.174 L362.246 242.371 L346.072 242.371 L346.072 239.174 Z" fill="#000000" fill-rule="evenodd" fill-opacity="1" /><path clip-path="url(#clip670)" d="M370.578 239.174 L376.785 239.174 L376.785 217.752 L370.033 219.106 L370.033 215.645 L376.747 214.291 L380.546 214.291 L380.546 239.174 L386.753 239.174 L386.753 242.371 L370.578 242.371 L370.578 239.174 Z" fill="#000000" fill-rule="evenodd" fill-opacity="1" /><path clip-path="url(#clip670)" d="M41.7242 1055.98 Q42.4244 1053.91 44.7161 1051.97 Q47.0077 1049.99 51.0181 1048.02 L64.0042 1041.5 L64.0042 1048.4 L51.8138 1054.48 Q47.0395 1056.84 45.48 1059.07 Q43.9204 1061.26 43.9204 1065.08 L43.9204 1072.08 L64.0042 1072.08 L64.0042 1078.51 L16.4842 1078.51 L16.4842 1064 Q16.4842 1055.85 19.8898 1051.84 Q23.2955 1047.83 30.1704 1047.83 Q34.6582 1047.83 37.6183 1049.93 Q40.5784 1052 41.7242 1055.98 M21.7677 1072.08 L38.6368 1072.08 L38.6368 1064 Q38.6368 1059.35 36.5043 1057 Q34.34 1054.61 30.1704 1054.61 Q26.0009 1054.61 23.9002 1057 Q21.7677 1059.35 21.7677 1064 L21.7677 1072.08 Z" fill="#000000" fill-rule="evenodd" fill-opacity="1" /><path clip-path="url(#clip670)" d="M44.7161 1005.91 L47.5806 1005.91 L47.5806 1032.84 Q53.6281 1032.46 56.8109 1029.21 Q59.9619 1025.93 59.9619 1020.11 Q59.9619 1016.73 59.1344 1013.58 Q58.3069 1010.4 56.6518 1007.28 L62.1899 1007.28 Q63.5267 1010.43 64.227 1013.74 Q64.9272 1017.05 64.9272 1020.46 Q64.9272 1028.99 59.9619 1033.98 Q54.9967 1038.95 46.5303 1038.95 Q37.7774 1038.95 32.6531 1034.24 Q27.4968 1029.5 27.4968 1021.48 Q27.4968 1014.28 32.1438 1010.11 Q36.7589 1005.91 44.7161 1005.91 M42.9973 1011.77 Q38.1912 1011.83 35.3266 1014.47 Q32.4621 1017.08 32.4621 1021.41 Q32.4621 1026.31 35.2312 1029.27 Q38.0002 1032.2 43.0292 1032.65 L42.9973 1011.77 Z" fill="#000000" fill-rule="evenodd" fill-opacity="1" /><path clip-path="url(#clip670)" d="M29.4065 973.574 L34.9447 973.574 Q33.6716 976.057 33.035 978.731 Q32.3984 981.404 32.3984 984.269 Q32.3984 988.629 33.7352 990.825 Q35.072 992.99 37.7456 992.99 Q39.7826 992.99 40.9603 991.43 Q42.1061 989.87 43.1565 985.16 L43.6021 983.155 Q44.9389 976.916 47.3897 974.306 Q49.8086 971.665 54.1691 971.665 Q59.1344 971.665 62.0308 975.611 Q64.9272 979.526 64.9272 986.401 Q64.9272 989.266 64.3543 992.385 Q63.8132 995.472 62.6992 998.91 L56.6518 998.91 Q58.3387 995.663 59.198 992.512 Q60.0256 989.361 60.0256 986.274 Q60.0256 982.136 58.6251 979.908 Q57.1929 977.68 54.6147 977.68 Q52.2276 977.68 50.9545 979.303 Q49.6813 980.895 48.5037 986.338 L48.0262 988.375 Q46.8804 993.817 44.5251 996.236 Q42.138 998.655 38.0002 998.655 Q32.9713 998.655 30.2341 995.09 Q27.4968 991.526 27.4968 984.969 Q27.4968 981.722 27.9743 978.858 Q28.4517 975.993 29.4065 973.574 Z" fill="#000000" fill-rule="evenodd" fill-opacity="1" /><path clip-path="url(#clip670)" d="M58.657 956.673 L77.5631 956.673 L77.5631 962.562 L28.3562 962.562 L28.3562 956.673 L33.7671 956.673 Q30.5842 954.827 29.0564 952.026 Q27.4968 949.194 27.4968 945.279 Q27.4968 938.786 32.6531 934.743 Q37.8093 930.669 46.212 930.669 Q54.6147 930.669 59.771 934.743 Q64.9272 938.786 64.9272 945.279 Q64.9272 949.194 63.3994 952.026 Q61.8398 954.827 58.657 956.673 M46.212 936.749 Q39.7508 936.749 36.0905 939.422 Q32.3984 942.064 32.3984 946.711 Q32.3984 951.358 36.0905 954.032 Q39.7508 956.673 46.212 956.673 Q52.6732 956.673 56.3653 954.032 Q60.0256 951.358 60.0256 946.711 Q60.0256 942.064 56.3653 939.422 Q52.6732 936.749 46.212 936.749 Z" fill="#000000" fill-rule="evenodd" fill-opacity="1" /><path clip-path="url(#clip670)" d="M32.4621 907.148 Q32.4621 911.859 36.1542 914.596 Q39.8145 917.333 46.212 917.333 Q52.6095 917.333 56.3017 914.628 Q59.9619 911.891 59.9619 907.148 Q59.9619 902.469 56.2698 899.732 Q52.5777 896.995 46.212 896.995 Q39.8781 896.995 36.186 899.732 Q32.4621 902.469 32.4621 907.148 M27.4968 907.148 Q27.4968 899.509 32.4621 895.149 Q37.4273 890.788 46.212 890.788 Q54.9649 890.788 59.9619 895.149 Q64.9272 899.509 64.9272 907.148 Q64.9272 914.819 59.9619 919.179 Q54.9649 923.508 46.212 923.508 Q37.4273 923.508 32.4621 919.179 Q27.4968 914.819 27.4968 907.148 Z" fill="#000000" fill-rule="evenodd" fill-opacity="1" /><path clip-path="url(#clip670)" d="M42.4881 851.448 L64.0042 851.448 L64.0042 857.305 L42.679 857.305 Q37.6183 857.305 35.1038 859.278 Q32.5894 861.251 32.5894 865.198 Q32.5894 869.941 35.6131 872.678 Q38.6368 875.415 43.8567 875.415 L64.0042 875.415 L64.0042 881.303 L28.3562 881.303 L28.3562 875.415 L33.8944 875.415 Q30.6797 873.314 29.0883 870.482 Q27.4968 867.617 27.4968 863.893 Q27.4968 857.75 31.3163 854.599 Q35.1038 851.448 42.4881 851.448 Z" fill="#000000" fill-rule="evenodd" fill-opacity="1" /><path clip-path="url(#clip670)" d="M29.4065 817.042 L34.9447 817.042 Q33.6716 819.524 33.035 822.198 Q32.3984 824.871 32.3984 827.736 Q32.3984 832.096 33.7352 834.293 Q35.072 836.457 37.7456 836.457 Q39.7826 836.457 40.9603 834.897 Q42.1061 833.338 43.1565 828.627 L43.6021 826.622 Q44.9389 820.384 47.3897 817.774 Q49.8086 815.132 54.1691 815.132 Q59.1344 815.132 62.0308 819.079 Q64.9272 822.993 64.9272 829.868 Q64.9272 832.733 64.3543 835.852 Q63.8132 838.94 62.6992 842.377 L56.6518 842.377 Q58.3387 839.131 59.198 835.98 Q60.0256 832.829 60.0256 829.741 Q60.0256 825.603 58.6251 823.375 Q57.1929 821.147 54.6147 821.147 Q52.2276 821.147 50.9545 822.771 Q49.6813 824.362 48.5037 829.805 L48.0262 831.842 Q46.8804 837.285 44.5251 839.703 Q42.138 842.122 38.0002 842.122 Q32.9713 842.122 30.2341 838.558 Q27.4968 834.993 27.4968 828.436 Q27.4968 825.19 27.9743 822.325 Q28.4517 819.461 29.4065 817.042 Z" fill="#000000" fill-rule="evenodd" fill-opacity="1" /><path clip-path="url(#clip670)" d="M44.7161 775.314 L47.5806 775.314 L47.5806 802.241 Q53.6281 801.859 56.8109 798.613 Q59.9619 795.335 59.9619 789.51 Q59.9619 786.136 59.1344 782.985 Q58.3069 779.802 56.6518 776.683 L62.1899 776.683 Q63.5267 779.834 64.227 783.144 Q64.9272 786.454 64.9272 789.86 Q64.9272 798.39 59.9619 803.387 Q54.9967 808.352 46.5303 808.352 Q37.7774 808.352 32.6531 803.642 Q27.4968 798.899 27.4968 790.879 Q27.4968 783.685 32.1438 779.516 Q36.7589 775.314 44.7161 775.314 M42.9973 781.171 Q38.1912 781.234 35.3266 783.876 Q32.4621 786.486 32.4621 790.815 Q32.4621 795.716 35.2312 798.677 Q38.0002 801.605 43.0292 802.05 L42.9973 781.171 Z" fill="#000000" fill-rule="evenodd" fill-opacity="1" /><path clip-path="url(#clip670)" d="M14.5426 730.914 Q21.8632 735.179 29.0246 737.247 Q36.186 739.316 43.5384 739.316 Q50.8908 739.316 58.1159 737.247 Q65.3091 735.147 72.5979 730.914 L72.5979 736.006 Q65.1182 740.78 57.8931 743.168 Q50.668 745.523 43.5384 745.523 Q36.4406 745.523 29.2474 743.168 Q22.0542 740.812 14.5426 736.006 L14.5426 730.914 Z" fill="#000000" fill-rule="evenodd" fill-opacity="1" /><path clip-path="url(#clip670)" d="M46.0847 703.35 Q46.0847 710.448 47.7079 713.185 Q49.3312 715.922 53.2461 715.922 Q56.3653 715.922 58.2114 713.885 Q60.0256 711.816 60.0256 708.283 Q60.0256 703.414 56.5881 700.485 Q53.1188 697.525 47.3897 697.525 L46.0847 697.525 L46.0847 703.35 M43.6657 691.669 L64.0042 691.669 L64.0042 697.525 L58.5933 697.525 Q61.8398 699.531 63.3994 702.523 Q64.9272 705.514 64.9272 709.843 Q64.9272 715.318 61.8716 718.564 Q58.7843 721.779 53.6281 721.779 Q47.6125 721.779 44.5569 717.768 Q41.5014 713.726 41.5014 705.737 L41.5014 697.525 L40.9285 697.525 Q36.8862 697.525 34.6901 700.199 Q32.4621 702.841 32.4621 707.647 Q32.4621 710.702 33.1941 713.599 Q33.9262 716.495 35.3903 719.169 L29.9795 719.169 Q28.7381 715.954 28.1334 712.93 Q27.4968 709.907 27.4968 707.042 Q27.4968 699.308 31.5072 695.488 Q35.5176 691.669 43.6657 691.669 Z" fill="#000000" fill-rule="evenodd" fill-opacity="1" /><path clip-path="url(#clip670)" d="M33.8307 658.949 Q33.2578 659.936 33.0032 661.114 Q32.7167 662.259 32.7167 663.66 Q32.7167 668.625 35.9632 671.299 Q39.1779 673.94 45.2253 673.94 L64.0042 673.94 L64.0042 679.829 L28.3562 679.829 L28.3562 673.94 L33.8944 673.94 Q30.6479 672.094 29.0883 669.134 Q27.4968 666.174 27.4968 661.941 Q27.4968 661.336 27.5923 660.604 Q27.656 659.872 27.8151 658.981 L33.8307 658.949 Z" fill="#000000" fill-rule="evenodd" fill-opacity="1" /><path clip-path="url(#clip670)" d="M46.212 627.216 Q39.7508 627.216 36.0905 629.89 Q32.3984 632.532 32.3984 637.179 Q32.3984 641.825 36.0905 644.499 Q39.7508 647.141 46.212 647.141 Q52.6732 647.141 56.3653 644.499 Q60.0256 641.825 60.0256 637.179 Q60.0256 632.532 56.3653 629.89 Q52.6732 627.216 46.212 627.216 M33.7671 647.141 Q30.5842 645.295 29.0564 642.494 Q27.4968 639.661 27.4968 635.746 Q27.4968 629.253 32.6531 625.211 Q37.8093 621.137 46.212 621.137 Q54.6147 621.137 59.771 625.211 Q64.9272 629.253 64.9272 635.746 Q64.9272 639.661 63.3994 642.494 Q61.8398 645.295 58.657 647.141 L64.0042 647.141 L64.0042 653.029 L14.479 653.029 L14.479 647.141 L33.7671 647.141 Z" fill="#000000" fill-rule="evenodd" fill-opacity="1" /><path clip-path="url(#clip670)" d="M55.9197 610.602 L55.9197 603.886 L64.0042 603.886 L64.0042 610.602 L55.9197 610.602 Z" fill="#000000" fill-rule="evenodd" fill-opacity="1" /><path clip-path="url(#clip670)" d="M49.9359 570.593 L28.3562 570.593 L28.3562 564.737 L49.7131 564.737 Q54.7739 564.737 57.3202 562.763 Q59.8346 560.79 59.8346 556.843 Q59.8346 552.101 56.8109 549.364 Q53.7872 546.595 48.5673 546.595 L28.3562 546.595 L28.3562 540.738 L64.0042 540.738 L64.0042 546.595 L58.5296 546.595 Q61.7762 548.727 63.3676 551.56 Q64.9272 554.361 64.9272 558.085 Q64.9272 564.228 61.1078 567.41 Q57.2883 570.593 49.9359 570.593 M27.4968 555.857 L27.4968 555.857 Z" fill="#000000" fill-rule="evenodd" fill-opacity="1" /><path clip-path="url(#clip670)" d="M42.4881 499.043 L64.0042 499.043 L64.0042 504.899 L42.679 504.899 Q37.6183 504.899 35.1038 506.873 Q32.5894 508.846 32.5894 512.793 Q32.5894 517.535 35.6131 520.272 Q38.6368 523.01 43.8567 523.01 L64.0042 523.01 L64.0042 528.898 L28.3562 528.898 L28.3562 523.01 L33.8944 523.01 Q30.6797 520.909 29.0883 518.076 Q27.4968 515.212 27.4968 511.488 Q27.4968 505.345 31.3163 502.194 Q35.1038 499.043 42.4881 499.043 Z" fill="#000000" fill-rule="evenodd" fill-opacity="1" /><path clip-path="url(#clip670)" d="M28.3562 487.362 L28.3562 481.505 L64.0042 481.505 L64.0042 487.362 L28.3562 487.362 M14.479 487.362 L14.479 481.505 L21.895 481.505 L21.895 487.362 L14.479 487.362 Z" fill="#000000" fill-rule="evenodd" fill-opacity="1" /><path clip-path="url(#clip670)" d="M18.2347 463.458 L28.3562 463.458 L28.3562 451.395 L32.9077 451.395 L32.9077 463.458 L52.2594 463.458 Q56.6199 463.458 57.8613 462.281 Q59.1026 461.071 59.1026 457.411 L59.1026 451.395 L64.0042 451.395 L64.0042 457.411 Q64.0042 464.19 61.4897 466.769 Q58.9434 469.347 52.2594 469.347 L32.9077 469.347 L32.9077 473.644 L28.3562 473.644 L28.3562 469.347 L18.2347 469.347 L18.2347 463.458 Z" fill="#000000" fill-rule="evenodd" fill-opacity="1" /><path clip-path="url(#clip670)" d="M29.4065 420.967 L34.9447 420.967 Q33.6716 423.45 33.035 426.124 Q32.3984 428.797 32.3984 431.662 Q32.3984 436.022 33.7352 438.218 Q35.072 440.383 37.7456 440.383 Q39.7826 440.383 40.9603 438.823 Q42.1061 437.264 43.1565 432.553 L43.6021 430.548 Q44.9389 424.309 47.3897 421.699 Q49.8086 419.058 54.1691 419.058 Q59.1344 419.058 62.0308 423.004 Q64.9272 426.919 64.9272 433.794 Q64.9272 436.659 64.3543 439.778 Q63.8132 442.865 62.6992 446.303 L56.6518 446.303 Q58.3387 443.056 59.198 439.905 Q60.0256 436.754 60.0256 433.667 Q60.0256 429.529 58.6251 427.301 Q57.1929 425.073 54.6147 425.073 Q52.2276 425.073 50.9545 426.696 Q49.6813 428.288 48.5037 433.731 L48.0262 435.768 Q46.8804 441.21 44.5251 443.629 Q42.138 446.048 38.0002 446.048 Q32.9713 446.048 30.2341 442.483 Q27.4968 438.919 27.4968 432.362 Q27.4968 429.115 27.9743 426.251 Q28.4517 423.386 29.4065 420.967 Z" fill="#000000" fill-rule="evenodd" fill-opacity="1" /><path clip-path="url(#clip670)" d="M14.5426 410.655 L14.5426 405.562 Q22.0542 400.788 29.2474 398.433 Q36.4406 396.046 43.5384 396.046 Q50.668 396.046 57.8931 398.433 Q65.1182 400.788 72.5979 405.562 L72.5979 410.655 Q65.3091 406.422 58.1159 404.353 Q50.8908 402.252 43.5384 402.252 Q36.186 402.252 29.0246 404.353 Q21.8632 406.422 14.5426 410.655 Z" fill="#000000" fill-rule="evenodd" fill-opacity="1" /><polyline clip-path="url(#clip672)" style="stroke:#000000; stroke-linecap:butt; stroke-linejoin:round; stroke-width:4; stroke-opacity:1; fill:none" points="
  528.907,1388.26 528.907,251.057 
  "/>
<polyline clip-path="url(#clip672)" style="stroke:#000000; stroke-linecap:butt; stroke-linejoin:round; stroke-width:4; stroke-opacity:1; fill:none" points="
  1562.02,818.942 1562.02,86.3027 
  "/>
<polyline clip-path="url(#clip672)" style="stroke:#000000; stroke-linecap:butt; stroke-linejoin:round; stroke-width:4; stroke-opacity:1; fill:none" points="
  1854.41,1041.24 1854.41,329.074 
  "/>
<polyline clip-path="url(#clip672)" style="stroke:#000000; stroke-linecap:butt; stroke-linejoin:round; stroke-width:4; stroke-opacity:1; fill:none" points="
  2246.6,1045.6 2246.6,366.385 
  "/>
<line clip-path="url(#clip672)" x1="544.907" y1="1388.26" x2="512.907" y2="1388.26" style="stroke:#000000; stroke-width:3.2; stroke-opacity:1"/>
<line clip-path="url(#clip672)" x1="544.907" y1="251.057" x2="512.907" y2="251.057" style="stroke:#000000; stroke-width:3.2; stroke-opacity:1"/>
<line clip-path="url(#clip672)" x1="1578.02" y1="818.942" x2="1546.02" y2="818.942" style="stroke:#000000; stroke-width:3.2; stroke-opacity:1"/>
<line clip-path="url(#clip672)" x1="1578.02" y1="86.3027" x2="1546.02" y2="86.3027" style="stroke:#000000; stroke-width:3.2; stroke-opacity:1"/>
<line clip-path="url(#clip672)" x1="1870.41" y1="1041.24" x2="1838.41" y2="1041.24" style="stroke:#000000; stroke-width:3.2; stroke-opacity:1"/>
<line clip-path="url(#clip672)" x1="1870.41" y1="329.074" x2="1838.41" y2="329.074" style="stroke:#000000; stroke-width:3.2; stroke-opacity:1"/>
<line clip-path="url(#clip672)" x1="2262.6" y1="1045.6" x2="2230.6" y2="1045.6" style="stroke:#000000; stroke-width:3.2; stroke-opacity:1"/>
<line clip-path="url(#clip672)" x1="2262.6" y1="366.385" x2="2230.6" y2="366.385" style="stroke:#000000; stroke-width:3.2; stroke-opacity:1"/>
<circle clip-path="url(#clip672)" cx="528.907" cy="860.756" r="14" fill="#009af9" fill-rule="evenodd" fill-opacity="1" stroke="#000000" stroke-opacity="1" stroke-width="3.2"/>
<circle clip-path="url(#clip672)" cx="1562.02" cy="453.337" r="14" fill="#009af9" fill-rule="evenodd" fill-opacity="1" stroke="#000000" stroke-opacity="1" stroke-width="3.2"/>
<circle clip-path="url(#clip672)" cx="1854.41" cy="678.489" r="14" fill="#009af9" fill-rule="evenodd" fill-opacity="1" stroke="#000000" stroke-opacity="1" stroke-width="3.2"/>
<circle clip-path="url(#clip672)" cx="2246.6" cy="689.211" r="14" fill="#009af9" fill-rule="evenodd" fill-opacity="1" stroke="#000000" stroke-opacity="1" stroke-width="3.2"/>
<polyline clip-path="url(#clip672)" style="stroke:#009af9; stroke-linecap:butt; stroke-linejoin:round; stroke-width:4; stroke-opacity:1; fill:none" points="
  477.376,640.813 2298.13,640.813 
  "/>
<path clip-path="url(#clip672)" d="
M477.376 448.727 L2298.13 448.727 L2298.13 832.898 L477.376 832.898  Z
  " fill="#009af9" fill-rule="evenodd" fill-opacity="0.5"/>
<polyline clip-path="url(#clip672)" style="stroke:#009af9; stroke-linecap:butt; stroke-linejoin:round; stroke-width:4; stroke-opacity:0.5; fill:none" points="
  477.376,448.727 2298.13,448.727 
  "/>
<path clip-path="url(#clip670)" d="
M1801.69 196.926 L2288.42 196.926 L2288.42 93.2464 L1801.69 93.2464  Z
  " fill="#ffffff" fill-rule="evenodd" fill-opacity="1"/>
<polyline clip-path="url(#clip670)" style="stroke:#000000; stroke-linecap:butt; stroke-linejoin:round; stroke-width:4; stroke-opacity:1; fill:none" points="
  1801.69,196.926 2288.42,196.926 2288.42,93.2464 1801.69,93.2464 1801.69,196.926 
  "/>
<circle clip-path="url(#clip670)" cx="1887.47" cy="145.086" r="23" fill="#009af9" fill-rule="evenodd" fill-opacity="1" stroke="#000000" stroke-opacity="1" stroke-width="5.12"/>
<path clip-path="url(#clip670)" d="M1989.26 130.978 Q1984.17 130.978 1981.16 134.774 Q1978.17 138.57 1978.17 145.121 Q1978.17 151.649 1981.16 155.445 Q1984.17 159.241 1989.26 159.241 Q1994.35 159.241 1997.32 155.445 Q2000.3 151.649 2000.3 145.121 Q2000.3 138.57 1997.32 134.774 Q1994.35 130.978 1989.26 130.978 M1995.81 161.741 L2001.97 168.478 L1996.32 168.478 L1991.21 162.945 Q1990.44 162.991 1990.03 163.015 Q1989.63 163.038 1989.26 163.038 Q1981.97 163.038 1977.6 158.177 Q1973.24 153.292 1973.24 145.121 Q1973.24 136.927 1977.6 132.066 Q1981.97 127.181 1989.26 127.181 Q1996.53 127.181 2000.88 132.066 Q2005.23 136.927 2005.23 145.121 Q2005.23 151.14 2002.8 155.422 Q2000.4 159.704 1995.81 161.741 Z" fill="#000000" fill-rule="evenodd" fill-opacity="1" /><path clip-path="url(#clip670)" d="M2011.92 152.135 L2011.92 136.441 L2016.18 136.441 L2016.18 151.973 Q2016.18 155.654 2017.62 157.505 Q2019.05 159.334 2021.92 159.334 Q2025.37 159.334 2027.36 157.135 Q2029.38 154.936 2029.38 151.14 L2029.38 136.441 L2033.64 136.441 L2033.64 162.366 L2029.38 162.366 L2029.38 158.385 Q2027.83 160.746 2025.77 161.903 Q2023.73 163.038 2021.02 163.038 Q2016.55 163.038 2014.24 160.26 Q2011.92 157.482 2011.92 152.135 M2022.64 135.816 L2022.64 135.816 Z" fill="#000000" fill-rule="evenodd" fill-opacity="1" /><path clip-path="url(#clip670)" d="M2054.19 149.334 Q2049.03 149.334 2047.04 150.515 Q2045.05 151.695 2045.05 154.542 Q2045.05 156.811 2046.53 158.153 Q2048.03 159.473 2050.6 159.473 Q2054.15 159.473 2056.28 156.973 Q2058.43 154.45 2058.43 150.283 L2058.43 149.334 L2054.19 149.334 M2062.69 147.575 L2062.69 162.366 L2058.43 162.366 L2058.43 158.431 Q2056.97 160.792 2054.79 161.927 Q2052.62 163.038 2049.47 163.038 Q2045.49 163.038 2043.13 160.816 Q2040.79 158.57 2040.79 154.82 Q2040.79 150.445 2043.71 148.223 Q2046.65 146.001 2052.46 146.001 L2058.43 146.001 L2058.43 145.584 Q2058.43 142.644 2056.48 141.047 Q2054.56 139.427 2051.07 139.427 Q2048.84 139.427 2046.74 139.959 Q2044.63 140.492 2042.69 141.556 L2042.69 137.621 Q2045.03 136.718 2047.22 136.279 Q2049.42 135.816 2051.51 135.816 Q2057.13 135.816 2059.91 138.732 Q2062.69 141.649 2062.69 147.575 Z" fill="#000000" fill-rule="evenodd" fill-opacity="1" /><path clip-path="url(#clip670)" d="M2088.52 140.376 L2088.52 126.348 L2092.78 126.348 L2092.78 162.366 L2088.52 162.366 L2088.52 158.478 Q2087.18 160.792 2085.12 161.927 Q2083.08 163.038 2080.21 163.038 Q2075.51 163.038 2072.55 159.288 Q2069.61 155.538 2069.61 149.427 Q2069.61 143.316 2072.55 139.566 Q2075.51 135.816 2080.21 135.816 Q2083.08 135.816 2085.12 136.95 Q2087.18 138.061 2088.52 140.376 M2074.01 149.427 Q2074.01 154.126 2075.93 156.811 Q2077.87 159.473 2081.25 159.473 Q2084.63 159.473 2086.58 156.811 Q2088.52 154.126 2088.52 149.427 Q2088.52 144.728 2086.58 142.066 Q2084.63 139.38 2081.25 139.38 Q2077.87 139.38 2075.93 142.066 Q2074.01 144.728 2074.01 149.427 Z" fill="#000000" fill-rule="evenodd" fill-opacity="1" /><path clip-path="url(#clip670)" d="M2116.58 140.422 Q2115.86 140.005 2115 139.82 Q2114.17 139.612 2113.15 139.612 Q2109.54 139.612 2107.59 141.973 Q2105.67 144.311 2105.67 148.709 L2105.67 162.366 L2101.39 162.366 L2101.39 136.441 L2105.67 136.441 L2105.67 140.468 Q2107.02 138.107 2109.17 136.973 Q2111.32 135.816 2114.4 135.816 Q2114.84 135.816 2115.37 135.885 Q2115.9 135.931 2116.55 136.047 L2116.58 140.422 Z" fill="#000000" fill-rule="evenodd" fill-opacity="1" /><path clip-path="url(#clip670)" d="M2120.6 152.135 L2120.6 136.441 L2124.86 136.441 L2124.86 151.973 Q2124.86 155.654 2126.3 157.505 Q2127.73 159.334 2130.6 159.334 Q2134.05 159.334 2136.04 157.135 Q2138.06 154.936 2138.06 151.14 L2138.06 136.441 L2142.32 136.441 L2142.32 162.366 L2138.06 162.366 L2138.06 158.385 Q2136.51 160.746 2134.45 161.903 Q2132.41 163.038 2129.7 163.038 Q2125.23 163.038 2122.92 160.26 Q2120.6 157.482 2120.6 152.135 M2131.32 135.816 L2131.32 135.816 Z" fill="#000000" fill-rule="evenodd" fill-opacity="1" /><path clip-path="url(#clip670)" d="M2155.21 158.478 L2155.21 172.227 L2150.93 172.227 L2150.93 136.441 L2155.21 136.441 L2155.21 140.376 Q2156.55 138.061 2158.59 136.95 Q2160.65 135.816 2163.5 135.816 Q2168.22 135.816 2171.16 139.566 Q2174.12 143.316 2174.12 149.427 Q2174.12 155.538 2171.16 159.288 Q2168.22 163.038 2163.5 163.038 Q2160.65 163.038 2158.59 161.927 Q2156.55 160.792 2155.21 158.478 M2169.7 149.427 Q2169.7 144.728 2167.76 142.066 Q2165.83 139.38 2162.46 139.38 Q2159.08 139.38 2157.13 142.066 Q2155.21 144.728 2155.21 149.427 Q2155.21 154.126 2157.13 156.811 Q2159.08 159.473 2162.46 159.473 Q2165.83 159.473 2167.76 156.811 Q2169.7 154.126 2169.7 149.427 Z" fill="#000000" fill-rule="evenodd" fill-opacity="1" /><path clip-path="url(#clip670)" d="M2191.23 139.427 Q2187.8 139.427 2185.81 142.112 Q2183.82 144.774 2183.82 149.427 Q2183.82 154.079 2185.79 156.765 Q2187.78 159.427 2191.23 159.427 Q2194.63 159.427 2196.62 156.741 Q2198.61 154.056 2198.61 149.427 Q2198.61 144.82 2196.62 142.135 Q2194.63 139.427 2191.23 139.427 M2191.23 135.816 Q2196.78 135.816 2199.96 139.427 Q2203.13 143.038 2203.13 149.427 Q2203.13 155.792 2199.96 159.427 Q2196.78 163.038 2191.23 163.038 Q2185.65 163.038 2182.48 159.427 Q2179.33 155.792 2179.33 149.427 Q2179.33 143.038 2182.48 139.427 Q2185.65 135.816 2191.23 135.816 Z" fill="#000000" fill-rule="evenodd" fill-opacity="1" /><path clip-path="url(#clip670)" d="M2210.19 126.348 L2214.45 126.348 L2214.45 162.366 L2210.19 162.366 L2210.19 126.348 Z" fill="#000000" fill-rule="evenodd" fill-opacity="1" /><path clip-path="url(#clip670)" d="M2245.53 148.339 L2245.53 150.422 L2225.95 150.422 Q2226.23 154.82 2228.59 157.135 Q2230.97 159.427 2235.21 159.427 Q2237.66 159.427 2239.95 158.825 Q2242.27 158.223 2244.54 157.019 L2244.54 161.047 Q2242.25 162.019 2239.84 162.528 Q2237.43 163.038 2234.95 163.038 Q2228.75 163.038 2225.12 159.427 Q2221.51 155.816 2221.51 149.658 Q2221.51 143.292 2224.93 139.566 Q2228.38 135.816 2234.21 135.816 Q2239.45 135.816 2242.48 139.195 Q2245.53 142.552 2245.53 148.339 M2241.27 147.089 Q2241.23 143.593 2239.31 141.51 Q2237.41 139.427 2234.26 139.427 Q2230.7 139.427 2228.54 141.441 Q2226.41 143.455 2226.09 147.112 L2241.27 147.089 Z" fill="#000000" fill-rule="evenodd" fill-opacity="1" /></svg>
