<?xml version="1.0" encoding="utf-8"?>
<svg xmlns="http://www.w3.org/2000/svg" xmlns:xlink="http://www.w3.org/1999/xlink" width="600" height="400" viewBox="0 0 2400 1600">
<defs>
  <clipPath id="clip790">
    <rect x="0" y="0" width="2400" height="1600"/>
  </clipPath>
</defs>
<path clip-path="url(#clip790)" d="
M0 1600 L2400 1600 L2400 0 L0 0  Z
  " fill="#ffffff" fill-rule="evenodd" fill-opacity="1"/>
<defs>
  <clipPath id="clip791">
    <rect x="480" y="0" width="1681" height="1600"/>
  </clipPath>
</defs>
<defs>
  <clipPath id="clip792">
    <rect x="422" y="47" width="1931" height="1381"/>
  </clipPath>
</defs>
<path clip-path="url(#clip790)" d="
M422.753 1427.31 L2352.76 1427.31 L2352.76 123.472 L422.753 123.472  Z
  " fill="#ffffff" fill-rule="evenodd" fill-opacity="1"/>
<defs>
  <clipPath id="clip793">
    <rect x="422" y="123" width="1931" height="1305"/>
  </clipPath>
</defs>
<polyline clip-path="url(#clip793)" style="stroke:#000000; stroke-linecap:butt; stroke-linejoin:round; stroke-width:2; stroke-opacity:0.1; fill:none" points="
  522.353,1427.31 522.353,123.472 
  "/>
<polyline clip-path="url(#clip793)" style="stroke:#000000; stroke-linecap:butt; stroke-linejoin:round; stroke-width:2; stroke-opacity:0.1; fill:none" points="
  890.139,1427.31 890.139,123.472 
  "/>
<polyline clip-path="url(#clip793)" style="stroke:#000000; stroke-linecap:butt; stroke-linejoin:round; stroke-width:2; stroke-opacity:0.1; fill:none" points="
  1257.93,1427.31 1257.93,123.472 
  "/>
<polyline clip-path="url(#clip793)" style="stroke:#000000; stroke-linecap:butt; stroke-linejoin:round; stroke-width:2; stroke-opacity:0.1; fill:none" points="
  1625.71,1427.31 1625.71,123.472 
  "/>
<polyline clip-path="url(#clip793)" style="stroke:#000000; stroke-linecap:butt; stroke-linejoin:round; stroke-width:2; stroke-opacity:0.1; fill:none" points="
  1993.5,1427.31 1993.5,123.472 
  "/>
<polyline clip-path="url(#clip790)" style="stroke:#000000; stroke-linecap:butt; stroke-linejoin:round; stroke-width:4; stroke-opacity:1; fill:none" points="
  422.753,1427.31 2352.76,1427.31 
  "/>
<polyline clip-path="url(#clip790)" style="stroke:#000000; stroke-linecap:butt; stroke-linejoin:round; stroke-width:4; stroke-opacity:1; fill:none" points="
  522.353,1427.31 522.353,1408.42 
  "/>
<polyline clip-path="url(#clip790)" style="stroke:#000000; stroke-linecap:butt; stroke-linejoin:round; stroke-width:4; stroke-opacity:1; fill:none" points="
  890.139,1427.31 890.139,1408.42 
  "/>
<polyline clip-path="url(#clip790)" style="stroke:#000000; stroke-linecap:butt; stroke-linejoin:round; stroke-width:4; stroke-opacity:1; fill:none" points="
  1257.93,1427.31 1257.93,1408.42 
  "/>
<polyline clip-path="url(#clip790)" style="stroke:#000000; stroke-linecap:butt; stroke-linejoin:round; stroke-width:4; stroke-opacity:1; fill:none" points="
  1625.71,1427.31 1625.71,1408.42 
  "/>
<polyline clip-path="url(#clip790)" style="stroke:#000000; stroke-linecap:butt; stroke-linejoin:round; stroke-width:4; stroke-opacity:1; fill:none" points="
  1993.5,1427.31 1993.5,1408.42 
  "/>
<path clip-path="url(#clip790)" d="M497.04 1484.05 L504.679 1484.05 L504.679 1457.69 L496.369 1459.35 L496.369 1455.09 L504.633 1453.43 L509.309 1453.43 L509.309 1484.05 L516.947 1484.05 L516.947 1487.99 L497.04 1487.99 L497.04 1484.05 Z" fill="#000000" fill-rule="evenodd" fill-opacity="1" /><path clip-path="url(#clip790)" d="M536.392 1456.51 Q532.781 1456.51 530.952 1460.07 Q529.146 1463.61 529.146 1470.74 Q529.146 1477.85 530.952 1481.41 Q532.781 1484.95 536.392 1484.95 Q540.026 1484.95 541.832 1481.41 Q543.66 1477.85 543.66 1470.74 Q543.66 1463.61 541.832 1460.07 Q540.026 1456.51 536.392 1456.51 M536.392 1452.8 Q542.202 1452.8 545.258 1457.41 Q548.336 1461.99 548.336 1470.74 Q548.336 1479.47 545.258 1484.07 Q542.202 1488.66 536.392 1488.66 Q530.582 1488.66 527.503 1484.07 Q524.447 1479.47 524.447 1470.74 Q524.447 1461.99 527.503 1457.41 Q530.582 1452.8 536.392 1452.8 Z" fill="#000000" fill-rule="evenodd" fill-opacity="1" /><path clip-path="url(#clip790)" d="M865.625 1484.05 L873.264 1484.05 L873.264 1457.69 L864.954 1459.35 L864.954 1455.09 L873.218 1453.43 L877.894 1453.43 L877.894 1484.05 L885.533 1484.05 L885.533 1487.99 L865.625 1487.99 L865.625 1484.05 Z" fill="#000000" fill-rule="evenodd" fill-opacity="1" /><path clip-path="url(#clip790)" d="M899.005 1484.05 L915.324 1484.05 L915.324 1487.99 L893.38 1487.99 L893.38 1484.05 Q896.042 1481.3 900.625 1476.67 Q905.232 1472.01 906.412 1470.67 Q908.658 1468.15 909.537 1466.41 Q910.44 1464.65 910.44 1462.96 Q910.44 1460.21 908.496 1458.47 Q906.574 1456.74 903.472 1456.74 Q901.273 1456.74 898.82 1457.5 Q896.389 1458.26 893.611 1459.82 L893.611 1455.09 Q896.435 1453.96 898.889 1453.38 Q901.343 1452.8 903.38 1452.8 Q908.75 1452.8 911.945 1455.49 Q915.139 1458.17 915.139 1462.66 Q915.139 1464.79 914.329 1466.71 Q913.542 1468.61 911.435 1471.2 Q910.857 1471.88 907.755 1475.09 Q904.653 1478.29 899.005 1484.05 Z" fill="#000000" fill-rule="evenodd" fill-opacity="1" /><path clip-path="url(#clip790)" d="M1232.37 1484.05 L1240.01 1484.05 L1240.01 1457.69 L1231.7 1459.35 L1231.7 1455.09 L1239.96 1453.43 L1244.64 1453.43 L1244.64 1484.05 L1252.28 1484.05 L1252.28 1487.99 L1232.37 1487.99 L1232.37 1484.05 Z" fill="#000000" fill-rule="evenodd" fill-opacity="1" /><path clip-path="url(#clip790)" d="M1274.57 1457.5 L1262.76 1475.95 L1274.57 1475.95 L1274.57 1457.5 M1273.34 1453.43 L1279.22 1453.43 L1279.22 1475.95 L1284.15 1475.95 L1284.15 1479.84 L1279.22 1479.84 L1279.22 1487.99 L1274.57 1487.99 L1274.57 1479.84 L1258.97 1479.84 L1258.97 1475.32 L1273.34 1453.43 Z" fill="#000000" fill-rule="evenodd" fill-opacity="1" /><path clip-path="url(#clip790)" d="M1600.32 1484.05 L1607.96 1484.05 L1607.96 1457.69 L1599.65 1459.35 L1599.65 1455.09 L1607.91 1453.43 L1612.59 1453.43 L1612.59 1484.05 L1620.23 1484.05 L1620.23 1487.99 L1600.32 1487.99 L1600.32 1484.05 Z" fill="#000000" fill-rule="evenodd" fill-opacity="1" /><path clip-path="url(#clip790)" d="M1640.25 1468.84 Q1637.1 1468.84 1635.25 1471 Q1633.42 1473.15 1633.42 1476.9 Q1633.42 1480.63 1635.25 1482.8 Q1637.1 1484.95 1640.25 1484.95 Q1643.4 1484.95 1645.23 1482.8 Q1647.08 1480.63 1647.08 1476.9 Q1647.08 1473.15 1645.23 1471 Q1643.4 1468.84 1640.25 1468.84 M1649.53 1454.19 L1649.53 1458.45 Q1647.77 1457.62 1645.97 1457.18 Q1644.18 1456.74 1642.43 1456.74 Q1637.8 1456.74 1635.34 1459.86 Q1632.91 1462.99 1632.56 1469.31 Q1633.93 1467.29 1635.99 1466.23 Q1638.05 1465.14 1640.53 1465.14 Q1645.74 1465.14 1648.74 1468.31 Q1651.78 1471.46 1651.78 1476.9 Q1651.78 1482.22 1648.63 1485.44 Q1645.48 1488.66 1640.25 1488.66 Q1634.25 1488.66 1631.08 1484.07 Q1627.91 1479.47 1627.91 1470.74 Q1627.91 1462.55 1631.8 1457.69 Q1635.69 1452.8 1642.24 1452.8 Q1644 1452.8 1645.78 1453.15 Q1647.59 1453.5 1649.53 1454.19 Z" fill="#000000" fill-rule="evenodd" fill-opacity="1" /><path clip-path="url(#clip790)" d="M1968.23 1484.05 L1975.87 1484.05 L1975.87 1457.69 L1967.56 1459.35 L1967.56 1455.09 L1975.83 1453.43 L1980.5 1453.43 L1980.5 1484.05 L1988.14 1484.05 L1988.14 1487.99 L1968.23 1487.99 L1968.23 1484.05 Z" fill="#000000" fill-rule="evenodd" fill-opacity="1" /><path clip-path="url(#clip790)" d="M2007.58 1471.57 Q2004.25 1471.57 2002.33 1473.36 Q2000.43 1475.14 2000.43 1478.26 Q2000.43 1481.39 2002.33 1483.17 Q2004.25 1484.95 2007.58 1484.95 Q2010.92 1484.95 2012.84 1483.17 Q2014.76 1481.37 2014.76 1478.26 Q2014.76 1475.14 2012.84 1473.36 Q2010.94 1471.57 2007.58 1471.57 M2002.91 1469.58 Q1999.9 1468.84 1998.21 1466.78 Q1996.54 1464.72 1996.54 1461.76 Q1996.54 1457.62 1999.48 1455.21 Q2002.45 1452.8 2007.58 1452.8 Q2012.75 1452.8 2015.69 1455.21 Q2018.63 1457.62 2018.63 1461.76 Q2018.63 1464.72 2016.94 1466.78 Q2015.27 1468.84 2012.28 1469.58 Q2015.66 1470.37 2017.54 1472.66 Q2019.44 1474.95 2019.44 1478.26 Q2019.44 1483.29 2016.36 1485.97 Q2013.3 1488.66 2007.58 1488.66 Q2001.87 1488.66 1998.79 1485.97 Q1995.73 1483.29 1995.73 1478.26 Q1995.73 1474.95 1997.63 1472.66 Q1999.53 1470.37 2002.91 1469.58 M2001.2 1462.2 Q2001.2 1464.88 2002.86 1466.39 Q2004.55 1467.89 2007.58 1467.89 Q2010.59 1467.89 2012.28 1466.39 Q2014 1464.88 2014 1462.2 Q2014 1459.51 2012.28 1458.01 Q2010.59 1456.51 2007.58 1456.51 Q2004.55 1456.51 2002.86 1458.01 Q2001.2 1459.51 2001.2 1462.2 Z" fill="#000000" fill-rule="evenodd" fill-opacity="1" /><path clip-path="url(#clip790)" d="M1349.31 1515.56 Q1349.31 1517.33 1348.18 1518.42 Q1347.09 1519.52 1345.7 1519.52 Q1344.71 1519.52 1343.97 1518.91 Q1343.26 1518.29 1343.26 1517.23 Q1343.26 1516.14 1344.09 1514.98 Q1344.93 1513.82 1346.83 1513.66 Q1345.58 1512.47 1343.58 1512.47 Q1342.58 1512.47 1341.74 1513.11 Q1340.94 1513.72 1340.49 1514.72 Q1340 1515.75 1338.91 1521.58 Q1338.55 1523.48 1338.23 1525.32 Q1337.91 1527.15 1337.52 1529.08 L1343 1529.08 Q1343.71 1529.08 1344 1529.12 Q1344.29 1529.15 1344.51 1529.31 Q1344.77 1529.47 1344.77 1529.82 Q1344.77 1530.73 1344.35 1530.95 Q1343.97 1531.15 1342.81 1531.15 L1337.14 1531.15 L1333.18 1552.05 Q1333.08 1552.66 1332.66 1554.59 Q1332.27 1556.49 1331.34 1559.61 Q1330.41 1562.77 1329.47 1564.64 Q1328.96 1565.7 1328.28 1566.7 Q1327.64 1567.73 1326.7 1568.76 Q1325.77 1569.79 1324.55 1570.4 Q1323.32 1571.05 1322.03 1571.05 Q1319.84 1571.05 1318.14 1569.82 Q1316.43 1568.6 1316.43 1566.51 Q1316.43 1564.74 1317.52 1563.64 Q1318.65 1562.55 1320.04 1562.55 Q1321.03 1562.55 1321.74 1563.16 Q1322.48 1563.77 1322.48 1564.83 Q1322.48 1565.28 1322.32 1565.8 Q1322.16 1566.31 1321.81 1566.89 Q1321.45 1567.51 1320.68 1567.92 Q1319.91 1568.34 1318.84 1568.41 Q1320.1 1569.6 1322.03 1569.6 Q1322.65 1569.6 1323.19 1569.34 Q1323.74 1569.12 1324.19 1568.54 Q1324.67 1567.96 1325.03 1567.38 Q1325.38 1566.83 1325.74 1565.77 Q1326.09 1564.74 1326.32 1563.96 Q1326.54 1563.19 1326.83 1561.8 Q1327.15 1560.42 1327.31 1559.58 Q1327.48 1558.78 1327.77 1557.2 L1332.69 1531.15 L1328.35 1531.15 Q1327.57 1531.15 1327.25 1531.11 Q1326.96 1531.08 1326.74 1530.92 Q1326.51 1530.73 1326.51 1530.34 Q1326.51 1529.73 1326.77 1529.47 Q1327.06 1529.18 1327.38 1529.15 Q1327.7 1529.08 1328.47 1529.08 L1333.05 1529.08 Q1334.59 1520.94 1335.21 1518.75 Q1335.91 1516.43 1337.01 1514.82 Q1338.1 1513.17 1339.33 1512.4 Q1340.55 1511.63 1341.55 1511.34 Q1342.58 1511.02 1343.58 1511.02 Q1345.83 1511.02 1347.57 1512.24 Q1349.31 1513.43 1349.31 1515.56 Z" fill="#000000" fill-rule="evenodd" fill-opacity="1" /><path clip-path="url(#clip790)" d="M1348.42 1573.08 Q1348.42 1572.75 1348.68 1572.05 L1371.97 1509.82 Q1371.97 1509.76 1372.13 1509.41 Q1372.29 1509.05 1372.38 1508.83 Q1372.48 1508.57 1372.67 1508.38 Q1372.9 1508.18 1373.16 1508.18 Q1373.8 1508.18 1373.8 1508.99 Q1373.8 1509.05 1373.61 1509.82 L1350.26 1572.11 Q1349.87 1573.24 1349.62 1573.56 Q1349.39 1573.88 1349 1573.88 Q1348.42 1573.88 1348.42 1573.08 Z" fill="#000000" fill-rule="evenodd" fill-opacity="1" /><path clip-path="url(#clip790)" d="M1381.09 1557.52 L1381.09 1555.49 L1382.67 1555.49 Q1386.24 1555.49 1387.05 1554.91 Q1387.88 1554.3 1387.88 1552.37 L1387.88 1517.62 Q1387.88 1515.72 1387.05 1515.14 Q1386.21 1514.53 1382.67 1514.53 L1381.09 1514.53 L1381.09 1512.47 Q1383.41 1512.66 1390.85 1512.66 Q1398.22 1512.66 1400.54 1512.47 L1400.54 1514.53 L1398.96 1514.53 Q1395.39 1514.53 1394.55 1515.14 Q1393.74 1515.72 1393.74 1517.62 L1393.74 1533.05 L1413.45 1533.05 L1413.45 1517.62 Q1413.45 1515.72 1412.62 1515.14 Q1411.81 1514.53 1408.24 1514.53 L1406.66 1514.53 L1406.66 1512.47 Q1408.98 1512.66 1416.42 1512.66 Q1423.79 1512.66 1426.11 1512.47 L1426.11 1514.53 L1424.53 1514.53 Q1420.96 1514.53 1420.12 1515.14 Q1419.32 1515.72 1419.32 1517.62 L1419.32 1552.37 Q1419.32 1554.27 1420.15 1554.88 Q1420.99 1555.49 1424.53 1555.49 L1426.11 1555.49 L1426.11 1557.52 Q1423.79 1557.33 1416.35 1557.33 Q1408.98 1557.33 1406.66 1557.52 L1406.66 1555.49 L1408.24 1555.49 Q1411.81 1555.49 1412.62 1554.91 Q1413.45 1554.3 1413.45 1552.37 L1413.45 1535.11 L1393.74 1535.11 L1393.74 1552.37 Q1393.74 1554.27 1394.55 1554.88 Q1395.39 1555.49 1398.96 1555.49 L1400.54 1555.49 L1400.54 1557.52 Q1398.22 1557.33 1390.78 1557.33 Q1383.41 1557.33 1381.09 1557.52 Z" fill="#000000" fill-rule="evenodd" fill-opacity="1" /><path clip-path="url(#clip790)" d="M1430.08 1556.59 Q1430.08 1556.14 1430.7 1555.4 L1449.09 1530.53 L1441.58 1530.53 Q1436.36 1530.53 1434.66 1532.47 Q1432.98 1534.37 1432.66 1539.71 L1431.02 1539.71 L1431.76 1529.08 L1452.85 1529.08 Q1453.59 1529.08 1453.88 1529.12 Q1454.17 1529.15 1454.37 1529.37 Q1454.56 1529.57 1454.56 1529.95 Q1454.56 1530.34 1453.98 1531.08 L1435.62 1555.88 L1443.42 1555.88 Q1448.89 1555.88 1450.73 1553.59 Q1452.6 1551.31 1453.05 1545.19 L1454.69 1545.19 L1453.56 1557.52 L1431.82 1557.52 Q1430.76 1557.52 1430.41 1557.39 Q1430.08 1557.23 1430.08 1556.59 Z" fill="#000000" fill-rule="evenodd" fill-opacity="1" /><polyline clip-path="url(#clip793)" style="stroke:#000000; stroke-linecap:butt; stroke-linejoin:round; stroke-width:2; stroke-opacity:0.1; fill:none" points="
  422.753,1324.23 2352.76,1324.23 
  "/>
<polyline clip-path="url(#clip793)" style="stroke:#000000; stroke-linecap:butt; stroke-linejoin:round; stroke-width:2; stroke-opacity:0.1; fill:none" points="
  422.753,986.59 2352.76,986.59 
  "/>
<polyline clip-path="url(#clip793)" style="stroke:#000000; stroke-linecap:butt; stroke-linejoin:round; stroke-width:2; stroke-opacity:0.1; fill:none" points="
  422.753,648.945 2352.76,648.945 
  "/>
<polyline clip-path="url(#clip793)" style="stroke:#000000; stroke-linecap:butt; stroke-linejoin:round; stroke-width:2; stroke-opacity:0.1; fill:none" points="
  422.753,311.301 2352.76,311.301 
  "/>
<polyline clip-path="url(#clip790)" style="stroke:#000000; stroke-linecap:butt; stroke-linejoin:round; stroke-width:4; stroke-opacity:1; fill:none" points="
  422.753,1427.31 422.753,123.472 
  "/>
<polyline clip-path="url(#clip790)" style="stroke:#000000; stroke-linecap:butt; stroke-linejoin:round; stroke-width:4; stroke-opacity:1; fill:none" points="
  422.753,1324.23 441.651,1324.23 
  "/>
<polyline clip-path="url(#clip790)" style="stroke:#000000; stroke-linecap:butt; stroke-linejoin:round; stroke-width:4; stroke-opacity:1; fill:none" points="
  422.753,986.59 441.651,986.59 
  "/>
<polyline clip-path="url(#clip790)" style="stroke:#000000; stroke-linecap:butt; stroke-linejoin:round; stroke-width:4; stroke-opacity:1; fill:none" points="
  422.753,648.945 441.651,648.945 
  "/>
<polyline clip-path="url(#clip790)" style="stroke:#000000; stroke-linecap:butt; stroke-linejoin:round; stroke-width:4; stroke-opacity:1; fill:none" points="
  422.753,311.301 441.651,311.301 
  "/>
<path clip-path="url(#clip790)" d="M129.885 1329.33 Q133.242 1330.05 135.117 1332.31 Q137.015 1334.58 137.015 1337.92 Q137.015 1343.03 133.496 1345.83 Q129.978 1348.63 123.496 1348.63 Q121.32 1348.63 119.006 1348.19 Q116.714 1347.78 114.26 1346.92 L114.26 1342.41 Q116.205 1343.54 118.519 1344.12 Q120.834 1344.7 123.357 1344.7 Q127.755 1344.7 130.047 1342.96 Q132.362 1341.23 132.362 1337.92 Q132.362 1334.86 130.209 1333.15 Q128.08 1331.41 124.26 1331.41 L120.232 1331.41 L120.232 1327.57 L124.445 1327.57 Q127.894 1327.57 129.723 1326.2 Q131.552 1324.81 131.552 1322.22 Q131.552 1319.56 129.654 1318.15 Q127.779 1316.71 124.26 1316.71 Q122.339 1316.71 120.14 1317.13 Q117.941 1317.55 115.302 1318.43 L115.302 1314.26 Q117.964 1313.52 120.279 1313.15 Q122.617 1312.78 124.677 1312.78 Q130.001 1312.78 133.103 1315.21 Q136.204 1317.62 136.204 1321.74 Q136.204 1324.61 134.561 1326.6 Q132.917 1328.56 129.885 1329.33 Z" fill="#000000" fill-rule="evenodd" fill-opacity="1" /><path clip-path="url(#clip790)" d="M145.88 1342.08 L150.765 1342.08 L150.765 1347.96 L145.88 1347.96 L145.88 1342.08 Z" fill="#000000" fill-rule="evenodd" fill-opacity="1" /><path clip-path="url(#clip790)" d="M164.977 1344.03 L181.297 1344.03 L181.297 1347.96 L159.353 1347.96 L159.353 1344.03 Q162.015 1341.27 166.598 1336.64 Q171.204 1331.99 172.385 1330.65 Q174.63 1328.12 175.51 1326.39 Q176.413 1324.63 176.413 1322.94 Q176.413 1320.18 174.468 1318.45 Q172.547 1316.71 169.445 1316.71 Q167.246 1316.71 164.792 1317.48 Q162.362 1318.24 159.584 1319.79 L159.584 1315.07 Q162.408 1313.93 164.862 1313.36 Q167.315 1312.78 169.352 1312.78 Q174.723 1312.78 177.917 1315.46 Q181.112 1318.15 181.112 1322.64 Q181.112 1324.77 180.301 1326.69 Q179.514 1328.59 177.408 1331.18 Q176.829 1331.85 173.727 1335.07 Q170.626 1338.26 164.977 1344.03 Z" fill="#000000" fill-rule="evenodd" fill-opacity="1" /><path clip-path="url(#clip790)" d="M201.112 1316.48 Q197.5 1316.48 195.672 1320.05 Q193.866 1323.59 193.866 1330.72 Q193.866 1337.82 195.672 1341.39 Q197.5 1344.93 201.112 1344.93 Q204.746 1344.93 206.551 1341.39 Q208.38 1337.82 208.38 1330.72 Q208.38 1323.59 206.551 1320.05 Q204.746 1316.48 201.112 1316.48 M201.112 1312.78 Q206.922 1312.78 209.977 1317.38 Q213.056 1321.97 213.056 1330.72 Q213.056 1339.44 209.977 1344.05 Q206.922 1348.63 201.112 1348.63 Q195.301 1348.63 192.223 1344.05 Q189.167 1339.44 189.167 1330.72 Q189.167 1321.97 192.223 1317.38 Q195.301 1312.78 201.112 1312.78 Z" fill="#000000" fill-rule="evenodd" fill-opacity="1" /><path clip-path="url(#clip790)" d="M249.445 1322.5 L238.866 1333.12 L249.445 1343.7 L246.69 1346.5 L236.065 1335.88 L225.44 1346.5 L222.709 1343.7 L233.264 1333.12 L222.709 1322.5 L225.44 1319.7 L236.065 1330.32 L246.69 1319.7 L249.445 1322.5 Z" fill="#000000" fill-rule="evenodd" fill-opacity="1" /><path clip-path="url(#clip790)" d="M261.806 1344.03 L269.445 1344.03 L269.445 1317.66 L261.134 1319.33 L261.134 1315.07 L269.398 1313.4 L274.074 1313.4 L274.074 1344.03 L281.713 1344.03 L281.713 1347.96 L261.806 1347.96 L261.806 1344.03 Z" fill="#000000" fill-rule="evenodd" fill-opacity="1" /><path clip-path="url(#clip790)" d="M301.157 1316.48 Q297.546 1316.48 295.718 1320.05 Q293.912 1323.59 293.912 1330.72 Q293.912 1337.82 295.718 1341.39 Q297.546 1344.93 301.157 1344.93 Q304.792 1344.93 306.597 1341.39 Q308.426 1337.82 308.426 1330.72 Q308.426 1323.59 306.597 1320.05 Q304.792 1316.48 301.157 1316.48 M301.157 1312.78 Q306.967 1312.78 310.023 1317.38 Q313.102 1321.97 313.102 1330.72 Q313.102 1339.44 310.023 1344.05 Q306.967 1348.63 301.157 1348.63 Q295.347 1348.63 292.268 1344.05 Q289.213 1339.44 289.213 1330.72 Q289.213 1321.97 292.268 1317.38 Q295.347 1312.78 301.157 1312.78 Z" fill="#000000" fill-rule="evenodd" fill-opacity="1" /><path clip-path="url(#clip790)" d="M313.102 1306.88 L337.213 1306.88 L337.213 1310.08 L313.102 1310.08 L313.102 1306.88 Z" fill="#000000" fill-rule="evenodd" fill-opacity="1" /><path clip-path="url(#clip790)" d="M346.072 1317.35 L352.278 1317.35 L352.278 1295.93 L345.526 1297.29 L345.526 1293.83 L352.241 1292.47 L356.04 1292.47 L356.04 1317.35 L362.246 1317.35 L362.246 1320.55 L346.072 1320.55 L346.072 1317.35 Z" fill="#000000" fill-rule="evenodd" fill-opacity="1" /><path clip-path="url(#clip790)" d="M370.578 1317.35 L376.785 1317.35 L376.785 1295.93 L370.033 1297.29 L370.033 1293.83 L376.747 1292.47 L380.546 1292.47 L380.546 1317.35 L386.753 1317.35 L386.753 1320.55 L370.578 1320.55 L370.578 1317.35 Z" fill="#000000" fill-rule="evenodd" fill-opacity="1" /><path clip-path="url(#clip790)" d="M129.885 991.684 Q133.242 992.401 135.117 994.67 Q137.015 996.938 137.015 1000.27 Q137.015 1005.39 133.496 1008.19 Q129.978 1010.99 123.496 1010.99 Q121.32 1010.99 119.006 1010.55 Q116.714 1010.13 114.26 1009.28 L114.26 1004.76 Q116.205 1005.9 118.519 1006.48 Q120.834 1007.05 123.357 1007.05 Q127.755 1007.05 130.047 1005.32 Q132.362 1003.58 132.362 1000.27 Q132.362 997.216 130.209 995.503 Q128.08 993.767 124.26 993.767 L120.232 993.767 L120.232 989.924 L124.445 989.924 Q127.894 989.924 129.723 988.559 Q131.552 987.17 131.552 984.577 Q131.552 981.915 129.654 980.503 Q127.779 979.068 124.26 979.068 Q122.339 979.068 120.14 979.485 Q117.941 979.901 115.302 980.781 L115.302 976.614 Q117.964 975.873 120.279 975.503 Q122.617 975.133 124.677 975.133 Q130.001 975.133 133.103 977.563 Q136.204 979.971 136.204 984.091 Q136.204 986.961 134.561 988.952 Q132.917 990.92 129.885 991.684 Z" fill="#000000" fill-rule="evenodd" fill-opacity="1" /><path clip-path="url(#clip790)" d="M145.88 1004.44 L150.765 1004.44 L150.765 1010.32 L145.88 1010.32 L145.88 1004.44 Z" fill="#000000" fill-rule="evenodd" fill-opacity="1" /><path clip-path="url(#clip790)" d="M175.116 991.684 Q178.473 992.401 180.348 994.67 Q182.246 996.938 182.246 1000.27 Q182.246 1005.39 178.727 1008.19 Q175.209 1010.99 168.727 1010.99 Q166.552 1010.99 164.237 1010.55 Q161.945 1010.13 159.491 1009.28 L159.491 1004.76 Q161.436 1005.9 163.751 1006.48 Q166.065 1007.05 168.589 1007.05 Q172.987 1007.05 175.278 1005.32 Q177.593 1003.58 177.593 1000.27 Q177.593 997.216 175.44 995.503 Q173.311 993.767 169.491 993.767 L165.464 993.767 L165.464 989.924 L169.677 989.924 Q173.126 989.924 174.954 988.559 Q176.783 987.17 176.783 984.577 Q176.783 981.915 174.885 980.503 Q173.01 979.068 169.491 979.068 Q167.57 979.068 165.371 979.485 Q163.172 979.901 160.533 980.781 L160.533 976.614 Q163.195 975.873 165.51 975.503 Q167.848 975.133 169.908 975.133 Q175.232 975.133 178.334 977.563 Q181.436 979.971 181.436 984.091 Q181.436 986.961 179.792 988.952 Q178.149 990.92 175.116 991.684 Z" fill="#000000" fill-rule="evenodd" fill-opacity="1" /><path clip-path="url(#clip790)" d="M201.112 978.836 Q197.5 978.836 195.672 982.401 Q193.866 985.943 193.866 993.072 Q193.866 1000.18 195.672 1003.74 Q197.5 1007.29 201.112 1007.29 Q204.746 1007.29 206.551 1003.74 Q208.38 1000.18 208.38 993.072 Q208.38 985.943 206.551 982.401 Q204.746 978.836 201.112 978.836 M201.112 975.133 Q206.922 975.133 209.977 979.739 Q213.056 984.322 213.056 993.072 Q213.056 1001.8 209.977 1006.41 Q206.922 1010.99 201.112 1010.99 Q195.301 1010.99 192.223 1006.41 Q189.167 1001.8 189.167 993.072 Q189.167 984.322 192.223 979.739 Q195.301 975.133 201.112 975.133 Z" fill="#000000" fill-rule="evenodd" fill-opacity="1" /><path clip-path="url(#clip790)" d="M249.445 984.855 L238.866 995.48 L249.445 1006.06 L246.69 1008.86 L236.065 998.234 L225.44 1008.86 L222.709 1006.06 L233.264 995.48 L222.709 984.855 L225.44 982.054 L236.065 992.679 L246.69 982.054 L249.445 984.855 Z" fill="#000000" fill-rule="evenodd" fill-opacity="1" /><path clip-path="url(#clip790)" d="M261.806 1006.38 L269.445 1006.38 L269.445 980.017 L261.134 981.684 L261.134 977.424 L269.398 975.758 L274.074 975.758 L274.074 1006.38 L281.713 1006.38 L281.713 1010.32 L261.806 1010.32 L261.806 1006.38 Z" fill="#000000" fill-rule="evenodd" fill-opacity="1" /><path clip-path="url(#clip790)" d="M301.157 978.836 Q297.546 978.836 295.718 982.401 Q293.912 985.943 293.912 993.072 Q293.912 1000.18 295.718 1003.74 Q297.546 1007.29 301.157 1007.29 Q304.792 1007.29 306.597 1003.74 Q308.426 1000.18 308.426 993.072 Q308.426 985.943 306.597 982.401 Q304.792 978.836 301.157 978.836 M301.157 975.133 Q306.967 975.133 310.023 979.739 Q313.102 984.322 313.102 993.072 Q313.102 1001.8 310.023 1006.41 Q306.967 1010.99 301.157 1010.99 Q295.347 1010.99 292.268 1006.41 Q289.213 1001.8 289.213 993.072 Q289.213 984.322 292.268 979.739 Q295.347 975.133 301.157 975.133 Z" fill="#000000" fill-rule="evenodd" fill-opacity="1" /><path clip-path="url(#clip790)" d="M313.102 969.234 L337.213 969.234 L337.213 972.431 L313.102 972.431 L313.102 969.234 Z" fill="#000000" fill-rule="evenodd" fill-opacity="1" /><path clip-path="url(#clip790)" d="M346.072 979.71 L352.278 979.71 L352.278 958.288 L345.526 959.642 L345.526 956.181 L352.241 954.827 L356.04 954.827 L356.04 979.71 L362.246 979.71 L362.246 982.907 L346.072 982.907 L346.072 979.71 Z" fill="#000000" fill-rule="evenodd" fill-opacity="1" /><path clip-path="url(#clip790)" d="M370.578 979.71 L376.785 979.71 L376.785 958.288 L370.033 959.642 L370.033 956.181 L376.747 954.827 L380.546 954.827 L380.546 979.71 L386.753 979.71 L386.753 982.907 L370.578 982.907 L370.578 979.71 Z" fill="#000000" fill-rule="evenodd" fill-opacity="1" /><path clip-path="url(#clip790)" d="M129.885 654.039 Q133.242 654.756 135.117 657.025 Q137.015 659.293 137.015 662.627 Q137.015 667.742 133.496 670.543 Q129.978 673.344 123.496 673.344 Q121.32 673.344 119.006 672.904 Q116.714 672.488 114.26 671.631 L114.26 667.117 Q116.205 668.252 118.519 668.83 Q120.834 669.409 123.357 669.409 Q127.755 669.409 130.047 667.673 Q132.362 665.937 132.362 662.627 Q132.362 659.571 130.209 657.858 Q128.08 656.122 124.26 656.122 L120.232 656.122 L120.232 652.279 L124.445 652.279 Q127.894 652.279 129.723 650.914 Q131.552 649.525 131.552 646.932 Q131.552 644.27 129.654 642.858 Q127.779 641.423 124.26 641.423 Q122.339 641.423 120.14 641.84 Q117.941 642.256 115.302 643.136 L115.302 638.969 Q117.964 638.229 120.279 637.858 Q122.617 637.488 124.677 637.488 Q130.001 637.488 133.103 639.918 Q136.204 642.326 136.204 646.446 Q136.204 649.317 134.561 651.307 Q132.917 653.275 129.885 654.039 Z" fill="#000000" fill-rule="evenodd" fill-opacity="1" /><path clip-path="url(#clip790)" d="M145.88 666.793 L150.765 666.793 L150.765 672.673 L145.88 672.673 L145.88 666.793 Z" fill="#000000" fill-rule="evenodd" fill-opacity="1" /><path clip-path="url(#clip790)" d="M173.797 642.187 L161.991 660.636 L173.797 660.636 L173.797 642.187 M172.57 638.113 L178.45 638.113 L178.45 660.636 L183.38 660.636 L183.38 664.525 L178.45 664.525 L178.45 672.673 L173.797 672.673 L173.797 664.525 L158.195 664.525 L158.195 660.011 L172.57 638.113 Z" fill="#000000" fill-rule="evenodd" fill-opacity="1" /><path clip-path="url(#clip790)" d="M201.112 641.192 Q197.5 641.192 195.672 644.756 Q193.866 648.298 193.866 655.428 Q193.866 662.534 195.672 666.099 Q197.5 669.641 201.112 669.641 Q204.746 669.641 206.551 666.099 Q208.38 662.534 208.38 655.428 Q208.38 648.298 206.551 644.756 Q204.746 641.192 201.112 641.192 M201.112 637.488 Q206.922 637.488 209.977 642.094 Q213.056 646.678 213.056 655.428 Q213.056 664.154 209.977 668.761 Q206.922 673.344 201.112 673.344 Q195.301 673.344 192.223 668.761 Q189.167 664.154 189.167 655.428 Q189.167 646.678 192.223 642.094 Q195.301 637.488 201.112 637.488 Z" fill="#000000" fill-rule="evenodd" fill-opacity="1" /><path clip-path="url(#clip790)" d="M249.445 647.21 L238.866 657.835 L249.445 668.414 L246.69 671.215 L236.065 660.59 L225.44 671.215 L222.709 668.414 L233.264 657.835 L222.709 647.21 L225.44 644.409 L236.065 655.034 L246.69 644.409 L249.445 647.21 Z" fill="#000000" fill-rule="evenodd" fill-opacity="1" /><path clip-path="url(#clip790)" d="M261.806 668.738 L269.445 668.738 L269.445 642.372 L261.134 644.039 L261.134 639.78 L269.398 638.113 L274.074 638.113 L274.074 668.738 L281.713 668.738 L281.713 672.673 L261.806 672.673 L261.806 668.738 Z" fill="#000000" fill-rule="evenodd" fill-opacity="1" /><path clip-path="url(#clip790)" d="M301.157 641.192 Q297.546 641.192 295.718 644.756 Q293.912 648.298 293.912 655.428 Q293.912 662.534 295.718 666.099 Q297.546 669.641 301.157 669.641 Q304.792 669.641 306.597 666.099 Q308.426 662.534 308.426 655.428 Q308.426 648.298 306.597 644.756 Q304.792 641.192 301.157 641.192 M301.157 637.488 Q306.967 637.488 310.023 642.094 Q313.102 646.678 313.102 655.428 Q313.102 664.154 310.023 668.761 Q306.967 673.344 301.157 673.344 Q295.347 673.344 292.268 668.761 Q289.213 664.154 289.213 655.428 Q289.213 646.678 292.268 642.094 Q295.347 637.488 301.157 637.488 Z" fill="#000000" fill-rule="evenodd" fill-opacity="1" /><path clip-path="url(#clip790)" d="M313.102 631.589 L337.213 631.589 L337.213 634.787 L313.102 634.787 L313.102 631.589 Z" fill="#000000" fill-rule="evenodd" fill-opacity="1" /><path clip-path="url(#clip790)" d="M346.072 642.065 L352.278 642.065 L352.278 620.643 L345.526 621.997 L345.526 618.537 L352.241 617.183 L356.04 617.183 L356.04 642.065 L362.246 642.065 L362.246 645.263 L346.072 645.263 L346.072 642.065 Z" fill="#000000" fill-rule="evenodd" fill-opacity="1" /><path clip-path="url(#clip790)" d="M370.578 642.065 L376.785 642.065 L376.785 620.643 L370.033 621.997 L370.033 618.537 L376.747 617.183 L380.546 617.183 L380.546 642.065 L386.753 642.065 L386.753 645.263 L370.578 645.263 L370.578 642.065 Z" fill="#000000" fill-rule="evenodd" fill-opacity="1" /><path clip-path="url(#clip790)" d="M129.885 316.394 Q133.242 317.112 135.117 319.38 Q137.015 321.649 137.015 324.982 Q137.015 330.098 133.496 332.899 Q129.978 335.699 123.496 335.699 Q121.32 335.699 119.006 335.26 Q116.714 334.843 114.26 333.986 L114.26 329.473 Q116.205 330.607 118.519 331.186 Q120.834 331.764 123.357 331.764 Q127.755 331.764 130.047 330.028 Q132.362 328.292 132.362 324.982 Q132.362 321.926 130.209 320.213 Q128.08 318.477 124.26 318.477 L120.232 318.477 L120.232 314.635 L124.445 314.635 Q127.894 314.635 129.723 313.269 Q131.552 311.88 131.552 309.288 Q131.552 306.626 129.654 305.213 Q127.779 303.778 124.26 303.778 Q122.339 303.778 120.14 304.195 Q117.941 304.612 115.302 305.491 L115.302 301.325 Q117.964 300.584 120.279 300.214 Q122.617 299.843 124.677 299.843 Q130.001 299.843 133.103 302.274 Q136.204 304.681 136.204 308.801 Q136.204 311.672 134.561 313.663 Q132.917 315.63 129.885 316.394 Z" fill="#000000" fill-rule="evenodd" fill-opacity="1" /><path clip-path="url(#clip790)" d="M145.88 329.149 L150.765 329.149 L150.765 335.028 L145.88 335.028 L145.88 329.149 Z" fill="#000000" fill-rule="evenodd" fill-opacity="1" /><path clip-path="url(#clip790)" d="M160.996 300.468 L179.352 300.468 L179.352 304.403 L165.278 304.403 L165.278 312.875 Q166.297 312.528 167.315 312.366 Q168.334 312.181 169.352 312.181 Q175.139 312.181 178.519 315.352 Q181.899 318.524 181.899 323.94 Q181.899 329.519 178.426 332.621 Q174.954 335.699 168.635 335.699 Q166.459 335.699 164.19 335.329 Q161.945 334.959 159.538 334.218 L159.538 329.519 Q161.621 330.653 163.843 331.209 Q166.065 331.764 168.542 331.764 Q172.547 331.764 174.885 329.658 Q177.223 327.551 177.223 323.94 Q177.223 320.329 174.885 318.223 Q172.547 316.116 168.542 316.116 Q166.667 316.116 164.792 316.533 Q162.94 316.95 160.996 317.829 L160.996 300.468 Z" fill="#000000" fill-rule="evenodd" fill-opacity="1" /><path clip-path="url(#clip790)" d="M201.112 303.547 Q197.5 303.547 195.672 307.112 Q193.866 310.653 193.866 317.783 Q193.866 324.889 195.672 328.454 Q197.5 331.996 201.112 331.996 Q204.746 331.996 206.551 328.454 Q208.38 324.889 208.38 317.783 Q208.38 310.653 206.551 307.112 Q204.746 303.547 201.112 303.547 M201.112 299.843 Q206.922 299.843 209.977 304.45 Q213.056 309.033 213.056 317.783 Q213.056 326.51 209.977 331.116 Q206.922 335.699 201.112 335.699 Q195.301 335.699 192.223 331.116 Q189.167 326.51 189.167 317.783 Q189.167 309.033 192.223 304.45 Q195.301 299.843 201.112 299.843 Z" fill="#000000" fill-rule="evenodd" fill-opacity="1" /><path clip-path="url(#clip790)" d="M249.445 309.565 L238.866 320.19 L249.445 330.769 L246.69 333.57 L236.065 322.945 L225.44 333.57 L222.709 330.769 L233.264 320.19 L222.709 309.565 L225.44 306.764 L236.065 317.389 L246.69 306.764 L249.445 309.565 Z" fill="#000000" fill-rule="evenodd" fill-opacity="1" /><path clip-path="url(#clip790)" d="M261.806 331.093 L269.445 331.093 L269.445 304.727 L261.134 306.394 L261.134 302.135 L269.398 300.468 L274.074 300.468 L274.074 331.093 L281.713 331.093 L281.713 335.028 L261.806 335.028 L261.806 331.093 Z" fill="#000000" fill-rule="evenodd" fill-opacity="1" /><path clip-path="url(#clip790)" d="M301.157 303.547 Q297.546 303.547 295.718 307.112 Q293.912 310.653 293.912 317.783 Q293.912 324.889 295.718 328.454 Q297.546 331.996 301.157 331.996 Q304.792 331.996 306.597 328.454 Q308.426 324.889 308.426 317.783 Q308.426 310.653 306.597 307.112 Q304.792 303.547 301.157 303.547 M301.157 299.843 Q306.967 299.843 310.023 304.45 Q313.102 309.033 313.102 317.783 Q313.102 326.51 310.023 331.116 Q306.967 335.699 301.157 335.699 Q295.347 335.699 292.268 331.116 Q289.213 326.51 289.213 317.783 Q289.213 309.033 292.268 304.45 Q295.347 299.843 301.157 299.843 Z" fill="#000000" fill-rule="evenodd" fill-opacity="1" /><path clip-path="url(#clip790)" d="M313.102 293.944 L337.213 293.944 L337.213 297.142 L313.102 297.142 L313.102 293.944 Z" fill="#000000" fill-rule="evenodd" fill-opacity="1" /><path clip-path="url(#clip790)" d="M346.072 304.42 L352.278 304.42 L352.278 282.998 L345.526 284.353 L345.526 280.892 L352.241 279.538 L356.04 279.538 L356.04 304.42 L362.246 304.42 L362.246 307.618 L346.072 307.618 L346.072 304.42 Z" fill="#000000" fill-rule="evenodd" fill-opacity="1" /><path clip-path="url(#clip790)" d="M370.578 304.42 L376.785 304.42 L376.785 282.998 L370.033 284.353 L370.033 280.892 L376.747 279.538 L380.546 279.538 L380.546 304.42 L386.753 304.42 L386.753 307.618 L370.578 307.618 L370.578 304.42 Z" fill="#000000" fill-rule="evenodd" fill-opacity="1" /><path clip-path="url(#clip790)" d="M41.7242 1094.09 Q42.4244 1092.02 44.7161 1090.08 Q47.0077 1088.11 51.0181 1086.14 L64.0042 1079.61 L64.0042 1086.52 L51.8138 1092.6 Q47.0395 1094.95 45.48 1097.18 Q43.9204 1099.38 43.9204 1103.2 L43.9204 1110.2 L64.0042 1110.2 L64.0042 1116.63 L16.4842 1116.63 L16.4842 1102.11 Q16.4842 1093.97 19.8898 1089.95 Q23.2955 1085.94 30.1704 1085.94 Q34.6582 1085.94 37.6183 1088.04 Q40.5784 1090.11 41.7242 1094.09 M21.7677 1110.2 L38.6368 1110.2 L38.6368 1102.11 Q38.6368 1097.47 36.5043 1095.11 Q34.34 1092.72 30.1704 1092.72 Q26.0009 1092.72 23.9002 1095.11 Q21.7677 1097.47 21.7677 1102.11 L21.7677 1110.2 Z" fill="#000000" fill-rule="evenodd" fill-opacity="1" /><path clip-path="url(#clip790)" d="M44.7161 1044.03 L47.5806 1044.03 L47.5806 1070.95 Q53.6281 1070.57 56.8109 1067.32 Q59.9619 1064.05 59.9619 1058.22 Q59.9619 1054.85 59.1344 1051.7 Q58.3069 1048.51 56.6518 1045.39 L62.1899 1045.39 Q63.5267 1048.55 64.227 1051.86 Q64.9272 1055.17 64.9272 1058.57 Q64.9272 1067.1 59.9619 1072.1 Q54.9967 1077.06 46.5303 1077.06 Q37.7774 1077.06 32.6531 1072.35 Q27.4968 1067.61 27.4968 1059.59 Q27.4968 1052.4 32.1438 1048.23 Q36.7589 1044.03 44.7161 1044.03 M42.9973 1049.88 Q38.1912 1049.95 35.3266 1052.59 Q32.4621 1055.2 32.4621 1059.53 Q32.4621 1064.43 35.2312 1067.39 Q38.0002 1070.32 43.0292 1070.76 L42.9973 1049.88 Z" fill="#000000" fill-rule="evenodd" fill-opacity="1" /><path clip-path="url(#clip790)" d="M29.4065 1011.69 L34.9447 1011.69 Q33.6716 1014.17 33.035 1016.84 Q32.3984 1019.52 32.3984 1022.38 Q32.3984 1026.74 33.7352 1028.94 Q35.072 1031.1 37.7456 1031.1 Q39.7826 1031.1 40.9603 1029.54 Q42.1061 1027.98 43.1565 1023.27 L43.6021 1021.27 Q44.9389 1015.03 47.3897 1012.42 Q49.8086 1009.78 54.1691 1009.78 Q59.1344 1009.78 62.0308 1013.73 Q64.9272 1017.64 64.9272 1024.52 Q64.9272 1027.38 64.3543 1030.5 Q63.8132 1033.59 62.6992 1037.02 L56.6518 1037.02 Q58.3387 1033.78 59.198 1030.63 Q60.0256 1027.48 60.0256 1024.39 Q60.0256 1020.25 58.6251 1018.02 Q57.1929 1015.79 54.6147 1015.79 Q52.2276 1015.79 50.9545 1017.42 Q49.6813 1019.01 48.5037 1024.45 L48.0262 1026.49 Q46.8804 1031.93 44.5251 1034.35 Q42.138 1036.77 38.0002 1036.77 Q32.9713 1036.77 30.2341 1033.2 Q27.4968 1029.64 27.4968 1023.08 Q27.4968 1019.84 27.9743 1016.97 Q28.4517 1014.11 29.4065 1011.69 Z" fill="#000000" fill-rule="evenodd" fill-opacity="1" /><path clip-path="url(#clip790)" d="M58.657 994.787 L77.5631 994.787 L77.5631 1000.68 L28.3562 1000.68 L28.3562 994.787 L33.7671 994.787 Q30.5842 992.941 29.0564 990.14 Q27.4968 987.308 27.4968 983.393 Q27.4968 976.9 32.6531 972.857 Q37.8093 968.783 46.212 968.783 Q54.6147 968.783 59.771 972.857 Q64.9272 976.9 64.9272 983.393 Q64.9272 987.308 63.3994 990.14 Q61.8398 992.941 58.657 994.787 M46.212 974.863 Q39.7508 974.863 36.0905 977.536 Q32.3984 980.178 32.3984 984.825 Q32.3984 989.472 36.0905 992.146 Q39.7508 994.787 46.212 994.787 Q52.6732 994.787 56.3653 992.146 Q60.0256 989.472 60.0256 984.825 Q60.0256 980.178 56.3653 977.536 Q52.6732 974.863 46.212 974.863 Z" fill="#000000" fill-rule="evenodd" fill-opacity="1" /><path clip-path="url(#clip790)" d="M32.4621 945.262 Q32.4621 949.973 36.1542 952.71 Q39.8145 955.447 46.212 955.447 Q52.6095 955.447 56.3017 952.742 Q59.9619 950.005 59.9619 945.262 Q59.9619 940.583 56.2698 937.846 Q52.5777 935.109 46.212 935.109 Q39.8781 935.109 36.186 937.846 Q32.4621 940.583 32.4621 945.262 M27.4968 945.262 Q27.4968 937.623 32.4621 933.263 Q37.4273 928.902 46.212 928.902 Q54.9649 928.902 59.9619 933.263 Q64.9272 937.623 64.9272 945.262 Q64.9272 952.933 59.9619 957.293 Q54.9649 961.622 46.212 961.622 Q37.4273 961.622 32.4621 957.293 Q27.4968 952.933 27.4968 945.262 Z" fill="#000000" fill-rule="evenodd" fill-opacity="1" /><path clip-path="url(#clip790)" d="M42.4881 889.562 L64.0042 889.562 L64.0042 895.419 L42.679 895.419 Q37.6183 895.419 35.1038 897.392 Q32.5894 899.365 32.5894 903.312 Q32.5894 908.055 35.6131 910.792 Q38.6368 913.529 43.8567 913.529 L64.0042 913.529 L64.0042 919.417 L28.3562 919.417 L28.3562 913.529 L33.8944 913.529 Q30.6797 911.428 29.0883 908.596 Q27.4968 905.731 27.4968 902.007 Q27.4968 895.864 31.3163 892.713 Q35.1038 889.562 42.4881 889.562 Z" fill="#000000" fill-rule="evenodd" fill-opacity="1" /><path clip-path="url(#clip790)" d="M29.4065 855.156 L34.9447 855.156 Q33.6716 857.638 33.035 860.312 Q32.3984 862.985 32.3984 865.85 Q32.3984 870.21 33.7352 872.407 Q35.072 874.571 37.7456 874.571 Q39.7826 874.571 40.9603 873.011 Q42.1061 871.452 43.1565 866.741 L43.6021 864.736 Q44.9389 858.498 47.3897 855.888 Q49.8086 853.246 54.1691 853.246 Q59.1344 853.246 62.0308 857.193 Q64.9272 861.108 64.9272 867.982 Q64.9272 870.847 64.3543 873.966 Q63.8132 877.054 62.6992 880.491 L56.6518 880.491 Q58.3387 877.245 59.198 874.094 Q60.0256 870.943 60.0256 867.855 Q60.0256 863.717 58.6251 861.489 Q57.1929 859.261 54.6147 859.261 Q52.2276 859.261 50.9545 860.885 Q49.6813 862.476 48.5037 867.919 L48.0262 869.956 Q46.8804 875.399 44.5251 877.817 Q42.138 880.236 38.0002 880.236 Q32.9713 880.236 30.2341 876.672 Q27.4968 873.107 27.4968 866.55 Q27.4968 863.304 27.9743 860.439 Q28.4517 857.575 29.4065 855.156 Z" fill="#000000" fill-rule="evenodd" fill-opacity="1" /><path clip-path="url(#clip790)" d="M44.7161 813.428 L47.5806 813.428 L47.5806 840.355 Q53.6281 839.973 56.8109 836.727 Q59.9619 833.449 59.9619 827.624 Q59.9619 824.25 59.1344 821.099 Q58.3069 817.916 56.6518 814.797 L62.1899 814.797 Q63.5267 817.948 64.227 821.258 Q64.9272 824.568 64.9272 827.974 Q64.9272 836.504 59.9619 841.501 Q54.9967 846.466 46.5303 846.466 Q37.7774 846.466 32.6531 841.756 Q27.4968 837.013 27.4968 828.993 Q27.4968 821.799 32.1438 817.63 Q36.7589 813.428 44.7161 813.428 M42.9973 819.285 Q38.1912 819.348 35.3266 821.99 Q32.4621 824.6 32.4621 828.929 Q32.4621 833.83 35.2312 836.791 Q38.0002 839.719 43.0292 840.164 L42.9973 819.285 Z" fill="#000000" fill-rule="evenodd" fill-opacity="1" /><path clip-path="url(#clip790)" d="M14.5426 769.028 Q21.8632 773.293 29.0246 775.361 Q36.186 777.43 43.5384 777.43 Q50.8908 777.43 58.1159 775.361 Q65.3091 773.261 72.5979 769.028 L72.5979 774.12 Q65.1182 778.894 57.8931 781.282 Q50.668 783.637 43.5384 783.637 Q36.4406 783.637 29.2474 781.282 Q22.0542 778.926 14.5426 774.12 L14.5426 769.028 Z" fill="#000000" fill-rule="evenodd" fill-opacity="1" /><path clip-path="url(#clip790)" d="M46.0847 741.464 Q46.0847 748.562 47.7079 751.299 Q49.3312 754.036 53.2461 754.036 Q56.3653 754.036 58.2114 751.999 Q60.0256 749.93 60.0256 746.397 Q60.0256 741.528 56.5881 738.599 Q53.1188 735.639 47.3897 735.639 L46.0847 735.639 L46.0847 741.464 M43.6657 729.783 L64.0042 729.783 L64.0042 735.639 L58.5933 735.639 Q61.8398 737.645 63.3994 740.637 Q64.9272 743.628 64.9272 747.957 Q64.9272 753.432 61.8716 756.678 Q58.7843 759.893 53.6281 759.893 Q47.6125 759.893 44.5569 755.882 Q41.5014 751.84 41.5014 743.851 L41.5014 735.639 L40.9285 735.639 Q36.8862 735.639 34.6901 738.313 Q32.4621 740.955 32.4621 745.761 Q32.4621 748.816 33.1941 751.713 Q33.9262 754.609 35.3903 757.283 L29.9795 757.283 Q28.7381 754.068 28.1334 751.044 Q27.4968 748.021 27.4968 745.156 Q27.4968 737.422 31.5072 733.602 Q35.5176 729.783 43.6657 729.783 Z" fill="#000000" fill-rule="evenodd" fill-opacity="1" /><path clip-path="url(#clip790)" d="M33.8307 697.063 Q33.2578 698.05 33.0032 699.228 Q32.7167 700.373 32.7167 701.774 Q32.7167 706.739 35.9632 709.413 Q39.1779 712.054 45.2253 712.054 L64.0042 712.054 L64.0042 717.943 L28.3562 717.943 L28.3562 712.054 L33.8944 712.054 Q30.6479 710.208 29.0883 707.248 Q27.4968 704.288 27.4968 700.055 Q27.4968 699.45 27.5923 698.718 Q27.656 697.986 27.8151 697.095 L33.8307 697.063 Z" fill="#000000" fill-rule="evenodd" fill-opacity="1" /><path clip-path="url(#clip790)" d="M46.212 665.33 Q39.7508 665.33 36.0905 668.004 Q32.3984 670.646 32.3984 675.293 Q32.3984 679.94 36.0905 682.613 Q39.7508 685.255 46.212 685.255 Q52.6732 685.255 56.3653 682.613 Q60.0256 679.94 60.0256 675.293 Q60.0256 670.646 56.3653 668.004 Q52.6732 665.33 46.212 665.33 M33.7671 685.255 Q30.5842 683.409 29.0564 680.608 Q27.4968 677.775 27.4968 673.86 Q27.4968 667.367 32.6531 663.325 Q37.8093 659.251 46.212 659.251 Q54.6147 659.251 59.771 663.325 Q64.9272 667.367 64.9272 673.86 Q64.9272 677.775 63.3994 680.608 Q61.8398 683.409 58.657 685.255 L64.0042 685.255 L64.0042 691.143 L14.479 691.143 L14.479 685.255 L33.7671 685.255 Z" fill="#000000" fill-rule="evenodd" fill-opacity="1" /><path clip-path="url(#clip790)" d="M55.9197 648.716 L55.9197 642 L64.0042 642 L64.0042 648.716 L55.9197 648.716 Z" fill="#000000" fill-rule="evenodd" fill-opacity="1" /><path clip-path="url(#clip790)" d="M49.9359 608.707 L28.3562 608.707 L28.3562 602.851 L49.7131 602.851 Q54.7739 602.851 57.3202 600.877 Q59.8346 598.904 59.8346 594.957 Q59.8346 590.215 56.8109 587.478 Q53.7872 584.709 48.5673 584.709 L28.3562 584.709 L28.3562 578.852 L64.0042 578.852 L64.0042 584.709 L58.5296 584.709 Q61.7762 586.841 63.3676 589.674 Q64.9272 592.475 64.9272 596.199 Q64.9272 602.342 61.1078 605.524 Q57.2883 608.707 49.9359 608.707 M27.4968 593.971 L27.4968 593.971 Z" fill="#000000" fill-rule="evenodd" fill-opacity="1" /><path clip-path="url(#clip790)" d="M42.4881 537.157 L64.0042 537.157 L64.0042 543.013 L42.679 543.013 Q37.6183 543.013 35.1038 544.987 Q32.5894 546.96 32.5894 550.907 Q32.5894 555.649 35.6131 558.386 Q38.6368 561.124 43.8567 561.124 L64.0042 561.124 L64.0042 567.012 L28.3562 567.012 L28.3562 561.124 L33.8944 561.124 Q30.6797 559.023 29.0883 556.19 Q27.4968 553.326 27.4968 549.602 Q27.4968 543.459 31.3163 540.308 Q35.1038 537.157 42.4881 537.157 Z" fill="#000000" fill-rule="evenodd" fill-opacity="1" /><path clip-path="url(#clip790)" d="M28.3562 525.476 L28.3562 519.619 L64.0042 519.619 L64.0042 525.476 L28.3562 525.476 M14.479 525.476 L14.479 519.619 L21.895 519.619 L21.895 525.476 L14.479 525.476 Z" fill="#000000" fill-rule="evenodd" fill-opacity="1" /><path clip-path="url(#clip790)" d="M18.2347 501.572 L28.3562 501.572 L28.3562 489.509 L32.9077 489.509 L32.9077 501.572 L52.2594 501.572 Q56.6199 501.572 57.8613 500.395 Q59.1026 499.185 59.1026 495.525 L59.1026 489.509 L64.0042 489.509 L64.0042 495.525 Q64.0042 502.304 61.4897 504.883 Q58.9434 507.461 52.2594 507.461 L32.9077 507.461 L32.9077 511.758 L28.3562 511.758 L28.3562 507.461 L18.2347 507.461 L18.2347 501.572 Z" fill="#000000" fill-rule="evenodd" fill-opacity="1" /><path clip-path="url(#clip790)" d="M29.4065 459.081 L34.9447 459.081 Q33.6716 461.564 33.035 464.238 Q32.3984 466.911 32.3984 469.776 Q32.3984 474.136 33.7352 476.332 Q35.072 478.497 37.7456 478.497 Q39.7826 478.497 40.9603 476.937 Q42.1061 475.378 43.1565 470.667 L43.6021 468.662 Q44.9389 462.423 47.3897 459.813 Q49.8086 457.172 54.1691 457.172 Q59.1344 457.172 62.0308 461.118 Q64.9272 465.033 64.9272 471.908 Q64.9272 474.773 64.3543 477.892 Q63.8132 480.979 62.6992 484.417 L56.6518 484.417 Q58.3387 481.17 59.198 478.019 Q60.0256 474.868 60.0256 471.781 Q60.0256 467.643 58.6251 465.415 Q57.1929 463.187 54.6147 463.187 Q52.2276 463.187 50.9545 464.81 Q49.6813 466.402 48.5037 471.845 L48.0262 473.882 Q46.8804 479.324 44.5251 481.743 Q42.138 484.162 38.0002 484.162 Q32.9713 484.162 30.2341 480.597 Q27.4968 477.033 27.4968 470.476 Q27.4968 467.229 27.9743 464.365 Q28.4517 461.5 29.4065 459.081 Z" fill="#000000" fill-rule="evenodd" fill-opacity="1" /><path clip-path="url(#clip790)" d="M14.5426 448.769 L14.5426 443.676 Q22.0542 438.902 29.2474 436.547 Q36.4406 434.16 43.5384 434.16 Q50.668 434.16 57.8931 436.547 Q65.1182 438.902 72.5979 443.676 L72.5979 448.769 Q65.3091 444.536 58.1159 442.467 Q50.8908 440.366 43.5384 440.366 Q36.186 440.366 29.0246 442.467 Q21.8632 444.536 14.5426 448.769 Z" fill="#000000" fill-rule="evenodd" fill-opacity="1" /><path clip-path="url(#clip790)" d="M1177.53 17.6457 Q1168.62 17.6457 1163.35 24.2892 Q1158.13 30.9327 1158.13 42.3968 Q1158.13 53.8203 1163.35 60.4638 Q1168.62 67.1073 1177.53 67.1073 Q1186.44 67.1073 1191.63 60.4638 Q1196.86 53.8203 1196.86 42.3968 Q1196.86 30.9327 1191.63 24.2892 Q1186.44 17.6457 1177.53 17.6457 M1189 71.4823 L1199.77 83.2704 L1189.89 83.2704 L1180.94 73.5887 Q1179.6 73.6697 1178.87 73.7103 Q1178.18 73.7508 1177.53 73.7508 Q1164.77 73.7508 1157.12 65.2439 Q1149.5 56.6965 1149.5 42.3968 Q1149.5 28.0566 1157.12 19.5497 Q1164.77 11.0023 1177.53 11.0023 Q1190.25 11.0023 1197.87 19.5497 Q1205.48 28.0566 1205.48 42.3968 Q1205.48 52.9291 1201.23 60.4233 Q1197.02 67.9175 1189 71.4823 Z" fill="#000000" fill-rule="evenodd" fill-opacity="1" /><path clip-path="url(#clip790)" d="M1217.19 54.671 L1217.19 27.2059 L1224.64 27.2059 L1224.64 54.3874 Q1224.64 60.8284 1227.16 64.0691 Q1229.67 67.2693 1234.69 67.2693 Q1240.73 67.2693 1244.21 63.421 Q1247.73 59.5726 1247.73 52.9291 L1247.73 27.2059 L1255.19 27.2059 L1255.19 72.576 L1247.73 72.576 L1247.73 65.6084 Q1245.02 69.7404 1241.42 71.7658 Q1237.85 73.7508 1233.11 73.7508 Q1225.29 73.7508 1221.24 68.8897 Q1217.19 64.0286 1217.19 54.671 M1235.95 26.1121 L1235.95 26.1121 Z" fill="#000000" fill-rule="evenodd" fill-opacity="1" /><path clip-path="url(#clip790)" d="M1291.16 49.7694 Q1282.13 49.7694 1278.64 51.8354 Q1275.16 53.9013 1275.16 58.8839 Q1275.16 62.8538 1277.75 65.2034 Q1280.39 67.5124 1284.88 67.5124 Q1291.08 67.5124 1294.81 63.1374 Q1298.57 58.7219 1298.57 51.4303 L1298.57 49.7694 L1291.16 49.7694 M1306.03 46.6907 L1306.03 72.576 L1298.57 72.576 L1298.57 65.6895 Q1296.02 69.8214 1292.21 71.8063 Q1288.41 73.7508 1282.9 73.7508 Q1275.93 73.7508 1271.8 69.8619 Q1267.71 65.9325 1267.71 59.3701 Q1267.71 51.7138 1272.81 47.825 Q1277.95 43.9361 1288.12 43.9361 L1298.57 43.9361 L1298.57 43.2069 Q1298.57 38.0623 1295.17 35.2672 Q1291.81 32.4315 1285.69 32.4315 Q1281.8 32.4315 1278.12 33.3632 Q1274.43 34.295 1271.03 36.1584 L1271.03 29.2718 Q1275.12 27.692 1278.97 26.9223 Q1282.82 26.1121 1286.46 26.1121 Q1296.31 26.1121 1301.17 31.2163 Q1306.03 36.3204 1306.03 46.6907 Z" fill="#000000" fill-rule="evenodd" fill-opacity="1" /><path clip-path="url(#clip790)" d="M1351.24 34.0924 L1351.24 9.54393 L1358.69 9.54393 L1358.69 72.576 L1351.24 72.576 L1351.24 65.7705 Q1348.89 69.8214 1345.28 71.8063 Q1341.72 73.7508 1336.69 73.7508 Q1328.47 73.7508 1323.28 67.1883 Q1318.14 60.6258 1318.14 49.9314 Q1318.14 39.2371 1323.28 32.6746 Q1328.47 26.1121 1336.69 26.1121 Q1341.72 26.1121 1345.28 28.0971 Q1348.89 30.0415 1351.24 34.0924 M1325.84 49.9314 Q1325.84 58.1548 1329.2 62.8538 Q1332.6 67.5124 1338.52 67.5124 Q1344.43 67.5124 1347.83 62.8538 Q1351.24 58.1548 1351.24 49.9314 Q1351.24 41.7081 1347.83 37.0496 Q1344.43 32.3505 1338.52 32.3505 Q1332.6 32.3505 1329.2 37.0496 Q1325.84 41.7081 1325.84 49.9314 Z" fill="#000000" fill-rule="evenodd" fill-opacity="1" /><path clip-path="url(#clip790)" d="M1400.33 34.1734 Q1399.08 33.4443 1397.58 33.1202 Q1396.12 32.7556 1394.34 32.7556 Q1388.02 32.7556 1384.61 36.8875 Q1381.25 40.9789 1381.25 48.6757 L1381.25 72.576 L1373.76 72.576 L1373.76 27.2059 L1381.25 27.2059 L1381.25 34.2544 Q1383.6 30.1225 1387.37 28.1376 Q1391.14 26.1121 1396.52 26.1121 Q1397.29 26.1121 1398.23 26.2337 Q1399.16 26.3147 1400.29 26.5172 L1400.33 34.1734 Z" fill="#000000" fill-rule="evenodd" fill-opacity="1" /><path clip-path="url(#clip790)" d="M1407.38 54.671 L1407.38 27.2059 L1414.83 27.2059 L1414.83 54.3874 Q1414.83 60.8284 1417.35 64.0691 Q1419.86 67.2693 1424.88 67.2693 Q1430.92 67.2693 1434.4 63.421 Q1437.92 59.5726 1437.92 52.9291 L1437.92 27.2059 L1445.38 27.2059 L1445.38 72.576 L1437.92 72.576 L1437.92 65.6084 Q1435.21 69.7404 1431.61 71.7658 Q1428.04 73.7508 1423.3 73.7508 Q1415.48 73.7508 1411.43 68.8897 Q1407.38 64.0286 1407.38 54.671 M1426.14 26.1121 L1426.14 26.1121 Z" fill="#000000" fill-rule="evenodd" fill-opacity="1" /><path clip-path="url(#clip790)" d="M1467.94 65.7705 L1467.94 89.8329 L1460.45 89.8329 L1460.45 27.2059 L1467.94 27.2059 L1467.94 34.0924 Q1470.29 30.0415 1473.86 28.0971 Q1477.46 26.1121 1482.44 26.1121 Q1490.71 26.1121 1495.85 32.6746 Q1501.04 39.2371 1501.04 49.9314 Q1501.04 60.6258 1495.85 67.1883 Q1490.71 73.7508 1482.44 73.7508 Q1477.46 73.7508 1473.86 71.8063 Q1470.29 69.8214 1467.94 65.7705 M1493.3 49.9314 Q1493.3 41.7081 1489.9 37.0496 Q1486.54 32.3505 1480.62 32.3505 Q1474.71 32.3505 1471.3 37.0496 Q1467.94 41.7081 1467.94 49.9314 Q1467.94 58.1548 1471.3 62.8538 Q1474.71 67.5124 1480.62 67.5124 Q1486.54 67.5124 1489.9 62.8538 Q1493.3 58.1548 1493.3 49.9314 Z" fill="#000000" fill-rule="evenodd" fill-opacity="1" /><path clip-path="url(#clip790)" d="M1530.97 32.4315 Q1524.98 32.4315 1521.5 37.1306 Q1518.01 41.7891 1518.01 49.9314 Q1518.01 58.0738 1521.45 62.7728 Q1524.94 67.4314 1530.97 67.4314 Q1536.93 67.4314 1540.41 62.7323 Q1543.9 58.0333 1543.9 49.9314 Q1543.9 41.8701 1540.41 37.1711 Q1536.93 32.4315 1530.97 32.4315 M1530.97 26.1121 Q1540.7 26.1121 1546.25 32.4315 Q1551.8 38.7509 1551.8 49.9314 Q1551.8 61.0714 1546.25 67.4314 Q1540.7 73.7508 1530.97 73.7508 Q1521.21 73.7508 1515.66 67.4314 Q1510.15 61.0714 1510.15 49.9314 Q1510.15 38.7509 1515.66 32.4315 Q1521.21 26.1121 1530.97 26.1121 Z" fill="#000000" fill-rule="evenodd" fill-opacity="1" /><path clip-path="url(#clip790)" d="M1564.15 9.54393 L1571.6 9.54393 L1571.6 72.576 L1564.15 72.576 L1564.15 9.54393 Z" fill="#000000" fill-rule="evenodd" fill-opacity="1" /><path clip-path="url(#clip790)" d="M1626.01 48.0275 L1626.01 51.6733 L1591.74 51.6733 Q1592.22 59.3701 1596.36 63.421 Q1600.53 67.4314 1607.94 67.4314 Q1612.24 67.4314 1616.25 66.3781 Q1620.3 65.3249 1624.27 63.2184 L1624.27 70.267 Q1620.26 71.9684 1616.04 72.8596 Q1611.83 73.7508 1607.5 73.7508 Q1596.64 73.7508 1590.28 67.4314 Q1583.96 61.1119 1583.96 50.3365 Q1583.96 39.1965 1589.96 32.6746 Q1595.99 26.1121 1606.2 26.1121 Q1615.35 26.1121 1620.66 32.0264 Q1626.01 37.9003 1626.01 48.0275 M1618.55 45.84 Q1618.47 39.7232 1615.11 36.0774 Q1611.79 32.4315 1606.28 32.4315 Q1600.04 32.4315 1596.27 35.9558 Q1592.55 39.4801 1591.98 45.8805 L1618.55 45.84 Z" fill="#000000" fill-rule="evenodd" fill-opacity="1" /><polyline clip-path="url(#clip793)" style="stroke:#000000; stroke-linecap:butt; stroke-linejoin:round; stroke-width:4; stroke-opacity:1; fill:none" points="
  577.521,1390.41 577.521,316.028 
  "/>
<polyline clip-path="url(#clip793)" style="stroke:#000000; stroke-linecap:butt; stroke-linejoin:round; stroke-width:4; stroke-opacity:1; fill:none" points="
  1552.16,852.545 1552.16,160.373 
  "/>
<polyline clip-path="url(#clip793)" style="stroke:#000000; stroke-linecap:butt; stroke-linejoin:round; stroke-width:4; stroke-opacity:1; fill:none" points="
  1827.99,1062.56 1827.99,389.735 
  "/>
<polyline clip-path="url(#clip793)" style="stroke:#000000; stroke-linecap:butt; stroke-linejoin:round; stroke-width:4; stroke-opacity:1; fill:none" points="
  2197.99,1066.68 2197.99,424.986 
  "/>
<line clip-path="url(#clip793)" x1="593.521" y1="1390.41" x2="561.521" y2="1390.41" style="stroke:#000000; stroke-width:3.2; stroke-opacity:1"/>
<line clip-path="url(#clip793)" x1="593.521" y1="316.028" x2="561.521" y2="316.028" style="stroke:#000000; stroke-width:3.2; stroke-opacity:1"/>
<line clip-path="url(#clip793)" x1="1568.16" y1="852.545" x2="1536.16" y2="852.545" style="stroke:#000000; stroke-width:3.2; stroke-opacity:1"/>
<line clip-path="url(#clip793)" x1="1568.16" y1="160.373" x2="1536.16" y2="160.373" style="stroke:#000000; stroke-width:3.2; stroke-opacity:1"/>
<line clip-path="url(#clip793)" x1="1843.99" y1="1062.56" x2="1811.99" y2="1062.56" style="stroke:#000000; stroke-width:3.2; stroke-opacity:1"/>
<line clip-path="url(#clip793)" x1="1843.99" y1="389.735" x2="1811.99" y2="389.735" style="stroke:#000000; stroke-width:3.2; stroke-opacity:1"/>
<line clip-path="url(#clip793)" x1="2213.99" y1="1066.68" x2="2181.99" y2="1066.68" style="stroke:#000000; stroke-width:3.2; stroke-opacity:1"/>
<line clip-path="url(#clip793)" x1="2213.99" y1="424.986" x2="2181.99" y2="424.986" style="stroke:#000000; stroke-width:3.2; stroke-opacity:1"/>
<circle clip-path="url(#clip793)" cx="577.521" cy="892.05" r="14" fill="#009af9" fill-rule="evenodd" fill-opacity="1" stroke="#000000" stroke-opacity="1" stroke-width="3.2"/>
<circle clip-path="url(#clip793)" cx="1552.16" cy="507.135" r="14" fill="#009af9" fill-rule="evenodd" fill-opacity="1" stroke="#000000" stroke-opacity="1" stroke-width="3.2"/>
<circle clip-path="url(#clip793)" cx="1827.99" cy="719.851" r="14" fill="#009af9" fill-rule="evenodd" fill-opacity="1" stroke="#000000" stroke-opacity="1" stroke-width="3.2"/>
<circle clip-path="url(#clip793)" cx="2197.99" cy="729.98" r="14" fill="#009af9" fill-rule="evenodd" fill-opacity="1" stroke="#000000" stroke-opacity="1" stroke-width="3.2"/>
<polyline clip-path="url(#clip793)" style="stroke:#009af9; stroke-linecap:butt; stroke-linejoin:round; stroke-width:4; stroke-opacity:1; fill:none" points="
  528.907,686.119 2246.6,686.119 
  "/>
<path clip-path="url(#clip793)" d="
M528.907 538.334 L2246.6 538.334 L2246.6 833.905 L528.907 833.905  Z
  " fill="#009af9" fill-rule="evenodd" fill-opacity="0.25"/>
<polyline clip-path="url(#clip793)" style="stroke:#009af9; stroke-linecap:butt; stroke-linejoin:round; stroke-width:4; stroke-opacity:0.25; fill:none" points="
  528.907,538.334 2246.6,538.334 
  "/>
<polyline clip-path="url(#clip793)" style="stroke:#e26f46; stroke-linecap:butt; stroke-linejoin:round; stroke-width:4; stroke-opacity:1; fill:none" points="
  477.376,684.255 2298.13,684.255 
  "/>
<path clip-path="url(#clip793)" d="
M477.376 502.78 L2298.13 502.78 L2298.13 865.73 L477.376 865.73  Z
  " fill="#e26f46" fill-rule="evenodd" fill-opacity="0.25"/>
<polyline clip-path="url(#clip793)" style="stroke:#e26f46; stroke-linecap:butt; stroke-linejoin:round; stroke-width:4; stroke-opacity:0.25; fill:none" points="
  477.376,502.78 2298.13,502.78 
  "/>
<path clip-path="url(#clip790)" d="
M1738.12 322.454 L2288.42 322.454 L2288.42 166.934 L1738.12 166.934  Z
  " fill="#ffffff" fill-rule="evenodd" fill-opacity="1"/>
<polyline clip-path="url(#clip790)" style="stroke:#000000; stroke-linecap:butt; stroke-linejoin:round; stroke-width:4; stroke-opacity:1; fill:none" points="
  1738.12,322.454 2288.42,322.454 2288.42,166.934 1738.12,166.934 1738.12,322.454 
  "/>
<path clip-path="url(#clip790)" d="
M1759.57 239.51 L1888.23 239.51 L1888.23 198.038 L1759.57 198.038 L1759.57 239.51  Z
  " fill="#009af9" fill-rule="evenodd" fill-opacity="0.25"/>
<polyline clip-path="url(#clip790)" style="stroke:#009af9; stroke-linecap:butt; stroke-linejoin:round; stroke-width:4; stroke-opacity:0.25; fill:none" points="
  1759.57,198.038 1888.23,198.038 
  "/>
<path clip-path="url(#clip790)" d="M1931.92 202.628 L1931.92 207.188 Q1929.26 205.915 1926.9 205.29 Q1924.54 204.665 1922.34 204.665 Q1918.52 204.665 1916.44 206.146 Q1914.38 207.628 1914.38 210.359 Q1914.38 212.651 1915.74 213.831 Q1917.13 214.989 1920.98 215.706 L1923.8 216.285 Q1929.03 217.28 1931.51 219.804 Q1934.01 222.304 1934.01 226.517 Q1934.01 231.54 1930.63 234.132 Q1927.27 236.725 1920.77 236.725 Q1918.31 236.725 1915.54 236.169 Q1912.78 235.614 1909.82 234.526 L1909.82 229.711 Q1912.66 231.308 1915.4 232.118 Q1918.13 232.929 1920.77 232.929 Q1924.77 232.929 1926.95 231.354 Q1929.12 229.78 1929.12 226.864 Q1929.12 224.317 1927.55 222.882 Q1926 221.447 1922.43 220.73 L1919.59 220.174 Q1914.35 219.132 1912.02 216.91 Q1909.68 214.688 1909.68 210.73 Q1909.68 206.146 1912.9 203.507 Q1916.14 200.869 1921.81 200.869 Q1924.24 200.869 1926.76 201.308 Q1929.29 201.748 1931.92 202.628 Z" fill="#000000" fill-rule="evenodd" fill-opacity="1" /><path clip-path="url(#clip790)" d="M1959.77 211.123 L1959.77 215.105 Q1957.97 214.109 1956.14 213.623 Q1954.33 213.114 1952.48 213.114 Q1948.34 213.114 1946.04 215.753 Q1943.75 218.368 1943.75 223.114 Q1943.75 227.859 1946.04 230.498 Q1948.34 233.114 1952.48 233.114 Q1954.33 233.114 1956.14 232.628 Q1957.97 232.118 1959.77 231.123 L1959.77 235.058 Q1957.99 235.891 1956.07 236.308 Q1954.17 236.725 1952.02 236.725 Q1946.16 236.725 1942.71 233.044 Q1939.26 229.364 1939.26 223.114 Q1939.26 216.771 1942.73 213.137 Q1946.23 209.503 1952.29 209.503 Q1954.26 209.503 1956.14 209.919 Q1958.01 210.313 1959.77 211.123 Z" fill="#000000" fill-rule="evenodd" fill-opacity="1" /><path clip-path="url(#clip790)" d="M1978.96 223.021 Q1973.8 223.021 1971.81 224.202 Q1969.82 225.382 1969.82 228.23 Q1969.82 230.498 1971.3 231.841 Q1972.8 233.16 1975.37 233.16 Q1978.91 233.16 1981.04 230.66 Q1983.2 228.137 1983.2 223.97 L1983.2 223.021 L1978.96 223.021 M1987.46 221.262 L1987.46 236.054 L1983.2 236.054 L1983.2 232.118 Q1981.74 234.479 1979.56 235.614 Q1977.39 236.725 1974.24 236.725 Q1970.26 236.725 1967.9 234.503 Q1965.56 232.257 1965.56 228.507 Q1965.56 224.132 1968.47 221.91 Q1971.41 219.688 1977.22 219.688 L1983.2 219.688 L1983.2 219.271 Q1983.2 216.331 1981.25 214.734 Q1979.33 213.114 1975.84 213.114 Q1973.61 213.114 1971.51 213.646 Q1969.4 214.179 1967.46 215.243 L1967.46 211.308 Q1969.79 210.406 1971.99 209.966 Q1974.19 209.503 1976.28 209.503 Q1981.9 209.503 1984.68 212.419 Q1987.46 215.336 1987.46 221.262 Z" fill="#000000" fill-rule="evenodd" fill-opacity="1" /><path clip-path="url(#clip790)" d="M1996.23 200.035 L2000.49 200.035 L2000.49 236.054 L1996.23 236.054 L1996.23 200.035 Z" fill="#000000" fill-rule="evenodd" fill-opacity="1" /><path clip-path="url(#clip790)" d="M2031.58 222.026 L2031.58 224.109 L2011.99 224.109 Q2012.27 228.507 2014.63 230.822 Q2017.02 233.114 2021.25 233.114 Q2023.71 233.114 2026 232.512 Q2028.31 231.91 2030.58 230.706 L2030.58 234.734 Q2028.29 235.706 2025.88 236.216 Q2023.47 236.725 2021 236.725 Q2014.79 236.725 2011.16 233.114 Q2007.55 229.503 2007.55 223.345 Q2007.55 216.98 2010.97 213.253 Q2014.42 209.503 2020.26 209.503 Q2025.49 209.503 2028.52 212.882 Q2031.58 216.239 2031.58 222.026 M2027.32 220.776 Q2027.27 217.28 2025.35 215.197 Q2023.45 213.114 2020.3 213.114 Q2016.74 213.114 2014.59 215.128 Q2012.46 217.142 2012.13 220.799 L2027.32 220.776 Z" fill="#000000" fill-rule="evenodd" fill-opacity="1" /><path clip-path="url(#clip790)" d="M2055.63 214.063 L2055.63 200.035 L2059.89 200.035 L2059.89 236.054 L2055.63 236.054 L2055.63 232.165 Q2054.28 234.479 2052.22 235.614 Q2050.19 236.725 2047.32 236.725 Q2042.62 236.725 2039.65 232.975 Q2036.72 229.225 2036.72 223.114 Q2036.72 217.003 2039.65 213.253 Q2042.62 209.503 2047.32 209.503 Q2050.19 209.503 2052.22 210.637 Q2054.28 211.748 2055.63 214.063 M2041.11 223.114 Q2041.11 227.813 2043.03 230.498 Q2044.98 233.16 2048.36 233.16 Q2051.74 233.16 2053.68 230.498 Q2055.63 227.813 2055.63 223.114 Q2055.63 218.415 2053.68 215.753 Q2051.74 213.068 2048.36 213.068 Q2044.98 213.068 2043.03 215.753 Q2041.11 218.415 2041.11 223.114 Z" fill="#000000" fill-rule="evenodd" fill-opacity="1" /><path clip-path="url(#clip790)" d="M2083.91 201.494 L2105.77 201.494 L2105.77 205.429 L2088.59 205.429 L2088.59 215.66 L2105.05 215.66 L2105.05 219.595 L2088.59 219.595 L2088.59 232.118 L2106.18 232.118 L2106.18 236.054 L2083.91 236.054 L2083.91 201.494 Z" fill="#000000" fill-rule="evenodd" fill-opacity="1" /><path clip-path="url(#clip790)" d="M2128.71 214.109 Q2127.99 213.693 2127.13 213.507 Q2126.3 213.299 2125.28 213.299 Q2121.67 213.299 2119.72 215.66 Q2117.8 217.998 2117.8 222.396 L2117.8 236.054 L2113.52 236.054 L2113.52 210.128 L2117.8 210.128 L2117.8 214.156 Q2119.15 211.794 2121.3 210.66 Q2123.45 209.503 2126.53 209.503 Q2126.97 209.503 2127.5 209.572 Q2128.03 209.618 2128.68 209.734 L2128.71 214.109 Z" fill="#000000" fill-rule="evenodd" fill-opacity="1" /><path clip-path="url(#clip790)" d="M2147.36 214.109 Q2146.65 213.693 2145.79 213.507 Q2144.96 213.299 2143.94 213.299 Q2140.33 213.299 2138.38 215.66 Q2136.46 217.998 2136.46 222.396 L2136.46 236.054 L2132.18 236.054 L2132.18 210.128 L2136.46 210.128 L2136.46 214.156 Q2137.8 211.794 2139.96 210.66 Q2142.11 209.503 2145.19 209.503 Q2145.63 209.503 2146.16 209.572 Q2146.69 209.618 2147.34 209.734 L2147.36 214.109 Z" fill="#000000" fill-rule="evenodd" fill-opacity="1" /><path clip-path="url(#clip790)" d="M2160.83 213.114 Q2157.41 213.114 2155.42 215.799 Q2153.43 218.461 2153.43 223.114 Q2153.43 227.767 2155.4 230.452 Q2157.39 233.114 2160.83 233.114 Q2164.24 233.114 2166.23 230.429 Q2168.22 227.743 2168.22 223.114 Q2168.22 218.507 2166.23 215.822 Q2164.24 213.114 2160.83 213.114 M2160.83 209.503 Q2166.39 209.503 2169.56 213.114 Q2172.73 216.725 2172.73 223.114 Q2172.73 229.479 2169.56 233.114 Q2166.39 236.725 2160.83 236.725 Q2155.26 236.725 2152.08 233.114 Q2148.94 229.479 2148.94 223.114 Q2148.94 216.725 2152.08 213.114 Q2155.26 209.503 2160.83 209.503 Z" fill="#000000" fill-rule="evenodd" fill-opacity="1" /><path clip-path="url(#clip790)" d="M2194.82 214.109 Q2194.1 213.693 2193.24 213.507 Q2192.41 213.299 2191.39 213.299 Q2187.78 213.299 2185.83 215.66 Q2183.91 217.998 2183.91 222.396 L2183.91 236.054 L2179.63 236.054 L2179.63 210.128 L2183.91 210.128 L2183.91 214.156 Q2185.26 211.794 2187.41 210.66 Q2189.56 209.503 2192.64 209.503 Q2193.08 209.503 2193.61 209.572 Q2194.14 209.618 2194.79 209.734 L2194.82 214.109 Z" fill="#000000" fill-rule="evenodd" fill-opacity="1" /><path clip-path="url(#clip790)" d="M2215.81 210.892 L2215.81 214.919 Q2214.01 213.993 2212.06 213.531 Q2210.12 213.068 2208.03 213.068 Q2204.86 213.068 2203.27 214.04 Q2201.69 215.012 2201.69 216.956 Q2201.69 218.438 2202.83 219.294 Q2203.96 220.128 2207.39 220.892 L2208.84 221.216 Q2213.38 222.188 2215.28 223.97 Q2217.2 225.73 2217.2 228.901 Q2217.2 232.512 2214.33 234.618 Q2211.48 236.725 2206.48 236.725 Q2204.4 236.725 2202.13 236.308 Q2199.89 235.915 2197.39 235.104 L2197.39 230.706 Q2199.75 231.933 2202.04 232.558 Q2204.33 233.16 2206.58 233.16 Q2209.58 233.16 2211.2 232.142 Q2212.83 231.1 2212.83 229.225 Q2212.83 227.489 2211.64 226.563 Q2210.49 225.637 2206.53 224.78 L2205.05 224.433 Q2201.09 223.6 2199.33 221.887 Q2197.57 220.151 2197.57 217.142 Q2197.57 213.484 2200.16 211.493 Q2202.76 209.503 2207.52 209.503 Q2209.89 209.503 2211.97 209.85 Q2214.05 210.197 2215.81 210.892 Z" fill="#000000" fill-rule="evenodd" fill-opacity="1" /><path clip-path="url(#clip790)" d="
M1759.57 291.35 L1888.23 291.35 L1888.23 249.878 L1759.57 249.878 L1759.57 291.35  Z
  " fill="#e26f46" fill-rule="evenodd" fill-opacity="0.25"/>
<polyline clip-path="url(#clip790)" style="stroke:#e26f46; stroke-linecap:butt; stroke-linejoin:round; stroke-width:4; stroke-opacity:0.25; fill:none" points="
  1759.57,249.878 1888.23,249.878 
  "/>
<path clip-path="url(#clip790)" d="M1925.7 256.505 Q1920.6 256.505 1917.6 260.301 Q1914.61 264.097 1914.61 270.648 Q1914.61 277.176 1917.6 280.972 Q1920.6 284.769 1925.7 284.769 Q1930.79 284.769 1933.75 280.972 Q1936.74 277.176 1936.74 270.648 Q1936.74 264.097 1933.75 260.301 Q1930.79 256.505 1925.7 256.505 M1925.7 252.709 Q1932.97 252.709 1937.32 257.593 Q1941.67 262.454 1941.67 270.648 Q1941.67 278.82 1937.32 283.704 Q1932.97 288.565 1925.7 288.565 Q1918.41 288.565 1914.03 283.704 Q1909.68 278.843 1909.68 270.648 Q1909.68 262.454 1914.03 257.593 Q1918.41 252.709 1925.7 252.709 Z" fill="#000000" fill-rule="evenodd" fill-opacity="1" /><path clip-path="url(#clip790)" d="M1963.82 265.949 Q1963.1 265.533 1962.25 265.347 Q1961.41 265.139 1960.4 265.139 Q1956.79 265.139 1954.84 267.5 Q1952.92 269.838 1952.92 274.236 L1952.92 287.894 L1948.64 287.894 L1948.64 261.968 L1952.92 261.968 L1952.92 265.996 Q1954.26 263.634 1956.41 262.5 Q1958.57 261.343 1961.65 261.343 Q1962.09 261.343 1962.62 261.412 Q1963.15 261.458 1963.8 261.574 L1963.82 265.949 Z" fill="#000000" fill-rule="evenodd" fill-opacity="1" /><path clip-path="url(#clip790)" d="M1968.29 261.968 L1972.55 261.968 L1972.55 287.894 L1968.29 287.894 L1968.29 261.968 M1968.29 251.875 L1972.55 251.875 L1972.55 257.269 L1968.29 257.269 L1968.29 251.875 Z" fill="#000000" fill-rule="evenodd" fill-opacity="1" /><path clip-path="url(#clip790)" d="M1998.52 274.63 Q1998.52 270 1996.6 267.454 Q1994.7 264.908 1991.25 264.908 Q1987.83 264.908 1985.91 267.454 Q1984.01 270 1984.01 274.63 Q1984.01 279.236 1985.91 281.782 Q1987.83 284.329 1991.25 284.329 Q1994.7 284.329 1996.6 281.782 Q1998.52 279.236 1998.52 274.63 M2002.78 284.676 Q2002.78 291.296 1999.84 294.514 Q1996.9 297.755 1990.84 297.755 Q1988.59 297.755 1986.6 297.407 Q1984.61 297.083 1982.73 296.389 L1982.73 292.245 Q1984.61 293.264 1986.44 293.75 Q1988.27 294.236 1990.16 294.236 Q1994.35 294.236 1996.44 292.037 Q1998.52 289.861 1998.52 285.44 L1998.52 283.333 Q1997.2 285.625 1995.14 286.759 Q1993.08 287.894 1990.21 287.894 Q1985.44 287.894 1982.53 284.259 Q1979.61 280.625 1979.61 274.63 Q1979.61 268.611 1982.53 264.977 Q1985.44 261.343 1990.21 261.343 Q1993.08 261.343 1995.14 262.477 Q1997.2 263.611 1998.52 265.903 L1998.52 261.968 L2002.78 261.968 L2002.78 284.676 Z" fill="#000000" fill-rule="evenodd" fill-opacity="1" /><path clip-path="url(#clip790)" d="M2011.55 261.968 L2015.81 261.968 L2015.81 287.894 L2011.55 287.894 L2011.55 261.968 M2011.55 251.875 L2015.81 251.875 L2015.81 257.269 L2011.55 257.269 L2011.55 251.875 Z" fill="#000000" fill-rule="evenodd" fill-opacity="1" /><path clip-path="url(#clip790)" d="M2046.28 272.245 L2046.28 287.894 L2042.02 287.894 L2042.02 272.384 Q2042.02 268.704 2040.58 266.875 Q2039.15 265.046 2036.28 265.046 Q2032.83 265.046 2030.84 267.245 Q2028.84 269.445 2028.84 273.241 L2028.84 287.894 L2024.56 287.894 L2024.56 261.968 L2028.84 261.968 L2028.84 265.996 Q2030.37 263.658 2032.43 262.5 Q2034.52 261.343 2037.22 261.343 Q2041.69 261.343 2043.98 264.121 Q2046.28 266.875 2046.28 272.245 Z" fill="#000000" fill-rule="evenodd" fill-opacity="1" /><path clip-path="url(#clip790)" d="M2066.55 274.861 Q2061.39 274.861 2059.4 276.042 Q2057.41 277.222 2057.41 280.07 Q2057.41 282.338 2058.89 283.681 Q2060.4 285 2062.97 285 Q2066.51 285 2068.64 282.5 Q2070.79 279.977 2070.79 275.81 L2070.79 274.861 L2066.55 274.861 M2075.05 273.102 L2075.05 287.894 L2070.79 287.894 L2070.79 283.958 Q2069.33 286.319 2067.15 287.454 Q2064.98 288.565 2061.83 288.565 Q2057.85 288.565 2055.49 286.343 Q2053.15 284.097 2053.15 280.347 Q2053.15 275.972 2056.07 273.75 Q2059.01 271.528 2064.82 271.528 L2070.79 271.528 L2070.79 271.111 Q2070.79 268.171 2068.84 266.574 Q2066.92 264.954 2063.43 264.954 Q2061.21 264.954 2059.1 265.486 Q2056.99 266.019 2055.05 267.083 L2055.05 263.148 Q2057.39 262.246 2059.59 261.806 Q2061.78 261.343 2063.87 261.343 Q2069.49 261.343 2072.27 264.259 Q2075.05 267.176 2075.05 273.102 Z" fill="#000000" fill-rule="evenodd" fill-opacity="1" /><path clip-path="url(#clip790)" d="M2083.82 251.875 L2088.08 251.875 L2088.08 287.894 L2083.82 287.894 L2083.82 251.875 Z" fill="#000000" fill-rule="evenodd" fill-opacity="1" /><path clip-path="url(#clip790)" d="M2112.25 253.334 L2134.1 253.334 L2134.1 257.269 L2116.92 257.269 L2116.92 267.5 L2133.38 267.5 L2133.38 271.435 L2116.92 271.435 L2116.92 283.958 L2134.52 283.958 L2134.52 287.894 L2112.25 287.894 L2112.25 253.334 Z" fill="#000000" fill-rule="evenodd" fill-opacity="1" /><path clip-path="url(#clip790)" d="M2157.04 265.949 Q2156.32 265.533 2155.46 265.347 Q2154.63 265.139 2153.61 265.139 Q2150 265.139 2148.06 267.5 Q2146.14 269.838 2146.14 274.236 L2146.14 287.894 L2141.85 287.894 L2141.85 261.968 L2146.14 261.968 L2146.14 265.996 Q2147.48 263.634 2149.63 262.5 Q2151.78 261.343 2154.86 261.343 Q2155.3 261.343 2155.83 261.412 Q2156.37 261.458 2157.02 261.574 L2157.04 265.949 Z" fill="#000000" fill-rule="evenodd" fill-opacity="1" /><path clip-path="url(#clip790)" d="M2175.7 265.949 Q2174.98 265.533 2174.12 265.347 Q2173.29 265.139 2172.27 265.139 Q2168.66 265.139 2166.71 267.5 Q2164.79 269.838 2164.79 274.236 L2164.79 287.894 L2160.51 287.894 L2160.51 261.968 L2164.79 261.968 L2164.79 265.996 Q2166.14 263.634 2168.29 262.5 Q2170.44 261.343 2173.52 261.343 Q2173.96 261.343 2174.49 261.412 Q2175.02 261.458 2175.67 261.574 L2175.7 265.949 Z" fill="#000000" fill-rule="evenodd" fill-opacity="1" /><path clip-path="url(#clip790)" d="M2189.17 264.954 Q2185.74 264.954 2183.75 267.639 Q2181.76 270.301 2181.76 274.954 Q2181.76 279.607 2183.73 282.292 Q2185.72 284.954 2189.17 284.954 Q2192.57 284.954 2194.56 282.269 Q2196.55 279.583 2196.55 274.954 Q2196.55 270.347 2194.56 267.662 Q2192.57 264.954 2189.17 264.954 M2189.17 261.343 Q2194.72 261.343 2197.89 264.954 Q2201.07 268.565 2201.07 274.954 Q2201.07 281.319 2197.89 284.954 Q2194.72 288.565 2189.17 288.565 Q2183.59 288.565 2180.42 284.954 Q2177.27 281.319 2177.27 274.954 Q2177.27 268.565 2180.42 264.954 Q2183.59 261.343 2189.17 261.343 Z" fill="#000000" fill-rule="evenodd" fill-opacity="1" /><path clip-path="url(#clip790)" d="M2223.15 265.949 Q2222.43 265.533 2221.58 265.347 Q2220.74 265.139 2219.72 265.139 Q2216.11 265.139 2214.17 267.5 Q2212.25 269.838 2212.25 274.236 L2212.25 287.894 L2207.96 287.894 L2207.96 261.968 L2212.25 261.968 L2212.25 265.996 Q2213.59 263.634 2215.74 262.5 Q2217.89 261.343 2220.97 261.343 Q2221.41 261.343 2221.95 261.412 Q2222.48 261.458 2223.13 261.574 L2223.15 265.949 Z" fill="#000000" fill-rule="evenodd" fill-opacity="1" /><path clip-path="url(#clip790)" d="M2244.14 262.732 L2244.14 266.759 Q2242.34 265.833 2240.39 265.371 Q2238.45 264.908 2236.37 264.908 Q2233.2 264.908 2231.6 265.88 Q2230.02 266.852 2230.02 268.796 Q2230.02 270.278 2231.16 271.134 Q2232.29 271.968 2235.72 272.732 L2237.18 273.056 Q2241.71 274.028 2243.61 275.81 Q2245.53 277.57 2245.53 280.741 Q2245.53 284.352 2242.66 286.458 Q2239.82 288.565 2234.82 288.565 Q2232.73 288.565 2230.46 288.148 Q2228.22 287.755 2225.72 286.944 L2225.72 282.546 Q2228.08 283.773 2230.37 284.398 Q2232.66 285 2234.91 285 Q2237.92 285 2239.54 283.982 Q2241.16 282.94 2241.16 281.065 Q2241.16 279.329 2239.98 278.403 Q2238.82 277.477 2234.86 276.62 L2233.38 276.273 Q2229.42 275.44 2227.66 273.727 Q2225.9 271.991 2225.9 268.982 Q2225.9 265.324 2228.5 263.333 Q2231.09 261.343 2235.86 261.343 Q2238.22 261.343 2240.3 261.69 Q2242.39 262.037 2244.14 262.732 Z" fill="#000000" fill-rule="evenodd" fill-opacity="1" /></svg>
