<?xml version="1.0" encoding="utf-8"?>
<svg xmlns="http://www.w3.org/2000/svg" xmlns:xlink="http://www.w3.org/1999/xlink" width="600" height="400" viewBox="0 0 2400 1600">
<defs>
  <clipPath id="clip830">
    <rect x="0" y="0" width="2400" height="1600"/>
  </clipPath>
</defs>
<path clip-path="url(#clip830)" d="
M0 1600 L2400 1600 L2400 0 L0 0  Z
  " fill="#ffffff" fill-rule="evenodd" fill-opacity="1"/>
<defs>
  <clipPath id="clip831">
    <rect x="480" y="0" width="1681" height="1600"/>
  </clipPath>
</defs>
<defs>
  <clipPath id="clip832">
    <rect x="422" y="123" width="1931" height="1305"/>
  </clipPath>
</defs>
<path clip-path="url(#clip830)" d="
M156.598 1451.45 L2352.76 1451.45 L2352.76 47.2441 L156.598 47.2441  Z
  " fill="#ffffff" fill-rule="evenodd" fill-opacity="1"/>
<defs>
  <clipPath id="clip833">
    <rect x="156" y="47" width="2197" height="1405"/>
  </clipPath>
</defs>
<polyline clip-path="url(#clip833)" style="stroke:#000000; stroke-linecap:butt; stroke-linejoin:round; stroke-width:2; stroke-opacity:0.1; fill:none" points="
  175.439,1451.45 175.439,47.2441 
  "/>
<polyline clip-path="url(#clip833)" style="stroke:#000000; stroke-linecap:butt; stroke-linejoin:round; stroke-width:2; stroke-opacity:0.1; fill:none" points="
  501.292,1451.45 501.292,47.2441 
  "/>
<polyline clip-path="url(#clip833)" style="stroke:#000000; stroke-linecap:butt; stroke-linejoin:round; stroke-width:2; stroke-opacity:0.1; fill:none" points="
  827.144,1451.45 827.144,47.2441 
  "/>
<polyline clip-path="url(#clip833)" style="stroke:#000000; stroke-linecap:butt; stroke-linejoin:round; stroke-width:2; stroke-opacity:0.1; fill:none" points="
  1153,1451.45 1153,47.2441 
  "/>
<polyline clip-path="url(#clip833)" style="stroke:#000000; stroke-linecap:butt; stroke-linejoin:round; stroke-width:2; stroke-opacity:0.1; fill:none" points="
  1478.85,1451.45 1478.85,47.2441 
  "/>
<polyline clip-path="url(#clip833)" style="stroke:#000000; stroke-linecap:butt; stroke-linejoin:round; stroke-width:2; stroke-opacity:0.1; fill:none" points="
  1804.7,1451.45 1804.7,47.2441 
  "/>
<polyline clip-path="url(#clip833)" style="stroke:#000000; stroke-linecap:butt; stroke-linejoin:round; stroke-width:2; stroke-opacity:0.1; fill:none" points="
  2130.55,1451.45 2130.55,47.2441 
  "/>
<polyline clip-path="url(#clip830)" style="stroke:#000000; stroke-linecap:butt; stroke-linejoin:round; stroke-width:4; stroke-opacity:1; fill:none" points="
  156.598,1451.45 2352.76,1451.45 
  "/>
<polyline clip-path="url(#clip830)" style="stroke:#000000; stroke-linecap:butt; stroke-linejoin:round; stroke-width:4; stroke-opacity:1; fill:none" points="
  175.439,1451.45 175.439,1432.55 
  "/>
<polyline clip-path="url(#clip830)" style="stroke:#000000; stroke-linecap:butt; stroke-linejoin:round; stroke-width:4; stroke-opacity:1; fill:none" points="
  501.292,1451.45 501.292,1432.55 
  "/>
<polyline clip-path="url(#clip830)" style="stroke:#000000; stroke-linecap:butt; stroke-linejoin:round; stroke-width:4; stroke-opacity:1; fill:none" points="
  827.144,1451.45 827.144,1432.55 
  "/>
<polyline clip-path="url(#clip830)" style="stroke:#000000; stroke-linecap:butt; stroke-linejoin:round; stroke-width:4; stroke-opacity:1; fill:none" points="
  1153,1451.45 1153,1432.55 
  "/>
<polyline clip-path="url(#clip830)" style="stroke:#000000; stroke-linecap:butt; stroke-linejoin:round; stroke-width:4; stroke-opacity:1; fill:none" points="
  1478.85,1451.45 1478.85,1432.55 
  "/>
<polyline clip-path="url(#clip830)" style="stroke:#000000; stroke-linecap:butt; stroke-linejoin:round; stroke-width:4; stroke-opacity:1; fill:none" points="
  1804.7,1451.45 1804.7,1432.55 
  "/>
<polyline clip-path="url(#clip830)" style="stroke:#000000; stroke-linecap:butt; stroke-linejoin:round; stroke-width:4; stroke-opacity:1; fill:none" points="
  2130.55,1451.45 2130.55,1432.55 
  "/>
<path clip-path="url(#clip830)" d="M175.439 1480.64 Q171.828 1480.64 170 1484.21 Q168.194 1487.75 168.194 1494.88 Q168.194 1501.98 170 1505.55 Q171.828 1509.09 175.439 1509.09 Q179.074 1509.09 180.879 1505.55 Q182.708 1501.98 182.708 1494.88 Q182.708 1487.75 180.879 1484.21 Q179.074 1480.64 175.439 1480.64 M175.439 1476.94 Q181.25 1476.94 184.305 1481.54 Q187.384 1486.13 187.384 1494.88 Q187.384 1503.6 184.305 1508.21 Q181.25 1512.79 175.439 1512.79 Q169.629 1512.79 166.551 1508.21 Q163.495 1503.6 163.495 1494.88 Q163.495 1486.13 166.551 1481.54 Q169.629 1476.94 175.439 1476.94 Z" fill="#000000" fill-rule="evenodd" fill-opacity="1" /><path clip-path="url(#clip830)" d="M491.674 1508.19 L499.313 1508.19 L499.313 1481.82 L491.002 1483.49 L491.002 1479.23 L499.266 1477.56 L503.942 1477.56 L503.942 1508.19 L511.581 1508.19 L511.581 1512.12 L491.674 1512.12 L491.674 1508.19 Z" fill="#000000" fill-rule="evenodd" fill-opacity="1" /><path clip-path="url(#clip830)" d="M821.797 1508.19 L838.116 1508.19 L838.116 1512.12 L816.172 1512.12 L816.172 1508.19 Q818.834 1505.43 823.417 1500.8 Q828.024 1496.15 829.204 1494.81 Q831.45 1492.28 832.329 1490.55 Q833.232 1488.79 833.232 1487.1 Q833.232 1484.34 831.288 1482.61 Q829.366 1480.87 826.264 1480.87 Q824.065 1480.87 821.612 1481.64 Q819.181 1482.4 816.403 1483.95 L816.403 1479.23 Q819.227 1478.09 821.681 1477.52 Q824.135 1476.94 826.172 1476.94 Q831.542 1476.94 834.737 1479.62 Q837.931 1482.31 837.931 1486.8 Q837.931 1488.93 837.121 1490.85 Q836.334 1492.75 834.227 1495.34 Q833.649 1496.01 830.547 1499.23 Q827.445 1502.42 821.797 1508.19 Z" fill="#000000" fill-rule="evenodd" fill-opacity="1" /><path clip-path="url(#clip830)" d="M1157.24 1493.49 Q1160.6 1494.21 1162.48 1496.47 Q1164.37 1498.74 1164.37 1502.08 Q1164.37 1507.19 1160.86 1509.99 Q1157.34 1512.79 1150.86 1512.79 Q1148.68 1512.79 1146.36 1512.35 Q1144.07 1511.94 1141.62 1511.08 L1141.62 1506.57 Q1143.56 1507.7 1145.88 1508.28 Q1148.19 1508.86 1150.72 1508.86 Q1155.11 1508.86 1157.41 1507.12 Q1159.72 1505.39 1159.72 1502.08 Q1159.72 1499.02 1157.57 1497.31 Q1155.44 1495.57 1151.62 1495.57 L1147.59 1495.57 L1147.59 1491.73 L1151.8 1491.73 Q1155.25 1491.73 1157.08 1490.36 Q1158.91 1488.97 1158.91 1486.38 Q1158.91 1483.72 1157.01 1482.31 Q1155.14 1480.87 1151.62 1480.87 Q1149.7 1480.87 1147.5 1481.29 Q1145.3 1481.71 1142.66 1482.58 L1142.66 1478.42 Q1145.32 1477.68 1147.64 1477.31 Q1149.98 1476.94 1152.04 1476.94 Q1157.36 1476.94 1160.46 1479.37 Q1163.56 1481.77 1163.56 1485.9 Q1163.56 1488.77 1161.92 1490.76 Q1160.28 1492.72 1157.24 1493.49 Z" fill="#000000" fill-rule="evenodd" fill-opacity="1" /><path clip-path="url(#clip830)" d="M1481.86 1481.64 L1470.05 1500.08 L1481.86 1500.08 L1481.86 1481.64 M1480.63 1477.56 L1486.51 1477.56 L1486.51 1500.08 L1491.44 1500.08 L1491.44 1503.97 L1486.51 1503.97 L1486.51 1512.12 L1481.86 1512.12 L1481.86 1503.97 L1466.26 1503.97 L1466.26 1499.46 L1480.63 1477.56 Z" fill="#000000" fill-rule="evenodd" fill-opacity="1" /><path clip-path="url(#clip830)" d="M1794.98 1477.56 L1813.34 1477.56 L1813.34 1481.5 L1799.26 1481.5 L1799.26 1489.97 Q1800.28 1489.62 1801.3 1489.46 Q1802.32 1489.27 1803.34 1489.27 Q1809.12 1489.27 1812.5 1492.45 Q1815.88 1495.62 1815.88 1501.03 Q1815.88 1506.61 1812.41 1509.71 Q1808.94 1512.79 1802.62 1512.79 Q1800.44 1512.79 1798.17 1512.42 Q1795.93 1512.05 1793.52 1511.31 L1793.52 1506.61 Q1795.6 1507.75 1797.83 1508.3 Q1800.05 1508.86 1802.53 1508.86 Q1806.53 1508.86 1808.87 1506.75 Q1811.21 1504.65 1811.21 1501.03 Q1811.21 1497.42 1808.87 1495.32 Q1806.53 1493.21 1802.53 1493.21 Q1800.65 1493.21 1798.78 1493.63 Q1796.92 1494.04 1794.98 1494.92 L1794.98 1477.56 Z" fill="#000000" fill-rule="evenodd" fill-opacity="1" /><path clip-path="url(#clip830)" d="M2130.96 1492.98 Q2127.81 1492.98 2125.96 1495.13 Q2124.13 1497.28 2124.13 1501.03 Q2124.13 1504.76 2125.96 1506.94 Q2127.81 1509.09 2130.96 1509.09 Q2134.11 1509.09 2135.94 1506.94 Q2137.79 1504.76 2137.79 1501.03 Q2137.79 1497.28 2135.94 1495.13 Q2134.11 1492.98 2130.96 1492.98 M2140.24 1478.33 L2140.24 1482.58 Q2138.48 1481.75 2136.68 1481.31 Q2134.89 1480.87 2133.13 1480.87 Q2128.5 1480.87 2126.05 1484 Q2123.62 1487.12 2123.27 1493.44 Q2124.64 1491.43 2126.7 1490.36 Q2128.76 1489.27 2131.24 1489.27 Q2136.44 1489.27 2139.45 1492.45 Q2142.49 1495.59 2142.49 1501.03 Q2142.49 1506.36 2139.34 1509.58 Q2136.19 1512.79 2130.96 1512.79 Q2124.96 1512.79 2121.79 1508.21 Q2118.62 1503.6 2118.62 1494.88 Q2118.62 1486.68 2122.51 1481.82 Q2126.4 1476.94 2132.95 1476.94 Q2134.71 1476.94 2136.49 1477.28 Q2138.3 1477.63 2140.24 1478.33 Z" fill="#000000" fill-rule="evenodd" fill-opacity="1" /><path clip-path="url(#clip830)" d="M1269.6 1537.9 Q1269.6 1538.19 1269.34 1539.19 Q1269.12 1540.16 1268.38 1542.06 Q1267.67 1543.92 1266.57 1546.02 Q1265.51 1548.08 1263.54 1550.69 Q1261.58 1553.3 1259.13 1555.58 Q1254.53 1559.9 1249.6 1562.22 Q1244.7 1564.54 1240.52 1565.28 L1239.58 1565.28 Q1238.55 1565.28 1238.55 1564.47 L1239.26 1561.51 L1243.29 1545.37 Q1244.54 1540.45 1244.54 1540.03 Q1244.54 1539.64 1244.38 1539.45 Q1244.25 1539.22 1243.48 1539.06 Q1242.74 1538.9 1241.26 1538.9 Q1240.65 1538.9 1240.36 1538.87 Q1240.1 1538.84 1239.87 1538.68 Q1239.65 1538.48 1239.65 1538.1 Q1239.65 1537.55 1239.87 1537.26 Q1240.13 1536.94 1240.32 1536.87 Q1240.52 1536.81 1240.9 1536.78 Q1241.45 1536.74 1243.29 1536.58 Q1245.12 1536.39 1246.7 1536.26 Q1248.28 1536.13 1248.95 1536.13 Q1249.34 1536.13 1249.57 1536.32 Q1249.79 1536.49 1249.79 1536.68 L1249.82 1536.84 L1243.35 1563.09 Q1245.73 1562.31 1248.09 1561.03 Q1250.47 1559.74 1253.05 1557.61 Q1255.62 1555.45 1257.81 1552.78 Q1260 1550.11 1261.93 1546.37 Q1263.9 1542.6 1265.12 1538.29 Q1265.35 1537.42 1265.9 1536.9 Q1266.47 1536.39 1266.89 1536.26 Q1267.31 1536.13 1267.7 1536.13 Q1268.57 1536.13 1269.08 1536.61 Q1269.6 1537.07 1269.6 1537.9 Z" fill="#000000" fill-rule="evenodd" fill-opacity="1" /><polyline clip-path="url(#clip833)" style="stroke:#000000; stroke-linecap:butt; stroke-linejoin:round; stroke-width:2; stroke-opacity:0.1; fill:none" points="
  156.598,1411.71 2352.76,1411.71 
  "/>
<polyline clip-path="url(#clip833)" style="stroke:#000000; stroke-linecap:butt; stroke-linejoin:round; stroke-width:2; stroke-opacity:0.1; fill:none" points="
  156.598,1094.89 2352.76,1094.89 
  "/>
<polyline clip-path="url(#clip833)" style="stroke:#000000; stroke-linecap:butt; stroke-linejoin:round; stroke-width:2; stroke-opacity:0.1; fill:none" points="
  156.598,778.067 2352.76,778.067 
  "/>
<polyline clip-path="url(#clip833)" style="stroke:#000000; stroke-linecap:butt; stroke-linejoin:round; stroke-width:2; stroke-opacity:0.1; fill:none" points="
  156.598,461.244 2352.76,461.244 
  "/>
<polyline clip-path="url(#clip833)" style="stroke:#000000; stroke-linecap:butt; stroke-linejoin:round; stroke-width:2; stroke-opacity:0.1; fill:none" points="
  156.598,144.421 2352.76,144.421 
  "/>
<polyline clip-path="url(#clip830)" style="stroke:#000000; stroke-linecap:butt; stroke-linejoin:round; stroke-width:4; stroke-opacity:1; fill:none" points="
  156.598,1451.45 156.598,47.2441 
  "/>
<polyline clip-path="url(#clip830)" style="stroke:#000000; stroke-linecap:butt; stroke-linejoin:round; stroke-width:4; stroke-opacity:1; fill:none" points="
  156.598,1411.71 175.496,1411.71 
  "/>
<polyline clip-path="url(#clip830)" style="stroke:#000000; stroke-linecap:butt; stroke-linejoin:round; stroke-width:4; stroke-opacity:1; fill:none" points="
  156.598,1094.89 175.496,1094.89 
  "/>
<polyline clip-path="url(#clip830)" style="stroke:#000000; stroke-linecap:butt; stroke-linejoin:round; stroke-width:4; stroke-opacity:1; fill:none" points="
  156.598,778.067 175.496,778.067 
  "/>
<polyline clip-path="url(#clip830)" style="stroke:#000000; stroke-linecap:butt; stroke-linejoin:round; stroke-width:4; stroke-opacity:1; fill:none" points="
  156.598,461.244 175.496,461.244 
  "/>
<polyline clip-path="url(#clip830)" style="stroke:#000000; stroke-linecap:butt; stroke-linejoin:round; stroke-width:4; stroke-opacity:1; fill:none" points="
  156.598,144.421 175.496,144.421 
  "/>
<path clip-path="url(#clip830)" d="M63.4226 1397.51 Q59.8115 1397.51 57.9828 1401.08 Q56.1773 1404.62 56.1773 1411.75 Q56.1773 1418.85 57.9828 1422.42 Q59.8115 1425.96 63.4226 1425.96 Q67.0569 1425.96 68.8624 1422.42 Q70.6911 1418.85 70.6911 1411.75 Q70.6911 1404.62 68.8624 1401.08 Q67.0569 1397.51 63.4226 1397.51 M63.4226 1393.81 Q69.2328 1393.81 72.2883 1398.41 Q75.367 1403 75.367 1411.75 Q75.367 1420.47 72.2883 1425.08 Q69.2328 1429.66 63.4226 1429.66 Q57.6125 1429.66 54.5338 1425.08 Q51.4782 1420.47 51.4782 1411.75 Q51.4782 1403 54.5338 1398.41 Q57.6125 1393.81 63.4226 1393.81 Z" fill="#000000" fill-rule="evenodd" fill-opacity="1" /><path clip-path="url(#clip830)" d="M83.5845 1423.11 L88.4688 1423.11 L88.4688 1428.99 L83.5845 1428.99 L83.5845 1423.11 Z" fill="#000000" fill-rule="evenodd" fill-opacity="1" /><path clip-path="url(#clip830)" d="M108.654 1397.51 Q105.043 1397.51 103.214 1401.08 Q101.409 1404.62 101.409 1411.75 Q101.409 1418.85 103.214 1422.42 Q105.043 1425.96 108.654 1425.96 Q112.288 1425.96 114.094 1422.42 Q115.922 1418.85 115.922 1411.75 Q115.922 1404.62 114.094 1401.08 Q112.288 1397.51 108.654 1397.51 M108.654 1393.81 Q114.464 1393.81 117.52 1398.41 Q120.598 1403 120.598 1411.75 Q120.598 1420.47 117.52 1425.08 Q114.464 1429.66 108.654 1429.66 Q102.844 1429.66 99.765 1425.08 Q96.7095 1420.47 96.7095 1411.75 Q96.7095 1403 99.765 1398.41 Q102.844 1393.81 108.654 1393.81 Z" fill="#000000" fill-rule="evenodd" fill-opacity="1" /><path clip-path="url(#clip830)" d="M65.0198 1080.69 Q61.4087 1080.69 59.58 1084.25 Q57.7745 1087.8 57.7745 1094.92 Q57.7745 1102.03 59.58 1105.6 Q61.4087 1109.14 65.0198 1109.14 Q68.6541 1109.14 70.4596 1105.6 Q72.2883 1102.03 72.2883 1094.92 Q72.2883 1087.8 70.4596 1084.25 Q68.6541 1080.69 65.0198 1080.69 M65.0198 1076.99 Q70.83 1076.99 73.8855 1081.59 Q76.9642 1086.17 76.9642 1094.92 Q76.9642 1103.65 73.8855 1108.26 Q70.83 1112.84 65.0198 1112.84 Q59.2097 1112.84 56.131 1108.26 Q53.0754 1103.65 53.0754 1094.92 Q53.0754 1086.17 56.131 1081.59 Q59.2097 1076.99 65.0198 1076.99 Z" fill="#000000" fill-rule="evenodd" fill-opacity="1" /><path clip-path="url(#clip830)" d="M85.1818 1106.29 L90.066 1106.29 L90.066 1112.17 L85.1818 1112.17 L85.1818 1106.29 Z" fill="#000000" fill-rule="evenodd" fill-opacity="1" /><path clip-path="url(#clip830)" d="M104.279 1108.24 L120.598 1108.24 L120.598 1112.17 L98.6539 1112.17 L98.6539 1108.24 Q101.316 1105.48 105.899 1100.85 Q110.506 1096.2 111.686 1094.86 Q113.932 1092.33 114.811 1090.6 Q115.714 1088.84 115.714 1087.15 Q115.714 1084.39 113.77 1082.66 Q111.848 1080.92 108.746 1080.92 Q106.547 1080.92 104.094 1081.68 Q101.663 1082.45 98.8854 1084 L98.8854 1079.28 Q101.709 1078.14 104.163 1077.56 Q106.617 1076.99 108.654 1076.99 Q114.024 1076.99 117.219 1079.67 Q120.413 1082.36 120.413 1086.85 Q120.413 1088.98 119.603 1090.9 Q118.816 1092.8 116.709 1095.39 Q116.131 1096.06 113.029 1099.28 Q109.927 1102.47 104.279 1108.24 Z" fill="#000000" fill-rule="evenodd" fill-opacity="1" /><path clip-path="url(#clip830)" d="M62.9365 763.866 Q59.3254 763.866 57.4967 767.431 Q55.6912 770.972 55.6912 778.102 Q55.6912 785.208 57.4967 788.773 Q59.3254 792.315 62.9365 792.315 Q66.5707 792.315 68.3763 788.773 Q70.205 785.208 70.205 778.102 Q70.205 770.972 68.3763 767.431 Q66.5707 763.866 62.9365 763.866 M62.9365 760.162 Q68.7467 760.162 71.8022 764.769 Q74.8809 769.352 74.8809 778.102 Q74.8809 786.829 71.8022 791.435 Q68.7467 796.018 62.9365 796.018 Q57.1264 796.018 54.0477 791.435 Q50.9921 786.829 50.9921 778.102 Q50.9921 769.352 54.0477 764.769 Q57.1264 760.162 62.9365 760.162 Z" fill="#000000" fill-rule="evenodd" fill-opacity="1" /><path clip-path="url(#clip830)" d="M83.0984 789.468 L87.9827 789.468 L87.9827 795.347 L83.0984 795.347 L83.0984 789.468 Z" fill="#000000" fill-rule="evenodd" fill-opacity="1" /><path clip-path="url(#clip830)" d="M111.015 764.861 L99.2095 783.31 L111.015 783.31 L111.015 764.861 M109.788 760.787 L115.668 760.787 L115.668 783.31 L120.598 783.31 L120.598 787.199 L115.668 787.199 L115.668 795.347 L111.015 795.347 L111.015 787.199 L95.4132 787.199 L95.4132 782.685 L109.788 760.787 Z" fill="#000000" fill-rule="evenodd" fill-opacity="1" /><path clip-path="url(#clip830)" d="M63.2606 447.043 Q59.6495 447.043 57.8208 450.608 Q56.0152 454.149 56.0152 461.279 Q56.0152 468.385 57.8208 471.95 Q59.6495 475.492 63.2606 475.492 Q66.8948 475.492 68.7004 471.95 Q70.5291 468.385 70.5291 461.279 Q70.5291 454.149 68.7004 450.608 Q66.8948 447.043 63.2606 447.043 M63.2606 443.339 Q69.0707 443.339 72.1263 447.946 Q75.205 452.529 75.205 461.279 Q75.205 470.006 72.1263 474.612 Q69.0707 479.195 63.2606 479.195 Q57.4504 479.195 54.3717 474.612 Q51.3162 470.006 51.3162 461.279 Q51.3162 452.529 54.3717 447.946 Q57.4504 443.339 63.2606 443.339 Z" fill="#000000" fill-rule="evenodd" fill-opacity="1" /><path clip-path="url(#clip830)" d="M83.4225 472.644 L88.3067 472.644 L88.3067 478.524 L83.4225 478.524 L83.4225 472.644 Z" fill="#000000" fill-rule="evenodd" fill-opacity="1" /><path clip-path="url(#clip830)" d="M109.071 459.381 Q105.922 459.381 104.071 461.533 Q102.242 463.686 102.242 467.436 Q102.242 471.163 104.071 473.339 Q105.922 475.492 109.071 475.492 Q112.219 475.492 114.047 473.339 Q115.899 471.163 115.899 467.436 Q115.899 463.686 114.047 461.533 Q112.219 459.381 109.071 459.381 M118.353 444.728 L118.353 448.987 Q116.594 448.154 114.788 447.714 Q113.006 447.274 111.246 447.274 Q106.617 447.274 104.163 450.399 Q101.733 453.524 101.385 459.844 Q102.751 457.83 104.811 456.765 Q106.871 455.677 109.348 455.677 Q114.557 455.677 117.566 458.848 Q120.598 461.996 120.598 467.436 Q120.598 472.76 117.45 475.978 Q114.302 479.195 109.071 479.195 Q103.075 479.195 99.9039 474.612 Q96.7326 470.006 96.7326 461.279 Q96.7326 453.084 100.621 448.223 Q104.51 443.339 111.061 443.339 Q112.82 443.339 114.603 443.686 Q116.408 444.033 118.353 444.728 Z" fill="#000000" fill-rule="evenodd" fill-opacity="1" /><path clip-path="url(#clip830)" d="M63.5152 130.22 Q59.9041 130.22 58.0754 133.784 Q56.2699 137.326 56.2699 144.456 Q56.2699 151.562 58.0754 155.127 Q59.9041 158.669 63.5152 158.669 Q67.1494 158.669 68.955 155.127 Q70.7837 151.562 70.7837 144.456 Q70.7837 137.326 68.955 133.784 Q67.1494 130.22 63.5152 130.22 M63.5152 126.516 Q69.3254 126.516 72.3809 131.122 Q75.4596 135.706 75.4596 144.456 Q75.4596 153.182 72.3809 157.789 Q69.3254 162.372 63.5152 162.372 Q57.7051 162.372 54.6264 157.789 Q51.5708 153.182 51.5708 144.456 Q51.5708 135.706 54.6264 131.122 Q57.7051 126.516 63.5152 126.516 Z" fill="#000000" fill-rule="evenodd" fill-opacity="1" /><path clip-path="url(#clip830)" d="M83.6771 155.821 L88.5614 155.821 L88.5614 161.701 L83.6771 161.701 L83.6771 155.821 Z" fill="#000000" fill-rule="evenodd" fill-opacity="1" /><path clip-path="url(#clip830)" d="M108.746 145.289 Q105.413 145.289 103.492 147.071 Q101.594 148.854 101.594 151.979 Q101.594 155.104 103.492 156.886 Q105.413 158.669 108.746 158.669 Q112.08 158.669 114.001 156.886 Q115.922 155.081 115.922 151.979 Q115.922 148.854 114.001 147.071 Q112.103 145.289 108.746 145.289 M104.071 143.298 Q101.061 142.558 99.3715 140.497 Q97.7048 138.437 97.7048 135.474 Q97.7048 131.331 100.645 128.923 Q103.608 126.516 108.746 126.516 Q113.908 126.516 116.848 128.923 Q119.788 131.331 119.788 135.474 Q119.788 138.437 118.098 140.497 Q116.432 142.558 113.445 143.298 Q116.825 144.085 118.7 146.377 Q120.598 148.669 120.598 151.979 Q120.598 157.002 117.52 159.687 Q114.464 162.372 108.746 162.372 Q103.029 162.372 99.9502 159.687 Q96.8947 157.002 96.8947 151.979 Q96.8947 148.669 98.7928 146.377 Q100.691 144.085 104.071 143.298 M102.358 135.914 Q102.358 138.599 104.024 140.104 Q105.714 141.608 108.746 141.608 Q111.756 141.608 113.445 140.104 Q115.158 138.599 115.158 135.914 Q115.158 133.229 113.445 131.724 Q111.756 130.22 108.746 130.22 Q105.714 130.22 104.024 131.724 Q102.358 133.229 102.358 135.914 Z" fill="#000000" fill-rule="evenodd" fill-opacity="1" /><polyline clip-path="url(#clip833)" style="stroke:#009af9; stroke-linecap:butt; stroke-linejoin:round; stroke-width:4; stroke-opacity:1; fill:none" points="
  218.754,1411.71 229.165,1411.7 239.576,1411.67 249.988,1411.61 260.399,1411.48 270.81,1411.23 281.221,1410.75 291.633,1409.92 302.044,1408.55 312.455,1406.41 
  322.867,1403.24 333.278,1398.73 343.689,1392.51 354.1,1384.11 364.512,1372.81 374.923,1357.6 385.334,1337.1 395.746,1309.64 406.157,1273.46 416.568,1227.06 
  426.979,1169.61 437.391,1101.27 447.802,1023.33 458.213,938.039 468.625,848.195 479.036,756.649 489.447,665.854 499.858,577.645 510.27,493.294 520.681,413.753 
  531.092,339.951 541.504,273.006 551.915,214.266 562.326,165.208 572.738,127.223 583.149,101.355 593.56,88.0537 603.971,86.9858 614.383,96.9821 624.794,116.165 
  635.205,142.257 645.617,172.996 656.028,206.504 666.439,241.497 676.85,277.259 687.262,313.446 697.673,349.831 708.084,386.122 718.496,421.922 728.907,456.83 
  739.318,490.589 749.729,523.207 760.141,554.976 770.552,586.39 780.963,618.01 791.375,650.343 801.786,683.762 812.197,718.493 822.609,754.604 833.02,791.987 
  843.431,830.304 853.842,868.953 864.254,907.077 874.665,943.661 885.076,977.698 895.488,1008.38 905.899,1035.26 916.31,1058.32 926.721,1077.98 937.133,1094.99 
  947.544,1110.28 957.955,1124.76 968.367,1139.2 978.778,1154.08 989.189,1169.63 999.6,1185.76 1010.01,1202.16 1020.42,1218.31 1030.83,1233.53 1041.25,1247.11 
  1051.66,1258.42 1062.07,1267.03 1072.48,1272.83 1082.89,1275.99 1093.3,1276.93 1103.71,1276.11 1114.12,1273.97 1124.54,1270.87 1134.95,1267.12 1145.36,1263.05 
  1155.77,1259.12 1166.18,1255.88 1176.59,1253.92 1187,1253.75 1197.41,1255.72 1207.83,1259.92 1218.24,1266.27 1228.65,1274.5 1239.06,1284.2 1249.47,1294.92 
  1259.88,1306.12 1270.29,1317.26 1280.71,1327.85 1291.12,1337.47 1301.53,1345.9 1311.94,1353.07 1322.35,1359.11 1332.76,1364.21 1343.17,1368.6 1353.58,1372.47 
  1364,1375.92 1374.41,1378.96 1384.82,1381.53 1395.23,1383.55 1405.64,1384.92 1416.05,1385.57 1426.46,1385.49 1436.87,1384.73 1447.29,1383.4 1457.7,1381.63 
  1468.11,1379.61 1478.52,1377.52 1488.93,1375.55 1499.34,1373.86 1509.75,1372.6 1520.16,1371.89 1530.58,1371.84 1540.99,1372.51 1551.4,1373.94 1561.81,1376.11 
  1572.22,1378.94 1582.63,1382.31 1593.04,1386.02 1603.46,1389.86 1613.87,1393.64 1624.28,1397.19 1634.69,1400.37 1645.1,1403.12 1655.51,1405.37 1665.92,1407.1 
  1676.33,1408.3 1686.75,1408.97 1697.16,1409.12 1707.57,1408.75 1717.98,1407.89 1728.39,1406.57 1738.8,1404.87 1749.21,1402.91 1759.62,1400.83 1770.04,1398.83 
  1780.45,1397.08 1790.86,1395.77 1801.27,1394.99 1811.68,1394.81 1822.09,1395.19 1832.5,1396.03 1842.91,1397.19 1853.33,1398.5 1863.74,1399.83 1874.15,1401.11 
  1884.56,1402.31 1894.97,1403.45 1905.38,1404.56 1915.79,1405.66 1926.21,1406.76 1936.62,1407.83 1947.03,1408.8 1957.44,1409.64 1967.85,1410.32 1978.26,1410.82 
  1988.67,1411.14 1999.08,1411.32 2009.5,1411.35 2019.91,1411.23 2030.32,1410.93 2040.73,1410.41 2051.14,1409.62 2061.55,1408.55 2071.96,1407.22 2082.37,1405.73 
  2092.79,1404.23 2103.2,1402.93 2113.61,1402.04 2124.02,1401.72 2134.43,1402.03 2144.84,1402.91 2155.25,1404.2 2165.67,1405.7 2176.08,1407.2 2186.49,1408.53 
  2196.9,1409.61 2207.31,1410.41 2217.72,1410.96 2228.13,1411.3 2238.54,1411.5 2248.96,1411.61 2259.37,1411.67 2269.78,1411.69 2280.19,1411.7 2290.6,1411.71 
  
  "/>
</svg>
