<?xml version="1.0" encoding="utf-8"?>
<svg xmlns="http://www.w3.org/2000/svg" xmlns:xlink="http://www.w3.org/1999/xlink" width="600" height="400" viewBox="0 0 2400 1600">
<defs>
  <clipPath id="clip840">
    <rect x="0" y="0" width="2400" height="1600"/>
  </clipPath>
</defs>
<path clip-path="url(#clip840)" d="
M0 1600 L2400 1600 L2400 0 L0 0  Z
  " fill="#ffffff" fill-rule="evenodd" fill-opacity="1"/>
<defs>
  <clipPath id="clip841">
    <rect x="480" y="0" width="1681" height="1600"/>
  </clipPath>
</defs>
<defs>
  <clipPath id="clip842">
    <rect x="1331" y="1065" width="1041" height="440"/>
  </clipPath>
</defs>
<path clip-path="url(#clip840)" d="
M156.598 1451.45 L2352.76 1451.45 L2352.76 102.45 L156.598 102.45  Z
  " fill="#ffffff" fill-rule="evenodd" fill-opacity="1"/>
<defs>
  <clipPath id="clip843">
    <rect x="156" y="102" width="2197" height="1350"/>
  </clipPath>
</defs>
<polyline clip-path="url(#clip843)" style="stroke:#000000; stroke-linecap:butt; stroke-linejoin:round; stroke-width:2; stroke-opacity:0.1; fill:none" points="
  160.138,1451.45 160.138,102.45 
  "/>
<polyline clip-path="url(#clip843)" style="stroke:#000000; stroke-linecap:butt; stroke-linejoin:round; stroke-width:2; stroke-opacity:0.1; fill:none" points="
  754.052,1451.45 754.052,102.45 
  "/>
<polyline clip-path="url(#clip843)" style="stroke:#000000; stroke-linecap:butt; stroke-linejoin:round; stroke-width:2; stroke-opacity:0.1; fill:none" points="
  1347.97,1451.45 1347.97,102.45 
  "/>
<polyline clip-path="url(#clip843)" style="stroke:#000000; stroke-linecap:butt; stroke-linejoin:round; stroke-width:2; stroke-opacity:0.1; fill:none" points="
  1941.88,1451.45 1941.88,102.45 
  "/>
<polyline clip-path="url(#clip840)" style="stroke:#000000; stroke-linecap:butt; stroke-linejoin:round; stroke-width:4; stroke-opacity:1; fill:none" points="
  156.598,1451.45 2352.76,1451.45 
  "/>
<polyline clip-path="url(#clip840)" style="stroke:#000000; stroke-linecap:butt; stroke-linejoin:round; stroke-width:4; stroke-opacity:1; fill:none" points="
  160.138,1451.45 160.138,1432.55 
  "/>
<polyline clip-path="url(#clip840)" style="stroke:#000000; stroke-linecap:butt; stroke-linejoin:round; stroke-width:4; stroke-opacity:1; fill:none" points="
  754.052,1451.45 754.052,1432.55 
  "/>
<polyline clip-path="url(#clip840)" style="stroke:#000000; stroke-linecap:butt; stroke-linejoin:round; stroke-width:4; stroke-opacity:1; fill:none" points="
  1347.97,1451.45 1347.97,1432.55 
  "/>
<polyline clip-path="url(#clip840)" style="stroke:#000000; stroke-linecap:butt; stroke-linejoin:round; stroke-width:4; stroke-opacity:1; fill:none" points="
  1941.88,1451.45 1941.88,1432.55 
  "/>
<path clip-path="url(#clip840)" d="M160.138 1480.64 Q156.527 1480.64 154.699 1484.21 Q152.893 1487.75 152.893 1494.88 Q152.893 1501.98 154.699 1505.55 Q156.527 1509.09 160.138 1509.09 Q163.773 1509.09 165.578 1505.55 Q167.407 1501.98 167.407 1494.88 Q167.407 1487.75 165.578 1484.21 Q163.773 1480.64 160.138 1480.64 M160.138 1476.94 Q165.948 1476.94 169.004 1481.54 Q172.083 1486.13 172.083 1494.88 Q172.083 1503.6 169.004 1508.21 Q165.948 1512.79 160.138 1512.79 Q154.328 1512.79 151.249 1508.21 Q148.194 1503.6 148.194 1494.88 Q148.194 1486.13 151.249 1481.54 Q154.328 1476.94 160.138 1476.94 Z" fill="#000000" fill-rule="evenodd" fill-opacity="1" /><path clip-path="url(#clip840)" d="M748.705 1508.19 L765.024 1508.19 L765.024 1512.12 L743.08 1512.12 L743.08 1508.19 Q745.742 1505.43 750.325 1500.8 Q754.932 1496.15 756.112 1494.81 Q758.358 1492.28 759.237 1490.55 Q760.14 1488.79 760.14 1487.1 Q760.14 1484.34 758.196 1482.61 Q756.274 1480.87 753.172 1480.87 Q750.973 1480.87 748.52 1481.64 Q746.089 1482.4 743.311 1483.95 L743.311 1479.23 Q746.135 1478.09 748.589 1477.52 Q751.043 1476.94 753.08 1476.94 Q758.45 1476.94 761.645 1479.62 Q764.839 1482.31 764.839 1486.8 Q764.839 1488.93 764.029 1490.85 Q763.242 1492.75 761.135 1495.34 Q760.557 1496.01 757.455 1499.23 Q754.353 1502.42 748.705 1508.19 Z" fill="#000000" fill-rule="evenodd" fill-opacity="1" /><path clip-path="url(#clip840)" d="M1350.98 1481.64 L1339.17 1500.08 L1350.98 1500.08 L1350.98 1481.64 M1349.75 1477.56 L1355.63 1477.56 L1355.63 1500.08 L1360.56 1500.08 L1360.56 1503.97 L1355.63 1503.97 L1355.63 1512.12 L1350.98 1512.12 L1350.98 1503.97 L1335.37 1503.97 L1335.37 1499.46 L1349.75 1477.56 Z" fill="#000000" fill-rule="evenodd" fill-opacity="1" /><path clip-path="url(#clip840)" d="M1942.28 1492.98 Q1939.14 1492.98 1937.28 1495.13 Q1935.46 1497.28 1935.46 1501.03 Q1935.46 1504.76 1937.28 1506.94 Q1939.14 1509.09 1942.28 1509.09 Q1945.43 1509.09 1947.26 1506.94 Q1949.11 1504.76 1949.11 1501.03 Q1949.11 1497.28 1947.26 1495.13 Q1945.43 1492.98 1942.28 1492.98 M1951.57 1478.33 L1951.57 1482.58 Q1949.81 1481.75 1948 1481.31 Q1946.22 1480.87 1944.46 1480.87 Q1939.83 1480.87 1937.38 1484 Q1934.95 1487.12 1934.6 1493.44 Q1935.97 1491.43 1938.03 1490.36 Q1940.09 1489.27 1942.56 1489.27 Q1947.77 1489.27 1950.78 1492.45 Q1953.81 1495.59 1953.81 1501.03 Q1953.81 1506.36 1950.66 1509.58 Q1947.52 1512.79 1942.28 1512.79 Q1936.29 1512.79 1933.12 1508.21 Q1929.95 1503.6 1929.95 1494.88 Q1929.95 1486.68 1933.84 1481.82 Q1937.72 1476.94 1944.28 1476.94 Q1946.03 1476.94 1947.82 1477.28 Q1949.62 1477.63 1951.57 1478.33 Z" fill="#000000" fill-rule="evenodd" fill-opacity="1" /><path clip-path="url(#clip840)" d="M1269.6 1537.9 Q1269.6 1538.19 1269.34 1539.19 Q1269.12 1540.16 1268.38 1542.06 Q1267.67 1543.92 1266.57 1546.02 Q1265.51 1548.08 1263.54 1550.69 Q1261.58 1553.3 1259.13 1555.58 Q1254.53 1559.9 1249.6 1562.22 Q1244.7 1564.54 1240.52 1565.28 L1239.58 1565.28 Q1238.55 1565.28 1238.55 1564.47 L1239.26 1561.51 L1243.29 1545.37 Q1244.54 1540.45 1244.54 1540.03 Q1244.54 1539.64 1244.38 1539.45 Q1244.25 1539.22 1243.48 1539.06 Q1242.74 1538.9 1241.26 1538.9 Q1240.65 1538.9 1240.36 1538.87 Q1240.1 1538.84 1239.87 1538.68 Q1239.65 1538.48 1239.65 1538.1 Q1239.65 1537.55 1239.87 1537.26 Q1240.13 1536.94 1240.32 1536.87 Q1240.52 1536.81 1240.9 1536.78 Q1241.45 1536.74 1243.29 1536.58 Q1245.12 1536.39 1246.7 1536.26 Q1248.28 1536.13 1248.95 1536.13 Q1249.34 1536.13 1249.57 1536.32 Q1249.79 1536.49 1249.79 1536.68 L1249.82 1536.84 L1243.35 1563.09 Q1245.73 1562.31 1248.09 1561.03 Q1250.47 1559.74 1253.05 1557.61 Q1255.62 1555.45 1257.81 1552.78 Q1260 1550.11 1261.93 1546.37 Q1263.9 1542.6 1265.12 1538.29 Q1265.35 1537.42 1265.9 1536.9 Q1266.47 1536.39 1266.89 1536.26 Q1267.31 1536.13 1267.7 1536.13 Q1268.57 1536.13 1269.08 1536.61 Q1269.6 1537.07 1269.6 1537.9 Z" fill="#000000" fill-rule="evenodd" fill-opacity="1" /><polyline clip-path="url(#clip843)" style="stroke:#000000; stroke-linecap:butt; stroke-linejoin:round; stroke-width:2; stroke-opacity:0.1; fill:none" points="
  156.598,1413.27 2352.76,1413.27 
  "/>
<polyline clip-path="url(#clip843)" style="stroke:#000000; stroke-linecap:butt; stroke-linejoin:round; stroke-width:2; stroke-opacity:0.1; fill:none" points="
  156.598,1133.63 2352.76,1133.63 
  "/>
<polyline clip-path="url(#clip843)" style="stroke:#000000; stroke-linecap:butt; stroke-linejoin:round; stroke-width:2; stroke-opacity:0.1; fill:none" points="
  156.598,853.989 2352.76,853.989 
  "/>
<polyline clip-path="url(#clip843)" style="stroke:#000000; stroke-linecap:butt; stroke-linejoin:round; stroke-width:2; stroke-opacity:0.1; fill:none" points="
  156.598,574.346 2352.76,574.346 
  "/>
<polyline clip-path="url(#clip843)" style="stroke:#000000; stroke-linecap:butt; stroke-linejoin:round; stroke-width:2; stroke-opacity:0.1; fill:none" points="
  156.598,294.704 2352.76,294.704 
  "/>
<polyline clip-path="url(#clip840)" style="stroke:#000000; stroke-linecap:butt; stroke-linejoin:round; stroke-width:4; stroke-opacity:1; fill:none" points="
  156.598,1451.45 156.598,102.45 
  "/>
<polyline clip-path="url(#clip840)" style="stroke:#000000; stroke-linecap:butt; stroke-linejoin:round; stroke-width:4; stroke-opacity:1; fill:none" points="
  156.598,1413.27 175.496,1413.27 
  "/>
<polyline clip-path="url(#clip840)" style="stroke:#000000; stroke-linecap:butt; stroke-linejoin:round; stroke-width:4; stroke-opacity:1; fill:none" points="
  156.598,1133.63 175.496,1133.63 
  "/>
<polyline clip-path="url(#clip840)" style="stroke:#000000; stroke-linecap:butt; stroke-linejoin:round; stroke-width:4; stroke-opacity:1; fill:none" points="
  156.598,853.989 175.496,853.989 
  "/>
<polyline clip-path="url(#clip840)" style="stroke:#000000; stroke-linecap:butt; stroke-linejoin:round; stroke-width:4; stroke-opacity:1; fill:none" points="
  156.598,574.346 175.496,574.346 
  "/>
<polyline clip-path="url(#clip840)" style="stroke:#000000; stroke-linecap:butt; stroke-linejoin:round; stroke-width:4; stroke-opacity:1; fill:none" points="
  156.598,294.704 175.496,294.704 
  "/>
<path clip-path="url(#clip840)" d="M63.4226 1399.07 Q59.8115 1399.07 57.9828 1402.64 Q56.1773 1406.18 56.1773 1413.31 Q56.1773 1420.41 57.9828 1423.98 Q59.8115 1427.52 63.4226 1427.52 Q67.0569 1427.52 68.8624 1423.98 Q70.6911 1420.41 70.6911 1413.31 Q70.6911 1406.18 68.8624 1402.64 Q67.0569 1399.07 63.4226 1399.07 M63.4226 1395.37 Q69.2328 1395.37 72.2883 1399.97 Q75.367 1404.56 75.367 1413.31 Q75.367 1422.03 72.2883 1426.64 Q69.2328 1431.22 63.4226 1431.22 Q57.6125 1431.22 54.5338 1426.64 Q51.4782 1422.03 51.4782 1413.31 Q51.4782 1404.56 54.5338 1399.97 Q57.6125 1395.37 63.4226 1395.37 Z" fill="#000000" fill-rule="evenodd" fill-opacity="1" /><path clip-path="url(#clip840)" d="M83.5845 1424.67 L88.4688 1424.67 L88.4688 1430.55 L83.5845 1430.55 L83.5845 1424.67 Z" fill="#000000" fill-rule="evenodd" fill-opacity="1" /><path clip-path="url(#clip840)" d="M108.654 1399.07 Q105.043 1399.07 103.214 1402.64 Q101.409 1406.18 101.409 1413.31 Q101.409 1420.41 103.214 1423.98 Q105.043 1427.52 108.654 1427.52 Q112.288 1427.52 114.094 1423.98 Q115.922 1420.41 115.922 1413.31 Q115.922 1406.18 114.094 1402.64 Q112.288 1399.07 108.654 1399.07 M108.654 1395.37 Q114.464 1395.37 117.52 1399.97 Q120.598 1404.56 120.598 1413.31 Q120.598 1422.03 117.52 1426.64 Q114.464 1431.22 108.654 1431.22 Q102.844 1431.22 99.765 1426.64 Q96.7095 1422.03 96.7095 1413.31 Q96.7095 1404.56 99.765 1399.97 Q102.844 1395.37 108.654 1395.37 Z" fill="#000000" fill-rule="evenodd" fill-opacity="1" /><path clip-path="url(#clip840)" d="M65.0198 1119.43 Q61.4087 1119.43 59.58 1122.99 Q57.7745 1126.54 57.7745 1133.67 Q57.7745 1140.77 59.58 1144.34 Q61.4087 1147.88 65.0198 1147.88 Q68.6541 1147.88 70.4596 1144.34 Q72.2883 1140.77 72.2883 1133.67 Q72.2883 1126.54 70.4596 1122.99 Q68.6541 1119.43 65.0198 1119.43 M65.0198 1115.73 Q70.83 1115.73 73.8855 1120.33 Q76.9642 1124.92 76.9642 1133.67 Q76.9642 1142.39 73.8855 1147 Q70.83 1151.58 65.0198 1151.58 Q59.2097 1151.58 56.131 1147 Q53.0754 1142.39 53.0754 1133.67 Q53.0754 1124.92 56.131 1120.33 Q59.2097 1115.73 65.0198 1115.73 Z" fill="#000000" fill-rule="evenodd" fill-opacity="1" /><path clip-path="url(#clip840)" d="M85.1818 1145.03 L90.066 1145.03 L90.066 1150.91 L85.1818 1150.91 L85.1818 1145.03 Z" fill="#000000" fill-rule="evenodd" fill-opacity="1" /><path clip-path="url(#clip840)" d="M104.279 1146.98 L120.598 1146.98 L120.598 1150.91 L98.6539 1150.91 L98.6539 1146.98 Q101.316 1144.22 105.899 1139.59 Q110.506 1134.94 111.686 1133.6 Q113.932 1131.07 114.811 1129.34 Q115.714 1127.58 115.714 1125.89 Q115.714 1123.13 113.77 1121.4 Q111.848 1119.66 108.746 1119.66 Q106.547 1119.66 104.094 1120.43 Q101.663 1121.19 98.8854 1122.74 L98.8854 1118.02 Q101.709 1116.88 104.163 1116.3 Q106.617 1115.73 108.654 1115.73 Q114.024 1115.73 117.219 1118.41 Q120.413 1121.1 120.413 1125.59 Q120.413 1127.72 119.603 1129.64 Q118.816 1131.54 116.709 1134.13 Q116.131 1134.8 113.029 1138.02 Q109.927 1141.21 104.279 1146.98 Z" fill="#000000" fill-rule="evenodd" fill-opacity="1" /><path clip-path="url(#clip840)" d="M62.9365 839.787 Q59.3254 839.787 57.4967 843.352 Q55.6912 846.894 55.6912 854.023 Q55.6912 861.13 57.4967 864.695 Q59.3254 868.236 62.9365 868.236 Q66.5707 868.236 68.3763 864.695 Q70.205 861.13 70.205 854.023 Q70.205 846.894 68.3763 843.352 Q66.5707 839.787 62.9365 839.787 M62.9365 836.084 Q68.7467 836.084 71.8022 840.69 Q74.8809 845.273 74.8809 854.023 Q74.8809 862.75 71.8022 867.357 Q68.7467 871.94 62.9365 871.94 Q57.1264 871.94 54.0477 867.357 Q50.9921 862.75 50.9921 854.023 Q50.9921 845.273 54.0477 840.69 Q57.1264 836.084 62.9365 836.084 Z" fill="#000000" fill-rule="evenodd" fill-opacity="1" /><path clip-path="url(#clip840)" d="M83.0984 865.389 L87.9827 865.389 L87.9827 871.269 L83.0984 871.269 L83.0984 865.389 Z" fill="#000000" fill-rule="evenodd" fill-opacity="1" /><path clip-path="url(#clip840)" d="M111.015 840.783 L99.2095 859.232 L111.015 859.232 L111.015 840.783 M109.788 836.709 L115.668 836.709 L115.668 859.232 L120.598 859.232 L120.598 863.121 L115.668 863.121 L115.668 871.269 L111.015 871.269 L111.015 863.121 L95.4132 863.121 L95.4132 858.607 L109.788 836.709 Z" fill="#000000" fill-rule="evenodd" fill-opacity="1" /><path clip-path="url(#clip840)" d="M63.2606 560.145 Q59.6495 560.145 57.8208 563.71 Q56.0152 567.252 56.0152 574.381 Q56.0152 581.488 57.8208 585.052 Q59.6495 588.594 63.2606 588.594 Q66.8948 588.594 68.7004 585.052 Q70.5291 581.488 70.5291 574.381 Q70.5291 567.252 68.7004 563.71 Q66.8948 560.145 63.2606 560.145 M63.2606 556.441 Q69.0707 556.441 72.1263 561.048 Q75.205 565.631 75.205 574.381 Q75.205 583.108 72.1263 587.714 Q69.0707 592.298 63.2606 592.298 Q57.4504 592.298 54.3717 587.714 Q51.3162 583.108 51.3162 574.381 Q51.3162 565.631 54.3717 561.048 Q57.4504 556.441 63.2606 556.441 Z" fill="#000000" fill-rule="evenodd" fill-opacity="1" /><path clip-path="url(#clip840)" d="M83.4225 585.747 L88.3067 585.747 L88.3067 591.626 L83.4225 591.626 L83.4225 585.747 Z" fill="#000000" fill-rule="evenodd" fill-opacity="1" /><path clip-path="url(#clip840)" d="M109.071 572.483 Q105.922 572.483 104.071 574.636 Q102.242 576.789 102.242 580.539 Q102.242 584.265 104.071 586.441 Q105.922 588.594 109.071 588.594 Q112.219 588.594 114.047 586.441 Q115.899 584.265 115.899 580.539 Q115.899 576.789 114.047 574.636 Q112.219 572.483 109.071 572.483 M118.353 557.83 L118.353 562.09 Q116.594 561.256 114.788 560.816 Q113.006 560.377 111.246 560.377 Q106.617 560.377 104.163 563.502 Q101.733 566.627 101.385 572.946 Q102.751 570.932 104.811 569.867 Q106.871 568.779 109.348 568.779 Q114.557 568.779 117.566 571.951 Q120.598 575.099 120.598 580.539 Q120.598 585.863 117.45 589.08 Q114.302 592.298 109.071 592.298 Q103.075 592.298 99.9039 587.714 Q96.7326 583.108 96.7326 574.381 Q96.7326 566.187 100.621 561.326 Q104.51 556.441 111.061 556.441 Q112.82 556.441 114.603 556.789 Q116.408 557.136 118.353 557.83 Z" fill="#000000" fill-rule="evenodd" fill-opacity="1" /><path clip-path="url(#clip840)" d="M63.5152 280.503 Q59.9041 280.503 58.0754 284.068 Q56.2699 287.609 56.2699 294.739 Q56.2699 301.845 58.0754 305.41 Q59.9041 308.952 63.5152 308.952 Q67.1494 308.952 68.955 305.41 Q70.7837 301.845 70.7837 294.739 Q70.7837 287.609 68.955 284.068 Q67.1494 280.503 63.5152 280.503 M63.5152 276.799 Q69.3254 276.799 72.3809 281.406 Q75.4596 285.989 75.4596 294.739 Q75.4596 303.466 72.3809 308.072 Q69.3254 312.655 63.5152 312.655 Q57.7051 312.655 54.6264 308.072 Q51.5708 303.466 51.5708 294.739 Q51.5708 285.989 54.6264 281.406 Q57.7051 276.799 63.5152 276.799 Z" fill="#000000" fill-rule="evenodd" fill-opacity="1" /><path clip-path="url(#clip840)" d="M83.6771 306.105 L88.5614 306.105 L88.5614 311.984 L83.6771 311.984 L83.6771 306.105 Z" fill="#000000" fill-rule="evenodd" fill-opacity="1" /><path clip-path="url(#clip840)" d="M108.746 295.572 Q105.413 295.572 103.492 297.355 Q101.594 299.137 101.594 302.262 Q101.594 305.387 103.492 307.169 Q105.413 308.952 108.746 308.952 Q112.08 308.952 114.001 307.169 Q115.922 305.364 115.922 302.262 Q115.922 299.137 114.001 297.355 Q112.103 295.572 108.746 295.572 M104.071 293.581 Q101.061 292.841 99.3715 290.781 Q97.7048 288.72 97.7048 285.757 Q97.7048 281.614 100.645 279.207 Q103.608 276.799 108.746 276.799 Q113.908 276.799 116.848 279.207 Q119.788 281.614 119.788 285.757 Q119.788 288.72 118.098 290.781 Q116.432 292.841 113.445 293.581 Q116.825 294.369 118.7 296.66 Q120.598 298.952 120.598 302.262 Q120.598 307.285 117.52 309.97 Q114.464 312.655 108.746 312.655 Q103.029 312.655 99.9502 309.97 Q96.8947 307.285 96.8947 302.262 Q96.8947 298.952 98.7928 296.66 Q100.691 294.369 104.071 293.581 M102.358 286.197 Q102.358 288.882 104.024 290.387 Q105.714 291.892 108.746 291.892 Q111.756 291.892 113.445 290.387 Q115.158 288.882 115.158 286.197 Q115.158 283.512 113.445 282.007 Q111.756 280.503 108.746 280.503 Q105.714 280.503 104.024 282.007 Q102.358 283.512 102.358 286.197 Z" fill="#000000" fill-rule="evenodd" fill-opacity="1" /><path clip-path="url(#clip840)" d="M1020.58 18.0373 Q1020.58 22.6281 1017.18 26.85 Q1013.82 31.0719 1008.33 33.6542 Q1002.88 36.1956 997.014 36.1956 L982.75 36.1956 L977.544 57.1821 Q977.503 57.305 977.38 57.8379 Q977.258 58.3298 977.258 58.6167 Q977.258 59.6414 978.528 59.8874 Q979.84 60.1333 982.75 60.1333 Q984.636 60.1333 984.923 60.4612 Q985.086 60.6662 985.086 61.0351 Q985.086 61.6089 984.923 62.0188 Q984.759 62.3877 984.431 62.5107 Q984.144 62.6336 983.939 62.6746 Q983.734 62.7156 983.406 62.7156 Q982.545 62.7156 980.701 62.6336 Q978.897 62.5517 977.954 62.5517 L972.585 62.4697 L961.928 62.7156 Q960.657 62.7156 960.657 61.6909 Q960.657 60.9121 960.985 60.5842 Q961.313 60.2153 961.682 60.1743 Q962.051 60.1333 962.993 60.1333 Q965.043 60.1333 966.272 60.0103 Q967.502 59.8874 968.281 59.7234 Q969.101 59.5185 969.511 58.9446 Q969.961 58.3708 970.166 57.8789 Q970.371 57.346 970.658 56.1573 L981.889 11.0691 Q982.217 9.71649 982.217 9.51154 Q982.217 8.81472 981.807 8.56879 Q981.438 8.28186 980.373 8.1589 Q978.323 7.99494 976.766 7.99494 Q975.741 7.99494 975.331 7.95395 Q974.962 7.91296 974.634 7.70801 Q974.347 7.46208 974.347 6.97021 Q974.347 6.19141 974.675 5.8635 Q975.044 5.49459 975.454 5.4536 Q975.864 5.37162 976.848 5.37162 L1004.06 5.37162 Q1011.89 5.37162 1016.24 9.10165 Q1020.58 12.8317 1020.58 18.0373 M1012.8 16.0288 Q1012.8 7.99494 1001.36 7.99494 L993.325 7.99494 Q990.661 7.99494 990.005 8.48681 Q989.349 8.93769 988.776 11.1921 L983.078 34.0231 L994.924 34.0231 Q1002.88 34.0231 1007.84 29.5553 Q1010.09 27.5058 1011.44 23.243 Q1012.8 18.9801 1012.8 16.0288 Z" fill="#000000" fill-rule="evenodd" fill-opacity="1" /><path clip-path="url(#clip840)" d="M1014 36.0874 Q1014 26.2337 1017.67 18.288 Q1019.24 14.9559 1021.43 12.165 Q1023.63 9.37404 1025.08 8.14943 Q1026.53 6.92483 1026.93 6.92483 Q1027.5 6.92483 1027.53 7.49441 Q1027.53 7.77921 1026.76 8.49118 Q1017.36 18.0602 1017.39 36.0874 Q1017.39 54.1717 1026.53 63.3704 Q1027.53 64.3672 1027.53 64.6805 Q1027.53 65.2501 1026.93 65.2501 Q1026.53 65.2501 1025.14 64.0824 Q1023.74 62.9148 1021.58 60.2377 Q1019.41 57.5607 1017.84 54.2856 Q1014 46.3399 1014 36.0874 Z" fill="#000000" fill-rule="evenodd" fill-opacity="1" /><path clip-path="url(#clip840)" d="M1084.87 27.8747 Q1084.87 28.2436 1084.54 29.5143 Q1084.25 30.744 1083.31 33.1624 Q1082.41 35.5397 1081.02 38.204 Q1079.66 40.8274 1077.16 44.1475 Q1074.66 47.4676 1071.55 50.3779 Q1065.69 55.8704 1059.41 58.8216 Q1053.18 61.7729 1047.86 62.7156 L1046.67 62.7156 Q1045.36 62.7156 1045.36 61.6909 L1046.26 57.9199 L1051.38 37.3843 Q1052.98 31.1129 1052.98 30.58 Q1052.98 30.0882 1052.77 29.8422 Q1052.61 29.5553 1051.63 29.3504 Q1050.68 29.1454 1048.8 29.1454 Q1048.02 29.1454 1047.65 29.1044 Q1047.32 29.0634 1047.04 28.8585 Q1046.75 28.6125 1046.75 28.1207 Q1046.75 27.4239 1047.04 27.055 Q1047.36 26.6451 1047.61 26.5631 Q1047.86 26.4811 1048.35 26.4401 Q1049.04 26.3991 1051.38 26.1942 Q1053.72 25.9482 1055.73 25.7843 Q1057.73 25.6203 1058.6 25.6203 Q1059.09 25.6203 1059.37 25.8663 Q1059.66 26.0712 1059.66 26.3171 L1059.7 26.5221 L1051.46 59.9284 Q1054.5 58.9446 1057.49 57.305 Q1060.52 55.6655 1063.8 52.9602 Q1067.08 50.2139 1069.87 46.8118 Q1072.65 43.4097 1075.11 38.6549 Q1077.61 33.8592 1079.17 28.3666 Q1079.46 27.2599 1080.16 26.6041 Q1080.89 25.9482 1081.43 25.7843 Q1081.96 25.6203 1082.45 25.6203 Q1083.56 25.6203 1084.21 26.2352 Q1084.87 26.809 1084.87 27.8747 Z" fill="#000000" fill-rule="evenodd" fill-opacity="1" /><path clip-path="url(#clip840)" d="M1109.69 64.3142 Q1109.69 63.8223 1110.06 63.5354 Q1110.47 63.2895 1111.7 62.7156 L1152.69 43.9015 Q1155.88 42.3849 1157.52 41.7291 Q1155.84 41.0733 1152.69 39.5567 L1111.7 20.7426 Q1111.53 20.6606 1111.16 20.4967 Q1110.8 20.3327 1110.55 20.2097 Q1110.34 20.0868 1110.14 19.9228 Q1109.93 19.7179 1109.81 19.5539 Q1109.69 19.39 1109.69 19.144 Q1109.69 18.3242 1110.63 18.3242 Q1111.04 18.3242 1112.72 19.144 L1159.29 40.3765 Q1159.37 40.3765 1159.57 40.4994 Q1159.82 40.6224 1159.98 40.7864 Q1160.15 40.9093 1160.31 41.0323 Q1160.47 41.1553 1160.56 41.3192 Q1160.64 41.4832 1160.64 41.7291 Q1160.56 42.4669 1158.22 43.5736 L1112.72 64.3142 Q1111.04 65.134 1110.63 65.134 Q1109.69 65.134 1109.69 64.3142 Z" fill="#000000" fill-rule="evenodd" fill-opacity="1" /><path clip-path="url(#clip840)" d="M1197.65 14.7992 L1197.65 12.1758 Q1207.73 12.1758 1212.94 6.80625 Q1214.37 6.80625 1214.62 7.13416 Q1214.86 7.46208 1214.86 8.97868 L1214.86 56.0754 Q1214.86 58.5757 1216.09 59.3545 Q1217.32 60.1333 1222.69 60.1333 L1225.36 60.1333 L1225.36 62.7156 Q1222.41 62.4697 1211.75 62.4697 Q1201.09 62.4697 1198.18 62.7156 L1198.18 60.1333 L1200.85 60.1333 Q1206.13 60.1333 1207.4 59.3955 Q1208.67 58.6167 1208.67 56.0754 L1208.67 12.5857 Q1204.29 14.7992 1197.65 14.7992 Z" fill="#000000" fill-rule="evenodd" fill-opacity="1" /><path clip-path="url(#clip840)" d="M1234.05 64.6805 Q1234.05 64.3957 1234.79 63.6837 Q1244.18 54.1147 1244.18 36.0874 Q1244.18 18.0032 1235.16 8.86141 Q1234.05 7.80768 1234.05 7.49441 Q1234.05 6.92483 1234.62 6.92483 Q1235.01 6.92483 1236.41 8.09248 Q1237.83 9.26012 1239.97 11.9372 Q1242.13 14.6142 1243.73 17.8893 Q1247.57 25.835 1247.57 36.0874 Q1247.57 45.9412 1243.9 53.8869 Q1242.33 57.2189 1240.14 60.0099 Q1237.95 62.8009 1236.5 64.0255 Q1235.04 65.2501 1234.62 65.2501 Q1234.05 65.2501 1234.05 64.6805 Z" fill="#000000" fill-rule="evenodd" fill-opacity="1" /><path clip-path="url(#clip840)" d="M1279.73 49.968 Q1279.81 48.9432 1281.41 48.9432 L1332.85 48.9432 Q1335.27 48.9432 1335.31 49.886 Q1335.31 50.9107 1333.02 50.8697 L1281.99 50.8697 Q1279.73 50.9107 1279.73 49.968 M1279.73 33.5722 Q1279.73 32.5475 1281.49 32.5885 L1332.77 32.5885 Q1335.27 32.5885 1335.31 33.5722 Q1335.31 34.515 1333.18 34.515 L1281.41 34.515 Q1279.73 34.515 1279.73 33.5722 Z" fill="#000000" fill-rule="evenodd" fill-opacity="1" /><path clip-path="url(#clip840)" d="M1367.69 35.8676 Q1367.69 23.5299 1370.81 16.8076 Q1375.15 6.80625 1385.4 6.80625 Q1387.57 6.80625 1389.83 7.42109 Q1392.12 7.99494 1394.99 10.2493 Q1397.9 12.5038 1399.66 16.1928 Q1403.02 23.3249 1403.02 35.8676 Q1403.02 48.1234 1399.91 54.8047 Q1395.36 64.5601 1385.32 64.5601 Q1381.55 64.5601 1377.69 62.6336 Q1373.88 60.7072 1371.46 56.0754 Q1367.69 49.1482 1367.69 35.8676 M1374.66 34.8429 Q1374.66 47.5086 1375.56 52.5503 Q1376.59 58.0019 1379.37 60.3792 Q1382.2 62.7156 1385.32 62.7156 Q1388.68 62.7156 1391.47 60.2153 Q1394.29 57.6739 1395.15 52.2224 Q1396.1 46.8528 1396.06 34.8429 Q1396.06 23.161 1395.24 18.4882 Q1394.13 13.0366 1391.18 10.8642 Q1388.27 8.65077 1385.32 8.65077 Q1384.21 8.65077 1383.02 8.97868 Q1381.87 9.3066 1380.19 10.2493 Q1378.51 11.1921 1377.2 13.5285 Q1375.93 15.8649 1375.32 19.39 Q1374.66 23.9398 1374.66 34.8429 Z" fill="#000000" fill-rule="evenodd" fill-opacity="1" /><path clip-path="url(#clip840)" d="M1410.53 61.363 Q1409.26 60.0103 1409.26 58.2478 Q1409.26 56.4853 1410.53 55.2146 Q1411.8 53.9029 1413.73 53.9029 Q1415.57 53.9029 1416.8 55.1326 Q1418.07 56.3213 1418.07 58.2888 Q1418.07 60.2153 1416.72 61.4859 Q1415.41 62.7156 1413.73 62.7156 Q1411.8 62.7156 1410.53 61.363 Z" fill="#000000" fill-rule="evenodd" fill-opacity="1" /><path clip-path="url(#clip840)" d="M1432.36 25.7023 Q1432.36 21.2345 1433.67 18.2013 Q1434.98 15.1271 1437.73 12.0939 Q1442.77 6.80625 1450.07 6.80625 Q1453.18 6.80625 1455.93 8.11791 Q1458.72 9.42956 1461.34 12.4218 Q1464.01 15.373 1465.6 21.2345 Q1467.2 27.055 1467.2 35.0889 Q1467.2 48.0825 1460.89 56.3213 Q1454.62 64.5601 1446.13 64.5601 Q1440.76 64.5601 1437.61 62.1418 Q1434.45 59.6824 1434.45 55.5015 Q1434.45 53.3291 1435.68 52.4273 Q1436.91 51.4846 1438.3 51.4846 Q1439.82 51.4846 1441.01 52.5093 Q1442.2 53.493 1442.2 55.3376 Q1442.2 56.8542 1441.22 58.0428 Q1440.27 59.1905 1437.81 59.1905 Q1440.23 62.2238 1446.05 62.2238 Q1448.14 62.2238 1450.23 61.281 Q1452.32 60.2973 1454.58 57.9609 Q1456.87 55.5835 1458.27 50.6238 Q1459.66 45.6641 1459.66 38.6959 L1459.66 36.0316 Q1456.3 44.4344 1449.17 44.4344 Q1442.12 44.4344 1437.24 39.0238 Q1432.36 33.6132 1432.36 25.7023 M1439.9 25.7843 Q1439.9 34.1051 1441.42 37.1793 Q1444 42.4669 1449.25 42.4669 Q1454.37 42.4669 1456.91 37.9171 Q1459.5 33.3263 1459.5 27.3829 Q1459.5 19.144 1458.14 15.537 Q1455.64 8.8967 1450.07 8.8967 Q1444.54 8.8967 1441.67 14.1843 Q1439.9 17.2995 1439.9 25.7843 Z" fill="#000000" fill-rule="evenodd" fill-opacity="1" /><path clip-path="url(#clip840)" d="M1470.31 48.8612 L1470.31 46.2789 L1496.09 6.88823 Q1496.74 5.8635 1497.77 5.90449 Q1498.71 5.90449 1498.92 6.27339 Q1499.12 6.64229 1499.12 8.07692 L1499.12 46.2789 L1507.52 46.2789 L1507.52 48.8612 L1499.12 48.8612 L1499.12 56.1573 Q1499.12 58.5757 1500.11 59.3545 Q1501.13 60.1333 1505.48 60.1333 L1507.24 60.1333 L1507.24 62.7156 Q1503.79 62.4697 1495.84 62.4697 Q1487.93 62.4697 1484.49 62.7156 L1484.49 60.1333 L1486.25 60.1333 Q1490.6 60.1333 1491.62 59.3955 Q1492.65 58.6167 1492.65 56.1573 L1492.65 48.8612 L1470.31 48.8612 M1472.68 46.2789 L1493.14 46.2789 L1493.14 14.9631 L1472.68 46.2789 Z" fill="#000000" fill-rule="evenodd" fill-opacity="1" /><path clip-path="url(#clip840)" d="M1507.13 14.7992 L1507.13 12.1758 Q1517.21 12.1758 1522.42 6.80625 Q1523.85 6.80625 1524.1 7.13416 Q1524.34 7.46208 1524.34 8.97868 L1524.34 56.0754 Q1524.34 58.5757 1525.57 59.3545 Q1526.8 60.1333 1532.17 60.1333 L1534.84 60.1333 L1534.84 62.7156 Q1531.88 62.4697 1521.23 62.4697 Q1510.57 62.4697 1507.66 62.7156 L1507.66 60.1333 L1510.32 60.1333 Q1515.61 60.1333 1516.88 59.3955 Q1518.15 58.6167 1518.15 56.0754 L1518.15 12.5857 Q1513.77 14.7992 1507.13 14.7992 Z" fill="#000000" fill-rule="evenodd" fill-opacity="1" /><polyline clip-path="url(#clip843)" style="stroke:#009af9; stroke-linecap:butt; stroke-linejoin:round; stroke-width:4; stroke-opacity:1; fill:none" points="
  218.754,1413.27 229.165,1413.26 239.576,1413.24 249.988,1413.18 260.399,1413.01 270.81,1412.63 281.221,1411.8 291.633,1410.14 302.044,1407.05 312.455,1401.77 
  322.867,1393.37 333.278,1381.02 343.689,1364.09 354.1,1342.33 364.512,1315.79 374.923,1284.48 385.334,1247.84 395.746,1204.41 406.157,1151.75 416.568,1087.11 
  426.979,1008.46 437.391,915.563 447.802,810.618 458.213,698.049 468.625,583.658 479.036,473.52 489.447,373.129 499.858,287.042 510.27,218.854 520.681,171.162 
  531.092,145.257 541.504,140.63 551.915,154.675 562.326,182.975 572.738,220.24 583.149,261.565 593.56,303.44 603.971,344.104 614.383,383.206 624.794,421.107 
  635.205,458.232 645.617,494.708 656.028,530.276 666.439,564.405 676.85,596.555 687.262,626.549 697.673,654.891 708.084,682.805 718.496,711.86 728.907,743.317 
  739.318,777.542 749.729,813.818 760.141,850.616 770.552,886.158 780.963,918.977 791.375,948.313 801.786,974.266 812.197,997.726 822.609,1020.07 833.02,1042.68 
  843.431,1066.49 853.842,1091.65 864.254,1117.65 874.665,1143.69 885.076,1169.1 895.488,1193.58 905.899,1217.11 916.31,1239.65 926.721,1260.9 937.133,1280.17 
  947.544,1296.62 957.955,1309.57 968.367,1318.86 978.778,1325.03 989.189,1329.14 999.6,1332.37 1010.01,1335.57 1020.42,1338.95 1030.83,1342.2 1041.25,1344.78 
  1051.66,1346.34 1062.07,1346.97 1072.48,1347.12 1082.89,1347.26 1093.3,1347.65 1103.71,1348.12 1114.12,1348.27 1124.54,1347.66 1134.95,1346.14 1145.36,1344.01 
  1155.77,1342.02 1166.18,1341.15 1176.59,1342.19 1187,1345.45 1197.41,1350.55 1207.83,1356.5 1218.24,1362.1 1228.65,1366.43 1239.06,1369.18 1249.47,1370.71 
  1259.88,1371.79 1270.29,1373.16 1280.71,1375.25 1291.12,1378.01 1301.53,1381.11 1311.94,1384.14 1322.35,1386.82 1332.76,1389.1 1343.17,1391.02 1353.58,1392.63 
  1364,1393.96 1374.41,1395 1384.82,1395.82 1395.23,1396.6 1405.64,1397.58 1416.05,1398.96 1426.46,1400.81 1436.87,1403.04 1447.29,1405.41 1457.7,1407.63 
  1468.11,1409.48 1478.52,1410.82 1488.93,1411.61 1499.34,1411.89 1509.75,1411.73 1520.16,1411.19 1530.58,1410.4 1540.99,1409.45 1551.4,1408.47 1561.81,1407.52 
  1572.22,1406.56 1582.63,1405.49 1593.04,1404.17 1603.46,1402.57 1613.87,1400.83 1624.28,1399.3 1634.69,1398.37 1645.1,1398.35 1655.51,1399.25 1665.92,1400.81 
  1676.33,1402.56 1686.75,1404.04 1697.16,1404.96 1707.57,1405.26 1717.98,1405.12 1728.39,1404.79 1738.8,1404.53 1749.21,1404.48 1759.62,1404.68 1770.04,1405.05 
  1780.45,1405.46 1790.86,1405.81 1801.27,1406.03 1811.68,1406.16 1822.09,1406.22 1832.5,1406.27 1842.91,1406.33 1853.33,1406.37 1863.74,1406.39 1874.15,1406.38 
  1884.56,1406.32 1894.97,1406.16 1905.38,1405.84 1915.79,1405.32 1926.21,1404.65 1936.62,1404 1947.03,1403.6 1957.44,1403.68 1967.85,1404.34 1978.26,1405.54 
  1988.67,1407.07 1999.08,1408.68 2009.5,1410.14 2019.91,1411.3 2030.32,1412.13 2040.73,1412.64 2051.14,1412.91 2061.55,1412.98 2071.96,1412.89 2082.37,1412.62 
  2092.79,1412.17 2103.2,1411.52 2113.61,1410.72 2124.02,1409.87 2134.43,1409.12 2144.84,1408.63 2155.25,1408.53 2165.67,1408.85 2176.08,1409.49 2186.49,1410.32 
  2196.9,1411.16 2207.31,1411.9 2217.72,1412.45 2228.13,1412.82 2238.54,1413.05 2248.96,1413.17 2259.37,1413.23 2269.78,1413.26 2280.19,1413.27 2290.6,1413.27 
  
  "/>
<polyline clip-path="url(#clip843)" style="stroke:#000000; stroke-linecap:butt; stroke-linejoin:round; stroke-width:4; stroke-opacity:1; fill:none" points="
  457.095,2800.45 457.095,-1246.55 
  "/>
</svg>
