<?xml version="1.0" encoding="utf-8"?>
<svg xmlns="http://www.w3.org/2000/svg" xmlns:xlink="http://www.w3.org/1999/xlink" width="600" height="400" viewBox="0 0 2400 1600">
<defs>
  <clipPath id="clip150">
    <rect x="0" y="0" width="2400" height="1600"/>
  </clipPath>
</defs>
<path clip-path="url(#clip150)" d="
M0 1600 L2400 1600 L2400 0 L0 0  Z
  " fill="#ffffff" fill-rule="evenodd" fill-opacity="1"/>
<defs>
  <clipPath id="clip151">
    <rect x="480" y="0" width="1681" height="1600"/>
  </clipPath>
</defs>
<defs>
  <clipPath id="clip152">
    <rect x="1465" y="1073" width="907" height="399"/>
  </clipPath>
</defs>
<path clip-path="url(#clip150)" d="
M156.598 1451.45 L2352.76 1451.45 L2352.76 102.45 L156.598 102.45  Z
  " fill="#ffffff" fill-rule="evenodd" fill-opacity="1"/>
<defs>
  <clipPath id="clip153">
    <rect x="156" y="102" width="2197" height="1350"/>
  </clipPath>
</defs>
<polyline clip-path="url(#clip153)" style="stroke:#000000; stroke-linecap:butt; stroke-linejoin:round; stroke-width:2; stroke-opacity:0.1; fill:none" points="
  481.563,1451.45 481.563,102.45 
  "/>
<polyline clip-path="url(#clip153)" style="stroke:#000000; stroke-linecap:butt; stroke-linejoin:round; stroke-width:2; stroke-opacity:0.1; fill:none" points="
  842.648,1451.45 842.648,102.45 
  "/>
<polyline clip-path="url(#clip153)" style="stroke:#000000; stroke-linecap:butt; stroke-linejoin:round; stroke-width:2; stroke-opacity:0.1; fill:none" points="
  1203.73,1451.45 1203.73,102.45 
  "/>
<polyline clip-path="url(#clip153)" style="stroke:#000000; stroke-linecap:butt; stroke-linejoin:round; stroke-width:2; stroke-opacity:0.1; fill:none" points="
  1564.82,1451.45 1564.82,102.45 
  "/>
<polyline clip-path="url(#clip153)" style="stroke:#000000; stroke-linecap:butt; stroke-linejoin:round; stroke-width:2; stroke-opacity:0.1; fill:none" points="
  1925.9,1451.45 1925.9,102.45 
  "/>
<polyline clip-path="url(#clip153)" style="stroke:#000000; stroke-linecap:butt; stroke-linejoin:round; stroke-width:2; stroke-opacity:0.1; fill:none" points="
  2286.99,1451.45 2286.99,102.45 
  "/>
<polyline clip-path="url(#clip150)" style="stroke:#000000; stroke-linecap:butt; stroke-linejoin:round; stroke-width:4; stroke-opacity:1; fill:none" points="
  156.598,1451.45 2352.76,1451.45 
  "/>
<polyline clip-path="url(#clip150)" style="stroke:#000000; stroke-linecap:butt; stroke-linejoin:round; stroke-width:4; stroke-opacity:1; fill:none" points="
  481.563,1451.45 481.563,1432.55 
  "/>
<polyline clip-path="url(#clip150)" style="stroke:#000000; stroke-linecap:butt; stroke-linejoin:round; stroke-width:4; stroke-opacity:1; fill:none" points="
  842.648,1451.45 842.648,1432.55 
  "/>
<polyline clip-path="url(#clip150)" style="stroke:#000000; stroke-linecap:butt; stroke-linejoin:round; stroke-width:4; stroke-opacity:1; fill:none" points="
  1203.73,1451.45 1203.73,1432.55 
  "/>
<polyline clip-path="url(#clip150)" style="stroke:#000000; stroke-linecap:butt; stroke-linejoin:round; stroke-width:4; stroke-opacity:1; fill:none" points="
  1564.82,1451.45 1564.82,1432.55 
  "/>
<polyline clip-path="url(#clip150)" style="stroke:#000000; stroke-linecap:butt; stroke-linejoin:round; stroke-width:4; stroke-opacity:1; fill:none" points="
  1925.9,1451.45 1925.9,1432.55 
  "/>
<polyline clip-path="url(#clip150)" style="stroke:#000000; stroke-linecap:butt; stroke-linejoin:round; stroke-width:4; stroke-opacity:1; fill:none" points="
  2286.99,1451.45 2286.99,1432.55 
  "/>
<path clip-path="url(#clip150)" d="M471.945 1508.19 L479.584 1508.19 L479.584 1481.82 L471.274 1483.49 L471.274 1479.23 L479.538 1477.56 L484.214 1477.56 L484.214 1508.19 L491.852 1508.19 L491.852 1512.12 L471.945 1512.12 L471.945 1508.19 Z" fill="#000000" fill-rule="evenodd" fill-opacity="1" /><path clip-path="url(#clip150)" d="M837.301 1508.19 L853.62 1508.19 L853.62 1512.12 L831.676 1512.12 L831.676 1508.19 Q834.338 1505.43 838.921 1500.8 Q843.528 1496.15 844.708 1494.81 Q846.953 1492.28 847.833 1490.55 Q848.736 1488.79 848.736 1487.1 Q848.736 1484.34 846.791 1482.61 Q844.87 1480.87 841.768 1480.87 Q839.569 1480.87 837.116 1481.64 Q834.685 1482.4 831.907 1483.95 L831.907 1479.23 Q834.731 1478.09 837.185 1477.52 Q839.639 1476.94 841.676 1476.94 Q847.046 1476.94 850.241 1479.62 Q853.435 1482.31 853.435 1486.8 Q853.435 1488.93 852.625 1490.85 Q851.838 1492.75 849.731 1495.34 Q849.153 1496.01 846.051 1499.23 Q842.949 1502.42 837.301 1508.19 Z" fill="#000000" fill-rule="evenodd" fill-opacity="1" /><path clip-path="url(#clip150)" d="M1207.98 1493.49 Q1211.34 1494.21 1213.21 1496.47 Q1215.11 1498.74 1215.11 1502.08 Q1215.11 1507.19 1211.59 1509.99 Q1208.07 1512.79 1201.59 1512.79 Q1199.42 1512.79 1197.1 1512.35 Q1194.81 1511.94 1192.36 1511.08 L1192.36 1506.57 Q1194.3 1507.7 1196.61 1508.28 Q1198.93 1508.86 1201.45 1508.86 Q1205.85 1508.86 1208.14 1507.12 Q1210.46 1505.39 1210.46 1502.08 Q1210.46 1499.02 1208.3 1497.31 Q1206.17 1495.57 1202.36 1495.57 L1198.33 1495.57 L1198.33 1491.73 L1202.54 1491.73 Q1205.99 1491.73 1207.82 1490.36 Q1209.65 1488.97 1209.65 1486.38 Q1209.65 1483.72 1207.75 1482.31 Q1205.87 1480.87 1202.36 1480.87 Q1200.43 1480.87 1198.24 1481.29 Q1196.04 1481.71 1193.4 1482.58 L1193.4 1478.42 Q1196.06 1477.68 1198.37 1477.31 Q1200.71 1476.94 1202.77 1476.94 Q1208.1 1476.94 1211.2 1479.37 Q1214.3 1481.77 1214.3 1485.9 Q1214.3 1488.77 1212.66 1490.76 Q1211.01 1492.72 1207.98 1493.49 Z" fill="#000000" fill-rule="evenodd" fill-opacity="1" /><path clip-path="url(#clip150)" d="M1567.83 1481.64 L1556.02 1500.08 L1567.83 1500.08 L1567.83 1481.64 M1566.6 1477.56 L1572.48 1477.56 L1572.48 1500.08 L1577.41 1500.08 L1577.41 1503.97 L1572.48 1503.97 L1572.48 1512.12 L1567.83 1512.12 L1567.83 1503.97 L1552.23 1503.97 L1552.23 1499.46 L1566.6 1477.56 Z" fill="#000000" fill-rule="evenodd" fill-opacity="1" /><path clip-path="url(#clip150)" d="M1916.18 1477.56 L1934.54 1477.56 L1934.54 1481.5 L1920.46 1481.5 L1920.46 1489.97 Q1921.48 1489.62 1922.5 1489.46 Q1923.52 1489.27 1924.54 1489.27 Q1930.32 1489.27 1933.7 1492.45 Q1937.08 1495.62 1937.08 1501.03 Q1937.08 1506.61 1933.61 1509.71 Q1930.14 1512.79 1923.82 1512.79 Q1921.64 1512.79 1919.37 1512.42 Q1917.13 1512.05 1914.72 1511.31 L1914.72 1506.61 Q1916.81 1507.75 1919.03 1508.3 Q1921.25 1508.86 1923.73 1508.86 Q1927.73 1508.86 1930.07 1506.75 Q1932.41 1504.65 1932.41 1501.03 Q1932.41 1497.42 1930.07 1495.32 Q1927.73 1493.21 1923.73 1493.21 Q1921.85 1493.21 1919.98 1493.63 Q1918.12 1494.04 1916.18 1494.92 L1916.18 1477.56 Z" fill="#000000" fill-rule="evenodd" fill-opacity="1" /><path clip-path="url(#clip150)" d="M2287.39 1492.98 Q2284.24 1492.98 2282.39 1495.13 Q2280.56 1497.28 2280.56 1501.03 Q2280.56 1504.76 2282.39 1506.94 Q2284.24 1509.09 2287.39 1509.09 Q2290.54 1509.09 2292.37 1506.94 Q2294.22 1504.76 2294.22 1501.03 Q2294.22 1497.28 2292.37 1495.13 Q2290.54 1492.98 2287.39 1492.98 M2296.67 1478.33 L2296.67 1482.58 Q2294.92 1481.75 2293.11 1481.31 Q2291.33 1480.87 2289.57 1480.87 Q2284.94 1480.87 2282.48 1484 Q2280.05 1487.12 2279.71 1493.44 Q2281.07 1491.43 2283.13 1490.36 Q2285.19 1489.27 2287.67 1489.27 Q2292.88 1489.27 2295.89 1492.45 Q2298.92 1495.59 2298.92 1501.03 Q2298.92 1506.36 2295.77 1509.58 Q2292.62 1512.79 2287.39 1512.79 Q2281.4 1512.79 2278.23 1508.21 Q2275.05 1503.6 2275.05 1494.88 Q2275.05 1486.68 2278.94 1481.82 Q2282.83 1476.94 2289.38 1476.94 Q2291.14 1476.94 2292.92 1477.28 Q2294.73 1477.63 2296.67 1478.33 Z" fill="#000000" fill-rule="evenodd" fill-opacity="1" /><path clip-path="url(#clip150)" d="M1269.6 1537.9 Q1269.6 1538.19 1269.34 1539.19 Q1269.12 1540.16 1268.38 1542.06 Q1267.67 1543.92 1266.57 1546.02 Q1265.51 1548.08 1263.54 1550.69 Q1261.58 1553.3 1259.13 1555.58 Q1254.53 1559.9 1249.6 1562.22 Q1244.7 1564.54 1240.52 1565.28 L1239.58 1565.28 Q1238.55 1565.28 1238.55 1564.47 L1239.26 1561.51 L1243.29 1545.37 Q1244.54 1540.45 1244.54 1540.03 Q1244.54 1539.64 1244.38 1539.45 Q1244.25 1539.22 1243.48 1539.06 Q1242.74 1538.9 1241.26 1538.9 Q1240.65 1538.9 1240.36 1538.87 Q1240.1 1538.84 1239.87 1538.68 Q1239.65 1538.48 1239.65 1538.1 Q1239.65 1537.55 1239.87 1537.26 Q1240.13 1536.94 1240.32 1536.87 Q1240.52 1536.81 1240.9 1536.78 Q1241.45 1536.74 1243.29 1536.58 Q1245.12 1536.39 1246.7 1536.26 Q1248.28 1536.13 1248.95 1536.13 Q1249.34 1536.13 1249.57 1536.32 Q1249.79 1536.49 1249.79 1536.68 L1249.82 1536.84 L1243.35 1563.09 Q1245.73 1562.31 1248.09 1561.03 Q1250.47 1559.74 1253.05 1557.61 Q1255.62 1555.45 1257.81 1552.78 Q1260 1550.11 1261.93 1546.37 Q1263.9 1542.6 1265.12 1538.29 Q1265.35 1537.42 1265.9 1536.9 Q1266.47 1536.39 1266.89 1536.26 Q1267.31 1536.13 1267.7 1536.13 Q1268.57 1536.13 1269.08 1536.61 Q1269.6 1537.07 1269.6 1537.9 Z" fill="#000000" fill-rule="evenodd" fill-opacity="1" /><polyline clip-path="url(#clip153)" style="stroke:#000000; stroke-linecap:butt; stroke-linejoin:round; stroke-width:2; stroke-opacity:0.1; fill:none" points="
  156.598,1413.28 2352.76,1413.28 
  "/>
<polyline clip-path="url(#clip153)" style="stroke:#000000; stroke-linecap:butt; stroke-linejoin:round; stroke-width:2; stroke-opacity:0.1; fill:none" points="
  156.598,1135.61 2352.76,1135.61 
  "/>
<polyline clip-path="url(#clip153)" style="stroke:#000000; stroke-linecap:butt; stroke-linejoin:round; stroke-width:2; stroke-opacity:0.1; fill:none" points="
  156.598,857.949 2352.76,857.949 
  "/>
<polyline clip-path="url(#clip153)" style="stroke:#000000; stroke-linecap:butt; stroke-linejoin:round; stroke-width:2; stroke-opacity:0.1; fill:none" points="
  156.598,580.285 2352.76,580.285 
  "/>
<polyline clip-path="url(#clip153)" style="stroke:#000000; stroke-linecap:butt; stroke-linejoin:round; stroke-width:2; stroke-opacity:0.1; fill:none" points="
  156.598,302.622 2352.76,302.622 
  "/>
<polyline clip-path="url(#clip150)" style="stroke:#000000; stroke-linecap:butt; stroke-linejoin:round; stroke-width:4; stroke-opacity:1; fill:none" points="
  156.598,1451.45 156.598,102.45 
  "/>
<polyline clip-path="url(#clip150)" style="stroke:#000000; stroke-linecap:butt; stroke-linejoin:round; stroke-width:4; stroke-opacity:1; fill:none" points="
  156.598,1413.28 175.496,1413.28 
  "/>
<polyline clip-path="url(#clip150)" style="stroke:#000000; stroke-linecap:butt; stroke-linejoin:round; stroke-width:4; stroke-opacity:1; fill:none" points="
  156.598,1135.61 175.496,1135.61 
  "/>
<polyline clip-path="url(#clip150)" style="stroke:#000000; stroke-linecap:butt; stroke-linejoin:round; stroke-width:4; stroke-opacity:1; fill:none" points="
  156.598,857.949 175.496,857.949 
  "/>
<polyline clip-path="url(#clip150)" style="stroke:#000000; stroke-linecap:butt; stroke-linejoin:round; stroke-width:4; stroke-opacity:1; fill:none" points="
  156.598,580.285 175.496,580.285 
  "/>
<polyline clip-path="url(#clip150)" style="stroke:#000000; stroke-linecap:butt; stroke-linejoin:round; stroke-width:4; stroke-opacity:1; fill:none" points="
  156.598,302.622 175.496,302.622 
  "/>
<path clip-path="url(#clip150)" d="M63.4226 1399.07 Q59.8115 1399.07 57.9828 1402.64 Q56.1773 1406.18 56.1773 1413.31 Q56.1773 1420.42 57.9828 1423.98 Q59.8115 1427.52 63.4226 1427.52 Q67.0569 1427.52 68.8624 1423.98 Q70.6911 1420.42 70.6911 1413.31 Q70.6911 1406.18 68.8624 1402.64 Q67.0569 1399.07 63.4226 1399.07 M63.4226 1395.37 Q69.2328 1395.37 72.2883 1399.98 Q75.367 1404.56 75.367 1413.31 Q75.367 1422.04 72.2883 1426.64 Q69.2328 1431.23 63.4226 1431.23 Q57.6125 1431.23 54.5338 1426.64 Q51.4782 1422.04 51.4782 1413.31 Q51.4782 1404.56 54.5338 1399.98 Q57.6125 1395.37 63.4226 1395.37 Z" fill="#000000" fill-rule="evenodd" fill-opacity="1" /><path clip-path="url(#clip150)" d="M83.5845 1424.68 L88.4688 1424.68 L88.4688 1430.56 L83.5845 1430.56 L83.5845 1424.68 Z" fill="#000000" fill-rule="evenodd" fill-opacity="1" /><path clip-path="url(#clip150)" d="M108.654 1399.07 Q105.043 1399.07 103.214 1402.64 Q101.409 1406.18 101.409 1413.31 Q101.409 1420.42 103.214 1423.98 Q105.043 1427.52 108.654 1427.52 Q112.288 1427.52 114.094 1423.98 Q115.922 1420.42 115.922 1413.31 Q115.922 1406.18 114.094 1402.64 Q112.288 1399.07 108.654 1399.07 M108.654 1395.37 Q114.464 1395.37 117.52 1399.98 Q120.598 1404.56 120.598 1413.31 Q120.598 1422.04 117.52 1426.64 Q114.464 1431.23 108.654 1431.23 Q102.844 1431.23 99.765 1426.64 Q96.7095 1422.04 96.7095 1413.31 Q96.7095 1404.56 99.765 1399.98 Q102.844 1395.37 108.654 1395.37 Z" fill="#000000" fill-rule="evenodd" fill-opacity="1" /><path clip-path="url(#clip150)" d="M65.0198 1121.41 Q61.4087 1121.41 59.58 1124.98 Q57.7745 1128.52 57.7745 1135.65 Q57.7745 1142.75 59.58 1146.32 Q61.4087 1149.86 65.0198 1149.86 Q68.6541 1149.86 70.4596 1146.32 Q72.2883 1142.75 72.2883 1135.65 Q72.2883 1128.52 70.4596 1124.98 Q68.6541 1121.41 65.0198 1121.41 M65.0198 1117.71 Q70.83 1117.71 73.8855 1122.31 Q76.9642 1126.9 76.9642 1135.65 Q76.9642 1144.37 73.8855 1148.98 Q70.83 1153.56 65.0198 1153.56 Q59.2097 1153.56 56.131 1148.98 Q53.0754 1144.37 53.0754 1135.65 Q53.0754 1126.9 56.131 1122.31 Q59.2097 1117.71 65.0198 1117.71 Z" fill="#000000" fill-rule="evenodd" fill-opacity="1" /><path clip-path="url(#clip150)" d="M85.1818 1147.01 L90.066 1147.01 L90.066 1152.89 L85.1818 1152.89 L85.1818 1147.01 Z" fill="#000000" fill-rule="evenodd" fill-opacity="1" /><path clip-path="url(#clip150)" d="M104.279 1148.96 L120.598 1148.96 L120.598 1152.89 L98.6539 1152.89 L98.6539 1148.96 Q101.316 1146.2 105.899 1141.57 Q110.506 1136.92 111.686 1135.58 Q113.932 1133.05 114.811 1131.32 Q115.714 1129.56 115.714 1127.87 Q115.714 1125.11 113.77 1123.38 Q111.848 1121.64 108.746 1121.64 Q106.547 1121.64 104.094 1122.41 Q101.663 1123.17 98.8854 1124.72 L98.8854 1120 Q101.709 1118.86 104.163 1118.29 Q106.617 1117.71 108.654 1117.71 Q114.024 1117.71 117.219 1120.39 Q120.413 1123.08 120.413 1127.57 Q120.413 1129.7 119.603 1131.62 Q118.816 1133.52 116.709 1136.11 Q116.131 1136.78 113.029 1140 Q109.927 1143.19 104.279 1148.96 Z" fill="#000000" fill-rule="evenodd" fill-opacity="1" /><path clip-path="url(#clip150)" d="M62.9365 843.747 Q59.3254 843.747 57.4967 847.312 Q55.6912 850.854 55.6912 857.983 Q55.6912 865.09 57.4967 868.655 Q59.3254 872.196 62.9365 872.196 Q66.5707 872.196 68.3763 868.655 Q70.205 865.09 70.205 857.983 Q70.205 850.854 68.3763 847.312 Q66.5707 843.747 62.9365 843.747 M62.9365 840.044 Q68.7467 840.044 71.8022 844.65 Q74.8809 849.233 74.8809 857.983 Q74.8809 866.71 71.8022 871.317 Q68.7467 875.9 62.9365 875.9 Q57.1264 875.9 54.0477 871.317 Q50.9921 866.71 50.9921 857.983 Q50.9921 849.233 54.0477 844.65 Q57.1264 840.044 62.9365 840.044 Z" fill="#000000" fill-rule="evenodd" fill-opacity="1" /><path clip-path="url(#clip150)" d="M83.0984 869.349 L87.9827 869.349 L87.9827 875.229 L83.0984 875.229 L83.0984 869.349 Z" fill="#000000" fill-rule="evenodd" fill-opacity="1" /><path clip-path="url(#clip150)" d="M111.015 844.743 L99.2095 863.192 L111.015 863.192 L111.015 844.743 M109.788 840.669 L115.668 840.669 L115.668 863.192 L120.598 863.192 L120.598 867.08 L115.668 867.08 L115.668 875.229 L111.015 875.229 L111.015 867.08 L95.4132 867.08 L95.4132 862.567 L109.788 840.669 Z" fill="#000000" fill-rule="evenodd" fill-opacity="1" /><path clip-path="url(#clip150)" d="M63.2606 566.084 Q59.6495 566.084 57.8208 569.649 Q56.0152 573.19 56.0152 580.32 Q56.0152 587.426 57.8208 590.991 Q59.6495 594.533 63.2606 594.533 Q66.8948 594.533 68.7004 590.991 Q70.5291 587.426 70.5291 580.32 Q70.5291 573.19 68.7004 569.649 Q66.8948 566.084 63.2606 566.084 M63.2606 562.38 Q69.0707 562.38 72.1263 566.987 Q75.205 571.57 75.205 580.32 Q75.205 589.047 72.1263 593.653 Q69.0707 598.236 63.2606 598.236 Q57.4504 598.236 54.3717 593.653 Q51.3162 589.047 51.3162 580.32 Q51.3162 571.57 54.3717 566.987 Q57.4504 562.38 63.2606 562.38 Z" fill="#000000" fill-rule="evenodd" fill-opacity="1" /><path clip-path="url(#clip150)" d="M83.4225 591.686 L88.3067 591.686 L88.3067 597.565 L83.4225 597.565 L83.4225 591.686 Z" fill="#000000" fill-rule="evenodd" fill-opacity="1" /><path clip-path="url(#clip150)" d="M109.071 578.422 Q105.922 578.422 104.071 580.575 Q102.242 582.727 102.242 586.477 Q102.242 590.204 104.071 592.38 Q105.922 594.533 109.071 594.533 Q112.219 594.533 114.047 592.38 Q115.899 590.204 115.899 586.477 Q115.899 582.727 114.047 580.575 Q112.219 578.422 109.071 578.422 M118.353 563.769 L118.353 568.028 Q116.594 567.195 114.788 566.755 Q113.006 566.315 111.246 566.315 Q106.617 566.315 104.163 569.44 Q101.733 572.565 101.385 578.885 Q102.751 576.871 104.811 575.806 Q106.871 574.718 109.348 574.718 Q114.557 574.718 117.566 577.889 Q120.598 581.037 120.598 586.477 Q120.598 591.801 117.45 595.019 Q114.302 598.236 109.071 598.236 Q103.075 598.236 99.9039 593.653 Q96.7326 589.047 96.7326 580.32 Q96.7326 572.126 100.621 567.264 Q104.51 562.38 111.061 562.38 Q112.82 562.38 114.603 562.727 Q116.408 563.075 118.353 563.769 Z" fill="#000000" fill-rule="evenodd" fill-opacity="1" /><path clip-path="url(#clip150)" d="M63.5152 288.42 Q59.9041 288.42 58.0754 291.985 Q56.2699 295.527 56.2699 302.656 Q56.2699 309.763 58.0754 313.328 Q59.9041 316.869 63.5152 316.869 Q67.1494 316.869 68.955 313.328 Q70.7837 309.763 70.7837 302.656 Q70.7837 295.527 68.955 291.985 Q67.1494 288.42 63.5152 288.42 M63.5152 284.717 Q69.3254 284.717 72.3809 289.323 Q75.4596 293.907 75.4596 302.656 Q75.4596 311.383 72.3809 315.99 Q69.3254 320.573 63.5152 320.573 Q57.7051 320.573 54.6264 315.99 Q51.5708 311.383 51.5708 302.656 Q51.5708 293.907 54.6264 289.323 Q57.7051 284.717 63.5152 284.717 Z" fill="#000000" fill-rule="evenodd" fill-opacity="1" /><path clip-path="url(#clip150)" d="M83.6771 314.022 L88.5614 314.022 L88.5614 319.902 L83.6771 319.902 L83.6771 314.022 Z" fill="#000000" fill-rule="evenodd" fill-opacity="1" /><path clip-path="url(#clip150)" d="M108.746 303.49 Q105.413 303.49 103.492 305.272 Q101.594 307.055 101.594 310.18 Q101.594 313.305 103.492 315.087 Q105.413 316.869 108.746 316.869 Q112.08 316.869 114.001 315.087 Q115.922 313.281 115.922 310.18 Q115.922 307.055 114.001 305.272 Q112.103 303.49 108.746 303.49 M104.071 301.499 Q101.061 300.758 99.3715 298.698 Q97.7048 296.638 97.7048 293.675 Q97.7048 289.532 100.645 287.124 Q103.608 284.717 108.746 284.717 Q113.908 284.717 116.848 287.124 Q119.788 289.532 119.788 293.675 Q119.788 296.638 118.098 298.698 Q116.432 300.758 113.445 301.499 Q116.825 302.286 118.7 304.578 Q120.598 306.869 120.598 310.18 Q120.598 315.203 117.52 317.888 Q114.464 320.573 108.746 320.573 Q103.029 320.573 99.9502 317.888 Q96.8947 315.203 96.8947 310.18 Q96.8947 306.869 98.7928 304.578 Q100.691 302.286 104.071 301.499 M102.358 294.115 Q102.358 296.8 104.024 298.305 Q105.714 299.809 108.746 299.809 Q111.756 299.809 113.445 298.305 Q115.158 296.8 115.158 294.115 Q115.158 291.43 113.445 289.925 Q111.756 288.42 108.746 288.42 Q105.714 288.42 104.024 289.925 Q102.358 291.43 102.358 294.115 Z" fill="#000000" fill-rule="evenodd" fill-opacity="1" /><path clip-path="url(#clip150)" d="M1019.02 18.0373 Q1019.02 22.6281 1015.62 26.85 Q1012.26 31.0719 1006.76 33.6542 Q1001.31 36.1956 995.452 36.1956 L981.188 36.1956 L975.982 57.1821 Q975.941 57.305 975.818 57.8379 Q975.695 58.3298 975.695 58.6167 Q975.695 59.6414 976.966 59.8874 Q978.277 60.1333 981.188 60.1333 Q983.073 60.1333 983.36 60.4612 Q983.524 60.6662 983.524 61.0351 Q983.524 61.6089 983.36 62.0188 Q983.196 62.3877 982.868 62.5107 Q982.581 62.6336 982.376 62.6746 Q982.171 62.7156 981.843 62.7156 Q980.983 62.7156 979.138 62.6336 Q977.335 62.5517 976.392 62.5517 L971.022 62.4697 L960.365 62.7156 Q959.094 62.7156 959.094 61.6909 Q959.094 60.9121 959.422 60.5842 Q959.75 60.2153 960.119 60.1743 Q960.488 60.1333 961.431 60.1333 Q963.48 60.1333 964.71 60.0103 Q965.94 59.8874 966.718 59.7234 Q967.538 59.5185 967.948 58.9446 Q968.399 58.3708 968.604 57.8789 Q968.809 57.346 969.096 56.1573 L980.327 11.0691 Q980.655 9.71649 980.655 9.51154 Q980.655 8.81472 980.245 8.56879 Q979.876 8.28186 978.81 8.1589 Q976.761 7.99494 975.203 7.99494 Q974.178 7.99494 973.769 7.95395 Q973.4 7.91296 973.072 7.70801 Q972.785 7.46208 972.785 6.97021 Q972.785 6.19141 973.113 5.8635 Q973.482 5.49459 973.891 5.4536 Q974.301 5.37162 975.285 5.37162 L1002.5 5.37162 Q1010.33 5.37162 1014.68 9.10165 Q1019.02 12.8317 1019.02 18.0373 M1011.23 16.0288 Q1011.23 7.99494 999.797 7.99494 L991.763 7.99494 Q989.099 7.99494 988.443 8.48681 Q987.787 8.93769 987.213 11.1921 L981.516 34.0231 L993.361 34.0231 Q1001.31 34.0231 1006.27 29.5553 Q1008.53 27.5058 1009.88 23.243 Q1011.23 18.9801 1011.23 16.0288 Z" fill="#000000" fill-rule="evenodd" fill-opacity="1" /><path clip-path="url(#clip150)" d="M1012.44 36.0874 Q1012.44 26.2337 1016.11 18.288 Q1017.68 14.9559 1019.87 12.165 Q1022.06 9.37404 1023.52 8.14943 Q1024.97 6.92483 1025.37 6.92483 Q1025.94 6.92483 1025.97 7.49441 Q1025.97 7.77921 1025.2 8.49118 Q1015.8 18.0602 1015.83 36.0874 Q1015.83 54.1717 1024.97 63.3704 Q1025.97 64.3672 1025.97 64.6805 Q1025.97 65.2501 1025.37 65.2501 Q1024.97 65.2501 1023.57 64.0824 Q1022.18 62.9148 1020.01 60.2377 Q1017.85 57.5607 1016.28 54.2856 Q1012.44 46.3399 1012.44 36.0874 Z" fill="#000000" fill-rule="evenodd" fill-opacity="1" /><path clip-path="url(#clip150)" d="M1083.31 27.8747 Q1083.31 28.2436 1082.98 29.5143 Q1082.69 30.744 1081.75 33.1624 Q1080.85 35.5397 1079.45 38.204 Q1078.1 40.8274 1075.6 44.1475 Q1073.1 47.4676 1069.99 50.3779 Q1064.12 55.8704 1057.85 58.8216 Q1051.62 61.7729 1046.29 62.7156 L1045.1 62.7156 Q1043.79 62.7156 1043.79 61.6909 L1044.69 57.9199 L1049.82 37.3843 Q1051.42 31.1129 1051.42 30.58 Q1051.42 30.0882 1051.21 29.8422 Q1051.05 29.5553 1050.06 29.3504 Q1049.12 29.1454 1047.24 29.1454 Q1046.46 29.1454 1046.09 29.1044 Q1045.76 29.0634 1045.47 28.8585 Q1045.19 28.6125 1045.19 28.1207 Q1045.19 27.4239 1045.47 27.055 Q1045.8 26.6451 1046.05 26.5631 Q1046.29 26.4811 1046.79 26.4401 Q1047.48 26.3991 1049.82 26.1942 Q1052.15 25.9482 1054.16 25.7843 Q1056.17 25.6203 1057.03 25.6203 Q1057.52 25.6203 1057.81 25.8663 Q1058.1 26.0712 1058.1 26.3171 L1058.14 26.5221 L1049.9 59.9284 Q1052.93 58.9446 1055.93 57.305 Q1058.96 55.6655 1062.24 52.9602 Q1065.52 50.2139 1068.3 46.8118 Q1071.09 43.4097 1073.55 38.6549 Q1076.05 33.8592 1077.61 28.3666 Q1077.9 27.2599 1078.59 26.6041 Q1079.33 25.9482 1079.86 25.7843 Q1080.4 25.6203 1080.89 25.6203 Q1081.99 25.6203 1082.65 26.2352 Q1083.31 26.809 1083.31 27.8747 Z" fill="#000000" fill-rule="evenodd" fill-opacity="1" /><path clip-path="url(#clip150)" d="M1108.13 64.3142 Q1108.13 63.8223 1108.49 63.5354 Q1108.9 63.2895 1110.13 62.7156 L1151.12 43.9015 Q1154.32 42.3849 1155.96 41.7291 Q1154.28 41.0733 1151.12 39.5567 L1110.13 20.7426 Q1109.97 20.6606 1109.6 20.4967 Q1109.23 20.3327 1108.99 20.2097 Q1108.78 20.0868 1108.58 19.9228 Q1108.37 19.7179 1108.25 19.5539 Q1108.13 19.39 1108.13 19.144 Q1108.13 18.3242 1109.07 18.3242 Q1109.48 18.3242 1111.16 19.144 L1157.72 40.3765 Q1157.81 40.3765 1158.01 40.4994 Q1158.26 40.6224 1158.42 40.7864 Q1158.58 40.9093 1158.75 41.0323 Q1158.91 41.1553 1158.99 41.3192 Q1159.08 41.4832 1159.08 41.7291 Q1158.99 42.4669 1156.66 43.5736 L1111.16 64.3142 Q1109.48 65.134 1109.07 65.134 Q1108.13 65.134 1108.13 64.3142 Z" fill="#000000" fill-rule="evenodd" fill-opacity="1" /><path clip-path="url(#clip150)" d="M1196.09 14.7992 L1196.09 12.1758 Q1206.17 12.1758 1211.37 6.80625 Q1212.81 6.80625 1213.06 7.13416 Q1213.3 7.46208 1213.3 8.97868 L1213.3 56.0754 Q1213.3 58.5757 1214.53 59.3545 Q1215.76 60.1333 1221.13 60.1333 L1223.79 60.1333 L1223.79 62.7156 Q1220.84 62.4697 1210.19 62.4697 Q1199.53 62.4697 1196.62 62.7156 L1196.62 60.1333 L1199.28 60.1333 Q1204.57 60.1333 1205.84 59.3955 Q1207.11 58.6167 1207.11 56.0754 L1207.11 12.5857 Q1202.73 14.7992 1196.09 14.7992 Z" fill="#000000" fill-rule="evenodd" fill-opacity="1" /><path clip-path="url(#clip150)" d="M1232.48 64.6805 Q1232.48 64.3957 1233.22 63.6837 Q1242.62 54.1147 1242.62 36.0874 Q1242.62 18.0032 1233.59 8.86141 Q1232.48 7.80768 1232.48 7.49441 Q1232.48 6.92483 1233.05 6.92483 Q1233.45 6.92483 1234.85 8.09248 Q1236.27 9.26012 1238.41 11.9372 Q1240.57 14.6142 1242.17 17.8893 Q1246.01 25.835 1246.01 36.0874 Q1246.01 45.9412 1242.34 53.8869 Q1240.77 57.2189 1238.58 60.0099 Q1236.39 62.8009 1234.93 64.0255 Q1233.48 65.2501 1233.05 65.2501 Q1232.48 65.2501 1232.48 64.6805 Z" fill="#000000" fill-rule="evenodd" fill-opacity="1" /><path clip-path="url(#clip150)" d="M1278.17 49.968 Q1278.25 48.9432 1279.85 48.9432 L1331.29 48.9432 Q1333.71 48.9432 1333.75 49.886 Q1333.75 50.9107 1331.46 50.8697 L1280.42 50.8697 Q1278.17 50.9107 1278.17 49.968 M1278.17 33.5722 Q1278.17 32.5475 1279.93 32.5885 L1331.21 32.5885 Q1333.71 32.5885 1333.75 33.5722 Q1333.75 34.515 1331.62 34.515 L1279.85 34.515 Q1278.17 34.515 1278.17 33.5722 Z" fill="#000000" fill-rule="evenodd" fill-opacity="1" /><path clip-path="url(#clip150)" d="M1366.13 35.8676 Q1366.13 23.5299 1369.24 16.8076 Q1373.59 6.80625 1383.84 6.80625 Q1386.01 6.80625 1388.26 7.42109 Q1390.56 7.99494 1393.43 10.2493 Q1396.34 12.5038 1398.1 16.1928 Q1401.46 23.3249 1401.46 35.8676 Q1401.46 48.1234 1398.35 54.8047 Q1393.8 64.5601 1383.75 64.5601 Q1379.98 64.5601 1376.13 62.6336 Q1372.32 60.7072 1369.9 56.0754 Q1366.13 49.1482 1366.13 35.8676 M1373.1 34.8429 Q1373.1 47.5086 1374 52.5503 Q1375.02 58.0019 1377.81 60.3792 Q1380.64 62.7156 1383.75 62.7156 Q1387.12 62.7156 1389.9 60.2153 Q1392.73 57.6739 1393.59 52.2224 Q1394.53 46.8528 1394.49 34.8429 Q1394.49 23.161 1393.67 18.4882 Q1392.57 13.0366 1389.62 10.8642 Q1386.71 8.65077 1383.75 8.65077 Q1382.65 8.65077 1381.46 8.97868 Q1380.31 9.3066 1378.63 10.2493 Q1376.95 11.1921 1375.64 13.5285 Q1374.37 15.8649 1373.75 19.39 Q1373.1 23.9398 1373.1 34.8429 Z" fill="#000000" fill-rule="evenodd" fill-opacity="1" /><path clip-path="url(#clip150)" d="M1408.97 61.363 Q1407.7 60.0103 1407.7 58.2478 Q1407.7 56.4853 1408.97 55.2146 Q1410.24 53.9029 1412.17 53.9029 Q1414.01 53.9029 1415.24 55.1326 Q1416.51 56.3213 1416.51 58.2888 Q1416.51 60.2153 1415.16 61.4859 Q1413.85 62.7156 1412.17 62.7156 Q1410.24 62.7156 1408.97 61.363 Z" fill="#000000" fill-rule="evenodd" fill-opacity="1" /><path clip-path="url(#clip150)" d="M1430.8 25.7023 Q1430.8 21.2345 1432.11 18.2013 Q1433.42 15.1271 1436.17 12.0939 Q1441.21 6.80625 1448.51 6.80625 Q1451.62 6.80625 1454.37 8.11791 Q1457.15 9.42956 1459.78 12.4218 Q1462.44 15.373 1464.04 21.2345 Q1465.64 27.055 1465.64 35.0889 Q1465.64 48.0825 1459.33 56.3213 Q1453.06 64.5601 1444.57 64.5601 Q1439.2 64.5601 1436.05 62.1418 Q1432.89 59.6824 1432.89 55.5015 Q1432.89 53.3291 1434.12 52.4273 Q1435.35 51.4846 1436.74 51.4846 Q1438.26 51.4846 1439.45 52.5093 Q1440.64 53.493 1440.64 55.3376 Q1440.64 56.8542 1439.65 58.0428 Q1438.71 59.1905 1436.25 59.1905 Q1438.67 62.2238 1444.49 62.2238 Q1446.58 62.2238 1448.67 61.281 Q1450.76 60.2973 1453.02 57.9609 Q1455.31 55.5835 1456.7 50.6238 Q1458.1 45.6641 1458.1 38.6959 L1458.1 36.0316 Q1454.74 44.4344 1447.6 44.4344 Q1440.55 44.4344 1435.68 39.0238 Q1430.8 33.6132 1430.8 25.7023 M1438.34 25.7843 Q1438.34 34.1051 1439.86 37.1793 Q1442.44 42.4669 1447.69 42.4669 Q1452.81 42.4669 1455.35 37.9171 Q1457.93 33.3263 1457.93 27.3829 Q1457.93 19.144 1456.58 15.537 Q1454.08 8.8967 1448.51 8.8967 Q1442.97 8.8967 1440.1 14.1843 Q1438.34 17.2995 1438.34 25.7843 Z" fill="#000000" fill-rule="evenodd" fill-opacity="1" /><path clip-path="url(#clip150)" d="M1472.37 51.4026 Q1472.37 48.9022 1473.8 47.7135 Q1475.24 46.5249 1477.08 46.5249 Q1479.01 46.5249 1480.36 47.7955 Q1481.76 49.0252 1481.76 51.1976 Q1481.76 53.534 1480.12 54.8457 Q1478.52 56.1573 1476.22 55.8294 Q1478.23 59.1905 1481.92 60.7072 Q1485.65 62.2238 1489.09 62.2238 Q1492.7 62.2238 1495.61 59.1086 Q1498.56 55.9934 1498.56 48.3694 Q1498.56 41.8931 1496.02 38.163 Q1493.52 34.433 1488.56 34.433 L1484.87 34.433 Q1483.6 34.433 1483.23 34.3101 Q1482.86 34.1871 1482.86 33.4903 Q1482.86 32.6705 1484.13 32.5065 Q1485.4 32.5065 1487.41 32.2606 Q1492.29 32.0966 1494.87 27.8747 Q1497.21 23.9398 1497.21 18.3242 Q1497.21 13.2006 1494.75 11.0691 Q1492.33 8.8967 1489.17 8.8967 Q1486.22 8.8967 1482.99 10.1264 Q1479.75 11.3561 1477.98 14.1023 Q1483.19 14.1023 1483.19 18.3242 Q1483.19 20.1688 1482 21.3984 Q1480.85 22.5871 1478.93 22.5871 Q1477.08 22.5871 1475.85 21.4394 Q1474.62 20.2507 1474.62 18.2423 Q1474.62 13.4465 1478.89 10.1264 Q1483.19 6.80625 1489.5 6.80625 Q1495.73 6.80625 1500.32 10.0854 Q1504.96 13.3645 1504.96 18.4062 Q1504.96 23.3659 1501.68 27.4239 Q1498.4 31.4818 1493.19 33.1624 Q1499.59 34.433 1503.4 38.7779 Q1507.21 43.0818 1507.21 48.3694 Q1507.21 54.9277 1502.05 59.7644 Q1496.88 64.5601 1489.34 64.5601 Q1482.37 64.5601 1477.37 60.7891 Q1472.37 57.0181 1472.37 51.4026 Z" fill="#000000" fill-rule="evenodd" fill-opacity="1" /><path clip-path="url(#clip150)" d="M1508.69 14.7992 L1508.69 12.1758 Q1518.77 12.1758 1523.98 6.80625 Q1525.41 6.80625 1525.66 7.13416 Q1525.9 7.46208 1525.9 8.97868 L1525.9 56.0754 Q1525.9 58.5757 1527.13 59.3545 Q1528.36 60.1333 1533.73 60.1333 L1536.4 60.1333 L1536.4 62.7156 Q1533.45 62.4697 1522.79 62.4697 Q1512.13 62.4697 1509.22 62.7156 L1509.22 60.1333 L1511.89 60.1333 Q1517.17 60.1333 1518.44 59.3955 Q1519.72 58.6167 1519.72 56.0754 L1519.72 12.5857 Q1515.33 14.7992 1508.69 14.7992 Z" fill="#000000" fill-rule="evenodd" fill-opacity="1" /><polyline clip-path="url(#clip153)" style="stroke:#009af9; stroke-linecap:butt; stroke-linejoin:round; stroke-width:4; stroke-opacity:1; fill:none" points="
  218.754,1413.27 229.165,1413.25 239.576,1413.21 249.988,1413.12 260.399,1412.93 270.81,1412.53 281.221,1411.76 291.633,1410.36 302.044,1407.94 312.455,1404.01 
  322.867,1397.95 333.278,1389.08 343.689,1376.68 354.1,1360.06 364.512,1338.6 374.923,1311.79 385.334,1279.23 395.746,1240.66 406.157,1195.95 416.568,1145.14 
  426.979,1088.41 437.391,1026.1 447.802,958.695 458.213,886.923 468.625,811.819 479.036,734.857 489.447,657.974 499.858,583.43 510.27,513.462 520.681,449.828 
  531.092,393.401 541.504,344.01 551.915,300.637 562.326,261.951 572.738,226.995 583.149,195.77 593.56,169.473 603.971,150.265 614.383,140.63 624.794,142.529 
  635.205,156.684 645.617,182.239 656.028,216.956 666.439,257.836 676.85,301.916 687.262,346.916 697.673,391.521 708.084,435.259 718.496,478.134 728.907,520.23 
  739.318,561.475 749.729,601.598 760.141,640.236 770.552,677.037 780.963,711.688 791.375,743.863 801.786,773.166 812.197,799.17 822.609,821.6 833.02,840.601 
  843.431,856.958 853.842,872.114 864.254,887.92 874.665,906.161 885.076,928.045 895.488,953.836 905.899,982.784 916.31,1013.36 926.721,1043.7 937.133,1072.08 
  947.544,1097.28 957.955,1118.8 968.367,1136.75 978.778,1151.74 989.189,1164.58 999.6,1176.07 1010.01,1186.85 1020.42,1197.3 1030.83,1207.62 1041.25,1217.86 
  1051.66,1228 1062.07,1238 1072.48,1247.78 1082.89,1257.22 1093.3,1266.14 1103.71,1274.32 1114.12,1281.56 1124.54,1287.78 1134.95,1293.01 1145.36,1297.46 
  1155.77,1301.43 1166.18,1305.2 1176.59,1308.98 1187,1312.82 1197.41,1316.66 1207.83,1320.37 1218.24,1323.86 1228.65,1327.11 1239.06,1330.2 1249.47,1333.28 
  1259.88,1336.54 1270.29,1340.11 1280.71,1344.05 1291.12,1348.33 1301.53,1352.83 1311.94,1357.39 1322.35,1361.84 1332.76,1366.08 1343.17,1370.06 1353.58,1373.8 
  1364,1377.36 1374.41,1380.81 1384.82,1384.11 1395.23,1387.15 1405.64,1389.76 1416.05,1391.73 1426.46,1392.89 1436.87,1393.17 1447.29,1392.63 1457.7,1391.47 
  1468.11,1389.97 1478.52,1388.48 1488.93,1387.31 1499.34,1386.75 1509.75,1386.95 1520.16,1387.95 1530.58,1389.63 1540.99,1391.79 1551.4,1394.15 1561.81,1396.46 
  1572.22,1398.5 1582.63,1400.13 1593.04,1401.28 1603.46,1401.97 1613.87,1402.23 1624.28,1402.15 1634.69,1401.8 1645.1,1401.29 1655.51,1400.72 1665.92,1400.19 
  1676.33,1399.78 1686.75,1399.5 1697.16,1399.37 1707.57,1399.33 1717.98,1399.35 1728.39,1399.43 1738.8,1399.59 1749.21,1399.87 1759.62,1400.31 1770.04,1400.95 
  1780.45,1401.76 1790.86,1402.74 1801.27,1403.85 1811.68,1405.05 1822.09,1406.29 1832.5,1407.54 1842.91,1408.74 1853.33,1409.83 1863.74,1410.77 1874.15,1411.51 
  1884.56,1412.03 1894.97,1412.33 1905.38,1412.41 1915.79,1412.27 1926.21,1411.93 1936.62,1411.41 1947.03,1410.76 1957.44,1410.05 1967.85,1409.37 1978.26,1408.82 
  1988.67,1408.5 1999.08,1408.45 2009.5,1408.66 2019.91,1409.08 2030.32,1409.59 2040.73,1410.07 2051.14,1410.39 2061.55,1410.48 2071.96,1410.32 2082.37,1409.94 
  2092.79,1409.44 2103.2,1408.94 2113.61,1408.56 2124.02,1408.41 2134.43,1408.54 2144.84,1408.94 2155.25,1409.55 2165.67,1410.26 2176.08,1410.99 2186.49,1411.64 
  2196.9,1412.18 2207.31,1412.59 2217.72,1412.87 2228.13,1413.05 2238.54,1413.16 2248.96,1413.22 2259.37,1413.25 2269.78,1413.26 2280.19,1413.27 2290.6,1413.27 
  
  "/>
<polyline clip-path="url(#clip153)" style="stroke:#000000; stroke-linecap:butt; stroke-linejoin:round; stroke-width:4; stroke-opacity:1; fill:none" points="
  481.563,2800.45 481.563,-1246.55 
  "/>
</svg>
