<?xml version="1.0" encoding="utf-8"?>
<svg xmlns="http://www.w3.org/2000/svg" xmlns:xlink="http://www.w3.org/1999/xlink" width="600" height="400" viewBox="0 0 2400 1600">
<defs>
  <clipPath id="clip240">
    <rect x="0" y="0" width="2400" height="1600"/>
  </clipPath>
</defs>
<path clip-path="url(#clip240)" d="
M0 1600 L2400 1600 L2400 0 L0 0  Z
  " fill="#ffffff" fill-rule="evenodd" fill-opacity="1"/>
<defs>
  <clipPath id="clip241">
    <rect x="480" y="0" width="1681" height="1600"/>
  </clipPath>
</defs>
<defs>
  <clipPath id="clip242">
    <rect x="2167" y="269" width="186" height="1153"/>
  </clipPath>
</defs>
<path clip-path="url(#clip240)" d="
M327.199 1474.16 L2352.76 1474.16 L2352.76 47.2441 L327.199 47.2441  Z
  " fill="#ffffff" fill-rule="evenodd" fill-opacity="1"/>
<defs>
  <clipPath id="clip243">
    <rect x="327" y="47" width="2027" height="1428"/>
  </clipPath>
</defs>
<polyline clip-path="url(#clip243)" style="stroke:#000000; stroke-linecap:butt; stroke-linejoin:round; stroke-width:2; stroke-opacity:0.1; fill:none" points="
  449.614,1474.16 449.614,47.2441 
  "/>
<polyline clip-path="url(#clip243)" style="stroke:#000000; stroke-linecap:butt; stroke-linejoin:round; stroke-width:2; stroke-opacity:0.1; fill:none" points="
  812.106,1474.16 812.106,47.2441 
  "/>
<polyline clip-path="url(#clip243)" style="stroke:#000000; stroke-linecap:butt; stroke-linejoin:round; stroke-width:2; stroke-opacity:0.1; fill:none" points="
  1174.6,1474.16 1174.6,47.2441 
  "/>
<polyline clip-path="url(#clip243)" style="stroke:#000000; stroke-linecap:butt; stroke-linejoin:round; stroke-width:2; stroke-opacity:0.1; fill:none" points="
  1537.09,1474.16 1537.09,47.2441 
  "/>
<polyline clip-path="url(#clip243)" style="stroke:#000000; stroke-linecap:butt; stroke-linejoin:round; stroke-width:2; stroke-opacity:0.1; fill:none" points="
  1899.58,1474.16 1899.58,47.2441 
  "/>
<polyline clip-path="url(#clip243)" style="stroke:#000000; stroke-linecap:butt; stroke-linejoin:round; stroke-width:2; stroke-opacity:0.1; fill:none" points="
  2262.08,1474.16 2262.08,47.2441 
  "/>
<polyline clip-path="url(#clip240)" style="stroke:#000000; stroke-linecap:butt; stroke-linejoin:round; stroke-width:4; stroke-opacity:1; fill:none" points="
  327.199,1474.16 2352.76,1474.16 
  "/>
<polyline clip-path="url(#clip240)" style="stroke:#000000; stroke-linecap:butt; stroke-linejoin:round; stroke-width:4; stroke-opacity:1; fill:none" points="
  449.614,1474.16 449.614,1455.27 
  "/>
<polyline clip-path="url(#clip240)" style="stroke:#000000; stroke-linecap:butt; stroke-linejoin:round; stroke-width:4; stroke-opacity:1; fill:none" points="
  812.106,1474.16 812.106,1455.27 
  "/>
<polyline clip-path="url(#clip240)" style="stroke:#000000; stroke-linecap:butt; stroke-linejoin:round; stroke-width:4; stroke-opacity:1; fill:none" points="
  1174.6,1474.16 1174.6,1455.27 
  "/>
<polyline clip-path="url(#clip240)" style="stroke:#000000; stroke-linecap:butt; stroke-linejoin:round; stroke-width:4; stroke-opacity:1; fill:none" points="
  1537.09,1474.16 1537.09,1455.27 
  "/>
<polyline clip-path="url(#clip240)" style="stroke:#000000; stroke-linecap:butt; stroke-linejoin:round; stroke-width:4; stroke-opacity:1; fill:none" points="
  1899.58,1474.16 1899.58,1455.27 
  "/>
<polyline clip-path="url(#clip240)" style="stroke:#000000; stroke-linecap:butt; stroke-linejoin:round; stroke-width:4; stroke-opacity:1; fill:none" points="
  2262.08,1474.16 2262.08,1455.27 
  "/>
<path clip-path="url(#clip240)" d="M314.837 1552.44 L322.476 1552.44 L322.476 1526.07 L314.166 1527.74 L314.166 1523.48 L322.43 1521.81 L327.106 1521.81 L327.106 1552.44 L334.744 1552.44 L334.744 1556.37 L314.837 1556.37 L314.837 1552.44 Z" fill="#000000" fill-rule="evenodd" fill-opacity="1" /><path clip-path="url(#clip240)" d="M344.189 1550.49 L349.073 1550.49 L349.073 1556.37 L344.189 1556.37 L344.189 1550.49 Z" fill="#000000" fill-rule="evenodd" fill-opacity="1" /><path clip-path="url(#clip240)" d="M373.425 1537.74 Q376.781 1538.46 378.656 1540.72 Q380.554 1542.99 380.554 1546.33 Q380.554 1551.44 377.036 1554.24 Q373.517 1557.04 367.036 1557.04 Q364.86 1557.04 362.545 1556.6 Q360.254 1556.19 357.8 1555.33 L357.8 1550.82 Q359.744 1551.95 362.059 1552.53 Q364.374 1553.11 366.897 1553.11 Q371.295 1553.11 373.587 1551.37 Q375.902 1549.64 375.902 1546.33 Q375.902 1543.27 373.749 1541.56 Q371.619 1539.82 367.8 1539.82 L363.772 1539.82 L363.772 1535.98 L367.985 1535.98 Q371.434 1535.98 373.263 1534.61 Q375.091 1533.22 375.091 1530.63 Q375.091 1527.97 373.193 1526.56 Q371.318 1525.12 367.8 1525.12 Q365.879 1525.12 363.679 1525.54 Q361.48 1525.96 358.842 1526.83 L358.842 1522.67 Q361.504 1521.93 363.818 1521.56 Q366.156 1521.19 368.217 1521.19 Q373.541 1521.19 376.642 1523.62 Q379.744 1526.02 379.744 1530.15 Q379.744 1533.02 378.101 1535.01 Q376.457 1536.97 373.425 1537.74 Z" fill="#000000" fill-rule="evenodd" fill-opacity="1" /><path clip-path="url(#clip240)" d="M399.42 1524.89 Q395.809 1524.89 393.98 1528.46 Q392.175 1532 392.175 1539.13 Q392.175 1546.23 393.98 1549.8 Q395.809 1553.34 399.42 1553.34 Q403.054 1553.34 404.86 1549.8 Q406.689 1546.23 406.689 1539.13 Q406.689 1532 404.86 1528.46 Q403.054 1524.89 399.42 1524.89 M399.42 1521.19 Q405.23 1521.19 408.286 1525.79 Q411.364 1530.38 411.364 1539.13 Q411.364 1547.85 408.286 1552.46 Q405.23 1557.04 399.42 1557.04 Q393.61 1557.04 390.531 1552.46 Q387.476 1547.85 387.476 1539.13 Q387.476 1530.38 390.531 1525.79 Q393.61 1521.19 399.42 1521.19 Z" fill="#000000" fill-rule="evenodd" fill-opacity="1" /><path clip-path="url(#clip240)" d="M447.753 1530.91 L437.174 1541.53 L447.753 1552.11 L444.998 1554.91 L434.374 1544.29 L423.749 1554.91 L421.017 1552.11 L431.573 1541.53 L421.017 1530.91 L423.749 1528.11 L434.374 1538.73 L444.998 1528.11 L447.753 1530.91 Z" fill="#000000" fill-rule="evenodd" fill-opacity="1" /><path clip-path="url(#clip240)" d="M460.114 1552.44 L467.753 1552.44 L467.753 1526.07 L459.443 1527.74 L459.443 1523.48 L467.707 1521.81 L472.383 1521.81 L472.383 1552.44 L480.021 1552.44 L480.021 1556.37 L460.114 1556.37 L460.114 1552.44 Z" fill="#000000" fill-rule="evenodd" fill-opacity="1" /><path clip-path="url(#clip240)" d="M499.466 1524.89 Q495.855 1524.89 494.026 1528.46 Q492.22 1532 492.22 1539.13 Q492.22 1546.23 494.026 1549.8 Q495.855 1553.34 499.466 1553.34 Q503.1 1553.34 504.906 1549.8 Q506.734 1546.23 506.734 1539.13 Q506.734 1532 504.906 1528.46 Q503.1 1524.89 499.466 1524.89 M499.466 1521.19 Q505.276 1521.19 508.331 1525.79 Q511.41 1530.38 511.41 1539.13 Q511.41 1547.85 508.331 1552.46 Q505.276 1557.04 499.466 1557.04 Q493.656 1557.04 490.577 1552.46 Q487.521 1547.85 487.521 1539.13 Q487.521 1530.38 490.577 1525.79 Q493.656 1521.19 499.466 1521.19 Z" fill="#000000" fill-rule="evenodd" fill-opacity="1" /><path clip-path="url(#clip240)" d="M511.41 1515.29 L535.522 1515.29 L535.522 1518.49 L511.41 1518.49 L511.41 1515.29 Z" fill="#000000" fill-rule="evenodd" fill-opacity="1" /><path clip-path="url(#clip240)" d="M544.38 1525.76 L550.587 1525.76 L550.587 1504.34 L543.835 1505.7 L543.835 1502.24 L550.549 1500.88 L554.348 1500.88 L554.348 1525.76 L560.555 1525.76 L560.555 1528.96 L544.38 1528.96 L544.38 1525.76 Z" fill="#000000" fill-rule="evenodd" fill-opacity="1" /><path clip-path="url(#clip240)" d="M568.887 1525.76 L575.093 1525.76 L575.093 1504.34 L568.341 1505.7 L568.341 1502.24 L575.056 1500.88 L578.855 1500.88 L578.855 1525.76 L585.061 1525.76 L585.061 1528.96 L568.887 1528.96 L568.887 1525.76 Z" fill="#000000" fill-rule="evenodd" fill-opacity="1" /><path clip-path="url(#clip240)" d="M677.33 1552.44 L684.969 1552.44 L684.969 1526.07 L676.658 1527.74 L676.658 1523.48 L684.922 1521.81 L689.598 1521.81 L689.598 1552.44 L697.237 1552.44 L697.237 1556.37 L677.33 1556.37 L677.33 1552.44 Z" fill="#000000" fill-rule="evenodd" fill-opacity="1" /><path clip-path="url(#clip240)" d="M706.681 1550.49 L711.566 1550.49 L711.566 1556.37 L706.681 1556.37 L706.681 1550.49 Z" fill="#000000" fill-rule="evenodd" fill-opacity="1" /><path clip-path="url(#clip240)" d="M734.598 1525.89 L722.792 1544.33 L734.598 1544.33 L734.598 1525.89 M733.371 1521.81 L739.251 1521.81 L739.251 1544.33 L744.181 1544.33 L744.181 1548.22 L739.251 1548.22 L739.251 1556.37 L734.598 1556.37 L734.598 1548.22 L718.996 1548.22 L718.996 1543.71 L733.371 1521.81 Z" fill="#000000" fill-rule="evenodd" fill-opacity="1" /><path clip-path="url(#clip240)" d="M761.913 1524.89 Q758.301 1524.89 756.473 1528.46 Q754.667 1532 754.667 1539.13 Q754.667 1546.23 756.473 1549.8 Q758.301 1553.34 761.913 1553.34 Q765.547 1553.34 767.352 1549.8 Q769.181 1546.23 769.181 1539.13 Q769.181 1532 767.352 1528.46 Q765.547 1524.89 761.913 1524.89 M761.913 1521.19 Q767.723 1521.19 770.778 1525.79 Q773.857 1530.38 773.857 1539.13 Q773.857 1547.85 770.778 1552.46 Q767.723 1557.04 761.913 1557.04 Q756.102 1557.04 753.024 1552.46 Q749.968 1547.85 749.968 1539.13 Q749.968 1530.38 753.024 1525.79 Q756.102 1521.19 761.913 1521.19 Z" fill="#000000" fill-rule="evenodd" fill-opacity="1" /><path clip-path="url(#clip240)" d="M810.246 1530.91 L799.667 1541.53 L810.246 1552.11 L807.491 1554.91 L796.866 1544.29 L786.241 1554.91 L783.51 1552.11 L794.065 1541.53 L783.51 1530.91 L786.241 1528.11 L796.866 1538.73 L807.491 1528.11 L810.246 1530.91 Z" fill="#000000" fill-rule="evenodd" fill-opacity="1" /><path clip-path="url(#clip240)" d="M822.607 1552.44 L830.246 1552.44 L830.246 1526.07 L821.935 1527.74 L821.935 1523.48 L830.199 1521.81 L834.875 1521.81 L834.875 1552.44 L842.514 1552.44 L842.514 1556.37 L822.607 1556.37 L822.607 1552.44 Z" fill="#000000" fill-rule="evenodd" fill-opacity="1" /><path clip-path="url(#clip240)" d="M861.958 1524.89 Q858.347 1524.89 856.519 1528.46 Q854.713 1532 854.713 1539.13 Q854.713 1546.23 856.519 1549.8 Q858.347 1553.34 861.958 1553.34 Q865.593 1553.34 867.398 1549.8 Q869.227 1546.23 869.227 1539.13 Q869.227 1532 867.398 1528.46 Q865.593 1524.89 861.958 1524.89 M861.958 1521.19 Q867.768 1521.19 870.824 1525.79 Q873.903 1530.38 873.903 1539.13 Q873.903 1547.85 870.824 1552.46 Q867.768 1557.04 861.958 1557.04 Q856.148 1557.04 853.069 1552.46 Q850.014 1547.85 850.014 1539.13 Q850.014 1530.38 853.069 1525.79 Q856.148 1521.19 861.958 1521.19 Z" fill="#000000" fill-rule="evenodd" fill-opacity="1" /><path clip-path="url(#clip240)" d="M873.903 1515.29 L898.014 1515.29 L898.014 1518.49 L873.903 1518.49 L873.903 1515.29 Z" fill="#000000" fill-rule="evenodd" fill-opacity="1" /><path clip-path="url(#clip240)" d="M906.873 1525.76 L913.079 1525.76 L913.079 1504.34 L906.327 1505.7 L906.327 1502.24 L913.042 1500.88 L916.841 1500.88 L916.841 1525.76 L923.047 1525.76 L923.047 1528.96 L906.873 1528.96 L906.873 1525.76 Z" fill="#000000" fill-rule="evenodd" fill-opacity="1" /><path clip-path="url(#clip240)" d="M931.379 1525.76 L937.586 1525.76 L937.586 1504.34 L930.834 1505.7 L930.834 1502.24 L937.548 1500.88 L941.347 1500.88 L941.347 1525.76 L947.554 1525.76 L947.554 1528.96 L931.379 1528.96 L931.379 1525.76 Z" fill="#000000" fill-rule="evenodd" fill-opacity="1" /><path clip-path="url(#clip240)" d="M1039.82 1552.44 L1047.46 1552.44 L1047.46 1526.07 L1039.15 1527.74 L1039.15 1523.48 L1047.41 1521.81 L1052.09 1521.81 L1052.09 1552.44 L1059.73 1552.44 L1059.73 1556.37 L1039.82 1556.37 L1039.82 1552.44 Z" fill="#000000" fill-rule="evenodd" fill-opacity="1" /><path clip-path="url(#clip240)" d="M1069.17 1550.49 L1074.06 1550.49 L1074.06 1556.37 L1069.17 1556.37 L1069.17 1550.49 Z" fill="#000000" fill-rule="evenodd" fill-opacity="1" /><path clip-path="url(#clip240)" d="M1084.29 1521.81 L1102.65 1521.81 L1102.65 1525.75 L1088.57 1525.75 L1088.57 1534.22 Q1089.59 1533.87 1090.61 1533.71 Q1091.63 1533.52 1092.65 1533.52 Q1098.43 1533.52 1101.81 1536.7 Q1105.19 1539.87 1105.19 1545.28 Q1105.19 1550.86 1101.72 1553.96 Q1098.25 1557.04 1091.93 1557.04 Q1089.75 1557.04 1087.48 1556.67 Q1085.24 1556.3 1082.83 1555.56 L1082.83 1550.86 Q1084.91 1552 1087.14 1552.55 Q1089.36 1553.11 1091.84 1553.11 Q1095.84 1553.11 1098.18 1551 Q1100.52 1548.9 1100.52 1545.28 Q1100.52 1541.67 1098.18 1539.57 Q1095.84 1537.46 1091.84 1537.46 Q1089.96 1537.46 1088.09 1537.88 Q1086.23 1538.29 1084.29 1539.17 L1084.29 1521.81 Z" fill="#000000" fill-rule="evenodd" fill-opacity="1" /><path clip-path="url(#clip240)" d="M1124.41 1524.89 Q1120.79 1524.89 1118.97 1528.46 Q1117.16 1532 1117.16 1539.13 Q1117.16 1546.23 1118.97 1549.8 Q1120.79 1553.34 1124.41 1553.34 Q1128.04 1553.34 1129.84 1549.8 Q1131.67 1546.23 1131.67 1539.13 Q1131.67 1532 1129.84 1528.46 Q1128.04 1524.89 1124.41 1524.89 M1124.41 1521.19 Q1130.22 1521.19 1133.27 1525.79 Q1136.35 1530.38 1136.35 1539.13 Q1136.35 1547.85 1133.27 1552.46 Q1130.22 1557.04 1124.41 1557.04 Q1118.59 1557.04 1115.52 1552.46 Q1112.46 1547.85 1112.46 1539.13 Q1112.46 1530.38 1115.52 1525.79 Q1118.59 1521.19 1124.41 1521.19 Z" fill="#000000" fill-rule="evenodd" fill-opacity="1" /><path clip-path="url(#clip240)" d="M1172.74 1530.91 L1162.16 1541.53 L1172.74 1552.11 L1169.98 1554.91 L1159.36 1544.29 L1148.73 1554.91 L1146 1552.11 L1156.56 1541.53 L1146 1530.91 L1148.73 1528.11 L1159.36 1538.73 L1169.98 1528.11 L1172.74 1530.91 Z" fill="#000000" fill-rule="evenodd" fill-opacity="1" /><path clip-path="url(#clip240)" d="M1185.1 1552.44 L1192.74 1552.44 L1192.74 1526.07 L1184.43 1527.74 L1184.43 1523.48 L1192.69 1521.81 L1197.37 1521.81 L1197.37 1552.44 L1205.01 1552.44 L1205.01 1556.37 L1185.1 1556.37 L1185.1 1552.44 Z" fill="#000000" fill-rule="evenodd" fill-opacity="1" /><path clip-path="url(#clip240)" d="M1224.45 1524.89 Q1220.84 1524.89 1219.01 1528.46 Q1217.21 1532 1217.21 1539.13 Q1217.21 1546.23 1219.01 1549.8 Q1220.84 1553.34 1224.45 1553.34 Q1228.09 1553.34 1229.89 1549.8 Q1231.72 1546.23 1231.72 1539.13 Q1231.72 1532 1229.89 1528.46 Q1228.09 1524.89 1224.45 1524.89 M1224.45 1521.19 Q1230.26 1521.19 1233.32 1525.79 Q1236.4 1530.38 1236.4 1539.13 Q1236.4 1547.85 1233.32 1552.46 Q1230.26 1557.04 1224.45 1557.04 Q1218.64 1557.04 1215.56 1552.46 Q1212.51 1547.85 1212.51 1539.13 Q1212.51 1530.38 1215.56 1525.79 Q1218.64 1521.19 1224.45 1521.19 Z" fill="#000000" fill-rule="evenodd" fill-opacity="1" /><path clip-path="url(#clip240)" d="M1236.4 1515.29 L1260.51 1515.29 L1260.51 1518.49 L1236.4 1518.49 L1236.4 1515.29 Z" fill="#000000" fill-rule="evenodd" fill-opacity="1" /><path clip-path="url(#clip240)" d="M1269.37 1525.76 L1275.57 1525.76 L1275.57 1504.34 L1268.82 1505.7 L1268.82 1502.24 L1275.53 1500.88 L1279.33 1500.88 L1279.33 1525.76 L1285.54 1525.76 L1285.54 1528.96 L1269.37 1528.96 L1269.37 1525.76 Z" fill="#000000" fill-rule="evenodd" fill-opacity="1" /><path clip-path="url(#clip240)" d="M1293.87 1525.76 L1300.08 1525.76 L1300.08 1504.34 L1293.33 1505.7 L1293.33 1502.24 L1300.04 1500.88 L1303.84 1500.88 L1303.84 1525.76 L1310.05 1525.76 L1310.05 1528.96 L1293.87 1528.96 L1293.87 1525.76 Z" fill="#000000" fill-rule="evenodd" fill-opacity="1" /><path clip-path="url(#clip240)" d="M1402.31 1552.44 L1409.95 1552.44 L1409.95 1526.07 L1401.64 1527.74 L1401.64 1523.48 L1409.91 1521.81 L1414.58 1521.81 L1414.58 1552.44 L1422.22 1552.44 L1422.22 1556.37 L1402.31 1556.37 L1402.31 1552.44 Z" fill="#000000" fill-rule="evenodd" fill-opacity="1" /><path clip-path="url(#clip240)" d="M1431.67 1550.49 L1436.55 1550.49 L1436.55 1556.37 L1431.67 1556.37 L1431.67 1550.49 Z" fill="#000000" fill-rule="evenodd" fill-opacity="1" /><path clip-path="url(#clip240)" d="M1457.31 1537.23 Q1454.17 1537.23 1452.31 1539.38 Q1450.49 1541.53 1450.49 1545.28 Q1450.49 1549.01 1452.31 1551.19 Q1454.17 1553.34 1457.31 1553.34 Q1460.46 1553.34 1462.29 1551.19 Q1464.14 1549.01 1464.14 1545.28 Q1464.14 1541.53 1462.29 1539.38 Q1460.46 1537.23 1457.31 1537.23 M1466.6 1522.58 L1466.6 1526.83 Q1464.84 1526 1463.03 1525.56 Q1461.25 1525.12 1459.49 1525.12 Q1454.86 1525.12 1452.41 1528.25 Q1449.98 1531.37 1449.63 1537.69 Q1451 1535.68 1453.06 1534.61 Q1455.12 1533.52 1457.59 1533.52 Q1462.8 1533.52 1465.81 1536.7 Q1468.84 1539.84 1468.84 1545.28 Q1468.84 1550.61 1465.69 1553.83 Q1462.55 1557.04 1457.31 1557.04 Q1451.32 1557.04 1448.15 1552.46 Q1444.98 1547.85 1444.98 1539.13 Q1444.98 1530.93 1448.87 1526.07 Q1452.75 1521.19 1459.31 1521.19 Q1461.06 1521.19 1462.85 1521.53 Q1464.65 1521.88 1466.6 1522.58 Z" fill="#000000" fill-rule="evenodd" fill-opacity="1" /><path clip-path="url(#clip240)" d="M1486.9 1524.89 Q1483.29 1524.89 1481.46 1528.46 Q1479.65 1532 1479.65 1539.13 Q1479.65 1546.23 1481.46 1549.8 Q1483.29 1553.34 1486.9 1553.34 Q1490.53 1553.34 1492.34 1549.8 Q1494.17 1546.23 1494.17 1539.13 Q1494.17 1532 1492.34 1528.46 Q1490.53 1524.89 1486.9 1524.89 M1486.9 1521.19 Q1492.71 1521.19 1495.76 1525.79 Q1498.84 1530.38 1498.84 1539.13 Q1498.84 1547.85 1495.76 1552.46 Q1492.71 1557.04 1486.9 1557.04 Q1481.09 1557.04 1478.01 1552.46 Q1474.95 1547.85 1474.95 1539.13 Q1474.95 1530.38 1478.01 1525.79 Q1481.09 1521.19 1486.9 1521.19 Z" fill="#000000" fill-rule="evenodd" fill-opacity="1" /><path clip-path="url(#clip240)" d="M1535.23 1530.91 L1524.65 1541.53 L1535.23 1552.11 L1532.48 1554.91 L1521.85 1544.29 L1511.23 1554.91 L1508.49 1552.11 L1519.05 1541.53 L1508.49 1530.91 L1511.23 1528.11 L1521.85 1538.73 L1532.48 1528.11 L1535.23 1530.91 Z" fill="#000000" fill-rule="evenodd" fill-opacity="1" /><path clip-path="url(#clip240)" d="M1547.59 1552.44 L1555.23 1552.44 L1555.23 1526.07 L1546.92 1527.74 L1546.92 1523.48 L1555.18 1521.81 L1559.86 1521.81 L1559.86 1552.44 L1567.5 1552.44 L1567.5 1556.37 L1547.59 1556.37 L1547.59 1552.44 Z" fill="#000000" fill-rule="evenodd" fill-opacity="1" /><path clip-path="url(#clip240)" d="M1586.94 1524.89 Q1583.33 1524.89 1581.5 1528.46 Q1579.7 1532 1579.7 1539.13 Q1579.7 1546.23 1581.5 1549.8 Q1583.33 1553.34 1586.94 1553.34 Q1590.58 1553.34 1592.38 1549.8 Q1594.21 1546.23 1594.21 1539.13 Q1594.21 1532 1592.38 1528.46 Q1590.58 1524.89 1586.94 1524.89 M1586.94 1521.19 Q1592.75 1521.19 1595.81 1525.79 Q1598.89 1530.38 1598.89 1539.13 Q1598.89 1547.85 1595.81 1552.46 Q1592.75 1557.04 1586.94 1557.04 Q1581.13 1557.04 1578.05 1552.46 Q1575 1547.85 1575 1539.13 Q1575 1530.38 1578.05 1525.79 Q1581.13 1521.19 1586.94 1521.19 Z" fill="#000000" fill-rule="evenodd" fill-opacity="1" /><path clip-path="url(#clip240)" d="M1598.89 1515.29 L1623 1515.29 L1623 1518.49 L1598.89 1518.49 L1598.89 1515.29 Z" fill="#000000" fill-rule="evenodd" fill-opacity="1" /><path clip-path="url(#clip240)" d="M1631.86 1525.76 L1638.06 1525.76 L1638.06 1504.34 L1631.31 1505.7 L1631.31 1502.24 L1638.03 1500.88 L1641.83 1500.88 L1641.83 1525.76 L1648.03 1525.76 L1648.03 1528.96 L1631.86 1528.96 L1631.86 1525.76 Z" fill="#000000" fill-rule="evenodd" fill-opacity="1" /><path clip-path="url(#clip240)" d="M1656.36 1525.76 L1662.57 1525.76 L1662.57 1504.34 L1655.82 1505.7 L1655.82 1502.24 L1662.53 1500.88 L1666.33 1500.88 L1666.33 1525.76 L1672.54 1525.76 L1672.54 1528.96 L1656.36 1528.96 L1656.36 1525.76 Z" fill="#000000" fill-rule="evenodd" fill-opacity="1" /><path clip-path="url(#clip240)" d="M1764.81 1552.44 L1772.45 1552.44 L1772.45 1526.07 L1764.14 1527.74 L1764.14 1523.48 L1772.4 1521.81 L1777.08 1521.81 L1777.08 1552.44 L1784.71 1552.44 L1784.71 1556.37 L1764.81 1556.37 L1764.81 1552.44 Z" fill="#000000" fill-rule="evenodd" fill-opacity="1" /><path clip-path="url(#clip240)" d="M1794.16 1550.49 L1799.04 1550.49 L1799.04 1556.37 L1794.16 1556.37 L1794.16 1550.49 Z" fill="#000000" fill-rule="evenodd" fill-opacity="1" /><path clip-path="url(#clip240)" d="M1808.05 1521.81 L1830.27 1521.81 L1830.27 1523.8 L1817.72 1556.37 L1812.84 1556.37 L1824.64 1525.75 L1808.05 1525.75 L1808.05 1521.81 Z" fill="#000000" fill-rule="evenodd" fill-opacity="1" /><path clip-path="url(#clip240)" d="M1849.39 1524.89 Q1845.78 1524.89 1843.95 1528.46 Q1842.14 1532 1842.14 1539.13 Q1842.14 1546.23 1843.95 1549.8 Q1845.78 1553.34 1849.39 1553.34 Q1853.02 1553.34 1854.83 1549.8 Q1856.66 1546.23 1856.66 1539.13 Q1856.66 1532 1854.83 1528.46 Q1853.02 1524.89 1849.39 1524.89 M1849.39 1521.19 Q1855.2 1521.19 1858.26 1525.79 Q1861.33 1530.38 1861.33 1539.13 Q1861.33 1547.85 1858.26 1552.46 Q1855.2 1557.04 1849.39 1557.04 Q1843.58 1557.04 1840.5 1552.46 Q1837.45 1547.85 1837.45 1539.13 Q1837.45 1530.38 1840.5 1525.79 Q1843.58 1521.19 1849.39 1521.19 Z" fill="#000000" fill-rule="evenodd" fill-opacity="1" /><path clip-path="url(#clip240)" d="M1897.72 1530.91 L1887.14 1541.53 L1897.72 1552.11 L1894.97 1554.91 L1884.34 1544.29 L1873.72 1554.91 L1870.99 1552.11 L1881.54 1541.53 L1870.99 1530.91 L1873.72 1528.11 L1884.34 1538.73 L1894.97 1528.11 L1897.72 1530.91 Z" fill="#000000" fill-rule="evenodd" fill-opacity="1" /><path clip-path="url(#clip240)" d="M1910.08 1552.44 L1917.72 1552.44 L1917.72 1526.07 L1909.41 1527.74 L1909.41 1523.48 L1917.68 1521.81 L1922.35 1521.81 L1922.35 1552.44 L1929.99 1552.44 L1929.99 1556.37 L1910.08 1556.37 L1910.08 1552.44 Z" fill="#000000" fill-rule="evenodd" fill-opacity="1" /><path clip-path="url(#clip240)" d="M1949.44 1524.89 Q1945.82 1524.89 1944 1528.46 Q1942.19 1532 1942.19 1539.13 Q1942.19 1546.23 1944 1549.8 Q1945.82 1553.34 1949.44 1553.34 Q1953.07 1553.34 1954.88 1549.8 Q1956.7 1546.23 1956.7 1539.13 Q1956.7 1532 1954.88 1528.46 Q1953.07 1524.89 1949.44 1524.89 M1949.44 1521.19 Q1955.25 1521.19 1958.3 1525.79 Q1961.38 1530.38 1961.38 1539.13 Q1961.38 1547.85 1958.3 1552.46 Q1955.25 1557.04 1949.44 1557.04 Q1943.63 1557.04 1940.55 1552.46 Q1937.49 1547.85 1937.49 1539.13 Q1937.49 1530.38 1940.55 1525.79 Q1943.63 1521.19 1949.44 1521.19 Z" fill="#000000" fill-rule="evenodd" fill-opacity="1" /><path clip-path="url(#clip240)" d="M1961.38 1515.29 L1985.49 1515.29 L1985.49 1518.49 L1961.38 1518.49 L1961.38 1515.29 Z" fill="#000000" fill-rule="evenodd" fill-opacity="1" /><path clip-path="url(#clip240)" d="M1994.35 1525.76 L2000.56 1525.76 L2000.56 1504.34 L1993.8 1505.7 L1993.8 1502.24 L2000.52 1500.88 L2004.32 1500.88 L2004.32 1525.76 L2010.53 1525.76 L2010.53 1528.96 L1994.35 1528.96 L1994.35 1525.76 Z" fill="#000000" fill-rule="evenodd" fill-opacity="1" /><path clip-path="url(#clip240)" d="M2018.86 1525.76 L2025.06 1525.76 L2025.06 1504.34 L2018.31 1505.7 L2018.31 1502.24 L2025.03 1500.88 L2028.82 1500.88 L2028.82 1525.76 L2035.03 1525.76 L2035.03 1528.96 L2018.86 1528.96 L2018.86 1525.76 Z" fill="#000000" fill-rule="evenodd" fill-opacity="1" /><path clip-path="url(#clip240)" d="M2127.3 1552.44 L2134.94 1552.44 L2134.94 1526.07 L2126.63 1527.74 L2126.63 1523.48 L2134.89 1521.81 L2139.57 1521.81 L2139.57 1552.44 L2147.21 1552.44 L2147.21 1556.37 L2127.3 1556.37 L2127.3 1552.44 Z" fill="#000000" fill-rule="evenodd" fill-opacity="1" /><path clip-path="url(#clip240)" d="M2156.65 1550.49 L2161.54 1550.49 L2161.54 1556.37 L2156.65 1556.37 L2156.65 1550.49 Z" fill="#000000" fill-rule="evenodd" fill-opacity="1" /><path clip-path="url(#clip240)" d="M2181.72 1539.96 Q2178.39 1539.96 2176.47 1541.74 Q2174.57 1543.52 2174.57 1546.65 Q2174.57 1549.77 2176.47 1551.56 Q2178.39 1553.34 2181.72 1553.34 Q2185.05 1553.34 2186.98 1551.56 Q2188.9 1549.75 2188.9 1546.65 Q2188.9 1543.52 2186.98 1541.74 Q2185.08 1539.96 2181.72 1539.96 M2177.04 1537.97 Q2174.04 1537.23 2172.35 1535.17 Q2170.68 1533.11 2170.68 1530.15 Q2170.68 1526 2173.62 1523.59 Q2176.58 1521.19 2181.72 1521.19 Q2186.88 1521.19 2189.82 1523.59 Q2192.76 1526 2192.76 1530.15 Q2192.76 1533.11 2191.07 1535.17 Q2189.41 1537.23 2186.42 1537.97 Q2189.8 1538.76 2191.67 1541.05 Q2193.57 1543.34 2193.57 1546.65 Q2193.57 1551.67 2190.49 1554.36 Q2187.44 1557.04 2181.72 1557.04 Q2176 1557.04 2172.92 1554.36 Q2169.87 1551.67 2169.87 1546.65 Q2169.87 1543.34 2171.77 1541.05 Q2173.67 1538.76 2177.04 1537.97 M2175.33 1530.58 Q2175.33 1533.27 2177 1534.77 Q2178.69 1536.28 2181.72 1536.28 Q2184.73 1536.28 2186.42 1534.77 Q2188.13 1533.27 2188.13 1530.58 Q2188.13 1527.9 2186.42 1526.4 Q2184.73 1524.89 2181.72 1524.89 Q2178.69 1524.89 2177 1526.4 Q2175.33 1527.9 2175.33 1530.58 Z" fill="#000000" fill-rule="evenodd" fill-opacity="1" /><path clip-path="url(#clip240)" d="M2211.88 1524.89 Q2208.27 1524.89 2206.44 1528.46 Q2204.64 1532 2204.64 1539.13 Q2204.64 1546.23 2206.44 1549.8 Q2208.27 1553.34 2211.88 1553.34 Q2215.52 1553.34 2217.32 1549.8 Q2219.15 1546.23 2219.15 1539.13 Q2219.15 1532 2217.32 1528.46 Q2215.52 1524.89 2211.88 1524.89 M2211.88 1521.19 Q2217.69 1521.19 2220.75 1525.79 Q2223.83 1530.38 2223.83 1539.13 Q2223.83 1547.85 2220.75 1552.46 Q2217.69 1557.04 2211.88 1557.04 Q2206.07 1557.04 2202.99 1552.46 Q2199.94 1547.85 2199.94 1539.13 Q2199.94 1530.38 2202.99 1525.79 Q2206.07 1521.19 2211.88 1521.19 Z" fill="#000000" fill-rule="evenodd" fill-opacity="1" /><path clip-path="url(#clip240)" d="M2260.22 1530.91 L2249.64 1541.53 L2260.22 1552.11 L2257.46 1554.91 L2246.84 1544.29 L2236.21 1554.91 L2233.48 1552.11 L2244.04 1541.53 L2233.48 1530.91 L2236.21 1528.11 L2246.84 1538.73 L2257.46 1528.11 L2260.22 1530.91 Z" fill="#000000" fill-rule="evenodd" fill-opacity="1" /><path clip-path="url(#clip240)" d="M2272.58 1552.44 L2280.22 1552.44 L2280.22 1526.07 L2271.91 1527.74 L2271.91 1523.48 L2280.17 1521.81 L2284.85 1521.81 L2284.85 1552.44 L2292.48 1552.44 L2292.48 1556.37 L2272.58 1556.37 L2272.58 1552.44 Z" fill="#000000" fill-rule="evenodd" fill-opacity="1" /><path clip-path="url(#clip240)" d="M2311.93 1524.89 Q2308.32 1524.89 2306.49 1528.46 Q2304.68 1532 2304.68 1539.13 Q2304.68 1546.23 2306.49 1549.8 Q2308.32 1553.34 2311.93 1553.34 Q2315.56 1553.34 2317.37 1549.8 Q2319.2 1546.23 2319.2 1539.13 Q2319.2 1532 2317.37 1528.46 Q2315.56 1524.89 2311.93 1524.89 M2311.93 1521.19 Q2317.74 1521.19 2320.79 1525.79 Q2323.87 1530.38 2323.87 1539.13 Q2323.87 1547.85 2320.79 1552.46 Q2317.74 1557.04 2311.93 1557.04 Q2306.12 1557.04 2303.04 1552.46 Q2299.98 1547.85 2299.98 1539.13 Q2299.98 1530.38 2303.04 1525.79 Q2306.12 1521.19 2311.93 1521.19 Z" fill="#000000" fill-rule="evenodd" fill-opacity="1" /><path clip-path="url(#clip240)" d="M2323.87 1515.29 L2347.98 1515.29 L2347.98 1518.49 L2323.87 1518.49 L2323.87 1515.29 Z" fill="#000000" fill-rule="evenodd" fill-opacity="1" /><path clip-path="url(#clip240)" d="M2356.84 1525.76 L2363.05 1525.76 L2363.05 1504.34 L2356.3 1505.7 L2356.3 1502.24 L2363.01 1500.88 L2366.81 1500.88 L2366.81 1525.76 L2373.02 1525.76 L2373.02 1528.96 L2356.84 1528.96 L2356.84 1525.76 Z" fill="#000000" fill-rule="evenodd" fill-opacity="1" /><path clip-path="url(#clip240)" d="M2381.35 1525.76 L2387.56 1525.76 L2387.56 1504.34 L2380.8 1505.7 L2380.8 1502.24 L2387.52 1500.88 L2391.32 1500.88 L2391.32 1525.76 L2397.52 1525.76 L2397.52 1528.96 L2381.35 1528.96 L2381.35 1525.76 Z" fill="#000000" fill-rule="evenodd" fill-opacity="1" /><polyline clip-path="url(#clip243)" style="stroke:#000000; stroke-linecap:butt; stroke-linejoin:round; stroke-width:2; stroke-opacity:0.1; fill:none" points="
  327.199,1433.78 2352.76,1433.78 
  "/>
<polyline clip-path="url(#clip243)" style="stroke:#000000; stroke-linecap:butt; stroke-linejoin:round; stroke-width:2; stroke-opacity:0.1; fill:none" points="
  327.199,1122.91 2352.76,1122.91 
  "/>
<polyline clip-path="url(#clip243)" style="stroke:#000000; stroke-linecap:butt; stroke-linejoin:round; stroke-width:2; stroke-opacity:0.1; fill:none" points="
  327.199,812.032 2352.76,812.032 
  "/>
<polyline clip-path="url(#clip243)" style="stroke:#000000; stroke-linecap:butt; stroke-linejoin:round; stroke-width:2; stroke-opacity:0.1; fill:none" points="
  327.199,501.156 2352.76,501.156 
  "/>
<polyline clip-path="url(#clip243)" style="stroke:#000000; stroke-linecap:butt; stroke-linejoin:round; stroke-width:2; stroke-opacity:0.1; fill:none" points="
  327.199,190.281 2352.76,190.281 
  "/>
<polyline clip-path="url(#clip240)" style="stroke:#000000; stroke-linecap:butt; stroke-linejoin:round; stroke-width:4; stroke-opacity:1; fill:none" points="
  327.199,1474.16 327.199,47.2441 
  "/>
<polyline clip-path="url(#clip240)" style="stroke:#000000; stroke-linecap:butt; stroke-linejoin:round; stroke-width:4; stroke-opacity:1; fill:none" points="
  327.199,1433.78 346.097,1433.78 
  "/>
<polyline clip-path="url(#clip240)" style="stroke:#000000; stroke-linecap:butt; stroke-linejoin:round; stroke-width:4; stroke-opacity:1; fill:none" points="
  327.199,1122.91 346.097,1122.91 
  "/>
<polyline clip-path="url(#clip240)" style="stroke:#000000; stroke-linecap:butt; stroke-linejoin:round; stroke-width:4; stroke-opacity:1; fill:none" points="
  327.199,812.032 346.097,812.032 
  "/>
<polyline clip-path="url(#clip240)" style="stroke:#000000; stroke-linecap:butt; stroke-linejoin:round; stroke-width:4; stroke-opacity:1; fill:none" points="
  327.199,501.156 346.097,501.156 
  "/>
<polyline clip-path="url(#clip240)" style="stroke:#000000; stroke-linecap:butt; stroke-linejoin:round; stroke-width:4; stroke-opacity:1; fill:none" points="
  327.199,190.281 346.097,190.281 
  "/>
<path clip-path="url(#clip240)" d="M279.255 1419.58 Q275.644 1419.58 273.815 1423.15 Q272.009 1426.69 272.009 1433.82 Q272.009 1440.92 273.815 1444.49 Q275.644 1448.03 279.255 1448.03 Q282.889 1448.03 284.695 1444.49 Q286.523 1440.92 286.523 1433.82 Q286.523 1426.69 284.695 1423.15 Q282.889 1419.58 279.255 1419.58 M279.255 1415.88 Q285.065 1415.88 288.12 1420.48 Q291.199 1425.07 291.199 1433.82 Q291.199 1442.54 288.12 1447.15 Q285.065 1451.73 279.255 1451.73 Q273.445 1451.73 270.366 1447.15 Q267.31 1442.54 267.31 1433.82 Q267.31 1425.07 270.366 1420.48 Q273.445 1415.88 279.255 1415.88 Z" fill="#000000" fill-rule="evenodd" fill-opacity="1" /><path clip-path="url(#clip240)" d="M56.6171 1142.7 L72.9365 1142.7 L72.9365 1146.63 L50.9921 1146.63 L50.9921 1142.7 Q53.6541 1139.95 58.2375 1135.32 Q62.8439 1130.66 64.0245 1129.32 Q66.2698 1126.8 67.1494 1125.06 Q68.0522 1123.3 68.0522 1121.61 Q68.0522 1118.86 66.1078 1117.12 Q64.1865 1115.39 61.0847 1115.39 Q58.8856 1115.39 56.4319 1116.15 Q54.0014 1116.91 51.2236 1118.46 L51.2236 1113.74 Q54.0477 1112.61 56.5014 1112.03 Q58.955 1111.45 60.9921 1111.45 Q66.3624 1111.45 69.5568 1114.14 Q72.7513 1116.82 72.7513 1121.31 Q72.7513 1123.44 71.9411 1125.36 Q71.1541 1127.26 69.0476 1129.85 Q68.4689 1130.52 65.367 1133.74 Q62.2652 1136.94 56.6171 1142.7 Z" fill="#000000" fill-rule="evenodd" fill-opacity="1" /><path clip-path="url(#clip240)" d="M82.7512 1140.76 L87.6354 1140.76 L87.6354 1146.63 L82.7512 1146.63 L82.7512 1140.76 Z" fill="#000000" fill-rule="evenodd" fill-opacity="1" /><path clip-path="url(#clip240)" d="M97.8669 1112.07 L116.223 1112.07 L116.223 1116.01 L102.149 1116.01 L102.149 1124.48 Q103.168 1124.13 104.186 1123.97 Q105.205 1123.79 106.223 1123.79 Q112.01 1123.79 115.39 1126.96 Q118.77 1130.13 118.77 1135.55 Q118.77 1141.13 115.297 1144.23 Q111.825 1147.31 105.506 1147.31 Q103.33 1147.31 101.061 1146.94 Q98.8159 1146.57 96.4085 1145.82 L96.4085 1141.13 Q98.4919 1142.26 100.714 1142.82 Q102.936 1143.37 105.413 1143.37 Q109.418 1143.37 111.756 1141.26 Q114.094 1139.16 114.094 1135.55 Q114.094 1131.94 111.756 1129.83 Q109.418 1127.72 105.413 1127.72 Q103.538 1127.72 101.663 1128.14 Q99.8113 1128.56 97.8669 1129.44 L97.8669 1112.07 Z" fill="#000000" fill-rule="evenodd" fill-opacity="1" /><path clip-path="url(#clip240)" d="M137.982 1115.15 Q134.371 1115.15 132.543 1118.72 Q130.737 1122.26 130.737 1129.39 Q130.737 1136.5 132.543 1140.06 Q134.371 1143.6 137.982 1143.6 Q141.617 1143.6 143.422 1140.06 Q145.251 1136.5 145.251 1129.39 Q145.251 1122.26 143.422 1118.72 Q141.617 1115.15 137.982 1115.15 M137.982 1111.45 Q143.793 1111.45 146.848 1116.06 Q149.927 1120.64 149.927 1129.39 Q149.927 1138.12 146.848 1142.72 Q143.793 1147.31 137.982 1147.31 Q132.172 1147.31 129.094 1142.72 Q126.038 1138.12 126.038 1129.39 Q126.038 1120.64 129.094 1116.06 Q132.172 1111.45 137.982 1111.45 Z" fill="#000000" fill-rule="evenodd" fill-opacity="1" /><path clip-path="url(#clip240)" d="M186.315 1121.17 L175.737 1131.8 L186.315 1142.38 L183.561 1145.18 L172.936 1134.55 L162.311 1145.18 L159.58 1142.38 L170.135 1131.8 L159.58 1121.17 L162.311 1118.37 L172.936 1129 L183.561 1118.37 L186.315 1121.17 Z" fill="#000000" fill-rule="evenodd" fill-opacity="1" /><path clip-path="url(#clip240)" d="M198.677 1142.7 L206.315 1142.7 L206.315 1116.33 L198.005 1118 L198.005 1113.74 L206.269 1112.07 L210.945 1112.07 L210.945 1142.7 L218.584 1142.7 L218.584 1146.63 L198.677 1146.63 L198.677 1142.7 Z" fill="#000000" fill-rule="evenodd" fill-opacity="1" /><path clip-path="url(#clip240)" d="M238.028 1115.15 Q234.417 1115.15 232.588 1118.72 Q230.783 1122.26 230.783 1129.39 Q230.783 1136.5 232.588 1140.06 Q234.417 1143.6 238.028 1143.6 Q241.662 1143.6 243.468 1140.06 Q245.297 1136.5 245.297 1129.39 Q245.297 1122.26 243.468 1118.72 Q241.662 1115.15 238.028 1115.15 M238.028 1111.45 Q243.838 1111.45 246.894 1116.06 Q249.973 1120.64 249.973 1129.39 Q249.973 1138.12 246.894 1142.72 Q243.838 1147.31 238.028 1147.31 Q232.218 1147.31 229.139 1142.72 Q226.084 1138.12 226.084 1129.39 Q226.084 1120.64 229.139 1116.06 Q232.218 1111.45 238.028 1111.45 Z" fill="#000000" fill-rule="evenodd" fill-opacity="1" /><path clip-path="url(#clip240)" d="M250.518 1116.03 L256.725 1116.03 L256.725 1094.61 L249.973 1095.96 L249.973 1092.5 L256.687 1091.14 L260.486 1091.14 L260.486 1116.03 L266.693 1116.03 L266.693 1119.22 L250.518 1119.22 L250.518 1116.03 Z" fill="#000000" fill-rule="evenodd" fill-opacity="1" /><path clip-path="url(#clip240)" d="M275.024 1116.03 L281.231 1116.03 L281.231 1094.61 L274.479 1095.96 L274.479 1092.5 L281.193 1091.14 L284.993 1091.14 L284.993 1116.03 L291.199 1116.03 L291.199 1119.22 L275.024 1119.22 L275.024 1116.03 Z" fill="#000000" fill-rule="evenodd" fill-opacity="1" /><path clip-path="url(#clip240)" d="M52.6356 801.199 L70.992 801.199 L70.992 805.135 L56.918 805.135 L56.918 813.607 Q57.9365 813.26 58.955 813.097 Q59.9736 812.912 60.9921 812.912 Q66.7791 812.912 70.1587 816.084 Q73.5383 819.255 73.5383 824.671 Q73.5383 830.25 70.0661 833.352 Q66.5939 836.431 60.2745 836.431 Q58.0986 836.431 55.8301 836.06 Q53.5847 835.69 51.1773 834.949 L51.1773 830.25 Q53.2606 831.384 55.4828 831.94 Q57.7051 832.496 60.1819 832.496 Q64.1865 832.496 66.5245 830.389 Q68.8624 828.283 68.8624 824.671 Q68.8624 821.06 66.5245 818.954 Q64.1865 816.847 60.1819 816.847 Q58.3069 816.847 56.4319 817.264 Q54.5801 817.681 52.6356 818.56 L52.6356 801.199 Z" fill="#000000" fill-rule="evenodd" fill-opacity="1" /><path clip-path="url(#clip240)" d="M82.7512 829.88 L87.6354 829.88 L87.6354 835.759 L82.7512 835.759 L82.7512 829.88 Z" fill="#000000" fill-rule="evenodd" fill-opacity="1" /><path clip-path="url(#clip240)" d="M107.821 804.278 Q104.209 804.278 102.381 807.843 Q100.575 811.385 100.575 818.514 Q100.575 825.621 102.381 829.185 Q104.209 832.727 107.821 832.727 Q111.455 832.727 113.26 829.185 Q115.089 825.621 115.089 818.514 Q115.089 811.385 113.26 807.843 Q111.455 804.278 107.821 804.278 M107.821 800.574 Q113.631 800.574 116.686 805.181 Q119.765 809.764 119.765 818.514 Q119.765 827.241 116.686 831.847 Q113.631 836.431 107.821 836.431 Q102.01 836.431 98.9317 831.847 Q95.8761 827.241 95.8761 818.514 Q95.8761 809.764 98.9317 805.181 Q102.01 800.574 107.821 800.574 Z" fill="#000000" fill-rule="evenodd" fill-opacity="1" /><path clip-path="url(#clip240)" d="M137.982 804.278 Q134.371 804.278 132.543 807.843 Q130.737 811.385 130.737 818.514 Q130.737 825.621 132.543 829.185 Q134.371 832.727 137.982 832.727 Q141.617 832.727 143.422 829.185 Q145.251 825.621 145.251 818.514 Q145.251 811.385 143.422 807.843 Q141.617 804.278 137.982 804.278 M137.982 800.574 Q143.793 800.574 146.848 805.181 Q149.927 809.764 149.927 818.514 Q149.927 827.241 146.848 831.847 Q143.793 836.431 137.982 836.431 Q132.172 836.431 129.094 831.847 Q126.038 827.241 126.038 818.514 Q126.038 809.764 129.094 805.181 Q132.172 800.574 137.982 800.574 Z" fill="#000000" fill-rule="evenodd" fill-opacity="1" /><path clip-path="url(#clip240)" d="M186.315 810.297 L175.737 820.922 L186.315 831.5 L183.561 834.301 L172.936 823.676 L162.311 834.301 L159.58 831.5 L170.135 820.922 L159.58 810.297 L162.311 807.496 L172.936 818.121 L183.561 807.496 L186.315 810.297 Z" fill="#000000" fill-rule="evenodd" fill-opacity="1" /><path clip-path="url(#clip240)" d="M198.677 831.824 L206.315 831.824 L206.315 805.459 L198.005 807.125 L198.005 802.866 L206.269 801.199 L210.945 801.199 L210.945 831.824 L218.584 831.824 L218.584 835.759 L198.677 835.759 L198.677 831.824 Z" fill="#000000" fill-rule="evenodd" fill-opacity="1" /><path clip-path="url(#clip240)" d="M238.028 804.278 Q234.417 804.278 232.588 807.843 Q230.783 811.385 230.783 818.514 Q230.783 825.621 232.588 829.185 Q234.417 832.727 238.028 832.727 Q241.662 832.727 243.468 829.185 Q245.297 825.621 245.297 818.514 Q245.297 811.385 243.468 807.843 Q241.662 804.278 238.028 804.278 M238.028 800.574 Q243.838 800.574 246.894 805.181 Q249.973 809.764 249.973 818.514 Q249.973 827.241 246.894 831.847 Q243.838 836.431 238.028 836.431 Q232.218 836.431 229.139 831.847 Q226.084 827.241 226.084 818.514 Q226.084 809.764 229.139 805.181 Q232.218 800.574 238.028 800.574 Z" fill="#000000" fill-rule="evenodd" fill-opacity="1" /><path clip-path="url(#clip240)" d="M250.518 805.152 L256.725 805.152 L256.725 783.73 L249.973 785.084 L249.973 781.623 L256.687 780.269 L260.486 780.269 L260.486 805.152 L266.693 805.152 L266.693 808.349 L250.518 808.349 L250.518 805.152 Z" fill="#000000" fill-rule="evenodd" fill-opacity="1" /><path clip-path="url(#clip240)" d="M275.024 805.152 L281.231 805.152 L281.231 783.73 L274.479 785.084 L274.479 781.623 L281.193 780.269 L284.993 780.269 L284.993 805.152 L291.199 805.152 L291.199 808.349 L275.024 808.349 L275.024 805.152 Z" fill="#000000" fill-rule="evenodd" fill-opacity="1" /><path clip-path="url(#clip240)" d="M51.4088 490.324 L73.6309 490.324 L73.6309 492.315 L61.0847 524.884 L56.2004 524.884 L68.0059 494.259 L51.4088 494.259 L51.4088 490.324 Z" fill="#000000" fill-rule="evenodd" fill-opacity="1" /><path clip-path="url(#clip240)" d="M82.7512 519.004 L87.6354 519.004 L87.6354 524.884 L82.7512 524.884 L82.7512 519.004 Z" fill="#000000" fill-rule="evenodd" fill-opacity="1" /><path clip-path="url(#clip240)" d="M97.8669 490.324 L116.223 490.324 L116.223 494.259 L102.149 494.259 L102.149 502.731 Q103.168 502.384 104.186 502.222 Q105.205 502.037 106.223 502.037 Q112.01 502.037 115.39 505.208 Q118.77 508.379 118.77 513.796 Q118.77 519.375 115.297 522.477 Q111.825 525.555 105.506 525.555 Q103.33 525.555 101.061 525.185 Q98.8159 524.814 96.4085 524.074 L96.4085 519.375 Q98.4919 520.509 100.714 521.065 Q102.936 521.62 105.413 521.62 Q109.418 521.62 111.756 519.514 Q114.094 517.407 114.094 513.796 Q114.094 510.185 111.756 508.078 Q109.418 505.972 105.413 505.972 Q103.538 505.972 101.663 506.389 Q99.8113 506.805 97.8669 507.685 L97.8669 490.324 Z" fill="#000000" fill-rule="evenodd" fill-opacity="1" /><path clip-path="url(#clip240)" d="M137.982 493.403 Q134.371 493.403 132.543 496.967 Q130.737 500.509 130.737 507.639 Q130.737 514.745 132.543 518.31 Q134.371 521.852 137.982 521.852 Q141.617 521.852 143.422 518.31 Q145.251 514.745 145.251 507.639 Q145.251 500.509 143.422 496.967 Q141.617 493.403 137.982 493.403 M137.982 489.699 Q143.793 489.699 146.848 494.305 Q149.927 498.889 149.927 507.639 Q149.927 516.365 146.848 520.972 Q143.793 525.555 137.982 525.555 Q132.172 525.555 129.094 520.972 Q126.038 516.365 126.038 507.639 Q126.038 498.889 129.094 494.305 Q132.172 489.699 137.982 489.699 Z" fill="#000000" fill-rule="evenodd" fill-opacity="1" /><path clip-path="url(#clip240)" d="M186.315 499.421 L175.737 510.046 L186.315 520.625 L183.561 523.426 L172.936 512.801 L162.311 523.426 L159.58 520.625 L170.135 510.046 L159.58 499.421 L162.311 496.62 L172.936 507.245 L183.561 496.62 L186.315 499.421 Z" fill="#000000" fill-rule="evenodd" fill-opacity="1" /><path clip-path="url(#clip240)" d="M198.677 520.949 L206.315 520.949 L206.315 494.583 L198.005 496.25 L198.005 491.991 L206.269 490.324 L210.945 490.324 L210.945 520.949 L218.584 520.949 L218.584 524.884 L198.677 524.884 L198.677 520.949 Z" fill="#000000" fill-rule="evenodd" fill-opacity="1" /><path clip-path="url(#clip240)" d="M238.028 493.403 Q234.417 493.403 232.588 496.967 Q230.783 500.509 230.783 507.639 Q230.783 514.745 232.588 518.31 Q234.417 521.852 238.028 521.852 Q241.662 521.852 243.468 518.31 Q245.297 514.745 245.297 507.639 Q245.297 500.509 243.468 496.967 Q241.662 493.403 238.028 493.403 M238.028 489.699 Q243.838 489.699 246.894 494.305 Q249.973 498.889 249.973 507.639 Q249.973 516.365 246.894 520.972 Q243.838 525.555 238.028 525.555 Q232.218 525.555 229.139 520.972 Q226.084 516.365 226.084 507.639 Q226.084 498.889 229.139 494.305 Q232.218 489.699 238.028 489.699 Z" fill="#000000" fill-rule="evenodd" fill-opacity="1" /><path clip-path="url(#clip240)" d="M250.518 494.276 L256.725 494.276 L256.725 472.854 L249.973 474.208 L249.973 470.748 L256.687 469.394 L260.486 469.394 L260.486 494.276 L266.693 494.276 L266.693 497.474 L250.518 497.474 L250.518 494.276 Z" fill="#000000" fill-rule="evenodd" fill-opacity="1" /><path clip-path="url(#clip240)" d="M275.024 494.276 L281.231 494.276 L281.231 472.854 L274.479 474.208 L274.479 470.748 L281.193 469.394 L284.993 469.394 L284.993 494.276 L291.199 494.276 L291.199 497.474 L275.024 497.474 L275.024 494.276 Z" fill="#000000" fill-rule="evenodd" fill-opacity="1" /><path clip-path="url(#clip240)" d="M53.7004 210.073 L61.3393 210.073 L61.3393 183.708 L53.0292 185.374 L53.0292 181.115 L61.293 179.448 L65.9689 179.448 L65.9689 210.073 L73.6077 210.073 L73.6077 214.008 L53.7004 214.008 L53.7004 210.073 Z" fill="#000000" fill-rule="evenodd" fill-opacity="1" /><path clip-path="url(#clip240)" d="M83.0521 208.129 L87.9364 208.129 L87.9364 214.008 L83.0521 214.008 L83.0521 208.129 Z" fill="#000000" fill-rule="evenodd" fill-opacity="1" /><path clip-path="url(#clip240)" d="M108.121 182.527 Q104.51 182.527 102.682 186.092 Q100.876 189.634 100.876 196.763 Q100.876 203.87 102.682 207.434 Q104.51 210.976 108.121 210.976 Q111.756 210.976 113.561 207.434 Q115.39 203.87 115.39 196.763 Q115.39 189.634 113.561 186.092 Q111.756 182.527 108.121 182.527 M108.121 178.823 Q113.932 178.823 116.987 183.43 Q120.066 188.013 120.066 196.763 Q120.066 205.49 116.987 210.096 Q113.932 214.68 108.121 214.68 Q102.311 214.68 99.2326 210.096 Q96.1771 205.49 96.1771 196.763 Q96.1771 188.013 99.2326 183.43 Q102.311 178.823 108.121 178.823 Z" fill="#000000" fill-rule="evenodd" fill-opacity="1" /><path clip-path="url(#clip240)" d="M138.283 182.527 Q134.672 182.527 132.844 186.092 Q131.038 189.634 131.038 196.763 Q131.038 203.87 132.844 207.434 Q134.672 210.976 138.283 210.976 Q141.918 210.976 143.723 207.434 Q145.552 203.87 145.552 196.763 Q145.552 189.634 143.723 186.092 Q141.918 182.527 138.283 182.527 M138.283 178.823 Q144.093 178.823 147.149 183.43 Q150.228 188.013 150.228 196.763 Q150.228 205.49 147.149 210.096 Q144.093 214.68 138.283 214.68 Q132.473 214.68 129.394 210.096 Q126.339 205.49 126.339 196.763 Q126.339 188.013 129.394 183.43 Q132.473 178.823 138.283 178.823 Z" fill="#000000" fill-rule="evenodd" fill-opacity="1" /><path clip-path="url(#clip240)" d="M186.616 188.546 L176.038 199.171 L186.616 209.749 L183.862 212.55 L173.237 201.925 L162.612 212.55 L159.88 209.749 L170.436 199.171 L159.88 188.546 L162.612 185.745 L173.237 196.37 L183.862 185.745 L186.616 188.546 Z" fill="#000000" fill-rule="evenodd" fill-opacity="1" /><path clip-path="url(#clip240)" d="M198.977 210.073 L206.616 210.073 L206.616 183.708 L198.306 185.374 L198.306 181.115 L206.57 179.448 L211.246 179.448 L211.246 210.073 L218.885 210.073 L218.885 214.008 L198.977 214.008 L198.977 210.073 Z" fill="#000000" fill-rule="evenodd" fill-opacity="1" /><path clip-path="url(#clip240)" d="M238.329 182.527 Q234.718 182.527 232.889 186.092 Q231.084 189.634 231.084 196.763 Q231.084 203.87 232.889 207.434 Q234.718 210.976 238.329 210.976 Q241.963 210.976 243.769 207.434 Q245.598 203.87 245.598 196.763 Q245.598 189.634 243.769 186.092 Q241.963 182.527 238.329 182.527 M238.329 178.823 Q244.139 178.823 247.195 183.43 Q250.273 188.013 250.273 196.763 Q250.273 205.49 247.195 210.096 Q244.139 214.68 238.329 214.68 Q232.519 214.68 229.44 210.096 Q226.385 205.49 226.385 196.763 Q226.385 188.013 229.44 183.43 Q232.519 178.823 238.329 178.823 Z" fill="#000000" fill-rule="evenodd" fill-opacity="1" /><path clip-path="url(#clip240)" d="M250.819 183.401 L257.025 183.401 L257.025 161.979 L250.273 163.333 L250.273 159.872 L256.988 158.518 L260.787 158.518 L260.787 183.401 L266.994 183.401 L266.994 186.598 L250.819 186.598 L250.819 183.401 Z" fill="#000000" fill-rule="evenodd" fill-opacity="1" /><path clip-path="url(#clip240)" d="M277.94 183.401 L291.199 183.401 L291.199 186.598 L273.369 186.598 L273.369 183.401 Q275.532 181.163 279.256 177.401 Q282.999 173.621 283.958 172.53 Q285.783 170.48 286.497 169.069 Q287.231 167.64 287.231 166.267 Q287.231 164.029 285.651 162.618 Q284.09 161.208 281.57 161.208 Q279.783 161.208 277.789 161.828 Q275.814 162.449 273.557 163.709 L273.557 159.872 Q275.852 158.951 277.846 158.48 Q279.839 158.01 281.494 158.01 Q285.858 158.01 288.453 160.192 Q291.049 162.374 291.049 166.022 Q291.049 167.753 290.39 169.314 Q289.751 170.856 288.039 172.962 Q287.569 173.508 285.049 176.122 Q282.529 178.718 277.94 183.401 Z" fill="#000000" fill-rule="evenodd" fill-opacity="1" /><polyline clip-path="url(#clip243)" style="stroke:#009af9; stroke-linecap:butt; stroke-linejoin:round; stroke-width:4; stroke-opacity:1; fill:none" points="
  1072.71,1433.78 1077.61,1433.78 1082.52,1433.77 1087.42,1433.77 1092.33,1433.76 1097.23,1433.74 1102.14,1433.71 1107.04,1433.67 1111.95,1433.6 1116.86,1433.51 
  1121.76,1433.37 1126.67,1433.18 1131.57,1432.93 1136.48,1432.61 1141.38,1432.22 1146.29,1431.75 1151.19,1431.21 1156.1,1430.61 1161,1429.99 1165.91,1429.36 
  1170.82,1428.77 1175.72,1428.25 1180.63,1427.82 1185.53,1427.51 1190.44,1427.32 1195.34,1427.23 1200.25,1427.22 1205.15,1427.21 1210.06,1427.14 1214.96,1426.92 
  1219.87,1426.42 1224.78,1425.54 1229.68,1424.13 1234.59,1422.06 1239.49,1419.19 1244.4,1415.35 1249.3,1410.38 1254.21,1404.13 1259.11,1396.42 1264.02,1387.09 
  1268.92,1376.01 1273.83,1363.05 1278.74,1348.12 1283.64,1331.14 1288.55,1312.06 1293.45,1290.85 1298.36,1267.5 1303.26,1241.97 1308.17,1214.24 1313.07,1184.27 
  1317.98,1151.99 1322.88,1117.38 1327.79,1080.42 1332.7,1041.15 1337.6,999.725 1342.51,956.368 1347.41,911.436 1352.32,865.392 1357.22,818.783 1362.13,772.202 
  1367.03,726.236 1371.94,681.416 1376.84,638.17 1381.75,596.79 1386.66,557.422 1391.56,520.078 1396.47,484.661 1401.37,451.011 1406.28,418.94 1411.18,388.275 
  1416.09,358.876 1420.99,330.647 1425.9,303.533 1430.8,277.514 1435.71,252.595 1440.61,228.803 1445.52,206.192 1450.43,184.858 1455.33,164.946 1460.24,146.664 
  1465.14,130.279 1470.05,116.108 1474.95,104.481 1479.86,95.7134 1484.76,90.0499 1489.67,87.6286 1494.57,88.4471 1499.48,92.3496 1504.39,99.0371 1509.29,108.1 
  1514.2,119.068 1519.1,131.47 1524.01,144.887 1528.91,158.999 1533.82,173.603 1538.72,188.613 1543.63,204.039 1548.53,219.946 1553.44,236.417 1558.35,253.509 
  1563.25,271.225 1568.16,289.489 1573.06,308.145 1577.97,326.959 1582.87,345.636 1587.78,363.85 1592.68,381.282 1597.59,397.666 1602.49,412.843 1607.4,426.802 
  1612.31,439.716 1617.21,451.951 1622.12,464.04 1627.02,476.631 1631.93,490.402 1636.83,505.959 1641.74,523.74 1646.64,543.939 1651.55,566.463 1656.45,590.937 
  1661.36,616.751 1666.27,643.154 1671.17,669.351 1676.08,694.615 1680.98,718.378 1685.89,740.286 1690.79,760.228 1695.7,778.327 1700.6,794.9 1705.51,810.411 
  1710.41,825.405 1715.32,840.447 1720.23,856.065 1725.13,872.7 1730.04,890.669 1734.94,910.139 1739.85,931.113 1744.75,953.442 1749.66,976.841 1754.56,1000.92 
  1759.47,1025.25 1764.37,1049.36 1769.28,1072.83 1774.19,1095.29 1779.09,1116.46 1784,1136.14 1788.9,1154.24 1793.81,1170.7 1798.71,1185.58 1803.62,1198.95 
  1808.52,1210.92 1813.43,1221.64 1818.33,1231.26 1823.24,1239.93 1828.15,1247.82 1833.05,1255.11 1837.96,1261.96 1842.86,1268.54 1847.77,1275.03 1852.67,1281.6 
  1857.58,1288.41 1862.48,1295.57 1867.39,1303.18 1872.29,1311.26 1877.2,1319.77 1882.11,1328.62 1887.01,1337.67 1891.92,1346.71 1896.82,1355.57 1901.73,1364.05 
  1906.63,1372 1911.54,1379.32 1916.44,1385.96 1921.35,1391.92 1926.25,1397.26 1931.16,1402.03 1936.07,1406.32 1940.97,1410.2 1945.88,1413.72 1950.78,1416.92 
  1955.69,1419.81 1960.59,1422.4 1965.5,1424.68 1970.4,1426.65 1975.31,1428.32 1980.21,1429.69 1985.12,1430.79 1990.03,1431.65 1994.93,1432.3 1999.84,1432.78 
  2004.74,1433.12 2009.65,1433.36 2014.55,1433.52 2019.46,1433.62 2024.36,1433.69 2029.27,1433.73 2034.17,1433.75 2039.08,1433.77 2043.99,1433.77 2048.89,1433.78 
  
  "/>
<polyline clip-path="url(#clip243)" style="stroke:#000000; stroke-linecap:butt; stroke-linejoin:round; stroke-width:4; stroke-opacity:1; fill:none" points="
  1174.6,1432.53 1210.85,1430.67 1247.1,1426.55 1283.35,1418 1319.6,1401.5 1355.84,1371.81 1392.09,1322.18 1428.34,1245.28 1464.59,1135.08 1500.84,989.792 
  1537.09,814.698 1573.34,624.013 1609.59,440.191 1645.84,290.141 1682.09,198.951 1718.34,183.061 1754.59,245.42 1790.84,374.596 1827.09,548.195 1863.33,739.196 
  1899.58,922.741 1935.83,1081.07 1972.08,1205.42 2008.33,1295.09 2044.58,1354.76 2080.83,1391.55 
  "/>
<polyline clip-path="url(#clip243)" style="stroke:#3da44d; stroke-linecap:butt; stroke-linejoin:round; stroke-width:4; stroke-opacity:1; fill:none" points="
  384.526,1433.78 394.129,1433.78 403.731,1433.77 413.334,1433.74 422.936,1433.68 432.539,1433.54 442.141,1433.3 451.744,1432.86 461.346,1432.17 470.949,1431.17 
  480.552,1429.85 490.154,1428.28 499.757,1426.64 509.359,1425.16 518.962,1424.11 528.564,1423.68 538.167,1423.96 547.769,1424.88 557.372,1426.22 566.974,1427.7 
  576.577,1428.99 586.179,1429.83 595.782,1430.03 605.384,1429.47 614.987,1428.19 624.589,1426.31 634.192,1424.08 643.794,1421.83 653.397,1419.93 662.999,1418.65 
  672.602,1418.14 682.205,1418.35 691.807,1419.1 701.41,1420.13 711.012,1421.18 720.615,1422.07 730.217,1422.68 739.82,1422.97 749.422,1422.91 759.025,1422.51 
  768.627,1421.8 778.23,1420.8 787.832,1419.58 797.435,1418.24 807.037,1416.87 816.64,1415.56 826.242,1414.38 835.845,1413.35 845.447,1412.37 855.05,1411.28 
  864.653,1409.8 874.255,1407.56 883.858,1404.23 893.46,1399.52 903.063,1393.26 912.665,1385.39 922.268,1375.99 931.87,1365.36 941.473,1354.14 951.075,1343.32 
  960.678,1334.16 970.28,1327.81 979.883,1324.89 989.485,1325.1 999.088,1327.18 1008.69,1329.21 1018.29,1329.14 1027.9,1325.36 1037.5,1317.03 1047.1,1304.22 
  1056.7,1287.76 1066.31,1269.09 1075.91,1250.01 1085.51,1232.49 1095.11,1218.31 1104.72,1208.74 1114.32,1204.06 1123.92,1203.31 1133.52,1204.32 1143.13,1204.05 
  1152.73,1199.34 1162.33,1187.65 1171.93,1167.7 1181.54,1139.7 1191.14,1105.26 1200.74,1066.93 1210.34,1027.61 1219.95,989.813 1229.55,955.086 1239.15,923.597 
  1248.75,894.068 1258.36,864.117 1267.96,830.983 1277.56,792.484 1287.16,747.857 1296.77,698.119 1306.37,645.717 1315.97,593.556 1325.57,543.844 1335.18,497.284 
  1344.78,452.998 1354.38,409.167 1363.98,364.061 1373.59,317.018 1383.19,269.069 1392.79,223.07 1402.39,183.337 1412,154.815 1421.6,141.918 1431.2,147.337 
  1440.8,171.238 1450.41,211.214 1460.01,263.006 1469.61,321.691 1479.21,382.823 1488.82,443.161 1498.42,500.877 1508.02,555.377 1517.62,606.936 1527.23,656.3 
  1536.83,704.303 1546.43,751.543 1556.03,798.14 1565.64,843.668 1575.24,887.294 1584.84,928.091 1594.44,965.398 1604.05,999.069 1613.65,1029.48 1623.25,1057.33 
  1632.85,1083.27 1642.46,1107.71 1652.06,1130.69 1661.66,1152.07 1671.26,1171.67 1680.87,1189.41 1690.47,1205.25 1700.07,1219.17 1709.67,1231.06 1719.28,1240.93 
  1728.88,1249.07 1738.48,1256.19 1748.08,1263.41 1757.69,1271.9 1767.29,1282.49 1776.89,1295.36 1786.49,1309.95 1796.1,1325.22 1805.7,1340.05 1815.3,1353.6 
  1824.91,1365.47 1834.51,1375.7 1844.11,1384.5 1853.71,1392.14 1863.32,1398.8 1872.92,1404.56 1882.52,1409.44 1892.12,1413.42 1901.73,1416.4 1911.33,1418.22 
  1920.93,1418.71 1930.53,1417.74 1940.14,1415.41 1949.74,1412.09 1959.34,1408.44 1968.94,1405.26 1978.55,1403.26 1988.15,1402.9 1997.75,1404.21 2007.35,1406.89 
  2016.96,1410.39 2026.56,1414.19 2036.16,1417.86 2045.76,1421.16 2055.37,1424.01 2064.97,1426.4 2074.57,1428.33 2084.17,1429.79 2093.78,1430.74 2103.38,1431.17 
  2112.98,1431.11 2122.58,1430.66 2132.19,1429.95 2141.79,1429.21 2151.39,1428.63 2160.99,1428.4 2170.6,1428.58 2180.2,1429.14 2189.8,1429.97 2199.4,1430.9 
  2209.01,1431.77 2218.61,1432.49 2228.21,1433.02 2237.81,1433.37 2247.42,1433.57 2257.02,1433.69 2266.62,1433.74 2276.22,1433.77 2285.83,1433.78 2295.43,1433.78 
  
  "/>
<path clip-path="url(#clip240)" d="
M2012.49 236.958 L2285.24 236.958 L2285.24 94.8081 L2012.49 94.8081  Z
  " fill="#ffffff" fill-rule="evenodd" fill-opacity="1"/>
<polyline clip-path="url(#clip240)" style="stroke:#000000; stroke-linecap:butt; stroke-linejoin:round; stroke-width:4; stroke-opacity:1; fill:none" points="
  2012.49,236.958 2285.24,236.958 2285.24,94.8081 2012.49,94.8081 2012.49,236.958 
  "/>
<polyline clip-path="url(#clip240)" style="stroke:#009af9; stroke-linecap:butt; stroke-linejoin:round; stroke-width:4; stroke-opacity:1; fill:none" points="
  2034.99,130.346 2170.03,130.346 
  "/>
<path clip-path="url(#clip240)" d="M2212.07 115.479 Q2212.07 116.721 2211.25 117.517 Q2210.45 118.313 2209.42 118.313 Q2208.53 118.313 2208.07 117.798 Q2207.6 117.283 2207.6 116.627 Q2207.6 115.69 2208.32 114.917 Q2209.05 114.144 2210.1 113.98 Q2209.33 113.418 2208.09 113.418 Q2206.05 113.418 2204.25 114.987 Q2203.45 115.713 2202.58 117.048 Q2201.72 118.36 2201.55 118.922 L2200.03 125.176 Q2199.89 125.879 2199.02 129.252 Q2198.18 132.601 2198.11 132.741 Q2197.88 133.397 2197.36 133.749 Q2196.85 134.1 2196.33 134.1 Q2195.75 134.1 2195.35 133.749 Q2194.95 133.397 2194.95 132.788 Q2194.95 132.695 2195.02 132.343 Q2195.09 131.992 2195.21 131.5 Q2195.32 131.008 2195.37 130.727 L2198.16 119.648 Q2198.67 117.634 2198.79 117.002 Q2198.93 116.346 2198.93 115.62 Q2198.93 114.355 2198.53 113.886 Q2198.13 113.418 2197.43 113.418 Q2196.21 113.418 2195.42 114.87 Q2194.62 116.322 2193.94 119.133 Q2193.73 119.906 2193.59 120.07 Q2193.47 120.234 2193.12 120.234 Q2192.54 120.21 2192.54 119.742 Q2192.54 119.625 2192.72 118.875 Q2192.91 118.102 2193.26 116.978 Q2193.64 115.83 2194.04 115.104 Q2194.27 114.612 2194.48 114.285 Q2194.69 113.957 2195.11 113.441 Q2195.53 112.926 2196.17 112.645 Q2196.8 112.364 2197.57 112.364 Q2199.26 112.364 2200.45 113.395 Q2201.67 114.425 2201.95 116.041 Q2202.54 115.198 2203.26 114.472 Q2203.99 113.722 2205.33 113.043 Q2206.66 112.364 2208.09 112.364 Q2209.87 112.364 2210.97 113.277 Q2212.07 114.167 2212.07 115.479 Z" fill="#000000" fill-rule="evenodd" fill-opacity="1" /><path clip-path="url(#clip240)" d="M2216.98 142.856 Q2216.98 141.856 2217.56 141.381 Q2218.13 140.905 2218.87 140.905 Q2219.64 140.905 2220.18 141.414 Q2220.74 141.905 2220.74 142.774 Q2220.74 143.709 2220.08 144.234 Q2219.44 144.758 2218.53 144.627 Q2219.33 145.972 2220.8 146.578 Q2222.3 147.185 2223.67 147.185 Q2225.12 147.185 2226.28 145.939 Q2227.46 144.693 2227.46 141.643 Q2227.46 139.053 2226.44 137.561 Q2225.44 136.069 2223.46 136.069 L2221.99 136.069 Q2221.48 136.069 2221.33 136.019 Q2221.18 135.97 2221.18 135.691 Q2221.18 135.363 2221.69 135.298 Q2222.2 135.298 2223 135.2 Q2224.95 135.134 2225.99 133.445 Q2226.92 131.871 2226.92 129.625 Q2226.92 127.576 2225.94 126.723 Q2224.97 125.854 2223.71 125.854 Q2222.53 125.854 2221.23 126.346 Q2219.94 126.838 2219.23 127.936 Q2221.31 127.936 2221.31 129.625 Q2221.31 130.363 2220.84 130.855 Q2220.38 131.33 2219.61 131.33 Q2218.87 131.33 2218.38 130.871 Q2217.89 130.396 2217.89 129.592 Q2217.89 127.674 2219.59 126.346 Q2221.31 125.018 2223.84 125.018 Q2226.33 125.018 2228.17 126.329 Q2230.02 127.641 2230.02 129.658 Q2230.02 131.642 2228.71 133.265 Q2227.4 134.888 2225.31 135.56 Q2227.87 136.069 2229.4 137.806 Q2230.92 139.528 2230.92 141.643 Q2230.92 144.266 2228.86 146.201 Q2226.79 148.119 2223.77 148.119 Q2220.99 148.119 2218.98 146.611 Q2216.98 145.103 2216.98 142.856 Z" fill="#000000" fill-rule="evenodd" fill-opacity="1" /><polyline clip-path="url(#clip240)" style="stroke:#000000; stroke-linecap:butt; stroke-linejoin:round; stroke-width:4; stroke-opacity:1; fill:none" points="
  2034.99,165.883 2170.03,165.883 
  "/>
<path clip-path="url(#clip240)" d="M2216.43 151.063 Q2216.43 152.375 2215.61 153.125 Q2214.79 153.851 2213.85 153.851 Q2212.96 153.851 2212.49 153.335 Q2212.02 152.82 2212.02 152.164 Q2212.02 151.274 2212.68 150.501 Q2213.34 149.728 2214.32 149.564 Q2213.36 148.955 2211.93 148.955 Q2210.99 148.955 2210.17 149.447 Q2209.38 149.939 2208.89 150.572 Q2208.42 151.204 2208 152.117 Q2207.6 153.008 2207.43 153.546 Q2207.29 154.062 2207.18 154.624 L2205.54 161.182 Q2204.74 164.297 2204.74 165.398 Q2204.74 166.756 2205.4 167.67 Q2206.05 168.56 2207.36 168.56 Q2207.88 168.56 2208.46 168.419 Q2209.05 168.256 2209.8 167.834 Q2210.57 167.389 2211.25 166.733 Q2211.95 166.054 2212.63 164.906 Q2213.31 163.758 2213.76 162.283 Q2213.9 161.768 2214.37 161.768 Q2214.95 161.768 2214.95 162.236 Q2214.95 162.634 2214.62 163.477 Q2214.32 164.297 2213.64 165.375 Q2212.98 166.429 2212.12 167.389 Q2211.25 168.326 2209.96 168.982 Q2208.67 169.637 2207.27 169.637 Q2205.25 169.637 2203.92 168.56 Q2202.58 167.483 2202.09 165.984 Q2201.98 166.194 2201.81 166.475 Q2201.65 166.756 2201.16 167.389 Q2200.69 167.998 2200.15 168.466 Q2199.61 168.911 2198.77 169.263 Q2197.95 169.637 2197.06 169.637 Q2195.93 169.637 2194.93 169.31 Q2193.94 168.982 2193.24 168.232 Q2192.54 167.483 2192.54 166.452 Q2192.54 165.304 2193.31 164.508 Q2194.11 163.688 2195.18 163.688 Q2195.86 163.688 2196.4 164.086 Q2196.96 164.485 2196.96 165.351 Q2196.96 166.311 2196.31 167.038 Q2195.65 167.764 2194.71 167.951 Q2195.68 168.56 2197.1 168.56 Q2198.65 168.56 2199.87 167.202 Q2201.09 165.843 2201.67 163.571 Q2203.12 158.114 2203.69 155.678 Q2204.25 153.218 2204.25 152.164 Q2204.25 151.181 2203.99 150.501 Q2203.73 149.822 2203.29 149.518 Q2202.87 149.19 2202.47 149.073 Q2202.09 148.955 2201.67 148.955 Q2200.97 148.955 2200.17 149.237 Q2199.4 149.518 2198.46 150.173 Q2197.55 150.806 2196.68 152.117 Q2195.82 153.429 2195.23 155.233 Q2195.11 155.771 2194.6 155.771 Q2194.04 155.748 2194.04 155.279 Q2194.04 154.881 2194.34 154.062 Q2194.67 153.218 2195.32 152.164 Q2196 151.11 2196.87 150.173 Q2197.76 149.213 2199.05 148.557 Q2200.36 147.901 2201.76 147.901 Q2202.4 147.901 2203.01 148.042 Q2203.64 148.159 2204.39 148.51 Q2205.16 148.862 2205.84 149.635 Q2206.52 150.408 2206.94 151.532 Q2207.22 150.993 2207.6 150.478 Q2208 149.963 2208.6 149.33 Q2209.24 148.674 2210.1 148.3 Q2210.99 147.901 2211.98 147.901 Q2212.94 147.901 2213.87 148.159 Q2214.81 148.393 2215.61 149.166 Q2216.43 149.916 2216.43 151.063 Z" fill="#000000" fill-rule="evenodd" fill-opacity="1" /><path clip-path="url(#clip240)" d="M2221.31 178.394 Q2221.31 177.394 2221.89 176.918 Q2222.46 176.443 2223.2 176.443 Q2223.97 176.443 2224.51 176.951 Q2225.07 177.443 2225.07 178.312 Q2225.07 179.246 2224.41 179.771 Q2223.77 180.296 2222.85 180.165 Q2223.66 181.509 2225.13 182.116 Q2226.62 182.722 2228 182.722 Q2229.45 182.722 2230.61 181.476 Q2231.79 180.23 2231.79 177.181 Q2231.79 174.59 2230.77 173.098 Q2229.77 171.606 2227.79 171.606 L2226.31 171.606 Q2225.81 171.606 2225.66 171.557 Q2225.51 171.508 2225.51 171.229 Q2225.51 170.901 2226.02 170.835 Q2226.53 170.835 2227.33 170.737 Q2229.28 170.671 2230.31 168.983 Q2231.25 167.409 2231.25 165.162 Q2231.25 163.113 2230.26 162.26 Q2229.3 161.391 2228.04 161.391 Q2226.85 161.391 2225.56 161.883 Q2224.26 162.375 2223.56 163.474 Q2225.64 163.474 2225.64 165.162 Q2225.64 165.9 2225.17 166.392 Q2224.71 166.868 2223.94 166.868 Q2223.2 166.868 2222.71 166.409 Q2222.21 165.933 2222.21 165.13 Q2222.21 163.211 2223.92 161.883 Q2225.64 160.555 2228.17 160.555 Q2230.66 160.555 2232.49 161.867 Q2234.35 163.179 2234.35 165.195 Q2234.35 167.179 2233.04 168.802 Q2231.72 170.426 2229.64 171.098 Q2232.2 171.606 2233.72 173.344 Q2235.25 175.066 2235.25 177.181 Q2235.25 179.804 2233.18 181.739 Q2231.12 183.657 2228.1 183.657 Q2225.31 183.657 2223.31 182.148 Q2221.31 180.64 2221.31 178.394 Z" fill="#000000" fill-rule="evenodd" fill-opacity="1" /><polyline clip-path="url(#clip240)" style="stroke:#3da44d; stroke-linecap:butt; stroke-linejoin:round; stroke-width:4; stroke-opacity:1; fill:none" points="
  2034.99,201.421 2170.03,201.421 
  "/>
<path clip-path="url(#clip240)" d="M2212.07 193.565 Q2212.07 194.806 2211.25 195.603 Q2210.45 196.399 2209.42 196.399 Q2208.53 196.399 2208.07 195.884 Q2207.6 195.369 2207.6 194.713 Q2207.6 193.776 2208.32 193.003 Q2209.05 192.23 2210.1 192.066 Q2209.33 191.504 2208.09 191.504 Q2206.05 191.504 2204.25 193.073 Q2203.45 193.799 2202.58 195.134 Q2201.72 196.446 2201.55 197.008 L2200.03 203.262 Q2199.89 203.965 2199.02 207.337 Q2198.18 210.687 2198.11 210.827 Q2197.88 211.483 2197.36 211.835 Q2196.85 212.186 2196.33 212.186 Q2195.75 212.186 2195.35 211.835 Q2194.95 211.483 2194.95 210.874 Q2194.95 210.781 2195.02 210.429 Q2195.09 210.078 2195.21 209.586 Q2195.32 209.094 2195.37 208.813 L2198.16 197.734 Q2198.67 195.72 2198.79 195.088 Q2198.93 194.432 2198.93 193.706 Q2198.93 192.441 2198.53 191.972 Q2198.13 191.504 2197.43 191.504 Q2196.21 191.504 2195.42 192.956 Q2194.62 194.408 2193.94 197.219 Q2193.73 197.992 2193.59 198.156 Q2193.47 198.32 2193.12 198.32 Q2192.54 198.296 2192.54 197.828 Q2192.54 197.711 2192.72 196.961 Q2192.91 196.188 2193.26 195.064 Q2193.64 193.916 2194.04 193.19 Q2194.27 192.698 2194.48 192.371 Q2194.69 192.043 2195.11 191.527 Q2195.53 191.012 2196.17 190.731 Q2196.8 190.45 2197.57 190.45 Q2199.26 190.45 2200.45 191.48 Q2201.67 192.511 2201.95 194.127 Q2202.54 193.284 2203.26 192.558 Q2203.99 191.808 2205.33 191.129 Q2206.66 190.45 2208.09 190.45 Q2209.87 190.45 2210.97 191.363 Q2212.07 192.253 2212.07 193.565 Z" fill="#000000" fill-rule="evenodd" fill-opacity="1" /></svg>
